<svg width="512" height="512" viewBox="0 0 512 512" fill="none" xmlns="http://www.w3.org/2000/svg">
<g clip-path="url(#clip0)">
<path d="M136.491 187.731V238.931C136.491 264.531 102.358 307.198 110.891 358.398C205.602 386.217 306.313 386.217 401.024 358.398C409.557 307.198 388.139 264.531 383.957 238.931C378.308 196.495 375.458 153.743 375.424 110.931C375.424 54.3553 338.133 8.53125 281.557 8.53125H230.357C178.517 8.53125 136.49 50.5583 136.49 102.398L136.491 187.731Z" fill="#FECB66"/>
<path d="M227.029 8.53125C176.495 10.3233 136.456 51.8293 136.49 102.398V238.931C136.49 264.531 102.357 307.198 110.89 358.398C154.572 371.224 199.773 378.195 245.29 379.134C179.157 162.131 187.691 68.2653 227.029 8.53125Z" fill="#F5AD76"/>
<path d="M255.957 452.269C294.622 452.26 326.784 422.539 329.856 384.002L332.757 345.602L313.813 343.213C305.228 342.129 298.811 334.799 298.88 326.146V281.602H213.291V326.231C213.359 334.884 206.942 342.214 198.358 343.298L179.158 345.602L182.059 384.002C185.131 422.539 217.301 452.26 255.957 452.269Z" fill="#A15D30"/>
<path d="M145.024 443.733L137.259 350.805L121.643 352.768C95.8553 355.968 76.5613 377.984 76.7583 403.968V512H119.425C119.425 489.847 126.61 468.284 139.905 450.56L145.024 443.733Z" fill="#A15D30"/>
<path d="M390.272 352.768L374.656 350.805L366.891 443.733L372.011 450.56C385.306 468.284 392.491 489.847 392.491 512H435.158V403.627C435.183 377.771 415.932 355.96 390.272 352.768Z" fill="#A15D30"/>
<path d="M366.891 443.735L374.656 350.807L332.757 345.602L329.856 384.002C326.46 424.817 290.611 455.144 249.805 451.748C213.709 448.744 185.071 420.098 182.059 384.002L179.158 345.602L137.003 350.807L145.024 443.735L139.904 450.562C126.609 468.286 119.424 489.849 119.424 512.002H392.491C392.491 489.849 385.306 468.286 372.011 450.562L366.891 443.735Z" fill="#E56B2E"/>
<path d="M76.7573 402.515V510.888H102.357V358.398C86.5883 367.503 76.8433 384.305 76.7573 402.515Z" fill="#8F4F24"/>
<path d="M298.624 320.339V281.598H213.291V320.339C245.291 336.979 266.624 336.979 298.624 320.339Z" fill="#8F4F24"/>
<path d="M153.557 145.066C139.417 145.066 127.957 156.526 127.957 170.666C127.957 184.806 139.417 196.266 153.557 196.266H170.624V145.066H153.557Z" fill="#8F4F24"/>
<path d="M324.736 264.534C316.442 274.143 306.321 282.002 294.955 287.659L278.827 295.766C264.431 302.951 247.484 302.951 233.088 295.766L216.021 287.233C187.579 273.051 168.012 245.693 163.797 214.188L162.09 145.068V102.401L170.623 93.8678C181.358 83.0048 195.976 76.8608 211.242 76.8008H276.095C315.69 76.8008 315.69 76.8008 324.223 102.401C324.223 102.401 315.69 213.334 315.69 230.401C316.271 242.288 319.351 253.919 324.736 264.534Z" fill="#A15D30"/>
<path d="M196.224 119.465C196.224 105.325 198.178 91.2543 202.027 77.6523C190.114 79.6153 179.124 85.2893 170.624 93.8653L162.091 102.398V145.065L163.883 214.185C167.441 240.306 181.573 263.815 202.966 279.209C191.616 223.23 196.224 157.353 196.224 119.465Z" fill="#8F4F24"/>
<path d="M130.603 465.578C123.29 479.957 119.458 495.863 119.424 511.999H176.427C146.731 499.54 135.04 480.426 130.603 465.578Z" fill="#D65B25"/>
<path d="M307.157 179.2C316.583 179.2 324.224 171.559 324.224 162.133C324.224 152.708 316.583 145.066 307.157 145.066C297.732 145.066 290.09 152.708 290.09 162.133C290.09 171.559 297.732 179.2 307.157 179.2Z" fill="black"/>
<path d="M253.261 221.431L227.661 212.898C225.314 212.113 223.42 210.355 222.481 208.068C221.534 205.781 221.628 203.195 222.728 200.985L248.328 149.785L263.594 157.422L242.397 199.824L258.662 205.243L253.261 221.431Z" fill="black"/>
<path d="M85.2912 511.999H68.2242V403.626C67.9942 373.375 90.5052 347.699 120.593 343.961L197.393 334.404C201.668 333.866 204.877 330.197 204.851 325.871V290.133H221.918V325.802C222.02 338.721 212.386 349.729 199.518 351.334L122.709 360.891C101.214 363.562 85.1372 381.909 85.2992 403.558V511.999H85.2912Z" fill="black"/>
<path d="M443.776 512H426.709V404.053C426.88 382.336 410.794 363.998 389.307 361.318L312.507 351.769C299.622 350.148 289.988 339.14 290.09 326.169V290.133H307.157V326.229C307.123 330.624 310.331 334.284 314.624 334.831L391.407 344.38C421.496 348.118 444.006 373.803 443.776 404.113V512Z" fill="black"/>
<path d="M245.402 247.466C245.393 247.466 245.385 247.466 245.376 247.466H238.891V230.399H245.376C245.385 230.399 245.393 230.399 245.402 230.399C256.572 230.399 267.751 227.762 277.743 222.762L285.38 238.028C273.033 244.206 259.209 247.466 245.402 247.466Z" fill="black"/>
<path d="M240.188 81.3242C233.498 70.6152 223.13 62.8322 210.978 59.4192L215.603 42.9922C231.85 47.5662 245.717 57.9682 254.66 72.2872L240.188 81.3242Z" fill="black"/>
<path d="M198.741 91.3764C194.654 87.3234 181.632 76.8014 170.624 76.8014V59.7344C190.652 59.7344 208.794 77.2964 210.79 79.3014L198.741 91.3764Z" fill="black"/>
<path d="M196.224 179.2C205.65 179.2 213.291 171.559 213.291 162.133C213.291 152.708 205.65 145.066 196.224 145.066C186.798 145.066 179.157 152.708 179.157 162.133C179.157 171.559 186.798 179.2 196.224 179.2Z" fill="black"/>
<path d="M325.35 302.898C301.935 261.921 308.454 201.215 313.676 152.438C316.21 128.843 318.6 106.554 315.954 95.9303C314.418 89.8203 311.517 85.7333 307.071 83.4543C297.241 78.3773 281.428 82.6523 276.18 84.7253L269.857 68.8703C272.511 67.8123 296.327 58.7923 314.811 68.2393C323.669 72.7703 329.787 80.9113 332.501 91.7913C335.889 105.35 333.576 126.94 330.649 154.255C325.674 200.591 319.487 258.251 340.164 294.424L325.35 302.898Z" fill="black"/>
<path d="M324.745 273.067H324.224V256L324.745 273.067Z" fill="black"/>
<path d="M255.957 309.647C246.792 309.647 237.636 307.565 229.29 303.401L212.215 294.868C181.205 279.406 159.948 249.667 155.349 215.32C155.306 215.013 155.281 214.706 155.281 214.398L153.574 145.278V102.398H170.641V145.065L172.339 213.502C176.307 242.046 194.039 266.724 219.853 279.601L236.928 288.134C248.849 294.082 263.1 294.082 275.046 288.134L291.148 280.036C301.567 274.865 310.689 267.765 318.31 258.959L331.229 270.112C322.132 280.651 311.21 289.133 298.785 295.302L282.691 303.392C274.304 307.565 265.122 309.647 255.957 309.647Z" fill="black"/>
<path d="M102.477 359.8C96.7343 325.325 108.706 295.237 118.323 271.053C123.486 258.057 127.957 246.835 127.957 238.934V187.734H145.024V238.934C145.024 250.104 139.998 262.733 134.178 277.36C125.337 299.581 114.338 327.22 119.304 357.002L102.477 359.8Z" fill="black"/>
<path d="M409.438 359.799L392.602 357C398.473 321.732 389.393 290.824 382.106 266.001C379.239 256.247 376.764 247.834 375.527 240.307C369.835 197.41 366.934 153.967 366.891 110.942C366.891 56.542 331 17.067 281.558 17.067H230.358C180.916 17.067 145.025 56.542 145.025 110.934V153.6H127.958V110.933C127.957 46.652 171.025 0 230.357 0H281.557C340.889 0 383.957 46.652 383.957 110.933C384 153.216 386.841 195.899 392.414 237.807C393.438 244.036 395.776 251.981 398.473 261.18C405.862 286.293 415.966 320.674 409.438 359.799Z" fill="black"/>
<path d="M162.091 204.801H153.558C134.733 204.801 119.425 189.492 119.425 170.668C119.425 151.844 134.734 136.535 153.558 136.535H162.091V153.601H153.558C144.146 153.601 136.491 161.255 136.491 170.668C136.491 180.08 144.145 187.735 153.558 187.735H162.091V204.801Z" fill="black"/>
<path d="M255.957 460.8C213.145 460.791 176.947 427.349 173.551 384.674L170.65 350.592L187.657 349.141L190.558 383.274C193.255 417.194 221.978 443.724 255.949 443.733C289.92 443.724 318.652 417.194 321.34 383.326L324.25 349.141L341.248 350.592L338.347 384.725C334.967 427.349 298.778 460.792 255.957 460.8Z" fill="black"/>
<path d="M127.957 512H110.89C110.89 488.149 118.766 464.521 133.085 445.44L136.208 441.276L128 359.253L144.981 357.555L153.514 442.888C153.727 445.013 153.13 447.146 151.85 448.853L146.73 455.68C134.622 471.817 127.957 491.827 127.957 512Z" fill="black"/>
<path d="M401.024 511.999H383.957C383.957 491.818 377.292 471.816 365.192 455.671L360.063 448.853C358.783 447.138 358.186 445.013 358.399 442.88L366.932 357.547L383.913 359.245L375.712 441.259L378.835 445.423C393.148 464.52 401.024 488.148 401.024 511.999Z" fill="black"/>
</g>
<defs>
<clipPath id="clip0">
<rect x="0.000244141" width="512" height="512" fill="white"/>
</clipPath>
</defs>
</svg>
