<svg width="513" height="513" viewBox="0 0 513 513" fill="none" xmlns="http://www.w3.org/2000/svg">
<g clip-path="url(#clip0)">
<path d="M256.002 401.072C287.046 401.089 315.112 382.589 327.341 354.053L331.181 345.52L313.688 343.472C305.069 342.431 298.61 335.084 298.669 326.405V281.605H213.336V326.149C213.396 334.827 206.936 342.175 198.317 343.216L181.25 345.264L185.09 353.797C197.173 382.29 225.051 400.868 256.002 401.072Z" fill="#DFB28B"/>
<path d="M375.981 350.471L331.181 345.18L327.341 353.713C310.402 393.111 264.732 411.322 225.334 394.383C207.073 386.532 192.523 371.974 184.664 353.713L180.824 345.18L136.024 350.471C102.113 355.002 76.8032 383.93 76.8032 418.14V512.007H435.203V418.14C435.202 383.93 409.883 355.002 375.981 350.471Z" fill="#DE4C3C"/>
<path d="M76.8022 418.141V512.008H110.935V359.09C89.8322 371.267 76.8272 393.77 76.8022 418.141Z" fill="#C94536"/>
<path d="M145.069 469.34H76.8022V512.007H145.069V469.34Z" fill="#DFB28B"/>
<path d="M110.935 469.344H76.8022V512.011H110.935V469.344Z" fill="#CF9E76"/>
<path d="M298.669 315.742V281.609H213.336V315.742C245.335 332.809 266.669 332.809 298.669 315.742Z" fill="#CF9E76"/>
<path d="M435.202 469.34H366.935V512.007H435.202V469.34Z" fill="#DFB28B"/>
<path d="M349.868 179.207C349.757 212.308 337.631 244.24 315.735 269.063L312.236 273.074C298.028 289.27 277.548 298.597 256.001 298.674C234.335 298.691 213.71 289.364 199.425 273.074L196.268 268.978C174.397 244.172 162.263 212.274 162.135 179.207V85.3398H349.868V179.207Z" fill="#DFB28B"/>
<path d="M200.62 85.3398H162.135V179.207C162.246 212.308 174.372 244.24 196.268 269.063L199.767 273.074C203.044 276.829 206.705 280.233 210.69 283.229C188.332 208.561 195.074 126.044 200.62 85.3398Z" fill="#CF9E76"/>
<path d="M358.402 145.074H341.335V196.274H358.402C372.542 196.274 384.002 184.814 384.002 170.674C384.002 156.535 372.542 145.074 358.402 145.074Z" fill="#DFB28B"/>
<path d="M128.002 170.674C128.002 184.814 139.462 196.274 153.602 196.274H170.669V145.074H153.602C139.462 145.074 128.002 156.535 128.002 170.674Z" fill="#CF9E76"/>
<path d="M298.669 25.6061H203.266C191.558 25.6151 180.857 19.0101 175.618 8.53906L156.077 18.3521C138.618 27.1581 131.603 48.4581 140.41 65.9171C144.83 74.6891 152.698 81.2261 162.136 83.9741V145.073C162.136 145.073 184.664 112.988 204.803 85.3401H315.736L349.869 136.54V76.8061C349.868 48.5261 326.948 25.6061 298.669 25.6061Z" fill="#5C5E6F"/>
<path d="M221.868 68.2745C191.95 65.1685 164.985 48.8275 148.396 23.7305C133.838 36.6495 132.524 58.9305 145.443 73.4795C149.897 78.4975 155.683 82.1325 162.134 83.9755V145.074C162.134 145.074 184.662 112.989 204.801 85.3415H315.734L349.867 136.541V82.6965C319.405 79.5385 266.924 73.9065 221.868 68.2745Z" fill="#525463"/>
<path d="M204.802 179.208C214.228 179.208 221.869 171.567 221.869 162.141C221.869 152.715 214.228 145.074 204.802 145.074C195.376 145.074 187.735 152.715 187.735 162.141C187.735 171.567 195.376 179.208 204.802 179.208Z" fill="black"/>
<path d="M307.202 179.208C316.628 179.208 324.269 171.567 324.269 162.141C324.269 152.715 316.628 145.074 307.202 145.074C297.776 145.074 290.135 152.715 290.135 162.141C290.135 171.567 297.776 179.208 307.202 179.208Z" fill="black"/>
<path d="M264.535 213.341H238.935C236.196 213.341 233.619 212.027 232.014 209.791C230.41 207.564 229.975 204.705 230.836 202.102L247.903 150.902L264.091 156.304L250.77 196.274H264.534V213.341H264.535Z" fill="black"/>
<path d="M240.386 247.474H238.935V230.407H240.386C253.672 230.398 266.165 225.227 275.569 215.832L287.635 227.907C275.006 240.511 258.238 247.466 240.386 247.474Z" fill="black"/>
<path d="M358.402 204.807H349.869V187.74H358.402C367.814 187.74 375.469 180.086 375.469 170.673C375.469 161.26 367.815 153.606 358.402 153.606H349.869V136.539H358.402C377.227 136.539 392.535 151.848 392.535 170.672C392.535 189.496 377.226 204.807 358.402 204.807Z" fill="black"/>
<path d="M162.135 204.809H153.602C134.777 204.809 119.469 189.5 119.469 170.676C119.469 151.852 134.778 136.543 153.602 136.543H162.135V153.61H153.602C144.19 153.61 136.535 161.264 136.535 170.677C136.535 180.09 144.189 187.744 153.602 187.744H162.135V204.809Z" fill="black"/>
<path d="M349.868 145.074C347.069 145.074 344.373 143.692 342.768 141.277L311.17 93.8739H171.949C155.224 93.8739 140.162 84.5809 132.662 69.6219C121.816 47.7679 130.665 21.4429 152.28 10.7079L171.787 0.91192C173.809 -0.10308 176.148 -0.27408 178.306 0.43392C180.456 1.15092 182.231 2.68692 183.247 4.71792C187.061 12.3379 194.724 17.0739 203.241 17.0739C203.241 17.0739 203.25 17.0739 203.258 17.0739H298.669C331.599 17.0739 358.402 43.8689 358.402 76.8069V136.54C358.402 140.295 355.944 143.623 352.343 144.706C351.524 144.955 350.696 145.074 349.868 145.074ZM172.631 19.5829L159.899 25.9739C146.672 32.5449 141.271 48.6039 147.816 61.7969C152.501 71.1239 161.717 76.8069 171.948 76.8069H315.735C318.585 76.8069 321.248 78.2319 322.835 80.6039L341.335 108.354V76.8079C341.335 53.2819 322.195 34.1409 298.668 34.1409H203.265C203.256 34.1409 203.248 34.1409 203.239 34.1409C191.131 34.1409 180.012 28.7219 172.631 19.5829Z" fill="black"/>
<path d="M169.092 149.99L211.739 90.2461L197.849 80.3302L155.201 140.074L169.092 149.99Z" fill="black"/>
<path d="M255.968 307.207C231.844 307.207 208.907 296.822 193.018 278.697L189.511 274.183C166.616 248.259 153.739 214.39 153.603 179.241V85.3398H170.67V179.207C170.789 210.183 182.156 240.075 202.67 263.329L206.186 267.86C218.5 281.872 236.761 290.132 255.944 290.132C255.961 290.132 255.978 290.132 255.995 290.132C275.067 290.055 293.234 281.786 305.821 267.442L309.311 263.44C329.868 240.127 341.234 210.209 341.337 179.173V119.473H358.404V179.206C358.285 214.406 345.416 248.317 322.137 274.703L318.664 278.688C302.843 296.719 280.025 307.113 256.038 307.206C256.01 307.207 255.985 307.207 255.968 307.207Z" fill="black"/>
<path d="M85.3353 512.008H68.2682V418.141C68.2682 379.826 96.9062 347.101 134.896 342.015L197.317 334.659C201.601 334.138 204.835 330.478 204.801 326.126V290.141H221.868V326.066C221.962 339.037 212.277 350.045 199.34 351.606L137.021 358.945C107.607 362.879 85.3263 388.334 85.3353 418.141V512.008Z" fill="black"/>
<path d="M443.735 512.007H426.668V418.139C426.634 388.383 404.353 362.954 374.845 359.012L312.688 351.69C299.717 350.12 290.041 339.112 290.134 326.081V281.605H307.201V326.149C307.167 330.561 310.392 334.222 314.71 334.742L376.978 342.081C415.045 347.167 443.683 379.85 443.734 418.13V512.007H443.735Z" fill="black"/>
<path d="M256.044 409.609C256.01 409.609 255.976 409.609 255.95 409.609C221.458 409.609 190.405 389.129 176.82 357.419L171.359 344.713L187.043 337.98L192.504 350.695C203.401 376.116 228.301 392.542 255.958 392.542C255.984 392.542 256.009 392.542 256.035 392.542C283.692 392.542 308.6 376.115 319.506 350.695L324.967 337.98L340.651 344.713L335.19 357.428C321.589 389.12 290.528 409.609 256.044 409.609Z" fill="black"/>
<path d="M153.602 443.742H136.535V512.009H153.602V443.742Z" fill="black"/>
<path d="M145.069 460.809H76.8022V477.876H145.069V460.809Z" fill="black"/>
<path d="M375.469 443.742H358.402V512.009H375.469V443.742Z" fill="black"/>
<path d="M435.202 460.809H366.935V477.876H435.202V460.809Z" fill="black"/>
</g>
<defs>
<clipPath id="clip0">
<rect x="0.000244141" y="0.00390625" width="512.004" height="512.004" fill="white"/>
</clipPath>
</defs>
</svg>
