<svg width="513" height="513" viewBox="0 0 513 513" fill="none" xmlns="http://www.w3.org/2000/svg">
<g clip-path="url(#clip0)">
<path d="M308.196 298.68H205.799V307.213V341.345V512.006H308.196V341.345V298.68Z" fill="#FFB788"/>
<path d="M137.023 350.474C103.121 355.005 77.8042 383.932 77.8042 418.141V512.004H205.8V341.344L137.023 350.474Z" fill="#DE4C3C"/>
<path d="M436.192 418.141C436.192 383.932 410.874 355.005 376.973 350.474L308.197 341.344V512.005H436.193V418.141H436.192Z" fill="#DE4C3C"/>
<path d="M205.799 381.789V512.003H308.196V381.789C278.91 407.524 235.085 407.524 205.799 381.789Z" fill="#EBEBEB"/>
<path d="M308.196 298.68H205.799V381.792C235.084 407.519 278.91 407.519 308.196 381.792V298.68Z" fill="#FFB788"/>
<path d="M239.931 399.113C227.311 396.365 215.578 390.495 205.799 382.047V512.005H239.931V399.113Z" fill="#DBDBDB"/>
<path d="M308.196 332.812V298.68H205.799V332.812C244.198 349.878 269.797 349.878 308.196 332.812Z" fill="#FFAF8E"/>
<path d="M259.557 17.0898C217.139 17.0808 179.705 44.7878 167.315 85.3538H351.629C339.282 44.8308 301.924 17.1328 259.557 17.0898Z" fill="#A15D30"/>
<path d="M167.315 85.3516C163.168 98.8506 162.084 113.11 164.158 127.079L165.438 136.551V221.881C165.438 273.719 207.463 315.745 259.302 315.745C311.141 315.745 353.166 273.72 353.166 221.881V136.551L353.849 133.65C357.296 117.633 356.528 100.994 351.63 85.3526C351.629 85.3516 167.315 85.3516 167.315 85.3516Z" fill="#FFB788"/>
<path d="M197.266 85.3548V93.8878H316.729H349.325C333.82 42.9878 279.994 14.2998 229.094 29.8048C198.392 39.1568 174.363 63.1858 165.011 93.8878H197.266V85.3548Z" fill="#A15D30"/>
<path d="M197.266 93.8867H165.011C160.872 107.386 159.763 121.636 161.768 135.614L163.133 145.086C163.134 145.085 197.266 128.019 197.266 93.8867Z" fill="#A15D30"/>
<path d="M349.325 93.8867H316.729C316.729 128.019 350.861 145.085 350.861 145.085L351.458 142.184C354.88 126.167 354.146 109.545 349.325 93.8867Z" fill="#A15D30"/>
<path d="M197.266 218.81V93.8867C197.266 128.019 163.134 145.085 163.134 145.085V230.415C163.125 272.005 190.491 308.646 230.374 320.439L209.127 273.593C201.302 256.39 197.258 237.711 197.266 218.81Z" fill="#FFAF8E"/>
<path d="M359.394 145.086H350.861V196.284H359.394C373.533 196.284 384.993 184.824 384.993 170.685C384.993 156.546 373.533 145.086 359.394 145.086Z" fill="#FFB788"/>
<path d="M129.002 170.685C129.002 184.824 140.462 196.284 154.601 196.284H163.134V145.086H154.601C140.462 145.086 129.002 156.546 129.002 170.685Z" fill="#FFAF8E"/>
<path d="M265.522 25.6055H248.456V93.8695H265.522V25.6055Z" fill="#91542B"/>
<path d="M214.759 96.6033L230.949 91.207L213.884 40.0038L197.693 45.4001L214.759 96.6033Z" fill="#91542B"/>
<path d="M298.757 97.7015L324.354 46.5078L309.09 38.8759L283.493 90.0695L298.757 97.7015Z" fill="#91542B"/>
<path d="M322.019 219.831C319.911 224.046 314.783 225.753 310.568 223.637C309.681 223.193 308.878 222.596 308.196 221.879C297.12 210.906 282.145 204.77 266.555 204.813H247.868C231.869 204.83 216.526 211.179 205.203 222.476C201.884 225.821 196.482 225.847 193.137 222.536C192.582 221.99 192.104 221.367 191.721 220.684L163.135 169.059V230.412C163.135 282.25 205.16 324.276 256.999 324.276C308.838 324.276 350.863 282.251 350.863 230.412V162.148L322.019 219.831Z" fill="#A15D30"/>
<path d="M197.266 224.699C194.936 224.196 192.931 222.744 191.72 220.688L163.134 169.062V230.415C163.168 266.51 183.903 299.388 216.466 314.978C203.905 292.067 197.301 266.357 197.267 240.229V224.699H197.266Z" fill="#8F4F24"/>
<path d="M316.729 8.5547C304.544 8.5637 293.297 15.0737 287.205 25.6207L339.342 68.2857C353.481 55.8187 354.829 34.2477 342.363 20.1077C335.877 12.7527 326.542 8.5467 316.729 8.5547Z" fill="#8F4F24"/>
<path d="M205.79 349.859H154.592V511.987H205.79V349.859Z" fill="#AD3228"/>
<path d="M111.936 512.005H77.8032V392.542L111.936 358.41V512.005Z" fill="#AD3228"/>
<path d="M154.592 401.059H111.927V443.724H154.592V401.059Z" fill="#AD3228"/>
<path d="M197.257 401.059H154.592V443.724H197.257V401.059Z" fill="#7D241D"/>
<path d="M111.927 401.059H77.7952V443.724H111.927V401.059Z" fill="#7D241D"/>
<path d="M197.769 486.391H155.104V511.99H197.769V486.391Z" fill="#7D241D"/>
<path d="M359.385 349.859H308.187V511.987H359.385V349.859Z" fill="#AD3228"/>
<path d="M402.059 512.005H436.192V392.542L402.059 358.41V512.005Z" fill="#AD3228"/>
<path d="M402.051 401.059H359.386V443.724H402.051V401.059Z" fill="#AD3228"/>
<path d="M359.385 401.059H316.72V443.724H359.385V401.059Z" fill="#7D241D"/>
<path d="M436.183 401.059H402.051V443.724H436.183V401.059Z" fill="#7D241D"/>
<path d="M358.882 486.391H316.217V511.99H358.882V486.391Z" fill="#7D241D"/>
<path d="M111.927 486.391H77.7952V511.99H111.927V486.391Z" fill="#7D241D"/>
<path d="M154.592 486.391H111.927V511.99H154.592V486.391Z" fill="#AD3228"/>
<path d="M436.183 486.391H402.051V511.99H436.183V486.391Z" fill="#7D241D"/>
<path d="M402.051 486.391H359.386V511.99H402.051V486.391Z" fill="#AD3228"/>
<path d="M166.948 152.722L159.311 137.456L163.125 145.093L159.285 137.473C159.584 137.319 188.724 122.19 188.724 93.8945H205.79C205.799 132.849 168.535 151.928 166.948 152.722Z" fill="black"/>
<path d="M347.047 152.722C345.46 151.928 308.196 132.849 308.196 93.8867H325.262C325.262 122.183 354.402 137.312 354.701 137.465L347.047 152.722Z" fill="black"/>
<path d="M342.319 85.3359H171.658V102.402H342.319V85.3359Z" fill="black"/>
<path d="M344.999 74.6776L333.701 61.8946C335.783 60.0516 337.541 57.8926 338.932 55.4866C345.989 43.2676 341.791 27.5746 329.563 20.5186C317.335 13.4706 301.651 17.6596 294.595 29.8876L279.816 21.3546C285.516 11.4816 294.715 4.42463 305.722 1.47263C316.738 -1.47937 328.241 0.0386319 338.096 5.73963C358.473 17.5066 365.47 43.6516 353.712 64.0286C351.399 68.0386 348.463 71.6226 344.999 74.6776Z" fill="black"/>
<path d="M205.791 179.198C215.216 179.198 222.857 171.558 222.857 162.132C222.857 152.707 215.216 145.066 205.791 145.066C196.366 145.066 188.725 152.707 188.725 162.132C188.725 171.558 196.366 179.198 205.791 179.198Z" fill="black"/>
<path d="M308.187 179.198C317.612 179.198 325.253 171.558 325.253 162.132C325.253 152.707 317.612 145.066 308.187 145.066C298.762 145.066 291.121 152.707 291.121 162.132C291.121 171.558 298.762 179.198 308.187 179.198Z" fill="black"/>
<path d="M265.531 213.346H239.932C237.193 213.346 234.616 212.032 233.012 209.796C231.408 207.569 230.973 204.71 231.834 202.108L248.9 150.91L265.087 156.311L251.758 196.28H265.522V213.346H265.531Z" fill="black"/>
<path d="M241.391 256.015H239.94V238.949H241.391C254.677 238.94 267.169 233.769 276.573 224.375L288.639 236.449C276.009 249.06 259.233 256.006 241.391 256.015Z" fill="black"/>
<path d="M359.394 204.815H350.861V187.749H359.394C368.806 187.749 376.46 180.095 376.46 170.683C376.46 161.271 368.806 153.617 359.394 153.617H350.861V136.551H359.394C378.218 136.551 393.526 151.859 393.526 170.683C393.526 189.507 378.218 204.815 359.394 204.815Z" fill="black"/>
<path d="M163.134 204.815H154.601C135.777 204.815 120.469 189.507 120.469 170.683C120.469 151.859 135.777 136.551 154.601 136.551H163.134V153.617H154.601C145.189 153.617 137.535 161.271 137.535 170.683C137.535 180.095 145.189 187.749 154.601 187.749H163.134V204.815Z" fill="black"/>
<path d="M199.161 233.556C197.642 233.556 196.115 233.351 194.604 232.933C190.209 231.721 186.549 228.863 184.296 224.903L155.719 174.925L170.532 166.46L199.118 216.464C212.182 203.468 229.47 196.309 247.85 196.292H266.708C284.619 196.292 301.472 203.229 314.186 215.833L343.224 158.32L358.455 166.008L329.443 223.521C328.632 225.134 327.566 226.619 326.277 227.907C323.069 231.124 318.785 232.907 314.228 232.916C314.219 232.916 314.211 232.916 314.202 232.916C309.654 232.916 305.37 231.15 302.153 227.941C292.681 218.555 280.078 213.367 266.707 213.367H247.857C234.025 213.376 221.012 218.768 211.216 228.539C210.158 229.606 208.921 230.553 207.572 231.329C204.963 232.796 202.079 233.556 199.161 233.556Z" fill="black"/>
<path d="M256.998 332.81C200.535 332.81 154.601 286.877 154.601 230.413V145.697L153.321 136.831C153.321 136.831 153.321 136.822 153.321 136.814C152.638 132.018 152.288 127.138 152.28 122.308C152.135 64.429 199.101 17.232 256.98 17.087C264.267 17.053 271.955 17.846 279.285 19.425C335.825 31.559 371.937 87.433 359.811 143.973L359.401 145.953V230.405C359.394 286.877 313.461 332.81 256.998 332.81ZM170.216 134.417L171.581 143.863C171.641 144.264 171.666 144.674 171.666 145.083V230.413C171.666 277.464 209.945 315.743 256.996 315.743C304.047 315.743 342.327 277.472 342.327 230.413V145.083C342.327 144.503 342.387 143.923 342.506 143.351L343.103 140.45C353.274 93.049 323.033 46.271 275.7 36.099C269.573 34.785 263.114 34.102 257.03 34.145C208.562 34.264 169.233 73.79 169.353 122.249C169.355 126.31 169.645 130.398 170.216 134.417Z" fill="black"/>
<path d="M86.337 512.007H69.27V418.144C69.27 379.831 97.907 347.106 135.896 342.021L197.266 333.872V307.215H214.332V341.347C214.332 345.622 211.166 349.24 206.925 349.803L138.149 358.933C108.616 362.884 86.336 388.329 86.336 418.135L86.337 512.007Z" fill="black"/>
<path d="M444.725 512.004H427.659V418.141C427.659 388.335 405.388 362.881 375.838 358.939L307.07 349.809C302.829 349.246 299.663 345.628 299.663 341.353V307.219H316.729V333.876L378.09 342.025C416.079 347.102 444.725 379.835 444.725 418.148V512.004Z" fill="black"/>
<path d="M257.032 409.609C257.006 409.609 256.981 409.609 256.955 409.609C236.058 409.609 215.885 402.006 200.168 388.2L211.423 375.383C224.026 386.45 240.196 392.543 256.955 392.543C256.972 392.543 256.998 392.543 257.015 392.543C273.791 392.543 289.953 386.45 302.556 375.383L313.82 388.2C298.11 402.007 277.938 409.609 257.032 409.609Z" fill="black"/>
<path d="M214.324 341.328H197.258V511.989H214.324V341.328Z" fill="black"/>
<path d="M316.72 341.328H299.654V511.989H316.72V341.328Z" fill="black"/>
<path d="M205.799 443.743H154.601C151.939 443.743 149.439 442.497 147.817 440.39C146.204 438.274 145.667 435.526 146.366 432.966L171.965 339.102L188.434 343.582L165.77 426.668H205.799V443.743V443.743Z" fill="black"/>
<path d="M359.394 443.741H308.196V426.675H348.216L325.561 343.589L342.03 339.109L367.629 432.973C368.329 435.533 367.8 438.281 366.178 440.397C364.565 442.495 362.056 443.741 359.394 443.741Z" fill="black"/>
<path d="M175.934 486.405C168.877 486.405 163.134 480.662 163.134 473.605C163.134 466.548 168.877 460.805 175.934 460.805C182.991 460.805 188.734 466.548 188.734 473.605C188.733 480.662 182.99 486.405 175.934 486.405ZM175.934 469.339C173.579 469.339 171.667 471.259 171.667 473.606C171.667 475.953 173.578 477.873 175.934 477.873C178.289 477.873 180.201 475.953 180.201 473.606C180.2 471.259 178.289 469.339 175.934 469.339Z" fill="black"/>
</g>
<defs>
<clipPath id="clip0">
<rect x="0.995117" width="512.005" height="512.005" fill="white"/>
</clipPath>
</defs>
</svg>
