<svg width="951" height="952" viewBox="0 0 951 952" fill="none" xmlns="http://www.w3.org/2000/svg">
<circle cx="475.27" cy="476.075" r="459.598" fill="white" stroke="#246B6D" stroke-width="31"/>
<g clip-path="url(#clip0)">
<path d="M607.053 659.883C601.229 659.286 595.96 663.638 595.426 669.504L593.677 688.235L476.493 674.859C470.776 674.155 465.336 678.379 464.674 684.246C463.991 690.091 468.215 695.382 474.061 696.043L602.061 710.678C602.466 710.721 602.872 710.742 603.277 710.742C605.709 710.742 608.098 709.91 609.997 708.353C612.216 706.561 613.624 703.937 613.901 701.078L616.674 671.51C617.229 665.643 612.898 660.437 607.053 659.883Z" fill="#246B6D"/>
<path d="M476.535 329.323L273.869 305.472C267.81 304.768 262.733 308.928 262.008 314.752L219.341 656.085C219 658.901 219.789 661.76 221.56 664C223.309 666.24 225.891 667.691 228.728 668.011L343.288 681.11C343.715 681.153 344.099 681.174 344.525 681.174C349.858 681.174 354.488 677.163 355.106 671.723C355.789 665.878 351.565 660.587 345.719 659.926L241.869 648.043L281.89 327.894L474.039 350.507C480.14 351.296 485.218 347.008 485.879 341.163C486.583 335.317 482.381 330.005 476.535 329.323Z" fill="#246B6D"/>
<path d="M589.475 319.21C585.315 315.05 578.552 315.05 574.392 319.21L521.059 372.543C516.899 376.703 516.899 383.466 521.059 387.626C523.15 389.695 525.88 390.741 528.611 390.741C531.342 390.741 534.072 389.696 536.142 387.626L589.475 334.293C593.635 330.132 593.635 323.37 589.475 319.21Z" fill="#246B6D"/>
<path d="M731.192 656.106L688.526 314.772C687.801 308.948 682.425 304.809 676.686 305.492L647.289 308.948C641.422 309.631 637.241 314.943 637.945 320.788C638.628 326.633 643.961 330.857 649.785 330.132L668.665 327.913L708.686 648.02L356.878 688.233L326.862 368.105L587.406 337.47C593.273 336.787 597.454 331.475 596.75 325.63C596.067 319.785 590.649 315.454 584.91 316.286L314.019 348.159C308.28 348.82 304.12 353.962 304.654 359.743L336.654 701.076C336.931 703.913 338.339 706.559 340.558 708.351C342.457 709.908 344.846 710.74 347.278 710.74C347.683 710.74 348.089 710.719 348.473 710.697L721.806 668.03C724.643 667.689 727.225 666.259 728.974 664.019C730.744 661.78 731.555 658.922 731.192 656.106Z" fill="#246B6D"/>
<path d="M613.944 241.406C584.525 241.406 560.611 265.342 560.611 294.739C560.611 324.136 584.526 348.072 613.944 348.072C643.362 348.072 667.277 324.136 667.277 294.739C667.277 265.342 643.363 241.406 613.944 241.406ZM613.944 326.739C596.301 326.739 581.944 312.382 581.944 294.739C581.944 277.096 596.301 262.739 613.944 262.739C631.587 262.739 645.944 277.096 645.944 294.739C645.944 312.382 631.587 326.739 613.944 326.739Z" fill="#246B6D"/>
</g>
<defs>
<clipPath id="clip0">
<rect x="219.264" y="220.066" width="512.013" height="512.013" fill="white"/>
</clipPath>
</defs>
</svg>
