<svg width="951" height="951" viewBox="0 0 951 951" fill="none" xmlns="http://www.w3.org/2000/svg">
<circle cx="475.098" cy="475.606" r="459.598" fill="white" stroke="#246B6D" stroke-width="31"/>
<path d="M475.098 222.488C448.588 222.488 427.098 243.978 427.098 270.488C427.098 296.998 448.588 318.488 475.098 318.488C501.597 318.462 523.072 296.987 523.098 270.488C523.098 243.978 501.608 222.488 475.098 222.488ZM475.098 302.488C457.425 302.488 443.098 288.161 443.098 270.488C443.098 252.815 457.425 238.488 475.098 238.488C492.771 238.488 507.098 252.815 507.098 270.488C507.098 288.161 492.771 302.488 475.098 302.488Z" fill="#246B6D" stroke="#246B6D" stroke-width="8"/>
<path d="M507.098 326.488H505.21L503.522 327.328C485.621 336.241 464.575 336.241 446.674 327.328L444.986 326.488H443.098C421.018 326.514 403.124 344.408 403.098 366.488V414.488C403.098 427.743 413.843 438.488 427.098 438.488H523.098C536.353 438.488 547.098 427.743 547.098 414.488V366.488C547.072 344.408 529.178 326.514 507.098 326.488ZM531.098 414.488C531.098 418.906 527.516 422.488 523.098 422.488H427.098C422.68 422.488 419.098 418.906 419.098 414.488V366.488C419.1 353.896 428.833 343.446 441.394 342.552C462.769 352.472 487.428 352.472 508.802 342.552C521.362 343.446 531.096 353.896 531.098 366.488V414.488Z" fill="#246B6D" stroke="#246B6D" stroke-width="8"/>
<path d="M643.098 486.488C616.588 486.488 595.098 507.978 595.098 534.488C595.098 560.998 616.588 582.488 643.098 582.488C669.608 582.488 691.098 560.998 691.098 534.488C691.072 507.989 669.597 486.514 643.098 486.488ZM643.098 566.488C625.425 566.488 611.098 552.161 611.098 534.488C611.098 516.815 625.425 502.488 643.098 502.488C660.771 502.488 675.098 516.815 675.098 534.488C675.098 552.161 660.771 566.488 643.098 566.488Z" fill="#246B6D" stroke="#246B6D" stroke-width="8"/>
<path d="M675.098 590.488H673.21L671.522 591.288C653.621 600.2 632.575 600.2 614.674 591.288L612.986 590.488H611.098C589.018 590.514 571.124 608.408 571.098 630.488V678.488C571.098 691.743 581.843 702.488 595.098 702.488H691.098C704.353 702.488 715.098 691.743 715.098 678.488V630.488C715.072 608.408 697.178 590.514 675.098 590.488ZM699.098 678.488C699.098 682.906 695.516 686.488 691.098 686.488H595.098C590.68 686.488 587.098 682.906 587.098 678.488V630.488C587.1 617.896 596.833 607.446 609.394 606.552C630.769 616.472 655.427 616.472 676.802 606.552C689.363 607.446 699.096 617.896 699.098 630.488V678.488Z" fill="#246B6D" stroke="#246B6D" stroke-width="8"/>
<path d="M307.098 486.488C280.588 486.488 259.098 507.978 259.098 534.488C259.098 560.998 280.588 582.488 307.098 582.488C333.608 582.488 355.098 560.998 355.098 534.488C355.072 507.989 333.597 486.514 307.098 486.488ZM307.098 566.488C289.425 566.488 275.098 552.161 275.098 534.488C275.098 516.815 289.425 502.488 307.098 502.488C324.771 502.488 339.098 516.815 339.098 534.488C339.098 552.161 324.771 566.488 307.098 566.488Z" fill="#246B6D" stroke="#246B6D" stroke-width="8"/>
<path d="M339.098 590.488H337.21L335.522 591.288C317.621 600.2 296.575 600.2 278.674 591.288L276.986 590.488H275.098C253.018 590.514 235.124 608.408 235.098 630.488V678.488C235.098 691.743 245.843 702.488 259.098 702.488H355.098C368.353 702.488 379.098 691.743 379.098 678.488V630.488C379.072 608.408 361.178 590.514 339.098 590.488ZM363.098 678.488C363.098 682.906 359.516 686.488 355.098 686.488H259.098C254.68 686.488 251.098 682.906 251.098 678.488V630.488C251.1 617.896 260.833 607.446 273.394 606.552C294.769 616.472 319.427 616.472 340.802 606.552C353.363 607.446 363.096 617.896 363.098 630.488V678.488Z" fill="#246B6D" stroke="#246B6D" stroke-width="8"/>
<path d="M554.468 628.765C554.464 628.756 554.46 628.747 554.456 628.737C552.724 624.672 548.025 622.781 543.961 624.513C507.836 639.653 467.716 642.415 429.857 632.369L437.345 630.169C441.587 628.927 444.019 624.483 442.777 620.241C441.535 615.999 437.091 613.567 432.849 614.809L400.849 624.193C400.729 624.193 400.641 624.329 400.529 624.369C399.788 624.645 399.092 625.031 398.465 625.513C398.187 625.663 397.92 625.831 397.665 626.017C396.821 626.77 396.152 627.698 395.705 628.737C395.271 629.783 395.064 630.909 395.097 632.041C395.292 633.124 395.559 634.193 395.897 635.241C395.945 635.353 395.897 635.481 395.985 635.593L411.985 666.209C414.031 670.128 418.866 671.647 422.785 669.601C426.704 667.555 428.223 662.72 426.177 658.801L419.665 646.353C462.679 659.283 508.86 656.77 550.217 639.249C554.285 637.528 556.189 632.834 554.468 628.765Z" fill="#246B6D" stroke="#246B6D" stroke-width="8"/>
<path d="M688.752 432.832C685.628 429.709 680.564 429.709 677.44 432.832L666.12 444.152C659.496 374.082 615.009 313.276 550.232 285.752C546.167 284.02 541.468 285.911 539.736 289.976C538.004 294.041 539.895 298.74 543.96 300.472C602.07 325.169 642.464 379.141 649.776 441.856L640.752 432.832C637.574 429.762 632.51 429.85 629.44 433.028C626.446 436.128 626.446 441.043 629.44 444.144L653.44 468.144C656.56 471.272 661.626 471.279 664.754 468.158C664.759 468.153 664.764 468.148 664.768 468.144L688.768 444.144C691.887 441.016 691.88 435.952 688.752 432.832Z" fill="#246B6D" stroke="#246B6D" stroke-width="8"/>
<path d="M410.866 291.759C410.84 291.292 410.771 290.829 410.658 290.375C410.658 290.303 410.57 290.255 410.538 290.175C410.506 290.095 410.538 290.039 410.538 289.975C410.32 289.586 410.068 289.216 409.786 288.871C409.527 288.402 409.221 287.96 408.874 287.551C408.401 287.132 407.877 286.775 407.314 286.487C407.033 286.248 406.733 286.031 406.418 285.839L374.418 271.223C370.331 269.545 365.657 271.498 363.979 275.585C362.392 279.45 364.047 283.886 367.778 285.767L384.346 293.343C321.973 326.724 283.053 391.743 283.098 462.487C283.098 466.905 286.68 470.487 291.098 470.487C295.516 470.487 299.098 466.905 299.098 462.487C299.058 400.194 331.999 342.535 385.682 310.935L379.898 323.023C377.991 327 379.662 331.77 383.634 333.687C384.713 334.214 385.897 334.488 387.098 334.487C390.17 334.483 392.968 332.72 394.298 329.951L410.298 296.567C410.298 296.487 410.298 296.399 410.362 296.319C410.57 295.772 410.715 295.203 410.794 294.623C410.931 294.192 411.033 293.751 411.098 293.303C411.071 292.782 410.994 292.265 410.866 291.759Z" fill="#246B6D" stroke="#246B6D" stroke-width="8"/>
</svg>
