<svg id="Layer_1" height="512" viewBox="0 0 128 128" width="512" xmlns="http://www.w3.org/2000/svg" data-name="Layer 1"><path d="m105.617 64.533h-83.234l13.872-21.866h55.489z" fill="#ffd322"/><path d="m50.128 64.533h-27.745l13.872-21.866z" fill="#ffe171"/><path d="m77.872 64.533h-27.744l13.872-21.866z" fill="#ffe171"/><path d="m105.617 64.533h-27.745l13.872-21.866z" fill="#ffe171"/><path d="m64 112.25-41.617-47.717h83.234z" fill="#ffb500"/><path d="m50.128 64.533 13.872 47.717 13.872-47.717z" fill="#ffd322"/><path d="m64 14a1.751 1.751 0 0 0 -1.75 1.75v13.083a1.75 1.75 0 0 0 3.5 0v-13.083a1.751 1.751 0 0 0 -1.75-1.75z" fill="#ffd322"/><path d="m84.27 22.4a1.75 1.75 0 0 0 -2.474 0l-9.252 9.252a1.75 1.75 0 1 0 2.475 2.474l9.251-9.251a1.749 1.749 0 0 0 0-2.475z" fill="#ffd322"/><path d="m46.2 22.4a1.75 1.75 0 1 0 -2.475 2.475l9.252 9.251a1.75 1.75 0 1 0 2.475-2.474z" fill="#ffd322"/><g fill="#7c1f00"><path d="m107.094 63.6-13.872-21.871a1.749 1.749 0 0 0 -1.478-.812h-34.793a1.75 1.75 0 1 0 0 3.5h3.866l-10.689 16.85-10.69-16.85h4.812a1.75 1.75 0 0 0 0-3.5h-7.995a1.748 1.748 0 0 0 -1.477.812l-13.872 21.871a1.747 1.747 0 0 0 -.056 1.781 1.767 1.767 0 0 0 .175.237.6.6 0 0 0 .039.07l41.617 47.712a1.75 1.75 0 0 0 2.638 0l41.616-47.716a.347.347 0 0 0 .021-.037 1.745 1.745 0 0 0 .138-2.047zm-31.553 2.683-11.541 39.697-10.543-36.263a1.75 1.75 0 1 0 -3.361.978l10.009 34.426-33.873-38.838zm-22.231-3.5 10.69-16.85 10.69 16.85zm25.876 3.5h17.981a1.75 1.75 0 0 0 0-3.5h-16.112l10.689-16.85 11.694 18.434-35.538 40.754zm9.376-21.866-10.69 16.85-10.69-16.85zm-52.307 1.516 10.69 16.85h-21.379z"/><path d="m50.128 40.917a1.75 1.75 0 0 0 0 3.5h.788a1.75 1.75 0 0 0 0-3.5z"/><path d="m64 30.583a1.75 1.75 0 0 0 1.75-1.75v-13.083a1.75 1.75 0 0 0 -3.5 0v13.083a1.75 1.75 0 0 0 1.75 1.75z"/><path d="m73.781 34.635a1.745 1.745 0 0 0 1.238-.513l9.251-9.251a1.75 1.75 0 1 0 -2.47-2.471l-9.252 9.252a1.75 1.75 0 0 0 1.237 2.987z"/><path d="m52.981 34.122a1.75 1.75 0 1 0 2.475-2.474l-9.256-9.248a1.75 1.75 0 1 0 -2.475 2.475z"/></g></svg>