<svg width="951" height="951" viewBox="0 0 951 951" fill="none" xmlns="http://www.w3.org/2000/svg">
<circle cx="475.448" cy="475.582" r="459.598" fill="white" stroke="#246B6D" stroke-width="31"/>
<path d="M544.786 657.681H496.322V613.692L568.106 568.83L496.322 523.968V471.901H544.786V407.282H496.322V350.74H560.941V237.656H415.548V350.74H480.167V407.282H431.703V431.514H359.006V447.669H431.703V471.901H480.167V523.968L408.383 568.83L480.167 613.692V657.681H431.703C418.342 657.681 407.47 668.554 407.47 681.914V714.223C407.47 727.583 418.342 738.455 431.703 738.455H544.786C558.146 738.455 569.018 727.583 569.018 714.223V681.914C569.018 668.554 558.146 657.681 544.786 657.681ZM431.703 253.811H544.786V334.585H431.703V253.811ZM447.857 423.437H528.631V455.746H447.857V423.437ZM488.244 537.966L537.622 568.83L488.244 599.694L438.867 568.83L488.244 537.966ZM552.864 714.223C552.864 718.674 549.237 722.301 544.786 722.301H431.703C427.252 722.301 423.625 718.674 423.625 714.223V681.914C423.625 677.463 427.252 673.836 431.703 673.836H544.786C549.237 673.836 552.864 677.463 552.864 681.914V714.223Z" fill="#246B6D" stroke="#246B6D" stroke-width="8"/>
<path d="M345.217 671.47L363.739 689.991H292.9C290.461 683.15 285.073 677.762 278.231 675.323V504.211H262.077V675.323C252.699 678.667 245.922 687.552 245.922 698.069C245.922 711.429 256.794 722.301 270.154 722.301C280.671 722.301 289.556 715.524 292.9 706.146H363.739L345.217 724.668L356.639 736.089L394.659 698.069L356.639 660.048L345.217 671.47ZM270.154 706.146C265.703 706.146 262.077 702.519 262.077 698.069C262.077 693.618 265.703 689.991 270.154 689.991C274.605 689.991 278.231 693.618 278.231 698.069C278.231 702.519 274.605 706.146 270.154 706.146Z" fill="#246B6D" stroke="#246B6D" stroke-width="8"/>
<path d="M690.178 546.083V316.943C699.556 313.599 706.333 304.714 706.333 294.197C706.333 280.837 695.46 269.965 682.1 269.965C671.584 269.965 662.698 276.742 659.354 286.12H577.094V302.274H659.354C661.794 309.116 667.181 314.504 674.023 316.943V546.091C667.181 548.53 661.794 553.918 659.354 560.76H604.67L623.192 542.238L611.77 530.817L573.75 568.829L611.77 606.849L623.192 595.428L604.67 576.906H659.354C662.698 586.284 671.584 593.061 682.1 593.061C695.46 593.061 706.333 582.189 706.333 568.829C706.333 558.312 699.556 549.427 690.178 546.083V546.083ZM682.1 286.12C686.551 286.12 690.178 289.746 690.178 294.197C690.178 298.648 686.551 302.274 682.1 302.274C677.65 302.274 674.023 298.648 674.023 294.197C674.023 289.746 677.65 286.12 682.1 286.12ZM682.1 576.906C677.65 576.906 674.023 573.28 674.023 568.829C674.023 564.378 677.65 560.751 682.1 560.751C686.551 560.751 690.178 564.378 690.178 568.829C690.178 573.28 686.551 576.906 682.1 576.906Z" fill="#246B6D" stroke="#246B6D" stroke-width="8"/>
<path d="M340.597 439.592L270.154 389.277L199.711 439.592L270.154 489.906L340.597 439.592ZM270.154 409.132L312.795 439.592L270.154 470.051L227.513 439.592L270.154 409.132Z" fill="#246B6D" stroke="#246B6D" stroke-width="8"/>
<path d="M447.857 269.965H528.631V286.12H447.857V269.965Z" fill="#246B6D" stroke="#246B6D" stroke-width="8"/>
<path d="M447.857 302.277H496.322V318.432H447.857V302.277Z" fill="#246B6D" stroke="#246B6D" stroke-width="8"/>
<path d="M512.477 302.277H528.631V318.432H512.477V302.277Z" fill="#246B6D" stroke="#246B6D" stroke-width="8"/>
<path d="M649.791 689.992H665.946V706.147H649.791V689.992Z" fill="#246B6D" stroke="#246B6D" stroke-width="8"/>
<path d="M617.482 689.992H633.637V706.147H617.482V689.992Z" fill="#246B6D" stroke="#246B6D" stroke-width="8"/>
<path d="M585.172 689.992H601.327V706.147H585.172V689.992Z" fill="#246B6D" stroke="#246B6D" stroke-width="8"/>
<path d="M350.928 302.277H367.083V318.432H350.928V302.277Z" fill="#246B6D" stroke="#246B6D" stroke-width="8"/>
<path d="M383.236 302.277H399.391V318.432H383.236V302.277Z" fill="#246B6D" stroke="#246B6D" stroke-width="8"/>
<path d="M318.617 302.277H334.772V318.432H318.617V302.277Z" fill="#246B6D" stroke="#246B6D" stroke-width="8"/>
</svg>
