<svg width="951" height="952" viewBox="0 0 951 952" fill="none" xmlns="http://www.w3.org/2000/svg">
<circle cx="475.741" cy="476.075" r="459.598" fill="white" stroke="#246B6D" stroke-width="31"/>
<path d="M513.074 604.81H497.074V594.81C515.842 586.213 529.074 566.661 529.074 544.293V514.143C529.074 499.439 517.111 487.477 502.407 487.477H411.74C408.791 487.477 406.407 489.866 406.407 492.81V503.477C406.407 513.397 413.212 521.759 422.407 524.138V529.119L412.119 554.831C411.463 556.474 411.666 558.335 412.658 559.802C413.65 561.263 415.303 562.143 417.074 562.143H424.892C429.58 577.061 440.567 588.874 454.407 594.959V604.81H438.407C406.06 604.81 379.74 631.13 379.74 663.477V711.477C379.74 714.421 382.124 716.81 385.074 716.81H566.407C569.356 716.81 571.74 714.421 571.74 711.477V663.477C571.74 631.13 545.42 604.81 513.074 604.81V604.81ZM417.074 503.477V498.143H502.407C511.228 498.143 518.407 505.322 518.407 514.143V540.81C509.586 540.81 502.407 533.631 502.407 524.81V519.477C502.407 516.533 500.023 514.143 497.074 514.143H427.74C421.858 514.143 417.074 509.359 417.074 503.477ZM434.172 555.626C433.623 553.199 431.458 551.477 428.967 551.477H424.946L432.69 532.127C432.946 531.493 433.074 530.821 433.074 530.143V524.81H491.74C491.74 539.306 503.383 551.082 517.799 551.418C514.54 572.085 497.436 588.282 476.839 588.799C456.834 589.354 438.658 575.359 434.172 555.626V555.626ZM465.074 598.346C468.551 599.061 472.119 599.477 475.767 599.477C476.215 599.477 476.663 599.471 477.111 599.461C480.29 599.381 483.388 598.959 486.407 598.314V610.143C486.407 613.087 488.791 615.477 491.74 615.477H494.124L475.74 655.919L457.356 615.477H470.407C473.356 615.477 475.74 613.087 475.74 610.143C475.74 607.199 473.356 604.81 470.407 604.81H465.074V598.346ZM561.074 706.143H390.407V663.477C390.407 637.013 411.938 615.477 438.407 615.477H445.639L470.882 671.018C471.751 672.922 473.644 674.143 475.74 674.143C477.836 674.143 479.73 672.922 480.594 671.018L505.842 615.477H513.074C539.543 615.477 561.074 637.013 561.074 663.477V706.143Z" fill="#246B6D" stroke="#246B6D" stroke-width="9.33"/>
<path d="M475.74 380.373C477.185 380.373 478.577 379.781 479.585 378.736L526.727 329.733C538.433 317.563 538.433 297.755 526.727 285.584C520.988 279.621 513.345 276.336 505.207 276.336C505.201 276.336 505.201 276.336 505.201 276.336C497.062 276.336 489.42 279.621 483.687 285.584L475.74 293.845L467.799 285.589C462.065 279.627 454.423 276.347 446.284 276.341C446.284 276.341 446.284 276.341 446.279 276.341C438.14 276.341 430.497 279.627 424.759 285.589C413.052 297.76 413.052 317.568 424.759 329.739L471.9 378.741C472.902 379.787 474.295 380.373 475.74 380.373V380.373ZM432.444 292.987C436.151 289.131 441.063 287.008 446.279 287.008H446.284C451.5 287.008 456.407 289.131 460.113 292.987L471.9 305.237C473.91 307.328 477.575 307.328 479.585 305.237L491.372 292.987C498.785 285.28 511.628 285.28 519.041 292.987C526.828 301.083 526.828 314.251 519.041 322.341L475.74 367.349L432.444 322.347C424.657 314.251 424.657 301.083 432.444 292.987Z" fill="#246B6D" stroke="#246B6D" stroke-width="3.33"/>
<path d="M550.407 295.477C553.356 295.477 555.74 293.087 555.74 290.143V268.81C555.74 265.866 553.356 263.477 550.407 263.477H529.074C526.124 263.477 523.74 265.866 523.74 268.81C523.74 271.754 526.124 274.143 529.074 274.143H545.074V290.143C545.074 293.087 547.458 295.477 550.407 295.477Z" fill="#246B6D" stroke="#246B6D" stroke-width="3.33"/>
<path d="M401.074 359.477C398.124 359.477 395.74 361.866 395.74 364.81V386.143C395.74 389.087 398.124 391.477 401.074 391.477H422.407C425.356 391.477 427.74 389.087 427.74 386.143C427.74 383.199 425.356 380.81 422.407 380.81H406.407V364.81C406.407 361.866 404.023 359.477 401.074 359.477Z" fill="#246B6D" stroke="#246B6D" stroke-width="3.33"/>
<path d="M694.406 332.807H577.073C562.369 332.807 550.406 344.77 550.406 359.474V418.141H518.406C516.993 418.141 515.633 418.701 514.636 419.703L475.74 458.599L436.844 419.703C435.841 418.701 434.486 418.141 433.073 418.141H369.073C366.934 418.141 364.902 417.703 363.041 416.941C362.972 416.914 362.897 416.893 362.822 416.866C357.094 414.434 353.073 408.759 353.073 402.141V252.807C353.073 243.97 360.236 236.807 369.073 236.807H582.406C591.244 236.807 598.406 243.97 598.406 252.807V316.807C598.406 319.751 600.79 322.141 603.74 322.141C606.689 322.141 609.073 319.751 609.073 316.807V252.807C609.073 238.082 597.132 226.141 582.406 226.141H369.073C354.348 226.141 342.406 238.082 342.406 252.807V402.141C342.406 406.706 343.66 410.941 345.686 414.701C340.593 417.378 337.073 422.663 337.073 428.807C337.073 437.629 344.252 444.807 353.073 444.807C361.894 444.807 369.073 437.629 369.073 428.807H379.74V471.474H363.74C360.79 471.474 358.406 473.863 358.406 476.807V506.599L324.844 473.037C323.846 472.034 322.492 471.474 321.073 471.474H241.073V386.141H326.406C329.356 386.141 331.74 383.751 331.74 380.807C331.74 377.863 329.356 375.474 326.406 375.474H235.74C232.79 375.474 230.406 377.863 230.406 380.807V476.807C230.406 479.751 232.79 482.141 235.74 482.141H318.865L359.969 523.245C360.988 524.263 362.353 524.807 363.74 524.807C364.428 524.807 365.121 524.674 365.782 524.402C367.777 523.575 369.073 521.629 369.073 519.474V482.141H385.073C388.022 482.141 390.406 479.751 390.406 476.807V428.807H430.865L471.969 469.911C473.009 470.951 474.374 471.474 475.74 471.474C477.105 471.474 478.47 470.951 479.51 469.911L520.614 428.807H550.406V455.474C550.406 470.178 562.369 482.141 577.073 482.141H582.406V514.141C582.406 516.295 583.702 518.242 585.697 519.069C586.358 519.341 587.052 519.474 587.74 519.474C589.126 519.474 590.492 518.93 591.51 517.911L627.281 482.141H694.406C709.11 482.141 721.073 470.178 721.073 455.474V359.474C721.073 344.77 709.11 332.807 694.406 332.807V332.807ZM358.406 428.807C358.406 431.746 356.017 434.141 353.073 434.141C350.129 434.141 347.74 431.746 347.74 428.807C347.74 425.869 350.129 423.474 353.073 423.474C353.142 423.474 353.169 423.485 353.233 423.485C354.588 424.493 356.033 425.362 357.569 426.098C358.006 426.781 358.406 427.629 358.406 428.807V428.807ZM710.406 455.474C710.406 464.295 703.228 471.474 694.406 471.474H625.073C623.654 471.474 622.3 472.034 621.302 473.037L593.073 501.266V476.807C593.073 473.863 590.689 471.474 587.74 471.474H577.073C568.252 471.474 561.073 464.295 561.073 455.474V359.474C561.073 350.653 568.252 343.474 577.073 343.474H694.406C703.228 343.474 710.406 350.653 710.406 359.474V455.474Z" fill="#246B6D" stroke="#246B6D" stroke-width="11.33"/>
<path d="M640.514 378.427C638.701 374.811 632.786 374.811 630.973 378.427L604.306 431.76C603.48 433.414 603.565 435.376 604.541 436.95C605.512 438.518 607.223 439.478 609.074 439.478H662.408C664.258 439.478 665.97 438.518 666.946 436.95C667.922 435.376 668.007 433.414 667.181 431.76L640.514 378.427ZM617.703 428.811L635.741 392.736L653.778 428.811H617.703Z" fill="#246B6D" stroke="#246B6D" stroke-width="3.33"/>
<path d="M251.74 428.813C251.74 437.634 258.919 444.813 267.74 444.813C276.562 444.813 283.74 437.634 283.74 428.813C283.74 419.991 276.562 412.812 267.74 412.812C258.919 412.812 251.74 419.991 251.74 428.813ZM273.074 428.813C273.074 431.751 270.684 434.146 267.74 434.146C264.796 434.146 262.407 431.751 262.407 428.813C262.407 425.874 264.796 423.479 267.74 423.479C270.684 423.479 273.074 425.874 273.074 428.813Z" fill="#246B6D" stroke="#246B6D" stroke-width="3.33"/>
<path d="M294.406 428.813C294.406 437.634 301.585 444.813 310.406 444.813C319.228 444.813 326.406 437.634 326.406 428.813C326.406 419.991 319.228 412.812 310.406 412.812C301.585 412.812 294.406 419.991 294.406 428.813ZM315.74 428.813C315.74 431.751 313.35 434.146 310.406 434.146C307.462 434.146 305.073 431.751 305.073 428.813C305.073 425.874 307.462 423.479 310.406 423.479C313.35 423.479 315.74 425.874 315.74 428.813Z" fill="#246B6D" stroke="#246B6D" stroke-width="3.33"/>
<path d="M395.334 565.431C394.513 563.442 392.561 562.141 390.406 562.141H358.406V551.474C358.406 548.53 356.022 546.141 353.073 546.141H235.74C232.79 546.141 230.406 548.53 230.406 551.474V690.141C230.406 693.085 232.79 695.474 235.74 695.474H353.073C356.022 695.474 358.406 693.085 358.406 690.141V607.015L394.177 571.245C395.702 569.719 396.161 567.426 395.334 565.431ZM349.302 601.037C348.3 602.034 347.74 603.394 347.74 604.807V684.807H241.073V556.807H347.74V567.474C347.74 570.418 350.124 572.807 353.073 572.807H377.532L349.302 601.037Z" fill="#246B6D" stroke="#246B6D" stroke-width="9.33"/>
<path d="M715.74 540.812H587.74C584.791 540.812 582.407 543.202 582.407 546.146V556.813H550.407C548.252 556.813 546.3 558.114 545.479 560.103C544.652 562.098 545.111 564.391 546.636 565.917L582.407 601.687V642.146C582.407 645.09 584.791 647.479 587.74 647.479H715.74C718.689 647.479 721.073 645.09 721.073 642.146V546.146C721.073 543.202 718.689 540.812 715.74 540.812ZM710.407 636.813H593.073V599.479C593.073 598.066 592.513 596.706 591.511 595.708L563.281 567.479H587.74C590.689 567.479 593.073 565.09 593.073 562.146V551.479H710.407V636.813Z" fill="#246B6D" stroke="#246B6D" stroke-width="9.33"/>
<path d="M614.408 578.143H689.074C692.024 578.143 694.408 575.754 694.408 572.81C694.408 569.866 692.024 567.477 689.074 567.477H614.408C611.458 567.477 609.074 569.866 609.074 572.81C609.074 575.754 611.458 578.143 614.408 578.143Z" fill="#246B6D" stroke="#246B6D" stroke-width="3.33"/>
<path d="M614.408 599.479H689.074C692.024 599.479 694.408 597.09 694.408 594.146C694.408 591.202 692.024 588.812 689.074 588.812H614.408C611.458 588.812 609.074 591.202 609.074 594.146C609.074 597.09 611.458 599.479 614.408 599.479Z" fill="#246B6D" stroke="#246B6D" stroke-width="3.33"/>
<path d="M326.408 572.812H262.408C259.458 572.812 257.074 575.202 257.074 578.146C257.074 581.09 259.458 583.479 262.408 583.479H326.408C329.357 583.479 331.741 581.09 331.741 578.146C331.741 575.202 329.357 572.812 326.408 572.812Z" fill="#246B6D" stroke="#246B6D" stroke-width="3.33"/>
<path d="M326.408 594.141H262.408C259.458 594.141 257.074 596.53 257.074 599.474C257.074 602.418 259.458 604.807 262.408 604.807H326.408C329.357 604.807 331.741 602.418 331.741 599.474C331.741 596.53 329.357 594.141 326.408 594.141Z" fill="#246B6D" stroke="#246B6D" stroke-width="3.33"/>
<path d="M326.408 615.477H262.408C259.458 615.477 257.074 617.866 257.074 620.81C257.074 623.754 259.458 626.143 262.408 626.143H326.408C329.357 626.143 331.741 623.754 331.741 620.81C331.741 617.866 329.357 615.477 326.408 615.477Z" fill="#246B6D" stroke="#246B6D" stroke-width="3.33"/>
<path d="M326.408 636.812H262.408C259.458 636.812 257.074 639.202 257.074 642.146C257.074 645.09 259.458 647.479 262.408 647.479H326.408C329.357 647.479 331.741 645.09 331.741 642.146C331.741 639.202 329.357 636.812 326.408 636.812Z" fill="#246B6D" stroke="#246B6D" stroke-width="3.33"/>
<path d="M326.408 658.141H262.408C259.458 658.141 257.074 660.53 257.074 663.474C257.074 666.418 259.458 668.807 262.408 668.807H326.408C329.357 668.807 331.741 666.418 331.741 663.474C331.741 660.53 329.357 658.141 326.408 658.141Z" fill="#246B6D" stroke="#246B6D" stroke-width="3.33"/>
<path d="M523.741 658.141H502.408C499.458 658.141 497.074 660.53 497.074 663.474V684.807C497.074 686.829 498.216 688.674 500.024 689.581L510.69 694.914C511.437 695.287 512.258 695.474 513.074 695.474C513.89 695.474 514.712 695.287 515.458 694.914L526.125 689.581C527.933 688.674 529.074 686.829 529.074 684.807V663.474C529.074 660.53 526.69 658.141 523.741 658.141ZM518.408 681.511L513.074 684.178L507.741 681.511V668.807H518.408V681.511Z" fill="#246B6D" stroke="#246B6D" stroke-width="3.33"/>
<path d="M646.408 620.807C649.353 620.807 651.741 618.419 651.741 615.474C651.741 612.528 649.353 610.141 646.408 610.141C643.462 610.141 641.074 612.528 641.074 615.474C641.074 618.419 643.462 620.807 646.408 620.807Z" fill="#246B6D" stroke="#246B6D" stroke-width="3.33"/>
<path d="M667.74 620.807C670.685 620.807 673.073 618.419 673.073 615.474C673.073 612.528 670.685 610.141 667.74 610.141C664.794 610.141 662.406 612.528 662.406 615.474C662.406 618.419 664.794 620.807 667.74 620.807Z" fill="#246B6D" stroke="#246B6D" stroke-width="3.33"/>
<path d="M689.074 620.807C692.019 620.807 694.407 618.419 694.407 615.474C694.407 612.528 692.019 610.141 689.074 610.141C686.128 610.141 683.74 612.528 683.74 615.474C683.74 618.419 686.128 620.807 689.074 620.807Z" fill="#246B6D" stroke="#246B6D" stroke-width="3.33"/>
<path d="M614.408 620.807H625.074C628.024 620.807 630.408 618.418 630.408 615.474C630.408 612.53 628.024 610.141 625.074 610.141H614.408C611.458 610.141 609.074 612.53 609.074 615.474C609.074 618.418 611.458 620.807 614.408 620.807Z" fill="#246B6D" stroke="#246B6D" stroke-width="3.33"/>
</svg>
