<svg id="Layer_5" enable-background="new 0 0 64 64" height="512" viewBox="0 0 64 64" width="512" xmlns="http://www.w3.org/2000/svg"><path d="m46 47v4c0-.95-1.17-1.79-3-2.34v-.99-30.67h-4l11-14 11 14h-4v27.22c-.93-.14-1.94-.22-3-.22-4.42 0-8 1.34-8 3z" fill="#b4dd7f"/><path d="m38.49 19.13c-.28-1.8-1.83-3.13-3.66-3.13h-23.66c-1.83 0-3.38 1.33-3.66 3.13l-5.46 34.58c-.03.19-.05.39-.05.58 0 1.03.42 1.95 1.09 2.62s1.59 1.09 2.62 1.09h24.29l13-9.34v-.99z" fill="#cf9e76"/><path d="m33 16v6h-4v-6-4c0-1.66-.67-3.16-1.76-4.24-1.08-1.09-2.58-1.76-4.24-1.76-3.31 0-6 2.69-6 6v4 6h-4v-6-4c0-5.52 4.48-10 10-10 2.76 0 5.26 1.12 7.07 2.93s2.93 4.31 2.93 7.07z" fill="#b27946"/><path d="m30 51v3h-18c-1.1 0-2-.9-2-2v-22c0-1.1.9-2 2-2h22c1.1 0 2 .9 2 2v18.09.01c-3.45.33-6 1.5-6 2.9z" fill="#e6e9ed"/><g fill="#4fc1e9"><path d="m23 48 3-10h6l-8 10z"/><path d="m20 38 3 10h-1l-8-10z"/><path d="m29 32-3 6-3-6z"/><path d="m23 32-3 6-3-6z"/></g><path d="m26 38-3 10-3-10z" fill="#69d6f4"/><path d="m29 32 3 6h-6z" fill="#69d6f4"/><path d="m23 32 3 6h-6z" fill="#69d6f4"/><path d="m17 32 3 6h-6z" fill="#69d6f4"/><path d="m58 57.6c-1.18.25-2.54.4-4 .4s-2.82-.15-4-.4c-2.39-.52-4-1.49-4-2.6v4c0 1.11 1.61 2.08 4 2.6 1.18.25 2.54.4 4 .4s2.82-.15 4-.4c2.39-.52 4-1.49 4-2.6v-4c0 1.11-1.61 2.08-4 2.6z" fill="#ffeaa7"/><path d="m58 53.6c-1.18.25-2.54.4-4 .4s-2.82-.15-4-.4c-2.39-.52-4-1.49-4-2.6v4c0 1.11 1.61 2.08 4 2.6 1.18.25 2.54.4 4 .4s2.82-.15 4-.4c2.39-.52 4-1.49 4-2.6v-4c0 1.11-1.61 2.08-4 2.6z" fill="#fcd770"/><path d="m58 49.6c-1.18.25-2.54.4-4 .4s-2.82-.15-4-.4c-2.39-.52-4-1.49-4-2.6v4c0 1.11 1.61 2.08 4 2.6 1.18.25 2.54.4 4 .4s2.82-.15 4-.4c2.39-.52 4-1.49 4-2.6v-4c0 1.11-1.61 2.08-4 2.6z" fill="#ffeaa7"/><path d="m42 57.6c-1.18.25-2.54.4-4 .4s-2.82-.15-4-.4c-2.39-.52-4-1.49-4-2.6v4c0 1.11 1.61 2.08 4 2.6 1.18.25 2.54.4 4 .4s2.82-.15 4-.4c2.39-.52 4-1.49 4-2.6v-4c0 1.11-1.61 2.08-4 2.6z" fill="#fcd770"/><path d="m42 53.6c-1.18.25-2.54.4-4 .4s-2.82-.15-4-.4c-2.39-.52-4-1.49-4-2.6v4c0 1.11 1.61 2.08 4 2.6 1.18.25 2.54.4 4 .4s2.82-.15 4-.4c2.39-.52 4-1.49 4-2.6v-4c0 1.11-1.61 2.08-4 2.6z" fill="#ffeaa7"/><path d="m43 48.66c1.83.55 3 1.39 3 2.34 0 1.11-1.61 2.08-4 2.6-1.18.25-2.54.4-4 .4s-2.82-.15-4-.4c-2.39-.52-4-1.49-4-2.6 0-1.4 2.55-2.57 6-2.9.64-.07 1.31-.1 2-.1 1.89 0 3.63.25 5 .66z" fill="#fcd770"/><path d="m62 47c0 1.11-1.61 2.08-4 2.6-1.18.25-2.54.4-4 .4s-2.82-.15-4-.4c-2.39-.52-4-1.49-4-2.6 0-1.66 3.58-3 8-3 1.06 0 2.07.08 3 .22 2.93.44 5 1.52 5 2.78z" fill="#fcd770"/><path d="m16.382 31-3.562 7.125 8.7 10.875h2.961l8.7-10.875-3.563-7.125zm8.274 8-1.656 5.52-1.656-5.52zm-3.038-2 1.382-2.764 1.382 2.764zm3-4h2.764l-1.382 2.764zm-4.618 2.764-1.382-2.764h2.764zm-1.618 1.236h-2.764l1.382-2.764zm.874 2 1.905 6.351-5.08-6.351zm7.488 0h3.175l-5.08 6.351zm.874-2 1.382-2.764 1.382 2.764z"/><path d="m58 43.386v-2.386h-2v2.096c-.658-.061-1.329-.096-2-.096-4.473 0-9 1.374-9 4v1.4c-.307-.163-.641-.313-1-.448v-31.952h-2.942l8.942-11.382 8.942 11.382h-2.942v19h2v-17h5.058l-13.058-16.618-11.815 15.037c-.858-.876-2.04-1.419-3.354-1.419h-.831v-3c0-6.065-4.935-11-11-11s-11 4.935-11 11v3h-.831c-2.332 0-4.288 1.672-4.65 3.975l-5.462 34.587c-.037.241-.057.485-.057.729 0 2.597 2.112 4.709 4.709 4.709h23.291c0 2.626 4.527 4 9 4 3.202 0 6.423-.708 8-2.072 1.577 1.364 4.798 2.072 8 2.072 4.473 0 9-1.374 9-4v-12c0-1.82-2.176-3.037-5-3.614zm-23 3.829c-3.293.478-6 1.756-6 3.785v2h-17c-.552 0-1-.448-1-1v-22c0-.552.448-1 1-1h22c.552 0 1 .448 1 1zm-4 6.385c.578.307 1.254.566 2 .772v1.914c-1.311-.442-2-.98-2-1.286zm4 1.185c.65.094 1.321.158 2 .19v1.999c-.729-.035-1.399-.105-2-.203zm2 4.19v1.999c-.729-.035-1.399-.105-2-.203v-1.986c.65.094 1.321.158 2 .19zm2 0c.679-.031 1.35-.095 2-.19v1.986c-.601.098-1.271.168-2 .203zm0-2.001v-1.999c.679-.031 1.35-.095 2-.19v1.986c-.601.098-1.271.168-2 .203zm4-2.602c.746-.207 1.422-.465 2-.772v1.4c0 .306-.689.844-2 1.286zm4-.772c.578.307 1.254.566 2 .772v1.914c-1.311-.442-2-.98-2-1.286zm4 1.185c.65.094 1.321.158 2 .19v1.999c-.729-.035-1.399-.105-2-.203zm2 4.19v1.999c-.729-.035-1.399-.105-2-.203v-1.986c.65.094 1.321.158 2 .19zm2 0c.679-.031 1.35-.095 2-.19v1.986c-.601.098-1.271.168-2 .203zm0-2.001v-1.999c.679-.031 1.35-.095 2-.19v1.986c-.601.098-1.271.168-2 .203zm0-4v-1.999c.679-.031 1.35-.095 2-.19v1.986c-.601.098-1.271.168-2 .203zm-2 0c-.729-.035-1.399-.105-2-.203v-1.986c.65.094 1.321.158 2 .19zm-4-.688c-1.311-.442-2-.98-2-1.286v-1.4c.578.307 1.254.566 2 .772zm-4-1.286c0 .58-2.453 2-7 2s-7-1.42-7-2 2.453-2 7-2 7 1.42 7 2zm-3-33v16.923l-2.518-15.947c-.054-.342-.153-.665-.273-.976zm-19-15c4.963 0 9 4.037 9 9v9h-2v-9c0-3.859-3.141-7-7-7s-7 3.141-7 7v9h-2v-9c0-4.963 4.037-9 9-9zm5 12h-10v-3c0-2.757 2.243-5 5-5s5 2.243 5 5zm-22.291 42c-1.494 0-2.709-1.215-2.709-2.709 0-.143.012-.285.032-.422l5.462-34.583c.208-1.324 1.334-2.286 2.675-2.286h.831v4h-2v2h10v-2h-2v-4h10v4h-2v2h10v-2h-2v-4h.831c1.341 0 2.467.962 2.676 2.287l4.435 28.088c-1.235-.247-2.59-.375-3.942-.375-.334 0-.667.01-1 .025v-17.025c0-1.654-1.346-3-3-3h-22c-1.654 0-3 1.346-3 3v22c0 1.654 1.346 3 3 3h17v2zm25.291 2v-1.4c.578.307 1.254.566 2 .772v1.914c-1.311-.442-2-.98-2-1.286zm12 1.286v-1.914c.746-.207 1.422-.465 2-.772v1.4c0 .306-.689.844-2 1.286zm4-1.286v-1.4c.578.307 1.254.566 2 .772v1.914c-1.311-.442-2-.98-2-1.286zm12 1.286v-1.914c.746-.207 1.422-.465 2-.772v1.4c0 .306-.689.844-2 1.286zm0-4v-1.914c.746-.207 1.422-.465 2-.772v1.4c0 .306-.689.844-2 1.286zm0-4v-1.914c.746-.207 1.422-.465 2-.772v1.4c0 .306-.689.844-2 1.286zm-5-3.286c-4.547 0-7-1.42-7-2s2.453-2 7-2 7 1.42 7 2-2.453 2-7 2z"/><path d="m51 29c.552 0 1 .448 1 1h2c0-1.654-1.346-3-3-3v-2h-2v2h-3v3c0 1.654 1.346 3 3 3h2c.552 0 1 .448 1 1v1h-3c-.552 0-1-.448-1-1h-2c0 1.654 1.346 3 3 3v2h2v-2h3v-3c0-1.654-1.346-3-3-3h-2c-.552 0-1-.448-1-1v-1z"/><path d="m56 37h2v2h-2z"/></svg>