<svg width="951" height="952" viewBox="0 0 951 952" fill="none" xmlns="http://www.w3.org/2000/svg">
<circle cx="475.45" cy="476.075" r="459.598" fill="white" stroke="#246B6D" stroke-width="31"/>
<path d="M475.449 220.078C334.064 220.078 219.449 334.693 219.449 476.078C219.449 617.463 334.064 732.078 475.449 732.078C616.834 732.078 731.449 617.463 731.449 476.078C731.289 334.76 616.768 220.238 475.449 220.078ZM475.449 715.011C343.49 715.011 236.516 608.037 236.516 476.078C236.516 344.119 343.49 237.145 475.449 237.145C607.408 237.145 714.383 344.119 714.383 476.078C714.235 607.976 607.347 714.864 475.449 715.011Z" fill="#246B6D" stroke="#246B6D" stroke-width="8.53333"/>
<path d="M475.449 450.477H407.182C388.34 450.498 373.07 465.767 373.049 484.61V535.81C373.058 545.232 380.694 552.867 390.115 552.877H492.516C501.937 552.867 509.573 545.232 509.582 535.81V484.61C509.561 465.767 494.291 450.498 475.449 450.477ZM390.115 484.61C390.125 475.188 397.76 467.553 407.182 467.543H475.449C484.687 467.561 492.234 474.929 492.471 484.164C476.849 483.823 446.421 485.351 430.315 500.804C423.037 507.733 419.221 517.542 419.905 527.567C420.027 530.343 420.404 533.102 421.028 535.81H390.115V484.61ZM492.516 535.81H438.657C437.681 532.916 437.106 529.901 436.951 526.85C436.45 521.72 438.36 516.649 442.121 513.125C452.928 502.743 477.682 500.994 492.516 501.25V535.81Z" fill="#246B6D" stroke="#246B6D" stroke-width="8.53333"/>
<path d="M389.702 394.84L393.69 397.69C397.527 400.429 402.857 399.539 405.595 395.703C408.334 391.867 407.444 386.537 403.608 383.798L343.875 341.131C341.393 339.36 338.155 339.047 335.38 340.31C332.605 341.573 330.714 344.221 330.421 347.256C330.127 350.291 331.475 353.252 333.957 355.024L341.137 360.151C326.409 367.232 318.789 383.778 322.982 399.573C327.175 415.368 341.998 425.956 358.299 424.8C374.6 423.643 387.781 411.069 389.702 394.84V394.84ZM355.982 407.811C346.557 407.811 338.916 400.17 338.916 390.744C338.916 381.319 346.557 373.678 355.982 373.678C357.871 373.662 359.745 374.01 361.503 374.702L369.386 380.334C371.749 383.29 373.04 386.96 373.049 390.744C373.04 400.166 365.404 407.801 355.982 407.811Z" fill="#246B6D" stroke="#246B6D" stroke-width="8.53333"/>
<path d="M541.497 360.151L548.676 355.024C551.158 353.252 552.506 350.291 552.213 347.256C551.919 344.221 550.029 341.573 547.254 340.31C544.479 339.047 541.241 339.36 538.759 341.131L479.026 383.798C475.189 386.537 474.3 391.867 477.038 395.703C479.777 399.539 485.107 400.429 488.943 397.69L492.932 394.84C494.853 411.069 508.033 423.643 524.334 424.8C540.635 425.956 555.459 415.368 559.652 399.573C563.845 383.778 556.225 367.232 541.497 360.151ZM526.648 407.811C517.227 407.801 509.591 400.166 509.582 390.744C509.59 386.958 510.881 383.287 513.245 380.329L521.128 374.697C522.886 374.007 524.76 373.661 526.648 373.678C536.074 373.678 543.715 381.319 543.715 390.744C543.715 400.17 536.074 407.811 526.648 407.811Z" fill="#246B6D" stroke="#246B6D" stroke-width="8.53333"/>
</svg>
