<svg width="959" height="960" viewBox="0 0 959 960" fill="none" xmlns="http://www.w3.org/2000/svg">
<g filter="url(#filter0_d)">
<circle cx="479.45" cy="476.075" r="475.098" fill="white"/>
<circle cx="479.45" cy="476.075" r="459.598" stroke="#246B6D" stroke-width="31"/>
</g>
<g filter="url(#filter1_d)">
<path d="M479.449 220.078C338.064 220.078 223.449 334.693 223.449 476.078C223.449 617.463 338.064 732.078 479.449 732.078C620.834 732.078 735.449 617.463 735.449 476.078C735.289 334.76 620.768 220.238 479.449 220.078ZM479.449 715.011C347.49 715.011 240.516 608.037 240.516 476.078C240.516 344.119 347.49 237.145 479.449 237.145C611.408 237.145 718.383 344.119 718.383 476.078C718.235 607.976 611.347 714.864 479.449 715.011Z" fill="#246B6D" stroke="#246B6D" stroke-width="8.53333"/>
<path d="M479.449 450.477H411.182C392.34 450.498 377.07 465.767 377.049 484.61V535.81C377.058 545.232 384.694 552.867 394.115 552.877H496.516C505.937 552.867 513.573 545.232 513.582 535.81V484.61C513.561 465.767 498.291 450.498 479.449 450.477ZM394.115 484.61C394.125 475.188 401.76 467.553 411.182 467.543H479.449C488.687 467.561 496.234 474.929 496.471 484.164C480.849 483.823 450.421 485.351 434.315 500.804C427.037 507.733 423.221 517.542 423.905 527.567C424.027 530.343 424.404 533.102 425.028 535.81H394.115V484.61ZM496.516 535.81H442.657C441.681 532.916 441.106 529.901 440.951 526.85C440.45 521.72 442.36 516.649 446.121 513.125C456.928 502.743 481.682 500.994 496.516 501.25V535.81Z" fill="#246B6D" stroke="#246B6D" stroke-width="8.53333"/>
<path d="M393.702 394.84L397.69 397.69C401.527 400.429 406.857 399.539 409.595 395.703C412.334 391.867 411.444 386.537 407.608 383.798L347.875 341.131C345.393 339.36 342.155 339.047 339.38 340.31C336.605 341.573 334.714 344.221 334.421 347.256C334.127 350.291 335.475 353.252 337.957 355.024L345.137 360.151C330.409 367.232 322.789 383.778 326.982 399.573C331.175 415.368 345.998 425.956 362.299 424.8C378.6 423.643 391.781 411.069 393.702 394.84ZM359.982 407.811C350.557 407.811 342.916 400.17 342.916 390.744C342.916 381.319 350.557 373.678 359.982 373.678C361.871 373.662 363.745 374.01 365.503 374.702L373.386 380.334C375.749 383.29 377.04 386.96 377.049 390.744C377.04 400.166 369.404 407.801 359.982 407.811Z" fill="#246B6D" stroke="#246B6D" stroke-width="8.53333"/>
<path d="M545.497 360.151L552.676 355.024C555.158 353.252 556.506 350.291 556.213 347.256C555.919 344.221 554.029 341.573 551.254 340.31C548.479 339.047 545.241 339.36 542.759 341.131L483.026 383.798C479.189 386.537 478.3 391.867 481.038 395.703C483.777 399.539 489.107 400.429 492.943 397.69L496.932 394.84C498.853 411.069 512.033 423.643 528.334 424.8C544.635 425.956 559.459 415.368 563.652 399.573C567.845 383.778 560.225 367.232 545.497 360.151ZM530.648 407.811C521.227 407.801 513.591 400.166 513.582 390.744C513.59 386.958 514.881 383.287 517.245 380.329L525.128 374.697C526.886 374.007 528.76 373.661 530.648 373.678C540.074 373.678 547.715 381.319 547.715 390.744C547.715 400.17 540.074 407.811 530.648 407.811Z" fill="#246B6D" stroke="#246B6D" stroke-width="8.53333"/>
</g>
<defs>
<filter id="filter0_d" x="0.351562" y="0.976562" width="958.196" height="958.196" filterUnits="userSpaceOnUse" color-interpolation-filters="sRGB">
<feFlood flood-opacity="0" result="BackgroundImageFix"/>
<feColorMatrix in="SourceAlpha" type="matrix" values="0 0 0 0 0 0 0 0 0 0 0 0 0 0 0 0 0 0 127 0"/>
<feOffset dy="4"/>
<feGaussianBlur stdDeviation="2"/>
<feColorMatrix type="matrix" values="0 0 0 0 0 0 0 0 0 0 0 0 0 0 0 0 0 0 0.25 0"/>
<feBlend mode="normal" in2="BackgroundImageFix" result="effect1_dropShadow"/>
<feBlend mode="normal" in="SourceGraphic" in2="effect1_dropShadow" result="shape"/>
</filter>
<filter id="filter1_d" x="215.182" y="215.812" width="528.533" height="528.533" filterUnits="userSpaceOnUse" color-interpolation-filters="sRGB">
<feFlood flood-opacity="0" result="BackgroundImageFix"/>
<feColorMatrix in="SourceAlpha" type="matrix" values="0 0 0 0 0 0 0 0 0 0 0 0 0 0 0 0 0 0 127 0"/>
<feOffset dy="4"/>
<feGaussianBlur stdDeviation="2"/>
<feColorMatrix type="matrix" values="0 0 0 0 0 0 0 0 0 0 0 0 0 0 0 0 0 0 0.25 0"/>
<feBlend mode="normal" in2="BackgroundImageFix" result="effect1_dropShadow"/>
<feBlend mode="normal" in="SourceGraphic" in2="effect1_dropShadow" result="shape"/>
</filter>
</defs>
</svg>
