<svg width="951" height="951" viewBox="0 0 951 951" fill="none" xmlns="http://www.w3.org/2000/svg">
<circle cx="475.731" cy="475.797" r="459.598" fill="white" stroke="#246B6D" stroke-width="31"/>
<path d="M339.73 635.797C344.477 635.797 349.117 634.389 353.064 631.752C357.011 629.115 360.087 625.367 361.904 620.981C363.72 616.596 364.195 611.77 363.269 607.115C362.343 602.459 360.057 598.183 356.701 594.826C353.345 591.47 349.068 589.184 344.413 588.258C339.757 587.332 334.931 587.807 330.546 589.624C326.161 591.44 322.412 594.516 319.775 598.463C317.138 602.41 315.73 607.05 315.73 611.797C315.738 618.16 318.269 624.26 322.768 628.759C327.267 633.259 333.368 635.789 339.73 635.797V635.797ZM339.73 603.797C341.313 603.797 342.859 604.266 344.175 605.145C345.491 606.024 346.516 607.274 347.122 608.735C347.727 610.197 347.885 611.806 347.577 613.358C347.268 614.909 346.506 616.335 345.387 617.454C344.269 618.573 342.843 619.334 341.291 619.643C339.739 619.952 338.131 619.793 336.669 619.188C335.207 618.582 333.958 617.557 333.079 616.241C332.2 614.926 331.73 613.379 331.73 611.797C331.733 609.676 332.576 607.642 334.076 606.143C335.576 604.643 337.609 603.799 339.73 603.797V603.797Z" fill="#246B6D"/>
<path d="M619.73 587.797C614.984 587.797 610.344 589.204 606.397 591.842C602.45 594.479 599.374 598.227 597.557 602.612C595.741 606.998 595.266 611.823 596.192 616.479C597.118 621.135 599.403 625.411 602.76 628.767C606.116 632.124 610.393 634.41 615.048 635.336C619.704 636.262 624.529 635.786 628.915 633.97C633.3 632.153 637.049 629.077 639.686 625.131C642.323 621.184 643.73 616.544 643.73 611.797C643.723 605.434 641.192 599.334 636.693 594.835C632.194 590.335 626.093 587.804 619.73 587.797V587.797ZM619.73 619.797C618.148 619.797 616.602 619.328 615.286 618.449C613.97 617.57 612.945 616.32 612.339 614.858C611.734 613.397 611.576 611.788 611.884 610.236C612.193 608.684 612.955 607.259 614.074 606.14C615.192 605.021 616.618 604.259 618.17 603.951C619.722 603.642 621.33 603.8 622.792 604.406C624.254 605.011 625.503 606.037 626.382 607.352C627.261 608.668 627.73 610.215 627.73 611.797C627.728 613.918 626.884 615.951 625.385 617.451C623.885 618.951 621.851 619.794 619.73 619.797Z" fill="#246B6D"/>
<path d="M699.73 347.797H675.73V291.797C675.73 289.675 674.888 287.64 673.387 286.14C671.887 284.64 669.852 283.797 667.73 283.797H435.73C433.609 283.797 431.574 284.64 430.074 286.14C428.573 287.64 427.73 289.675 427.73 291.797V347.797H403.73C401.609 347.797 399.574 348.64 398.074 350.14C396.573 351.64 395.73 353.675 395.73 355.797V379.797H315.73C314.32 379.798 312.935 380.171 311.714 380.879C310.494 381.586 309.482 382.603 308.78 383.827L244.78 495.827C244.092 497.037 243.73 498.405 243.73 499.797V611.797C243.73 613.919 244.573 615.953 246.074 617.454C247.574 618.954 249.609 619.797 251.73 619.797H292.41C293.512 626.271 295.929 632.45 299.512 637.954C303.094 643.458 307.767 648.169 313.24 651.797H235.73C233.609 651.797 231.574 652.64 230.074 654.14C228.573 655.64 227.73 657.675 227.73 659.797C227.73 661.919 228.573 663.953 230.074 665.454C231.574 666.954 233.609 667.797 235.73 667.797H683.73C685.852 667.797 687.887 666.954 689.387 665.454C690.888 663.953 691.73 661.919 691.73 659.797C691.73 657.675 690.888 655.64 689.387 654.14C687.887 652.64 685.852 651.797 683.73 651.797H646.22C651.694 648.169 656.367 643.458 659.949 637.954C663.532 632.45 665.949 626.271 667.05 619.797H699.73C701.852 619.797 703.887 618.954 705.387 617.454C706.888 615.953 707.73 613.919 707.73 611.797V355.797C707.73 353.675 706.888 351.64 705.387 350.14C703.887 348.64 701.852 347.797 699.73 347.797ZM443.73 299.797H659.73V411.797H443.73V299.797ZM306.66 419.797H363.73V491.797H265.52L306.66 419.797ZM259.73 531.797H275.73C277.852 531.797 279.887 532.64 281.387 534.14C282.888 535.64 283.73 537.675 283.73 539.797C283.73 541.919 282.888 543.953 281.387 545.454C279.887 546.954 277.852 547.797 275.73 547.797H259.73V531.797ZM292.41 603.797H259.73V563.797H275.73C282.096 563.797 288.2 561.268 292.701 556.767C297.202 552.267 299.73 546.162 299.73 539.797C299.73 533.432 297.202 527.327 292.701 522.826C288.2 518.325 282.096 515.797 275.73 515.797H259.73V507.797H371.73C373.852 507.797 375.887 506.954 377.387 505.454C378.888 503.953 379.73 501.919 379.73 499.797V411.797C379.73 409.675 378.888 407.64 377.387 406.14C375.887 404.64 373.852 403.797 371.73 403.797H315.8L320.37 395.797H395.73V603.797H387.05C385.162 592.613 379.373 582.459 370.711 575.137C362.048 567.815 351.073 563.798 339.73 563.798C328.388 563.798 317.413 567.815 308.75 575.137C300.088 582.459 294.299 592.613 292.41 603.797V603.797ZM339.73 643.797C333.401 643.797 327.215 641.92 321.952 638.404C316.69 634.888 312.588 629.89 310.166 624.043C307.744 618.196 307.111 611.761 308.345 605.554C309.58 599.347 312.628 593.645 317.103 589.169C321.578 584.694 327.28 581.646 333.488 580.412C339.695 579.177 346.129 579.811 351.976 582.233C357.824 584.655 362.821 588.756 366.337 594.019C369.854 599.281 371.73 605.468 371.73 611.797C371.719 620.28 368.344 628.413 362.346 634.412C356.347 640.411 348.214 643.786 339.73 643.797ZM366.22 651.797C371.694 648.169 376.367 643.458 379.949 637.954C383.532 632.45 385.949 626.271 387.05 619.797H572.41C573.512 626.271 575.929 632.45 579.512 637.954C583.094 643.458 587.767 648.169 593.24 651.797H366.22ZM619.73 643.797C613.401 643.797 607.215 641.92 601.952 638.404C596.69 634.888 592.588 629.89 590.166 624.043C587.744 618.196 587.111 611.761 588.345 605.554C589.58 599.347 592.628 593.645 597.103 589.169C601.578 584.694 607.28 581.646 613.488 580.412C619.695 579.177 626.129 579.811 631.976 582.233C637.824 584.655 642.821 588.756 646.337 594.019C649.854 599.281 651.73 605.468 651.73 611.797C651.719 620.28 648.344 628.413 642.346 634.412C636.347 640.411 628.214 643.786 619.73 643.797ZM691.73 603.797H667.05C665.162 592.613 659.373 582.459 650.711 575.137C642.048 567.815 631.073 563.798 619.73 563.798C608.388 563.798 597.412 567.815 588.75 575.137C580.088 582.459 574.299 592.613 572.41 603.797H411.73V547.797H691.73V603.797ZM691.73 531.797H411.73V363.797H427.73V419.797C427.73 421.919 428.573 423.953 430.074 425.454C431.574 426.954 433.609 427.797 435.73 427.797H667.73C669.852 427.797 671.887 426.954 673.387 425.454C674.888 423.953 675.73 421.919 675.73 419.797V363.797H691.73V531.797Z" fill="#246B6D"/>
<path d="M715.73 651.797H707.73C705.609 651.797 703.574 652.64 702.074 654.14C700.573 655.64 699.73 657.675 699.73 659.797C699.73 661.919 700.573 663.953 702.074 665.454C703.574 666.954 705.609 667.797 707.73 667.797H715.73C717.852 667.797 719.887 666.954 721.387 665.454C722.888 663.953 723.73 661.919 723.73 659.797C723.73 657.675 722.888 655.64 721.387 654.14C719.887 652.64 717.852 651.797 715.73 651.797Z" fill="#246B6D"/>
<path d="M611.73 395.797H635.73C637.852 395.797 639.887 394.954 641.387 393.454C642.888 391.953 643.73 389.919 643.73 387.797C643.73 385.675 642.888 383.64 641.387 382.14C639.887 380.64 637.852 379.797 635.73 379.797H619.73V363.797H627.73C629.852 363.797 631.887 362.954 633.387 361.454C634.888 359.953 635.73 357.919 635.73 355.797C635.73 353.675 634.888 351.64 633.387 350.14C631.887 348.64 629.852 347.797 627.73 347.797H619.73V331.797H635.73C637.852 331.797 639.887 330.954 641.387 329.454C642.888 327.953 643.73 325.919 643.73 323.797C643.73 321.675 642.888 319.64 641.387 318.14C639.887 316.64 637.852 315.797 635.73 315.797H611.73C609.609 315.797 607.574 316.64 606.074 318.14C604.573 319.64 603.73 321.675 603.73 323.797V387.797C603.73 389.919 604.573 391.953 606.074 393.454C607.574 394.954 609.609 395.797 611.73 395.797Z" fill="#246B6D"/>
<path d="M563.73 395.797H587.73C589.852 395.797 591.887 394.954 593.387 393.454C594.888 391.953 595.73 389.919 595.73 387.797C595.73 385.675 594.888 383.64 593.387 382.14C591.887 380.64 589.852 379.797 587.73 379.797H571.73V363.797H579.73C581.852 363.797 583.887 362.954 585.387 361.454C586.888 359.953 587.73 357.919 587.73 355.797C587.73 353.675 586.888 351.64 585.387 350.14C583.887 348.64 581.852 347.797 579.73 347.797H571.73V331.797H587.73C589.852 331.797 591.887 330.954 593.387 329.454C594.888 327.953 595.73 325.919 595.73 323.797C595.73 321.675 594.888 319.64 593.387 318.14C591.887 316.64 589.852 315.797 587.73 315.797H563.73C561.609 315.797 559.574 316.64 558.074 318.14C556.573 319.64 555.73 321.675 555.73 323.797V387.797C555.73 389.919 556.573 391.953 558.074 393.454C559.574 394.954 561.609 395.797 563.73 395.797Z" fill="#246B6D"/>
<path d="M515.73 395.797C517.852 395.797 519.887 394.954 521.387 393.454C522.888 391.953 523.73 389.919 523.73 387.797V373.686L532.575 391.375C533.04 392.323 533.688 393.169 534.482 393.866C535.275 394.562 536.199 395.095 537.199 395.432C538.2 395.77 539.257 395.906 540.31 395.834C541.364 395.761 542.392 395.48 543.336 395.008C544.281 394.536 545.122 393.881 545.812 393.082C546.503 392.283 547.028 391.355 547.358 390.352C547.688 389.35 547.816 388.291 547.735 387.238C547.654 386.186 547.365 385.159 546.885 384.219L536.674 363.797H539.73C541.852 363.797 543.887 362.954 545.387 361.454C546.888 359.953 547.73 357.919 547.73 355.797V323.797C547.73 321.675 546.888 319.64 545.387 318.14C543.887 316.64 541.852 315.797 539.73 315.797H515.73C513.609 315.797 511.574 316.64 510.074 318.14C508.573 319.64 507.73 321.675 507.73 323.797V387.797C507.73 389.919 508.573 391.953 510.074 393.454C511.574 394.954 513.609 395.797 515.73 395.797ZM523.73 331.797H531.73V347.797H523.73V331.797Z" fill="#246B6D"/>
<path d="M467.73 395.797C469.852 395.797 471.887 394.954 473.387 393.454C474.888 391.953 475.73 389.919 475.73 387.797V363.797H483.73C485.852 363.797 487.887 362.954 489.387 361.454C490.888 359.953 491.73 357.919 491.73 355.797C491.73 353.675 490.888 351.64 489.387 350.14C487.887 348.64 485.852 347.797 483.73 347.797H475.73V331.797H491.73C493.852 331.797 495.887 330.954 497.387 329.454C498.888 327.953 499.73 325.919 499.73 323.797C499.73 321.675 498.888 319.64 497.387 318.14C495.887 316.64 493.852 315.797 491.73 315.797H467.73C465.609 315.797 463.574 316.64 462.074 318.14C460.573 319.64 459.73 321.675 459.73 323.797V387.797C459.73 389.919 460.573 391.953 462.074 393.454C463.574 394.954 465.609 395.797 467.73 395.797Z" fill="#246B6D"/>
</svg>
