<svg width="411" height="411" viewBox="0 0 411 411" fill="none" xmlns="http://www.w3.org/2000/svg">
<g clip-path="url(#clip0)">
<path d="M299.692 45.6861C298.203 44.1967 296.137 43.3398 294.031 43.3398C291.916 43.3398 289.859 44.1967 288.37 45.6861C286.872 47.1756 286.023 49.2416 286.023 51.3477C286.023 53.4537 286.872 55.5197 288.37 57.0092C289.859 58.4986 291.916 59.3555 294.031 59.3555C296.137 59.3555 298.203 58.4986 299.692 57.0092C301.181 55.5197 302.039 53.4537 302.039 51.3477C302.039 49.2416 301.182 47.1756 299.692 45.6861Z" fill="#246B6D"/>
<path d="M279.648 81.7773H228.398C223.977 81.7773 220.391 85.3624 220.391 89.7852V141.035C220.391 145.458 223.977 149.043 228.398 149.043H279.648C284.07 149.043 287.656 145.458 287.656 141.035V89.7852C287.656 85.3624 284.07 81.7773 279.648 81.7773ZM271.641 133.027H236.406V97.793H271.641V133.027Z" fill="#246B6D"/>
<path d="M279.648 171.465H228.398C223.977 171.465 220.391 175.05 220.391 179.473V230.723C220.391 235.145 223.977 238.73 228.398 238.73H279.648C284.071 238.73 287.656 235.145 287.656 230.723V179.473C287.656 175.05 284.07 171.465 279.648 171.465ZM271.641 222.715H236.406V187.48H271.641V222.715Z" fill="#246B6D"/>
<path d="M254.023 261.152H228.398C223.977 261.152 220.391 264.737 220.391 269.16V320.41C220.391 324.833 223.977 328.418 228.398 328.418C232.82 328.418 236.406 324.833 236.406 320.41V277.168H254.023C258.445 277.168 262.031 273.583 262.031 269.16C262.031 264.737 258.445 261.152 254.023 261.152Z" fill="#246B6D"/>
<path d="M189.93 81.7773C185.508 81.7773 181.922 85.3624 181.922 89.7852V133.027H138.68C134.258 133.027 130.672 136.612 130.672 141.035C130.672 145.458 134.258 149.043 138.68 149.043H189.93C194.352 149.043 197.938 145.458 197.938 141.035V89.7852C197.938 85.3624 194.352 81.7773 189.93 81.7773Z" fill="#246B6D"/>
<path d="M189.93 171.465H138.68C134.258 171.465 130.672 175.05 130.672 179.473V230.723C130.672 235.145 134.258 238.73 138.68 238.73H189.93C194.352 238.73 197.938 235.145 197.938 230.723V179.473C197.938 175.05 194.352 171.465 189.93 171.465ZM181.922 222.715H146.688V187.48H181.922V222.715Z" fill="#246B6D"/>
<path d="M189.93 261.152H138.68C134.258 261.152 130.672 264.737 130.672 269.16V320.41C130.672 324.833 134.258 328.418 138.68 328.418H189.93C194.352 328.418 197.938 324.833 197.938 320.41V269.16C197.938 264.737 194.352 261.152 189.93 261.152ZM181.922 312.402H146.688V277.168H181.922V312.402Z" fill="#246B6D"/>
<path d="M211.122 375.823C209.633 374.325 207.567 373.477 205.461 373.477C203.355 373.477 201.29 374.325 199.8 375.823C198.311 377.312 197.453 379.37 197.453 381.484C197.453 383.59 198.31 385.648 199.8 387.146C201.289 388.635 203.355 389.492 205.461 389.492C207.567 389.492 209.633 388.635 211.122 387.146C212.612 385.648 213.469 383.59 213.469 381.484C213.469 379.37 212.613 377.312 211.122 375.823Z" fill="#246B6D"/>
<path d="M314.581 0.0976562H96.7782C83.5317 0.0976562 72.7548 10.8746 72.7548 24.1211V27.3138H24.7031C11.4566 27.3138 0.679688 38.0907 0.679688 51.3372V125.009C0.679688 138.256 11.4566 149.033 24.7031 149.033H98.375C111.622 149.033 122.398 138.256 122.398 125.009V59.3555H256.93C261.352 59.3555 264.938 55.7704 264.938 51.3477C264.938 46.9249 261.352 43.3398 256.93 43.3398H121.024C117.722 34.0139 108.818 27.3138 98.375 27.3138H88.7704V24.1211C88.7704 19.7056 92.3627 16.1133 96.7782 16.1133H314.581C318.997 16.1133 322.589 19.7056 322.589 24.1211V205.098C322.589 209.52 326.175 213.105 330.597 213.105C335.019 213.105 338.605 209.52 338.605 205.098V24.1211C338.605 10.8746 327.828 0.0976562 314.581 0.0976562ZM106.383 125.009C106.383 129.425 102.791 133.017 98.375 133.017H24.7031C20.2876 133.017 16.6953 129.425 16.6953 125.009V122.1C17.1397 121.807 17.5618 121.464 17.9533 121.072L43.3213 95.7045L61.0818 113.465C64.2097 116.592 69.2786 116.592 72.4073 113.465L106.383 79.4895V125.009ZM98.375 43.3294C102.791 43.3294 106.383 46.9217 106.383 51.3372V56.8394L66.7441 96.4781L48.9836 78.7176C45.8558 75.5905 40.7868 75.5905 37.6582 78.7176L16.6953 99.6804V51.3372C16.6953 46.9217 20.2876 43.3294 24.7031 43.3294H98.375Z" fill="#246B6D"/>
<path d="M386.655 232.324H300.171C286.924 232.324 276.148 243.101 276.148 256.348V342.832C276.148 356.079 286.924 366.855 300.171 366.855H322.588V386.074C322.588 390.49 318.996 394.082 314.58 394.082H96.7773C92.3618 394.082 88.7695 390.49 88.7695 386.074V366.855H258.009C262.431 366.855 266.017 363.27 266.017 358.848C266.017 354.425 262.431 350.84 258.009 350.84H88.7695V179.473C88.7695 175.05 85.1836 171.465 80.7617 171.465C76.3398 171.465 72.7539 175.05 72.7539 179.473V386.074C72.7539 399.321 83.5308 410.098 96.7773 410.098H314.58C327.827 410.098 338.604 399.321 338.604 386.074V366.855H386.655C399.902 366.855 410.679 356.079 410.679 342.832V256.348C410.679 243.101 399.902 232.324 386.655 232.324ZM394.663 342.832C394.663 347.248 391.071 350.84 386.655 350.84H300.171C295.755 350.84 292.163 347.248 292.163 342.832V256.348C292.163 251.932 295.755 248.34 300.171 248.34H386.655C391.071 248.34 394.663 251.932 394.663 256.348V342.832Z" fill="#246B6D"/>
<path d="M367.488 81.7773C363.066 81.7773 359.48 85.3624 359.48 89.7852V153.565C359.48 157.988 363.066 161.573 367.488 161.573C371.91 161.573 375.496 157.988 375.496 153.565V89.7852C375.496 85.3624 371.91 81.7773 367.488 81.7773Z" fill="#246B6D"/>
<path d="M373.146 178.385C371.656 176.896 369.59 176.039 367.484 176.039C365.378 176.039 363.312 176.896 361.824 178.385C360.334 179.875 359.477 181.941 359.477 184.047C359.477 186.153 360.333 188.219 361.824 189.708C363.312 191.198 365.378 192.055 367.484 192.055C369.59 192.055 371.656 191.198 373.146 189.708C374.643 188.219 375.492 186.153 375.492 184.047C375.492 181.941 374.643 179.875 373.146 178.385Z" fill="#246B6D"/>
<path d="M43.9219 185.062C39.5 185.062 35.9141 188.648 35.9141 193.07V248.217C35.9141 252.64 39.5 256.225 43.9219 256.225C48.3438 256.225 51.9297 252.64 51.9297 248.217V193.07C51.9297 188.648 48.3438 185.062 43.9219 185.062Z" fill="#246B6D"/>
<path d="M368.383 284.512L340.272 268.298C334.82 265.154 328.313 265.156 322.865 268.303C317.417 271.451 314.164 277.086 314.164 283.379V315.796C314.164 322.087 317.417 327.723 322.864 330.871C325.59 332.446 328.582 333.234 331.574 333.234C334.56 333.234 337.546 332.449 340.268 330.88L368.379 314.676C373.835 311.53 377.093 305.892 377.094 299.594C377.095 293.296 373.837 287.658 368.383 284.512ZM360.38 300.801L332.27 317.005C331.808 317.271 331.338 317.27 330.876 317.004C330.414 316.737 330.18 316.331 330.18 315.797V283.38C330.18 282.845 330.414 282.44 330.876 282.172C331.108 282.038 331.341 281.972 331.574 281.972C331.807 281.972 332.039 282.038 332.271 282.172L360.381 298.386C360.844 298.653 361.079 299.06 361.079 299.594C361.079 300.127 360.844 300.534 360.38 300.801Z" fill="#246B6D"/>
</g>
<defs>
<clipPath id="clip0">
<rect x="0.679688" y="0.0976562" width="410" height="410" fill="white"/>
</clipPath>
</defs>
</svg>
