<svg width="128" height="112" viewBox="0 0 128 112" fill="none" xmlns="http://www.w3.org/2000/svg">
<path d="M8.08302 111.576H120.091C124.227 111.576 127.576 108.227 127.576 104.091V8.08693C127.576 3.95048 124.227 0.601562 120.091 0.601562H8.08302C3.95048 0.601562 0.597656 3.95048 0.597656 8.08693V48.0869C0.597656 52.2233 3.95048 55.5722 8.08302 55.5722C12.2195 55.5722 15.5684 52.2233 15.5684 48.0869V24.3598L52.5859 56.0868L15.5684 87.8178V80.0907C15.5684 75.9543 12.2195 72.6053 8.08302 72.6053C3.95048 72.6053 0.597656 75.9543 0.597656 80.0907V104.091C0.597656 108.227 3.95048 111.576 8.08302 111.576ZM75.5917 56.0868L112.605 24.3598V87.8178L75.5917 56.0868ZM28.3208 15.5723H99.8567L64.0868 46.2311L28.3208 15.5723ZM99.8567 96.6053H28.3208L64.0907 65.9465L99.8567 96.6053Z" fill="#246B6D"/>
</svg>
