<svg width="128" height="112" viewBox="0 0 128 112" fill="none" xmlns="http://www.w3.org/2000/svg">
<path d="M8.08302 111.584H120.091C124.227 111.584 127.576 108.231 127.576 104.098V8.09474C127.576 3.9583 124.227 0.609375 120.091 0.609375H8.08302C3.95048 0.609375 0.597656 3.9583 0.597656 8.09474V104.098C0.597656 108.231 3.95048 111.584 8.08302 111.584ZM112.605 87.8256L75.5917 56.0947L112.605 24.3676V87.8256ZM99.8567 96.6131H28.3208L64.0907 65.9543L99.8567 96.6131ZM64.0868 46.2389L28.3208 15.5801H99.8567L64.0868 46.2389ZM52.5859 56.0947L15.5684 87.8256V24.3676L52.5859 56.0947Z" fill="#246B6D"/>
</svg>
