<svg width="96" height="64" viewBox="0 0 96 64" fill="none" xmlns="http://www.w3.org/2000/svg">
<path d="M91.9503 25.6783L51.9504 1.67831C48.4027 -0.450337 43.8062 0.699758 41.6775 4.24361C39.5528 7.79136 40.7029 12.3878 44.2467 14.5165L61.0771 24.6139H8.09474C3.9622 24.6139 0.609375 27.9629 0.609375 32.0993C0.609375 36.2319 3.9622 39.5847 8.09474 39.5847H61.0771L44.2467 49.6821C40.7029 51.8069 39.5528 56.4073 41.6775 59.9511C43.081 62.2903 45.5606 63.5846 48.1064 63.5846C49.4163 63.5846 50.7418 63.2416 51.9504 62.5164L91.9503 38.5165C94.2076 37.1636 95.5839 34.727 95.5839 32.0993C95.5839 29.4677 94.2076 27.0311 91.9503 25.6783Z" fill="#246B6D"/>
</svg>
