<svg width="128" height="112" viewBox="0 0 128 112" fill="none" xmlns="http://www.w3.org/2000/svg">
<path d="M8.10646 111.576H120.11C124.247 111.576 127.596 108.227 127.596 104.091V56.0868C127.596 51.9543 124.247 48.6015 120.11 48.6015C115.978 48.6015 112.625 51.9543 112.625 56.0868V96.6053H15.5918V15.5723H112.625V24.0869C112.625 28.2194 115.978 31.5723 120.11 31.5723C124.247 31.5723 127.596 28.2194 127.596 24.0869V8.08693C127.596 3.95048 124.247 0.601562 120.11 0.601562H8.10646C3.97001 0.601562 0.621094 3.95048 0.621094 8.08693V104.091C0.621094 108.227 3.97001 111.576 8.10646 111.576V111.576Z" fill="#246B6D"/>
</svg>
