<svg width="192" height="352" viewBox="0 0 192 352" fill="none" xmlns="http://www.w3.org/2000/svg">
<path d="M160.094 0.601562H32.083C14.7224 0.601562 0.597656 14.7263 0.597656 32.0869V320.106C0.597656 337.466 14.7224 351.591 32.083 351.591H160.091C177.455 351.591 191.58 337.466 191.58 320.106V32.0869C191.58 14.7263 177.455 0.601562 160.094 0.601562ZM32.083 15.5723H160.091C169.198 15.5723 176.609 22.9797 176.609 32.0869V304.62H15.5684V32.0869C15.5684 22.9797 22.9758 15.5723 32.083 15.5723ZM160.094 336.62H32.083C22.9758 336.62 15.5684 329.213 15.5684 320.106V319.591H176.609V320.106C176.609 329.213 169.202 336.62 160.094 336.62Z" fill="#246B6D"/>
</svg>
