<svg width="192" height="352" viewBox="0 0 192 352" fill="none" xmlns="http://www.w3.org/2000/svg">
<path d="M160.114 0.601562H32.1025C14.7419 0.601562 0.617188 14.7263 0.617188 32.0869V320.106C0.617188 337.466 14.7419 351.591 32.1025 351.591H160.11C177.475 351.591 191.599 337.466 191.599 320.106V32.0869C191.599 14.7263 177.475 0.601562 160.114 0.601562ZM32.1025 15.5723H160.11C169.217 15.5723 176.629 22.9797 176.629 32.0869V304.62H15.5879V32.0869C15.5879 22.9797 22.9953 15.5723 32.1025 15.5723ZM160.114 336.62H32.1025C22.9953 336.62 15.5879 329.213 15.5879 320.106V319.591H176.629V320.106C176.629 329.213 169.221 336.62 160.114 336.62Z" fill="#246B6D"/>
</svg>
