<svg width="951" height="951" viewBox="0 0 951 951" fill="none" xmlns="http://www.w3.org/2000/svg">
<circle cx="475.196" cy="475.098" r="459.598" fill="white" stroke="#246B6D" stroke-width="31"/>
<path d="M707.195 235.098H243.195C238.779 235.098 235.195 238.674 235.195 243.098V355.098C235.195 359.522 238.779 363.098 243.195 363.098H707.195C711.611 363.098 715.195 359.522 715.195 355.098V243.098C715.195 238.674 711.611 235.098 707.195 235.098ZM639.963 251.098L475.195 290.874L310.419 251.098H639.963ZM251.195 253.258L441.115 299.098L251.195 344.938V253.258ZM310.419 347.098L475.195 307.322L639.971 347.098H310.419ZM699.195 344.938L509.275 299.098L699.195 253.258V344.938Z" fill="#246B6D"/>
<path d="M371.195 379.098H243.195C238.779 379.098 235.195 382.674 235.195 387.098V643.098V707.098C235.195 711.522 238.779 715.098 243.195 715.098H371.195C375.611 715.098 379.195 711.522 379.195 707.098V643.098V387.098C379.195 382.674 375.611 379.098 371.195 379.098ZM358.251 395.098L307.195 497.21L256.139 395.098H358.251ZM358.251 635.098H256.139L307.195 532.986L358.251 635.098ZM251.195 420.986L298.251 515.098L251.195 609.21V420.986ZM363.195 699.098H251.195V651.098H363.195V699.098ZM363.195 609.21L316.139 515.098L363.195 420.986V609.21Z" fill="#246B6D"/>
<path d="M283.195 667.098H267.195V683.098H283.195V667.098Z" fill="#246B6D"/>
<path d="M315.195 667.098H299.195V683.098H315.195V667.098Z" fill="#246B6D"/>
<path d="M347.195 667.098H331.195V683.098H347.195V667.098Z" fill="#246B6D"/>
<path d="M539.195 379.098H411.195C406.779 379.098 403.195 382.674 403.195 387.098V491.098V555.098C403.195 559.522 406.779 563.098 411.195 563.098H539.195C543.611 563.098 547.195 559.522 547.195 555.098V491.098V387.098C547.195 382.674 543.611 379.098 539.195 379.098ZM516.667 395.098L475.195 428.786L433.731 395.098H516.667ZM516.659 483.098H433.731L475.195 449.41L516.659 483.098ZM419.195 403.906L462.507 439.098L419.195 474.29V403.906ZM531.195 547.098H419.195V499.098H531.195V547.098ZM531.195 474.29L487.883 439.098L531.195 403.906V474.29Z" fill="#246B6D"/>
<path d="M451.195 515.098H435.195V531.098H451.195V515.098Z" fill="#246B6D"/>
<path d="M483.195 515.098H467.195V531.098H483.195V515.098Z" fill="#246B6D"/>
<path d="M515.195 515.098H499.195V531.098H515.195V515.098Z" fill="#246B6D"/>
<path d="M707.195 379.098H571.195C566.779 379.098 563.195 382.674 563.195 387.098V491.098C563.195 495.522 566.779 499.098 571.195 499.098H707.195C711.611 499.098 715.195 495.522 715.195 491.098V387.098C715.195 382.674 711.611 379.098 707.195 379.098ZM699.195 483.098H579.195V395.098H699.195V483.098Z" fill="#246B6D"/>
<path d="M691.195 515.098H587.195V531.098H691.195V515.098Z" fill="#246B6D"/>
<path d="M715.195 547.098H563.195V563.098H715.195V547.098Z" fill="#246B6D"/>
<path d="M539.195 579.098H411.195C406.779 579.098 403.195 582.674 403.195 587.098V675.098C403.195 679.522 406.779 683.098 411.195 683.098H539.195C543.611 683.098 547.195 679.522 547.195 675.098V587.098C547.195 582.674 543.611 579.098 539.195 579.098ZM531.195 667.098H419.195V595.098H531.195V667.098Z" fill="#246B6D"/>
<path d="M547.195 699.098H403.195V715.098H547.195V699.098Z" fill="#246B6D"/>
<path d="M707.195 579.098H571.195C566.779 579.098 563.195 582.674 563.195 587.098V707.098C563.195 711.522 566.779 715.098 571.195 715.098H707.195C711.611 715.098 715.195 711.522 715.195 707.098V587.098C715.195 582.674 711.611 579.098 707.195 579.098ZM686.035 595.098L639.195 636.426L592.355 595.098H686.035ZM579.195 604.826L627.099 647.098L579.195 689.37V604.826ZM592.355 699.098L639.195 657.77L686.035 699.098H592.355ZM699.195 689.37L651.291 647.098L699.195 604.826V689.37Z" fill="#246B6D"/>
</svg>
