<svg id="Capa_1" enable-background="new 0 0 512 512" height="512" viewBox="0 0 512 512" width="512" xmlns="http://www.w3.org/2000/svg"><g><g><g><g><path d="m485.497 41.843h-224.513c-10.474 0-18.965 8.483-18.981 18.953h-54.614c-5.12 0-7.231 6.565-3.071 9.549l53.466 38.358c2.648 1.899 4.218 4.958 4.218 8.217v61.448c0 10.484 8.499 18.983 18.983 18.983h224.513c10.484 0 18.983-8.499 18.983-18.983v-117.542c-.002-10.484-8.501-18.983-18.984-18.983z" fill="#ffe07d"/><path d="m485.497 41.843h-63.259c10.484 0 18.983 8.499 18.983 18.983v117.543c0 10.484-8.499 18.983-18.983 18.983h63.259c10.484 0 18.983-8.499 18.983-18.983v-117.543c-.001-10.484-8.5-18.983-18.983-18.983z" fill="#ffd064"/></g><g><path d="m26.503 314.649h224.513c10.474 0 18.965 8.483 18.981 18.953h54.614c5.12 0 7.231 6.565 3.071 9.549l-53.466 38.358c-2.648 1.899-4.218 4.958-4.218 8.217v61.448c0 10.484-8.499 18.983-18.983 18.983h-224.512c-10.484 0-18.983-8.499-18.983-18.983v-117.542c.001-10.484 8.5-18.983 18.983-18.983z" fill="#95d6a4"/><path d="m324.611 333.602h-54.614c-.016-10.47-8.507-18.953-18.981-18.953h-63.661c10.474 0 18.965 8.483 18.981 18.953l.001 117.572c0 10.484-8.499 18.983-18.983 18.983h63.661c10.484 0 18.983-8.499 18.983-18.983v-61.448c0-3.258 1.57-6.317 4.218-8.217l53.466-38.358c4.16-2.984 2.049-9.549-3.071-9.549z" fill="#78c2a4"/></g></g><g><g><g><g><g><g><path d="m127.731 163.269c-3.423-.429-5.996-3.329-6.01-6.778l-.132-31.378-47.943.202.132 31.378c.015 3.449-2.534 6.37-5.953 6.828 0 0-8.853 30.256 30.081 30.092s29.825-30.344 29.825-30.344z" fill="#d5985c"/><path d="m188.612 202.116c.318-13.133-6.926-24.379-18.95-29.672-10.984-4.835-31.723-7.895-41.931-9.176l-.061.076c-15.315 19.157-44.418 19.242-59.845.176-10.197 1.367-30.909 4.601-41.852 9.529-11.896 5.36-18.512 17.36-18.153 29.688v47.571c0 7.844 6.359 14.203 14.203 14.203h152.384c7.851 0 14.212-6.373 14.203-14.223-.03-26.886-.098-44.075.002-48.172z" fill="#e28086"/><g><path d="m188.612 202.116c.318-13.133-6.926-24.379-18.95-29.672-10.984-4.835-31.723-7.895-41.931-9.176l-.061.076c-4.462 5.581-10.097 9.531-16.22 11.873 8.959 5.938 14.173 15.728 13.903 26.898-.099 4.097-.032 21.286-.002 48.172.009 7.851-6.352 14.223-14.203 14.223h63.259c7.851 0 14.212-6.373 14.203-14.223-.03-26.885-.098-44.074.002-48.171z" fill="#dd636e"/></g></g></g></g></g></g><g><path d="m154.791 78.921v-31.128c0-22.253-18.04-40.293-40.293-40.293h-33.342c-22.253 0-40.293 18.04-40.293 40.293v31.128z" fill="#6b61b1"/><path d="m114.498 7.5h-22.457l.04 71.421h62.71v-31.128c0-22.253-18.04-40.293-40.293-40.293z" fill="#5e54ac"/><path d="m142.209 78.921c-5.393 0-9.765-7.642-9.765-13.035v-10.041c0-5.282-4.282-9.564-9.564-9.564-1.35 0-2.684.286-3.916.838-7.641 3.429-12.946 5.144-21.138 5.144s-13.497-1.715-21.138-5.144c-1.231-.553-2.566-.838-3.916-.838-5.282 0-9.564 4.282-9.564 9.564v10.042c0 5.393-4.372 13.035-9.765 13.035h-12.58c0 16.566 9.695 19.359 9.695 19.359 0 26.106 21.163 47.269 47.269 47.269s47.269-21.163 47.269-47.269c0 0 9.695-2.793 9.695-19.359h-12.582z" fill="#d5985c"/><path d="m142.209 78.921c-5.393 0-9.765-7.642-9.765-13.035v-10.041c0-5.282-4.282-9.564-9.564-9.564-1.35 0-2.684.286-3.916.838-7.641 3.429-12.946 5.144-21.138 5.144-2.078 0-3.969-.111-5.761-.332l.034 60.164c0 11.568-4.161 22.16-11.06 30.375 5.218 1.983 10.873 3.079 16.787 3.079 26.106 0 47.269-21.163 47.269-47.269 0 0 9.695-2.793 9.695-19.359z" fill="#c38959"/></g></g><g><g><g><g><g><g><path d="m443.5 403.257c-3.423-.429-5.996-3.329-6.01-6.778l-.132-31.378-47.943.202.132 31.378c.015 3.449-2.534 6.37-5.953 6.829 0 0-8.853 30.256 30.081 30.092 38.932-.164 29.825-30.345 29.825-30.345z" fill="#ffddce"/><path d="m504.381 442.104c.318-13.133-6.926-24.379-18.95-29.672-10.984-4.835-31.723-7.895-41.931-9.176l-.061.076c-15.315 19.157-44.418 19.242-59.845.176-10.197 1.367-30.909 4.601-41.852 9.529-11.896 5.36-18.512 17.36-18.153 29.688v47.571c0 7.844 6.359 14.203 14.203 14.203h152.384c7.851 0 14.212-6.373 14.203-14.223-.03-26.885-.098-44.075.002-48.172z" fill="#e28086"/><g><path d="m504.381 442.104c.318-13.133-6.926-24.379-18.95-29.672-10.984-4.835-31.723-7.895-41.931-9.176l-.061.076c-4.462 5.581-10.097 9.531-16.22 11.873 8.959 5.938 14.173 15.728 13.903 26.898-.099 4.097-.032 21.286-.002 48.172.009 7.851-6.352 14.223-14.203 14.223h63.259c7.851 0 14.212-6.373 14.203-14.223-.03-26.884-.098-44.074.002-48.171z" fill="#dd636e"/></g></g></g></g></g></g><g><path d="m470.56 318.909v-31.128c0-22.253-18.04-40.293-40.293-40.293h-33.342c-22.253 0-40.293 18.04-40.293 40.293v31.128z" fill="#e49542"/><path d="m430.267 247.488h-22.457l.04 71.421h62.71v-31.128c0-22.253-18.04-40.293-40.293-40.293z" fill="#e27d47"/><path d="m457.978 318.909c-5.393 0-9.765-7.642-9.765-13.035v-10.042c0-5.282-4.282-9.564-9.564-9.564-1.35 0-2.684.286-3.916.838-7.641 3.429-12.946 5.144-21.138 5.144s-13.497-1.715-21.138-5.144c-1.231-.553-2.566-.838-3.916-.838-5.282 0-9.564 4.282-9.564 9.564v10.042c0 5.393-4.372 13.035-9.765 13.035h-12.582c0 16.566 9.695 19.359 9.695 19.359 0 26.106 21.163 47.269 47.269 47.269s47.269-21.163 47.269-47.269c0 0 9.695-2.793 9.695-19.359z" fill="#ffddce"/><path d="m457.978 318.909c-5.393 0-9.765-7.642-9.765-13.035v-10.042c0-5.282-4.282-9.564-9.564-9.564-1.35 0-2.684.286-3.916.838-7.641 3.429-12.946 5.144-21.138 5.144-2.078 0-3.969-.111-5.761-.332l.034 60.164c0 11.568-4.161 22.16-11.06 30.375 5.218 1.983 10.873 3.079 16.787 3.079 26.106 0 47.269-21.163 47.269-47.269 0 0 9.695-2.793 9.695-19.359h-12.581z" fill="#ffcbbe"/></g></g></g><g><path d="m467.104 74.85h-183.106c-4.142 0-7.5 3.358-7.5 7.5s3.358 7.5 7.5 7.5h183.107c4.142 0 7.5-3.358 7.5-7.5s-3.358-7.5-7.501-7.5z"/><path d="m467.104 112.097h-183.106c-4.142 0-7.5 3.358-7.5 7.5s3.358 7.5 7.5 7.5h183.107c4.142 0 7.5-3.358 7.5-7.5s-3.358-7.5-7.501-7.5z"/><path d="m368.725 149.344h-84.727c-4.142 0-7.5 3.358-7.5 7.5s3.358 7.5 7.5 7.5h84.727c4.142 0 7.5-3.358 7.5-7.5s-3.358-7.5-7.5-7.5z"/><path d="m233.852 346.559h-183.107c-4.142 0-7.5 3.358-7.5 7.5s3.358 7.5 7.5 7.5h183.106c4.142 0 7.5-3.358 7.5-7.5s-3.357-7.5-7.499-7.5z"/><path d="m233.852 383.806h-183.107c-4.142 0-7.5 3.358-7.5 7.5s3.358 7.5 7.5 7.5h183.106c4.142 0 7.5-3.358 7.5-7.5s-3.357-7.5-7.499-7.5z"/><path d="m233.852 421.053h-84.727c-4.142 0-7.5 3.358-7.5 7.5s3.358 7.5 7.5 7.5h84.727c4.142 0 7.5-3.358 7.5-7.5s-3.358-7.5-7.5-7.5z"/><path d="m22.023 272.012h152.384c12.001 0 21.716-9.722 21.703-21.732-.046-28.956-.085-44.495-.001-47.982.39-16.116-8.586-30.186-23.426-36.718-11.512-5.067-31.937-8.218-43.465-9.682l-.053-12.724c13.01-9.109 21.897-23.723 23.251-40.432 4.886-3.724 9.876-11.116 9.876-23.821v-31.128c0-26.353-21.44-47.793-47.794-47.793h-33.342c-26.353 0-47.793 21.44-47.793 47.793v31.128c0 12.705 4.99 20.097 9.875 23.821 1.344 16.592 10.12 31.114 22.982 40.236l.055 13.185c-11.516 1.561-31.913 4.884-43.384 10.049-14.14 6.372-22.99 20.741-22.572 36.628v5.24c0 4.142 3.358 7.5 7.5 7.5s7.5-3.358 7.5-7.5v-5.343c0-.073-.001-.146-.003-.219-.287-9.858 5.105-18.741 13.736-22.63 6.708-3.021 19.641-6.037 35.845-8.387 18.059 18.472 47.94 18.329 65.828-.277 16.226 2.213 29.184 5.121 35.916 8.084 9.307 4.097 14.717 12.555 14.474 22.626-.096 3.954-.048 20.133-.004 48.362.004 3.705-2.992 6.715-6.703 6.715h-152.385c-3.696 0-6.703-3.007-6.703-6.703v-7.168c0-4.142-3.358-7.5-7.5-7.5s-7.5 3.358-7.5 7.5v7.168c0 11.968 9.736 21.704 21.703 21.704zm26.34-224.219c0-18.082 14.711-32.793 32.793-32.793h33.342c18.083 0 32.793 14.711 32.793 32.793v23.628h-4.708c-1.021-.695-2.64-3.524-2.64-5.534v-10.042c0-9.409-7.655-17.064-17.063-17.064-2.424 0-4.775.503-6.986 1.496-13.458 6.04-22.466 6.134-36.133 0-2.212-.993-4.562-1.496-6.987-1.496-9.409 0-17.064 7.655-17.064 17.064v10.042c0 2.01-1.619 4.838-2.639 5.534h-4.708zm30.84 116.341c1.329-2.194 2.087-4.758 2.075-7.473l-.026-6.191c5.233 1.666 10.798 2.579 16.575 2.579 5.701 0 11.196-.888 16.368-2.512l.025 5.986c.011 2.715.799 5.267 2.146 7.45-10.922 8.323-26.143 8.409-37.163.161zm18.624-26.085c-21.929 0-39.769-17.84-39.769-39.769 0-3.579-1.768-6.475-5.232-7.171-.538-.291-2.239-1.434-3.379-4.688h3.998c10.539 0 17.265-12.162 17.265-20.534v-10.042c0-1.138.926-2.064 2.064-2.064.293 0 .577.061.845.181 16.726 7.506 30.198 8.177 48.417 0 .267-.12.551-.181.844-.181 1.138 0 2.063.926 2.063 2.064v10.042c0 8.373 6.726 20.534 17.265 20.534h3.998c-1.14 3.254-2.842 4.397-3.379 4.688-3.464.696-5.232 3.592-5.232 7.171.001 21.928-17.84 39.769-39.768 39.769z"/><path d="m511.878 442.286c.39-16.116-8.586-30.186-23.426-36.718-11.512-5.067-31.937-8.218-43.465-9.682l-.053-12.725c13.01-9.109 21.897-23.723 23.251-40.432 4.885-3.724 9.875-11.116 9.875-23.82v-31.128c0-26.353-21.44-47.793-47.793-47.793h-33.342c-26.353 0-47.793 21.44-47.793 47.793v31.128c0 12.704 4.99 20.097 9.875 23.82 1.344 16.592 10.12 31.114 22.981 40.236l.056 13.186c-11.516 1.561-31.913 4.884-43.384 10.049-14.141 6.372-22.991 20.741-22.572 36.63v4.254c0 4.142 3.358 7.5 7.5 7.5s7.5-3.358 7.5-7.5v-4.358c0-.073-.001-.146-.003-.219-.288-9.858 5.104-18.741 13.735-22.63 6.707-3.02 19.64-6.037 35.845-8.387 17.988 18.4 47.824 18.403 65.82-.279 16.228 2.214 29.19 5.122 35.923 8.085 9.307 4.097 14.717 12.555 14.474 22.625-.102 4.192-.037 20.48-.004 48.363.004 3.705-2.991 6.715-6.703 6.715h-152.383c-3.696 0-6.703-3.007-6.703-6.703v-8.153c0-4.142-3.358-7.5-7.5-7.5s-7.5 3.358-7.5 7.5v8.153c0 11.967 9.736 21.703 21.703 21.703h152.384c12.003 0 21.717-9.724 21.703-21.732-.03-25.783-.097-44.003-.001-47.981zm-147.746-154.505c0-18.082 14.711-32.793 32.793-32.793h33.342c18.082 0 32.793 14.711 32.793 32.793v23.628h-4.708c-1.021-.695-2.64-3.524-2.64-5.535v-10.042c0-9.409-7.655-17.063-17.063-17.063-2.425 0-4.775.503-6.986 1.496-13.647 6.124-22.653 6.05-36.133 0-2.212-.993-4.562-1.496-6.987-1.496-9.409 0-17.063 7.655-17.063 17.063v10.042c0 2.01-1.619 4.839-2.64 5.535h-4.708zm30.84 116.341c1.329-2.194 2.087-4.758 2.075-7.473l-.026-6.191c5.233 1.666 10.798 2.579 16.575 2.579 5.701 0 11.196-.888 16.369-2.512l.025 5.985c.011 2.715.798 5.268 2.146 7.451-10.924 8.323-26.144 8.409-37.164.161zm18.624-26.085c-21.928 0-39.769-17.84-39.769-39.769 0-3.579-1.768-6.475-5.232-7.171-.537-.291-2.238-1.434-3.378-4.688h3.998c10.54 0 17.265-12.162 17.265-20.535v-10.042c0-1.138.926-2.063 2.063-2.063.293 0 .578.061.846.181 16.728 7.506 30.193 8.177 48.417 0 .267-.12.551-.181.845-.181 1.138 0 2.063.926 2.063 2.063v10.042c0 8.373 6.726 20.535 17.265 20.535h3.998c-1.14 3.254-2.841 4.397-3.378 4.688-3.464.696-5.232 3.592-5.232 7.171-.002 21.929-17.843 39.769-39.771 39.769z"/><path d="m485.497 34.343h-224.513c-11.979 0-22.136 8.009-25.39 18.953h-48.205c-5.566 0-10.452 3.561-12.156 8.859-1.704 5.299.19 11.04 4.712 14.284l53.466 38.358c.682.49 1.089 1.283 1.089 2.123v61.448c0 14.603 11.88 26.483 26.483 26.483h224.513c14.603 0 26.482-11.88 26.482-26.483v-117.542c.001-14.603-11.879-26.483-26.481-26.483zm11.482 144.025c0 6.332-5.151 11.483-11.482 11.483h-224.513c-6.332 0-11.483-5.151-11.483-11.483v-61.448c0-5.661-2.746-11.011-7.345-14.311l-47.828-34.313h47.675c4.138 0 7.494-3.351 7.5-7.488.01-6.322 5.16-11.465 11.481-11.465h224.513c6.332 0 11.482 5.151 11.482 11.482z"/><path d="m336.766 334.961c-1.704-5.299-6.589-8.859-12.155-8.859h-48.205c-3.254-10.944-13.411-18.953-25.39-18.953h-224.513c-14.603 0-26.482 11.88-26.482 26.482v117.543c0 14.603 11.88 26.482 26.482 26.482h224.513c14.603 0 26.483-11.88 26.483-26.482v-61.448c0-.84.407-1.633 1.089-2.123l53.466-38.358c4.523-3.245 6.417-8.985 4.712-14.284zm-66.922 40.455c-4.599 3.3-7.345 8.649-7.345 14.31v61.448c0 6.332-5.151 11.482-11.483 11.482h-224.513c-6.332 0-11.482-5.151-11.482-11.482v-117.543c0-6.332 5.151-11.482 11.482-11.482h224.513c6.321 0 11.472 5.143 11.481 11.465.006 4.138 3.362 7.488 7.5 7.488h47.676z"/></g></g></svg>
