<svg width="512" height="512" viewBox="0 0 512 512" fill="none" xmlns="http://www.w3.org/2000/svg">
<path d="M424 200H344C333.941 200.012 324.26 203.829 316.9 210.685C309.539 217.541 305.045 226.928 304.32 236.96L256 303.36C255.943 286.032 249.644 269.305 238.257 256.243C226.87 243.181 211.158 234.66 194 232.24L172.32 225.04L168 220.72V197.92C174.278 193.531 179.59 187.902 183.608 181.38C187.625 174.858 190.264 167.581 191.36 160H200C204.24 159.987 208.302 158.298 211.3 155.3C214.298 152.302 215.987 148.24 216 144V136C215.987 131.76 214.298 127.698 211.3 124.7C208.302 121.702 204.24 120.013 200 120H192V117.76C199.39 112.63 205.432 105.79 209.61 97.8226C213.789 89.8553 215.981 80.9965 216 72V40C216 37.8783 215.157 35.8434 213.657 34.3431C212.157 32.8429 210.122 32 208 32H112C97.1531 32.0169 82.9191 37.9224 72.4207 48.4207C61.9224 58.9191 56.0169 73.1531 56 88V104C56.0237 107.432 56.7779 110.819 58.2125 113.936C59.6471 117.054 61.7291 119.83 64.32 122.08C61.8098 123.438 59.7122 125.448 58.248 127.897C56.7838 130.347 56.0072 133.146 56 136V144C56.0127 148.24 57.7024 152.302 60.7003 155.3C63.6981 158.298 67.7604 159.987 72 160H80.64C81.7362 167.581 84.3746 174.858 88.3923 181.38C92.4101 187.902 97.7219 193.531 104 197.92V220.72L99.68 225.04L78 232.24C60.7268 234.662 44.9201 243.272 33.5168 256.471C22.1136 269.669 15.8891 286.558 16 304V488C16 490.122 16.8428 492.157 18.3431 493.657C19.8434 495.157 21.8783 496 24 496H232C238.359 495.981 244.453 493.446 248.95 488.95C253.446 484.453 255.981 478.359 256 472V418.32L364.4 248H392C402.609 248 412.783 243.786 420.284 236.284C427.786 228.783 432 218.609 432 208C432 205.878 431.157 203.843 429.657 202.343C428.157 200.843 426.122 200 424 200ZM200 136V144H192V136H200ZM80 144H72V136H80V144ZM84.4 96.88C83.0736 97.536 81.9581 98.5511 81.1802 99.8098C80.4023 101.069 79.9934 102.52 80 104V112C77.8783 112 75.8434 111.157 74.3431 109.657C72.8428 108.157 72 106.122 72 104V88C72 77.3913 76.2143 67.2172 83.7157 59.7157C91.2172 52.2143 101.391 48 112 48H200V72C199.981 81.8135 196.334 91.2734 189.76 98.56C188.709 97.4596 187.383 96.6589 185.92 96.24L121.92 80.24C120.064 79.7707 118.1 79.9984 116.4 80.88L84.4 96.88ZM96 152V108.96L120.96 96.48L176 110.24V152C176 162.609 171.786 172.783 164.284 180.284C156.783 187.786 146.609 192 136 192C125.391 192 115.217 187.786 107.716 180.284C100.214 172.783 96 162.609 96 152ZM154.32 229.68L156.72 232L136 252.72L115.28 232L117.68 229.68C119.154 228.155 119.984 226.121 120 224V205.68C130.442 208.773 141.558 208.773 152 205.68V224C152.016 226.121 152.846 228.155 154.32 229.68V229.68ZM101.84 241.12L130.32 269.68C131.83 271.179 133.872 272.02 136 272.02C138.128 272.02 140.17 271.179 141.68 269.68L170.16 241.12L179.2 244.16L147.92 288H124.08L92.8 244.16L101.84 241.12ZM150.56 336L159.44 389.28L136 412.72L112.56 389.28L121.44 336H150.56ZM124.08 320L126.8 304H145.2L147.92 320H124.08ZM64 480H32V400H64V480ZM241.28 411.68C240.426 412.957 239.98 414.464 240 416V472C240 474.122 239.157 476.157 237.657 477.657C236.157 479.157 234.122 480 232 480H80V392C80 389.878 79.1571 387.843 77.6568 386.343C76.1566 384.843 74.1217 384 72 384H32V304C31.9086 291.083 36.2756 278.531 44.3643 268.46C52.4529 258.389 63.7679 251.417 76.4 248.72L111.6 297.92L96.08 390.72C95.8806 391.975 95.9795 393.258 96.3686 394.468C96.7578 395.677 97.4263 396.777 98.32 397.68L130.32 429.68C131.837 431.167 133.876 432 136 432C138.124 432 140.163 431.167 141.68 429.68L173.68 397.68C174.574 396.777 175.242 395.677 175.631 394.468C176.021 393.258 176.119 391.975 175.92 390.72L160.4 297.92L195.6 248.72C208.232 251.417 219.547 258.389 227.636 268.46C235.724 278.531 240.091 291.083 240 304V328C239.994 329.693 240.525 331.344 241.517 332.716C242.509 334.088 243.911 335.11 245.521 335.635C247.13 336.159 248.865 336.16 250.475 335.636C252.085 335.112 253.487 334.091 254.48 332.72L316.08 248H345.44L241.28 411.68ZM392 232H321.36C323.029 227.328 326.099 223.284 330.151 220.421C334.202 217.558 339.039 216.014 344 216H414.64C412.971 220.672 409.901 224.716 405.849 227.579C401.798 230.442 396.961 231.986 392 232V232Z" fill="#FFD231"/>
<path d="M424 40H328C321.641 40.019 315.547 42.5537 311.05 47.0504C306.554 51.5472 304.019 57.6406 304 64V160C304.019 166.359 306.554 172.453 311.05 176.95C315.547 181.446 321.641 183.981 328 184H424C430.359 183.981 436.453 181.446 440.95 176.95C445.446 172.453 447.981 166.359 448 160V64C447.981 57.6406 445.446 51.5472 440.95 47.0504C436.453 42.5537 430.359 40.019 424 40V40ZM368 56H384V92.72L381.68 90.32C380.17 88.8212 378.128 87.9801 376 87.9801C373.872 87.9801 371.83 88.8212 370.32 90.32L368 92.72V56ZM432 160C432 162.122 431.157 164.157 429.657 165.657C428.157 167.157 426.122 168 424 168H328C325.878 168 323.843 167.157 322.343 165.657C320.843 164.157 320 162.122 320 160V64C320 61.8783 320.843 59.8434 322.343 58.3431C323.843 56.8429 325.878 56 328 56H352V112C351.994 113.583 352.464 115.13 353.348 116.443C354.232 117.755 355.491 118.772 356.96 119.36C358.417 119.973 360.023 120.14 361.575 119.841C363.126 119.542 364.555 118.79 365.68 117.68L376 107.28L386.32 117.68C387.833 119.172 389.875 120.006 392 120C393.049 120.028 394.091 119.808 395.04 119.36C396.509 118.772 397.768 117.755 398.652 116.443C399.536 115.13 400.006 113.583 400 112V56H424C426.122 56 428.157 56.8429 429.657 58.3431C431.157 59.8434 432 61.8783 432 64V160Z" fill="#FFD231"/>
<path d="M400 304C381.013 304 362.452 309.63 346.665 320.179C330.878 330.728 318.574 345.721 311.308 363.262C304.042 380.804 302.14 400.106 305.845 418.729C309.549 437.351 318.692 454.456 332.118 467.882C345.544 481.308 362.649 490.451 381.271 494.155C399.894 497.86 419.196 495.958 436.738 488.692C454.279 481.426 469.273 469.122 479.821 453.335C490.37 437.548 496 418.987 496 400C495.973 374.548 485.849 350.146 467.852 332.148C449.854 314.151 425.452 304.028 400 304ZM400 480C384.178 480 368.71 475.308 355.554 466.518C342.399 457.727 332.145 445.233 326.09 430.615C320.035 415.997 318.45 399.911 321.537 384.393C324.624 368.874 332.243 354.62 343.432 343.431C354.62 332.243 368.874 324.624 384.393 321.537C399.911 318.45 415.997 320.035 430.615 326.09C445.233 332.145 457.727 342.398 466.518 355.554C475.308 368.71 480 384.177 480 400C479.977 421.21 471.541 441.545 456.543 456.543C441.545 471.541 421.21 479.977 400 480V480Z" fill="#FFD231"/>
<path d="M128 120H112V136H128V120Z" fill="#FFD231"/>
<path d="M160 120H144V136H160V120Z" fill="#FFD231"/>
<path d="M408 336H392V400C392 402.122 392.843 404.157 394.343 405.657C395.843 407.157 397.878 408 400 408H448V392H408V336Z" fill="#FFD231"/>
</svg>
