<svg width="512" height="512" viewBox="0 0 512 512" fill="none" xmlns="http://www.w3.org/2000/svg">
<path d="M425.37 260.227L303.199 138.056C321.387 123.935 333.125 101.882 333.125 77.125C333.125 34.598 298.527 0 256 0C213.473 0 178.875 34.598 178.875 77.125C178.875 101.881 190.613 123.934 208.801 138.056L86.629 260.227L107.842 281.44L173.662 215.62L148.737 375.138H187.666V511.999H217.666V375.138H241V511.999H338.92V216.202L404.157 281.44L425.37 260.227ZM308.919 207.503V481.999H271V156.747C292.898 163.23 308.919 183.53 308.919 207.503V207.503ZM303.125 77.125C303.125 103.109 281.984 124.249 256 124.249C230.015 124.249 208.875 103.109 208.875 77.125C208.875 51.14 230.015 30 256 30C281.984 30 303.125 51.14 303.125 77.125ZM241 156.532V345.138H183.789L207.072 196.125C210.058 177.019 223.45 162.038 241 156.532Z" fill="#FFD231"/>
</svg>
