<svg width="480" height="480" viewBox="0 0 480 480" fill="none" xmlns="http://www.w3.org/2000/svg">
<path d="M456 136H336V80C336 66.745 325.255 56 312 56H168C154.745 56 144 66.745 144 80V136H128V128C128 114.745 117.255 104 104 104H56C42.745 104 32 114.745 32 128V136H24C10.745 136 0 146.745 0 160V400C0 413.255 10.745 424 24 424H456C469.255 424 480 413.255 480 400V160C480 146.745 469.255 136 456 136ZM464 400C464 404.418 460.418 408 456 408H24C19.582 408 16 404.418 16 400V160C16 155.582 19.582 152 24 152H40C44.418 152 48 148.418 48 144V128C48 123.582 51.582 120 56 120H104C108.418 120 112 123.582 112 128V144C112 148.418 115.582 152 120 152H152C156.418 152 160 148.418 160 144V80C160 75.582 163.582 72 168 72H312C316.418 72 320 75.582 320 80V144C320 148.418 323.582 152 328 152H456C460.418 152 464 155.582 464 160V400Z" fill="#FFD231"/>
<path d="M240 168C178.144 168 128 218.144 128 280C128 341.856 178.144 392 240 392C301.856 392 352 341.856 352 280C351.934 218.172 301.828 168.066 240 168ZM240 376C186.981 376 144 333.019 144 280C144 226.981 186.981 184 240 184C293.019 184 336 226.981 336 280C335.943 332.996 292.996 375.943 240 376Z" fill="#FFD231"/>
<path d="M240 192C191.399 192 152 231.399 152 280C152 328.601 191.399 368 240 368C288.601 368 328 328.601 328 280C327.943 231.423 288.577 192.057 240 192ZM240 352C200.236 352 168 319.764 168 280C168 240.235 200.236 208 240 208C279.765 208 312 240.235 312 280C311.956 319.746 279.746 351.956 240 352Z" fill="#FFD231"/>
<path d="M240 248C222.327 248 208 262.327 208 280C208 297.673 222.327 312 240 312C257.673 312 272 297.673 272 280C272 262.327 257.673 248 240 248ZM240 296C231.163 296 224 288.837 224 280C224 271.163 231.163 264 240 264C248.837 264 256 271.163 256 280C256 288.837 248.837 296 240 296Z" fill="#FFD231"/>
<path d="M184 136H296C300.418 136 304 132.418 304 128V96C304 91.582 300.418 88 296 88H184C179.582 88 176 91.582 176 96V128C176 132.418 179.582 136 184 136ZM192 104H288V120H192V104Z" fill="#FFD231"/>
<path d="M440 168H376C371.582 168 368 171.582 368 176V208C368 212.418 371.582 216 376 216H440C444.418 216 448 212.418 448 208V176C448 171.582 444.418 168 440 168ZM432 200H384V184H432V200Z" fill="#FFD231"/>
<path d="M56 168C42.745 168 32 178.745 32 192C32 205.255 42.745 216 56 216C69.255 216 80 205.255 80 192C80 178.745 69.255 168 56 168ZM56 200C51.582 200 48 196.418 48 192C48 187.582 51.582 184 56 184C60.418 184 64 187.582 64 192C64 196.418 60.418 200 56 200Z" fill="#FFD231"/>
</svg>
