<svg width="505" height="505" viewBox="0 0 505 505" fill="none" xmlns="http://www.w3.org/2000/svg">
<g clip-path="url(#clip0)">
<path d="M199.36 388.004H168.64C164.236 387.65 160.379 390.934 160.026 395.338C160.008 395.559 160 395.782 160 396.004C159.986 400.422 163.556 404.015 167.974 404.03C168.196 404.031 168.418 404.022 168.64 404.004H199.36C203.778 404.004 207.36 400.422 207.36 396.004C207.36 391.586 203.778 388.004 199.36 388.004Z" fill="#FFD231"/>
<path d="M496.8 123.204C492.432 118.59 486.353 115.985 480 116.004H240V108.004C240 94.7489 229.255 84.0039 216 84.0039H188L163.2 46.4039C158.559 39.9629 151.138 36.1039 143.2 36.0039H96C88.062 36.1039 80.641 39.9629 76 46.4039L51.2 84.0039H24C10.745 84.0039 0 94.7489 0 108.004V412.004C0 425.259 10.745 436.004 24 436.004H64V452.004C64 460.841 71.163 468.004 80 468.004H160C168.837 468.004 176 460.841 176 452.004V436.004H216C229.255 436.004 240 425.259 240 412.004V404.004H314.4C330.183 404.134 343.577 392.457 345.6 376.804C357.127 310.14 409.336 257.931 476 246.404C491.954 244.114 503.848 230.521 504 214.404V140.004C504.182 133.619 501.55 127.476 496.8 123.204ZM160 452.004H80V436.004H160V452.004ZM216.993 420.004C216.662 420.026 216.331 420.026 216 420.004H24C19.856 420.278 16.274 417.141 16 412.997C15.978 412.666 15.978 412.335 16 412.004V404.004H136C140.418 404.004 144 400.422 144 396.004C144 391.586 140.418 388.004 136 388.004H16V108.004C15.726 103.86 18.863 100.278 23.007 100.004C23.338 99.9819 23.669 99.9819 24 100.004H144C148.418 100.004 152 96.4219 152 92.0039C152 87.5859 148.418 84.0039 144 84.0039H71.2L90.4 55.2039C91.826 53.0899 94.253 51.8759 96.8 52.0039H144C146.459 52.2299 148.744 53.3719 150.4 55.2039L177.6 96.8039C179.026 98.9179 181.454 100.132 184 100.004H216C220.144 99.7299 223.726 102.867 224 107.011C224.022 107.342 224.022 107.673 224 108.004V116.004H40C35.582 116.004 32 119.586 32 124.004C32 128.422 35.582 132.004 40 132.004H224V412.004C224.274 416.149 221.137 419.73 216.993 420.004ZM488.8 214.404H488C488.09 222.382 482.289 229.208 474.4 230.404C400.684 242.941 342.937 300.688 330.4 374.404C329.204 382.293 322.378 388.094 314.4 388.004H240V132.004H480.8C485.218 132.004 488.8 135.586 488.8 140.004V214.404Z" fill="#FFD231"/>
<path d="M304 148.004C299.582 148.004 296 151.586 296 156.004V172.004C296 176.422 299.582 180.004 304 180.004C308.418 180.004 312 176.422 312 172.004V156.004C312 151.586 308.418 148.004 304 148.004Z" fill="#FFD231"/>
<path d="M264 148.004C259.582 148.004 256 151.586 256 156.004V172.004C256 176.422 259.582 180.004 264 180.004C268.418 180.004 272 176.422 272 172.004V156.004C272 151.586 268.418 148.004 264 148.004Z" fill="#FFD231"/>
<path d="M344 148.004C339.582 148.004 336 151.586 336 156.004V172.004C336 176.422 339.582 180.004 344 180.004C348.418 180.004 352 176.422 352 172.004V156.004C352 151.586 348.418 148.004 344 148.004Z" fill="#FFD231"/>
<path d="M384 148.004C379.582 148.004 376 151.586 376 156.004V172.004C376 176.422 379.582 180.004 384 180.004C388.418 180.004 392 176.422 392 172.004V156.004C392 151.586 388.418 148.004 384 148.004Z" fill="#FFD231"/>
<path d="M424 148.004C419.582 148.004 416 151.586 416 156.004V172.004C416 176.422 419.582 180.004 424 180.004C428.418 180.004 432 176.422 432 172.004V156.004C432 151.586 428.418 148.004 424 148.004Z" fill="#FFD231"/>
<path d="M464 148.004C459.582 148.004 456 151.586 456 156.004V172.004C456 176.422 459.582 180.004 464 180.004C468.418 180.004 472 176.422 472 172.004V156.004C472 151.586 468.418 148.004 464 148.004Z" fill="#FFD231"/>
<path d="M264 340.004C259.582 340.004 256 343.586 256 348.004V364.004C256 368.422 259.582 372.004 264 372.004C268.418 372.004 272 368.422 272 364.004V348.004C272 343.586 268.418 340.004 264 340.004Z" fill="#FFD231"/>
<path d="M304 340.004C299.582 340.004 296 343.586 296 348.004V364.004C296 368.422 299.582 372.004 304 372.004C308.418 372.004 312 368.422 312 364.004V348.004C312 343.586 308.418 340.004 304 340.004Z" fill="#FFD231"/>
</g>
<defs>
<clipPath id="clip0">
<rect width="504.009" height="504.009" fill="white"/>
</clipPath>
</defs>
</svg>
