<?xml version="1.0" encoding="iso-8859-1"?>
<!-- Generator: Adobe Illustrator 19.0.0, SVG Export Plug-In . SVG Version: 6.00 Build 0)  -->
<svg version="1.1" id="Capa_1" xmlns="http://www.w3.org/2000/svg" xmlns:xlink="http://www.w3.org/1999/xlink" x="0px" y="0px"
	 viewBox="0 0 496.485 496.485" style="enable-background:new 0 0 496.485 496.485;" xml:space="preserve">
<g>
	<circle style="fill:#FDBF5E;" cx="169.891" cy="169.891" r="169.891"/>
	<rect x="116.364" y="404.945" style="fill:#FDBF5E;" width="289.358" height="83.782"/>
</g>
<path style="fill:#193651;" d="M405.721,496.485L405.721,496.485H116.364c-3.879,0-6.982-3.103-6.982-6.982v-83.782
	c0-2.327,0.776-3.879,2.327-5.43c1.552-1.552,3.103-2.327,5.43-2.327l0,0h289.358c3.879,0,6.982,3.103,6.982,6.982v83.782
	c0,2.327-0.776,3.879-2.327,5.43C409.6,495.709,408.048,496.485,405.721,496.485z M124.121,481.745h274.618v-69.042H124.121V481.745
	z"/>
<g>
	<rect x="116.364" y="431.321" style="fill:#FFFFFF;" width="289.358" height="31.806"/>
	<polygon style="fill:#FFFFFF;" points="116.364,489.503 116.364,404.945 34.133,446.836 	"/>
</g>
<path style="fill:#193651;" d="M116.364,496.485c-0.776,0-2.327,0-3.103-0.776l-82.23-41.891c-2.327-1.552-3.879-3.879-3.879-6.206
	c0-3.103,1.552-5.43,3.879-6.206l82.23-41.891c2.327-0.776,4.655-0.776,6.982,0c2.327,1.552,3.879,3.879,3.879,6.206v83.782
	c0,2.327-1.552,4.655-3.879,6.206C119.467,496.485,117.915,496.485,116.364,496.485z M50.424,446.836l58.958,30.255v-59.733
	L50.424,446.836z"/>
<path style="fill:#4FBF9F;" d="M467.006,404.945h-61.285v83.782h61.285c12.412,0,21.721-10.085,21.721-21.721v-40.339
	C488.727,415.03,479.418,404.945,467.006,404.945z"/>
<path style="fill:#193651;" d="M467.006,496.485h-61.285c-3.879,0-6.982-3.103-6.982-6.982v-84.558c0-3.879,3.103-6.982,6.982-6.982
	h61.285c16.291,0,29.479,13.188,29.479,29.479v40.339C496.485,483.297,483.297,496.485,467.006,496.485z M413.479,481.745h53.527
	c7.758,0,14.739-6.206,14.739-14.739v-40.339c0-7.758-6.206-14.739-14.739-14.739h-53.527V481.745z"/>
<path style="fill:#F16051;" d="M469.333,76.8h-235.83c-10.861,0-19.394,8.533-19.394,19.394v192.388
	c0,10.861,8.533,19.394,19.394,19.394h116.364l89.988,65.939v-65.939h30.255c10.861,0,19.394-8.533,19.394-19.394V96.194
	C488.727,85.333,480.194,76.8,469.333,76.8z"/>
<path style="fill:#193651;" d="M469.333,69.042h-235.83c-14.739,0-26.376,11.636-26.376,26.376v192.388
	c0,14.739,11.636,26.376,26.376,26.376h114.036l87.661,65.939c2.327,1.552,5.43,1.552,7.758,0.776
	c2.327-1.552,3.879-3.879,3.879-6.206v-58.958h22.497c14.739,0,26.376-11.636,26.376-26.376V96.194
	C496.485,81.455,484.073,69.042,469.333,69.042z M481.745,288.582c0,6.982-5.43,12.412-12.412,12.412h-30.255
	c-3.879,0-6.982,3.103-6.982,6.982v51.2l-77.576-56.63c-1.552-0.776-3.103-1.552-4.655-1.552H233.503
	c-6.982,0-12.412-5.43-12.412-12.412V96.194c0-6.982,5.43-12.412,12.412-12.412h235.83c6.982,0,12.412,5.43,12.412,12.412V288.582z"
	/>
<path style="fill:#FFFFFF;" d="M449.939,102.4H252.897c-6.982,0-13.188,5.43-13.188,13.188v153.6c0,6.982,5.43,13.188,13.188,13.188
	h197.042c6.982,0,13.188-5.43,13.188-13.188v-153.6C463.127,108.606,457.697,102.4,449.939,102.4z"/>
<g>
	<rect x="272.291" y="127.224" style="fill:#193651;" width="159.03" height="12.412"/>
	<rect x="272.291" y="163.685" style="fill:#193651;" width="159.03" height="12.412"/>
	<rect x="272.291" y="200.145" style="fill:#193651;" width="159.03" height="12.412"/>
</g>
<path style="fill:#FFFFFF;" d="M169.891,306.424c-75.248,0-135.758-61.285-135.758-135.758S95.418,34.133,169.891,34.133
	s135.758,61.285,135.758,135.758S245.139,306.424,169.891,306.424z"/>
<path style="fill:#193651;" d="M169.891,313.406c-79.127,0-143.515-64.388-143.515-143.515S90.764,26.376,169.891,26.376
	s143.515,64.388,143.515,143.515S249.018,313.406,169.891,313.406z M169.891,41.891c-70.594,0-128.776,57.406-128.776,128.776
	c0,70.594,57.406,128.776,128.776,128.776c70.594,0,128.776-57.406,128.776-128.776S241.261,41.891,169.891,41.891z"/>
<ellipse style="fill:#E1E6E9;" cx="169.843" cy="170.437" rx="110.16" ry="110.16"/>
<g>
	<path style="fill:#2EA2DB;" d="M179.976,189.285c0,0,4.655-4.655-13.188-9.309c0,0-4.655,1.552-2.327-11.636l-5.43-1.552
		c0,0-0.776-10.861-6.982-7.758c0,0-3.879,2.327-6.206-5.43c0,0-10.861-6.206-15.515,10.085c0,0-17.842,5.43-3.103,24.048
		l6.206,9.309l-4.655,16.291c0,0,3.879,2.327,0,7.758c0,0,3.879,6.982-3.103,15.515c0,0,0.776,17.842,13.188,15.515l-2.327-4.655
		l3.879-6.206l-4.655-1.552l5.43-6.206l-2.327-3.103c0,0,17.842,4.655,22.497-10.861c0,0-5.43-10.085,6.982-4.655
		c0,0,6.206,1.552,10.085-12.412c0,0,6.982-3.879,6.982-6.982C183.855,190.061,179.976,189.285,179.976,189.285z"/>
	<path style="fill:#2EA2DB;" d="M279.273,153.6c-3.103,3.879-3.103,10.085-3.103,10.085c-6.982,7.758-15.515-10.085-15.515-10.085
		c-6.982,8.533-15.515-5.43-15.515-5.43c-22.497-21.721-34.133,2.327-34.133,2.327c-17.067,9.309-9.309,31.03-9.309,31.03
		c4.655,13.188,20.945,2.327,20.945,2.327c4.655,11.636,10.861,10.861,10.861,10.861s0,0-3.103,5.43
		c-3.103,5.43,5.43,14.739,3.879,17.842c-0.776,3.103-16.291,6.206-9.309,18.618c7.758,11.636,1.552,17.067,1.552,17.067
		s2.327,3.879,4.655,7.758c20.945-13.964,36.461-34.909,44.218-60.509C280.824,185.406,281.6,169.115,279.273,153.6z"/>
	<path style="fill:#2EA2DB;" d="M95.418,127.224c0,0,0,0,2.327,12.412c2.327,12.412,13.188,1.552,13.188-4.655
		c-0.776-6.206,6.982-13.188,18.618-6.206c11.636,6.982,7.758,0,23.273-10.861s18.618,2.327,24.824-5.43
		c6.206-7.758,13.188-22.497-3.103-16.291c-15.515,6.206-13.188,2.327,3.103-9.309s-8.533,0-28.703-6.206
		c-9.309-3.103-10.085-9.309-9.309-16.291c-12.412,3.103-24.048,8.533-34.133,16.291c-3.879,5.43-7.758,12.412-13.188,22.497
		C82.23,119.467,95.418,127.224,95.418,127.224z"/>
</g>
<g>
	<rect x="333.576" y="243.588" style="fill:#193651;" width="14.739" height="14.739"/>
	<rect x="373.139" y="243.588" style="fill:#193651;" width="14.739" height="14.739"/>
	<rect x="412.703" y="243.588" style="fill:#193651;" width="14.739" height="14.739"/>
</g>
<g>
</g>
<g>
</g>
<g>
</g>
<g>
</g>
<g>
</g>
<g>
</g>
<g>
</g>
<g>
</g>
<g>
</g>
<g>
</g>
<g>
</g>
<g>
</g>
<g>
</g>
<g>
</g>
<g>
</g>
</svg>
