<svg width="420" height="512" viewBox="0 0 420 512" fill="none" xmlns="http://www.w3.org/2000/svg">
<path d="M0.917969 302.917C0.917969 418.205 94.712 511.999 210 511.999C325.288 511.999 419.081 418.206 419.081 302.917C419.081 197.181 340.182 109.539 238.168 95.74V56.336H252.352C261.44 56.336 268.833 48.942 268.833 39.854V16.482C268.833 7.394 261.439 0 252.352 0H227.5C223.357 0 220 3.358 220 7.5C220 11.642 223.357 15 227.5 15H252.352C253.168 15 253.833 15.665 253.833 16.482V39.855C253.833 40.672 253.168 41.337 252.352 41.337C245.703 41.337 182.073 41.337 167.649 41.337C166.832 41.337 166.167 40.672 166.167 39.855V16.482C166.167 15.665 166.832 15 167.649 15H192.5C196.643 15 200 11.642 200 7.5C200 3.358 196.643 0 192.5 0H167.648C158.559 0 151.166 7.394 151.166 16.482V39.855C151.166 48.943 158.56 56.337 167.648 56.337H181.831V95.74C163.265 98.251 145.461 103.197 128.762 110.264L112.05 81.318C107.692 73.771 98.006 71.174 90.457 75.532L69.047 87.893C61.481 92.261 58.892 101.919 63.261 109.486L80.319 139.031C31.98 177.361 0.917969 236.577 0.917969 302.917V302.917ZM196.831 56.336H223.168V94.245C214.717 93.721 205.623 93.699 196.831 94.245V56.336ZM76.251 101.986C76.028 101.601 76.155 101.11 76.547 100.883L97.956 88.522C98.342 88.299 98.838 88.433 99.06 88.817L115.091 116.585C107.272 120.576 99.692 125.067 92.432 130.01L76.251 101.986ZM196.805 109.294C205.604 108.706 214.508 108.708 223.306 109.301C324.139 116.162 404.081 200.374 404.081 302.918C404.081 409.935 317.017 497 210 497C102.982 497 15.918 409.936 15.918 302.918C15.918 200.336 95.918 116.101 196.805 109.294V109.294Z" fill="#FFD231"/>
<path d="M209.999 472C303.231 472 379.081 396.15 379.081 302.919C379.081 209.504 303.018 133.838 210 133.838H209.999C116.768 133.838 40.918 209.688 40.918 302.919C40.918 396.15 116.768 472 209.999 472ZM72.988 232.475L78.946 235.915C82.529 237.985 87.119 236.76 89.191 233.17C91.262 229.583 90.033 224.996 86.446 222.925L80.51 219.498C92.421 201.073 108.154 185.341 126.578 173.43L130.005 179.365C132.077 182.952 136.662 184.182 140.25 182.11C143.837 180.039 145.066 175.452 142.995 171.865L139.556 165.908C158.586 156.084 179.912 150.111 202.499 149.023V200.051C202.499 204.193 205.856 207.551 209.999 207.551C214.142 207.551 217.499 204.193 217.499 200.051C217.499 189.753 217.499 159.213 217.499 149.023C239.185 150.042 260.761 155.767 280.439 165.913L277.002 171.865C274.931 175.452 276.16 180.039 279.747 182.11C283.339 184.183 287.924 182.948 289.992 179.365L293.415 173.435C311.36 185.028 327.216 200.545 339.481 219.501L333.551 222.925C329.964 224.996 328.735 229.583 330.806 233.17C332.88 236.762 337.469 237.984 341.051 235.915L347.003 232.478C357.522 252.845 362.957 274.633 363.893 295.418C357.155 295.418 351.694 295.418 344.838 295.418C341.886 286.895 333.454 280.418 323.623 280.418H244.182C237.984 271.007 228.345 264.664 217.497 262.664V235.051C217.497 230.909 214.14 227.551 209.997 227.551C205.854 227.551 202.497 230.909 202.497 235.051V262.682C191.383 264.749 181.835 271.315 175.822 280.418H153.123C140.717 280.418 130.623 290.511 130.623 302.918C130.623 315.325 140.717 325.418 153.123 325.418H175.821C183.152 336.515 195.73 343.856 209.997 343.856C224.264 343.856 236.842 336.516 244.173 325.418H323.623C333.4 325.418 341.737 319.147 344.833 310.418H363.893C362.805 333.005 356.831 354.331 347.008 373.361L341.051 369.922C337.463 367.849 332.876 369.08 330.806 372.667C328.735 376.254 329.964 380.841 333.551 382.912L339.486 386.338C327.575 404.763 311.842 420.495 293.418 432.406L289.992 426.472C287.921 422.885 283.335 421.656 279.747 423.726C276.16 425.797 274.931 430.384 277.002 433.971L280.441 439.928C261.411 449.752 240.085 455.726 217.498 456.814V449.916C217.498 445.774 214.141 442.416 209.998 442.416C205.855 442.416 202.498 445.774 202.498 449.916V456.814C179.911 455.726 158.585 449.753 139.555 439.929L142.994 433.972C145.065 430.385 143.836 425.798 140.249 423.727C136.661 421.654 132.074 422.884 130.004 426.472L126.577 432.407C108.152 420.496 92.42 404.764 80.509 386.339L86.445 382.912C90.032 380.841 91.261 376.254 89.19 372.667C87.12 369.079 82.531 367.85 78.945 369.922L72.987 373.362C63.163 354.332 57.189 333.006 56.101 310.419H63C67.143 310.419 70.5 307.061 70.5 302.919C70.5 298.777 67.143 295.419 63 295.419H56.101C57.191 272.831 63.165 251.505 72.988 232.475V232.475ZM250.251 295.418H323.626C327.762 295.418 331.126 298.782 331.126 302.918C331.126 307.054 327.762 310.418 323.626 310.418H250.251C251.157 305.561 251.144 300.218 250.251 295.418ZM233.151 314.591C228.871 323.044 220.104 328.856 210 328.856C195.561 328.856 184.062 317.053 184.062 302.918C184.062 288.696 195.636 276.981 210 276.981C228.562 276.981 241.793 296.229 233.151 314.591ZM169.748 310.418H153.126C148.99 310.418 145.626 307.054 145.626 302.918C145.626 298.782 148.99 295.418 153.126 295.418H169.748C168.816 300.434 168.879 305.753 169.748 310.418V310.418Z" fill="#FFD231"/>
</svg>
