<svg width="496" height="512" viewBox="0 0 496 512" fill="none" xmlns="http://www.w3.org/2000/svg">
<path d="M326.905 9.96289H33.4371C15.5431 9.96289 0.986084 24.5369 0.986084 42.4519V229.684C0.986084 235.207 5.46308 239.684 10.9861 239.684C16.5081 239.684 20.9861 235.207 20.9861 229.684V123.447H94.3471C99.8691 123.447 104.347 118.97 104.347 113.447V29.9629H326.906C333.771 29.9629 339.356 35.5649 339.356 42.4519V479.483C339.356 486.369 333.771 491.971 326.906 491.971H33.4371C26.5721 491.971 20.9861 486.369 20.9861 479.483V320.097C20.9861 314.574 16.5081 310.097 10.9861 310.097C5.46408 310.097 0.986084 314.574 0.986084 320.097V479.483C0.986084 497.397 15.5441 511.971 33.4371 511.971H326.906C344.799 511.971 359.356 497.397 359.356 479.483V42.4519C359.355 24.5379 344.798 9.96289 326.905 9.96289V9.96289ZM84.3471 103.447H33.3011L84.3471 46.2029V103.447ZM20.9851 87.2069V42.4519C20.9851 35.5659 26.5711 29.9629 33.4361 29.9629H72.0301L20.9851 87.2069Z" fill="#FFD231"/>
<path d="M2.67016 280.26C5.01916 283.847 9.63316 285.49 13.7332 284.315C17.5992 283.207 20.4762 279.806 20.9272 275.81C21.3932 271.677 19.1272 267.574 15.4032 265.74C11.5962 263.864 6.91516 264.648 3.91016 267.64C0.577163 270.959 0.064163 276.355 2.67016 280.26V280.26Z" fill="#FFD231"/>
<path d="M284.979 380.043H214.915C209.393 380.043 204.915 384.52 204.915 390.043C204.915 395.566 209.393 400.043 214.915 400.043H284.979C290.502 400.043 294.979 395.566 294.979 390.043C294.979 384.52 290.502 380.043 284.979 380.043Z" fill="#FFD231"/>
<path d="M284.979 423.396H214.915C209.393 423.396 204.915 427.873 204.915 433.396C204.915 438.919 209.393 443.396 214.915 443.396H284.979C290.502 443.396 294.979 438.919 294.979 433.396C294.979 427.873 290.502 423.396 284.979 423.396Z" fill="#FFD231"/>
<path d="M73.8191 400.043H143.882C149.405 400.043 153.882 395.566 153.882 390.043C153.882 384.52 149.405 380.043 143.882 380.043H73.8191C68.2971 380.043 63.8191 384.52 63.8191 390.043C63.8191 395.566 68.2971 400.043 73.8191 400.043Z" fill="#FFD231"/>
<path d="M63.8191 346.689C63.8191 352.212 68.2971 356.689 73.8191 356.689H284.979C290.502 356.689 294.979 352.212 294.979 346.689C294.979 341.166 290.502 336.689 284.979 336.689H73.8191C68.2971 336.689 63.8191 341.166 63.8191 346.689V346.689Z" fill="#FFD231"/>
<path d="M73.8191 443.396H143.882C149.405 443.396 153.882 438.919 153.882 433.396C153.882 427.873 149.405 423.396 143.882 423.396H73.8191C68.2971 423.396 63.8191 427.873 63.8191 433.396C63.8191 438.918 68.2971 443.396 73.8191 443.396Z" fill="#FFD231"/>
<path d="M495.015 429.668C495.015 429.665 495.015 35.176 495.015 35.176C495.015 15.78 479.235 0 459.839 0H413.633C394.237 0 378.457 15.78 378.457 35.176V429.62C378.457 429.714 378.457 433.192 379.943 434.905L402.778 472.765L420.324 506.604C422.044 509.92 425.468 512.001 429.202 512.001H444.269C448.003 512.001 451.427 509.92 453.147 506.604L470.693 472.765L493.499 434.951C495.015 432.936 495.014 429.742 495.015 429.668V429.668ZM456.317 457.875H417.154L406.167 439.658H467.305L456.317 457.875ZM426.735 419.658H398.457V74.486H426.735V419.658ZM446.736 419.658V74.486H475.014V419.657H446.736V419.658ZM398.457 35.176C398.457 26.808 405.265 20 413.633 20H459.839C468.207 20 475.015 26.808 475.015 35.176V54.487H398.457V35.176ZM438.19 492H435.281L427.957 477.875H445.515L438.19 492Z" fill="#FFD231"/>
<path d="M99.5381 218.665C99.5371 218.671 99.5361 218.677 99.5361 218.683C99.0821 222.167 98.8521 225.725 98.8521 229.26C98.8521 274.1 135.331 310.58 180.171 310.58C225.011 310.58 261.49 274.1 261.49 229.26C261.49 225.726 261.261 222.168 260.806 218.683C260.805 218.677 260.804 218.671 260.804 218.665C257.003 189.484 237.661 164.777 210.703 153.867V121.514H219.83C225.352 121.514 229.83 117.037 229.83 111.514C229.83 105.991 225.352 101.514 219.83 101.514H140.511C134.989 101.514 130.511 105.991 130.511 111.514C130.511 117.037 134.989 121.514 140.511 121.514H149.639V153.867C122.681 164.777 103.339 189.484 99.5381 218.665V218.665ZM180.171 290.579C146.597 290.579 119.238 263.459 118.856 229.973H241.487C241.104 263.459 213.745 290.579 180.171 290.579ZM190.703 121.514V160.94C190.703 165.356 193.599 169.249 197.829 170.518C217.179 176.325 232.203 191.241 238.398 209.973H121.943C128.138 191.241 143.163 176.325 162.512 170.518C166.742 169.248 169.638 165.355 169.638 160.94V121.514H190.703Z" fill="#FFD231"/>
</svg>
