<svg width="512" height="512" viewBox="0 0 512 512" fill="none" xmlns="http://www.w3.org/2000/svg">
<g clip-path="url(#clip0)">
<path d="M482 308.854V203.146C499.124 199.461 512 184.209 512 166C512 135.918 478.604 117.939 453.575 133.959L378.041 58.425C394.063 33.393 376.079 0 346 0C322.417 0 304.329 21.426 308.631 44.87L220.717 81.403L197.925 58.61C214.046 33.755 196.33 0 166 0C135.957 0 117.914 33.356 133.959 58.426L58.425 133.96C33.39 117.935 0 135.927 0 166C0 189.629 21.466 207.66 44.87 203.369L66.741 256L44.87 308.631C21.381 304.321 0 322.462 0 346C0 376.082 33.396 394.061 58.425 378.041L133.959 453.575C117.935 478.61 135.927 512 166 512C184.209 512 199.46 499.124 203.145 482H308.854C312.539 499.124 327.791 512 345.999 512C366.952 512 383.999 494.953 383.999 474C383.999 453.047 366.952 436 345.999 436C327.79 436 312.539 448.876 308.854 466H206.089L442.774 367.646C463.762 398.023 512 383.25 512 346C512 327.791 499.124 312.54 482 308.854ZM75.385 339.219L97.525 330.079L143.338 440.325L69.809 366.796C75.192 358.605 77.109 348.75 75.385 339.219ZM283.969 167.283L249.873 249.875L106.175 309.198L84.068 256L134.543 134.537L216.968 100.281L283.969 167.283ZM360.732 221.418L405.825 202.802L451.124 311.81L360.732 221.418ZM420.615 196.696L442.718 187.571C448.203 195.557 456.52 201.12 466 203.144V305.911L420.615 196.696ZM436.615 172.781L414.475 181.921L368.662 71.676L442.191 145.205C436.808 153.395 434.891 163.25 436.615 172.781ZM339.223 75.385C343.637 76.184 348.171 76.231 352.87 75.369L399.685 188.027L348.48 209.166L302.835 163.521L339.223 75.385ZM332.464 215.778L270.74 241.26L296.222 179.537L332.464 215.778ZM241.258 270.741L172.781 436.616C168.222 435.792 163.693 435.795 159.13 436.632L112.314 323.974L241.258 270.741ZM197.213 452.361C194.601 448.609 191.324 445.34 187.564 442.736L262.126 262.127L344.716 228.031L442.076 325.391C436.71 333.664 434.911 343.495 436.633 352.873L197.213 452.361ZM314.786 59.638C317.398 63.391 320.677 66.662 324.439 69.266L290.581 151.266L232.953 93.638L314.786 59.638ZM143.244 113.597L159.13 75.368C168.527 77.093 178.354 75.279 186.61 69.924L204.731 88.045L143.244 113.597ZM71.676 143.338L143.338 71.676L122.301 122.301L71.676 143.338ZM59.645 197.228C71.875 188.779 78.086 173.944 75.37 159.13L113.599 143.242L75.405 235.153L59.645 197.228ZM91.385 315.304L69.264 324.436C66.66 320.676 63.39 317.398 59.639 314.786L75.405 276.848L91.385 315.304Z" fill="#FFD231"/>
</g>
<defs>
<clipPath id="clip0">
<rect width="512" height="512" fill="white"/>
</clipPath>
</defs>
</svg>
