<svg width="512" height="512" viewBox="0 0 512 512" fill="none" xmlns="http://www.w3.org/2000/svg">
<path d="M496 392V280C496 277.878 495.157 275.843 493.657 274.343C492.157 272.843 490.122 272 488 272H391.786C388.296 262.116 383.731 252.646 378.173 243.759C359.284 213.717 330.056 191.624 296 181.647V56C296 45.3913 291.786 35.2172 284.284 27.7157C276.783 20.2143 266.609 16 256 16C245.391 16 235.217 20.2143 227.716 27.7157C220.214 35.2172 216 45.3913 216 56V112H232V87.978C238.918 93.1845 247.342 96.0001 256 96.0001C264.658 96.0001 273.082 93.1845 280 87.978V187.8C280 189.596 280.604 191.339 281.715 192.75C282.826 194.16 284.379 195.156 286.125 195.577C313.624 202.329 338.139 217.938 355.89 240H192V256H366.867C369.841 261.145 372.452 266.491 374.68 272H296C294.636 272 293.295 272.349 292.104 273.013C290.913 273.677 289.912 274.634 289.195 275.794C288.478 276.954 288.07 278.278 288.008 279.641C287.947 281.003 288.235 282.358 288.845 283.578L304 313.889V432H254.6C254.467 431.438 254.324 430.878 254.171 430.32C252.96 425.865 251.159 421.592 248.816 417.614L176 293.821V220.091C190.632 208.37 207.657 200.002 225.875 195.577C227.621 195.156 229.174 194.16 230.285 192.75C231.396 191.339 232 189.596 232 187.8V128H216V181.646C201.79 185.774 188.299 192.062 176 200.289V168C176 157.391 171.786 147.217 164.284 139.716C156.783 132.214 146.609 128 136 128C125.391 128 115.217 132.214 107.716 139.716C100.214 147.217 96 157.391 96 168V224H112V199.978C118.918 205.184 127.342 208 136 208C144.658 208 153.082 205.184 160 199.978V296C159.999 297.426 160.378 298.826 161.1 300.056L186.953 344H85.047L94.458 328H120V312H103.87L110.896 300.056C111.619 298.827 112 297.426 112 296V240H96V293.821L23.186 417.611C18.5366 425.511 16.0576 434.499 16.0002 443.665C15.9429 452.832 18.3091 461.85 22.8593 469.808C27.4094 477.765 33.9819 484.379 41.9108 488.978C49.8398 493.578 58.8435 496 68.01 496H203.99C217.083 495.983 229.689 491.033 239.297 482.137C248.904 473.242 254.807 461.053 255.83 448H304V464C304.01 472.484 307.384 480.618 313.383 486.617C319.382 492.616 327.516 495.99 336 496H464C472.484 495.99 480.618 492.616 486.617 486.617C492.616 480.618 495.99 472.484 496 464V408H480V464C479.995 468.242 478.308 472.309 475.308 475.308C472.309 478.308 468.242 479.995 464 480H336C331.758 479.995 327.691 478.308 324.692 475.308C321.692 472.309 320.005 468.242 320 464H344V448H320V432H360V416H320V400H344V384H320V368H480V392H496ZM256 80C251.253 80 246.613 78.5924 242.666 75.9553C238.72 73.3181 235.643 69.5698 233.827 65.1844C232.01 60.799 231.535 55.9734 232.461 51.3178C233.387 46.6623 235.673 42.3859 239.029 39.0294C242.386 35.673 246.662 33.3872 251.318 32.4612C255.973 31.5351 260.799 32.0104 265.184 33.8269C269.57 35.6434 273.318 38.7195 275.955 42.6663C278.592 46.6131 280 51.2532 280 56C279.993 62.3629 277.462 68.4631 272.962 72.9624C268.463 77.4616 262.363 79.9926 256 80ZM136 192C131.253 192 126.613 190.592 122.666 187.955C118.72 185.318 115.643 181.57 113.827 177.184C112.01 172.799 111.535 167.973 112.461 163.318C113.387 158.662 115.673 154.386 119.029 151.029C122.386 147.673 126.662 145.387 131.318 144.461C135.973 143.535 140.799 144.01 145.184 145.827C149.57 147.643 153.318 150.72 155.955 154.666C158.592 158.613 160 163.253 160 168C159.993 174.363 157.462 180.463 152.962 184.962C148.463 189.462 142.363 191.993 136 192V192ZM203.99 480H68.01C60.5638 479.996 53.3015 477.687 47.2204 473.389C41.1394 469.092 36.5379 463.018 34.048 456H56V440H32.24C32.7961 434.962 34.41 430.098 36.976 425.726L37.991 424H80V408H47.4L56.811 392H88V376H66.225L75.636 360H196.364L235.026 425.729C238.244 431.199 239.96 437.422 239.999 443.768C240.038 450.114 238.4 456.357 235.249 461.866C232.099 467.375 227.548 471.954 222.059 475.138C216.57 478.323 210.336 480 203.99 480V480ZM320 352V336H344V320H320V312C320 310.758 319.711 309.533 319.155 308.422L308.944 288H480V352H320Z" fill="#FFD231"/>
<path d="M264 392C268.747 392 273.387 390.592 277.334 387.955C281.28 385.318 284.357 381.57 286.173 377.184C287.99 372.799 288.465 367.973 287.539 363.318C286.613 358.662 284.327 354.386 280.971 351.029C277.614 347.673 273.338 345.387 268.682 344.461C264.027 343.535 259.201 344.01 254.816 345.827C250.43 347.643 246.682 350.72 244.045 354.666C241.408 358.613 240 363.253 240 368C240.007 374.363 242.538 380.463 247.037 384.963C251.537 389.462 257.637 391.993 264 392V392ZM264 360C265.582 360 267.129 360.469 268.445 361.348C269.76 362.227 270.786 363.477 271.391 364.939C271.997 366.4 272.155 368.009 271.846 369.561C271.538 371.113 270.776 372.538 269.657 373.657C268.538 374.776 267.113 375.538 265.561 375.846C264.009 376.155 262.4 375.997 260.939 375.391C259.477 374.786 258.227 373.76 257.348 372.445C256.469 371.129 256 369.582 256 368C256.002 365.879 256.846 363.846 258.346 362.346C259.846 360.846 261.879 360.002 264 360Z" fill="#FFD231"/>
<path d="M240 304H256V320H240V304Z" fill="#FFD231"/>
<path d="M208 280H224V296H208V280Z" fill="#FFD231"/>
<path d="M168 432H184V448H168V432Z" fill="#FFD231"/>
<path d="M152 392H168V408H152V392Z" fill="#FFD231"/>
<path d="M424 432H440V448H424V432Z" fill="#FFD231"/>
<path d="M440 400H456V416H440V400Z" fill="#FFD231"/>
</svg>
