<svg width="513" height="513" viewBox="0 0 513 513" fill="none" xmlns="http://www.w3.org/2000/svg">
<g clip-path="url(#clip0)">
<path d="M434.257 74.6512H400.318V10.4102C400.318 4.88716 395.841 0.410156 390.318 0.410156H349.761C344.238 0.410156 339.761 4.88716 339.761 10.4102V74.6512H89.2515C80.9645 74.6512 73.6065 79.6162 70.5055 87.3002C67.4045 94.9852 69.2555 103.666 75.2205 109.418L123.851 156.304V465.026C123.851 491.154 145.107 512.41 171.235 512.41H396.872C423 512.41 444.256 491.154 444.256 465.026V84.6512C444.257 79.1282 439.78 74.6512 434.257 74.6512ZM359.761 94.6512H380.318V253.41H359.761V94.6512ZM359.761 20.4102H380.318V74.6512H359.761V20.4102ZM89.1025 95.0192C89.0525 94.9712 89.0255 94.9372 89.0155 94.9322C89.0175 94.8442 89.0795 94.6922 89.0975 94.6642C89.0975 94.6642 89.1425 94.6512 89.2515 94.6512H339.761V253.41H290.167C282.603 235.504 265.027 223.57 245.023 223.57C225.019 223.57 207.443 235.504 199.878 253.41H143.852V217.732H176.19C181.713 217.732 186.19 213.255 186.19 207.732C186.19 202.209 181.713 197.732 176.19 197.732H143.852V162.054H195.85C201.373 162.054 205.85 157.577 205.85 152.054C205.85 146.531 201.373 142.054 195.85 142.054H137.887L89.1025 95.0192ZM143.852 448.41V403.41H167.852V448.41H143.852ZM167.852 383.41H143.852V338.41H167.852V383.41ZM167.852 318.41H143.852V273.41H167.852V318.41ZM424.257 465.026C424.257 480.126 411.972 492.41 396.873 492.41H171.236C157.282 492.41 145.733 481.919 144.06 468.41H390.317C395.84 468.41 400.317 463.933 400.317 458.41V408.446C400.317 402.923 395.84 398.446 390.317 398.446C384.794 398.446 380.317 402.923 380.317 408.446V448.41H187.852V273.41H207.08C211.699 273.41 215.717 270.246 216.801 265.757C219.954 252.693 231.56 243.57 245.024 243.57C258.487 243.57 270.093 252.694 273.246 265.757C274.329 270.247 278.348 273.41 282.967 273.41H380.319V318.034C380.319 323.557 384.796 328.034 390.319 328.034C395.842 328.034 400.319 323.557 400.319 318.034V94.6512H424.258V465.026H424.257Z" fill="#FFD231"/>
<path d="M399.547 359.601C397.935 355.733 393.981 353.212 389.783 353.44C385.619 353.667 381.973 356.54 380.753 360.521C379.528 364.518 381.021 368.963 384.363 371.453C387.613 373.875 392.154 374.057 395.594 371.917C399.692 369.367 401.404 364.06 399.547 359.601V359.601Z" fill="#FFD231"/>
<path d="M270.766 379.912C256.502 379.912 244.898 391.516 244.898 405.781C244.898 420.045 256.503 431.65 270.766 431.65C285.03 431.65 296.635 420.045 296.635 405.781C296.634 391.516 285.03 379.912 270.766 379.912ZM270.766 411.649C267.53 411.649 264.898 409.016 264.898 405.78C264.898 402.544 267.53 399.911 270.766 399.911C274.002 399.911 276.635 402.544 276.635 405.78C276.634 409.016 274.002 411.649 270.766 411.649V411.649Z" fill="#FFD231"/>
<path d="M280.766 318.942C280.766 299.415 264.88 283.529 245.353 283.529C225.826 283.529 209.94 299.415 209.94 318.942C209.94 338.468 225.826 354.355 245.353 354.355C264.88 354.355 280.766 338.469 280.766 318.942ZM229.941 318.942C229.941 310.443 236.855 303.529 245.354 303.529C253.853 303.529 260.767 310.443 260.767 318.942C260.767 327.441 253.853 334.355 245.354 334.355C236.855 334.355 229.941 327.441 229.941 318.942Z" fill="#FFD231"/>
<path d="M295.787 205.474C313.124 205.474 327.229 191.369 327.229 174.032C327.229 156.695 313.124 142.59 295.787 142.59C278.45 142.59 264.345 156.695 264.345 174.032C264.345 191.369 278.45 205.474 295.787 205.474ZM295.787 162.589C302.097 162.589 307.229 167.722 307.229 174.031C307.229 180.341 302.096 185.473 295.787 185.473C289.478 185.473 284.345 180.34 284.345 174.031C284.345 167.722 289.478 162.589 295.787 162.589Z" fill="#FFD231"/>
</g>
<defs>
<clipPath id="clip0">
<rect width="512" height="512" fill="white" transform="translate(0.639526 0.410156)"/>
</clipPath>
</defs>
</svg>
