<svg width="951" height="951" viewBox="0 0 951 951" fill="none" xmlns="http://www.w3.org/2000/svg">
<circle cx="475.298" cy="475.098" r="459.598" fill="white" stroke="#FFD231" stroke-width="31"/>
<path d="M379.294 299.604H251.283C233.922 299.604 219.797 313.728 219.797 331.089V619.108C219.797 636.468 233.922 650.593 251.283 650.593H379.29C396.655 650.593 410.779 636.468 410.779 619.108V331.089C410.779 313.728 396.655 299.604 379.294 299.604ZM251.283 314.574H379.29C388.397 314.574 395.809 321.982 395.809 331.089V603.622H234.768V331.089C234.768 321.982 242.175 314.574 251.283 314.574ZM379.294 635.622H251.283C242.175 635.622 234.768 628.215 234.768 619.108V618.593H395.809V619.108C395.809 628.215 388.401 635.622 379.294 635.622Z" fill="#FFD231"/>
<path d="M699.314 299.604H571.302C553.942 299.604 539.817 313.728 539.817 331.089V619.108C539.817 636.468 553.942 650.593 571.302 650.593H699.31C716.674 650.593 730.799 636.468 730.799 619.108V331.089C730.799 313.728 716.674 299.604 699.314 299.604ZM571.302 314.574H699.31C708.417 314.574 715.828 321.982 715.828 331.089V603.622H554.788V331.089C554.788 321.982 562.195 314.574 571.302 314.574ZM699.314 635.622H571.302C562.195 635.622 554.788 628.215 554.788 619.108V618.593H715.828V619.108C715.828 628.215 708.421 635.622 699.314 635.622Z" fill="#FFD231"/>
<path d="M259.283 450.578H371.29C375.427 450.578 378.776 447.229 378.776 443.093V347.089C378.776 342.952 375.427 339.604 371.29 339.604H259.283C255.15 339.604 251.797 342.952 251.797 347.089V387.089C251.797 391.225 255.15 394.574 259.283 394.574C263.419 394.574 266.768 391.225 266.768 387.089V363.362L303.786 395.089L266.768 426.82V419.093C266.768 414.956 263.419 411.607 259.283 411.607C255.15 411.607 251.797 414.956 251.797 419.093V443.093C251.797 447.229 255.15 450.578 259.283 450.578ZM326.791 395.089L363.805 363.362V426.82L326.791 395.089ZM279.521 354.574H351.056L315.287 385.233L279.521 354.574ZM351.056 435.607H279.521L315.29 404.948L351.056 435.607Z" fill="#FFD231"/>
<path d="M259.283 578.586H371.29C375.427 578.586 378.776 575.233 378.776 571.1V475.097C378.776 470.96 375.427 467.611 371.29 467.611H259.283C255.15 467.611 251.797 470.96 251.797 475.097V571.1C251.797 575.233 255.15 578.586 259.283 578.586ZM363.805 554.828L326.791 523.097L363.805 491.37V554.828ZM351.056 563.615H279.521L315.29 532.956L351.056 563.615ZM315.287 513.241L279.521 482.582H351.056L315.287 513.241ZM303.786 523.097L266.768 554.828V491.37L303.786 523.097Z" fill="#FFD231"/>
<path d="M579.306 450.578H691.31C695.446 450.578 698.795 447.229 698.795 443.093V395.089C698.795 390.956 695.446 387.603 691.31 387.603C687.177 387.603 683.824 390.956 683.824 395.089V435.607H586.792V354.574H683.824V363.089C683.824 367.221 687.177 370.574 691.31 370.574C695.446 370.574 698.795 367.221 698.795 363.089V347.089C698.795 342.952 695.446 339.604 691.31 339.604H579.306C575.17 339.604 571.821 342.952 571.821 347.089V443.093C571.821 447.229 575.17 450.578 579.306 450.578Z" fill="#FFD231"/>
<path d="M691.314 467.611H619.306C615.174 467.611 611.821 470.96 611.821 475.097C611.821 479.229 615.174 482.582 619.306 482.582H691.314C695.446 482.582 698.799 479.229 698.799 475.097C698.799 470.96 695.446 467.611 691.314 467.611Z" fill="#FFD231"/>
<path d="M691.314 499.611H619.306C615.174 499.611 611.821 502.964 611.821 507.097C611.821 511.229 615.174 514.582 619.306 514.582H691.314C695.446 514.582 698.799 511.229 698.799 507.097C698.799 502.964 695.446 499.611 691.314 499.611Z" fill="#FFD231"/>
<path d="M691.314 563.615H619.306C615.174 563.615 611.821 566.968 611.821 571.101C611.821 575.233 615.174 578.586 619.306 578.586H691.314C695.446 578.586 698.799 575.233 698.799 571.101C698.799 566.968 695.446 563.615 691.314 563.615Z" fill="#FFD231"/>
<path d="M691.314 531.615H619.306C615.174 531.615 611.821 534.964 611.821 539.101C611.821 543.233 615.174 546.586 619.306 546.586H691.314C695.446 546.586 698.799 543.233 698.799 539.101C698.799 534.964 695.446 531.615 691.314 531.615Z" fill="#FFD231"/>
<path d="M579.306 482.582H587.306C591.439 482.582 594.792 479.229 594.792 475.097C594.792 470.96 591.439 467.611 587.306 467.611H579.306C575.17 467.611 571.821 470.96 571.821 475.097C571.821 479.229 575.17 482.582 579.306 482.582Z" fill="#FFD231"/>
<path d="M579.306 514.582H587.306C591.439 514.582 594.792 511.229 594.792 507.097C594.792 502.964 591.439 499.611 587.306 499.611H579.306C575.17 499.611 571.821 502.964 571.821 507.097C571.821 511.229 575.17 514.582 579.306 514.582Z" fill="#FFD231"/>
<path d="M579.306 578.586H587.306C591.439 578.586 594.792 575.233 594.792 571.101C594.792 566.968 591.439 563.615 587.306 563.615H579.306C575.17 563.615 571.821 566.968 571.821 571.101C571.821 575.233 575.17 578.586 579.306 578.586Z" fill="#FFD231"/>
<path d="M579.306 546.586H587.306C591.439 546.586 594.792 543.233 594.792 539.101C594.792 534.964 591.439 531.615 587.306 531.615H579.306C575.17 531.615 571.821 534.964 571.821 539.101C571.821 543.233 575.17 546.586 579.306 546.586Z" fill="#FFD231"/>
<path d="M519.15 468.68L479.15 444.68C475.602 442.552 471.006 443.702 468.877 447.246C466.752 450.793 467.903 455.39 471.446 457.518L488.277 467.616H435.294C431.162 467.616 427.809 470.965 427.809 475.101C427.809 479.234 431.162 482.587 435.294 482.587H488.277L471.446 492.684C467.903 494.809 466.752 499.409 468.877 502.953C470.281 505.292 472.76 506.587 475.306 506.587C476.616 506.587 477.942 506.244 479.15 505.518L519.15 481.518C521.407 480.166 522.784 477.729 522.784 475.101C522.784 472.47 521.407 470.033 519.15 468.68Z" fill="#FFD231"/>
</svg>
