<svg width="512" height="512" viewBox="0 0 512 512" fill="none" xmlns="http://www.w3.org/2000/svg">
<g clip-path="url(#clip0)">
<path d="M491.843 54.4258H306.394C295.279 54.4258 286.236 63.4684 286.236 74.5833V126.994C262.34 131.642 245.921 153.295 245.921 176.379V210.656C245.921 216.21 250.447 220.735 256 220.735C261.553 220.735 266.079 216.21 266.079 210.656V176.379C266.103 163.271 274.528 152.076 286.236 147.897V437.418C286.236 448.533 295.279 457.575 306.394 457.575H491.843C502.957 457.575 512 448.533 512 437.418V74.5833C512 63.4684 502.957 54.4258 491.843 54.4258ZM491.843 437.418H306.394V74.5833H491.843L491.856 437.417C491.856 437.417 491.852 437.418 491.843 437.418ZM40.315 265.071C40.315 259.506 44.8282 254.993 50.3937 254.993H112.882C118.447 254.993 122.961 259.506 122.961 265.071C122.961 270.637 118.447 275.15 112.882 275.15H50.3937C44.8282 275.15 40.315 270.637 40.315 265.071ZM40.315 305.386C40.315 299.821 44.8282 295.308 50.3937 295.308H175.37C180.936 295.308 185.449 299.821 185.449 305.386C185.449 310.952 180.936 315.465 175.37 315.465H50.3937C44.8282 315.465 40.315 310.952 40.315 305.386ZM40.315 104.819C40.315 99.254 44.8282 94.7407 50.3937 94.7407H175.37C180.936 94.7407 185.449 99.254 185.449 104.819C185.449 110.385 180.936 114.898 175.37 114.898H50.3937C44.8282 114.898 40.315 110.385 40.315 104.819ZM471.685 270.111C471.685 275.676 467.172 280.19 461.606 280.19H336.63C331.064 280.19 326.551 275.676 326.551 270.111C326.551 264.545 331.064 260.032 336.63 260.032H461.606C467.172 260.032 471.685 264.545 471.685 270.111ZM471.685 310.426C471.685 315.991 467.172 320.505 461.606 320.505H336.63C331.064 320.505 326.551 315.991 326.551 310.426C326.551 304.86 331.064 300.347 336.63 300.347H461.606C467.172 300.347 471.685 304.86 471.685 310.426ZM409.197 350.741C409.197 356.306 404.684 360.819 399.118 360.819H336.63C331.064 360.819 326.551 356.306 326.551 350.741C326.551 345.175 331.064 340.662 336.63 340.662H399.118C404.684 340.662 409.197 345.175 409.197 350.741ZM461.606 94.7407H336.63C331.064 94.7407 326.551 99.254 326.551 104.819V229.796C326.551 235.361 331.064 239.875 336.63 239.875H461.606C467.172 239.875 471.685 235.361 471.685 229.796V104.819C471.685 99.254 467.172 94.7407 461.606 94.7407ZM451.528 219.717H346.709V114.898H451.528V219.717ZM266.079 256.011C266.079 261.564 261.553 266.089 256 266.089C250.447 266.089 245.921 261.564 245.921 256.011C245.921 250.447 250.447 245.932 256 245.932C261.553 245.932 266.079 250.447 266.079 256.011ZM256 291.286C250.447 291.286 245.921 295.802 245.921 301.365V335.623C245.897 348.73 237.472 359.924 225.764 364.104V74.5833C225.764 63.4684 216.721 54.4258 205.606 54.4258H20.1575C9.04265 54.4258 0 63.4684 0 74.5833V437.418C0 448.533 9.04265 457.575 20.1575 457.575H205.606C216.721 457.575 225.764 448.533 225.764 437.418V385.01C247.905 380.749 266.079 360.819 266.079 335.623V301.365C266.079 295.802 261.553 291.286 256 291.286ZM205.606 437.418H20.1575V74.5833H205.606L205.616 365.859H185.449C185.449 349.187 171.885 335.623 155.213 335.623H70.5512C53.8789 335.623 40.315 349.187 40.315 365.859V386.016C40.315 402.689 53.8789 416.253 70.5512 416.253H155.213C171.885 416.253 185.449 402.689 185.449 386.016H205.617L205.619 437.417C205.619 437.417 205.615 437.418 205.606 437.418ZM165.291 386.016C165.291 391.574 160.77 396.095 155.213 396.095H70.5512C64.9938 396.095 60.4724 391.574 60.4724 386.016V365.859C60.4724 360.301 64.9938 355.78 70.5512 355.78H155.213C160.77 355.78 165.291 360.301 165.291 365.859V386.016Z" fill="#FFD231"/>
</g>
<defs>
<clipPath id="clip0">
<rect width="512" height="512" fill="white"/>
</clipPath>
</defs>
</svg>
