<svg width="512" height="512" viewBox="0 0 512 512" fill="none" xmlns="http://www.w3.org/2000/svg">
<g clip-path="url(#clip0)">
<path d="M493.417 211.237L357.129 74.9502C345.192 62.9932 329.308 56.4092 312.405 56.4092C277.558 56.4092 249.206 84.7602 249.203 119.607C249.201 136.488 255.774 152.362 267.716 164.304L296.207 192.795H63.174C46.289 192.795 30.417 199.37 18.481 211.308C-6.16001 235.951 -6.16001 276.048 18.481 300.689C30.418 312.626 46.284 319.2 63.209 319.2L296.212 319.201L267.748 347.667C255.789 359.608 249.204 375.49 249.204 392.389C249.204 427.238 277.558 455.591 312.407 455.592H312.411L312.412 440.591V455.592C329.29 455.592 345.161 449.017 357.103 437.077L493.403 300.777C502.243 291.97 508.23 280.886 510.718 268.718C511.57 264.55 512.001 260.27 512.001 255.997C512.001 239.071 505.394 223.168 493.417 211.237ZM481.323 262.71C480.02 269.078 476.875 274.892 472.206 279.543L335.886 415.862C329.613 422.135 321.275 425.591 312.41 425.591L312.409 440.592L312.407 425.591C294.098 425.591 279.204 410.696 279.204 392.39C279.204 383.513 282.663 375.171 288.953 368.891L343.031 314.81C347.321 310.52 348.604 304.067 346.283 298.462C343.961 292.857 338.491 289.201 332.424 289.201L63.158 289.2C54.298 289.2 45.966 285.747 39.696 279.476C26.752 266.531 26.752 245.468 39.697 232.521C45.966 226.251 54.304 222.796 63.174 222.796H332.423C338.49 222.796 343.96 219.141 346.282 213.535C348.603 207.93 347.32 201.477 343.03 197.187L288.93 143.09C282.657 136.817 279.202 128.478 279.204 119.611C279.205 101.305 294.1 86.4122 312.404 86.4122C321.284 86.4122 329.627 89.8702 335.904 96.1582L472.222 232.474C478.526 238.753 481.998 247.107 481.997 255.998C481.998 258.258 481.77 260.518 481.323 262.71Z" fill="#FFD231"/>
</g>
<defs>
<clipPath id="clip0">
<rect width="512" height="512" fill="white"/>
</clipPath>
</defs>
</svg>
