<svg width="519" height="383" viewBox="0 0 519 383" fill="none" xmlns="http://www.w3.org/2000/svg">
<path d="M492.752 279.272L461.777 270.422C460.44 270.04 459.506 268.802 459.506 267.411V257.072C462.026 255.326 464.43 253.372 466.677 251.191C477.567 240.623 483.564 226.448 483.564 211.276V197.009L486.559 191.02C489.846 184.445 491.583 177.084 491.583 169.734V131.084C491.583 126.942 488.225 123.584 484.083 123.584H411.91C385.666 123.584 364.314 144.936 364.314 171.18V171.627C364.314 177.739 365.759 183.86 368.492 189.326L372.333 197.008V209.258C372.333 228.672 381.9 246.091 396.391 256.573L396.393 267.409C396.393 269.08 396.393 269.772 390.2 271.542L375.086 275.86L331.365 259.962C331.522 257.899 330.826 255.801 329.321 254.22L315.35 239.542V214.902C316.827 213.685 318.283 212.435 319.694 211.113C337.319 194.593 347.427 171.269 347.427 147.122V127.444C352.749 115.863 355.446 103.608 355.446 90.9869V10.7969C355.446 6.65487 352.088 3.29688 347.946 3.29688H235.677C196.167 3.29688 164.024 35.4409 164.024 74.9499V90.9889C164.024 103.61 166.721 115.865 172.043 127.446V144.377C172.043 172.413 184.509 197.671 204.12 214.323V239.543L190.149 254.221C188.644 255.802 187.948 257.9 188.105 259.963L141.96 276.742C138.616 277.958 135.509 279.605 132.688 281.6L125.442 277.977C147.012 268.588 153.845 255.383 154.173 254.727C155.229 252.616 155.229 250.13 154.173 248.019C148.766 237.205 148.111 217.384 147.585 201.458C147.41 196.156 147.244 191.147 146.927 186.687C144.37 150.713 117.022 123.584 83.3115 123.584C49.6015 123.584 22.2525 150.712 19.6965 186.687C19.3795 191.148 19.2135 196.157 19.0385 201.46C18.5125 217.385 17.8565 237.204 12.4505 248.018C11.3945 250.129 11.3945 252.615 12.4505 254.726C12.7785 255.382 19.5975 268.56 41.2105 277.96L21.0835 288.023C10.3235 293.407 3.63953 304.222 3.63953 316.251V371.66C3.63953 375.802 6.99753 379.16 11.1395 379.16C15.2815 379.16 18.6395 375.802 18.6395 371.66V316.251C18.6395 309.939 22.1465 304.264 27.7915 301.441L52.8545 288.91L61.5725 297.195C67.6685 302.988 75.4885 305.883 83.3115 305.883C91.1325 305.883 98.9565 302.986 105.051 297.195L113.768 288.911L121.94 292.997C118.092 299.154 115.908 306.374 115.908 313.937V371.662C115.908 375.804 119.266 379.162 123.408 379.162C127.55 379.162 130.908 375.804 130.908 371.662V313.937C130.908 303.641 137.409 294.359 147.086 290.84L195.738 273.149L215.991 303.53C218.58 307.414 222.729 309.905 227.374 310.365C227.892 310.416 228.407 310.441 228.921 310.441C233.019 310.441 236.944 308.828 239.878 305.895L252.234 293.539V371.663C252.234 375.805 255.592 379.163 259.734 379.163C263.876 379.163 267.234 375.805 267.234 371.663V293.539L279.59 305.895C282.523 308.829 286.448 310.442 290.547 310.442C291.06 310.442 291.576 310.417 292.093 310.366C296.739 309.906 300.888 307.415 303.477 303.531L323.731 273.151L372.382 290.842C382.058 294.361 388.56 303.643 388.56 313.939V371.664C388.56 375.806 391.918 379.164 396.06 379.164C400.202 379.164 403.56 375.806 403.56 371.664V313.939C403.56 303.511 399.417 293.731 392.467 286.498L394.32 285.969C396.189 285.435 398.739 284.704 401.299 283.449L420.448 302.598V371.664C420.448 375.806 423.806 379.164 427.948 379.164C432.09 379.164 435.448 375.806 435.448 371.664V302.598L454.464 283.582C455.475 284.096 456.537 284.53 457.655 284.849L488.631 293.699C495.701 295.719 500.64 302.266 500.64 309.62V371.664C500.64 375.806 503.998 379.164 508.14 379.164C512.282 379.164 515.64 375.806 515.64 371.664V309.62C515.64 295.602 506.228 283.123 492.752 279.272ZM51.7545 266.025C37.7255 260.977 30.6885 254.247 27.6845 250.572C29.7325 245.218 31.0605 239.086 31.9595 232.613C36.0955 242.53 43.0225 250.996 51.7545 257.036V266.025ZM94.7195 286.323C88.3225 292.401 78.3015 292.4 71.9065 286.322L64.9315 279.694C66.1085 277.489 66.7555 274.989 66.7555 272.37V264.376C71.9875 266.011 77.5495 266.893 83.3135 266.893C89.0705 266.893 94.6295 266.007 99.8705 264.381L99.8695 272.369C99.8695 274.989 100.516 277.49 101.694 279.696L94.7195 286.323ZM83.3155 251.893C60.9195 251.893 42.7005 233.673 42.7005 211.278C42.7005 207.136 39.3425 203.778 35.2005 203.778C34.7805 203.778 34.3705 203.821 33.9695 203.888C33.9915 203.243 34.0125 202.597 34.0345 201.958C34.2015 196.801 34.3625 191.93 34.6595 187.752C35.6175 174.276 41.0025 161.858 49.8225 152.784C58.7215 143.628 70.6155 138.586 83.3135 138.586C96.0115 138.586 107.905 143.628 116.805 152.784C125.625 161.858 131.01 174.276 131.968 187.752C132.264 191.929 132.426 196.799 132.596 201.955C132.611 202.398 132.626 202.847 132.641 203.293C124.481 190.721 111.879 181.456 95.5955 176.224C80.5525 171.391 67.6145 171.69 67.0685 171.704C65.1045 171.759 63.2405 172.581 61.8775 173.995L48.3455 188.029C45.4705 191.011 45.5565 195.759 48.5385 198.634C51.5205 201.509 56.2685 201.422 59.1435 198.441L70.4035 186.764C80.1005 187.238 111.298 190.866 123.431 217.583C120.378 237.271 103.456 251.893 83.3155 251.893ZM114.869 266.05L114.87 257.105C123.595 251.098 130.532 242.648 134.671 232.656C135.57 239.114 136.897 245.232 138.941 250.574C135.954 254.214 128.884 261.004 114.869 266.05ZM187.043 144.376V125.768C187.043 124.639 186.788 123.524 186.297 122.507C181.471 112.513 179.024 101.909 179.024 90.9889V74.9509C179.024 43.7119 204.439 18.2979 235.677 18.2979H340.446V90.9899C340.446 101.91 337.999 112.514 333.173 122.508C332.682 123.525 332.427 124.64 332.427 125.769V147.124C332.427 167.435 324.262 186.274 309.436 200.171C307.585 201.905 305.664 203.531 303.678 205.046C303.634 205.076 303.592 205.109 303.549 205.14C289.66 215.685 272.648 220.81 254.882 219.659C216.841 217.196 187.043 184.128 187.043 144.376ZM229.272 295.287C229.22 295.339 229.099 295.462 228.854 295.436C228.61 295.412 228.514 295.269 228.473 295.207L205.148 260.219L212.654 252.332L248.039 276.519L229.272 295.287ZM259.735 266.344L219.12 238.582V224.582C229.629 230.263 241.396 233.816 253.911 234.626C255.888 234.754 257.853 234.817 259.812 234.817C274.153 234.817 287.955 231.389 300.35 224.882V238.582L259.735 266.344ZM290.997 295.209C290.956 295.271 290.86 295.414 290.616 295.438C290.371 295.469 290.251 295.34 290.198 295.289L271.431 276.522L306.816 252.334L314.323 260.221L290.997 295.209ZM427.948 288.881L410.928 271.862C411.225 270.513 411.393 269.036 411.392 267.407L411.391 264.242C416.114 265.792 421.092 266.712 426.243 266.866C426.821 266.884 427.394 266.892 427.97 266.892C433.662 266.892 439.218 266.032 444.506 264.391V267.411C444.506 268.907 444.694 270.373 445.048 271.782L427.948 288.881ZM456.231 240.427C448.282 248.141 437.781 252.215 426.694 251.873C404.99 251.222 387.333 232.105 387.333 209.26V195.239C387.333 194.074 387.062 192.926 386.541 191.885L381.908 182.619C380.211 179.224 379.314 175.424 379.314 171.628V171.181C379.314 153.207 393.937 138.585 411.91 138.585H476.583V169.735C476.583 174.769 475.393 179.81 473.142 184.313L469.356 191.885C468.835 192.927 468.564 194.074 468.564 195.239V211.277C468.564 222.357 464.184 232.709 456.231 240.427Z" fill="#FFD231" stroke="#FFD231" stroke-width="6"/>
</svg>
