<svg width="480" height="480" viewBox="0 0 480 480" fill="none" xmlns="http://www.w3.org/2000/svg">
<path d="M456.888 51.872C461.272 46.392 464 39.544 464 32C464 14.352 449.648 0 432 0C414.352 0 400 14.352 400 32C400 39.544 402.728 46.392 407.112 51.872C393.504 58.264 384 72 384 88V104C384 108.424 387.576 112 392 112H472C476.424 112 480 108.424 480 104V88C480 72 470.496 58.264 456.888 51.872ZM432 16C440.824 16 448 23.176 448 32C448 40.824 440.824 48 432 48C423.176 48 416 40.824 416 32C416 23.176 423.176 16 432 16ZM464 96H400V88C400 74.768 410.768 64 424 64H440C453.232 64 464 74.768 464 88V96Z" fill="#FFD231"/>
<path d="M392.888 243.872C397.272 238.392 400 231.544 400 224C400 206.352 385.648 192 368 192C361.488 192 355.432 193.976 350.376 197.336C347.224 186.04 339.336 176.776 328.888 171.872C333.272 166.392 336 159.544 336 152C336 134.352 321.648 120 304 120C297.488 120 291.432 121.976 286.376 125.336C283.224 114.04 275.336 104.776 264.888 99.872C269.272 94.392 272 87.544 272 80C272 62.352 257.648 48 240 48C222.352 48 208 62.352 208 80C208 87.544 210.728 94.392 215.112 99.872C201.504 106.264 192 120 192 136V152C192 156.424 195.576 160 200 160H273.136C274.28 164.416 276.344 168.416 279.112 171.872C265.504 178.264 256 192 256 208V224C256 228.424 259.576 232 264 232H337.136C338.28 236.416 340.344 240.416 343.112 243.872C329.504 250.264 320 264 320 280V296C320 300.424 323.576 304 328 304H408C412.424 304 416 300.424 416 296V280C416 264 406.496 250.264 392.888 243.872ZM240 64C248.824 64 256 71.176 256 80C256 88.824 248.824 96 240 96C231.176 96 224 88.824 224 80C224 71.176 231.176 64 240 64ZM272 144H208V136C208 122.768 218.768 112 232 112H248C261.232 112 272 122.768 272 136V144ZM304 136C312.824 136 320 143.176 320 152C320 160.824 312.824 168 304 168C295.176 168 288 160.824 288 152C288 143.176 295.176 136 304 136ZM336 216H272V208C272 194.768 282.768 184 296 184H312C325.232 184 336 194.768 336 208V216ZM368 208C376.824 208 384 215.176 384 224C384 232.824 376.824 240 368 240C359.176 240 352 232.824 352 224C352 215.176 359.176 208 368 208ZM400 288H336V280C336 266.768 346.768 256 360 256H376C389.232 256 400 266.768 400 280V288Z" fill="#FFD231"/>
<path d="M362.334 106.322L346.336 122.319L357.65 133.633L373.647 117.636L362.334 106.322Z" fill="#FFD231"/>
<path d="M432 160H416V184H432V160Z" fill="#FFD231"/>
<path d="M320 48H296V64H320V48Z" fill="#FFD231"/>
<path d="M234.334 234.346L218.337 250.344L229.65 261.657L245.648 245.66L234.334 234.346Z" fill="#FFD231"/>
<path d="M304 288H288V312H304V288Z" fill="#FFD231"/>
<path d="M192 176H168V192H192V176Z" fill="#FFD231"/>
<path d="M328.888 419.872C333.272 414.392 336 407.544 336 400C336 382.352 321.648 368 304 368C298.008 368 292.456 369.76 287.656 372.632C286.416 358.096 277.512 345.8 264.88 339.872C269.272 334.392 272 327.544 272 320C272 302.352 257.648 288 240 288C233.488 288 227.432 289.976 222.376 293.336C219.224 282.04 211.336 272.776 200.888 267.872C205.272 262.392 208 255.544 208 248C208 230.352 193.648 216 176 216C169.488 216 163.432 217.976 158.376 221.336C155.224 210.04 147.336 200.776 136.888 195.872C141.272 190.392 144 183.544 144 176C144 158.352 129.648 144 112 144C105.488 144 99.432 145.976 94.376 149.336C91.224 138.04 83.336 128.776 72.888 123.872C77.272 118.392 80 111.544 80 104C80 86.352 65.648 72 48 72C30.352 72 16 86.352 16 104C16 111.544 18.728 118.392 23.112 123.872C9.504 130.264 0 144 0 160V176C0 180.424 3.576 184 8 184H81.136C82.28 188.416 84.344 192.416 87.112 195.872C76.664 200.776 68.776 210.04 65.624 221.336C60.568 217.976 54.512 216 48 216C30.352 216 16 230.352 16 248C16 255.544 18.728 262.392 23.112 267.872C9.504 274.264 0 288 0 304V320C0 324.424 3.576 328 8 328H81.136C82.28 332.416 84.344 336.416 87.112 339.872C78.656 343.848 71.84 350.656 67.872 359.112C62.392 354.728 55.544 352 48 352C30.352 352 16 366.352 16 384C16 391.544 18.728 398.392 23.112 403.872C9.504 410.264 0 424 0 440V456C0 460.424 3.576 464 8 464H88C92.424 464 96 460.424 96 456V440C96 424 86.496 410.264 72.888 403.872C73.872 402.648 74.76 401.368 75.552 400H145.136C146.28 404.416 148.344 408.416 151.112 411.872C137.504 418.264 128 432 128 448V464C128 468.424 131.576 472 136 472H216C220.424 472 224 468.424 224 464V448C224 432 214.496 418.264 200.888 411.872C203.656 408.416 205.72 404.416 206.864 400H272C272 407.544 274.728 414.392 279.112 419.872C265.504 426.264 256 440 256 456V472C256 476.424 259.576 480 264 480H344C348.424 480 352 476.424 352 472V456C352 440 342.496 426.264 328.888 419.872ZM48 88C56.824 88 64 95.176 64 104C64 112.824 56.824 120 48 120C39.176 120 32 112.824 32 104C32 95.176 39.176 88 48 88ZM80 168H16V160C16 146.768 26.768 136 40 136H56C69.232 136 80 146.768 80 160V168ZM48 368C56.824 368 64 375.176 64 384C64 392.824 56.824 400 48 400C39.176 400 32 392.824 32 384C32 375.176 39.176 368 48 368ZM80 440V448H16V440C16 426.768 26.768 416 40 416H56C69.232 416 80 426.768 80 440ZM240 304C248.824 304 256 311.176 256 320C256 328.824 248.824 336 240 336C231.176 336 224 328.824 224 320C224 311.176 231.176 304 240 304ZM176 232C184.824 232 192 239.176 192 248C192 256.824 184.824 264 176 264C167.176 264 160 256.824 160 248C160 239.176 167.176 232 176 232ZM168 280H184C197.232 280 208 290.768 208 304V312H144V304C144 290.768 154.768 280 168 280ZM112 160C120.824 160 128 167.176 128 176C128 184.824 120.824 192 112 192C103.176 192 96 184.824 96 176C96 167.176 103.176 160 112 160ZM80 232C80 218.768 90.768 208 104 208H120C133.232 208 144 218.768 144 232V240H80V232ZM48 232C56.824 232 64 239.176 64 248C64 256.824 56.824 264 48 264C39.176 264 32 256.824 32 248C32 239.176 39.176 232 48 232ZM80 312H16V304C16 290.768 26.768 280 40 280H56C69.232 280 80 290.768 80 304V312ZM72.888 267.872C75.656 264.416 77.72 260.416 78.864 256H145.136C146.28 260.416 148.344 264.416 151.112 267.872C140.664 272.776 132.776 282.04 129.624 293.336C124.568 289.976 118.512 288 112 288C105.488 288 99.432 289.976 94.376 293.336C91.224 282.04 83.336 272.776 72.888 267.872ZM128 320C128 328.824 120.824 336 112 336C103.176 336 96 328.824 96 320C96 311.176 103.176 304 112 304C120.824 304 128 311.176 128 320ZM144 384H80V376C80 362.768 90.768 352 104 352H120C133.232 352 144 362.768 144 376V384ZM208 448V456H144V448C144 434.768 154.768 424 168 424H184C197.232 424 208 434.768 208 448ZM160 392C160 383.176 167.176 376 176 376C184.824 376 192 383.176 192 392C192 400.824 184.824 408 176 408C167.176 408 160 400.824 160 392ZM193.624 365.336C188.568 361.976 182.512 360 176 360C169.488 360 163.432 361.976 158.376 365.336C155.224 354.04 147.336 344.776 136.888 339.872C139.656 336.416 141.72 332.416 142.864 328H209.136C210.28 332.416 212.344 336.416 215.112 339.872C204.664 344.776 196.776 354.04 193.624 365.336ZM272 384H208V376C208 362.768 218.768 352 232 352H248C261.232 352 272 362.768 272 376V384ZM304 384C312.824 384 320 391.176 320 400C320 408.824 312.824 416 304 416C295.176 416 288 408.824 288 400C288 391.176 295.176 384 304 384ZM336 464H272V456C272 442.768 282.768 432 296 432H312C325.232 432 336 442.768 336 456V464Z" fill="#FFD231"/>
</svg>
