<svg width="512" height="512" viewBox="0 0 512 512" fill="none" xmlns="http://www.w3.org/2000/svg">
<g clip-path="url(#clip0)">
<path d="M504.513 405.09H492.45V110.087C492.45 97.8166 482.468 87.8335 470.197 87.8335H378.72C374.585 87.8335 371.233 91.1845 371.233 95.3201C371.233 99.4557 374.585 102.807 378.72 102.807H470.197C474.211 102.807 477.477 106.072 477.477 110.087V405.09H35.5213V359.724C35.5213 355.588 32.1693 352.237 28.0347 352.237C23.9001 352.237 20.5482 355.588 20.5482 359.724V405.09H7.48658C3.35199 405.09 0 408.441 0 412.576V421.836C0 441.002 15.594 456.595 34.7607 456.595H477.239C496.406 456.595 512 441.002 512 421.836V412.576C512 408.441 508.648 405.09 504.513 405.09ZM497.027 421.836C497.027 432.746 488.15 441.622 477.239 441.622H34.7607C23.8502 441.622 14.9732 432.745 14.9732 421.836V420.063H497.027V421.836Z" fill="#FFD231"/>
<path d="M28.0349 335.306C32.1695 335.306 35.5215 331.955 35.5215 327.819V110.087C35.5215 106.073 38.7866 102.807 42.8014 102.807H244.946C249.081 102.807 252.433 99.4557 252.433 95.3201C252.433 91.1845 249.081 87.8335 244.946 87.8335H42.8014C30.5314 87.8335 20.5483 97.8166 20.5483 110.087V327.819C20.5483 331.954 23.9003 335.306 28.0349 335.306V335.306Z" fill="#FFD231"/>
<path d="M244.946 132.753C249.081 132.753 252.433 129.402 252.433 125.266C252.433 121.131 249.081 117.78 244.946 117.78H57.9812C53.8466 117.78 50.4946 121.131 50.4946 125.266V382.63C50.4946 386.766 53.8466 390.117 57.9812 390.117H455.017C459.152 390.117 462.504 386.766 462.504 382.63V125.266C462.504 121.131 459.152 117.78 455.017 117.78H378.72C374.586 117.78 371.234 121.131 371.234 125.266C371.234 129.402 374.586 132.753 378.72 132.753H447.531V375.143H410.134C415.482 370.182 419.926 364.12 423.146 357.144C432.533 336.806 429.335 313.583 414.801 296.537L356.26 227.88V206.855C356.26 202.719 352.908 199.369 348.774 199.369C344.639 199.369 341.287 202.719 341.287 206.855V230.638C341.287 232.418 341.922 234.141 343.077 235.496L394.485 295.788L384.279 297.145C364.101 299.83 343.35 297.499 324.271 290.402C313.83 286.518 302.914 283.889 291.827 282.586C287.714 282.113 284.001 285.043 283.518 289.149C283.036 293.255 285.973 296.975 290.08 297.458C299.981 298.621 309.729 300.968 319.051 304.435C334.662 310.241 351.27 313.198 367.901 313.198C374.031 313.198 380.167 312.796 386.254 311.987L405.814 309.384C414.405 321.554 415.902 337.104 409.55 350.868C402.64 365.84 388.103 375.141 371.613 375.141H237.088C257.261 357.696 269.431 332.052 269.431 304.616C269.431 271.302 251.558 240.48 222.699 223.861V179.843L227.384 163.939C228.051 161.674 227.612 159.228 226.199 157.339C224.785 155.449 222.563 154.336 220.203 154.336H188.937C184.803 154.336 181.451 157.687 181.451 161.823C181.451 165.958 184.803 169.309 188.937 169.309H210.192L208.03 176.646C207.828 177.333 207.725 178.046 207.725 178.762V225.141C207.725 229.769 210.231 234.041 214.267 236.292C239.057 250.111 254.457 276.291 254.457 304.616C254.457 306.637 254.372 308.646 254.217 310.64L245.641 313.005C225.546 318.548 203.835 317.295 184.509 309.479C162.434 300.551 137.605 299.02 114.604 305.177L98.243 309.553C98.1402 307.915 98.0783 306.27 98.0783 304.614C98.0783 276.289 113.479 250.108 138.268 236.291C142.304 234.042 144.811 229.77 144.811 225.14V180.476C144.811 179.824 144.726 179.172 144.556 178.542L142.086 169.311H157.031C161.165 169.311 164.517 165.96 164.517 161.825C164.517 157.689 161.165 154.338 157.031 154.338H132.333C130.006 154.338 127.811 155.42 126.395 157.267C124.978 159.113 124.5 161.512 125.101 163.76L129.837 181.462V223.862C100.977 240.482 83.1062 271.303 83.1052 304.617C83.1052 332.095 95.2075 357.735 115.28 375.143H65.4678V132.753H244.946ZM100.628 324.417L118.475 319.643C138.357 314.323 159.816 315.644 178.896 323.362C192.074 328.691 206.204 331.382 220.351 331.382C230.208 331.382 240.075 330.073 249.622 327.442L251.156 327.019C244.909 347.808 230.156 365.497 210.061 375.143H142.305C121.441 365.157 106.36 346.385 100.628 324.417Z" fill="#FFD231"/>
<path d="M267.406 84.5942V227.88L264.064 231.8C261.38 234.946 261.757 239.672 264.903 242.354C266.313 243.556 268.04 244.144 269.757 244.144C271.874 244.144 273.977 243.251 275.457 241.515L280.589 235.497C281.744 234.142 282.379 232.42 282.379 230.639V82.8743C282.379 81.7423 282.122 80.6263 281.629 79.6082L277.153 70.3777H346.514L342.038 79.6082C341.544 80.6273 341.288 81.7433 341.288 82.8743V174.95C341.288 179.086 344.64 182.437 348.775 182.437C352.909 182.437 356.261 179.086 356.261 174.95V84.5942L362.856 70.9926C364.498 67.6067 364.285 63.6837 362.288 60.4954C360.29 57.3072 356.851 55.4036 353.09 55.4036H270.579C266.817 55.4036 263.379 57.3062 261.381 60.4954C259.384 63.6827 259.171 67.6067 260.812 70.9936L267.406 84.5942Z" fill="#FFD231"/>
</g>
<defs>
<clipPath id="clip0">
<rect width="512" height="512" fill="white"/>
</clipPath>
</defs>
</svg>
