<svg width="512" height="512" viewBox="0 0 512 512" fill="none" xmlns="http://www.w3.org/2000/svg">
<path d="M207 200C207 188.954 198.046 180 187 180H107C95.954 180 87 188.954 87 200V235.878H0V275.878H87V310C87 321.046 95.954 330 107 330H187C198.046 330 207 321.046 207 310V275.878H512V235.878H207V200ZM167 290H127V220H167V290Z" fill="#FFD231"/>
<path d="M431 382C431 370.954 422.046 362 411 362H331C319.954 362 311 370.954 311 382V417H0V457H311V492C311 503.046 319.954 512 331 512H411C422.046 512 431 503.046 431 492V457H512V417H431V382ZM391 472H351V402H391V472Z" fill="#FFD231"/>
<path d="M433 56V20C433 8.954 424.046 0 413 0H333C321.954 0 313 8.954 313 20V56H0V96H313V130C313 141.046 321.954 150 333 150H413C424.046 150 433 141.046 433 130V96H512V56H433ZM393 110H353V40H393V110Z" fill="#FFD231"/>
</svg>
