<svg width="300" height="300" viewBox="0 0 300 300" fill="none" xmlns="http://www.w3.org/2000/svg">
<g clip-path="url(#clip0)">
<path d="M266.78 272.289L239.566 14.747C239.566 14.742 239.565 14.736 239.564 14.731L239.563 14.723C239.56 14.694 239.553 14.666 239.55 14.638C239.529 14.464 239.504 14.291 239.469 14.122C239.461 14.085 239.45 14.051 239.441 14.014C239.405 13.856 239.367 13.7 239.318 13.547C239.295 13.474 239.265 13.405 239.24 13.333C239.2 13.221 239.162 13.107 239.115 12.998C239.073 12.9 239.024 12.807 238.977 12.712C238.938 12.634 238.904 12.554 238.862 12.477C238.803 12.37 238.737 12.268 238.672 12.165C238.634 12.105 238.6 12.043 238.56 11.984C238.491 11.882 238.415 11.786 238.34 11.689C238.297 11.633 238.257 11.575 238.212 11.521C238.138 11.432 238.057 11.348 237.978 11.264C237.925 11.208 237.876 11.149 237.821 11.094C237.747 11.021 237.668 10.953 237.59 10.884C237.523 10.824 237.459 10.762 237.39 10.706C237.32 10.649 237.245 10.597 237.172 10.543C237.09 10.482 237.01 10.418 236.924 10.361C236.856 10.316 236.784 10.276 236.715 10.234C236.62 10.176 236.526 10.116 236.428 10.063C236.359 10.026 236.286 9.995 236.215 9.96C236.112 9.91 236.01 9.858 235.904 9.813C235.825 9.78 235.742 9.754 235.661 9.724C235.56 9.687 235.461 9.647 235.358 9.615C235.254 9.583 235.147 9.56 235.041 9.533C234.957 9.512 234.875 9.487 234.79 9.47C234.651 9.442 234.51 9.424 234.368 9.406C234.312 9.399 234.258 9.387 234.201 9.381C234.04 9.365 233.876 9.359 233.712 9.356C233.673 9.355 233.635 9.35 233.595 9.35H233.585C233.581 9.35 233.577 9.35 233.573 9.35H219.095V6C219.095 2.687 216.408 0 213.095 0C209.782 0 207.095 2.687 207.095 6V9.353H197.095V6C197.095 2.687 194.408 0 191.095 0C187.782 0 185.095 2.687 185.095 6V9.353H175.095V6C175.095 2.687 172.408 0 169.095 0C165.782 0 163.095 2.687 163.095 6V9.353H153.095V6C153.095 2.687 150.408 0 147.095 0C143.782 0 141.095 2.687 141.095 6V9.353H131.095V6C131.095 2.687 128.408 0 125.095 0C121.782 0 119.095 2.687 119.095 6V9.353H109.095V6C109.095 2.687 106.408 0 103.095 0C99.782 0 97.095 2.687 97.095 6V9.353H87.095V6C87.095 2.687 84.408 0 81.095 0C77.782 0 75.095 2.687 75.095 6V9.353H65.095V6C65.095 2.687 62.408 0 59.095 0C55.782 0 53.095 2.687 53.095 6V9.353H38.595C35.282 9.353 32.595 12.04 32.595 15.353V274.353C32.595 277.666 35.282 280.353 38.595 280.353H59.477L60.923 294.04C61.249 297.121 63.852 299.41 66.882 299.41C67.093 299.41 67.306 299.399 67.52 299.376L261.441 278.886C263.024 278.719 264.475 277.93 265.476 276.693C266.478 275.455 266.947 273.871 266.78 272.289ZM44.597 21.353H53.097V26.418C53.097 29.731 55.784 32.418 59.097 32.418C62.41 32.418 65.097 29.731 65.097 26.418V21.353H75.097V26.418C75.097 29.731 77.784 32.418 81.097 32.418C84.41 32.418 87.097 29.731 87.097 26.418V21.353H97.097V26.418C97.097 29.731 99.784 32.418 103.097 32.418C106.41 32.418 109.097 29.731 109.097 26.418V21.353H119.097V26.418C119.097 29.731 121.784 32.418 125.097 32.418C128.41 32.418 131.097 29.731 131.097 26.418V21.353H141.097V26.418C141.097 29.731 143.784 32.418 147.097 32.418C150.41 32.418 153.097 29.731 153.097 26.418V21.353H163.097V26.418C163.097 29.731 165.784 32.418 169.097 32.418C172.41 32.418 175.097 29.731 175.097 26.418V21.353H185.097V26.418C185.097 29.731 187.784 32.418 191.097 32.418C194.41 32.418 197.097 29.731 197.097 26.418V21.353H207.097V26.418C207.097 29.731 209.784 32.418 213.097 32.418C216.41 32.418 219.097 29.731 219.097 26.418V21.353H227.597V268.353H44.597V21.353V21.353ZM133.356 280.353L72.228 286.812L71.546 280.353H133.356ZM239.597 269.127V129.235L254.216 267.582L239.597 269.127Z" fill="#FFD231"/>
</g>
<defs>
<clipPath id="clip0">
<rect width="299.41" height="299.41" fill="white"/>
</clipPath>
</defs>
</svg>
