<svg width="480" height="480" viewBox="0 0 480 480" fill="none" xmlns="http://www.w3.org/2000/svg">
<g clip-path="url(#clip0)">
<path d="M329.624 66.3352C328.184 64.7392 326.099 63.8802 323.952 63.9992L291.952 64.1032C287.534 64.1032 283.952 67.6852 283.952 72.1032V325.423C268.227 332.862 256.852 347.185 253.168 364.187C246.619 394.414 265.813 424.226 296.04 430.775C299.932 431.585 303.897 431.995 307.872 431.999C329.486 432.007 349.174 419.576 358.46 400.059C371.748 372.131 359.88 338.719 331.952 325.431V71.9992C331.958 69.8772 331.121 67.8402 329.624 66.3352ZM339.058 350.879C352.935 368.022 350.287 393.169 333.144 407.047C323.663 414.712 311.221 417.671 299.304 415.095C285.853 412.112 274.883 402.416 270.272 389.432C262.878 368.615 273.759 345.745 294.576 338.351C297.792 337.234 299.95 334.204 299.952 330.799V80.0792L315.952 79.9992V330.799C315.953 334.202 318.107 337.231 321.32 338.351C328.277 340.809 334.417 345.145 339.058 350.879Z" fill="#FFD231"/>
<path d="M363.952 288.312V256.176H347.952V292.8C347.952 295.658 349.477 298.299 351.952 299.728C365.33 307.452 376.439 318.561 384.162 331.938C408.463 374.028 394.042 427.848 351.952 452.148C309.862 476.449 256.042 462.028 231.742 419.938C207.441 377.848 221.862 324.028 263.952 299.728C266.427 298.299 267.952 295.658 267.952 292.8V56C267.978 33.92 285.872 16.026 307.952 16C330.027 16.04 347.912 33.925 347.952 56V80H363.952V56C363.917 25.087 338.865 0.035 307.952 0C277.039 0.035 251.987 25.087 251.952 56V288.312C221.976 307.427 203.842 340.53 203.87 376.082C203.916 433.52 250.515 480.045 307.952 480C343.504 480.028 376.607 461.894 395.722 431.918C426.605 383.489 412.381 319.195 363.952 288.312Z" fill="#FFD231"/>
<path d="M155.952 56C155.952 42.745 145.207 32 131.952 32C118.697 32 107.952 42.745 107.952 56C107.952 69.255 118.697 80 131.952 80C145.207 80 155.952 69.255 155.952 56ZM131.952 64C127.534 64 123.952 60.418 123.952 56C123.952 51.582 127.534 48 131.952 48C136.37 48 139.952 51.582 139.952 56C139.952 60.418 136.371 64 131.952 64Z" fill="#FFD231"/>
<path d="M243.952 88C243.952 39.399 204.553 0 155.952 0C107.351 0 67.952 39.399 67.952 88C67.952 136.601 107.351 176 155.952 176C204.53 175.943 243.895 136.577 243.952 88ZM155.952 160C116.187 160 83.952 127.764 83.952 88C83.952 48.235 116.187 16 155.952 16C195.696 16.048 227.904 48.256 227.952 88C227.952 127.764 195.717 160 155.952 160Z" fill="#FFD231"/>
<path d="M191.952 124.8C184.54 129.067 175.417 129.067 168.005 124.8C156.517 118.187 152.566 103.514 159.178 92.027C165.791 80.54 180.464 76.588 191.951 83.2C195.779 85.409 200.674 84.096 202.883 80.268C205.092 76.44 203.779 71.545 199.951 69.336C193.891 65.847 187.023 64.007 180.031 64C157.94 63.978 140.013 81.869 139.991 103.96C139.969 126.051 157.86 143.978 179.951 144C186.972 144.008 193.87 142.165 199.951 138.656C199.982 138.639 200.012 138.621 200.043 138.603C203.855 136.369 205.133 131.467 202.899 127.656C200.665 123.844 195.764 122.566 191.952 124.8Z" fill="#FFD231"/>
<path d="M379.952 96H347.952V112H379.952V96Z" fill="#FFD231"/>
<path d="M379.952 128H347.952V144H379.952V128Z" fill="#FFD231"/>
<path d="M379.952 160H347.952V176H379.952V160Z" fill="#FFD231"/>
<path d="M379.952 192H347.952V208H379.952V192Z" fill="#FFD231"/>
<path d="M379.952 224H347.952V240H379.952V224Z" fill="#FFD231"/>
</g>
<defs>
<clipPath id="clip0">
<rect width="480" height="480" fill="white"/>
</clipPath>
</defs>
</svg>
