<svg width="512" height="512" viewBox="0 0 512 512" fill="none" xmlns="http://www.w3.org/2000/svg">
<g clip-path="url(#clip0)">
<path d="M46.918 302.917C46.918 418.205 140.712 511.999 256 511.999C371.288 511.999 465.081 418.206 465.081 302.917C465.081 197.181 386.182 109.539 284.168 95.74V56.336H298.352C307.44 56.336 314.833 48.942 314.833 39.854V16.482C314.833 7.394 307.439 0 298.352 0H273.5C269.357 0 266 3.358 266 7.5C266 11.642 269.357 15 273.5 15H298.352C299.168 15 299.833 15.665 299.833 16.482V39.855C299.833 40.672 299.168 41.337 298.352 41.337C291.703 41.337 228.073 41.337 213.649 41.337C212.832 41.337 212.167 40.672 212.167 39.855V16.482C212.167 15.665 212.832 15 213.649 15H238.5C242.643 15 246 11.642 246 7.5C246 3.358 242.643 0 238.5 0H213.648C204.559 0 197.166 7.394 197.166 16.482V39.855C197.166 48.943 204.56 56.337 213.648 56.337H227.831V95.74C209.265 98.251 191.461 103.197 174.762 110.264L158.05 81.318C153.692 73.771 144.006 71.174 136.457 75.532L115.047 87.893C107.481 92.261 104.892 101.919 109.261 109.486L126.319 139.031C77.98 177.361 46.918 236.577 46.918 302.917V302.917ZM242.831 56.336H269.168V94.245C260.717 93.721 251.623 93.699 242.831 94.245V56.336ZM122.251 101.986C122.028 101.601 122.155 101.11 122.547 100.883L143.956 88.522C144.342 88.299 144.838 88.433 145.06 88.817L161.091 116.585C153.272 120.576 145.692 125.067 138.432 130.01L122.251 101.986ZM242.805 109.294C251.604 108.706 260.508 108.708 269.306 109.301C370.139 116.162 450.081 200.374 450.081 302.918C450.081 409.935 363.017 497 256 497C148.982 497 61.918 409.936 61.918 302.918C61.918 200.336 141.918 116.101 242.805 109.294V109.294Z" fill="#FFD231"/>
<path d="M255.999 472C349.231 472 425.081 396.15 425.081 302.919C425.081 209.504 349.018 133.838 256 133.838H255.999C162.768 133.838 86.918 209.688 86.918 302.919C86.918 396.15 162.768 472 255.999 472ZM118.988 232.475L124.946 235.915C128.529 237.985 133.119 236.76 135.191 233.17C137.262 229.583 136.033 224.996 132.446 222.925L126.51 219.498C138.421 201.073 154.154 185.341 172.578 173.43L176.005 179.365C178.077 182.952 182.662 184.182 186.25 182.11C189.837 180.039 191.066 175.452 188.995 171.865L185.556 165.908C204.586 156.084 225.912 150.111 248.499 149.023V200.051C248.499 204.193 251.856 207.551 255.999 207.551C260.142 207.551 263.499 204.193 263.499 200.051C263.499 189.753 263.499 159.213 263.499 149.023C285.185 150.042 306.761 155.767 326.439 165.913L323.002 171.865C320.931 175.452 322.16 180.039 325.747 182.11C329.339 184.183 333.924 182.948 335.992 179.365L339.415 173.435C357.36 185.028 373.216 200.545 385.481 219.501L379.551 222.925C375.964 224.996 374.735 229.583 376.806 233.17C378.88 236.762 383.469 237.984 387.051 235.915L393.003 232.478C403.522 252.845 408.957 274.633 409.893 295.418C403.155 295.418 397.694 295.418 390.838 295.418C387.886 286.895 379.454 280.418 369.623 280.418H290.182C283.984 271.007 274.345 264.664 263.497 262.664V235.051C263.497 230.909 260.14 227.551 255.997 227.551C251.854 227.551 248.497 230.909 248.497 235.051V262.682C237.383 264.749 227.835 271.315 221.822 280.418H199.123C186.717 280.418 176.623 290.511 176.623 302.918C176.623 315.325 186.717 325.418 199.123 325.418H221.821C229.152 336.515 241.73 343.856 255.997 343.856C270.264 343.856 282.842 336.516 290.173 325.418H369.623C379.4 325.418 387.737 319.147 390.833 310.418H409.893C408.805 333.005 402.831 354.331 393.008 373.361L387.051 369.922C383.463 367.849 378.876 369.08 376.806 372.667C374.735 376.254 375.964 380.841 379.551 382.912L385.486 386.338C373.575 404.763 357.842 420.495 339.418 432.406L335.992 426.472C333.921 422.885 329.335 421.656 325.747 423.726C322.16 425.797 320.931 430.384 323.002 433.971L326.441 439.928C307.411 449.752 286.085 455.726 263.498 456.814V449.916C263.498 445.774 260.141 442.416 255.998 442.416C251.855 442.416 248.498 445.774 248.498 449.916V456.814C225.911 455.726 204.585 449.753 185.555 439.929L188.994 433.972C191.065 430.385 189.836 425.798 186.249 423.727C182.661 421.654 178.074 422.884 176.004 426.472L172.577 432.407C154.152 420.496 138.42 404.764 126.509 386.339L132.445 382.912C136.032 380.841 137.261 376.254 135.19 372.667C133.12 369.079 128.531 367.85 124.945 369.922L118.987 373.362C109.163 354.332 103.189 333.006 102.101 310.419H109C113.143 310.419 116.5 307.061 116.5 302.919C116.5 298.777 113.143 295.419 109 295.419H102.101C103.191 272.831 109.165 251.505 118.988 232.475V232.475ZM296.251 295.418H369.626C373.762 295.418 377.126 298.782 377.126 302.918C377.126 307.054 373.762 310.418 369.626 310.418H296.251C297.157 305.561 297.144 300.218 296.251 295.418ZM279.151 314.591C274.871 323.044 266.104 328.856 256 328.856C241.561 328.856 230.062 317.053 230.062 302.918C230.062 288.696 241.636 276.981 256 276.981C274.562 276.981 287.793 296.229 279.151 314.591ZM215.748 310.418H199.126C194.99 310.418 191.626 307.054 191.626 302.918C191.626 298.782 194.99 295.418 199.126 295.418H215.748C214.816 300.434 214.879 305.753 215.748 310.418V310.418Z" fill="#FFD231"/>
</g>
<defs>
<clipPath id="clip0">
<rect width="512" height="512" fill="white"/>
</clipPath>
</defs>
</svg>
