<svg width="952" height="952" viewBox="0 0 952 952" fill="none" xmlns="http://www.w3.org/2000/svg">
<circle cx="476.096" cy="476.059" r="459.598" fill="white" stroke="#246B6D" stroke-width="31"/>
<path d="M633.372 423.32L621.91 435.849L674.039 483.636C686.31 494.926 693.306 510.834 693.31 527.505V735.585H710.31V527.505C710.289 506.064 701.296 485.617 685.507 471.105L633.372 423.32Z" fill="#246B6D" stroke="#246B6D" stroke-width="6"/>
<path d="M565.811 225.586H344.811C321.351 225.616 302.34 244.626 302.311 268.086V693.086C302.34 716.546 321.351 735.556 344.811 735.586H557.311V720.379C557.27 682.089 568.605 644.64 589.883 612.803C592.135 609.429 591.682 604.939 588.82 602.076L529.32 542.576C523.821 537.071 520.905 529.499 521.29 521.728C521.676 513.953 525.329 506.711 531.343 501.776C542.926 492.922 559.308 494.186 569.398 504.707L653.301 588.612L665.32 576.593L608.311 519.567V268.086C608.281 244.626 589.271 225.616 565.811 225.586ZM591.311 502.567L581.417 492.673C565.109 476.013 538.883 474.277 520.523 488.648C510.811 496.63 504.919 508.347 504.305 520.908C503.693 533.467 508.41 545.7 517.301 554.595L571.956 609.253C551.573 642.099 540.642 679.932 540.37 718.586H344.811C330.73 718.586 319.311 707.166 319.311 693.086V667.586H531.811V650.586H319.311V293.586H591.311V502.567ZM591.311 276.586H319.311V268.086C319.311 254.006 330.73 242.586 344.811 242.586H565.811C579.891 242.586 591.311 254.006 591.311 268.086V276.586Z" fill="#246B6D" stroke="#246B6D" stroke-width="6"/>
<path d="M353.311 378.586H387.311C396.701 378.586 404.311 370.976 404.311 361.586V327.586C404.311 318.196 396.701 310.586 387.311 310.586H353.311C343.92 310.586 336.311 318.196 336.311 327.586V361.586C336.311 370.976 343.92 378.586 353.311 378.586ZM353.311 327.586H387.311V361.586H353.311V327.586Z" fill="#246B6D" stroke="#246B6D" stroke-width="6"/>
<path d="M438.311 378.586H472.311C481.701 378.586 489.311 370.976 489.311 361.586V327.586C489.311 318.196 481.701 310.586 472.311 310.586H438.311C428.92 310.586 421.311 318.196 421.311 327.586V361.586C421.311 370.976 428.92 378.586 438.311 378.586ZM438.311 327.586H472.311V361.586H438.311V327.586Z" fill="#246B6D" stroke="#246B6D" stroke-width="6"/>
<path d="M523.311 378.586H557.311C566.701 378.586 574.311 370.976 574.311 361.586V327.586C574.311 318.196 566.701 310.586 557.311 310.586H523.311C513.92 310.586 506.311 318.196 506.311 327.586V361.586C506.311 370.976 513.92 378.586 523.311 378.586ZM523.311 327.586H557.311V361.586H523.311V327.586Z" fill="#246B6D" stroke="#246B6D" stroke-width="6"/>
<path d="M353.311 463.586H387.311C396.701 463.586 404.311 455.976 404.311 446.586V412.586C404.311 403.196 396.701 395.586 387.311 395.586H353.311C343.92 395.586 336.311 403.196 336.311 412.586V446.586C336.311 455.976 343.92 463.586 353.311 463.586ZM353.311 412.586H387.311V446.586H353.311V412.586Z" fill="#246B6D" stroke="#246B6D" stroke-width="6"/>
<path d="M353.311 548.586H387.311C396.701 548.586 404.311 540.976 404.311 531.586V497.586C404.311 488.196 396.701 480.586 387.311 480.586H353.311C343.92 480.586 336.311 488.196 336.311 497.586V531.586C336.311 540.976 343.92 548.586 353.311 548.586ZM353.311 497.586H387.311V531.586H353.311V497.586Z" fill="#246B6D" stroke="#246B6D" stroke-width="6"/>
<path d="M438.311 463.586H472.311C481.701 463.586 489.311 455.976 489.311 446.586V412.586C489.311 403.196 481.701 395.586 472.311 395.586H438.311C428.92 395.586 421.311 403.196 421.311 412.586V446.586C421.311 455.976 428.92 463.586 438.311 463.586ZM438.311 412.586H472.311V446.586H438.311V412.586Z" fill="#246B6D" stroke="#246B6D" stroke-width="6"/>
<path d="M523.311 463.586H557.311C566.701 463.586 574.311 455.976 574.311 446.586V412.586C574.311 403.196 566.701 395.586 557.311 395.586H523.311C513.92 395.586 506.311 403.196 506.311 412.586V446.586C506.311 455.976 513.92 463.586 523.311 463.586ZM523.311 412.586H557.311V446.586H523.311V412.586Z" fill="#246B6D" stroke="#246B6D" stroke-width="6"/>
<path d="M438.311 548.586H472.311C481.701 548.586 489.311 540.976 489.311 531.586V497.586C489.311 488.196 481.701 480.586 472.311 480.586H438.311C428.92 480.586 421.311 488.196 421.311 497.586V531.586C421.311 540.976 428.92 548.586 438.311 548.586ZM438.311 497.586H472.311V531.586H438.311V497.586Z" fill="#246B6D" stroke="#246B6D" stroke-width="6"/>
<path d="M353.311 633.586H387.311C396.701 633.586 404.311 625.976 404.311 616.586V582.586C404.311 573.196 396.701 565.586 387.311 565.586H353.311C343.92 565.586 336.311 573.196 336.311 582.586V616.586C336.311 625.976 343.92 633.586 353.311 633.586ZM353.311 582.586H387.311V616.586H353.311V582.586Z" fill="#246B6D" stroke="#246B6D" stroke-width="6"/>
<path d="M438.311 633.586H472.311C481.701 633.586 489.311 625.976 489.311 616.586V582.586C489.311 573.196 481.701 565.586 472.311 565.586H438.311C428.92 565.586 421.311 573.196 421.311 582.586V616.586C421.311 625.976 428.92 633.586 438.311 633.586ZM438.311 582.586H472.311V616.586H438.311V582.586Z" fill="#246B6D" stroke="#246B6D" stroke-width="6"/>
<path d="M446.811 684.586H463.811V701.586H446.811V684.586Z" fill="#246B6D" stroke="#246B6D" stroke-width="6"/>
</svg>
