<svg width="952" height="952" viewBox="0 0 952 952" fill="none" xmlns="http://www.w3.org/2000/svg">
<circle cx="475.952" cy="476.075" r="459.598" fill="white" stroke="#246B6D" stroke-width="31"/>
<path d="M423.486 641.77L406.002 700.074H387.951V716.074H563.951V700.074H545.912L540.439 681.777L525.111 686.371L529.209 700.074H422.705L438.814 646.379L423.486 641.77Z" fill="#246B6D"/>
<path d="M675.952 572.073H665.616C677.409 511.398 644.343 450.925 586.898 428.109C529.453 405.296 463.906 426.601 430.855 478.831C397.805 531.062 406.617 599.421 451.828 641.565C497.043 683.709 565.851 687.702 615.632 651.065L673.331 708.76C680.472 715.901 691.21 718.037 700.542 714.174C709.87 710.307 715.952 701.205 715.952 691.104C715.971 684.479 713.339 678.12 708.639 673.448L649.608 614.417L648.585 615.44C653.952 606.862 658.276 597.675 661.464 588.073H699.952V604.073C699.952 612.909 692.788 620.073 683.952 620.073V636.073C701.628 636.073 715.952 621.745 715.952 604.073V332.074C715.952 314.402 701.628 300.074 683.952 300.074V316.074C692.788 316.074 699.952 323.238 699.952 332.074V572.073H675.952ZM697.331 684.76C699.897 687.327 700.663 691.186 699.276 694.538C697.886 697.889 694.612 700.077 690.983 700.073C688.608 700.065 686.331 699.12 684.64 697.448L627.952 640.768C632.308 636.651 636.366 632.229 640.105 627.546L697.331 684.76ZM539.953 660.073C478.097 660.073 427.953 609.928 427.953 548.073C427.953 486.218 478.097 436.074 539.953 436.074C601.808 436.074 651.952 486.218 651.952 548.073C651.886 609.901 601.78 660.006 539.953 660.073Z" fill="#246B6D"/>
<path d="M267.951 636.073H403.951V620.073H267.951C259.115 620.073 251.951 612.909 251.951 604.073V588.073H395.951V572.073H251.951V332.074C251.951 323.238 259.115 316.074 267.951 316.074V300.074C250.279 300.074 235.951 314.402 235.951 332.074V604.073C235.951 621.745 250.279 636.073 267.951 636.073Z" fill="#246B6D"/>
<path d="M299.951 268.074C299.951 259.238 307.115 252.074 315.951 252.074H571.95V284.074H507.95C505.829 284.074 503.794 284.918 502.294 286.418L342.295 446.417C339.174 449.542 339.174 454.605 342.295 457.73L390.294 505.729L401.607 494.417L359.263 452.073L511.263 300.074H572.751C575.391 312.808 584.036 323.468 595.95 328.683V384.761L574.294 406.417L585.606 417.73L609.606 393.73C611.106 392.23 611.95 390.195 611.95 388.074V332.074H651.95V460.073H667.95V324.074C667.95 323.906 667.864 323.754 667.856 323.586C667.809 322.879 667.668 322.179 667.438 321.507C667.352 321.25 667.286 321.011 667.176 320.761C666.786 319.89 666.243 319.097 665.575 318.418L585.575 238.418C584.899 237.75 584.11 237.211 583.247 236.816C582.985 236.711 582.72 236.617 582.446 236.539C581.805 236.32 581.137 236.187 580.462 236.137C580.302 236.172 580.134 236.074 579.95 236.074H315.951C298.279 236.074 283.951 250.402 283.951 268.074V556.073H299.951V268.074ZM640.637 316.074H611.95C598.696 316.074 587.95 305.328 587.95 292.074V263.387L640.637 316.074Z" fill="#246B6D"/>
<path d="M315.951 268.074H331.951V284.074H315.951V268.074Z" fill="#246B6D"/>
<path d="M347.951 268.074H363.951V284.074H347.951V268.074Z" fill="#246B6D"/>
<path d="M379.951 268.074H395.951V284.074H379.951V268.074Z" fill="#246B6D"/>
<path d="M579.951 332.074C579.951 340.91 572.787 348.074 563.951 348.074C555.115 348.074 547.951 340.91 547.951 332.074C547.951 323.238 555.115 316.074 563.951 316.074C572.787 316.074 579.951 323.238 579.951 332.074Z" fill="#246B6D"/>
<path d="M390.295 449.73L401.607 438.418L425.611 462.418L414.295 473.73L390.295 449.73Z" fill="#246B6D"/>
<path d="M414.295 425.734L425.607 414.418L449.611 438.422L438.295 449.734L414.295 425.734Z" fill="#246B6D"/>
<path d="M525.149 370.876L532.11 405.641L547.79 402.508L539.79 362.508C539.157 359.344 536.685 356.868 533.52 356.235L493.52 348.235C490.903 347.708 488.2 348.528 486.317 350.419L462.317 374.419C460.438 376.305 459.618 379.005 460.134 381.618L468.134 421.618L483.813 418.481L476.665 382.684L494.606 364.731L525.149 370.876Z" fill="#246B6D"/>
<path d="M315.951 316.074H395.951V332.074H315.951V316.074Z" fill="#246B6D"/>
<path d="M315.951 348.074H395.951V364.074H315.951V348.074Z" fill="#246B6D"/>
<path d="M315.951 380.074H363.951V396.074H315.951V380.074Z" fill="#246B6D"/>
<path d="M315.951 508.074H371.951V524.074H315.951V508.074Z" fill="#246B6D"/>
<path d="M315.951 540.074H395.951V556.074H315.951V540.074Z" fill="#246B6D"/>
<path d="M635.951 548.074C635.951 495.055 592.971 452.074 539.951 452.074C486.932 452.074 443.951 495.055 443.951 548.074C443.951 601.094 486.932 644.074 539.951 644.074C592.971 644.074 635.951 601.094 635.951 548.074ZM507.951 548.074C507.951 530.402 522.279 516.074 539.951 516.074C557.627 516.074 571.951 530.402 571.951 548.074C571.951 565.746 557.627 580.074 539.951 580.074C522.279 580.074 507.951 565.746 507.951 548.074ZM498.646 572.402C484.904 567.145 472.537 558.824 462.486 548.074C472.537 537.324 484.904 529.004 498.646 523.746C489.721 538.734 489.721 557.414 498.646 572.402ZM581.256 523.746C594.998 529.004 607.365 537.324 617.416 548.074C607.365 558.824 594.998 567.145 581.256 572.402C590.186 557.414 590.186 538.734 581.256 523.746V523.746ZM539.951 468.074C575.529 468.117 606.814 491.633 616.752 525.793C596.143 509.855 570.975 500.934 544.928 500.332C541.635 499.988 538.318 499.988 535.025 500.332C508.963 500.922 483.775 509.848 463.15 525.793C473.088 491.633 504.373 468.117 539.951 468.074V468.074ZM539.951 628.074C504.373 628.031 473.088 604.516 463.15 570.355C483.76 586.293 508.932 595.215 534.975 595.816C538.268 596.16 541.588 596.16 544.881 595.816C570.943 595.227 596.131 586.301 616.752 570.355C606.814 604.516 575.529 628.031 539.951 628.074Z" fill="#246B6D"/>
<path d="M555.951 548.074C555.951 556.91 548.787 564.074 539.951 564.074C531.115 564.074 523.951 556.91 523.951 548.074C523.951 539.238 531.115 532.074 539.951 532.074C548.787 532.074 555.951 539.238 555.951 548.074Z" fill="#246B6D"/>
</svg>
