<svg width="959" height="959" viewBox="0 0 959 959" fill="none" xmlns="http://www.w3.org/2000/svg">
<g filter="url(#filter0_d)">
<circle cx="479.879" cy="475.508" r="459.598" fill="white" stroke="#246B6D" stroke-width="31"/>
<path d="M696.767 287.38C701.151 281.9 703.879 275.052 703.879 267.508C703.879 249.86 689.527 235.508 671.879 235.508C654.231 235.508 639.879 249.86 639.879 267.508C639.879 275.052 642.607 281.9 646.991 287.38C633.383 293.772 623.879 307.508 623.879 323.508V339.508C623.879 343.932 627.455 347.508 631.879 347.508H711.879C716.303 347.508 719.879 343.932 719.879 339.508V323.508C719.879 307.508 710.375 293.772 696.767 287.38ZM671.879 251.508C680.703 251.508 687.879 258.684 687.879 267.508C687.879 276.332 680.703 283.508 671.879 283.508C663.055 283.508 655.879 276.332 655.879 267.508C655.879 258.684 663.055 251.508 671.879 251.508ZM703.879 331.508H639.879V323.508C639.879 310.276 650.647 299.508 663.879 299.508H679.879C693.111 299.508 703.879 310.276 703.879 323.508V331.508Z" fill="#246B6D"/>
<path d="M632.767 479.38C637.151 473.9 639.879 467.052 639.879 459.508C639.879 441.86 625.527 427.508 607.879 427.508C601.367 427.508 595.311 429.484 590.255 432.844C587.103 421.548 579.215 412.284 568.767 407.38C573.151 401.9 575.879 395.052 575.879 387.508C575.879 369.86 561.527 355.508 543.879 355.508C537.367 355.508 531.311 357.484 526.255 360.844C523.103 349.548 515.215 340.284 504.767 335.38C509.151 329.9 511.879 323.052 511.879 315.508C511.879 297.86 497.527 283.508 479.879 283.508C462.231 283.508 447.879 297.86 447.879 315.508C447.879 323.052 450.607 329.9 454.991 335.38C441.383 341.772 431.879 355.508 431.879 371.508V387.508C431.879 391.932 435.455 395.508 439.879 395.508H513.015C514.159 399.924 516.223 403.924 518.991 407.38C505.383 413.772 495.879 427.508 495.879 443.508V459.508C495.879 463.932 499.455 467.508 503.879 467.508H577.015C578.159 471.924 580.223 475.924 582.991 479.38C569.383 485.772 559.879 499.508 559.879 515.508V531.508C559.879 535.932 563.455 539.508 567.879 539.508H647.879C652.303 539.508 655.879 535.932 655.879 531.508V515.508C655.879 499.508 646.375 485.772 632.767 479.38ZM479.879 299.508C488.703 299.508 495.879 306.684 495.879 315.508C495.879 324.332 488.703 331.508 479.879 331.508C471.055 331.508 463.879 324.332 463.879 315.508C463.879 306.684 471.055 299.508 479.879 299.508ZM511.879 379.508H447.879V371.508C447.879 358.276 458.647 347.508 471.879 347.508H487.879C501.111 347.508 511.879 358.276 511.879 371.508V379.508ZM543.879 371.508C552.703 371.508 559.879 378.684 559.879 387.508C559.879 396.332 552.703 403.508 543.879 403.508C535.055 403.508 527.879 396.332 527.879 387.508C527.879 378.684 535.055 371.508 543.879 371.508ZM575.879 451.508H511.879V443.508C511.879 430.276 522.647 419.508 535.879 419.508H551.879C565.111 419.508 575.879 430.276 575.879 443.508V451.508ZM607.879 443.508C616.703 443.508 623.879 450.684 623.879 459.508C623.879 468.332 616.703 475.508 607.879 475.508C599.055 475.508 591.879 468.332 591.879 459.508C591.879 450.684 599.055 443.508 607.879 443.508ZM639.879 523.508H575.879V515.508C575.879 502.276 586.647 491.508 599.879 491.508H615.879C629.111 491.508 639.879 502.276 639.879 515.508V523.508Z" fill="#246B6D"/>
<path d="M602.212 341.827L586.215 357.824L597.528 369.138L613.526 353.14L602.212 341.827Z" fill="#246B6D"/>
<path d="M671.879 395.508H655.879V419.508H671.879V395.508Z" fill="#246B6D"/>
<path d="M559.879 283.508H535.879V299.508H559.879V283.508Z" fill="#246B6D"/>
<path d="M474.212 469.854L458.215 485.852L469.528 497.165L485.526 481.168L474.212 469.854Z" fill="#246B6D"/>
<path d="M543.879 523.508H527.879V547.508H543.879V523.508Z" fill="#246B6D"/>
<path d="M431.879 411.508H407.879V427.508H431.879V411.508Z" fill="#246B6D"/>
<path d="M568.767 655.38C573.151 649.9 575.879 643.052 575.879 635.508C575.879 617.86 561.527 603.508 543.879 603.508C537.887 603.508 532.335 605.268 527.535 608.14C526.295 593.604 517.391 581.308 504.759 575.38C509.151 569.9 511.879 563.052 511.879 555.508C511.879 537.86 497.527 523.508 479.879 523.508C473.367 523.508 467.311 525.484 462.255 528.844C459.103 517.548 451.215 508.284 440.767 503.38C445.151 497.9 447.879 491.052 447.879 483.508C447.879 465.86 433.527 451.508 415.879 451.508C409.367 451.508 403.311 453.484 398.255 456.844C395.103 445.548 387.215 436.284 376.767 431.38C381.151 425.9 383.879 419.052 383.879 411.508C383.879 393.86 369.527 379.508 351.879 379.508C345.367 379.508 339.311 381.484 334.255 384.844C331.103 373.548 323.215 364.284 312.767 359.38C317.151 353.9 319.879 347.052 319.879 339.508C319.879 321.86 305.527 307.508 287.879 307.508C270.231 307.508 255.879 321.86 255.879 339.508C255.879 347.052 258.607 353.9 262.991 359.38C249.383 365.772 239.879 379.508 239.879 395.508V411.508C239.879 415.932 243.455 419.508 247.879 419.508H321.015C322.159 423.924 324.223 427.924 326.991 431.38C316.543 436.284 308.655 445.548 305.503 456.844C300.447 453.484 294.391 451.508 287.879 451.508C270.231 451.508 255.879 465.86 255.879 483.508C255.879 491.052 258.607 497.9 262.991 503.38C249.383 509.772 239.879 523.508 239.879 539.508V555.508C239.879 559.932 243.455 563.508 247.879 563.508H321.015C322.159 567.924 324.223 571.924 326.991 575.38C318.535 579.356 311.719 586.164 307.751 594.62C302.271 590.236 295.423 587.508 287.879 587.508C270.231 587.508 255.879 601.86 255.879 619.508C255.879 627.052 258.607 633.9 262.991 639.38C249.383 645.772 239.879 659.508 239.879 675.508V691.508C239.879 695.932 243.455 699.508 247.879 699.508H327.879C332.303 699.508 335.879 695.932 335.879 691.508V675.508C335.879 659.508 326.375 645.772 312.767 639.38C313.751 638.156 314.639 636.876 315.431 635.508H385.015C386.159 639.924 388.223 643.924 390.991 647.38C377.383 653.772 367.879 667.508 367.879 683.508V699.508C367.879 703.932 371.455 707.508 375.879 707.508H455.879C460.303 707.508 463.879 703.932 463.879 699.508V683.508C463.879 667.508 454.375 653.772 440.767 647.38C443.535 643.924 445.599 639.924 446.743 635.508H511.879C511.879 643.052 514.607 649.9 518.991 655.38C505.383 661.772 495.879 675.508 495.879 691.508V707.508C495.879 711.932 499.455 715.508 503.879 715.508H583.879C588.303 715.508 591.879 711.932 591.879 707.508V691.508C591.879 675.508 582.375 661.772 568.767 655.38ZM287.879 323.508C296.703 323.508 303.879 330.684 303.879 339.508C303.879 348.332 296.703 355.508 287.879 355.508C279.055 355.508 271.879 348.332 271.879 339.508C271.879 330.684 279.055 323.508 287.879 323.508ZM319.879 403.508H255.879V395.508C255.879 382.276 266.647 371.508 279.879 371.508H295.879C309.111 371.508 319.879 382.276 319.879 395.508V403.508ZM287.879 603.508C296.703 603.508 303.879 610.684 303.879 619.508C303.879 628.332 296.703 635.508 287.879 635.508C279.055 635.508 271.879 628.332 271.879 619.508C271.879 610.684 279.055 603.508 287.879 603.508ZM319.879 675.508V683.508H255.879V675.508C255.879 662.276 266.647 651.508 279.879 651.508H295.879C309.111 651.508 319.879 662.276 319.879 675.508ZM479.879 539.508C488.703 539.508 495.879 546.684 495.879 555.508C495.879 564.332 488.703 571.508 479.879 571.508C471.055 571.508 463.879 564.332 463.879 555.508C463.879 546.684 471.055 539.508 479.879 539.508ZM415.879 467.508C424.703 467.508 431.879 474.684 431.879 483.508C431.879 492.332 424.703 499.508 415.879 499.508C407.055 499.508 399.879 492.332 399.879 483.508C399.879 474.684 407.055 467.508 415.879 467.508ZM407.879 515.508H423.879C437.111 515.508 447.879 526.276 447.879 539.508V547.508H383.879V539.508C383.879 526.276 394.647 515.508 407.879 515.508ZM351.879 395.508C360.703 395.508 367.879 402.684 367.879 411.508C367.879 420.332 360.703 427.508 351.879 427.508C343.055 427.508 335.879 420.332 335.879 411.508C335.879 402.684 343.055 395.508 351.879 395.508ZM319.879 467.508C319.879 454.276 330.647 443.508 343.879 443.508H359.879C373.111 443.508 383.879 454.276 383.879 467.508V475.508H319.879V467.508ZM287.879 467.508C296.703 467.508 303.879 474.684 303.879 483.508C303.879 492.332 296.703 499.508 287.879 499.508C279.055 499.508 271.879 492.332 271.879 483.508C271.879 474.684 279.055 467.508 287.879 467.508ZM319.879 547.508H255.879V539.508C255.879 526.276 266.647 515.508 279.879 515.508H295.879C309.111 515.508 319.879 526.276 319.879 539.508V547.508ZM312.767 503.38C315.535 499.924 317.599 495.924 318.743 491.508H385.015C386.159 495.924 388.223 499.924 390.991 503.38C380.543 508.284 372.655 517.548 369.503 528.844C364.447 525.484 358.391 523.508 351.879 523.508C345.367 523.508 339.311 525.484 334.255 528.844C331.103 517.548 323.215 508.284 312.767 503.38ZM367.879 555.508C367.879 564.332 360.703 571.508 351.879 571.508C343.055 571.508 335.879 564.332 335.879 555.508C335.879 546.684 343.055 539.508 351.879 539.508C360.703 539.508 367.879 546.684 367.879 555.508ZM383.879 619.508H319.879V611.508C319.879 598.276 330.647 587.508 343.879 587.508H359.879C373.111 587.508 383.879 598.276 383.879 611.508V619.508ZM447.879 683.508V691.508H383.879V683.508C383.879 670.276 394.647 659.508 407.879 659.508H423.879C437.111 659.508 447.879 670.276 447.879 683.508ZM399.879 627.508C399.879 618.684 407.055 611.508 415.879 611.508C424.703 611.508 431.879 618.684 431.879 627.508C431.879 636.332 424.703 643.508 415.879 643.508C407.055 643.508 399.879 636.332 399.879 627.508ZM433.503 600.844C428.447 597.484 422.391 595.508 415.879 595.508C409.367 595.508 403.311 597.484 398.255 600.844C395.103 589.548 387.215 580.284 376.767 575.38C379.535 571.924 381.599 567.924 382.743 563.508H449.015C450.159 567.924 452.223 571.924 454.991 575.38C444.543 580.284 436.655 589.548 433.503 600.844ZM511.879 619.508H447.879V611.508C447.879 598.276 458.647 587.508 471.879 587.508H487.879C501.111 587.508 511.879 598.276 511.879 611.508V619.508ZM543.879 619.508C552.703 619.508 559.879 626.684 559.879 635.508C559.879 644.332 552.703 651.508 543.879 651.508C535.055 651.508 527.879 644.332 527.879 635.508C527.879 626.684 535.055 619.508 543.879 619.508ZM575.879 699.508H511.879V691.508C511.879 678.276 522.647 667.508 535.879 667.508H551.879C565.111 667.508 575.879 678.276 575.879 691.508V699.508Z" fill="#246B6D"/>
</g>
<defs>
<filter id="filter0_d" x="0.78125" y="0.410156" width="958.196" height="958.196" filterUnits="userSpaceOnUse" color-interpolation-filters="sRGB">
<feFlood flood-opacity="0" result="BackgroundImageFix"/>
<feColorMatrix in="SourceAlpha" type="matrix" values="0 0 0 0 0 0 0 0 0 0 0 0 0 0 0 0 0 0 127 0"/>
<feOffset dy="4"/>
<feGaussianBlur stdDeviation="2"/>
<feColorMatrix type="matrix" values="0 0 0 0 0 0 0 0 0 0 0 0 0 0 0 0 0 0 0.25 0"/>
<feBlend mode="normal" in2="BackgroundImageFix" result="effect1_dropShadow"/>
<feBlend mode="normal" in="SourceGraphic" in2="effect1_dropShadow" result="shape"/>
</filter>
</defs>
</svg>
