<svg width="951" height="952" viewBox="0 0 951 952" fill="none" xmlns="http://www.w3.org/2000/svg">
<circle cx="475.875" cy="476.059" r="459.598" fill="white" stroke="#246B6D" stroke-width="31"/>
<path d="M683.634 560.19C680.826 559.026 677.594 559.669 675.444 561.818L593.318 643.944C591.169 646.094 590.526 649.326 591.69 652.134C592.852 654.943 595.594 656.773 598.633 656.773H680.759C684.91 656.773 688.274 653.409 688.274 649.258V567.132C688.273 564.093 686.442 561.353 683.634 560.19ZM616.773 641.744L673.242 585.275V641.744H616.773Z" fill="#246B6D" stroke="#246B6D" stroke-width="11"/>
<path d="M737.963 439.734C735.155 438.57 731.923 439.213 729.773 441.362L707.266 463.87V310.839C707.266 306.688 703.901 303.324 699.751 303.324H642.01L662.97 282.364C662.973 282.361 662.976 282.357 662.979 282.354L683.175 262.158C687.502 257.831 689.885 252.075 689.885 245.955C689.885 239.835 687.502 234.081 683.175 229.752L659.821 206.398C655.494 202.07 649.738 199.688 643.618 199.688C637.498 199.688 631.743 202.07 627.415 206.398L607.209 226.604L582.793 251.02L530.49 303.323H297.222V228.978C297.222 224.827 293.857 221.462 289.707 221.462C257.117 221.464 230.602 247.978 230.602 280.57V599.755C230.602 600.31 230.666 600.85 230.78 601.37C231.818 615.199 237.801 628.048 247.8 637.802C258.488 648.226 272.597 653.967 287.529 653.967H517.167L473.918 697.216C471.769 699.366 471.126 702.597 472.289 705.406C473.452 708.214 476.193 710.046 479.232 710.046H735.087C739.237 710.046 742.602 706.681 742.602 702.53V446.677C742.602 443.638 740.77 440.897 737.963 439.734ZM638.045 217.027C641.117 213.953 646.122 213.953 649.194 217.027L672.549 240.382C675.623 243.455 675.623 248.458 672.549 251.532L657.658 266.424L623.152 231.918L638.045 217.027ZM612.524 242.547L647.029 277.05L633.24 290.84L598.737 256.335L612.524 242.547ZM727.574 531.12H713.709C709.558 531.12 706.194 534.483 706.194 538.634C706.194 542.785 709.558 546.15 713.709 546.15H727.574V568.796H713.709C709.558 568.796 706.194 572.159 706.194 576.31C706.194 580.461 709.558 583.826 713.709 583.826H727.574V606.47H713.709C709.558 606.47 706.194 609.835 706.194 613.986C706.194 618.137 709.558 621.5 713.709 621.5H727.574V644.146H713.709C709.558 644.146 706.194 647.511 706.194 651.661C706.194 655.812 709.558 659.176 713.709 659.176H727.574V695.018H497.374L573.282 619.111C576.217 616.175 576.217 611.418 573.282 608.483C572.945 608.146 572.583 607.854 572.204 607.594C569.278 605.59 565.252 605.885 562.653 608.483L532.197 638.939H287.53C264.738 638.939 246.39 621.146 245.668 598.395C245.711 596.967 245.822 595.55 246 594.15C246.001 594.142 246.002 594.134 246.003 594.126C246.087 593.461 246.188 592.799 246.303 592.141C246.316 592.066 246.33 591.992 246.343 591.917C246.448 591.33 246.566 590.745 246.695 590.163C246.731 590.001 246.769 589.839 246.807 589.678C246.921 589.186 247.044 588.697 247.176 588.21C247.248 587.946 247.323 587.685 247.4 587.422C247.51 587.04 247.624 586.66 247.745 586.283C247.866 585.906 247.995 585.532 248.126 585.159C248.217 584.898 248.307 584.637 248.405 584.378C248.588 583.886 248.782 583.4 248.982 582.917C249.039 582.778 249.095 582.636 249.154 582.497C249.411 581.897 249.678 581.305 249.96 580.719C249.972 580.694 249.983 580.668 249.995 580.643C255.873 568.479 267.178 559.41 280.745 556.596C280.783 556.588 280.821 556.58 280.859 556.572C281.481 556.445 282.109 556.335 282.741 556.234C282.846 556.217 282.951 556.196 283.058 556.18C283.629 556.093 284.206 556.025 284.783 555.96C284.945 555.942 285.106 555.917 285.269 555.901C285.826 555.845 286.388 555.808 286.95 555.773C287.128 555.762 287.306 555.743 287.484 555.734C288.22 555.697 288.962 555.678 289.707 555.678C293.857 555.678 297.222 552.314 297.222 548.163V493.674C297.222 489.523 293.857 486.159 289.707 486.159C285.557 486.159 282.192 489.523 282.192 493.674V541.121C269.502 542.726 257.723 548.386 248.435 557.456C247.458 558.41 246.532 559.402 245.63 560.41V280.57C245.63 258.829 261.456 240.711 282.191 237.133V310.839V463.615V463.616C282.191 467.766 285.556 471.132 289.706 471.132C293.856 471.132 297.221 467.766 297.221 463.616V463.615V318.354H515.461L473.917 359.897C470.982 362.833 470.982 367.59 473.917 370.525C476.852 373.459 481.61 373.459 484.544 370.525L538.917 316.153C538.919 316.151 538.92 316.148 538.922 316.147L588.107 266.963L622.61 301.467L618.562 305.516C618.559 305.519 618.555 305.521 618.552 305.524L467.024 457.055L432.52 422.55L462.388 392.682C465.323 389.746 465.323 384.989 462.388 382.054C459.453 379.12 454.695 379.12 451.761 382.054L416.578 417.236C416.39 417.424 416.214 417.623 416.049 417.827C415.994 417.895 415.945 417.968 415.893 418.039C415.787 418.18 415.683 418.322 415.586 418.47C415.531 418.556 415.481 418.644 415.429 418.733C415.346 418.873 415.266 419.015 415.193 419.16C415.145 419.254 415.102 419.349 415.058 419.447C414.991 419.594 414.929 419.744 414.872 419.894C414.852 419.947 414.826 419.997 414.807 420.05L400.166 461.525L390.184 489.805C390.052 490.181 389.957 490.562 389.886 490.947H364.894C360.744 490.947 357.379 494.311 357.379 498.462C357.379 502.613 360.744 505.977 364.894 505.977H573.008C577.159 505.977 580.523 502.613 580.523 498.462C580.523 494.311 577.159 490.947 573.008 490.947H423.695L469.525 474.77C469.563 474.756 469.599 474.737 469.637 474.723C469.815 474.657 469.99 474.582 470.163 474.503C470.232 474.471 470.301 474.441 470.368 474.408C470.548 474.318 470.725 474.219 470.899 474.113C470.955 474.079 471.013 474.048 471.068 474.013C471.249 473.897 471.425 473.771 471.598 473.637C471.641 473.604 471.686 473.574 471.728 473.54C471.937 473.372 472.142 473.191 472.336 472.997L626.98 318.354H692.235V478.9L584.739 586.397C581.804 589.333 581.804 594.09 584.739 597.025C584.922 597.208 585.113 597.381 585.31 597.542C586.688 598.665 588.371 599.227 590.053 599.227C591.735 599.227 593.419 598.665 594.796 597.542C594.993 597.382 595.184 597.208 595.367 597.025C595.37 597.022 595.367 597.025 595.37 597.022L727.574 464.818V531.12ZM453.279 464.564L431.753 472.163L417.411 457.82L425.01 436.294L453.279 464.564Z" fill="#246B6D" stroke="#246B6D" stroke-width="11"/>
</svg>
