<svg width="951" height="951" viewBox="0 0 951 951" fill="none" xmlns="http://www.w3.org/2000/svg">
<circle cx="475.252" cy="475.7" r="459.598" fill="white" stroke="#246B6D" stroke-width="31"/>
<path d="M721.252 468.371H662.026C656.502 468.371 652.026 472.848 652.026 478.371V486.82H589.748C588.436 486.82 587.135 487.078 585.924 487.582L506.151 520.598C496.92 524.422 489.748 531.617 485.963 540.863C482.174 550.105 482.233 560.262 486.127 569.465L486.397 570.102C488.709 575.563 492.116 580.207 496.252 583.879C484.112 587.172 471.381 587.437 459.006 584.605L380.69 566.672C371.108 564.48 361.272 566.195 352.998 571.504C344.729 576.809 339.069 585.035 337.069 594.656C333.104 613.719 344.783 632.41 363.655 637.207L457.1 660.957C465.014 662.965 473.037 663.965 481.033 663.965C493.022 663.965 504.951 661.719 516.338 657.25L635.182 610.641H652.026V615.902C652.026 621.426 656.506 625.902 662.026 625.902H721.252C726.776 625.902 731.252 621.426 731.252 615.902V478.371C731.252 472.848 726.776 468.371 721.252 468.371V468.371ZM633.287 590.641C632.037 590.641 630.799 590.875 629.639 591.328L509.033 638.633C493.967 644.539 477.713 645.555 462.026 641.57L368.58 617.82C360.112 615.668 354.869 607.281 356.647 598.727C357.545 594.406 360.084 590.715 363.799 588.336C366.455 586.629 369.475 585.75 372.553 585.75C373.772 585.75 375.002 585.887 376.225 586.168L454.541 604.098C473.385 608.41 492.881 607.027 510.928 600.09L533.655 591.352C534.123 591.191 534.588 591.02 535.053 590.84C555.143 583.094 580.783 573.234 586.295 571.113L587.369 570.699C592.522 568.719 595.096 562.93 593.116 557.777C591.135 552.621 585.35 550.051 580.19 552.031C580.19 552.031 579.78 552.191 579.022 552.48L526.901 572.523C518.065 575.387 508.51 571.035 504.815 562.305L504.541 561.664C502.741 557.414 502.717 552.719 504.467 548.445C506.217 544.172 509.53 540.844 513.799 539.078L591.737 506.82H652.026V590.641H633.287ZM711.252 605.902H672.026V488.371H711.252V605.902Z" fill="#246B6D"/>
<path d="M316.637 464.191H298.484V370.754H301.254C308.648 370.754 316.031 368.973 322.605 365.602C322.914 365.441 323.219 365.27 323.508 365.078L388.27 322.824C397.219 318.434 408.094 319.434 416.102 325.418L420.777 328.902C420.492 329.305 420.219 329.715 419.941 330.117C418.707 331.914 417.52 333.746 416.402 335.617C409.488 347.168 405.047 360.164 403.414 373.418C396.598 374.152 390.285 377.16 385.371 382.07C379.68 387.762 376.543 395.34 376.543 403.402C376.543 420.031 390.074 433.562 406.703 433.562H480.734C484.82 433.562 488.668 435.156 491.555 438.035C494.453 440.941 496.051 444.793 496.055 448.879C496.051 454.98 492.477 460.48 486.91 462.906C486.266 463.191 485.684 463.402 485.137 463.555C485.086 463.57 485.039 463.586 484.988 463.602C483.641 463.992 482.211 464.191 480.734 464.191H396.617C391.098 464.191 386.617 468.668 386.617 474.191C386.617 479.715 391.098 484.191 396.617 484.191H480.734C483.316 484.191 485.863 483.91 488.34 483.367C492.539 483.906 496.793 484.199 501.023 484.199C555.27 484.199 599.406 440.066 599.406 385.816C599.406 331.57 555.27 287.438 501.023 287.438C476.027 287.438 452.102 296.957 433.996 313.816L428.066 309.391C413.859 298.777 394.48 297.148 378.707 305.246C378.398 305.402 378.102 305.578 377.809 305.766L313.055 348.016C309.398 349.809 305.328 350.75 301.254 350.75H298.48V347.133C298.48 341.609 294.004 337.133 288.48 337.133H229.254C223.73 337.133 219.254 341.609 219.254 347.133V484.664C219.254 490.188 223.73 494.664 229.254 494.664H288.48C294.004 494.664 298.48 490.188 298.48 484.664V484.191H316.637C322.156 484.191 326.637 479.715 326.637 474.191C326.637 468.668 322.156 464.191 316.637 464.191V464.191ZM396.543 403.402C396.543 400.684 397.598 398.129 399.516 396.215C400.516 395.215 401.691 394.453 402.973 393.949C403.516 400.637 404.734 407.184 406.609 413.559C401.051 413.508 396.543 408.973 396.543 403.402ZM579.402 385.82C579.402 424.965 550.555 457.504 512.996 463.285C515.004 458.777 516.055 453.816 516.055 448.879C516.055 442.82 514.527 436.996 511.668 431.824C516.008 431.141 520.016 429.137 523.184 425.969C527.145 422.012 529.324 416.75 529.324 411.152V396.363C529.324 384.809 519.922 375.406 508.367 375.406H493.695C493.168 375.406 492.738 374.977 492.738 374.449V360.488C492.738 359.961 493.168 359.535 493.695 359.535H501.027H501.031H501.035H508.367C508.895 359.535 509.324 359.961 509.324 360.488C509.324 366.012 513.801 370.488 519.324 370.488C524.844 370.488 529.324 366.012 529.324 360.488C529.324 349.84 521.328 341.039 511.031 339.723V336.258C511.031 330.734 506.555 326.258 501.031 326.258C495.508 326.258 491.031 330.734 491.031 336.258V339.723C480.73 341.039 472.738 349.84 472.738 360.488V374.449C472.738 386.004 482.141 395.406 493.695 395.406H508.367C508.895 395.406 509.324 395.836 509.324 396.363V411.152C509.324 411.414 509.23 411.641 509.043 411.828C508.855 412.012 508.633 412.105 508.367 412.105H493.695C493.168 412.105 492.738 411.676 492.738 411.152V409.797C492.738 404.273 488.262 399.797 482.738 399.797C477.215 399.797 472.738 404.273 472.738 409.797V411.152C472.738 411.965 472.797 412.766 472.887 413.559H427.691C424.34 404.738 422.645 395.43 422.645 385.82C422.645 371.168 426.813 356.5 434.664 344.113C436.922 340.555 439.438 337.16 442.23 334C457.109 317.117 478.523 307.438 501.023 307.438C544.242 307.438 579.402 342.598 579.402 385.82V385.82ZM278.48 474.668H239.254V357.133H278.48V474.668Z" fill="#246B6D"/>
<path d="M364.645 468.648C362.297 465.059 357.696 463.406 353.59 464.582C349.621 465.723 346.727 469.273 346.371 473.383C346.012 477.535 348.422 481.59 352.211 483.297C355.965 484.992 360.485 484.18 363.406 481.27C366.738 477.941 367.254 472.559 364.645 468.648Z" fill="#246B6D"/>
</svg>
