<svg width="951" height="952" viewBox="0 0 951 952" fill="none" xmlns="http://www.w3.org/2000/svg">
<circle cx="475.661" cy="475.993" r="459.598" fill="white" stroke="#246B6D" stroke-width="31"/>
<path d="M662.527 314.992C658.384 314.992 655.027 318.349 655.027 322.492C655.027 365.453 622.014 400.832 580.027 404.636V317.492C580.027 288.544 556.475 264.992 527.527 264.992C498.579 264.992 475.027 288.544 475.027 317.492V479.75C465.334 491.739 460.027 506.685 460.027 522.156C460.027 524.574 460.157 527.007 460.414 529.402L475.072 663.307C475.488 667.111 478.701 669.991 482.527 669.991H490.027V709.085L465.155 717.375C461.225 718.685 459.102 722.933 460.412 726.862C461.46 730.005 464.386 731.992 467.526 731.992C468.312 731.992 469.112 731.867 469.899 731.605L499.899 721.605C502.962 720.584 505.027 717.718 505.027 714.49V669.991H512.527C516.67 669.991 520.027 666.634 520.027 662.491V534.991H535.027V662.491C535.027 666.634 538.384 669.991 542.527 669.991H550.027V714.49C550.027 717.719 552.092 720.585 555.155 721.605L585.155 731.605C585.942 731.867 586.742 731.992 587.528 731.992C590.668 731.992 593.594 730.005 594.642 726.862C595.952 722.932 593.829 718.684 589.899 717.375L565.027 709.085V669.991H572.527C576.353 669.991 579.566 667.111 579.982 663.307L594.644 529.382C594.898 527 595.027 524.569 595.027 522.155C595.027 506.683 589.72 491.738 580.027 479.749V419.702C630.297 415.858 670.027 373.73 670.027 322.492C670.027 318.349 666.67 314.992 662.527 314.992V314.992ZM565.027 474.992H490.027V427.93C501.468 435.029 514.493 438.598 527.527 438.598C540.558 438.598 553.587 435.044 565.027 427.948V474.992ZM527.527 279.992C539.769 279.992 550.658 285.89 557.507 294.992H497.548C504.396 285.89 515.285 279.992 527.527 279.992ZM490.782 309.992H564.273C564.767 312.416 565.028 314.924 565.028 317.492C565.028 338.17 548.206 354.992 527.528 354.992C506.85 354.992 490.028 338.17 490.028 317.492C490.027 314.924 490.288 312.416 490.782 309.992ZM527.527 369.992C542.206 369.992 555.49 363.929 565.027 354.184V409.266C554.703 418.559 541.502 423.647 527.527 423.647C513.552 423.647 500.351 418.56 490.027 409.266V354.184C499.564 363.929 512.848 369.992 527.527 369.992ZM579.731 527.769L565.803 654.991H550.027V527.491C550.027 523.348 546.67 519.991 542.527 519.991H512.527C508.384 519.991 505.027 523.348 505.027 527.491V654.991H489.251L475.326 527.786C475.128 525.936 475.027 524.042 475.027 522.156C475.027 510.469 478.932 499.175 486.065 489.992H568.989C576.122 499.175 580.027 510.47 580.027 522.156C580.027 524.04 579.926 525.935 579.731 527.769Z" fill="#246B6D"/>
<path d="M678.775 219.992C672.905 219.992 667.261 221.775 662.525 225.025C657.789 221.775 652.145 219.992 646.275 219.992C630.422 219.992 617.525 232.877 617.525 248.715C617.525 280.73 657.818 298.624 659.534 299.37C660.488 299.785 661.507 299.992 662.525 299.992C663.543 299.992 664.562 299.785 665.516 299.37C667.232 298.624 707.525 280.729 707.525 248.715C707.525 232.877 694.628 219.992 678.775 219.992ZM662.543 284.138C654.429 279.87 632.525 266.679 632.525 248.715C632.525 241.149 638.693 234.992 646.275 234.992C650.333 234.992 654.167 236.777 656.794 239.889C658.219 241.577 660.316 242.552 662.525 242.552C664.734 242.552 666.832 241.577 668.256 239.889C670.883 236.777 674.717 234.992 678.775 234.992C686.357 234.992 692.525 241.148 692.525 248.715C692.525 266.846 670.684 279.902 662.543 284.138Z" fill="#246B6D"/>
<path d="M422.527 579.992H385.027V557.492C385.027 553.349 381.67 549.992 377.527 549.992H317.527C313.384 549.992 310.027 553.349 310.027 557.492V579.992H272.527C260.121 579.992 250.027 590.086 250.027 602.492V699.492C250.027 711.898 260.121 721.992 272.527 721.992H422.527C434.933 721.992 445.027 711.898 445.027 699.492V602.492C445.027 590.086 434.933 579.992 422.527 579.992ZM400.027 594.992V706.992H385.027V594.992H400.027ZM370.027 706.992H325.027V594.992H370.027V706.992ZM325.027 564.992H370.027V579.992H325.027V564.992ZM310.027 706.992H295.026V594.992H310.027V706.992ZM265.027 699.492V602.492C265.027 598.356 268.391 594.992 272.527 594.992H280.026V706.992H272.527C268.391 706.992 265.027 703.628 265.027 699.492ZM430.027 699.492C430.027 703.628 426.663 706.992 422.527 706.992H415.027V594.992H422.527C426.663 594.992 430.027 598.356 430.027 602.492V699.492Z" fill="#246B6D"/>
<path d="M460.027 462.494C460.027 462.492 460.027 392.492 460.027 392.492C460.027 371.814 443.205 354.992 422.527 354.992C401.849 354.992 385.027 371.814 385.027 392.492V462.492C385.027 483.17 401.849 499.992 422.527 499.992C443.203 499.992 460.025 483.172 460.027 462.494ZM405.563 425.919C410.661 428.517 416.423 429.992 422.527 429.992C430.963 429.992 438.755 427.191 445.027 422.472V454.45C427.718 451.962 413.118 441.002 405.563 425.919ZM422.527 369.992C434.933 369.992 445.027 380.086 445.027 392.492C445.027 404.898 434.933 414.992 422.527 414.992C410.121 414.992 400.027 404.898 400.027 392.492C400.027 380.086 410.121 369.992 422.527 369.992ZM422.527 484.992C410.121 484.992 400.027 474.898 400.027 462.492V444.855C410.708 458.066 426.26 467.169 443.928 469.427C440.997 478.45 432.514 484.992 422.527 484.992Z" fill="#246B6D"/>
</svg>
