<svg width="951" height="951" viewBox="0 0 951 951" fill="none" xmlns="http://www.w3.org/2000/svg">
<circle cx="475.231" cy="475.582" r="459.598" fill="white" stroke="#246B6D" stroke-width="31"/>
<path d="M700.3 324.502L609.3 233.515C607.425 231.64 604.882 230.586 602.23 230.586H305.23C288.688 230.586 275.23 244.044 275.23 260.586V279.65C226.105 298.92 191.23 346.801 191.23 402.677C191.23 408.199 195.708 412.677 201.23 412.677H323.321C328.843 412.677 333.321 408.199 333.321 402.677V280.586C333.321 275.064 328.843 270.586 323.321 270.586C313.683 270.586 304.287 271.633 295.23 273.603V260.586C295.23 255.072 299.716 250.586 305.23 250.586H592.23V311.586C592.23 328.128 605.688 341.586 622.23 341.586H683.23V712.586C683.23 718.1 678.744 722.586 673.23 722.586H305.23C299.716 722.586 295.23 718.1 295.23 712.586V626.919C295.23 621.397 290.752 616.919 285.23 616.919C279.708 616.919 275.23 621.397 275.23 626.919V712.586C275.23 729.128 288.688 742.586 305.23 742.586H673.23C689.772 742.586 703.23 729.128 703.23 712.586V331.573C703.23 328.921 702.176 326.377 700.3 324.502ZM313.32 291.029V392.677H211.672C216.453 338.829 259.473 295.81 313.32 291.029ZM622.23 321.586C616.716 321.586 612.23 317.1 612.23 311.586V264.726L669.098 321.586H622.23Z" fill="#246B6D" stroke="#246B6D" stroke-width="5"/>
<path d="M292.299 583.516C290.44 581.655 287.86 580.586 285.23 580.586C282.6 580.586 280.02 581.655 278.16 583.516C276.3 585.376 275.23 587.956 275.23 590.586C275.23 593.216 276.299 595.796 278.16 597.655C280.02 599.516 282.6 600.586 285.23 600.586C287.86 600.586 290.44 599.516 292.299 597.655C294.16 595.796 295.23 593.216 295.23 590.586C295.23 587.956 294.16 585.376 292.299 583.516Z" fill="#246B6D"/>
<path d="M359.141 306.406C353.619 306.406 349.141 310.884 349.141 316.406V428.496H237.051C231.529 428.496 227.051 432.974 227.051 438.496C227.051 511.331 286.306 570.587 359.141 570.587C431.976 570.587 491.232 511.331 491.232 438.496C491.232 365.661 431.976 306.406 359.141 306.406ZM369.141 326.849C392.551 328.927 413.912 338.237 430.977 352.519L369.141 414.354V326.849ZM359.141 550.587C300.704 550.587 252.567 505.638 247.494 448.496H359.141C361.901 448.496 364.399 447.378 366.209 445.57C366.21 445.569 366.211 445.569 366.213 445.567L445.122 366.659C461.413 386.126 471.232 411.186 471.232 438.496C471.232 500.303 420.948 550.587 359.141 550.587Z" fill="#246B6D" stroke="#246B6D" stroke-width="5"/>
<path d="M629.305 546.188C612.763 546.188 599.305 559.646 599.305 576.188C599.305 580.333 600.151 584.284 601.678 587.879L544.065 645.492C540.106 643.563 535.662 642.478 530.97 642.478C526.389 642.478 522.047 643.514 518.16 645.357L479.902 607.099C481.228 603.715 481.964 600.036 481.964 596.186C481.964 579.644 468.506 566.186 451.964 566.186C435.422 566.186 421.964 579.644 421.964 596.186C421.964 600.668 422.959 604.92 424.729 608.743L388.034 645.438C384.125 643.568 379.751 642.52 375.137 642.52C358.595 642.52 345.137 655.978 345.137 672.52C345.137 689.062 358.595 702.52 375.137 702.52C391.679 702.52 405.137 689.062 405.137 672.52C405.137 667.883 404.079 663.488 402.193 659.565L438.683 623.076C442.69 625.064 447.198 626.186 451.966 626.186C457.351 626.186 462.404 624.753 466.777 622.259L503.956 659.438C502.044 663.383 500.97 667.807 500.97 672.478C500.97 689.02 514.428 702.478 530.97 702.478C547.512 702.478 560.97 689.02 560.97 672.478C560.97 667.92 559.944 663.599 558.117 659.727L615.192 602.651C619.401 604.905 624.206 606.188 629.305 606.188C645.847 606.188 659.305 592.729 659.305 576.188C659.305 559.646 645.847 546.188 629.305 546.188ZM375.136 682.52C369.622 682.52 365.136 678.034 365.136 672.52C365.136 667.006 369.622 662.52 375.136 662.52C377.821 662.52 380.256 663.589 382.054 665.317C382.094 665.359 382.129 665.404 382.17 665.445C382.218 665.493 382.27 665.533 382.319 665.579C384.059 667.379 385.136 669.825 385.136 672.52C385.136 678.033 380.65 682.52 375.136 682.52ZM451.964 606.186C446.45 606.186 441.964 601.7 441.964 596.186C441.964 590.672 446.45 586.186 451.964 586.186C457.478 586.186 461.964 590.672 461.964 596.186C461.964 601.7 457.478 606.186 451.964 606.186ZM530.968 682.478C525.454 682.478 520.968 677.992 520.968 672.478C520.968 666.964 525.454 662.478 530.968 662.478C536.482 662.478 540.968 666.964 540.968 672.478C540.968 677.992 536.482 682.478 530.968 682.478ZM629.303 586.186C623.789 586.186 619.303 581.7 619.303 576.186C619.303 570.672 623.79 566.186 629.303 566.186C634.817 566.186 639.303 570.672 639.303 576.186C639.303 581.7 634.817 586.186 629.303 586.186Z" fill="#246B6D" stroke="#246B6D" stroke-width="5"/>
<path d="M579.318 465.586H526.539C521.017 465.586 516.539 470.064 516.539 475.586C516.539 481.108 521.016 485.586 526.539 485.586H579.318C584.84 485.586 589.318 481.108 589.318 475.586C589.318 470.064 584.84 465.586 579.318 465.586Z" fill="#246B6D"/>
<path d="M631.921 468.516C630.062 466.656 627.482 465.586 624.852 465.586C622.222 465.586 619.642 466.655 617.782 468.516C615.922 470.376 614.852 472.956 614.852 475.586C614.852 478.216 615.921 480.796 617.782 482.655C619.642 484.515 622.212 485.586 624.852 485.586C627.482 485.586 630.062 484.516 631.921 482.655C633.781 480.796 634.852 478.216 634.852 475.586C634.852 472.956 633.782 470.376 631.921 468.516Z" fill="#246B6D"/>
<path d="M648.693 369.586H526.539C521.017 369.586 516.539 374.064 516.539 379.586C516.539 385.108 521.016 389.586 526.539 389.586H648.693C654.215 389.586 658.693 385.108 658.693 379.586C658.693 374.064 654.215 369.586 648.693 369.586Z" fill="#246B6D"/>
<path d="M648.693 417.586H526.539C521.017 417.586 516.539 422.064 516.539 427.586C516.539 433.108 521.016 437.586 526.539 437.586H648.693C654.215 437.586 658.693 433.108 658.693 427.586C658.693 422.064 654.215 417.586 648.693 417.586Z" fill="#246B6D"/>
</svg>
