<svg width="951" height="951" viewBox="0 0 951 951" fill="none" xmlns="http://www.w3.org/2000/svg">
<circle cx="475.623" cy="475.582" r="459.598" fill="white" stroke="#246B6D" stroke-width="31"/>
<path d="M399.105 588.597C399.01 588.571 398.915 588.552 398.82 588.528C407.556 578.774 412.881 565.904 412.881 551.81V510.428C412.881 486.068 393.063 466.25 368.703 466.25H312.01C306.856 466.25 302.677 470.429 302.677 475.584V551.81C302.677 565.904 308.002 578.774 316.738 588.528C316.642 588.552 316.547 588.571 316.453 588.598C276.12 592.314 244.426 626.324 244.426 667.61V705.189C244.426 710.343 248.605 714.523 253.759 714.523H461.8C466.954 714.523 471.134 710.343 471.134 705.189V667.609C471.133 626.322 439.438 592.313 399.105 588.597ZM357.779 588.245C337.689 588.245 321.344 571.9 321.344 551.81V535.119C326.424 537.895 332.246 539.475 338.433 539.475H394.215V551.81C394.216 571.9 377.87 588.245 357.779 588.245ZM374.049 606.913L357.778 623.183L341.508 606.913H374.049ZM321.343 484.917H368.704C382.771 484.917 394.215 496.361 394.215 510.428V520.808H338.433C329.009 520.808 321.343 513.141 321.343 503.718V484.917ZM263.091 695.856V667.609C263.091 636.896 286.026 611.454 315.667 607.472L351.178 642.982C353 644.804 355.389 645.716 357.777 645.716C360.166 645.716 362.554 644.804 364.377 642.982L399.889 607.471C429.528 611.453 452.465 636.895 452.465 667.608V695.856H263.091Z" fill="#246B6D" stroke="#246B6D" stroke-width="6"/>
<path d="M660.767 595.513C667.946 588.395 672.4 578.533 672.4 567.649V529.699C672.4 508.163 661.605 489.11 645.151 477.635C645.301 476.97 645.38 476.283 645.38 475.583V453.394C667.2 450.658 684.134 431.99 684.134 409.44V315.908C684.134 291.482 664.262 271.609 639.835 271.609H494.727C470.3 271.609 450.428 291.482 450.428 315.908V409.44C450.428 433.866 470.3 453.739 494.727 453.739H601.002L613.709 466.447C612.136 466.329 610.552 466.25 608.949 466.25C573.962 466.25 545.499 494.714 545.499 529.699V567.648C545.499 578.533 549.953 588.394 557.131 595.512C529.976 608.059 511.078 635.537 511.078 667.362V705.189C511.078 710.343 515.258 714.523 520.412 714.523H697.486C702.64 714.523 706.82 710.343 706.82 705.189V667.364C706.82 635.538 687.921 608.06 660.767 595.513ZM611.469 437.806C609.718 436.056 607.345 435.072 604.869 435.072H494.727C480.593 435.072 469.095 423.574 469.095 409.44V315.908C469.095 301.775 480.593 290.277 494.727 290.277H639.834C653.968 290.277 665.466 301.775 665.466 315.908V316.411H606.255C601.101 316.411 596.922 320.589 596.922 325.744C596.922 330.899 601.101 335.078 606.255 335.078H665.466V409.44C665.466 423.574 653.968 435.072 639.834 435.072H636.045C630.891 435.072 626.712 439.251 626.712 444.406V453.049L611.469 437.806ZM564.167 529.699C564.167 505.007 584.256 484.917 608.95 484.917C633.643 484.917 653.733 505.007 653.733 529.699V567.648C653.733 579.005 644.493 588.244 633.136 588.244H627.703H590.197H584.763V588.245C573.406 588.245 564.167 579.006 564.167 567.649V529.699ZM688.155 695.856H688.154H529.746V667.364C529.746 634.031 556.865 606.912 590.198 606.912H627.704C661.037 606.912 688.155 634.031 688.155 667.364V695.856V695.856Z" fill="#246B6D" stroke="#246B6D" stroke-width="6"/>
<path d="M435.454 236.648H326.895C302.469 236.648 282.596 256.521 282.596 280.947V374.479C282.596 397.029 299.53 415.697 321.349 418.433V440.622C321.349 444.397 323.623 447.801 327.11 449.246C328.265 449.725 329.478 449.957 330.68 449.957C333.11 449.957 335.497 449.008 337.282 447.222L365.726 418.778H414.23C419.384 418.778 423.563 414.6 423.563 409.445C423.563 404.29 419.384 400.111 414.23 400.111H361.86C359.385 400.111 357.011 401.095 355.26 402.845L340.017 418.088V409.445C340.017 404.29 335.837 400.111 330.683 400.111H326.895C312.761 400.111 301.263 388.613 301.263 374.479V280.947C301.263 266.814 312.762 255.316 326.895 255.316H435.454C440.608 255.316 444.787 251.137 444.787 245.982C444.787 240.827 440.608 236.648 435.454 236.648Z" fill="#246B6D" stroke="#246B6D" stroke-width="6"/>
<path d="M573.879 319.149C572.144 317.413 569.735 316.414 567.281 316.414C564.826 316.414 562.418 317.413 560.682 319.149C558.946 320.885 557.947 323.293 557.947 325.748C557.947 328.202 558.945 330.61 560.682 332.346C562.419 334.083 564.826 335.081 567.281 335.081C569.736 335.081 572.144 334.083 573.879 332.346C575.615 330.61 576.614 328.202 576.614 325.748C576.614 323.293 575.616 320.885 573.879 319.149Z" fill="#246B6D" stroke="#246B6D" stroke-width="6"/>
</svg>
