<svg width="951" height="951" viewBox="0 0 951 951" fill="none" xmlns="http://www.w3.org/2000/svg">
<path d="M934.964 475.297C934.964 729.126 729.195 934.895 475.366 934.895C221.537 934.895 15.7676 729.126 15.7676 475.297C15.7676 221.468 221.537 15.6992 475.366 15.6992C729.195 15.6992 934.964 221.468 934.964 475.297Z" fill="white" stroke="#246B6D" stroke-width="31"/>
<path d="M690.531 565.305H540.531C516.021 565.305 494.221 577.125 480.531 595.365C466.841 577.125 445.041 565.305 420.531 565.305H270.531C262.251 565.305 255.531 572.025 255.531 580.305V595.305H381.321C416.413 595.305 451.324 602.256 480.531 621.725C509.729 602.261 544.635 595.305 579.741 595.305H705.531V580.305C705.531 572.025 698.811 565.305 690.531 565.305Z" fill="#246B6D"/>
<path d="M452.378 675.412C435.754 662.07 411.845 655.305 381.316 655.305H239.531C231.247 655.305 224.531 648.589 224.531 640.305C224.531 632.021 231.247 625.305 239.531 625.305H381.316C418.845 625.305 449.072 634.292 471.156 652.016C476.629 656.409 484.43 656.411 489.906 652.016C511.99 634.292 542.217 625.305 579.746 625.305H721.531C729.815 625.305 736.531 632.021 736.531 640.305C736.531 648.589 729.815 655.305 721.531 655.305H579.746C549.217 655.305 525.308 662.07 508.683 675.412C492.348 688.524 468.89 688.665 452.378 675.412V675.412Z" fill="#246B6D"/>
<path d="M585.531 417.105V460.305C585.531 465.985 582.321 471.185 577.241 473.725L510.901 506.885C503.551 510.565 496.821 515.305 490.901 520.965C485.101 526.505 475.961 526.505 470.161 520.965C464.241 515.305 457.511 510.565 450.161 506.885L383.821 473.725C378.741 471.185 375.531 465.985 375.531 460.305V417.105L468.171 443.575C476.09 445.84 484.684 445.923 492.891 443.575L585.531 417.105Z" fill="#246B6D"/>
<path d="M645.531 399.965V490.305C645.531 498.585 638.811 505.305 630.531 505.305C622.251 505.305 615.531 498.585 615.531 490.305V408.535L645.531 399.965Z" fill="#246B6D"/>
<path d="M476.41 414.728L266.41 354.728C251.964 350.601 251.939 330.017 266.41 325.882L476.41 265.882C479.103 265.112 481.958 265.112 484.651 265.882L694.651 325.882C709.097 330.009 709.122 350.593 694.651 354.728L484.651 414.728C481.969 415.494 479.114 415.5 476.41 414.728V414.728Z" fill="#246B6D"/>
</svg>
