<svg width="951" height="951" viewBox="0 0 951 951" fill="none" xmlns="http://www.w3.org/2000/svg">
<circle cx="475.098" cy="475.098" r="459.598" fill="white" stroke="#246B6D" stroke-width="31"/>
<path d="M379.094 299.602H251.083C233.722 299.602 219.598 313.726 219.598 331.087V619.106C219.598 636.466 233.722 650.591 251.083 650.591H379.091C396.455 650.591 410.58 636.466 410.58 619.106V331.087C410.58 313.726 396.455 299.602 379.094 299.602ZM251.083 314.572H379.091C388.198 314.572 395.609 321.98 395.609 331.087V603.62H234.568V331.087C234.568 321.98 241.976 314.572 251.083 314.572ZM379.094 635.62H251.083C241.976 635.62 234.568 628.213 234.568 619.106V618.591H395.609V619.106C395.609 628.213 388.202 635.62 379.094 635.62Z" fill="#246B6D"/>
<path d="M699.114 299.602H571.103C553.742 299.602 539.617 313.726 539.617 331.087V619.106C539.617 636.466 553.742 650.591 571.103 650.591H699.11C716.475 650.591 730.599 636.466 730.599 619.106V331.087C730.599 313.726 716.475 299.602 699.114 299.602ZM571.103 314.572H699.11C708.217 314.572 715.629 321.98 715.629 331.087V603.62H554.588V331.087C554.588 321.98 561.995 314.572 571.103 314.572ZM699.114 635.62H571.103C561.995 635.62 554.588 628.213 554.588 619.106V618.591H715.629V619.106C715.629 628.213 708.221 635.62 699.114 635.62Z" fill="#246B6D"/>
<path d="M259.083 450.576H371.091C375.227 450.576 378.576 447.227 378.576 443.091V347.087C378.576 342.95 375.227 339.602 371.091 339.602H259.083C254.95 339.602 251.598 342.95 251.598 347.087V387.087C251.598 391.223 254.95 394.572 259.083 394.572C263.219 394.572 266.568 391.223 266.568 387.087V363.36L303.586 395.087L266.568 426.818V419.091C266.568 414.954 263.219 411.605 259.083 411.605C254.95 411.605 251.598 414.954 251.598 419.091V443.091C251.598 447.227 254.95 450.576 259.083 450.576ZM326.592 395.087L363.605 363.36V426.818L326.592 395.087ZM279.321 354.572H350.857L315.087 385.231L279.321 354.572ZM350.857 435.605H279.321L315.091 404.946L350.857 435.605Z" fill="#246B6D"/>
<path d="M259.083 578.584H371.091C375.227 578.584 378.576 575.231 378.576 571.098V475.095C378.576 470.958 375.227 467.609 371.091 467.609H259.083C254.95 467.609 251.598 470.958 251.598 475.095V571.098C251.598 575.231 254.95 578.584 259.083 578.584ZM363.605 554.826L326.592 523.095L363.605 491.368V554.826ZM350.857 563.613H279.321L315.091 532.954L350.857 563.613ZM315.087 513.239L279.321 482.58H350.857L315.087 513.239ZM303.586 523.095L266.568 554.826V491.368L303.586 523.095Z" fill="#246B6D"/>
<path d="M579.106 450.576H691.11C695.247 450.576 698.596 447.227 698.596 443.091V395.087C698.596 390.954 695.247 387.601 691.11 387.601C686.978 387.601 683.625 390.954 683.625 395.087V435.605H586.592V354.572H683.625V363.087C683.625 367.219 686.978 370.572 691.11 370.572C695.247 370.572 698.596 367.219 698.596 363.087V347.087C698.596 342.95 695.247 339.602 691.11 339.602H579.106C574.97 339.602 571.621 342.95 571.621 347.087V443.091C571.621 447.227 574.97 450.576 579.106 450.576Z" fill="#246B6D"/>
<path d="M691.114 467.609H619.106C614.974 467.609 611.621 470.958 611.621 475.095C611.621 479.227 614.974 482.58 619.106 482.58H691.114C695.247 482.58 698.599 479.227 698.599 475.095C698.599 470.958 695.247 467.609 691.114 467.609Z" fill="#246B6D"/>
<path d="M691.114 499.609H619.106C614.974 499.609 611.621 502.962 611.621 507.095C611.621 511.227 614.974 514.58 619.106 514.58H691.114C695.247 514.58 698.599 511.227 698.599 507.095C698.599 502.962 695.247 499.609 691.114 499.609Z" fill="#246B6D"/>
<path d="M691.114 563.613H619.106C614.974 563.613 611.621 566.966 611.621 571.099C611.621 575.231 614.974 578.584 619.106 578.584H691.114C695.247 578.584 698.599 575.231 698.599 571.099C698.599 566.966 695.247 563.613 691.114 563.613Z" fill="#246B6D"/>
<path d="M691.114 531.613H619.106C614.974 531.613 611.621 534.962 611.621 539.099C611.621 543.231 614.974 546.584 619.106 546.584H691.114C695.247 546.584 698.599 543.231 698.599 539.099C698.599 534.962 695.247 531.613 691.114 531.613Z" fill="#246B6D"/>
<path d="M579.106 482.58H587.106C591.239 482.58 594.592 479.227 594.592 475.095C594.592 470.958 591.239 467.609 587.106 467.609H579.106C574.97 467.609 571.621 470.958 571.621 475.095C571.621 479.227 574.97 482.58 579.106 482.58Z" fill="#246B6D"/>
<path d="M579.106 514.58H587.106C591.239 514.58 594.592 511.227 594.592 507.095C594.592 502.962 591.239 499.609 587.106 499.609H579.106C574.97 499.609 571.621 502.962 571.621 507.095C571.621 511.227 574.97 514.58 579.106 514.58Z" fill="#246B6D"/>
<path d="M579.106 578.584H587.106C591.239 578.584 594.592 575.231 594.592 571.099C594.592 566.966 591.239 563.613 587.106 563.613H579.106C574.97 563.613 571.621 566.966 571.621 571.099C571.621 575.231 574.97 578.584 579.106 578.584Z" fill="#246B6D"/>
<path d="M579.106 546.584H587.106C591.239 546.584 594.592 543.231 594.592 539.099C594.592 534.962 591.239 531.613 587.106 531.613H579.106C574.97 531.613 571.621 534.962 571.621 539.099C571.621 543.231 574.97 546.584 579.106 546.584Z" fill="#246B6D"/>
<path d="M518.95 468.678L478.95 444.678C475.403 442.55 470.806 443.7 468.678 447.244C466.553 450.791 467.703 455.388 471.247 457.516L488.077 467.614H435.095C430.962 467.614 427.609 470.963 427.609 475.099C427.609 479.232 430.962 482.585 435.095 482.585H488.077L471.247 492.682C467.703 494.807 466.553 499.407 468.678 502.951C470.081 505.29 472.561 506.585 475.106 506.585C476.416 506.585 477.742 506.242 478.95 505.516L518.95 481.516C521.208 480.164 522.584 477.727 522.584 475.099C522.584 472.468 521.208 470.031 518.95 468.678Z" fill="#246B6D"/>
</svg>
