<svg width="951" height="951" viewBox="0 0 951 951" fill="none" xmlns="http://www.w3.org/2000/svg">
<circle cx="475.666" cy="475.903" r="459.598" fill="white" stroke="#246B6D" stroke-width="31"/>
<path d="M451.666 531.902C456.084 531.902 459.666 528.321 459.666 523.902C459.666 519.484 456.084 515.902 451.666 515.902C447.248 515.902 443.666 519.484 443.666 523.902C443.666 528.321 447.248 531.902 451.666 531.902Z" fill="#246B6D"/>
<path d="M499.666 531.902C504.084 531.902 507.666 528.321 507.666 523.902C507.666 519.484 504.084 515.902 499.666 515.902C495.248 515.902 491.666 519.484 491.666 523.902C491.666 528.321 495.248 531.902 499.666 531.902Z" fill="#246B6D"/>
<path d="M491.666 546.012C488.618 552.108 482.49 555.9 475.666 555.9C468.842 555.9 462.714 552.108 459.666 546.012L458.826 544.324L444.514 551.484L445.354 553.164C451.13 564.724 462.746 571.9 475.666 571.9C488.586 571.9 500.202 564.724 505.978 553.164L506.818 551.476L492.506 544.316L491.666 546.012Z" fill="#246B6D"/>
<path d="M659.666 499.902C646.434 499.902 635.666 510.67 635.666 523.902C635.666 537.134 646.434 547.902 659.666 547.902C672.898 547.902 683.666 537.134 683.666 523.902C683.666 510.67 672.898 499.902 659.666 499.902ZM659.666 531.902C655.25 531.902 651.666 528.31 651.666 523.902C651.666 519.494 655.25 515.902 659.666 515.902C664.082 515.902 667.666 519.494 667.666 523.902C667.666 528.31 664.082 531.902 659.666 531.902Z" fill="#246B6D"/>
<path d="M726.562 512.662L702.73 471.086L683.538 482.374V459.902H635.802L635.946 482.382L616.61 471.086L592.778 512.662L612.25 523.822L612.106 523.902H571.666C571.666 516.694 569.186 510.11 565.154 504.758L568.074 495.974C570.458 488.838 571.666 481.398 571.666 473.854C571.666 440.062 547.578 411.79 515.666 405.31V387.902C515.666 383.494 519.25 379.902 523.666 379.902H547.666V363.902H523.666C510.434 363.902 499.666 374.67 499.666 387.902V403.902H467.666V291.902C467.666 287.494 471.25 283.902 475.666 283.902H612.306C611.93 286.526 611.666 289.182 611.666 291.902C611.666 311.398 621.698 328.582 636.85 338.614L642.53 367.046C644.026 374.494 650.626 379.902 658.218 379.902H677.106C684.698 379.902 691.298 374.494 692.794 367.038L698.474 338.614C713.634 328.582 723.666 311.398 723.666 291.902C723.666 261.022 698.538 235.902 667.666 235.902C645.386 235.902 626.162 249.014 617.146 267.902H475.666C462.434 267.902 451.666 278.67 451.666 291.902V395.382C443.266 390.534 433.738 387.902 423.786 387.902H419.666V323.902C419.666 310.67 408.898 299.902 395.666 299.902H386.074C387.09 295.742 387.666 291.454 387.666 287.094V285.846C387.666 272.142 382.33 259.254 372.634 249.558C363.954 240.878 351.938 235.902 339.666 235.902C327.842 235.902 316.258 240.518 307.666 248.614C299.074 240.518 287.49 235.902 275.666 235.902C263.394 235.902 251.378 240.878 242.698 249.558C233.002 259.246 227.666 272.134 227.666 285.846V287.094C227.666 302.606 234.314 317.414 245.906 327.71L307.666 382.606L369.426 327.71C373.322 324.246 376.61 320.246 379.322 315.902H395.666C400.082 315.902 403.666 319.494 403.666 323.902V390.262C380.57 397.166 363.666 418.59 363.666 443.902C363.666 466.926 377.642 486.734 397.546 495.326C391.914 498.118 387.266 502.486 384.114 507.902H339.666V443.902H227.666V587.902H339.666V523.902H379.666C379.666 541.55 394.018 555.902 411.666 555.902H413.77C417.922 571.958 428.138 585.558 441.858 594.142L437.202 612.742L403.53 617.558C391.226 619.318 379.266 623.894 368.938 630.774C345.602 646.326 331.666 672.366 331.666 700.414V731.902H619.666V699.846C619.482 672.03 605.538 646.206 582.394 630.774C572.066 623.886 560.106 619.318 547.802 617.558L514.13 612.742L509.474 594.142C523.194 585.558 533.402 571.958 537.562 555.902H539.666C551.458 555.902 561.666 549.422 567.218 539.902H595.498L616.602 576.718L635.362 565.206L635.802 565.494V587.902H683.538L683.498 565.486L702.73 576.718L726.562 535.142L707.218 523.902L726.562 512.662ZM677.114 363.902H658.226L654.714 346.326C658.874 347.318 663.202 347.902 667.666 347.902C672.13 347.902 676.458 347.318 680.626 346.326L677.114 363.902ZM659.666 291.902C659.666 287.494 663.25 283.902 667.666 283.902C672.082 283.902 675.666 287.494 675.666 291.902C675.666 296.31 672.082 299.902 667.666 299.902C663.25 299.902 659.666 296.31 659.666 291.902ZM667.666 251.902C689.722 251.902 707.666 269.846 707.666 291.902C707.666 311.214 693.898 327.374 675.666 331.094V314.43C684.954 311.118 691.666 302.318 691.666 291.902C691.666 278.67 680.898 267.902 667.666 267.902C654.434 267.902 643.666 278.67 643.666 291.902C643.666 302.318 650.378 311.118 659.666 314.43V331.094C641.434 327.374 627.666 311.222 627.666 291.902C627.666 269.846 645.61 251.902 667.666 251.902V251.902ZM371.666 287.094C371.666 298.038 366.978 308.478 358.802 315.75L307.666 361.198L256.53 315.742C248.354 308.478 243.666 298.038 243.666 287.094V285.846C243.666 276.414 247.338 267.542 254.01 260.87C259.714 255.174 267.602 251.902 275.666 251.902C283.73 251.902 291.618 255.174 297.322 260.87L307.666 271.214L318.01 260.87C323.714 255.174 331.602 251.902 339.666 251.902C347.73 251.902 355.618 255.174 361.322 260.87C367.994 267.542 371.666 276.406 371.666 285.846V287.094ZM323.666 571.902H243.666V459.902H323.666V571.902ZM379.666 443.902C379.666 421.846 397.61 403.902 419.666 403.902H423.786C434.466 403.902 444.514 408.062 452.066 415.614L456.346 419.902H501.722C531.466 419.902 555.666 444.102 555.666 473.854C555.666 479.67 554.738 485.406 552.89 490.91L551.754 494.31C548.026 492.782 543.946 491.902 539.666 491.902H533.426C529.034 487.03 522.73 483.902 515.666 483.902H443.666C434.842 483.902 427.666 476.726 427.666 467.902C427.666 459.078 434.842 451.902 443.666 451.902C452.49 451.902 459.666 459.078 459.666 467.902H475.666C475.666 450.254 461.314 435.902 443.666 435.902C426.018 435.902 411.666 450.254 411.666 467.902C411.666 473.606 413.29 478.878 415.914 483.526C395.634 481.598 379.666 464.67 379.666 443.902V443.902ZM395.666 523.902C395.666 515.078 402.842 507.902 411.666 507.902V539.902C402.842 539.902 395.666 532.726 395.666 523.902ZM573.514 644.086C592.242 656.566 603.506 677.454 603.666 699.902V715.902H555.666V683.902H539.666V715.902H411.666V683.902H395.666V715.902H347.666V700.414C347.666 677.726 358.938 656.662 377.818 644.078C386.17 638.51 395.85 634.806 405.802 633.382L438.626 628.702C445.474 642.75 459.714 651.902 475.666 651.902C491.626 651.902 505.866 642.742 512.706 628.702L545.53 633.39C555.49 634.814 565.17 638.518 573.514 644.086ZM499.306 619.454C495.61 629.31 486.258 635.902 475.666 635.902C465.074 635.902 455.73 629.318 452.026 619.438L456.626 601.006C462.642 602.886 469.042 603.902 475.666 603.902C482.29 603.902 488.69 602.886 494.698 601.014L499.306 619.454ZM523.666 539.902C523.666 566.374 502.138 587.902 475.666 587.902C449.194 587.902 427.666 566.374 427.666 539.902V499.902H515.666C520.082 499.902 523.666 503.494 523.666 507.902V539.902ZM539.666 539.902V507.902C548.49 507.902 555.666 515.078 555.666 523.902C555.666 532.726 548.49 539.902 539.666 539.902ZM699.05 537.662L704.77 540.99L696.874 554.774L691.466 551.614C686.946 548.974 681.418 548.774 676.402 551.198L675.418 551.694C670.554 554.534 667.538 559.806 667.538 565.438V571.902H651.802V565.43C651.802 559.798 648.786 554.534 643.922 551.686L643.234 551.302C638.402 548.758 632.578 548.862 627.882 551.606L622.466 554.766L614.57 540.982L620.29 537.654C625.146 534.822 628.162 529.566 628.146 523.862C628.162 518.222 625.146 512.966 620.29 510.134L614.57 506.806L622.466 493.022L627.874 496.182C632.778 499.054 638.914 499.038 643.914 496.11C648.778 493.27 651.802 487.998 651.802 482.366V475.902H667.538V482.374C667.538 488.014 670.562 493.278 675.49 496.158C680.442 499.054 686.57 499.07 691.458 496.198L696.874 493.038L704.77 506.822L699.05 510.15C694.194 512.982 691.178 518.238 691.194 523.942C691.17 529.566 694.186 534.83 699.05 537.662V537.662Z" fill="#246B6D"/>
<path d="M595.666 363.902H611.666V379.902H595.666V363.902Z" fill="#246B6D"/>
<path d="M563.666 363.902H579.666V379.902H563.666V363.902Z" fill="#246B6D"/>
<path d="M259.666 475.902H307.666V491.902H259.666V475.902Z" fill="#246B6D"/>
<path d="M259.666 507.902H307.666V523.902H259.666V507.902Z" fill="#246B6D"/>
<path d="M259.666 539.902H307.666V555.902H259.666V539.902Z" fill="#246B6D"/>
</svg>
