<svg width="951" height="952" viewBox="0 0 951 952" fill="none" xmlns="http://www.w3.org/2000/svg">
<circle cx="475.524" cy="476.075" r="459.598" fill="white" stroke="#246B6D" stroke-width="31"/>
<path d="M632.937 584.078L647.281 569.734L635.969 558.422L621.625 572.766L606.529 557.67C618.657 535.838 625.625 510.766 625.625 484.078C625.625 481.798 625.385 479.582 625.281 477.326C662.873 468.486 689.625 435.206 689.625 396.078H673.625C673.625 426.974 653.001 453.398 623.721 461.27C612.657 388.262 549.665 332.078 473.625 332.078C471.345 332.078 469.129 332.318 466.873 332.422C458.033 294.83 424.753 268.078 385.625 268.078V284.078C416.521 284.078 442.945 304.702 450.817 333.982C377.809 345.046 321.625 408.038 321.625 484.078C321.625 486.358 321.865 488.574 321.969 490.83C284.377 499.67 257.625 532.95 257.625 572.078H273.625C273.625 541.182 294.249 514.758 323.529 506.886C334.593 579.894 397.585 636.078 473.625 636.078C500.313 636.078 525.385 629.11 547.209 616.982L562.305 632.078L547.961 646.422L559.273 657.734L573.617 643.39L650.025 719.798C657.945 727.718 668.481 732.078 679.681 732.078C702.809 732.078 721.625 713.262 721.625 690.142C721.625 678.942 717.265 668.406 709.345 660.486L632.937 584.078ZM473.625 348.078C541.865 348.078 598.353 398.638 608.009 464.238L592.241 466.862C583.857 408.838 533.937 364.078 473.625 364.078C473.217 364.078 472.817 364.134 472.409 364.142L469.769 348.278C471.065 348.238 472.321 348.078 473.625 348.078ZM473.625 380.078C530.969 380.078 577.625 426.734 577.625 484.078C577.625 541.422 530.969 588.078 473.625 588.078C416.281 588.078 369.625 541.422 369.625 484.078C369.625 426.734 416.281 380.078 473.625 380.078ZM337.625 484.078C337.625 415.838 388.185 359.35 453.785 349.694L456.409 365.462C398.385 373.846 353.625 423.766 353.625 484.078C353.625 484.486 353.681 484.886 353.689 485.294L337.825 487.934C337.785 486.638 337.625 485.382 337.625 484.078ZM473.625 620.078C405.385 620.078 348.897 569.518 339.241 503.918L355.009 501.294C363.393 559.318 413.313 604.078 473.625 604.078C539.793 604.078 593.625 550.246 593.625 484.078C593.625 483.67 593.569 483.27 593.561 482.862L609.425 480.222C609.465 481.518 609.625 482.774 609.625 484.078C609.625 559.07 548.617 620.078 473.625 620.078ZM561.065 608.206C575.289 598.158 587.705 585.742 597.753 571.518L610.313 584.078L573.625 620.766L561.065 608.206ZM679.689 716.078C672.761 716.078 666.241 713.382 661.345 708.486L584.937 632.078L621.625 595.39L698.033 671.798C702.929 676.694 705.625 683.214 705.625 690.142C705.625 704.446 693.993 716.078 679.689 716.078Z" fill="#246B6D" stroke="#246B6D" stroke-width="7"/>
<path d="M649.625 380.078C689.329 380.078 721.625 347.782 721.625 308.078C721.625 268.374 689.329 236.078 649.625 236.078C609.921 236.078 577.625 268.374 577.625 308.078C577.625 347.782 609.921 380.078 649.625 380.078ZM673.625 358.598C666.337 362.07 658.217 364.078 649.625 364.078C641.033 364.078 632.913 362.07 625.625 358.598V348.078C625.625 334.846 636.393 324.078 649.625 324.078C662.857 324.078 673.625 334.846 673.625 348.078V358.598ZM633.625 292.078C633.625 283.254 640.801 276.078 649.625 276.078C658.449 276.078 665.625 283.254 665.625 292.078C665.625 300.902 658.449 308.078 649.625 308.078C640.801 308.078 633.625 300.902 633.625 292.078ZM649.625 252.078C680.497 252.078 705.625 277.206 705.625 308.078C705.625 323.334 699.473 337.166 689.545 347.278C689.273 333.83 682.401 321.966 671.977 314.918C677.913 309.11 681.625 301.03 681.625 292.078C681.625 274.43 667.273 260.078 649.625 260.078C631.977 260.078 617.625 274.43 617.625 292.078C617.625 301.03 621.337 309.11 627.273 314.918C616.841 321.974 609.969 333.83 609.705 347.278C599.777 337.166 593.625 323.334 593.625 308.078C593.625 277.206 618.753 252.078 649.625 252.078Z" fill="#246B6D" stroke="#246B6D" stroke-width="7"/>
<path d="M297.625 380.078C337.329 380.078 369.625 347.782 369.625 308.078C369.625 268.374 337.329 236.078 297.625 236.078C257.921 236.078 225.625 268.374 225.625 308.078C225.625 347.782 257.921 380.078 297.625 380.078ZM321.625 358.598C314.337 362.07 306.217 364.078 297.625 364.078C289.033 364.078 280.913 362.07 273.625 358.598V348.078C273.625 334.846 284.393 324.078 297.625 324.078C310.857 324.078 321.625 334.846 321.625 348.078V358.598ZM281.625 292.078C281.625 283.254 288.801 276.078 297.625 276.078C306.449 276.078 313.625 283.254 313.625 292.078C313.625 300.902 306.449 308.078 297.625 308.078C288.801 308.078 281.625 300.902 281.625 292.078ZM297.625 252.078C328.497 252.078 353.625 277.206 353.625 308.078C353.625 323.334 347.473 337.166 337.545 347.278C337.273 333.83 330.401 321.966 319.977 314.918C325.913 309.11 329.625 301.03 329.625 292.078C329.625 274.43 315.273 260.078 297.625 260.078C279.977 260.078 265.625 274.43 265.625 292.078C265.625 301.03 269.337 309.11 275.273 314.918C264.849 321.974 257.977 333.83 257.705 347.278C247.777 337.166 241.625 323.334 241.625 308.078C241.625 277.206 266.753 252.078 297.625 252.078Z" fill="#246B6D" stroke="#246B6D" stroke-width="7"/>
<path d="M297.625 588.078C257.921 588.078 225.625 620.374 225.625 660.078C225.625 699.782 257.921 732.078 297.625 732.078C337.329 732.078 369.625 699.782 369.625 660.078C369.625 620.374 337.329 588.078 297.625 588.078ZM321.625 710.598C314.337 714.07 306.217 716.078 297.625 716.078C289.033 716.078 280.913 714.07 273.625 710.598V700.078C273.625 686.846 284.393 676.078 297.625 676.078C310.857 676.078 321.625 686.846 321.625 700.078V710.598ZM281.625 644.078C281.625 635.254 288.801 628.078 297.625 628.078C306.449 628.078 313.625 635.254 313.625 644.078C313.625 652.902 306.449 660.078 297.625 660.078C288.801 660.078 281.625 652.902 281.625 644.078ZM337.545 699.278C337.273 685.83 330.401 673.966 319.977 666.918C325.913 661.11 329.625 653.03 329.625 644.078C329.625 626.43 315.273 612.078 297.625 612.078C279.977 612.078 265.625 626.43 265.625 644.078C265.625 653.03 269.337 661.11 275.273 666.918C264.849 673.974 257.977 685.83 257.705 699.278C247.777 689.166 241.625 675.334 241.625 660.078C241.625 629.206 266.753 604.078 297.625 604.078C328.497 604.078 353.625 629.206 353.625 660.078C353.625 675.334 347.473 689.166 337.545 699.278Z" fill="#246B6D" stroke="#246B6D" stroke-width="7"/>
<path d="M385.625 468.078V508.078V516.078V524.078H561.625V516.078V508.078V436.078H513.625V508.078H497.625V404.078H449.625V508.078H433.625V468.078H385.625ZM529.625 452.078H545.625V508.078H529.625V452.078ZM465.625 420.078H481.625V508.078H465.625V420.078ZM417.625 508.078H401.625V484.078H417.625V508.078Z" fill="#246B6D" stroke="#246B6D" stroke-width="7"/>
</svg>
