<svg width="951" height="951" viewBox="0 0 951 951" fill="none" xmlns="http://www.w3.org/2000/svg">
<circle cx="475.098" cy="475.582" r="459.598" fill="white" stroke="#246B6D" stroke-width="31"/>
<path d="M539.098 436.582H579.098C581.219 436.582 583.254 435.739 584.755 434.239C586.255 432.739 587.098 430.704 587.098 428.582C587.098 426.46 586.255 424.425 584.755 422.925C583.254 421.425 581.219 420.582 579.098 420.582H539.098C536.976 420.582 534.941 421.425 533.441 422.925C531.941 424.425 531.098 426.46 531.098 428.582C531.098 430.704 531.941 432.739 533.441 434.239C534.941 435.739 536.976 436.582 539.098 436.582Z" fill="#246B6D" stroke="#246B6D" stroke-width="6"/>
<path d="M707.098 420.582C704.976 420.582 702.941 421.425 701.441 422.925C699.941 424.425 699.098 426.46 699.098 428.582V692.582H291.098C283.186 692.582 275.453 690.236 268.875 685.841C262.297 681.446 257.17 675.198 254.142 667.889C251.115 660.58 250.323 652.538 251.866 644.778C253.41 637.019 257.219 629.892 262.813 624.298C268.407 618.704 275.535 614.894 283.294 613.351C291.053 611.807 299.096 612.599 306.405 615.627C313.714 618.654 319.961 623.781 324.356 630.359C328.752 636.937 331.098 644.671 331.098 652.582C331.098 654.704 331.941 656.739 333.441 658.239C334.941 659.739 336.976 660.582 339.098 660.582C341.219 660.582 343.254 659.739 344.755 658.239C346.255 656.739 347.098 654.704 347.098 652.582V436.582H371.098C373.219 436.582 375.254 435.739 376.755 434.239C378.255 432.739 379.098 430.704 379.098 428.582C379.098 426.46 378.255 424.425 376.755 422.925C375.254 421.425 373.219 420.582 371.098 420.582H347.098V396.582C347.098 381.73 341.198 367.486 330.696 356.984C320.194 346.482 305.95 340.582 291.098 340.582C276.246 340.582 262.002 346.482 251.5 356.984C240.998 367.486 235.098 381.73 235.098 396.582V652.582C235.115 667.429 241.02 681.663 251.518 692.161C262.017 702.66 276.251 708.565 291.098 708.582H707.098C709.219 708.582 711.254 707.739 712.755 706.239C714.255 704.739 715.098 702.704 715.098 700.582V428.582C715.098 426.46 714.255 424.425 712.755 422.925C711.254 421.425 709.219 420.582 707.098 420.582ZM251.098 396.582C251.098 385.973 255.312 375.799 262.813 368.298C270.315 360.796 280.489 356.582 291.098 356.582C301.706 356.582 311.88 360.796 319.382 368.298C326.883 375.799 331.098 385.973 331.098 396.582V613.382C325.889 608.052 319.667 603.816 312.798 600.924C305.928 598.033 298.551 596.543 291.098 596.543C283.645 596.543 276.267 598.033 269.398 600.924C262.529 603.816 256.307 608.052 251.098 613.382V396.582Z" fill="#246B6D" stroke="#246B6D" stroke-width="6"/>
<path d="M603.666 519.558L616.466 551.558L635.666 599.558C636.258 601.045 637.283 602.32 638.608 603.219C639.933 604.117 641.497 604.597 643.098 604.597C644.698 604.597 646.262 604.117 647.587 603.219C648.912 602.32 649.937 601.045 650.53 599.558L669.73 551.558L682.53 519.558C682.851 518.703 683.021 517.799 683.034 516.886C683.034 516.782 683.098 516.694 683.098 516.582V380.582C683.098 378.46 682.255 376.425 680.755 374.925C679.254 373.425 677.219 372.582 675.098 372.582C672.976 372.582 670.941 373.425 669.441 374.925C667.941 376.425 667.098 378.46 667.098 380.582V508.582H651.098V324.582H667.098V348.582C667.098 350.704 667.941 352.739 669.441 354.239C670.941 355.739 672.976 356.582 675.098 356.582C677.219 356.582 679.254 355.739 680.755 354.239C682.255 352.739 683.098 350.704 683.098 348.582V268.582C683.098 257.973 678.883 247.799 671.382 240.298C663.88 232.796 653.706 228.582 643.098 228.582C632.489 228.582 622.315 232.796 614.813 240.298C607.312 247.799 603.098 257.973 603.098 268.582V516.582C603.098 516.694 603.154 516.782 603.162 516.894C603.175 517.804 603.345 518.706 603.666 519.558V519.558ZM635.714 556.582H650.482L643.098 575.046L635.714 556.582ZM656.882 540.582H629.314L622.914 524.582H663.282L656.882 540.582ZM635.098 508.582H619.098V324.582H635.098V508.582ZM619.098 308.582V292.582H667.098V308.582H619.098ZM619.098 268.582C619.098 262.217 621.626 256.112 626.127 251.611C630.628 247.111 636.732 244.582 643.098 244.582C649.463 244.582 655.567 247.111 660.068 251.611C664.569 256.112 667.098 262.217 667.098 268.582V276.582H619.098V268.582Z" fill="#246B6D" stroke="#246B6D" stroke-width="6"/>
<path d="M411.097 386.184V390.032C406.421 391.661 402.368 394.705 399.499 398.742C396.631 402.779 395.09 407.608 395.09 412.56C395.09 417.512 396.631 422.341 399.499 426.378C402.368 430.415 406.421 433.459 411.097 435.088V436.584C411.112 446.702 414.32 456.557 420.265 464.745C426.209 472.933 434.586 479.036 444.201 482.184C435.657 490.772 424.925 496.858 413.169 499.784L400.969 502.84C391.605 505.154 383.413 510.818 377.943 518.763C372.472 526.707 370.102 536.381 371.28 545.954C372.458 555.528 377.103 564.338 384.337 570.719C391.571 577.1 400.892 580.609 410.537 580.584H427.097C429.219 580.584 431.254 579.741 432.754 578.241C434.255 576.74 435.097 574.706 435.097 572.584C435.097 570.462 434.255 568.427 432.754 566.927C431.254 565.427 429.219 564.584 427.097 564.584H410.537C404.818 564.578 399.298 562.483 395.016 558.691C390.734 554.9 387.985 549.674 387.287 543.998C386.589 538.321 387.99 532.585 391.226 527.869C394.462 523.153 399.31 519.783 404.857 518.392L417.057 515.344C435.593 510.694 451.936 499.747 463.289 484.376C475.241 483.319 486.364 477.828 494.471 468.984C502.578 460.14 507.082 448.582 507.097 436.584V435.112C511.774 433.483 515.827 430.439 518.696 426.402C521.564 422.365 523.105 417.536 523.105 412.584C523.105 407.632 521.564 402.803 518.696 398.766C515.827 394.729 511.774 391.685 507.097 390.056V386.184C519.517 375.107 527.701 360.059 530.251 343.614C532.8 327.169 529.556 310.349 521.073 296.032C519.994 294.204 518.234 292.88 516.178 292.35C514.123 291.82 511.941 292.129 510.113 293.208C508.285 294.287 506.961 296.048 506.431 298.103C505.902 300.158 506.21 302.34 507.289 304.168C514.161 315.75 516.61 329.428 514.184 342.675C511.757 355.923 504.62 367.845 494.089 376.24C493.155 376.99 492.402 377.94 491.884 379.02C491.366 380.1 491.097 381.282 491.097 382.48V388.584H484.033L491.049 325.464C491.197 324.13 491.007 322.78 490.497 321.538C489.986 320.297 489.171 319.204 488.128 318.36C487.084 317.516 485.844 316.949 484.523 316.71C483.203 316.47 481.843 316.568 480.569 316.992L459.097 324.152L437.625 316.992C436.352 316.568 434.992 316.47 433.671 316.71C432.351 316.949 431.111 317.516 430.067 318.36C429.023 319.204 428.209 320.297 427.698 321.538C427.187 322.78 426.997 324.13 427.145 325.464L434.161 388.584H427.097V382.504C427.098 381.306 426.829 380.124 426.311 379.044C425.793 377.964 425.039 377.014 424.105 376.264C413.024 367.433 405.706 354.726 403.631 340.709C401.555 326.692 404.875 312.409 412.921 300.746C420.968 289.082 433.14 280.906 446.981 277.869C460.821 274.832 475.299 277.161 487.489 284.384C489.317 285.463 491.499 285.771 493.554 285.242C495.61 284.712 497.37 283.388 498.449 281.56C499.528 279.732 499.837 277.55 499.307 275.495C498.778 273.44 497.453 271.679 495.625 270.6C480.245 261.545 462.049 258.53 444.571 262.139C427.092 265.749 411.579 275.725 401.043 290.131C390.508 304.537 385.703 322.345 387.561 340.095C389.419 357.845 397.807 374.272 411.097 386.184V386.184ZM459.097 468.584C450.61 468.584 442.471 465.212 436.47 459.211C430.469 453.21 427.097 445.071 427.097 436.584H491.097C491.097 445.071 487.726 453.21 481.725 459.211C475.724 465.212 467.584 468.584 459.097 468.584ZM444.433 336.128L456.569 340.176C458.21 340.722 459.984 340.722 461.625 340.176L473.761 336.128L467.937 388.584H450.297L444.433 336.128ZM443.097 404.584H499.097C501.219 404.584 503.254 405.427 504.754 406.927C506.255 408.427 507.097 410.462 507.097 412.584C507.097 414.706 506.255 416.74 504.754 418.241C503.254 419.741 501.219 420.584 499.097 420.584H419.097C416.976 420.584 414.941 419.741 413.44 418.241C411.94 416.74 411.097 414.706 411.097 412.584C411.097 410.462 411.94 408.427 413.44 406.927C414.941 405.427 416.976 404.584 419.097 404.584H443.097Z" fill="#246B6D" stroke="#246B6D" stroke-width="6"/>
<path d="M363.098 340.582C367.516 340.582 371.098 337 371.098 332.582C371.098 328.164 367.516 324.582 363.098 324.582C358.679 324.582 355.098 328.164 355.098 332.582C355.098 337 358.679 340.582 363.098 340.582Z" fill="#246B6D" stroke="#246B6D" stroke-width="6"/>
<path d="M555.098 340.582C559.516 340.582 563.098 337 563.098 332.582C563.098 328.164 559.516 324.582 555.098 324.582C550.679 324.582 547.098 328.164 547.098 332.582C547.098 337 550.679 340.582 555.098 340.582Z" fill="#246B6D" stroke="#246B6D" stroke-width="6"/>
<path d="M459.098 244.582C463.516 244.582 467.098 241 467.098 236.582C467.098 232.164 463.516 228.582 459.098 228.582C454.679 228.582 451.098 232.164 451.098 236.582C451.098 241 454.679 244.582 459.098 244.582Z" fill="#246B6D" stroke="#246B6D" stroke-width="6"/>
<path d="M371.961 291.51C373.331 292.301 374.905 292.668 376.484 292.565C378.063 292.461 379.576 291.892 380.831 290.929C382.086 289.966 383.028 288.652 383.536 287.154C384.045 285.655 384.098 284.04 383.688 282.512C383.279 280.983 382.425 279.611 381.236 278.567C380.046 277.524 378.574 276.857 377.005 276.65C375.436 276.444 373.842 276.707 372.423 277.407C371.004 278.107 369.824 279.212 369.033 280.582C367.972 282.42 367.684 284.603 368.234 286.652C368.783 288.702 370.123 290.449 371.961 291.51Z" fill="#246B6D" stroke="#246B6D" stroke-width="6"/>
<path d="M538.234 387.51C539.604 388.301 541.179 388.668 542.757 388.565C544.336 388.461 545.849 387.892 547.104 386.929C548.36 385.966 549.301 384.652 549.81 383.154C550.318 381.655 550.371 380.04 549.962 378.512C549.552 376.983 548.699 375.611 547.509 374.567C546.32 373.524 544.847 372.857 543.279 372.65C541.71 372.444 540.115 372.707 538.696 373.407C537.277 374.107 536.097 375.212 535.306 376.582C534.245 378.42 533.958 380.603 534.507 382.652C535.056 384.702 536.397 386.449 538.234 387.51Z" fill="#246B6D" stroke="#246B6D" stroke-width="6"/>
<path d="M509.169 257.177C513.437 256.034 515.97 251.647 514.826 247.379C513.683 243.112 509.296 240.579 505.028 241.722C500.76 242.866 498.228 247.253 499.371 251.52C500.515 255.788 504.902 258.321 509.169 257.177Z" fill="#246B6D" stroke="#246B6D" stroke-width="6"/>
<path d="M546.234 291.51C547.605 290.719 548.71 289.539 549.409 288.12C550.109 286.701 550.372 285.107 550.166 283.538C549.959 281.969 549.292 280.497 548.249 279.307C547.206 278.118 545.833 277.264 544.305 276.855C542.776 276.445 541.161 276.498 539.663 277.007C538.164 277.515 536.851 278.457 535.887 279.712C534.924 280.967 534.355 282.48 534.251 284.059C534.148 285.638 534.515 287.212 535.306 288.582C536.367 290.42 538.115 291.76 540.164 292.309C542.213 292.859 544.397 292.571 546.234 291.51Z" fill="#246B6D" stroke="#246B6D" stroke-width="6"/>
<path d="M382.889 376.582C382.098 375.212 380.918 374.107 379.499 373.407C378.08 372.707 376.485 372.444 374.917 372.65C373.348 372.857 371.876 373.524 370.686 374.567C369.497 375.611 368.643 376.983 368.234 378.512C367.824 380.04 367.877 381.655 368.386 383.154C368.894 384.652 369.836 385.966 371.091 386.929C372.346 387.892 373.859 388.461 375.438 388.565C377.017 388.668 378.591 388.301 379.961 387.51C381.799 386.449 383.139 384.702 383.688 382.652C384.237 380.603 383.95 378.42 382.889 376.582Z" fill="#246B6D" stroke="#246B6D" stroke-width="6"/>
<path d="M415.098 256.374C416.468 255.582 417.573 254.403 418.273 252.984C418.972 251.565 419.236 249.97 419.029 248.401C418.823 246.832 418.156 245.36 417.112 244.171C416.069 242.981 414.696 242.127 413.168 241.718C411.64 241.308 410.024 241.361 408.526 241.87C407.028 242.379 405.714 243.32 404.751 244.575C403.788 245.831 403.218 247.343 403.115 248.922C403.011 250.501 403.378 252.075 404.17 253.446C405.23 255.283 406.978 256.624 409.027 257.173C411.077 257.722 413.26 257.434 415.098 256.374V256.374Z" fill="#246B6D" stroke="#246B6D" stroke-width="6"/>
<path d="M499.099 644.582H531.099C533.221 644.582 535.255 643.739 536.756 642.239C538.256 640.739 539.099 638.704 539.099 636.582V623.134C541.814 621.853 544.42 620.352 546.891 618.646L558.523 625.366C560.36 626.427 562.544 626.714 564.593 626.165C566.643 625.616 568.39 624.275 569.451 622.438L585.451 594.726C586.512 592.889 586.799 590.705 586.25 588.656C585.701 586.606 584.36 584.859 582.523 583.798L570.907 577.086C571.035 575.574 571.099 574.078 571.099 572.582C571.099 571.086 571.035 569.59 570.907 568.078L582.523 561.366C584.36 560.305 585.701 558.558 586.25 556.508C586.799 554.459 586.512 552.275 585.451 550.438L569.451 522.726C568.39 520.889 566.643 519.548 564.593 518.999C562.544 518.45 560.36 518.737 558.523 519.798L546.891 526.518C544.42 524.812 541.814 523.311 539.099 522.03V508.582C539.099 506.46 538.256 504.425 536.756 502.925C535.255 501.425 533.221 500.582 531.099 500.582H499.099C496.977 500.582 494.942 501.425 493.442 502.925C491.942 504.425 491.099 506.46 491.099 508.582V522.03C488.383 523.311 485.777 524.812 483.307 526.518L471.675 519.798C469.837 518.737 467.654 518.45 465.604 518.999C463.555 519.548 461.808 520.889 460.747 522.726L444.747 550.438C443.686 552.275 443.399 554.459 443.948 556.508C444.497 558.558 445.837 560.305 447.675 561.366L459.291 568.078C459.163 569.59 459.099 571.086 459.099 572.582C459.099 574.078 459.163 575.574 459.291 577.086L447.675 583.798C446.758 584.319 445.953 585.017 445.306 585.851C444.66 586.685 444.185 587.638 443.908 588.656C443.632 589.675 443.56 590.737 443.696 591.784C443.832 592.83 444.173 593.839 444.701 594.753C445.228 595.666 445.931 596.467 446.769 597.108C447.608 597.748 448.564 598.217 449.584 598.487C450.604 598.756 451.667 598.822 452.713 598.679C453.758 598.536 454.765 598.188 455.675 597.654L471.899 588.262C473.33 587.437 474.471 586.188 475.164 584.689C475.858 583.189 476.069 581.511 475.771 579.886C474.832 575.062 474.832 570.102 475.771 565.278C476.069 563.653 475.858 561.975 475.164 560.475C474.471 558.976 473.33 557.727 471.899 556.902L462.571 551.51L470.571 537.654L479.899 543.046C481.332 543.873 482.986 544.236 484.634 544.084C486.281 543.932 487.841 543.273 489.099 542.198C492.829 539.013 497.114 536.543 501.739 534.91C503.303 534.363 504.658 533.345 505.618 531.995C506.578 530.645 507.096 529.03 507.099 527.374V516.582H523.099V527.374C523.1 529.027 523.613 530.638 524.567 531.988C525.521 533.337 526.869 534.358 528.427 534.91C533.052 536.543 537.337 539.013 541.067 542.198C542.324 543.273 543.884 543.932 545.532 544.084C547.18 544.236 548.834 543.873 550.267 543.046L559.595 537.654L567.595 551.51L558.299 556.902C556.868 557.727 555.727 558.976 555.034 560.475C554.34 561.975 554.128 563.653 554.427 565.278C555.366 570.102 555.366 575.062 554.427 579.886C554.128 581.511 554.34 583.189 555.034 584.689C555.727 586.188 556.868 587.437 558.299 588.262L567.627 593.654L559.627 607.51L550.299 602.118C548.866 601.291 547.212 600.928 545.564 601.08C543.916 601.232 542.356 601.891 541.099 602.966C537.369 606.151 533.084 608.621 528.459 610.254C526.901 610.806 525.553 611.827 524.599 613.176C523.645 614.526 523.132 616.137 523.131 617.79V628.582H507.099V617.79C507.098 616.137 506.585 614.526 505.631 613.176C504.677 611.827 503.329 610.806 501.771 610.254C497.146 608.621 492.861 606.151 489.131 602.966C487.873 601.891 486.313 601.232 484.666 601.08C483.018 600.928 481.364 601.291 479.931 602.118L463.675 611.51C462.758 612.031 461.953 612.729 461.306 613.563C460.66 614.397 460.185 615.35 459.908 616.368C459.632 617.387 459.56 618.449 459.696 619.496C459.832 620.542 460.173 621.551 460.701 622.465C461.228 623.378 461.931 624.179 462.769 624.82C463.608 625.46 464.564 625.929 465.584 626.199C466.604 626.468 467.667 626.534 468.713 626.391C469.758 626.248 470.765 625.9 471.675 625.366L483.307 618.646C485.777 620.352 488.383 621.853 491.099 623.134V636.582C491.099 638.704 491.942 640.739 493.442 642.239C494.942 643.739 496.977 644.582 499.099 644.582Z" fill="#246B6D" stroke="#246B6D" stroke-width="6"/>
<path d="M539.098 572.582C539.098 567.835 537.69 563.195 535.053 559.248C532.416 555.302 528.667 552.225 524.282 550.409C519.897 548.592 515.071 548.117 510.416 549.043C505.76 549.969 501.484 552.255 498.127 555.611C494.771 558.968 492.485 563.244 491.559 567.9C490.633 572.555 491.108 577.381 492.925 581.766C494.741 586.152 497.817 589.9 501.764 592.537C505.711 595.174 510.351 596.582 515.098 596.582C521.463 596.582 527.567 594.053 532.068 589.553C536.569 585.052 539.098 578.947 539.098 572.582ZM507.098 572.582C507.098 571 507.567 569.453 508.446 568.137C509.325 566.822 510.574 565.797 512.036 565.191C513.498 564.586 515.107 564.427 516.658 564.736C518.21 565.044 519.636 565.806 520.755 566.925C521.873 568.044 522.635 569.469 522.944 571.021C523.253 572.573 523.094 574.182 522.489 575.644C521.883 577.105 520.858 578.355 519.542 579.234C518.227 580.113 516.68 580.582 515.098 580.582C512.976 580.582 510.941 579.739 509.441 578.239C507.941 576.739 507.098 574.704 507.098 572.582Z" fill="#246B6D" stroke="#246B6D" stroke-width="6"/>
<path d="M523.098 676.582H619.098C627.585 676.582 635.724 673.211 641.725 667.209C647.726 661.208 651.098 653.069 651.098 644.582V628.582C651.098 626.46 650.255 624.425 648.755 622.925C647.254 621.425 645.219 620.582 643.098 620.582C640.976 620.582 638.941 621.425 637.441 622.925C635.941 624.425 635.098 626.46 635.098 628.582V644.582C635.098 648.825 633.412 652.895 630.411 655.896C627.411 658.896 623.341 660.582 619.098 660.582H523.098C520.976 660.582 518.941 661.425 517.441 662.925C515.941 664.425 515.098 666.46 515.098 668.582C515.098 670.704 515.941 672.739 517.441 674.239C518.941 675.739 520.976 676.582 523.098 676.582Z" fill="#246B6D" stroke="#246B6D" stroke-width="6"/>
<path d="M379.098 644.582C379.098 649.329 380.505 653.969 383.142 657.916C385.78 661.862 389.528 664.939 393.913 666.755C398.299 668.572 403.124 669.047 407.78 668.121C412.435 667.195 416.712 664.909 420.068 661.553C423.425 658.196 425.71 653.92 426.637 649.264C427.563 644.609 427.087 639.783 425.271 635.398C423.454 631.012 420.378 627.264 416.431 624.627C412.485 621.99 407.844 620.582 403.098 620.582C396.732 620.582 390.628 623.111 386.127 627.611C381.626 632.112 379.098 638.217 379.098 644.582V644.582ZM411.098 644.582C411.098 646.164 410.628 647.711 409.749 649.027C408.87 650.342 407.621 651.368 406.159 651.973C404.697 652.579 403.089 652.737 401.537 652.428C399.985 652.12 398.56 651.358 397.441 650.239C396.322 649.12 395.56 647.695 395.251 646.143C394.943 644.591 395.101 642.982 395.707 641.521C396.312 640.059 397.337 638.809 398.653 637.93C399.969 637.051 401.515 636.582 403.098 636.582C405.219 636.582 407.254 637.425 408.755 638.925C410.255 640.425 411.098 642.46 411.098 644.582Z" fill="#246B6D" stroke="#246B6D" stroke-width="6"/>
</svg>
