<svg width="951" height="952" viewBox="0 0 951 952" fill="none" xmlns="http://www.w3.org/2000/svg">
<circle cx="475.633" cy="476.059" r="459.598" fill="white" stroke="#246B6D" stroke-width="31"/>
<path d="M704.141 652.875H566.271L607.001 584.991C607.729 583.777 608.122 582.391 608.14 580.976C608.158 579.56 607.8 578.165 607.102 576.933C606.405 575.701 605.393 574.676 604.17 573.964C602.947 573.251 601.556 572.875 600.141 572.875H560.141V528.189L669.798 418.532C671.298 417.031 672.141 414.997 672.141 412.875V380.875H656.141V409.561L546.483 519.218C544.983 520.719 544.141 522.753 544.141 524.875V572.875H528.141V524.875C528.141 522.753 527.298 520.719 525.798 519.218L416.141 409.561V380.875H400.141V412.875C400.141 414.997 400.983 417.031 402.483 418.532L512.141 528.189V572.875H504.141C502.73 572.875 501.345 573.248 500.125 573.956C498.905 574.664 497.894 575.681 497.194 576.906L467.498 628.875H466.265L415.407 599.813L411.069 573.78C409.931 566.924 407.316 560.398 403.404 554.653C399.493 548.909 394.38 544.083 388.418 540.512L375.197 532.579C375.824 530.059 376.14 527.472 376.141 524.875V487.297C376.141 482.515 374.843 477.822 372.385 473.719C369.928 469.617 366.403 466.258 362.186 464.001C357.97 461.745 353.22 460.675 348.443 460.906C343.666 461.137 339.042 462.66 335.063 465.313L315.703 478.219C314.607 478.949 313.709 479.939 313.087 481.1C312.466 482.261 312.141 483.558 312.141 484.875V524.875C312.141 527.684 312.511 530.48 313.243 533.192L293.515 546.344C283.978 552.695 277.035 562.255 273.947 573.288C262.394 574.805 251.785 580.467 244.095 589.22C236.405 597.974 232.157 609.223 232.141 620.875V692.875C232.141 694.997 232.984 697.032 234.484 698.532C235.984 700.032 238.019 700.875 240.141 700.875H704.141C706.262 700.875 708.297 700.032 709.797 698.532C711.298 697.032 712.141 694.997 712.141 692.875V660.875C712.141 658.753 711.298 656.718 709.797 655.218C708.297 653.718 706.262 652.875 704.141 652.875V652.875ZM272.141 684.875H248.141V620.875C248.15 613.783 250.51 606.894 254.853 601.286C259.196 595.679 265.276 591.67 272.141 589.888V684.875ZM480.141 639L508.783 588.875H586.011L547.611 652.875H480.141V639ZM434.017 628.875H408.708L384.847 625.466L407.889 613.945L434.017 628.875ZM464.141 644.875V652.875H416.141V644.875H464.141ZM328.141 489.157L343.938 478.625C345.508 477.579 347.332 476.978 349.216 476.887C351.1 476.796 352.974 477.218 354.637 478.108C356.3 478.999 357.69 480.323 358.66 481.942C359.629 483.56 360.141 485.411 360.141 487.297V492.875H328.141V489.157ZM328.141 508.875H360.141V524.875C360.141 529.118 358.455 533.188 355.454 536.189C352.454 539.189 348.384 540.875 344.141 540.875C339.897 540.875 335.828 539.189 332.827 536.189C329.826 533.188 328.141 529.118 328.141 524.875V508.875ZM288.141 586.282C288.135 581.013 289.433 575.825 291.919 571.179C294.405 566.533 298.002 562.575 302.39 559.657L321.179 547.13C324.195 550.252 327.816 552.727 331.821 554.402C335.825 556.077 340.13 556.918 344.47 556.873C348.811 556.829 353.097 555.9 357.066 554.142C361.036 552.385 364.605 549.837 367.556 546.654L380.186 554.231C384.16 556.612 387.569 559.829 390.177 563.659C392.784 567.489 394.528 571.84 395.286 576.41L399.278 600.362L384.141 607.931V596.875H368.141V623.079L357.041 621.494L335.001 584.759L321.28 592.991L331.988 610.837L303.233 628.09L288.141 609.979V586.282ZM312.141 684.875H288.141V634.971L312.141 663.771V684.875ZM313.6 640.529L340.22 624.557L345.28 632.991C345.892 634.011 346.724 634.881 347.715 635.539C348.706 636.197 349.831 636.626 351.009 636.794L400.141 643.813V652.875H323.888L313.6 640.529ZM696.141 684.875H328.141V668.875H696.141V684.875Z" fill="#246B6D" stroke="#246B6D" stroke-width="8"/>
<path d="M432.141 348.875H448.141V412.875H432.141V348.875Z" fill="#246B6D" stroke="#246B6D" stroke-width="8"/>
<path d="M512.141 308.875C512.141 306.753 511.298 304.718 509.797 303.218C508.297 301.718 506.262 300.875 504.141 300.875H472.141C470.019 300.875 467.984 301.718 466.484 303.218C464.984 304.718 464.141 306.753 464.141 308.875V364.875C464.141 366.997 464.984 369.032 466.484 370.532C467.984 372.032 470.019 372.875 472.141 372.875H504.141C506.262 372.875 508.297 372.032 509.797 370.532C511.298 369.032 512.141 366.997 512.141 364.875V308.875ZM496.141 356.875H480.141V316.875H496.141V356.875Z" fill="#246B6D" stroke="#246B6D" stroke-width="8"/>
<path d="M576.141 356.875C576.141 354.753 575.298 352.718 573.797 351.218C572.297 349.718 570.262 348.875 568.141 348.875H536.141C534.019 348.875 531.984 349.718 530.484 351.218C528.984 352.718 528.141 354.753 528.141 356.875V420.875C528.141 422.997 528.984 425.032 530.484 426.532C531.984 428.032 534.019 428.875 536.141 428.875H568.141C570.262 428.875 572.297 428.032 573.797 426.532C575.298 425.032 576.141 422.997 576.141 420.875V356.875ZM560.141 412.875H544.141V364.875H560.141V412.875Z" fill="#246B6D" stroke="#246B6D" stroke-width="8"/>
<path d="M400.141 284.875H416.141V364.875H400.141V284.875Z" fill="#246B6D" stroke="#246B6D" stroke-width="8"/>
<path d="M496.141 268.875H512.141V284.875H496.141V268.875Z" fill="#246B6D" stroke="#246B6D" stroke-width="8"/>
<path d="M528.141 292.875H544.141V332.875H528.141V292.875Z" fill="#246B6D" stroke="#246B6D" stroke-width="8"/>
<path d="M560.141 308.875H576.141V332.875H560.141V308.875Z" fill="#246B6D" stroke="#246B6D" stroke-width="8"/>
<path d="M464.141 388.875H480.141V444.875H464.141V388.875Z" fill="#246B6D" stroke="#246B6D" stroke-width="8"/>
<path d="M496.141 388.875H512.141V412.875H496.141V388.875Z" fill="#246B6D" stroke="#246B6D" stroke-width="8"/>
<path d="M640.141 276.875C640.141 274.753 639.298 272.718 637.797 271.218C636.297 269.718 634.262 268.875 632.141 268.875H600.141C598.019 268.875 595.984 269.718 594.484 271.218C592.984 272.718 592.141 274.753 592.141 276.875V332.875C592.141 334.997 592.984 337.032 594.484 338.532C595.984 340.032 598.019 340.875 600.141 340.875H632.141C634.262 340.875 636.297 340.032 637.797 338.532C639.298 337.032 640.141 334.997 640.141 332.875V276.875ZM624.141 324.875H608.141V284.875H624.141V324.875Z" fill="#246B6D" stroke="#246B6D" stroke-width="8"/>
<path d="M656.143 284.875H672.143V356.875H656.143V284.875Z" fill="#246B6D" stroke="#246B6D" stroke-width="8"/>
<path d="M672.141 228.875C672.141 226.753 671.298 224.718 669.797 223.218C668.297 221.718 666.262 220.875 664.141 220.875H408.141C406.019 220.875 403.984 221.718 402.484 223.218C400.984 224.718 400.141 226.753 400.141 228.875V268.875H416.141V236.875H432.141V332.875H448.141V236.875H464.141V284.875H480.141V236.875H496.141V252.875H512.141V236.875H528.141V276.875H544.141V236.875H560.141V292.875H576.141V236.875H592.141V252.875H608.141V236.875H624.141V252.875H640.141V236.875H656.141V268.875H672.141V228.875Z" fill="#246B6D" stroke="#246B6D" stroke-width="8"/>
<path d="M592.141 356.875H608.141V436.875H592.141V356.875Z" fill="#246B6D" stroke="#246B6D" stroke-width="8"/>
<path d="M624.141 356.875H640.141V412.875H624.141V356.875Z" fill="#246B6D" stroke="#246B6D" stroke-width="8"/>
<path d="M496.141 428.875H512.141V476.875H496.141V428.875Z" fill="#246B6D" stroke="#246B6D" stroke-width="8"/>
<path d="M528.141 444.875H544.141V500.875H528.141V444.875Z" fill="#246B6D" stroke="#246B6D" stroke-width="8"/>
<path d="M560.141 444.875H576.141V468.875H560.141V444.875Z" fill="#246B6D" stroke="#246B6D" stroke-width="8"/>
</svg>
