<svg width="951" height="951" viewBox="0 0 951 951" fill="none" xmlns="http://www.w3.org/2000/svg">
<circle cx="475.672" cy="475.582" r="459.598" fill="white" stroke="#246B6D" stroke-width="31"/>
<path d="M510.705 644.406C516.228 644.406 520.705 639.929 520.705 634.406C520.705 628.883 516.228 624.406 510.705 624.406C505.182 624.406 500.705 628.883 500.705 634.406C500.705 639.929 505.182 644.406 510.705 644.406Z" fill="#246B6D" stroke="#246B6D" stroke-width="6"/>
<path d="M676.705 424.406C676.705 405.802 663.938 390.124 646.705 385.672V238.406C646.705 216.35 628.761 198.406 606.705 198.406H414.705C392.649 198.406 374.705 216.35 374.705 238.406V354.406H359.575C334.409 354.406 312.15 370.447 304.188 394.324C295.271 421.071 272.052 439.968 244.705 443.712V424.406C244.705 418.883 240.227 414.406 234.705 414.406H174.705C169.183 414.406 164.705 418.883 164.705 424.406V634.406C164.705 639.929 169.183 644.406 174.705 644.406H234.705C240.227 644.406 244.705 639.929 244.705 634.406V614.406H273.495C284.343 614.406 294.963 618.806 302.634 626.477C314.027 637.871 329.803 644.406 345.915 644.406H374.705V670.406C374.705 692.462 392.649 710.406 414.705 710.406H465.705C471.227 710.406 475.705 705.929 475.705 700.406C475.705 694.883 471.227 690.406 465.705 690.406H414.705C403.677 690.406 394.705 681.434 394.705 670.406V434.406H414.705C453.303 434.406 484.705 403.004 484.705 364.406C484.705 358.883 480.227 354.406 474.705 354.406H394.705V238.406C394.705 227.378 403.677 218.406 414.705 218.406H606.705C617.733 218.406 626.705 227.378 626.705 238.406V384.406H606.705C584.649 384.406 566.705 402.35 566.705 424.406C566.705 436.344 571.969 447.071 580.29 454.406C571.969 461.741 566.705 472.468 566.705 484.406C566.705 496.344 571.969 507.071 580.29 514.406C571.969 521.741 566.705 532.468 566.705 544.406C566.705 556.344 571.969 567.071 580.29 574.406C571.969 581.741 566.705 592.468 566.705 604.406C566.705 626.462 584.649 644.406 606.705 644.406H626.705V670.406C626.705 681.434 617.733 690.406 606.705 690.406H555.705C550.183 690.406 545.705 694.883 545.705 700.406C545.705 705.929 550.183 710.406 555.705 710.406H606.705C628.761 710.406 646.705 692.462 646.705 670.406V643.14C663.938 638.688 676.705 623.01 676.705 604.406C676.705 592.468 671.441 581.741 663.12 574.406C671.441 567.071 676.705 556.344 676.705 544.406C676.705 532.468 671.441 521.741 663.12 514.406C671.441 507.071 676.705 496.344 676.705 484.406C676.705 472.468 671.441 461.741 663.12 454.406C671.441 447.071 676.705 436.344 676.705 424.406ZM224.705 624.406H184.705V434.406H224.705V624.406ZM414.705 414.406H384.705C379.183 414.406 374.705 418.883 374.705 424.406V454.406C374.705 481.976 352.275 504.406 324.705 504.406C319.183 504.406 314.705 508.883 314.705 514.406C314.705 519.929 319.183 524.406 324.705 524.406C344.277 524.406 361.989 516.322 374.705 503.329V624.406H345.915C335.067 624.406 324.447 620.006 316.776 612.335C305.383 600.941 289.607 594.406 273.495 594.406H244.705V463.858C280.699 460.005 311.515 435.586 323.161 400.65C328.396 384.953 343.029 374.406 359.575 374.396H463.7C459.055 397.2 438.851 414.406 414.705 414.406ZM656.705 604.406C656.705 615.434 647.733 624.406 636.705 624.406H606.705C595.677 624.406 586.705 615.434 586.705 604.406C586.705 593.378 595.677 584.406 606.705 584.406H636.705C647.733 584.406 656.705 593.378 656.705 604.406ZM656.705 544.406C656.705 555.434 647.733 564.406 636.705 564.406H606.705C595.677 564.406 586.705 555.434 586.705 544.406C586.705 533.378 595.677 524.406 606.705 524.406H636.705C647.733 524.406 656.705 533.378 656.705 544.406ZM656.705 484.406C656.705 495.434 647.733 504.406 636.705 504.406H606.705C595.677 504.406 586.705 495.434 586.705 484.406C586.705 473.378 595.677 464.406 606.705 464.406H636.705C647.733 464.406 656.705 473.378 656.705 484.406ZM606.705 444.406C595.677 444.406 586.705 435.434 586.705 424.406C586.705 413.378 595.677 404.406 606.705 404.406H636.705C647.733 404.406 656.705 413.378 656.705 424.406C656.705 435.434 647.733 444.406 636.705 444.406H606.705Z" fill="#246B6D" stroke="#246B6D" stroke-width="6"/>
<path d="M550.705 268.406C550.705 262.883 546.227 258.406 540.705 258.406H480.705C475.183 258.406 470.705 262.883 470.705 268.406C470.705 273.929 475.183 278.406 480.705 278.406H540.705C546.227 278.406 550.705 273.929 550.705 268.406Z" fill="#246B6D" stroke="#246B6D" stroke-width="6"/>
<path d="M517.685 707.461C521.589 703.556 521.589 697.225 517.685 693.321C513.78 689.416 507.449 689.416 503.545 693.321C499.64 697.225 499.64 703.556 503.545 707.461C507.449 711.365 513.78 711.365 517.685 707.461Z" fill="#246B6D" stroke="#246B6D" stroke-width="6"/>
</svg>
