<svg width="952" height="951" viewBox="0 0 952 951" fill="none" xmlns="http://www.w3.org/2000/svg">
<circle cx="475.952" cy="475.582" r="459.598" fill="white" stroke="#246B6D" stroke-width="31"/>
<path d="M476.004 460.537C506.762 460.537 533.393 449.505 555.158 427.74C576.917 405.978 587.952 379.351 587.952 348.589C587.952 317.838 576.92 291.207 555.155 269.438C533.389 247.68 506.759 236.648 476.004 236.648C445.243 236.648 418.616 247.68 396.854 269.442C375.092 291.204 364.057 317.834 364.057 348.589C364.057 379.351 375.092 405.981 396.854 427.743C418.623 449.502 445.253 460.537 476.004 460.537V460.537ZM416.116 288.7C432.814 272.002 452.402 263.885 476.004 263.885C499.603 263.885 519.195 272.002 535.897 288.7C552.595 305.402 560.715 324.994 560.715 348.589C560.715 372.191 552.595 391.779 535.897 408.481C519.195 425.183 499.603 433.3 476.004 433.3C452.409 433.3 432.821 425.179 416.116 408.481C399.414 391.783 391.294 372.191 391.294 348.589C391.294 324.994 399.414 305.402 416.116 288.7Z" fill="#246B6D"/>
<path d="M671.882 594.043C671.254 584.987 669.985 575.107 668.116 564.675C666.23 554.165 663.801 544.229 660.893 535.147C657.886 525.761 653.804 516.492 648.751 507.609C643.514 498.389 637.358 490.361 630.45 483.755C623.227 476.844 614.383 471.287 604.157 467.234C593.965 463.202 582.671 461.16 570.59 461.16C565.846 461.16 561.257 463.107 552.395 468.876C546.942 472.433 540.562 476.546 533.442 481.095C527.354 484.975 519.106 488.609 508.918 491.9C498.978 495.116 488.886 496.748 478.922 496.748C468.965 496.748 458.873 495.116 448.926 491.9C438.749 488.613 430.498 484.978 424.42 481.099C417.367 476.592 410.984 472.479 405.449 468.872C396.594 463.103 392.006 461.156 387.261 461.156C375.176 461.156 363.886 463.202 353.698 467.238C343.478 471.284 334.631 476.84 327.401 483.759C320.493 490.368 314.337 498.393 309.103 507.609C304.057 516.492 299.972 525.758 296.965 535.151C294.061 544.232 291.632 554.165 289.746 564.675C287.873 575.093 286.607 584.976 285.98 594.054C285.363 602.929 285.051 612.167 285.051 621.5C285.051 645.762 292.763 665.403 307.972 679.889C322.993 694.183 342.865 701.431 367.038 701.431H590.834C615 701.431 634.872 694.183 649.897 679.889C665.109 665.414 672.822 645.765 672.822 621.496C672.818 612.131 672.503 602.894 671.882 594.043ZM631.117 660.155C621.192 669.602 608.015 674.194 590.831 674.194H367.038C349.851 674.194 336.674 669.602 326.752 660.159C317.018 650.893 312.288 638.244 312.288 621.5C312.288 612.791 312.575 604.192 313.149 595.937C313.71 587.838 314.855 578.941 316.554 569.487C318.231 560.15 320.366 551.388 322.904 543.456C325.341 535.85 328.663 528.318 332.784 521.063C336.716 514.148 341.241 508.215 346.234 503.435C350.904 498.964 356.79 495.304 363.726 492.56C370.141 490.021 377.35 488.631 385.176 488.422C386.13 488.929 387.828 489.897 390.58 491.691C396.179 495.34 402.633 499.503 409.768 504.059C417.81 509.187 428.171 513.818 440.551 517.814C453.206 521.907 466.114 523.985 478.926 523.985C491.737 523.985 504.648 521.907 517.297 517.818C529.687 513.815 540.045 509.187 548.098 504.052C555.399 499.386 561.672 495.343 567.271 491.691C570.023 489.9 571.721 488.929 572.675 488.422C580.505 488.631 587.714 490.021 594.132 492.56C601.065 495.304 606.951 498.967 611.621 503.435C616.614 508.212 621.139 514.144 625.071 521.066C629.195 528.318 632.521 535.853 634.954 543.452C637.496 551.395 639.635 560.154 641.308 569.483C643.003 578.955 644.152 587.855 644.712 595.94V595.947C645.29 604.171 645.581 612.766 645.585 621.5C645.581 638.248 640.851 650.893 631.117 660.155Z" fill="#246B6D"/>
</svg>
