<svg id="Capa_1" enable-background="new 0 0 512 512" height="512" viewBox="0 0 512 512" width="512" xmlns="http://www.w3.org/2000/svg"><g><g><path clip-rule="evenodd" d="m110.628 198.614-28.119 8.475c-11.792 3.543-18.538 16.1-14.967 27.892 3.543 11.792 16.1 18.538 27.892 14.967l15.392-4.62 28.119-8.475.085-.028c11.735-3.6 18.425-16.1 14.882-27.864-3.543-11.792-16.1-18.538-27.892-14.995z" fill="#ffdcd5" fill-rule="evenodd"/></g><g><path clip-rule="evenodd" d="m97.702 155.726-29.225 8.816-14.286 4.28c-11.792 3.572-18.538 16.129-14.967 27.921 3.543 11.792 16.1 18.51 27.892 14.967l15.392-4.62 28.119-8.475c11.792-3.572 18.538-16.129 14.967-27.921-3.542-11.793-16.1-18.511-27.892-14.968z" fill="#ffdcd5" fill-rule="evenodd"/></g><g><path clip-rule="evenodd" d="m298.448 192.236c-18.17-.198-28.488-8.362-38.352-18.255l-24.151-24.151c-13.294-13.266-12.33-13.691-30.33-19.077l-57.571-17.263c-14.06-4.195-22.11-19.133-17.915-33.193 3.628-12.075 15.165-19.729 27.269-18.963l-51.362-51.334-96.036 96.036 58.478 58.506 29.225-8.816c11.792-3.543 24.349 3.175 27.892 14.967 3.572 11.792-3.175 24.349-14.967 27.921l15.392-4.649c11.792-3.543 24.349 3.203 27.892 14.995 3.543 11.764-3.146 24.264-14.882 27.864l15.307-4.62c11.792-3.543 24.349 3.203 27.892 14.995s-3.203 24.349-14.995 27.892l15.392-4.649c11.792-3.543 24.349 3.203 27.921 14.995 3.543 11.792-3.203 24.349-14.995 27.892l-2.806.85c3.742 11.905 5.669 24.151 5.131 36.651l-1.304 29.281-.68 16.1c-.539 12.302 9.071 22.818 21.373 23.357s22.79-9.042 23.357-21.316l-.709 15.987c-.539 12.302 9.099 22.79 21.401 23.329s22.818-9.071 23.357-21.373l-.709 16.044c-.539 12.302 9.099 22.818 21.401 23.357s22.818-9.099 23.357-21.401l-.709 16.044c-.539 12.302 9.099 22.818 21.401 23.357 7.71.34 14.712-3.316 18.992-9.127 2.551-3.458 4.139-7.682 4.337-12.274l1.984-45.382 1.984-65.904c1.049-35.262 6.888-37.303 73.926 13.691-7.653-81.324-64.572-137.478-117.494-155.846-11.96-4.165-23.752-6.376-34.694-6.518z" fill="#ffd0c7" fill-rule="evenodd"/></g><g><path clip-rule="evenodd" d="m267.098 109.437c-9.212-12.472-11.792-19.474-28.034-24.349l-75.712-22.677c-1.984-.595-3.968-.935-5.953-1.077-12.104-.765-23.641 6.888-27.269 18.963-4.195 14.06 3.855 28.998 17.915 33.193l57.571 17.263c18 5.386 17.036 5.811 30.33 19.077l24.151 24.151c9.864 9.893 20.182 18.056 38.352 18.255 10.941.142 22.733 2.353 34.695 6.52z" fill="#ffdcd5" fill-rule="evenodd"/></g><g><path clip-rule="evenodd" d="m450.637 354.601c-67.038-50.994-72.877-48.953-73.926-13.691l-1.984 65.904-1.984 45.382c-.198 4.592-1.786 8.816-4.337 12.274l37.53 37.53 96.064-96.064z" fill="#ffdcd5" fill-rule="evenodd"/></g><g><path clip-rule="evenodd" d="m154.338 232.204-15.307 4.62c-.028 0-.057.028-.085.028l-28.119 8.475c-11.792 3.543-18.538 16.1-14.995 27.892 3.572 11.792 16.1 18.538 27.892 14.967l15.392-4.62 28.119-8.475c11.792-3.543 18.538-16.1 14.995-27.892s-16.101-18.539-27.892-14.995z" fill="#ffdcd5" fill-rule="evenodd"/></g><g><path clip-rule="evenodd" d="m182.627 270.442-15.392 4.649-28.119 8.475c-11.792 3.543-18.51 16.1-14.967 27.892s16.1 18.538 27.892 14.995l40.705-12.274 2.806-.85c11.792-3.543 18.538-16.1 14.995-27.892-3.571-11.792-16.128-18.538-27.92-14.995z" fill="#ffdcd5" fill-rule="evenodd"/></g><g><path d="m509.069 398.863-48.864-48.84c-2.856-25.55-10.457-49.834-22.639-72.228-2.64-4.852-8.712-6.646-13.563-4.005-4.852 2.639-6.646 8.711-4.006 13.563 7.642 14.047 13.281 28.927 16.863 44.453-32.095-23.448-46.46-30.209-57.716-24.835-11.594 5.535-12.058 21.12-12.43 33.639l-1.982 65.839-1.981 45.311c-.144 3.287-1.573 6.335-4.024 8.585-2.447 2.246-5.598 3.407-8.876 3.262-6.832-.299-12.147-6.1-11.849-12.93l.688-15.74c.005-.101.016-.201.021-.302.002-.05-.002-.099-.001-.149l1.276-29.19c.241-5.518-4.036-10.186-9.554-10.427-5.504-.264-10.186 4.036-10.427 9.553l-1.289 29.483c-.377 6.76-6.101 11.994-12.916 11.703-6.832-.299-12.147-6.1-11.849-12.93l.688-15.741c.005-.101.016-.202.021-.303.002-.05-.002-.098-.001-.147l1.276-29.19c.241-5.518-4.036-10.186-9.554-10.427-5.494-.264-10.187 4.036-10.427 9.553l-1.289 29.488c-.18 3.219-1.597 6.201-4.011 8.41-2.456 2.246-5.611 3.395-8.904 3.26-3.287-.144-6.336-1.573-8.586-4.025-2.247-2.448-3.405-5.6-3.262-8.877l.691-15.829c.004-.081.013-.161.017-.243.002-.04-.002-.079-.001-.12l1.276-29.219c.241-5.518-4.036-10.186-9.554-10.427-5.557-.254-10.187 4.036-10.427 9.554l-1.287 29.455c-.361 6.774-6.149 12.019-12.917 11.73-3.277-.144-6.317-1.573-8.561-4.026-2.246-2.456-3.403-5.617-3.259-8.918l.68-16.078 1.305-29.296c.436-10.123-.609-20.525-3.095-31.027 5.394-2.976 9.838-7.446 12.835-13.023 4.104-7.637 4.998-16.392 2.509-24.672-3.874-12.79-14.999-21.453-27.519-22.845.977-5.063.729-10.31-.792-15.372-2.482-8.262-8.057-15.073-15.695-19.179-3.737-2.009-7.743-3.243-11.828-3.694.947-4.957.756-10.205-.794-15.366-2.482-8.262-8.057-15.073-15.695-19.179-3.734-2.007-7.736-3.24-11.817-3.692.953-4.97.76-10.23-.805-15.396-2.483-8.264-8.061-15.072-15.705-19.17-7.634-4.092-16.385-4.978-24.646-2.495l-23.513 7.077-47.167-47.189 81.897-81.898 31.818 31.801c-8.055 4.486-14.449 11.982-17.308 21.498-2.793 9.358-1.766 19.268 2.893 27.903 4.662 8.642 12.385 14.939 21.732 17.728l57.576 17.265c13.782 4.124 13.782 4.124 22.544 12.968 1.077 1.087 2.263 2.284 3.581 3.6l24.141 24.14c10.092 10.122 22.749 20.942 45.307 21.193 20.654.264 44.121 8.63 66.078 23.556 1.722 1.17 3.678 1.731 5.613 1.731 3.2 0 6.345-1.533 8.279-4.379 3.104-4.567 1.919-10.787-2.648-13.892-11.776-8.005-24.034-14.34-36.258-18.873l-64.244-86.881c-1.361-1.842-2.575-3.567-3.75-5.235-6.938-9.854-12.418-17.637-29.459-22.752l-75.704-22.674c-1.387-.417-2.781-.738-4.174-.985l-48.946-48.927c-3.907-3.903-10.235-3.901-14.141.002l-96.036 96.036c-3.904 3.905-3.905 10.235-.002 14.141l46.686 46.708c-7.499 2.719-13.663 8.047-17.478 15.159-4.102 7.646-4.982 16.407-2.487 24.647 2.483 8.264 8.061 15.072 15.705 19.17 3.73 2 7.728 3.223 11.805 3.673-.979 5.075-.726 10.333.807 15.396 2.484 8.268 8.063 15.08 15.707 19.181 3.731 2.002 7.728 3.225 11.799 3.674-.954 4.968-.765 10.23.79 15.405 3.88 12.807 15.01 21.443 27.518 22.816-.979 5.071-.731 10.328.794 15.401 2.482 8.262 8.057 15.073 15.695 19.179 4.802 2.581 10.045 3.892 15.333 3.892 3.121 0 6.259-.457 9.328-1.379l30.802-9.291c1.75 8.057 2.486 15.982 2.156 23.649l-1.305 29.304-.68 16.085c-.378 8.617 2.635 16.883 8.482 23.277 5.853 6.399 13.823 10.131 22.444 10.508.479.021.956.032 1.432.032 4.87 0 9.511-1.091 13.682-3.046 1.443 3.84 3.624 7.411 6.489 10.532 5.857 6.382 13.829 10.104 22.445 10.481.481.021.962.032 1.441.032 4.781 0 9.423-1.052 13.669-3.045 4.424 11.805 15.57 20.456 28.939 21.041.48.021.958.032 1.435.032 4.871 0 9.514-1.092 13.686-3.048 4.431 11.792 15.569 20.431 28.929 21.016.481.021.96.032 1.438.032 6.343 0 12.441-1.85 17.687-5.31l30.762 30.762c1.953 1.953 4.512 2.929 7.071 2.929s5.118-.977 7.071-2.929l96.064-96.064c1.875-1.876 2.929-4.42 2.929-7.073.003-2.652-1.052-5.196-2.928-7.071zm-369.362-315.688c1.275-4.244 4.147-7.75 8.087-9.872 3.938-2.121 8.443-2.588 12.688-1.312l75.706 22.675c10.412 3.126 12.71 6.389 18.85 15.109 1.182 1.677 2.521 3.578 4.019 5.608l49.943 67.541c-3.519-.4-7.001-.643-10.423-.687-.002 0-.004 0-.007 0-.004 0-.008-.001-.012-.001-13.69-.149-21.591-5.498-31.391-15.327l-24.158-24.158c-1.296-1.293-2.454-2.462-3.508-3.526-10.955-11.059-13.39-12.778-31.014-18.051l-57.583-17.267c-4.236-1.264-7.738-4.127-9.861-8.063-2.125-3.936-2.597-8.443-1.336-12.669zm-75.468 118.957c-3.153.948-6.504.604-9.437-.969-2.928-1.569-5.059-4.161-6.008-7.319-.951-3.141-.608-6.485.964-9.417 1.575-2.936 4.179-5.079 7.314-6.029l43.507-13.094c1.167-.351 2.361-.524 3.552-.524 2.024 0 4.038.503 5.886 1.493 2.927 1.569 5.058 4.161 6.007 7.319 1.979 6.535-1.742 13.467-8.295 15.452zm28.297 38.245c-3.14.95-6.48.609-9.409-.961-2.93-1.572-5.063-4.169-6.015-7.333-.95-3.14-.609-6.481.961-9.409 1.572-2.93 4.169-5.063 7.313-6.008.078-.024.151-.056.229-.082l27.894-8.396c.006-.001.012-.003.017-.005.001 0 15.371-4.643 15.371-4.643 6.54-1.968 13.472 1.754 15.438 8.295 1.954 6.502-1.688 13.369-8.125 15.389 0 0-28.27 8.527-28.275 8.529zm28.289 38.239c-6.521 1.974-13.439-1.746-15.417-8.273-1.967-6.547 1.754-13.473 8.306-15.441l43.501-13.121c1.161-.349 2.35-.522 3.535-.522 2.026 0 4.042.505 5.893 1.5 2.931 1.576 5.065 4.174 6.01 7.318.946 3.146.599 6.494-.978 9.426-1.575 2.932-4.175 5.066-7.318 6.01h-.001l-.012.004c-.001 0-.002.001-.004.001zm79.167 19.126c-1.575 2.931-4.175 5.066-7.327 6.013l-43.502 13.121c-3.146.945-6.493.599-9.427-.978-2.931-1.576-5.065-4.174-6.01-7.318-.948-3.152-.604-6.504.969-9.437 1.568-2.927 4.16-5.058 7.298-6 .076-.023.148-.055.223-.08l43.289-13.044c6.544-1.969 13.486 1.763 15.465 8.296.946 3.147.598 6.495-.978 9.427zm205.944 190.116-25.244-25.244c1.188-3.16 1.889-6.517 2.041-9.981l1.984-45.382c.002-.045.004-.091.005-.136l1.984-65.908c.277-9.298.93-13.714 1.563-15.759 1.919.464 6.217 2.047 14.762 7.362 8.802 5.474 20.815 14.035 38.685 27.574 1.551 1.175 3.023 2.456 4.399 3.831l41.742 41.722z"/><path d="m395.831 253.221c1.949 1.949 4.499 2.922 7.051 2.922 2.56 0 5.121-.98 7.077-2.936 3.905-3.905 3.892-10.251-.014-14.157-3.906-3.905-10.236-3.905-14.143 0-3.905 3.905-3.905 10.237 0 14.143z"/></g></g></svg>