<svg width="487" height="487" viewBox="0 0 487 487" fill="none" xmlns="http://www.w3.org/2000/svg">
<g clip-path="url(#clip0)">
<path d="M337.811 397.991L407.907 364.883C423.361 357.078 442.22 362.8 450.735 377.872L308.253 470.037C289.153 478.852 267.716 481.278 247.125 476.956L148.86 449.376C139.814 446.84 130.141 447.897 121.86 452.332L101.309 463.328L104.074 363.104L104.893 363.124C134.26 342.26 172.824 339.561 204.808 356.134L210.69 359.181C219.884 363.943 230.041 366.568 240.396 366.849L298.159 368.444C316.289 368.94 332.156 380.762 337.811 397.991Z" fill="#F7CAA5"/>
<path d="M357.045 222.173C357.045 281.738 308.757 330.026 249.193 330.026C189.628 330.026 141.34 281.738 141.34 222.173C141.34 162.608 189.628 114.32 249.193 114.32C308.757 114.32 357.045 162.608 357.045 222.173Z" fill="#FEDB41"/>
<path d="M101.309 463.329L101 474.609L37.6641 472.873L41.4866 333.867L104.835 335.607L104.074 363.105L101.309 463.329Z" fill="#00EFD1"/>
<path d="M249.856 265.785C248.963 265.59 248.042 265.555 247.133 265.684C237.959 264.682 231.024 256.912 231.059 247.683C231.059 243.272 227.483 239.695 223.071 239.695C218.66 239.695 215.083 243.272 215.083 247.683C215.028 263.082 225.341 276.586 240.206 280.596V288.576C240.206 292.988 243.783 296.564 248.194 296.564C252.606 296.564 256.182 292.988 256.182 288.576V281.072C273.29 277.491 284.921 261.553 283.119 244.169C281.321 226.784 266.671 213.57 249.193 213.566C239.176 213.566 231.059 205.449 231.059 195.432C231.059 185.42 239.176 177.299 249.193 177.299C259.209 177.299 267.326 185.42 267.326 195.432C267.326 199.844 270.903 203.42 275.314 203.42C279.726 203.42 283.303 199.844 283.303 195.432C283.279 179.296 271.972 165.375 256.182 162.048V154.773C256.182 150.362 252.606 146.785 248.194 146.785C243.783 146.785 240.206 150.362 240.206 154.773V162.535C223.722 167.033 213.113 183.036 215.383 199.968C217.657 216.904 232.109 229.546 249.193 229.542C259.131 229.464 267.283 237.402 267.463 247.336C267.646 257.275 259.794 265.505 249.856 265.789V265.785Z" fill="black"/>
<path d="M133.352 222.173C133.352 286.149 185.217 338.014 249.192 338.014C313.168 338.014 365.033 286.149 365.033 222.173C365.033 158.197 313.168 106.332 249.192 106.332C185.248 106.406 133.426 158.228 133.352 222.173ZM249.192 122.308C304.346 122.308 349.057 167.02 349.057 222.173C349.057 277.326 304.346 322.037 249.192 322.037C194.039 322.037 149.328 277.326 149.328 222.173C149.39 167.047 194.067 122.371 249.192 122.308Z" fill="black"/>
<path d="M404.408 357.698L341.847 387.249C333.181 371.198 316.611 360.99 298.38 360.46L240.61 358.865C231.463 358.599 222.492 356.286 214.36 352.086L208.482 349.043C178.385 333.351 142.516 333.39 112.451 349.141L112.818 335.82C112.943 331.413 109.464 327.739 105.052 327.618L41.7041 325.878C39.5861 325.82 37.5305 326.604 35.9938 328.058C34.4531 329.517 33.5559 331.526 33.5013 333.644L29.6788 472.65C29.5579 477.061 33.0333 480.732 37.4447 480.853L100.781 482.592H101.003C105.329 482.588 108.867 479.144 108.984 474.823L109.167 468.18L125.631 459.369C132.086 455.897 139.642 455.07 146.698 457.064L244.967 484.64C245.135 484.691 245.306 484.73 245.482 484.769C252.588 486.255 259.832 487.004 267.091 487C282.455 487.008 297.639 483.696 311.599 477.284C311.942 477.124 312.274 476.94 312.59 476.738L455.071 384.573C458.621 382.279 459.767 377.618 457.688 373.936C447.11 355.167 423.653 348.021 404.408 357.698ZM93.4208 463.105L93.2804 466.401L45.8932 465.102L49.2633 342.069L96.6816 343.368L93.4208 463.105ZM304.403 463.016C287.049 470.848 267.672 473.009 249.02 469.19L151.016 441.684C139.989 438.571 128.182 439.862 118.091 445.288L109.674 449.793L111.933 367.984C138.577 350.26 172.757 348.439 201.133 363.229L207.015 366.272C217.285 371.576 228.62 374.506 240.173 374.833L297.94 376.432C312.695 376.854 325.606 386.476 330.224 400.495C330.637 401.758 330.981 403.042 331.25 404.344L245.197 401.969C240.786 401.848 237.115 405.323 236.99 409.735C236.869 414.146 240.349 417.817 244.756 417.942L339.706 420.555H339.928C344.254 420.559 347.796 417.115 347.917 412.785C348.01 409.314 347.749 405.842 347.14 402.421L411.323 372.099C411.386 372.072 411.448 372.04 411.51 372.009C420.614 367.403 431.621 368.943 439.11 375.875L304.403 463.016Z" fill="black"/>
<path d="M257.18 83.8763V7.98822C257.18 3.57676 253.603 0 249.191 0C244.78 0 241.203 3.57676 241.203 7.98822V83.8763C241.203 88.2878 244.78 91.8646 249.191 91.8646C253.603 91.8646 257.18 88.2878 257.18 83.8763Z" fill="black"/>
<path d="M317.09 83.8766V47.9296C317.09 43.5182 313.513 39.9414 309.102 39.9414C304.69 39.9414 301.113 43.5182 301.113 47.9296V83.8766C301.113 88.2881 304.69 91.8649 309.102 91.8649C313.513 91.8649 317.09 88.2881 317.09 83.8766Z" fill="black"/>
<path d="M197.269 83.8766V47.9296C197.269 43.5182 193.693 39.9414 189.281 39.9414C184.87 39.9414 181.293 43.5182 181.293 47.9296V83.8766C181.293 88.2881 184.87 91.8649 189.281 91.8649C193.693 91.8649 197.269 88.2881 197.269 83.8766Z" fill="black"/>
</g>
<defs>
<clipPath id="clip0">
<rect width="487" height="487" fill="white"/>
</clipPath>
</defs>
</svg>
