<svg height="512" viewBox="0 0 512 512" width="512" xmlns="http://www.w3.org/2000/svg"><g id="Fill_out_line" data-name="Fill out line"><path d="m328 216 32-16 40 24v40l32 16v-72l-64-40-72 32z" fill="#808080"/><path d="m464 336v88h-200l-48.64014-36.48-15.35986-11.52 8-16 64 32h88a79.99521 79.99521 0 0 1 80-80 24.00619 24.00619 0 0 1 24 24z" fill="#4d4d4d"/><path d="m328 392v-.00008a79.99991 79.99991 0 0 1 79.99992-79.99992h32a79.99991 79.99991 0 0 0 -79.99992 79.99992v.00008z" fill="#e6e6e6"/><path d="m304 392 16-80 40-40 48 40h-.00008a79.99991 79.99991 0 0 0 -79.99992 79.99992v.00008z" fill="#ccc"/><path d="m360 272-40 40-5.6001 28.01-4.96 24.78-5.4399 27.21h-32l-64-32 25.40991-48 8.32009-15.72 38.27-72.28a127.16923 127.16923 0 0 1 78.3999 46z" fill="#3ea7ff"/><path d="m376 248-16 24-1.60106-2.00132a127.17389 127.17389 0 0 0 -78.39889-45.99868l16-24a127.17389 127.17389 0 0 1 78.39889 45.99867z" fill="#e6e6e6"/><path d="m376 248 56 32 8 32h-32l-48-40z" fill="#b3b3b3"/><path d="m264 424h-96v-48h32z" fill="#4d4d4d"/><path d="m200 376a14.05886 14.05886 0 0 1 -9.94111 24h-30.05889v24h104z" fill="#3d3d3d"/><path d="m152 424h-64.00006a63.99994 63.99994 0 0 1 -63.99994-63.99994v-.00012a63.99994 63.99994 0 0 1 63.99994-63.99994h153.88241l-16.94117 32h-136.94118a32 32 0 0 0 -32 32 32 32 0 0 0 32 32h64a16 16 0 0 1 16 16 16 16 0 0 1 -16 16z" fill="#e6e6e6"/><path d="m198.239 328h-64.139l3.486-32h64.218z" fill="#ccc"/><ellipse cx="440" cy="376" fill="#808080" rx="48" ry="64"/><circle cx="440" cy="376" fill="#4d4d4d" r="16"/><path d="m429.4931 217.6537-29.4931 46.3463 32 16 24.73036-42.39491a229.55059 229.55059 0 0 0 31.26964-115.6639v-.0001a81.94105 81.94105 0 0 0 -24-57.94109 81.94105 81.94105 0 0 0 -57.94107-24h-70.05893v32h65.37261a54.62737 54.62737 0 0 1 38.62739 16 54.62737 54.62737 0 0 1 16 38.62737v.00008a169.54816 169.54816 0 0 1 -26.5069 91.02625z" fill="#e6e6e6"/><path d="m288 24h48v64h-48z" fill="#808080"/><path d="m288 72h-26.52273a48 48 0 0 0 -46.56684 36.35829l-6.91043 27.64171-32-8 12.85071-35.33945a80 80 0 0 1 75.18347-52.66055h23.96582z" fill="#e6e6e6"/><path d="m159.963 123.991 64.115 16.029-8.078 35.98-64-16.665z" fill="#808080"/><path d="m56 424h208a24 24 0 0 1 24 24v40a0 0 0 0 1 0 0h-256a0 0 0 0 1 0 0v-40a24 24 0 0 1 24-24z" fill="#ccc"/><path d="m72 424h176v32h-176z" fill="#b3b3b3"/><path d="m216 408h32v48h-32z" fill="#808080"/><path d="m136 384h48v72h-48z" fill="#808080"/><path d="m168.018 163.506-24.018 220.494h32l23.647-212.258z" fill="#e6e6e6"/><path d="m446.3623 304.46533-5.81152-23.24633 23.08984-39.58227a237.80673 237.80673 0 0 0 32.35938-119.69532 89.93984 89.93984 0 0 0 -89.94141-89.94141h-62.05859v-8a8.00039 8.00039 0 0 0 -8-8h-48a8.00039 8.00039 0 0 0 -8 8v8h-15.96582a88.269 88.269 0 0 0 -82.70218 57.92578l-10.38721 28.56494-9.0415-2.26025a7.99927 7.99927 0 0 0 -9.74512 6.002l-7.96289 35.34375a8.00154 8.00154 0 0 0 5.78907 9.501l9.333 2.43017-22.49335 206.49261h-.824a8.00039 8.00039 0 0 0 -8 8v32h-72a32.03667 32.03667 0 0 0 -32 32v40a8.00039 8.00039 0 0 0 8 8h256a8.00039 8.00039 0 0 0 8-8v-40a32.03667 32.03667 0 0 0 -32-32h-8v-8a8.00039 8.00039 0 0 0 -8-8h-32a8.00039 8.00039 0 0 0 -8 8v8h-16v-32a7.99821 7.99821 0 0 0 -7.06543-7.94092l21.64063-194.24608 7.40918 1.9292a8.00089 8.00089 0 0 0 9.82128-5.98926l8.07813-35.98047a7.99989 7.99989 0 0 0 -5.86524-9.51367l-8.31762-2.07935 4.97-19.88061a39.94289 39.94289 0 0 1 38.80661-30.29884h18.52246v8a8.00039 8.00039 0 0 0 8 8h48a8.00039 8.00039 0 0 0 8-8v-8h57.373a46.6287 46.6287 0 0 1 46.627 46.62793 161.25048 161.25048 0 0 1 -16.688 71.50781l-59.07178-36.91992a8.003 8.003 0 0 0 -7.48925-.52637l-71.93018 31.969-.00684.00317-.063.02783.00195.00391a7.99015 7.99015 0 0 0 -3.40918 2.86914l-16 24 .019.0127a8.0126 8.0126 0 0 0 -.4331.68164l-35.86395 67.74316h-29.06567v16h20.59521l-8.4707 16h-12.12451v16h3.65381l-10.72412 20.25684a8.0006 8.0006 0 0 0 3.49219 10.89843l64 32a7.99934 7.99934 0 0 0 3.57812.84473h88a8.00039 8.00039 0 0 0 8-8 71.56462 71.56462 0 0 1 21.084-50.91113c1.065-1.064 2.16651-2.07691 3.28418-3.06568a90.1735 90.1735 0 0 0 1.00926 77.97681h-81.37744v16h92.71484c9.91309 10.36108 22.20752 16 35.28516 16 15.40039 0 29.72754-7.79395 40.34082-21.94531 10.09766-13.46289 15.65918-31.24024 15.65918-50.05469s-5.56152-36.5918-15.65918-50.05469c-9.13525-12.18042-21.02441-19.63525-33.97852-21.47998zm-270.3623 87.53467v56h-32v-56zm-48 56h-48v-16h48zm96-32h16v32h-16zm24 48a8.00039 8.00039 0 0 0 8-8v-24h8a16.01833 16.01833 0 0 1 16 16v32h-240v-32a16.01833 16.01833 0 0 1 16-16h8v24a8.00039 8.00039 0 0 0 8 8zm-40-32v16h-16v-16zm-39.15869-56h-15.92231l22.04931-202.41724 15.96118 4.156zm41.16553-209.82715-48.501-12.62988 4.46191-19.80469 48.59375 12.14844zm51.4707-102.17285a55.919 55.919 0 0 0 -54.32813 42.418l-4.97021 19.8811-15.6272-3.90649 9.81714-26.998a72.21909 72.21909 0 0 1 67.66504-47.39461h15.96582v16zm66.52246 16h-32v-48h32zm-.63086 235.94434 33.12207-33.1211 28.02539 23.35425a88.19654 88.19654 0 0 0 -68.14892 77.82251h-6.60889zm-34.18114-97.30372 6.53271-9.79882a118.9838 118.9838 0 0 1 66.35254 39.62671l-6.8125 10.2185a134.91833 134.91833 0 0 0 -66.07275-40.04639zm136.56591 85.35938h-18.85743l-40.25293-33.5437 7.8711-11.80591 46.55176 26.60161zm-37.75391-56.07129-10.70654-6.11816-.647-.8086a135.1797 135.1797 0 0 0 -29.76709-27.498l8.77-4.38477 32.35063 19.41012zm53.65723-165.58594a62.21991 62.21991 0 0 0 -44.28418-18.34277h-57.37305v-16h62.05859a73.94241 73.94241 0 0 1 73.94141 73.94141 221.78248 221.78248 0 0 1 -30.17969 111.63281l-20.73531 35.5459-16.76465-9.57984 23.92188-37.592a177.26335 177.26335 0 0 0 27.75777-95.32128 62.21991 62.21991 0 0 0 -18.34277-44.28423zm-78.293 94.69434 56.13677 35.08447c-.25635.4104-.49707.82837-.75684 1.23682l-14.74416 23.16943v-12.52783a8.00153 8.00153 0 0 0 -3.88379-6.86035l-40-24a7.99872 7.99872 0 0 0 -7.69336-.29492l-22.13916 11.06933a134.92053 134.92053 0 0 0 -14.1084-5.90405zm-83.05954 55.92969a118.95723 118.95723 0 0 1 64.90531 38.50879l-34.86719 34.86718a8.00752 8.00752 0 0 0 -2.1875 4.08789l-4.14209 20.71045a94.79809 94.79809 0 0 0 -57.79-33.79785zm-65.40332 123.54 23.34912-44.10425a78.8 78.8 0 0 1 61.352 40.79272l-6.16108 30.80473h-23.55274zm133.45508 27.4932h-15.90137a72.17391 72.17391 0 0 1 47.52344-59.86426q-3.21242 2.65942-6.208 5.63965a87.39376 87.39376 0 0 0 -25.41407 54.22461zm87.64355 48c-22.05566 0-40-25.12109-40-56s17.94434-56 40-56 40 25.12109 40 56-17.94434 56-40 56z"/><path d="m440 352a24 24 0 1 0 24 24 24.0275 24.0275 0 0 0 -24-24zm0 32a8 8 0 1 1 8-8 8.00917 8.00917 0 0 1 -8 8z"/><path d="m88 336h40v-16h-40a40 40 0 0 0 0 80h24v-16h-24a24 24 0 0 1 0-48z"/><path d="m44.2793 394.99609a55.38625 55.38625 0 0 1 -12.2793-34.99609 56.0629 56.0629 0 0 1 56-56h40v-16h-40a72.003 72.003 0 0 0 -56.20508 117.00391z"/></g></svg>