<svg width="1200" height="628" viewBox="0 0 1200 628" fill="none" xmlns="http://www.w3.org/2000/svg">
<path d="M0 0H1200V628H0V0Z" fill="white"/>
<path d="M491.787 419.966L492.586 205.074L707.478 205.925L706.678 420.817L491.787 419.966Z" fill="white" stroke="#DF1F26" stroke-width="5"/>
<path d="M615.511 379.081L602.17 343.08L625.04 325.159L616.539 302.219L513.195 385.561L519.462 402.473L654.08 403.524L645.144 379.411L615.511 379.081ZM585.777 355.36L595.085 380.477L565.531 380.875L545.663 383.778L545.353 382.941L562.783 372.947L585.777 355.36Z" fill="#169C97"/>
<path d="M659.337 403.502L683.802 403.45L683.519 278.449L659.055 278.501L659.337 403.502Z" fill="#1FDFD8"/>
<rect x="494" y="208" width="212" height="212" stroke="#DF1F26" stroke-width="15"/>
</svg>
