<svg width="951" height="951" viewBox="0 0 951 951" fill="none" xmlns="http://www.w3.org/2000/svg">
<circle cx="475.237" cy="475.789" r="459.598" fill="white" stroke="#246B6D" stroke-width="31"/>
<path d="M693.88 347.368C668.627 318.714 633.594 302.934 595.236 302.934C541.288 302.934 507.133 335.154 487.981 362.184C483.012 369.198 478.785 376.231 475.236 382.849C471.687 376.231 467.461 369.198 462.491 362.184C443.339 335.154 409.184 302.934 355.236 302.934C316.878 302.934 281.845 318.715 256.591 347.369C232.503 374.703 219.236 411.311 219.236 450.449C219.236 493.052 235.869 532.677 271.581 575.149C303.498 613.109 349.415 652.237 402.586 697.546C422.399 714.43 442.888 731.89 464.701 750.975L465.356 751.549C468.184 754.025 471.71 755.262 475.236 755.262C478.762 755.262 482.288 754.024 485.116 751.549L485.771 750.975C507.584 731.89 528.073 714.431 547.889 697.544C601.057 652.238 646.974 613.11 678.891 575.149C714.603 532.676 731.236 493.052 731.236 450.449C731.236 411.311 717.969 374.703 693.88 347.368ZM528.429 674.712C511.349 689.266 493.771 704.245 475.236 720.358C456.702 704.247 439.123 689.267 422.04 674.71C317.981 586.037 249.236 527.456 249.236 450.449C249.236 418.619 259.841 389.055 279.098 367.204C298.576 345.105 325.615 332.934 355.236 332.934C396.365 332.934 422.952 358.272 438.012 379.528C451.521 398.592 458.57 417.81 460.974 425.187C462.985 431.362 468.742 435.541 475.236 435.541C481.73 435.541 487.487 431.362 489.498 425.187C491.902 417.81 498.951 398.592 512.46 379.527C527.52 358.272 554.107 332.934 595.236 332.934C624.857 332.934 651.896 345.105 671.373 367.204C690.631 389.055 701.236 418.619 701.236 450.449C701.236 527.456 632.491 586.037 528.429 674.712Z" fill="#246B6D"/>
</svg>
