<svg width="951" height="951" viewBox="0 0 951 951" fill="none" xmlns="http://www.w3.org/2000/svg">
<circle cx="475.889" cy="475.098" r="459.598" fill="white" stroke="#246B6D" stroke-width="31"/>
<path d="M727.217 319.808L631.217 223.776C626.641 219.2 619.761 217.824 613.777 220.32C607.793 222.816 603.889 228.64 603.889 235.104V283.776C554.673 287.968 508.721 311.232 475.889 348.512C443.057 311.232 397.105 287.968 347.889 283.776V235.104C347.889 228.64 343.985 222.784 338.001 220.32C332.113 217.824 325.137 219.2 320.561 223.776L224.561 319.776C218.321 326.016 218.321 336.16 224.561 342.4L320.561 438.4C325.169 443.008 332.081 444.416 338.001 441.856C343.985 439.424 347.889 433.568 347.889 427.104V380.448C393.233 388.064 427.889 427.616 427.889 475.104V715.104C427.889 723.936 435.057 731.104 443.889 731.104H507.889C516.721 731.104 523.889 723.936 523.889 715.104V475.104C523.889 427.616 558.545 388.064 603.889 380.448V427.104C603.889 433.568 607.793 439.424 613.777 441.888C619.729 444.416 626.609 443.008 631.217 438.432L727.217 342.432C733.457 336.192 733.457 326.048 727.217 319.808ZM635.889 388.48V363.104C635.889 354.272 628.721 347.104 619.889 347.104C549.297 347.104 491.889 404.512 491.889 475.104V699.104H459.889V475.104C459.889 404.512 402.481 347.104 331.889 347.104C323.057 347.104 315.889 354.272 315.889 363.104V388.48L258.513 331.104L315.889 273.728V299.104C315.889 307.936 323.057 315.104 331.889 315.104C383.697 315.104 432.625 340.672 462.801 383.52C468.817 392.032 482.993 392.032 488.977 383.52C519.153 340.672 568.081 315.104 619.889 315.104C628.721 315.104 635.889 307.936 635.889 299.104V273.728L693.265 331.104L635.889 388.48Z" fill="#246B6D"/>
</svg>
