<svg width="951" height="952" viewBox="0 0 951 952" fill="none" xmlns="http://www.w3.org/2000/svg">
<circle cx="475.586" cy="476.059" r="459.598" fill="white" stroke="#246B6D" stroke-width="31"/>
<path d="M676.293 339.495C672.849 326.37 643.812 319.098 611.38 315.078C618.243 309.793 636.613 292.792 636.613 262.065C636.613 225.108 609.978 207.947 608.841 207.234L600.321 220.792C600.521 220.92 620.597 233.869 620.597 262.065C620.597 289.925 601.105 302.826 600.321 303.331L607.4 314.59C579.708 311.403 550.286 310.466 532.517 310.21V284.616C541.814 281.301 548.533 272.492 548.533 262.065C548.533 248.82 537.754 238.041 524.509 238.041C511.263 238.041 500.485 248.82 500.485 262.065C500.485 272.492 507.203 281.301 516.501 284.616V310.129C502.214 310.202 472 310.754 442.186 313.685L448.689 303.339C448.48 303.211 428.404 290.262 428.404 262.065C428.404 234.205 447.896 221.304 448.721 220.776L444.42 214.017L440.16 207.234C439.023 207.947 412.388 225.108 412.388 262.065C412.388 291.367 429.093 308.176 436.597 314.262C401.449 318.089 368.392 325.433 364.701 339.495C361.802 344.74 359.207 349.985 356.821 355.223L222.726 310.53L221.493 310.113H204.18V326.13H218.898L350.694 370.062C343.824 388.985 340.316 407.779 340.316 426.23V460.224L317.886 501.345L218.898 534.338H204.18V550.354H221.493L306.634 521.974L295.856 541.73C293.509 546.038 292.268 550.907 292.268 555.816C292.268 570.35 303.119 582.875 317.517 584.941L348.324 589.329V614.418C348.324 645.321 373.477 670.475 404.38 670.475H428.404V702.507H444.42V654.459H404.38C382.302 654.459 364.34 636.497 364.34 614.418V575.443L319.792 569.077C313.225 568.14 308.284 562.438 308.284 555.816C308.284 553.581 308.845 551.355 309.918 549.393L328.929 514.542L461.918 470.21C508.028 469.529 544.321 437.577 545.858 436.2L552.521 430.234L545.858 424.268C544.321 422.89 508.028 390.938 461.918 390.258L372.1 360.316C372.885 358.634 373.637 356.952 374.478 355.271C405.517 373.097 498.843 374.178 520.497 374.178C542.15 374.178 635.476 373.097 666.515 355.271C678.543 379.343 684.661 403.175 684.661 426.23C684.661 478.698 667.043 530.494 635.051 572.08L604.581 611.696V702.507H620.597V617.141L647.752 581.842C681.874 537.477 700.677 482.206 700.677 426.23C700.677 397.865 692.445 368.684 676.293 339.495ZM496.753 413.609C509.886 418.734 520.721 425.429 527.464 430.234C520.721 435.031 509.886 441.725 496.753 446.859C499.091 441.773 500.477 436.176 500.477 430.234C500.477 424.292 499.091 418.694 496.753 413.609ZM460.436 406.21C473.682 406.21 484.461 416.989 484.461 430.234C484.461 443.479 473.682 454.258 460.436 454.258C447.191 454.258 436.412 443.479 436.412 430.234C436.412 416.989 447.191 406.21 460.436 406.21ZM427.027 395.503C397.077 404.816 376.176 423.227 375.015 424.268L368.352 430.234L375.015 436.2C376.176 437.241 397.069 455.651 427.027 464.965L340.188 493.914L356.332 464.308V426.23C356.332 409.533 359.567 392.428 365.894 375.131L427.027 395.503ZM424.12 446.859C410.987 441.733 400.152 435.039 393.409 430.234C400.152 425.437 410.987 418.742 424.12 413.609C421.782 418.694 420.396 424.292 420.396 430.234C420.396 436.176 421.782 441.773 424.12 446.859ZM516.493 262.065C516.493 257.645 520.08 254.057 524.501 254.057C528.921 254.057 532.509 257.645 532.509 262.065C532.509 266.486 528.921 270.073 524.501 270.073C520.08 270.073 516.493 266.486 516.493 262.065ZM520.497 358.162C445.918 358.162 394.779 349.265 382.27 342.146C394.546 335.163 444.124 326.474 516.493 326.162V342.146H532.509V326.218C600.529 327.107 646.903 335.419 658.723 342.146C646.215 349.265 595.075 358.162 520.497 358.162Z" fill="#246B6D" stroke="#246B6D" stroke-width="8"/>
<path d="M572.551 262.065C572.551 277.816 559.882 287.586 559.786 287.65L569.299 300.535C570.084 299.958 588.567 286.049 588.567 262.065C588.567 238.08 570.084 224.171 569.299 223.586L559.754 236.439C559.882 236.543 572.551 246.313 572.551 262.065Z" fill="#246B6D"/>
<path d="M479.701 300.543L489.246 287.69C489.118 287.586 476.45 277.816 476.45 262.065C476.45 246.313 489.118 236.543 489.254 236.447L484.458 230.032L479.701 223.586C478.916 224.171 460.434 238.08 460.434 262.065C460.434 286.049 478.916 299.958 479.701 300.543Z" fill="#246B6D" stroke="#246B6D" stroke-width="8"/>
</svg>
