<svg width="951" height="951" viewBox="0 0 951 951" fill="none" xmlns="http://www.w3.org/2000/svg">
<circle cx="475.334" cy="475.098" r="459.598" fill="white" stroke="#246B6D" stroke-width="31"/>
<path d="M671.055 456.358C653.633 447.648 620.968 447.547 619.586 447.547C615.444 447.547 612.086 450.905 612.086 455.047C612.086 459.189 615.444 462.547 619.586 462.547C628.015 462.548 652.488 463.846 664.347 469.775C665.424 470.314 666.568 470.568 667.695 470.568C670.446 470.568 673.095 469.048 674.409 466.421C676.262 462.716 674.76 458.211 671.055 456.358Z" fill="#246B6D" stroke="#246B6D" stroke-width="6"/>
<path d="M708.446 563.139L677.471 554.289C676.134 553.907 675.2 552.669 675.2 551.278V540.939C677.72 539.193 680.124 537.239 682.371 535.058C693.261 524.49 699.258 510.315 699.258 495.143V480.876L702.253 474.887C705.54 468.312 707.277 460.951 707.277 453.601V414.951C707.277 410.809 703.919 407.451 699.777 407.451H627.604C601.36 407.451 580.008 428.803 580.008 455.047V455.494C580.008 461.606 581.453 467.727 584.186 473.193L588.027 480.875V493.125C588.027 512.539 597.594 529.958 612.085 540.44L612.087 551.276C612.087 552.947 612.087 553.639 605.894 555.409L590.78 559.727L547.059 543.829C547.216 541.766 546.52 539.668 545.015 538.087L531.044 523.409V498.769C532.521 497.552 533.977 496.302 535.388 494.98C553.013 478.46 563.121 455.136 563.121 430.989V411.311C568.443 399.73 571.14 387.475 571.14 374.854V294.664C571.14 290.522 567.782 287.164 563.64 287.164H451.371C411.861 287.164 379.718 319.308 379.718 358.817V374.856C379.718 387.477 382.415 399.732 387.737 411.313V428.244C387.737 456.28 400.203 481.538 419.814 498.19V523.41L405.843 538.088C404.338 539.669 403.642 541.767 403.799 543.83L357.654 560.609C354.31 561.825 351.203 563.472 348.382 565.467L341.136 561.844C362.706 552.455 369.539 539.25 369.867 538.594C370.923 536.483 370.923 533.997 369.867 531.886C364.46 521.072 363.805 501.251 363.279 485.325C363.104 480.023 362.938 475.014 362.621 470.554C360.064 434.58 332.716 407.451 299.006 407.451C265.296 407.451 237.947 434.579 235.391 470.554C235.074 475.015 234.908 480.024 234.733 485.327C234.207 501.252 233.551 521.071 228.145 531.885C227.089 533.996 227.089 536.482 228.145 538.593C228.473 539.249 235.292 552.427 256.905 561.827L236.778 571.89C226.018 577.274 219.334 588.089 219.334 600.118V655.527C219.334 659.669 222.692 663.027 226.834 663.027C230.976 663.027 234.334 659.669 234.334 655.527V600.118C234.334 593.806 237.841 588.131 243.486 585.308L268.549 572.777L277.267 581.062C283.363 586.855 291.183 589.75 299.006 589.75C306.827 589.75 314.651 586.853 320.745 581.062L329.462 572.778L337.634 576.864C333.786 583.021 331.602 590.241 331.602 597.804V655.529C331.602 659.671 334.96 663.029 339.102 663.029C343.244 663.029 346.602 659.671 346.602 655.529V597.804C346.602 587.508 353.103 578.226 362.78 574.707L411.432 557.016L431.685 587.397C434.274 591.281 438.423 593.772 443.068 594.232C443.586 594.283 444.101 594.308 444.615 594.308C448.713 594.308 452.638 592.695 455.572 589.762L467.928 577.406V655.53C467.928 659.672 471.286 663.03 475.428 663.03C479.57 663.03 482.928 659.672 482.928 655.53V577.406L495.284 589.762C498.217 592.696 502.142 594.309 506.241 594.309C506.754 594.309 507.27 594.284 507.787 594.233C512.433 593.773 516.582 591.282 519.171 587.398L539.425 557.018L588.076 574.709C597.752 578.228 604.254 587.51 604.254 597.806V655.531C604.254 659.673 607.612 663.031 611.754 663.031C615.896 663.031 619.254 659.673 619.254 655.531V597.806C619.254 587.378 615.111 577.598 608.161 570.365L610.014 569.836C611.883 569.302 614.433 568.571 616.993 567.316L636.142 586.465V655.531C636.142 659.673 639.5 663.031 643.642 663.031C647.784 663.031 651.142 659.673 651.142 655.531V586.465L670.158 567.449C671.169 567.963 672.231 568.397 673.349 568.716L704.325 577.566C711.395 579.586 716.334 586.133 716.334 593.487V655.531C716.334 659.673 719.692 663.031 723.834 663.031C727.976 663.031 731.334 659.673 731.334 655.531V593.487C731.334 579.469 721.922 566.99 708.446 563.139ZM267.449 549.892C253.42 544.844 246.383 538.114 243.379 534.439C245.427 529.085 246.755 522.953 247.654 516.48C251.79 526.397 258.717 534.863 267.449 540.903V549.892ZM310.414 570.19C304.017 576.268 293.996 576.267 287.601 570.189L280.626 563.561C281.803 561.356 282.45 558.856 282.45 556.237V548.243C287.682 549.878 293.244 550.76 299.008 550.76C304.765 550.76 310.324 549.874 315.565 548.248L315.564 556.236C315.564 558.856 316.21 561.357 317.388 563.563L310.414 570.19ZM299.01 535.76C276.614 535.76 258.395 517.54 258.395 495.145C258.395 491.003 255.037 487.645 250.895 487.645C250.475 487.645 250.065 487.688 249.664 487.755C249.686 487.11 249.707 486.464 249.729 485.825C249.896 480.668 250.057 475.797 250.354 471.619C251.312 458.143 256.697 445.725 265.517 436.651C274.416 427.495 286.31 422.453 299.008 422.453C311.706 422.453 323.599 427.495 332.499 436.651C341.319 445.725 346.704 458.143 347.662 471.619C347.958 475.796 348.12 480.666 348.29 485.822C348.305 486.265 348.32 486.714 348.335 487.16C340.175 474.588 327.573 465.323 311.29 460.091C296.247 455.258 283.309 455.557 282.763 455.571C280.799 455.626 278.935 456.448 277.572 457.862L264.04 471.896C261.165 474.878 261.251 479.626 264.233 482.501C267.215 485.376 271.963 485.289 274.838 482.308L286.098 470.631C295.795 471.105 326.992 474.733 339.125 501.45C336.072 521.138 319.15 535.76 299.01 535.76ZM330.563 549.917L330.564 540.972C339.289 534.965 346.226 526.515 350.365 516.523C351.264 522.981 352.591 529.099 354.635 534.441C351.648 538.081 344.578 544.871 330.563 549.917ZM402.737 428.243V409.635C402.737 408.506 402.482 407.391 401.991 406.374C397.165 396.38 394.718 385.776 394.718 374.856V358.818C394.718 327.579 420.133 302.165 451.371 302.165H556.14V374.857C556.14 385.777 553.693 396.381 548.867 406.375C548.376 407.392 548.121 408.507 548.121 409.636V430.991C548.121 451.302 539.956 470.141 525.13 484.038C523.279 485.772 521.358 487.398 519.372 488.913C519.328 488.943 519.286 488.976 519.243 489.007C505.354 499.552 488.342 504.677 470.576 503.526C432.535 501.063 402.737 467.995 402.737 428.243ZM444.966 579.154C444.914 579.206 444.793 579.329 444.548 579.303C444.304 579.279 444.208 579.136 444.167 579.074L420.842 544.086L428.348 536.199L463.733 560.386L444.966 579.154ZM475.429 550.211L434.814 522.449V508.449C445.323 514.13 457.09 517.683 469.605 518.493C471.582 518.621 473.547 518.684 475.506 518.684C489.847 518.684 503.649 515.256 516.044 508.749V522.449L475.429 550.211ZM506.691 579.076C506.65 579.138 506.554 579.281 506.31 579.305C506.065 579.336 505.945 579.207 505.892 579.156L487.125 560.389L522.51 536.201L530.017 544.088L506.691 579.076ZM643.642 572.748L626.622 555.729C626.919 554.38 627.087 552.903 627.086 551.274L627.085 548.109C631.808 549.659 636.786 550.579 641.937 550.733C642.515 550.751 643.088 550.759 643.664 550.759C649.356 550.759 654.912 549.899 660.2 548.258V551.278C660.2 552.774 660.388 554.24 660.742 555.649L643.642 572.748ZM671.925 524.294C663.976 532.008 653.475 536.082 642.388 535.74C620.684 535.089 603.027 515.972 603.027 493.127V479.106C603.027 477.941 602.756 476.793 602.235 475.752L597.602 466.486C595.905 463.091 595.008 459.291 595.008 455.495V455.048C595.008 437.074 609.631 422.452 627.604 422.452H692.277V453.602C692.277 458.636 691.087 463.677 688.836 468.18L685.05 475.752C684.529 476.794 684.258 477.941 684.258 479.106V495.144C684.258 506.224 679.878 516.576 671.925 524.294Z" fill="#246B6D" stroke="#246B6D" stroke-width="6"/>
<path d="M691.758 599.914C687.616 599.914 684.258 603.272 684.258 607.414V655.529C684.258 659.671 687.616 663.029 691.758 663.029C695.9 663.029 699.258 659.671 699.258 655.529V607.414C699.258 603.273 695.9 599.914 691.758 599.914Z" fill="#246B6D" stroke="#246B6D" stroke-width="6"/>
<path d="M536.867 377.569C508.501 349.203 449.152 354.626 424.95 358.274C417.327 359.423 411.795 365.874 411.795 373.613V390.891C411.795 395.033 415.153 398.391 419.295 398.391C423.437 398.391 426.795 395.033 426.795 390.891V373.612C426.795 373.357 426.963 373.139 427.187 373.105C436.854 371.648 456.037 369.4 475.912 370.725C499.3 372.282 516.24 378.153 526.261 388.175C529.19 391.104 533.939 391.104 536.867 388.175C539.796 385.246 539.796 380.497 536.867 377.569Z" fill="#246B6D" stroke="#246B6D" stroke-width="6"/>
<path d="M387.219 615.953C383.077 615.953 379.719 619.311 379.719 623.453V655.53C379.719 659.672 383.077 663.03 387.219 663.03C391.361 663.03 394.719 659.672 394.719 655.53V623.453C394.719 619.312 391.361 615.953 387.219 615.953Z" fill="#246B6D" stroke="#246B6D" stroke-width="6"/>
<path d="M563.641 615.953C559.499 615.953 556.141 619.311 556.141 623.453V655.53C556.141 659.672 559.499 663.03 563.641 663.03C567.783 663.03 571.141 659.672 571.141 655.53V623.453C571.141 619.312 567.783 615.953 563.641 615.953Z" fill="#246B6D" stroke="#246B6D" stroke-width="6"/>
</svg>
