<svg width="951" height="952" viewBox="0 0 951 952" fill="none" xmlns="http://www.w3.org/2000/svg">
<circle cx="475.291" cy="476.059" r="459.598" fill="white" stroke="#246B6D" stroke-width="31"/>
<path d="M566.112 688.495H300.509V342.475C300.509 338.601 297.368 335.461 293.495 335.461C289.621 335.461 286.48 338.601 286.48 342.475V690.833C286.48 697.28 291.725 702.524 298.171 702.524H566.112C569.986 702.524 573.126 699.384 573.127 695.509C573.127 691.635 569.986 688.495 566.112 688.495Z" fill="#246B6D" stroke="#246B6D" stroke-width="13"/>
<path d="M667.003 288.071L607.384 226.773C606.063 225.415 604.25 224.648 602.356 224.648H298.171C291.725 224.648 286.481 229.894 286.48 236.34V291.047C286.48 294.921 289.621 298.061 293.495 298.061C297.368 298.061 300.509 294.921 300.509 291.047V238.678H599.393L654.962 295.811V688.501H615.21C611.337 688.501 608.196 691.64 608.196 695.515C608.196 699.389 611.337 702.529 615.21 702.529H657.299C663.746 702.529 668.989 697.285 668.989 690.84V292.961C668.989 291.135 668.277 289.381 667.003 288.071Z" fill="#246B6D" stroke="#246B6D" stroke-width="5"/>
<path d="M667 288.071L607.381 226.772C605.39 224.726 602.359 224.09 599.715 225.164C597.07 226.238 595.34 228.808 595.34 231.663V292.961C595.34 296.835 598.481 299.975 602.354 299.975H661.973C664.793 299.975 667.338 298.287 668.434 295.69C669.531 293.093 668.966 290.091 667 288.071ZM609.368 285.946V248.933L645.367 285.946H609.368Z" fill="#246B6D" stroke="#246B6D" stroke-width="13"/>
<path d="M510.196 261.883H341.196C334.749 261.883 329.506 267.127 329.506 273.573V312.338C329.506 318.785 334.75 324.029 341.196 324.029H510.196C516.642 324.029 521.886 318.784 521.886 312.339V273.572C521.886 267.126 516.642 261.883 510.196 261.883ZM507.858 309.999H343.534V275.91H507.858V309.999Z" fill="#246B6D" stroke="#246B6D" stroke-width="13"/>
<path d="M399.562 360.742C396.479 358.4 392.078 358.997 389.733 362.082L358.743 402.859L349.435 394.714C346.521 392.162 342.09 392.458 339.538 395.374C336.987 398.29 337.283 402.721 340.198 405.272L355.161 418.364C356.445 419.487 358.089 420.099 359.779 420.099C360.014 420.099 360.25 420.087 360.487 420.064C362.421 419.867 364.188 418.878 365.364 417.33L400.902 370.57C403.246 367.486 402.645 363.086 399.562 360.742Z" fill="#246B6D" stroke="#246B6D" stroke-width="13"/>
<path d="M610.653 359.305H433.993C430.119 359.305 426.979 362.445 426.979 366.319C426.979 370.193 430.119 373.333 433.993 373.333H610.653C614.526 373.333 617.667 370.193 617.667 366.319C617.667 362.445 614.526 359.305 610.653 359.305Z" fill="#246B6D" stroke="#246B6D" stroke-width="13"/>
<path d="M548.689 382.688H433.993C430.119 382.688 426.979 385.827 426.979 389.702C426.979 393.576 430.119 396.716 433.993 396.716H548.689C552.562 396.716 555.703 393.576 555.703 389.702C555.703 385.827 552.562 382.688 548.689 382.688Z" fill="#246B6D" stroke="#246B6D" stroke-width="13"/>
<path d="M574.874 406.07H433.993C430.119 406.07 426.979 409.21 426.979 413.085C426.979 416.959 430.119 420.099 433.993 420.099H574.874C578.748 420.099 581.888 416.959 581.888 413.085C581.888 409.21 578.748 406.07 574.874 406.07Z" fill="#246B6D" stroke="#246B6D" stroke-width="13"/>
<path d="M399.562 456.133C396.479 453.79 392.078 454.388 389.733 457.473L358.743 498.25L349.435 490.105C346.521 487.554 342.09 487.85 339.538 490.765C336.987 493.681 337.283 498.112 340.198 500.663L355.161 513.755C356.445 514.878 358.089 515.49 359.779 515.49C360.014 515.49 360.25 515.478 360.487 515.455C362.421 515.258 364.188 514.269 365.364 512.721L400.902 465.961C403.246 462.877 402.645 458.478 399.562 456.133Z" fill="#246B6D" stroke="#246B6D" stroke-width="13"/>
<path d="M610.653 454.703H433.993C430.119 454.703 426.979 457.843 426.979 461.717C426.979 465.592 430.119 468.732 433.993 468.732H610.653C614.526 468.732 617.667 465.592 617.667 461.717C617.667 457.843 614.526 454.703 610.653 454.703Z" fill="#246B6D" stroke="#246B6D" stroke-width="13"/>
<path d="M548.689 478.078H433.993C430.119 478.078 426.979 481.218 426.979 485.092C426.979 488.967 430.119 492.107 433.993 492.107H548.689C552.562 492.107 555.703 488.967 555.703 485.092C555.703 481.218 552.562 478.078 548.689 478.078Z" fill="#246B6D" stroke="#246B6D" stroke-width="13"/>
<path d="M574.874 501.461H433.993C430.119 501.461 426.979 504.601 426.979 508.475C426.979 512.35 430.119 515.489 433.993 515.489H574.874C578.748 515.489 581.888 512.35 581.888 508.475C581.888 504.601 578.748 501.461 574.874 501.461Z" fill="#246B6D" stroke="#246B6D" stroke-width="13"/>
<path d="M610.653 550.094H433.993C430.119 550.094 426.979 553.234 426.979 557.108C426.979 560.982 430.119 564.122 433.993 564.122H610.653C614.526 564.122 617.666 560.982 617.667 557.108C617.667 553.234 614.526 550.094 610.653 550.094Z" fill="#246B6D" stroke="#246B6D" stroke-width="13"/>
<path d="M548.689 573.477H433.993C430.119 573.477 426.979 576.616 426.979 580.491C426.979 584.365 430.119 587.505 433.993 587.505H548.689C552.562 587.505 555.703 584.365 555.703 580.491C555.703 576.616 552.562 573.477 548.689 573.477Z" fill="#246B6D" stroke="#246B6D" stroke-width="13"/>
<path d="M574.874 596.852H433.993C430.119 596.852 426.979 599.991 426.979 603.866C426.979 607.74 430.119 610.88 433.993 610.88H574.874C578.748 610.88 581.888 607.74 581.888 603.866C581.888 599.991 578.748 596.852 574.874 596.852Z" fill="#246B6D" stroke="#246B6D" stroke-width="13"/>
<path d="M386.899 550.094H349.491C343.044 550.094 337.801 555.338 337.801 561.784V599.191C337.801 605.638 343.045 610.882 349.491 610.882H386.899C393.346 610.882 398.59 605.638 398.59 599.192V561.784C398.59 555.337 393.345 550.094 386.899 550.094ZM384.562 596.854H351.83V564.122H384.562V596.854Z" fill="#246B6D" stroke="#246B6D" stroke-width="13"/>
</svg>
