<svg width="951" height="951" viewBox="0 0 951 951" fill="none" xmlns="http://www.w3.org/2000/svg">
<circle cx="475.68" cy="475.098" r="459.598" fill="white" stroke="#246B6D" stroke-width="31"/>
<g clip-path="url(#clip0)">
<path d="M569.692 315.686C568.203 314.197 566.137 313.34 564.031 313.34C561.916 313.34 559.859 314.197 558.37 315.686C556.872 317.176 556.023 319.242 556.023 321.348C556.023 323.454 556.872 325.52 558.37 327.009C559.859 328.499 561.916 329.355 564.031 329.355C566.137 329.355 568.203 328.499 569.692 327.009C571.181 325.52 572.039 323.454 572.039 321.348C572.039 319.242 571.182 317.176 569.692 315.686Z" fill="#246B6D"/>
<path d="M549.648 351.777H498.398C493.977 351.777 490.391 355.362 490.391 359.785V411.035C490.391 415.458 493.977 419.043 498.398 419.043H549.648C554.07 419.043 557.656 415.458 557.656 411.035V359.785C557.656 355.362 554.07 351.777 549.648 351.777ZM541.641 403.027H506.406V367.793H541.641V403.027Z" fill="#246B6D"/>
<path d="M549.648 441.465H498.398C493.977 441.465 490.391 445.05 490.391 449.473V500.723C490.391 505.145 493.977 508.73 498.398 508.73H549.648C554.071 508.73 557.656 505.145 557.656 500.723V449.473C557.656 445.05 554.07 441.465 549.648 441.465ZM541.641 492.715H506.406V457.48H541.641V492.715Z" fill="#246B6D"/>
<path d="M524.023 531.152H498.398C493.977 531.152 490.391 534.737 490.391 539.16V590.41C490.391 594.833 493.977 598.418 498.398 598.418C502.82 598.418 506.406 594.833 506.406 590.41V547.168H524.023C528.445 547.168 532.031 543.583 532.031 539.16C532.031 534.737 528.445 531.152 524.023 531.152Z" fill="#246B6D"/>
<path d="M459.93 351.777C455.508 351.777 451.922 355.362 451.922 359.785V403.027H408.68C404.258 403.027 400.672 406.612 400.672 411.035C400.672 415.458 404.258 419.043 408.68 419.043H459.93C464.352 419.043 467.938 415.458 467.938 411.035V359.785C467.938 355.362 464.352 351.777 459.93 351.777Z" fill="#246B6D"/>
<path d="M459.93 441.465H408.68C404.258 441.465 400.672 445.05 400.672 449.473V500.723C400.672 505.145 404.258 508.73 408.68 508.73H459.93C464.352 508.73 467.938 505.145 467.938 500.723V449.473C467.938 445.05 464.352 441.465 459.93 441.465ZM451.922 492.715H416.688V457.48H451.922V492.715Z" fill="#246B6D"/>
<path d="M459.93 531.152H408.68C404.258 531.152 400.672 534.737 400.672 539.16V590.41C400.672 594.833 404.258 598.418 408.68 598.418H459.93C464.352 598.418 467.938 594.833 467.938 590.41V539.16C467.938 534.737 464.352 531.152 459.93 531.152ZM451.922 582.402H416.688V547.168H451.922V582.402Z" fill="#246B6D"/>
<path d="M481.122 645.823C479.633 644.325 477.567 643.477 475.461 643.477C473.355 643.477 471.29 644.325 469.8 645.823C468.311 647.312 467.453 649.37 467.453 651.484C467.453 653.59 468.31 655.648 469.8 657.146C471.289 658.635 473.355 659.492 475.461 659.492C477.567 659.492 479.633 658.635 481.122 657.146C482.612 655.648 483.469 653.59 483.469 651.484C483.469 649.37 482.613 647.312 481.122 645.823Z" fill="#246B6D"/>
<path d="M584.581 270.098H366.778C353.532 270.098 342.755 280.875 342.755 294.121V297.314H294.703C281.457 297.314 270.68 308.091 270.68 321.337V395.009C270.68 408.256 281.457 419.033 294.703 419.033H368.375C381.622 419.033 392.398 408.256 392.398 395.009V329.355H526.93C531.352 329.355 534.938 325.77 534.938 321.348C534.938 316.925 531.352 313.34 526.93 313.34H391.024C387.722 304.014 378.818 297.314 368.375 297.314H358.77V294.121C358.77 289.706 362.363 286.113 366.778 286.113H584.581C588.997 286.113 592.589 289.706 592.589 294.121V475.098C592.589 479.52 596.175 483.105 600.597 483.105C605.019 483.105 608.605 479.52 608.605 475.098V294.121C608.605 280.875 597.828 270.098 584.581 270.098ZM376.383 395.009C376.383 399.425 372.791 403.017 368.375 403.017H294.703C290.288 403.017 286.695 399.425 286.695 395.009V392.1C287.14 391.807 287.562 391.464 287.953 391.072L313.321 365.705L331.082 383.465C334.21 386.592 339.279 386.592 342.407 383.465L376.383 349.49V395.009ZM368.375 313.329C372.791 313.329 376.383 316.922 376.383 321.337V326.839L336.744 366.478L318.984 348.718C315.856 345.591 310.787 345.591 307.658 348.718L286.695 369.68V321.337C286.695 316.922 290.288 313.329 294.703 313.329H368.375Z" fill="#246B6D"/>
<path d="M656.655 502.324H570.171C556.924 502.324 546.148 513.101 546.148 526.348V612.832C546.148 626.079 556.924 636.855 570.171 636.855H592.588V656.074C592.588 660.49 588.996 664.082 584.58 664.082H366.777C362.362 664.082 358.77 660.49 358.77 656.074V636.855H528.009C532.431 636.855 536.017 633.27 536.017 628.848C536.017 624.425 532.431 620.84 528.009 620.84H358.77V449.473C358.77 445.05 355.184 441.465 350.762 441.465C346.34 441.465 342.754 445.05 342.754 449.473V656.074C342.754 669.321 353.531 680.098 366.777 680.098H584.58C597.827 680.098 608.604 669.321 608.604 656.074V636.855H656.655C669.902 636.855 680.679 626.079 680.679 612.832V526.348C680.679 513.101 669.902 502.324 656.655 502.324ZM664.663 612.832C664.663 617.248 661.071 620.84 656.655 620.84H570.171C565.755 620.84 562.163 617.248 562.163 612.832V526.348C562.163 521.932 565.755 518.34 570.171 518.34H656.655C661.071 518.34 664.663 521.932 664.663 526.348V612.832Z" fill="#246B6D"/>
<path d="M637.488 351.777C633.066 351.777 629.48 355.362 629.48 359.785V423.565C629.48 427.988 633.066 431.573 637.488 431.573C641.91 431.573 645.496 427.988 645.496 423.565V359.785C645.496 355.362 641.91 351.777 637.488 351.777Z" fill="#246B6D"/>
<path d="M643.146 448.385C641.656 446.896 639.59 446.039 637.484 446.039C635.378 446.039 633.312 446.896 631.824 448.385C630.334 449.875 629.477 451.941 629.477 454.047C629.477 456.153 630.333 458.219 631.824 459.708C633.312 461.198 635.378 462.055 637.484 462.055C639.59 462.055 641.656 461.198 643.146 459.708C644.643 458.219 645.492 456.153 645.492 454.047C645.492 451.941 644.643 449.875 643.146 448.385Z" fill="#246B6D"/>
<path d="M313.922 455.062C309.5 455.062 305.914 458.648 305.914 463.07V518.217C305.914 522.64 309.5 526.225 313.922 526.225C318.344 526.225 321.93 522.64 321.93 518.217V463.07C321.93 458.648 318.344 455.062 313.922 455.062Z" fill="#246B6D"/>
<path d="M638.383 554.512L610.272 538.298C604.82 535.154 598.313 535.156 592.865 538.303C587.417 541.451 584.164 547.086 584.164 553.379V585.796C584.164 592.087 587.417 597.723 592.864 600.871C595.59 602.446 598.582 603.234 601.574 603.234C604.56 603.234 607.546 602.449 610.268 600.88L638.379 584.676C643.835 581.53 647.093 575.892 647.094 569.594C647.095 563.296 643.837 557.658 638.383 554.512ZM630.38 570.801L602.27 587.005C601.808 587.271 601.338 587.27 600.876 587.004C600.414 586.737 600.18 586.331 600.18 585.797V553.38C600.18 552.845 600.414 552.44 600.876 552.172C601.108 552.038 601.341 551.972 601.574 551.972C601.807 551.972 602.039 552.038 602.271 552.172L630.381 568.386C630.844 568.653 631.079 569.06 631.079 569.594C631.079 570.127 630.844 570.534 630.38 570.801Z" fill="#246B6D"/>
</g>
<defs>
<clipPath id="clip0">
<rect x="270.68" y="270.098" width="410" height="410" fill="white"/>
</clipPath>
</defs>
</svg>
