<svg width="951" height="951" viewBox="0 0 951 951" fill="none" xmlns="http://www.w3.org/2000/svg">
<circle cx="475.098" cy="475.903" r="459.598" fill="white" stroke="#246B6D" stroke-width="31"/>
<path d="M688.053 395.93H584.053C579.635 395.93 576.053 399.512 576.053 403.93V435.93C576.053 440.348 579.635 443.93 584.053 443.93H608.053C616.89 443.93 624.053 451.093 624.053 459.93C624.053 468.767 616.89 475.93 608.053 475.93H584.053C579.635 475.93 576.053 479.512 576.053 483.93V523.93H456.053C451.635 523.93 448.053 527.512 448.053 531.93V635.93C448.053 653.603 462.38 667.93 480.053 667.93H688.053C705.726 667.93 720.053 653.603 720.053 635.93V427.93C720.053 410.257 705.726 395.93 688.053 395.93ZM576.053 651.93H480.053C471.216 651.93 464.053 644.767 464.053 635.93V539.93H576.053V555.93H560.053C542.38 555.93 528.053 570.257 528.053 587.93C528.053 605.603 542.38 619.93 560.053 619.93H576.053V651.93ZM704.053 635.93C704.053 644.767 696.89 651.93 688.053 651.93H592.053V611.93C592.053 607.512 588.471 603.93 584.053 603.93H560.053C551.216 603.93 544.053 596.767 544.053 587.93C544.053 579.093 551.216 571.93 560.053 571.93H584.053C588.471 571.93 592.053 568.348 592.053 563.93V539.93H616.053V555.93C616.053 573.603 630.38 587.93 648.053 587.93C665.726 587.93 680.053 573.603 680.053 555.93V539.93H704.053V635.93ZM704.053 523.93H672.053C667.635 523.93 664.053 527.512 664.053 531.93V555.93C664.053 564.767 656.89 571.93 648.053 571.93C639.216 571.93 632.053 564.767 632.053 555.93V531.93C632.053 527.512 628.471 523.93 624.053 523.93H592.053V491.93H608.053C625.726 491.93 640.053 477.603 640.053 459.93C640.053 442.257 625.726 427.93 608.053 427.93H592.053V411.93H688.053C696.89 411.93 704.053 419.093 704.053 427.93V523.93Z" fill="#246B6D"/>
<path d="M592.052 267.928H576.052V243.928C576.052 239.51 572.47 235.928 568.052 235.928H464.052C446.379 235.928 432.052 250.255 432.052 267.928V357.528L398.956 373.528C393.979 366.954 387.801 361.383 380.748 357.112C412.349 341.278 425.131 302.824 409.297 271.223C393.463 239.622 355.009 226.84 323.408 242.674C291.807 258.508 279.025 296.962 294.859 328.563C300.319 339.459 308.776 348.57 319.236 354.824C302.491 362.99 290.124 378.032 285.348 396.04L253.476 496.4C244.459 524.747 246.293 555.432 258.62 582.504C271.694 611.12 271.082 644.121 256.956 672.232L240.892 704.352C238.917 708.304 240.52 713.109 244.472 715.084C245.584 715.639 246.809 715.928 248.052 715.928H336.052C340.47 715.928 344.052 712.346 344.052 707.928C344.076 693.08 335.827 679.455 322.66 672.592L326.484 664.96C338.064 641.68 341.832 615.287 337.228 589.696L331.292 557.056C330.532 552.843 333.332 548.811 337.545 548.051C337.995 547.97 338.451 547.929 338.908 547.928C342.652 547.924 345.864 550.597 346.54 554.28L357.404 614.056C359.165 623.765 360.052 633.613 360.052 643.48V707.928C360.052 712.346 363.634 715.928 368.052 715.928H456.052C460.47 715.928 464.052 712.346 464.052 707.928C464.052 706.372 463.961 704.817 463.78 703.272C462.404 691.231 454.968 680.729 444.068 675.432C435.144 670.884 424.806 669.967 415.22 672.872L420.548 646.248C422.876 634.592 424.049 622.734 424.052 610.848V539.24L414.708 432.112L470.22 405.624C480.478 401.062 487.315 391.138 487.924 379.928H568.052C572.47 379.928 576.052 376.346 576.052 371.928V331.928H592.052C609.725 331.928 624.052 317.601 624.052 299.928C624.052 282.255 609.725 267.928 592.052 267.928ZM304.052 299.928C304.052 273.418 325.542 251.928 352.052 251.928C378.562 251.928 400.052 273.418 400.052 299.928C400.052 326.438 378.562 347.928 352.052 347.928C325.554 347.902 304.079 326.427 304.052 299.928ZM415.212 690.184C421.874 686.403 429.991 686.226 436.812 689.712C441.183 691.83 444.638 695.459 446.54 699.928H376.052V643.48C376.051 632.652 375.077 621.846 373.14 611.192L362.276 551.424C360.042 538.502 347.755 529.838 334.834 532.073C321.912 534.307 313.248 546.594 315.483 559.515C315.506 559.65 315.531 559.785 315.557 559.92L321.501 592.56C325.484 614.744 322.213 637.621 312.173 657.8L304.405 673.328C302.403 677.267 303.973 682.083 307.912 684.085C308.465 684.366 309.05 684.582 309.653 684.728C317.535 686.585 323.942 692.305 326.677 699.928H260.997L271.253 679.384C287.544 646.956 288.25 608.89 273.173 575.88C262.483 552.414 260.892 525.813 268.709 501.24L300.709 400.44C307.349 375.563 332.06 360.026 357.357 364.824C367.812 366.918 377.249 372.49 384.133 380.632L336.853 403.472C326.614 408.453 320.098 418.822 320.053 430.208C320.013 446.582 333.254 459.889 349.628 459.929C354.095 459.94 358.506 458.942 362.533 457.008L399.333 439.464L408.053 539.928V610.848C408.044 621.679 406.972 632.483 404.853 643.104L396.325 685.712C395.455 690.044 398.26 694.261 402.592 695.131C404.49 695.512 406.461 695.193 408.141 694.232L415.212 690.184ZM463.676 391.032L463.436 391.136L355.636 442.568C348.807 445.82 340.634 442.92 337.382 436.09C336.507 434.252 336.053 432.243 336.052 430.208C336.072 424.961 339.072 420.181 343.788 417.88L452.452 365.4C456.773 363.471 461.781 363.887 465.724 366.504C469.706 369.061 472.096 373.484 472.052 378.216C472.05 383.772 468.764 388.8 463.676 391.032ZM592.052 315.928H568.052C563.634 315.928 560.052 319.51 560.052 323.928V363.928H484.444C477.413 350.941 461.952 345.034 448.052 350.024V267.928C448.052 259.091 455.215 251.928 464.052 251.928H560.052V275.928C560.052 280.346 563.634 283.928 568.052 283.928H592.052C600.889 283.928 608.052 291.091 608.052 299.928C608.052 308.765 600.889 315.928 592.052 315.928Z" fill="#246B6D"/>
<path d="M562.396 446.274L536.052 472.618V427.93H520.052V488.618L512.052 496.618L504.052 488.618V459.93H488.052V472.618L461.708 446.274L450.396 457.586L506.396 513.586C509.52 516.709 514.584 516.709 517.708 513.586L573.708 457.586L562.396 446.274Z" fill="#246B6D"/>
<path d="M504.053 427.93H488.053V443.93H504.053V427.93Z" fill="#246B6D"/>
<path d="M504.053 395.93H488.053V411.93H504.053V395.93Z" fill="#246B6D"/>
<path d="M536.053 395.93H520.053V411.93H536.053V395.93Z" fill="#246B6D"/>
</svg>
