<svg width="951" height="952" viewBox="0 0 951 952" fill="none" xmlns="http://www.w3.org/2000/svg">
<circle cx="475.246" cy="476.075" r="459.598" fill="white" stroke="#246B6D" stroke-width="31"/>
<path d="M595.246 636.074H611.246V652.074H595.246V636.074Z" fill="#246B6D" stroke="#246B6D" stroke-width="8"/>
<path d="M627.246 636.074H643.246V652.074H627.246V636.074Z" fill="#246B6D" stroke="#246B6D" stroke-width="8"/>
<path d="M563.246 636.074H579.246V652.074H563.246V636.074Z" fill="#246B6D" stroke="#246B6D" stroke-width="8"/>
<path d="M323.246 420.074H339.246V436.074H323.246V420.074Z" fill="#246B6D" stroke="#246B6D" stroke-width="8"/>
<path d="M387.246 420.074H403.246V436.074H387.246V420.074Z" fill="#246B6D" stroke="#246B6D" stroke-width="8"/>
<path d="M291.246 420.074H307.246V436.074H291.246V420.074Z" fill="#246B6D" stroke="#246B6D" stroke-width="8"/>
<path d="M355.246 420.074H371.246V436.074H355.246V420.074Z" fill="#246B6D" stroke="#246B6D" stroke-width="8"/>
<path d="M707.246 389.546V332.074C707.246 274.73 660.59 228.074 603.246 228.074H539.246C488.126 228.074 445.59 265.194 436.942 313.866C415.086 299.786 389.414 292.074 363.246 292.074C288.254 292.074 227.246 353.082 227.246 428.074C227.246 492.026 271.67 545.666 331.246 560.114V588.074C331.246 592.37 332.47 596.346 334.454 599.842C327.742 604.098 323.246 611.554 323.246 620.074V684.074C323.246 706.13 341.19 724.074 363.246 724.074C385.302 724.074 403.246 706.13 403.246 684.074V620.074C403.246 611.554 398.75 604.098 392.038 599.842C394.022 596.346 395.246 592.37 395.246 588.074V560.17C429.622 551.818 459.83 530.258 478.83 499.626C480.286 499.834 481.734 500.074 483.246 500.074C499.342 500.074 512.558 488.098 514.79 472.618C527.982 489.306 548.366 500.074 571.246 500.074C594.126 500.074 614.51 489.306 627.702 472.618C629.934 488.098 643.15 500.074 659.246 500.074C676.894 500.074 691.246 485.722 691.246 468.074V466.602C693.758 467.498 696.43 468.074 699.246 468.074C712.478 468.074 723.246 457.306 723.246 444.074V412.074C723.246 401.658 716.534 392.858 707.246 389.546V389.546ZM627.702 383.53C614.51 366.842 594.126 356.074 571.246 356.074C548.366 356.074 527.982 366.842 514.79 383.53C512.558 368.05 499.342 356.074 483.246 356.074V332.074C483.246 301.202 508.374 276.074 539.246 276.074H603.246C634.118 276.074 659.246 301.202 659.246 332.074V356.074C643.15 356.074 629.934 368.05 627.702 383.53ZM451.246 332.074C451.246 283.554 490.726 244.074 539.246 244.074H603.246C651.766 244.074 691.246 283.554 691.246 332.074V388.074C691.246 376.282 684.766 366.074 675.246 360.522V332.074C675.246 292.37 642.95 260.074 603.246 260.074H539.246C499.542 260.074 467.246 292.37 467.246 332.074V360.522C457.726 366.074 451.246 376.282 451.246 388.074V332.074ZM443.246 404.074C447.662 404.074 451.246 407.658 451.246 412.074V444.074C451.246 448.49 447.662 452.074 443.246 452.074C438.83 452.074 435.246 448.49 435.246 444.074V412.074C435.246 407.658 438.83 404.074 443.246 404.074ZM435.246 389.546C425.958 392.858 419.246 401.658 419.246 412.074V444.074C419.246 456.762 429.174 467.074 441.654 467.914C426.87 496.906 396.694 516.074 363.246 516.074C314.726 516.074 275.246 476.594 275.246 428.074C275.246 379.554 314.726 340.074 363.246 340.074C391.99 340.074 418.75 354.114 435.246 377.618V389.546ZM387.246 684.074C387.246 697.306 376.478 708.074 363.246 708.074C350.014 708.074 339.246 697.306 339.246 684.074V620.074C339.246 615.658 342.83 612.074 347.246 612.074H355.246H371.246H379.246C383.662 612.074 387.246 615.658 387.246 620.074V684.074ZM379.246 588.074C379.246 592.49 375.662 596.074 371.246 596.074H355.246C350.83 596.074 347.246 592.49 347.246 588.074V563.05C352.502 563.666 357.822 564.074 363.246 564.074C368.638 564.074 373.966 563.698 379.246 563.074V588.074ZM363.246 548.074C297.078 548.074 243.246 494.242 243.246 428.074C243.246 361.906 297.078 308.074 363.246 308.074C389.582 308.074 414.366 316.458 435.246 332.178V353.242C416.062 334.778 390.438 324.074 363.246 324.074C305.902 324.074 259.246 370.73 259.246 428.074C259.246 485.418 305.902 532.074 363.246 532.074C400.998 532.074 435.286 511.442 453.518 479.722C455.67 485.202 459.31 489.874 463.91 493.402C441.862 527.306 403.966 548.074 363.246 548.074V548.074ZM499.246 468.074C499.246 476.898 492.07 484.074 483.246 484.074C474.422 484.074 467.246 476.898 467.246 468.074V444.074V412.074V388.074C467.246 379.25 474.422 372.074 483.246 372.074C492.07 372.074 499.246 379.25 499.246 388.074V468.074ZM571.246 484.074C540.374 484.074 515.246 458.946 515.246 428.074C515.246 397.202 540.374 372.074 571.246 372.074C602.118 372.074 627.246 397.202 627.246 428.074C627.246 458.946 602.118 484.074 571.246 484.074ZM675.246 468.074C675.246 476.898 668.07 484.074 659.246 484.074C650.422 484.074 643.246 476.898 643.246 468.074V388.074C643.246 379.25 650.422 372.074 659.246 372.074C668.07 372.074 675.246 379.25 675.246 388.074V412.074V444.074V468.074ZM707.246 444.074C707.246 448.49 703.662 452.074 699.246 452.074C694.83 452.074 691.246 448.49 691.246 444.074V412.074C691.246 407.658 694.83 404.074 699.246 404.074C703.662 404.074 707.246 407.658 707.246 412.074V444.074Z" fill="#246B6D" stroke="#246B6D" stroke-width="8"/>
<path d="M635.246 564.074H611.246V535.386C611.246 524.738 602.582 516.074 591.934 516.074C586.846 516.074 581.87 518.138 578.278 521.73L535.934 564.074H459.246C437.19 564.074 419.246 582.018 419.246 604.074V684.074C419.246 706.13 437.19 724.074 459.246 724.074H635.246C657.302 724.074 675.246 706.13 675.246 684.074V604.074C675.246 582.018 657.302 564.074 635.246 564.074ZM659.246 684.074C659.246 697.306 648.478 708.074 635.246 708.074H459.246C446.014 708.074 435.246 697.306 435.246 684.074V604.074C435.246 590.842 446.014 580.074 459.246 580.074H542.558L589.59 533.042C591.494 531.138 595.246 532.682 595.246 535.386V580.074H635.246C648.478 580.074 659.246 590.842 659.246 604.074V684.074Z" fill="#246B6D" stroke="#246B6D" stroke-width="8"/>
<path d="M493.646 596.074L459.734 689.338L474.766 694.81L481.574 676.074H532.918L539.734 694.81L554.766 689.338L520.846 596.074H493.646ZM487.39 660.074L504.846 612.074H509.646L527.102 660.074H487.39Z" fill="#246B6D" stroke="#246B6D" stroke-width="8"/>
</svg>
