<svg width="341" height="31" viewBox="0 0 341 31" fill="none" xmlns="http://www.w3.org/2000/svg">
<circle cx="15.8645" cy="15.6623" r="15" fill="#222222"/>
<path d="M44.233 16.7923H42.987L42.483 18.9483H40.985L41.489 16.7923H40.453L40.761 15.4343H41.811L42.161 13.9503H41.153L41.461 12.5923H42.483L42.973 10.5763H44.457L43.981 12.5923H45.227L45.717 10.5763H47.201L46.725 12.5923H47.733L47.383 13.9503H46.403L46.053 15.4343H47.019L46.683 16.7923H45.731L45.227 18.9483H43.729L44.233 16.7923ZM43.309 15.4343H44.555L44.905 13.9503H43.659L43.309 15.4343ZM48.6904 14.7483C48.6904 13.0309 48.9844 11.7569 49.5724 10.9263C50.1604 10.0863 51.005 9.66626 52.1064 9.66626C53.2824 9.66626 54.1457 10.0816 54.6964 10.9123C55.247 11.7336 55.5224 13.0123 55.5224 14.7483C55.5224 16.4749 55.2237 17.7583 54.6264 18.5983C54.0384 19.4383 53.1937 19.8583 52.0924 19.8583C50.9257 19.8583 50.067 19.4196 49.5164 18.5423C48.9657 17.6556 48.6904 16.3909 48.6904 14.7483ZM50.5104 14.7483C50.5104 15.8869 50.6317 16.7689 50.8744 17.3943C51.1264 18.0103 51.537 18.3183 52.1064 18.3183C52.657 18.3183 53.0584 18.0336 53.3104 17.4643C53.5717 16.8949 53.7024 15.9896 53.7024 14.7483C53.7024 13.6189 53.581 12.7463 53.3384 12.1303C53.0957 11.5143 52.6804 11.2063 52.0924 11.2063C51.5324 11.2063 51.1264 11.4956 50.8744 12.0743C50.6317 12.6529 50.5104 13.5443 50.5104 14.7483ZM56.6337 14.7483C56.6337 13.0309 56.9277 11.7569 57.5157 10.9263C58.1037 10.0863 58.9484 9.66626 60.0497 9.66626C61.2257 9.66626 62.0891 10.0816 62.6397 10.9123C63.1904 11.7336 63.4657 13.0123 63.4657 14.7483C63.4657 16.4749 63.1671 17.7583 62.5697 18.5983C61.9817 19.4383 61.1371 19.8583 60.0357 19.8583C58.8691 19.8583 58.0104 19.4196 57.4597 18.5423C56.9091 17.6556 56.6337 16.3909 56.6337 14.7483ZM58.4537 14.7483C58.4537 15.8869 58.5751 16.7689 58.8177 17.3943C59.0697 18.0103 59.4804 18.3183 60.0497 18.3183C60.6004 18.3183 61.0017 18.0336 61.2537 17.4643C61.5151 16.8949 61.6457 15.9896 61.6457 14.7483C61.6457 13.6189 61.5244 12.7463 61.2817 12.1303C61.0391 11.5143 60.6237 11.2063 60.0357 11.2063C59.4757 11.2063 59.0697 11.4956 58.8177 12.0743C58.5751 12.6529 58.4537 13.5443 58.4537 14.7483ZM64.5771 14.7483C64.5771 13.0309 64.8711 11.7569 65.4591 10.9263C66.0471 10.0863 66.8918 9.66626 67.9931 9.66626C69.1691 9.66626 70.0324 10.0816 70.5831 10.9123C71.1338 11.7336 71.4091 13.0123 71.4091 14.7483C71.4091 16.4749 71.1104 17.7583 70.5131 18.5983C69.9251 19.4383 69.0804 19.8583 67.9791 19.8583C66.8124 19.8583 65.9538 19.4196 65.4031 18.5423C64.8524 17.6556 64.5771 16.3909 64.5771 14.7483ZM66.3971 14.7483C66.3971 15.8869 66.5184 16.7689 66.7611 17.3943C67.0131 18.0103 67.4238 18.3183 67.9931 18.3183C68.5438 18.3183 68.9451 18.0336 69.1971 17.4643C69.4584 16.8949 69.5891 15.9896 69.5891 14.7483C69.5891 13.6189 69.4678 12.7463 69.2251 12.1303C68.9824 11.5143 68.5671 11.2063 67.9791 11.2063C67.4191 11.2063 67.0131 11.4956 66.7611 12.0743C66.5184 12.6529 66.3971 13.5443 66.3971 14.7483ZM72.5204 14.7483C72.5204 13.0309 72.8144 11.7569 73.4024 10.9263C73.9904 10.0863 74.8351 9.66626 75.9364 9.66626C77.1124 9.66626 77.9758 10.0816 78.5264 10.9123C79.0771 11.7336 79.3524 13.0123 79.3524 14.7483C79.3524 16.4749 79.0538 17.7583 78.4564 18.5983C77.8684 19.4383 77.0238 19.8583 75.9224 19.8583C74.7558 19.8583 73.8971 19.4196 73.3464 18.5423C72.7958 17.6556 72.5204 16.3909 72.5204 14.7483ZM74.3404 14.7483C74.3404 15.8869 74.4618 16.7689 74.7044 17.3943C74.9564 18.0103 75.3671 18.3183 75.9364 18.3183C76.4871 18.3183 76.8884 18.0336 77.1404 17.4643C77.4018 16.8949 77.5324 15.9896 77.5324 14.7483C77.5324 13.6189 77.4111 12.7463 77.1684 12.1303C76.9258 11.5143 76.5104 11.2063 75.9224 11.2063C75.3624 11.2063 74.9564 11.4956 74.7044 12.0743C74.4618 12.6529 74.3404 13.5443 74.3404 14.7483ZM80.4638 14.7483C80.4638 13.0309 80.7578 11.7569 81.3458 10.9263C81.9338 10.0863 82.7785 9.66626 83.8798 9.66626C85.0558 9.66626 85.9191 10.0816 86.4698 10.9123C87.0205 11.7336 87.2958 13.0123 87.2958 14.7483C87.2958 16.4749 86.9971 17.7583 86.3998 18.5983C85.8118 19.4383 84.9671 19.8583 83.8658 19.8583C82.6991 19.8583 81.8405 19.4196 81.2898 18.5423C80.7391 17.6556 80.4638 16.3909 80.4638 14.7483ZM82.2838 14.7483C82.2838 15.8869 82.4051 16.7689 82.6478 17.3943C82.8998 18.0103 83.3105 18.3183 83.8798 18.3183C84.4305 18.3183 84.8318 18.0336 85.0838 17.4643C85.3451 16.8949 85.4758 15.9896 85.4758 14.7483C85.4758 13.6189 85.3545 12.7463 85.1118 12.1303C84.8691 11.5143 84.4538 11.2063 83.8658 11.2063C83.3058 11.2063 82.8998 11.4956 82.6478 12.0743C82.4051 12.6529 82.2838 13.5443 82.2838 14.7483ZM88.4072 14.7483C88.4072 13.0309 88.7012 11.7569 89.2892 10.9263C89.8772 10.0863 90.7218 9.66626 91.8232 9.66626C92.9992 9.66626 93.8625 10.0816 94.4132 10.9123C94.9638 11.7336 95.2392 13.0123 95.2392 14.7483C95.2392 16.4749 94.9405 17.7583 94.3432 18.5983C93.7552 19.4383 92.9105 19.8583 91.8092 19.8583C90.6425 19.8583 89.7838 19.4196 89.2332 18.5423C88.6825 17.6556 88.4072 16.3909 88.4072 14.7483ZM90.2272 14.7483C90.2272 15.8869 90.3485 16.7689 90.5912 17.3943C90.8432 18.0103 91.2538 18.3183 91.8232 18.3183C92.3738 18.3183 92.7752 18.0336 93.0272 17.4643C93.2885 16.8949 93.4192 15.9896 93.4192 14.7483C93.4192 13.6189 93.2978 12.7463 93.0552 12.1303C92.8125 11.5143 92.3972 11.2063 91.8092 11.2063C91.2492 11.2063 90.8432 11.4956 90.5912 12.0743C90.3485 12.6529 90.2272 13.5443 90.2272 14.7483Z" fill="black"/>
</svg>
