<svg width="341" height="31" viewBox="0 0 341 31" fill="none" xmlns="http://www.w3.org/2000/svg">
<circle cx="15.8645" cy="15.3947" r="15" fill="#222222"/>
<path d="M44.233 16.5247H42.987L42.483 18.6807H40.985L41.489 16.5247H40.453L40.761 15.1667H41.811L42.161 13.6827H41.153L41.461 12.3247H42.483L42.973 10.3087H44.457L43.981 12.3247H45.227L45.717 10.3087H47.201L46.725 12.3247H47.733L47.383 13.6827H46.403L46.053 15.1667H47.019L46.683 16.5247H45.731L45.227 18.6807H43.729L44.233 16.5247ZM43.309 15.1667H44.555L44.905 13.6827H43.659L43.309 15.1667ZM54.7804 11.9887C54.7804 12.4647 54.6917 12.9454 54.5144 13.4307C54.3464 13.916 54.127 14.392 53.8564 14.8587C53.595 15.3254 53.301 15.778 52.9744 16.2167C52.657 16.646 52.3444 17.0427 52.0364 17.4067L51.2944 17.9807V18.0507L52.3024 17.8547H54.9904V19.3947H49.0964V18.4567C49.3204 18.2234 49.5724 17.9527 49.8524 17.6447C50.1324 17.3274 50.4124 16.996 50.6924 16.6507C50.9817 16.296 51.2617 15.932 51.5324 15.5587C51.803 15.1854 52.0457 14.812 52.2604 14.4387C52.475 14.056 52.643 13.6874 52.7644 13.3327C52.895 12.978 52.9604 12.642 52.9604 12.3247C52.9604 11.942 52.8484 11.6294 52.6244 11.3867C52.4097 11.1347 52.0644 11.0087 51.5884 11.0087C51.2897 11.0087 50.9817 11.074 50.6644 11.2047C50.3564 11.326 50.095 11.4847 49.8804 11.6807L49.1524 10.3927C49.5164 10.094 49.927 9.85602 50.3844 9.67868C50.851 9.49202 51.397 9.39868 52.0224 9.39868C52.4237 9.39868 52.7924 9.45468 53.1284 9.56668C53.4644 9.67868 53.7537 9.84202 53.9964 10.0567C54.239 10.2713 54.4304 10.542 54.5704 10.8687C54.7104 11.186 54.7804 11.5593 54.7804 11.9887ZM62.7237 11.9887C62.7237 12.4647 62.6351 12.9454 62.4577 13.4307C62.2897 13.916 62.0704 14.392 61.7997 14.8587C61.5384 15.3254 61.2444 15.778 60.9177 16.2167C60.6004 16.646 60.2877 17.0427 59.9797 17.4067L59.2377 17.9807V18.0507L60.2457 17.8547H62.9337V19.3947H57.0397V18.4567C57.2637 18.2234 57.5157 17.9527 57.7957 17.6447C58.0757 17.3274 58.3557 16.996 58.6357 16.6507C58.9251 16.296 59.2051 15.932 59.4757 15.5587C59.7464 15.1854 59.9891 14.812 60.2037 14.4387C60.4184 14.056 60.5864 13.6874 60.7077 13.3327C60.8384 12.978 60.9037 12.642 60.9037 12.3247C60.9037 11.942 60.7917 11.6294 60.5677 11.3867C60.3531 11.1347 60.0077 11.0087 59.5317 11.0087C59.2331 11.0087 58.9251 11.074 58.6077 11.2047C58.2997 11.326 58.0384 11.4847 57.8237 11.6807L57.0957 10.3927C57.4597 10.094 57.8704 9.85602 58.3277 9.67868C58.7944 9.49202 59.3404 9.39868 59.9657 9.39868C60.3671 9.39868 60.7357 9.45468 61.0717 9.56668C61.4077 9.67868 61.6971 9.84202 61.9397 10.0567C62.1824 10.2713 62.3737 10.542 62.5137 10.8687C62.6537 11.186 62.7237 11.5593 62.7237 11.9887ZM70.6671 11.9887C70.6671 12.4647 70.5784 12.9454 70.4011 13.4307C70.2331 13.916 70.0138 14.392 69.7431 14.8587C69.4818 15.3254 69.1878 15.778 68.8611 16.2167C68.5438 16.646 68.2311 17.0427 67.9231 17.4067L67.1811 17.9807V18.0507L68.1891 17.8547H70.8771V19.3947H64.9831V18.4567C65.2071 18.2234 65.4591 17.9527 65.7391 17.6447C66.0191 17.3274 66.2991 16.996 66.5791 16.6507C66.8684 16.296 67.1484 15.932 67.4191 15.5587C67.6898 15.1854 67.9324 14.812 68.1471 14.4387C68.3618 14.056 68.5298 13.6874 68.6511 13.3327C68.7818 12.978 68.8471 12.642 68.8471 12.3247C68.8471 11.942 68.7351 11.6294 68.5111 11.3867C68.2964 11.1347 67.9511 11.0087 67.4751 11.0087C67.1764 11.0087 66.8684 11.074 66.5511 11.2047C66.2431 11.326 65.9818 11.4847 65.7671 11.6807L65.0391 10.3927C65.4031 10.094 65.8138 9.85602 66.2711 9.67868C66.7378 9.49202 67.2838 9.39868 67.9091 9.39868C68.3104 9.39868 68.6791 9.45468 69.0151 9.56668C69.3511 9.67868 69.6404 9.84202 69.8831 10.0567C70.1258 10.2713 70.3171 10.542 70.4571 10.8687C70.5971 11.186 70.6671 11.5593 70.6671 11.9887ZM78.6104 11.9887C78.6104 12.4647 78.5218 12.9454 78.3444 13.4307C78.1764 13.916 77.9571 14.392 77.6864 14.8587C77.4251 15.3254 77.1311 15.778 76.8044 16.2167C76.4871 16.646 76.1744 17.0427 75.8664 17.4067L75.1244 17.9807V18.0507L76.1324 17.8547H78.8204V19.3947H72.9264V18.4567C73.1504 18.2234 73.4024 17.9527 73.6824 17.6447C73.9624 17.3274 74.2424 16.996 74.5224 16.6507C74.8118 16.296 75.0918 15.932 75.3624 15.5587C75.6331 15.1854 75.8758 14.812 76.0904 14.4387C76.3051 14.056 76.4731 13.6874 76.5944 13.3327C76.7251 12.978 76.7904 12.642 76.7904 12.3247C76.7904 11.942 76.6784 11.6294 76.4544 11.3867C76.2398 11.1347 75.8944 11.0087 75.4184 11.0087C75.1198 11.0087 74.8118 11.074 74.4944 11.2047C74.1864 11.326 73.9251 11.4847 73.7104 11.6807L72.9824 10.3927C73.3464 10.094 73.7571 9.85602 74.2144 9.67868C74.6811 9.49202 75.2271 9.39868 75.8524 9.39868C76.2538 9.39868 76.6224 9.45468 76.9584 9.56668C77.2944 9.67868 77.5838 9.84202 77.8264 10.0567C78.0691 10.2713 78.2604 10.542 78.4004 10.8687C78.5404 11.186 78.6104 11.5593 78.6104 11.9887ZM86.5538 11.9887C86.5538 12.4647 86.4651 12.9454 86.2878 13.4307C86.1198 13.916 85.9005 14.392 85.6298 14.8587C85.3685 15.3254 85.0745 15.778 84.7478 16.2167C84.4305 16.646 84.1178 17.0427 83.8098 17.4067L83.0678 17.9807V18.0507L84.0758 17.8547H86.7638V19.3947H80.8698V18.4567C81.0938 18.2234 81.3458 17.9527 81.6258 17.6447C81.9058 17.3274 82.1858 16.996 82.4658 16.6507C82.7551 16.296 83.0351 15.932 83.3058 15.5587C83.5765 15.1854 83.8191 14.812 84.0338 14.4387C84.2485 14.056 84.4165 13.6874 84.5378 13.3327C84.6685 12.978 84.7338 12.642 84.7338 12.3247C84.7338 11.942 84.6218 11.6294 84.3978 11.3867C84.1831 11.1347 83.8378 11.0087 83.3618 11.0087C83.0631 11.0087 82.7551 11.074 82.4378 11.2047C82.1298 11.326 81.8685 11.4847 81.6538 11.6807L80.9258 10.3927C81.2898 10.094 81.7005 9.85602 82.1578 9.67868C82.6245 9.49202 83.1705 9.39868 83.7958 9.39868C84.1971 9.39868 84.5658 9.45468 84.9018 9.56668C85.2378 9.67868 85.5271 9.84202 85.7698 10.0567C86.0125 10.2713 86.2038 10.542 86.3438 10.8687C86.4838 11.186 86.5538 11.5593 86.5538 11.9887ZM94.4972 11.9887C94.4972 12.4647 94.4085 12.9454 94.2312 13.4307C94.0632 13.916 93.8438 14.392 93.5732 14.8587C93.3118 15.3254 93.0178 15.778 92.6912 16.2167C92.3738 16.646 92.0612 17.0427 91.7532 17.4067L91.0112 17.9807V18.0507L92.0192 17.8547H94.7072V19.3947H88.8132V18.4567C89.0372 18.2234 89.2892 17.9527 89.5692 17.6447C89.8492 17.3274 90.1292 16.996 90.4092 16.6507C90.6985 16.296 90.9785 15.932 91.2492 15.5587C91.5198 15.1854 91.7625 14.812 91.9772 14.4387C92.1918 14.056 92.3598 13.6874 92.4812 13.3327C92.6118 12.978 92.6772 12.642 92.6772 12.3247C92.6772 11.942 92.5652 11.6294 92.3412 11.3867C92.1265 11.1347 91.7812 11.0087 91.3052 11.0087C91.0065 11.0087 90.6985 11.074 90.3812 11.2047C90.0732 11.326 89.8118 11.4847 89.5972 11.6807L88.8692 10.3927C89.2332 10.094 89.6438 9.85602 90.1012 9.67868C90.5678 9.49202 91.1138 9.39868 91.7392 9.39868C92.1405 9.39868 92.5092 9.45468 92.8452 9.56668C93.1812 9.67868 93.4705 9.84202 93.7132 10.0567C93.9558 10.2713 94.1472 10.542 94.2872 10.8687C94.4272 11.186 94.4972 11.5593 94.4972 11.9887Z" fill="black"/>
</svg>
