<svg width="341" height="31" viewBox="0 0 341 31" fill="none" xmlns="http://www.w3.org/2000/svg">
<circle cx="15.8645" cy="15.8595" r="15" fill="#333333" fill-opacity="0.5"/>
<path d="M44.233 16.9895H42.987L42.483 19.1455H40.985L41.489 16.9895H40.453L40.761 15.6315H41.811L42.161 14.1475H41.153L41.461 12.7895H42.483L42.973 10.7735H44.457L43.981 12.7895H45.227L45.717 10.7735H47.201L46.725 12.7895H47.733L47.383 14.1475H46.403L46.053 15.6315H47.019L46.683 16.9895H45.731L45.227 19.1455H43.729L44.233 16.9895ZM43.309 15.6315H44.555L44.905 14.1475H43.659L43.309 15.6315ZM51.5044 18.5155C52.083 18.5155 52.5217 18.3615 52.8204 18.0535C53.1284 17.7455 53.2824 17.3722 53.2824 16.9335C53.2824 16.4015 53.1237 16.0095 52.8064 15.7575C52.489 15.5055 51.9897 15.3795 51.3084 15.3795H50.3004V14.4135L51.9944 12.1035L52.7924 11.4735L51.6864 11.5995H49.3344V10.0595H54.6824V11.0535L52.7084 13.6995L52.0924 14.0775V14.1475L52.6804 14.0635C53.007 14.0915 53.315 14.1662 53.6044 14.2875C53.903 14.4089 54.1597 14.5862 54.3744 14.8195C54.5984 15.0435 54.7757 15.3235 54.9064 15.6595C55.037 15.9955 55.1024 16.3829 55.1024 16.8215C55.1024 17.3722 55.009 17.8482 54.8224 18.2495C54.645 18.6509 54.393 18.9869 54.0664 19.2575C53.749 19.5282 53.3757 19.7289 52.9464 19.8595C52.517 19.9902 52.055 20.0555 51.5604 20.0555C51.1497 20.0555 50.725 20.0182 50.2864 19.9435C49.8477 19.8689 49.493 19.7615 49.2224 19.6215L49.7124 18.1095C49.955 18.2309 50.221 18.3289 50.5104 18.4035C50.809 18.4782 51.1404 18.5155 51.5044 18.5155ZM59.4477 18.5155C60.0264 18.5155 60.4651 18.3615 60.7637 18.0535C61.0717 17.7455 61.2257 17.3722 61.2257 16.9335C61.2257 16.4015 61.0671 16.0095 60.7497 15.7575C60.4324 15.5055 59.9331 15.3795 59.2517 15.3795H58.2437V14.4135L59.9377 12.1035L60.7357 11.4735L59.6297 11.5995H57.2777V10.0595H62.6257V11.0535L60.6517 13.6995L60.0357 14.0775V14.1475L60.6237 14.0635C60.9504 14.0915 61.2584 14.1662 61.5477 14.2875C61.8464 14.4089 62.1031 14.5862 62.3177 14.8195C62.5417 15.0435 62.7191 15.3235 62.8497 15.6595C62.9804 15.9955 63.0457 16.3829 63.0457 16.8215C63.0457 17.3722 62.9524 17.8482 62.7657 18.2495C62.5884 18.6509 62.3364 18.9869 62.0097 19.2575C61.6924 19.5282 61.3191 19.7289 60.8897 19.8595C60.4604 19.9902 59.9984 20.0555 59.5037 20.0555C59.0931 20.0555 58.6684 20.0182 58.2297 19.9435C57.7911 19.8689 57.4364 19.7615 57.1657 19.6215L57.6557 18.1095C57.8984 18.2309 58.1644 18.3289 58.4537 18.4035C58.7524 18.4782 59.0837 18.5155 59.4477 18.5155ZM67.3911 18.5155C67.9698 18.5155 68.4084 18.3615 68.7071 18.0535C69.0151 17.7455 69.1691 17.3722 69.1691 16.9335C69.1691 16.4015 69.0104 16.0095 68.6931 15.7575C68.3758 15.5055 67.8764 15.3795 67.1951 15.3795H66.1871V14.4135L67.8811 12.1035L68.6791 11.4735L67.5731 11.5995H65.2211V10.0595H70.5691V11.0535L68.5951 13.6995L67.9791 14.0775V14.1475L68.5671 14.0635C68.8938 14.0915 69.2018 14.1662 69.4911 14.2875C69.7898 14.4089 70.0464 14.5862 70.2611 14.8195C70.4851 15.0435 70.6624 15.3235 70.7931 15.6595C70.9238 15.9955 70.9891 16.3829 70.9891 16.8215C70.9891 17.3722 70.8958 17.8482 70.7091 18.2495C70.5318 18.6509 70.2798 18.9869 69.9531 19.2575C69.6358 19.5282 69.2624 19.7289 68.8331 19.8595C68.4038 19.9902 67.9418 20.0555 67.4471 20.0555C67.0364 20.0555 66.6118 20.0182 66.1731 19.9435C65.7344 19.8689 65.3798 19.7615 65.1091 19.6215L65.5991 18.1095C65.8418 18.2309 66.1078 18.3289 66.3971 18.4035C66.6958 18.4782 67.0271 18.5155 67.3911 18.5155ZM75.3344 18.5155C75.9131 18.5155 76.3518 18.3615 76.6504 18.0535C76.9584 17.7455 77.1124 17.3722 77.1124 16.9335C77.1124 16.4015 76.9538 16.0095 76.6364 15.7575C76.3191 15.5055 75.8198 15.3795 75.1384 15.3795H74.1304V14.4135L75.8244 12.1035L76.6224 11.4735L75.5164 11.5995H73.1644V10.0595H78.5124V11.0535L76.5384 13.6995L75.9224 14.0775V14.1475L76.5104 14.0635C76.8371 14.0915 77.1451 14.1662 77.4344 14.2875C77.7331 14.4089 77.9898 14.5862 78.2044 14.8195C78.4284 15.0435 78.6058 15.3235 78.7364 15.6595C78.8671 15.9955 78.9324 16.3829 78.9324 16.8215C78.9324 17.3722 78.8391 17.8482 78.6524 18.2495C78.4751 18.6509 78.2231 18.9869 77.8964 19.2575C77.5791 19.5282 77.2058 19.7289 76.7764 19.8595C76.3471 19.9902 75.8851 20.0555 75.3904 20.0555C74.9798 20.0555 74.5551 20.0182 74.1164 19.9435C73.6778 19.8689 73.3231 19.7615 73.0524 19.6215L73.5424 18.1095C73.7851 18.2309 74.0511 18.3289 74.3404 18.4035C74.6391 18.4782 74.9704 18.5155 75.3344 18.5155ZM83.2778 18.5155C83.8565 18.5155 84.2951 18.3615 84.5938 18.0535C84.9018 17.7455 85.0558 17.3722 85.0558 16.9335C85.0558 16.4015 84.8971 16.0095 84.5798 15.7575C84.2625 15.5055 83.7631 15.3795 83.0818 15.3795H82.0738V14.4135L83.7678 12.1035L84.5658 11.4735L83.4598 11.5995H81.1078V10.0595H86.4558V11.0535L84.4818 13.6995L83.8658 14.0775V14.1475L84.4538 14.0635C84.7805 14.0915 85.0885 14.1662 85.3778 14.2875C85.6765 14.4089 85.9331 14.5862 86.1478 14.8195C86.3718 15.0435 86.5491 15.3235 86.6798 15.6595C86.8105 15.9955 86.8758 16.3829 86.8758 16.8215C86.8758 17.3722 86.7825 17.8482 86.5958 18.2495C86.4185 18.6509 86.1665 18.9869 85.8398 19.2575C85.5225 19.5282 85.1491 19.7289 84.7198 19.8595C84.2905 19.9902 83.8285 20.0555 83.3338 20.0555C82.9231 20.0555 82.4985 20.0182 82.0598 19.9435C81.6211 19.8689 81.2665 19.7615 80.9958 19.6215L81.4858 18.1095C81.7285 18.2309 81.9945 18.3289 82.2838 18.4035C82.5825 18.4782 82.9138 18.5155 83.2778 18.5155ZM91.2212 18.5155C91.7998 18.5155 92.2385 18.3615 92.5372 18.0535C92.8452 17.7455 92.9992 17.3722 92.9992 16.9335C92.9992 16.4015 92.8405 16.0095 92.5232 15.7575C92.2058 15.5055 91.7065 15.3795 91.0252 15.3795H90.0172V14.4135L91.7112 12.1035L92.5092 11.4735L91.4032 11.5995H89.0512V10.0595H94.3992V11.0535L92.4252 13.6995L91.8092 14.0775V14.1475L92.3972 14.0635C92.7238 14.0915 93.0318 14.1662 93.3212 14.2875C93.6198 14.4089 93.8765 14.5862 94.0912 14.8195C94.3152 15.0435 94.4925 15.3235 94.6232 15.6595C94.7538 15.9955 94.8192 16.3829 94.8192 16.8215C94.8192 17.3722 94.7258 17.8482 94.5392 18.2495C94.3618 18.6509 94.1098 18.9869 93.7832 19.2575C93.4658 19.5282 93.0925 19.7289 92.6632 19.8595C92.2338 19.9902 91.7718 20.0555 91.2772 20.0555C90.8665 20.0555 90.4418 20.0182 90.0032 19.9435C89.5645 19.8689 89.2098 19.7615 88.9392 19.6215L89.4292 18.1095C89.6718 18.2309 89.9378 18.3289 90.2272 18.4035C90.5258 18.4782 90.8572 18.5155 91.2212 18.5155ZM108.838 13.0835H109.818L109.146 16.8775C109.071 17.3162 109.066 17.6335 109.132 17.8295C109.206 18.0255 109.365 18.1235 109.608 18.1235C109.85 18.1235 110.088 18.0675 110.322 17.9555C110.555 17.8435 110.765 17.6709 110.952 17.4375C111.138 17.2042 111.288 16.9102 111.4 16.5555C111.521 16.2009 111.582 15.7809 111.582 15.2955C111.582 14.5955 111.465 13.9982 111.232 13.5035C110.998 13.0089 110.676 12.6029 110.266 12.2855C109.864 11.9589 109.388 11.7209 108.838 11.5715C108.287 11.4222 107.694 11.3475 107.06 11.3475C106.332 11.3475 105.655 11.4782 105.03 11.7395C104.404 12.0009 103.858 12.3602 103.392 12.8175C102.934 13.2749 102.575 13.8209 102.314 14.4555C102.052 15.0809 101.922 15.7622 101.922 16.4995C101.922 17.2275 102.029 17.8809 102.244 18.4595C102.468 19.0382 102.79 19.5282 103.21 19.9295C103.63 20.3402 104.148 20.6529 104.764 20.8675C105.389 21.0915 106.103 21.2035 106.906 21.2035C107.176 21.2035 107.484 21.1709 107.83 21.1055C108.175 21.0402 108.488 20.9422 108.768 20.8115L109.202 22.1555C108.819 22.3422 108.427 22.4729 108.026 22.5475C107.634 22.6222 107.181 22.6595 106.668 22.6595C105.762 22.6595 104.922 22.5289 104.148 22.2675C103.382 22.0062 102.715 21.6189 102.146 21.1055C101.586 20.5922 101.147 19.9575 100.83 19.2015C100.512 18.4362 100.354 17.5542 100.354 16.5555C100.354 15.5382 100.536 14.6189 100.9 13.7975C101.264 12.9762 101.754 12.2762 102.37 11.6975C102.986 11.1189 103.7 10.6755 104.512 10.3675C105.324 10.0502 106.182 9.89153 107.088 9.89153C107.946 9.89153 108.744 10.0175 109.482 10.2695C110.219 10.5122 110.858 10.8669 111.4 11.3335C111.941 11.7909 112.366 12.3555 112.674 13.0275C112.982 13.6902 113.136 14.4462 113.136 15.2955C113.136 15.8929 113.028 16.4529 112.814 16.9755C112.608 17.4982 112.319 17.9509 111.946 18.3335C111.582 18.7162 111.152 19.0195 110.658 19.2435C110.172 19.4675 109.65 19.5795 109.09 19.5795C108.856 19.5795 108.637 19.5562 108.432 19.5095C108.236 19.4535 108.068 19.3649 107.928 19.2435C107.797 19.1222 107.699 18.9635 107.634 18.7675C107.568 18.5715 107.55 18.3289 107.578 18.0395H107.522C107.382 18.2355 107.228 18.4269 107.06 18.6135C106.901 18.8002 106.724 18.9682 106.528 19.1175C106.332 19.2575 106.117 19.3695 105.884 19.4535C105.65 19.5375 105.394 19.5795 105.114 19.5795C104.89 19.5795 104.675 19.5329 104.47 19.4395C104.264 19.3369 104.087 19.1969 103.938 19.0195C103.788 18.8422 103.667 18.6275 103.574 18.3755C103.49 18.1235 103.448 17.8435 103.448 17.5355C103.448 16.9569 103.541 16.3969 103.728 15.8555C103.914 15.3049 104.166 14.8195 104.484 14.3995C104.81 13.9795 105.184 13.6435 105.604 13.3915C106.033 13.1302 106.486 12.9995 106.962 12.9995C107.288 12.9995 107.564 13.0509 107.788 13.1535C108.012 13.2469 108.217 13.3729 108.404 13.5315L108.838 13.0835ZM107.956 14.7775C107.834 14.6749 107.708 14.5955 107.578 14.5395C107.447 14.4835 107.284 14.4555 107.088 14.4555C106.808 14.4555 106.546 14.5349 106.304 14.6935C106.07 14.8522 105.865 15.0575 105.688 15.3095C105.52 15.5615 105.389 15.8462 105.296 16.1635C105.202 16.4715 105.156 16.7749 105.156 17.0735C105.156 17.3815 105.216 17.6335 105.338 17.8295C105.468 18.0255 105.688 18.1235 105.996 18.1235C106.126 18.1235 106.266 18.0862 106.416 18.0115C106.565 17.9275 106.71 17.8202 106.85 17.6895C106.99 17.5589 107.125 17.4095 107.256 17.2415C107.386 17.0735 107.503 16.8962 107.606 16.7095L107.956 14.7775ZM120.773 18.4455C121.389 18.4455 121.86 18.2962 122.187 17.9975C122.514 17.6989 122.677 17.2882 122.677 16.7655C122.677 16.2055 122.486 15.7949 122.103 15.5335C121.72 15.2722 121.174 15.1415 120.465 15.1415L119.359 15.1835V10.0595H124.175V11.7675H120.927V13.6575L121.501 13.6015C121.958 13.6202 122.369 13.7042 122.733 13.8535C123.106 14.0029 123.424 14.2129 123.685 14.4835C123.946 14.7449 124.147 15.0669 124.287 15.4495C124.427 15.8229 124.497 16.2429 124.497 16.7095C124.497 17.2602 124.404 17.7455 124.217 18.1655C124.03 18.5855 123.769 18.9355 123.433 19.2155C123.106 19.4955 122.719 19.7055 122.271 19.8455C121.823 19.9855 121.333 20.0555 120.801 20.0555C120.381 20.0555 119.98 20.0182 119.597 19.9435C119.224 19.8782 118.906 19.7849 118.645 19.6635L119.135 18.1515C119.35 18.2449 119.583 18.3195 119.835 18.3755C120.096 18.4222 120.409 18.4455 120.773 18.4455ZM126.196 14.9455C126.196 13.2282 126.49 11.9542 127.078 11.1235C127.666 10.2835 128.511 9.86353 129.612 9.86353C130.788 9.86353 131.652 10.2789 132.202 11.1095C132.753 11.9309 133.028 13.2095 133.028 14.9455C133.028 16.6722 132.73 17.9555 132.132 18.7955C131.544 19.6355 130.7 20.0555 129.598 20.0555C128.432 20.0555 127.573 19.6169 127.022 18.7395C126.472 17.8529 126.196 16.5882 126.196 14.9455ZM128.016 14.9455C128.016 16.0842 128.138 16.9662 128.38 17.5915C128.632 18.2075 129.043 18.5155 129.612 18.5155C130.163 18.5155 130.564 18.2309 130.816 17.6615C131.078 17.0922 131.208 16.1869 131.208 14.9455C131.208 13.8162 131.087 12.9435 130.844 12.3275C130.602 11.7115 130.186 11.4035 129.598 11.4035C129.038 11.4035 128.632 11.6929 128.38 12.2715C128.138 12.8502 128.016 13.7415 128.016 14.9455ZM134.294 12.2715C134.294 11.8515 134.354 11.4922 134.476 11.1935C134.597 10.8949 134.765 10.6475 134.98 10.4515C135.194 10.2555 135.451 10.1155 135.75 10.0315C136.058 9.93819 136.389 9.89153 136.744 9.89153C137.098 9.89153 137.425 9.93353 137.724 10.0175C138.022 10.1015 138.279 10.2369 138.494 10.4235C138.718 10.6102 138.89 10.8575 139.012 11.1655C139.133 11.4642 139.198 11.8329 139.208 12.2715C139.198 12.7102 139.133 13.0835 139.012 13.3915C138.89 13.6902 138.718 13.9329 138.494 14.1195C138.279 14.3062 138.022 14.4415 137.724 14.5255C137.425 14.6095 137.098 14.6515 136.744 14.6515C136.389 14.6515 136.058 14.6095 135.75 14.5255C135.451 14.4415 135.194 14.3062 134.98 14.1195C134.765 13.9329 134.597 13.6902 134.476 13.3915C134.354 13.0835 134.294 12.7102 134.294 12.2715ZM135.918 12.2715C135.918 13.0742 136.193 13.4755 136.744 13.4755C137.033 13.4755 137.238 13.3915 137.36 13.2235C137.49 13.0462 137.56 12.7289 137.57 12.2715C137.56 11.8235 137.49 11.5109 137.36 11.3335C137.238 11.1562 137.033 11.0675 136.744 11.0675C136.454 11.0675 136.244 11.1562 136.114 11.3335C135.983 11.5109 135.918 11.8235 135.918 12.2715ZM139.978 17.4515C139.978 17.0315 140.038 16.6722 140.16 16.3735C140.281 16.0749 140.449 15.8275 140.664 15.6315C140.878 15.4355 141.135 15.2955 141.434 15.2115C141.742 15.1182 142.073 15.0715 142.428 15.0715C142.782 15.0715 143.109 15.1135 143.408 15.1975C143.706 15.2815 143.963 15.4169 144.178 15.6035C144.402 15.7902 144.574 16.0375 144.696 16.3455C144.817 16.6442 144.882 17.0129 144.892 17.4515C144.882 17.8902 144.817 18.2635 144.696 18.5715C144.574 18.8702 144.402 19.1129 144.178 19.2995C143.963 19.4862 143.706 19.6215 143.408 19.7055C143.109 19.7895 142.782 19.8315 142.428 19.8315C142.073 19.8315 141.742 19.7895 141.434 19.7055C141.135 19.6215 140.878 19.4862 140.664 19.2995C140.449 19.1129 140.281 18.8702 140.16 18.5715C140.038 18.2635 139.978 17.8902 139.978 17.4515ZM141.602 17.4515C141.602 18.2542 141.877 18.6555 142.428 18.6555C142.717 18.6555 142.922 18.5715 143.044 18.4035C143.174 18.2262 143.244 17.9089 143.254 17.4515C143.244 17.0035 143.174 16.6909 143.044 16.5135C142.922 16.3362 142.717 16.2475 142.428 16.2475C142.138 16.2475 141.928 16.3362 141.798 16.5135C141.667 16.6909 141.602 17.0035 141.602 17.4515ZM143.058 9.86353L144.08 10.7875L136.016 20.0555L134.994 19.0895L143.058 9.86353Z" fill="black"/>
</svg>
