<svg width="341" height="31" viewBox="0 0 341 31" fill="none" xmlns="http://www.w3.org/2000/svg">
<circle cx="15.8645" cy="15.1271" r="15" fill="#333333"/>
<path d="M44.233 16.2571H42.987L42.483 18.4131H40.985L41.489 16.2571H40.453L40.761 14.8991H41.811L42.161 13.4151H41.153L41.461 12.0571H42.483L42.973 10.0411H44.457L43.981 12.0571H45.227L45.717 10.0411H47.201L46.725 12.0571H47.733L47.383 13.4151H46.403L46.053 14.8991H47.019L46.683 16.2571H45.731L45.227 18.4131H43.729L44.233 16.2571ZM43.309 14.8991H44.555L44.905 13.4151H43.659L43.309 14.8991ZM51.5044 17.7831C52.083 17.7831 52.5217 17.6291 52.8204 17.3211C53.1284 17.0131 53.2824 16.6398 53.2824 16.2011C53.2824 15.6691 53.1237 15.2771 52.8064 15.0251C52.489 14.7731 51.9897 14.6471 51.3084 14.6471H50.3004V13.6811L51.9944 11.3711L52.7924 10.7411L51.6864 10.8671H49.3344V9.32711H54.6824V10.3211L52.7084 12.9671L52.0924 13.3451V13.4151L52.6804 13.3311C53.007 13.3591 53.315 13.4338 53.6044 13.5551C53.903 13.6764 54.1597 13.8538 54.3744 14.0871C54.5984 14.3111 54.7757 14.5911 54.9064 14.9271C55.037 15.2631 55.1024 15.6504 55.1024 16.0891C55.1024 16.6398 55.009 17.1158 54.8224 17.5171C54.645 17.9184 54.393 18.2544 54.0664 18.5251C53.749 18.7958 53.3757 18.9964 52.9464 19.1271C52.517 19.2578 52.055 19.3231 51.5604 19.3231C51.1497 19.3231 50.725 19.2858 50.2864 19.2111C49.8477 19.1364 49.493 19.0291 49.2224 18.8891L49.7124 17.3771C49.955 17.4984 50.221 17.5964 50.5104 17.6711C50.809 17.7458 51.1404 17.7831 51.5044 17.7831ZM59.4477 17.7831C60.0264 17.7831 60.4651 17.6291 60.7637 17.3211C61.0717 17.0131 61.2257 16.6398 61.2257 16.2011C61.2257 15.6691 61.0671 15.2771 60.7497 15.0251C60.4324 14.7731 59.9331 14.6471 59.2517 14.6471H58.2437V13.6811L59.9377 11.3711L60.7357 10.7411L59.6297 10.8671H57.2777V9.32711H62.6257V10.3211L60.6517 12.9671L60.0357 13.3451V13.4151L60.6237 13.3311C60.9504 13.3591 61.2584 13.4338 61.5477 13.5551C61.8464 13.6764 62.1031 13.8538 62.3177 14.0871C62.5417 14.3111 62.7191 14.5911 62.8497 14.9271C62.9804 15.2631 63.0457 15.6504 63.0457 16.0891C63.0457 16.6398 62.9524 17.1158 62.7657 17.5171C62.5884 17.9184 62.3364 18.2544 62.0097 18.5251C61.6924 18.7958 61.3191 18.9964 60.8897 19.1271C60.4604 19.2578 59.9984 19.3231 59.5037 19.3231C59.0931 19.3231 58.6684 19.2858 58.2297 19.2111C57.7911 19.1364 57.4364 19.0291 57.1657 18.8891L57.6557 17.3771C57.8984 17.4984 58.1644 17.5964 58.4537 17.6711C58.7524 17.7458 59.0837 17.7831 59.4477 17.7831ZM67.3911 17.7831C67.9698 17.7831 68.4084 17.6291 68.7071 17.3211C69.0151 17.0131 69.1691 16.6398 69.1691 16.2011C69.1691 15.6691 69.0104 15.2771 68.6931 15.0251C68.3758 14.7731 67.8764 14.6471 67.1951 14.6471H66.1871V13.6811L67.8811 11.3711L68.6791 10.7411L67.5731 10.8671H65.2211V9.32711H70.5691V10.3211L68.5951 12.9671L67.9791 13.3451V13.4151L68.5671 13.3311C68.8938 13.3591 69.2018 13.4338 69.4911 13.5551C69.7898 13.6764 70.0464 13.8538 70.2611 14.0871C70.4851 14.3111 70.6624 14.5911 70.7931 14.9271C70.9238 15.2631 70.9891 15.6504 70.9891 16.0891C70.9891 16.6398 70.8958 17.1158 70.7091 17.5171C70.5318 17.9184 70.2798 18.2544 69.9531 18.5251C69.6358 18.7958 69.2624 18.9964 68.8331 19.1271C68.4038 19.2578 67.9418 19.3231 67.4471 19.3231C67.0364 19.3231 66.6118 19.2858 66.1731 19.2111C65.7344 19.1364 65.3798 19.0291 65.1091 18.8891L65.5991 17.3771C65.8418 17.4984 66.1078 17.5964 66.3971 17.6711C66.6958 17.7458 67.0271 17.7831 67.3911 17.7831ZM75.3344 17.7831C75.9131 17.7831 76.3518 17.6291 76.6504 17.3211C76.9584 17.0131 77.1124 16.6398 77.1124 16.2011C77.1124 15.6691 76.9538 15.2771 76.6364 15.0251C76.3191 14.7731 75.8198 14.6471 75.1384 14.6471H74.1304V13.6811L75.8244 11.3711L76.6224 10.7411L75.5164 10.8671H73.1644V9.32711H78.5124V10.3211L76.5384 12.9671L75.9224 13.3451V13.4151L76.5104 13.3311C76.8371 13.3591 77.1451 13.4338 77.4344 13.5551C77.7331 13.6764 77.9898 13.8538 78.2044 14.0871C78.4284 14.3111 78.6058 14.5911 78.7364 14.9271C78.8671 15.2631 78.9324 15.6504 78.9324 16.0891C78.9324 16.6398 78.8391 17.1158 78.6524 17.5171C78.4751 17.9184 78.2231 18.2544 77.8964 18.5251C77.5791 18.7958 77.2058 18.9964 76.7764 19.1271C76.3471 19.2578 75.8851 19.3231 75.3904 19.3231C74.9798 19.3231 74.5551 19.2858 74.1164 19.2111C73.6778 19.1364 73.3231 19.0291 73.0524 18.8891L73.5424 17.3771C73.7851 17.4984 74.0511 17.5964 74.3404 17.6711C74.6391 17.7458 74.9704 17.7831 75.3344 17.7831ZM83.2778 17.7831C83.8565 17.7831 84.2951 17.6291 84.5938 17.3211C84.9018 17.0131 85.0558 16.6398 85.0558 16.2011C85.0558 15.6691 84.8971 15.2771 84.5798 15.0251C84.2625 14.7731 83.7631 14.6471 83.0818 14.6471H82.0738V13.6811L83.7678 11.3711L84.5658 10.7411L83.4598 10.8671H81.1078V9.32711H86.4558V10.3211L84.4818 12.9671L83.8658 13.3451V13.4151L84.4538 13.3311C84.7805 13.3591 85.0885 13.4338 85.3778 13.5551C85.6765 13.6764 85.9331 13.8538 86.1478 14.0871C86.3718 14.3111 86.5491 14.5911 86.6798 14.9271C86.8105 15.2631 86.8758 15.6504 86.8758 16.0891C86.8758 16.6398 86.7825 17.1158 86.5958 17.5171C86.4185 17.9184 86.1665 18.2544 85.8398 18.5251C85.5225 18.7958 85.1491 18.9964 84.7198 19.1271C84.2905 19.2578 83.8285 19.3231 83.3338 19.3231C82.9231 19.3231 82.4985 19.2858 82.0598 19.2111C81.6211 19.1364 81.2665 19.0291 80.9958 18.8891L81.4858 17.3771C81.7285 17.4984 81.9945 17.5964 82.2838 17.6711C82.5825 17.7458 82.9138 17.7831 83.2778 17.7831ZM91.2212 17.7831C91.7998 17.7831 92.2385 17.6291 92.5372 17.3211C92.8452 17.0131 92.9992 16.6398 92.9992 16.2011C92.9992 15.6691 92.8405 15.2771 92.5232 15.0251C92.2058 14.7731 91.7065 14.6471 91.0252 14.6471H90.0172V13.6811L91.7112 11.3711L92.5092 10.7411L91.4032 10.8671H89.0512V9.32711H94.3992V10.3211L92.4252 12.9671L91.8092 13.3451V13.4151L92.3972 13.3311C92.7238 13.3591 93.0318 13.4338 93.3212 13.5551C93.6198 13.6764 93.8765 13.8538 94.0912 14.0871C94.3152 14.3111 94.4925 14.5911 94.6232 14.9271C94.7538 15.2631 94.8192 15.6504 94.8192 16.0891C94.8192 16.6398 94.7258 17.1158 94.5392 17.5171C94.3618 17.9184 94.1098 18.2544 93.7832 18.5251C93.4658 18.7958 93.0925 18.9964 92.6632 19.1271C92.2338 19.2578 91.7718 19.3231 91.2772 19.3231C90.8665 19.3231 90.4418 19.2858 90.0032 19.2111C89.5645 19.1364 89.2098 19.0291 88.9392 18.8891L89.4292 17.3771C89.6718 17.4984 89.9378 17.5964 90.2272 17.6711C90.5258 17.7458 90.8572 17.7831 91.2212 17.7831Z" fill="black"/>
</svg>
