<svg width="341" height="31" viewBox="0 0 341 31" fill="none" xmlns="http://www.w3.org/2000/svg">
<circle cx="15.8645" cy="15.3244" r="15" fill="#CCCCCC" fill-opacity="0.7"/>
<path d="M44.233 16.4544H42.987L42.483 18.6104H40.985L41.489 16.4544H40.453L40.761 15.0964H41.811L42.161 13.6124H41.153L41.461 12.2544H42.483L42.973 10.2384H44.457L43.981 12.2544H45.227L45.717 10.2384H47.201L46.725 12.2544H47.733L47.383 13.6124H46.403L46.053 15.0964H47.019L46.683 16.4544H45.731L45.227 18.6104H43.729L44.233 16.4544ZM43.309 15.0964H44.555L44.905 13.6124H43.659L43.309 15.0964ZM55.6064 18.9184C55.3077 19.133 54.925 19.287 54.4584 19.3804C54.001 19.4737 53.5297 19.5204 53.0444 19.5204C52.4564 19.5204 51.8964 19.4317 51.3644 19.2544C50.8417 19.0677 50.3797 18.7737 49.9784 18.3724C49.577 17.9617 49.255 17.4344 49.0124 16.7904C48.779 16.137 48.6624 15.3484 48.6624 14.4244C48.6624 13.463 48.793 12.6604 49.0544 12.0164C49.325 11.363 49.6704 10.8404 50.0904 10.4484C50.5197 10.047 50.9957 9.76237 51.5184 9.59437C52.041 9.41704 52.5637 9.32837 53.0864 9.32837C53.6464 9.32837 54.1177 9.3657 54.5004 9.44037C54.8924 9.51504 55.2144 9.6037 55.4664 9.70637L55.0884 11.3304C54.8737 11.2277 54.617 11.153 54.3184 11.1064C54.029 11.0597 53.6744 11.0364 53.2544 11.0364C52.4797 11.0364 51.8544 11.3117 51.3784 11.8624C50.9117 12.413 50.6784 13.267 50.6784 14.4244C50.6784 14.9284 50.7344 15.3904 50.8464 15.8104C50.9584 16.221 51.1264 16.5757 51.3504 16.8744C51.5837 17.1637 51.8684 17.3924 52.2044 17.5604C52.5497 17.719 52.9464 17.7984 53.3944 17.7984C53.8144 17.7984 54.169 17.7564 54.4584 17.6724C54.7477 17.5884 54.9997 17.481 55.2144 17.3504L55.6064 18.9184ZM62.9618 18.9184C62.6632 19.133 62.2805 19.287 61.8138 19.3804C61.3565 19.4737 60.8852 19.5204 60.3998 19.5204C59.8118 19.5204 59.2518 19.4317 58.7198 19.2544C58.1972 19.0677 57.7352 18.7737 57.3338 18.3724C56.9325 17.9617 56.6105 17.4344 56.3678 16.7904C56.1345 16.137 56.0178 15.3484 56.0178 14.4244C56.0178 13.463 56.1485 12.6604 56.4098 12.0164C56.6805 11.363 57.0258 10.8404 57.4458 10.4484C57.8752 10.047 58.3512 9.76237 58.8738 9.59437C59.3965 9.41704 59.9192 9.32837 60.4418 9.32837C61.0018 9.32837 61.4732 9.3657 61.8558 9.44037C62.2478 9.51504 62.5698 9.6037 62.8218 9.70637L62.4438 11.3304C62.2292 11.2277 61.9725 11.153 61.6738 11.1064C61.3845 11.0597 61.0298 11.0364 60.6098 11.0364C59.8352 11.0364 59.2098 11.3117 58.7338 11.8624C58.2672 12.413 58.0338 13.267 58.0338 14.4244C58.0338 14.9284 58.0898 15.3904 58.2018 15.8104C58.3138 16.221 58.4818 16.5757 58.7058 16.8744C58.9392 17.1637 59.2238 17.3924 59.5598 17.5604C59.9052 17.719 60.3018 17.7984 60.7498 17.7984C61.1698 17.7984 61.5245 17.7564 61.8138 17.6724C62.1032 17.5884 62.3552 17.481 62.5698 17.3504L62.9618 18.9184ZM70.3173 18.9184C70.0186 19.133 69.636 19.287 69.1693 19.3804C68.712 19.4737 68.2406 19.5204 67.7553 19.5204C67.1673 19.5204 66.6073 19.4317 66.0753 19.2544C65.5526 19.0677 65.0906 18.7737 64.6893 18.3724C64.288 17.9617 63.966 17.4344 63.7233 16.7904C63.49 16.137 63.3733 15.3484 63.3733 14.4244C63.3733 13.463 63.504 12.6604 63.7653 12.0164C64.036 11.363 64.3813 10.8404 64.8013 10.4484C65.2306 10.047 65.7066 9.76237 66.2293 9.59437C66.752 9.41704 67.2746 9.32837 67.7973 9.32837C68.3573 9.32837 68.8286 9.3657 69.2113 9.44037C69.6033 9.51504 69.9253 9.6037 70.1773 9.70637L69.7993 11.3304C69.5846 11.2277 69.328 11.153 69.0293 11.1064C68.74 11.0597 68.3853 11.0364 67.9653 11.0364C67.1906 11.0364 66.5653 11.3117 66.0893 11.8624C65.6226 12.413 65.3893 13.267 65.3893 14.4244C65.3893 14.9284 65.4453 15.3904 65.5573 15.8104C65.6693 16.221 65.8373 16.5757 66.0613 16.8744C66.2946 17.1637 66.5793 17.3924 66.9153 17.5604C67.2606 17.719 67.6573 17.7984 68.1053 17.7984C68.5253 17.7984 68.88 17.7564 69.1693 17.6724C69.4586 17.5884 69.7106 17.481 69.9253 17.3504L70.3173 18.9184ZM77.6728 18.9184C77.3741 19.133 76.9914 19.287 76.5248 19.3804C76.0674 19.4737 75.5961 19.5204 75.1108 19.5204C74.5228 19.5204 73.9628 19.4317 73.4308 19.2544C72.9081 19.0677 72.4461 18.7737 72.0448 18.3724C71.6434 17.9617 71.3214 17.4344 71.0788 16.7904C70.8454 16.137 70.7288 15.3484 70.7288 14.4244C70.7288 13.463 70.8594 12.6604 71.1208 12.0164C71.3914 11.363 71.7368 10.8404 72.1568 10.4484C72.5861 10.047 73.0621 9.76237 73.5848 9.59437C74.1074 9.41704 74.6301 9.32837 75.1528 9.32837C75.7128 9.32837 76.1841 9.3657 76.5668 9.44037C76.9588 9.51504 77.2808 9.6037 77.5328 9.70637L77.1548 11.3304C76.9401 11.2277 76.6834 11.153 76.3848 11.1064C76.0954 11.0597 75.7408 11.0364 75.3208 11.0364C74.5461 11.0364 73.9208 11.3117 73.4448 11.8624C72.9781 12.413 72.7448 13.267 72.7448 14.4244C72.7448 14.9284 72.8008 15.3904 72.9128 15.8104C73.0248 16.221 73.1928 16.5757 73.4168 16.8744C73.6501 17.1637 73.9348 17.3924 74.2708 17.5604C74.6161 17.719 75.0128 17.7984 75.4608 17.7984C75.8808 17.7984 76.2354 17.7564 76.5248 17.6724C76.8141 17.5884 77.0661 17.481 77.2808 17.3504L77.6728 18.9184ZM85.0282 18.9184C84.7296 19.133 84.3469 19.287 83.8802 19.3804C83.4229 19.4737 82.9516 19.5204 82.4662 19.5204C81.8782 19.5204 81.3182 19.4317 80.7862 19.2544C80.2636 19.0677 79.8016 18.7737 79.4002 18.3724C78.9989 17.9617 78.6769 17.4344 78.4342 16.7904C78.2009 16.137 78.0842 15.3484 78.0842 14.4244C78.0842 13.463 78.2149 12.6604 78.4762 12.0164C78.7469 11.363 79.0922 10.8404 79.5122 10.4484C79.9416 10.047 80.4176 9.76237 80.9402 9.59437C81.4629 9.41704 81.9856 9.32837 82.5082 9.32837C83.0682 9.32837 83.5396 9.3657 83.9222 9.44037C84.3142 9.51504 84.6362 9.6037 84.8882 9.70637L84.5102 11.3304C84.2956 11.2277 84.0389 11.153 83.7402 11.1064C83.4509 11.0597 83.0962 11.0364 82.6762 11.0364C81.9016 11.0364 81.2762 11.3117 80.8002 11.8624C80.3336 12.413 80.1002 13.267 80.1002 14.4244C80.1002 14.9284 80.1562 15.3904 80.2682 15.8104C80.3802 16.221 80.5482 16.5757 80.7722 16.8744C81.0056 17.1637 81.2902 17.3924 81.6262 17.5604C81.9716 17.719 82.3682 17.7984 82.8162 17.7984C83.2362 17.7984 83.5909 17.7564 83.8802 17.6724C84.1696 17.5884 84.4216 17.481 84.6362 17.3504L85.0282 18.9184ZM92.3837 18.9184C92.085 19.133 91.7024 19.287 91.2357 19.3804C90.7784 19.4737 90.307 19.5204 89.8217 19.5204C89.2337 19.5204 88.6737 19.4317 88.1417 19.2544C87.619 19.0677 87.157 18.7737 86.7557 18.3724C86.3544 17.9617 86.0324 17.4344 85.7897 16.7904C85.5564 16.137 85.4397 15.3484 85.4397 14.4244C85.4397 13.463 85.5704 12.6604 85.8317 12.0164C86.1024 11.363 86.4477 10.8404 86.8677 10.4484C87.297 10.047 87.773 9.76237 88.2957 9.59437C88.8184 9.41704 89.341 9.32837 89.8637 9.32837C90.4237 9.32837 90.895 9.3657 91.2777 9.44037C91.6697 9.51504 91.9917 9.6037 92.2437 9.70637L91.8657 11.3304C91.651 11.2277 91.3944 11.153 91.0957 11.1064C90.8064 11.0597 90.4517 11.0364 90.0317 11.0364C89.257 11.0364 88.6317 11.3117 88.1557 11.8624C87.689 12.413 87.4557 13.267 87.4557 14.4244C87.4557 14.9284 87.5117 15.3904 87.6237 15.8104C87.7357 16.221 87.9037 16.5757 88.1277 16.8744C88.361 17.1637 88.6457 17.3924 88.9817 17.5604C89.327 17.719 89.7237 17.7984 90.1717 17.7984C90.5917 17.7984 90.9464 17.7564 91.2357 17.6724C91.525 17.5884 91.777 17.481 91.9917 17.3504L92.3837 18.9184ZM105.214 12.5484H106.194L105.522 16.3424C105.448 16.781 105.443 17.0984 105.508 17.2944C105.583 17.4904 105.742 17.5884 105.984 17.5884C106.227 17.5884 106.465 17.5324 106.698 17.4204C106.932 17.3084 107.142 17.1357 107.328 16.9024C107.515 16.669 107.664 16.375 107.776 16.0204C107.898 15.6657 107.958 15.2457 107.958 14.7604C107.958 14.0604 107.842 13.463 107.608 12.9684C107.375 12.4737 107.053 12.0677 106.642 11.7504C106.241 11.4237 105.765 11.1857 105.214 11.0364C104.664 10.887 104.071 10.8124 103.436 10.8124C102.708 10.8124 102.032 10.943 101.406 11.2044C100.781 11.4657 100.235 11.825 99.7685 12.2824C99.3112 12.7397 98.9518 13.2857 98.6905 13.9204C98.4292 14.5457 98.2985 15.227 98.2985 15.9644C98.2985 16.6924 98.4058 17.3457 98.6205 17.9244C98.8445 18.503 99.1665 18.993 99.5865 19.3944C100.006 19.805 100.524 20.1177 101.14 20.3324C101.766 20.5564 102.48 20.6684 103.282 20.6684C103.553 20.6684 103.861 20.6357 104.206 20.5704C104.552 20.505 104.864 20.407 105.144 20.2764L105.578 21.6204C105.196 21.807 104.804 21.9377 104.402 22.0124C104.01 22.087 103.558 22.1244 103.044 22.1244C102.139 22.1244 101.299 21.9937 100.524 21.7324C99.7592 21.471 99.0918 21.0837 98.5225 20.5704C97.9625 20.057 97.5238 19.4224 97.2065 18.6664C96.8892 17.901 96.7305 17.019 96.7305 16.0204C96.7305 15.003 96.9125 14.0837 97.2765 13.2624C97.6405 12.441 98.1305 11.741 98.7465 11.1624C99.3625 10.5837 100.076 10.1404 100.888 9.83237C101.7 9.51504 102.559 9.35637 103.464 9.35637C104.323 9.35637 105.121 9.48237 105.858 9.73437C106.596 9.97704 107.235 10.3317 107.776 10.7984C108.318 11.2557 108.742 11.8204 109.05 12.4924C109.358 13.155 109.512 13.911 109.512 14.7604C109.512 15.3577 109.405 15.9177 109.19 16.4404C108.985 16.963 108.696 17.4157 108.322 17.7984C107.958 18.181 107.529 18.4844 107.034 18.7084C106.549 18.9324 106.026 19.0444 105.466 19.0444C105.233 19.0444 105.014 19.021 104.808 18.9744C104.612 18.9184 104.444 18.8297 104.304 18.7084C104.174 18.587 104.076 18.4284 104.01 18.2324C103.945 18.0364 103.926 17.7937 103.954 17.5044H103.898C103.758 17.7004 103.604 17.8917 103.436 18.0784C103.278 18.265 103.1 18.433 102.904 18.5824C102.708 18.7224 102.494 18.8344 102.26 18.9184C102.027 19.0024 101.77 19.0444 101.49 19.0444C101.266 19.0444 101.052 18.9977 100.846 18.9044C100.641 18.8017 100.464 18.6617 100.314 18.4844C100.165 18.307 100.044 18.0924 99.9505 17.8404C99.8665 17.5884 99.8245 17.3084 99.8245 17.0004C99.8245 16.4217 99.9178 15.8617 100.104 15.3204C100.291 14.7697 100.543 14.2844 100.86 13.8644C101.187 13.4444 101.56 13.1084 101.98 12.8564C102.41 12.595 102.862 12.4644 103.338 12.4644C103.665 12.4644 103.94 12.5157 104.164 12.6184C104.388 12.7117 104.594 12.8377 104.78 12.9964L105.214 12.5484ZM104.332 14.2424C104.211 14.1397 104.085 14.0604 103.954 14.0044C103.824 13.9484 103.66 13.9204 103.464 13.9204C103.184 13.9204 102.923 13.9997 102.68 14.1584C102.447 14.317 102.242 14.5224 102.064 14.7744C101.896 15.0264 101.766 15.311 101.672 15.6284C101.579 15.9364 101.532 16.2397 101.532 16.5384C101.532 16.8464 101.593 17.0984 101.714 17.2944C101.845 17.4904 102.064 17.5884 102.372 17.5884C102.503 17.5884 102.643 17.551 102.792 17.4764C102.942 17.3924 103.086 17.285 103.226 17.1544C103.366 17.0237 103.502 16.8744 103.632 16.7064C103.763 16.5384 103.88 16.361 103.982 16.1744L104.332 14.2424ZM115.526 19.3244L118.732 11.7784L119.348 11.0924L118.508 11.2324H114.91V9.52437H121.224V10.0564L117.304 19.3244H115.526ZM122.573 14.4104C122.573 12.693 122.867 11.419 123.455 10.5884C124.043 9.74837 124.888 9.32837 125.989 9.32837C127.165 9.32837 128.029 9.7437 128.579 10.5744C129.13 11.3957 129.405 12.6744 129.405 14.4104C129.405 16.137 129.107 17.4204 128.509 18.2604C127.921 19.1004 127.077 19.5204 125.975 19.5204C124.809 19.5204 123.95 19.0817 123.399 18.2044C122.849 17.3177 122.573 16.053 122.573 14.4104ZM124.393 14.4104C124.393 15.549 124.515 16.431 124.757 17.0564C125.009 17.6724 125.42 17.9804 125.989 17.9804C126.54 17.9804 126.941 17.6957 127.193 17.1264C127.455 16.557 127.585 15.6517 127.585 14.4104C127.585 13.281 127.464 12.4084 127.221 11.7924C126.979 11.1764 126.563 10.8684 125.975 10.8684C125.415 10.8684 125.009 11.1577 124.757 11.7364C124.515 12.315 124.393 13.2064 124.393 14.4104ZM130.671 11.7364C130.671 11.3164 130.731 10.957 130.853 10.6584C130.974 10.3597 131.142 10.1124 131.357 9.91637C131.571 9.72037 131.828 9.58037 132.127 9.49637C132.435 9.40304 132.766 9.35637 133.121 9.35637C133.475 9.35637 133.802 9.39837 134.101 9.48237C134.399 9.56637 134.656 9.7017 134.871 9.88837C135.095 10.075 135.267 10.3224 135.389 10.6304C135.51 10.929 135.575 11.2977 135.585 11.7364C135.575 12.175 135.51 12.5484 135.389 12.8564C135.267 13.155 135.095 13.3977 134.871 13.5844C134.656 13.771 134.399 13.9064 134.101 13.9904C133.802 14.0744 133.475 14.1164 133.121 14.1164C132.766 14.1164 132.435 14.0744 132.127 13.9904C131.828 13.9064 131.571 13.771 131.357 13.5844C131.142 13.3977 130.974 13.155 130.853 12.8564C130.731 12.5484 130.671 12.175 130.671 11.7364ZM132.295 11.7364C132.295 12.539 132.57 12.9404 133.121 12.9404C133.41 12.9404 133.615 12.8564 133.737 12.6884C133.867 12.511 133.937 12.1937 133.947 11.7364C133.937 11.2884 133.867 10.9757 133.737 10.7984C133.615 10.621 133.41 10.5324 133.121 10.5324C132.831 10.5324 132.621 10.621 132.491 10.7984C132.36 10.9757 132.295 11.2884 132.295 11.7364ZM136.355 16.9164C136.355 16.4964 136.415 16.137 136.537 15.8384C136.658 15.5397 136.826 15.2924 137.041 15.0964C137.255 14.9004 137.512 14.7604 137.811 14.6764C138.119 14.583 138.45 14.5364 138.805 14.5364C139.159 14.5364 139.486 14.5784 139.785 14.6624C140.083 14.7464 140.34 14.8817 140.555 15.0684C140.779 15.255 140.951 15.5024 141.073 15.8104C141.194 16.109 141.259 16.4777 141.269 16.9164C141.259 17.355 141.194 17.7284 141.073 18.0364C140.951 18.335 140.779 18.5777 140.555 18.7644C140.34 18.951 140.083 19.0864 139.785 19.1704C139.486 19.2544 139.159 19.2964 138.805 19.2964C138.45 19.2964 138.119 19.2544 137.811 19.1704C137.512 19.0864 137.255 18.951 137.041 18.7644C136.826 18.5777 136.658 18.335 136.537 18.0364C136.415 17.7284 136.355 17.355 136.355 16.9164ZM137.979 16.9164C137.979 17.719 138.254 18.1204 138.805 18.1204C139.094 18.1204 139.299 18.0364 139.421 17.8684C139.551 17.691 139.621 17.3737 139.631 16.9164C139.621 16.4684 139.551 16.1557 139.421 15.9784C139.299 15.801 139.094 15.7124 138.805 15.7124C138.515 15.7124 138.305 15.801 138.175 15.9784C138.044 16.1557 137.979 16.4684 137.979 16.9164ZM139.435 9.32837L140.457 10.2524L132.393 19.5204L131.371 18.5544L139.435 9.32837Z" fill="black"/>
</svg>
