<svg width="341" height="31" viewBox="0 0 341 31" fill="none" xmlns="http://www.w3.org/2000/svg">
<circle cx="15.8645" cy="15.5919" r="15" fill="#CCCCCC"/>
<path d="M44.233 16.7219H42.987L42.483 18.8779H40.985L41.489 16.7219H40.453L40.761 15.3639H41.811L42.161 13.8799H41.153L41.461 12.5219H42.483L42.973 10.5059H44.457L43.981 12.5219H45.227L45.717 10.5059H47.201L46.725 12.5219H47.733L47.383 13.8799H46.403L46.053 15.3639H47.019L46.683 16.7219H45.731L45.227 18.8779H43.729L44.233 16.7219ZM43.309 15.3639H44.555L44.905 13.8799H43.659L43.309 15.3639ZM55.6064 19.1859C55.3077 19.4006 54.925 19.5546 54.4584 19.6479C54.001 19.7413 53.5297 19.7879 53.0444 19.7879C52.4564 19.7879 51.8964 19.6993 51.3644 19.5219C50.8417 19.3353 50.3797 19.0413 49.9784 18.6399C49.577 18.2293 49.255 17.7019 49.0124 17.0579C48.779 16.4046 48.6624 15.6159 48.6624 14.6919C48.6624 13.7306 48.793 12.9279 49.0544 12.2839C49.325 11.6306 49.6704 11.1079 50.0904 10.7159C50.5197 10.3146 50.9957 10.0299 51.5184 9.86195C52.041 9.68462 52.5637 9.59595 53.0864 9.59595C53.6464 9.59595 54.1177 9.63328 54.5004 9.70795C54.8924 9.78262 55.2144 9.87128 55.4664 9.97395L55.0884 11.5979C54.8737 11.4953 54.617 11.4206 54.3184 11.3739C54.029 11.3273 53.6744 11.3039 53.2544 11.3039C52.4797 11.3039 51.8544 11.5793 51.3784 12.1299C50.9117 12.6806 50.6784 13.5346 50.6784 14.6919C50.6784 15.1959 50.7344 15.6579 50.8464 16.0779C50.9584 16.4886 51.1264 16.8433 51.3504 17.1419C51.5837 17.4313 51.8684 17.6599 52.2044 17.8279C52.5497 17.9866 52.9464 18.0659 53.3944 18.0659C53.8144 18.0659 54.169 18.0239 54.4584 17.9399C54.7477 17.8559 54.9997 17.7486 55.2144 17.6179L55.6064 19.1859ZM62.9618 19.1859C62.6632 19.4006 62.2805 19.5546 61.8138 19.6479C61.3565 19.7413 60.8852 19.7879 60.3998 19.7879C59.8118 19.7879 59.2518 19.6993 58.7198 19.5219C58.1972 19.3353 57.7352 19.0413 57.3338 18.6399C56.9325 18.2293 56.6105 17.7019 56.3678 17.0579C56.1345 16.4046 56.0178 15.6159 56.0178 14.6919C56.0178 13.7306 56.1485 12.9279 56.4098 12.2839C56.6805 11.6306 57.0258 11.1079 57.4458 10.7159C57.8752 10.3146 58.3512 10.0299 58.8738 9.86195C59.3965 9.68462 59.9192 9.59595 60.4418 9.59595C61.0018 9.59595 61.4732 9.63328 61.8558 9.70795C62.2478 9.78262 62.5698 9.87128 62.8218 9.97395L62.4438 11.5979C62.2292 11.4953 61.9725 11.4206 61.6738 11.3739C61.3845 11.3273 61.0298 11.3039 60.6098 11.3039C59.8352 11.3039 59.2098 11.5793 58.7338 12.1299C58.2672 12.6806 58.0338 13.5346 58.0338 14.6919C58.0338 15.1959 58.0898 15.6579 58.2018 16.0779C58.3138 16.4886 58.4818 16.8433 58.7058 17.1419C58.9392 17.4313 59.2238 17.6599 59.5598 17.8279C59.9052 17.9866 60.3018 18.0659 60.7498 18.0659C61.1698 18.0659 61.5245 18.0239 61.8138 17.9399C62.1032 17.8559 62.3552 17.7486 62.5698 17.6179L62.9618 19.1859ZM70.3173 19.1859C70.0186 19.4006 69.636 19.5546 69.1693 19.6479C68.712 19.7413 68.2406 19.7879 67.7553 19.7879C67.1673 19.7879 66.6073 19.6993 66.0753 19.5219C65.5526 19.3353 65.0906 19.0413 64.6893 18.6399C64.288 18.2293 63.966 17.7019 63.7233 17.0579C63.49 16.4046 63.3733 15.6159 63.3733 14.6919C63.3733 13.7306 63.504 12.9279 63.7653 12.2839C64.036 11.6306 64.3813 11.1079 64.8013 10.7159C65.2306 10.3146 65.7066 10.0299 66.2293 9.86195C66.752 9.68462 67.2746 9.59595 67.7973 9.59595C68.3573 9.59595 68.8286 9.63328 69.2113 9.70795C69.6033 9.78262 69.9253 9.87128 70.1773 9.97395L69.7993 11.5979C69.5846 11.4953 69.328 11.4206 69.0293 11.3739C68.74 11.3273 68.3853 11.3039 67.9653 11.3039C67.1906 11.3039 66.5653 11.5793 66.0893 12.1299C65.6226 12.6806 65.3893 13.5346 65.3893 14.6919C65.3893 15.1959 65.4453 15.6579 65.5573 16.0779C65.6693 16.4886 65.8373 16.8433 66.0613 17.1419C66.2946 17.4313 66.5793 17.6599 66.9153 17.8279C67.2606 17.9866 67.6573 18.0659 68.1053 18.0659C68.5253 18.0659 68.88 18.0239 69.1693 17.9399C69.4586 17.8559 69.7106 17.7486 69.9253 17.6179L70.3173 19.1859ZM77.6728 19.1859C77.3741 19.4006 76.9914 19.5546 76.5248 19.6479C76.0674 19.7413 75.5961 19.7879 75.1108 19.7879C74.5228 19.7879 73.9628 19.6993 73.4308 19.5219C72.9081 19.3353 72.4461 19.0413 72.0448 18.6399C71.6434 18.2293 71.3214 17.7019 71.0788 17.0579C70.8454 16.4046 70.7288 15.6159 70.7288 14.6919C70.7288 13.7306 70.8594 12.9279 71.1208 12.2839C71.3914 11.6306 71.7368 11.1079 72.1568 10.7159C72.5861 10.3146 73.0621 10.0299 73.5848 9.86195C74.1074 9.68462 74.6301 9.59595 75.1528 9.59595C75.7128 9.59595 76.1841 9.63328 76.5668 9.70795C76.9588 9.78262 77.2808 9.87128 77.5328 9.97395L77.1548 11.5979C76.9401 11.4953 76.6834 11.4206 76.3848 11.3739C76.0954 11.3273 75.7408 11.3039 75.3208 11.3039C74.5461 11.3039 73.9208 11.5793 73.4448 12.1299C72.9781 12.6806 72.7448 13.5346 72.7448 14.6919C72.7448 15.1959 72.8008 15.6579 72.9128 16.0779C73.0248 16.4886 73.1928 16.8433 73.4168 17.1419C73.6501 17.4313 73.9348 17.6599 74.2708 17.8279C74.6161 17.9866 75.0128 18.0659 75.4608 18.0659C75.8808 18.0659 76.2354 18.0239 76.5248 17.9399C76.8141 17.8559 77.0661 17.7486 77.2808 17.6179L77.6728 19.1859ZM85.0282 19.1859C84.7296 19.4006 84.3469 19.5546 83.8802 19.6479C83.4229 19.7413 82.9516 19.7879 82.4662 19.7879C81.8782 19.7879 81.3182 19.6993 80.7862 19.5219C80.2636 19.3353 79.8016 19.0413 79.4002 18.6399C78.9989 18.2293 78.6769 17.7019 78.4342 17.0579C78.2009 16.4046 78.0842 15.6159 78.0842 14.6919C78.0842 13.7306 78.2149 12.9279 78.4762 12.2839C78.7469 11.6306 79.0922 11.1079 79.5122 10.7159C79.9416 10.3146 80.4176 10.0299 80.9402 9.86195C81.4629 9.68462 81.9856 9.59595 82.5082 9.59595C83.0682 9.59595 83.5396 9.63328 83.9222 9.70795C84.3142 9.78262 84.6362 9.87128 84.8882 9.97395L84.5102 11.5979C84.2956 11.4953 84.0389 11.4206 83.7402 11.3739C83.4509 11.3273 83.0962 11.3039 82.6762 11.3039C81.9016 11.3039 81.2762 11.5793 80.8002 12.1299C80.3336 12.6806 80.1002 13.5346 80.1002 14.6919C80.1002 15.1959 80.1562 15.6579 80.2682 16.0779C80.3802 16.4886 80.5482 16.8433 80.7722 17.1419C81.0056 17.4313 81.2902 17.6599 81.6262 17.8279C81.9716 17.9866 82.3682 18.0659 82.8162 18.0659C83.2362 18.0659 83.5909 18.0239 83.8802 17.9399C84.1696 17.8559 84.4216 17.7486 84.6362 17.6179L85.0282 19.1859ZM92.3837 19.1859C92.085 19.4006 91.7024 19.5546 91.2357 19.6479C90.7784 19.7413 90.307 19.7879 89.8217 19.7879C89.2337 19.7879 88.6737 19.6993 88.1417 19.5219C87.619 19.3353 87.157 19.0413 86.7557 18.6399C86.3544 18.2293 86.0324 17.7019 85.7897 17.0579C85.5564 16.4046 85.4397 15.6159 85.4397 14.6919C85.4397 13.7306 85.5704 12.9279 85.8317 12.2839C86.1024 11.6306 86.4477 11.1079 86.8677 10.7159C87.297 10.3146 87.773 10.0299 88.2957 9.86195C88.8184 9.68462 89.341 9.59595 89.8637 9.59595C90.4237 9.59595 90.895 9.63328 91.2777 9.70795C91.6697 9.78262 91.9917 9.87128 92.2437 9.97395L91.8657 11.5979C91.651 11.4953 91.3944 11.4206 91.0957 11.3739C90.8064 11.3273 90.4517 11.3039 90.0317 11.3039C89.257 11.3039 88.6317 11.5793 88.1557 12.1299C87.689 12.6806 87.4557 13.5346 87.4557 14.6919C87.4557 15.1959 87.5117 15.6579 87.6237 16.0779C87.7357 16.4886 87.9037 16.8433 88.1277 17.1419C88.361 17.4313 88.6457 17.6599 88.9817 17.8279C89.327 17.9866 89.7237 18.0659 90.1717 18.0659C90.5917 18.0659 90.9464 18.0239 91.2357 17.9399C91.525 17.8559 91.777 17.7486 91.9917 17.6179L92.3837 19.1859Z" fill="black"/>
</svg>
