<svg width="341" height="31" viewBox="0 0 341 31" fill="none" xmlns="http://www.w3.org/2000/svg">
<circle cx="15.8645" cy="15.9299" r="15" fill="#D92224" fill-opacity="0.7"/>
<path d="M44.233 17.0599H42.987L42.483 19.2159H40.985L41.489 17.0599H40.453L40.761 15.7019H41.811L42.161 14.2179H41.153L41.461 12.8599H42.483L42.973 10.8439H44.457L43.981 12.8599H45.227L45.717 10.8439H47.201L46.725 12.8599H47.733L47.383 14.2179H46.403L46.053 15.7019H47.019L46.683 17.0599H45.731L45.227 19.2159H43.729L44.233 17.0599ZM43.309 15.7019H44.555L44.905 14.2179H43.659L43.309 15.7019ZM48.9704 10.1299C49.1664 10.1019 49.3857 10.0785 49.6284 10.0599C49.8804 10.0412 50.137 10.0272 50.3984 10.0179C50.6597 10.0085 50.9117 10.0039 51.1544 10.0039C51.4064 9.99452 51.6304 9.98985 51.8264 9.98985C52.6944 9.98985 53.4364 10.1112 54.0524 10.3539C54.6684 10.5965 55.1677 10.9372 55.5504 11.3759C55.933 11.8145 56.213 12.3372 56.3904 12.9439C56.5677 13.5505 56.6564 14.2179 56.6564 14.9459C56.6564 15.6085 56.5724 16.2479 56.4044 16.8639C56.2364 17.4799 55.9564 18.0259 55.5644 18.5019C55.1724 18.9779 54.6544 19.3605 54.0104 19.6499C53.3757 19.9392 52.587 20.0839 51.6444 20.0839C51.495 20.0839 51.2944 20.0792 51.0424 20.0699C50.7997 20.0605 50.543 20.0465 50.2724 20.0279C50.011 20.0185 49.759 20.0045 49.5164 19.9859C49.2737 19.9765 49.0917 19.9625 48.9704 19.9439V10.1299ZM51.9804 11.6979C51.775 11.6979 51.565 11.7025 51.3504 11.7119C51.145 11.7212 50.991 11.7352 50.8884 11.7539V18.3199C50.9257 18.3292 50.9864 18.3385 51.0704 18.3479C51.1637 18.3479 51.2617 18.3525 51.3644 18.3619C51.467 18.3619 51.565 18.3665 51.6584 18.3759C51.7517 18.3759 51.8217 18.3759 51.8684 18.3759C52.4097 18.3759 52.8577 18.2825 53.2124 18.0959C53.5764 17.8999 53.861 17.6432 54.0664 17.3259C54.281 17.0085 54.4304 16.6445 54.5144 16.2339C54.5984 15.8139 54.6404 15.3845 54.6404 14.9459C54.6404 14.5632 54.603 14.1805 54.5284 13.7979C54.4537 13.4059 54.3137 13.0559 54.1084 12.7479C53.9124 12.4399 53.6417 12.1879 53.2964 11.9919C52.951 11.7959 52.5124 11.6979 51.9804 11.6979ZM57.8248 13.1959C57.8248 12.7199 57.8948 12.2812 58.0348 11.8799C58.1842 11.4785 58.3942 11.1379 58.6648 10.8579C58.9448 10.5685 59.2808 10.3445 59.6728 10.1859C60.0742 10.0179 60.5315 9.93385 61.0448 9.93385C62.0995 9.93385 62.9255 10.2512 63.5228 10.8859C64.1295 11.5112 64.4328 12.4259 64.4328 13.6299C64.4328 14.7125 64.2928 15.6505 64.0128 16.4439C63.7422 17.2279 63.3735 17.8859 62.9068 18.4179C62.4495 18.9405 61.9175 19.3419 61.3108 19.6219C60.7042 19.9019 60.0648 20.0699 59.3928 20.1259L59.0008 18.6979C59.5142 18.6325 59.9715 18.5065 60.3728 18.3199C60.7742 18.1332 61.1195 17.9045 61.4088 17.6339C61.6982 17.3539 61.9315 17.0412 62.1088 16.6959C62.2955 16.3412 62.4262 15.9632 62.5008 15.5619C62.2768 15.8045 62.0342 15.9725 61.7728 16.0659C61.5208 16.1592 61.1802 16.2059 60.7508 16.2059C60.3962 16.2059 60.0415 16.1452 59.6868 16.0239C59.3415 15.9025 59.0288 15.7205 58.7488 15.4779C58.4782 15.2259 58.2542 14.9132 58.0768 14.5399C57.9088 14.1572 57.8248 13.7092 57.8248 13.1959ZM59.5888 13.0979C59.5888 13.6299 59.7382 14.0312 60.0368 14.3019C60.3355 14.5725 60.7088 14.7079 61.1568 14.7079C61.5395 14.7079 61.8522 14.6472 62.0948 14.5259C62.3375 14.4045 62.5242 14.2552 62.6548 14.0779C62.6828 13.8819 62.6968 13.6952 62.6968 13.5179C62.6968 13.2565 62.6642 12.9999 62.5988 12.7479C62.5335 12.4959 62.4308 12.2719 62.2908 12.0759C62.1602 11.8799 61.9875 11.7259 61.7728 11.6139C61.5675 11.4925 61.3202 11.4319 61.0308 11.4319C60.5735 11.4319 60.2188 11.5812 59.9668 11.8799C59.7148 12.1692 59.5888 12.5752 59.5888 13.0979ZM71.7882 12.5239C71.7882 12.9999 71.6995 13.4805 71.5222 13.9659C71.3542 14.4512 71.1349 14.9272 70.8642 15.3939C70.6029 15.8605 70.3089 16.3132 69.9822 16.7519C69.6649 17.1812 69.3522 17.5779 69.0442 17.9419L68.3022 18.5159V18.5859L69.3102 18.3899H71.9982V19.9299H66.1042V18.9919C66.3282 18.7585 66.5802 18.4879 66.8602 18.1799C67.1402 17.8625 67.4202 17.5312 67.7002 17.1859C67.9895 16.8312 68.2695 16.4672 68.5402 16.0939C68.8109 15.7205 69.0535 15.3472 69.2682 14.9739C69.4829 14.5912 69.6509 14.2225 69.7722 13.8679C69.9029 13.5132 69.9682 13.1772 69.9682 12.8599C69.9682 12.4772 69.8562 12.1645 69.6322 11.9219C69.4175 11.6699 69.0722 11.5439 68.5962 11.5439C68.2975 11.5439 67.9895 11.6092 67.6722 11.7399C67.3642 11.8612 67.1029 12.0199 66.8882 12.2159L66.1602 10.9279C66.5242 10.6292 66.9349 10.3912 67.3922 10.2139C67.8589 10.0272 68.4049 9.93385 69.0302 9.93385C69.4315 9.93385 69.8002 9.98985 70.1362 10.1019C70.4722 10.2139 70.7615 10.3772 71.0042 10.5919C71.2469 10.8065 71.4382 11.0772 71.5782 11.4039C71.7182 11.7212 71.7882 12.0945 71.7882 12.5239ZM79.7315 12.5239C79.7315 12.9999 79.6429 13.4805 79.4655 13.9659C79.2975 14.4512 79.0782 14.9272 78.8075 15.3939C78.5462 15.8605 78.2522 16.3132 77.9255 16.7519C77.6082 17.1812 77.2955 17.5779 76.9875 17.9419L76.2455 18.5159V18.5859L77.2535 18.3899H79.9415V19.9299H74.0475V18.9919C74.2715 18.7585 74.5235 18.4879 74.8035 18.1799C75.0835 17.8625 75.3635 17.5312 75.6435 17.1859C75.9329 16.8312 76.2129 16.4672 76.4835 16.0939C76.7542 15.7205 76.9969 15.3472 77.2115 14.9739C77.4262 14.5912 77.5942 14.2225 77.7155 13.8679C77.8462 13.5132 77.9115 13.1772 77.9115 12.8599C77.9115 12.4772 77.7995 12.1645 77.5755 11.9219C77.3609 11.6699 77.0155 11.5439 76.5395 11.5439C76.2409 11.5439 75.9329 11.6092 75.6155 11.7399C75.3075 11.8612 75.0462 12.0199 74.8315 12.2159L74.1035 10.9279C74.4675 10.6292 74.8782 10.3912 75.3355 10.2139C75.8022 10.0272 76.3482 9.93385 76.9735 9.93385C77.3749 9.93385 77.7435 9.98985 78.0795 10.1019C78.4155 10.2139 78.7049 10.3772 78.9475 10.5919C79.1902 10.8065 79.3815 11.0772 79.5215 11.4039C79.6615 11.7212 79.7315 12.0945 79.7315 12.5239ZM87.6749 12.5239C87.6749 12.9999 87.5862 13.4805 87.4089 13.9659C87.2409 14.4512 87.0216 14.9272 86.7509 15.3939C86.4896 15.8605 86.1956 16.3132 85.8689 16.7519C85.5516 17.1812 85.2389 17.5779 84.9309 17.9419L84.1889 18.5159V18.5859L85.1969 18.3899H87.8849V19.9299H81.9909V18.9919C82.2149 18.7585 82.4669 18.4879 82.7469 18.1799C83.0269 17.8625 83.3069 17.5312 83.5869 17.1859C83.8762 16.8312 84.1562 16.4672 84.4269 16.0939C84.6976 15.7205 84.9402 15.3472 85.1549 14.9739C85.3696 14.5912 85.5376 14.2225 85.6589 13.8679C85.7896 13.5132 85.8549 13.1772 85.8549 12.8599C85.8549 12.4772 85.7429 12.1645 85.5189 11.9219C85.3042 11.6699 84.9589 11.5439 84.4829 11.5439C84.1842 11.5439 83.8762 11.6092 83.5589 11.7399C83.2509 11.8612 82.9896 12.0199 82.7749 12.2159L82.0469 10.9279C82.4109 10.6292 82.8216 10.3912 83.2789 10.2139C83.7456 10.0272 84.2916 9.93385 84.9169 9.93385C85.3182 9.93385 85.6869 9.98985 86.0229 10.1019C86.3589 10.2139 86.6482 10.3772 86.8909 10.5919C87.1336 10.8065 87.3249 11.0772 87.4649 11.4039C87.6049 11.7212 87.6749 12.0945 87.6749 12.5239ZM96.7103 17.1999H95.1703V19.9299H93.4763V17.1999H89.2343V16.1639L93.6723 10.0599H95.1703V15.7439H96.7103V17.1999ZM93.4763 13.6019L93.6023 12.4259H93.5463L93.0703 13.4339L91.6143 15.3239L90.9143 15.8559L91.8103 15.7439H93.4763V13.6019ZM109.959 13.1539H110.939L110.267 16.9479C110.192 17.3865 110.187 17.7039 110.253 17.8999C110.327 18.0959 110.486 18.1939 110.729 18.1939C110.971 18.1939 111.209 18.1379 111.443 18.0259C111.676 17.9139 111.886 17.7412 112.073 17.5079C112.259 17.2745 112.409 16.9805 112.521 16.6259C112.642 16.2712 112.703 15.8512 112.703 15.3659C112.703 14.6659 112.586 14.0685 112.353 13.5739C112.119 13.0792 111.797 12.6732 111.387 12.3559C110.985 12.0292 110.509 11.7912 109.959 11.6419C109.408 11.4925 108.815 11.4179 108.181 11.4179C107.453 11.4179 106.776 11.5485 106.151 11.8099C105.525 12.0712 104.979 12.4305 104.513 12.8879C104.055 13.3452 103.696 13.8912 103.435 14.5259C103.173 15.1512 103.043 15.8325 103.043 16.5699C103.043 17.2979 103.15 17.9512 103.365 18.5299C103.589 19.1085 103.911 19.5985 104.331 19.9999C104.751 20.4105 105.269 20.7232 105.885 20.9379C106.51 21.1619 107.224 21.2739 108.027 21.2739C108.297 21.2739 108.605 21.2412 108.951 21.1759C109.296 21.1105 109.609 21.0125 109.889 20.8819L110.323 22.2259C109.94 22.4125 109.548 22.5432 109.147 22.6179C108.755 22.6925 108.302 22.7299 107.789 22.7299C106.883 22.7299 106.043 22.5992 105.269 22.3379C104.503 22.0765 103.836 21.6892 103.267 21.1759C102.707 20.6625 102.268 20.0279 101.951 19.2719C101.633 18.5065 101.475 17.6245 101.475 16.6259C101.475 15.6085 101.657 14.6892 102.021 13.8679C102.385 13.0465 102.875 12.3465 103.491 11.7679C104.107 11.1892 104.821 10.7459 105.633 10.4379C106.445 10.1205 107.303 9.96186 108.209 9.96186C109.067 9.96186 109.865 10.0879 110.603 10.3399C111.34 10.5825 111.979 10.9372 112.521 11.4039C113.062 11.8612 113.487 12.4259 113.795 13.0979C114.103 13.7605 114.257 14.5165 114.257 15.3659C114.257 15.9632 114.149 16.5232 113.935 17.0459C113.729 17.5685 113.44 18.0212 113.067 18.4039C112.703 18.7865 112.273 19.0899 111.779 19.3139C111.293 19.5379 110.771 19.6499 110.211 19.6499C109.977 19.6499 109.758 19.6265 109.553 19.5799C109.357 19.5239 109.189 19.4352 109.049 19.3139C108.918 19.1925 108.82 19.0339 108.755 18.8379C108.689 18.6419 108.671 18.3992 108.699 18.1099H108.643C108.503 18.3059 108.349 18.4972 108.181 18.6839C108.022 18.8705 107.845 19.0385 107.649 19.1879C107.453 19.3279 107.238 19.4399 107.005 19.5239C106.771 19.6079 106.515 19.6499 106.235 19.6499C106.011 19.6499 105.796 19.6032 105.591 19.5099C105.385 19.4072 105.208 19.2672 105.059 19.0899C104.909 18.9125 104.788 18.6979 104.695 18.4459C104.611 18.1939 104.569 17.9139 104.569 17.6059C104.569 17.0272 104.662 16.4672 104.849 15.9259C105.035 15.3752 105.287 14.8899 105.605 14.4699C105.931 14.0499 106.305 13.7139 106.725 13.4619C107.154 13.2005 107.607 13.0699 108.083 13.0699C108.409 13.0699 108.685 13.1212 108.909 13.2239C109.133 13.3172 109.338 13.4432 109.525 13.6019L109.959 13.1539ZM109.077 14.8479C108.955 14.7452 108.829 14.6659 108.699 14.6099C108.568 14.5539 108.405 14.5259 108.209 14.5259C107.929 14.5259 107.667 14.6052 107.425 14.7639C107.191 14.9225 106.986 15.1279 106.809 15.3799C106.641 15.6319 106.51 15.9165 106.417 16.2339C106.323 16.5419 106.277 16.8452 106.277 17.1439C106.277 17.4519 106.337 17.7039 106.459 17.8999C106.589 18.0959 106.809 18.1939 107.117 18.1939C107.247 18.1939 107.387 18.1565 107.537 18.0819C107.686 17.9979 107.831 17.8905 107.971 17.7599C108.111 17.6292 108.246 17.4799 108.377 17.3119C108.507 17.1439 108.624 16.9665 108.727 16.7799L109.077 14.8479ZM120.27 19.9299L123.476 12.3839L124.092 11.6979L123.252 11.8379H119.654V10.1299H125.968V10.6619L122.048 19.9299H120.27ZM127.317 15.0159C127.317 13.2985 127.611 12.0245 128.199 11.1939C128.787 10.3539 129.632 9.93385 130.733 9.93385C131.909 9.93385 132.773 10.3492 133.323 11.1799C133.874 12.0012 134.149 13.2799 134.149 15.0159C134.149 16.7425 133.851 18.0259 133.253 18.8659C132.665 19.7059 131.821 20.1259 130.719 20.1259C129.553 20.1259 128.694 19.6872 128.143 18.8099C127.593 17.9232 127.317 16.6585 127.317 15.0159ZM129.137 15.0159C129.137 16.1545 129.259 17.0365 129.501 17.6619C129.753 18.2779 130.164 18.5859 130.733 18.5859C131.284 18.5859 131.685 18.3012 131.937 17.7319C132.199 17.1625 132.329 16.2572 132.329 15.0159C132.329 13.8865 132.208 13.0139 131.965 12.3979C131.723 11.7819 131.307 11.4739 130.719 11.4739C130.159 11.4739 129.753 11.7632 129.501 12.3419C129.259 12.9205 129.137 13.8119 129.137 15.0159ZM135.415 12.3419C135.415 11.9219 135.475 11.5625 135.597 11.2639C135.718 10.9652 135.886 10.7179 136.101 10.5219C136.315 10.3259 136.572 10.1859 136.871 10.1019C137.179 10.0085 137.51 9.96186 137.865 9.96186C138.219 9.96186 138.546 10.0039 138.845 10.0879C139.143 10.1719 139.4 10.3072 139.615 10.4939C139.839 10.6805 140.011 10.9279 140.133 11.2359C140.254 11.5345 140.319 11.9032 140.329 12.3419C140.319 12.7805 140.254 13.1539 140.133 13.4619C140.011 13.7605 139.839 14.0032 139.615 14.1899C139.4 14.3765 139.143 14.5119 138.845 14.5959C138.546 14.6799 138.219 14.7219 137.865 14.7219C137.51 14.7219 137.179 14.6799 136.871 14.5959C136.572 14.5119 136.315 14.3765 136.101 14.1899C135.886 14.0032 135.718 13.7605 135.597 13.4619C135.475 13.1539 135.415 12.7805 135.415 12.3419ZM137.039 12.3419C137.039 13.1445 137.314 13.5459 137.865 13.5459C138.154 13.5459 138.359 13.4619 138.481 13.2939C138.611 13.1165 138.681 12.7992 138.691 12.3419C138.681 11.8939 138.611 11.5812 138.481 11.4039C138.359 11.2265 138.154 11.1379 137.865 11.1379C137.575 11.1379 137.365 11.2265 137.235 11.4039C137.104 11.5812 137.039 11.8939 137.039 12.3419ZM141.099 17.5219C141.099 17.1019 141.159 16.7425 141.281 16.4439C141.402 16.1452 141.57 15.8979 141.785 15.7019C141.999 15.5059 142.256 15.3659 142.555 15.2819C142.863 15.1885 143.194 15.1419 143.549 15.1419C143.903 15.1419 144.23 15.1839 144.529 15.2679C144.827 15.3519 145.084 15.4872 145.299 15.6739C145.523 15.8605 145.695 16.1079 145.817 16.4159C145.938 16.7145 146.003 17.0832 146.013 17.5219C146.003 17.9605 145.938 18.3339 145.817 18.6419C145.695 18.9405 145.523 19.1832 145.299 19.3699C145.084 19.5565 144.827 19.6919 144.529 19.7759C144.23 19.8599 143.903 19.9019 143.549 19.9019C143.194 19.9019 142.863 19.8599 142.555 19.7759C142.256 19.6919 141.999 19.5565 141.785 19.3699C141.57 19.1832 141.402 18.9405 141.281 18.6419C141.159 18.3339 141.099 17.9605 141.099 17.5219ZM142.723 17.5219C142.723 18.3245 142.998 18.7259 143.549 18.7259C143.838 18.7259 144.043 18.6419 144.165 18.4739C144.295 18.2965 144.365 17.9792 144.375 17.5219C144.365 17.0739 144.295 16.7612 144.165 16.5839C144.043 16.4065 143.838 16.3179 143.549 16.3179C143.259 16.3179 143.049 16.4065 142.919 16.5839C142.788 16.7612 142.723 17.0739 142.723 17.5219ZM144.179 9.93385L145.201 10.8579L137.137 20.1259L136.115 19.1599L144.179 9.93385Z" fill="black"/>
</svg>
