<svg width="341" height="31" viewBox="0 0 341 31" fill="none" xmlns="http://www.w3.org/2000/svg">
<circle cx="15.8645" cy="15.1974" r="15" fill="#D92224"/>
<path d="M44.233 16.3274H42.987L42.483 18.4834H40.985L41.489 16.3274H40.453L40.761 14.9694H41.811L42.161 13.4854H41.153L41.461 12.1274H42.483L42.973 10.1114H44.457L43.981 12.1274H45.227L45.717 10.1114H47.201L46.725 12.1274H47.733L47.383 13.4854H46.403L46.053 14.9694H47.019L46.683 16.3274H45.731L45.227 18.4834H43.729L44.233 16.3274ZM43.309 14.9694H44.555L44.905 13.4854H43.659L43.309 14.9694ZM48.9704 9.39743C49.1664 9.36943 49.3857 9.3461 49.6284 9.32743C49.8804 9.30877 50.137 9.29477 50.3984 9.28543C50.6597 9.2761 50.9117 9.27143 51.1544 9.27143C51.4064 9.2621 51.6304 9.25743 51.8264 9.25743C52.6944 9.25743 53.4364 9.37877 54.0524 9.62143C54.6684 9.8641 55.1677 10.2048 55.5504 10.6434C55.933 11.0821 56.213 11.6048 56.3904 12.2114C56.5677 12.8181 56.6564 13.4854 56.6564 14.2134C56.6564 14.8761 56.5724 15.5154 56.4044 16.1314C56.2364 16.7474 55.9564 17.2934 55.5644 17.7694C55.1724 18.2454 54.6544 18.6281 54.0104 18.9174C53.3757 19.2068 52.587 19.3514 51.6444 19.3514C51.495 19.3514 51.2944 19.3468 51.0424 19.3374C50.7997 19.3281 50.543 19.3141 50.2724 19.2954C50.011 19.2861 49.759 19.2721 49.5164 19.2534C49.2737 19.2441 49.0917 19.2301 48.9704 19.2114V9.39743ZM51.9804 10.9654C51.775 10.9654 51.565 10.9701 51.3504 10.9794C51.145 10.9888 50.991 11.0028 50.8884 11.0214V17.5874C50.9257 17.5968 50.9864 17.6061 51.0704 17.6154C51.1637 17.6154 51.2617 17.6201 51.3644 17.6294C51.467 17.6294 51.565 17.6341 51.6584 17.6434C51.7517 17.6434 51.8217 17.6434 51.8684 17.6434C52.4097 17.6434 52.8577 17.5501 53.2124 17.3634C53.5764 17.1674 53.861 16.9108 54.0664 16.5934C54.281 16.2761 54.4304 15.9121 54.5144 15.5014C54.5984 15.0814 54.6404 14.6521 54.6404 14.2134C54.6404 13.8308 54.603 13.4481 54.5284 13.0654C54.4537 12.6734 54.3137 12.3234 54.1084 12.0154C53.9124 11.7074 53.6417 11.4554 53.2964 11.2594C52.951 11.0634 52.5124 10.9654 51.9804 10.9654ZM57.8248 12.4634C57.8248 11.9874 57.8948 11.5488 58.0348 11.1474C58.1842 10.7461 58.3942 10.4054 58.6648 10.1254C58.9448 9.8361 59.2808 9.6121 59.6728 9.45343C60.0742 9.28543 60.5315 9.20143 61.0448 9.20143C62.0995 9.20143 62.9255 9.51877 63.5228 10.1534C64.1295 10.7788 64.4328 11.6934 64.4328 12.8974C64.4328 13.9801 64.2928 14.9181 64.0128 15.7114C63.7422 16.4954 63.3735 17.1534 62.9068 17.6854C62.4495 18.2081 61.9175 18.6094 61.3108 18.8894C60.7042 19.1694 60.0648 19.3374 59.3928 19.3934L59.0008 17.9654C59.5142 17.9001 59.9715 17.7741 60.3728 17.5874C60.7742 17.4008 61.1195 17.1721 61.4088 16.9014C61.6982 16.6214 61.9315 16.3088 62.1088 15.9634C62.2955 15.6088 62.4262 15.2308 62.5008 14.8294C62.2768 15.0721 62.0342 15.2401 61.7728 15.3334C61.5208 15.4268 61.1802 15.4734 60.7508 15.4734C60.3962 15.4734 60.0415 15.4128 59.6868 15.2914C59.3415 15.1701 59.0288 14.9881 58.7488 14.7454C58.4782 14.4934 58.2542 14.1808 58.0768 13.8074C57.9088 13.4248 57.8248 12.9768 57.8248 12.4634ZM59.5888 12.3654C59.5888 12.8974 59.7382 13.2988 60.0368 13.5694C60.3355 13.8401 60.7088 13.9754 61.1568 13.9754C61.5395 13.9754 61.8522 13.9148 62.0948 13.7934C62.3375 13.6721 62.5242 13.5228 62.6548 13.3454C62.6828 13.1494 62.6968 12.9628 62.6968 12.7854C62.6968 12.5241 62.6642 12.2674 62.5988 12.0154C62.5335 11.7634 62.4308 11.5394 62.2908 11.3434C62.1602 11.1474 61.9875 10.9934 61.7728 10.8814C61.5675 10.7601 61.3202 10.6994 61.0308 10.6994C60.5735 10.6994 60.2188 10.8488 59.9668 11.1474C59.7148 11.4368 59.5888 11.8428 59.5888 12.3654ZM71.7882 11.7914C71.7882 12.2674 71.6995 12.7481 71.5222 13.2334C71.3542 13.7188 71.1349 14.1948 70.8642 14.6614C70.6029 15.1281 70.3089 15.5808 69.9822 16.0194C69.6649 16.4488 69.3522 16.8454 69.0442 17.2094L68.3022 17.7834V17.8534L69.3102 17.6574H71.9982V19.1974H66.1042V18.2594C66.3282 18.0261 66.5802 17.7554 66.8602 17.4474C67.1402 17.1301 67.4202 16.7988 67.7002 16.4534C67.9895 16.0988 68.2695 15.7348 68.5402 15.3614C68.8109 14.9881 69.0535 14.6148 69.2682 14.2414C69.4829 13.8588 69.6509 13.4901 69.7722 13.1354C69.9029 12.7808 69.9682 12.4448 69.9682 12.1274C69.9682 11.7448 69.8562 11.4321 69.6322 11.1894C69.4175 10.9374 69.0722 10.8114 68.5962 10.8114C68.2975 10.8114 67.9895 10.8768 67.6722 11.0074C67.3642 11.1288 67.1029 11.2874 66.8882 11.4834L66.1602 10.1954C66.5242 9.89677 66.9349 9.65877 67.3922 9.48143C67.8589 9.29477 68.4049 9.20143 69.0302 9.20143C69.4315 9.20143 69.8002 9.25743 70.1362 9.36943C70.4722 9.48143 70.7615 9.64477 71.0042 9.85943C71.2469 10.0741 71.4382 10.3448 71.5782 10.6714C71.7182 10.9888 71.7882 11.3621 71.7882 11.7914ZM79.7315 11.7914C79.7315 12.2674 79.6429 12.7481 79.4655 13.2334C79.2975 13.7188 79.0782 14.1948 78.8075 14.6614C78.5462 15.1281 78.2522 15.5808 77.9255 16.0194C77.6082 16.4488 77.2955 16.8454 76.9875 17.2094L76.2455 17.7834V17.8534L77.2535 17.6574H79.9415V19.1974H74.0475V18.2594C74.2715 18.0261 74.5235 17.7554 74.8035 17.4474C75.0835 17.1301 75.3635 16.7988 75.6435 16.4534C75.9329 16.0988 76.2129 15.7348 76.4835 15.3614C76.7542 14.9881 76.9969 14.6148 77.2115 14.2414C77.4262 13.8588 77.5942 13.4901 77.7155 13.1354C77.8462 12.7808 77.9115 12.4448 77.9115 12.1274C77.9115 11.7448 77.7995 11.4321 77.5755 11.1894C77.3609 10.9374 77.0155 10.8114 76.5395 10.8114C76.2409 10.8114 75.9329 10.8768 75.6155 11.0074C75.3075 11.1288 75.0462 11.2874 74.8315 11.4834L74.1035 10.1954C74.4675 9.89677 74.8782 9.65877 75.3355 9.48143C75.8022 9.29477 76.3482 9.20143 76.9735 9.20143C77.3749 9.20143 77.7435 9.25743 78.0795 9.36943C78.4155 9.48143 78.7049 9.64477 78.9475 9.85943C79.1902 10.0741 79.3815 10.3448 79.5215 10.6714C79.6615 10.9888 79.7315 11.3621 79.7315 11.7914ZM87.6749 11.7914C87.6749 12.2674 87.5862 12.7481 87.4089 13.2334C87.2409 13.7188 87.0216 14.1948 86.7509 14.6614C86.4896 15.1281 86.1956 15.5808 85.8689 16.0194C85.5516 16.4488 85.2389 16.8454 84.9309 17.2094L84.1889 17.7834V17.8534L85.1969 17.6574H87.8849V19.1974H81.9909V18.2594C82.2149 18.0261 82.4669 17.7554 82.7469 17.4474C83.0269 17.1301 83.3069 16.7988 83.5869 16.4534C83.8762 16.0988 84.1562 15.7348 84.4269 15.3614C84.6976 14.9881 84.9402 14.6148 85.1549 14.2414C85.3696 13.8588 85.5376 13.4901 85.6589 13.1354C85.7896 12.7808 85.8549 12.4448 85.8549 12.1274C85.8549 11.7448 85.7429 11.4321 85.5189 11.1894C85.3042 10.9374 84.9589 10.8114 84.4829 10.8114C84.1842 10.8114 83.8762 10.8768 83.5589 11.0074C83.2509 11.1288 82.9896 11.2874 82.7749 11.4834L82.0469 10.1954C82.4109 9.89677 82.8216 9.65877 83.2789 9.48143C83.7456 9.29477 84.2916 9.20143 84.9169 9.20143C85.3182 9.20143 85.6869 9.25743 86.0229 9.36943C86.3589 9.48143 86.6482 9.64477 86.8909 9.85943C87.1336 10.0741 87.3249 10.3448 87.4649 10.6714C87.6049 10.9888 87.6749 11.3621 87.6749 11.7914ZM96.7103 16.4674H95.1703V19.1974H93.4763V16.4674H89.2343V15.4314L93.6723 9.32743H95.1703V15.0114H96.7103V16.4674ZM93.4763 12.8694L93.6023 11.6934H93.5463L93.0703 12.7014L91.6143 14.5914L90.9143 15.1234L91.8103 15.0114H93.4763V12.8694Z" fill="black"/>
</svg>
