<svg width="341" height="31" viewBox="0 0 341 31" fill="none" xmlns="http://www.w3.org/2000/svg">
<circle cx="15.8645" cy="15.0568" r="14.5" fill="#E5E5E5" stroke="#C4C4C4"/>
<path d="M44.233 16.1868H42.987L42.483 18.3428H40.985L41.489 16.1868H40.453L40.761 14.8288H41.811L42.161 13.3448H41.153L41.461 11.9868H42.483L42.973 9.97079H44.457L43.981 11.9868H45.227L45.717 9.97079H47.201L46.725 11.9868H47.733L47.383 13.3448H46.403L46.053 14.8288H47.019L46.683 16.1868H45.731L45.227 18.3428H43.729L44.233 16.1868ZM43.309 14.8288H44.555L44.905 13.3448H43.659L43.309 14.8288ZM48.9704 9.25679H54.7804V10.9648H50.8884V13.2468H54.4304V14.9548H50.8884V17.3488H54.8504V19.0568H48.9704V9.25679ZM58.5248 17.6428C59.1408 17.6428 59.6122 17.4935 59.9388 17.1948C60.2655 16.8961 60.4288 16.4855 60.4288 15.9628C60.4288 15.4028 60.2375 14.9921 59.8548 14.7308C59.4722 14.4695 58.9262 14.3388 58.2168 14.3388L57.1108 14.3808V9.25679H61.9268V10.9648H58.6788V12.8548L59.2528 12.7988C59.7102 12.8175 60.1208 12.9015 60.4848 13.0508C60.8582 13.2001 61.1755 13.4101 61.4368 13.6808C61.6982 13.9421 61.8988 14.2641 62.0388 14.6468C62.1788 15.0201 62.2488 15.4401 62.2488 15.9068C62.2488 16.4575 62.1555 16.9428 61.9688 17.3628C61.7822 17.7828 61.5208 18.1328 61.1848 18.4128C60.8582 18.6928 60.4708 18.9028 60.0228 19.0428C59.5748 19.1828 59.0848 19.2528 58.5528 19.2528C58.1328 19.2528 57.7315 19.2155 57.3488 19.1408C56.9755 19.0755 56.6582 18.9821 56.3968 18.8608L56.8868 17.3488C57.1015 17.4421 57.3348 17.5168 57.5868 17.5728C57.8482 17.6195 58.1608 17.6428 58.5248 17.6428ZM64.2282 9.25679H70.0382V10.9648H66.1462V13.2468H69.6882V14.9548H66.1462V17.3488H70.1082V19.0568H64.2282V9.25679ZM73.7826 17.6428C74.3986 17.6428 74.87 17.4935 75.1966 17.1948C75.5233 16.8961 75.6866 16.4855 75.6866 15.9628C75.6866 15.4028 75.4953 14.9921 75.1126 14.7308C74.73 14.4695 74.184 14.3388 73.4746 14.3388L72.3686 14.3808V9.25679H77.1846V10.9648H73.9366V12.8548L74.5106 12.7988C74.968 12.8175 75.3786 12.9015 75.7426 13.0508C76.116 13.2001 76.4333 13.4101 76.6946 13.6808C76.956 13.9421 77.1566 14.2641 77.2966 14.6468C77.4366 15.0201 77.5066 15.4401 77.5066 15.9068C77.5066 16.4575 77.4133 16.9428 77.2266 17.3628C77.04 17.7828 76.7786 18.1328 76.4426 18.4128C76.116 18.6928 75.7286 18.9028 75.2806 19.0428C74.8326 19.1828 74.3426 19.2528 73.8106 19.2528C73.3906 19.2528 72.9893 19.2155 72.6066 19.1408C72.2333 19.0755 71.916 18.9821 71.6546 18.8608L72.1446 17.3488C72.3593 17.4421 72.5926 17.5168 72.8446 17.5728C73.106 17.6195 73.4186 17.6428 73.7826 17.6428ZM79.486 9.25679H85.296V10.9648H81.404V13.2468H84.946V14.9548H81.404V17.3488H85.366V19.0568H79.486V9.25679ZM89.0404 17.6428C89.6564 17.6428 90.1278 17.4935 90.4544 17.1948C90.7811 16.8961 90.9444 16.4855 90.9444 15.9628C90.9444 15.4028 90.7531 14.9921 90.3704 14.7308C89.9878 14.4695 89.4418 14.3388 88.7324 14.3388L87.6264 14.3808V9.25679H92.4424V10.9648H89.1944V12.8548L89.7684 12.7988C90.2258 12.8175 90.6364 12.9015 91.0004 13.0508C91.3738 13.2001 91.6911 13.4101 91.9524 13.6808C92.2138 13.9421 92.4144 14.2641 92.5544 14.6468C92.6944 15.0201 92.7644 15.4401 92.7644 15.9068C92.7644 16.4575 92.6711 16.9428 92.4844 17.3628C92.2978 17.7828 92.0364 18.1328 91.7004 18.4128C91.3738 18.6928 90.9864 18.9028 90.5384 19.0428C90.0904 19.1828 89.6004 19.2528 89.0684 19.2528C88.6484 19.2528 88.2471 19.2155 87.8644 19.1408C87.4911 19.0755 87.1738 18.9821 86.9124 18.8608L87.4024 17.3488C87.6171 17.4421 87.8504 17.5168 88.1024 17.5728C88.3638 17.6195 88.6764 17.6428 89.0404 17.6428Z" fill="black"/>
</svg>
