<svg width="341" height="31" viewBox="0 0 341 31" fill="none" xmlns="http://www.w3.org/2000/svg">
<circle cx="15.8645" cy="15.7326" r="15" fill="#F2AF00"/>
<path d="M44.233 16.8626H42.987L42.483 19.0186H40.985L41.489 16.8626H40.453L40.761 15.5046H41.811L42.161 14.0206H41.153L41.461 12.6626H42.483L42.973 10.6466H44.457L43.981 12.6626H45.227L45.717 10.6466H47.201L46.725 12.6626H47.733L47.383 14.0206H46.403L46.053 15.5046H47.019L46.683 16.8626H45.731L45.227 19.0186H43.729L44.233 16.8626ZM43.309 15.5046H44.555L44.905 14.0206H43.659L43.309 15.5046ZM48.9704 9.93257H54.7804V11.6406H50.8884V14.0626H54.4724V15.7706H50.8884V19.7326H48.9704V9.93257ZM56.6537 18.1926H58.5997V12.6626L58.8097 11.7106L58.1377 12.5366L56.8917 13.3906L56.1217 12.3406L59.3137 9.76457H60.3357V18.1926H62.2397V19.7326H56.6537V18.1926ZM68.8531 17.5626H65.8431L65.1011 19.7326H63.1831L66.7111 9.86257H68.1251L71.6531 19.7326H69.6371L68.8531 17.5626ZM66.3331 16.0226H68.4331L67.7051 13.8386L67.4111 12.2986H67.3411L67.0471 13.8526L66.3331 16.0226ZM72.4997 9.93257C72.6957 9.90457 72.915 9.88124 73.1577 9.86257C73.4097 9.84391 73.6663 9.82991 73.9277 9.82057C74.189 9.81124 74.441 9.80657 74.6837 9.80657C74.9357 9.79724 75.1597 9.79257 75.3557 9.79257C76.2237 9.79257 76.9657 9.91391 77.5817 10.1566C78.1977 10.3992 78.697 10.7399 79.0797 11.1786C79.4623 11.6172 79.7423 12.1399 79.9197 12.7466C80.097 13.3532 80.1857 14.0206 80.1857 14.7486C80.1857 15.4112 80.1017 16.0506 79.9337 16.6666C79.7657 17.2826 79.4857 17.8286 79.0937 18.3046C78.7017 18.7806 78.1837 19.1632 77.5397 19.4526C76.905 19.7419 76.1163 19.8866 75.1737 19.8866C75.0243 19.8866 74.8237 19.8819 74.5717 19.8726C74.329 19.8632 74.0723 19.8492 73.8017 19.8306C73.5403 19.8212 73.2883 19.8072 73.0457 19.7886C72.803 19.7792 72.621 19.7652 72.4997 19.7466V9.93257ZM75.5097 11.5006C75.3043 11.5006 75.0943 11.5052 74.8797 11.5146C74.6743 11.5239 74.5203 11.5379 74.4177 11.5566V18.1226C74.455 18.1319 74.5157 18.1412 74.5997 18.1506C74.693 18.1506 74.791 18.1552 74.8937 18.1646C74.9963 18.1646 75.0943 18.1692 75.1877 18.1786C75.281 18.1786 75.351 18.1786 75.3977 18.1786C75.939 18.1786 76.387 18.0852 76.7417 17.8986C77.1057 17.7026 77.3903 17.4459 77.5957 17.1286C77.8103 16.8112 77.9597 16.4472 78.0437 16.0366C78.1277 15.6166 78.1697 15.1872 78.1697 14.7486C78.1697 14.3659 78.1323 13.9832 78.0577 13.6006C77.983 13.2086 77.843 12.8586 77.6377 12.5506C77.4417 12.2426 77.171 11.9906 76.8257 11.7946C76.4803 11.5986 76.0417 11.5006 75.5097 11.5006ZM82.1381 18.1926H84.0841V12.6626L84.2941 11.7106L83.6221 12.5366L82.3761 13.3906L81.6061 12.3406L84.7981 9.76457H85.8201V18.1926H87.7241V19.7326H82.1381V18.1926ZM89.5075 9.93257H95.3175V11.6406H91.4255V14.0626H95.0095V15.7706H91.4255V19.7326H89.5075V9.93257ZM108.824 12.9566H109.804L109.132 16.7506C109.057 17.1892 109.053 17.5066 109.118 17.7026C109.193 17.8986 109.351 17.9966 109.594 17.9966C109.837 17.9966 110.075 17.9406 110.308 17.8286C110.541 17.7166 110.751 17.5439 110.938 17.3106C111.125 17.0772 111.274 16.7832 111.386 16.4286C111.507 16.0739 111.568 15.6539 111.568 15.1686C111.568 14.4686 111.451 13.8712 111.218 13.3766C110.985 12.8819 110.663 12.4759 110.252 12.1586C109.851 11.8319 109.375 11.5939 108.824 11.4446C108.273 11.2952 107.681 11.2206 107.046 11.2206C106.318 11.2206 105.641 11.3512 105.016 11.6126C104.391 11.8739 103.845 12.2332 103.378 12.6906C102.921 13.1479 102.561 13.6939 102.3 14.3286C102.039 14.9539 101.908 15.6352 101.908 16.3726C101.908 17.1006 102.015 17.7539 102.23 18.3326C102.454 18.9112 102.776 19.4012 103.196 19.8026C103.616 20.2132 104.134 20.5259 104.75 20.7406C105.375 20.9646 106.089 21.0766 106.892 21.0766C107.163 21.0766 107.471 21.0439 107.816 20.9786C108.161 20.9132 108.474 20.8152 108.754 20.6846L109.188 22.0286C108.805 22.2152 108.413 22.3459 108.012 22.4206C107.62 22.4952 107.167 22.5326 106.654 22.5326C105.749 22.5326 104.909 22.4019 104.134 22.1406C103.369 21.8792 102.701 21.4919 102.132 20.9786C101.572 20.4652 101.133 19.8306 100.816 19.0746C100.499 18.3092 100.34 17.4272 100.34 16.4286C100.34 15.4112 100.522 14.4919 100.886 13.6706C101.25 12.8492 101.74 12.1492 102.356 11.5706C102.972 10.9919 103.686 10.5486 104.498 10.2406C105.31 9.92324 106.169 9.76457 107.074 9.76457C107.933 9.76457 108.731 9.89057 109.468 10.1426C110.205 10.3852 110.845 10.7399 111.386 11.2066C111.927 11.6639 112.352 12.2286 112.66 12.9006C112.968 13.5632 113.122 14.3192 113.122 15.1686C113.122 15.7659 113.015 16.3259 112.8 16.8486C112.595 17.3712 112.305 17.8239 111.932 18.2066C111.568 18.5892 111.139 18.8926 110.644 19.1166C110.159 19.3406 109.636 19.4526 109.076 19.4526C108.843 19.4526 108.623 19.4292 108.418 19.3826C108.222 19.3266 108.054 19.2379 107.914 19.1166C107.783 18.9952 107.685 18.8366 107.62 18.6406C107.555 18.4446 107.536 18.2019 107.564 17.9126H107.508C107.368 18.1086 107.214 18.2999 107.046 18.4866C106.887 18.6732 106.71 18.8412 106.514 18.9906C106.318 19.1306 106.103 19.2426 105.87 19.3266C105.637 19.4106 105.38 19.4526 105.1 19.4526C104.876 19.4526 104.661 19.4059 104.456 19.3126C104.251 19.2099 104.073 19.0699 103.924 18.8926C103.775 18.7152 103.653 18.5006 103.56 18.2486C103.476 17.9966 103.434 17.7166 103.434 17.4086C103.434 16.8299 103.527 16.2699 103.714 15.7286C103.901 15.1779 104.153 14.6926 104.47 14.2726C104.797 13.8526 105.17 13.5166 105.59 13.2646C106.019 13.0032 106.472 12.8726 106.948 12.8726C107.275 12.8726 107.55 12.9239 107.774 13.0266C107.998 13.1199 108.203 13.2459 108.39 13.4046L108.824 12.9566ZM107.942 14.6506C107.821 14.5479 107.695 14.4686 107.564 14.4126C107.433 14.3566 107.27 14.3286 107.074 14.3286C106.794 14.3286 106.533 14.4079 106.29 14.5666C106.057 14.7252 105.851 14.9306 105.674 15.1826C105.506 15.4346 105.375 15.7192 105.282 16.0366C105.189 16.3446 105.142 16.6479 105.142 16.9466C105.142 17.2546 105.203 17.5066 105.324 17.7026C105.455 17.8986 105.674 17.9966 105.982 17.9966C106.113 17.9966 106.253 17.9592 106.402 17.8846C106.551 17.8006 106.696 17.6932 106.836 17.5626C106.976 17.4319 107.111 17.2826 107.242 17.1146C107.373 16.9466 107.489 16.7692 107.592 16.5826L107.942 14.6506ZM119.135 19.7326L122.341 12.1866L122.957 11.5006L122.117 11.6406H118.519V9.93257H124.833V10.4646L120.913 19.7326H119.135ZM126.183 14.8186C126.183 13.1012 126.477 11.8272 127.065 10.9966C127.653 10.1566 128.497 9.73657 129.599 9.73657C130.775 9.73657 131.638 10.1519 132.189 10.9826C132.739 11.8039 133.015 13.0826 133.015 14.8186C133.015 16.5452 132.716 17.8286 132.119 18.6686C131.531 19.5086 130.686 19.9286 129.585 19.9286C128.418 19.9286 127.559 19.4899 127.009 18.6126C126.458 17.7259 126.183 16.4612 126.183 14.8186ZM128.003 14.8186C128.003 15.9572 128.124 16.8392 128.367 17.4646C128.619 18.0806 129.029 18.3886 129.599 18.3886C130.149 18.3886 130.551 18.1039 130.803 17.5346C131.064 16.9652 131.195 16.0599 131.195 14.8186C131.195 13.6892 131.073 12.8166 130.831 12.2006C130.588 11.5846 130.173 11.2766 129.585 11.2766C129.025 11.2766 128.619 11.5659 128.367 12.1446C128.124 12.7232 128.003 13.6146 128.003 14.8186ZM134.28 12.1446C134.28 11.7246 134.341 11.3652 134.462 11.0666C134.583 10.7679 134.751 10.5206 134.966 10.3246C135.181 10.1286 135.437 9.98857 135.736 9.90457C136.044 9.81124 136.375 9.76457 136.73 9.76457C137.085 9.76457 137.411 9.80657 137.71 9.89057C138.009 9.97457 138.265 10.1099 138.48 10.2966C138.704 10.4832 138.877 10.7306 138.998 11.0386C139.119 11.3372 139.185 11.7059 139.194 12.1446C139.185 12.5832 139.119 12.9566 138.998 13.2646C138.877 13.5632 138.704 13.8059 138.48 13.9926C138.265 14.1792 138.009 14.3146 137.71 14.3986C137.411 14.4826 137.085 14.5246 136.73 14.5246C136.375 14.5246 136.044 14.4826 135.736 14.3986C135.437 14.3146 135.181 14.1792 134.966 13.9926C134.751 13.8059 134.583 13.5632 134.462 13.2646C134.341 12.9566 134.28 12.5832 134.28 12.1446ZM135.904 12.1446C135.904 12.9472 136.179 13.3486 136.73 13.3486C137.019 13.3486 137.225 13.2646 137.346 13.0966C137.477 12.9192 137.547 12.6019 137.556 12.1446C137.547 11.6966 137.477 11.3839 137.346 11.2066C137.225 11.0292 137.019 10.9406 136.73 10.9406C136.441 10.9406 136.231 11.0292 136.1 11.2066C135.969 11.3839 135.904 11.6966 135.904 12.1446ZM139.964 17.3246C139.964 16.9046 140.025 16.5452 140.146 16.2466C140.267 15.9479 140.435 15.7006 140.65 15.5046C140.865 15.3086 141.121 15.1686 141.42 15.0846C141.728 14.9912 142.059 14.9446 142.414 14.9446C142.769 14.9446 143.095 14.9866 143.394 15.0706C143.693 15.1546 143.949 15.2899 144.164 15.4766C144.388 15.6632 144.561 15.9106 144.682 16.2186C144.803 16.5172 144.869 16.8859 144.878 17.3246C144.869 17.7632 144.803 18.1366 144.682 18.4446C144.561 18.7432 144.388 18.9859 144.164 19.1726C143.949 19.3592 143.693 19.4946 143.394 19.5786C143.095 19.6626 142.769 19.7046 142.414 19.7046C142.059 19.7046 141.728 19.6626 141.42 19.5786C141.121 19.4946 140.865 19.3592 140.65 19.1726C140.435 18.9859 140.267 18.7432 140.146 18.4446C140.025 18.1366 139.964 17.7632 139.964 17.3246ZM141.588 17.3246C141.588 18.1272 141.863 18.5286 142.414 18.5286C142.703 18.5286 142.909 18.4446 143.03 18.2766C143.161 18.0992 143.231 17.7819 143.24 17.3246C143.231 16.8766 143.161 16.5639 143.03 16.3866C142.909 16.2092 142.703 16.1206 142.414 16.1206C142.125 16.1206 141.915 16.2092 141.784 16.3866C141.653 16.5639 141.588 16.8766 141.588 17.3246ZM143.044 9.73657L144.066 10.6606L136.002 19.9286L134.98 18.9626L143.044 9.73657Z" fill="black"/>
</svg>
