<svg width="341" height="30" viewBox="0 0 341 30" fill="none" xmlns="http://www.w3.org/2000/svg">
<circle cx="15.8645" cy="15" r="15" fill="#F2AF00"/>
<path d="M44.233 16.13H42.987L42.483 18.286H40.985L41.489 16.13H40.453L40.761 14.772H41.811L42.161 13.288H41.153L41.461 11.93H42.483L42.973 9.914H44.457L43.981 11.93H45.227L45.717 9.914H47.201L46.725 11.93H47.733L47.383 13.288H46.403L46.053 14.772H47.019L46.683 16.13H45.731L45.227 18.286H43.729L44.233 16.13ZM43.309 14.772H44.555L44.905 13.288H43.659L43.309 14.772ZM48.9704 9.2H54.7804V10.908H50.8884V13.33H54.4724V15.038H50.8884V19H48.9704V9.2ZM56.6537 17.46H58.5997V11.93L58.8097 10.978L58.1377 11.804L56.8917 12.658L56.1217 11.608L59.3137 9.032H60.3357V17.46H62.2397V19H56.6537V17.46ZM68.8531 16.83H65.8431L65.1011 19H63.1831L66.7111 9.13H68.1251L71.6531 19H69.6371L68.8531 16.83ZM66.3331 15.29H68.4331L67.7051 13.106L67.4111 11.566H67.3411L67.0471 13.12L66.3331 15.29ZM72.4997 9.2C72.6957 9.172 72.915 9.14867 73.1577 9.13C73.4097 9.11133 73.6663 9.09733 73.9277 9.088C74.189 9.07867 74.441 9.074 74.6837 9.074C74.9357 9.06467 75.1597 9.06 75.3557 9.06C76.2237 9.06 76.9657 9.18133 77.5817 9.424C78.1977 9.66667 78.697 10.0073 79.0797 10.446C79.4623 10.8847 79.7423 11.4073 79.9197 12.014C80.097 12.6207 80.1857 13.288 80.1857 14.016C80.1857 14.6787 80.1017 15.318 79.9337 15.934C79.7657 16.55 79.4857 17.096 79.0937 17.572C78.7017 18.048 78.1837 18.4307 77.5397 18.72C76.905 19.0093 76.1163 19.154 75.1737 19.154C75.0243 19.154 74.8237 19.1493 74.5717 19.14C74.329 19.1307 74.0723 19.1167 73.8017 19.098C73.5403 19.0887 73.2883 19.0747 73.0457 19.056C72.803 19.0467 72.621 19.0327 72.4997 19.014V9.2ZM75.5097 10.768C75.3043 10.768 75.0943 10.7727 74.8797 10.782C74.6743 10.7913 74.5203 10.8053 74.4177 10.824V17.39C74.455 17.3993 74.5157 17.4087 74.5997 17.418C74.693 17.418 74.791 17.4227 74.8937 17.432C74.9963 17.432 75.0943 17.4367 75.1877 17.446C75.281 17.446 75.351 17.446 75.3977 17.446C75.939 17.446 76.387 17.3527 76.7417 17.166C77.1057 16.97 77.3903 16.7133 77.5957 16.396C77.8103 16.0787 77.9597 15.7147 78.0437 15.304C78.1277 14.884 78.1697 14.4547 78.1697 14.016C78.1697 13.6333 78.1323 13.2507 78.0577 12.868C77.983 12.476 77.843 12.126 77.6377 11.818C77.4417 11.51 77.171 11.258 76.8257 11.062C76.4803 10.866 76.0417 10.768 75.5097 10.768ZM82.1381 17.46H84.0841V11.93L84.2941 10.978L83.6221 11.804L82.3761 12.658L81.6061 11.608L84.7981 9.032H85.8201V17.46H87.7241V19H82.1381V17.46ZM89.5075 9.2H95.3175V10.908H91.4255V13.33H95.0095V15.038H91.4255V19H89.5075V9.2Z" fill="black"/>
</svg>
