<svg width="341" height="31" viewBox="0 0 341 31" fill="none" xmlns="http://www.w3.org/2000/svg">
<circle cx="15.8645" cy="15.465" r="15" fill="#F2AF00" fill-opacity="0.5"/>
<path d="M44.233 16.595H42.987L42.483 18.751H40.985L41.489 16.595H40.453L40.761 15.237H41.811L42.161 13.753H41.153L41.461 12.395H42.483L42.973 10.379H44.457L43.981 12.395H45.227L45.717 10.379H47.201L46.725 12.395H47.733L47.383 13.753H46.403L46.053 15.237H47.019L46.683 16.595H45.731L45.227 18.751H43.729L44.233 16.595ZM43.309 15.237H44.555L44.905 13.753H43.659L43.309 15.237ZM48.9704 9.66501H54.7804V11.373H50.8884V13.795H54.4724V15.503H50.8884V19.465H48.9704V9.66501ZM56.6537 17.925H58.5997V12.395L58.8097 11.443L58.1377 12.269L56.8917 13.123L56.1217 12.073L59.3137 9.49701H60.3357V17.925H62.2397V19.465H56.6537V17.925ZM68.8531 17.295H65.8431L65.1011 19.465H63.1831L66.7111 9.59501H68.1251L71.6531 19.465H69.6371L68.8531 17.295ZM66.3331 15.755H68.4331L67.7051 13.571L67.4111 12.031H67.3411L67.0471 13.585L66.3331 15.755ZM72.4997 9.66501C72.6957 9.63701 72.915 9.61368 73.1577 9.59501C73.4097 9.57634 73.6663 9.56234 73.9277 9.55301C74.189 9.54368 74.441 9.53901 74.6837 9.53901C74.9357 9.52968 75.1597 9.52501 75.3557 9.52501C76.2237 9.52501 76.9657 9.64634 77.5817 9.88901C78.1977 10.1317 78.697 10.4723 79.0797 10.911C79.4623 11.3497 79.7423 11.8723 79.9197 12.479C80.097 13.0857 80.1857 13.753 80.1857 14.481C80.1857 15.1437 80.1017 15.783 79.9337 16.399C79.7657 17.015 79.4857 17.561 79.0937 18.037C78.7017 18.513 78.1837 18.8957 77.5397 19.185C76.905 19.4743 76.1163 19.619 75.1737 19.619C75.0243 19.619 74.8237 19.6143 74.5717 19.605C74.329 19.5957 74.0723 19.5817 73.8017 19.563C73.5403 19.5537 73.2883 19.5397 73.0457 19.521C72.803 19.5117 72.621 19.4977 72.4997 19.479V9.66501ZM75.5097 11.233C75.3043 11.233 75.0943 11.2377 74.8797 11.247C74.6743 11.2563 74.5203 11.2703 74.4177 11.289V17.855C74.455 17.8643 74.5157 17.8737 74.5997 17.883C74.693 17.883 74.791 17.8877 74.8937 17.897C74.9963 17.897 75.0943 17.9017 75.1877 17.911C75.281 17.911 75.351 17.911 75.3977 17.911C75.939 17.911 76.387 17.8177 76.7417 17.631C77.1057 17.435 77.3903 17.1783 77.5957 16.861C77.8103 16.5437 77.9597 16.1797 78.0437 15.769C78.1277 15.349 78.1697 14.9197 78.1697 14.481C78.1697 14.0983 78.1323 13.7157 78.0577 13.333C77.983 12.941 77.843 12.591 77.6377 12.283C77.4417 11.975 77.171 11.723 76.8257 11.527C76.4803 11.331 76.0417 11.233 75.5097 11.233ZM82.1381 17.925H84.0841V12.395L84.2941 11.443L83.6221 12.269L82.3761 13.123L81.6061 12.073L84.7981 9.49701H85.8201V17.925H87.7241V19.465H82.1381V17.925ZM89.5075 9.66501H95.3175V11.373H91.4255V13.795H95.0095V15.503H91.4255V19.465H89.5075V9.66501ZM108.824 12.689H109.804L109.132 16.483C109.057 16.9217 109.053 17.239 109.118 17.435C109.193 17.631 109.351 17.729 109.594 17.729C109.837 17.729 110.075 17.673 110.308 17.561C110.541 17.449 110.751 17.2763 110.938 17.043C111.125 16.8097 111.274 16.5157 111.386 16.161C111.507 15.8063 111.568 15.3863 111.568 14.901C111.568 14.201 111.451 13.6037 111.218 13.109C110.985 12.6143 110.663 12.2083 110.252 11.891C109.851 11.5643 109.375 11.3263 108.824 11.177C108.273 11.0277 107.681 10.953 107.046 10.953C106.318 10.953 105.641 11.0837 105.016 11.345C104.391 11.6063 103.845 11.9657 103.378 12.423C102.921 12.8803 102.561 13.4263 102.3 14.061C102.039 14.6863 101.908 15.3677 101.908 16.105C101.908 16.833 102.015 17.4863 102.23 18.065C102.454 18.6437 102.776 19.1337 103.196 19.535C103.616 19.9457 104.134 20.2583 104.75 20.473C105.375 20.697 106.089 20.809 106.892 20.809C107.163 20.809 107.471 20.7763 107.816 20.711C108.161 20.6457 108.474 20.5477 108.754 20.417L109.188 21.761C108.805 21.9477 108.413 22.0783 108.012 22.153C107.62 22.2277 107.167 22.265 106.654 22.265C105.749 22.265 104.909 22.1343 104.134 21.873C103.369 21.6117 102.701 21.2243 102.132 20.711C101.572 20.1977 101.133 19.563 100.816 18.807C100.499 18.0417 100.34 17.1597 100.34 16.161C100.34 15.1437 100.522 14.2243 100.886 13.403C101.25 12.5817 101.74 11.8817 102.356 11.303C102.972 10.7243 103.686 10.281 104.498 9.97301C105.31 9.65568 106.169 9.49701 107.074 9.49701C107.933 9.49701 108.731 9.62301 109.468 9.87501C110.205 10.1177 110.845 10.4723 111.386 10.939C111.927 11.3963 112.352 11.961 112.66 12.633C112.968 13.2957 113.122 14.0517 113.122 14.901C113.122 15.4983 113.015 16.0583 112.8 16.581C112.595 17.1037 112.305 17.5563 111.932 17.939C111.568 18.3217 111.139 18.625 110.644 18.849C110.159 19.073 109.636 19.185 109.076 19.185C108.843 19.185 108.623 19.1617 108.418 19.115C108.222 19.059 108.054 18.9703 107.914 18.849C107.783 18.7277 107.685 18.569 107.62 18.373C107.555 18.177 107.536 17.9343 107.564 17.645H107.508C107.368 17.841 107.214 18.0323 107.046 18.219C106.887 18.4057 106.71 18.5737 106.514 18.723C106.318 18.863 106.103 18.975 105.87 19.059C105.637 19.143 105.38 19.185 105.1 19.185C104.876 19.185 104.661 19.1383 104.456 19.045C104.251 18.9423 104.073 18.8023 103.924 18.625C103.775 18.4477 103.653 18.233 103.56 17.981C103.476 17.729 103.434 17.449 103.434 17.141C103.434 16.5623 103.527 16.0023 103.714 15.461C103.901 14.9103 104.153 14.425 104.47 14.005C104.797 13.585 105.17 13.249 105.59 12.997C106.019 12.7357 106.472 12.605 106.948 12.605C107.275 12.605 107.55 12.6563 107.774 12.759C107.998 12.8523 108.203 12.9783 108.39 13.137L108.824 12.689ZM107.942 14.383C107.821 14.2803 107.695 14.201 107.564 14.145C107.433 14.089 107.27 14.061 107.074 14.061C106.794 14.061 106.533 14.1403 106.29 14.299C106.057 14.4577 105.851 14.663 105.674 14.915C105.506 15.167 105.375 15.4517 105.282 15.769C105.189 16.077 105.142 16.3803 105.142 16.679C105.142 16.987 105.203 17.239 105.324 17.435C105.455 17.631 105.674 17.729 105.982 17.729C106.113 17.729 106.253 17.6917 106.402 17.617C106.551 17.533 106.696 17.4257 106.836 17.295C106.976 17.1643 107.111 17.015 107.242 16.847C107.373 16.679 107.489 16.5017 107.592 16.315L107.942 14.383ZM120.759 18.051C121.375 18.051 121.847 17.9017 122.173 17.603C122.5 17.3043 122.663 16.8937 122.663 16.371C122.663 15.811 122.472 15.4003 122.089 15.139C121.707 14.8777 121.161 14.747 120.451 14.747L119.345 14.789V9.66501H124.161V11.373H120.913V13.263L121.487 13.207C121.945 13.2257 122.355 13.3097 122.719 13.459C123.093 13.6083 123.41 13.8183 123.671 14.089C123.933 14.3503 124.133 14.6723 124.273 15.055C124.413 15.4283 124.483 15.8483 124.483 16.315C124.483 16.8657 124.39 17.351 124.203 17.771C124.017 18.191 123.755 18.541 123.419 18.821C123.093 19.101 122.705 19.311 122.257 19.451C121.809 19.591 121.319 19.661 120.787 19.661C120.367 19.661 119.966 19.6237 119.583 19.549C119.21 19.4837 118.893 19.3903 118.631 19.269L119.121 17.757C119.336 17.8503 119.569 17.925 119.821 17.981C120.083 18.0277 120.395 18.051 120.759 18.051ZM126.183 14.551C126.183 12.8337 126.477 11.5597 127.065 10.729C127.653 9.88901 128.497 9.46901 129.599 9.46901C130.775 9.46901 131.638 9.88434 132.189 10.715C132.739 11.5363 133.015 12.815 133.015 14.551C133.015 16.2777 132.716 17.561 132.119 18.401C131.531 19.241 130.686 19.661 129.585 19.661C128.418 19.661 127.559 19.2223 127.009 18.345C126.458 17.4583 126.183 16.1937 126.183 14.551ZM128.003 14.551C128.003 15.6897 128.124 16.5717 128.367 17.197C128.619 17.813 129.029 18.121 129.599 18.121C130.149 18.121 130.551 17.8363 130.803 17.267C131.064 16.6977 131.195 15.7923 131.195 14.551C131.195 13.4217 131.073 12.549 130.831 11.933C130.588 11.317 130.173 11.009 129.585 11.009C129.025 11.009 128.619 11.2983 128.367 11.877C128.124 12.4557 128.003 13.347 128.003 14.551ZM134.28 11.877C134.28 11.457 134.341 11.0977 134.462 10.799C134.583 10.5003 134.751 10.253 134.966 10.057C135.181 9.86101 135.437 9.72101 135.736 9.63701C136.044 9.54368 136.375 9.49701 136.73 9.49701C137.085 9.49701 137.411 9.53901 137.71 9.62301C138.009 9.70701 138.265 9.84234 138.48 10.029C138.704 10.2157 138.877 10.463 138.998 10.771C139.119 11.0697 139.185 11.4383 139.194 11.877C139.185 12.3157 139.119 12.689 138.998 12.997C138.877 13.2957 138.704 13.5383 138.48 13.725C138.265 13.9117 138.009 14.047 137.71 14.131C137.411 14.215 137.085 14.257 136.73 14.257C136.375 14.257 136.044 14.215 135.736 14.131C135.437 14.047 135.181 13.9117 134.966 13.725C134.751 13.5383 134.583 13.2957 134.462 12.997C134.341 12.689 134.28 12.3157 134.28 11.877ZM135.904 11.877C135.904 12.6797 136.179 13.081 136.73 13.081C137.019 13.081 137.225 12.997 137.346 12.829C137.477 12.6517 137.547 12.3343 137.556 11.877C137.547 11.429 137.477 11.1163 137.346 10.939C137.225 10.7617 137.019 10.673 136.73 10.673C136.441 10.673 136.231 10.7617 136.1 10.939C135.969 11.1163 135.904 11.429 135.904 11.877ZM139.964 17.057C139.964 16.637 140.025 16.2777 140.146 15.979C140.267 15.6803 140.435 15.433 140.65 15.237C140.865 15.041 141.121 14.901 141.42 14.817C141.728 14.7237 142.059 14.677 142.414 14.677C142.769 14.677 143.095 14.719 143.394 14.803C143.693 14.887 143.949 15.0223 144.164 15.209C144.388 15.3957 144.561 15.643 144.682 15.951C144.803 16.2497 144.869 16.6183 144.878 17.057C144.869 17.4957 144.803 17.869 144.682 18.177C144.561 18.4757 144.388 18.7183 144.164 18.905C143.949 19.0917 143.693 19.227 143.394 19.311C143.095 19.395 142.769 19.437 142.414 19.437C142.059 19.437 141.728 19.395 141.42 19.311C141.121 19.227 140.865 19.0917 140.65 18.905C140.435 18.7183 140.267 18.4757 140.146 18.177C140.025 17.869 139.964 17.4957 139.964 17.057ZM141.588 17.057C141.588 17.8597 141.863 18.261 142.414 18.261C142.703 18.261 142.909 18.177 143.03 18.009C143.161 17.8317 143.231 17.5143 143.24 17.057C143.231 16.609 143.161 16.2963 143.03 16.119C142.909 15.9417 142.703 15.853 142.414 15.853C142.125 15.853 141.915 15.9417 141.784 16.119C141.653 16.2963 141.588 16.609 141.588 17.057ZM143.044 9.46901L144.066 10.393L136.002 19.661L134.98 18.695L143.044 9.46901Z" fill="black"/>
</svg>
