<svg width="341" height="31" viewBox="0 0 341 31" fill="none" xmlns="http://www.w3.org/2000/svg">
<circle cx="15.8645" cy="15.7892" r="14.5" fill="white" stroke="#CCCCCC"/>
<path d="M44.233 16.9192H42.987L42.483 19.0752H40.985L41.489 16.9192H40.453L40.761 15.5612H41.811L42.161 14.0772H41.153L41.461 12.7192H42.483L42.973 10.7032H44.457L43.981 12.7192H45.227L45.717 10.7032H47.201L46.725 12.7192H47.733L47.383 14.0772H46.403L46.053 15.5612H47.019L46.683 16.9192H45.731L45.227 19.0752H43.729L44.233 16.9192ZM43.309 15.5612H44.555L44.905 14.0772H43.659L43.309 15.5612ZM48.9704 9.98924H54.7804V11.6972H50.8884V14.1192H54.4724V15.8272H50.8884V19.7892H48.9704V9.98924ZM56.0797 9.98924H61.8897V11.6972H57.9977V14.1192H61.5817V15.8272H57.9977V19.7892H56.0797V9.98924ZM63.1891 9.98924H68.9991V11.6972H65.1071V14.1192H68.6911V15.8272H65.1071V19.7892H63.1891V9.98924ZM70.2985 9.98924H76.1085V11.6972H72.2165V14.1192H75.8005V15.8272H72.2165V19.7892H70.2985V9.98924ZM77.4079 9.98924H83.2179V11.6972H79.3259V14.1192H82.9099V15.8272H79.3259V19.7892H77.4079V9.98924ZM84.5172 9.98924H90.3272V11.6972H86.4352V14.1192H90.0192V15.8272H86.4352V19.7892H84.5172V9.98924Z" fill="black"/>
</svg>
