<svg id="Layer_1" enable-background="new 0 0 256 256" height="512" viewBox="0 0 256 256" width="512" xmlns="http://www.w3.org/2000/svg"><g><g><path d="m159.09 250.103h-5.91c-6.159 0-11.151-4.992-11.151-11.151v-156.963h28.212v156.964c0 6.158-4.992 11.15-11.151 11.15z" fill="#f9d335"/><path d="m201.431 5.897h-90.591c-15.396 0-27.877 12.481-27.877 27.877v49.401c0 15.396 12.481 27.878 27.877 27.878h90.591c15.396 0 27.878-12.481 27.878-27.878v-49.401c-.001-15.396-12.482-27.877-27.878-27.877z" fill="#ff4a73"/><path d="m119.782 149.782h-81.938c-6.155 0-11.151 4.984-11.151 11.151v36.241c0 6.155 4.996 11.151 11.151 11.151h82.406z" fill="#ffaa80"/><path d="m191.97 178.838h.1c14.087 0 14.106-21.332 0-21.332-.039 0-.066 0-.1 0 12.984-1.075 12.642-21.28-1.089-21.28-35.838 0-26.354-.211-37.086.002-12.033.238-14.072 1.009-19.09 3.206-15.47 6.38-26.361 21.603-26.361 39.375 0 23.461 18.972 42.49 42.411 42.582 4.443.001 25.844.006 28.772.006 13.913 0 14.155-20.209 1.199-21.28h10.154c13.714.001 14.091-20.206 1.09-21.279z" fill="#ffbb98"/><path d="m127.566 111.051h-16.726c-15.4 0-27.878-12.478-27.878-27.878v-49.399c0-15.4 12.478-27.877 27.878-27.877h16.727c-15.4 0-27.878 12.478-27.878 27.877v49.399c0 15.399 12.478 27.878 27.877 27.878z" fill="#f973a3"/><path d="m229.308 33.774v49.399c0 15.399-12.478 27.878-27.878 27.878h-16.727c15.4 0 27.878-12.478 27.878-27.878v-49.399c0-15.4-12.478-27.877-27.878-27.877h16.727c15.4 0 27.878 12.477 27.878 27.877z" fill="#ea2a6a"/><g fill="#ffcaa6"><path d="m123.346 178.807c0 23.52 19.06 42.59 42.58 42.59-1.6 0-2.22 0-2.22 0h-12.78c-23.52 0-42.58-19.07-42.58-42.59 0-17.77 10.89-32.99 26.36-39.37 5.02-2.2 7.06-2.97 19.09-3.21 7.91-.15 4.84-.08 17.03-.03-.59 0-1.26.01-2.03.03-12.03.24-14.07 1.01-19.09 3.21-15.47 6.38-26.36 21.6-26.36 39.37z"/><path d="m52.846 208.327h-15c-6.16 0-11.15-5-11.15-11.15v-36.24c0-6.17 4.99-11.15 11.15-11.15h15c-6.16 0-11.15 4.98-11.15 11.15v36.24c0 6.15 4.99 11.15 11.15 11.15z"/></g></g><path d="m201.431 1.896h-90.591c-17.577 0-31.877 14.3-31.877 31.877v49.401c0 17.577 14.3 31.877 31.877 31.877h27.189v19c-7.606 2.202-14.421 6.284-19.892 11.724h-80.294c-8.354 0-15.151 6.797-15.151 15.151v36.241c0 8.354 6.797 15.151 15.151 15.151h80.826c5.379 5.184 11.995 9.085 19.36 11.217v15.417c0 8.354 6.797 15.151 15.151 15.151h5.91c8.354 0 15.151-6.797 15.151-15.151v-13.57c2.343.001 4.465 0 5.478 0 11.554 0 17.633-11.764 13.07-21.376 8.025-.867 12.462-7.423 12.729-13.905.158-3.832-1.086-7.805-3.712-10.745 6.435-5.702 6.448-16.693 0-22.402 2.627-2.943 3.871-6.919 3.712-10.754-.287-6.952-5.379-13.989-14.556-13.989h-16.723v-17.159h27.19c17.577 0 31.877-14.3 31.877-31.877v-49.401c.002-17.577-14.298-31.878-31.875-31.878zm-163.588 202.423c-3.943 0-7.151-3.208-7.151-7.151v-36.241c0-3.943 3.208-7.151 7.151-7.151h73.855c-4.625 7.233-7.319 15.814-7.319 25.018 0 9.419 2.819 18.188 7.644 25.525zm128.398 34.634c0 3.943-3.208 7.151-7.151 7.151h-5.91c-3.943 0-7.151-3.208-7.151-7.151v-13.84c1.621.171 3.266.263 4.932.263 8.008.001 9.404-.002 15.28.002zm24.723-98.742c8.587 0 8.633 12.501.907 13.28-.07 0-.213.001-.261.001h-25.909c-2.209 0-4 1.791-4 4s1.791 4 4 4h26.38c4.287.005 6.562 2.955 6.562 6.66 0 7.491-7.383 6.619-7.492 6.671-.108 0-25.351.005-25.459.005-2.209 0-4 1.791-4 4s1.791 4 4 4h26.215c7.702.807 7.618 13.275-.942 13.275-8.769 0-16.473 0-25.263 0-2.209 0-4 1.791-4 4s1.791 4 4 4h14.879c7.78.74 7.722 13.232-.81 13.277-9.449-.005-23.897-.003-28.81-.003-21.274 0-38.582-17.308-38.582-38.582s17.308-38.582 38.583-38.582zm-44.935-7.736v-17.423h20.212v17.159c-14.69.073-16.079-.173-20.212.264zm55.402-25.423h-90.591c-13.166 0-23.877-10.711-23.877-23.877v-49.401c0-4.718 1.381-9.117 3.752-12.825l20.866 13.509c-.965 2.778-1.497 5.756-1.497 8.858 0 13.577 10.041 24.85 23.087 26.789v12.155h-3.583c-2.361 0-3.837 2.556-2.656 4.601 2.654 4.596 4.934 8.545 7.587 13.141 1.181 2.045 4.132 2.045 5.313 0 2.654-4.596 4.934-8.545 7.587-13.141 1.181-2.045-.295-4.601-2.656-4.601h-3.591v-12.167c5.461-.818 10.535-3.289 14.548-7.059l15.383 9.959v9.267h-3.586c-2.361 0-3.837 2.556-2.656 4.601 2.654 4.596 4.934 8.545 7.587 13.141 1.181 2.045 4.132 2.045 5.313 0 .007-.012.011-.02.017-.03-.001.001.001-.001.003-.005.013-.022.023-.04.031-.054.203-.352 1.466-2.54 7.536-13.052 1.181-2.045-.295-4.601-2.656-4.601h-3.592v-4.087l36.907 23.895c-4.036 3.12-9.091 4.984-14.576 4.984zm-52.836-58.16-26.537-17.181c7.374-9.566 21.311-9.889 29.209-1.257-3.014 5.548-3.981 12.206-2.672 18.438zm.109 9.601c-12.576 9.551-30.621.533-30.621-15.177 0-1.487.188-2.927.512-4.317zm10.42-25.579c.074-.113.142-.229.219-.341 3.441-5.029 9.219-8.338 15.758-8.338 10.524 0 19.085 8.562 19.085 19.085 0 10.514-8.547 19.069-19.057 19.085-.01 0-.019-.003-.029-.003s-.019.003-.029.003c-14.946-.022-24.297-16.713-15.947-29.491zm66.184 50.261c0 4.757-1.404 9.19-3.811 12.916l-40.633-26.307c12.175-2.649 21.322-13.505 21.322-26.463 0-14.935-12.15-27.085-27.085-27.085-7.375 0-14.067 2.966-18.956 7.764-11.691-11.461-30.956-10.114-40.829 3.346l-19.143-12.393c4.051-3.164 9.14-5.056 14.667-5.056h90.591c13.166 0 23.877 10.711 23.877 23.877z" fill="#5f266d"/></g></svg>