<svg id="Capa_1" enable-background="new 0 0 512 512" height="512" viewBox="0 0 512 512" width="512" xmlns="http://www.w3.org/2000/svg"><g><g><g><path d="m457.792 230.585c-.739 25.203-2.439 50.407-5.122 75.62-1.417 13.341-12.207 23.705-25.568 24.768-84.568 6.701-169.136 6.701-253.704 0-13.371-1.063-24.161-11.428-25.578-24.768-.132-1.255-.263-2.5-.385-3.755-7.014-68.393-6.883-136.797.385-205.19 1.417-13.33 12.207-23.705 25.578-24.768 27.096-2.146 54.202-3.603 81.309-4.373 30.366-.86 60.721-.86 91.086 0 27.106.769 54.202 2.227 81.309 4.373 13.361 1.063 24.151 11.438 25.568 24.768 4.717 44.445 6.428 88.88 5.122 133.325z" fill="#f4dd45"/><path d="m457.792 230.585c-.739 25.203-2.439 50.407-5.122 75.62-1.417 13.341-12.207 23.705-25.568 24.768-84.568 6.701-169.136 6.701-253.704 0-13.371-1.063-24.161-11.428-25.578-24.768-.132-1.255-.263-2.5-.385-3.755 4.808-15.385 26.388-31.722 103.192-19.485 129.844 20.69 207.165-52.38 207.165-52.38z" fill="#ecbe6b"/><path d="m189.695 332.18c-5.436-.375-10.871-.769-16.306-1.205-13.361-1.063-24.151-11.428-25.568-24.768-7.399-69.648-7.399-139.297 0-208.945 1.417-13.331 12.207-23.705 25.568-24.768 5.435-.425 10.871-.83 16.306-1.204-5.02 4.727-8.391 11.174-9.16 18.442-7.935 74.669-7.935 149.338 0 224.006.769 7.267 4.14 13.725 9.16 18.442z" fill="#ecbe6b"/><path d="m345.794 68.119v105.409l-45.548-31.732-45.538 31.732v-105.409c30.365-.86 60.72-.86 91.086 0z" fill="#595959"/></g><g><path d="m492.402 303.853h-.009l-130.567 104.733c-10.73 8.608-24.498 12.528-38.162 10.861l-175.975-21.417-46.888 17.344c-25.188-25.904-14.838-109.252-14.838-109.252l11.167-3.056c-.969-14.921 6.068-29.737 19.129-38.214 1.44-.943 2.951-1.799 4.54-2.576l75.459-36.852 38.808-18.954c2.113-1.03 4.269-1.842 6.461-2.436 16.221-4.444 33.831 2.689 42.134 17.985 9.42 17.365 3.484 39.07-13.463 49.223l-62.73 37.594 105.562 18.387c12.703 2.209 25.773-.463 36.599-7.491l104.986-68.152c14.083-9.15 32.819-5.972 43.112 7.308 2.663 3.44 4.531 7.255 5.622 11.219 3.301 12.05-.601 25.443-10.947 33.746z" fill="#ffcbbe"/><path d="m323.376 391.317c-72.292 9.39-122.131-33.002-152.284-72.885-14.951-19.776-9.91-48.062 10.962-61.441 72.798-46.663 91.627-44.949 101.606-34.97-8.303-15.296-25.913-22.429-42.134-17.985-2.191.594-4.348 1.406-6.461 2.436l-38.808 18.954-61.162 29.87s-.006.01-.007.012l-14.29 6.971c-15.951 7.788-24.743 24.219-23.669 40.79l-11.167 3.056s-10.35 83.348 14.838 109.252l46.888-17.344 175.975 21.416c13.664 1.668 27.432-2.253 38.162-10.861l130.567-104.733c-45.119-12.243-120.325 80.014-169.016 87.462z" fill="#eaac9d"/><ellipse cx="61.31" cy="370.075" fill="#3b66c1" rx="47.125" ry="95.004" transform="matrix(.943 -.333 .333 .943 -119.796 41.57)"/><path d="m115.11 422.313c-19.302 12.055-40.244 19.454-62.836 22.207-4.484-10.79-8.806-21.63-12.976-32.521 23.533-2.905 45.386-10.547 65.559-22.936 3.573 11.033 6.994 22.116 10.253 33.25z" fill="#26457d"/></g></g><g><path d="m510.581 268.111c-1.384-5.01-3.713-9.656-6.93-13.813-9.293-11.99-24.452-17.27-38.674-14.711 1.81-47.574.184-95.665-4.858-143.122-1.793-16.872-15.433-30.099-32.432-31.452-5.105-.405-10.395-.797-16.175-1.2-4.12-.281-7.715 2.828-8.003 6.96s2.828 7.715 6.96 8.003c5.731.399 10.976.788 16.03 1.189 9.807.78 17.673 8.386 18.704 18.084 5.207 49.013 6.71 98.71 4.495 147.785l-104.148 67.607c-9.268 6.012-20.36 8.283-31.227 6.395l-8.047-1.407c-4.082-.715-7.967 2.016-8.68 6.096-.714 4.08 2.016 7.966 6.096 8.68l8.056 1.409c14.613 2.54 29.515-.512 41.968-8.588l104.987-68.153c10.896-7.082 25.124-4.668 33.089 5.608 2.013 2.601 3.47 5.502 4.327 8.606 2.59 9.464-.631 19.541-8.21 25.752-.071.053-.142.107-.212.163l-130.563 104.733c-9.099 7.305-20.961 10.683-32.568 9.264l-175.967-21.417c-1.187-.146-2.389-.004-3.508.411l-28.429 10.516c-5.197-16.744-10.781-33.487-16.681-49.979-1.395-3.9-5.687-5.933-9.588-4.535-3.9 1.395-5.931 5.688-4.535 9.588 7.345 20.53 14.201 41.453 20.409 62.277-15.316 8.775-31.848 14.618-49.285 17.418-15.38-37.474-29.032-76.103-40.638-114.986 15.337-8.778 31.872-14.622 49.291-17.419 3.384 8.251 6.645 16.445 9.718 24.428 1.489 3.865 5.828 5.792 9.694 4.304 3.865-1.489 5.792-5.829 4.304-9.694-1.137-2.952-2.306-5.939-3.489-8.94l13.275-3.678c3.424-.948 5.712-4.169 5.482-7.715-.818-12.559 5.209-24.602 15.754-31.448 1.191-.78 2.434-1.484 3.718-2.106l114.262-55.81c1.667-.814 3.399-1.467 5.162-1.946 13.208-3.621 27.008 2.271 33.552 14.329 7.527 13.875 2.816 31.099-10.726 39.214l-62.725 37.602c-2.687 1.611-4.09 4.723-3.517 7.803.572 3.081 3 5.48 6.086 6.018l67.988 11.842c.436.076.868.113 1.296.113 3.577 0 6.745-2.569 7.38-6.214.711-4.081-2.021-7.965-6.102-8.676l-48.132-8.384 45.437-27.239c20.454-12.256 27.57-38.274 16.199-59.233-9.885-18.215-30.734-27.114-50.687-21.646-2.655.722-5.276 1.709-7.792 2.937l-81.266 39.694c-1.81-47.018-.215-94.52 4.767-141.376 1.031-9.699 8.901-17.304 18.711-18.084 24.308-1.924 48.74-3.28 73.21-4.089v97.653c0 2.793 1.553 5.355 4.029 6.648 2.476 1.292 5.466 1.103 7.758-.495l41.262-28.745 41.261 28.745c1.281.893 2.781 1.346 4.288 1.346 1.187 0 2.379-.282 3.47-.852 2.477-1.293 4.029-3.855 4.029-6.648v-97.667c9.091.301 18.17.674 27.232 1.13 4.138.213 7.659-2.977 7.867-7.113.209-4.137-2.977-7.659-7.113-7.868-69.185-3.484-139.329-2.474-208.478 3-17.004 1.352-30.648 14.579-32.441 31.452-5.292 49.768-6.816 100.253-4.559 150.146l-18.267 8.922c-1.838.89-3.646 1.915-5.35 3.03-13.326 8.65-21.619 23.134-22.549 38.797l-9.391 2.602c-.979-2.398-1.968-4.8-2.967-7.205-1.292-3.107-4.491-4.976-7.833-4.567-23.56 2.871-45.735 10.706-65.908 23.288-2.855 1.781-4.175 5.246-3.228 8.475 12.651 43.138 27.806 86.017 45.041 127.444 1.174 2.822 3.924 4.62 6.921 4.62.301 0 .606-.019.911-.056 23.587-2.875 45.759-10.711 65.901-23.29 2.852-1.781 4.17-5.242 3.225-8.469-.421-1.436-.853-2.874-1.28-4.311l27.567-10.197 174.159 21.198c2.335.285 4.678.426 7.017.426 13.266 0 26.357-4.532 36.757-12.88l130.331-104.546c.081-.06.161-.122.24-.186 12.386-9.943 17.683-26.263 13.485-41.595zm-172.292-192.668v83.72l-33.761-23.52c-2.575-1.794-5.997-1.795-8.574 0l-33.762 23.52v-83.717c25.377-.603 50.773-.602 76.097-.003z"/><path d="m242.572 269.154c3.07 0 6.186-.74 9.082-2.285l9.41-5.019c3.655-1.949 5.037-6.492 3.089-10.147-1.95-3.655-6.492-5.039-10.147-3.088l-9.41 5.019c-1.878 1.001-4.257.43-5.416-1.303-6.304-9.414-8.286-19.018-8.327-19.224-.79-4.057-4.718-6.71-8.775-5.933-4.068.781-6.733 4.711-5.953 8.779.098.51 2.489 12.625 10.591 24.725 3.664 5.473 9.668 8.476 15.856 8.476z"/><circle cx="73.756" cy="408.397" r="7.5"/></g></g></svg>