<svg height="511pt" viewBox="-31 0 511 511.9991" width="511pt" xmlns="http://www.w3.org/2000/svg"><path d="m424.730469 10.265625-62.972657-2.679687c-10.015624-.457032-18.484374 7.347656-18.910156 17.367187-.429687 10.015625 7.347656 18.484375 17.367188 18.910156l19.695312.839844-70.203125 65.570313c-23.089843-18.847657-52.554687-30.167969-84.617187-30.167969s-61.523438 11.320312-84.617188 30.167969l-17.066406-15.941407 12.871094-14.113281c6.757812-7.410156 6.226562-18.894531-1.183594-25.652344-7.40625-6.753906-18.894531-6.226562-25.648438 1.183594l-12.578124 13.792969-26.59375-24.839844 19.695312-.839844c10.015625-.425781 17.792969-8.894531 17.367188-18.914062-.425782-10.015625-8.878907-17.816407-18.914063-17.367188l-62.96875 2.683594c-9.898437.421875-17.632813 8.699219-17.378906 18.605469l1.613281 63.003906c.253906 9.867188 8.332031 17.691406 18.140625 17.691406.160156 0 .316406 0 .476563-.003906 10.023437-.257812 17.941406-8.59375 17.683593-18.617188l-.503906-19.703124 26.910156 25.132812-10.65625 11.6875c-6.757812 7.410156-6.230469 18.894531 1.179688 25.652344 3.480469 3.175781 7.863281 4.742187 12.230469 4.742187 4.925781 0 9.839843-1.996093 13.421874-5.925781l10.363282-11.367188 16.738281 15.636719c-15.503906 21.867188-24.628906 48.5625-24.628906 77.351563 0 67.757812 50.535156 123.921875 115.890625 132.8125v75.46875h-19.917969c-10.027344 0-18.15625 8.128906-18.15625 18.15625s8.128906 18.15625 18.15625 18.15625h19.917969v27.527344c0 10.03125 8.128906 18.160156 18.15625 18.160156s18.15625-8.128906 18.15625-18.160156v-27.527344h19.914062c10.027344 0 18.160156-8.128906 18.160156-18.15625s-8.132812-18.15625-18.160156-18.15625h-19.914062v-75.46875c65.355468-8.890625 115.890625-65.054688 115.890625-132.8125 0-28.789063-9.125-55.484375-24.628907-77.351563l70.1875-65.558593-.503906 19.707031c-.257812 10.023437 7.660156 18.359375 17.683594 18.613281.160156.003906.316406.007812.476562.007812 9.808594 0 17.886719-7.824218 18.140626-17.691406l1.617187-63.007812c.253906-9.902344-7.480469-18.183594-17.378906-18.605469zm-199.640625 301.621094c-53.890625 0-97.730469-43.84375-97.730469-97.730469 0-53.890625 43.839844-97.734375 97.730469-97.734375s97.734375 43.839844 97.734375 97.730469-43.84375 97.734375-97.734375 97.734375zm0 0" fill="#00f3a7"/><g fill="#00e49d"><path d="m224.265625 80.117188c24.171875 3.027343 55.566406 19.300781 75.03125 34.195312 1.945313 1.488281 4.691406 1.328125 6.480469-.34375l3.945312-3.6875c0-.007812 0-.011719-.003906-.019531l-.011719.011719c-23.289062-19.007813-53.058593-30.359376-85.4375-30.164063-.003906.027344 0-.019531-.003906.007813zm0 0"/><path d="m117.25 53.460938c7.425781 6.773437 7.957031 18.285156 1.183594 25.714843l-9.542969 10.464844c-1.863281 2.042969-1.734375 5.199219.285156 7.085937l18.800781 17.5625c1.796876 1.675782 4.542969 1.808594 6.496094.316407 1.960938-1.496094 3.960938-2.941407 6-4.332031l-17.066406-15.941407 12.871094-14.113281c6.753906-7.410156 6.226562-18.894531-1.183594-25.652344-5.660156-5.160156-13.695312-6.054687-20.1875-2.890625.8125.527344 1.601562 1.109375 2.34375 1.785157zm0 0"/><path d="m88.570312 132.535156 10.363282-11.371094-6.417969-5.996093c-2.050781-1.917969-5.277344-1.785157-7.167969.289062l-14.738281 16.160157c-1.535156 1.683593-3.324219 2.992187-5.242187 3.964843 2.984374 1.914063 6.382812 2.875 9.78125 2.875 4.929687 0 9.839843-1.996093 13.421874-5.921875zm0 0"/><path d="m127.355469 214.15625c0-52.722656 41.964843-95.820312 94.242187-97.664062-4.613281-.671876-9.332031-1.023438-14.132812-1.023438-54.019532 0-97.972656 43.949219-97.972656 97.972656 0 54.023438 43.953124 97.972656 97.972656 97.972656 2.078125 0 4.132812-.074218 6.179687-.199218-48.515625-5.6875-86.289062-47.042969-86.289062-97.058594zm0 0"/><path d="m404.691406 71.242188v-5.882813c0-4.414063-5.273437-6.699219-8.496094-3.675781l-75.894531 71.257812c-1.792969 1.683594-2.105469 4.40625-.746093 6.457032 14.078124 21.242187 22.289062 46.703124 22.289062 74.042968 0 66.464844-48.507812 121.804688-111.980469 132.5-2.421875.410156-4.195312 2.507813-4.195312 4.964844v66.285156c0 2.785156 2.257812 5.042969 5.042969 5.042969h12.535156v-75.265625c55-7.480469 99.5-48.441406 112.222656-101.609375 1.175781-4.894531 2.074219-9.894531 2.691406-14.980469.644532-5.320312.976563-10.734375.976563-16.222656 0-28.789062-9.125-55.484375-24.628907-77.355469zm0 0"/><path d="m424.730469 10.265625-13.042969-.554687c7.875 2.179687 13.550781 9.476562 13.332031 17.988281l-1.621093 63.164062c-.183594 7.140625-4.464844 13.195313-10.53125 16.023438 2.632812 1.613281 5.699218 2.589843 9.007812 2.675781.160156.003906.316406.007812.476562.007812 9.808594 0 17.886719-7.828124 18.140626-17.691406l1.617187-63.007812c.253906-9.902344-7.480469-18.183594-17.378906-18.605469zm0 0"/><path d="m45.988281 90.949219-.507812-19.730469-9.683594-9.046875c-3.269531-3.054687-8.601563-.65625-8.488281 3.8125l.617187 23.945313c.183594 7.261718-3.917969 13.621093-9.992187 16.695312 2.851562 1.863281 6.253906 2.945312 9.894531 2.945312.15625 0 .316406-.003906.472656-.007812 10.027344-.253906 17.945313-8.589844 17.6875-18.613281zm0 0"/><path d="m230.710938 458.746094c-2.785157 0-5.042969 2.257812-5.042969 5.042968v22.445313c0 6.851563-3.789063 12.8125-9.382813 15.917969 2.757813 1.535156 5.957032 2.375 9.359375 2.273437 9.898438-.296875 17.601563-8.765625 17.601563-18.667969v-27.007812l.003906-.003906zm0 0"/><path d="m262.726562 422.433594h-14.527343c9.039062 1.28125 15.945312 9.171875 15.625 18.636718-.335938 9.882813-8.800781 17.675782-18.691407 17.675782h18.027344c10.25 0 18.511719-8.488282 18.144532-18.816406-.347657-9.839844-8.730469-17.496094-18.578126-17.496094zm0 0"/><path d="m61.65625 53.761719 23.773438 20.980469c2.0625 1.824218 5.207031 1.652343 7.0625-.382813l4.382812-4.804687-26.601562-24.847657-5.492188.234375c-4.539062.191406-6.527344 5.8125-3.125 8.820313zm0 0"/><path d="m70.273438 44.703125v.003906h.007812zm0 0"/><path d="m72.011719 44.632812c.015625 0 .035156-.003906.050781-.003906h-.054688zm0 0"/><path d="m88.421875 7.585938-9.621094.40625c6.023438 2.757812 10.320313 10.609374 10.621094 17.679687.425781 10.027344-7.339844 18.5-17.359375 18.957031l17.902344-.765625c10.019531-.425781 17.796875-8.890625 17.371094-18.910156-.429688-10.019531-8.878907-17.816406-18.914063-17.367187zm0 0"/></g><path d="m225.089844 512c-14.183594 0-25.722656-11.539062-25.722656-25.722656v-19.964844h-12.347657c-14.183593 0-25.722656-11.539062-25.722656-25.722656s11.539063-25.722656 25.722656-25.722656h12.347657v-61.453126c-66.519532-12.257812-115.890626-70.988281-115.890626-139.261718 0-27.238282 7.695313-53.453125 22.3125-76.230469l-6.421874-6.003906-5.207032 5.710937c-9.441406 10.351563-25.984375 11.117188-36.339844 1.675782-10.355468-9.449219-11.125-25.976563-1.671874-36.339844l5.617187-6.164063-8.257813-7.710937.042969 1.660156c.175781 6.871094-2.332031 13.394531-7.0625 18.378906-4.839843 5.089844-11.632812 8.003906-18.660156 8.003906-14.054687 0-25.34375-11.007812-25.703125-25.0625l-1.617188-63.007812c-.355468-13.9375 10.6875-25.761719 24.621094-26.355469l62.972656-2.6796872c14.027344-.6406248 26.199219 10.6093752 26.792969 24.6054682.59375 14.011719-10.597656 26.195313-24.605469 26.789063l-1.664062.074219 7.808594 7.292968 7.417968-8.136718c9.554688-10.476563 25.859376-11.230469 36.339844-1.675782 5.078125 4.628907 8.046875 10.957032 8.363282 17.824219.316406 6.863281-2.058594 13.4375-6.691407 18.515625l-7.832031 8.589844 6.890625 6.4375c24.277344-17.972656 53.910156-27.800781 84.167969-27.800781 30.257812 0 59.890625 9.828125 84.167968 27.800781l52.296876-48.847656-1.660157-.070313c-6.867187-.292969-13.207031-3.242187-17.855469-8.300781-4.644531-5.0625-7.042968-11.628906-6.75-18.492188.292969-6.886718 3.25-13.242187 8.332032-17.894531 5.066406-4.640625 11.632812-7.023437 18.480468-6.7109372l62.949219 2.6796872c13.933594.59375 24.976563 12.417969 24.621094 26.359375l-1.617187 63.007813c-.359376 14.054687-11.652344 25.0625-25.703126 25.0625-.222656 0-.441406-.003907-.660156-.007813-14.1875-.363281-25.425781-12.195312-25.0625-26.375l.042969-1.664062-52.28125 48.832031c14.621094 22.78125 22.3125 48.992187 22.3125 76.234375 0 4.175781-3.386719 7.5625-7.566406 7.5625-4.175781 0-7.5625-3.386719-7.5625-7.5625 0-26.304688-8.035157-51.539062-23.238281-72.980469-2.1875-3.085937-1.757813-7.320312 1.007812-9.902343l70.1875-65.558594c4.808594-4.488282 12.898438-.835938 12.726562 5.722656l-.503906 19.703125c-.148437 5.839844 4.480469 10.710937 10.316406 10.863281h.28125c5.6875 0 10.433594-4.628906 10.578126-10.320312l1.617187-63.007813c.144531-5.738281-4.402344-10.605469-10.136719-10.851562l-62.972656-2.679688c-5.769531-.28125-10.792969 4.371094-11.03125 10.128907-.238281 5.773437 4.355469 10.789062 10.128906 11.035156l19.695313.835937c6.554687.28125 9.648437 8.597657 4.84375 13.089844l-70.199219 65.566406c-2.769531 2.582031-7.015625 2.726563-9.949219.332031-22.492187-18.351562-50.84375-28.460937-79.835937-28.460937-28.992188 0-57.34375 10.109375-79.832032 28.460937-2.933593 2.398438-7.183593 2.253907-9.949218-.332031l-17.066406-15.941406c-3.027344-2.824219-3.21875-7.5625-.425782-10.625l12.871094-14.113281c3.890625-4.269532 3.574219-11.074219-.691406-14.960938-4.316406-3.9375-11.027344-3.625-14.960938.6875l-12.578125 13.792969c-2.796875 3.070313-7.71875 3.265625-10.753906.429687l-26.59375-24.839843c-4.808594-4.488281-1.714844-12.804688 4.839844-13.085938l19.695312-.839843c5.714844-.242188 10.375-5.320313 10.132813-11.03125-.242188-5.710938-5.300782-10.378907-11.015625-10.132813l-62.988281 2.683594c-5.738282.242187-10.285157 5.113281-10.136719 10.851562l1.613281 63.007813c.148438 5.691406 4.890625 10.320312 10.578125 10.320312 5.878906-.023437 10.75-4.957031 10.597656-10.863281l-.503906-19.707031c-.167969-6.558594 7.925781-10.210938 12.726563-5.71875l26.910156 25.132812c3.027344 2.828125 3.21875 7.566406.425781 10.628906l-10.65625 11.6875c-3.886719 4.261719-3.582031 11.078126.6875 14.960938 4.277344 3.886719 11.070313 3.578125 14.964844-.691406l10.363281-11.367188c2.800781-3.066406 7.71875-3.265625 10.753906-.429687l16.738282 15.632812c2.769531 2.585938 3.199218 6.816407 1.007812 9.90625-15.199219 21.4375-23.234375 46.671875-23.234375 72.976563 0 62.964844 47.003906 116.835937 109.34375 125.316406 3.75.511719 6.546875 3.710938 6.546875 7.496094v75.46875c0 4.179687-3.386719 7.5625-7.566406 7.5625h-19.914063c-5.839843 0-10.59375 4.753906-10.59375 10.59375s4.753907 10.59375 10.59375 10.59375h19.914063c4.179687 0 7.566406 3.386718 7.566406 7.5625v27.527344c0 5.84375 4.75 10.59375 10.589844 10.59375s10.59375-4.75 10.59375-10.59375v-27.527344c0-4.179688 3.386718-7.5625 7.5625-7.5625h19.917968c5.839844 0 10.589844-4.753906 10.589844-10.59375s-4.75-10.59375-10.589844-10.59375h-19.917968c-4.175782 0-7.5625-3.386719-7.5625-7.5625v-21.53125c0-4.179688 3.386718-7.566406 7.5625-7.566406 4.179687 0 7.566406 3.386718 7.566406 7.566406v13.964844h12.351562c14.179688 0 25.722657 11.539062 25.722657 25.722656s-11.539063 25.722656-25.722657 25.722656h-12.351562v19.964844c0 14.183594-11.539062 25.722656-25.722656 25.722656zm18.15625-133.792969c-4.175782 0-7.566406-3.386719-7.566406-7.566406v-23.675781c0-3.78125 2.796874-6.984375 6.546874-7.496094 51.277344-6.972656 93.832032-45.503906 105.886719-95.871094.972657-4.0625 5.054688-6.570312 9.117188-5.597656s6.570312 5.054688 5.597656 9.121094c-6.625 27.667968-21.328125 52.488281-42.527344 71.769531-19.683593 17.910156-43.59375 29.765625-69.488281 34.527344v17.222656c0 4.179687-3.386719 7.566406-7.566406 7.566406zm-18.15625-58.753906c-58.0625 0-105.296875-47.238281-105.296875-105.300781 0-4.179688 3.386719-7.566406 7.5625-7.566406 4.179687 0 7.566406 3.386718 7.566406 7.566406 0 49.71875 40.449219 90.167968 90.167969 90.167968s90.167968-40.449218 90.167968-90.167968-40.449218-90.164063-90.167968-90.164063c-39.292969 0-73.796875 25.148438-85.855469 62.578125-1.28125 3.976563-5.542969 6.164063-9.519531 4.882813-3.976563-1.28125-6.160156-5.542969-4.878906-9.523438 6.777343-21.042969 19.804687-39.167969 37.671874-52.410156 18.234376-13.515625 39.875-20.660156 62.582032-20.660156 58.0625 0 105.296875 47.234375 105.296875 105.296875s-47.234375 105.300781-105.296875 105.300781zm0 0"/></svg>