<svg width="252" height="28" viewBox="0 0 252 28" fill="none" xmlns="http://www.w3.org/2000/svg">
<path d="M0.633789 21.9368V0.462158H8.03125C9.70117 0.462158 10.9756 0.564697 11.8545 0.769775C13.085 1.05298 14.1348 1.56567 15.0039 2.30786C16.1367 3.26489 16.9814 4.49048 17.5381 5.98462C18.1045 7.46899 18.3877 9.16821 18.3877 11.0823C18.3877 12.7131 18.1973 14.1584 17.8164 15.4182C17.4355 16.678 16.9473 17.7229 16.3516 18.553C15.7559 19.3733 15.1016 20.0227 14.3887 20.5012C13.6855 20.97 12.8311 21.3264 11.8252 21.5706C10.8291 21.8147 9.68164 21.9368 8.38281 21.9368H0.633789ZM3.47559 19.4026H8.06055C9.47656 19.4026 10.585 19.2708 11.3857 19.0071C12.1963 18.7434 12.8408 18.3723 13.3193 17.8938C13.9932 17.22 14.5156 16.3167 14.8867 15.1838C15.2676 14.0413 15.458 12.6594 15.458 11.0383C15.458 8.79224 15.0869 7.0686 14.3447 5.86743C13.6123 4.65649 12.7188 3.84595 11.6641 3.43579C10.9023 3.14282 9.67676 2.99634 7.9873 2.99634H3.47559V19.4026ZM32.626 16.927L35.3506 17.2639C34.9209 18.8557 34.125 20.0911 32.9629 20.97C31.8008 21.8489 30.3164 22.2883 28.5098 22.2883C26.2344 22.2883 24.4277 21.5901 23.0898 20.1936C21.7617 18.7874 21.0977 16.8196 21.0977 14.2903C21.0977 11.6731 21.7715 9.64185 23.1191 8.19653C24.4668 6.75122 26.2148 6.02856 28.3633 6.02856C30.4434 6.02856 32.1426 6.73657 33.4609 8.15259C34.7793 9.5686 35.4385 11.5608 35.4385 14.1292C35.4385 14.2854 35.4336 14.5198 35.4238 14.8323H23.8223C23.9199 16.5413 24.4033 17.8499 25.2725 18.7581C26.1416 19.6663 27.2256 20.1204 28.5244 20.1204C29.4912 20.1204 30.3164 19.8665 31 19.3586C31.6836 18.8508 32.2256 18.0403 32.626 16.927ZM23.9688 12.6643H32.6553C32.5381 11.3557 32.2061 10.3743 31.6592 9.71997C30.8193 8.70435 29.7305 8.19653 28.3926 8.19653C27.1816 8.19653 26.1611 8.60181 25.3311 9.41235C24.5107 10.2229 24.0566 11.3069 23.9688 12.6643ZM42.9971 21.9368L37.0791 6.38013H39.8623L43.2021 15.6965C43.5635 16.7024 43.8955 17.7473 44.1982 18.8313C44.4326 18.011 44.7598 17.0247 45.1797 15.8723L48.6367 6.38013H51.3467L45.458 21.9368H42.9971ZM64.3252 16.927L67.0498 17.2639C66.6201 18.8557 65.8242 20.0911 64.6621 20.97C63.5 21.8489 62.0156 22.2883 60.209 22.2883C57.9336 22.2883 56.127 21.5901 54.7891 20.1936C53.4609 18.7874 52.7969 16.8196 52.7969 14.2903C52.7969 11.6731 53.4707 9.64185 54.8184 8.19653C56.166 6.75122 57.9141 6.02856 60.0625 6.02856C62.1426 6.02856 63.8418 6.73657 65.1602 8.15259C66.4785 9.5686 67.1377 11.5608 67.1377 14.1292C67.1377 14.2854 67.1328 14.5198 67.123 14.8323H55.5215C55.6191 16.5413 56.1025 17.8499 56.9717 18.7581C57.8408 19.6663 58.9248 20.1204 60.2236 20.1204C61.1904 20.1204 62.0156 19.8665 62.6992 19.3586C63.3828 18.8508 63.9248 18.0403 64.3252 16.927ZM55.668 12.6643H64.3545C64.2373 11.3557 63.9053 10.3743 63.3584 9.71997C62.5186 8.70435 61.4297 8.19653 60.0918 8.19653C58.8809 8.19653 57.8604 8.60181 57.0303 9.41235C56.21 10.2229 55.7559 11.3069 55.668 12.6643ZM70.3164 21.9368V0.462158H72.9531V21.9368H70.3164ZM76.0732 14.1584C76.0732 11.2776 76.874 9.1438 78.4756 7.75708C79.8135 6.60474 81.4443 6.02856 83.3682 6.02856C85.5068 6.02856 87.2549 6.73169 88.6123 8.13794C89.9697 9.53442 90.6484 11.468 90.6484 13.9387C90.6484 15.9407 90.3457 17.5178 89.7402 18.6702C89.1445 19.8127 88.2705 20.7014 87.1182 21.3362C85.9756 21.9709 84.7256 22.2883 83.3682 22.2883C81.1904 22.2883 79.4277 21.5901 78.0801 20.1936C76.7422 18.7971 76.0732 16.7854 76.0732 14.1584ZM78.7832 14.1584C78.7832 16.1506 79.2178 17.6448 80.0869 18.6409C80.9561 19.6272 82.0498 20.1204 83.3682 20.1204C84.6768 20.1204 85.7656 19.6223 86.6348 18.6262C87.5039 17.6301 87.9385 16.1116 87.9385 14.0706C87.9385 12.1467 87.499 10.6917 86.6201 9.70532C85.751 8.70923 84.667 8.21118 83.3682 8.21118C82.0498 8.21118 80.9561 8.70435 80.0869 9.69067C79.2178 10.677 78.7832 12.1663 78.7832 14.1584ZM93.7539 27.8987V6.38013H96.1562V8.40161C96.7227 7.6106 97.3623 7.01978 98.0752 6.62915C98.7881 6.22876 99.6523 6.02856 100.668 6.02856C101.996 6.02856 103.168 6.37036 104.184 7.05396C105.199 7.73755 105.966 8.70435 106.483 9.95435C107.001 11.1946 107.26 12.5569 107.26 14.0413C107.26 15.6331 106.972 17.0686 106.396 18.3479C105.829 19.6174 104.999 20.594 103.905 21.2776C102.821 21.9514 101.679 22.2883 100.478 22.2883C99.5986 22.2883 98.8076 22.1028 98.1045 21.7317C97.4111 21.3606 96.8398 20.8918 96.3906 20.3254V27.8987H93.7539ZM96.1416 14.2463C96.1416 16.2483 96.5469 17.7278 97.3574 18.6848C98.168 19.6418 99.1494 20.1204 100.302 20.1204C101.474 20.1204 102.475 19.6272 103.305 18.6409C104.145 17.6448 104.564 16.1067 104.564 14.0266C104.564 12.0442 104.154 10.5598 103.334 9.57349C102.523 8.58716 101.552 8.09399 100.419 8.09399C99.2959 8.09399 98.2998 8.62134 97.4307 9.67603C96.5713 10.7209 96.1416 12.2444 96.1416 14.2463ZM138.373 21.9368H133.656L131.781 17.0588H123.197L121.425 21.9368H116.825L125.189 0.462158H129.774L138.373 21.9368ZM130.39 13.4407L127.431 5.47192L124.53 13.4407H130.39ZM139.208 17.4983L143.339 16.8684C143.515 17.6692 143.871 18.2795 144.408 18.6995C144.945 19.1096 145.697 19.3147 146.664 19.3147C147.729 19.3147 148.529 19.1194 149.066 18.7288C149.428 18.4553 149.608 18.0891 149.608 17.6301C149.608 17.3176 149.511 17.0588 149.315 16.8538C149.11 16.6584 148.651 16.4778 147.938 16.3118C144.618 15.5793 142.514 14.9104 141.625 14.3049C140.395 13.4651 139.779 12.2981 139.779 10.804C139.779 9.4563 140.312 8.32349 141.376 7.40552C142.44 6.48755 144.091 6.02856 146.327 6.02856C148.456 6.02856 150.038 6.37524 151.073 7.0686C152.108 7.76196 152.821 8.78735 153.212 10.1448L149.33 10.8625C149.164 10.2571 148.847 9.79321 148.378 9.47095C147.919 9.14868 147.26 8.98755 146.4 8.98755C145.316 8.98755 144.54 9.13892 144.071 9.44165C143.759 9.65649 143.603 9.93481 143.603 10.2766C143.603 10.5696 143.739 10.8186 144.013 11.0237C144.384 11.2971 145.663 11.6829 147.851 12.1809C150.048 12.679 151.581 13.2893 152.45 14.012C153.31 14.7444 153.739 15.7649 153.739 17.0735C153.739 18.4993 153.144 19.7249 151.952 20.7502C150.761 21.7756 148.998 22.2883 146.664 22.2883C144.545 22.2883 142.865 21.8586 141.625 20.9993C140.395 20.1399 139.589 18.9729 139.208 17.4983ZM155.907 17.4983L160.038 16.8684C160.214 17.6692 160.57 18.2795 161.107 18.6995C161.645 19.1096 162.396 19.3147 163.363 19.3147C164.428 19.3147 165.229 19.1194 165.766 18.7288C166.127 18.4553 166.308 18.0891 166.308 17.6301C166.308 17.3176 166.21 17.0588 166.015 16.8538C165.81 16.6584 165.351 16.4778 164.638 16.3118C161.317 15.5793 159.213 14.9104 158.324 14.3049C157.094 13.4651 156.479 12.2981 156.479 10.804C156.479 9.4563 157.011 8.32349 158.075 7.40552C159.14 6.48755 160.79 6.02856 163.026 6.02856C165.155 6.02856 166.737 6.37524 167.772 7.0686C168.808 7.76196 169.521 8.78735 169.911 10.1448L166.029 10.8625C165.863 10.2571 165.546 9.79321 165.077 9.47095C164.618 9.14868 163.959 8.98755 163.1 8.98755C162.016 8.98755 161.239 9.13892 160.771 9.44165C160.458 9.65649 160.302 9.93481 160.302 10.2766C160.302 10.5696 160.438 10.8186 160.712 11.0237C161.083 11.2971 162.362 11.6829 164.55 12.1809C166.747 12.679 168.28 13.2893 169.149 14.012C170.009 14.7444 170.438 15.7649 170.438 17.0735C170.438 18.4993 169.843 19.7249 168.651 20.7502C167.46 21.7756 165.697 22.2883 163.363 22.2883C161.244 22.2883 159.564 21.8586 158.324 20.9993C157.094 20.1399 156.288 18.9729 155.907 17.4983ZM174.057 4.27075V0.462158H178.173V4.27075H174.057ZM174.057 21.9368V6.38013H178.173V21.9368H174.057ZM180.956 17.4983L185.087 16.8684C185.263 17.6692 185.619 18.2795 186.156 18.6995C186.693 19.1096 187.445 19.3147 188.412 19.3147C189.477 19.3147 190.277 19.1194 190.814 18.7288C191.176 18.4553 191.356 18.0891 191.356 17.6301C191.356 17.3176 191.259 17.0588 191.063 16.8538C190.858 16.6584 190.399 16.4778 189.687 16.3118C186.366 15.5793 184.262 14.9104 183.373 14.3049C182.143 13.4651 181.527 12.2981 181.527 10.804C181.527 9.4563 182.06 8.32349 183.124 7.40552C184.188 6.48755 185.839 6.02856 188.075 6.02856C190.204 6.02856 191.786 6.37524 192.821 7.0686C193.856 7.76196 194.569 8.78735 194.96 10.1448L191.078 10.8625C190.912 10.2571 190.595 9.79321 190.126 9.47095C189.667 9.14868 189.008 8.98755 188.148 8.98755C187.064 8.98755 186.288 9.13892 185.819 9.44165C185.507 9.65649 185.351 9.93481 185.351 10.2766C185.351 10.5696 185.487 10.8186 185.761 11.0237C186.132 11.2971 187.411 11.6829 189.599 12.1809C191.796 12.679 193.329 13.2893 194.198 14.012C195.058 14.7444 195.487 15.7649 195.487 17.0735C195.487 18.4993 194.892 19.7249 193.7 20.7502C192.509 21.7756 190.746 22.2883 188.412 22.2883C186.293 22.2883 184.613 21.8586 183.373 20.9993C182.143 20.1399 181.337 18.9729 180.956 17.4983ZM206.239 6.38013V9.66138H203.427V15.9309C203.427 17.2004 203.451 17.9426 203.5 18.1575C203.559 18.3625 203.681 18.5334 203.866 18.6702C204.062 18.8069 204.296 18.8752 204.569 18.8752C204.95 18.8752 205.502 18.7434 206.225 18.4797L206.576 21.6731C205.619 22.0833 204.535 22.2883 203.324 22.2883C202.582 22.2883 201.913 22.1663 201.317 21.9221C200.722 21.6682 200.282 21.3459 199.999 20.9553C199.726 20.5549 199.535 20.0178 199.428 19.344C199.34 18.8655 199.296 17.8987 199.296 16.4436V9.66138H197.406V6.38013H199.296V3.28931L203.427 0.886963V6.38013H206.239ZM212.172 11.1262L208.437 10.4524C208.856 8.94849 209.579 7.83521 210.604 7.11255C211.63 6.38989 213.153 6.02856 215.175 6.02856C217.011 6.02856 218.378 6.24829 219.276 6.68774C220.175 7.11743 220.805 7.66919 221.166 8.34302C221.537 9.00708 221.723 10.2327 221.723 12.0198L221.679 16.8245C221.679 18.1917 221.742 19.2024 221.869 19.8567C222.006 20.5012 222.255 21.1946 222.616 21.9368H218.544C218.437 21.6633 218.305 21.2581 218.148 20.7209C218.08 20.4768 218.031 20.3157 218.002 20.2375C217.299 20.9211 216.547 21.4338 215.746 21.7756C214.945 22.1174 214.091 22.2883 213.183 22.2883C211.581 22.2883 210.316 21.8538 209.389 20.9846C208.471 20.1155 208.012 19.0168 208.012 17.6887C208.012 16.8098 208.222 16.0286 208.642 15.345C209.062 14.6516 209.647 14.1243 210.399 13.7629C211.161 13.3918 212.255 13.0696 213.681 12.7961C215.604 12.4348 216.938 12.0979 217.68 11.7854V11.3752C217.68 10.5842 217.484 10.0227 217.094 9.69067C216.703 9.34888 215.966 9.17798 214.882 9.17798C214.149 9.17798 213.578 9.32446 213.168 9.61743C212.758 9.90063 212.426 10.4036 212.172 11.1262ZM217.68 14.4661C217.152 14.6418 216.317 14.8518 215.175 15.0959C214.032 15.3401 213.285 15.5793 212.934 15.8137C212.396 16.1946 212.128 16.678 212.128 17.2639C212.128 17.8401 212.343 18.3381 212.772 18.7581C213.202 19.178 213.749 19.3879 214.413 19.3879C215.155 19.3879 215.863 19.1438 216.537 18.6555C217.035 18.2844 217.362 17.8303 217.519 17.2932C217.626 16.9417 217.68 16.2727 217.68 15.2864V14.4661ZM239.945 21.9368H235.829V13.9973C235.829 12.3176 235.741 11.2336 235.565 10.7454C235.39 10.2473 235.102 9.86157 234.701 9.58813C234.311 9.3147 233.837 9.17798 233.28 9.17798C232.567 9.17798 231.928 9.37329 231.361 9.76392C230.795 10.1545 230.404 10.6721 230.189 11.3167C229.984 11.9612 229.882 13.1526 229.882 14.8909V21.9368H225.766V6.38013H229.589V8.66528C230.946 6.90747 232.655 6.02856 234.716 6.02856C235.624 6.02856 236.454 6.19458 237.206 6.52661C237.958 6.84888 238.524 7.26392 238.905 7.77173C239.296 8.27954 239.564 8.85571 239.711 9.50024C239.867 10.1448 239.945 11.0676 239.945 12.2688V21.9368ZM251.269 6.38013V9.66138H248.456V15.9309C248.456 17.2004 248.48 17.9426 248.529 18.1575C248.588 18.3625 248.71 18.5334 248.896 18.6702C249.091 18.8069 249.325 18.8752 249.599 18.8752C249.979 18.8752 250.531 18.7434 251.254 18.4797L251.605 21.6731C250.648 22.0833 249.564 22.2883 248.354 22.2883C247.611 22.2883 246.942 22.1663 246.347 21.9221C245.751 21.6682 245.312 21.3459 245.028 20.9553C244.755 20.5549 244.564 20.0178 244.457 19.344C244.369 18.8655 244.325 17.8987 244.325 16.4436V9.66138H242.436V6.38013H244.325V3.28931L248.456 0.886963V6.38013H251.269Z" fill="#FFD231"/>
</svg>
