<svg width="952" height="951" viewBox="0 0 952 951" fill="none" xmlns="http://www.w3.org/2000/svg">
<circle cx="475.987" cy="475.645" r="459.598" fill="white" stroke="#DF1F26" stroke-width="31"/>
<path d="M475.986 219.648C334.601 219.648 219.986 334.264 219.986 475.648C219.986 617.033 334.601 731.648 475.986 731.648C617.371 731.648 731.986 617.033 731.986 475.648C731.826 334.33 617.305 219.808 475.986 219.648ZM475.986 714.582C344.027 714.582 237.053 607.608 237.053 475.648C237.053 343.689 344.027 236.715 475.986 236.715C607.946 236.715 714.92 343.689 714.92 475.648C714.772 607.546 607.884 714.434 475.986 714.582Z" fill="#DF1F26" stroke="#DF1F26" stroke-width="8.53333"/>
<path d="M475.986 450.047H407.719C388.877 450.068 373.607 465.338 373.586 484.18V535.38C373.595 544.802 381.231 552.437 390.653 552.447H493.053C502.474 552.437 510.11 544.802 510.119 535.38V484.18C510.098 465.338 494.828 450.068 475.986 450.047ZM390.653 484.18C390.662 474.758 398.298 467.123 407.719 467.114H475.986C485.225 467.131 492.771 474.499 493.008 483.735C477.386 483.393 446.958 484.922 430.852 500.375C423.574 507.303 419.758 517.112 420.442 527.137C420.565 529.913 420.941 532.672 421.565 535.38H390.653V484.18ZM493.053 535.38H439.194C438.218 532.486 437.644 529.471 437.488 526.42C436.987 521.291 438.897 516.219 442.658 512.695C453.465 502.314 478.219 500.564 493.053 500.82V535.38Z" fill="#DF1F26" stroke="#DF1F26" stroke-width="8.53333"/>
<path d="M390.239 394.41L394.228 397.261C398.064 399.999 403.394 399.109 406.132 395.273C408.871 391.437 407.981 386.107 404.145 383.368L344.412 340.702C341.93 338.93 338.692 338.617 335.917 339.88C333.142 341.144 331.251 343.792 330.958 346.827C330.665 349.861 332.013 352.822 334.494 354.594L341.674 359.722C326.946 366.803 319.326 383.349 323.519 399.144C327.712 414.938 342.536 425.526 358.836 424.37C375.137 423.214 388.318 410.639 390.239 394.41ZM356.52 407.381C347.094 407.381 339.453 399.74 339.453 390.314C339.453 380.889 347.094 373.248 356.52 373.248C358.408 373.233 360.282 373.58 362.04 374.272L369.923 379.904C372.286 382.86 373.577 386.53 373.586 390.314C373.577 399.736 365.941 407.372 356.52 407.381Z" fill="#DF1F26" stroke="#DF1F26" stroke-width="8.53333"/>
<path d="M542.034 359.722L549.214 354.594C551.695 352.822 553.043 349.861 552.75 346.827C552.456 343.792 550.566 341.144 547.791 339.88C545.016 338.617 541.778 338.93 539.296 340.702L479.563 383.368C475.727 386.107 474.837 391.437 477.575 395.273C480.314 399.109 485.644 399.999 489.48 397.261L493.469 394.41C495.39 410.639 508.57 423.214 524.871 424.37C541.172 425.526 555.996 414.938 560.189 399.144C564.382 383.349 556.762 366.803 542.034 359.722ZM527.186 407.381C517.764 407.372 510.128 399.736 510.119 390.314C510.127 386.528 511.418 382.857 513.782 379.9L521.665 374.268C523.423 373.578 525.297 373.231 527.186 373.248C536.611 373.248 544.252 380.889 544.252 390.314C544.252 399.74 536.611 407.381 527.186 407.381Z" fill="#DF1F26" stroke="#DF1F26" stroke-width="8.53333"/>
</svg>
