<svg width="951" height="951" viewBox="0 0 951 951" fill="none" xmlns="http://www.w3.org/2000/svg">
<circle cx="475.489" cy="475.645" r="459.598" fill="white" stroke="#DF1F26" stroke-width="31"/>
<path d="M423.023 641.34L405.539 699.645H387.488V715.645H563.488V699.645H545.449L539.977 681.348L524.648 685.941L528.746 699.645H422.242L438.352 645.949L423.023 641.34Z" fill="#DF1F26"/>
<path d="M675.489 571.643H665.153C676.946 510.968 643.88 450.496 586.435 427.679C528.99 404.867 463.443 426.171 430.392 478.402C397.342 530.632 406.154 598.991 451.365 641.135C496.58 683.28 565.388 687.272 615.169 650.635L672.868 708.33C680.009 715.471 690.747 717.608 700.079 713.744C709.407 709.877 715.489 700.776 715.489 690.674C715.509 684.049 712.876 677.69 708.177 673.018L649.145 613.987L648.122 615.01C653.489 606.432 657.813 597.245 661.001 587.643H699.489V603.643C699.489 612.479 692.325 619.643 683.489 619.643V635.643C701.165 635.643 715.489 621.315 715.489 603.643V331.644C715.489 313.973 701.165 299.645 683.489 299.645V315.644C692.325 315.644 699.489 322.809 699.489 331.644V571.643H675.489ZM696.868 684.331C699.434 686.897 700.2 690.756 698.813 694.108C697.423 697.459 694.149 699.647 690.52 699.643C688.145 699.635 685.868 698.69 684.177 697.018L627.489 640.339C631.845 636.221 635.903 631.799 639.642 627.116L696.868 684.331ZM539.49 659.643C477.634 659.643 427.49 609.499 427.49 547.644C427.49 485.788 477.634 435.644 539.49 435.644C601.345 435.644 651.489 485.788 651.489 547.644C651.423 609.471 601.318 659.577 539.49 659.643Z" fill="#DF1F26"/>
<path d="M267.488 635.643H403.488V619.643H267.488C258.652 619.643 251.488 612.479 251.488 603.643V587.643H395.488V571.643H251.488V331.644C251.488 322.809 258.652 315.644 267.488 315.644V299.645C249.816 299.645 235.488 313.973 235.488 331.644V603.643C235.488 621.315 249.816 635.643 267.488 635.643Z" fill="#DF1F26"/>
<path d="M299.488 267.644C299.488 258.809 306.652 251.644 315.488 251.644H571.487V283.644H507.487C505.366 283.644 503.331 284.488 501.831 285.988L341.832 445.987C338.711 449.112 338.711 454.175 341.832 457.3L389.832 505.3L401.144 493.987L358.8 451.644L510.8 299.644H572.288C574.929 312.379 583.573 323.039 595.487 328.254V384.331L573.831 405.988L585.143 417.3L609.143 393.3C610.643 391.8 611.487 389.765 611.487 387.644V331.644H651.487V459.644H667.487V323.644C667.487 323.476 667.401 323.324 667.393 323.156C667.346 322.449 667.205 321.75 666.975 321.078C666.889 320.82 666.823 320.582 666.713 320.332C666.323 319.461 665.78 318.668 665.112 317.988L585.112 237.988C584.436 237.32 583.647 236.781 582.784 236.387C582.522 236.281 582.257 236.187 581.983 236.109C581.343 235.891 580.675 235.758 579.999 235.707C579.839 235.742 579.671 235.645 579.487 235.645H315.488C297.816 235.645 283.488 249.973 283.488 267.644V555.643H299.488V267.644ZM640.174 315.644H611.487C598.233 315.644 587.487 304.898 587.487 291.644V262.957L640.174 315.644Z" fill="#DF1F26"/>
<path d="M315.488 267.645H331.488V283.645H315.488V267.645Z" fill="#DF1F26"/>
<path d="M347.488 267.645H363.488V283.645H347.488V267.645Z" fill="#DF1F26"/>
<path d="M379.488 267.645H395.488V283.645H379.488V267.645Z" fill="#DF1F26"/>
<path d="M579.488 331.645C579.488 340.48 572.324 347.645 563.488 347.645C554.652 347.645 547.488 340.48 547.488 331.645C547.488 322.809 554.652 315.645 563.488 315.645C572.324 315.645 579.488 322.809 579.488 331.645Z" fill="#DF1F26"/>
<path d="M389.832 449.301L401.145 437.988L425.148 461.988L413.832 473.301L389.832 449.301Z" fill="#DF1F26"/>
<path d="M413.832 425.305L425.145 413.988L449.148 437.992L437.832 449.305L413.832 425.305Z" fill="#DF1F26"/>
<path d="M524.686 370.446L531.647 405.212L547.327 402.079L539.327 362.079C538.694 358.915 536.222 356.438 533.058 355.805L493.058 347.805C490.44 347.278 487.737 348.098 485.854 349.989L461.854 373.989C459.976 375.876 459.155 378.575 459.671 381.188L467.671 421.188L483.351 418.051L476.202 382.255L494.144 364.301L524.686 370.446Z" fill="#DF1F26"/>
<path d="M315.488 315.645H395.488V331.645H315.488V315.645Z" fill="#DF1F26"/>
<path d="M315.488 347.645H395.488V363.645H315.488V347.645Z" fill="#DF1F26"/>
<path d="M315.488 379.645H363.488V395.645H315.488V379.645Z" fill="#DF1F26"/>
<path d="M315.488 507.645H371.488V523.645H315.488V507.645Z" fill="#DF1F26"/>
<path d="M315.488 539.645H395.488V555.645H315.488V539.645Z" fill="#DF1F26"/>
<path d="M635.488 547.645C635.488 494.625 592.508 451.645 539.488 451.645C486.469 451.645 443.488 494.625 443.488 547.645C443.488 600.664 486.469 643.645 539.488 643.645C592.508 643.645 635.488 600.664 635.488 547.645ZM507.488 547.645C507.488 529.973 521.816 515.645 539.488 515.645C557.164 515.645 571.488 529.973 571.488 547.645C571.488 565.316 557.164 579.645 539.488 579.645C521.816 579.645 507.488 565.316 507.488 547.645ZM498.184 571.973C484.441 566.715 472.074 558.395 462.023 547.645C472.074 536.895 484.441 528.574 498.184 523.316C489.258 538.305 489.258 556.984 498.184 571.973ZM580.793 523.316C594.535 528.574 606.902 536.895 616.953 547.645C606.902 558.395 594.535 566.715 580.793 571.973C589.723 556.984 589.723 538.305 580.793 523.316V523.316ZM539.488 467.645C575.066 467.688 606.352 491.203 616.289 525.363C595.68 509.426 570.512 500.504 544.465 499.902C541.172 499.559 537.855 499.559 534.562 499.902C508.5 500.492 483.312 509.418 462.688 525.363C472.625 491.203 503.91 467.688 539.488 467.645V467.645ZM539.488 627.645C503.91 627.602 472.625 604.086 462.688 569.926C483.297 585.863 508.469 594.785 534.512 595.387C537.805 595.73 541.125 595.73 544.418 595.387C570.48 594.797 595.668 585.871 616.289 569.926C606.352 604.086 575.066 627.602 539.488 627.645Z" fill="#DF1F26"/>
<path d="M555.488 547.645C555.488 556.48 548.324 563.645 539.488 563.645C530.652 563.645 523.488 556.48 523.488 547.645C523.488 538.809 530.652 531.645 539.488 531.645C548.324 531.645 555.488 538.809 555.488 547.645Z" fill="#DF1F26"/>
</svg>
