<svg width="952" height="951" viewBox="0 0 952 951" fill="none" xmlns="http://www.w3.org/2000/svg">
<circle cx="475.985" cy="475.153" r="459.598" fill="white" stroke="#DF1F26" stroke-width="31"/>
<path d="M545.323 657.252H496.859V613.262L568.643 568.4L496.859 523.538V471.471H545.323V406.852H496.859V350.31H561.478V237.227H416.085V350.31H480.704V406.852H432.24V431.084H359.543V447.239H432.24V471.471H480.704V523.538L408.92 568.4L480.704 613.262V657.252H432.24C418.88 657.252 408.007 668.124 408.007 681.484V713.794C408.007 727.154 418.88 738.026 432.24 738.026H545.323C558.683 738.026 569.556 727.154 569.556 713.794V681.484C569.556 668.124 558.683 657.252 545.323 657.252ZM432.24 253.381H545.323V334.155H432.24V253.381ZM448.394 423.007H529.168V455.317H448.394V423.007ZM488.781 537.536L538.159 568.4L488.781 599.264L439.404 568.4L488.781 537.536ZM553.401 713.794C553.401 718.244 549.774 721.871 545.323 721.871H432.24C427.789 721.871 424.162 718.244 424.162 713.794V681.484C424.162 677.033 427.789 673.406 432.24 673.406H545.323C549.774 673.406 553.401 677.033 553.401 681.484V713.794Z" fill="#DF1F26" stroke="#DF1F26" stroke-width="8"/>
<path d="M345.755 671.04L364.276 689.562H293.437C290.998 682.72 285.61 677.332 278.769 674.893V503.781H262.614V674.893C253.236 678.237 246.459 687.122 246.459 697.639C246.459 710.999 257.331 721.871 270.691 721.871C281.208 721.871 290.093 715.094 293.437 705.716H364.276L345.755 724.238L357.176 735.659L395.196 697.639L357.176 659.619L345.755 671.04ZM270.691 705.716C266.241 705.716 262.614 702.09 262.614 697.639C262.614 693.188 266.241 689.562 270.691 689.562C275.142 689.562 278.769 693.188 278.769 697.639C278.769 702.09 275.142 705.716 270.691 705.716Z" fill="#DF1F26" stroke="#DF1F26" stroke-width="8"/>
<path d="M690.715 545.653V316.513C700.093 313.169 706.87 304.284 706.87 293.767C706.87 280.407 695.997 269.535 682.637 269.535C672.121 269.535 663.235 276.312 659.891 285.69H577.631V301.845H659.891C662.331 308.686 667.718 314.074 674.56 316.513V545.661C667.718 548.101 662.331 553.488 659.891 560.33H605.207L623.729 541.808L612.307 530.387L574.287 568.399L612.307 606.42L623.729 594.998L605.207 576.477H659.891C663.235 585.854 672.121 592.631 682.637 592.631C695.997 592.631 706.87 581.759 706.87 568.399C706.87 557.882 700.093 548.997 690.715 545.653ZM682.637 285.69C687.088 285.69 690.715 289.317 690.715 293.767C690.715 298.218 687.088 301.845 682.637 301.845C678.187 301.845 674.56 298.218 674.56 293.767C674.56 289.317 678.187 285.69 682.637 285.69ZM682.637 576.477C678.187 576.477 674.56 572.85 674.56 568.399C674.56 563.949 678.187 560.322 682.637 560.322C687.088 560.322 690.715 563.949 690.715 568.399C690.715 572.85 687.088 576.477 682.637 576.477Z" fill="#DF1F26" stroke="#DF1F26" stroke-width="8"/>
<path d="M341.134 439.162L270.691 388.848L200.248 439.162L270.691 489.476L341.134 439.162ZM270.691 408.702L313.332 439.162L270.691 469.622L228.05 439.162L270.691 408.702Z" fill="#DF1F26" stroke="#DF1F26" stroke-width="8"/>
<path d="M448.395 269.535H529.169V285.69H448.395V269.535Z" fill="#DF1F26" stroke="#DF1F26" stroke-width="8"/>
<path d="M448.395 301.848H496.859V318.002H448.395V301.848Z" fill="#DF1F26" stroke="#DF1F26" stroke-width="8"/>
<path d="M513.014 301.848H529.168V318.002H513.014V301.848Z" fill="#DF1F26" stroke="#DF1F26" stroke-width="8"/>
<path d="M650.328 689.562H666.483V705.717H650.328V689.562Z" fill="#DF1F26" stroke="#DF1F26" stroke-width="8"/>
<path d="M618.02 689.562H634.174V705.717H618.02V689.562Z" fill="#DF1F26" stroke="#DF1F26" stroke-width="8"/>
<path d="M585.709 689.562H601.864V705.717H585.709V689.562Z" fill="#DF1F26" stroke="#DF1F26" stroke-width="8"/>
<path d="M351.465 301.848H367.62V318.002H351.465V301.848Z" fill="#DF1F26" stroke="#DF1F26" stroke-width="8"/>
<path d="M383.773 301.848H399.928V318.002H383.773V301.848Z" fill="#DF1F26" stroke="#DF1F26" stroke-width="8"/>
<path d="M319.154 301.848H335.309V318.002H319.154V301.848Z" fill="#DF1F26" stroke="#DF1F26" stroke-width="8"/>
</svg>
