<svg width="951" height="951" viewBox="0 0 951 951" fill="none" xmlns="http://www.w3.org/2000/svg">
<circle cx="475.278" cy="475.645" r="459.598" fill="white" stroke="#DF1F26" stroke-width="31"/>
<path d="M512.611 604.38H496.611V594.38C515.379 585.783 528.611 566.231 528.611 543.863V513.714C528.611 499.01 516.648 487.047 501.944 487.047H411.277C408.328 487.047 405.944 489.436 405.944 492.38V503.047C405.944 512.967 412.749 521.33 421.944 523.708V528.69L411.656 554.402C411 556.044 411.203 557.906 412.195 559.372C413.187 560.834 414.84 561.714 416.611 561.714H424.429C429.117 576.631 440.104 588.444 453.944 594.53V604.38H437.944C405.597 604.38 379.277 630.7 379.277 663.047V711.047C379.277 713.991 381.661 716.38 384.611 716.38H565.944C568.893 716.38 571.277 713.991 571.277 711.047V663.047C571.277 630.7 544.957 604.38 512.611 604.38ZM416.611 503.047V497.714H501.944C510.765 497.714 517.944 504.892 517.944 513.714V540.38C509.123 540.38 501.944 533.202 501.944 524.38V519.047C501.944 516.103 499.56 513.714 496.611 513.714H427.277C421.395 513.714 416.611 508.93 416.611 503.047ZM433.709 555.196C433.16 552.77 430.995 551.047 428.504 551.047H424.483L432.227 531.698C432.483 531.063 432.611 530.391 432.611 529.714V524.38H491.277C491.277 538.876 502.92 550.652 517.336 550.988C514.077 571.655 496.973 587.852 476.376 588.37C456.371 588.924 438.195 574.93 433.709 555.196ZM464.611 597.916C468.088 598.631 471.656 599.047 475.304 599.047C475.752 599.047 476.2 599.042 476.648 599.031C479.827 598.951 482.925 598.53 485.944 597.884V609.714C485.944 612.658 488.328 615.047 491.277 615.047H493.661L475.277 655.49L456.893 615.047H469.944C472.893 615.047 475.277 612.658 475.277 609.714C475.277 606.77 472.893 604.38 469.944 604.38H464.611V597.916ZM560.611 705.714H389.944V663.047C389.944 636.583 411.475 615.047 437.944 615.047H445.176L470.419 670.588C471.288 672.492 473.181 673.714 475.277 673.714C477.373 673.714 479.267 672.492 480.131 670.588L505.379 615.047H512.611C539.08 615.047 560.611 636.583 560.611 663.047V705.714Z" fill="#DF1F26" stroke="#DF1F26" stroke-width="9.33"/>
<path d="M475.277 379.944C476.722 379.944 478.114 379.352 479.122 378.306L526.264 329.304C537.97 317.133 537.97 297.325 526.264 285.154C520.525 279.192 512.882 275.906 504.744 275.906C504.738 275.906 504.738 275.906 504.738 275.906C496.6 275.906 488.957 279.192 483.224 285.154L475.277 293.416L467.336 285.16C461.602 279.197 453.96 275.917 445.821 275.912C445.821 275.912 445.821 275.912 445.816 275.912C437.677 275.912 430.034 279.197 424.296 285.16C412.589 297.33 412.589 317.138 424.296 329.309L471.437 378.312C472.44 379.357 473.832 379.944 475.277 379.944ZM431.981 292.557C435.688 288.701 440.6 286.578 445.816 286.578H445.821C451.037 286.578 455.944 288.701 459.65 292.557L471.437 304.808C473.448 306.898 477.112 306.898 479.122 304.808L490.909 292.557C498.322 284.85 511.165 284.85 518.578 292.557C526.365 300.653 526.365 313.821 518.578 321.912L475.277 366.92L431.981 321.917C424.194 313.821 424.194 300.653 431.981 292.557Z" fill="#DF1F26" stroke="#DF1F26" stroke-width="3.33"/>
<path d="M549.944 295.047C552.893 295.047 555.277 292.658 555.277 289.714V268.38C555.277 265.436 552.893 263.047 549.944 263.047H528.611C525.661 263.047 523.277 265.436 523.277 268.38C523.277 271.324 525.661 273.714 528.611 273.714H544.611V289.714C544.611 292.658 546.995 295.047 549.944 295.047Z" fill="#DF1F26" stroke="#DF1F26" stroke-width="3.33"/>
<path d="M400.611 359.047C397.661 359.047 395.277 361.436 395.277 364.38V385.714C395.277 388.658 397.661 391.047 400.611 391.047H421.944C424.893 391.047 427.277 388.658 427.277 385.714C427.277 382.77 424.893 380.38 421.944 380.38H405.944V364.38C405.944 361.436 403.56 359.047 400.611 359.047Z" fill="#DF1F26" stroke="#DF1F26" stroke-width="3.33"/>
<path d="M693.943 332.378H576.61C561.906 332.378 549.943 344.34 549.943 359.044V417.711H517.943C516.53 417.711 515.17 418.271 514.173 419.274L475.277 458.17L436.381 419.274C435.378 418.271 434.023 417.711 432.61 417.711H368.61C366.471 417.711 364.439 417.274 362.578 416.511C362.509 416.484 362.434 416.463 362.359 416.436C356.631 414.004 352.61 408.33 352.61 401.711V252.378C352.61 243.54 359.773 236.378 368.61 236.378H581.943C590.781 236.378 597.943 243.54 597.943 252.378V316.378C597.943 319.322 600.327 321.711 603.277 321.711C606.226 321.711 608.61 319.322 608.61 316.378V252.378C608.61 237.652 596.669 225.711 581.943 225.711H368.61C353.885 225.711 341.943 237.652 341.943 252.378V401.711C341.943 406.276 343.197 410.511 345.223 414.271C340.13 416.948 336.61 422.234 336.61 428.378C336.61 437.199 343.789 444.378 352.61 444.378C361.431 444.378 368.61 437.199 368.61 428.378H379.277V471.044H363.277C360.327 471.044 357.943 473.434 357.943 476.378V506.17L324.381 472.607C323.383 471.604 322.029 471.044 320.61 471.044H240.61V385.711H325.943C328.893 385.711 331.277 383.322 331.277 380.378C331.277 377.434 328.893 375.044 325.943 375.044H235.277C232.327 375.044 229.943 377.434 229.943 380.378V476.378C229.943 479.322 232.327 481.711 235.277 481.711H318.402L359.506 522.815C360.525 523.834 361.89 524.378 363.277 524.378C363.965 524.378 364.658 524.244 365.319 523.972C367.314 523.146 368.61 521.199 368.61 519.044V481.711H384.61C387.559 481.711 389.943 479.322 389.943 476.378V428.378H430.402L471.506 469.482C472.546 470.522 473.911 471.044 475.277 471.044C476.642 471.044 478.007 470.522 479.047 469.482L520.151 428.378H549.943V455.044C549.943 469.748 561.906 481.711 576.61 481.711H581.943V513.711C581.943 515.866 583.239 517.812 585.234 518.639C585.895 518.911 586.589 519.044 587.277 519.044C588.663 519.044 590.029 518.5 591.047 517.482L626.818 481.711H693.943C708.647 481.711 720.61 469.748 720.61 455.044V359.044C720.61 344.34 708.647 332.378 693.943 332.378ZM357.943 428.378C357.943 431.316 355.554 433.711 352.61 433.711C349.666 433.711 347.277 431.316 347.277 428.378C347.277 425.439 349.666 423.044 352.61 423.044C352.679 423.044 352.706 423.055 352.77 423.055C354.125 424.063 355.57 424.932 357.106 425.668C357.543 426.351 357.943 427.199 357.943 428.378ZM709.943 455.044C709.943 463.866 702.765 471.044 693.943 471.044H624.61C623.191 471.044 621.837 471.604 620.839 472.607L592.61 500.836V476.378C592.61 473.434 590.226 471.044 587.277 471.044H576.61C567.789 471.044 560.61 463.866 560.61 455.044V359.044C560.61 350.223 567.789 343.044 576.61 343.044H693.943C702.765 343.044 709.943 350.223 709.943 359.044V455.044Z" fill="#DF1F26" stroke="#DF1F26" stroke-width="11.33"/>
<path d="M640.051 377.997C638.238 374.381 632.323 374.381 630.51 377.997L603.843 431.331C603.017 432.984 603.102 434.946 604.078 436.52C605.049 438.088 606.761 439.048 608.611 439.048H661.945C663.795 439.048 665.507 438.088 666.483 436.52C667.459 434.946 667.545 432.984 666.718 431.331L640.051 377.997ZM617.241 428.381L635.278 392.306L653.315 428.381H617.241Z" fill="#DF1F26" stroke="#DF1F26" stroke-width="3.33"/>
<path d="M251.277 428.383C251.277 437.204 258.456 444.383 267.277 444.383C276.099 444.383 283.277 437.204 283.277 428.383C283.277 419.561 276.099 412.383 267.277 412.383C258.456 412.383 251.277 419.561 251.277 428.383ZM272.611 428.383C272.611 431.321 270.221 433.716 267.277 433.716C264.333 433.716 261.944 431.321 261.944 428.383C261.944 425.444 264.333 423.049 267.277 423.049C270.221 423.049 272.611 425.444 272.611 428.383Z" fill="#DF1F26" stroke="#DF1F26" stroke-width="3.33"/>
<path d="M293.943 428.383C293.943 437.204 301.122 444.383 309.943 444.383C318.765 444.383 325.943 437.204 325.943 428.383C325.943 419.561 318.765 412.383 309.943 412.383C301.122 412.383 293.943 419.561 293.943 428.383ZM315.277 428.383C315.277 431.321 312.887 433.716 309.943 433.716C306.999 433.716 304.61 431.321 304.61 428.383C304.61 425.444 306.999 423.049 309.943 423.049C312.887 423.049 315.277 425.444 315.277 428.383Z" fill="#DF1F26" stroke="#DF1F26" stroke-width="3.33"/>
<path d="M394.871 565.002C394.05 563.012 392.098 561.711 389.943 561.711H357.943V551.044C357.943 548.1 355.559 545.711 352.61 545.711H235.277C232.327 545.711 229.943 548.1 229.943 551.044V689.711C229.943 692.655 232.327 695.044 235.277 695.044H352.61C355.559 695.044 357.943 692.655 357.943 689.711V606.586L393.714 570.815C395.239 569.29 395.698 566.996 394.871 565.002ZM348.839 600.607C347.837 601.604 347.277 602.964 347.277 604.378V684.378H240.61V556.378H347.277V567.044C347.277 569.988 349.661 572.378 352.61 572.378H377.069L348.839 600.607Z" fill="#DF1F26" stroke="#DF1F26" stroke-width="9.33"/>
<path d="M715.277 540.383H587.277C584.328 540.383 581.944 542.772 581.944 545.716V556.383H549.944C547.789 556.383 545.837 557.684 545.016 559.673C544.189 561.668 544.648 563.961 546.173 565.487L581.944 601.257V641.716C581.944 644.66 584.328 647.049 587.277 647.049H715.277C718.226 647.049 720.61 644.66 720.61 641.716V545.716C720.61 542.772 718.226 540.383 715.277 540.383ZM709.944 636.383H592.61V599.049C592.61 597.636 592.05 596.276 591.048 595.279L562.818 567.049H587.277C590.226 567.049 592.61 564.66 592.61 561.716V551.049H709.944V636.383Z" fill="#DF1F26" stroke="#DF1F26" stroke-width="9.33"/>
<path d="M613.945 577.714H688.611C691.561 577.714 693.945 575.324 693.945 572.38C693.945 569.436 691.561 567.047 688.611 567.047H613.945C610.995 567.047 608.611 569.436 608.611 572.38C608.611 575.324 610.995 577.714 613.945 577.714Z" fill="#DF1F26" stroke="#DF1F26" stroke-width="3.33"/>
<path d="M613.945 599.049H688.611C691.561 599.049 693.945 596.66 693.945 593.716C693.945 590.772 691.561 588.383 688.611 588.383H613.945C610.995 588.383 608.611 590.772 608.611 593.716C608.611 596.66 610.995 599.049 613.945 599.049Z" fill="#DF1F26" stroke="#DF1F26" stroke-width="3.33"/>
<path d="M325.945 572.383H261.945C258.995 572.383 256.611 574.772 256.611 577.716C256.611 580.66 258.995 583.049 261.945 583.049H325.945C328.894 583.049 331.278 580.66 331.278 577.716C331.278 574.772 328.894 572.383 325.945 572.383Z" fill="#DF1F26" stroke="#DF1F26" stroke-width="3.33"/>
<path d="M325.945 593.711H261.945C258.995 593.711 256.611 596.1 256.611 599.044C256.611 601.988 258.995 604.378 261.945 604.378H325.945C328.894 604.378 331.278 601.988 331.278 599.044C331.278 596.1 328.894 593.711 325.945 593.711Z" fill="#DF1F26" stroke="#DF1F26" stroke-width="3.33"/>
<path d="M325.945 615.047H261.945C258.995 615.047 256.611 617.436 256.611 620.38C256.611 623.324 258.995 625.714 261.945 625.714H325.945C328.894 625.714 331.278 623.324 331.278 620.38C331.278 617.436 328.894 615.047 325.945 615.047Z" fill="#DF1F26" stroke="#DF1F26" stroke-width="3.33"/>
<path d="M325.945 636.383H261.945C258.995 636.383 256.611 638.772 256.611 641.716C256.611 644.66 258.995 647.049 261.945 647.049H325.945C328.894 647.049 331.278 644.66 331.278 641.716C331.278 638.772 328.894 636.383 325.945 636.383Z" fill="#DF1F26" stroke="#DF1F26" stroke-width="3.33"/>
<path d="M325.945 657.711H261.945C258.995 657.711 256.611 660.1 256.611 663.044C256.611 665.988 258.995 668.378 261.945 668.378H325.945C328.894 668.378 331.278 665.988 331.278 663.044C331.278 660.1 328.894 657.711 325.945 657.711Z" fill="#DF1F26" stroke="#DF1F26" stroke-width="3.33"/>
<path d="M523.278 657.711H501.945C498.995 657.711 496.611 660.1 496.611 663.044V684.378C496.611 686.399 497.753 688.244 499.561 689.151L510.227 694.484C510.974 694.858 511.795 695.044 512.611 695.044C513.427 695.044 514.249 694.858 514.995 694.484L525.662 689.151C527.47 688.244 528.611 686.399 528.611 684.378V663.044C528.611 660.1 526.227 657.711 523.278 657.711ZM517.945 681.082L512.611 683.748L507.278 681.082V668.378H517.945V681.082Z" fill="#DF1F26" stroke="#DF1F26" stroke-width="3.33"/>
<path d="M645.945 620.378C648.89 620.378 651.278 617.99 651.278 615.044C651.278 612.099 648.89 609.711 645.945 609.711C642.999 609.711 640.611 612.099 640.611 615.044C640.611 617.99 642.999 620.378 645.945 620.378Z" fill="#DF1F26" stroke="#DF1F26" stroke-width="3.33"/>
<path d="M667.277 620.378C670.222 620.378 672.61 617.99 672.61 615.044C672.61 612.099 670.222 609.711 667.277 609.711C664.331 609.711 661.943 612.099 661.943 615.044C661.943 617.99 664.331 620.378 667.277 620.378Z" fill="#DF1F26" stroke="#DF1F26" stroke-width="3.33"/>
<path d="M688.611 620.378C691.556 620.378 693.944 617.99 693.944 615.044C693.944 612.099 691.556 609.711 688.611 609.711C685.665 609.711 683.277 612.099 683.277 615.044C683.277 617.99 685.665 620.378 688.611 620.378Z" fill="#DF1F26" stroke="#DF1F26" stroke-width="3.33"/>
<path d="M613.945 620.378H624.611C627.561 620.378 629.945 617.988 629.945 615.044C629.945 612.1 627.561 609.711 624.611 609.711H613.945C610.995 609.711 608.611 612.1 608.611 615.044C608.611 617.988 610.995 620.378 613.945 620.378Z" fill="#DF1F26" stroke="#DF1F26" stroke-width="3.33"/>
</svg>
