<svg width="513" height="513" viewBox="0 0 513 513" fill="none" xmlns="http://www.w3.org/2000/svg">
<path d="M99.1953 209.575H59.1953V147.742C59.1953 136.696 68.1493 127.742 79.1953 127.742C90.2413 127.742 99.1953 136.696 99.1953 147.742V209.575Z" fill="#8690A6"/>
<path d="M358.669 64.3712L218.766 118.667L78.8633 64.3712L218.766 10.0742L358.669 64.3712Z" fill="#8690A6"/>
<path d="M138.863 87.5547H298.669V163.824H138.863V87.5547Z" fill="#8690A6"/>
<path d="M372.766 318.408C372.766 292.005 357.96 269.067 336.202 257.423C347.038 233.347 342.582 204.065 322.805 184.288C315.935 177.418 307.917 172.395 299.369 169.219H139.071H138.163C129.615 172.395 121.597 177.418 114.727 184.288C94.9496 204.065 90.4936 233.347 101.33 257.423C79.5716 269.067 64.7656 292.005 64.7656 318.408H372.766Z" fill="#FFCB7C"/>
<path d="M426.766 502.073V392.865C426.766 350.592 392.497 316.323 350.224 316.323H258.717V278.406H178.814V316.323H87.3076C45.0346 316.323 10.7656 350.592 10.7656 392.865V502.073H426.766Z" fill="#8690A6"/>
<path d="M258.717 316.324V278.408H178.814V316.324H109.766L173.398 502.074H264.133L327.765 316.324H258.717Z" fill="#F9F9F9"/>
<path d="M258.719 316.324L218.767 408.062L178.816 316.324V278.408H258.719V316.324Z" fill="#FFBF9E"/>
<path d="M298.669 163.824V206.746C298.669 250.875 262.895 286.649 218.766 286.649C174.637 286.649 138.863 250.875 138.863 206.746V163.824H298.669Z" fill="#FFBF9E"/>
<path d="M477.402 502.074C491.412 502.074 502.769 484.166 502.769 462.074C502.769 439.983 491.412 422.074 477.402 422.074C463.392 422.074 452.035 439.983 452.035 462.074C452.035 484.166 463.392 502.074 477.402 502.074Z" fill="#F9F9F9"/>
<path d="M477.4 502.074H274.101C260.091 502.074 248.734 484.165 248.734 462.074C248.734 439.983 260.091 422.074 274.101 422.074H477.4V502.074Z" fill="#F5737F"/>
<path d="M477.402 502.074C491.412 502.074 502.769 484.166 502.769 462.074C502.769 439.983 491.412 422.074 477.402 422.074C463.392 422.074 452.035 439.983 452.035 462.074C452.035 484.166 463.392 502.074 477.402 502.074Z" fill="#F9F9F9"/>
<path d="M218.764 248.789C225.852 248.789 232.517 246.028 237.529 241.015C241.434 237.11 241.434 230.779 237.529 226.873C233.624 222.969 227.292 222.969 223.387 226.873C222.152 228.108 220.511 228.789 218.764 228.789C217.017 228.789 215.376 228.108 214.141 226.873C210.237 222.97 203.905 222.969 199.999 226.873C196.094 230.778 196.093 237.109 199.999 241.015C205.011 246.029 211.676 248.789 218.764 248.789Z" fill="black"/>
<path d="M477.399 412.074H436.766V392.866C436.766 356.567 414.3 325.422 382.545 312.59C380.788 288.588 368.241 266.791 348.482 253.207C356.77 226.724 349.785 197.126 329.877 177.216C323.645 170.984 316.523 166.004 308.67 162.315V94.5022L362.288 73.6932C366.135 72.2002 368.67 68.4982 368.67 64.3712C368.67 60.2442 366.135 56.5422 362.288 55.0492L222.384 0.752219C220.056 -0.151781 217.476 -0.151781 215.148 0.752219L75.2446 55.0482C71.3976 56.5412 68.8626 60.2432 68.8626 64.3702V119.576C57.3966 123.796 49.1956 134.829 49.1956 147.741V209.574C49.1956 215.096 53.6726 219.574 59.1956 219.574H86.4576C84.8106 230.712 85.6136 242.227 89.0496 253.207C69.2906 266.791 56.7426 288.587 54.9866 312.59C23.2316 325.422 0.765625 356.568 0.765625 392.866V502.074C0.765625 507.596 5.24263 512.074 10.7656 512.074H477.399C497.231 512.074 512.766 490.112 512.766 462.074C512.766 434.036 497.231 412.074 477.399 412.074ZM375.749 492.074C368.495 492.074 360.382 479.244 360.382 462.074C360.382 444.904 368.495 432.074 375.749 432.074H448.921C444.577 440.378 442.031 450.728 442.031 462.074C442.031 473.42 444.577 483.77 448.921 492.074H375.749ZM274.1 492.074C266.846 492.074 258.732 479.244 258.732 462.074C258.732 444.904 266.845 432.074 274.1 432.074H347.272C342.928 440.378 340.382 450.728 340.382 462.074C340.382 473.42 342.928 483.77 347.272 492.074H274.1ZM416.766 392.866V412.074H305.536L334.911 326.324H350.224C386.916 326.324 416.766 356.175 416.766 392.866V392.866ZM327.084 253.318C324.926 258.112 326.849 263.758 331.484 266.239C347.382 274.748 358.311 289.818 361.669 307.083C357.923 306.586 354.104 306.325 350.224 306.325H268.718V281.459C292.792 265.311 308.67 237.849 308.67 206.747V185.377C311.165 187.158 313.526 189.15 315.734 191.359C331.919 207.543 336.48 232.443 327.084 253.318V253.318ZM148.863 173.824H288.67V206.746C288.67 245.291 257.312 276.649 218.767 276.649C180.222 276.649 148.864 245.291 148.864 206.746V173.824H148.863ZM188.815 291.513C198.189 294.835 208.269 296.65 218.767 296.65C229.265 296.65 239.345 294.835 248.719 291.513V314.241L218.766 383.017L188.814 314.24V291.513H188.815ZM288.67 153.824H148.863V102.264L215.148 127.989C216.312 128.441 217.539 128.667 218.766 128.667C219.993 128.667 221.22 128.441 222.384 127.989L288.669 102.264V153.824H288.67ZM218.766 20.8012L331.03 64.3702L218.766 107.94L106.502 64.3702L218.766 20.8012ZM128.863 94.5022V162.316C121.644 165.708 115.056 170.209 109.196 175.755V147.742C109.196 134.582 100.675 123.382 88.8626 119.349V78.9782L128.863 94.5022ZM69.1956 147.741C69.1956 142.227 73.6816 137.741 79.1956 137.741C84.7096 137.741 89.1956 142.227 89.1956 147.741V199.574H69.1956V147.741ZM106.048 266.239C110.683 263.759 112.606 258.112 110.448 253.318C101.052 232.443 105.614 207.544 121.797 191.359C124.006 189.15 126.368 187.158 128.862 185.377V206.747C128.862 237.85 144.74 265.311 168.814 281.459V306.325H87.3076C83.4276 306.325 79.6086 306.586 75.8626 307.083C79.2216 289.818 90.1506 274.747 106.048 266.239V266.239ZM20.7656 392.866C20.7656 356.175 50.6166 326.324 87.3076 326.324H102.621L117.507 369.777C118.929 373.928 122.811 376.539 126.966 376.539C128.041 376.539 129.134 376.364 130.208 375.996C135.433 374.207 138.217 368.52 136.428 363.295L123.763 326.324H172.262L209.597 412.054C211.186 415.701 214.786 418.061 218.765 418.061C222.744 418.061 226.345 415.702 227.933 412.054L265.269 326.324H313.768L284.394 412.074H274.1C254.267 412.074 238.732 434.037 238.732 462.074C238.732 473.42 241.278 483.77 245.622 492.074H180.545L165.625 448.52C163.835 443.296 158.15 440.509 152.924 442.301C147.699 444.091 144.915 449.777 146.704 455.002L159.404 492.073H20.7656V392.866ZM477.399 492.074C470.145 492.074 462.031 479.244 462.031 462.074C462.031 444.904 470.144 432.074 477.399 432.074C484.653 432.074 492.766 444.904 492.766 462.074C492.766 479.244 484.653 492.074 477.399 492.074Z" fill="black"/>
<path d="M151.586 409.195C151.586 406.565 150.516 403.995 148.656 402.125C146.796 400.265 144.216 399.195 141.586 399.195C138.956 399.195 136.376 400.264 134.516 402.125C132.646 403.995 131.586 406.565 131.586 409.195C131.586 411.835 132.646 414.405 134.516 416.264C136.376 418.134 138.946 419.195 141.586 419.195C144.216 419.195 146.796 418.134 148.656 416.264C150.516 414.405 151.586 411.834 151.586 409.195Z" fill="black"/>
</svg>
