<svg width="951" height="951" viewBox="0 0 951 951" fill="none" xmlns="http://www.w3.org/2000/svg">
<circle cx="475.489" cy="475.153" r="459.598" fill="white" stroke="#DF1F26" stroke-width="31"/>
<path d="M475.541 460.107C506.3 460.107 532.93 449.075 554.696 427.31C576.454 405.548 587.489 378.921 587.489 348.159C587.489 317.408 576.457 290.778 554.692 269.009C532.927 247.25 506.296 236.219 475.541 236.219C444.78 236.219 418.153 247.25 396.391 269.012C374.629 290.774 363.594 317.405 363.594 348.159C363.594 378.921 374.629 405.552 396.391 427.313C418.16 449.072 444.79 460.107 475.541 460.107ZM415.653 288.271C432.351 271.573 451.939 263.456 475.541 263.456C499.14 263.456 518.732 271.573 535.434 288.271C552.132 304.972 560.252 324.564 560.252 348.159C560.252 371.762 552.132 391.35 535.434 408.052C518.732 424.753 499.14 432.87 475.541 432.87C451.946 432.87 432.358 424.75 415.653 408.052C398.951 391.353 390.831 371.762 390.831 348.159C390.831 324.564 398.951 304.972 415.653 288.271Z" fill="#DF1F26"/>
<path d="M671.419 593.613C670.792 584.557 669.522 574.678 667.653 564.245C665.767 553.735 663.338 543.799 660.43 534.718C657.423 525.331 653.342 516.062 648.288 507.179C643.051 497.96 636.895 489.932 629.987 483.325C622.764 476.414 613.921 470.858 603.694 466.804C593.503 462.773 582.208 460.73 570.127 460.73C565.383 460.73 560.794 462.677 551.933 468.446C546.479 472.003 540.1 476.116 532.979 480.666C526.891 484.545 518.643 488.18 508.455 491.471C498.515 494.687 488.423 496.318 478.459 496.318C468.502 496.318 458.41 494.687 448.463 491.471C438.286 488.183 430.035 484.549 423.957 480.669C416.904 476.162 410.521 472.049 404.986 468.443C396.131 462.673 391.543 460.727 386.798 460.727C374.713 460.727 363.423 462.773 353.235 466.808C343.016 470.854 334.168 476.411 326.938 483.329C320.03 489.939 313.874 497.963 308.641 507.179C303.595 516.062 299.51 525.328 296.503 534.721C293.598 543.803 291.169 553.735 289.283 564.245C287.411 574.664 286.145 584.546 285.517 593.624C284.9 602.5 284.588 611.737 284.588 621.07C284.588 645.332 292.3 664.973 307.509 679.459C322.53 693.753 342.402 701.001 366.575 701.001H590.371C614.538 701.001 634.409 693.753 649.434 679.459C664.646 664.984 672.359 645.336 672.359 621.067C672.355 611.702 672.04 602.464 671.419 593.613ZM630.654 659.725C620.729 669.172 607.552 673.764 590.368 673.764H366.575C349.388 673.764 336.211 669.172 326.289 659.729C316.555 650.463 311.825 637.815 311.825 621.07C311.825 612.361 312.112 603.762 312.687 595.507C313.247 587.408 314.392 578.511 316.091 569.057C317.768 559.721 319.903 550.958 322.442 543.026C324.878 535.42 328.2 527.888 332.321 520.633C336.253 513.718 340.778 507.786 345.771 503.006C350.441 498.534 356.327 494.875 363.263 492.13C369.678 489.591 376.887 488.201 384.713 487.992C385.667 488.499 387.366 489.467 390.117 491.261C395.716 494.91 402.17 499.073 409.305 503.63C417.347 508.757 427.709 513.388 440.088 517.385C452.743 521.477 465.651 523.555 478.463 523.555C491.274 523.555 504.186 521.477 516.834 517.388C529.224 513.385 539.582 508.757 547.635 503.623C554.936 498.956 561.209 494.914 566.808 491.261C569.56 489.471 571.258 488.499 572.212 487.992C580.042 488.201 587.251 489.591 593.669 492.13C600.602 494.875 606.488 498.538 611.158 503.006C616.151 507.782 620.676 513.715 624.608 520.636C628.732 527.888 632.058 535.423 634.491 543.022C637.033 550.966 639.172 559.724 640.845 569.054C642.54 578.525 643.689 587.426 644.25 595.511V595.518C644.828 603.741 645.118 612.336 645.122 621.07C645.118 637.818 640.388 650.463 630.654 659.725Z" fill="#DF1F26"/>
</svg>
