<svg width="512" height="513" viewBox="0 0 512 513" fill="none" xmlns="http://www.w3.org/2000/svg">
<g clip-path="url(#clip0)">
<path d="M307.124 330.55C366.767 311.549 400.849 253.866 400.849 253.866C384.899 243.224 375.305 225.323 375.288 206.152V128.787C375.288 72.5272 335.983 23.9182 280.967 12.1432C264.506 8.65019 247.499 8.65019 231.037 12.1432C176.021 23.9182 136.716 72.5272 136.716 128.787V206.152C136.699 225.323 127.105 243.224 111.155 253.866C111.155 253.866 136.716 322.029 204.88 330.55H307.124Z" fill="#DBDBDB"/>
<path d="M237.087 11.2031C235.042 11.2031 232.997 11.7141 231.038 12.1401C176.022 23.9151 136.717 72.5241 136.717 128.784V206.149C136.7 225.32 127.106 243.221 111.156 253.863C111.156 253.863 136.717 322.026 204.881 330.547H242.286C216.118 225.909 214.346 116.651 237.087 11.2031Z" fill="#BFBFBF"/>
<path d="M375.799 350.911L314.026 342.391L256.002 375.876L197.978 342.732L136.205 351.252C102.481 355.759 77.2442 384.447 77.0732 418.478V512.203H434.93V418.478C434.939 384.329 409.659 355.444 375.799 350.911Z" fill="#F1F2F2"/>
<path d="M314.026 342.732L307.124 341.795V282.152H204.879V341.795L197.978 342.732L256.002 375.876L314.026 342.732Z" fill="#CF9E76"/>
<path d="M204.879 409.96L256.002 375.878L204.879 341.797H187.839L204.879 409.96Z" fill="#EAEAEA"/>
<path d="M256.002 375.878L307.124 409.96L324.165 341.797H307.124L256.002 375.878Z" fill="#EAEAEA"/>
<path d="M230.441 512.206L238.961 418.481L230.441 392.92L256.002 375.879L281.563 392.92L273.043 418.481L281.563 512.206" fill="#2E6AA3"/>
<path d="M77.0732 418.481V512.206H111.155V359.52C90.0922 371.687 77.0992 394.156 77.0732 418.481Z" fill="#BFBFBF"/>
<path d="M204.879 282.152V316.234L212.377 323.732C223.948 335.303 239.642 341.795 256.001 341.795C272.36 341.795 288.055 335.302 299.625 323.732L307.123 316.234V282.152H204.879Z" fill="#B08765"/>
<path d="M349.726 105.612V226.176C349.837 238.701 345.355 250.826 337.116 260.258L300.308 301.923C293.85 309.276 284.537 313.502 274.747 313.511H237.428C227.638 313.502 218.325 309.276 211.867 301.923L175.059 259.832C166.82 250.4 162.338 238.275 162.449 225.75V105.612C162.458 91.4936 173.9 80.0506 188.019 80.0586C189.561 80.0586 191.095 80.1946 192.611 80.4766L207.437 83.1176C239.661 88.9966 272.686 88.9966 304.91 83.1176L319.736 80.4766C333.641 78.0316 346.891 87.3186 349.344 101.224C349.599 102.672 349.726 104.146 349.726 105.612Z" fill="#CF9E76"/>
<path d="M349.726 143.102H341.206V194.224H349.726C363.844 194.224 375.287 182.781 375.287 168.663C375.287 154.545 363.845 143.102 349.726 143.102Z" fill="#DFB28B"/>
<path d="M136.716 168.663C136.716 182.781 148.159 194.224 162.277 194.224H170.797V143.102H162.277C148.159 143.102 136.716 154.553 136.716 168.663Z" fill="#DFB28B"/>
<path d="M315.645 245.344H196.359V236.824C196.359 218.002 211.619 202.742 230.441 202.742H281.563C300.385 202.742 315.645 218.002 315.645 236.824V245.344V245.344Z" fill="#DBDBDB"/>
<path d="M196.359 81.1543L192.44 80.4723C178.552 77.9333 165.234 87.1263 162.695 101.015C162.414 102.532 162.278 104.065 162.278 105.607V226.171C162.167 238.696 166.649 250.821 174.888 260.253L196.359 284.281V81.1543Z" fill="#BD8F6A"/>
<path d="M349.726 202.75H341.206V185.709H349.726C359.124 185.709 366.767 178.066 366.767 168.668C366.767 159.27 359.124 151.627 349.726 151.627H341.206V134.586H349.726C368.522 134.586 383.808 149.872 383.808 168.668C383.808 187.464 368.522 202.75 349.726 202.75Z" fill="black"/>
<path d="M170.798 202.75H162.278C143.482 202.75 128.196 187.464 128.196 168.668C128.196 149.872 143.482 134.586 162.278 134.586H170.798V151.627H162.278C152.88 151.627 145.237 159.27 145.237 168.668C145.237 178.066 152.88 185.709 162.278 185.709H170.798V202.75Z" fill="black"/>
<path d="M264.522 211.271H238.961C236.516 211.271 234.19 210.223 232.571 208.391C230.952 206.559 230.202 204.122 230.501 201.694L239.021 133.531L255.925 135.644L248.606 194.23H264.514V211.271H264.522Z" fill="black"/>
<path d="M274.764 322.039H237.428C225.176 322.022 213.537 316.739 205.468 307.554L168.651 265.455C159.031 254.438 153.808 240.311 153.936 225.69V105.612C153.936 96.5039 157.489 87.9489 163.922 81.5159C170.355 75.0829 178.909 71.5469 188.009 71.5469C188.018 71.5469 188.018 71.5469 188.026 71.5469C190.079 71.5469 192.133 71.7259 194.161 72.1009L208.935 74.7339C240.299 80.4429 272.063 80.4599 303.384 74.7339L318.244 72.0839C336.818 68.7949 354.473 81.2259 357.736 99.7329C358.077 101.693 358.256 103.652 358.256 105.604V226.168C358.392 240.704 353.161 254.831 343.533 265.848L306.699 307.555C298.638 316.731 286.991 322.022 274.764 322.039ZM188.009 88.5879C183.451 88.5879 179.182 90.3599 175.961 93.5719C172.74 96.7839 170.968 101.07 170.968 105.62V225.758C170.874 236.281 174.606 246.369 181.474 254.242L218.274 296.324C223.105 301.828 230.092 304.998 237.436 305.006H274.747C282.066 304.997 289.061 301.828 293.909 296.307L330.726 254.625C337.568 246.786 341.3 236.698 341.198 226.261V105.612C341.198 104.624 341.104 103.644 340.942 102.672C339.315 93.4529 330.462 87.2499 321.217 88.8689L306.409 91.5099C273.086 97.5849 239.268 97.5769 205.902 91.5099L191.119 88.8689C190.062 88.6729 189.04 88.5879 188.009 88.5879C188.009 88.5879 188.018 88.5879 188.009 88.5879Z" fill="black"/>
<path d="M204.922 168.672C214.334 168.672 221.963 161.042 221.963 151.631C221.963 142.219 214.334 134.59 204.922 134.59C195.511 134.59 187.881 142.219 187.881 151.631C187.881 161.042 195.511 168.672 204.922 168.672Z" fill="black"/>
<path d="M298.647 168.672C308.059 168.672 315.688 161.042 315.688 151.631C315.688 142.219 308.059 134.59 298.647 134.59C289.236 134.59 281.606 142.219 281.606 151.631C281.606 161.042 289.236 168.672 298.647 168.672Z" fill="black"/>
<path d="M315.645 253.872H196.359C191.656 253.872 187.839 250.055 187.839 245.352V236.832C187.839 213.341 206.95 194.23 230.441 194.23H281.563C305.054 194.23 324.165 213.341 324.165 236.832V245.352C324.165 250.054 320.357 253.872 315.645 253.872ZM204.879 236.831H307.124C307.124 222.738 295.656 211.27 281.563 211.27H230.441C216.348 211.269 204.879 222.729 204.879 236.831Z" fill="black"/>
<path d="M273.086 270.914H239.004V287.955H273.086V270.914Z" fill="black"/>
<path d="M145.237 185.71H128.196V128.794C128.196 68.9127 170.696 16.3497 229.248 3.81669C247.005 0.0506876 264.991 0.0506876 282.731 3.81669C341.3 16.3507 383.8 68.9127 383.8 128.794V177.19H366.759V128.794C366.759 76.8957 329.925 31.3377 279.178 20.4827C263.799 17.2107 248.198 17.2197 232.801 20.4827C182.062 31.3377 145.237 76.8967 145.237 128.794V185.71Z" fill="black"/>
<path d="M264.565 40.8633H247.524V91.9853H264.565V40.8633Z" fill="black"/>
<path d="M230.483 49.3828H213.442V83.4648H230.483V49.3828Z" fill="black"/>
<path d="M298.647 49.3828H281.606V83.4648H298.647V49.3828Z" fill="black"/>
<path d="M309.715 338.678L304.543 322.438C348.934 308.294 378.875 270.753 389.372 255.8C375.1 243.377 366.793 225.365 366.776 206.169V177.191H383.817V206.16C383.834 222.511 391.971 237.703 405.587 246.785C409.353 249.299 410.495 254.309 408.203 258.211C406.728 260.674 371.735 318.902 309.715 338.678Z" fill="black"/>
<path d="M370.209 292.318C355.153 281.131 343.821 265.879 337.457 248.242L353.484 242.457C358.716 256.942 368.011 269.45 380.374 278.643L370.209 292.318Z" fill="black"/>
<path d="M344.52 320.264C331.859 310.483 322.069 297.438 316.241 282.544L332.097 276.324C336.817 288.355 344.707 298.878 354.94 306.767L344.52 320.264Z" fill="black"/>
<path d="M203.823 339.01C131.382 329.953 104.296 259.847 103.171 256.865C101.782 253.15 103.128 248.975 106.417 246.777C120.033 237.694 128.17 222.502 128.187 206.143V177.191H145.228V206.16C145.211 225.791 136.529 244.161 121.695 256.601C129.423 272.389 155.061 315.75 205.928 322.106L203.823 339.01Z" fill="black"/>
<path d="M141.803 292.318L131.638 278.643C144.001 269.458 153.297 256.942 158.528 242.457L174.555 248.242C168.182 265.887 156.858 281.13 141.803 292.318Z" fill="black"/>
<path d="M167.483 320.267L157.071 306.771C167.304 298.881 175.194 288.358 179.906 276.336L195.771 282.547C189.943 297.44 180.153 310.485 167.483 320.267Z" fill="black"/>
<path d="M85.5942 512.214H68.5532V418.489C68.5532 380.224 97.1472 347.548 135.08 342.47L196.359 334.342V290.684H213.4V341.806C213.4 346.075 210.23 349.696 205.996 350.25L137.321 359.358C107.832 363.303 85.5852 388.719 85.5942 418.481V512.214Z" fill="black"/>
<path d="M443.451 512.213H426.41V418.488C426.41 388.726 404.172 363.301 374.666 359.365L306 350.257C301.765 349.703 298.604 346.082 298.604 341.813V290.691H315.645V334.35L376.915 342.478C414.848 347.548 443.451 380.232 443.451 418.497V512.213Z" fill="black"/>
<path d="M153.8 444.051H136.759V512.214H153.8V444.051Z" fill="black"/>
<path d="M375.33 444.051H358.289V512.214H375.33V444.051Z" fill="black"/>
<path d="M204.879 418.487C203.84 418.487 202.8 418.3 201.803 417.916C199.221 416.919 197.287 414.721 196.614 412.037L179.573 343.874L196.103 339.75L210.213 396.181L251.273 368.805L260.722 382.983L209.6 417.065C208.194 418.001 206.541 418.487 204.879 418.487Z" fill="black"/>
<path d="M256.002 384.404C254.545 384.404 253.088 384.029 251.776 383.279L192.133 349.197L200.585 334.406L256.002 366.076L311.419 334.406L319.871 349.197L260.228 383.279C258.924 384.029 257.467 384.404 256.002 384.404Z" fill="black"/>
<path d="M307.124 418.488C305.471 418.488 303.818 418.002 302.395 417.057L251.273 382.975L260.722 368.797L301.782 396.173L315.892 339.742L332.413 343.866L315.372 412.029C314.707 414.713 312.765 416.911 310.183 417.908C309.203 418.292 308.164 418.488 307.124 418.488Z" fill="black"/>
<path d="M238.927 512.989L221.954 511.438L230.313 419.494L222.355 395.62L238.518 390.227L247.038 415.788C247.404 416.904 247.549 418.089 247.438 419.256L238.927 512.989Z" fill="black"/>
<path d="M273.077 512.988L264.557 419.263C264.455 418.087 264.591 416.911 264.966 415.795L273.486 390.234L289.641 395.627L281.683 419.501L290.042 511.445L273.077 512.988Z" fill="black"/>
<path d="M273.086 409.969H239.004V427.01H273.086V409.969Z" fill="black"/>
</g>
<defs>
<clipPath id="clip0">
<rect x="0.00415039" y="0.992188" width="511.996" height="511.996" fill="white"/>
</clipPath>
</defs>
</svg>
