<svg width="512" height="513" viewBox="0 0 512 513" fill="none" xmlns="http://www.w3.org/2000/svg">
<g clip-path="url(#clip0)">
<path d="M375.467 343.345L339.03 338.822L322.987 336.859L256 487.388L189.099 336.86L173.056 338.823L136.533 343.346C102.391 347.647 76.7913 376.686 76.8003 411.101V512.988H435.2V411.1C435.209 376.685 409.609 347.646 375.467 343.345Z" fill="#215280"/>
<path d="M196.267 419.119L187.733 453.253L256 487.386L189.099 336.773L173.056 338.821L136.533 419.119H196.267Z" fill="#3E76A3"/>
<path d="M315.733 419.119H375.467L338.944 338.821L322.901 336.773L256 487.386L324.267 453.253L315.733 419.119Z" fill="#3E76A3"/>
<path d="M256 487.39L290.133 410.59H221.867L256 487.39Z" fill="#EBEBEB"/>
<path d="M313.6 335.667C305.015 334.583 298.598 327.253 298.667 318.6V282.59H213.334V318.686C213.402 327.339 206.985 334.669 198.401 335.753L189.1 336.948L221.868 410.591H290.135L322.903 336.863L313.6 335.667Z" fill="#FFE2C2"/>
<path d="M298.667 321.331V282.59H213.334V321.331C245.333 337.971 266.667 337.971 298.667 321.331Z" fill="#FEDAC6"/>
<path d="M375.467 163.122V98.1844C375.373 70.4514 358.511 45.5254 332.8 35.1234C316.407 18.7394 294.187 9.54044 271.019 9.52344H256.427C201.472 9.52244 119.467 52.1894 128 171.656C131.098 221.252 148.924 268.791 179.2 308.189L187.733 265.522H324.266L332.8 308.189C384 256.989 375.467 163.122 375.467 163.122Z" fill="black"/>
<path d="M170.667 205.79H162.134C147.994 205.79 136.534 194.33 136.534 180.19C136.534 166.05 147.994 154.59 162.134 154.59H170.667V205.79Z" fill="#F2D2C1"/>
<path d="M358.4 146.055H341.333V197.255H358.4C372.54 197.255 384 185.795 384 171.655C384 157.515 372.54 146.055 358.4 146.055Z" fill="#FFE2C2"/>
<path d="M349.867 137.52L345.174 214.32C343.075 262.047 303.77 299.653 256.001 299.653C208.231 299.653 168.927 262.047 166.828 214.32L162.135 154.587L315.735 59.2695L349.867 137.52Z" fill="#FFDCBC"/>
<path d="M350.464 146.054C316.331 94.8535 316.331 60.7205 316.331 60.7205C316.331 60.7205 222.464 146.054 128.598 171.654C120.064 52.1865 202.069 9.51954 257.109 9.51954H271.616C294.793 9.51054 317.022 18.7265 333.397 35.1195C359.108 45.5215 375.97 70.4475 376.064 98.1805V154.587" fill="black"/>
<path d="M128.597 171.656C128.597 171.656 273.066 111.923 307.2 60.7227C307.2 60.7227 204.8 120.456 128 120.456C123.068 137.198 123.273 155.033 128.597 171.656Z" fill="black"/>
<path d="M76.8003 409.905V512.988H110.933V350.855C89.8303 363.04 76.8263 385.543 76.8003 409.905Z" fill="#1C496E"/>
<path d="M307.2 180.189C316.626 180.189 324.267 172.548 324.267 163.122C324.267 153.696 316.626 146.055 307.2 146.055C297.774 146.055 290.133 153.696 290.133 163.122C290.133 172.548 297.774 180.189 307.2 180.189Z" fill="black"/>
<path d="M251.264 221.421L225.664 204.354C223.531 202.937 222.157 200.633 221.909 198.099C221.662 195.556 222.558 193.03 224.367 191.221L249.967 165.621L262.033 177.687L243.797 195.931L260.736 207.221L251.264 221.421Z" fill="black"/>
<path d="M358.4 205.788H349.867V188.721H358.4C367.812 188.721 375.467 181.067 375.467 171.654C375.467 162.242 367.813 154.587 358.4 154.587H349.867V137.52H358.4C377.225 137.52 392.533 152.829 392.533 171.653C392.533 190.477 377.225 205.788 358.4 205.788Z" fill="black"/>
<path d="M256 308.19C203.529 308.19 160.614 267.119 158.302 214.699L153.626 155.256L170.641 153.925L175.334 213.658C177.263 257.221 212.684 291.124 256 291.124C299.316 291.124 334.746 257.221 336.649 213.949L341.351 137.004L358.384 138.045L353.691 214.845C351.394 267.128 308.471 308.19 256 308.19Z" fill="black"/>
<path d="M245.47 248.454C245.453 248.454 245.427 248.454 245.41 248.454H238.933V231.387H245.418C245.435 231.387 245.452 231.387 245.461 231.387C256.623 231.387 267.793 228.75 277.785 223.75L285.422 239.016C273.075 245.194 259.26 248.454 245.47 248.454Z" fill="black"/>
<path d="M128 180.188C126.251 180.188 124.518 179.65 123.068 178.618C120.986 177.142 119.672 174.812 119.493 172.261C115.73 119.568 129.016 75.3053 157.919 44.2613C183.142 17.1673 219.81 0.988281 256 0.988281H270.592C295.475 1.16728 319.744 10.6653 337.604 27.8773C365.755 39.9943 383.906 67.3863 384.008 98.1493V154.588H366.941V98.1833C366.856 73.8293 352.204 52.1713 329.608 43.0323C328.55 42.6053 327.586 41.9653 326.775 41.1553C312.004 26.3843 291.148 18.1153 270.634 18.0473H256C224.461 18.0473 192.469 32.1953 170.402 55.8843C146.739 81.3053 134.929 117.264 135.996 160.383C223.411 132.495 309.111 55.2173 309.99 54.4073C312.49 52.1293 316.091 51.5573 319.18 52.9143C322.278 54.2883 324.266 57.3433 324.266 60.7223C324.266 60.9953 324.974 93.3363 356.966 141.319L342.767 150.782C321.451 118.808 312.909 93.0543 309.487 77.3953C280.986 101.246 206.319 159.136 130.253 179.88C129.502 180.086 128.751 180.188 128 180.188Z" fill="black"/>
<path d="M204.8 180.189C214.226 180.189 221.867 172.548 221.867 163.122C221.867 153.696 214.226 146.055 204.8 146.055C195.374 146.055 187.733 153.696 187.733 163.122C187.733 172.548 195.374 180.189 204.8 180.189Z" fill="black"/>
<path d="M332.8 316.72C331.972 316.72 331.145 316.601 330.325 316.353C327.313 315.448 325.051 312.948 324.437 309.859L315.904 267.192L332.638 263.838L337.698 289.122C366.481 248.409 366.933 189.376 366.933 188.719H384C384 191.996 383.479 269.572 338.833 314.219C337.212 315.841 335.036 316.72 332.8 316.72Z" fill="black"/>
<path d="M179.2 316.722C176.58 316.722 174.071 315.519 172.433 313.385C141.005 272.485 122.692 223.657 119.484 172.184L136.517 171.117C139.111 212.683 152.244 252.388 174.721 287.068L179.363 263.84L196.097 267.194L187.564 309.861C186.907 313.146 184.39 315.732 181.138 316.491C180.489 316.646 179.84 316.722 179.2 316.722Z" fill="black"/>
<path d="M162.133 205.789H153.6C134.775 205.789 119.467 190.48 119.467 171.656H136.534C136.534 181.068 144.188 188.723 153.601 188.723H162.134V205.789H162.133Z" fill="black"/>
<path d="M256 495.92C252.629 495.92 249.574 493.94 248.201 490.851L179.934 337.251L195.524 330.312L256 466.378L316.467 330.323L332.066 337.26L263.799 490.861C262.426 493.941 259.371 495.92 256 495.92Z" fill="black"/>
<path d="M85.3332 512.99H68.2672V411.111C68.2582 372.489 97.1442 339.713 135.467 334.883L197.265 327.203C201.54 326.665 204.749 322.996 204.723 318.67V282.59H221.79V318.601C221.892 331.52 212.258 342.528 199.39 344.133L137.6 351.813C107.802 355.559 85.3332 381.057 85.3422 411.103V512.99H85.3332Z" fill="black"/>
<path d="M443.733 512.99H426.666V411.111C426.675 381.065 404.206 355.568 374.399 351.821L312.635 344.141C299.75 342.537 290.116 331.52 290.218 318.541V282.59H307.285V318.601C307.251 322.996 310.459 326.665 314.743 327.203L376.516 334.883C414.848 339.704 443.742 372.481 443.733 411.111V512.99Z" fill="black"/>
<path d="M252.186 495.023L183.919 460.89C180.344 459.098 178.483 455.062 179.456 451.188L185.335 427.653H136.533C133.649 427.653 130.952 426.194 129.382 423.77C127.812 421.347 127.564 418.292 128.742 415.655L162.875 338.855L178.465 345.793L149.665 410.587H196.266C198.894 410.587 201.377 411.799 202.99 413.872C204.603 415.937 205.183 418.642 204.543 421.185L197.665 448.679L259.813 479.757L252.186 495.023Z" fill="black"/>
<path d="M264.534 487.387H247.467V512.987H264.534V487.387Z" fill="black"/>
<path d="M259.814 495.024L252.177 479.758L314.317 448.68L307.448 421.186C306.808 418.635 307.38 415.938 309.001 413.873C310.622 411.799 313.106 410.588 315.734 410.588H362.335L333.535 345.786L349.134 338.848L383.267 415.648C384.445 418.293 384.197 421.34 382.627 423.763C381.057 426.186 378.36 427.654 375.468 427.654H326.666L332.537 451.189C333.51 455.063 331.65 459.099 328.083 460.891L259.814 495.024Z" fill="black"/>
<path d="M290.134 402.055H221.867V419.122H290.134V402.055Z" fill="black"/>
</g>
<defs>
<clipPath id="clip0">
<rect x="0.000244141" y="0.988281" width="512" height="512" fill="white"/>
</clipPath>
</defs>
</svg>
