<svg width="512" height="512" viewBox="0 0 512 512" fill="none" xmlns="http://www.w3.org/2000/svg">
<g clip-path="url(#clip0)">
<path d="M375.421 153.606L377.128 143.196C381.514 116.565 377.956 89.2253 366.888 64.6083C356.401 40.9803 333.012 25.7063 307.158 25.6133L281.559 15.4593C264.783 7.07132 245.217 6.26132 227.802 13.2403C168.114 36.3733 130.305 95.5233 134.367 159.409C135.766 183.617 131.261 207.808 121.226 229.891C104.254 267.163 108.486 310.672 132.319 343.976L136.5 349.864C136.5 349.864 170.632 392.529 264.494 392.529C358.356 392.529 385.064 327.252 385.064 327.252C395.286 303.411 395.926 276.549 386.856 252.248C379.27 232.153 375.396 210.838 375.422 189.36V187.739" fill="#FECB66"/>
<path d="M240.259 74.7617C210.078 99.2337 174.513 116.198 136.499 124.253C134.468 135.858 133.811 147.65 134.536 159.409C135.935 183.617 131.43 207.808 121.395 229.891C104.423 267.163 108.655 310.672 132.488 343.976L136.498 349.864C136.498 349.864 167.387 388.262 250.924 392.529C228.228 229.549 233.689 126.557 240.259 74.7617Z" fill="#F5AD76"/>
<path d="M401.019 366.931L403.067 364.883C398.98 363.117 394.679 361.905 390.268 361.299L313.472 351.742C304.888 350.658 298.471 343.329 298.539 334.676V281.602H213.295V334.762C213.363 343.414 206.947 350.744 198.362 351.828L121.566 361.385C117.154 361.991 112.854 363.203 108.767 364.969L110.9 366.932C190.734 447.047 320.4 447.269 400.515 367.435C400.678 367.264 400.849 367.093 401.019 366.931Z" fill="#FEDAC6"/>
<path d="M403.067 364.883L401.019 366.931C321.185 447.046 191.519 447.268 111.404 367.434C111.233 367.263 111.071 367.101 110.901 366.931L108.853 364.883C89.5433 372.656 76.8633 391.344 76.7693 412.155V511.99H435.151V412.155C435.057 391.335 422.377 372.648 403.067 364.883Z" fill="#F288B7"/>
<path d="M298.624 320.341V281.602H213.295V320.341C245.294 336.98 266.626 336.98 298.624 320.341Z" fill="#F5C4B0"/>
<path d="M358.355 145.07H349.822V196.267H358.355C372.494 196.267 383.954 184.807 383.954 170.668C383.954 156.529 372.485 145.07 358.355 145.07Z" fill="#FEDAC6"/>
<path d="M349.822 145.071C315.69 128.005 307.157 68.2753 307.157 68.2753L281.558 76.8083C281.558 76.8083 273.025 42.6763 247.426 51.2093C214.062 62.3023 238.893 102.406 204.761 128.005C191.39 137.878 177.097 146.445 162.096 153.604L166.789 213.334C168.888 261.059 208.191 298.663 255.958 298.663C303.725 298.663 343.028 261.058 345.127 213.334L349.822 145.071Z" fill="#FEDAC6"/>
<path d="M196.23 170.671V136.539C185.666 143.732 174.19 149.466 162.098 153.605L166.791 213.335C168.617 253.516 197.091 287.52 236.334 296.36L225.071 275.284C196.23 238.934 196.23 210.52 196.23 170.671Z" fill="#F5C4B0"/>
<path d="M76.7693 408.91V511.987H110.901V358.395C85.3023 366.928 76.7693 383.994 76.7693 408.91Z" fill="#ED7BB2"/>
<path d="M307.149 179.179C316.575 179.179 324.215 171.538 324.215 162.113C324.215 152.688 316.575 145.047 307.149 145.047C297.724 145.047 290.083 152.688 290.083 162.113C290.083 171.538 297.724 179.179 307.149 179.179Z" fill="black"/>
<path d="M261.788 212.893L236.189 204.36C233.842 203.575 231.948 201.817 231.01 199.53C230.063 197.243 230.157 194.658 231.257 192.448L248.323 158.316L263.588 165.953L250.925 191.287L267.189 196.705L261.788 212.893Z" fill="black"/>
<path d="M85.2932 511.989H68.2272V403.621C67.9972 373.372 90.5062 347.696 120.593 343.959L197.389 334.402C201.664 333.864 204.872 330.195 204.847 325.869V290.133H221.913V325.801C222.015 338.72 212.382 349.727 199.514 351.331L122.709 360.888C101.215 363.559 85.1392 381.905 85.3012 403.553V511.989H85.2932V511.989Z" fill="black"/>
<path d="M443.761 511.989H426.695V404.048C426.866 382.332 410.781 363.995 389.295 361.315L312.499 351.758C299.614 350.154 289.981 339.138 290.083 326.159V290.133H307.149V326.219C307.115 330.613 310.323 334.283 314.607 334.82L391.395 344.377C421.482 348.114 443.992 373.798 443.761 404.107V511.989Z" fill="black"/>
<path d="M358.346 204.803H349.813V187.737H358.346C367.758 187.737 375.412 180.083 375.412 170.671C375.412 161.259 367.758 153.605 358.346 153.605H349.813V136.539H358.346C377.17 136.539 392.478 151.847 392.478 170.671C392.478 189.495 377.17 204.803 358.346 204.803Z" fill="black"/>
<path d="M245.405 247.469C245.396 247.469 245.388 247.469 245.379 247.469H238.894V230.403H245.379C245.388 230.403 245.396 230.403 245.405 230.403C256.575 230.403 267.753 227.766 277.745 222.766L285.382 238.031C273.026 244.201 259.202 247.469 245.405 247.469Z" fill="black"/>
<path d="M204.754 179.179C214.18 179.179 221.82 171.538 221.82 162.113C221.82 152.688 214.18 145.047 204.754 145.047C195.329 145.047 187.688 152.688 187.688 162.113C187.688 171.538 195.329 179.179 204.754 179.179Z" fill="black"/>
<path d="M255.951 307.198C203.482 307.198 160.57 266.138 158.258 213.711L153.582 154.279C153.403 151.907 154.213 149.56 155.826 147.82C157.242 146.293 159.154 145.337 161.202 145.124C162.371 144.842 171.825 142.044 199.634 121.189C213.713 110.634 215.727 97.3993 217.86 83.3973C220.215 67.9183 222.894 50.3753 244.722 43.1223C253.349 40.2553 261.771 40.8353 269.058 44.8373C278.231 49.8713 283.76 59.1473 286.781 66.0753L304.444 60.1873C306.876 59.3933 309.478 59.7013 311.629 61.0233C313.779 62.3463 315.23 64.5643 315.597 67.0643C315.674 67.6193 323.942 122.596 353.628 137.443C356.708 138.987 358.56 142.23 358.33 145.66L353.637 213.923C351.341 266.13 308.429 307.198 255.951 307.198ZM171.126 159.605L175.299 212.663C177.219 256.232 212.639 290.133 255.961 290.133C299.283 290.133 334.703 256.232 336.606 212.961L340.941 149.818C315.556 133.46 304.582 97.1363 300.614 79.4563L284.256 84.9093C281.986 85.6603 279.529 85.4303 277.447 84.2953C275.365 83.1523 273.855 81.1893 273.283 78.8853C272.259 74.9173 268.027 63.7053 260.825 59.7803C257.685 58.0733 254.28 57.9203 250.133 59.3113C238.716 63.1083 237.086 70.6433 234.748 85.9763C232.436 101.182 229.551 120.099 209.892 134.844C193.388 147.198 180.111 155.663 171.126 159.605Z" fill="black"/>
<path d="M129.536 354.796L125.355 348.908C99.8423 313.257 95.2773 266.291 113.452 226.357C122.872 205.622 127.156 182.643 125.842 159.911C121.593 91.8875 161.51 29.7335 225.165 5.27849C244.714 -2.55451 266.865 -1.64151 285.791 7.82949L308.864 17.1045C337.364 17.8555 363.074 34.9985 374.678 61.1425C386.368 87.3815 390.037 116.248 385.276 144.602L383.86 154.773L366.965 152.426L368.416 142.016C372.657 116.742 369.414 91.2545 359.09 68.0785C349.968 47.5395 329.575 34.2285 307.116 34.1435C306.032 34.1435 304.966 33.9305 303.959 33.5205L278.787 23.3665C263.573 15.7895 246.524 15.0815 231.395 21.1565C174.617 42.9665 139.086 98.2935 142.875 158.877C144.351 184.407 139.547 210.168 128.992 233.42C113.334 267.816 117.259 308.271 139.257 339.007L143.455 344.928L129.536 354.796Z" fill="black"/>
<path d="M383.262 353.208L367.561 346.51L377.203 323.898C386.615 301.96 387.195 277.581 378.85 255.234C370.88 234.115 366.853 211.947 366.878 189.351V187.738H383.944V189.359C383.918 209.889 387.588 230.035 394.823 249.234C404.721 275.737 404.03 304.63 392.886 330.612L383.262 353.208Z" fill="black"/>
<path d="M255.772 426.999C201.042 426.999 146.397 406.11 104.85 364.419L116.941 352.371C193.328 429.031 317.84 429.244 394.491 352.857L407.051 364.428C365.164 406.162 310.426 426.999 255.772 426.999Z" fill="black"/>
<path d="M248.451 89.4112C243.348 80.0082 235.677 72.3452 226.283 67.2432L234.423 52.2422C246.727 58.9232 256.771 68.9582 263.452 81.2712L248.451 89.4112Z" fill="black"/>
</g>
<defs>
<clipPath id="clip0">
<rect x="0.000244141" width="511.988" height="511.988" fill="white"/>
</clipPath>
</defs>
</svg>
