<svg width="387" height="815" viewBox="0 0 387 815" fill="none" xmlns="http://www.w3.org/2000/svg">
<path d="M381 3H6V815H381V3Z" fill="white"/>
<g filter="url(#filter0_d)">
<path d="M381 3H6V86H381V3Z" fill="white"/>
</g>
<path d="M42.3633 130.577V128.058L51.46 128.043V136.012C50.0635 137.125 48.623 137.965 47.1387 138.531C45.6543 139.088 44.1309 139.366 42.5684 139.366C40.459 139.366 38.54 138.917 36.8115 138.019C35.0928 137.11 33.7939 135.802 32.915 134.093C32.0361 132.384 31.5967 130.475 31.5967 128.365C31.5967 126.275 32.0312 124.327 32.9004 122.521C33.7793 120.704 35.0391 119.356 36.6797 118.478C38.3203 117.599 40.21 117.159 42.3486 117.159C43.9014 117.159 45.3027 117.413 46.5527 117.921C47.8125 118.419 48.7988 119.117 49.5117 120.016C50.2246 120.914 50.7666 122.086 51.1377 123.531L48.5742 124.234C48.252 123.141 47.8516 122.281 47.373 121.656C46.8945 121.031 46.2109 120.533 45.3223 120.162C44.4336 119.781 43.4473 119.591 42.3633 119.591C41.0645 119.591 39.9414 119.791 38.9941 120.191C38.0469 120.582 37.2803 121.1 36.6943 121.744C36.1182 122.389 35.6689 123.097 35.3467 123.868C34.7998 125.196 34.5264 126.637 34.5264 128.189C34.5264 130.104 34.8535 131.705 35.5078 132.994C36.1719 134.283 37.1338 135.24 38.3936 135.865C39.6533 136.49 40.9912 136.803 42.4072 136.803C43.6377 136.803 44.8389 136.568 46.0107 136.1C47.1826 135.621 48.0713 135.113 48.6768 134.576V130.577H42.3633ZM65.9766 133.99L68.7012 134.327C68.2715 135.919 67.4756 137.154 66.3135 138.033C65.1514 138.912 63.667 139.352 61.8604 139.352C59.585 139.352 57.7783 138.653 56.4404 137.257C55.1123 135.851 54.4482 133.883 54.4482 131.354C54.4482 128.736 55.1221 126.705 56.4697 125.26C57.8174 123.814 59.5654 123.092 61.7139 123.092C63.7939 123.092 65.4932 123.8 66.8115 125.216C68.1299 126.632 68.7891 128.624 68.7891 131.192C68.7891 131.349 68.7842 131.583 68.7744 131.896H57.1729C57.2705 133.604 57.7539 134.913 58.623 135.821C59.4922 136.729 60.5762 137.184 61.875 137.184C62.8418 137.184 63.667 136.93 64.3506 136.422C65.0342 135.914 65.5762 135.104 65.9766 133.99ZM57.3193 129.728H66.0059C65.8887 128.419 65.5566 127.438 65.0098 126.783C64.1699 125.768 63.0811 125.26 61.7432 125.26C60.5322 125.26 59.5117 125.665 58.6816 126.476C57.8613 127.286 57.4072 128.37 57.3193 129.728ZM72.0264 139V123.443H74.3994V125.655C75.542 123.946 77.1924 123.092 79.3506 123.092C80.2881 123.092 81.1475 123.263 81.9287 123.604C82.7197 123.937 83.3105 124.376 83.7012 124.923C84.0918 125.47 84.3652 126.119 84.5215 126.871C84.6191 127.359 84.668 128.214 84.668 129.435V139H82.0312V129.537C82.0312 128.463 81.9287 127.662 81.7236 127.135C81.5186 126.598 81.1523 126.173 80.625 125.86C80.1074 125.538 79.4971 125.377 78.7939 125.377C77.6709 125.377 76.6992 125.733 75.8789 126.446C75.0684 127.159 74.6631 128.512 74.6631 130.504V139H72.0264ZM99.375 133.99L102.1 134.327C101.67 135.919 100.874 137.154 99.7119 138.033C98.5498 138.912 97.0654 139.352 95.2588 139.352C92.9834 139.352 91.1768 138.653 89.8389 137.257C88.5107 135.851 87.8467 133.883 87.8467 131.354C87.8467 128.736 88.5205 126.705 89.8682 125.26C91.2158 123.814 92.9639 123.092 95.1123 123.092C97.1924 123.092 98.8916 123.8 100.21 125.216C101.528 126.632 102.188 128.624 102.188 131.192C102.188 131.349 102.183 131.583 102.173 131.896H90.5713C90.6689 133.604 91.1523 134.913 92.0215 135.821C92.8906 136.729 93.9746 137.184 95.2734 137.184C96.2402 137.184 97.0654 136.93 97.749 136.422C98.4326 135.914 98.9746 135.104 99.375 133.99ZM90.7178 129.728H99.4043C99.2871 128.419 98.9551 127.438 98.4082 126.783C97.5684 125.768 96.4795 125.26 95.1416 125.26C93.9307 125.26 92.9102 125.665 92.0801 126.476C91.2598 127.286 90.8057 128.37 90.7178 129.728ZM105.396 139V123.443H107.769V125.802C108.374 124.698 108.931 123.971 109.438 123.619C109.956 123.268 110.522 123.092 111.138 123.092C112.026 123.092 112.93 123.375 113.848 123.941L112.939 126.388C112.295 126.007 111.65 125.816 111.006 125.816C110.43 125.816 109.912 125.992 109.453 126.344C108.994 126.686 108.667 127.164 108.472 127.779C108.179 128.717 108.032 129.742 108.032 130.855V139H105.396ZM115.43 120.558V117.525H118.066V120.558H115.43ZM115.43 139V123.443H118.066V139H115.43ZM132.246 133.302L134.839 133.639C134.556 135.426 133.828 136.827 132.656 137.843C131.494 138.849 130.063 139.352 128.364 139.352C126.235 139.352 124.521 138.658 123.223 137.271C121.934 135.875 121.289 133.878 121.289 131.28C121.289 129.601 121.567 128.131 122.124 126.871C122.681 125.611 123.525 124.669 124.658 124.044C125.801 123.409 127.041 123.092 128.379 123.092C130.068 123.092 131.45 123.521 132.524 124.381C133.599 125.23 134.287 126.441 134.59 128.014L132.026 128.409C131.782 127.364 131.348 126.578 130.723 126.051C130.107 125.523 129.36 125.26 128.481 125.26C127.153 125.26 126.074 125.738 125.244 126.695C124.414 127.643 123.999 129.146 123.999 131.207C123.999 133.297 124.399 134.815 125.2 135.763C126.001 136.71 127.046 137.184 128.335 137.184C129.37 137.184 130.234 136.866 130.928 136.231C131.621 135.597 132.061 134.62 132.246 133.302ZM145.664 139V117.525H153.721C155.361 117.525 156.675 117.745 157.661 118.185C158.657 118.614 159.434 119.283 159.99 120.191C160.557 121.09 160.84 122.032 160.84 123.019C160.84 123.937 160.591 124.801 160.093 125.611C159.595 126.422 158.843 127.076 157.837 127.574C159.136 127.955 160.132 128.604 160.825 129.522C161.528 130.44 161.88 131.524 161.88 132.774C161.88 133.78 161.665 134.718 161.235 135.587C160.815 136.446 160.293 137.11 159.668 137.579C159.043 138.048 158.257 138.404 157.31 138.648C156.372 138.883 155.22 139 153.853 139H145.664ZM148.506 126.549H153.149C154.409 126.549 155.312 126.466 155.859 126.3C156.582 126.085 157.124 125.729 157.485 125.23C157.856 124.732 158.042 124.107 158.042 123.355C158.042 122.643 157.871 122.018 157.529 121.48C157.188 120.934 156.699 120.562 156.064 120.367C155.43 120.162 154.341 120.06 152.798 120.06H148.506V126.549ZM148.506 136.466H153.853C154.771 136.466 155.415 136.432 155.786 136.363C156.44 136.246 156.987 136.051 157.427 135.777C157.866 135.504 158.228 135.108 158.511 134.591C158.794 134.063 158.936 133.458 158.936 132.774C158.936 131.974 158.73 131.28 158.32 130.694C157.91 130.099 157.339 129.684 156.606 129.449C155.884 129.205 154.839 129.083 153.472 129.083H148.506V136.466ZM177.729 136.466C176.86 137.433 175.913 138.16 174.888 138.648C173.862 139.127 172.754 139.366 171.562 139.366C169.365 139.366 167.622 138.624 166.333 137.14C165.288 135.929 164.766 134.576 164.766 133.082C164.766 131.754 165.19 130.558 166.04 129.493C166.899 128.419 168.179 127.477 169.878 126.666C168.911 125.553 168.267 124.649 167.944 123.956C167.622 123.263 167.461 122.594 167.461 121.949C167.461 120.66 167.964 119.542 168.97 118.595C169.985 117.638 171.26 117.159 172.793 117.159C174.258 117.159 175.454 117.608 176.382 118.507C177.319 119.405 177.788 120.484 177.788 121.744C177.788 123.785 176.436 125.528 173.73 126.974L177.583 131.881C178.022 131.021 178.364 130.025 178.608 128.893L181.348 129.479C180.879 131.354 180.244 132.896 179.443 134.107C180.43 135.416 181.548 136.515 182.798 137.403L181.025 139.498C179.961 138.814 178.862 137.804 177.729 136.466ZM172.368 125.274C173.511 124.601 174.248 124.01 174.58 123.502C174.922 122.994 175.093 122.433 175.093 121.817C175.093 121.085 174.858 120.489 174.39 120.03C173.931 119.562 173.354 119.327 172.661 119.327C171.948 119.327 171.353 119.557 170.874 120.016C170.405 120.475 170.171 121.036 170.171 121.7C170.171 122.032 170.254 122.384 170.42 122.755C170.596 123.116 170.854 123.502 171.196 123.912L172.368 125.274ZM176.074 134.386L171.24 128.395C169.814 129.244 168.853 130.035 168.354 130.768C167.856 131.49 167.607 132.208 167.607 132.921C167.607 133.79 167.954 134.693 168.647 135.631C169.341 136.568 170.322 137.037 171.592 137.037C172.383 137.037 173.198 136.793 174.038 136.305C174.888 135.807 175.566 135.167 176.074 134.386ZM189.551 139L183.853 117.525H186.768L190.034 131.603C190.386 133.077 190.688 134.542 190.942 135.997C191.489 133.702 191.812 132.379 191.909 132.027L195.996 117.525H199.424L202.5 128.395C203.271 131.09 203.828 133.624 204.17 135.997C204.443 134.64 204.8 133.082 205.239 131.324L208.608 117.525H211.465L205.576 139H202.837L198.311 122.638C197.93 121.271 197.705 120.431 197.637 120.118C197.412 121.104 197.202 121.944 197.007 122.638L192.451 139H189.551ZM222.363 139V117.525H225.205V128.175L235.869 117.525H239.722L230.713 126.227L240.117 139H236.367L228.721 128.131L225.205 131.559V139H222.363ZM242.168 120.558V117.525H244.805V120.558H242.168ZM242.168 139V123.443H244.805V139H242.168ZM254.59 136.642L254.971 138.971C254.229 139.127 253.564 139.205 252.979 139.205C252.021 139.205 251.279 139.054 250.752 138.751C250.225 138.448 249.854 138.053 249.639 137.564C249.424 137.066 249.316 136.026 249.316 134.444V125.494H247.383V123.443H249.316V119.591L251.938 118.009V123.443H254.59V125.494H251.938V134.591C251.938 135.343 251.982 135.826 252.07 136.041C252.168 136.256 252.319 136.427 252.524 136.554C252.739 136.681 253.042 136.744 253.433 136.744C253.726 136.744 254.111 136.71 254.59 136.642Z" fill="#2699FB"/>
<path d="M69 19H39C33.4772 19 29 23.4772 29 29V59C29 64.5228 33.4772 69 39 69H69C74.5228 69 79 64.5228 79 59V29C79 23.4772 74.5228 19 69 19Z" fill="#FAFAFA"/>
<path d="M69 20H39C34.0294 20 30 24.0294 30 29V59C30 63.9706 34.0294 68 39 68H69C73.9706 68 78 63.9706 78 59V29C78 24.0294 73.9706 20 69 20Z" stroke="#2699FB" stroke-width="2"/>
<path d="M55 52L56.455 50.545L50.949 45.039H63V42.961H50.948L56.455 37.455L55 36L47 44L55 52Z" fill="#2699FB"/>
<path d="M169.777 164H168.722V157.279C168.468 157.521 168.134 157.764 167.72 158.006C167.31 158.248 166.941 158.43 166.613 158.551V157.531C167.203 157.254 167.718 156.918 168.16 156.523C168.601 156.129 168.913 155.746 169.097 155.375H169.777V164ZM174.107 159.342C173.669 159.182 173.345 158.953 173.134 158.656C172.923 158.359 172.818 158.004 172.818 157.59C172.818 156.965 173.042 156.439 173.492 156.014C173.941 155.588 174.538 155.375 175.285 155.375C176.035 155.375 176.638 155.594 177.095 156.031C177.552 156.465 177.781 156.994 177.781 157.619C177.781 158.018 177.675 158.365 177.464 158.662C177.257 158.955 176.941 159.182 176.515 159.342C177.042 159.514 177.443 159.791 177.716 160.174C177.994 160.557 178.132 161.014 178.132 161.545C178.132 162.279 177.872 162.896 177.353 163.396C176.833 163.896 176.15 164.146 175.302 164.146C174.454 164.146 173.771 163.896 173.251 163.396C172.732 162.893 172.472 162.266 172.472 161.516C172.472 160.957 172.613 160.49 172.894 160.115C173.179 159.736 173.583 159.479 174.107 159.342ZM173.896 157.555C173.896 157.961 174.027 158.293 174.288 158.551C174.55 158.809 174.89 158.938 175.308 158.938C175.714 158.938 176.046 158.811 176.304 158.557C176.566 158.299 176.697 157.984 176.697 157.613C176.697 157.227 176.562 156.902 176.292 156.641C176.027 156.375 175.695 156.242 175.296 156.242C174.894 156.242 174.56 156.371 174.294 156.629C174.029 156.887 173.896 157.195 173.896 157.555ZM173.556 161.521C173.556 161.822 173.626 162.113 173.767 162.395C173.911 162.676 174.124 162.895 174.406 163.051C174.687 163.203 174.99 163.279 175.314 163.279C175.818 163.279 176.234 163.117 176.562 162.793C176.89 162.469 177.054 162.057 177.054 161.557C177.054 161.049 176.884 160.629 176.544 160.297C176.208 159.965 175.786 159.799 175.279 159.799C174.783 159.799 174.37 159.963 174.042 160.291C173.718 160.619 173.556 161.029 173.556 161.521Z" fill="#2699FB"/>
<path d="M163.54 164.458L163.491 161.532C163.498 161.419 163.461 161.307 163.387 161.221C163.313 161.135 163.209 161.081 163.096 161.071L162.351 161.083C161.973 161.048 161.624 160.866 161.379 160.577C161.133 160.288 161.011 159.915 161.037 159.536L160.994 157.008L160.868 157.01C160.789 157 160.717 156.959 160.667 156.897C160.617 156.835 160.594 156.755 160.601 156.676L160.595 156.289C160.584 156.21 160.605 156.13 160.653 156.066C160.701 156.001 160.771 155.958 160.85 155.945L160.976 155.943L160.97 155.591C160.977 155.478 160.94 155.366 160.866 155.28C160.793 155.194 160.688 155.14 160.575 155.13L151.381 155.286C151.268 155.3 151.166 155.358 151.095 155.446C151.024 155.535 150.991 155.648 151.002 155.761L151.153 164.661C151.147 164.773 151.184 164.884 151.258 164.97C151.332 165.055 151.436 165.109 151.548 165.119L163.161 164.922C163.217 164.917 163.271 164.901 163.321 164.875C163.37 164.849 163.414 164.814 163.449 164.77C163.485 164.727 163.511 164.677 163.527 164.624C163.542 164.57 163.547 164.514 163.54 164.458ZM152.065 157.16C151.986 157.15 151.914 157.109 151.864 157.047C151.814 156.984 151.791 156.905 151.798 156.825L151.792 156.438C151.781 156.359 151.802 156.279 151.85 156.215C151.898 156.151 151.968 156.108 152.047 156.095L152.308 156.091C152.387 156.101 152.459 156.142 152.509 156.204C152.559 156.266 152.582 156.346 152.575 156.425L152.581 156.811C152.592 156.89 152.571 156.97 152.523 157.034C152.475 157.098 152.405 157.142 152.326 157.155L152.065 157.16ZM153.323 157.139C153.244 157.128 153.172 157.088 153.122 157.025C153.072 156.963 153.049 156.883 153.056 156.804L153.05 156.417C153.039 156.338 153.06 156.258 153.108 156.194C153.156 156.13 153.226 156.087 153.305 156.074L153.566 156.069C153.645 156.079 153.717 156.12 153.767 156.183C153.817 156.245 153.84 156.324 153.833 156.404L153.839 156.79C153.85 156.869 153.829 156.949 153.781 157.013C153.733 157.077 153.663 157.12 153.584 157.133L153.323 157.139ZM154.581 157.117C154.502 157.107 154.43 157.066 154.38 157.004C154.33 156.941 154.307 156.862 154.314 156.783L154.308 156.396C154.297 156.316 154.318 156.236 154.366 156.172C154.414 156.108 154.484 156.065 154.563 156.052L154.824 156.048C154.903 156.058 154.975 156.099 155.025 156.161C155.075 156.224 155.098 156.303 155.091 156.382L155.097 156.768C155.108 156.847 155.087 156.928 155.039 156.992C154.991 157.056 154.921 157.099 154.842 157.112L154.581 157.117ZM155.839 157.096C155.76 157.085 155.688 157.045 155.638 156.982C155.588 156.92 155.565 156.841 155.572 156.761L155.566 156.374C155.555 156.295 155.576 156.215 155.624 156.151C155.672 156.087 155.742 156.044 155.821 156.031L156.081 156.026C156.16 156.037 156.232 156.077 156.282 156.14C156.332 156.202 156.355 156.282 156.348 156.361L156.354 156.747C156.365 156.826 156.344 156.906 156.296 156.97C156.248 157.034 156.178 157.077 156.099 157.09L155.839 157.096ZM157.097 157.074C157.018 157.064 156.946 157.023 156.896 156.961C156.846 156.899 156.823 156.819 156.83 156.74L156.824 156.353C156.813 156.274 156.834 156.194 156.882 156.13C156.93 156.066 157 156.022 157.079 156.009L157.339 156.005C157.418 156.015 157.49 156.056 157.54 156.118C157.59 156.181 157.613 156.26 157.606 156.34L157.612 156.726C157.623 156.805 157.602 156.885 157.554 156.949C157.506 157.013 157.436 157.056 157.357 157.069L157.097 157.074ZM158.355 157.053C158.276 157.043 158.204 157.002 158.154 156.94C158.104 156.877 158.081 156.798 158.088 156.718L158.082 156.331C158.071 156.252 158.092 156.172 158.139 156.108C158.186 156.044 158.256 156.001 158.335 155.987L158.595 155.983C158.674 155.993 158.746 156.034 158.796 156.096C158.846 156.158 158.869 156.238 158.862 156.317L158.868 156.703C158.878 156.782 158.858 156.862 158.81 156.926C158.762 156.991 158.692 157.034 158.613 157.047L158.355 157.053ZM159.613 157.032C159.534 157.021 159.462 156.981 159.412 156.918C159.362 156.856 159.339 156.777 159.346 156.697L159.34 156.31C159.329 156.231 159.35 156.15 159.398 156.086C159.445 156.022 159.516 155.979 159.595 155.966L159.854 155.961C159.933 155.972 160.005 156.012 160.055 156.075C160.105 156.137 160.128 156.216 160.121 156.296L160.127 156.682C160.137 156.761 160.117 156.841 160.069 156.905C160.021 156.969 159.951 157.012 159.872 157.025L159.613 157.032ZM152.188 164.3C152.109 164.29 152.037 164.249 151.987 164.187C151.938 164.124 151.914 164.045 151.922 163.965L151.915 163.579C151.905 163.5 151.926 163.42 151.973 163.356C152.021 163.292 152.092 163.249 152.17 163.236L152.431 163.232C152.51 163.242 152.583 163.283 152.632 163.345C152.682 163.407 152.706 163.487 152.698 163.566L152.705 163.952C152.715 164.031 152.694 164.111 152.646 164.175C152.599 164.239 152.528 164.282 152.449 164.296L152.188 164.3ZM153.446 164.279C153.367 164.268 153.295 164.228 153.245 164.165C153.196 164.103 153.172 164.023 153.18 163.944L153.173 163.558C153.163 163.479 153.184 163.399 153.231 163.335C153.279 163.271 153.35 163.228 153.428 163.215L153.687 163.21C153.766 163.22 153.839 163.261 153.888 163.324C153.938 163.386 153.962 163.465 153.954 163.545L153.961 163.931C153.971 164.01 153.95 164.09 153.902 164.154C153.855 164.218 153.784 164.261 153.705 164.274L153.446 164.279ZM154.704 164.257C154.625 164.247 154.553 164.206 154.503 164.144C154.454 164.081 154.43 164.002 154.438 163.923L154.431 163.537C154.421 163.457 154.442 163.377 154.489 163.313C154.537 163.249 154.608 163.206 154.686 163.193L154.945 163.189C155.024 163.199 155.097 163.24 155.146 163.302C155.196 163.365 155.22 163.444 155.212 163.523L155.219 163.909C155.229 163.988 155.208 164.069 155.16 164.133C155.113 164.197 155.042 164.24 154.963 164.253L154.704 164.257ZM155.962 164.236C155.883 164.225 155.811 164.185 155.761 164.122C155.712 164.06 155.688 163.981 155.696 163.901L155.689 163.515C155.679 163.436 155.7 163.356 155.747 163.292C155.795 163.228 155.866 163.185 155.944 163.172L156.202 163.167C156.281 163.178 156.354 163.218 156.403 163.281C156.453 163.343 156.477 163.423 156.469 163.502L156.476 163.888C156.486 163.967 156.465 164.047 156.417 164.111C156.37 164.175 156.299 164.218 156.22 164.231L155.962 164.236ZM157.22 164.214C157.141 164.204 157.069 164.163 157.019 164.101C156.97 164.039 156.946 163.959 156.954 163.88L156.947 163.494C156.937 163.415 156.958 163.335 157.005 163.271C157.053 163.207 157.124 163.163 157.202 163.15L157.46 163.146C157.539 163.156 157.612 163.197 157.661 163.259C157.711 163.322 157.735 163.401 157.727 163.481L157.734 163.867C157.744 163.946 157.723 164.026 157.675 164.09C157.628 164.154 157.557 164.197 157.478 164.21L157.22 164.214ZM158.478 164.193C158.399 164.183 158.327 164.142 158.277 164.08C158.228 164.017 158.204 163.938 158.212 163.858L158.205 163.472C158.195 163.394 158.215 163.314 158.262 163.25C158.308 163.186 158.378 163.142 158.456 163.128L158.716 163.124C158.796 163.134 158.869 163.174 158.919 163.237C158.969 163.299 158.993 163.379 158.985 163.459L158.992 163.845C159.002 163.924 158.981 164.004 158.933 164.068C158.886 164.133 158.815 164.176 158.736 164.189L158.478 164.193ZM159.736 164.172C159.657 164.161 159.585 164.121 159.535 164.058C159.486 163.996 159.462 163.917 159.47 163.837L159.463 163.451C159.453 163.372 159.473 163.292 159.52 163.228C159.567 163.164 159.638 163.12 159.716 163.107L159.975 163.102C160.055 163.113 160.127 163.153 160.177 163.216C160.226 163.279 160.25 163.358 160.242 163.438L160.249 163.824C160.259 163.903 160.238 163.983 160.19 164.047C160.143 164.111 160.072 164.154 159.993 164.167L159.736 164.172ZM160.994 164.15C160.915 164.14 160.843 164.099 160.793 164.037C160.744 163.974 160.72 163.895 160.728 163.816L160.721 163.43C160.711 163.351 160.732 163.27 160.779 163.206C160.827 163.142 160.898 163.099 160.976 163.086L161.233 163.082C161.312 163.092 161.385 163.133 161.434 163.195C161.484 163.258 161.508 163.337 161.5 163.416L161.507 163.802C161.517 163.882 161.496 163.962 161.448 164.026C161.401 164.09 161.33 164.133 161.251 164.146L160.994 164.15ZM162.252 164.129C162.173 164.119 162.101 164.078 162.051 164.015C162.002 163.953 161.978 163.874 161.986 163.794L161.979 163.408C161.969 163.329 161.99 163.249 162.037 163.185C162.085 163.121 162.156 163.078 162.234 163.065L162.491 163.06C162.568 163.078 162.637 163.122 162.684 163.186C162.731 163.249 162.754 163.327 162.748 163.406L162.755 163.795C162.765 163.874 162.744 163.954 162.697 164.018C162.649 164.083 162.578 164.126 162.5 164.139L162.248 164.143L162.252 164.129ZM163.54 164.458L163.491 161.532C163.498 161.419 163.461 161.307 163.387 161.221C163.313 161.135 163.209 161.081 163.096 161.071L162.351 161.083C161.973 161.048 161.624 160.866 161.379 160.577C161.133 160.288 161.011 159.915 161.037 159.536L160.994 157.008L160.868 157.01C160.789 157 160.717 156.959 160.667 156.897C160.617 156.835 160.594 156.755 160.601 156.676L160.595 156.289C160.584 156.21 160.605 156.13 160.653 156.066C160.701 156.001 160.771 155.958 160.85 155.945L160.976 155.943L160.97 155.591C160.977 155.478 160.94 155.366 160.866 155.28C160.793 155.194 160.688 155.14 160.575 155.13L151.381 155.286C151.268 155.3 151.166 155.358 151.095 155.446C151.024 155.535 150.991 155.648 151.002 155.761L151.153 164.661C151.147 164.773 151.184 164.884 151.258 164.97C151.332 165.055 151.436 165.109 151.548 165.119L163.161 164.922C163.217 164.917 163.271 164.901 163.321 164.875C163.37 164.849 163.414 164.814 163.449 164.77C163.485 164.727 163.511 164.677 163.527 164.624C163.542 164.57 163.547 164.514 163.54 164.458ZM152.065 157.16C151.986 157.15 151.914 157.109 151.864 157.047C151.814 156.984 151.791 156.905 151.798 156.825L151.792 156.438C151.781 156.359 151.802 156.279 151.85 156.215C151.898 156.151 151.968 156.108 152.047 156.095L152.308 156.091C152.387 156.101 152.459 156.142 152.509 156.204C152.559 156.266 152.582 156.346 152.575 156.425L152.581 156.811C152.592 156.89 152.571 156.97 152.523 157.034C152.475 157.098 152.405 157.142 152.326 157.155L152.065 157.16ZM153.323 157.139C153.244 157.128 153.172 157.088 153.122 157.025C153.072 156.963 153.049 156.883 153.056 156.804L153.05 156.417C153.039 156.338 153.06 156.258 153.108 156.194C153.156 156.13 153.226 156.087 153.305 156.074L153.566 156.069C153.645 156.079 153.717 156.12 153.767 156.183C153.817 156.245 153.84 156.324 153.833 156.404L153.839 156.79C153.85 156.869 153.829 156.949 153.781 157.013C153.733 157.077 153.663 157.12 153.584 157.133L153.323 157.139ZM154.581 157.117C154.502 157.107 154.43 157.066 154.38 157.004C154.33 156.941 154.307 156.862 154.314 156.783L154.308 156.396C154.297 156.316 154.318 156.236 154.366 156.172C154.414 156.108 154.484 156.065 154.563 156.052L154.824 156.048C154.903 156.058 154.975 156.099 155.025 156.161C155.075 156.224 155.098 156.303 155.091 156.382L155.097 156.768C155.108 156.847 155.087 156.928 155.039 156.992C154.991 157.056 154.921 157.099 154.842 157.112L154.581 157.117ZM155.839 157.096C155.76 157.085 155.688 157.045 155.638 156.982C155.588 156.92 155.565 156.841 155.572 156.761L155.566 156.374C155.555 156.295 155.576 156.215 155.624 156.151C155.672 156.087 155.742 156.044 155.821 156.031L156.081 156.026C156.16 156.037 156.232 156.077 156.282 156.14C156.332 156.202 156.355 156.282 156.348 156.361L156.354 156.747C156.365 156.826 156.344 156.906 156.296 156.97C156.248 157.034 156.178 157.077 156.099 157.09L155.839 157.096ZM157.097 157.074C157.018 157.064 156.946 157.023 156.896 156.961C156.846 156.899 156.823 156.819 156.83 156.74L156.824 156.353C156.813 156.274 156.834 156.194 156.882 156.13C156.93 156.066 157 156.022 157.079 156.009L157.339 156.005C157.418 156.015 157.49 156.056 157.54 156.118C157.59 156.181 157.613 156.26 157.606 156.34L157.612 156.726C157.623 156.805 157.602 156.885 157.554 156.949C157.506 157.013 157.436 157.056 157.357 157.069L157.097 157.074ZM158.355 157.053C158.276 157.043 158.204 157.002 158.154 156.94C158.104 156.877 158.081 156.798 158.088 156.718L158.082 156.331C158.071 156.252 158.092 156.172 158.139 156.108C158.186 156.044 158.256 156.001 158.335 155.987L158.595 155.983C158.674 155.993 158.746 156.034 158.796 156.096C158.846 156.158 158.869 156.238 158.862 156.317L158.868 156.703C158.878 156.782 158.858 156.862 158.81 156.926C158.762 156.991 158.692 157.034 158.613 157.047L158.355 157.053ZM159.613 157.032C159.534 157.021 159.462 156.981 159.412 156.918C159.362 156.856 159.339 156.777 159.346 156.697L159.34 156.31C159.329 156.231 159.35 156.15 159.398 156.086C159.445 156.022 159.516 155.979 159.595 155.966L159.854 155.961C159.933 155.972 160.005 156.012 160.055 156.075C160.105 156.137 160.128 156.216 160.121 156.296L160.127 156.682C160.137 156.761 160.117 156.841 160.069 156.905C160.021 156.969 159.951 157.012 159.872 157.025L159.613 157.032ZM152.188 164.3C152.109 164.29 152.037 164.249 151.987 164.187C151.938 164.124 151.914 164.045 151.922 163.965L151.915 163.579C151.905 163.5 151.926 163.42 151.973 163.356C152.021 163.292 152.092 163.249 152.17 163.236L152.431 163.232C152.51 163.242 152.583 163.283 152.632 163.345C152.682 163.407 152.706 163.487 152.698 163.566L152.705 163.952C152.715 164.031 152.694 164.111 152.646 164.175C152.599 164.239 152.528 164.282 152.449 164.296L152.188 164.3ZM153.446 164.279C153.367 164.268 153.295 164.228 153.245 164.165C153.196 164.103 153.172 164.023 153.18 163.944L153.173 163.558C153.163 163.479 153.184 163.399 153.231 163.335C153.279 163.271 153.35 163.228 153.428 163.215L153.687 163.21C153.766 163.22 153.839 163.261 153.888 163.324C153.938 163.386 153.962 163.465 153.954 163.545L153.961 163.931C153.971 164.01 153.95 164.09 153.902 164.154C153.855 164.218 153.784 164.261 153.705 164.274L153.446 164.279ZM154.704 164.257C154.625 164.247 154.553 164.206 154.503 164.144C154.454 164.081 154.43 164.002 154.438 163.923L154.431 163.537C154.421 163.457 154.442 163.377 154.489 163.313C154.537 163.249 154.608 163.206 154.686 163.193L154.945 163.189C155.024 163.199 155.097 163.24 155.146 163.302C155.196 163.365 155.22 163.444 155.212 163.523L155.219 163.909C155.229 163.988 155.208 164.069 155.16 164.133C155.113 164.197 155.042 164.24 154.963 164.253L154.704 164.257ZM155.962 164.236C155.883 164.225 155.811 164.185 155.761 164.122C155.712 164.06 155.688 163.981 155.696 163.901L155.689 163.515C155.679 163.436 155.7 163.356 155.747 163.292C155.795 163.228 155.866 163.185 155.944 163.172L156.202 163.167C156.281 163.178 156.354 163.218 156.403 163.281C156.453 163.343 156.477 163.423 156.469 163.502L156.476 163.888C156.486 163.967 156.465 164.047 156.417 164.111C156.37 164.175 156.299 164.218 156.22 164.231L155.962 164.236ZM157.22 164.214C157.141 164.204 157.069 164.163 157.019 164.101C156.97 164.039 156.946 163.959 156.954 163.88L156.947 163.494C156.937 163.415 156.958 163.335 157.005 163.271C157.053 163.207 157.124 163.163 157.202 163.15L157.46 163.146C157.539 163.156 157.612 163.197 157.661 163.259C157.711 163.322 157.735 163.401 157.727 163.481L157.734 163.867C157.744 163.946 157.723 164.026 157.675 164.09C157.628 164.154 157.557 164.197 157.478 164.21L157.22 164.214ZM158.478 164.193C158.399 164.183 158.327 164.142 158.277 164.08C158.228 164.017 158.204 163.938 158.212 163.858L158.205 163.472C158.195 163.394 158.215 163.314 158.262 163.25C158.308 163.186 158.378 163.142 158.456 163.128L158.716 163.124C158.796 163.134 158.869 163.174 158.919 163.237C158.969 163.299 158.993 163.379 158.985 163.459L158.992 163.845C159.002 163.924 158.981 164.004 158.933 164.068C158.886 164.133 158.815 164.176 158.736 164.189L158.478 164.193ZM159.736 164.172C159.657 164.161 159.585 164.121 159.535 164.058C159.486 163.996 159.462 163.917 159.47 163.837L159.463 163.451C159.453 163.372 159.473 163.292 159.52 163.228C159.567 163.164 159.638 163.12 159.716 163.107L159.975 163.102C160.055 163.113 160.127 163.153 160.177 163.216C160.226 163.279 160.25 163.358 160.242 163.438L160.249 163.824C160.259 163.903 160.238 163.983 160.19 164.047C160.143 164.111 160.072 164.154 159.993 164.167L159.736 164.172ZM160.994 164.15C160.915 164.14 160.843 164.099 160.793 164.037C160.744 163.974 160.72 163.895 160.728 163.816L160.721 163.43C160.711 163.351 160.732 163.27 160.779 163.206C160.827 163.142 160.898 163.099 160.976 163.086L161.233 163.082C161.312 163.092 161.385 163.133 161.434 163.195C161.484 163.258 161.508 163.337 161.5 163.416L161.507 163.802C161.517 163.882 161.496 163.962 161.448 164.026C161.401 164.09 161.33 164.133 161.251 164.146L160.994 164.15ZM162.252 164.129C162.173 164.119 162.101 164.078 162.051 164.015C162.002 163.953 161.978 163.874 161.986 163.794L161.979 163.408C161.969 163.329 161.99 163.249 162.037 163.185C162.085 163.121 162.156 163.078 162.234 163.065L162.491 163.06C162.568 163.078 162.637 163.122 162.684 163.186C162.731 163.249 162.754 163.327 162.748 163.406L162.755 163.795C162.765 163.874 162.744 163.954 162.697 164.018C162.649 164.083 162.578 164.126 162.5 164.139L162.248 164.143L162.252 164.129Z" fill="#2699FB"/>
<path d="M108.121 159.616C107.684 159.456 107.359 159.227 107.148 158.93C106.938 158.633 106.832 158.278 106.832 157.864C106.832 157.239 107.057 156.713 107.506 156.288C107.955 155.862 108.553 155.649 109.299 155.649C110.049 155.649 110.652 155.868 111.109 156.305C111.566 156.739 111.795 157.268 111.795 157.893C111.795 158.292 111.689 158.639 111.479 158.936C111.271 159.229 110.955 159.456 110.529 159.616C111.057 159.788 111.457 160.065 111.73 160.448C112.008 160.831 112.146 161.288 112.146 161.819C112.146 162.553 111.887 163.17 111.367 163.67C110.848 164.17 110.164 164.42 109.316 164.42C108.469 164.42 107.785 164.17 107.266 163.67C106.746 163.167 106.486 162.54 106.486 161.79C106.486 161.231 106.627 160.764 106.908 160.389C107.193 160.01 107.598 159.752 108.121 159.616ZM107.91 157.829C107.91 158.235 108.041 158.567 108.303 158.825C108.564 159.083 108.904 159.211 109.322 159.211C109.729 159.211 110.061 159.084 110.318 158.831C110.58 158.573 110.711 158.258 110.711 157.887C110.711 157.5 110.576 157.176 110.307 156.915C110.041 156.649 109.709 156.516 109.311 156.516C108.908 156.516 108.574 156.645 108.309 156.903C108.043 157.161 107.91 157.469 107.91 157.829ZM107.57 161.795C107.57 162.096 107.641 162.387 107.781 162.668C107.926 162.95 108.139 163.168 108.42 163.325C108.701 163.477 109.004 163.553 109.328 163.553C109.832 163.553 110.248 163.391 110.576 163.067C110.904 162.743 111.068 162.331 111.068 161.831C111.068 161.323 110.898 160.903 110.559 160.571C110.223 160.239 109.801 160.073 109.293 160.073C108.797 160.073 108.385 160.237 108.057 160.565C107.732 160.893 107.57 161.303 107.57 161.795ZM118.445 164.274L116.166 155.684H117.332L118.639 161.315C118.779 161.905 118.9 162.491 119.002 163.073C119.221 162.155 119.35 161.625 119.389 161.485L121.023 155.684H122.395L123.625 160.032C123.934 161.11 124.156 162.124 124.293 163.073C124.402 162.53 124.545 161.907 124.721 161.204L126.068 155.684H127.211L124.855 164.274H123.76L121.949 157.729C121.797 157.182 121.707 156.846 121.68 156.721C121.59 157.116 121.506 157.452 121.428 157.729L119.605 164.274H118.445Z" fill="#2699FB"/>
<path d="M102.371 161.228C102.35 161.207 102.326 161.191 102.299 161.18C102.271 161.168 102.242 161.163 102.213 161.163C102.184 161.163 102.155 161.168 102.127 161.18C102.1 161.191 102.076 161.207 102.055 161.228L101.266 162.017L100.477 161.228C100.456 161.207 100.432 161.191 100.405 161.18C100.377 161.169 100.348 161.163 100.319 161.163C100.29 161.163 100.261 161.169 100.234 161.18C100.206 161.191 100.182 161.207 100.161 161.228C100.14 161.249 100.124 161.274 100.113 161.301C100.101 161.328 100.096 161.357 100.096 161.386C100.096 161.416 100.101 161.445 100.113 161.472C100.124 161.499 100.14 161.523 100.161 161.544L100.95 162.333L100.161 163.122C100.119 163.164 100.096 163.221 100.096 163.28C100.096 163.339 100.119 163.396 100.161 163.438C100.203 163.48 100.26 163.504 100.319 163.504C100.378 163.504 100.435 163.48 100.477 163.438L101.266 162.649L102.055 163.438C102.097 163.48 102.154 163.504 102.213 163.504C102.272 163.504 102.329 163.48 102.371 163.438C102.413 163.396 102.436 163.339 102.436 163.28C102.436 163.221 102.413 163.164 102.371 163.122L101.582 162.333L102.371 161.544C102.392 161.524 102.408 161.499 102.42 161.472C102.431 161.445 102.437 161.416 102.437 161.386C102.437 161.357 102.431 161.328 102.42 161.301C102.408 161.274 102.392 161.249 102.371 161.228Z" fill="#2699FB"/>
<path d="M101.265 159.416C100.691 159.416 100.131 159.586 99.6538 159.905C99.1769 160.223 98.8052 160.676 98.5857 161.206C98.3662 161.736 98.3088 162.319 98.4207 162.882C98.5326 163.444 98.8088 163.961 99.2144 164.367C99.62 164.772 100.137 165.048 100.699 165.16C101.262 165.272 101.845 165.215 102.375 164.995C102.905 164.776 103.358 164.404 103.676 163.927C103.995 163.45 104.165 162.89 104.165 162.316C104.165 161.547 103.859 160.809 103.316 160.265C102.772 159.722 102.034 159.416 101.265 159.416ZM101.265 164.772C100.78 164.772 100.305 164.628 99.9014 164.358C99.4979 164.088 99.1834 163.705 98.9977 163.256C98.812 162.807 98.7635 162.314 98.8582 161.838C98.953 161.362 99.1868 160.924 99.53 160.581C99.8733 160.238 100.311 160.004 100.787 159.909C101.263 159.814 101.756 159.863 102.205 160.049C102.654 160.234 103.037 160.549 103.307 160.952C103.577 161.356 103.721 161.831 103.721 162.316C103.72 162.967 103.462 163.592 103.001 164.052C102.541 164.513 101.916 164.771 101.265 164.772Z" fill="#2699FB"/>
<path d="M102.605 155.116C102.605 155.057 102.582 155 102.54 154.958C102.498 154.916 102.441 154.893 102.382 154.893H101.266V154.223C101.266 154.164 101.243 154.107 101.201 154.065C101.159 154.023 101.102 154 101.043 154H99.481C99.4219 154 99.3651 154.023 99.3233 154.065C99.2815 154.107 99.258 154.164 99.258 154.223V154.893H94.348V154.223C94.348 154.194 94.3422 154.165 94.3309 154.137C94.3197 154.11 94.3031 154.086 94.2823 154.065C94.2615 154.044 94.2368 154.028 94.2096 154.017C94.1825 154.006 94.1534 154 94.124 154H92.562C92.5029 154 92.4461 154.023 92.4043 154.065C92.3625 154.107 92.339 154.164 92.339 154.223V154.893H91.223C91.1639 154.893 91.1071 154.916 91.0653 154.958C91.0235 155 91 155.057 91 155.116V157.124H102.605V155.116ZM93.905 155.116V155.786H92.785V154.446H93.9L93.905 155.116ZM100.824 155.116V155.786H99.7V154.446H100.82L100.824 155.116Z" fill="#2699FB"/>
<path d="M97.7 162.317C97.7013 161.587 97.9262 160.875 98.3446 160.276C98.7629 159.677 99.3546 159.221 100.04 158.969H99.258V157.184H101.043V158.758C101.117 158.758 101.191 158.747 101.266 158.747C101.725 158.747 102.18 158.837 102.605 159.01V156.068C102.605 156.009 102.582 155.952 102.54 155.911C102.498 155.869 102.441 155.845 102.382 155.845H91.223C91.1639 155.845 91.1071 155.869 91.0653 155.911C91.0235 155.952 91 156.009 91 156.068V164.768C91 164.827 91.0235 164.884 91.0653 164.926C91.1071 164.968 91.1639 164.991 91.223 164.991H98.912C98.5314 164.657 98.2264 164.246 98.0174 163.785C97.8084 163.324 97.7002 162.823 97.7 162.317ZM94.348 163.433H92.562V161.645H94.348V163.433ZM94.348 161.201H92.562V159.416H94.348V161.201ZM94.348 158.969H92.562V157.184H94.348V158.969ZM96.58 163.433H94.794V161.645H96.579L96.58 163.433ZM96.58 161.201H94.794V159.416H96.579L96.58 161.201ZM96.58 158.969H94.794V157.184H96.579L96.58 158.969ZM97.026 157.184H98.811V158.969H97.026V157.184Z" fill="#2699FB"/>
<path d="M49.4707 163.35H48.416V156.629C48.1621 156.872 47.8281 157.114 47.4141 157.356C47.0039 157.598 46.6348 157.78 46.3066 157.901V156.881C46.8965 156.604 47.4121 156.268 47.8535 155.874C48.2949 155.479 48.6074 155.096 48.791 154.725H49.4707V163.35ZM55.8984 163.35V154.76H57.0352V162.336H61.2656V163.35H55.8984Z" fill="#2699FB"/>
<path d="M37.467 162.316L34.667 157.982V154.498C34.667 154.425 34.6382 154.356 34.5868 154.304C34.5354 154.253 34.4657 154.224 34.393 154.224H33.018C32.9454 154.224 32.8757 154.253 32.8243 154.304C32.7729 154.356 32.744 154.425 32.744 154.498V157.99L30.187 162.335C30.0661 162.541 30.0016 162.774 30.0001 163.013C29.9986 163.251 30.0602 163.486 30.1786 163.693C30.2969 163.899 30.4679 164.071 30.6742 164.191C30.8804 164.31 31.1146 164.373 31.353 164.373H36.353C36.5928 164.373 36.8282 164.309 37.0343 164.186C37.2405 164.064 37.4098 163.888 37.5245 163.678C37.6391 163.467 37.6949 163.229 37.6858 162.99C37.6768 162.75 37.6033 162.517 37.473 162.316H37.467ZM36.347 163.825H31.347C31.2049 163.826 31.0649 163.79 30.9416 163.719C30.8182 163.649 30.7159 163.546 30.6453 163.423C30.5746 163.3 30.538 163.16 30.5394 163.017C30.5408 162.875 30.58 162.736 30.653 162.614L33.253 158.204C33.2779 158.162 33.291 158.114 33.291 158.065V154.773H34.114V158.065C34.114 158.118 34.1293 158.17 34.158 158.214L37.005 162.614C37.0815 162.733 37.1248 162.869 37.1301 163.01C37.1355 163.151 37.1028 163.291 37.0354 163.415C36.9681 163.539 36.8686 163.642 36.7475 163.714C36.6264 163.787 36.488 163.825 36.347 163.825Z" fill="#2699FB"/>
<path d="M33.952 159.181L33.479 158.903L31.15 162.862C31.1255 162.903 31.1124 162.951 31.1121 162.999C31.1119 163.048 31.1244 163.095 31.1485 163.137C31.1725 163.179 31.2073 163.214 31.2492 163.238C31.2911 163.262 31.3386 163.275 31.387 163.275H33.29V162.726H31.866L33.952 159.181Z" fill="#2699FB"/>
<path d="M42.505 157.515H38.229C37.9373 157.515 37.6575 157.631 37.4512 157.837C37.2449 158.044 37.129 158.323 37.129 158.615V163.004C37.1293 163.368 37.2739 163.717 37.5312 163.974C37.7884 164.231 38.1372 164.376 38.501 164.376H40.97C41.3338 164.376 41.6826 164.231 41.9399 163.974C42.1971 163.717 42.3418 163.368 42.342 163.004V159.277L42.971 158.648C43.0636 158.556 43.1267 158.437 43.1522 158.309C43.1777 158.181 43.1645 158.047 43.1143 157.926C43.064 157.805 42.9791 157.702 42.8701 157.629C42.7611 157.557 42.633 157.518 42.502 157.518L42.505 157.515ZM42.585 158.258L41.876 158.967C41.8506 158.993 41.8304 159.023 41.8167 159.056C41.803 159.089 41.796 159.125 41.796 159.161V163.002C41.796 163.22 41.7093 163.43 41.555 163.584C41.4006 163.738 41.1913 163.825 40.973 163.825H38.504C38.2858 163.825 38.0764 163.738 37.9221 163.584C37.7677 163.43 37.681 163.22 37.681 163.002V158.612C37.681 158.467 37.7389 158.327 37.8418 158.224C37.9448 158.121 38.0844 158.063 38.23 158.063H42.506C42.5284 158.063 42.5502 158.07 42.5687 158.083C42.5873 158.095 42.6017 158.113 42.6102 158.134C42.6187 158.154 42.621 158.177 42.6167 158.199C42.6124 158.221 42.6017 158.241 42.586 158.257L42.585 158.258Z" fill="#2699FB"/>
<path d="M40.699 159.161V162.728H39.874V163.277H40.974C41.0467 163.277 41.1164 163.248 41.1678 163.197C41.2192 163.145 41.248 163.076 41.248 163.003V159.162L40.699 159.161Z" fill="#2699FB"/>
<path d="M37.681 155.973V152.274C37.681 152.201 37.6521 152.132 37.6007 152.08C37.5494 152.029 37.4797 152 37.407 152H35.487C35.4143 152 35.3446 152.029 35.2932 152.08C35.2419 152.132 35.213 152.201 35.213 152.274V156.051C34.8783 156.154 34.5562 156.295 34.253 156.47L34.527 156.945C34.8493 156.759 35.1955 156.617 35.556 156.524C35.615 156.509 35.6673 156.475 35.7046 156.426C35.7419 156.378 35.7621 156.319 35.762 156.258V152.549H37.134V156.195C37.134 156.259 37.1563 156.321 37.1971 156.37C37.2378 156.419 37.2943 156.452 37.357 156.464C38.319 156.648 39.1841 157.168 39.797 157.932L40.225 157.589C39.5788 156.784 38.6843 156.216 37.681 155.973Z" fill="#2699FB"/>
<path d="M41.659 155.569C41.4691 155.569 41.2835 155.625 41.1256 155.731C40.9678 155.836 40.8447 155.986 40.772 156.161C40.6994 156.337 40.6804 156.53 40.7174 156.716C40.7545 156.902 40.8459 157.073 40.9801 157.208C41.1144 157.342 41.2855 157.433 41.4717 157.47C41.6579 157.507 41.8509 157.488 42.0264 157.416C42.2018 157.343 42.3517 157.22 42.4572 157.062C42.5627 156.904 42.619 156.719 42.619 156.529C42.619 156.274 42.5178 156.03 42.3378 155.85C42.1577 155.67 41.9136 155.569 41.659 155.569ZM41.659 156.941C41.5777 156.941 41.4982 156.917 41.4306 156.872C41.3631 156.826 41.3104 156.762 41.2793 156.687C41.2481 156.612 41.24 156.529 41.2559 156.45C41.2717 156.37 41.3109 156.297 41.3684 156.239C41.4258 156.182 41.4991 156.143 41.5788 156.127C41.6585 156.111 41.7412 156.119 41.8163 156.15C41.8914 156.181 41.9556 156.234 42.0007 156.302C42.0459 156.369 42.07 156.449 42.07 156.53C42.0686 156.638 42.0248 156.741 41.9478 156.817C41.8709 156.893 41.7671 156.936 41.659 156.936V156.941Z" fill="#2699FB"/>
<path d="M40.699 153.897C40.5362 153.897 40.3771 153.945 40.2417 154.036C40.1064 154.126 40.0009 154.255 39.9386 154.405C39.8763 154.555 39.86 154.721 39.8918 154.881C39.9236 155.04 40.0019 155.187 40.117 155.302C40.2321 155.417 40.3788 155.495 40.5384 155.527C40.698 155.559 40.8635 155.543 41.0139 155.48C41.1643 155.418 41.2928 155.313 41.3833 155.177C41.4737 155.042 41.522 154.883 41.522 154.72C41.522 154.502 41.4353 154.292 41.2809 154.138C41.1266 153.984 40.9173 153.897 40.699 153.897ZM40.699 154.997C40.6448 154.997 40.5918 154.981 40.5467 154.951C40.5017 154.921 40.4666 154.878 40.4458 154.828C40.4251 154.778 40.4197 154.723 40.4302 154.67C40.4408 154.616 40.4669 154.568 40.5052 154.529C40.5435 154.491 40.5924 154.465 40.6455 154.454C40.6987 154.444 40.7537 154.449 40.8038 154.47C40.8539 154.491 40.8967 154.526 40.9268 154.571C40.9569 154.616 40.973 154.669 40.973 154.723C40.9722 154.795 40.943 154.864 40.8917 154.915C40.8404 154.966 40.7711 154.994 40.699 154.994V154.997Z" fill="#2699FB"/>
<path d="M30.96 154.04C30.7701 154.04 30.5845 154.096 30.4267 154.202C30.2688 154.307 30.1457 154.457 30.0731 154.633C30.0004 154.808 29.9814 155.001 30.0184 155.187C30.0555 155.374 30.1469 155.545 30.2812 155.679C30.4154 155.813 30.5865 155.905 30.7727 155.942C30.9589 155.979 31.152 155.96 31.3274 155.887C31.5028 155.814 31.6527 155.691 31.7582 155.533C31.8637 155.376 31.92 155.19 31.92 155C31.92 154.745 31.8189 154.501 31.6388 154.321C31.4588 154.141 31.2146 154.04 30.96 154.04ZM30.96 155.412C30.8787 155.412 30.7992 155.388 30.7317 155.343C30.6641 155.298 30.6114 155.233 30.5803 155.158C30.5492 155.083 30.541 155.001 30.5569 154.921C30.5728 154.841 30.6119 154.768 30.6694 154.71C30.7269 154.653 30.8001 154.614 30.8798 154.598C30.9595 154.582 31.0422 154.59 31.1173 154.621C31.1924 154.652 31.2566 154.705 31.3017 154.773C31.3469 154.84 31.371 154.92 31.371 155.001C31.3697 155.109 31.3258 155.212 31.2489 155.288C31.1719 155.364 31.0681 155.407 30.96 155.407V155.412Z" fill="#2699FB"/>
<path d="M32.195 152.274C32.0322 152.274 31.8731 152.322 31.7378 152.413C31.6024 152.503 31.4969 152.632 31.4347 152.782C31.3724 152.932 31.3561 153.098 31.3878 153.257C31.4196 153.417 31.498 153.564 31.6131 153.679C31.7282 153.794 31.8748 153.872 32.0344 153.904C32.1941 153.936 32.3596 153.92 32.51 153.857C32.6603 153.795 32.7889 153.69 32.8793 153.554C32.9697 153.419 33.018 153.26 33.018 153.097C33.018 152.879 32.9313 152.669 32.777 152.515C32.6226 152.361 32.4133 152.274 32.195 152.274ZM32.195 153.374C32.1408 153.374 32.0878 153.358 32.0428 153.328C31.9977 153.298 31.9626 153.255 31.9419 153.205C31.9211 153.155 31.9157 153.1 31.9263 153.046C31.9368 152.993 31.9629 152.944 32.0013 152.906C32.0396 152.868 32.0884 152.842 32.1416 152.831C32.1947 152.821 32.2498 152.826 32.2999 152.847C32.3499 152.868 32.3927 152.903 32.4228 152.948C32.4529 152.993 32.469 153.046 32.469 153.1C32.4682 153.172 32.439 153.241 32.3877 153.292C32.3364 153.342 32.2672 153.371 32.195 153.371V153.374Z" fill="#2699FB"/>
<path d="M39.053 159.454H38.23V160.003H39.053V159.454Z" fill="#2699FB"/>
<path d="M38.779 160.483H38.23V161.032H38.779V160.483Z" fill="#2699FB"/>
<path d="M39.053 161.511H38.23V162.06H39.053V161.511Z" fill="#2699FB"/>
<path d="M38.779 162.453H38.23V163.002H38.779V162.453Z" fill="#2699FB"/>
<path d="M31.098 156.627H30.549V157.176H31.098V156.627Z" fill="#2699FB"/>
<path d="M31.921 157.912H31.372V158.461H31.921V157.912Z" fill="#2699FB"/>
<path d="M36.584 158.94H36.035V159.489H36.584V158.94Z" fill="#2699FB"/>
<path d="M36.035 157.912H35.486V158.461H36.035V157.912Z" fill="#2699FB"/>
<path d="M35.761 156.884H35.212V157.433H35.761V156.884Z" fill="#2699FB"/>
<path d="M36.035 162.453H35.486V163.002H36.035V162.453Z" fill="#2699FB"/>
<path d="M35.213 161.511H34.664V162.06H35.213V161.511Z" fill="#2699FB"/>
<defs>
<filter id="filter0_d" x="0" y="0" width="387" height="95" filterUnits="userSpaceOnUse" color-interpolation-filters="sRGB">
<feFlood flood-opacity="0" result="BackgroundImageFix"/>
<feColorMatrix in="SourceAlpha" type="matrix" values="0 0 0 0 0 0 0 0 0 0 0 0 0 0 0 0 0 0 127 0"/>
<feOffset dy="3"/>
<feGaussianBlur stdDeviation="3"/>
<feColorMatrix type="matrix" values="0 0 0 0 0 0 0 0 0 0 0 0 0 0 0 0 0 0 0.161 0"/>
<feBlend mode="normal" in2="BackgroundImageFix" result="effect1_dropShadow"/>
<feBlend mode="normal" in="SourceGraphic" in2="effect1_dropShadow" result="shape"/>
</filter>
</defs>
</svg>
