<svg width="387" height="815" viewBox="0 0 387 815" fill="none" xmlns="http://www.w3.org/2000/svg">
<path d="M381 3H6V815H381V3Z" fill="white"/>
<g filter="url(#filter0_d)">
<path d="M381 3H6V86H381V3Z" fill="white"/>
</g>
<path d="M62.4111 139V117.525H65.3262L76.6055 134.386V117.525H79.3301V139H76.415L65.1357 122.125V139H62.4111ZM94.4326 133.99L97.1572 134.327C96.7275 135.919 95.9316 137.154 94.7695 138.033C93.6074 138.912 92.123 139.352 90.3164 139.352C88.041 139.352 86.2344 138.653 84.8965 137.257C83.5684 135.851 82.9043 133.883 82.9043 131.354C82.9043 128.736 83.5781 126.705 84.9258 125.26C86.2734 123.814 88.0215 123.092 90.1699 123.092C92.25 123.092 93.9492 123.8 95.2676 125.216C96.5859 126.632 97.2451 128.624 97.2451 131.192C97.2451 131.349 97.2402 131.583 97.2305 131.896H85.6289C85.7266 133.604 86.21 134.913 87.0791 135.821C87.9482 136.729 89.0322 137.184 90.3311 137.184C91.2979 137.184 92.123 136.93 92.8066 136.422C93.4902 135.914 94.0322 135.104 94.4326 133.99ZM85.7754 129.728H94.4619C94.3447 128.419 94.0127 127.438 93.4658 126.783C92.626 125.768 91.5371 125.26 90.1992 125.26C88.9883 125.26 87.9678 125.665 87.1377 126.476C86.3174 127.286 85.8633 128.37 85.7754 129.728ZM103.354 139L98.5928 123.443H101.317L103.793 132.423L104.716 135.763C104.755 135.597 105.023 134.527 105.521 132.555L107.997 123.443H110.707L113.036 132.467L113.812 135.44L114.706 132.438L117.372 123.443H119.936L115.072 139H112.333L109.857 129.684L109.257 127.032L106.107 139H103.354ZM130.731 139V117.525H138.788C140.429 117.525 141.742 117.745 142.729 118.185C143.725 118.614 144.501 119.283 145.058 120.191C145.624 121.09 145.907 122.032 145.907 123.019C145.907 123.937 145.658 124.801 145.16 125.611C144.662 126.422 143.91 127.076 142.904 127.574C144.203 127.955 145.199 128.604 145.893 129.522C146.596 130.44 146.947 131.524 146.947 132.774C146.947 133.78 146.732 134.718 146.303 135.587C145.883 136.446 145.36 137.11 144.735 137.579C144.11 138.048 143.324 138.404 142.377 138.648C141.439 138.883 140.287 139 138.92 139H130.731ZM133.573 126.549H138.217C139.477 126.549 140.38 126.466 140.927 126.3C141.649 126.085 142.191 125.729 142.553 125.23C142.924 124.732 143.109 124.107 143.109 123.355C143.109 122.643 142.938 122.018 142.597 121.48C142.255 120.934 141.767 120.562 141.132 120.367C140.497 120.162 139.408 120.06 137.865 120.06H133.573V126.549ZM133.573 136.466H138.92C139.838 136.466 140.482 136.432 140.854 136.363C141.508 136.246 142.055 136.051 142.494 135.777C142.934 135.504 143.295 135.108 143.578 134.591C143.861 134.063 144.003 133.458 144.003 132.774C144.003 131.974 143.798 131.28 143.388 130.694C142.978 130.099 142.406 129.684 141.674 129.449C140.951 129.205 139.906 129.083 138.539 129.083H133.573V136.466ZM162.797 136.466C161.928 137.433 160.98 138.16 159.955 138.648C158.93 139.127 157.821 139.366 156.63 139.366C154.433 139.366 152.689 138.624 151.4 137.14C150.355 135.929 149.833 134.576 149.833 133.082C149.833 131.754 150.258 130.558 151.107 129.493C151.967 128.419 153.246 127.477 154.945 126.666C153.979 125.553 153.334 124.649 153.012 123.956C152.689 123.263 152.528 122.594 152.528 121.949C152.528 120.66 153.031 119.542 154.037 118.595C155.053 117.638 156.327 117.159 157.86 117.159C159.325 117.159 160.521 117.608 161.449 118.507C162.387 119.405 162.855 120.484 162.855 121.744C162.855 123.785 161.503 125.528 158.798 126.974L162.65 131.881C163.09 131.021 163.432 130.025 163.676 128.893L166.415 129.479C165.946 131.354 165.312 132.896 164.511 134.107C165.497 135.416 166.615 136.515 167.865 137.403L166.093 139.498C165.028 138.814 163.93 137.804 162.797 136.466ZM157.436 125.274C158.578 124.601 159.315 124.01 159.647 123.502C159.989 122.994 160.16 122.433 160.16 121.817C160.16 121.085 159.926 120.489 159.457 120.03C158.998 119.562 158.422 119.327 157.729 119.327C157.016 119.327 156.42 119.557 155.941 120.016C155.473 120.475 155.238 121.036 155.238 121.7C155.238 122.032 155.321 122.384 155.487 122.755C155.663 123.116 155.922 123.502 156.264 123.912L157.436 125.274ZM161.142 134.386L156.308 128.395C154.882 129.244 153.92 130.035 153.422 130.768C152.924 131.49 152.675 132.208 152.675 132.921C152.675 133.79 153.021 134.693 153.715 135.631C154.408 136.568 155.39 137.037 156.659 137.037C157.45 137.037 158.266 136.793 159.105 136.305C159.955 135.807 160.634 135.167 161.142 134.386ZM174.618 139L168.92 117.525H171.835L175.102 131.603C175.453 133.077 175.756 134.542 176.01 135.997C176.557 133.702 176.879 132.379 176.977 132.027L181.063 117.525H184.491L187.567 128.395C188.339 131.09 188.896 133.624 189.237 135.997C189.511 134.64 189.867 133.082 190.307 131.324L193.676 117.525H196.532L190.644 139H187.904L183.378 122.638C182.997 121.271 182.772 120.431 182.704 120.118C182.479 121.104 182.27 121.944 182.074 122.638L177.519 139H174.618ZM207.548 139V117.525H215.648C217.074 117.525 218.163 117.594 218.915 117.73C219.97 117.906 220.854 118.243 221.566 118.741C222.279 119.229 222.851 119.918 223.28 120.807C223.72 121.695 223.939 122.672 223.939 123.736C223.939 125.562 223.358 127.11 222.196 128.38C221.034 129.64 218.935 130.27 215.897 130.27H210.39V139H207.548ZM210.39 127.735H215.941C217.777 127.735 219.081 127.394 219.853 126.71C220.624 126.026 221.01 125.064 221.01 123.824C221.01 122.926 220.78 122.159 220.321 121.524C219.872 120.88 219.276 120.455 218.534 120.25C218.056 120.123 217.172 120.06 215.883 120.06H210.39V127.735ZM227.191 139V123.443H229.564V125.802C230.17 124.698 230.727 123.971 231.234 123.619C231.752 123.268 232.318 123.092 232.934 123.092C233.822 123.092 234.726 123.375 235.644 123.941L234.735 126.388C234.091 126.007 233.446 125.816 232.802 125.816C232.226 125.816 231.708 125.992 231.249 126.344C230.79 126.686 230.463 127.164 230.268 127.779C229.975 128.717 229.828 129.742 229.828 130.855V139H227.191ZM236.229 131.222C236.229 128.341 237.03 126.207 238.632 124.82C239.97 123.668 241.601 123.092 243.524 123.092C245.663 123.092 247.411 123.795 248.769 125.201C250.126 126.598 250.805 128.531 250.805 131.002C250.805 133.004 250.502 134.581 249.896 135.733C249.301 136.876 248.427 137.765 247.274 138.399C246.132 139.034 244.882 139.352 243.524 139.352C241.347 139.352 239.584 138.653 238.236 137.257C236.898 135.86 236.229 133.849 236.229 131.222ZM238.939 131.222C238.939 133.214 239.374 134.708 240.243 135.704C241.112 136.69 242.206 137.184 243.524 137.184C244.833 137.184 245.922 136.686 246.791 135.689C247.66 134.693 248.095 133.175 248.095 131.134C248.095 129.21 247.655 127.755 246.776 126.769C245.907 125.772 244.823 125.274 243.524 125.274C242.206 125.274 241.112 125.768 240.243 126.754C239.374 127.74 238.939 129.229 238.939 131.222ZM264.062 133.302L266.654 133.639C266.371 135.426 265.644 136.827 264.472 137.843C263.31 138.849 261.879 139.352 260.18 139.352C258.051 139.352 256.337 138.658 255.038 137.271C253.749 135.875 253.104 133.878 253.104 131.28C253.104 129.601 253.383 128.131 253.939 126.871C254.496 125.611 255.341 124.669 256.474 124.044C257.616 123.409 258.856 123.092 260.194 123.092C261.884 123.092 263.266 123.521 264.34 124.381C265.414 125.23 266.103 126.441 266.405 128.014L263.842 128.409C263.598 127.364 263.163 126.578 262.538 126.051C261.923 125.523 261.176 125.26 260.297 125.26C258.969 125.26 257.89 125.738 257.06 126.695C256.229 127.643 255.814 129.146 255.814 131.207C255.814 133.297 256.215 134.815 257.016 135.763C257.816 136.71 258.861 137.184 260.15 137.184C261.186 137.184 262.05 136.866 262.743 136.231C263.437 135.597 263.876 134.62 264.062 133.302ZM279.56 133.99L282.284 134.327C281.854 135.919 281.059 137.154 279.896 138.033C278.734 138.912 277.25 139.352 275.443 139.352C273.168 139.352 271.361 138.653 270.023 137.257C268.695 135.851 268.031 133.883 268.031 131.354C268.031 128.736 268.705 126.705 270.053 125.26C271.4 123.814 273.148 123.092 275.297 123.092C277.377 123.092 279.076 123.8 280.395 125.216C281.713 126.632 282.372 128.624 282.372 131.192C282.372 131.349 282.367 131.583 282.357 131.896H270.756C270.854 133.604 271.337 134.913 272.206 135.821C273.075 136.729 274.159 137.184 275.458 137.184C276.425 137.184 277.25 136.93 277.934 136.422C278.617 135.914 279.159 135.104 279.56 133.99ZM270.902 129.728H279.589C279.472 128.419 279.14 127.438 278.593 126.783C277.753 125.768 276.664 125.26 275.326 125.26C274.115 125.26 273.095 125.665 272.265 126.476C271.444 127.286 270.99 128.37 270.902 129.728ZM284.555 134.356L287.162 133.946C287.309 134.991 287.714 135.792 288.378 136.349C289.052 136.905 289.989 137.184 291.19 137.184C292.401 137.184 293.3 136.939 293.886 136.451C294.472 135.953 294.765 135.372 294.765 134.708C294.765 134.112 294.506 133.644 293.988 133.302C293.627 133.067 292.729 132.77 291.293 132.408C289.359 131.92 288.017 131.5 287.265 131.148C286.522 130.787 285.956 130.294 285.565 129.669C285.185 129.034 284.994 128.336 284.994 127.574C284.994 126.881 285.15 126.241 285.463 125.655C285.785 125.06 286.22 124.566 286.767 124.176C287.177 123.873 287.733 123.619 288.437 123.414C289.149 123.199 289.911 123.092 290.722 123.092C291.942 123.092 293.012 123.268 293.93 123.619C294.857 123.971 295.541 124.449 295.98 125.055C296.42 125.65 296.723 126.451 296.889 127.457L294.311 127.809C294.193 127.008 293.852 126.383 293.285 125.934C292.729 125.484 291.938 125.26 290.912 125.26C289.701 125.26 288.837 125.46 288.319 125.86C287.802 126.261 287.543 126.729 287.543 127.267C287.543 127.608 287.65 127.916 287.865 128.189C288.08 128.473 288.417 128.707 288.876 128.893C289.14 128.99 289.916 129.215 291.205 129.566C293.07 130.064 294.369 130.475 295.102 130.797C295.844 131.109 296.425 131.568 296.845 132.174C297.265 132.779 297.475 133.531 297.475 134.43C297.475 135.309 297.216 136.139 296.698 136.92C296.19 137.691 295.453 138.292 294.486 138.722C293.52 139.142 292.426 139.352 291.205 139.352C289.184 139.352 287.641 138.932 286.576 138.092C285.521 137.252 284.848 136.007 284.555 134.356ZM299.555 134.356L302.162 133.946C302.309 134.991 302.714 135.792 303.378 136.349C304.052 136.905 304.989 137.184 306.19 137.184C307.401 137.184 308.3 136.939 308.886 136.451C309.472 135.953 309.765 135.372 309.765 134.708C309.765 134.112 309.506 133.644 308.988 133.302C308.627 133.067 307.729 132.77 306.293 132.408C304.359 131.92 303.017 131.5 302.265 131.148C301.522 130.787 300.956 130.294 300.565 129.669C300.185 129.034 299.994 128.336 299.994 127.574C299.994 126.881 300.15 126.241 300.463 125.655C300.785 125.06 301.22 124.566 301.767 124.176C302.177 123.873 302.733 123.619 303.437 123.414C304.149 123.199 304.911 123.092 305.722 123.092C306.942 123.092 308.012 123.268 308.93 123.619C309.857 123.971 310.541 124.449 310.98 125.055C311.42 125.65 311.723 126.451 311.889 127.457L309.311 127.809C309.193 127.008 308.852 126.383 308.285 125.934C307.729 125.484 306.938 125.26 305.912 125.26C304.701 125.26 303.837 125.46 303.319 125.86C302.802 126.261 302.543 126.729 302.543 127.267C302.543 127.608 302.65 127.916 302.865 128.189C303.08 128.473 303.417 128.707 303.876 128.893C304.14 128.99 304.916 129.215 306.205 129.566C308.07 130.064 309.369 130.475 310.102 130.797C310.844 131.109 311.425 131.568 311.845 132.174C312.265 132.779 312.475 133.531 312.475 134.43C312.475 135.309 312.216 136.139 311.698 136.92C311.19 137.691 310.453 138.292 309.486 138.722C308.52 139.142 307.426 139.352 306.205 139.352C304.184 139.352 302.641 138.932 301.576 138.092C300.521 137.252 299.848 136.007 299.555 134.356Z" fill="#2699FB"/>
<g filter="url(#filter1_d)">
<path d="M358 177H30V233H358V177Z" fill="white"/>
</g>
<path d="M358 252H30V302H358V252Z" fill="white"/>
<path d="M357.5 252.5H30.5V301.5H357.5V252.5Z" stroke="#BCE0FD"/>
<path d="M50.6289 277.78L51.8799 277.671C51.9391 278.172 52.0758 278.585 52.29 278.908C52.5088 279.227 52.846 279.487 53.3018 279.688C53.7575 279.883 54.2702 279.981 54.8398 279.981C55.3457 279.981 55.7923 279.906 56.1797 279.756C56.5671 279.605 56.8542 279.4 57.041 279.141C57.2324 278.876 57.3281 278.589 57.3281 278.279C57.3281 277.965 57.237 277.691 57.0547 277.459C56.8724 277.222 56.5716 277.024 56.1523 276.864C55.8835 276.759 55.2887 276.598 54.3682 276.379C53.4476 276.156 52.8027 275.946 52.4336 275.75C51.9551 275.499 51.5973 275.189 51.3604 274.82C51.1279 274.447 51.0117 274.03 51.0117 273.569C51.0117 273.063 51.1553 272.592 51.4424 272.154C51.7295 271.712 52.1488 271.377 52.7002 271.149C53.2516 270.922 53.8646 270.808 54.5391 270.808C55.2819 270.808 55.9359 270.928 56.501 271.17C57.0706 271.407 57.5081 271.758 57.8135 272.223C58.1188 272.688 58.2829 273.214 58.3057 273.802L57.0342 273.897C56.9658 273.264 56.7334 272.785 56.3369 272.462C55.945 272.138 55.3639 271.977 54.5938 271.977C53.7917 271.977 53.2061 272.125 52.8369 272.421C52.4723 272.713 52.29 273.066 52.29 273.48C52.29 273.84 52.4199 274.137 52.6797 274.369C52.9349 274.602 53.6003 274.841 54.6758 275.087C55.7559 275.328 56.4964 275.54 56.8975 275.723C57.4808 275.992 57.9115 276.333 58.1895 276.748C58.4674 277.158 58.6064 277.632 58.6064 278.17C58.6064 278.703 58.4538 279.207 58.1484 279.681C57.8431 280.15 57.4033 280.517 56.8291 280.781C56.2594 281.041 55.6169 281.171 54.9014 281.171C53.9945 281.171 53.2334 281.039 52.6182 280.774C52.0075 280.51 51.5267 280.114 51.1758 279.585C50.8294 279.052 50.6471 278.45 50.6289 277.78ZM65.2305 278.662L66.502 278.819C66.3014 279.562 65.93 280.139 65.3877 280.549C64.8454 280.959 64.1527 281.164 63.3096 281.164C62.2477 281.164 61.4046 280.838 60.7803 280.187C60.1605 279.53 59.8506 278.612 59.8506 277.432C59.8506 276.21 60.165 275.262 60.7939 274.588C61.4229 273.913 62.2386 273.576 63.2412 273.576C64.2119 273.576 65.0049 273.907 65.6201 274.567C66.2354 275.228 66.543 276.158 66.543 277.356C66.543 277.429 66.5407 277.539 66.5361 277.685H61.1221C61.1676 278.482 61.3932 279.093 61.7988 279.517C62.2044 279.94 62.7103 280.152 63.3164 280.152C63.7676 280.152 64.1527 280.034 64.4717 279.797C64.7907 279.56 65.0436 279.182 65.2305 278.662ZM61.1904 276.673H65.2441C65.1895 276.062 65.0345 275.604 64.7793 275.299C64.3874 274.825 63.8792 274.588 63.2549 274.588C62.6898 274.588 62.2135 274.777 61.8262 275.155C61.4434 275.534 61.2314 276.039 61.1904 276.673ZM68.0264 281V270.979H69.2568V281H68.0264ZM76.1406 278.662L77.4121 278.819C77.2116 279.562 76.8402 280.139 76.2979 280.549C75.7555 280.959 75.0628 281.164 74.2197 281.164C73.1579 281.164 72.3148 280.838 71.6904 280.187C71.0706 279.53 70.7607 278.612 70.7607 277.432C70.7607 276.21 71.0752 275.262 71.7041 274.588C72.333 273.913 73.1488 273.576 74.1514 273.576C75.1221 273.576 75.915 273.907 76.5303 274.567C77.1455 275.228 77.4531 276.158 77.4531 277.356C77.4531 277.429 77.4508 277.539 77.4463 277.685H72.0322C72.0778 278.482 72.3034 279.093 72.709 279.517C73.1146 279.94 73.6204 280.152 74.2266 280.152C74.6777 280.152 75.0628 280.034 75.3818 279.797C75.7008 279.56 75.9538 279.182 76.1406 278.662ZM72.1006 276.673H76.1543C76.0996 276.062 75.9447 275.604 75.6895 275.299C75.2975 274.825 74.7894 274.588 74.165 274.588C73.5999 274.588 73.1237 274.777 72.7363 275.155C72.3535 275.534 72.1416 276.039 72.1006 276.673ZM83.7012 278.341L84.9111 278.498C84.779 279.332 84.4395 279.986 83.8926 280.46C83.3503 280.929 82.6826 281.164 81.8896 281.164C80.8962 281.164 80.0964 280.84 79.4902 280.193C78.8887 279.542 78.5879 278.61 78.5879 277.397C78.5879 276.614 78.7178 275.928 78.9775 275.34C79.2373 274.752 79.6315 274.312 80.1602 274.021C80.6934 273.724 81.2721 273.576 81.8965 273.576C82.6849 273.576 83.3298 273.777 83.8311 274.178C84.3324 274.574 84.6536 275.139 84.7949 275.873L83.5986 276.058C83.4847 275.57 83.2819 275.203 82.9902 274.957C82.7031 274.711 82.3545 274.588 81.9443 274.588C81.3245 274.588 80.821 274.811 80.4336 275.258C80.0462 275.7 79.8525 276.402 79.8525 277.363C79.8525 278.339 80.0394 279.047 80.4131 279.489C80.7868 279.931 81.2744 280.152 81.876 280.152C82.359 280.152 82.7624 280.004 83.0859 279.708C83.4095 279.412 83.6146 278.956 83.7012 278.341ZM88.6504 279.899L88.8281 280.986C88.4818 281.059 88.1719 281.096 87.8984 281.096C87.4518 281.096 87.1055 281.025 86.8594 280.884C86.6133 280.743 86.4401 280.558 86.3398 280.33C86.2396 280.098 86.1895 279.612 86.1895 278.874V274.697H85.2871V273.74H86.1895V271.942L87.4131 271.204V273.74H88.6504V274.697H87.4131V278.942C87.4131 279.293 87.4336 279.519 87.4746 279.619C87.5202 279.719 87.5908 279.799 87.6865 279.858C87.7868 279.918 87.9281 279.947 88.1104 279.947C88.2471 279.947 88.4271 279.931 88.6504 279.899ZM98.4941 280.104C98.0384 280.492 97.5986 280.765 97.1748 280.925C96.7555 281.084 96.3044 281.164 95.8213 281.164C95.0238 281.164 94.4108 280.97 93.9824 280.583C93.554 280.191 93.3398 279.692 93.3398 279.086C93.3398 278.73 93.4196 278.407 93.5791 278.115C93.7432 277.819 93.9551 277.582 94.2148 277.404C94.4792 277.227 94.7754 277.092 95.1035 277.001C95.3451 276.937 95.7096 276.876 96.1973 276.816C97.1908 276.698 97.9222 276.557 98.3916 276.393C98.3962 276.224 98.3984 276.117 98.3984 276.071C98.3984 275.57 98.2822 275.217 98.0498 275.012C97.7354 274.734 97.2682 274.595 96.6484 274.595C96.0697 274.595 95.6413 274.697 95.3633 274.902C95.0898 275.103 94.887 275.461 94.7549 275.976L93.5518 275.812C93.6611 275.297 93.8411 274.882 94.0918 274.567C94.3424 274.248 94.7048 274.005 95.1787 273.836C95.6527 273.663 96.2018 273.576 96.8262 273.576C97.446 273.576 97.9495 273.649 98.3369 273.795C98.7243 273.941 99.0091 274.125 99.1914 274.349C99.3737 274.567 99.5013 274.845 99.5742 275.183C99.6152 275.392 99.6357 275.771 99.6357 276.317V277.958C99.6357 279.102 99.6608 279.826 99.7109 280.132C99.7656 280.433 99.8704 280.722 100.025 281H98.7402C98.6126 280.745 98.5306 280.446 98.4941 280.104ZM98.3916 277.356C97.945 277.539 97.2751 277.694 96.3818 277.821C95.876 277.894 95.5182 277.976 95.3086 278.067C95.099 278.159 94.9372 278.293 94.8232 278.471C94.7093 278.644 94.6523 278.838 94.6523 279.052C94.6523 279.38 94.7754 279.653 95.0215 279.872C95.2721 280.091 95.6367 280.2 96.1152 280.2C96.5892 280.2 97.0107 280.098 97.3799 279.893C97.749 279.683 98.0202 279.398 98.1934 279.038C98.3255 278.76 98.3916 278.35 98.3916 277.808V277.356ZM106.581 281H105.439V270.979H106.67V274.554C107.189 273.902 107.853 273.576 108.659 273.576C109.106 273.576 109.527 273.667 109.924 273.85C110.325 274.027 110.653 274.28 110.908 274.608C111.168 274.932 111.371 275.324 111.517 275.784C111.662 276.244 111.735 276.737 111.735 277.261C111.735 278.505 111.428 279.466 110.812 280.146C110.197 280.825 109.459 281.164 108.598 281.164C107.741 281.164 107.069 280.806 106.581 280.091V281ZM106.567 277.315C106.567 278.186 106.686 278.815 106.923 279.202C107.31 279.836 107.834 280.152 108.495 280.152C109.033 280.152 109.498 279.92 109.89 279.455C110.282 278.986 110.478 278.288 110.478 277.363C110.478 276.415 110.288 275.716 109.91 275.265C109.536 274.813 109.083 274.588 108.55 274.588C108.012 274.588 107.547 274.823 107.155 275.292C106.763 275.757 106.567 276.431 106.567 277.315ZM113.226 281V273.74H114.333V274.841C114.616 274.326 114.875 273.986 115.112 273.822C115.354 273.658 115.618 273.576 115.905 273.576C116.32 273.576 116.742 273.708 117.17 273.973L116.746 275.114C116.445 274.937 116.145 274.848 115.844 274.848C115.575 274.848 115.333 274.93 115.119 275.094C114.905 275.253 114.752 275.477 114.661 275.764C114.524 276.201 114.456 276.68 114.456 277.199V281H113.226ZM122.639 280.104C122.183 280.492 121.743 280.765 121.319 280.925C120.9 281.084 120.449 281.164 119.966 281.164C119.168 281.164 118.555 280.97 118.127 280.583C117.699 280.191 117.484 279.692 117.484 279.086C117.484 278.73 117.564 278.407 117.724 278.115C117.888 277.819 118.1 277.582 118.359 277.404C118.624 277.227 118.92 277.092 119.248 277.001C119.49 276.937 119.854 276.876 120.342 276.816C121.335 276.698 122.067 276.557 122.536 276.393C122.541 276.224 122.543 276.117 122.543 276.071C122.543 275.57 122.427 275.217 122.194 275.012C121.88 274.734 121.413 274.595 120.793 274.595C120.214 274.595 119.786 274.697 119.508 274.902C119.234 275.103 119.032 275.461 118.899 275.976L117.696 275.812C117.806 275.297 117.986 274.882 118.236 274.567C118.487 274.248 118.849 274.005 119.323 273.836C119.797 273.663 120.346 273.576 120.971 273.576C121.59 273.576 122.094 273.649 122.481 273.795C122.869 273.941 123.154 274.125 123.336 274.349C123.518 274.567 123.646 274.845 123.719 275.183C123.76 275.392 123.78 275.771 123.78 276.317V277.958C123.78 279.102 123.805 279.826 123.855 280.132C123.91 280.433 124.015 280.722 124.17 281H122.885C122.757 280.745 122.675 280.446 122.639 280.104ZM122.536 277.356C122.09 277.539 121.42 277.694 120.526 277.821C120.021 277.894 119.663 277.976 119.453 278.067C119.243 278.159 119.082 278.293 118.968 278.471C118.854 278.644 118.797 278.838 118.797 279.052C118.797 279.38 118.92 279.653 119.166 279.872C119.417 280.091 119.781 280.2 120.26 280.2C120.734 280.2 121.155 280.098 121.524 279.893C121.894 279.683 122.165 279.398 122.338 279.038C122.47 278.76 122.536 278.35 122.536 277.808V277.356ZM125.694 281V273.74H126.802V274.772C127.335 273.975 128.105 273.576 129.112 273.576C129.55 273.576 129.951 273.656 130.315 273.815C130.685 273.97 130.96 274.175 131.143 274.431C131.325 274.686 131.452 274.989 131.525 275.34C131.571 275.568 131.594 275.966 131.594 276.536V281H130.363V276.584C130.363 276.083 130.315 275.709 130.22 275.463C130.124 275.212 129.953 275.014 129.707 274.868C129.465 274.718 129.181 274.643 128.853 274.643C128.328 274.643 127.875 274.809 127.492 275.142C127.114 275.474 126.925 276.105 126.925 277.035V281H125.694ZM138.197 281V280.084C137.737 280.804 137.06 281.164 136.167 281.164C135.588 281.164 135.055 281.005 134.567 280.686C134.084 280.367 133.708 279.922 133.439 279.353C133.175 278.778 133.043 278.12 133.043 277.377C133.043 276.652 133.164 275.996 133.405 275.408C133.647 274.816 134.009 274.362 134.492 274.048C134.975 273.733 135.515 273.576 136.112 273.576C136.55 273.576 136.939 273.67 137.281 273.856C137.623 274.039 137.901 274.278 138.115 274.574V270.979H139.339V281H138.197ZM134.308 277.377C134.308 278.307 134.504 279.002 134.896 279.462C135.287 279.922 135.75 280.152 136.283 280.152C136.821 280.152 137.277 279.934 137.65 279.496C138.029 279.054 138.218 278.382 138.218 277.479C138.218 276.486 138.026 275.757 137.644 275.292C137.261 274.827 136.789 274.595 136.229 274.595C135.682 274.595 135.224 274.818 134.854 275.265C134.49 275.711 134.308 276.415 134.308 277.377Z" fill="#2699FB"/>
<path d="M331.7 280.101L327 275.401L328.4 274.001L331.7 277.301L335 274.001L336.4 275.401L331.7 280.101Z" fill="#2699FB"/>
<path d="M134.64 205.98L136.534 206.459C136.137 208.015 135.421 209.203 134.386 210.023C133.357 210.837 132.098 211.244 130.607 211.244C129.064 211.244 127.807 210.932 126.837 210.307C125.874 209.675 125.138 208.764 124.63 207.572C124.129 206.381 123.878 205.102 123.878 203.734C123.878 202.243 124.161 200.945 124.728 199.838C125.301 198.725 126.111 197.882 127.159 197.309C128.214 196.729 129.373 196.439 130.636 196.439C132.068 196.439 133.273 196.804 134.249 197.533C135.226 198.262 135.906 199.288 136.29 200.609L134.425 201.049C134.093 200.007 133.611 199.249 132.98 198.773C132.348 198.298 131.554 198.061 130.597 198.061C129.497 198.061 128.575 198.324 127.833 198.852C127.098 199.379 126.58 200.089 126.281 200.98C125.981 201.866 125.831 202.781 125.831 203.725C125.831 204.942 126.007 206.007 126.359 206.918C126.717 207.823 127.27 208.5 128.019 208.949C128.767 209.398 129.578 209.623 130.45 209.623C131.512 209.623 132.41 209.317 133.146 208.705C133.881 208.093 134.379 207.185 134.64 205.98ZM145.45 211V209.477C144.643 210.648 143.546 211.234 142.159 211.234C141.547 211.234 140.975 211.117 140.441 210.883C139.913 210.648 139.519 210.355 139.259 210.004C139.005 209.646 138.826 209.21 138.722 208.695C138.65 208.35 138.615 207.803 138.615 207.055V200.629H140.372V206.381C140.372 207.299 140.408 207.917 140.48 208.236C140.59 208.699 140.825 209.063 141.183 209.33C141.541 209.59 141.984 209.721 142.511 209.721C143.038 209.721 143.533 209.587 143.995 209.32C144.458 209.047 144.783 208.679 144.972 208.217C145.167 207.748 145.265 207.071 145.265 206.186V200.629H147.023V211H145.45ZM149.083 207.904L150.822 207.631C150.919 208.327 151.189 208.861 151.632 209.232C152.081 209.604 152.706 209.789 153.507 209.789C154.314 209.789 154.913 209.626 155.304 209.301C155.695 208.969 155.89 208.581 155.89 208.139C155.89 207.742 155.717 207.429 155.372 207.201C155.131 207.045 154.532 206.846 153.575 206.605C152.286 206.28 151.391 206 150.89 205.766C150.395 205.525 150.017 205.196 149.757 204.779C149.503 204.356 149.376 203.891 149.376 203.383C149.376 202.921 149.48 202.494 149.689 202.104C149.904 201.706 150.193 201.378 150.558 201.117C150.831 200.915 151.202 200.746 151.671 200.609C152.146 200.466 152.654 200.395 153.195 200.395C154.008 200.395 154.721 200.512 155.333 200.746C155.952 200.98 156.407 201.299 156.7 201.703C156.993 202.1 157.195 202.634 157.306 203.305L155.587 203.539C155.509 203.005 155.281 202.589 154.904 202.289C154.532 201.99 154.005 201.84 153.322 201.84C152.514 201.84 151.938 201.973 151.593 202.24C151.248 202.507 151.075 202.82 151.075 203.178C151.075 203.406 151.147 203.611 151.29 203.793C151.434 203.982 151.658 204.138 151.964 204.262C152.14 204.327 152.657 204.477 153.517 204.711C154.76 205.043 155.626 205.316 156.115 205.531C156.609 205.74 156.997 206.046 157.277 206.449C157.557 206.853 157.697 207.354 157.697 207.953C157.697 208.539 157.524 209.092 157.179 209.613C156.84 210.128 156.349 210.528 155.704 210.814C155.06 211.094 154.331 211.234 153.517 211.234C152.169 211.234 151.141 210.954 150.431 210.395C149.728 209.835 149.279 209.005 149.083 207.904ZM163.624 209.428L163.878 210.98C163.383 211.085 162.941 211.137 162.55 211.137C161.912 211.137 161.417 211.036 161.066 210.834C160.714 210.632 160.467 210.368 160.323 210.043C160.18 209.711 160.109 209.018 160.109 207.963V201.996H158.82V200.629H160.109V198.061L161.857 197.006V200.629H163.624V201.996H161.857V208.061C161.857 208.562 161.886 208.884 161.945 209.027C162.01 209.171 162.111 209.285 162.247 209.369C162.391 209.454 162.592 209.496 162.853 209.496C163.048 209.496 163.305 209.473 163.624 209.428ZM164.698 205.814C164.698 203.894 165.232 202.471 166.3 201.547C167.192 200.779 168.279 200.395 169.562 200.395C170.988 200.395 172.153 200.863 173.058 201.801C173.963 202.732 174.415 204.021 174.415 205.668C174.415 207.003 174.213 208.054 173.81 208.822C173.413 209.584 172.83 210.176 172.062 210.6C171.3 211.023 170.467 211.234 169.562 211.234C168.11 211.234 166.935 210.769 166.036 209.838C165.144 208.907 164.698 207.566 164.698 205.814ZM166.505 205.814C166.505 207.143 166.795 208.139 167.374 208.803C167.954 209.46 168.683 209.789 169.562 209.789C170.434 209.789 171.16 209.457 171.74 208.793C172.319 208.129 172.609 207.117 172.609 205.756C172.609 204.473 172.316 203.503 171.73 202.846C171.15 202.182 170.428 201.85 169.562 201.85C168.683 201.85 167.954 202.178 167.374 202.836C166.795 203.493 166.505 204.486 166.505 205.814ZM176.486 211V200.629H178.058V202.084C178.383 201.576 178.816 201.169 179.357 200.863C179.897 200.551 180.512 200.395 181.202 200.395C181.971 200.395 182.599 200.554 183.087 200.873C183.582 201.192 183.93 201.638 184.132 202.211C184.952 201 186.02 200.395 187.335 200.395C188.364 200.395 189.155 200.681 189.708 201.254C190.262 201.82 190.538 202.696 190.538 203.881V211H188.79V204.467C188.79 203.764 188.732 203.259 188.615 202.953C188.504 202.641 188.299 202.39 187.999 202.201C187.7 202.012 187.348 201.918 186.945 201.918C186.215 201.918 185.61 202.162 185.128 202.65C184.646 203.132 184.406 203.907 184.406 204.975V211H182.648V204.262C182.648 203.48 182.504 202.895 182.218 202.504C181.932 202.113 181.463 201.918 180.812 201.918C180.317 201.918 179.858 202.048 179.435 202.309C179.018 202.569 178.715 202.95 178.527 203.451C178.338 203.952 178.243 204.675 178.243 205.619V211H176.486ZM198.937 211V196.684H204.337C205.288 196.684 206.014 196.729 206.515 196.82C207.218 196.938 207.807 197.162 208.282 197.494C208.758 197.82 209.139 198.279 209.425 198.871C209.718 199.464 209.865 200.115 209.865 200.824C209.865 202.042 209.477 203.074 208.702 203.92C207.928 204.76 206.528 205.18 204.503 205.18H200.831V211H198.937ZM200.831 203.49H204.532C205.756 203.49 206.626 203.262 207.14 202.807C207.654 202.351 207.911 201.71 207.911 200.883C207.911 200.284 207.758 199.773 207.452 199.35C207.153 198.92 206.756 198.637 206.261 198.5C205.942 198.415 205.353 198.373 204.493 198.373H200.831V203.49ZM212.032 211V200.629H213.615V202.201C214.018 201.465 214.389 200.98 214.728 200.746C215.073 200.512 215.45 200.395 215.861 200.395C216.453 200.395 217.055 200.583 217.667 200.961L217.062 202.592C216.632 202.338 216.202 202.211 215.773 202.211C215.389 202.211 215.044 202.328 214.738 202.562C214.432 202.79 214.213 203.109 214.083 203.52C213.888 204.145 213.79 204.828 213.79 205.57V211H212.032ZM218.058 205.814C218.058 203.894 218.592 202.471 219.659 201.547C220.551 200.779 221.639 200.395 222.921 200.395C224.347 200.395 225.512 200.863 226.417 201.801C227.322 202.732 227.775 204.021 227.775 205.668C227.775 207.003 227.573 208.054 227.169 208.822C226.772 209.584 226.189 210.176 225.421 210.6C224.659 211.023 223.826 211.234 222.921 211.234C221.469 211.234 220.294 210.769 219.396 209.838C218.504 208.907 218.058 207.566 218.058 205.814ZM219.865 205.814C219.865 207.143 220.154 208.139 220.734 208.803C221.313 209.46 222.042 209.789 222.921 209.789C223.794 209.789 224.519 209.457 225.099 208.793C225.678 208.129 225.968 207.117 225.968 205.756C225.968 204.473 225.675 203.503 225.089 202.846C224.51 202.182 223.787 201.85 222.921 201.85C222.042 201.85 221.313 202.178 220.734 202.836C220.154 203.493 219.865 204.486 219.865 205.814ZM230.265 211V201.996H228.712V200.629H230.265V199.525C230.265 198.829 230.327 198.311 230.45 197.973C230.62 197.517 230.916 197.149 231.339 196.869C231.769 196.583 232.368 196.439 233.136 196.439C233.631 196.439 234.178 196.498 234.777 196.615L234.513 198.148C234.148 198.083 233.803 198.051 233.478 198.051C232.944 198.051 232.566 198.165 232.345 198.393C232.124 198.62 232.013 199.047 232.013 199.672V200.629H234.034V201.996H232.013V211H230.265ZM235.421 198.705V196.684H237.179V198.705H235.421ZM235.421 211V200.629H237.179V211H235.421ZM239.825 211V196.684H241.583V211H239.825ZM251.417 207.66L253.234 207.885C252.947 208.946 252.417 209.77 251.642 210.355C250.867 210.941 249.878 211.234 248.673 211.234C247.156 211.234 245.952 210.769 245.06 209.838C244.174 208.9 243.732 207.589 243.732 205.902C243.732 204.158 244.181 202.803 245.079 201.84C245.978 200.876 247.143 200.395 248.575 200.395C249.962 200.395 251.095 200.867 251.974 201.811C252.853 202.755 253.292 204.083 253.292 205.795C253.292 205.899 253.289 206.055 253.282 206.264H245.548C245.613 207.403 245.935 208.275 246.515 208.881C247.094 209.486 247.817 209.789 248.683 209.789C249.327 209.789 249.878 209.62 250.333 209.281C250.789 208.943 251.15 208.402 251.417 207.66ZM245.646 204.818H251.437C251.359 203.946 251.137 203.292 250.773 202.855C250.213 202.178 249.487 201.84 248.595 201.84C247.788 201.84 247.107 202.11 246.554 202.65C246.007 203.191 245.704 203.913 245.646 204.818Z" fill="#2699FB"/>
<path d="M69 19H39C33.4772 19 29 23.4772 29 29V59C29 64.5228 33.4772 69 39 69H69C74.5228 69 79 64.5228 79 59V29C79 23.4772 74.5228 19 69 19Z" fill="#FAFAFA"/>
<path d="M69 20H39C34.0294 20 30 24.0294 30 29V59C30 63.9706 34.0294 68 39 68H69C73.9706 68 78 63.9706 78 59V29C78 24.0294 73.9706 20 69 20Z" stroke="#2699FB" stroke-width="2"/>
<path d="M55 52L56.455 50.545L50.949 45.039H63V42.961H50.948L56.455 37.455L55 36L47 44L55 52Z" fill="#2699FB"/>
<path d="M58.7695 327.069V325.894L63.0146 325.887V329.605C62.363 330.125 61.6908 330.517 60.998 330.781C60.3053 331.041 59.5944 331.171 58.8652 331.171C57.8809 331.171 56.9854 330.961 56.1787 330.542C55.3766 330.118 54.7705 329.507 54.3604 328.71C53.9502 327.912 53.7451 327.021 53.7451 326.037C53.7451 325.062 53.9479 324.153 54.3535 323.31C54.7637 322.462 55.3516 321.833 56.1172 321.423C56.8828 321.013 57.7646 320.808 58.7627 320.808C59.4873 320.808 60.1413 320.926 60.7246 321.163C61.3125 321.396 61.7728 321.721 62.1055 322.141C62.4382 322.56 62.6911 323.107 62.8643 323.781L61.668 324.109C61.5176 323.599 61.3307 323.198 61.1074 322.906C60.8841 322.615 60.5651 322.382 60.1504 322.209C59.7357 322.031 59.2754 321.942 58.7695 321.942C58.1634 321.942 57.6393 322.036 57.1973 322.223C56.7552 322.405 56.3975 322.646 56.124 322.947C55.8551 323.248 55.6455 323.578 55.4951 323.938C55.2399 324.558 55.1123 325.23 55.1123 325.955C55.1123 326.848 55.265 327.596 55.5703 328.197C55.8802 328.799 56.3291 329.245 56.917 329.537C57.5049 329.829 58.1292 329.975 58.79 329.975C59.3643 329.975 59.9248 329.865 60.4717 329.646C61.0186 329.423 61.4333 329.186 61.7158 328.936V327.069H58.7695ZM69.7891 328.662L71.0605 328.819C70.86 329.562 70.4886 330.139 69.9463 330.549C69.404 330.959 68.7113 331.164 67.8682 331.164C66.8063 331.164 65.9632 330.838 65.3389 330.187C64.7191 329.53 64.4092 328.612 64.4092 327.432C64.4092 326.21 64.7236 325.262 65.3525 324.588C65.9814 323.913 66.7972 323.576 67.7998 323.576C68.7705 323.576 69.5635 323.907 70.1787 324.567C70.7939 325.228 71.1016 326.158 71.1016 327.356C71.1016 327.429 71.0993 327.539 71.0947 327.685H65.6807C65.7262 328.482 65.9518 329.093 66.3574 329.517C66.763 329.94 67.2689 330.152 67.875 330.152C68.3262 330.152 68.7113 330.034 69.0303 329.797C69.3493 329.56 69.6022 329.182 69.7891 328.662ZM65.749 326.673H69.8027C69.748 326.062 69.5931 325.604 69.3379 325.299C68.946 324.825 68.4378 324.588 67.8135 324.588C67.2484 324.588 66.7721 324.777 66.3848 325.155C66.002 325.534 65.79 326.039 65.749 326.673ZM72.6123 331V323.74H73.7197V324.772C74.2529 323.975 75.0231 323.576 76.0303 323.576C76.4678 323.576 76.8688 323.656 77.2334 323.815C77.6025 323.97 77.8783 324.175 78.0605 324.431C78.2428 324.686 78.3704 324.989 78.4434 325.34C78.4889 325.568 78.5117 325.966 78.5117 326.536V331H77.2812V326.584C77.2812 326.083 77.2334 325.709 77.1377 325.463C77.042 325.212 76.8711 325.014 76.625 324.868C76.3835 324.718 76.0986 324.643 75.7705 324.643C75.2464 324.643 74.793 324.809 74.4102 325.142C74.0319 325.474 73.8428 326.105 73.8428 327.035V331H72.6123ZM85.375 328.662L86.6465 328.819C86.446 329.562 86.0745 330.139 85.5322 330.549C84.9899 330.959 84.2972 331.164 83.4541 331.164C82.3923 331.164 81.5492 330.838 80.9248 330.187C80.305 329.53 79.9951 328.612 79.9951 327.432C79.9951 326.21 80.3096 325.262 80.9385 324.588C81.5674 323.913 82.3831 323.576 83.3857 323.576C84.3564 323.576 85.1494 323.907 85.7646 324.567C86.3799 325.228 86.6875 326.158 86.6875 327.356C86.6875 327.429 86.6852 327.539 86.6807 327.685H81.2666C81.3122 328.482 81.5378 329.093 81.9434 329.517C82.349 329.94 82.8548 330.152 83.4609 330.152C83.9121 330.152 84.2972 330.034 84.6162 329.797C84.9352 329.56 85.1882 329.182 85.375 328.662ZM81.335 326.673H85.3887C85.334 326.062 85.179 325.604 84.9238 325.299C84.5319 324.825 84.0238 324.588 83.3994 324.588C82.8343 324.588 82.3581 324.777 81.9707 325.155C81.5879 325.534 81.376 326.039 81.335 326.673ZM88.1846 331V323.74H89.292V324.841C89.5745 324.326 89.8343 323.986 90.0713 323.822C90.3128 323.658 90.5771 323.576 90.8643 323.576C91.279 323.576 91.7005 323.708 92.1289 323.973L91.7051 325.114C91.4043 324.937 91.1035 324.848 90.8027 324.848C90.5339 324.848 90.2923 324.93 90.0781 325.094C89.8639 325.253 89.7113 325.477 89.6201 325.764C89.4834 326.201 89.415 326.68 89.415 327.199V331H88.1846ZM92.8672 322.394V320.979H94.0977V322.394H92.8672ZM92.8672 331V323.74H94.0977V331H92.8672ZM100.715 328.341L101.925 328.498C101.793 329.332 101.453 329.986 100.906 330.46C100.364 330.929 99.6963 331.164 98.9033 331.164C97.9098 331.164 97.11 330.84 96.5039 330.193C95.9023 329.542 95.6016 328.61 95.6016 327.397C95.6016 326.614 95.7314 325.928 95.9912 325.34C96.251 324.752 96.6452 324.312 97.1738 324.021C97.707 323.724 98.2858 323.576 98.9102 323.576C99.6986 323.576 100.343 323.777 100.845 324.178C101.346 324.574 101.667 325.139 101.809 325.873L100.612 326.058C100.498 325.57 100.296 325.203 100.004 324.957C99.7168 324.711 99.3682 324.588 98.958 324.588C98.3382 324.588 97.8346 324.811 97.4473 325.258C97.0599 325.7 96.8662 326.402 96.8662 327.363C96.8662 328.339 97.0531 329.047 97.4268 329.489C97.8005 329.931 98.2881 330.152 98.8896 330.152C99.3727 330.152 99.776 330.004 100.1 329.708C100.423 329.412 100.628 328.956 100.715 328.341ZM106.977 331V320.979H110.736C111.502 320.979 112.115 321.081 112.575 321.286C113.04 321.487 113.402 321.799 113.662 322.223C113.926 322.642 114.059 323.082 114.059 323.542C114.059 323.97 113.942 324.374 113.71 324.752C113.478 325.13 113.127 325.436 112.657 325.668C113.263 325.846 113.728 326.149 114.052 326.577C114.38 327.006 114.544 327.511 114.544 328.095C114.544 328.564 114.444 329.002 114.243 329.407C114.047 329.808 113.803 330.118 113.512 330.337C113.22 330.556 112.853 330.722 112.411 330.836C111.974 330.945 111.436 331 110.798 331H106.977ZM108.303 325.189H110.47C111.058 325.189 111.479 325.151 111.734 325.073C112.072 324.973 112.325 324.807 112.493 324.574C112.666 324.342 112.753 324.05 112.753 323.699C112.753 323.367 112.673 323.075 112.514 322.824C112.354 322.569 112.126 322.396 111.83 322.305C111.534 322.209 111.026 322.161 110.306 322.161H108.303V325.189ZM108.303 329.817H110.798C111.226 329.817 111.527 329.801 111.7 329.77C112.006 329.715 112.261 329.624 112.466 329.496C112.671 329.368 112.84 329.184 112.972 328.942C113.104 328.696 113.17 328.414 113.17 328.095C113.17 327.721 113.074 327.397 112.883 327.124C112.691 326.846 112.425 326.652 112.083 326.543C111.746 326.429 111.258 326.372 110.62 326.372H108.303V329.817ZM121.94 329.817C121.535 330.269 121.093 330.608 120.614 330.836C120.136 331.059 119.618 331.171 119.062 331.171C118.037 331.171 117.224 330.825 116.622 330.132C116.134 329.567 115.891 328.936 115.891 328.238C115.891 327.618 116.089 327.06 116.485 326.563C116.886 326.062 117.483 325.622 118.276 325.244C117.825 324.725 117.524 324.303 117.374 323.979C117.224 323.656 117.148 323.344 117.148 323.043C117.148 322.441 117.383 321.92 117.853 321.478C118.326 321.031 118.921 320.808 119.637 320.808C120.32 320.808 120.879 321.017 121.312 321.437C121.749 321.856 121.968 322.359 121.968 322.947C121.968 323.9 121.337 324.713 120.074 325.388L121.872 327.678C122.077 327.277 122.237 326.812 122.351 326.283L123.629 326.557C123.41 327.432 123.114 328.152 122.74 328.717C123.201 329.327 123.722 329.84 124.306 330.255L123.479 331.232C122.982 330.913 122.469 330.442 121.94 329.817ZM119.438 324.595C119.972 324.28 120.316 324.005 120.471 323.768C120.63 323.531 120.71 323.269 120.71 322.981C120.71 322.64 120.601 322.362 120.382 322.147C120.168 321.929 119.899 321.819 119.575 321.819C119.243 321.819 118.965 321.926 118.741 322.141C118.522 322.355 118.413 322.617 118.413 322.927C118.413 323.082 118.452 323.246 118.529 323.419C118.611 323.588 118.732 323.768 118.892 323.959L119.438 324.595ZM121.168 328.847L118.912 326.051C118.247 326.447 117.798 326.816 117.565 327.158C117.333 327.495 117.217 327.83 117.217 328.163C117.217 328.569 117.379 328.99 117.702 329.428C118.026 329.865 118.484 330.084 119.076 330.084C119.445 330.084 119.826 329.97 120.218 329.742C120.614 329.51 120.931 329.211 121.168 328.847ZM127.457 331L124.798 320.979H126.158L127.683 327.548C127.847 328.236 127.988 328.92 128.106 329.599C128.362 328.528 128.512 327.91 128.558 327.746L130.465 320.979H132.064L133.5 326.051C133.86 327.309 134.12 328.491 134.279 329.599C134.407 328.965 134.573 328.238 134.778 327.418L136.351 320.979H137.684L134.936 331H133.657L131.545 323.364C131.367 322.726 131.262 322.334 131.23 322.188C131.126 322.649 131.028 323.041 130.937 323.364L128.811 331H127.457Z" fill="#2699FB"/>
<path d="M54.0801 361V350.979H57.8604C58.5257 350.979 59.0339 351.01 59.3848 351.074C59.877 351.156 60.2894 351.313 60.6221 351.546C60.9548 351.774 61.2214 352.095 61.4219 352.51C61.627 352.924 61.7295 353.38 61.7295 353.877C61.7295 354.729 61.4583 355.451 60.916 356.044C60.3737 356.632 59.3939 356.926 57.9766 356.926H55.4062V361H54.0801ZM55.4062 355.743H57.9971C58.8538 355.743 59.4622 355.584 59.8223 355.265C60.1823 354.946 60.3623 354.497 60.3623 353.918C60.3623 353.499 60.2552 353.141 60.041 352.845C59.8314 352.544 59.5534 352.346 59.207 352.25C58.9837 352.191 58.5713 352.161 57.9697 352.161H55.4062V355.743ZM67.998 360.104C67.5423 360.492 67.1025 360.765 66.6787 360.925C66.2594 361.084 65.8083 361.164 65.3252 361.164C64.5277 361.164 63.9147 360.97 63.4863 360.583C63.0579 360.191 62.8438 359.692 62.8438 359.086C62.8438 358.73 62.9235 358.407 63.083 358.115C63.2471 357.819 63.459 357.582 63.7188 357.404C63.9831 357.227 64.2793 357.092 64.6074 357.001C64.849 356.937 65.2135 356.876 65.7012 356.816C66.6947 356.698 67.4261 356.557 67.8955 356.393C67.9001 356.224 67.9023 356.117 67.9023 356.071C67.9023 355.57 67.7861 355.217 67.5537 355.012C67.2393 354.734 66.7721 354.595 66.1523 354.595C65.5736 354.595 65.1452 354.697 64.8672 354.902C64.5938 355.103 64.391 355.461 64.2588 355.976L63.0557 355.812C63.165 355.297 63.3451 354.882 63.5957 354.567C63.8464 354.248 64.2087 354.005 64.6826 353.836C65.1566 353.663 65.7057 353.576 66.3301 353.576C66.9499 353.576 67.4535 353.649 67.8408 353.795C68.2282 353.941 68.513 354.125 68.6953 354.349C68.8776 354.567 69.0052 354.845 69.0781 355.183C69.1191 355.392 69.1396 355.771 69.1396 356.317V357.958C69.1396 359.102 69.1647 359.826 69.2148 360.132C69.2695 360.433 69.3743 360.722 69.5293 361H68.2441C68.1165 360.745 68.0345 360.446 67.998 360.104ZM67.8955 357.356C67.4489 357.539 66.779 357.694 65.8857 357.821C65.3799 357.894 65.0221 357.976 64.8125 358.067C64.6029 358.159 64.4411 358.293 64.3271 358.471C64.2132 358.644 64.1562 358.838 64.1562 359.052C64.1562 359.38 64.2793 359.653 64.5254 359.872C64.776 360.091 65.1406 360.2 65.6191 360.2C66.0931 360.2 66.5146 360.098 66.8838 359.893C67.2529 359.683 67.5241 359.398 67.6973 359.038C67.8294 358.76 67.8955 358.35 67.8955 357.808V357.356ZM71.0537 363.782V353.74H72.1748V354.684C72.4391 354.314 72.7376 354.039 73.0703 353.856C73.403 353.67 73.8063 353.576 74.2803 353.576C74.9001 353.576 75.4469 353.736 75.9209 354.055C76.3949 354.374 76.7526 354.825 76.9941 355.408C77.2357 355.987 77.3564 356.623 77.3564 357.315C77.3564 358.058 77.222 358.728 76.9531 359.325C76.6888 359.918 76.3014 360.373 75.791 360.692C75.2852 361.007 74.752 361.164 74.1914 361.164C73.7812 361.164 73.4121 361.077 73.084 360.904C72.7604 360.731 72.4938 360.512 72.2842 360.248V363.782H71.0537ZM72.168 357.411C72.168 358.345 72.3571 359.036 72.7354 359.482C73.1136 359.929 73.5716 360.152 74.1094 360.152C74.6562 360.152 75.1234 359.922 75.5107 359.462C75.9027 358.997 76.0986 358.279 76.0986 357.309C76.0986 356.383 75.9072 355.691 75.5244 355.23C75.1462 354.77 74.6927 354.54 74.1641 354.54C73.64 354.54 73.1751 354.786 72.7695 355.278C72.3685 355.766 72.168 356.477 72.168 357.411ZM83.8164 358.662L85.0879 358.819C84.8874 359.562 84.516 360.139 83.9736 360.549C83.4313 360.959 82.7386 361.164 81.8955 361.164C80.8337 361.164 79.9906 360.838 79.3662 360.187C78.7464 359.53 78.4365 358.612 78.4365 357.432C78.4365 356.21 78.751 355.262 79.3799 354.588C80.0088 353.913 80.8245 353.576 81.8271 353.576C82.7979 353.576 83.5908 353.907 84.2061 354.567C84.8213 355.228 85.1289 356.158 85.1289 357.356C85.1289 357.429 85.1266 357.539 85.1221 357.685H79.708C79.7536 358.482 79.9792 359.093 80.3848 359.517C80.7904 359.94 81.2962 360.152 81.9023 360.152C82.3535 360.152 82.7386 360.034 83.0576 359.797C83.3766 359.56 83.6296 359.182 83.8164 358.662ZM79.7764 356.673H83.8301C83.7754 356.062 83.6204 355.604 83.3652 355.299C82.9733 354.825 82.4652 354.588 81.8408 354.588C81.2757 354.588 80.7995 354.777 80.4121 355.155C80.0293 355.534 79.8174 356.039 79.7764 356.673ZM86.626 361V353.74H87.7334V354.841C88.016 354.326 88.2757 353.986 88.5127 353.822C88.7542 353.658 89.0186 353.576 89.3057 353.576C89.7204 353.576 90.1419 353.708 90.5703 353.973L90.1465 355.114C89.8457 354.937 89.5449 354.848 89.2441 354.848C88.9753 354.848 88.7337 354.93 88.5195 355.094C88.3053 355.253 88.1527 355.477 88.0615 355.764C87.9248 356.201 87.8564 356.68 87.8564 357.199V361H86.626ZM97.5498 363.946C96.8708 363.09 96.2965 362.087 95.8271 360.938C95.3577 359.79 95.123 358.601 95.123 357.37C95.123 356.285 95.2985 355.246 95.6494 354.253C96.0596 353.1 96.693 351.951 97.5498 350.808H98.4316C97.8802 351.756 97.5156 352.432 97.3379 352.838C97.0599 353.467 96.8411 354.123 96.6816 354.807C96.4857 355.659 96.3877 356.516 96.3877 357.377C96.3877 359.569 97.069 361.759 98.4316 363.946H97.5498ZM100.086 361V350.979H106.847V352.161H101.412V355.265H106.115V356.447H101.412V361H100.086ZM108.521 361V350.979H112.281C113.047 350.979 113.66 351.081 114.12 351.286C114.585 351.487 114.947 351.799 115.207 352.223C115.471 352.642 115.604 353.082 115.604 353.542C115.604 353.97 115.487 354.374 115.255 354.752C115.022 355.13 114.672 355.436 114.202 355.668C114.808 355.846 115.273 356.149 115.597 356.577C115.925 357.006 116.089 357.511 116.089 358.095C116.089 358.564 115.989 359.002 115.788 359.407C115.592 359.808 115.348 360.118 115.057 360.337C114.765 360.556 114.398 360.722 113.956 360.836C113.519 360.945 112.981 361 112.343 361H108.521ZM109.848 355.189H112.015C112.603 355.189 113.024 355.151 113.279 355.073C113.617 354.973 113.869 354.807 114.038 354.574C114.211 354.342 114.298 354.05 114.298 353.699C114.298 353.367 114.218 353.075 114.059 352.824C113.899 352.569 113.671 352.396 113.375 352.305C113.079 352.209 112.571 352.161 111.851 352.161H109.848V355.189ZM109.848 359.817H112.343C112.771 359.817 113.072 359.801 113.245 359.77C113.55 359.715 113.806 359.624 114.011 359.496C114.216 359.368 114.384 359.184 114.517 358.942C114.649 358.696 114.715 358.414 114.715 358.095C114.715 357.721 114.619 357.397 114.428 357.124C114.236 356.846 113.97 356.652 113.628 356.543C113.291 356.429 112.803 356.372 112.165 356.372H109.848V359.817ZM118.563 363.946H117.682C119.044 361.759 119.726 359.569 119.726 357.377C119.726 356.52 119.628 355.67 119.432 354.827C119.277 354.144 119.06 353.487 118.782 352.858C118.604 352.448 118.238 351.765 117.682 350.808H118.563C119.42 351.951 120.054 353.1 120.464 354.253C120.815 355.246 120.99 356.285 120.99 357.37C120.99 358.601 120.753 359.79 120.279 360.938C119.81 362.087 119.238 363.09 118.563 363.946Z" fill="#2699FB"/>
<path d="M54.0801 391V380.979H57.8604C58.5257 380.979 59.0339 381.01 59.3848 381.074C59.877 381.156 60.2894 381.313 60.6221 381.546C60.9548 381.774 61.2214 382.095 61.4219 382.51C61.627 382.924 61.7295 383.38 61.7295 383.877C61.7295 384.729 61.4583 385.451 60.916 386.044C60.3737 386.632 59.3939 386.926 57.9766 386.926H55.4062V391H54.0801ZM55.4062 385.743H57.9971C58.8538 385.743 59.4622 385.584 59.8223 385.265C60.1823 384.946 60.3623 384.497 60.3623 383.918C60.3623 383.499 60.2552 383.141 60.041 382.845C59.8314 382.544 59.5534 382.346 59.207 382.25C58.9837 382.191 58.5713 382.161 57.9697 382.161H55.4062V385.743ZM67.998 390.104C67.5423 390.492 67.1025 390.765 66.6787 390.925C66.2594 391.084 65.8083 391.164 65.3252 391.164C64.5277 391.164 63.9147 390.97 63.4863 390.583C63.0579 390.191 62.8438 389.692 62.8438 389.086C62.8438 388.73 62.9235 388.407 63.083 388.115C63.2471 387.819 63.459 387.582 63.7188 387.404C63.9831 387.227 64.2793 387.092 64.6074 387.001C64.849 386.937 65.2135 386.876 65.7012 386.816C66.6947 386.698 67.4261 386.557 67.8955 386.393C67.9001 386.224 67.9023 386.117 67.9023 386.071C67.9023 385.57 67.7861 385.217 67.5537 385.012C67.2393 384.734 66.7721 384.595 66.1523 384.595C65.5736 384.595 65.1452 384.697 64.8672 384.902C64.5938 385.103 64.391 385.461 64.2588 385.976L63.0557 385.812C63.165 385.297 63.3451 384.882 63.5957 384.567C63.8464 384.248 64.2087 384.005 64.6826 383.836C65.1566 383.663 65.7057 383.576 66.3301 383.576C66.9499 383.576 67.4535 383.649 67.8408 383.795C68.2282 383.941 68.513 384.125 68.6953 384.349C68.8776 384.567 69.0052 384.845 69.0781 385.183C69.1191 385.392 69.1396 385.771 69.1396 386.317V387.958C69.1396 389.102 69.1647 389.826 69.2148 390.132C69.2695 390.433 69.3743 390.722 69.5293 391H68.2441C68.1165 390.745 68.0345 390.446 67.998 390.104ZM67.8955 387.356C67.4489 387.539 66.779 387.694 65.8857 387.821C65.3799 387.894 65.0221 387.976 64.8125 388.067C64.6029 388.159 64.4411 388.293 64.3271 388.471C64.2132 388.644 64.1562 388.838 64.1562 389.052C64.1562 389.38 64.2793 389.653 64.5254 389.872C64.776 390.091 65.1406 390.2 65.6191 390.2C66.0931 390.2 66.5146 390.098 66.8838 389.893C67.2529 389.683 67.5241 389.398 67.6973 389.038C67.8294 388.76 67.8955 388.35 67.8955 387.808V387.356ZM71.0537 393.782V383.74H72.1748V384.684C72.4391 384.314 72.7376 384.039 73.0703 383.856C73.403 383.67 73.8063 383.576 74.2803 383.576C74.9001 383.576 75.4469 383.736 75.9209 384.055C76.3949 384.374 76.7526 384.825 76.9941 385.408C77.2357 385.987 77.3564 386.623 77.3564 387.315C77.3564 388.058 77.222 388.728 76.9531 389.325C76.6888 389.918 76.3014 390.373 75.791 390.692C75.2852 391.007 74.752 391.164 74.1914 391.164C73.7812 391.164 73.4121 391.077 73.084 390.904C72.7604 390.731 72.4938 390.512 72.2842 390.248V393.782H71.0537ZM72.168 387.411C72.168 388.345 72.3571 389.036 72.7354 389.482C73.1136 389.929 73.5716 390.152 74.1094 390.152C74.6562 390.152 75.1234 389.922 75.5107 389.462C75.9027 388.997 76.0986 388.279 76.0986 387.309C76.0986 386.383 75.9072 385.691 75.5244 385.23C75.1462 384.77 74.6927 384.54 74.1641 384.54C73.64 384.54 73.1751 384.786 72.7695 385.278C72.3685 385.766 72.168 386.477 72.168 387.411ZM83.8164 388.662L85.0879 388.819C84.8874 389.562 84.516 390.139 83.9736 390.549C83.4313 390.959 82.7386 391.164 81.8955 391.164C80.8337 391.164 79.9906 390.838 79.3662 390.187C78.7464 389.53 78.4365 388.612 78.4365 387.432C78.4365 386.21 78.751 385.262 79.3799 384.588C80.0088 383.913 80.8245 383.576 81.8271 383.576C82.7979 383.576 83.5908 383.907 84.2061 384.567C84.8213 385.228 85.1289 386.158 85.1289 387.356C85.1289 387.429 85.1266 387.539 85.1221 387.685H79.708C79.7536 388.482 79.9792 389.093 80.3848 389.517C80.7904 389.94 81.2962 390.152 81.9023 390.152C82.3535 390.152 82.7386 390.034 83.0576 389.797C83.3766 389.56 83.6296 389.182 83.8164 388.662ZM79.7764 386.673H83.8301C83.7754 386.062 83.6204 385.604 83.3652 385.299C82.9733 384.825 82.4652 384.588 81.8408 384.588C81.2757 384.588 80.7995 384.777 80.4121 385.155C80.0293 385.534 79.8174 386.039 79.7764 386.673ZM86.626 391V383.74H87.7334V384.841C88.016 384.326 88.2757 383.986 88.5127 383.822C88.7542 383.658 89.0186 383.576 89.3057 383.576C89.7204 383.576 90.1419 383.708 90.5703 383.973L90.1465 385.114C89.8457 384.937 89.5449 384.848 89.2441 384.848C88.9753 384.848 88.7337 384.93 88.5195 385.094C88.3053 385.253 88.1527 385.477 88.0615 385.764C87.9248 386.201 87.8564 386.68 87.8564 387.199V391H86.626ZM97.5498 393.946C96.8708 393.09 96.2965 392.087 95.8271 390.938C95.3577 389.79 95.123 388.601 95.123 387.37C95.123 386.285 95.2985 385.246 95.6494 384.253C96.0596 383.1 96.693 381.951 97.5498 380.808H98.4316C97.8802 381.756 97.5156 382.432 97.3379 382.838C97.0599 383.467 96.8411 384.123 96.6816 384.807C96.4857 385.659 96.3877 386.516 96.3877 387.377C96.3877 389.569 97.069 391.759 98.4316 393.946H97.5498ZM100.038 391V380.979H104.481C105.375 380.979 106.054 381.07 106.519 381.252C106.983 381.43 107.355 381.746 107.633 382.202C107.911 382.658 108.05 383.161 108.05 383.713C108.05 384.424 107.82 385.023 107.359 385.511C106.899 385.998 106.188 386.308 105.227 386.44C105.577 386.609 105.844 386.775 106.026 386.939C106.414 387.295 106.781 387.739 107.127 388.272L108.87 391H107.202L105.876 388.915C105.489 388.313 105.17 387.853 104.919 387.534C104.668 387.215 104.443 386.992 104.242 386.864C104.046 386.737 103.846 386.648 103.641 386.598C103.49 386.566 103.244 386.55 102.902 386.55H101.364V391H100.038ZM101.364 385.401H104.215C104.821 385.401 105.295 385.34 105.637 385.217C105.979 385.089 106.238 384.889 106.416 384.615C106.594 384.337 106.683 384.036 106.683 383.713C106.683 383.239 106.509 382.849 106.163 382.544C105.821 382.239 105.279 382.086 104.536 382.086H101.364V385.401ZM117.285 387.486L118.611 387.821C118.333 388.91 117.832 389.742 117.107 390.316C116.387 390.886 115.506 391.171 114.462 391.171C113.382 391.171 112.502 390.952 111.823 390.515C111.149 390.073 110.634 389.435 110.278 388.601C109.927 387.767 109.752 386.871 109.752 385.914C109.752 384.87 109.95 383.961 110.347 383.187C110.748 382.407 111.315 381.817 112.049 381.416C112.787 381.01 113.598 380.808 114.482 380.808C115.485 380.808 116.328 381.063 117.012 381.573C117.695 382.084 118.172 382.801 118.44 383.727L117.135 384.034C116.902 383.305 116.565 382.774 116.123 382.441C115.681 382.109 115.125 381.942 114.455 381.942C113.685 381.942 113.04 382.127 112.521 382.496C112.006 382.865 111.643 383.362 111.434 383.986C111.224 384.606 111.119 385.246 111.119 385.907C111.119 386.759 111.242 387.505 111.488 388.143C111.739 388.776 112.126 389.25 112.65 389.564C113.174 389.879 113.742 390.036 114.353 390.036C115.095 390.036 115.724 389.822 116.239 389.394C116.754 388.965 117.103 388.329 117.285 387.486ZM120.901 393.946H120.02C121.382 391.759 122.063 389.569 122.063 387.377C122.063 386.52 121.965 385.67 121.77 384.827C121.615 384.144 121.398 383.487 121.12 382.858C120.942 382.448 120.576 381.765 120.02 380.808H120.901C121.758 381.951 122.392 383.1 122.802 384.253C123.153 385.246 123.328 386.285 123.328 387.37C123.328 388.601 123.091 389.79 122.617 390.938C122.148 392.087 121.576 393.09 120.901 393.946Z" fill="#2699FB"/>
<path d="M54.1484 421V410.979H60.9092V412.161H55.4746V415.265H60.1777V416.447H55.4746V421H54.1484ZM67.2393 421V419.934C66.6742 420.754 65.9062 421.164 64.9355 421.164C64.5072 421.164 64.1061 421.082 63.7324 420.918C63.3633 420.754 63.0876 420.549 62.9053 420.303C62.7275 420.052 62.6022 419.747 62.5293 419.387C62.4792 419.145 62.4541 418.762 62.4541 418.238V413.74H63.6846V417.767C63.6846 418.409 63.7096 418.842 63.7598 419.065C63.8372 419.389 64.0013 419.644 64.252 419.831C64.5026 420.013 64.8125 420.104 65.1816 420.104C65.5508 420.104 65.8971 420.011 66.2207 419.824C66.5443 419.633 66.7721 419.375 66.9043 419.052C67.041 418.724 67.1094 418.25 67.1094 417.63V413.74H68.3398V421H67.2393ZM70.2676 412.407V410.979H71.498V412.407H70.2676ZM68.709 423.816L68.9414 422.771C69.1875 422.834 69.3812 422.866 69.5225 422.866C69.7731 422.866 69.96 422.782 70.083 422.613C70.2061 422.449 70.2676 422.035 70.2676 421.369V413.74H71.498V421.396C71.498 422.29 71.3818 422.912 71.1494 423.263C70.8532 423.718 70.361 423.946 69.6729 423.946C69.3402 423.946 69.0189 423.903 68.709 423.816ZM73.3984 412.394V410.979H74.6289V412.394H73.3984ZM73.3984 421V413.74H74.6289V421H73.3984ZM80.6035 421V410.979H81.9297V415.094H87.1387V410.979H88.4648V421H87.1387V416.276H81.9297V421H80.6035ZM95.2803 421V419.934C94.7152 420.754 93.9473 421.164 92.9766 421.164C92.5482 421.164 92.1471 421.082 91.7734 420.918C91.4043 420.754 91.1286 420.549 90.9463 420.303C90.7686 420.052 90.6432 419.747 90.5703 419.387C90.5202 419.145 90.4951 418.762 90.4951 418.238V413.74H91.7256V417.767C91.7256 418.409 91.7507 418.842 91.8008 419.065C91.8783 419.389 92.0423 419.644 92.293 419.831C92.5436 420.013 92.8535 420.104 93.2227 420.104C93.5918 420.104 93.9382 420.011 94.2617 419.824C94.5853 419.633 94.8132 419.375 94.9453 419.052C95.082 418.724 95.1504 418.25 95.1504 417.63V413.74H96.3809V421H95.2803ZM98.3154 421V413.74H99.4229V414.772C99.9561 413.975 100.726 413.576 101.733 413.576C102.171 413.576 102.572 413.656 102.937 413.815C103.306 413.97 103.581 414.175 103.764 414.431C103.946 414.686 104.074 414.989 104.146 415.34C104.192 415.568 104.215 415.966 104.215 416.536V421H102.984V416.584C102.984 416.083 102.937 415.709 102.841 415.463C102.745 415.212 102.574 415.014 102.328 414.868C102.087 414.718 101.802 414.643 101.474 414.643C100.95 414.643 100.496 414.809 100.113 415.142C99.735 415.474 99.5459 416.105 99.5459 417.035V421H98.3154ZM108.795 419.899L108.973 420.986C108.626 421.059 108.316 421.096 108.043 421.096C107.596 421.096 107.25 421.025 107.004 420.884C106.758 420.743 106.585 420.558 106.484 420.33C106.384 420.098 106.334 419.612 106.334 418.874V414.697H105.432V413.74H106.334V411.942L107.558 411.204V413.74H108.795V414.697H107.558V418.942C107.558 419.293 107.578 419.519 107.619 419.619C107.665 419.719 107.735 419.799 107.831 419.858C107.931 419.918 108.073 419.947 108.255 419.947C108.392 419.947 108.572 419.931 108.795 419.899ZM121.209 417.486L122.535 417.821C122.257 418.91 121.756 419.742 121.031 420.316C120.311 420.886 119.429 421.171 118.386 421.171C117.306 421.171 116.426 420.952 115.747 420.515C115.073 420.073 114.558 419.435 114.202 418.601C113.851 417.767 113.676 416.871 113.676 415.914C113.676 414.87 113.874 413.961 114.271 413.187C114.672 412.407 115.239 411.817 115.973 411.416C116.711 411.01 117.522 410.808 118.406 410.808C119.409 410.808 120.252 411.063 120.936 411.573C121.619 412.084 122.095 412.801 122.364 413.727L121.059 414.034C120.826 413.305 120.489 412.774 120.047 412.441C119.605 412.109 119.049 411.942 118.379 411.942C117.609 411.942 116.964 412.127 116.444 412.496C115.929 412.865 115.567 413.362 115.357 413.986C115.148 414.606 115.043 415.246 115.043 415.907C115.043 416.759 115.166 417.505 115.412 418.143C115.663 418.776 116.05 419.25 116.574 419.564C117.098 419.879 117.666 420.036 118.276 420.036C119.019 420.036 119.648 419.822 120.163 419.394C120.678 418.965 121.027 418.329 121.209 417.486ZM124.019 421V410.979H125.249V414.574C125.823 413.909 126.548 413.576 127.423 413.576C127.961 413.576 128.428 413.683 128.824 413.897C129.221 414.107 129.503 414.399 129.672 414.772C129.845 415.146 129.932 415.688 129.932 416.399V421H128.701V416.399C128.701 415.784 128.567 415.338 128.298 415.06C128.034 414.777 127.658 414.636 127.17 414.636C126.805 414.636 126.461 414.731 126.138 414.923C125.819 415.11 125.591 415.365 125.454 415.688C125.317 416.012 125.249 416.459 125.249 417.028V421H124.019ZM131.798 421V413.74H132.905V414.841C133.188 414.326 133.448 413.986 133.685 413.822C133.926 413.658 134.19 413.576 134.478 413.576C134.892 413.576 135.314 413.708 135.742 413.973L135.318 415.114C135.018 414.937 134.717 414.848 134.416 414.848C134.147 414.848 133.906 414.93 133.691 415.094C133.477 415.253 133.325 415.477 133.233 415.764C133.097 416.201 133.028 416.68 133.028 417.199V421H131.798ZM136.016 417.37C136.016 416.026 136.389 415.03 137.137 414.383C137.761 413.845 138.522 413.576 139.42 413.576C140.418 413.576 141.234 413.904 141.867 414.561C142.501 415.212 142.817 416.115 142.817 417.268C142.817 418.202 142.676 418.938 142.394 419.476C142.116 420.009 141.708 420.424 141.17 420.72C140.637 421.016 140.053 421.164 139.42 421.164C138.404 421.164 137.581 420.838 136.952 420.187C136.328 419.535 136.016 418.596 136.016 417.37ZM137.28 417.37C137.28 418.3 137.483 418.997 137.889 419.462C138.294 419.922 138.805 420.152 139.42 420.152C140.031 420.152 140.539 419.92 140.944 419.455C141.35 418.99 141.553 418.282 141.553 417.329C141.553 416.431 141.348 415.752 140.938 415.292C140.532 414.827 140.026 414.595 139.42 414.595C138.805 414.595 138.294 414.825 137.889 415.285C137.483 415.745 137.28 416.44 137.28 417.37ZM144.267 421V413.74H145.367V414.759C145.595 414.403 145.898 414.118 146.276 413.904C146.655 413.686 147.085 413.576 147.568 413.576C148.106 413.576 148.546 413.688 148.888 413.911C149.234 414.134 149.478 414.447 149.619 414.848C150.193 414 150.941 413.576 151.861 413.576C152.581 413.576 153.135 413.777 153.522 414.178C153.91 414.574 154.104 415.187 154.104 416.017V421H152.88V416.427C152.88 415.935 152.839 415.581 152.757 415.367C152.679 415.148 152.536 414.973 152.326 414.841C152.117 414.709 151.87 414.643 151.588 414.643C151.077 414.643 150.654 414.813 150.316 415.155C149.979 415.493 149.811 416.035 149.811 416.782V421H148.58V416.283C148.58 415.736 148.48 415.326 148.279 415.053C148.079 414.779 147.751 414.643 147.295 414.643C146.949 414.643 146.627 414.734 146.331 414.916C146.039 415.098 145.827 415.365 145.695 415.716C145.563 416.067 145.497 416.573 145.497 417.233V421H144.267ZM160.898 418.662L162.17 418.819C161.969 419.562 161.598 420.139 161.056 420.549C160.513 420.959 159.821 421.164 158.978 421.164C157.916 421.164 157.073 420.838 156.448 420.187C155.828 419.53 155.519 418.612 155.519 417.432C155.519 416.21 155.833 415.262 156.462 414.588C157.091 413.913 157.907 413.576 158.909 413.576C159.88 413.576 160.673 413.907 161.288 414.567C161.903 415.228 162.211 416.158 162.211 417.356C162.211 417.429 162.209 417.539 162.204 417.685H156.79C156.836 418.482 157.061 419.093 157.467 419.517C157.872 419.94 158.378 420.152 158.984 420.152C159.436 420.152 159.821 420.034 160.14 419.797C160.459 419.56 160.712 419.182 160.898 418.662ZM156.858 416.673H160.912C160.857 416.062 160.702 415.604 160.447 415.299C160.055 414.825 159.547 414.588 158.923 414.588C158.358 414.588 157.882 414.777 157.494 415.155C157.111 415.534 156.899 416.039 156.858 416.673ZM163.722 421V413.74H164.829V414.772C165.362 413.975 166.132 413.576 167.14 413.576C167.577 413.576 167.978 413.656 168.343 413.815C168.712 413.97 168.988 414.175 169.17 414.431C169.352 414.686 169.48 414.989 169.553 415.34C169.598 415.568 169.621 415.966 169.621 416.536V421H168.391V416.584C168.391 416.083 168.343 415.709 168.247 415.463C168.151 415.212 167.98 415.014 167.734 414.868C167.493 414.718 167.208 414.643 166.88 414.643C166.356 414.643 165.902 414.809 165.52 415.142C165.141 415.474 164.952 416.105 164.952 417.035V421H163.722ZM177.558 413.433L176.334 413.528C176.225 413.045 176.07 412.694 175.869 412.476C175.536 412.125 175.126 411.949 174.639 411.949C174.247 411.949 173.903 412.059 173.606 412.277C173.219 412.56 172.914 412.972 172.69 413.515C172.467 414.057 172.351 414.829 172.342 415.832C172.638 415.381 173 415.046 173.429 414.827C173.857 414.608 174.306 414.499 174.775 414.499C175.596 414.499 176.293 414.802 176.867 415.408C177.446 416.01 177.735 416.789 177.735 417.746C177.735 418.375 177.599 418.961 177.325 419.503C177.056 420.041 176.685 420.453 176.211 420.74C175.737 421.027 175.199 421.171 174.598 421.171C173.572 421.171 172.736 420.795 172.089 420.043C171.442 419.286 171.118 418.042 171.118 416.311C171.118 414.374 171.476 412.965 172.191 412.086C172.816 411.32 173.657 410.938 174.714 410.938C175.502 410.938 176.147 411.159 176.648 411.601C177.154 412.043 177.457 412.653 177.558 413.433ZM172.533 417.753C172.533 418.177 172.622 418.582 172.8 418.97C172.982 419.357 173.235 419.653 173.559 419.858C173.882 420.059 174.222 420.159 174.577 420.159C175.097 420.159 175.543 419.95 175.917 419.53C176.291 419.111 176.478 418.541 176.478 417.821C176.478 417.129 176.293 416.584 175.924 416.188C175.555 415.786 175.09 415.586 174.529 415.586C173.973 415.586 173.502 415.786 173.114 416.188C172.727 416.584 172.533 417.106 172.533 417.753ZM178.446 421L182.322 415.777L178.904 410.979H180.483L182.302 413.549C182.68 414.082 182.949 414.492 183.108 414.779C183.332 414.415 183.596 414.034 183.901 413.638L185.918 410.979H187.36L183.84 415.702L187.634 421H185.993L183.471 417.425C183.329 417.22 183.184 416.996 183.033 416.755C182.81 417.119 182.65 417.37 182.555 417.507L180.039 421H178.446Z" fill="#2699FB"/>
<defs>
<filter id="filter0_d" x="0" y="0" width="387" height="95" filterUnits="userSpaceOnUse" color-interpolation-filters="sRGB">
<feFlood flood-opacity="0" result="BackgroundImageFix"/>
<feColorMatrix in="SourceAlpha" type="matrix" values="0 0 0 0 0 0 0 0 0 0 0 0 0 0 0 0 0 0 127 0"/>
<feOffset dy="3"/>
<feGaussianBlur stdDeviation="3"/>
<feColorMatrix type="matrix" values="0 0 0 0 0 0 0 0 0 0 0 0 0 0 0 0 0 0 0.161 0"/>
<feBlend mode="normal" in2="BackgroundImageFix" result="effect1_dropShadow"/>
<feBlend mode="normal" in="SourceGraphic" in2="effect1_dropShadow" result="shape"/>
</filter>
<filter id="filter1_d" x="24" y="174" width="340" height="68" filterUnits="userSpaceOnUse" color-interpolation-filters="sRGB">
<feFlood flood-opacity="0" result="BackgroundImageFix"/>
<feColorMatrix in="SourceAlpha" type="matrix" values="0 0 0 0 0 0 0 0 0 0 0 0 0 0 0 0 0 0 127 0"/>
<feOffset dy="3"/>
<feGaussianBlur stdDeviation="3"/>
<feColorMatrix type="matrix" values="0 0 0 0 0 0 0 0 0 0 0 0 0 0 0 0 0 0 0.161 0"/>
<feBlend mode="normal" in2="BackgroundImageFix" result="effect1_dropShadow"/>
<feBlend mode="normal" in="SourceGraphic" in2="effect1_dropShadow" result="shape"/>
</filter>
</defs>
</svg>
