<svg width="387" height="815" viewBox="0 0 387 815" fill="none" xmlns="http://www.w3.org/2000/svg">
<path d="M381 3H6V815H381V3Z" fill="white"/>
<g filter="url(#filter0_d)">
<path d="M381 3H6V86H381V3Z" fill="white"/>
</g>
<path d="M75.3911 139V117.525H78.3062L89.5854 134.386V117.525H92.3101V139H89.395L78.1157 122.125V139H75.3911ZM107.413 133.99L110.137 134.327C109.708 135.919 108.912 137.154 107.75 138.033C106.587 138.912 105.103 139.352 103.296 139.352C101.021 139.352 99.2144 138.653 97.8765 137.257C96.5483 135.851 95.8843 133.883 95.8843 131.354C95.8843 128.736 96.5581 126.705 97.9058 125.26C99.2534 123.814 101.001 123.092 103.15 123.092C105.23 123.092 106.929 123.8 108.248 125.216C109.566 126.632 110.225 128.624 110.225 131.192C110.225 131.349 110.22 131.583 110.21 131.896H98.6089C98.7065 133.604 99.1899 134.913 100.059 135.821C100.928 136.729 102.012 137.184 103.311 137.184C104.278 137.184 105.103 136.93 105.787 136.422C106.47 135.914 107.012 135.104 107.413 133.99ZM98.7554 129.728H107.442C107.325 128.419 106.993 127.438 106.446 126.783C105.606 125.768 104.517 125.26 103.179 125.26C101.968 125.26 100.948 125.665 100.118 126.476C99.2974 127.286 98.8433 128.37 98.7554 129.728ZM116.333 139L111.573 123.443H114.297L116.773 132.423L117.696 135.763C117.735 135.597 118.003 134.527 118.501 132.555L120.977 123.443H123.687L126.016 132.467L126.792 135.44L127.686 132.438L130.352 123.443H132.916L128.052 139H125.313L122.837 129.684L122.237 127.032L119.087 139H116.333ZM143.887 139V117.525H159.415V120.06H146.729V126.637H158.609V129.156H146.729V136.466H159.913V139H143.887ZM162.476 132.555V129.903H170.577V132.555H162.476ZM186.441 122.784L183.819 122.989C183.584 121.954 183.252 121.202 182.823 120.733C182.11 119.981 181.231 119.605 180.186 119.605C179.346 119.605 178.609 119.84 177.974 120.309C177.144 120.914 176.49 121.798 176.011 122.96C175.533 124.122 175.284 125.777 175.264 127.926C175.899 126.959 176.675 126.241 177.593 125.772C178.511 125.304 179.473 125.069 180.479 125.069C182.237 125.069 183.731 125.719 184.961 127.018C186.202 128.307 186.822 129.977 186.822 132.027C186.822 133.375 186.529 134.63 185.943 135.792C185.367 136.944 184.571 137.828 183.555 138.443C182.54 139.059 181.387 139.366 180.098 139.366C177.901 139.366 176.109 138.561 174.722 136.949C173.335 135.328 172.642 132.662 172.642 128.951C172.642 124.801 173.409 121.783 174.942 119.898C176.28 118.258 178.082 117.438 180.347 117.438C182.037 117.438 183.418 117.911 184.493 118.858C185.577 119.806 186.226 121.114 186.441 122.784ZM175.674 132.042C175.674 132.95 175.865 133.819 176.246 134.649C176.636 135.479 177.178 136.114 177.872 136.554C178.565 136.983 179.292 137.198 180.054 137.198C181.167 137.198 182.125 136.749 182.925 135.851C183.726 134.952 184.126 133.731 184.126 132.188C184.126 130.704 183.731 129.537 182.94 128.688C182.149 127.828 181.153 127.398 179.952 127.398C178.76 127.398 177.75 127.828 176.919 128.688C176.089 129.537 175.674 130.655 175.674 132.042ZM198.877 139V117.525H206.978C208.404 117.525 209.493 117.594 210.245 117.73C211.299 117.906 212.183 118.243 212.896 118.741C213.609 119.229 214.18 119.918 214.61 120.807C215.049 121.695 215.269 122.672 215.269 123.736C215.269 125.562 214.688 127.11 213.526 128.38C212.364 129.64 210.264 130.27 207.227 130.27H201.719V139H198.877ZM201.719 127.735H207.271C209.107 127.735 210.411 127.394 211.182 126.71C211.954 126.026 212.339 125.064 212.339 123.824C212.339 122.926 212.11 122.159 211.651 121.524C211.202 120.88 210.606 120.455 209.864 120.25C209.385 120.123 208.501 120.06 207.212 120.06H201.719V127.735ZM218.521 139V123.443H220.894V125.802C221.5 124.698 222.056 123.971 222.564 123.619C223.082 123.268 223.648 123.092 224.263 123.092C225.152 123.092 226.055 123.375 226.973 123.941L226.065 126.388C225.42 126.007 224.776 125.816 224.131 125.816C223.555 125.816 223.038 125.992 222.579 126.344C222.12 126.686 221.792 127.164 221.597 127.779C221.304 128.717 221.158 129.742 221.158 130.855V139H218.521ZM227.559 131.222C227.559 128.341 228.36 126.207 229.961 124.82C231.299 123.668 232.93 123.092 234.854 123.092C236.993 123.092 238.741 123.795 240.098 125.201C241.456 126.598 242.134 128.531 242.134 131.002C242.134 133.004 241.832 134.581 241.226 135.733C240.63 136.876 239.756 137.765 238.604 138.399C237.461 139.034 236.211 139.352 234.854 139.352C232.676 139.352 230.914 138.653 229.566 137.257C228.228 135.86 227.559 133.849 227.559 131.222ZM230.269 131.222C230.269 133.214 230.704 134.708 231.573 135.704C232.442 136.69 233.536 137.184 234.854 137.184C236.163 137.184 237.251 136.686 238.121 135.689C238.99 134.693 239.424 133.175 239.424 131.134C239.424 129.21 238.985 127.755 238.106 126.769C237.237 125.772 236.153 125.274 234.854 125.274C233.536 125.274 232.442 125.768 231.573 126.754C230.704 127.74 230.269 129.229 230.269 131.222ZM255.391 133.302L257.984 133.639C257.701 135.426 256.973 136.827 255.801 137.843C254.639 138.849 253.208 139.352 251.509 139.352C249.38 139.352 247.667 138.658 246.368 137.271C245.079 135.875 244.434 133.878 244.434 131.28C244.434 129.601 244.712 128.131 245.269 126.871C245.826 125.611 246.67 124.669 247.803 124.044C248.946 123.409 250.186 123.092 251.524 123.092C253.213 123.092 254.595 123.521 255.669 124.381C256.744 125.23 257.432 126.441 257.735 128.014L255.171 128.409C254.927 127.364 254.493 126.578 253.868 126.051C253.252 125.523 252.505 125.26 251.626 125.26C250.298 125.26 249.219 125.738 248.389 126.695C247.559 127.643 247.144 129.146 247.144 131.207C247.144 133.297 247.544 134.815 248.345 135.763C249.146 136.71 250.191 137.184 251.48 137.184C252.515 137.184 253.379 136.866 254.073 136.231C254.766 135.597 255.206 134.62 255.391 133.302ZM270.889 133.99L273.614 134.327C273.184 135.919 272.388 137.154 271.226 138.033C270.064 138.912 268.58 139.352 266.773 139.352C264.498 139.352 262.691 138.653 261.353 137.257C260.025 135.851 259.361 133.883 259.361 131.354C259.361 128.736 260.035 126.705 261.382 125.26C262.73 123.814 264.478 123.092 266.626 123.092C268.707 123.092 270.406 123.8 271.724 125.216C273.042 126.632 273.702 128.624 273.702 131.192C273.702 131.349 273.697 131.583 273.687 131.896H262.085C262.183 133.604 262.667 134.913 263.536 135.821C264.405 136.729 265.489 137.184 266.788 137.184C267.754 137.184 268.58 136.93 269.263 136.422C269.947 135.914 270.489 135.104 270.889 133.99ZM262.232 129.728H270.918C270.801 128.419 270.469 127.438 269.922 126.783C269.083 125.768 267.994 125.26 266.656 125.26C265.445 125.26 264.424 125.665 263.594 126.476C262.774 127.286 262.32 128.37 262.232 129.728ZM275.884 134.356L278.492 133.946C278.638 134.991 279.043 135.792 279.708 136.349C280.381 136.905 281.319 137.184 282.52 137.184C283.731 137.184 284.629 136.939 285.215 136.451C285.801 135.953 286.094 135.372 286.094 134.708C286.094 134.112 285.835 133.644 285.318 133.302C284.957 133.067 284.058 132.77 282.623 132.408C280.689 131.92 279.346 131.5 278.594 131.148C277.852 130.787 277.286 130.294 276.895 129.669C276.514 129.034 276.324 128.336 276.324 127.574C276.324 126.881 276.48 126.241 276.792 125.655C277.115 125.06 277.549 124.566 278.096 124.176C278.506 123.873 279.063 123.619 279.766 123.414C280.479 123.199 281.241 123.092 282.051 123.092C283.272 123.092 284.341 123.268 285.259 123.619C286.187 123.971 286.871 124.449 287.31 125.055C287.75 125.65 288.052 126.451 288.218 127.457L285.64 127.809C285.523 127.008 285.181 126.383 284.615 125.934C284.058 125.484 283.267 125.26 282.242 125.26C281.031 125.26 280.167 125.46 279.649 125.86C279.131 126.261 278.873 126.729 278.873 127.267C278.873 127.608 278.98 127.916 279.195 128.189C279.41 128.473 279.747 128.707 280.206 128.893C280.469 128.99 281.246 129.215 282.535 129.566C284.4 130.064 285.699 130.475 286.431 130.797C287.173 131.109 287.754 131.568 288.174 132.174C288.594 132.779 288.804 133.531 288.804 134.43C288.804 135.309 288.545 136.139 288.028 136.92C287.52 137.691 286.783 138.292 285.816 138.722C284.849 139.142 283.755 139.352 282.535 139.352C280.513 139.352 278.97 138.932 277.906 138.092C276.851 137.252 276.177 136.007 275.884 134.356ZM290.884 134.356L293.492 133.946C293.638 134.991 294.043 135.792 294.708 136.349C295.381 136.905 296.319 137.184 297.52 137.184C298.731 137.184 299.629 136.939 300.215 136.451C300.801 135.953 301.094 135.372 301.094 134.708C301.094 134.112 300.835 133.644 300.318 133.302C299.957 133.067 299.058 132.77 297.623 132.408C295.689 131.92 294.346 131.5 293.594 131.148C292.852 130.787 292.286 130.294 291.895 129.669C291.514 129.034 291.324 128.336 291.324 127.574C291.324 126.881 291.48 126.241 291.792 125.655C292.115 125.06 292.549 124.566 293.096 124.176C293.506 123.873 294.063 123.619 294.766 123.414C295.479 123.199 296.241 123.092 297.051 123.092C298.272 123.092 299.341 123.268 300.259 123.619C301.187 123.971 301.871 124.449 302.31 125.055C302.75 125.65 303.052 126.451 303.218 127.457L300.64 127.809C300.523 127.008 300.181 126.383 299.615 125.934C299.058 125.484 298.267 125.26 297.242 125.26C296.031 125.26 295.167 125.46 294.649 125.86C294.131 126.261 293.873 126.729 293.873 127.267C293.873 127.608 293.98 127.916 294.195 128.189C294.41 128.473 294.747 128.707 295.206 128.893C295.469 128.99 296.246 129.215 297.535 129.566C299.4 130.064 300.699 130.475 301.431 130.797C302.173 131.109 302.754 131.568 303.174 132.174C303.594 132.779 303.804 133.531 303.804 134.43C303.804 135.309 303.545 136.139 303.028 136.92C302.52 137.691 301.783 138.292 300.816 138.722C299.849 139.142 298.755 139.352 297.535 139.352C295.513 139.352 293.97 138.932 292.906 138.092C291.851 137.252 291.177 136.007 290.884 134.356Z" fill="#2699FB"/>
<path d="M358 180H30V236H358V180Z" fill="white"/>
<path d="M357.75 180.25H30.25V235.75H357.75V180.25Z" stroke="#7FC4FD" stroke-width="0.5"/>
<path d="M358 255H30V305H358V255Z" fill="white"/>
<path d="M357.5 255.5H30.5V304.5H357.5V255.5Z" stroke="#BCE0FD"/>
<path d="M50.6289 280.78L51.8799 280.671C51.9391 281.172 52.0758 281.585 52.29 281.908C52.5088 282.227 52.846 282.487 53.3018 282.688C53.7575 282.883 54.2702 282.981 54.8398 282.981C55.3457 282.981 55.7923 282.906 56.1797 282.756C56.5671 282.605 56.8542 282.4 57.041 282.141C57.2324 281.876 57.3281 281.589 57.3281 281.279C57.3281 280.965 57.237 280.691 57.0547 280.459C56.8724 280.222 56.5716 280.024 56.1523 279.864C55.8835 279.759 55.2887 279.598 54.3682 279.379C53.4476 279.156 52.8027 278.946 52.4336 278.75C51.9551 278.499 51.5973 278.189 51.3604 277.82C51.1279 277.447 51.0117 277.03 51.0117 276.569C51.0117 276.063 51.1553 275.592 51.4424 275.154C51.7295 274.712 52.1488 274.377 52.7002 274.149C53.2516 273.922 53.8646 273.808 54.5391 273.808C55.2819 273.808 55.9359 273.928 56.501 274.17C57.0706 274.407 57.5081 274.758 57.8135 275.223C58.1188 275.688 58.2829 276.214 58.3057 276.802L57.0342 276.897C56.9658 276.264 56.7334 275.785 56.3369 275.462C55.945 275.138 55.3639 274.977 54.5938 274.977C53.7917 274.977 53.2061 275.125 52.8369 275.421C52.4723 275.713 52.29 276.066 52.29 276.48C52.29 276.84 52.4199 277.137 52.6797 277.369C52.9349 277.602 53.6003 277.841 54.6758 278.087C55.7559 278.328 56.4964 278.54 56.8975 278.723C57.4808 278.992 57.9115 279.333 58.1895 279.748C58.4674 280.158 58.6064 280.632 58.6064 281.17C58.6064 281.703 58.4538 282.207 58.1484 282.681C57.8431 283.15 57.4033 283.517 56.8291 283.781C56.2594 284.041 55.6169 284.171 54.9014 284.171C53.9945 284.171 53.2334 284.039 52.6182 283.774C52.0075 283.51 51.5267 283.114 51.1758 282.585C50.8294 282.052 50.6471 281.45 50.6289 280.78ZM65.2305 281.662L66.502 281.819C66.3014 282.562 65.93 283.139 65.3877 283.549C64.8454 283.959 64.1527 284.164 63.3096 284.164C62.2477 284.164 61.4046 283.838 60.7803 283.187C60.1605 282.53 59.8506 281.612 59.8506 280.432C59.8506 279.21 60.165 278.262 60.7939 277.588C61.4229 276.913 62.2386 276.576 63.2412 276.576C64.2119 276.576 65.0049 276.907 65.6201 277.567C66.2354 278.228 66.543 279.158 66.543 280.356C66.543 280.429 66.5407 280.539 66.5361 280.685H61.1221C61.1676 281.482 61.3932 282.093 61.7988 282.517C62.2044 282.94 62.7103 283.152 63.3164 283.152C63.7676 283.152 64.1527 283.034 64.4717 282.797C64.7907 282.56 65.0436 282.182 65.2305 281.662ZM61.1904 279.673H65.2441C65.1895 279.062 65.0345 278.604 64.7793 278.299C64.3874 277.825 63.8792 277.588 63.2549 277.588C62.6898 277.588 62.2135 277.777 61.8262 278.155C61.4434 278.534 61.2314 279.039 61.1904 279.673ZM68.0264 284V273.979H69.2568V284H68.0264ZM76.1406 281.662L77.4121 281.819C77.2116 282.562 76.8402 283.139 76.2979 283.549C75.7555 283.959 75.0628 284.164 74.2197 284.164C73.1579 284.164 72.3148 283.838 71.6904 283.187C71.0706 282.53 70.7607 281.612 70.7607 280.432C70.7607 279.21 71.0752 278.262 71.7041 277.588C72.333 276.913 73.1488 276.576 74.1514 276.576C75.1221 276.576 75.915 276.907 76.5303 277.567C77.1455 278.228 77.4531 279.158 77.4531 280.356C77.4531 280.429 77.4508 280.539 77.4463 280.685H72.0322C72.0778 281.482 72.3034 282.093 72.709 282.517C73.1146 282.94 73.6204 283.152 74.2266 283.152C74.6777 283.152 75.0628 283.034 75.3818 282.797C75.7008 282.56 75.9538 282.182 76.1406 281.662ZM72.1006 279.673H76.1543C76.0996 279.062 75.9447 278.604 75.6895 278.299C75.2975 277.825 74.7894 277.588 74.165 277.588C73.5999 277.588 73.1237 277.777 72.7363 278.155C72.3535 278.534 72.1416 279.039 72.1006 279.673ZM83.7012 281.341L84.9111 281.498C84.779 282.332 84.4395 282.986 83.8926 283.46C83.3503 283.929 82.6826 284.164 81.8896 284.164C80.8962 284.164 80.0964 283.84 79.4902 283.193C78.8887 282.542 78.5879 281.61 78.5879 280.397C78.5879 279.614 78.7178 278.928 78.9775 278.34C79.2373 277.752 79.6315 277.312 80.1602 277.021C80.6934 276.724 81.2721 276.576 81.8965 276.576C82.6849 276.576 83.3298 276.777 83.8311 277.178C84.3324 277.574 84.6536 278.139 84.7949 278.873L83.5986 279.058C83.4847 278.57 83.2819 278.203 82.9902 277.957C82.7031 277.711 82.3545 277.588 81.9443 277.588C81.3245 277.588 80.821 277.811 80.4336 278.258C80.0462 278.7 79.8525 279.402 79.8525 280.363C79.8525 281.339 80.0394 282.047 80.4131 282.489C80.7868 282.931 81.2744 283.152 81.876 283.152C82.359 283.152 82.7624 283.004 83.0859 282.708C83.4095 282.412 83.6146 281.956 83.7012 281.341ZM88.6504 282.899L88.8281 283.986C88.4818 284.059 88.1719 284.096 87.8984 284.096C87.4518 284.096 87.1055 284.025 86.8594 283.884C86.6133 283.743 86.4401 283.558 86.3398 283.33C86.2396 283.098 86.1895 282.612 86.1895 281.874V277.697H85.2871V276.74H86.1895V274.942L87.4131 274.204V276.74H88.6504V277.697H87.4131V281.942C87.4131 282.293 87.4336 282.519 87.4746 282.619C87.5202 282.719 87.5908 282.799 87.6865 282.858C87.7868 282.918 87.9281 282.947 88.1104 282.947C88.2471 282.947 88.4271 282.931 88.6504 282.899ZM98.4941 283.104C98.0384 283.492 97.5986 283.765 97.1748 283.925C96.7555 284.084 96.3044 284.164 95.8213 284.164C95.0238 284.164 94.4108 283.97 93.9824 283.583C93.554 283.191 93.3398 282.692 93.3398 282.086C93.3398 281.73 93.4196 281.407 93.5791 281.115C93.7432 280.819 93.9551 280.582 94.2148 280.404C94.4792 280.227 94.7754 280.092 95.1035 280.001C95.3451 279.937 95.7096 279.876 96.1973 279.816C97.1908 279.698 97.9222 279.557 98.3916 279.393C98.3962 279.224 98.3984 279.117 98.3984 279.071C98.3984 278.57 98.2822 278.217 98.0498 278.012C97.7354 277.734 97.2682 277.595 96.6484 277.595C96.0697 277.595 95.6413 277.697 95.3633 277.902C95.0898 278.103 94.887 278.461 94.7549 278.976L93.5518 278.812C93.6611 278.297 93.8411 277.882 94.0918 277.567C94.3424 277.248 94.7048 277.005 95.1787 276.836C95.6527 276.663 96.2018 276.576 96.8262 276.576C97.446 276.576 97.9495 276.649 98.3369 276.795C98.7243 276.941 99.0091 277.125 99.1914 277.349C99.3737 277.567 99.5013 277.845 99.5742 278.183C99.6152 278.392 99.6357 278.771 99.6357 279.317V280.958C99.6357 282.102 99.6608 282.826 99.7109 283.132C99.7656 283.433 99.8704 283.722 100.025 284H98.7402C98.6126 283.745 98.5306 283.446 98.4941 283.104ZM98.3916 280.356C97.945 280.539 97.2751 280.694 96.3818 280.821C95.876 280.894 95.5182 280.976 95.3086 281.067C95.099 281.159 94.9372 281.293 94.8232 281.471C94.7093 281.644 94.6523 281.838 94.6523 282.052C94.6523 282.38 94.7754 282.653 95.0215 282.872C95.2721 283.091 95.6367 283.2 96.1152 283.2C96.5892 283.2 97.0107 283.098 97.3799 282.893C97.749 282.683 98.0202 282.398 98.1934 282.038C98.3255 281.76 98.3916 281.35 98.3916 280.808V280.356ZM106.581 284H105.439V273.979H106.67V277.554C107.189 276.902 107.853 276.576 108.659 276.576C109.106 276.576 109.527 276.667 109.924 276.85C110.325 277.027 110.653 277.28 110.908 277.608C111.168 277.932 111.371 278.324 111.517 278.784C111.662 279.244 111.735 279.737 111.735 280.261C111.735 281.505 111.428 282.466 110.812 283.146C110.197 283.825 109.459 284.164 108.598 284.164C107.741 284.164 107.069 283.806 106.581 283.091V284ZM106.567 280.315C106.567 281.186 106.686 281.815 106.923 282.202C107.31 282.836 107.834 283.152 108.495 283.152C109.033 283.152 109.498 282.92 109.89 282.455C110.282 281.986 110.478 281.288 110.478 280.363C110.478 279.415 110.288 278.716 109.91 278.265C109.536 277.813 109.083 277.588 108.55 277.588C108.012 277.588 107.547 277.823 107.155 278.292C106.763 278.757 106.567 279.431 106.567 280.315ZM113.226 284V276.74H114.333V277.841C114.616 277.326 114.875 276.986 115.112 276.822C115.354 276.658 115.618 276.576 115.905 276.576C116.32 276.576 116.742 276.708 117.17 276.973L116.746 278.114C116.445 277.937 116.145 277.848 115.844 277.848C115.575 277.848 115.333 277.93 115.119 278.094C114.905 278.253 114.752 278.477 114.661 278.764C114.524 279.201 114.456 279.68 114.456 280.199V284H113.226ZM122.639 283.104C122.183 283.492 121.743 283.765 121.319 283.925C120.9 284.084 120.449 284.164 119.966 284.164C119.168 284.164 118.555 283.97 118.127 283.583C117.699 283.191 117.484 282.692 117.484 282.086C117.484 281.73 117.564 281.407 117.724 281.115C117.888 280.819 118.1 280.582 118.359 280.404C118.624 280.227 118.92 280.092 119.248 280.001C119.49 279.937 119.854 279.876 120.342 279.816C121.335 279.698 122.067 279.557 122.536 279.393C122.541 279.224 122.543 279.117 122.543 279.071C122.543 278.57 122.427 278.217 122.194 278.012C121.88 277.734 121.413 277.595 120.793 277.595C120.214 277.595 119.786 277.697 119.508 277.902C119.234 278.103 119.032 278.461 118.899 278.976L117.696 278.812C117.806 278.297 117.986 277.882 118.236 277.567C118.487 277.248 118.849 277.005 119.323 276.836C119.797 276.663 120.346 276.576 120.971 276.576C121.59 276.576 122.094 276.649 122.481 276.795C122.869 276.941 123.154 277.125 123.336 277.349C123.518 277.567 123.646 277.845 123.719 278.183C123.76 278.392 123.78 278.771 123.78 279.317V280.958C123.78 282.102 123.805 282.826 123.855 283.132C123.91 283.433 124.015 283.722 124.17 284H122.885C122.757 283.745 122.675 283.446 122.639 283.104ZM122.536 280.356C122.09 280.539 121.42 280.694 120.526 280.821C120.021 280.894 119.663 280.976 119.453 281.067C119.243 281.159 119.082 281.293 118.968 281.471C118.854 281.644 118.797 281.838 118.797 282.052C118.797 282.38 118.92 282.653 119.166 282.872C119.417 283.091 119.781 283.2 120.26 283.2C120.734 283.2 121.155 283.098 121.524 282.893C121.894 282.683 122.165 282.398 122.338 282.038C122.47 281.76 122.536 281.35 122.536 280.808V280.356ZM125.694 284V276.74H126.802V277.772C127.335 276.975 128.105 276.576 129.112 276.576C129.55 276.576 129.951 276.656 130.315 276.815C130.685 276.97 130.96 277.175 131.143 277.431C131.325 277.686 131.452 277.989 131.525 278.34C131.571 278.568 131.594 278.966 131.594 279.536V284H130.363V279.584C130.363 279.083 130.315 278.709 130.22 278.463C130.124 278.212 129.953 278.014 129.707 277.868C129.465 277.718 129.181 277.643 128.853 277.643C128.328 277.643 127.875 277.809 127.492 278.142C127.114 278.474 126.925 279.105 126.925 280.035V284H125.694ZM138.197 284V283.084C137.737 283.804 137.06 284.164 136.167 284.164C135.588 284.164 135.055 284.005 134.567 283.686C134.084 283.367 133.708 282.922 133.439 282.353C133.175 281.778 133.043 281.12 133.043 280.377C133.043 279.652 133.164 278.996 133.405 278.408C133.647 277.816 134.009 277.362 134.492 277.048C134.975 276.733 135.515 276.576 136.112 276.576C136.55 276.576 136.939 276.67 137.281 276.856C137.623 277.039 137.901 277.278 138.115 277.574V273.979H139.339V284H138.197ZM134.308 280.377C134.308 281.307 134.504 282.002 134.896 282.462C135.287 282.922 135.75 283.152 136.283 283.152C136.821 283.152 137.277 282.934 137.65 282.496C138.029 282.054 138.218 281.382 138.218 280.479C138.218 279.486 138.026 278.757 137.644 278.292C137.261 277.827 136.789 277.595 136.229 277.595C135.682 277.595 135.224 277.818 134.854 278.265C134.49 278.711 134.308 279.415 134.308 280.377Z" fill="#2699FB"/>
<path d="M331.7 283.101L327 278.401L328.4 277.001L331.7 280.301L335 277.001L336.4 278.401L331.7 283.101Z" fill="#2699FB"/>
<path d="M134.64 208.98L136.534 209.459C136.137 211.015 135.421 212.203 134.386 213.023C133.357 213.837 132.097 214.244 130.607 214.244C129.064 214.244 127.807 213.932 126.837 213.307C125.873 212.675 125.138 211.764 124.63 210.572C124.129 209.381 123.878 208.102 123.878 206.734C123.878 205.243 124.161 203.945 124.728 202.838C125.301 201.725 126.111 200.882 127.159 200.309C128.214 199.729 129.373 199.439 130.636 199.439C132.068 199.439 133.273 199.804 134.249 200.533C135.226 201.262 135.906 202.288 136.29 203.609L134.425 204.049C134.093 203.007 133.611 202.249 132.98 201.773C132.348 201.298 131.554 201.061 130.597 201.061C129.497 201.061 128.575 201.324 127.833 201.852C127.097 202.379 126.58 203.089 126.28 203.98C125.981 204.866 125.831 205.781 125.831 206.725C125.831 207.942 126.007 209.007 126.359 209.918C126.717 210.823 127.27 211.5 128.019 211.949C128.767 212.398 129.578 212.623 130.45 212.623C131.512 212.623 132.41 212.317 133.146 211.705C133.881 211.093 134.379 210.185 134.64 208.98ZM145.45 214V212.477C144.643 213.648 143.546 214.234 142.159 214.234C141.547 214.234 140.974 214.117 140.441 213.883C139.913 213.648 139.519 213.355 139.259 213.004C139.005 212.646 138.826 212.21 138.722 211.695C138.65 211.35 138.614 210.803 138.614 210.055V203.629H140.372V209.381C140.372 210.299 140.408 210.917 140.48 211.236C140.59 211.699 140.825 212.063 141.183 212.33C141.541 212.59 141.984 212.721 142.511 212.721C143.038 212.721 143.533 212.587 143.995 212.32C144.457 212.047 144.783 211.679 144.972 211.217C145.167 210.748 145.265 210.071 145.265 209.186V203.629H147.023V214H145.45ZM149.083 210.904L150.821 210.631C150.919 211.327 151.189 211.861 151.632 212.232C152.081 212.604 152.706 212.789 153.507 212.789C154.314 212.789 154.913 212.626 155.304 212.301C155.694 211.969 155.89 211.581 155.89 211.139C155.89 210.742 155.717 210.429 155.372 210.201C155.131 210.045 154.532 209.846 153.575 209.605C152.286 209.28 151.391 209 150.89 208.766C150.395 208.525 150.017 208.196 149.757 207.779C149.503 207.356 149.376 206.891 149.376 206.383C149.376 205.921 149.48 205.494 149.689 205.104C149.903 204.706 150.193 204.378 150.558 204.117C150.831 203.915 151.202 203.746 151.671 203.609C152.146 203.466 152.654 203.395 153.194 203.395C154.008 203.395 154.721 203.512 155.333 203.746C155.952 203.98 156.407 204.299 156.7 204.703C156.993 205.1 157.195 205.634 157.306 206.305L155.587 206.539C155.509 206.005 155.281 205.589 154.903 205.289C154.532 204.99 154.005 204.84 153.321 204.84C152.514 204.84 151.938 204.973 151.593 205.24C151.248 205.507 151.075 205.82 151.075 206.178C151.075 206.406 151.147 206.611 151.29 206.793C151.433 206.982 151.658 207.138 151.964 207.262C152.14 207.327 152.657 207.477 153.517 207.711C154.76 208.043 155.626 208.316 156.114 208.531C156.609 208.74 156.997 209.046 157.276 209.449C157.556 209.853 157.696 210.354 157.696 210.953C157.696 211.539 157.524 212.092 157.179 212.613C156.84 213.128 156.349 213.528 155.704 213.814C155.06 214.094 154.331 214.234 153.517 214.234C152.169 214.234 151.14 213.954 150.431 213.395C149.728 212.835 149.278 212.005 149.083 210.904ZM163.624 212.428L163.878 213.98C163.383 214.085 162.941 214.137 162.55 214.137C161.912 214.137 161.417 214.036 161.066 213.834C160.714 213.632 160.467 213.368 160.323 213.043C160.18 212.711 160.109 212.018 160.109 210.963V204.996H158.819V203.629H160.109V201.061L161.857 200.006V203.629H163.624V204.996H161.857V211.061C161.857 211.562 161.886 211.884 161.944 212.027C162.01 212.171 162.11 212.285 162.247 212.369C162.39 212.454 162.592 212.496 162.853 212.496C163.048 212.496 163.305 212.473 163.624 212.428ZM164.698 208.814C164.698 206.894 165.232 205.471 166.3 204.547C167.192 203.779 168.279 203.395 169.562 203.395C170.987 203.395 172.153 203.863 173.058 204.801C173.963 205.732 174.415 207.021 174.415 208.668C174.415 210.003 174.213 211.054 173.81 211.822C173.413 212.584 172.83 213.176 172.062 213.6C171.3 214.023 170.467 214.234 169.562 214.234C168.11 214.234 166.935 213.769 166.036 212.838C165.144 211.907 164.698 210.566 164.698 208.814ZM166.505 208.814C166.505 210.143 166.795 211.139 167.374 211.803C167.954 212.46 168.683 212.789 169.562 212.789C170.434 212.789 171.16 212.457 171.739 211.793C172.319 211.129 172.609 210.117 172.609 208.756C172.609 207.473 172.316 206.503 171.73 205.846C171.15 205.182 170.428 204.85 169.562 204.85C168.683 204.85 167.954 205.178 167.374 205.836C166.795 206.493 166.505 207.486 166.505 208.814ZM176.485 214V203.629H178.058V205.084C178.383 204.576 178.816 204.169 179.357 203.863C179.897 203.551 180.512 203.395 181.202 203.395C181.97 203.395 182.599 203.554 183.087 203.873C183.582 204.192 183.93 204.638 184.132 205.211C184.952 204 186.02 203.395 187.335 203.395C188.364 203.395 189.155 203.681 189.708 204.254C190.262 204.82 190.538 205.696 190.538 206.881V214H188.79V207.467C188.79 206.764 188.732 206.259 188.614 205.953C188.504 205.641 188.299 205.39 187.999 205.201C187.7 205.012 187.348 204.918 186.944 204.918C186.215 204.918 185.61 205.162 185.128 205.65C184.646 206.132 184.405 206.907 184.405 207.975V214H182.648V207.262C182.648 206.48 182.504 205.895 182.218 205.504C181.931 205.113 181.463 204.918 180.812 204.918C180.317 204.918 179.858 205.048 179.435 205.309C179.018 205.569 178.715 205.95 178.526 206.451C178.338 206.952 178.243 207.675 178.243 208.619V214H176.485ZM198.937 214V199.684H204.337C205.288 199.684 206.013 199.729 206.515 199.82C207.218 199.938 207.807 200.162 208.282 200.494C208.758 200.82 209.138 201.279 209.425 201.871C209.718 202.464 209.864 203.115 209.864 203.824C209.864 205.042 209.477 206.074 208.702 206.92C207.928 207.76 206.528 208.18 204.503 208.18H200.831V214H198.937ZM200.831 206.49H204.532C205.756 206.49 206.625 206.262 207.14 205.807C207.654 205.351 207.911 204.71 207.911 203.883C207.911 203.284 207.758 202.773 207.452 202.35C207.153 201.92 206.756 201.637 206.261 201.5C205.942 201.415 205.353 201.373 204.493 201.373H200.831V206.49ZM212.032 214V203.629H213.614V205.201C214.018 204.465 214.389 203.98 214.728 203.746C215.073 203.512 215.45 203.395 215.86 203.395C216.453 203.395 217.055 203.583 217.667 203.961L217.062 205.592C216.632 205.338 216.202 205.211 215.773 205.211C215.388 205.211 215.043 205.328 214.737 205.562C214.431 205.79 214.213 206.109 214.083 206.52C213.888 207.145 213.79 207.828 213.79 208.57V214H212.032ZM218.058 208.814C218.058 206.894 218.592 205.471 219.659 204.547C220.551 203.779 221.638 203.395 222.921 203.395C224.347 203.395 225.512 203.863 226.417 204.801C227.322 205.732 227.775 207.021 227.775 208.668C227.775 210.003 227.573 211.054 227.169 211.822C226.772 212.584 226.189 213.176 225.421 213.6C224.659 214.023 223.826 214.234 222.921 214.234C221.469 214.234 220.294 213.769 219.396 212.838C218.504 211.907 218.058 210.566 218.058 208.814ZM219.864 208.814C219.864 210.143 220.154 211.139 220.734 211.803C221.313 212.46 222.042 212.789 222.921 212.789C223.793 212.789 224.519 212.457 225.099 211.793C225.678 211.129 225.968 210.117 225.968 208.756C225.968 207.473 225.675 206.503 225.089 205.846C224.51 205.182 223.787 204.85 222.921 204.85C222.042 204.85 221.313 205.178 220.734 205.836C220.154 206.493 219.864 207.486 219.864 208.814ZM230.265 214V204.996H228.712V203.629H230.265V202.525C230.265 201.829 230.327 201.311 230.45 200.973C230.62 200.517 230.916 200.149 231.339 199.869C231.769 199.583 232.368 199.439 233.136 199.439C233.631 199.439 234.178 199.498 234.776 199.615L234.513 201.148C234.148 201.083 233.803 201.051 233.478 201.051C232.944 201.051 232.566 201.165 232.345 201.393C232.123 201.62 232.013 202.047 232.013 202.672V203.629H234.034V204.996H232.013V214H230.265ZM235.421 201.705V199.684H237.179V201.705H235.421ZM235.421 214V203.629H237.179V214H235.421ZM239.825 214V199.684H241.583V214H239.825ZM251.417 210.66L253.234 210.885C252.947 211.946 252.416 212.77 251.642 213.355C250.867 213.941 249.877 214.234 248.673 214.234C247.156 214.234 245.952 213.769 245.06 212.838C244.174 211.9 243.732 210.589 243.732 208.902C243.732 207.158 244.181 205.803 245.079 204.84C245.978 203.876 247.143 203.395 248.575 203.395C249.962 203.395 251.095 203.867 251.974 204.811C252.853 205.755 253.292 207.083 253.292 208.795C253.292 208.899 253.289 209.055 253.282 209.264H245.548C245.613 210.403 245.935 211.275 246.515 211.881C247.094 212.486 247.817 212.789 248.683 212.789C249.327 212.789 249.877 212.62 250.333 212.281C250.789 211.943 251.15 211.402 251.417 210.66ZM245.646 207.818H251.437C251.359 206.946 251.137 206.292 250.773 205.855C250.213 205.178 249.487 204.84 248.595 204.84C247.788 204.84 247.107 205.11 246.554 205.65C246.007 206.191 245.704 206.913 245.646 207.818Z" fill="#2699FB"/>
<path d="M70 20H40C34.4772 20 30 24.4772 30 30V60C30 65.5228 34.4772 70 40 70H70C75.5228 70 80 65.5228 80 60V30C80 24.4772 75.5228 20 70 20Z" fill="#FAFAFA"/>
<path d="M70 21H40C35.0294 21 31 25.0294 31 30V60C31 64.9706 35.0294 69 40 69H70C74.9706 69 79 64.9706 79 60V30C79 25.0294 74.9706 21 70 21Z" stroke="#2699FB" stroke-width="2"/>
<path d="M56 53L57.455 51.545L51.949 46.039H64V43.961H51.948L57.455 38.455L56 37L48 45L56 53Z" fill="#2699FB"/>
<defs>
<filter id="filter0_d" x="0" y="0" width="387" height="95" filterUnits="userSpaceOnUse" color-interpolation-filters="sRGB">
<feFlood flood-opacity="0" result="BackgroundImageFix"/>
<feColorMatrix in="SourceAlpha" type="matrix" values="0 0 0 0 0 0 0 0 0 0 0 0 0 0 0 0 0 0 127 0"/>
<feOffset dy="3"/>
<feGaussianBlur stdDeviation="3"/>
<feColorMatrix type="matrix" values="0 0 0 0 0 0 0 0 0 0 0 0 0 0 0 0 0 0 0.161 0"/>
<feBlend mode="normal" in2="BackgroundImageFix" result="effect1_dropShadow"/>
<feBlend mode="normal" in="SourceGraphic" in2="effect1_dropShadow" result="shape"/>
</filter>
</defs>
</svg>
