<svg width="387" height="815" viewBox="0 0 387 815" fill="none" xmlns="http://www.w3.org/2000/svg">
<path d="M381 3H6V815H381V3Z" fill="white"/>
<g filter="url(#filter0_d)">
<path d="M381 3H6V86H381V3Z" fill="white"/>
</g>
<path d="M62.4111 139V117.525H65.3262L76.6055 134.386V117.525H79.3301V139H76.415L65.1357 122.125V139H62.4111ZM94.4326 133.99L97.1572 134.327C96.7275 135.919 95.9316 137.154 94.7695 138.033C93.6074 138.912 92.123 139.352 90.3164 139.352C88.041 139.352 86.2344 138.653 84.8965 137.257C83.5684 135.851 82.9043 133.883 82.9043 131.354C82.9043 128.736 83.5781 126.705 84.9258 125.26C86.2734 123.814 88.0215 123.092 90.1699 123.092C92.25 123.092 93.9492 123.8 95.2676 125.216C96.5859 126.632 97.2451 128.624 97.2451 131.192C97.2451 131.349 97.2402 131.583 97.2305 131.896H85.6289C85.7266 133.604 86.21 134.913 87.0791 135.821C87.9482 136.729 89.0322 137.184 90.3311 137.184C91.2979 137.184 92.123 136.93 92.8066 136.422C93.4902 135.914 94.0322 135.104 94.4326 133.99ZM85.7754 129.728H94.4619C94.3447 128.419 94.0127 127.438 93.4658 126.783C92.626 125.768 91.5371 125.26 90.1992 125.26C88.9883 125.26 87.9678 125.665 87.1377 126.476C86.3174 127.286 85.8633 128.37 85.7754 129.728ZM103.354 139L98.5928 123.443H101.317L103.793 132.423L104.716 135.763C104.755 135.597 105.023 134.527 105.521 132.555L107.997 123.443H110.707L113.036 132.467L113.812 135.44L114.706 132.438L117.372 123.443H119.936L115.072 139H112.333L109.857 129.684L109.257 127.032L106.107 139H103.354ZM130.731 139V117.525H138.788C140.429 117.525 141.742 117.745 142.729 118.185C143.725 118.614 144.501 119.283 145.058 120.191C145.624 121.09 145.907 122.032 145.907 123.019C145.907 123.937 145.658 124.801 145.16 125.611C144.662 126.422 143.91 127.076 142.904 127.574C144.203 127.955 145.199 128.604 145.893 129.522C146.596 130.44 146.947 131.524 146.947 132.774C146.947 133.78 146.732 134.718 146.303 135.587C145.883 136.446 145.36 137.11 144.735 137.579C144.11 138.048 143.324 138.404 142.377 138.648C141.439 138.883 140.287 139 138.92 139H130.731ZM133.573 126.549H138.217C139.477 126.549 140.38 126.466 140.927 126.3C141.649 126.085 142.191 125.729 142.553 125.23C142.924 124.732 143.109 124.107 143.109 123.355C143.109 122.643 142.938 122.018 142.597 121.48C142.255 120.934 141.767 120.562 141.132 120.367C140.497 120.162 139.408 120.06 137.865 120.06H133.573V126.549ZM133.573 136.466H138.92C139.838 136.466 140.482 136.432 140.854 136.363C141.508 136.246 142.055 136.051 142.494 135.777C142.934 135.504 143.295 135.108 143.578 134.591C143.861 134.063 144.003 133.458 144.003 132.774C144.003 131.974 143.798 131.28 143.388 130.694C142.978 130.099 142.406 129.684 141.674 129.449C140.951 129.205 139.906 129.083 138.539 129.083H133.573V136.466ZM162.797 136.466C161.928 137.433 160.98 138.16 159.955 138.648C158.93 139.127 157.821 139.366 156.63 139.366C154.433 139.366 152.689 138.624 151.4 137.14C150.355 135.929 149.833 134.576 149.833 133.082C149.833 131.754 150.258 130.558 151.107 129.493C151.967 128.419 153.246 127.477 154.945 126.666C153.979 125.553 153.334 124.649 153.012 123.956C152.689 123.263 152.528 122.594 152.528 121.949C152.528 120.66 153.031 119.542 154.037 118.595C155.053 117.638 156.327 117.159 157.86 117.159C159.325 117.159 160.521 117.608 161.449 118.507C162.387 119.405 162.855 120.484 162.855 121.744C162.855 123.785 161.503 125.528 158.798 126.974L162.65 131.881C163.09 131.021 163.432 130.025 163.676 128.893L166.415 129.479C165.946 131.354 165.312 132.896 164.511 134.107C165.497 135.416 166.615 136.515 167.865 137.403L166.093 139.498C165.028 138.814 163.93 137.804 162.797 136.466ZM157.436 125.274C158.578 124.601 159.315 124.01 159.647 123.502C159.989 122.994 160.16 122.433 160.16 121.817C160.16 121.085 159.926 120.489 159.457 120.03C158.998 119.562 158.422 119.327 157.729 119.327C157.016 119.327 156.42 119.557 155.941 120.016C155.473 120.475 155.238 121.036 155.238 121.7C155.238 122.032 155.321 122.384 155.487 122.755C155.663 123.116 155.922 123.502 156.264 123.912L157.436 125.274ZM161.142 134.386L156.308 128.395C154.882 129.244 153.92 130.035 153.422 130.768C152.924 131.49 152.675 132.208 152.675 132.921C152.675 133.79 153.021 134.693 153.715 135.631C154.408 136.568 155.39 137.037 156.659 137.037C157.45 137.037 158.266 136.793 159.105 136.305C159.955 135.807 160.634 135.167 161.142 134.386ZM174.618 139L168.92 117.525H171.835L175.102 131.603C175.453 133.077 175.756 134.542 176.01 135.997C176.557 133.702 176.879 132.379 176.977 132.027L181.063 117.525H184.491L187.567 128.395C188.339 131.09 188.896 133.624 189.237 135.997C189.511 134.64 189.867 133.082 190.307 131.324L193.676 117.525H196.532L190.644 139H187.904L183.378 122.638C182.997 121.271 182.772 120.431 182.704 120.118C182.479 121.104 182.27 121.944 182.074 122.638L177.519 139H174.618ZM207.548 139V117.525H215.648C217.074 117.525 218.163 117.594 218.915 117.73C219.97 117.906 220.854 118.243 221.566 118.741C222.279 119.229 222.851 119.918 223.28 120.807C223.72 121.695 223.939 122.672 223.939 123.736C223.939 125.562 223.358 127.11 222.196 128.38C221.034 129.64 218.935 130.27 215.897 130.27H210.39V139H207.548ZM210.39 127.735H215.941C217.777 127.735 219.081 127.394 219.853 126.71C220.624 126.026 221.01 125.064 221.01 123.824C221.01 122.926 220.78 122.159 220.321 121.524C219.872 120.88 219.276 120.455 218.534 120.25C218.056 120.123 217.172 120.06 215.883 120.06H210.39V127.735ZM227.191 139V123.443H229.564V125.802C230.17 124.698 230.727 123.971 231.234 123.619C231.752 123.268 232.318 123.092 232.934 123.092C233.822 123.092 234.726 123.375 235.644 123.941L234.735 126.388C234.091 126.007 233.446 125.816 232.802 125.816C232.226 125.816 231.708 125.992 231.249 126.344C230.79 126.686 230.463 127.164 230.268 127.779C229.975 128.717 229.828 129.742 229.828 130.855V139H227.191ZM236.229 131.222C236.229 128.341 237.03 126.207 238.632 124.82C239.97 123.668 241.601 123.092 243.524 123.092C245.663 123.092 247.411 123.795 248.769 125.201C250.126 126.598 250.805 128.531 250.805 131.002C250.805 133.004 250.502 134.581 249.896 135.733C249.301 136.876 248.427 137.765 247.274 138.399C246.132 139.034 244.882 139.352 243.524 139.352C241.347 139.352 239.584 138.653 238.236 137.257C236.898 135.86 236.229 133.849 236.229 131.222ZM238.939 131.222C238.939 133.214 239.374 134.708 240.243 135.704C241.112 136.69 242.206 137.184 243.524 137.184C244.833 137.184 245.922 136.686 246.791 135.689C247.66 134.693 248.095 133.175 248.095 131.134C248.095 129.21 247.655 127.755 246.776 126.769C245.907 125.772 244.823 125.274 243.524 125.274C242.206 125.274 241.112 125.768 240.243 126.754C239.374 127.74 238.939 129.229 238.939 131.222ZM264.062 133.302L266.654 133.639C266.371 135.426 265.644 136.827 264.472 137.843C263.31 138.849 261.879 139.352 260.18 139.352C258.051 139.352 256.337 138.658 255.038 137.271C253.749 135.875 253.104 133.878 253.104 131.28C253.104 129.601 253.383 128.131 253.939 126.871C254.496 125.611 255.341 124.669 256.474 124.044C257.616 123.409 258.856 123.092 260.194 123.092C261.884 123.092 263.266 123.521 264.34 124.381C265.414 125.23 266.103 126.441 266.405 128.014L263.842 128.409C263.598 127.364 263.163 126.578 262.538 126.051C261.923 125.523 261.176 125.26 260.297 125.26C258.969 125.26 257.89 125.738 257.06 126.695C256.229 127.643 255.814 129.146 255.814 131.207C255.814 133.297 256.215 134.815 257.016 135.763C257.816 136.71 258.861 137.184 260.15 137.184C261.186 137.184 262.05 136.866 262.743 136.231C263.437 135.597 263.876 134.62 264.062 133.302ZM279.56 133.99L282.284 134.327C281.854 135.919 281.059 137.154 279.896 138.033C278.734 138.912 277.25 139.352 275.443 139.352C273.168 139.352 271.361 138.653 270.023 137.257C268.695 135.851 268.031 133.883 268.031 131.354C268.031 128.736 268.705 126.705 270.053 125.26C271.4 123.814 273.148 123.092 275.297 123.092C277.377 123.092 279.076 123.8 280.395 125.216C281.713 126.632 282.372 128.624 282.372 131.192C282.372 131.349 282.367 131.583 282.357 131.896H270.756C270.854 133.604 271.337 134.913 272.206 135.821C273.075 136.729 274.159 137.184 275.458 137.184C276.425 137.184 277.25 136.93 277.934 136.422C278.617 135.914 279.159 135.104 279.56 133.99ZM270.902 129.728H279.589C279.472 128.419 279.14 127.438 278.593 126.783C277.753 125.768 276.664 125.26 275.326 125.26C274.115 125.26 273.095 125.665 272.265 126.476C271.444 127.286 270.99 128.37 270.902 129.728ZM284.555 134.356L287.162 133.946C287.309 134.991 287.714 135.792 288.378 136.349C289.052 136.905 289.989 137.184 291.19 137.184C292.401 137.184 293.3 136.939 293.886 136.451C294.472 135.953 294.765 135.372 294.765 134.708C294.765 134.112 294.506 133.644 293.988 133.302C293.627 133.067 292.729 132.77 291.293 132.408C289.359 131.92 288.017 131.5 287.265 131.148C286.522 130.787 285.956 130.294 285.565 129.669C285.185 129.034 284.994 128.336 284.994 127.574C284.994 126.881 285.15 126.241 285.463 125.655C285.785 125.06 286.22 124.566 286.767 124.176C287.177 123.873 287.733 123.619 288.437 123.414C289.149 123.199 289.911 123.092 290.722 123.092C291.942 123.092 293.012 123.268 293.93 123.619C294.857 123.971 295.541 124.449 295.98 125.055C296.42 125.65 296.723 126.451 296.889 127.457L294.311 127.809C294.193 127.008 293.852 126.383 293.285 125.934C292.729 125.484 291.938 125.26 290.912 125.26C289.701 125.26 288.837 125.46 288.319 125.86C287.802 126.261 287.543 126.729 287.543 127.267C287.543 127.608 287.65 127.916 287.865 128.189C288.08 128.473 288.417 128.707 288.876 128.893C289.14 128.99 289.916 129.215 291.205 129.566C293.07 130.064 294.369 130.475 295.102 130.797C295.844 131.109 296.425 131.568 296.845 132.174C297.265 132.779 297.475 133.531 297.475 134.43C297.475 135.309 297.216 136.139 296.698 136.92C296.19 137.691 295.453 138.292 294.486 138.722C293.52 139.142 292.426 139.352 291.205 139.352C289.184 139.352 287.641 138.932 286.576 138.092C285.521 137.252 284.848 136.007 284.555 134.356ZM299.555 134.356L302.162 133.946C302.309 134.991 302.714 135.792 303.378 136.349C304.052 136.905 304.989 137.184 306.19 137.184C307.401 137.184 308.3 136.939 308.886 136.451C309.472 135.953 309.765 135.372 309.765 134.708C309.765 134.112 309.506 133.644 308.988 133.302C308.627 133.067 307.729 132.77 306.293 132.408C304.359 131.92 303.017 131.5 302.265 131.148C301.522 130.787 300.956 130.294 300.565 129.669C300.185 129.034 299.994 128.336 299.994 127.574C299.994 126.881 300.15 126.241 300.463 125.655C300.785 125.06 301.22 124.566 301.767 124.176C302.177 123.873 302.733 123.619 303.437 123.414C304.149 123.199 304.911 123.092 305.722 123.092C306.942 123.092 308.012 123.268 308.93 123.619C309.857 123.971 310.541 124.449 310.98 125.055C311.42 125.65 311.723 126.451 311.889 127.457L309.311 127.809C309.193 127.008 308.852 126.383 308.285 125.934C307.729 125.484 306.938 125.26 305.912 125.26C304.701 125.26 303.837 125.46 303.319 125.86C302.802 126.261 302.543 126.729 302.543 127.267C302.543 127.608 302.65 127.916 302.865 128.189C303.08 128.473 303.417 128.707 303.876 128.893C304.14 128.99 304.916 129.215 306.205 129.566C308.07 130.064 309.369 130.475 310.102 130.797C310.844 131.109 311.425 131.568 311.845 132.174C312.265 132.779 312.475 133.531 312.475 134.43C312.475 135.309 312.216 136.139 311.698 136.92C311.19 137.691 310.453 138.292 309.486 138.722C308.52 139.142 307.426 139.352 306.205 139.352C304.184 139.352 302.641 138.932 301.576 138.092C300.521 137.252 299.848 136.007 299.555 134.356Z" fill="#2699FB"/>
<g filter="url(#filter1_d)">
<path d="M358 177H30V233H358V177Z" fill="white"/>
</g>
<path d="M358 252H30V302H358V252Z" fill="white"/>
<path d="M357.5 252.5H30.5V301.5H357.5V252.5Z" stroke="#BCE0FD"/>
<path d="M50.6289 277.78L51.8799 277.671C51.9391 278.172 52.0758 278.585 52.29 278.908C52.5088 279.227 52.846 279.487 53.3018 279.688C53.7575 279.883 54.2702 279.981 54.8398 279.981C55.3457 279.981 55.7923 279.906 56.1797 279.756C56.5671 279.605 56.8542 279.4 57.041 279.141C57.2324 278.876 57.3281 278.589 57.3281 278.279C57.3281 277.965 57.237 277.691 57.0547 277.459C56.8724 277.222 56.5716 277.024 56.1523 276.864C55.8835 276.759 55.2887 276.598 54.3682 276.379C53.4476 276.156 52.8027 275.946 52.4336 275.75C51.9551 275.499 51.5973 275.189 51.3604 274.82C51.1279 274.447 51.0117 274.03 51.0117 273.569C51.0117 273.063 51.1553 272.592 51.4424 272.154C51.7295 271.712 52.1488 271.377 52.7002 271.149C53.2516 270.922 53.8646 270.808 54.5391 270.808C55.2819 270.808 55.9359 270.928 56.501 271.17C57.0706 271.407 57.5081 271.758 57.8135 272.223C58.1188 272.688 58.2829 273.214 58.3057 273.802L57.0342 273.897C56.9658 273.264 56.7334 272.785 56.3369 272.462C55.945 272.138 55.3639 271.977 54.5938 271.977C53.7917 271.977 53.2061 272.125 52.8369 272.421C52.4723 272.713 52.29 273.066 52.29 273.48C52.29 273.84 52.4199 274.137 52.6797 274.369C52.9349 274.602 53.6003 274.841 54.6758 275.087C55.7559 275.328 56.4964 275.54 56.8975 275.723C57.4808 275.992 57.9115 276.333 58.1895 276.748C58.4674 277.158 58.6064 277.632 58.6064 278.17C58.6064 278.703 58.4538 279.207 58.1484 279.681C57.8431 280.15 57.4033 280.517 56.8291 280.781C56.2594 281.041 55.6169 281.171 54.9014 281.171C53.9945 281.171 53.2334 281.039 52.6182 280.774C52.0075 280.51 51.5267 280.114 51.1758 279.585C50.8294 279.052 50.6471 278.45 50.6289 277.78ZM65.2305 278.662L66.502 278.819C66.3014 279.562 65.93 280.139 65.3877 280.549C64.8454 280.959 64.1527 281.164 63.3096 281.164C62.2477 281.164 61.4046 280.838 60.7803 280.187C60.1605 279.53 59.8506 278.612 59.8506 277.432C59.8506 276.21 60.165 275.262 60.7939 274.588C61.4229 273.913 62.2386 273.576 63.2412 273.576C64.2119 273.576 65.0049 273.907 65.6201 274.567C66.2354 275.228 66.543 276.158 66.543 277.356C66.543 277.429 66.5407 277.539 66.5361 277.685H61.1221C61.1676 278.482 61.3932 279.093 61.7988 279.517C62.2044 279.94 62.7103 280.152 63.3164 280.152C63.7676 280.152 64.1527 280.034 64.4717 279.797C64.7907 279.56 65.0436 279.182 65.2305 278.662ZM61.1904 276.673H65.2441C65.1895 276.062 65.0345 275.604 64.7793 275.299C64.3874 274.825 63.8792 274.588 63.2549 274.588C62.6898 274.588 62.2135 274.777 61.8262 275.155C61.4434 275.534 61.2314 276.039 61.1904 276.673ZM68.0264 281V270.979H69.2568V281H68.0264ZM76.1406 278.662L77.4121 278.819C77.2116 279.562 76.8402 280.139 76.2979 280.549C75.7555 280.959 75.0628 281.164 74.2197 281.164C73.1579 281.164 72.3148 280.838 71.6904 280.187C71.0706 279.53 70.7607 278.612 70.7607 277.432C70.7607 276.21 71.0752 275.262 71.7041 274.588C72.333 273.913 73.1488 273.576 74.1514 273.576C75.1221 273.576 75.915 273.907 76.5303 274.567C77.1455 275.228 77.4531 276.158 77.4531 277.356C77.4531 277.429 77.4508 277.539 77.4463 277.685H72.0322C72.0778 278.482 72.3034 279.093 72.709 279.517C73.1146 279.94 73.6204 280.152 74.2266 280.152C74.6777 280.152 75.0628 280.034 75.3818 279.797C75.7008 279.56 75.9538 279.182 76.1406 278.662ZM72.1006 276.673H76.1543C76.0996 276.062 75.9447 275.604 75.6895 275.299C75.2975 274.825 74.7894 274.588 74.165 274.588C73.5999 274.588 73.1237 274.777 72.7363 275.155C72.3535 275.534 72.1416 276.039 72.1006 276.673ZM83.7012 278.341L84.9111 278.498C84.779 279.332 84.4395 279.986 83.8926 280.46C83.3503 280.929 82.6826 281.164 81.8896 281.164C80.8962 281.164 80.0964 280.84 79.4902 280.193C78.8887 279.542 78.5879 278.61 78.5879 277.397C78.5879 276.614 78.7178 275.928 78.9775 275.34C79.2373 274.752 79.6315 274.312 80.1602 274.021C80.6934 273.724 81.2721 273.576 81.8965 273.576C82.6849 273.576 83.3298 273.777 83.8311 274.178C84.3324 274.574 84.6536 275.139 84.7949 275.873L83.5986 276.058C83.4847 275.57 83.2819 275.203 82.9902 274.957C82.7031 274.711 82.3545 274.588 81.9443 274.588C81.3245 274.588 80.821 274.811 80.4336 275.258C80.0462 275.7 79.8525 276.402 79.8525 277.363C79.8525 278.339 80.0394 279.047 80.4131 279.489C80.7868 279.931 81.2744 280.152 81.876 280.152C82.359 280.152 82.7624 280.004 83.0859 279.708C83.4095 279.412 83.6146 278.956 83.7012 278.341ZM88.6504 279.899L88.8281 280.986C88.4818 281.059 88.1719 281.096 87.8984 281.096C87.4518 281.096 87.1055 281.025 86.8594 280.884C86.6133 280.743 86.4401 280.558 86.3398 280.33C86.2396 280.098 86.1895 279.612 86.1895 278.874V274.697H85.2871V273.74H86.1895V271.942L87.4131 271.204V273.74H88.6504V274.697H87.4131V278.942C87.4131 279.293 87.4336 279.519 87.4746 279.619C87.5202 279.719 87.5908 279.799 87.6865 279.858C87.7868 279.918 87.9281 279.947 88.1104 279.947C88.2471 279.947 88.4271 279.931 88.6504 279.899ZM98.4941 280.104C98.0384 280.492 97.5986 280.765 97.1748 280.925C96.7555 281.084 96.3044 281.164 95.8213 281.164C95.0238 281.164 94.4108 280.97 93.9824 280.583C93.554 280.191 93.3398 279.692 93.3398 279.086C93.3398 278.73 93.4196 278.407 93.5791 278.115C93.7432 277.819 93.9551 277.582 94.2148 277.404C94.4792 277.227 94.7754 277.092 95.1035 277.001C95.3451 276.937 95.7096 276.876 96.1973 276.816C97.1908 276.698 97.9222 276.557 98.3916 276.393C98.3962 276.224 98.3984 276.117 98.3984 276.071C98.3984 275.57 98.2822 275.217 98.0498 275.012C97.7354 274.734 97.2682 274.595 96.6484 274.595C96.0697 274.595 95.6413 274.697 95.3633 274.902C95.0898 275.103 94.887 275.461 94.7549 275.976L93.5518 275.812C93.6611 275.297 93.8411 274.882 94.0918 274.567C94.3424 274.248 94.7048 274.005 95.1787 273.836C95.6527 273.663 96.2018 273.576 96.8262 273.576C97.446 273.576 97.9495 273.649 98.3369 273.795C98.7243 273.941 99.0091 274.125 99.1914 274.349C99.3737 274.567 99.5013 274.845 99.5742 275.183C99.6152 275.392 99.6357 275.771 99.6357 276.317V277.958C99.6357 279.102 99.6608 279.826 99.7109 280.132C99.7656 280.433 99.8704 280.722 100.025 281H98.7402C98.6126 280.745 98.5306 280.446 98.4941 280.104ZM98.3916 277.356C97.945 277.539 97.2751 277.694 96.3818 277.821C95.876 277.894 95.5182 277.976 95.3086 278.067C95.099 278.159 94.9372 278.293 94.8232 278.471C94.7093 278.644 94.6523 278.838 94.6523 279.052C94.6523 279.38 94.7754 279.653 95.0215 279.872C95.2721 280.091 95.6367 280.2 96.1152 280.2C96.5892 280.2 97.0107 280.098 97.3799 279.893C97.749 279.683 98.0202 279.398 98.1934 279.038C98.3255 278.76 98.3916 278.35 98.3916 277.808V277.356ZM106.581 281H105.439V270.979H106.67V274.554C107.189 273.902 107.853 273.576 108.659 273.576C109.106 273.576 109.527 273.667 109.924 273.85C110.325 274.027 110.653 274.28 110.908 274.608C111.168 274.932 111.371 275.324 111.517 275.784C111.662 276.244 111.735 276.737 111.735 277.261C111.735 278.505 111.428 279.466 110.812 280.146C110.197 280.825 109.459 281.164 108.598 281.164C107.741 281.164 107.069 280.806 106.581 280.091V281ZM106.567 277.315C106.567 278.186 106.686 278.815 106.923 279.202C107.31 279.836 107.834 280.152 108.495 280.152C109.033 280.152 109.498 279.92 109.89 279.455C110.282 278.986 110.478 278.288 110.478 277.363C110.478 276.415 110.288 275.716 109.91 275.265C109.536 274.813 109.083 274.588 108.55 274.588C108.012 274.588 107.547 274.823 107.155 275.292C106.763 275.757 106.567 276.431 106.567 277.315ZM113.226 281V273.74H114.333V274.841C114.616 274.326 114.875 273.986 115.112 273.822C115.354 273.658 115.618 273.576 115.905 273.576C116.32 273.576 116.742 273.708 117.17 273.973L116.746 275.114C116.445 274.937 116.145 274.848 115.844 274.848C115.575 274.848 115.333 274.93 115.119 275.094C114.905 275.253 114.752 275.477 114.661 275.764C114.524 276.201 114.456 276.68 114.456 277.199V281H113.226ZM122.639 280.104C122.183 280.492 121.743 280.765 121.319 280.925C120.9 281.084 120.449 281.164 119.966 281.164C119.168 281.164 118.555 280.97 118.127 280.583C117.699 280.191 117.484 279.692 117.484 279.086C117.484 278.73 117.564 278.407 117.724 278.115C117.888 277.819 118.1 277.582 118.359 277.404C118.624 277.227 118.92 277.092 119.248 277.001C119.49 276.937 119.854 276.876 120.342 276.816C121.335 276.698 122.067 276.557 122.536 276.393C122.541 276.224 122.543 276.117 122.543 276.071C122.543 275.57 122.427 275.217 122.194 275.012C121.88 274.734 121.413 274.595 120.793 274.595C120.214 274.595 119.786 274.697 119.508 274.902C119.234 275.103 119.032 275.461 118.899 275.976L117.696 275.812C117.806 275.297 117.986 274.882 118.236 274.567C118.487 274.248 118.849 274.005 119.323 273.836C119.797 273.663 120.346 273.576 120.971 273.576C121.59 273.576 122.094 273.649 122.481 273.795C122.869 273.941 123.154 274.125 123.336 274.349C123.518 274.567 123.646 274.845 123.719 275.183C123.76 275.392 123.78 275.771 123.78 276.317V277.958C123.78 279.102 123.805 279.826 123.855 280.132C123.91 280.433 124.015 280.722 124.17 281H122.885C122.757 280.745 122.675 280.446 122.639 280.104ZM122.536 277.356C122.09 277.539 121.42 277.694 120.526 277.821C120.021 277.894 119.663 277.976 119.453 278.067C119.243 278.159 119.082 278.293 118.968 278.471C118.854 278.644 118.797 278.838 118.797 279.052C118.797 279.38 118.92 279.653 119.166 279.872C119.417 280.091 119.781 280.2 120.26 280.2C120.734 280.2 121.155 280.098 121.524 279.893C121.894 279.683 122.165 279.398 122.338 279.038C122.47 278.76 122.536 278.35 122.536 277.808V277.356ZM125.694 281V273.74H126.802V274.772C127.335 273.975 128.105 273.576 129.112 273.576C129.55 273.576 129.951 273.656 130.315 273.815C130.685 273.97 130.96 274.175 131.143 274.431C131.325 274.686 131.452 274.989 131.525 275.34C131.571 275.568 131.594 275.966 131.594 276.536V281H130.363V276.584C130.363 276.083 130.315 275.709 130.22 275.463C130.124 275.212 129.953 275.014 129.707 274.868C129.465 274.718 129.181 274.643 128.853 274.643C128.328 274.643 127.875 274.809 127.492 275.142C127.114 275.474 126.925 276.105 126.925 277.035V281H125.694ZM138.197 281V280.084C137.737 280.804 137.06 281.164 136.167 281.164C135.588 281.164 135.055 281.005 134.567 280.686C134.084 280.367 133.708 279.922 133.439 279.353C133.175 278.778 133.043 278.12 133.043 277.377C133.043 276.652 133.164 275.996 133.405 275.408C133.647 274.816 134.009 274.362 134.492 274.048C134.975 273.733 135.515 273.576 136.112 273.576C136.55 273.576 136.939 273.67 137.281 273.856C137.623 274.039 137.901 274.278 138.115 274.574V270.979H139.339V281H138.197ZM134.308 277.377C134.308 278.307 134.504 279.002 134.896 279.462C135.287 279.922 135.75 280.152 136.283 280.152C136.821 280.152 137.277 279.934 137.65 279.496C138.029 279.054 138.218 278.382 138.218 277.479C138.218 276.486 138.026 275.757 137.644 275.292C137.261 274.827 136.789 274.595 136.229 274.595C135.682 274.595 135.224 274.818 134.854 275.265C134.49 275.711 134.308 276.415 134.308 277.377Z" fill="#2699FB"/>
<path d="M331.7 280.101L327 275.401L328.4 274.001L331.7 277.301L335 274.001L336.4 275.401L331.7 280.101Z" fill="#2699FB"/>
<path d="M134.64 205.98L136.534 206.459C136.137 208.015 135.421 209.203 134.386 210.023C133.357 210.837 132.097 211.244 130.607 211.244C129.064 211.244 127.807 210.932 126.837 210.307C125.873 209.675 125.138 208.764 124.63 207.572C124.129 206.381 123.878 205.102 123.878 203.734C123.878 202.243 124.161 200.945 124.728 199.838C125.301 198.725 126.111 197.882 127.159 197.309C128.214 196.729 129.373 196.439 130.636 196.439C132.068 196.439 133.273 196.804 134.249 197.533C135.226 198.262 135.906 199.288 136.29 200.609L134.425 201.049C134.093 200.007 133.611 199.249 132.98 198.773C132.348 198.298 131.554 198.061 130.597 198.061C129.497 198.061 128.575 198.324 127.833 198.852C127.097 199.379 126.58 200.089 126.28 200.98C125.981 201.866 125.831 202.781 125.831 203.725C125.831 204.942 126.007 206.007 126.359 206.918C126.717 207.823 127.27 208.5 128.019 208.949C128.767 209.398 129.578 209.623 130.45 209.623C131.512 209.623 132.41 209.317 133.146 208.705C133.881 208.093 134.379 207.185 134.64 205.98ZM145.45 211V209.477C144.643 210.648 143.546 211.234 142.159 211.234C141.547 211.234 140.974 211.117 140.441 210.883C139.913 210.648 139.519 210.355 139.259 210.004C139.005 209.646 138.826 209.21 138.722 208.695C138.65 208.35 138.614 207.803 138.614 207.055V200.629H140.372V206.381C140.372 207.299 140.408 207.917 140.48 208.236C140.59 208.699 140.825 209.063 141.183 209.33C141.541 209.59 141.984 209.721 142.511 209.721C143.038 209.721 143.533 209.587 143.995 209.32C144.457 209.047 144.783 208.679 144.972 208.217C145.167 207.748 145.265 207.071 145.265 206.186V200.629H147.023V211H145.45ZM149.083 207.904L150.821 207.631C150.919 208.327 151.189 208.861 151.632 209.232C152.081 209.604 152.706 209.789 153.507 209.789C154.314 209.789 154.913 209.626 155.304 209.301C155.694 208.969 155.89 208.581 155.89 208.139C155.89 207.742 155.717 207.429 155.372 207.201C155.131 207.045 154.532 206.846 153.575 206.605C152.286 206.28 151.391 206 150.89 205.766C150.395 205.525 150.017 205.196 149.757 204.779C149.503 204.356 149.376 203.891 149.376 203.383C149.376 202.921 149.48 202.494 149.689 202.104C149.903 201.706 150.193 201.378 150.558 201.117C150.831 200.915 151.202 200.746 151.671 200.609C152.146 200.466 152.654 200.395 153.194 200.395C154.008 200.395 154.721 200.512 155.333 200.746C155.952 200.98 156.407 201.299 156.7 201.703C156.993 202.1 157.195 202.634 157.306 203.305L155.587 203.539C155.509 203.005 155.281 202.589 154.903 202.289C154.532 201.99 154.005 201.84 153.321 201.84C152.514 201.84 151.938 201.973 151.593 202.24C151.248 202.507 151.075 202.82 151.075 203.178C151.075 203.406 151.147 203.611 151.29 203.793C151.433 203.982 151.658 204.138 151.964 204.262C152.14 204.327 152.657 204.477 153.517 204.711C154.76 205.043 155.626 205.316 156.114 205.531C156.609 205.74 156.997 206.046 157.276 206.449C157.556 206.853 157.696 207.354 157.696 207.953C157.696 208.539 157.524 209.092 157.179 209.613C156.84 210.128 156.349 210.528 155.704 210.814C155.06 211.094 154.331 211.234 153.517 211.234C152.169 211.234 151.14 210.954 150.431 210.395C149.728 209.835 149.278 209.005 149.083 207.904ZM163.624 209.428L163.878 210.98C163.383 211.085 162.941 211.137 162.55 211.137C161.912 211.137 161.417 211.036 161.066 210.834C160.714 210.632 160.467 210.368 160.323 210.043C160.18 209.711 160.109 209.018 160.109 207.963V201.996H158.819V200.629H160.109V198.061L161.857 197.006V200.629H163.624V201.996H161.857V208.061C161.857 208.562 161.886 208.884 161.944 209.027C162.01 209.171 162.11 209.285 162.247 209.369C162.39 209.454 162.592 209.496 162.853 209.496C163.048 209.496 163.305 209.473 163.624 209.428ZM164.698 205.814C164.698 203.894 165.232 202.471 166.3 201.547C167.192 200.779 168.279 200.395 169.562 200.395C170.987 200.395 172.153 200.863 173.058 201.801C173.963 202.732 174.415 204.021 174.415 205.668C174.415 207.003 174.213 208.054 173.81 208.822C173.413 209.584 172.83 210.176 172.062 210.6C171.3 211.023 170.467 211.234 169.562 211.234C168.11 211.234 166.935 210.769 166.036 209.838C165.144 208.907 164.698 207.566 164.698 205.814ZM166.505 205.814C166.505 207.143 166.795 208.139 167.374 208.803C167.954 209.46 168.683 209.789 169.562 209.789C170.434 209.789 171.16 209.457 171.739 208.793C172.319 208.129 172.609 207.117 172.609 205.756C172.609 204.473 172.316 203.503 171.73 202.846C171.15 202.182 170.428 201.85 169.562 201.85C168.683 201.85 167.954 202.178 167.374 202.836C166.795 203.493 166.505 204.486 166.505 205.814ZM176.485 211V200.629H178.058V202.084C178.383 201.576 178.816 201.169 179.357 200.863C179.897 200.551 180.512 200.395 181.202 200.395C181.97 200.395 182.599 200.554 183.087 200.873C183.582 201.192 183.93 201.638 184.132 202.211C184.952 201 186.02 200.395 187.335 200.395C188.364 200.395 189.155 200.681 189.708 201.254C190.262 201.82 190.538 202.696 190.538 203.881V211H188.79V204.467C188.79 203.764 188.732 203.259 188.614 202.953C188.504 202.641 188.299 202.39 187.999 202.201C187.7 202.012 187.348 201.918 186.944 201.918C186.215 201.918 185.61 202.162 185.128 202.65C184.646 203.132 184.405 203.907 184.405 204.975V211H182.648V204.262C182.648 203.48 182.504 202.895 182.218 202.504C181.931 202.113 181.463 201.918 180.812 201.918C180.317 201.918 179.858 202.048 179.435 202.309C179.018 202.569 178.715 202.95 178.526 203.451C178.338 203.952 178.243 204.675 178.243 205.619V211H176.485ZM198.937 211V196.684H204.337C205.288 196.684 206.013 196.729 206.515 196.82C207.218 196.938 207.807 197.162 208.282 197.494C208.758 197.82 209.138 198.279 209.425 198.871C209.718 199.464 209.864 200.115 209.864 200.824C209.864 202.042 209.477 203.074 208.702 203.92C207.928 204.76 206.528 205.18 204.503 205.18H200.831V211H198.937ZM200.831 203.49H204.532C205.756 203.49 206.625 203.262 207.14 202.807C207.654 202.351 207.911 201.71 207.911 200.883C207.911 200.284 207.758 199.773 207.452 199.35C207.153 198.92 206.756 198.637 206.261 198.5C205.942 198.415 205.353 198.373 204.493 198.373H200.831V203.49ZM212.032 211V200.629H213.614V202.201C214.018 201.465 214.389 200.98 214.728 200.746C215.073 200.512 215.45 200.395 215.86 200.395C216.453 200.395 217.055 200.583 217.667 200.961L217.062 202.592C216.632 202.338 216.202 202.211 215.773 202.211C215.388 202.211 215.043 202.328 214.737 202.562C214.431 202.79 214.213 203.109 214.083 203.52C213.888 204.145 213.79 204.828 213.79 205.57V211H212.032ZM218.058 205.814C218.058 203.894 218.592 202.471 219.659 201.547C220.551 200.779 221.638 200.395 222.921 200.395C224.347 200.395 225.512 200.863 226.417 201.801C227.322 202.732 227.775 204.021 227.775 205.668C227.775 207.003 227.573 208.054 227.169 208.822C226.772 209.584 226.189 210.176 225.421 210.6C224.659 211.023 223.826 211.234 222.921 211.234C221.469 211.234 220.294 210.769 219.396 209.838C218.504 208.907 218.058 207.566 218.058 205.814ZM219.864 205.814C219.864 207.143 220.154 208.139 220.734 208.803C221.313 209.46 222.042 209.789 222.921 209.789C223.793 209.789 224.519 209.457 225.099 208.793C225.678 208.129 225.968 207.117 225.968 205.756C225.968 204.473 225.675 203.503 225.089 202.846C224.51 202.182 223.787 201.85 222.921 201.85C222.042 201.85 221.313 202.178 220.734 202.836C220.154 203.493 219.864 204.486 219.864 205.814ZM230.265 211V201.996H228.712V200.629H230.265V199.525C230.265 198.829 230.327 198.311 230.45 197.973C230.62 197.517 230.916 197.149 231.339 196.869C231.769 196.583 232.368 196.439 233.136 196.439C233.631 196.439 234.178 196.498 234.776 196.615L234.513 198.148C234.148 198.083 233.803 198.051 233.478 198.051C232.944 198.051 232.566 198.165 232.345 198.393C232.123 198.62 232.013 199.047 232.013 199.672V200.629H234.034V201.996H232.013V211H230.265ZM235.421 198.705V196.684H237.179V198.705H235.421ZM235.421 211V200.629H237.179V211H235.421ZM239.825 211V196.684H241.583V211H239.825ZM251.417 207.66L253.234 207.885C252.947 208.946 252.416 209.77 251.642 210.355C250.867 210.941 249.877 211.234 248.673 211.234C247.156 211.234 245.952 210.769 245.06 209.838C244.174 208.9 243.732 207.589 243.732 205.902C243.732 204.158 244.181 202.803 245.079 201.84C245.978 200.876 247.143 200.395 248.575 200.395C249.962 200.395 251.095 200.867 251.974 201.811C252.853 202.755 253.292 204.083 253.292 205.795C253.292 205.899 253.289 206.055 253.282 206.264H245.548C245.613 207.403 245.935 208.275 246.515 208.881C247.094 209.486 247.817 209.789 248.683 209.789C249.327 209.789 249.877 209.62 250.333 209.281C250.789 208.943 251.15 208.402 251.417 207.66ZM245.646 204.818H251.437C251.359 203.946 251.137 203.292 250.773 202.855C250.213 202.178 249.487 201.84 248.595 201.84C247.788 201.84 247.107 202.11 246.554 202.65C246.007 203.191 245.704 203.913 245.646 204.818Z" fill="#2699FB"/>
<path d="M69 19H39C33.4772 19 29 23.4772 29 29V59C29 64.5228 33.4772 69 39 69H69C74.5228 69 79 64.5228 79 59V29C79 23.4772 74.5228 19 69 19Z" fill="#FAFAFA"/>
<path d="M69 20H39C34.0294 20 30 24.0294 30 29V59C30 63.9706 34.0294 68 39 68H69C73.9706 68 78 63.9706 78 59V29C78 24.0294 73.9706 20 69 20Z" stroke="#2699FB" stroke-width="2"/>
<path d="M55 52L56.455 50.545L50.949 45.039H63V42.961H50.948L56.455 37.455L55 36L47 44L55 52Z" fill="#2699FB"/>
<defs>
<filter id="filter0_d" x="0" y="0" width="387" height="95" filterUnits="userSpaceOnUse" color-interpolation-filters="sRGB">
<feFlood flood-opacity="0" result="BackgroundImageFix"/>
<feColorMatrix in="SourceAlpha" type="matrix" values="0 0 0 0 0 0 0 0 0 0 0 0 0 0 0 0 0 0 127 0"/>
<feOffset dy="3"/>
<feGaussianBlur stdDeviation="3"/>
<feColorMatrix type="matrix" values="0 0 0 0 0 0 0 0 0 0 0 0 0 0 0 0 0 0 0.161 0"/>
<feBlend mode="normal" in2="BackgroundImageFix" result="effect1_dropShadow"/>
<feBlend mode="normal" in="SourceGraphic" in2="effect1_dropShadow" result="shape"/>
</filter>
<filter id="filter1_d" x="24" y="174" width="340" height="68" filterUnits="userSpaceOnUse" color-interpolation-filters="sRGB">
<feFlood flood-opacity="0" result="BackgroundImageFix"/>
<feColorMatrix in="SourceAlpha" type="matrix" values="0 0 0 0 0 0 0 0 0 0 0 0 0 0 0 0 0 0 127 0"/>
<feOffset dy="3"/>
<feGaussianBlur stdDeviation="3"/>
<feColorMatrix type="matrix" values="0 0 0 0 0 0 0 0 0 0 0 0 0 0 0 0 0 0 0.161 0"/>
<feBlend mode="normal" in2="BackgroundImageFix" result="effect1_dropShadow"/>
<feBlend mode="normal" in="SourceGraphic" in2="effect1_dropShadow" result="shape"/>
</filter>
</defs>
</svg>
