<svg width="387" height="815" viewBox="0 0 387 815" fill="none" xmlns="http://www.w3.org/2000/svg">
<path d="M381 3H6V815H381V3Z" fill="white"/>
<g filter="url(#filter0_d)">
<path d="M381 3H6V86H381V3Z" fill="white"/>
</g>
<path d="M72.8911 139V117.525H75.8062L87.0854 134.386V117.525H89.8101V139H86.895L75.6157 122.125V139H72.8911ZM104.913 133.99L107.637 134.327C107.208 135.919 106.412 137.154 105.25 138.033C104.087 138.912 102.603 139.352 100.796 139.352C98.521 139.352 96.7144 138.653 95.3765 137.257C94.0483 135.851 93.3843 133.883 93.3843 131.354C93.3843 128.736 94.0581 126.705 95.4058 125.26C96.7534 123.814 98.5015 123.092 100.65 123.092C102.73 123.092 104.429 123.8 105.748 125.216C107.066 126.632 107.725 128.624 107.725 131.192C107.725 131.349 107.72 131.583 107.71 131.896H96.1089C96.2065 133.604 96.6899 134.913 97.5591 135.821C98.4282 136.729 99.5122 137.184 100.811 137.184C101.778 137.184 102.603 136.93 103.287 136.422C103.97 135.914 104.512 135.104 104.913 133.99ZM96.2554 129.728H104.942C104.825 128.419 104.493 127.438 103.946 126.783C103.106 125.768 102.017 125.26 100.679 125.26C99.4683 125.26 98.4478 125.665 97.6177 126.476C96.7974 127.286 96.3433 128.37 96.2554 129.728ZM113.833 139L109.073 123.443H111.797L114.273 132.423L115.196 135.763C115.235 135.597 115.503 134.527 116.001 132.555L118.477 123.443H121.187L123.516 132.467L124.292 135.44L125.186 132.438L127.852 123.443H130.416L125.552 139H122.813L120.337 129.684L119.737 127.032L116.587 139H113.833ZM141.387 139V117.525H156.915V120.06H144.229V126.637H156.109V129.156H144.229V136.466H157.413V139H141.387ZM159.976 132.555V129.903H168.077V132.555H159.976ZM183.941 122.784L181.319 122.989C181.084 121.954 180.752 121.202 180.323 120.733C179.61 119.981 178.731 119.605 177.686 119.605C176.846 119.605 176.109 119.84 175.474 120.309C174.644 120.914 173.99 121.798 173.511 122.96C173.033 124.122 172.784 125.777 172.764 127.926C173.399 126.959 174.175 126.241 175.093 125.772C176.011 125.304 176.973 125.069 177.979 125.069C179.737 125.069 181.231 125.719 182.461 127.018C183.702 128.307 184.322 129.977 184.322 132.027C184.322 133.375 184.029 134.63 183.443 135.792C182.867 136.944 182.071 137.828 181.055 138.443C180.04 139.059 178.887 139.366 177.598 139.366C175.401 139.366 173.609 138.561 172.222 136.949C170.835 135.328 170.142 132.662 170.142 128.951C170.142 124.801 170.909 121.783 172.442 119.898C173.78 118.258 175.582 117.438 177.847 117.438C179.537 117.438 180.918 117.911 181.993 118.858C183.077 119.806 183.726 121.114 183.941 122.784ZM173.174 132.042C173.174 132.95 173.365 133.819 173.746 134.649C174.136 135.479 174.678 136.114 175.372 136.554C176.065 136.983 176.792 137.198 177.554 137.198C178.667 137.198 179.625 136.749 180.425 135.851C181.226 134.952 181.626 133.731 181.626 132.188C181.626 130.704 181.231 129.537 180.44 128.688C179.649 127.828 178.653 127.398 177.452 127.398C176.26 127.398 175.25 127.828 174.419 128.688C173.589 129.537 173.174 130.655 173.174 132.042ZM196.377 139V117.525H204.478C205.904 117.525 206.993 117.594 207.745 117.73C208.799 117.906 209.683 118.243 210.396 118.741C211.109 119.229 211.68 119.918 212.11 120.807C212.549 121.695 212.769 122.672 212.769 123.736C212.769 125.562 212.188 127.11 211.026 128.38C209.864 129.64 207.764 130.27 204.727 130.27H199.219V139H196.377ZM199.219 127.735H204.771C206.607 127.735 207.911 127.394 208.682 126.71C209.454 126.026 209.839 125.064 209.839 123.824C209.839 122.926 209.61 122.159 209.151 121.524C208.702 120.88 208.106 120.455 207.364 120.25C206.885 120.123 206.001 120.06 204.712 120.06H199.219V127.735ZM216.021 139V123.443H218.394V125.802C219 124.698 219.556 123.971 220.064 123.619C220.582 123.268 221.148 123.092 221.763 123.092C222.652 123.092 223.555 123.375 224.473 123.941L223.565 126.388C222.92 126.007 222.276 125.816 221.631 125.816C221.055 125.816 220.538 125.992 220.079 126.344C219.62 126.686 219.292 127.164 219.097 127.779C218.804 128.717 218.658 129.742 218.658 130.855V139H216.021ZM225.059 131.222C225.059 128.341 225.86 126.207 227.461 124.82C228.799 123.668 230.43 123.092 232.354 123.092C234.493 123.092 236.241 123.795 237.598 125.201C238.956 126.598 239.634 128.531 239.634 131.002C239.634 133.004 239.332 134.581 238.726 135.733C238.13 136.876 237.256 137.765 236.104 138.399C234.961 139.034 233.711 139.352 232.354 139.352C230.176 139.352 228.414 138.653 227.066 137.257C225.728 135.86 225.059 133.849 225.059 131.222ZM227.769 131.222C227.769 133.214 228.204 134.708 229.073 135.704C229.942 136.69 231.036 137.184 232.354 137.184C233.663 137.184 234.751 136.686 235.621 135.689C236.49 134.693 236.924 133.175 236.924 131.134C236.924 129.21 236.485 127.755 235.606 126.769C234.737 125.772 233.653 125.274 232.354 125.274C231.036 125.274 229.942 125.768 229.073 126.754C228.204 127.74 227.769 129.229 227.769 131.222ZM252.891 133.302L255.484 133.639C255.201 135.426 254.473 136.827 253.301 137.843C252.139 138.849 250.708 139.352 249.009 139.352C246.88 139.352 245.167 138.658 243.868 137.271C242.579 135.875 241.934 133.878 241.934 131.28C241.934 129.601 242.212 128.131 242.769 126.871C243.326 125.611 244.17 124.669 245.303 124.044C246.446 123.409 247.686 123.092 249.024 123.092C250.713 123.092 252.095 123.521 253.169 124.381C254.244 125.23 254.932 126.441 255.235 128.014L252.671 128.409C252.427 127.364 251.993 126.578 251.368 126.051C250.752 125.523 250.005 125.26 249.126 125.26C247.798 125.26 246.719 125.738 245.889 126.695C245.059 127.643 244.644 129.146 244.644 131.207C244.644 133.297 245.044 134.815 245.845 135.763C246.646 136.71 247.691 137.184 248.98 137.184C250.015 137.184 250.879 136.866 251.573 136.231C252.266 135.597 252.706 134.62 252.891 133.302ZM268.389 133.99L271.114 134.327C270.684 135.919 269.888 137.154 268.726 138.033C267.564 138.912 266.08 139.352 264.273 139.352C261.998 139.352 260.191 138.653 258.853 137.257C257.525 135.851 256.861 133.883 256.861 131.354C256.861 128.736 257.535 126.705 258.882 125.26C260.23 123.814 261.978 123.092 264.126 123.092C266.207 123.092 267.906 123.8 269.224 125.216C270.542 126.632 271.202 128.624 271.202 131.192C271.202 131.349 271.197 131.583 271.187 131.896H259.585C259.683 133.604 260.167 134.913 261.036 135.821C261.905 136.729 262.989 137.184 264.288 137.184C265.254 137.184 266.08 136.93 266.763 136.422C267.447 135.914 267.989 135.104 268.389 133.99ZM259.732 129.728H268.418C268.301 128.419 267.969 127.438 267.422 126.783C266.583 125.768 265.494 125.26 264.156 125.26C262.945 125.26 261.924 125.665 261.094 126.476C260.274 127.286 259.82 128.37 259.732 129.728ZM273.384 134.356L275.992 133.946C276.138 134.991 276.543 135.792 277.208 136.349C277.881 136.905 278.819 137.184 280.02 137.184C281.231 137.184 282.129 136.939 282.715 136.451C283.301 135.953 283.594 135.372 283.594 134.708C283.594 134.112 283.335 133.644 282.818 133.302C282.457 133.067 281.558 132.77 280.123 132.408C278.189 131.92 276.846 131.5 276.094 131.148C275.352 130.787 274.786 130.294 274.395 129.669C274.014 129.034 273.824 128.336 273.824 127.574C273.824 126.881 273.98 126.241 274.292 125.655C274.615 125.06 275.049 124.566 275.596 124.176C276.006 123.873 276.563 123.619 277.266 123.414C277.979 123.199 278.741 123.092 279.551 123.092C280.772 123.092 281.841 123.268 282.759 123.619C283.687 123.971 284.371 124.449 284.81 125.055C285.25 125.65 285.552 126.451 285.718 127.457L283.14 127.809C283.023 127.008 282.681 126.383 282.115 125.934C281.558 125.484 280.767 125.26 279.742 125.26C278.531 125.26 277.667 125.46 277.149 125.86C276.631 126.261 276.373 126.729 276.373 127.267C276.373 127.608 276.48 127.916 276.695 128.189C276.91 128.473 277.247 128.707 277.706 128.893C277.969 128.99 278.746 129.215 280.035 129.566C281.9 130.064 283.199 130.475 283.931 130.797C284.673 131.109 285.254 131.568 285.674 132.174C286.094 132.779 286.304 133.531 286.304 134.43C286.304 135.309 286.045 136.139 285.528 136.92C285.02 137.691 284.283 138.292 283.316 138.722C282.349 139.142 281.255 139.352 280.035 139.352C278.013 139.352 276.47 138.932 275.406 138.092C274.351 137.252 273.677 136.007 273.384 134.356ZM288.384 134.356L290.992 133.946C291.138 134.991 291.543 135.792 292.208 136.349C292.881 136.905 293.819 137.184 295.02 137.184C296.231 137.184 297.129 136.939 297.715 136.451C298.301 135.953 298.594 135.372 298.594 134.708C298.594 134.112 298.335 133.644 297.818 133.302C297.457 133.067 296.558 132.77 295.123 132.408C293.189 131.92 291.846 131.5 291.094 131.148C290.352 130.787 289.786 130.294 289.395 129.669C289.014 129.034 288.824 128.336 288.824 127.574C288.824 126.881 288.98 126.241 289.292 125.655C289.615 125.06 290.049 124.566 290.596 124.176C291.006 123.873 291.563 123.619 292.266 123.414C292.979 123.199 293.741 123.092 294.551 123.092C295.772 123.092 296.841 123.268 297.759 123.619C298.687 123.971 299.371 124.449 299.81 125.055C300.25 125.65 300.552 126.451 300.718 127.457L298.14 127.809C298.023 127.008 297.681 126.383 297.115 125.934C296.558 125.484 295.767 125.26 294.742 125.26C293.531 125.26 292.667 125.46 292.149 125.86C291.631 126.261 291.373 126.729 291.373 127.267C291.373 127.608 291.48 127.916 291.695 128.189C291.91 128.473 292.247 128.707 292.706 128.893C292.969 128.99 293.746 129.215 295.035 129.566C296.9 130.064 298.199 130.475 298.931 130.797C299.673 131.109 300.254 131.568 300.674 132.174C301.094 132.779 301.304 133.531 301.304 134.43C301.304 135.309 301.045 136.139 300.528 136.92C300.02 137.691 299.283 138.292 298.316 138.722C297.349 139.142 296.255 139.352 295.035 139.352C293.013 139.352 291.47 138.932 290.406 138.092C289.351 137.252 288.677 136.007 288.384 134.356Z" fill="#2699FB"/>
<g filter="url(#filter1_d)">
<path d="M358 177H30V233H358V177Z" fill="white"/>
</g>
<path d="M358 252H30V302H358V252Z" fill="white"/>
<path d="M357.5 252.5H30.5V301.5H357.5V252.5Z" stroke="#BCE0FD"/>
<path d="M50.6289 277.78L51.8799 277.671C51.9391 278.172 52.0758 278.585 52.29 278.908C52.5088 279.227 52.846 279.487 53.3018 279.688C53.7575 279.883 54.2702 279.981 54.8398 279.981C55.3457 279.981 55.7923 279.906 56.1797 279.756C56.5671 279.605 56.8542 279.4 57.041 279.141C57.2324 278.876 57.3281 278.589 57.3281 278.279C57.3281 277.965 57.237 277.691 57.0547 277.459C56.8724 277.222 56.5716 277.024 56.1523 276.864C55.8835 276.759 55.2887 276.598 54.3682 276.379C53.4476 276.156 52.8027 275.946 52.4336 275.75C51.9551 275.499 51.5973 275.189 51.3604 274.82C51.1279 274.447 51.0117 274.03 51.0117 273.569C51.0117 273.063 51.1553 272.592 51.4424 272.154C51.7295 271.712 52.1488 271.377 52.7002 271.149C53.2516 270.922 53.8646 270.808 54.5391 270.808C55.2819 270.808 55.9359 270.928 56.501 271.17C57.0706 271.407 57.5081 271.758 57.8135 272.223C58.1188 272.688 58.2829 273.214 58.3057 273.802L57.0342 273.897C56.9658 273.264 56.7334 272.785 56.3369 272.462C55.945 272.138 55.3639 271.977 54.5938 271.977C53.7917 271.977 53.2061 272.125 52.8369 272.421C52.4723 272.713 52.29 273.066 52.29 273.48C52.29 273.84 52.4199 274.137 52.6797 274.369C52.9349 274.602 53.6003 274.841 54.6758 275.087C55.7559 275.328 56.4964 275.54 56.8975 275.723C57.4808 275.992 57.9115 276.333 58.1895 276.748C58.4674 277.158 58.6064 277.632 58.6064 278.17C58.6064 278.703 58.4538 279.207 58.1484 279.681C57.8431 280.15 57.4033 280.517 56.8291 280.781C56.2594 281.041 55.6169 281.171 54.9014 281.171C53.9945 281.171 53.2334 281.039 52.6182 280.774C52.0075 280.51 51.5267 280.114 51.1758 279.585C50.8294 279.052 50.6471 278.45 50.6289 277.78ZM65.2305 278.662L66.502 278.819C66.3014 279.562 65.93 280.139 65.3877 280.549C64.8454 280.959 64.1527 281.164 63.3096 281.164C62.2477 281.164 61.4046 280.838 60.7803 280.187C60.1605 279.53 59.8506 278.612 59.8506 277.432C59.8506 276.21 60.165 275.262 60.7939 274.588C61.4229 273.913 62.2386 273.576 63.2412 273.576C64.2119 273.576 65.0049 273.907 65.6201 274.567C66.2354 275.228 66.543 276.158 66.543 277.356C66.543 277.429 66.5407 277.539 66.5361 277.685H61.1221C61.1676 278.482 61.3932 279.093 61.7988 279.517C62.2044 279.94 62.7103 280.152 63.3164 280.152C63.7676 280.152 64.1527 280.034 64.4717 279.797C64.7907 279.56 65.0436 279.182 65.2305 278.662ZM61.1904 276.673H65.2441C65.1895 276.062 65.0345 275.604 64.7793 275.299C64.3874 274.825 63.8792 274.588 63.2549 274.588C62.6898 274.588 62.2135 274.777 61.8262 275.155C61.4434 275.534 61.2314 276.039 61.1904 276.673ZM68.0264 281V270.979H69.2568V281H68.0264ZM76.1406 278.662L77.4121 278.819C77.2116 279.562 76.8402 280.139 76.2979 280.549C75.7555 280.959 75.0628 281.164 74.2197 281.164C73.1579 281.164 72.3148 280.838 71.6904 280.187C71.0706 279.53 70.7607 278.612 70.7607 277.432C70.7607 276.21 71.0752 275.262 71.7041 274.588C72.333 273.913 73.1488 273.576 74.1514 273.576C75.1221 273.576 75.915 273.907 76.5303 274.567C77.1455 275.228 77.4531 276.158 77.4531 277.356C77.4531 277.429 77.4508 277.539 77.4463 277.685H72.0322C72.0778 278.482 72.3034 279.093 72.709 279.517C73.1146 279.94 73.6204 280.152 74.2266 280.152C74.6777 280.152 75.0628 280.034 75.3818 279.797C75.7008 279.56 75.9538 279.182 76.1406 278.662ZM72.1006 276.673H76.1543C76.0996 276.062 75.9447 275.604 75.6895 275.299C75.2975 274.825 74.7894 274.588 74.165 274.588C73.5999 274.588 73.1237 274.777 72.7363 275.155C72.3535 275.534 72.1416 276.039 72.1006 276.673ZM83.7012 278.341L84.9111 278.498C84.779 279.332 84.4395 279.986 83.8926 280.46C83.3503 280.929 82.6826 281.164 81.8896 281.164C80.8962 281.164 80.0964 280.84 79.4902 280.193C78.8887 279.542 78.5879 278.61 78.5879 277.397C78.5879 276.614 78.7178 275.928 78.9775 275.34C79.2373 274.752 79.6315 274.312 80.1602 274.021C80.6934 273.724 81.2721 273.576 81.8965 273.576C82.6849 273.576 83.3298 273.777 83.8311 274.178C84.3324 274.574 84.6536 275.139 84.7949 275.873L83.5986 276.058C83.4847 275.57 83.2819 275.203 82.9902 274.957C82.7031 274.711 82.3545 274.588 81.9443 274.588C81.3245 274.588 80.821 274.811 80.4336 275.258C80.0462 275.7 79.8525 276.402 79.8525 277.363C79.8525 278.339 80.0394 279.047 80.4131 279.489C80.7868 279.931 81.2744 280.152 81.876 280.152C82.359 280.152 82.7624 280.004 83.0859 279.708C83.4095 279.412 83.6146 278.956 83.7012 278.341ZM88.6504 279.899L88.8281 280.986C88.4818 281.059 88.1719 281.096 87.8984 281.096C87.4518 281.096 87.1055 281.025 86.8594 280.884C86.6133 280.743 86.4401 280.558 86.3398 280.33C86.2396 280.098 86.1895 279.612 86.1895 278.874V274.697H85.2871V273.74H86.1895V271.942L87.4131 271.204V273.74H88.6504V274.697H87.4131V278.942C87.4131 279.293 87.4336 279.519 87.4746 279.619C87.5202 279.719 87.5908 279.799 87.6865 279.858C87.7868 279.918 87.9281 279.947 88.1104 279.947C88.2471 279.947 88.4271 279.931 88.6504 279.899ZM98.4941 280.104C98.0384 280.492 97.5986 280.765 97.1748 280.925C96.7555 281.084 96.3044 281.164 95.8213 281.164C95.0238 281.164 94.4108 280.97 93.9824 280.583C93.554 280.191 93.3398 279.692 93.3398 279.086C93.3398 278.73 93.4196 278.407 93.5791 278.115C93.7432 277.819 93.9551 277.582 94.2148 277.404C94.4792 277.227 94.7754 277.092 95.1035 277.001C95.3451 276.937 95.7096 276.876 96.1973 276.816C97.1908 276.698 97.9222 276.557 98.3916 276.393C98.3962 276.224 98.3984 276.117 98.3984 276.071C98.3984 275.57 98.2822 275.217 98.0498 275.012C97.7354 274.734 97.2682 274.595 96.6484 274.595C96.0697 274.595 95.6413 274.697 95.3633 274.902C95.0898 275.103 94.887 275.461 94.7549 275.976L93.5518 275.812C93.6611 275.297 93.8411 274.882 94.0918 274.567C94.3424 274.248 94.7048 274.005 95.1787 273.836C95.6527 273.663 96.2018 273.576 96.8262 273.576C97.446 273.576 97.9495 273.649 98.3369 273.795C98.7243 273.941 99.0091 274.125 99.1914 274.349C99.3737 274.567 99.5013 274.845 99.5742 275.183C99.6152 275.392 99.6357 275.771 99.6357 276.317V277.958C99.6357 279.102 99.6608 279.826 99.7109 280.132C99.7656 280.433 99.8704 280.722 100.025 281H98.7402C98.6126 280.745 98.5306 280.446 98.4941 280.104ZM98.3916 277.356C97.945 277.539 97.2751 277.694 96.3818 277.821C95.876 277.894 95.5182 277.976 95.3086 278.067C95.099 278.159 94.9372 278.293 94.8232 278.471C94.7093 278.644 94.6523 278.838 94.6523 279.052C94.6523 279.38 94.7754 279.653 95.0215 279.872C95.2721 280.091 95.6367 280.2 96.1152 280.2C96.5892 280.2 97.0107 280.098 97.3799 279.893C97.749 279.683 98.0202 279.398 98.1934 279.038C98.3255 278.76 98.3916 278.35 98.3916 277.808V277.356ZM106.581 281H105.439V270.979H106.67V274.554C107.189 273.902 107.853 273.576 108.659 273.576C109.106 273.576 109.527 273.667 109.924 273.85C110.325 274.027 110.653 274.28 110.908 274.608C111.168 274.932 111.371 275.324 111.517 275.784C111.662 276.244 111.735 276.737 111.735 277.261C111.735 278.505 111.428 279.466 110.812 280.146C110.197 280.825 109.459 281.164 108.598 281.164C107.741 281.164 107.069 280.806 106.581 280.091V281ZM106.567 277.315C106.567 278.186 106.686 278.815 106.923 279.202C107.31 279.836 107.834 280.152 108.495 280.152C109.033 280.152 109.498 279.92 109.89 279.455C110.282 278.986 110.478 278.288 110.478 277.363C110.478 276.415 110.288 275.716 109.91 275.265C109.536 274.813 109.083 274.588 108.55 274.588C108.012 274.588 107.547 274.823 107.155 275.292C106.763 275.757 106.567 276.431 106.567 277.315ZM113.226 281V273.74H114.333V274.841C114.616 274.326 114.875 273.986 115.112 273.822C115.354 273.658 115.618 273.576 115.905 273.576C116.32 273.576 116.742 273.708 117.17 273.973L116.746 275.114C116.445 274.937 116.145 274.848 115.844 274.848C115.575 274.848 115.333 274.93 115.119 275.094C114.905 275.253 114.752 275.477 114.661 275.764C114.524 276.201 114.456 276.68 114.456 277.199V281H113.226ZM122.639 280.104C122.183 280.492 121.743 280.765 121.319 280.925C120.9 281.084 120.449 281.164 119.966 281.164C119.168 281.164 118.555 280.97 118.127 280.583C117.699 280.191 117.484 279.692 117.484 279.086C117.484 278.73 117.564 278.407 117.724 278.115C117.888 277.819 118.1 277.582 118.359 277.404C118.624 277.227 118.92 277.092 119.248 277.001C119.49 276.937 119.854 276.876 120.342 276.816C121.335 276.698 122.067 276.557 122.536 276.393C122.541 276.224 122.543 276.117 122.543 276.071C122.543 275.57 122.427 275.217 122.194 275.012C121.88 274.734 121.413 274.595 120.793 274.595C120.214 274.595 119.786 274.697 119.508 274.902C119.234 275.103 119.032 275.461 118.899 275.976L117.696 275.812C117.806 275.297 117.986 274.882 118.236 274.567C118.487 274.248 118.849 274.005 119.323 273.836C119.797 273.663 120.346 273.576 120.971 273.576C121.59 273.576 122.094 273.649 122.481 273.795C122.869 273.941 123.154 274.125 123.336 274.349C123.518 274.567 123.646 274.845 123.719 275.183C123.76 275.392 123.78 275.771 123.78 276.317V277.958C123.78 279.102 123.805 279.826 123.855 280.132C123.91 280.433 124.015 280.722 124.17 281H122.885C122.757 280.745 122.675 280.446 122.639 280.104ZM122.536 277.356C122.09 277.539 121.42 277.694 120.526 277.821C120.021 277.894 119.663 277.976 119.453 278.067C119.243 278.159 119.082 278.293 118.968 278.471C118.854 278.644 118.797 278.838 118.797 279.052C118.797 279.38 118.92 279.653 119.166 279.872C119.417 280.091 119.781 280.2 120.26 280.2C120.734 280.2 121.155 280.098 121.524 279.893C121.894 279.683 122.165 279.398 122.338 279.038C122.47 278.76 122.536 278.35 122.536 277.808V277.356ZM125.694 281V273.74H126.802V274.772C127.335 273.975 128.105 273.576 129.112 273.576C129.55 273.576 129.951 273.656 130.315 273.815C130.685 273.97 130.96 274.175 131.143 274.431C131.325 274.686 131.452 274.989 131.525 275.34C131.571 275.568 131.594 275.966 131.594 276.536V281H130.363V276.584C130.363 276.083 130.315 275.709 130.22 275.463C130.124 275.212 129.953 275.014 129.707 274.868C129.465 274.718 129.181 274.643 128.853 274.643C128.328 274.643 127.875 274.809 127.492 275.142C127.114 275.474 126.925 276.105 126.925 277.035V281H125.694ZM138.197 281V280.084C137.737 280.804 137.06 281.164 136.167 281.164C135.588 281.164 135.055 281.005 134.567 280.686C134.084 280.367 133.708 279.922 133.439 279.353C133.175 278.778 133.043 278.12 133.043 277.377C133.043 276.652 133.164 275.996 133.405 275.408C133.647 274.816 134.009 274.362 134.492 274.048C134.975 273.733 135.515 273.576 136.112 273.576C136.55 273.576 136.939 273.67 137.281 273.856C137.623 274.039 137.901 274.278 138.115 274.574V270.979H139.339V281H138.197ZM134.308 277.377C134.308 278.307 134.504 279.002 134.896 279.462C135.287 279.922 135.75 280.152 136.283 280.152C136.821 280.152 137.277 279.934 137.65 279.496C138.029 279.054 138.218 278.382 138.218 277.479C138.218 276.486 138.026 275.757 137.644 275.292C137.261 274.827 136.789 274.595 136.229 274.595C135.682 274.595 135.224 274.818 134.854 275.265C134.49 275.711 134.308 276.415 134.308 277.377Z" fill="#2699FB"/>
<path d="M331.7 280.101L327 275.401L328.4 274.001L331.7 277.301L335 274.001L336.4 275.401L331.7 280.101Z" fill="#2699FB"/>
<path d="M134.64 205.98L136.534 206.459C136.137 208.015 135.421 209.203 134.386 210.023C133.357 210.837 132.098 211.244 130.607 211.244C129.064 211.244 127.807 210.932 126.837 210.307C125.874 209.675 125.138 208.764 124.63 207.572C124.129 206.381 123.878 205.102 123.878 203.734C123.878 202.243 124.161 200.945 124.728 199.838C125.301 198.725 126.111 197.882 127.159 197.309C128.214 196.729 129.373 196.439 130.636 196.439C132.068 196.439 133.273 196.804 134.249 197.533C135.226 198.262 135.906 199.288 136.29 200.609L134.425 201.049C134.093 200.007 133.611 199.249 132.98 198.773C132.348 198.298 131.554 198.061 130.597 198.061C129.497 198.061 128.575 198.324 127.833 198.852C127.098 199.379 126.58 200.089 126.281 200.98C125.981 201.866 125.831 202.781 125.831 203.725C125.831 204.942 126.007 206.007 126.359 206.918C126.717 207.823 127.27 208.5 128.019 208.949C128.767 209.398 129.578 209.623 130.45 209.623C131.512 209.623 132.41 209.317 133.146 208.705C133.881 208.093 134.379 207.185 134.64 205.98ZM145.45 211V209.477C144.643 210.648 143.546 211.234 142.159 211.234C141.547 211.234 140.975 211.117 140.441 210.883C139.913 210.648 139.519 210.355 139.259 210.004C139.005 209.646 138.826 209.21 138.722 208.695C138.65 208.35 138.615 207.803 138.615 207.055V200.629H140.372V206.381C140.372 207.299 140.408 207.917 140.48 208.236C140.59 208.699 140.825 209.063 141.183 209.33C141.541 209.59 141.984 209.721 142.511 209.721C143.038 209.721 143.533 209.587 143.995 209.32C144.458 209.047 144.783 208.679 144.972 208.217C145.167 207.748 145.265 207.071 145.265 206.186V200.629H147.023V211H145.45ZM149.083 207.904L150.822 207.631C150.919 208.327 151.189 208.861 151.632 209.232C152.081 209.604 152.706 209.789 153.507 209.789C154.314 209.789 154.913 209.626 155.304 209.301C155.695 208.969 155.89 208.581 155.89 208.139C155.89 207.742 155.717 207.429 155.372 207.201C155.131 207.045 154.532 206.846 153.575 206.605C152.286 206.28 151.391 206 150.89 205.766C150.395 205.525 150.017 205.196 149.757 204.779C149.503 204.356 149.376 203.891 149.376 203.383C149.376 202.921 149.48 202.494 149.689 202.104C149.904 201.706 150.193 201.378 150.558 201.117C150.831 200.915 151.202 200.746 151.671 200.609C152.146 200.466 152.654 200.395 153.195 200.395C154.008 200.395 154.721 200.512 155.333 200.746C155.952 200.98 156.407 201.299 156.7 201.703C156.993 202.1 157.195 202.634 157.306 203.305L155.587 203.539C155.509 203.005 155.281 202.589 154.904 202.289C154.532 201.99 154.005 201.84 153.322 201.84C152.514 201.84 151.938 201.973 151.593 202.24C151.248 202.507 151.075 202.82 151.075 203.178C151.075 203.406 151.147 203.611 151.29 203.793C151.434 203.982 151.658 204.138 151.964 204.262C152.14 204.327 152.657 204.477 153.517 204.711C154.76 205.043 155.626 205.316 156.115 205.531C156.609 205.74 156.997 206.046 157.277 206.449C157.557 206.853 157.697 207.354 157.697 207.953C157.697 208.539 157.524 209.092 157.179 209.613C156.84 210.128 156.349 210.528 155.704 210.814C155.06 211.094 154.331 211.234 153.517 211.234C152.169 211.234 151.141 210.954 150.431 210.395C149.728 209.835 149.279 209.005 149.083 207.904ZM163.624 209.428L163.878 210.98C163.383 211.085 162.941 211.137 162.55 211.137C161.912 211.137 161.417 211.036 161.066 210.834C160.714 210.632 160.467 210.368 160.323 210.043C160.18 209.711 160.109 209.018 160.109 207.963V201.996H158.82V200.629H160.109V198.061L161.857 197.006V200.629H163.624V201.996H161.857V208.061C161.857 208.562 161.886 208.884 161.945 209.027C162.01 209.171 162.111 209.285 162.247 209.369C162.391 209.454 162.592 209.496 162.853 209.496C163.048 209.496 163.305 209.473 163.624 209.428ZM164.698 205.814C164.698 203.894 165.232 202.471 166.3 201.547C167.192 200.779 168.279 200.395 169.562 200.395C170.988 200.395 172.153 200.863 173.058 201.801C173.963 202.732 174.415 204.021 174.415 205.668C174.415 207.003 174.213 208.054 173.81 208.822C173.413 209.584 172.83 210.176 172.062 210.6C171.3 211.023 170.467 211.234 169.562 211.234C168.11 211.234 166.935 210.769 166.036 209.838C165.144 208.907 164.698 207.566 164.698 205.814ZM166.505 205.814C166.505 207.143 166.795 208.139 167.374 208.803C167.954 209.46 168.683 209.789 169.562 209.789C170.434 209.789 171.16 209.457 171.74 208.793C172.319 208.129 172.609 207.117 172.609 205.756C172.609 204.473 172.316 203.503 171.73 202.846C171.15 202.182 170.428 201.85 169.562 201.85C168.683 201.85 167.954 202.178 167.374 202.836C166.795 203.493 166.505 204.486 166.505 205.814ZM176.486 211V200.629H178.058V202.084C178.383 201.576 178.816 201.169 179.357 200.863C179.897 200.551 180.512 200.395 181.202 200.395C181.971 200.395 182.599 200.554 183.087 200.873C183.582 201.192 183.93 201.638 184.132 202.211C184.952 201 186.02 200.395 187.335 200.395C188.364 200.395 189.155 200.681 189.708 201.254C190.262 201.82 190.538 202.696 190.538 203.881V211H188.79V204.467C188.79 203.764 188.732 203.259 188.615 202.953C188.504 202.641 188.299 202.39 187.999 202.201C187.7 202.012 187.348 201.918 186.945 201.918C186.215 201.918 185.61 202.162 185.128 202.65C184.646 203.132 184.406 203.907 184.406 204.975V211H182.648V204.262C182.648 203.48 182.504 202.895 182.218 202.504C181.932 202.113 181.463 201.918 180.812 201.918C180.317 201.918 179.858 202.048 179.435 202.309C179.018 202.569 178.715 202.95 178.527 203.451C178.338 203.952 178.243 204.675 178.243 205.619V211H176.486ZM198.937 211V196.684H204.337C205.288 196.684 206.014 196.729 206.515 196.82C207.218 196.938 207.807 197.162 208.282 197.494C208.758 197.82 209.139 198.279 209.425 198.871C209.718 199.464 209.865 200.115 209.865 200.824C209.865 202.042 209.477 203.074 208.702 203.92C207.928 204.76 206.528 205.18 204.503 205.18H200.831V211H198.937ZM200.831 203.49H204.532C205.756 203.49 206.626 203.262 207.14 202.807C207.654 202.351 207.911 201.71 207.911 200.883C207.911 200.284 207.758 199.773 207.452 199.35C207.153 198.92 206.756 198.637 206.261 198.5C205.942 198.415 205.353 198.373 204.493 198.373H200.831V203.49ZM212.032 211V200.629H213.615V202.201C214.018 201.465 214.389 200.98 214.728 200.746C215.073 200.512 215.45 200.395 215.861 200.395C216.453 200.395 217.055 200.583 217.667 200.961L217.062 202.592C216.632 202.338 216.202 202.211 215.773 202.211C215.389 202.211 215.044 202.328 214.738 202.562C214.432 202.79 214.213 203.109 214.083 203.52C213.888 204.145 213.79 204.828 213.79 205.57V211H212.032ZM218.058 205.814C218.058 203.894 218.592 202.471 219.659 201.547C220.551 200.779 221.639 200.395 222.921 200.395C224.347 200.395 225.512 200.863 226.417 201.801C227.322 202.732 227.775 204.021 227.775 205.668C227.775 207.003 227.573 208.054 227.169 208.822C226.772 209.584 226.189 210.176 225.421 210.6C224.659 211.023 223.826 211.234 222.921 211.234C221.469 211.234 220.294 210.769 219.396 209.838C218.504 208.907 218.058 207.566 218.058 205.814ZM219.865 205.814C219.865 207.143 220.154 208.139 220.734 208.803C221.313 209.46 222.042 209.789 222.921 209.789C223.794 209.789 224.519 209.457 225.099 208.793C225.678 208.129 225.968 207.117 225.968 205.756C225.968 204.473 225.675 203.503 225.089 202.846C224.51 202.182 223.787 201.85 222.921 201.85C222.042 201.85 221.313 202.178 220.734 202.836C220.154 203.493 219.865 204.486 219.865 205.814ZM230.265 211V201.996H228.712V200.629H230.265V199.525C230.265 198.829 230.327 198.311 230.45 197.973C230.62 197.517 230.916 197.149 231.339 196.869C231.769 196.583 232.368 196.439 233.136 196.439C233.631 196.439 234.178 196.498 234.777 196.615L234.513 198.148C234.148 198.083 233.803 198.051 233.478 198.051C232.944 198.051 232.566 198.165 232.345 198.393C232.124 198.62 232.013 199.047 232.013 199.672V200.629H234.034V201.996H232.013V211H230.265ZM235.421 198.705V196.684H237.179V198.705H235.421ZM235.421 211V200.629H237.179V211H235.421ZM239.825 211V196.684H241.583V211H239.825ZM251.417 207.66L253.234 207.885C252.947 208.946 252.417 209.77 251.642 210.355C250.867 210.941 249.878 211.234 248.673 211.234C247.156 211.234 245.952 210.769 245.06 209.838C244.174 208.9 243.732 207.589 243.732 205.902C243.732 204.158 244.181 202.803 245.079 201.84C245.978 200.876 247.143 200.395 248.575 200.395C249.962 200.395 251.095 200.867 251.974 201.811C252.853 202.755 253.292 204.083 253.292 205.795C253.292 205.899 253.289 206.055 253.282 206.264H245.548C245.613 207.403 245.935 208.275 246.515 208.881C247.094 209.486 247.817 209.789 248.683 209.789C249.327 209.789 249.878 209.62 250.333 209.281C250.789 208.943 251.15 208.402 251.417 207.66ZM245.646 204.818H251.437C251.359 203.946 251.137 203.292 250.773 202.855C250.213 202.178 249.487 201.84 248.595 201.84C247.788 201.84 247.107 202.11 246.554 202.65C246.007 203.191 245.704 203.913 245.646 204.818Z" fill="#2699FB"/>
<path d="M58.7695 327.069V325.894L63.0146 325.887V329.605C62.363 330.125 61.6908 330.517 60.998 330.781C60.3053 331.041 59.5944 331.171 58.8652 331.171C57.8809 331.171 56.9854 330.961 56.1787 330.542C55.3766 330.118 54.7705 329.507 54.3604 328.71C53.9502 327.912 53.7451 327.021 53.7451 326.037C53.7451 325.062 53.9479 324.153 54.3535 323.31C54.7637 322.462 55.3516 321.833 56.1172 321.423C56.8828 321.013 57.7646 320.808 58.7627 320.808C59.4873 320.808 60.1413 320.926 60.7246 321.163C61.3125 321.396 61.7728 321.721 62.1055 322.141C62.4382 322.56 62.6911 323.107 62.8643 323.781L61.668 324.109C61.5176 323.599 61.3307 323.198 61.1074 322.906C60.8841 322.615 60.5651 322.382 60.1504 322.209C59.7357 322.031 59.2754 321.942 58.7695 321.942C58.1634 321.942 57.6393 322.036 57.1973 322.223C56.7552 322.405 56.3975 322.646 56.124 322.947C55.8551 323.248 55.6455 323.578 55.4951 323.938C55.2399 324.558 55.1123 325.23 55.1123 325.955C55.1123 326.848 55.265 327.596 55.5703 328.197C55.8802 328.799 56.3291 329.245 56.917 329.537C57.5049 329.829 58.1292 329.975 58.79 329.975C59.3643 329.975 59.9248 329.865 60.4717 329.646C61.0186 329.423 61.4333 329.186 61.7158 328.936V327.069H58.7695ZM69.7891 328.662L71.0605 328.819C70.86 329.562 70.4886 330.139 69.9463 330.549C69.404 330.959 68.7113 331.164 67.8682 331.164C66.8063 331.164 65.9632 330.838 65.3389 330.187C64.7191 329.53 64.4092 328.612 64.4092 327.432C64.4092 326.21 64.7236 325.262 65.3525 324.588C65.9814 323.913 66.7972 323.576 67.7998 323.576C68.7705 323.576 69.5635 323.907 70.1787 324.567C70.7939 325.228 71.1016 326.158 71.1016 327.356C71.1016 327.429 71.0993 327.539 71.0947 327.685H65.6807C65.7262 328.482 65.9518 329.093 66.3574 329.517C66.763 329.94 67.2689 330.152 67.875 330.152C68.3262 330.152 68.7113 330.034 69.0303 329.797C69.3493 329.56 69.6022 329.182 69.7891 328.662ZM65.749 326.673H69.8027C69.748 326.062 69.5931 325.604 69.3379 325.299C68.946 324.825 68.4378 324.588 67.8135 324.588C67.2484 324.588 66.7721 324.777 66.3848 325.155C66.002 325.534 65.79 326.039 65.749 326.673ZM72.6123 331V323.74H73.7197V324.772C74.2529 323.975 75.0231 323.576 76.0303 323.576C76.4678 323.576 76.8688 323.656 77.2334 323.815C77.6025 323.97 77.8783 324.175 78.0605 324.431C78.2428 324.686 78.3704 324.989 78.4434 325.34C78.4889 325.568 78.5117 325.966 78.5117 326.536V331H77.2812V326.584C77.2812 326.083 77.2334 325.709 77.1377 325.463C77.042 325.212 76.8711 325.014 76.625 324.868C76.3835 324.718 76.0986 324.643 75.7705 324.643C75.2464 324.643 74.793 324.809 74.4102 325.142C74.0319 325.474 73.8428 326.105 73.8428 327.035V331H72.6123ZM85.375 328.662L86.6465 328.819C86.446 329.562 86.0745 330.139 85.5322 330.549C84.9899 330.959 84.2972 331.164 83.4541 331.164C82.3923 331.164 81.5492 330.838 80.9248 330.187C80.305 329.53 79.9951 328.612 79.9951 327.432C79.9951 326.21 80.3096 325.262 80.9385 324.588C81.5674 323.913 82.3831 323.576 83.3857 323.576C84.3564 323.576 85.1494 323.907 85.7646 324.567C86.3799 325.228 86.6875 326.158 86.6875 327.356C86.6875 327.429 86.6852 327.539 86.6807 327.685H81.2666C81.3122 328.482 81.5378 329.093 81.9434 329.517C82.349 329.94 82.8548 330.152 83.4609 330.152C83.9121 330.152 84.2972 330.034 84.6162 329.797C84.9352 329.56 85.1882 329.182 85.375 328.662ZM81.335 326.673H85.3887C85.334 326.062 85.179 325.604 84.9238 325.299C84.5319 324.825 84.0238 324.588 83.3994 324.588C82.8343 324.588 82.3581 324.777 81.9707 325.155C81.5879 325.534 81.376 326.039 81.335 326.673ZM88.1846 331V323.74H89.292V324.841C89.5745 324.326 89.8343 323.986 90.0713 323.822C90.3128 323.658 90.5771 323.576 90.8643 323.576C91.279 323.576 91.7005 323.708 92.1289 323.973L91.7051 325.114C91.4043 324.937 91.1035 324.848 90.8027 324.848C90.5339 324.848 90.2923 324.93 90.0781 325.094C89.8639 325.253 89.7113 325.477 89.6201 325.764C89.4834 326.201 89.415 326.68 89.415 327.199V331H88.1846ZM92.8672 322.394V320.979H94.0977V322.394H92.8672ZM92.8672 331V323.74H94.0977V331H92.8672ZM100.715 328.341L101.925 328.498C101.793 329.332 101.453 329.986 100.906 330.46C100.364 330.929 99.6963 331.164 98.9033 331.164C97.9098 331.164 97.11 330.84 96.5039 330.193C95.9023 329.542 95.6016 328.61 95.6016 327.397C95.6016 326.614 95.7314 325.928 95.9912 325.34C96.251 324.752 96.6452 324.312 97.1738 324.021C97.707 323.724 98.2858 323.576 98.9102 323.576C99.6986 323.576 100.343 323.777 100.845 324.178C101.346 324.574 101.667 325.139 101.809 325.873L100.612 326.058C100.498 325.57 100.296 325.203 100.004 324.957C99.7168 324.711 99.3682 324.588 98.958 324.588C98.3382 324.588 97.8346 324.811 97.4473 325.258C97.0599 325.7 96.8662 326.402 96.8662 327.363C96.8662 328.339 97.0531 329.047 97.4268 329.489C97.8005 329.931 98.2881 330.152 98.8896 330.152C99.3727 330.152 99.776 330.004 100.1 329.708C100.423 329.412 100.628 328.956 100.715 328.341ZM107.059 331V320.979H114.305V322.161H108.385V325.23H113.929V326.406H108.385V329.817H114.537V331H107.059ZM115.733 327.992V326.755H119.514V327.992H115.733ZM126.917 323.433L125.693 323.528C125.584 323.045 125.429 322.694 125.229 322.476C124.896 322.125 124.486 321.949 123.998 321.949C123.606 321.949 123.262 322.059 122.966 322.277C122.578 322.56 122.273 322.972 122.05 323.515C121.826 324.057 121.71 324.829 121.701 325.832C121.997 325.381 122.36 325.046 122.788 324.827C123.216 324.608 123.665 324.499 124.135 324.499C124.955 324.499 125.652 324.802 126.227 325.408C126.805 326.01 127.095 326.789 127.095 327.746C127.095 328.375 126.958 328.961 126.685 329.503C126.416 330.041 126.044 330.453 125.57 330.74C125.096 331.027 124.559 331.171 123.957 331.171C122.932 331.171 122.095 330.795 121.448 330.043C120.801 329.286 120.478 328.042 120.478 326.311C120.478 324.374 120.835 322.965 121.551 322.086C122.175 321.32 123.016 320.938 124.073 320.938C124.862 320.938 125.507 321.159 126.008 321.601C126.514 322.043 126.817 322.653 126.917 323.433ZM121.893 327.753C121.893 328.177 121.981 328.582 122.159 328.97C122.341 329.357 122.594 329.653 122.918 329.858C123.242 330.059 123.581 330.159 123.937 330.159C124.456 330.159 124.903 329.95 125.276 329.53C125.65 329.111 125.837 328.541 125.837 327.821C125.837 327.129 125.652 326.584 125.283 326.188C124.914 325.786 124.449 325.586 123.889 325.586C123.333 325.586 122.861 325.786 122.474 326.188C122.086 326.584 121.893 327.106 121.893 327.753Z" fill="#2699FB"/>
<path d="M52.9795 361L56.8281 350.979H58.2568L62.3584 361H60.8477L59.6787 357.965H55.4883L54.3877 361H52.9795ZM55.8711 356.885H59.2686L58.2227 354.109C57.9036 353.266 57.6667 352.574 57.5117 352.031C57.3841 352.674 57.2041 353.312 56.9717 353.945L55.8711 356.885ZM63.2471 361V353.74H64.3545V354.841C64.637 354.326 64.8968 353.986 65.1338 353.822C65.3753 353.658 65.6396 353.576 65.9268 353.576C66.3415 353.576 66.763 353.708 67.1914 353.973L66.7676 355.114C66.4668 354.937 66.166 354.848 65.8652 354.848C65.5964 354.848 65.3548 354.93 65.1406 355.094C64.9264 355.253 64.7738 355.477 64.6826 355.764C64.5459 356.201 64.4775 356.68 64.4775 357.199V361H63.2471ZM67.9297 352.394V350.979H69.1602V352.394H67.9297ZM67.9297 361V353.74H69.1602V361H67.9297ZM70.5479 358.833L71.7646 358.642C71.833 359.129 72.0221 359.503 72.332 359.763C72.6465 360.022 73.084 360.152 73.6445 360.152C74.2096 360.152 74.6289 360.038 74.9023 359.811C75.1758 359.578 75.3125 359.307 75.3125 358.997C75.3125 358.719 75.1917 358.5 74.9502 358.341C74.7816 358.231 74.3623 358.092 73.6924 357.924C72.79 357.696 72.1634 357.5 71.8125 357.336C71.4661 357.167 71.2018 356.937 71.0195 356.646C70.8418 356.349 70.7529 356.023 70.7529 355.668C70.7529 355.344 70.8258 355.046 70.9717 354.772C71.1221 354.494 71.3249 354.264 71.5801 354.082C71.7715 353.941 72.0312 353.822 72.3594 353.727C72.6921 353.626 73.0475 353.576 73.4258 353.576C73.9954 353.576 74.4945 353.658 74.9229 353.822C75.3558 353.986 75.6748 354.21 75.8799 354.492C76.085 354.77 76.2262 355.144 76.3037 355.613L75.1006 355.777C75.0459 355.404 74.8864 355.112 74.6221 354.902C74.3623 354.693 73.9932 354.588 73.5146 354.588C72.9495 354.588 72.5462 354.681 72.3047 354.868C72.0632 355.055 71.9424 355.274 71.9424 355.524C71.9424 355.684 71.9925 355.827 72.0928 355.955C72.193 356.087 72.3503 356.197 72.5645 356.283C72.6875 356.329 73.0498 356.434 73.6514 356.598C74.5218 356.83 75.1279 357.021 75.4697 357.172C75.8161 357.318 76.0872 357.532 76.2832 357.814C76.4792 358.097 76.5771 358.448 76.5771 358.867C76.5771 359.277 76.4564 359.665 76.2148 360.029C75.9779 360.389 75.6338 360.67 75.1826 360.87C74.7314 361.066 74.221 361.164 73.6514 361.164C72.708 361.164 71.988 360.968 71.4912 360.576C70.999 360.184 70.6846 359.603 70.5479 358.833ZM80.7266 359.899L80.9043 360.986C80.5579 361.059 80.248 361.096 79.9746 361.096C79.528 361.096 79.1816 361.025 78.9355 360.884C78.6895 360.743 78.5163 360.558 78.416 360.33C78.3158 360.098 78.2656 359.612 78.2656 358.874V354.697H77.3633V353.74H78.2656V351.942L79.4893 351.204V353.74H80.7266V354.697H79.4893V358.942C79.4893 359.293 79.5098 359.519 79.5508 359.619C79.5964 359.719 79.667 359.799 79.7627 359.858C79.863 359.918 80.0042 359.947 80.1865 359.947C80.3232 359.947 80.5033 359.931 80.7266 359.899ZM86.6738 360.104C86.2181 360.492 85.7783 360.765 85.3545 360.925C84.9352 361.084 84.484 361.164 84.001 361.164C83.2035 361.164 82.5905 360.97 82.1621 360.583C81.7337 360.191 81.5195 359.692 81.5195 359.086C81.5195 358.73 81.5993 358.407 81.7588 358.115C81.9229 357.819 82.1348 357.582 82.3945 357.404C82.6589 357.227 82.9551 357.092 83.2832 357.001C83.5247 356.937 83.8893 356.876 84.377 356.816C85.3704 356.698 86.1019 356.557 86.5713 356.393C86.5758 356.224 86.5781 356.117 86.5781 356.071C86.5781 355.57 86.4619 355.217 86.2295 355.012C85.915 354.734 85.4479 354.595 84.8281 354.595C84.2493 354.595 83.821 354.697 83.543 354.902C83.2695 355.103 83.0667 355.461 82.9346 355.976L81.7314 355.812C81.8408 355.297 82.0208 354.882 82.2715 354.567C82.5221 354.248 82.8844 354.005 83.3584 353.836C83.8324 353.663 84.3815 353.576 85.0059 353.576C85.6257 353.576 86.1292 353.649 86.5166 353.795C86.904 353.941 87.1888 354.125 87.3711 354.349C87.5534 354.567 87.681 354.845 87.7539 355.183C87.7949 355.392 87.8154 355.771 87.8154 356.317V357.958C87.8154 359.102 87.8405 359.826 87.8906 360.132C87.9453 360.433 88.0501 360.722 88.2051 361H86.9199C86.7923 360.745 86.7103 360.446 86.6738 360.104ZM86.5713 357.356C86.1247 357.539 85.4548 357.694 84.5615 357.821C84.0557 357.894 83.6979 357.976 83.4883 358.067C83.2786 358.159 83.1169 358.293 83.0029 358.471C82.889 358.644 82.832 358.838 82.832 359.052C82.832 359.38 82.9551 359.653 83.2012 359.872C83.4518 360.091 83.8164 360.2 84.2949 360.2C84.7689 360.2 85.1904 360.098 85.5596 359.893C85.9287 359.683 86.1999 359.398 86.373 359.038C86.5052 358.76 86.5713 358.35 86.5713 357.808V357.356ZM93.8037 361V350.979H98.2471C99.1403 350.979 99.8193 351.07 100.284 351.252C100.749 351.43 101.12 351.746 101.398 352.202C101.676 352.658 101.815 353.161 101.815 353.713C101.815 354.424 101.585 355.023 101.125 355.511C100.665 355.998 99.9538 356.308 98.9922 356.44C99.3431 356.609 99.6097 356.775 99.792 356.939C100.179 357.295 100.546 357.739 100.893 358.272L102.636 361H100.968L99.6416 358.915C99.2542 358.313 98.9352 357.853 98.6846 357.534C98.4339 357.215 98.2083 356.992 98.0078 356.864C97.8118 356.737 97.6113 356.648 97.4062 356.598C97.2559 356.566 97.0098 356.55 96.668 356.55H95.1299V361H93.8037ZM95.1299 355.401H97.9805C98.5866 355.401 99.0605 355.34 99.4023 355.217C99.7441 355.089 100.004 354.889 100.182 354.615C100.359 354.337 100.448 354.036 100.448 353.713C100.448 353.239 100.275 352.849 99.9287 352.544C99.5869 352.239 99.0446 352.086 98.3018 352.086H95.1299V355.401ZM108.48 360.104C108.025 360.492 107.585 360.765 107.161 360.925C106.742 361.084 106.291 361.164 105.808 361.164C105.01 361.164 104.397 360.97 103.969 360.583C103.54 360.191 103.326 359.692 103.326 359.086C103.326 358.73 103.406 358.407 103.565 358.115C103.729 357.819 103.941 357.582 104.201 357.404C104.465 357.227 104.762 357.092 105.09 357.001C105.331 356.937 105.696 356.876 106.184 356.816C107.177 356.698 107.909 356.557 108.378 356.393C108.382 356.224 108.385 356.117 108.385 356.071C108.385 355.57 108.269 355.217 108.036 355.012C107.722 354.734 107.255 354.595 106.635 354.595C106.056 354.595 105.628 354.697 105.35 354.902C105.076 355.103 104.873 355.461 104.741 355.976L103.538 355.812C103.647 355.297 103.827 354.882 104.078 354.567C104.329 354.248 104.691 354.005 105.165 353.836C105.639 353.663 106.188 353.576 106.812 353.576C107.432 353.576 107.936 353.649 108.323 353.795C108.711 353.941 108.995 354.125 109.178 354.349C109.36 354.567 109.488 354.845 109.561 355.183C109.602 355.392 109.622 355.771 109.622 356.317V357.958C109.622 359.102 109.647 359.826 109.697 360.132C109.752 360.433 109.857 360.722 110.012 361H108.727C108.599 360.745 108.517 360.446 108.48 360.104ZM108.378 357.356C107.931 357.539 107.261 357.694 106.368 357.821C105.862 357.894 105.505 357.976 105.295 358.067C105.085 358.159 104.924 358.293 104.81 358.471C104.696 358.644 104.639 358.838 104.639 359.052C104.639 359.38 104.762 359.653 105.008 359.872C105.258 360.091 105.623 360.2 106.102 360.2C106.576 360.2 106.997 360.098 107.366 359.893C107.735 359.683 108.007 359.398 108.18 359.038C108.312 358.76 108.378 358.35 108.378 357.808V357.356ZM111.536 363.782V353.74H112.657V354.684C112.922 354.314 113.22 354.039 113.553 353.856C113.885 353.67 114.289 353.576 114.763 353.576C115.382 353.576 115.929 353.736 116.403 354.055C116.877 354.374 117.235 354.825 117.477 355.408C117.718 355.987 117.839 356.623 117.839 357.315C117.839 358.058 117.704 358.728 117.436 359.325C117.171 359.918 116.784 360.373 116.273 360.692C115.768 361.007 115.234 361.164 114.674 361.164C114.264 361.164 113.895 361.077 113.566 360.904C113.243 360.731 112.976 360.512 112.767 360.248V363.782H111.536ZM112.65 357.411C112.65 358.345 112.84 359.036 113.218 359.482C113.596 359.929 114.054 360.152 114.592 360.152C115.139 360.152 115.606 359.922 115.993 359.462C116.385 358.997 116.581 358.279 116.581 357.309C116.581 356.383 116.39 355.691 116.007 355.23C115.629 354.77 115.175 354.54 114.646 354.54C114.122 354.54 113.658 354.786 113.252 355.278C112.851 355.766 112.65 356.477 112.65 357.411ZM119.336 352.394V350.979H120.566V352.394H119.336ZM119.336 361V353.74H120.566V361H119.336ZM127.156 361V360.084C126.696 360.804 126.019 361.164 125.126 361.164C124.547 361.164 124.014 361.005 123.526 360.686C123.043 360.367 122.667 359.922 122.398 359.353C122.134 358.778 122.002 358.12 122.002 357.377C122.002 356.652 122.123 355.996 122.364 355.408C122.606 354.816 122.968 354.362 123.451 354.048C123.934 353.733 124.474 353.576 125.071 353.576C125.509 353.576 125.898 353.67 126.24 353.856C126.582 354.039 126.86 354.278 127.074 354.574V350.979H128.298V361H127.156ZM123.267 357.377C123.267 358.307 123.463 359.002 123.854 359.462C124.246 359.922 124.709 360.152 125.242 360.152C125.78 360.152 126.236 359.934 126.609 359.496C126.988 359.054 127.177 358.382 127.177 357.479C127.177 356.486 126.985 355.757 126.603 355.292C126.22 354.827 125.748 354.595 125.188 354.595C124.641 354.595 124.183 354.818 123.813 355.265C123.449 355.711 123.267 356.415 123.267 357.377Z" fill="#2699FB"/>
<path d="M54.0254 391V380.979H57.7852C58.5508 380.979 59.1637 381.081 59.624 381.286C60.0889 381.487 60.4512 381.799 60.7109 382.223C60.9753 382.642 61.1074 383.082 61.1074 383.542C61.1074 383.97 60.9912 384.374 60.7588 384.752C60.5264 385.13 60.1755 385.436 59.7061 385.668C60.3122 385.846 60.777 386.149 61.1006 386.577C61.4287 387.006 61.5928 387.511 61.5928 388.095C61.5928 388.564 61.4925 389.002 61.292 389.407C61.096 389.808 60.8522 390.118 60.5605 390.337C60.2689 390.556 59.902 390.722 59.46 390.836C59.0225 390.945 58.4847 391 57.8467 391H54.0254ZM55.3516 385.189H57.5186C58.1064 385.189 58.528 385.151 58.7832 385.073C59.1204 384.973 59.3734 384.807 59.542 384.574C59.7152 384.342 59.8018 384.05 59.8018 383.699C59.8018 383.367 59.722 383.075 59.5625 382.824C59.403 382.569 59.1751 382.396 58.8789 382.305C58.5827 382.209 58.0745 382.161 57.3545 382.161H55.3516V385.189ZM55.3516 389.817H57.8467C58.2751 389.817 58.5758 389.801 58.749 389.77C59.0544 389.715 59.3096 389.624 59.5146 389.496C59.7197 389.368 59.8883 389.184 60.0205 388.942C60.1527 388.696 60.2188 388.414 60.2188 388.095C60.2188 387.721 60.123 387.397 59.9316 387.124C59.7402 386.846 59.4736 386.652 59.1318 386.543C58.7946 386.429 58.307 386.372 57.6689 386.372H55.3516V389.817ZM68.2305 388.662L69.502 388.819C69.3014 389.562 68.93 390.139 68.3877 390.549C67.8454 390.959 67.1527 391.164 66.3096 391.164C65.2477 391.164 64.4046 390.838 63.7803 390.187C63.1605 389.53 62.8506 388.612 62.8506 387.432C62.8506 386.21 63.165 385.262 63.7939 384.588C64.4229 383.913 65.2386 383.576 66.2412 383.576C67.2119 383.576 68.0049 383.907 68.6201 384.567C69.2354 385.228 69.543 386.158 69.543 387.356C69.543 387.429 69.5407 387.539 69.5361 387.685H64.1221C64.1676 388.482 64.3932 389.093 64.7988 389.517C65.2044 389.94 65.7103 390.152 66.3164 390.152C66.7676 390.152 67.1527 390.034 67.4717 389.797C67.7907 389.56 68.0436 389.182 68.2305 388.662ZM64.1904 386.673H68.2441C68.1895 386.062 68.0345 385.604 67.7793 385.299C67.3874 384.825 66.8792 384.588 66.2549 384.588C65.6898 384.588 65.2135 384.777 64.8262 385.155C64.4434 385.534 64.2314 386.039 64.1904 386.673ZM71.0264 391V380.979H72.2568V391H71.0264ZM74.1436 391V380.979H75.374V391H74.1436ZM77.2949 382.394V380.979H78.5254V382.394H77.2949ZM77.2949 391V383.74H78.5254V391H77.2949ZM80.4053 391V383.74H81.5127V384.772C82.0459 383.975 82.8161 383.576 83.8232 383.576C84.2607 383.576 84.6618 383.656 85.0264 383.815C85.3955 383.97 85.6712 384.175 85.8535 384.431C86.0358 384.686 86.1634 384.989 86.2363 385.34C86.2819 385.568 86.3047 385.966 86.3047 386.536V391H85.0742V386.584C85.0742 386.083 85.0264 385.709 84.9307 385.463C84.835 385.212 84.6641 385.014 84.418 384.868C84.1764 384.718 83.8916 384.643 83.5635 384.643C83.0394 384.643 82.5859 384.809 82.2031 385.142C81.8249 385.474 81.6357 386.105 81.6357 387.035V391H80.4053ZM88.2051 382.394V380.979H89.4355V382.394H88.2051ZM88.2051 391V383.74H89.4355V391H88.2051ZM95.4375 391V380.979H102.198V382.161H96.7637V385.265H101.467V386.447H96.7637V391H95.4375ZM103.312 387.37C103.312 386.026 103.686 385.03 104.434 384.383C105.058 383.845 105.819 383.576 106.717 383.576C107.715 383.576 108.531 383.904 109.164 384.561C109.798 385.212 110.114 386.115 110.114 387.268C110.114 388.202 109.973 388.938 109.69 389.476C109.412 390.009 109.005 390.424 108.467 390.72C107.934 391.016 107.35 391.164 106.717 391.164C105.701 391.164 104.878 390.838 104.249 390.187C103.625 389.535 103.312 388.596 103.312 387.37ZM104.577 387.37C104.577 388.3 104.78 388.997 105.186 389.462C105.591 389.922 106.102 390.152 106.717 390.152C107.327 390.152 107.836 389.92 108.241 389.455C108.647 388.99 108.85 388.282 108.85 387.329C108.85 386.431 108.645 385.752 108.234 385.292C107.829 384.827 107.323 384.595 106.717 384.595C106.102 384.595 105.591 384.825 105.186 385.285C104.78 385.745 104.577 386.44 104.577 387.37ZM114.25 389.899L114.428 390.986C114.081 391.059 113.771 391.096 113.498 391.096C113.051 391.096 112.705 391.025 112.459 390.884C112.213 390.743 112.04 390.558 111.939 390.33C111.839 390.098 111.789 389.612 111.789 388.874V384.697H110.887V383.74H111.789V381.942L113.013 381.204V383.74H114.25V384.697H113.013V388.942C113.013 389.293 113.033 389.519 113.074 389.619C113.12 389.719 113.19 389.799 113.286 389.858C113.386 389.918 113.528 389.947 113.71 389.947C113.847 389.947 114.027 389.931 114.25 389.899ZM115.002 387.37C115.002 386.026 115.376 385.03 116.123 384.383C116.747 383.845 117.508 383.576 118.406 383.576C119.404 383.576 120.22 383.904 120.854 384.561C121.487 385.212 121.804 386.115 121.804 387.268C121.804 388.202 121.662 388.938 121.38 389.476C121.102 390.009 120.694 390.424 120.156 390.72C119.623 391.016 119.04 391.164 118.406 391.164C117.39 391.164 116.567 390.838 115.938 390.187C115.314 389.535 115.002 388.596 115.002 387.37ZM116.267 387.37C116.267 388.3 116.469 388.997 116.875 389.462C117.281 389.922 117.791 390.152 118.406 390.152C119.017 390.152 119.525 389.92 119.931 389.455C120.336 388.99 120.539 388.282 120.539 387.329C120.539 386.431 120.334 385.752 119.924 385.292C119.518 384.827 119.012 384.595 118.406 384.595C117.791 384.595 117.281 384.825 116.875 385.285C116.469 385.745 116.267 386.44 116.267 387.37ZM127.252 391V380.979H128.578V385.948L133.555 380.979H135.353L131.148 385.039L135.537 391H133.787L130.219 385.928L128.578 387.527V391H127.252ZM136.494 382.394V380.979H137.725V382.394H136.494ZM136.494 391V383.74H137.725V391H136.494ZM142.291 389.899L142.469 390.986C142.122 391.059 141.812 391.096 141.539 391.096C141.092 391.096 140.746 391.025 140.5 390.884C140.254 390.743 140.081 390.558 139.98 390.33C139.88 390.098 139.83 389.612 139.83 388.874V384.697H138.928V383.74H139.83V381.942L141.054 381.204V383.74H142.291V384.697H141.054V388.942C141.054 389.293 141.074 389.519 141.115 389.619C141.161 389.719 141.231 389.799 141.327 389.858C141.427 389.918 141.569 389.947 141.751 389.947C141.888 389.947 142.068 389.931 142.291 389.899Z" fill="#2699FB"/>
<path d="M54.1484 421V410.979H60.9092V412.161H55.4746V415.265H60.1777V416.447H55.4746V421H54.1484ZM67.2393 421V419.934C66.6742 420.754 65.9062 421.164 64.9355 421.164C64.5072 421.164 64.1061 421.082 63.7324 420.918C63.3633 420.754 63.0876 420.549 62.9053 420.303C62.7275 420.052 62.6022 419.747 62.5293 419.387C62.4792 419.145 62.4541 418.762 62.4541 418.238V413.74H63.6846V417.767C63.6846 418.409 63.7096 418.842 63.7598 419.065C63.8372 419.389 64.0013 419.644 64.252 419.831C64.5026 420.013 64.8125 420.104 65.1816 420.104C65.5508 420.104 65.8971 420.011 66.2207 419.824C66.5443 419.633 66.7721 419.375 66.9043 419.052C67.041 418.724 67.1094 418.25 67.1094 417.63V413.74H68.3398V421H67.2393ZM70.2676 412.407V410.979H71.498V412.407H70.2676ZM68.709 423.816L68.9414 422.771C69.1875 422.834 69.3812 422.866 69.5225 422.866C69.7731 422.866 69.96 422.782 70.083 422.613C70.2061 422.449 70.2676 422.035 70.2676 421.369V413.74H71.498V421.396C71.498 422.29 71.3818 422.912 71.1494 423.263C70.8532 423.718 70.361 423.946 69.6729 423.946C69.3402 423.946 69.0189 423.903 68.709 423.816ZM73.3984 412.394V410.979H74.6289V412.394H73.3984ZM73.3984 421V413.74H74.6289V421H73.3984ZM80.6035 421V410.979H81.9297V415.094H87.1387V410.979H88.4648V421H87.1387V416.276H81.9297V421H80.6035ZM95.2803 421V419.934C94.7152 420.754 93.9473 421.164 92.9766 421.164C92.5482 421.164 92.1471 421.082 91.7734 420.918C91.4043 420.754 91.1286 420.549 90.9463 420.303C90.7686 420.052 90.6432 419.747 90.5703 419.387C90.5202 419.145 90.4951 418.762 90.4951 418.238V413.74H91.7256V417.767C91.7256 418.409 91.7507 418.842 91.8008 419.065C91.8783 419.389 92.0423 419.644 92.293 419.831C92.5436 420.013 92.8535 420.104 93.2227 420.104C93.5918 420.104 93.9382 420.011 94.2617 419.824C94.5853 419.633 94.8132 419.375 94.9453 419.052C95.082 418.724 95.1504 418.25 95.1504 417.63V413.74H96.3809V421H95.2803ZM98.3154 421V413.74H99.4229V414.772C99.9561 413.975 100.726 413.576 101.733 413.576C102.171 413.576 102.572 413.656 102.937 413.815C103.306 413.97 103.581 414.175 103.764 414.431C103.946 414.686 104.074 414.989 104.146 415.34C104.192 415.568 104.215 415.966 104.215 416.536V421H102.984V416.584C102.984 416.083 102.937 415.709 102.841 415.463C102.745 415.212 102.574 415.014 102.328 414.868C102.087 414.718 101.802 414.643 101.474 414.643C100.95 414.643 100.496 414.809 100.113 415.142C99.735 415.474 99.5459 416.105 99.5459 417.035V421H98.3154ZM108.795 419.899L108.973 420.986C108.626 421.059 108.316 421.096 108.043 421.096C107.596 421.096 107.25 421.025 107.004 420.884C106.758 420.743 106.585 420.558 106.484 420.33C106.384 420.098 106.334 419.612 106.334 418.874V414.697H105.432V413.74H106.334V411.942L107.558 411.204V413.74H108.795V414.697H107.558V418.942C107.558 419.293 107.578 419.519 107.619 419.619C107.665 419.719 107.735 419.799 107.831 419.858C107.931 419.918 108.073 419.947 108.255 419.947C108.392 419.947 108.572 419.931 108.795 419.899ZM121.209 417.486L122.535 417.821C122.257 418.91 121.756 419.742 121.031 420.316C120.311 420.886 119.429 421.171 118.386 421.171C117.306 421.171 116.426 420.952 115.747 420.515C115.073 420.073 114.558 419.435 114.202 418.601C113.851 417.767 113.676 416.871 113.676 415.914C113.676 414.87 113.874 413.961 114.271 413.187C114.672 412.407 115.239 411.817 115.973 411.416C116.711 411.01 117.522 410.808 118.406 410.808C119.409 410.808 120.252 411.063 120.936 411.573C121.619 412.084 122.095 412.801 122.364 413.727L121.059 414.034C120.826 413.305 120.489 412.774 120.047 412.441C119.605 412.109 119.049 411.942 118.379 411.942C117.609 411.942 116.964 412.127 116.444 412.496C115.929 412.865 115.567 413.362 115.357 413.986C115.148 414.606 115.043 415.246 115.043 415.907C115.043 416.759 115.166 417.505 115.412 418.143C115.663 418.776 116.05 419.25 116.574 419.564C117.098 419.879 117.666 420.036 118.276 420.036C119.019 420.036 119.648 419.822 120.163 419.394C120.678 418.965 121.027 418.329 121.209 417.486ZM124.019 421V410.979H125.249V414.574C125.823 413.909 126.548 413.576 127.423 413.576C127.961 413.576 128.428 413.683 128.824 413.897C129.221 414.107 129.503 414.399 129.672 414.772C129.845 415.146 129.932 415.688 129.932 416.399V421H128.701V416.399C128.701 415.784 128.567 415.338 128.298 415.06C128.034 414.777 127.658 414.636 127.17 414.636C126.805 414.636 126.461 414.731 126.138 414.923C125.819 415.11 125.591 415.365 125.454 415.688C125.317 416.012 125.249 416.459 125.249 417.028V421H124.019ZM131.798 421V413.74H132.905V414.841C133.188 414.326 133.448 413.986 133.685 413.822C133.926 413.658 134.19 413.576 134.478 413.576C134.892 413.576 135.314 413.708 135.742 413.973L135.318 415.114C135.018 414.937 134.717 414.848 134.416 414.848C134.147 414.848 133.906 414.93 133.691 415.094C133.477 415.253 133.325 415.477 133.233 415.764C133.097 416.201 133.028 416.68 133.028 417.199V421H131.798ZM136.016 417.37C136.016 416.026 136.389 415.03 137.137 414.383C137.761 413.845 138.522 413.576 139.42 413.576C140.418 413.576 141.234 413.904 141.867 414.561C142.501 415.212 142.817 416.115 142.817 417.268C142.817 418.202 142.676 418.938 142.394 419.476C142.116 420.009 141.708 420.424 141.17 420.72C140.637 421.016 140.053 421.164 139.42 421.164C138.404 421.164 137.581 420.838 136.952 420.187C136.328 419.535 136.016 418.596 136.016 417.37ZM137.28 417.37C137.28 418.3 137.483 418.997 137.889 419.462C138.294 419.922 138.805 420.152 139.42 420.152C140.031 420.152 140.539 419.92 140.944 419.455C141.35 418.99 141.553 418.282 141.553 417.329C141.553 416.431 141.348 415.752 140.938 415.292C140.532 414.827 140.026 414.595 139.42 414.595C138.805 414.595 138.294 414.825 137.889 415.285C137.483 415.745 137.28 416.44 137.28 417.37ZM144.267 421V413.74H145.367V414.759C145.595 414.403 145.898 414.118 146.276 413.904C146.655 413.686 147.085 413.576 147.568 413.576C148.106 413.576 148.546 413.688 148.888 413.911C149.234 414.134 149.478 414.447 149.619 414.848C150.193 414 150.941 413.576 151.861 413.576C152.581 413.576 153.135 413.777 153.522 414.178C153.91 414.574 154.104 415.187 154.104 416.017V421H152.88V416.427C152.88 415.935 152.839 415.581 152.757 415.367C152.679 415.148 152.536 414.973 152.326 414.841C152.117 414.709 151.87 414.643 151.588 414.643C151.077 414.643 150.654 414.813 150.316 415.155C149.979 415.493 149.811 416.035 149.811 416.782V421H148.58V416.283C148.58 415.736 148.48 415.326 148.279 415.053C148.079 414.779 147.751 414.643 147.295 414.643C146.949 414.643 146.627 414.734 146.331 414.916C146.039 415.098 145.827 415.365 145.695 415.716C145.563 416.067 145.497 416.573 145.497 417.233V421H144.267ZM160.898 418.662L162.17 418.819C161.969 419.562 161.598 420.139 161.056 420.549C160.513 420.959 159.821 421.164 158.978 421.164C157.916 421.164 157.073 420.838 156.448 420.187C155.828 419.53 155.519 418.612 155.519 417.432C155.519 416.21 155.833 415.262 156.462 414.588C157.091 413.913 157.907 413.576 158.909 413.576C159.88 413.576 160.673 413.907 161.288 414.567C161.903 415.228 162.211 416.158 162.211 417.356C162.211 417.429 162.209 417.539 162.204 417.685H156.79C156.836 418.482 157.061 419.093 157.467 419.517C157.872 419.94 158.378 420.152 158.984 420.152C159.436 420.152 159.821 420.034 160.14 419.797C160.459 419.56 160.712 419.182 160.898 418.662ZM156.858 416.673H160.912C160.857 416.062 160.702 415.604 160.447 415.299C160.055 414.825 159.547 414.588 158.923 414.588C158.358 414.588 157.882 414.777 157.494 415.155C157.111 415.534 156.899 416.039 156.858 416.673ZM163.722 421V413.74H164.829V414.772C165.362 413.975 166.132 413.576 167.14 413.576C167.577 413.576 167.978 413.656 168.343 413.815C168.712 413.97 168.988 414.175 169.17 414.431C169.352 414.686 169.48 414.989 169.553 415.34C169.598 415.568 169.621 415.966 169.621 416.536V421H168.391V416.584C168.391 416.083 168.343 415.709 168.247 415.463C168.151 415.212 167.98 415.014 167.734 414.868C167.493 414.718 167.208 414.643 166.88 414.643C166.356 414.643 165.902 414.809 165.52 415.142C165.141 415.474 164.952 416.105 164.952 417.035V421H163.722ZM177.558 413.433L176.334 413.528C176.225 413.045 176.07 412.694 175.869 412.476C175.536 412.125 175.126 411.949 174.639 411.949C174.247 411.949 173.903 412.059 173.606 412.277C173.219 412.56 172.914 412.972 172.69 413.515C172.467 414.057 172.351 414.829 172.342 415.832C172.638 415.381 173 415.046 173.429 414.827C173.857 414.608 174.306 414.499 174.775 414.499C175.596 414.499 176.293 414.802 176.867 415.408C177.446 416.01 177.735 416.789 177.735 417.746C177.735 418.375 177.599 418.961 177.325 419.503C177.056 420.041 176.685 420.453 176.211 420.74C175.737 421.027 175.199 421.171 174.598 421.171C173.572 421.171 172.736 420.795 172.089 420.043C171.442 419.286 171.118 418.042 171.118 416.311C171.118 414.374 171.476 412.965 172.191 412.086C172.816 411.32 173.657 410.938 174.714 410.938C175.502 410.938 176.147 411.159 176.648 411.601C177.154 412.043 177.457 412.653 177.558 413.433ZM172.533 417.753C172.533 418.177 172.622 418.582 172.8 418.97C172.982 419.357 173.235 419.653 173.559 419.858C173.882 420.059 174.222 420.159 174.577 420.159C175.097 420.159 175.543 419.95 175.917 419.53C176.291 419.111 176.478 418.541 176.478 417.821C176.478 417.129 176.293 416.584 175.924 416.188C175.555 415.786 175.09 415.586 174.529 415.586C173.973 415.586 173.502 415.786 173.114 416.188C172.727 416.584 172.533 417.106 172.533 417.753ZM178.446 421L182.322 415.777L178.904 410.979H180.483L182.302 413.549C182.68 414.082 182.949 414.492 183.108 414.779C183.332 414.415 183.596 414.034 183.901 413.638L185.918 410.979H187.36L183.84 415.702L187.634 421H185.993L183.471 417.425C183.329 417.22 183.184 416.996 183.033 416.755C182.81 417.119 182.65 417.37 182.555 417.507L180.039 421H178.446Z" fill="#2699FB"/>
<path d="M56.6299 451V442.161H53.3281V440.979H61.2715V442.161H57.9561V451H56.6299ZM65.8926 448.662L67.1641 448.819C66.9635 449.562 66.5921 450.139 66.0498 450.549C65.5075 450.959 64.8148 451.164 63.9717 451.164C62.9098 451.164 62.0667 450.838 61.4424 450.187C60.8226 449.53 60.5127 448.612 60.5127 447.432C60.5127 446.21 60.8271 445.262 61.4561 444.588C62.085 443.913 62.9007 443.576 63.9033 443.576C64.874 443.576 65.667 443.907 66.2822 444.567C66.8975 445.228 67.2051 446.158 67.2051 447.356C67.2051 447.429 67.2028 447.539 67.1982 447.685H61.7842C61.8298 448.482 62.0553 449.093 62.4609 449.517C62.8665 449.94 63.3724 450.152 63.9785 450.152C64.4297 450.152 64.8148 450.034 65.1338 449.797C65.4528 449.56 65.7057 449.182 65.8926 448.662ZM61.8525 446.673H65.9062C65.8516 446.062 65.6966 445.604 65.4414 445.299C65.0495 444.825 64.5413 444.588 63.917 444.588C63.3519 444.588 62.8757 444.777 62.4883 445.155C62.1055 445.534 61.8936 446.039 61.8525 446.673ZM71.4023 449.899L71.5801 450.986C71.2337 451.059 70.9238 451.096 70.6504 451.096C70.2038 451.096 69.8574 451.025 69.6113 450.884C69.3652 450.743 69.1921 450.558 69.0918 450.33C68.9915 450.098 68.9414 449.612 68.9414 448.874V444.697H68.0391V443.74H68.9414V441.942L70.165 441.204V443.74H71.4023V444.697H70.165V448.942C70.165 449.293 70.1855 449.519 70.2266 449.619C70.2721 449.719 70.3428 449.799 70.4385 449.858C70.5387 449.918 70.68 449.947 70.8623 449.947C70.999 449.947 71.179 449.931 71.4023 449.899ZM77.582 448.662L78.8535 448.819C78.653 449.562 78.2816 450.139 77.7393 450.549C77.1969 450.959 76.5042 451.164 75.6611 451.164C74.5993 451.164 73.7562 450.838 73.1318 450.187C72.512 449.53 72.2021 448.612 72.2021 447.432C72.2021 446.21 72.5166 445.262 73.1455 444.588C73.7744 443.913 74.5902 443.576 75.5928 443.576C76.5635 443.576 77.3564 443.907 77.9717 444.567C78.5869 445.228 78.8945 446.158 78.8945 447.356C78.8945 447.429 78.8923 447.539 78.8877 447.685H73.4736C73.5192 448.482 73.7448 449.093 74.1504 449.517C74.556 449.94 75.0618 450.152 75.668 450.152C76.1191 450.152 76.5042 450.034 76.8232 449.797C77.1423 449.56 77.3952 449.182 77.582 448.662ZM73.542 446.673H77.5957C77.541 446.062 77.3861 445.604 77.1309 445.299C76.7389 444.825 76.2308 444.588 75.6064 444.588C75.0413 444.588 74.5651 444.777 74.1777 445.155C73.7949 445.534 73.583 446.039 73.542 446.673ZM80.4053 451V443.74H81.5127V444.772C82.0459 443.975 82.8161 443.576 83.8232 443.576C84.2607 443.576 84.6618 443.656 85.0264 443.815C85.3955 443.97 85.6712 444.175 85.8535 444.431C86.0358 444.686 86.1634 444.989 86.2363 445.34C86.2819 445.568 86.3047 445.966 86.3047 446.536V451H85.0742V446.584C85.0742 446.083 85.0264 445.709 84.9307 445.463C84.835 445.212 84.6641 445.014 84.418 444.868C84.1764 444.718 83.8916 444.643 83.5635 444.643C83.0394 444.643 82.5859 444.809 82.2031 445.142C81.8249 445.474 81.6357 446.105 81.6357 447.035V451H80.4053ZM92.9355 450.104C92.4798 450.492 92.04 450.765 91.6162 450.925C91.1969 451.084 90.7458 451.164 90.2627 451.164C89.4652 451.164 88.8522 450.97 88.4238 450.583C87.9954 450.191 87.7812 449.692 87.7812 449.086C87.7812 448.73 87.861 448.407 88.0205 448.115C88.1846 447.819 88.3965 447.582 88.6562 447.404C88.9206 447.227 89.2168 447.092 89.5449 447.001C89.7865 446.937 90.151 446.876 90.6387 446.816C91.6322 446.698 92.3636 446.557 92.833 446.393C92.8376 446.224 92.8398 446.117 92.8398 446.071C92.8398 445.57 92.7236 445.217 92.4912 445.012C92.1768 444.734 91.7096 444.595 91.0898 444.595C90.5111 444.595 90.0827 444.697 89.8047 444.902C89.5312 445.103 89.3285 445.461 89.1963 445.976L87.9932 445.812C88.1025 445.297 88.2826 444.882 88.5332 444.567C88.7839 444.248 89.1462 444.005 89.6201 443.836C90.0941 443.663 90.6432 443.576 91.2676 443.576C91.8874 443.576 92.391 443.649 92.7783 443.795C93.1657 443.941 93.4505 444.125 93.6328 444.349C93.8151 444.567 93.9427 444.845 94.0156 445.183C94.0566 445.392 94.0771 445.771 94.0771 446.317V447.958C94.0771 449.102 94.1022 449.826 94.1523 450.132C94.207 450.433 94.3118 450.722 94.4668 451H93.1816C93.054 450.745 92.972 450.446 92.9355 450.104ZM92.833 447.356C92.3864 447.539 91.7165 447.694 90.8232 447.821C90.3174 447.894 89.9596 447.976 89.75 448.067C89.5404 448.159 89.3786 448.293 89.2646 448.471C89.1507 448.644 89.0938 448.838 89.0938 449.052C89.0938 449.38 89.2168 449.653 89.4629 449.872C89.7135 450.091 90.0781 450.2 90.5566 450.2C91.0306 450.2 91.4521 450.098 91.8213 449.893C92.1904 449.683 92.4616 449.398 92.6348 449.038C92.7669 448.76 92.833 448.35 92.833 447.808V447.356ZM95.9639 451V440.979H97.1943V451H95.9639ZM110.312 447.486L111.639 447.821C111.361 448.91 110.859 449.742 110.135 450.316C109.415 450.886 108.533 451.171 107.489 451.171C106.409 451.171 105.53 450.952 104.851 450.515C104.176 450.073 103.661 449.435 103.306 448.601C102.955 447.767 102.779 446.871 102.779 445.914C102.779 444.87 102.978 443.961 103.374 443.187C103.775 442.407 104.342 441.817 105.076 441.416C105.814 441.01 106.626 440.808 107.51 440.808C108.512 440.808 109.355 441.063 110.039 441.573C110.723 442.084 111.199 442.801 111.468 443.727L110.162 444.034C109.93 443.305 109.592 442.774 109.15 442.441C108.708 442.109 108.152 441.942 107.482 441.942C106.712 441.942 106.067 442.127 105.548 442.496C105.033 442.865 104.671 443.362 104.461 443.986C104.251 444.606 104.146 445.246 104.146 445.907C104.146 446.759 104.27 447.505 104.516 448.143C104.766 448.776 105.154 449.25 105.678 449.564C106.202 449.879 106.769 450.036 107.38 450.036C108.123 450.036 108.752 449.822 109.267 449.394C109.782 448.965 110.13 448.329 110.312 447.486ZM112.664 447.37C112.664 446.026 113.038 445.03 113.785 444.383C114.41 443.845 115.171 443.576 116.068 443.576C117.066 443.576 117.882 443.904 118.516 444.561C119.149 445.212 119.466 446.115 119.466 447.268C119.466 448.202 119.325 448.938 119.042 449.476C118.764 450.009 118.356 450.424 117.818 450.72C117.285 451.016 116.702 451.164 116.068 451.164C115.052 451.164 114.229 450.838 113.601 450.187C112.976 449.535 112.664 448.596 112.664 447.37ZM113.929 447.37C113.929 448.3 114.132 448.997 114.537 449.462C114.943 449.922 115.453 450.152 116.068 450.152C116.679 450.152 117.187 449.92 117.593 449.455C117.998 448.99 118.201 448.282 118.201 447.329C118.201 446.431 117.996 445.752 117.586 445.292C117.18 444.827 116.674 444.595 116.068 444.595C115.453 444.595 114.943 444.825 114.537 445.285C114.132 445.745 113.929 446.44 113.929 447.37ZM120.888 451V440.979H122.118V451H120.888ZM123.574 447.37C123.574 446.026 123.948 445.03 124.695 444.383C125.32 443.845 126.081 443.576 126.979 443.576C127.977 443.576 128.792 443.904 129.426 444.561C130.059 445.212 130.376 446.115 130.376 447.268C130.376 448.202 130.235 448.938 129.952 449.476C129.674 450.009 129.266 450.424 128.729 450.72C128.195 451.016 127.612 451.164 126.979 451.164C125.962 451.164 125.14 450.838 124.511 450.187C123.886 449.535 123.574 448.596 123.574 447.37ZM124.839 447.37C124.839 448.3 125.042 448.997 125.447 449.462C125.853 449.922 126.363 450.152 126.979 450.152C127.589 450.152 128.097 449.92 128.503 449.455C128.909 448.99 129.111 448.282 129.111 447.329C129.111 446.431 128.906 445.752 128.496 445.292C128.09 444.827 127.585 444.595 126.979 444.595C126.363 444.595 125.853 444.825 125.447 445.285C125.042 445.745 124.839 446.44 124.839 447.37ZM131.812 451V443.74H132.919V444.841C133.201 444.326 133.461 443.986 133.698 443.822C133.94 443.658 134.204 443.576 134.491 443.576C134.906 443.576 135.327 443.708 135.756 443.973L135.332 445.114C135.031 444.937 134.73 444.848 134.43 444.848C134.161 444.848 133.919 444.93 133.705 445.094C133.491 445.253 133.338 445.477 133.247 445.764C133.11 446.201 133.042 446.68 133.042 447.199V451H131.812ZM139.174 449.899L139.352 450.986C139.005 451.059 138.695 451.096 138.422 451.096C137.975 451.096 137.629 451.025 137.383 450.884C137.137 450.743 136.964 450.558 136.863 450.33C136.763 450.098 136.713 449.612 136.713 448.874V444.697H135.811V443.74H136.713V441.942L137.937 441.204V443.74H139.174V444.697H137.937V448.942C137.937 449.293 137.957 449.519 137.998 449.619C138.044 449.719 138.114 449.799 138.21 449.858C138.31 449.918 138.451 449.947 138.634 449.947C138.771 449.947 138.951 449.931 139.174 449.899ZM145.354 448.662L146.625 448.819C146.424 449.562 146.053 450.139 145.511 450.549C144.968 450.959 144.276 451.164 143.433 451.164C142.371 451.164 141.528 450.838 140.903 450.187C140.284 449.53 139.974 448.612 139.974 447.432C139.974 446.21 140.288 445.262 140.917 444.588C141.546 443.913 142.362 443.576 143.364 443.576C144.335 443.576 145.128 443.907 145.743 444.567C146.358 445.228 146.666 446.158 146.666 447.356C146.666 447.429 146.664 447.539 146.659 447.685H141.245C141.291 448.482 141.516 449.093 141.922 449.517C142.327 449.94 142.833 450.152 143.439 450.152C143.891 450.152 144.276 450.034 144.595 449.797C144.914 449.56 145.167 449.182 145.354 448.662ZM141.313 446.673H145.367C145.312 446.062 145.158 445.604 144.902 445.299C144.51 444.825 144.002 444.588 143.378 444.588C142.813 444.588 142.337 444.777 141.949 445.155C141.566 445.534 141.354 446.039 141.313 446.673ZM152.914 448.341L154.124 448.498C153.992 449.332 153.652 449.986 153.105 450.46C152.563 450.929 151.896 451.164 151.103 451.164C150.109 451.164 149.309 450.84 148.703 450.193C148.102 449.542 147.801 448.61 147.801 447.397C147.801 446.614 147.931 445.928 148.19 445.34C148.45 444.752 148.844 444.312 149.373 444.021C149.906 443.724 150.485 443.576 151.109 443.576C151.898 443.576 152.543 443.777 153.044 444.178C153.545 444.574 153.867 445.139 154.008 445.873L152.812 446.058C152.698 445.57 152.495 445.203 152.203 444.957C151.916 444.711 151.567 444.588 151.157 444.588C150.537 444.588 150.034 444.811 149.646 445.258C149.259 445.7 149.065 446.402 149.065 447.363C149.065 448.339 149.252 449.047 149.626 449.489C150 449.931 150.487 450.152 151.089 450.152C151.572 450.152 151.975 450.004 152.299 449.708C152.622 449.412 152.827 448.956 152.914 448.341Z" fill="#2699FB"/>
<path d="M58.7695 477.069V475.894L63.0146 475.887V479.605C62.363 480.125 61.6908 480.517 60.998 480.781C60.3053 481.041 59.5944 481.171 58.8652 481.171C57.8809 481.171 56.9854 480.961 56.1787 480.542C55.3766 480.118 54.7705 479.507 54.3604 478.71C53.9502 477.912 53.7451 477.021 53.7451 476.037C53.7451 475.062 53.9479 474.153 54.3535 473.31C54.7637 472.462 55.3516 471.833 56.1172 471.423C56.8828 471.013 57.7646 470.808 58.7627 470.808C59.4873 470.808 60.1413 470.926 60.7246 471.163C61.3125 471.396 61.7728 471.721 62.1055 472.141C62.4382 472.56 62.6911 473.107 62.8643 473.781L61.668 474.109C61.5176 473.599 61.3307 473.198 61.1074 472.906C60.8841 472.615 60.5651 472.382 60.1504 472.209C59.7357 472.031 59.2754 471.942 58.7695 471.942C58.1634 471.942 57.6393 472.036 57.1973 472.223C56.7552 472.405 56.3975 472.646 56.124 472.947C55.8551 473.248 55.6455 473.578 55.4951 473.938C55.2399 474.558 55.1123 475.23 55.1123 475.955C55.1123 476.848 55.265 477.596 55.5703 478.197C55.8802 478.799 56.3291 479.245 56.917 479.537C57.5049 479.829 58.1292 479.975 58.79 479.975C59.3643 479.975 59.9248 479.865 60.4717 479.646C61.0186 479.423 61.4333 479.186 61.7158 478.936V477.069H58.7695ZM69.7891 478.662L71.0605 478.819C70.86 479.562 70.4886 480.139 69.9463 480.549C69.404 480.959 68.7113 481.164 67.8682 481.164C66.8063 481.164 65.9632 480.838 65.3389 480.187C64.7191 479.53 64.4092 478.612 64.4092 477.432C64.4092 476.21 64.7236 475.262 65.3525 474.588C65.9814 473.913 66.7972 473.576 67.7998 473.576C68.7705 473.576 69.5635 473.907 70.1787 474.567C70.7939 475.228 71.1016 476.158 71.1016 477.356C71.1016 477.429 71.0993 477.539 71.0947 477.685H65.6807C65.7262 478.482 65.9518 479.093 66.3574 479.517C66.763 479.94 67.2689 480.152 67.875 480.152C68.3262 480.152 68.7113 480.034 69.0303 479.797C69.3493 479.56 69.6022 479.182 69.7891 478.662ZM65.749 476.673H69.8027C69.748 476.062 69.5931 475.604 69.3379 475.299C68.946 474.825 68.4378 474.588 67.8135 474.588C67.2484 474.588 66.7721 474.777 66.3848 475.155C66.002 475.534 65.79 476.039 65.749 476.673ZM72.6123 481V473.74H73.7197V474.772C74.2529 473.975 75.0231 473.576 76.0303 473.576C76.4678 473.576 76.8688 473.656 77.2334 473.815C77.6025 473.97 77.8783 474.175 78.0605 474.431C78.2428 474.686 78.3704 474.989 78.4434 475.34C78.4889 475.568 78.5117 475.966 78.5117 476.536V481H77.2812V476.584C77.2812 476.083 77.2334 475.709 77.1377 475.463C77.042 475.212 76.8711 475.014 76.625 474.868C76.3835 474.718 76.0986 474.643 75.7705 474.643C75.2464 474.643 74.793 474.809 74.4102 475.142C74.0319 475.474 73.8428 476.105 73.8428 477.035V481H72.6123ZM85.375 478.662L86.6465 478.819C86.446 479.562 86.0745 480.139 85.5322 480.549C84.9899 480.959 84.2972 481.164 83.4541 481.164C82.3923 481.164 81.5492 480.838 80.9248 480.187C80.305 479.53 79.9951 478.612 79.9951 477.432C79.9951 476.21 80.3096 475.262 80.9385 474.588C81.5674 473.913 82.3831 473.576 83.3857 473.576C84.3564 473.576 85.1494 473.907 85.7646 474.567C86.3799 475.228 86.6875 476.158 86.6875 477.356C86.6875 477.429 86.6852 477.539 86.6807 477.685H81.2666C81.3122 478.482 81.5378 479.093 81.9434 479.517C82.349 479.94 82.8548 480.152 83.4609 480.152C83.9121 480.152 84.2972 480.034 84.6162 479.797C84.9352 479.56 85.1882 479.182 85.375 478.662ZM81.335 476.673H85.3887C85.334 476.062 85.179 475.604 84.9238 475.299C84.5319 474.825 84.0238 474.588 83.3994 474.588C82.8343 474.588 82.3581 474.777 81.9707 475.155C81.5879 475.534 81.376 476.039 81.335 476.673ZM88.1846 481V473.74H89.292V474.841C89.5745 474.326 89.8343 473.986 90.0713 473.822C90.3128 473.658 90.5771 473.576 90.8643 473.576C91.279 473.576 91.7005 473.708 92.1289 473.973L91.7051 475.114C91.4043 474.937 91.1035 474.848 90.8027 474.848C90.5339 474.848 90.2923 474.93 90.0781 475.094C89.8639 475.253 89.7113 475.477 89.6201 475.764C89.4834 476.201 89.415 476.68 89.415 477.199V481H88.1846ZM92.8672 472.394V470.979H94.0977V472.394H92.8672ZM92.8672 481V473.74H94.0977V481H92.8672ZM100.715 478.341L101.925 478.498C101.793 479.332 101.453 479.986 100.906 480.46C100.364 480.929 99.6963 481.164 98.9033 481.164C97.9098 481.164 97.11 480.84 96.5039 480.193C95.9023 479.542 95.6016 478.61 95.6016 477.397C95.6016 476.614 95.7314 475.928 95.9912 475.34C96.251 474.752 96.6452 474.312 97.1738 474.021C97.707 473.724 98.2858 473.576 98.9102 473.576C99.6986 473.576 100.343 473.777 100.845 474.178C101.346 474.574 101.667 475.139 101.809 475.873L100.612 476.058C100.498 475.57 100.296 475.203 100.004 474.957C99.7168 474.711 99.3682 474.588 98.958 474.588C98.3382 474.588 97.8346 474.811 97.4473 475.258C97.0599 475.7 96.8662 476.402 96.8662 477.363C96.8662 478.339 97.0531 479.047 97.4268 479.489C97.8005 479.931 98.2881 480.152 98.8896 480.152C99.3727 480.152 99.776 480.004 100.1 479.708C100.423 479.412 100.628 478.956 100.715 478.341ZM107.059 481V470.979H114.305V472.161H108.385V475.23H113.929V476.406H108.385V479.817H114.537V481H107.059ZM115.733 477.992V476.755H119.514V477.992H115.733ZM126.917 473.433L125.693 473.528C125.584 473.045 125.429 472.694 125.229 472.476C124.896 472.125 124.486 471.949 123.998 471.949C123.606 471.949 123.262 472.059 122.966 472.277C122.578 472.56 122.273 472.972 122.05 473.515C121.826 474.057 121.71 474.829 121.701 475.832C121.997 475.381 122.36 475.046 122.788 474.827C123.216 474.608 123.665 474.499 124.135 474.499C124.955 474.499 125.652 474.802 126.227 475.408C126.805 476.01 127.095 476.789 127.095 477.746C127.095 478.375 126.958 478.961 126.685 479.503C126.416 480.041 126.044 480.453 125.57 480.74C125.096 481.027 124.559 481.171 123.957 481.171C122.932 481.171 122.095 480.795 121.448 480.043C120.801 479.286 120.478 478.042 120.478 476.311C120.478 474.374 120.835 472.965 121.551 472.086C122.175 471.32 123.016 470.938 124.073 470.938C124.862 470.938 125.507 471.159 126.008 471.601C126.514 472.043 126.817 472.653 126.917 473.433ZM121.893 477.753C121.893 478.177 121.981 478.582 122.159 478.97C122.341 479.357 122.594 479.653 122.918 479.858C123.242 480.059 123.581 480.159 123.937 480.159C124.456 480.159 124.903 479.95 125.276 479.53C125.65 479.111 125.837 478.541 125.837 477.821C125.837 477.129 125.652 476.584 125.283 476.188C124.914 475.786 124.449 475.586 123.889 475.586C123.333 475.586 122.861 475.786 122.474 476.188C122.086 476.584 121.893 477.106 121.893 477.753ZM132.666 481V470.979H133.992V475.948L138.969 470.979H140.767L136.562 475.039L140.951 481H139.201L135.633 475.928L133.992 477.527V481H132.666ZM141.908 472.394V470.979H143.139V472.394H141.908ZM141.908 481V473.74H143.139V481H141.908ZM147.705 479.899L147.883 480.986C147.536 481.059 147.227 481.096 146.953 481.096C146.507 481.096 146.16 481.025 145.914 480.884C145.668 480.743 145.495 480.558 145.395 480.33C145.294 480.098 145.244 479.612 145.244 478.874V474.697H144.342V473.74H145.244V471.942L146.468 471.204V473.74H147.705V474.697H146.468V478.942C146.468 479.293 146.488 479.519 146.529 479.619C146.575 479.719 146.646 479.799 146.741 479.858C146.841 479.918 146.983 479.947 147.165 479.947C147.302 479.947 147.482 479.931 147.705 479.899Z" fill="#2699FB"/>
<path d="M70 20H40C34.4772 20 30 24.4772 30 30V60C30 65.5228 34.4772 70 40 70H70C75.5228 70 80 65.5228 80 60V30C80 24.4772 75.5228 20 70 20Z" fill="#FAFAFA"/>
<path d="M70 21H40C35.0294 21 31 25.0294 31 30V60C31 64.9706 35.0294 69 40 69H70C74.9706 69 79 64.9706 79 60V30C79 25.0294 74.9706 21 70 21Z" stroke="#2699FB" stroke-width="2"/>
<path d="M56 53L57.455 51.545L51.949 46.039H64V43.961H51.948L57.455 38.455L56 37L48 45L56 53Z" fill="#2699FB"/>
<defs>
<filter id="filter0_d" x="0" y="0" width="387" height="95" filterUnits="userSpaceOnUse" color-interpolation-filters="sRGB">
<feFlood flood-opacity="0" result="BackgroundImageFix"/>
<feColorMatrix in="SourceAlpha" type="matrix" values="0 0 0 0 0 0 0 0 0 0 0 0 0 0 0 0 0 0 127 0"/>
<feOffset dy="3"/>
<feGaussianBlur stdDeviation="3"/>
<feColorMatrix type="matrix" values="0 0 0 0 0 0 0 0 0 0 0 0 0 0 0 0 0 0 0.161 0"/>
<feBlend mode="normal" in2="BackgroundImageFix" result="effect1_dropShadow"/>
<feBlend mode="normal" in="SourceGraphic" in2="effect1_dropShadow" result="shape"/>
</filter>
<filter id="filter1_d" x="24" y="174" width="340" height="68" filterUnits="userSpaceOnUse" color-interpolation-filters="sRGB">
<feFlood flood-opacity="0" result="BackgroundImageFix"/>
<feColorMatrix in="SourceAlpha" type="matrix" values="0 0 0 0 0 0 0 0 0 0 0 0 0 0 0 0 0 0 127 0"/>
<feOffset dy="3"/>
<feGaussianBlur stdDeviation="3"/>
<feColorMatrix type="matrix" values="0 0 0 0 0 0 0 0 0 0 0 0 0 0 0 0 0 0 0.161 0"/>
<feBlend mode="normal" in2="BackgroundImageFix" result="effect1_dropShadow"/>
<feBlend mode="normal" in="SourceGraphic" in2="effect1_dropShadow" result="shape"/>
</filter>
</defs>
</svg>
