<svg width="387" height="815" viewBox="0 0 387 815" fill="none" xmlns="http://www.w3.org/2000/svg">
<path d="M381 3H6V815H381V3Z" fill="white"/>
<g filter="url(#filter0_d)">
<path d="M381 3H6V86H381V3Z" fill="white"/>
</g>
<path d="M65.7222 139V117.525H68.6372L79.9165 134.386V117.525H82.6411V139H79.7261L68.4468 122.125V139H65.7222ZM97.7437 133.99L100.468 134.327C100.039 135.919 99.2427 137.154 98.0806 138.033C96.9185 138.912 95.4341 139.352 93.6274 139.352C91.3521 139.352 89.5454 138.653 88.2075 137.257C86.8794 135.851 86.2153 133.883 86.2153 131.354C86.2153 128.736 86.8892 126.705 88.2368 125.26C89.5845 123.814 91.3325 123.092 93.481 123.092C95.561 123.092 97.2603 123.8 98.5786 125.216C99.897 126.632 100.556 128.624 100.556 131.192C100.556 131.349 100.551 131.583 100.542 131.896H88.9399C89.0376 133.604 89.521 134.913 90.3901 135.821C91.2593 136.729 92.3433 137.184 93.6421 137.184C94.6089 137.184 95.4341 136.93 96.1177 136.422C96.8013 135.914 97.3433 135.104 97.7437 133.99ZM89.0864 129.728H97.7729C97.6558 128.419 97.3237 127.438 96.7769 126.783C95.937 125.768 94.8481 125.26 93.5103 125.26C92.2993 125.26 91.2788 125.665 90.4487 126.476C89.6284 127.286 89.1743 128.37 89.0864 129.728ZM106.665 139L101.904 123.443H104.628L107.104 132.423L108.027 135.763C108.066 135.597 108.334 134.527 108.833 132.555L111.308 123.443H114.018L116.347 132.467L117.124 135.44L118.017 132.438L120.683 123.443H123.247L118.383 139H115.644L113.168 129.684L112.568 127.032L109.418 139H106.665ZM149.482 131.471L152.324 132.188C151.728 134.522 150.654 136.305 149.101 137.535C147.558 138.756 145.668 139.366 143.432 139.366C141.118 139.366 139.233 138.897 137.778 137.96C136.333 137.013 135.229 135.646 134.467 133.858C133.715 132.071 133.339 130.152 133.339 128.102C133.339 125.865 133.764 123.917 134.614 122.257C135.473 120.587 136.689 119.322 138.261 118.463C139.843 117.594 141.582 117.159 143.476 117.159C145.625 117.159 147.431 117.706 148.896 118.8C150.361 119.894 151.381 121.432 151.958 123.414L149.16 124.073C148.662 122.511 147.939 121.373 146.992 120.66C146.044 119.947 144.853 119.591 143.417 119.591C141.767 119.591 140.385 119.986 139.272 120.777C138.168 121.568 137.392 122.633 136.943 123.971C136.494 125.299 136.269 126.671 136.269 128.087C136.269 129.913 136.533 131.51 137.06 132.877C137.597 134.234 138.427 135.25 139.55 135.924C140.673 136.598 141.889 136.935 143.198 136.935C144.79 136.935 146.137 136.476 147.241 135.558C148.344 134.64 149.091 133.277 149.482 131.471ZM154.477 132.555V129.903H162.578V132.555H154.477ZM173.212 139V133.858H163.896V131.441L173.696 117.525H175.849V131.441H178.75V133.858H175.849V139H173.212ZM173.212 131.441V121.759L166.489 131.441H173.212ZM191.391 139H188.754V122.198C188.12 122.804 187.285 123.409 186.25 124.015C185.224 124.62 184.301 125.074 183.481 125.377V122.828C184.956 122.135 186.245 121.295 187.348 120.309C188.452 119.322 189.233 118.365 189.692 117.438H191.391V139ZM207.578 139V117.525H215.678C217.104 117.525 218.193 117.594 218.945 117.73C220 117.906 220.883 118.243 221.596 118.741C222.309 119.229 222.88 119.918 223.31 120.807C223.75 121.695 223.969 122.672 223.969 123.736C223.969 125.562 223.388 127.11 222.226 128.38C221.064 129.64 218.964 130.27 215.927 130.27H210.419V139H207.578ZM210.419 127.735H215.971C217.807 127.735 219.111 127.394 219.882 126.71C220.654 126.026 221.04 125.064 221.04 123.824C221.04 122.926 220.81 122.159 220.351 121.524C219.902 120.88 219.306 120.455 218.564 120.25C218.085 120.123 217.202 120.06 215.913 120.06H210.419V127.735ZM227.221 139V123.443H229.594V125.802C230.2 124.698 230.756 123.971 231.264 123.619C231.782 123.268 232.348 123.092 232.963 123.092C233.852 123.092 234.755 123.375 235.673 123.941L234.765 126.388C234.121 126.007 233.476 125.816 232.832 125.816C232.255 125.816 231.738 125.992 231.279 126.344C230.82 126.686 230.493 127.164 230.297 127.779C230.004 128.717 229.858 129.742 229.858 130.855V139H227.221ZM236.259 131.222C236.259 128.341 237.06 126.207 238.662 124.82C240 123.668 241.63 123.092 243.554 123.092C245.693 123.092 247.441 123.795 248.798 125.201C250.156 126.598 250.834 128.531 250.834 131.002C250.834 133.004 250.532 134.581 249.926 135.733C249.331 136.876 248.457 137.765 247.304 138.399C246.162 139.034 244.912 139.352 243.554 139.352C241.376 139.352 239.614 138.653 238.266 137.257C236.928 135.86 236.259 133.849 236.259 131.222ZM238.969 131.222C238.969 133.214 239.404 134.708 240.273 135.704C241.142 136.69 242.236 137.184 243.554 137.184C244.863 137.184 245.952 136.686 246.821 135.689C247.69 134.693 248.125 133.175 248.125 131.134C248.125 129.21 247.685 127.755 246.806 126.769C245.937 125.772 244.853 125.274 243.554 125.274C242.236 125.274 241.142 125.768 240.273 126.754C239.404 127.74 238.969 129.229 238.969 131.222ZM264.091 133.302L266.684 133.639C266.401 135.426 265.673 136.827 264.501 137.843C263.339 138.849 261.909 139.352 260.209 139.352C258.081 139.352 256.367 138.658 255.068 137.271C253.779 135.875 253.134 133.878 253.134 131.28C253.134 129.601 253.413 128.131 253.969 126.871C254.526 125.611 255.371 124.669 256.503 124.044C257.646 123.409 258.886 123.092 260.224 123.092C261.914 123.092 263.295 123.521 264.37 124.381C265.444 125.23 266.132 126.441 266.435 128.014L263.872 128.409C263.627 127.364 263.193 126.578 262.568 126.051C261.953 125.523 261.206 125.26 260.327 125.26C258.999 125.26 257.919 125.738 257.089 126.695C256.259 127.643 255.844 129.146 255.844 131.207C255.844 133.297 256.245 134.815 257.045 135.763C257.846 136.71 258.891 137.184 260.18 137.184C261.215 137.184 262.08 136.866 262.773 136.231C263.466 135.597 263.906 134.62 264.091 133.302ZM279.589 133.99L282.314 134.327C281.884 135.919 281.088 137.154 279.926 138.033C278.764 138.912 277.28 139.352 275.473 139.352C273.198 139.352 271.391 138.653 270.053 137.257C268.725 135.851 268.061 133.883 268.061 131.354C268.061 128.736 268.735 126.705 270.083 125.26C271.43 123.814 273.178 123.092 275.327 123.092C277.407 123.092 279.106 123.8 280.424 125.216C281.743 126.632 282.402 128.624 282.402 131.192C282.402 131.349 282.397 131.583 282.387 131.896H270.786C270.883 133.604 271.367 134.913 272.236 135.821C273.105 136.729 274.189 137.184 275.488 137.184C276.455 137.184 277.28 136.93 277.963 136.422C278.647 135.914 279.189 135.104 279.589 133.99ZM270.932 129.728H279.619C279.501 128.419 279.169 127.438 278.623 126.783C277.783 125.768 276.694 125.26 275.356 125.26C274.145 125.26 273.125 125.665 272.294 126.476C271.474 127.286 271.02 128.37 270.932 129.728ZM284.584 134.356L287.192 133.946C287.338 134.991 287.744 135.792 288.408 136.349C289.082 136.905 290.019 137.184 291.22 137.184C292.431 137.184 293.33 136.939 293.916 136.451C294.501 135.953 294.794 135.372 294.794 134.708C294.794 134.112 294.536 133.644 294.018 133.302C293.657 133.067 292.758 132.77 291.323 132.408C289.389 131.92 288.046 131.5 287.294 131.148C286.552 130.787 285.986 130.294 285.595 129.669C285.214 129.034 285.024 128.336 285.024 127.574C285.024 126.881 285.18 126.241 285.493 125.655C285.815 125.06 286.25 124.566 286.796 124.176C287.207 123.873 287.763 123.619 288.466 123.414C289.179 123.199 289.941 123.092 290.751 123.092C291.972 123.092 293.042 123.268 293.959 123.619C294.887 123.971 295.571 124.449 296.01 125.055C296.45 125.65 296.752 126.451 296.918 127.457L294.34 127.809C294.223 127.008 293.881 126.383 293.315 125.934C292.758 125.484 291.967 125.26 290.942 125.26C289.731 125.26 288.867 125.46 288.349 125.86C287.832 126.261 287.573 126.729 287.573 127.267C287.573 127.608 287.68 127.916 287.895 128.189C288.11 128.473 288.447 128.707 288.906 128.893C289.169 128.99 289.946 129.215 291.235 129.566C293.1 130.064 294.399 130.475 295.131 130.797C295.874 131.109 296.455 131.568 296.875 132.174C297.294 132.779 297.504 133.531 297.504 134.43C297.504 135.309 297.246 136.139 296.728 136.92C296.22 137.691 295.483 138.292 294.516 138.722C293.549 139.142 292.456 139.352 291.235 139.352C289.213 139.352 287.67 138.932 286.606 138.092C285.551 137.252 284.877 136.007 284.584 134.356ZM299.584 134.356L302.192 133.946C302.338 134.991 302.744 135.792 303.408 136.349C304.082 136.905 305.019 137.184 306.22 137.184C307.431 137.184 308.33 136.939 308.916 136.451C309.501 135.953 309.794 135.372 309.794 134.708C309.794 134.112 309.536 133.644 309.018 133.302C308.657 133.067 307.758 132.77 306.323 132.408C304.389 131.92 303.046 131.5 302.294 131.148C301.552 130.787 300.986 130.294 300.595 129.669C300.214 129.034 300.024 128.336 300.024 127.574C300.024 126.881 300.18 126.241 300.493 125.655C300.815 125.06 301.25 124.566 301.796 124.176C302.207 123.873 302.763 123.619 303.466 123.414C304.179 123.199 304.941 123.092 305.751 123.092C306.972 123.092 308.042 123.268 308.959 123.619C309.887 123.971 310.571 124.449 311.01 125.055C311.45 125.65 311.752 126.451 311.918 127.457L309.34 127.809C309.223 127.008 308.881 126.383 308.315 125.934C307.758 125.484 306.967 125.26 305.942 125.26C304.731 125.26 303.867 125.46 303.349 125.86C302.832 126.261 302.573 126.729 302.573 127.267C302.573 127.608 302.68 127.916 302.895 128.189C303.11 128.473 303.447 128.707 303.906 128.893C304.169 128.99 304.946 129.215 306.235 129.566C308.1 130.064 309.399 130.475 310.131 130.797C310.874 131.109 311.455 131.568 311.875 132.174C312.294 132.779 312.504 133.531 312.504 134.43C312.504 135.309 312.246 136.139 311.728 136.92C311.22 137.691 310.483 138.292 309.516 138.722C308.549 139.142 307.456 139.352 306.235 139.352C304.213 139.352 302.67 138.932 301.606 138.092C300.551 137.252 299.877 136.007 299.584 134.356Z" fill="#2699FB"/>
<g filter="url(#filter1_d)">
<path d="M358 177H30V233H358V177Z" fill="white"/>
</g>
<path d="M358 252H30V302H358V252Z" fill="white"/>
<path d="M357.5 252.5H30.5V301.5H357.5V252.5Z" stroke="#BCE0FD"/>
<path d="M50.6289 277.78L51.8799 277.671C51.9391 278.172 52.0758 278.585 52.29 278.908C52.5088 279.227 52.846 279.487 53.3018 279.688C53.7575 279.883 54.2702 279.981 54.8398 279.981C55.3457 279.981 55.7923 279.906 56.1797 279.756C56.5671 279.605 56.8542 279.4 57.041 279.141C57.2324 278.876 57.3281 278.589 57.3281 278.279C57.3281 277.965 57.237 277.691 57.0547 277.459C56.8724 277.222 56.5716 277.024 56.1523 276.864C55.8835 276.759 55.2887 276.598 54.3682 276.379C53.4476 276.156 52.8027 275.946 52.4336 275.75C51.9551 275.499 51.5973 275.189 51.3604 274.82C51.1279 274.447 51.0117 274.03 51.0117 273.569C51.0117 273.063 51.1553 272.592 51.4424 272.154C51.7295 271.712 52.1488 271.377 52.7002 271.149C53.2516 270.922 53.8646 270.808 54.5391 270.808C55.2819 270.808 55.9359 270.928 56.501 271.17C57.0706 271.407 57.5081 271.758 57.8135 272.223C58.1188 272.688 58.2829 273.214 58.3057 273.802L57.0342 273.897C56.9658 273.264 56.7334 272.785 56.3369 272.462C55.945 272.138 55.3639 271.977 54.5938 271.977C53.7917 271.977 53.2061 272.125 52.8369 272.421C52.4723 272.713 52.29 273.066 52.29 273.48C52.29 273.84 52.4199 274.137 52.6797 274.369C52.9349 274.602 53.6003 274.841 54.6758 275.087C55.7559 275.328 56.4964 275.54 56.8975 275.723C57.4808 275.992 57.9115 276.333 58.1895 276.748C58.4674 277.158 58.6064 277.632 58.6064 278.17C58.6064 278.703 58.4538 279.207 58.1484 279.681C57.8431 280.15 57.4033 280.517 56.8291 280.781C56.2594 281.041 55.6169 281.171 54.9014 281.171C53.9945 281.171 53.2334 281.039 52.6182 280.774C52.0075 280.51 51.5267 280.114 51.1758 279.585C50.8294 279.052 50.6471 278.45 50.6289 277.78ZM65.2305 278.662L66.502 278.819C66.3014 279.562 65.93 280.139 65.3877 280.549C64.8454 280.959 64.1527 281.164 63.3096 281.164C62.2477 281.164 61.4046 280.838 60.7803 280.187C60.1605 279.53 59.8506 278.612 59.8506 277.432C59.8506 276.21 60.165 275.262 60.7939 274.588C61.4229 273.913 62.2386 273.576 63.2412 273.576C64.2119 273.576 65.0049 273.907 65.6201 274.567C66.2354 275.228 66.543 276.158 66.543 277.356C66.543 277.429 66.5407 277.539 66.5361 277.685H61.1221C61.1676 278.482 61.3932 279.093 61.7988 279.517C62.2044 279.94 62.7103 280.152 63.3164 280.152C63.7676 280.152 64.1527 280.034 64.4717 279.797C64.7907 279.56 65.0436 279.182 65.2305 278.662ZM61.1904 276.673H65.2441C65.1895 276.062 65.0345 275.604 64.7793 275.299C64.3874 274.825 63.8792 274.588 63.2549 274.588C62.6898 274.588 62.2135 274.777 61.8262 275.155C61.4434 275.534 61.2314 276.039 61.1904 276.673ZM68.0264 281V270.979H69.2568V281H68.0264ZM76.1406 278.662L77.4121 278.819C77.2116 279.562 76.8402 280.139 76.2979 280.549C75.7555 280.959 75.0628 281.164 74.2197 281.164C73.1579 281.164 72.3148 280.838 71.6904 280.187C71.0706 279.53 70.7607 278.612 70.7607 277.432C70.7607 276.21 71.0752 275.262 71.7041 274.588C72.333 273.913 73.1488 273.576 74.1514 273.576C75.1221 273.576 75.915 273.907 76.5303 274.567C77.1455 275.228 77.4531 276.158 77.4531 277.356C77.4531 277.429 77.4508 277.539 77.4463 277.685H72.0322C72.0778 278.482 72.3034 279.093 72.709 279.517C73.1146 279.94 73.6204 280.152 74.2266 280.152C74.6777 280.152 75.0628 280.034 75.3818 279.797C75.7008 279.56 75.9538 279.182 76.1406 278.662ZM72.1006 276.673H76.1543C76.0996 276.062 75.9447 275.604 75.6895 275.299C75.2975 274.825 74.7894 274.588 74.165 274.588C73.5999 274.588 73.1237 274.777 72.7363 275.155C72.3535 275.534 72.1416 276.039 72.1006 276.673ZM83.7012 278.341L84.9111 278.498C84.779 279.332 84.4395 279.986 83.8926 280.46C83.3503 280.929 82.6826 281.164 81.8896 281.164C80.8962 281.164 80.0964 280.84 79.4902 280.193C78.8887 279.542 78.5879 278.61 78.5879 277.397C78.5879 276.614 78.7178 275.928 78.9775 275.34C79.2373 274.752 79.6315 274.312 80.1602 274.021C80.6934 273.724 81.2721 273.576 81.8965 273.576C82.6849 273.576 83.3298 273.777 83.8311 274.178C84.3324 274.574 84.6536 275.139 84.7949 275.873L83.5986 276.058C83.4847 275.57 83.2819 275.203 82.9902 274.957C82.7031 274.711 82.3545 274.588 81.9443 274.588C81.3245 274.588 80.821 274.811 80.4336 275.258C80.0462 275.7 79.8525 276.402 79.8525 277.363C79.8525 278.339 80.0394 279.047 80.4131 279.489C80.7868 279.931 81.2744 280.152 81.876 280.152C82.359 280.152 82.7624 280.004 83.0859 279.708C83.4095 279.412 83.6146 278.956 83.7012 278.341ZM88.6504 279.899L88.8281 280.986C88.4818 281.059 88.1719 281.096 87.8984 281.096C87.4518 281.096 87.1055 281.025 86.8594 280.884C86.6133 280.743 86.4401 280.558 86.3398 280.33C86.2396 280.098 86.1895 279.612 86.1895 278.874V274.697H85.2871V273.74H86.1895V271.942L87.4131 271.204V273.74H88.6504V274.697H87.4131V278.942C87.4131 279.293 87.4336 279.519 87.4746 279.619C87.5202 279.719 87.5908 279.799 87.6865 279.858C87.7868 279.918 87.9281 279.947 88.1104 279.947C88.2471 279.947 88.4271 279.931 88.6504 279.899ZM98.4941 280.104C98.0384 280.492 97.5986 280.765 97.1748 280.925C96.7555 281.084 96.3044 281.164 95.8213 281.164C95.0238 281.164 94.4108 280.97 93.9824 280.583C93.554 280.191 93.3398 279.692 93.3398 279.086C93.3398 278.73 93.4196 278.407 93.5791 278.115C93.7432 277.819 93.9551 277.582 94.2148 277.404C94.4792 277.227 94.7754 277.092 95.1035 277.001C95.3451 276.937 95.7096 276.876 96.1973 276.816C97.1908 276.698 97.9222 276.557 98.3916 276.393C98.3962 276.224 98.3984 276.117 98.3984 276.071C98.3984 275.57 98.2822 275.217 98.0498 275.012C97.7354 274.734 97.2682 274.595 96.6484 274.595C96.0697 274.595 95.6413 274.697 95.3633 274.902C95.0898 275.103 94.887 275.461 94.7549 275.976L93.5518 275.812C93.6611 275.297 93.8411 274.882 94.0918 274.567C94.3424 274.248 94.7048 274.005 95.1787 273.836C95.6527 273.663 96.2018 273.576 96.8262 273.576C97.446 273.576 97.9495 273.649 98.3369 273.795C98.7243 273.941 99.0091 274.125 99.1914 274.349C99.3737 274.567 99.5013 274.845 99.5742 275.183C99.6152 275.392 99.6357 275.771 99.6357 276.317V277.958C99.6357 279.102 99.6608 279.826 99.7109 280.132C99.7656 280.433 99.8704 280.722 100.025 281H98.7402C98.6126 280.745 98.5306 280.446 98.4941 280.104ZM98.3916 277.356C97.945 277.539 97.2751 277.694 96.3818 277.821C95.876 277.894 95.5182 277.976 95.3086 278.067C95.099 278.159 94.9372 278.293 94.8232 278.471C94.7093 278.644 94.6523 278.838 94.6523 279.052C94.6523 279.38 94.7754 279.653 95.0215 279.872C95.2721 280.091 95.6367 280.2 96.1152 280.2C96.5892 280.2 97.0107 280.098 97.3799 279.893C97.749 279.683 98.0202 279.398 98.1934 279.038C98.3255 278.76 98.3916 278.35 98.3916 277.808V277.356ZM106.581 281H105.439V270.979H106.67V274.554C107.189 273.902 107.853 273.576 108.659 273.576C109.106 273.576 109.527 273.667 109.924 273.85C110.325 274.027 110.653 274.28 110.908 274.608C111.168 274.932 111.371 275.324 111.517 275.784C111.662 276.244 111.735 276.737 111.735 277.261C111.735 278.505 111.428 279.466 110.812 280.146C110.197 280.825 109.459 281.164 108.598 281.164C107.741 281.164 107.069 280.806 106.581 280.091V281ZM106.567 277.315C106.567 278.186 106.686 278.815 106.923 279.202C107.31 279.836 107.834 280.152 108.495 280.152C109.033 280.152 109.498 279.92 109.89 279.455C110.282 278.986 110.478 278.288 110.478 277.363C110.478 276.415 110.288 275.716 109.91 275.265C109.536 274.813 109.083 274.588 108.55 274.588C108.012 274.588 107.547 274.823 107.155 275.292C106.763 275.757 106.567 276.431 106.567 277.315ZM113.226 281V273.74H114.333V274.841C114.616 274.326 114.875 273.986 115.112 273.822C115.354 273.658 115.618 273.576 115.905 273.576C116.32 273.576 116.742 273.708 117.17 273.973L116.746 275.114C116.445 274.937 116.145 274.848 115.844 274.848C115.575 274.848 115.333 274.93 115.119 275.094C114.905 275.253 114.752 275.477 114.661 275.764C114.524 276.201 114.456 276.68 114.456 277.199V281H113.226ZM122.639 280.104C122.183 280.492 121.743 280.765 121.319 280.925C120.9 281.084 120.449 281.164 119.966 281.164C119.168 281.164 118.555 280.97 118.127 280.583C117.699 280.191 117.484 279.692 117.484 279.086C117.484 278.73 117.564 278.407 117.724 278.115C117.888 277.819 118.1 277.582 118.359 277.404C118.624 277.227 118.92 277.092 119.248 277.001C119.49 276.937 119.854 276.876 120.342 276.816C121.335 276.698 122.067 276.557 122.536 276.393C122.541 276.224 122.543 276.117 122.543 276.071C122.543 275.57 122.427 275.217 122.194 275.012C121.88 274.734 121.413 274.595 120.793 274.595C120.214 274.595 119.786 274.697 119.508 274.902C119.234 275.103 119.032 275.461 118.899 275.976L117.696 275.812C117.806 275.297 117.986 274.882 118.236 274.567C118.487 274.248 118.849 274.005 119.323 273.836C119.797 273.663 120.346 273.576 120.971 273.576C121.59 273.576 122.094 273.649 122.481 273.795C122.869 273.941 123.154 274.125 123.336 274.349C123.518 274.567 123.646 274.845 123.719 275.183C123.76 275.392 123.78 275.771 123.78 276.317V277.958C123.78 279.102 123.805 279.826 123.855 280.132C123.91 280.433 124.015 280.722 124.17 281H122.885C122.757 280.745 122.675 280.446 122.639 280.104ZM122.536 277.356C122.09 277.539 121.42 277.694 120.526 277.821C120.021 277.894 119.663 277.976 119.453 278.067C119.243 278.159 119.082 278.293 118.968 278.471C118.854 278.644 118.797 278.838 118.797 279.052C118.797 279.38 118.92 279.653 119.166 279.872C119.417 280.091 119.781 280.2 120.26 280.2C120.734 280.2 121.155 280.098 121.524 279.893C121.894 279.683 122.165 279.398 122.338 279.038C122.47 278.76 122.536 278.35 122.536 277.808V277.356ZM125.694 281V273.74H126.802V274.772C127.335 273.975 128.105 273.576 129.112 273.576C129.55 273.576 129.951 273.656 130.315 273.815C130.685 273.97 130.96 274.175 131.143 274.431C131.325 274.686 131.452 274.989 131.525 275.34C131.571 275.568 131.594 275.966 131.594 276.536V281H130.363V276.584C130.363 276.083 130.315 275.709 130.22 275.463C130.124 275.212 129.953 275.014 129.707 274.868C129.465 274.718 129.181 274.643 128.853 274.643C128.328 274.643 127.875 274.809 127.492 275.142C127.114 275.474 126.925 276.105 126.925 277.035V281H125.694ZM138.197 281V280.084C137.737 280.804 137.06 281.164 136.167 281.164C135.588 281.164 135.055 281.005 134.567 280.686C134.084 280.367 133.708 279.922 133.439 279.353C133.175 278.778 133.043 278.12 133.043 277.377C133.043 276.652 133.164 275.996 133.405 275.408C133.647 274.816 134.009 274.362 134.492 274.048C134.975 273.733 135.515 273.576 136.112 273.576C136.55 273.576 136.939 273.67 137.281 273.856C137.623 274.039 137.901 274.278 138.115 274.574V270.979H139.339V281H138.197ZM134.308 277.377C134.308 278.307 134.504 279.002 134.896 279.462C135.287 279.922 135.75 280.152 136.283 280.152C136.821 280.152 137.277 279.934 137.65 279.496C138.029 279.054 138.218 278.382 138.218 277.479C138.218 276.486 138.026 275.757 137.644 275.292C137.261 274.827 136.789 274.595 136.229 274.595C135.682 274.595 135.224 274.818 134.854 275.265C134.49 275.711 134.308 276.415 134.308 277.377Z" fill="#2699FB"/>
<path d="M331.7 280.101L327 275.401L328.4 274.001L331.7 277.301L335 274.001L336.4 275.401L331.7 280.101Z" fill="#2699FB"/>
<path d="M134.64 205.98L136.534 206.459C136.137 208.015 135.421 209.203 134.386 210.023C133.357 210.837 132.098 211.244 130.607 211.244C129.064 211.244 127.807 210.932 126.837 210.307C125.874 209.675 125.138 208.764 124.63 207.572C124.129 206.381 123.878 205.102 123.878 203.734C123.878 202.243 124.161 200.945 124.728 199.838C125.301 198.725 126.111 197.882 127.159 197.309C128.214 196.729 129.373 196.439 130.636 196.439C132.068 196.439 133.273 196.804 134.249 197.533C135.226 198.262 135.906 199.288 136.29 200.609L134.425 201.049C134.093 200.007 133.611 199.249 132.98 198.773C132.348 198.298 131.554 198.061 130.597 198.061C129.497 198.061 128.575 198.324 127.833 198.852C127.098 199.379 126.58 200.089 126.281 200.98C125.981 201.866 125.831 202.781 125.831 203.725C125.831 204.942 126.007 206.007 126.359 206.918C126.717 207.823 127.27 208.5 128.019 208.949C128.767 209.398 129.578 209.623 130.45 209.623C131.512 209.623 132.41 209.317 133.146 208.705C133.881 208.093 134.379 207.185 134.64 205.98ZM145.45 211V209.477C144.643 210.648 143.546 211.234 142.159 211.234C141.547 211.234 140.975 211.117 140.441 210.883C139.913 210.648 139.519 210.355 139.259 210.004C139.005 209.646 138.826 209.21 138.722 208.695C138.65 208.35 138.615 207.803 138.615 207.055V200.629H140.372V206.381C140.372 207.299 140.408 207.917 140.48 208.236C140.59 208.699 140.825 209.063 141.183 209.33C141.541 209.59 141.984 209.721 142.511 209.721C143.038 209.721 143.533 209.587 143.995 209.32C144.458 209.047 144.783 208.679 144.972 208.217C145.167 207.748 145.265 207.071 145.265 206.186V200.629H147.023V211H145.45ZM149.083 207.904L150.822 207.631C150.919 208.327 151.189 208.861 151.632 209.232C152.081 209.604 152.706 209.789 153.507 209.789C154.314 209.789 154.913 209.626 155.304 209.301C155.695 208.969 155.89 208.581 155.89 208.139C155.89 207.742 155.717 207.429 155.372 207.201C155.131 207.045 154.532 206.846 153.575 206.605C152.286 206.28 151.391 206 150.89 205.766C150.395 205.525 150.017 205.196 149.757 204.779C149.503 204.356 149.376 203.891 149.376 203.383C149.376 202.921 149.48 202.494 149.689 202.104C149.904 201.706 150.193 201.378 150.558 201.117C150.831 200.915 151.202 200.746 151.671 200.609C152.146 200.466 152.654 200.395 153.195 200.395C154.008 200.395 154.721 200.512 155.333 200.746C155.952 200.98 156.407 201.299 156.7 201.703C156.993 202.1 157.195 202.634 157.306 203.305L155.587 203.539C155.509 203.005 155.281 202.589 154.904 202.289C154.532 201.99 154.005 201.84 153.322 201.84C152.514 201.84 151.938 201.973 151.593 202.24C151.248 202.507 151.075 202.82 151.075 203.178C151.075 203.406 151.147 203.611 151.29 203.793C151.434 203.982 151.658 204.138 151.964 204.262C152.14 204.327 152.657 204.477 153.517 204.711C154.76 205.043 155.626 205.316 156.115 205.531C156.609 205.74 156.997 206.046 157.277 206.449C157.557 206.853 157.697 207.354 157.697 207.953C157.697 208.539 157.524 209.092 157.179 209.613C156.84 210.128 156.349 210.528 155.704 210.814C155.06 211.094 154.331 211.234 153.517 211.234C152.169 211.234 151.141 210.954 150.431 210.395C149.728 209.835 149.279 209.005 149.083 207.904ZM163.624 209.428L163.878 210.98C163.383 211.085 162.941 211.137 162.55 211.137C161.912 211.137 161.417 211.036 161.066 210.834C160.714 210.632 160.467 210.368 160.323 210.043C160.18 209.711 160.109 209.018 160.109 207.963V201.996H158.82V200.629H160.109V198.061L161.857 197.006V200.629H163.624V201.996H161.857V208.061C161.857 208.562 161.886 208.884 161.945 209.027C162.01 209.171 162.111 209.285 162.247 209.369C162.391 209.454 162.592 209.496 162.853 209.496C163.048 209.496 163.305 209.473 163.624 209.428ZM164.698 205.814C164.698 203.894 165.232 202.471 166.3 201.547C167.192 200.779 168.279 200.395 169.562 200.395C170.988 200.395 172.153 200.863 173.058 201.801C173.963 202.732 174.415 204.021 174.415 205.668C174.415 207.003 174.213 208.054 173.81 208.822C173.413 209.584 172.83 210.176 172.062 210.6C171.3 211.023 170.467 211.234 169.562 211.234C168.11 211.234 166.935 210.769 166.036 209.838C165.144 208.907 164.698 207.566 164.698 205.814ZM166.505 205.814C166.505 207.143 166.795 208.139 167.374 208.803C167.954 209.46 168.683 209.789 169.562 209.789C170.434 209.789 171.16 209.457 171.74 208.793C172.319 208.129 172.609 207.117 172.609 205.756C172.609 204.473 172.316 203.503 171.73 202.846C171.15 202.182 170.428 201.85 169.562 201.85C168.683 201.85 167.954 202.178 167.374 202.836C166.795 203.493 166.505 204.486 166.505 205.814ZM176.486 211V200.629H178.058V202.084C178.383 201.576 178.816 201.169 179.357 200.863C179.897 200.551 180.512 200.395 181.202 200.395C181.971 200.395 182.599 200.554 183.087 200.873C183.582 201.192 183.93 201.638 184.132 202.211C184.952 201 186.02 200.395 187.335 200.395C188.364 200.395 189.155 200.681 189.708 201.254C190.262 201.82 190.538 202.696 190.538 203.881V211H188.79V204.467C188.79 203.764 188.732 203.259 188.615 202.953C188.504 202.641 188.299 202.39 187.999 202.201C187.7 202.012 187.348 201.918 186.945 201.918C186.215 201.918 185.61 202.162 185.128 202.65C184.646 203.132 184.406 203.907 184.406 204.975V211H182.648V204.262C182.648 203.48 182.504 202.895 182.218 202.504C181.932 202.113 181.463 201.918 180.812 201.918C180.317 201.918 179.858 202.048 179.435 202.309C179.018 202.569 178.715 202.95 178.527 203.451C178.338 203.952 178.243 204.675 178.243 205.619V211H176.486ZM198.937 211V196.684H204.337C205.288 196.684 206.014 196.729 206.515 196.82C207.218 196.938 207.807 197.162 208.282 197.494C208.758 197.82 209.139 198.279 209.425 198.871C209.718 199.464 209.865 200.115 209.865 200.824C209.865 202.042 209.477 203.074 208.702 203.92C207.928 204.76 206.528 205.18 204.503 205.18H200.831V211H198.937ZM200.831 203.49H204.532C205.756 203.49 206.626 203.262 207.14 202.807C207.654 202.351 207.911 201.71 207.911 200.883C207.911 200.284 207.758 199.773 207.452 199.35C207.153 198.92 206.756 198.637 206.261 198.5C205.942 198.415 205.353 198.373 204.493 198.373H200.831V203.49ZM212.032 211V200.629H213.615V202.201C214.018 201.465 214.389 200.98 214.728 200.746C215.073 200.512 215.45 200.395 215.861 200.395C216.453 200.395 217.055 200.583 217.667 200.961L217.062 202.592C216.632 202.338 216.202 202.211 215.773 202.211C215.389 202.211 215.044 202.328 214.738 202.562C214.432 202.79 214.213 203.109 214.083 203.52C213.888 204.145 213.79 204.828 213.79 205.57V211H212.032ZM218.058 205.814C218.058 203.894 218.592 202.471 219.659 201.547C220.551 200.779 221.639 200.395 222.921 200.395C224.347 200.395 225.512 200.863 226.417 201.801C227.322 202.732 227.775 204.021 227.775 205.668C227.775 207.003 227.573 208.054 227.169 208.822C226.772 209.584 226.189 210.176 225.421 210.6C224.659 211.023 223.826 211.234 222.921 211.234C221.469 211.234 220.294 210.769 219.396 209.838C218.504 208.907 218.058 207.566 218.058 205.814ZM219.865 205.814C219.865 207.143 220.154 208.139 220.734 208.803C221.313 209.46 222.042 209.789 222.921 209.789C223.794 209.789 224.519 209.457 225.099 208.793C225.678 208.129 225.968 207.117 225.968 205.756C225.968 204.473 225.675 203.503 225.089 202.846C224.51 202.182 223.787 201.85 222.921 201.85C222.042 201.85 221.313 202.178 220.734 202.836C220.154 203.493 219.865 204.486 219.865 205.814ZM230.265 211V201.996H228.712V200.629H230.265V199.525C230.265 198.829 230.327 198.311 230.45 197.973C230.62 197.517 230.916 197.149 231.339 196.869C231.769 196.583 232.368 196.439 233.136 196.439C233.631 196.439 234.178 196.498 234.777 196.615L234.513 198.148C234.148 198.083 233.803 198.051 233.478 198.051C232.944 198.051 232.566 198.165 232.345 198.393C232.124 198.62 232.013 199.047 232.013 199.672V200.629H234.034V201.996H232.013V211H230.265ZM235.421 198.705V196.684H237.179V198.705H235.421ZM235.421 211V200.629H237.179V211H235.421ZM239.825 211V196.684H241.583V211H239.825ZM251.417 207.66L253.234 207.885C252.947 208.946 252.417 209.77 251.642 210.355C250.867 210.941 249.878 211.234 248.673 211.234C247.156 211.234 245.952 210.769 245.06 209.838C244.174 208.9 243.732 207.589 243.732 205.902C243.732 204.158 244.181 202.803 245.079 201.84C245.978 200.876 247.143 200.395 248.575 200.395C249.962 200.395 251.095 200.867 251.974 201.811C252.853 202.755 253.292 204.083 253.292 205.795C253.292 205.899 253.289 206.055 253.282 206.264H245.548C245.613 207.403 245.935 208.275 246.515 208.881C247.094 209.486 247.817 209.789 248.683 209.789C249.327 209.789 249.878 209.62 250.333 209.281C250.789 208.943 251.15 208.402 251.417 207.66ZM245.646 204.818H251.437C251.359 203.946 251.137 203.292 250.773 202.855C250.213 202.178 249.487 201.84 248.595 201.84C247.788 201.84 247.107 202.11 246.554 202.65C246.007 203.191 245.704 203.913 245.646 204.818Z" fill="#2699FB"/>
<path d="M69 19H39C33.4772 19 29 23.4772 29 29V59C29 64.5228 33.4772 69 39 69H69C74.5228 69 79 64.5228 79 59V29C79 23.4772 74.5228 19 69 19Z" fill="#FAFAFA"/>
<path d="M69 20H39C34.0294 20 30 24.0294 30 29V59C30 63.9706 34.0294 68 39 68H69C73.9706 68 78 63.9706 78 59V29C78 24.0294 73.9706 20 69 20Z" stroke="#2699FB" stroke-width="2"/>
<path d="M55 52L56.455 50.545L50.949 45.039H63V42.961H50.948L56.455 37.455L55 36L47 44L55 52Z" fill="#2699FB"/>
<path d="M58.7695 327.069V325.894L63.0146 325.887V329.605C62.363 330.125 61.6908 330.517 60.998 330.781C60.3053 331.041 59.5944 331.171 58.8652 331.171C57.8809 331.171 56.9854 330.961 56.1787 330.542C55.3766 330.118 54.7705 329.507 54.3604 328.71C53.9502 327.912 53.7451 327.021 53.7451 326.037C53.7451 325.062 53.9479 324.153 54.3535 323.31C54.7637 322.462 55.3516 321.833 56.1172 321.423C56.8828 321.013 57.7646 320.808 58.7627 320.808C59.4873 320.808 60.1413 320.926 60.7246 321.163C61.3125 321.396 61.7728 321.721 62.1055 322.141C62.4382 322.56 62.6911 323.107 62.8643 323.781L61.668 324.109C61.5176 323.599 61.3307 323.198 61.1074 322.906C60.8841 322.615 60.5651 322.382 60.1504 322.209C59.7357 322.031 59.2754 321.942 58.7695 321.942C58.1634 321.942 57.6393 322.036 57.1973 322.223C56.7552 322.405 56.3975 322.646 56.124 322.947C55.8551 323.248 55.6455 323.578 55.4951 323.938C55.2399 324.558 55.1123 325.23 55.1123 325.955C55.1123 326.848 55.265 327.596 55.5703 328.197C55.8802 328.799 56.3291 329.245 56.917 329.537C57.5049 329.829 58.1292 329.975 58.79 329.975C59.3643 329.975 59.9248 329.865 60.4717 329.646C61.0186 329.423 61.4333 329.186 61.7158 328.936V327.069H58.7695ZM69.7891 328.662L71.0605 328.819C70.86 329.562 70.4886 330.139 69.9463 330.549C69.404 330.959 68.7113 331.164 67.8682 331.164C66.8063 331.164 65.9632 330.838 65.3389 330.187C64.7191 329.53 64.4092 328.612 64.4092 327.432C64.4092 326.21 64.7236 325.262 65.3525 324.588C65.9814 323.913 66.7972 323.576 67.7998 323.576C68.7705 323.576 69.5635 323.907 70.1787 324.567C70.7939 325.228 71.1016 326.158 71.1016 327.356C71.1016 327.429 71.0993 327.539 71.0947 327.685H65.6807C65.7262 328.482 65.9518 329.093 66.3574 329.517C66.763 329.94 67.2689 330.152 67.875 330.152C68.3262 330.152 68.7113 330.034 69.0303 329.797C69.3493 329.56 69.6022 329.182 69.7891 328.662ZM65.749 326.673H69.8027C69.748 326.062 69.5931 325.604 69.3379 325.299C68.946 324.825 68.4378 324.588 67.8135 324.588C67.2484 324.588 66.7721 324.777 66.3848 325.155C66.002 325.534 65.79 326.039 65.749 326.673ZM72.6123 331V323.74H73.7197V324.772C74.2529 323.975 75.0231 323.576 76.0303 323.576C76.4678 323.576 76.8688 323.656 77.2334 323.815C77.6025 323.97 77.8783 324.175 78.0605 324.431C78.2428 324.686 78.3704 324.989 78.4434 325.34C78.4889 325.568 78.5117 325.966 78.5117 326.536V331H77.2812V326.584C77.2812 326.083 77.2334 325.709 77.1377 325.463C77.042 325.212 76.8711 325.014 76.625 324.868C76.3835 324.718 76.0986 324.643 75.7705 324.643C75.2464 324.643 74.793 324.809 74.4102 325.142C74.0319 325.474 73.8428 326.105 73.8428 327.035V331H72.6123ZM85.375 328.662L86.6465 328.819C86.446 329.562 86.0745 330.139 85.5322 330.549C84.9899 330.959 84.2972 331.164 83.4541 331.164C82.3923 331.164 81.5492 330.838 80.9248 330.187C80.305 329.53 79.9951 328.612 79.9951 327.432C79.9951 326.21 80.3096 325.262 80.9385 324.588C81.5674 323.913 82.3831 323.576 83.3857 323.576C84.3564 323.576 85.1494 323.907 85.7646 324.567C86.3799 325.228 86.6875 326.158 86.6875 327.356C86.6875 327.429 86.6852 327.539 86.6807 327.685H81.2666C81.3122 328.482 81.5378 329.093 81.9434 329.517C82.349 329.94 82.8548 330.152 83.4609 330.152C83.9121 330.152 84.2972 330.034 84.6162 329.797C84.9352 329.56 85.1882 329.182 85.375 328.662ZM81.335 326.673H85.3887C85.334 326.062 85.179 325.604 84.9238 325.299C84.5319 324.825 84.0238 324.588 83.3994 324.588C82.8343 324.588 82.3581 324.777 81.9707 325.155C81.5879 325.534 81.376 326.039 81.335 326.673ZM88.1846 331V323.74H89.292V324.841C89.5745 324.326 89.8343 323.986 90.0713 323.822C90.3128 323.658 90.5771 323.576 90.8643 323.576C91.279 323.576 91.7005 323.708 92.1289 323.973L91.7051 325.114C91.4043 324.937 91.1035 324.848 90.8027 324.848C90.5339 324.848 90.2923 324.93 90.0781 325.094C89.8639 325.253 89.7113 325.477 89.6201 325.764C89.4834 326.201 89.415 326.68 89.415 327.199V331H88.1846ZM92.8672 322.394V320.979H94.0977V322.394H92.8672ZM92.8672 331V323.74H94.0977V331H92.8672ZM100.715 328.341L101.925 328.498C101.793 329.332 101.453 329.986 100.906 330.46C100.364 330.929 99.6963 331.164 98.9033 331.164C97.9098 331.164 97.11 330.84 96.5039 330.193C95.9023 329.542 95.6016 328.61 95.6016 327.397C95.6016 326.614 95.7314 325.928 95.9912 325.34C96.251 324.752 96.6452 324.312 97.1738 324.021C97.707 323.724 98.2858 323.576 98.9102 323.576C99.6986 323.576 100.343 323.777 100.845 324.178C101.346 324.574 101.667 325.139 101.809 325.873L100.612 326.058C100.498 325.57 100.296 325.203 100.004 324.957C99.7168 324.711 99.3682 324.588 98.958 324.588C98.3382 324.588 97.8346 324.811 97.4473 325.258C97.0599 325.7 96.8662 326.402 96.8662 327.363C96.8662 328.339 97.0531 329.047 97.4268 329.489C97.8005 329.931 98.2881 330.152 98.8896 330.152C99.3727 330.152 99.776 330.004 100.1 329.708C100.423 329.412 100.628 328.956 100.715 328.341ZM114.182 327.486L115.508 327.821C115.23 328.91 114.729 329.742 114.004 330.316C113.284 330.886 112.402 331.171 111.358 331.171C110.278 331.171 109.399 330.952 108.72 330.515C108.045 330.073 107.53 329.435 107.175 328.601C106.824 327.767 106.648 326.871 106.648 325.914C106.648 324.87 106.847 323.961 107.243 323.187C107.644 322.407 108.212 321.817 108.945 321.416C109.684 321.01 110.495 320.808 111.379 320.808C112.382 320.808 113.225 321.063 113.908 321.573C114.592 322.084 115.068 322.801 115.337 323.727L114.031 324.034C113.799 323.305 113.462 322.774 113.02 322.441C112.577 322.109 112.021 321.942 111.352 321.942C110.581 321.942 109.937 322.127 109.417 322.496C108.902 322.865 108.54 323.362 108.33 323.986C108.12 324.606 108.016 325.246 108.016 325.907C108.016 326.759 108.139 327.505 108.385 328.143C108.635 328.776 109.023 329.25 109.547 329.564C110.071 329.879 110.638 330.036 111.249 330.036C111.992 330.036 112.621 329.822 113.136 329.394C113.651 328.965 113.999 328.329 114.182 327.486ZM116.513 327.992V326.755H120.293V327.992H116.513ZM125.256 331V328.601H120.908V327.473L125.481 320.979H126.486V327.473H127.84V328.601H126.486V331H125.256ZM125.256 327.473V322.954L122.118 327.473H125.256ZM133.739 331H132.509V323.159C132.213 323.442 131.823 323.724 131.34 324.007C130.861 324.289 130.431 324.501 130.048 324.643V323.453C130.736 323.13 131.338 322.738 131.853 322.277C132.368 321.817 132.732 321.37 132.946 320.938H133.739V331Z" fill="#2699FB"/>
<path d="M52.9795 361L56.8281 350.979H58.2568L62.3584 361H60.8477L59.6787 357.965H55.4883L54.3877 361H52.9795ZM55.8711 356.885H59.2686L58.2227 354.109C57.9036 353.266 57.6667 352.574 57.5117 352.031C57.3841 352.674 57.2041 353.312 56.9717 353.945L55.8711 356.885ZM63.2471 361V353.74H64.3545V354.841C64.637 354.326 64.8968 353.986 65.1338 353.822C65.3753 353.658 65.6396 353.576 65.9268 353.576C66.3415 353.576 66.763 353.708 67.1914 353.973L66.7676 355.114C66.4668 354.937 66.166 354.848 65.8652 354.848C65.5964 354.848 65.3548 354.93 65.1406 355.094C64.9264 355.253 64.7738 355.477 64.6826 355.764C64.5459 356.201 64.4775 356.68 64.4775 357.199V361H63.2471ZM67.9297 352.394V350.979H69.1602V352.394H67.9297ZM67.9297 361V353.74H69.1602V361H67.9297ZM70.5479 358.833L71.7646 358.642C71.833 359.129 72.0221 359.503 72.332 359.763C72.6465 360.022 73.084 360.152 73.6445 360.152C74.2096 360.152 74.6289 360.038 74.9023 359.811C75.1758 359.578 75.3125 359.307 75.3125 358.997C75.3125 358.719 75.1917 358.5 74.9502 358.341C74.7816 358.231 74.3623 358.092 73.6924 357.924C72.79 357.696 72.1634 357.5 71.8125 357.336C71.4661 357.167 71.2018 356.937 71.0195 356.646C70.8418 356.349 70.7529 356.023 70.7529 355.668C70.7529 355.344 70.8258 355.046 70.9717 354.772C71.1221 354.494 71.3249 354.264 71.5801 354.082C71.7715 353.941 72.0312 353.822 72.3594 353.727C72.6921 353.626 73.0475 353.576 73.4258 353.576C73.9954 353.576 74.4945 353.658 74.9229 353.822C75.3558 353.986 75.6748 354.21 75.8799 354.492C76.085 354.77 76.2262 355.144 76.3037 355.613L75.1006 355.777C75.0459 355.404 74.8864 355.112 74.6221 354.902C74.3623 354.693 73.9932 354.588 73.5146 354.588C72.9495 354.588 72.5462 354.681 72.3047 354.868C72.0632 355.055 71.9424 355.274 71.9424 355.524C71.9424 355.684 71.9925 355.827 72.0928 355.955C72.193 356.087 72.3503 356.197 72.5645 356.283C72.6875 356.329 73.0498 356.434 73.6514 356.598C74.5218 356.83 75.1279 357.021 75.4697 357.172C75.8161 357.318 76.0872 357.532 76.2832 357.814C76.4792 358.097 76.5771 358.448 76.5771 358.867C76.5771 359.277 76.4564 359.665 76.2148 360.029C75.9779 360.389 75.6338 360.67 75.1826 360.87C74.7314 361.066 74.221 361.164 73.6514 361.164C72.708 361.164 71.988 360.968 71.4912 360.576C70.999 360.184 70.6846 359.603 70.5479 358.833ZM80.7266 359.899L80.9043 360.986C80.5579 361.059 80.248 361.096 79.9746 361.096C79.528 361.096 79.1816 361.025 78.9355 360.884C78.6895 360.743 78.5163 360.558 78.416 360.33C78.3158 360.098 78.2656 359.612 78.2656 358.874V354.697H77.3633V353.74H78.2656V351.942L79.4893 351.204V353.74H80.7266V354.697H79.4893V358.942C79.4893 359.293 79.5098 359.519 79.5508 359.619C79.5964 359.719 79.667 359.799 79.7627 359.858C79.863 359.918 80.0042 359.947 80.1865 359.947C80.3232 359.947 80.5033 359.931 80.7266 359.899ZM86.6738 360.104C86.2181 360.492 85.7783 360.765 85.3545 360.925C84.9352 361.084 84.484 361.164 84.001 361.164C83.2035 361.164 82.5905 360.97 82.1621 360.583C81.7337 360.191 81.5195 359.692 81.5195 359.086C81.5195 358.73 81.5993 358.407 81.7588 358.115C81.9229 357.819 82.1348 357.582 82.3945 357.404C82.6589 357.227 82.9551 357.092 83.2832 357.001C83.5247 356.937 83.8893 356.876 84.377 356.816C85.3704 356.698 86.1019 356.557 86.5713 356.393C86.5758 356.224 86.5781 356.117 86.5781 356.071C86.5781 355.57 86.4619 355.217 86.2295 355.012C85.915 354.734 85.4479 354.595 84.8281 354.595C84.2493 354.595 83.821 354.697 83.543 354.902C83.2695 355.103 83.0667 355.461 82.9346 355.976L81.7314 355.812C81.8408 355.297 82.0208 354.882 82.2715 354.567C82.5221 354.248 82.8844 354.005 83.3584 353.836C83.8324 353.663 84.3815 353.576 85.0059 353.576C85.6257 353.576 86.1292 353.649 86.5166 353.795C86.904 353.941 87.1888 354.125 87.3711 354.349C87.5534 354.567 87.681 354.845 87.7539 355.183C87.7949 355.392 87.8154 355.771 87.8154 356.317V357.958C87.8154 359.102 87.8405 359.826 87.8906 360.132C87.9453 360.433 88.0501 360.722 88.2051 361H86.9199C86.7923 360.745 86.7103 360.446 86.6738 360.104ZM86.5713 357.356C86.1247 357.539 85.4548 357.694 84.5615 357.821C84.0557 357.894 83.6979 357.976 83.4883 358.067C83.2786 358.159 83.1169 358.293 83.0029 358.471C82.889 358.644 82.832 358.838 82.832 359.052C82.832 359.38 82.9551 359.653 83.2012 359.872C83.4518 360.091 83.8164 360.2 84.2949 360.2C84.7689 360.2 85.1904 360.098 85.5596 359.893C85.9287 359.683 86.1999 359.398 86.373 359.038C86.5052 358.76 86.5713 358.35 86.5713 357.808V357.356ZM93.7285 361V350.979H95.0547V359.817H99.9902V361H93.7285ZM101.426 352.394V350.979H102.656V352.394H101.426ZM101.426 361V353.74H102.656V361H101.426ZM109.164 363.782V360.228C108.973 360.496 108.704 360.72 108.357 360.897C108.016 361.075 107.651 361.164 107.264 361.164C106.402 361.164 105.66 360.82 105.035 360.132C104.415 359.444 104.105 358.5 104.105 357.302C104.105 356.573 104.231 355.919 104.481 355.34C104.737 354.761 105.104 354.324 105.582 354.027C106.065 353.727 106.594 353.576 107.168 353.576C108.066 353.576 108.772 353.954 109.287 354.711V353.74H110.395V363.782H109.164ZM105.37 357.35C105.37 358.284 105.566 358.986 105.958 359.455C106.35 359.92 106.819 360.152 107.366 360.152C107.89 360.152 108.341 359.931 108.72 359.489C109.098 359.043 109.287 358.366 109.287 357.459C109.287 356.493 109.087 355.766 108.686 355.278C108.289 354.791 107.822 354.547 107.284 354.547C106.751 354.547 106.298 354.775 105.924 355.23C105.555 355.682 105.37 356.388 105.37 357.35ZM117.087 361V359.934C116.522 360.754 115.754 361.164 114.783 361.164C114.355 361.164 113.954 361.082 113.58 360.918C113.211 360.754 112.935 360.549 112.753 360.303C112.575 360.052 112.45 359.747 112.377 359.387C112.327 359.145 112.302 358.762 112.302 358.238V353.74H113.532V357.767C113.532 358.409 113.557 358.842 113.607 359.065C113.685 359.389 113.849 359.644 114.1 359.831C114.35 360.013 114.66 360.104 115.029 360.104C115.398 360.104 115.745 360.011 116.068 359.824C116.392 359.633 116.62 359.375 116.752 359.052C116.889 358.724 116.957 358.25 116.957 357.63V353.74H118.188V361H117.087ZM120.129 352.394V350.979H121.359V352.394H120.129ZM120.129 361V353.74H121.359V361H120.129ZM127.949 361V360.084C127.489 360.804 126.812 361.164 125.919 361.164C125.34 361.164 124.807 361.005 124.319 360.686C123.836 360.367 123.46 359.922 123.191 359.353C122.927 358.778 122.795 358.12 122.795 357.377C122.795 356.652 122.916 355.996 123.157 355.408C123.399 354.816 123.761 354.362 124.244 354.048C124.727 353.733 125.267 353.576 125.864 353.576C126.302 353.576 126.691 353.67 127.033 353.856C127.375 354.039 127.653 354.278 127.867 354.574V350.979H129.091V361H127.949ZM124.06 357.377C124.06 358.307 124.256 359.002 124.647 359.462C125.039 359.922 125.502 360.152 126.035 360.152C126.573 360.152 127.029 359.934 127.402 359.496C127.781 359.054 127.97 358.382 127.97 357.479C127.97 356.486 127.778 355.757 127.396 355.292C127.013 354.827 126.541 354.595 125.98 354.595C125.434 354.595 124.976 354.818 124.606 355.265C124.242 355.711 124.06 356.415 124.06 357.377Z" fill="#2699FB"/>
<path d="M54.0254 391V380.979H57.7852C58.5508 380.979 59.1637 381.081 59.624 381.286C60.0889 381.487 60.4512 381.799 60.7109 382.223C60.9753 382.642 61.1074 383.082 61.1074 383.542C61.1074 383.97 60.9912 384.374 60.7588 384.752C60.5264 385.13 60.1755 385.436 59.7061 385.668C60.3122 385.846 60.777 386.149 61.1006 386.577C61.4287 387.006 61.5928 387.511 61.5928 388.095C61.5928 388.564 61.4925 389.002 61.292 389.407C61.096 389.808 60.8522 390.118 60.5605 390.337C60.2689 390.556 59.902 390.722 59.46 390.836C59.0225 390.945 58.4847 391 57.8467 391H54.0254ZM55.3516 385.189H57.5186C58.1064 385.189 58.528 385.151 58.7832 385.073C59.1204 384.973 59.3734 384.807 59.542 384.574C59.7152 384.342 59.8018 384.05 59.8018 383.699C59.8018 383.367 59.722 383.075 59.5625 382.824C59.403 382.569 59.1751 382.396 58.8789 382.305C58.5827 382.209 58.0745 382.161 57.3545 382.161H55.3516V385.189ZM55.3516 389.817H57.8467C58.2751 389.817 58.5758 389.801 58.749 389.77C59.0544 389.715 59.3096 389.624 59.5146 389.496C59.7197 389.368 59.8883 389.184 60.0205 388.942C60.1527 388.696 60.2188 388.414 60.2188 388.095C60.2188 387.721 60.123 387.397 59.9316 387.124C59.7402 386.846 59.4736 386.652 59.1318 386.543C58.7946 386.429 58.307 386.372 57.6689 386.372H55.3516V389.817ZM68.2305 388.662L69.502 388.819C69.3014 389.562 68.93 390.139 68.3877 390.549C67.8454 390.959 67.1527 391.164 66.3096 391.164C65.2477 391.164 64.4046 390.838 63.7803 390.187C63.1605 389.53 62.8506 388.612 62.8506 387.432C62.8506 386.21 63.165 385.262 63.7939 384.588C64.4229 383.913 65.2386 383.576 66.2412 383.576C67.2119 383.576 68.0049 383.907 68.6201 384.567C69.2354 385.228 69.543 386.158 69.543 387.356C69.543 387.429 69.5407 387.539 69.5361 387.685H64.1221C64.1676 388.482 64.3932 389.093 64.7988 389.517C65.2044 389.94 65.7103 390.152 66.3164 390.152C66.7676 390.152 67.1527 390.034 67.4717 389.797C67.7907 389.56 68.0436 389.182 68.2305 388.662ZM64.1904 386.673H68.2441C68.1895 386.062 68.0345 385.604 67.7793 385.299C67.3874 384.825 66.8792 384.588 66.2549 384.588C65.6898 384.588 65.2135 384.777 64.8262 385.155C64.4434 385.534 64.2314 386.039 64.1904 386.673ZM71.0264 391V380.979H72.2568V391H71.0264ZM74.1436 391V380.979H75.374V391H74.1436ZM77.2949 382.394V380.979H78.5254V382.394H77.2949ZM77.2949 391V383.74H78.5254V391H77.2949ZM80.4053 391V383.74H81.5127V384.772C82.0459 383.975 82.8161 383.576 83.8232 383.576C84.2607 383.576 84.6618 383.656 85.0264 383.815C85.3955 383.97 85.6712 384.175 85.8535 384.431C86.0358 384.686 86.1634 384.989 86.2363 385.34C86.2819 385.568 86.3047 385.966 86.3047 386.536V391H85.0742V386.584C85.0742 386.083 85.0264 385.709 84.9307 385.463C84.835 385.212 84.6641 385.014 84.418 384.868C84.1764 384.718 83.8916 384.643 83.5635 384.643C83.0394 384.643 82.5859 384.809 82.2031 385.142C81.8249 385.474 81.6357 386.105 81.6357 387.035V391H80.4053ZM88.2051 382.394V380.979H89.4355V382.394H88.2051ZM88.2051 391V383.74H89.4355V391H88.2051ZM95.4375 391V380.979H102.198V382.161H96.7637V385.265H101.467V386.447H96.7637V391H95.4375ZM103.312 387.37C103.312 386.026 103.686 385.03 104.434 384.383C105.058 383.845 105.819 383.576 106.717 383.576C107.715 383.576 108.531 383.904 109.164 384.561C109.798 385.212 110.114 386.115 110.114 387.268C110.114 388.202 109.973 388.938 109.69 389.476C109.412 390.009 109.005 390.424 108.467 390.72C107.934 391.016 107.35 391.164 106.717 391.164C105.701 391.164 104.878 390.838 104.249 390.187C103.625 389.535 103.312 388.596 103.312 387.37ZM104.577 387.37C104.577 388.3 104.78 388.997 105.186 389.462C105.591 389.922 106.102 390.152 106.717 390.152C107.327 390.152 107.836 389.92 108.241 389.455C108.647 388.99 108.85 388.282 108.85 387.329C108.85 386.431 108.645 385.752 108.234 385.292C107.829 384.827 107.323 384.595 106.717 384.595C106.102 384.595 105.591 384.825 105.186 385.285C104.78 385.745 104.577 386.44 104.577 387.37ZM114.25 389.899L114.428 390.986C114.081 391.059 113.771 391.096 113.498 391.096C113.051 391.096 112.705 391.025 112.459 390.884C112.213 390.743 112.04 390.558 111.939 390.33C111.839 390.098 111.789 389.612 111.789 388.874V384.697H110.887V383.74H111.789V381.942L113.013 381.204V383.74H114.25V384.697H113.013V388.942C113.013 389.293 113.033 389.519 113.074 389.619C113.12 389.719 113.19 389.799 113.286 389.858C113.386 389.918 113.528 389.947 113.71 389.947C113.847 389.947 114.027 389.931 114.25 389.899ZM115.002 387.37C115.002 386.026 115.376 385.03 116.123 384.383C116.747 383.845 117.508 383.576 118.406 383.576C119.404 383.576 120.22 383.904 120.854 384.561C121.487 385.212 121.804 386.115 121.804 387.268C121.804 388.202 121.662 388.938 121.38 389.476C121.102 390.009 120.694 390.424 120.156 390.72C119.623 391.016 119.04 391.164 118.406 391.164C117.39 391.164 116.567 390.838 115.938 390.187C115.314 389.535 115.002 388.596 115.002 387.37ZM116.267 387.37C116.267 388.3 116.469 388.997 116.875 389.462C117.281 389.922 117.791 390.152 118.406 390.152C119.017 390.152 119.525 389.92 119.931 389.455C120.336 388.99 120.539 388.282 120.539 387.329C120.539 386.431 120.334 385.752 119.924 385.292C119.518 384.827 119.012 384.595 118.406 384.595C117.791 384.595 117.281 384.825 116.875 385.285C116.469 385.745 116.267 386.44 116.267 387.37ZM127.252 391V380.979H128.578V385.948L133.555 380.979H135.353L131.148 385.039L135.537 391H133.787L130.219 385.928L128.578 387.527V391H127.252ZM136.494 382.394V380.979H137.725V382.394H136.494ZM136.494 391V383.74H137.725V391H136.494ZM142.291 389.899L142.469 390.986C142.122 391.059 141.812 391.096 141.539 391.096C141.092 391.096 140.746 391.025 140.5 390.884C140.254 390.743 140.081 390.558 139.98 390.33C139.88 390.098 139.83 389.612 139.83 388.874V384.697H138.928V383.74H139.83V381.942L141.054 381.204V383.74H142.291V384.697H141.054V388.942C141.054 389.293 141.074 389.519 141.115 389.619C141.161 389.719 141.231 389.799 141.327 389.858C141.427 389.918 141.569 389.947 141.751 389.947C141.888 389.947 142.068 389.931 142.291 389.899Z" fill="#2699FB"/>
<path d="M54.1484 421V410.979H60.9092V412.161H55.4746V415.265H60.1777V416.447H55.4746V421H54.1484ZM67.2393 421V419.934C66.6742 420.754 65.9062 421.164 64.9355 421.164C64.5072 421.164 64.1061 421.082 63.7324 420.918C63.3633 420.754 63.0876 420.549 62.9053 420.303C62.7275 420.052 62.6022 419.747 62.5293 419.387C62.4792 419.145 62.4541 418.762 62.4541 418.238V413.74H63.6846V417.767C63.6846 418.409 63.7096 418.842 63.7598 419.065C63.8372 419.389 64.0013 419.644 64.252 419.831C64.5026 420.013 64.8125 420.104 65.1816 420.104C65.5508 420.104 65.8971 420.011 66.2207 419.824C66.5443 419.633 66.7721 419.375 66.9043 419.052C67.041 418.724 67.1094 418.25 67.1094 417.63V413.74H68.3398V421H67.2393ZM70.2676 412.407V410.979H71.498V412.407H70.2676ZM68.709 423.816L68.9414 422.771C69.1875 422.834 69.3812 422.866 69.5225 422.866C69.7731 422.866 69.96 422.782 70.083 422.613C70.2061 422.449 70.2676 422.035 70.2676 421.369V413.74H71.498V421.396C71.498 422.29 71.3818 422.912 71.1494 423.263C70.8532 423.718 70.361 423.946 69.6729 423.946C69.3402 423.946 69.0189 423.903 68.709 423.816ZM73.3984 412.394V410.979H74.6289V412.394H73.3984ZM73.3984 421V413.74H74.6289V421H73.3984ZM80.6035 421V410.979H81.9297V415.094H87.1387V410.979H88.4648V421H87.1387V416.276H81.9297V421H80.6035ZM95.2803 421V419.934C94.7152 420.754 93.9473 421.164 92.9766 421.164C92.5482 421.164 92.1471 421.082 91.7734 420.918C91.4043 420.754 91.1286 420.549 90.9463 420.303C90.7686 420.052 90.6432 419.747 90.5703 419.387C90.5202 419.145 90.4951 418.762 90.4951 418.238V413.74H91.7256V417.767C91.7256 418.409 91.7507 418.842 91.8008 419.065C91.8783 419.389 92.0423 419.644 92.293 419.831C92.5436 420.013 92.8535 420.104 93.2227 420.104C93.5918 420.104 93.9382 420.011 94.2617 419.824C94.5853 419.633 94.8132 419.375 94.9453 419.052C95.082 418.724 95.1504 418.25 95.1504 417.63V413.74H96.3809V421H95.2803ZM98.3154 421V413.74H99.4229V414.772C99.9561 413.975 100.726 413.576 101.733 413.576C102.171 413.576 102.572 413.656 102.937 413.815C103.306 413.97 103.581 414.175 103.764 414.431C103.946 414.686 104.074 414.989 104.146 415.34C104.192 415.568 104.215 415.966 104.215 416.536V421H102.984V416.584C102.984 416.083 102.937 415.709 102.841 415.463C102.745 415.212 102.574 415.014 102.328 414.868C102.087 414.718 101.802 414.643 101.474 414.643C100.95 414.643 100.496 414.809 100.113 415.142C99.735 415.474 99.5459 416.105 99.5459 417.035V421H98.3154ZM108.795 419.899L108.973 420.986C108.626 421.059 108.316 421.096 108.043 421.096C107.596 421.096 107.25 421.025 107.004 420.884C106.758 420.743 106.585 420.558 106.484 420.33C106.384 420.098 106.334 419.612 106.334 418.874V414.697H105.432V413.74H106.334V411.942L107.558 411.204V413.74H108.795V414.697H107.558V418.942C107.558 419.293 107.578 419.519 107.619 419.619C107.665 419.719 107.735 419.799 107.831 419.858C107.931 419.918 108.073 419.947 108.255 419.947C108.392 419.947 108.572 419.931 108.795 419.899ZM113.04 421L116.916 415.777L113.498 410.979H115.077L116.896 413.549C117.274 414.082 117.543 414.492 117.702 414.779C117.925 414.415 118.19 414.034 118.495 413.638L120.512 410.979H121.954L118.434 415.702L122.228 421H120.587L118.064 417.425C117.923 417.22 117.777 416.996 117.627 416.755C117.404 417.119 117.244 417.37 117.148 417.507L114.633 421H113.04ZM122.761 417.992V416.755H126.541V417.992H122.761ZM128.059 421V410.979H131.839C132.504 410.979 133.012 411.01 133.363 411.074C133.855 411.156 134.268 411.313 134.601 411.546C134.933 411.774 135.2 412.095 135.4 412.51C135.605 412.924 135.708 413.38 135.708 413.877C135.708 414.729 135.437 415.451 134.895 416.044C134.352 416.632 133.372 416.926 131.955 416.926H129.385V421H128.059ZM129.385 415.743H131.976C132.832 415.743 133.441 415.584 133.801 415.265C134.161 414.946 134.341 414.497 134.341 413.918C134.341 413.499 134.234 413.141 134.02 412.845C133.81 412.544 133.532 412.346 133.186 412.25C132.962 412.191 132.55 412.161 131.948 412.161H129.385V415.743ZM137.226 421V413.74H138.333V414.841C138.616 414.326 138.875 413.986 139.112 413.822C139.354 413.658 139.618 413.576 139.905 413.576C140.32 413.576 140.742 413.708 141.17 413.973L140.746 415.114C140.445 414.937 140.145 414.848 139.844 414.848C139.575 414.848 139.333 414.93 139.119 415.094C138.905 415.253 138.752 415.477 138.661 415.764C138.524 416.201 138.456 416.68 138.456 417.199V421H137.226ZM146.871 418.662L148.143 418.819C147.942 419.562 147.571 420.139 147.028 420.549C146.486 420.959 145.793 421.164 144.95 421.164C143.888 421.164 143.045 420.838 142.421 420.187C141.801 419.53 141.491 418.612 141.491 417.432C141.491 416.21 141.806 415.262 142.435 414.588C143.063 413.913 143.879 413.576 144.882 413.576C145.853 413.576 146.646 413.907 147.261 414.567C147.876 415.228 148.184 416.158 148.184 417.356C148.184 417.429 148.181 417.539 148.177 417.685H142.763C142.808 418.482 143.034 419.093 143.439 419.517C143.845 419.94 144.351 420.152 144.957 420.152C145.408 420.152 145.793 420.034 146.112 419.797C146.431 419.56 146.684 419.182 146.871 418.662ZM142.831 416.673H146.885C146.83 416.062 146.675 415.604 146.42 415.299C146.028 414.825 145.52 414.588 144.896 414.588C144.33 414.588 143.854 414.777 143.467 415.155C143.084 415.534 142.872 416.039 142.831 416.673ZM149.202 418.833L150.419 418.642C150.487 419.129 150.676 419.503 150.986 419.763C151.301 420.022 151.738 420.152 152.299 420.152C152.864 420.152 153.283 420.038 153.557 419.811C153.83 419.578 153.967 419.307 153.967 418.997C153.967 418.719 153.846 418.5 153.604 418.341C153.436 418.231 153.017 418.092 152.347 417.924C151.444 417.696 150.818 417.5 150.467 417.336C150.12 417.167 149.856 416.937 149.674 416.646C149.496 416.349 149.407 416.023 149.407 415.668C149.407 415.344 149.48 415.046 149.626 414.772C149.776 414.494 149.979 414.264 150.234 414.082C150.426 413.941 150.686 413.822 151.014 413.727C151.346 413.626 151.702 413.576 152.08 413.576C152.65 413.576 153.149 413.658 153.577 413.822C154.01 413.986 154.329 414.21 154.534 414.492C154.739 414.77 154.881 415.144 154.958 415.613L153.755 415.777C153.7 415.404 153.541 415.112 153.276 414.902C153.017 414.693 152.647 414.588 152.169 414.588C151.604 414.588 151.201 414.681 150.959 414.868C150.717 415.055 150.597 415.274 150.597 415.524C150.597 415.684 150.647 415.827 150.747 415.955C150.847 416.087 151.005 416.197 151.219 416.283C151.342 416.329 151.704 416.434 152.306 416.598C153.176 416.83 153.782 417.021 154.124 417.172C154.47 417.318 154.742 417.532 154.938 417.814C155.133 418.097 155.231 418.448 155.231 418.867C155.231 419.277 155.111 419.665 154.869 420.029C154.632 420.389 154.288 420.67 153.837 420.87C153.386 421.066 152.875 421.164 152.306 421.164C151.362 421.164 150.642 420.968 150.146 420.576C149.653 420.184 149.339 419.603 149.202 418.833ZM156.202 418.833L157.419 418.642C157.487 419.129 157.676 419.503 157.986 419.763C158.301 420.022 158.738 420.152 159.299 420.152C159.864 420.152 160.283 420.038 160.557 419.811C160.83 419.578 160.967 419.307 160.967 418.997C160.967 418.719 160.846 418.5 160.604 418.341C160.436 418.231 160.017 418.092 159.347 417.924C158.444 417.696 157.818 417.5 157.467 417.336C157.12 417.167 156.856 416.937 156.674 416.646C156.496 416.349 156.407 416.023 156.407 415.668C156.407 415.344 156.48 415.046 156.626 414.772C156.776 414.494 156.979 414.264 157.234 414.082C157.426 413.941 157.686 413.822 158.014 413.727C158.346 413.626 158.702 413.576 159.08 413.576C159.65 413.576 160.149 413.658 160.577 413.822C161.01 413.986 161.329 414.21 161.534 414.492C161.739 414.77 161.881 415.144 161.958 415.613L160.755 415.777C160.7 415.404 160.541 415.112 160.276 414.902C160.017 414.693 159.647 414.588 159.169 414.588C158.604 414.588 158.201 414.681 157.959 414.868C157.717 415.055 157.597 415.274 157.597 415.524C157.597 415.684 157.647 415.827 157.747 415.955C157.847 416.087 158.005 416.197 158.219 416.283C158.342 416.329 158.704 416.434 159.306 416.598C160.176 416.83 160.782 417.021 161.124 417.172C161.47 417.318 161.742 417.532 161.938 417.814C162.133 418.097 162.231 418.448 162.231 418.867C162.231 419.277 162.111 419.665 161.869 420.029C161.632 420.389 161.288 420.67 160.837 420.87C160.386 421.066 159.875 421.164 159.306 421.164C158.362 421.164 157.642 420.968 157.146 420.576C156.653 420.184 156.339 419.603 156.202 418.833Z" fill="#2699FB"/>
<path d="M54.1006 451V440.979H58.5439C59.4372 440.979 60.1162 441.07 60.5811 441.252C61.0459 441.43 61.4173 441.746 61.6953 442.202C61.9733 442.658 62.1123 443.161 62.1123 443.713C62.1123 444.424 61.8822 445.023 61.4219 445.511C60.9616 445.998 60.2507 446.308 59.2891 446.44C59.64 446.609 59.9066 446.775 60.0889 446.939C60.4762 447.295 60.8431 447.739 61.1895 448.272L62.9326 451H61.2646L59.9385 448.915C59.5511 448.313 59.2321 447.853 58.9814 447.534C58.7308 447.215 58.5052 446.992 58.3047 446.864C58.1087 446.737 57.9082 446.648 57.7031 446.598C57.5527 446.566 57.3066 446.55 56.9648 446.55H55.4268V451H54.1006ZM55.4268 445.401H58.2773C58.8835 445.401 59.3574 445.34 59.6992 445.217C60.041 445.089 60.3008 444.889 60.4785 444.615C60.6562 444.337 60.7451 444.036 60.7451 443.713C60.7451 443.239 60.5719 442.849 60.2256 442.544C59.8838 442.239 59.3415 442.086 58.5986 442.086H55.4268V445.401ZM63.582 447.37C63.582 446.026 63.9557 445.03 64.7031 444.383C65.3275 443.845 66.0885 443.576 66.9863 443.576C67.9844 443.576 68.8001 443.904 69.4336 444.561C70.0671 445.212 70.3838 446.115 70.3838 447.268C70.3838 448.202 70.2425 448.938 69.96 449.476C69.682 450.009 69.2741 450.424 68.7363 450.72C68.2031 451.016 67.6198 451.164 66.9863 451.164C65.9701 451.164 65.1475 450.838 64.5186 450.187C63.8942 449.535 63.582 448.596 63.582 447.37ZM64.8467 447.37C64.8467 448.3 65.0495 448.997 65.4551 449.462C65.8607 449.922 66.3711 450.152 66.9863 450.152C67.597 450.152 68.1051 449.92 68.5107 449.455C68.9163 448.99 69.1191 448.282 69.1191 447.329C69.1191 446.431 68.9141 445.752 68.5039 445.292C68.0983 444.827 67.5924 444.595 66.9863 444.595C66.3711 444.595 65.8607 444.825 65.4551 445.285C65.0495 445.745 64.8467 446.44 64.8467 447.37ZM71.8057 451V440.979H73.0361V451H71.8057ZM74.9229 451V440.979H76.1533V451H74.9229ZM83.0371 448.662L84.3086 448.819C84.1081 449.562 83.7367 450.139 83.1943 450.549C82.652 450.959 81.9593 451.164 81.1162 451.164C80.0544 451.164 79.2113 450.838 78.5869 450.187C77.9671 449.53 77.6572 448.612 77.6572 447.432C77.6572 446.21 77.9717 445.262 78.6006 444.588C79.2295 443.913 80.0452 443.576 81.0479 443.576C82.0186 443.576 82.8115 443.907 83.4268 444.567C84.042 445.228 84.3496 446.158 84.3496 447.356C84.3496 447.429 84.3473 447.539 84.3428 447.685H78.9287C78.9743 448.482 79.1999 449.093 79.6055 449.517C80.0111 449.94 80.5169 450.152 81.123 450.152C81.5742 450.152 81.9593 450.034 82.2783 449.797C82.5973 449.56 82.8503 449.182 83.0371 448.662ZM78.9971 446.673H83.0508C82.9961 446.062 82.8411 445.604 82.5859 445.299C82.194 444.825 81.6859 444.588 81.0615 444.588C80.4964 444.588 80.0202 444.777 79.6328 445.155C79.25 445.534 79.0381 446.039 78.9971 446.673ZM85.8672 442.394V440.979H87.0977V442.394H85.8672ZM85.8672 451V443.74H87.0977V451H85.8672ZM100.182 447.486L101.508 447.821C101.23 448.91 100.729 449.742 100.004 450.316C99.2839 450.886 98.402 451.171 97.3584 451.171C96.2783 451.171 95.3988 450.952 94.7197 450.515C94.0452 450.073 93.5303 449.435 93.1748 448.601C92.8239 447.767 92.6484 446.871 92.6484 445.914C92.6484 444.87 92.8467 443.961 93.2432 443.187C93.6442 442.407 94.2116 441.817 94.9453 441.416C95.6836 441.01 96.4948 440.808 97.3789 440.808C98.3815 440.808 99.2246 441.063 99.9082 441.573C100.592 442.084 101.068 442.801 101.337 443.727L100.031 444.034C99.7988 443.305 99.4616 442.774 99.0195 442.441C98.5775 442.109 98.0215 441.942 97.3516 441.942C96.5814 441.942 95.9365 442.127 95.417 442.496C94.902 442.865 94.5397 443.362 94.3301 443.986C94.1204 444.606 94.0156 445.246 94.0156 445.907C94.0156 446.759 94.1387 447.505 94.3848 448.143C94.6354 448.776 95.0228 449.25 95.5469 449.564C96.071 449.879 96.6383 450.036 97.249 450.036C97.9919 450.036 98.6208 449.822 99.1357 449.394C99.6507 448.965 99.9993 448.329 100.182 447.486ZM102.533 447.37C102.533 446.026 102.907 445.03 103.654 444.383C104.279 443.845 105.04 443.576 105.938 443.576C106.936 443.576 107.751 443.904 108.385 444.561C109.018 445.212 109.335 446.115 109.335 447.268C109.335 448.202 109.194 448.938 108.911 449.476C108.633 450.009 108.225 450.424 107.688 450.72C107.154 451.016 106.571 451.164 105.938 451.164C104.921 451.164 104.099 450.838 103.47 450.187C102.845 449.535 102.533 448.596 102.533 447.37ZM103.798 447.37C103.798 448.3 104.001 448.997 104.406 449.462C104.812 449.922 105.322 450.152 105.938 450.152C106.548 450.152 107.056 449.92 107.462 449.455C107.868 448.99 108.07 448.282 108.07 447.329C108.07 446.431 107.865 445.752 107.455 445.292C107.049 444.827 106.544 444.595 105.938 444.595C105.322 444.595 104.812 444.825 104.406 445.285C104.001 445.745 103.798 446.44 103.798 447.37ZM110.757 451V440.979H111.987V451H110.757ZM113.443 447.37C113.443 446.026 113.817 445.03 114.564 444.383C115.189 443.845 115.95 443.576 116.848 443.576C117.846 443.576 118.661 443.904 119.295 444.561C119.928 445.212 120.245 446.115 120.245 447.268C120.245 448.202 120.104 448.938 119.821 449.476C119.543 450.009 119.135 450.424 118.598 450.72C118.064 451.016 117.481 451.164 116.848 451.164C115.831 451.164 115.009 450.838 114.38 450.187C113.756 449.535 113.443 448.596 113.443 447.37ZM114.708 447.37C114.708 448.3 114.911 448.997 115.316 449.462C115.722 449.922 116.232 450.152 116.848 450.152C117.458 450.152 117.966 449.92 118.372 449.455C118.778 448.99 118.98 448.282 118.98 447.329C118.98 446.431 118.775 445.752 118.365 445.292C117.96 444.827 117.454 444.595 116.848 444.595C116.232 444.595 115.722 444.825 115.316 445.285C114.911 445.745 114.708 446.44 114.708 447.37ZM121.681 451V443.74H122.788V444.841C123.071 444.326 123.33 443.986 123.567 443.822C123.809 443.658 124.073 443.576 124.36 443.576C124.775 443.576 125.197 443.708 125.625 443.973L125.201 445.114C124.9 444.937 124.6 444.848 124.299 444.848C124.03 444.848 123.788 444.93 123.574 445.094C123.36 445.253 123.207 445.477 123.116 445.764C122.979 446.201 122.911 446.68 122.911 447.199V451H121.681ZM131.094 448.341L132.304 448.498C132.172 449.332 131.832 449.986 131.285 450.46C130.743 450.929 130.075 451.164 129.282 451.164C128.289 451.164 127.489 450.84 126.883 450.193C126.281 449.542 125.98 448.61 125.98 447.397C125.98 446.614 126.11 445.928 126.37 445.34C126.63 444.752 127.024 444.312 127.553 444.021C128.086 443.724 128.665 443.576 129.289 443.576C130.077 443.576 130.722 443.777 131.224 444.178C131.725 444.574 132.046 445.139 132.188 445.873L130.991 446.058C130.877 445.57 130.674 445.203 130.383 444.957C130.096 444.711 129.747 444.588 129.337 444.588C128.717 444.588 128.214 444.811 127.826 445.258C127.439 445.7 127.245 446.402 127.245 447.363C127.245 448.339 127.432 449.047 127.806 449.489C128.179 449.931 128.667 450.152 129.269 450.152C129.752 450.152 130.155 450.004 130.479 449.708C130.802 449.412 131.007 448.956 131.094 448.341ZM133.356 451V440.979H134.587V444.574C135.161 443.909 135.886 443.576 136.761 443.576C137.299 443.576 137.766 443.683 138.162 443.897C138.559 444.107 138.841 444.399 139.01 444.772C139.183 445.146 139.27 445.688 139.27 446.399V451H138.039V446.399C138.039 445.784 137.905 445.338 137.636 445.06C137.371 444.777 136.995 444.636 136.508 444.636C136.143 444.636 135.799 444.731 135.476 444.923C135.157 445.11 134.929 445.365 134.792 445.688C134.655 446.012 134.587 446.459 134.587 447.028V451H133.356ZM146.119 448.662L147.391 448.819C147.19 449.562 146.819 450.139 146.276 450.549C145.734 450.959 145.041 451.164 144.198 451.164C143.136 451.164 142.293 450.838 141.669 450.187C141.049 449.53 140.739 448.612 140.739 447.432C140.739 446.21 141.054 445.262 141.683 444.588C142.312 443.913 143.127 443.576 144.13 443.576C145.101 443.576 145.894 443.907 146.509 444.567C147.124 445.228 147.432 446.158 147.432 447.356C147.432 447.429 147.429 447.539 147.425 447.685H142.011C142.056 448.482 142.282 449.093 142.688 449.517C143.093 449.94 143.599 450.152 144.205 450.152C144.656 450.152 145.041 450.034 145.36 449.797C145.679 449.56 145.932 449.182 146.119 448.662ZM142.079 446.673H146.133C146.078 446.062 145.923 445.604 145.668 445.299C145.276 444.825 144.768 444.588 144.144 444.588C143.578 444.588 143.102 444.777 142.715 445.155C142.332 445.534 142.12 446.039 142.079 446.673ZM148.942 451V443.74H150.043V444.759C150.271 444.403 150.574 444.118 150.952 443.904C151.33 443.686 151.761 443.576 152.244 443.576C152.782 443.576 153.222 443.688 153.563 443.911C153.91 444.134 154.154 444.447 154.295 444.848C154.869 444 155.617 443.576 156.537 443.576C157.257 443.576 157.811 443.777 158.198 444.178C158.586 444.574 158.779 445.187 158.779 446.017V451H157.556V446.427C157.556 445.935 157.515 445.581 157.433 445.367C157.355 445.148 157.212 444.973 157.002 444.841C156.792 444.709 156.546 444.643 156.264 444.643C155.753 444.643 155.329 444.813 154.992 445.155C154.655 445.493 154.486 446.035 154.486 446.782V451H153.256V446.283C153.256 445.736 153.156 445.326 152.955 445.053C152.755 444.779 152.426 444.643 151.971 444.643C151.624 444.643 151.303 444.734 151.007 444.916C150.715 445.098 150.503 445.365 150.371 445.716C150.239 446.067 150.173 446.573 150.173 447.233V451H148.942Z" fill="#2699FB"/>
<path d="M56.6299 481V472.161H53.3281V470.979H61.2715V472.161H57.9561V481H56.6299ZM65.8926 478.662L67.1641 478.819C66.9635 479.562 66.5921 480.139 66.0498 480.549C65.5075 480.959 64.8148 481.164 63.9717 481.164C62.9098 481.164 62.0667 480.838 61.4424 480.187C60.8226 479.53 60.5127 478.612 60.5127 477.432C60.5127 476.21 60.8271 475.262 61.4561 474.588C62.085 473.913 62.9007 473.576 63.9033 473.576C64.874 473.576 65.667 473.907 66.2822 474.567C66.8975 475.228 67.2051 476.158 67.2051 477.356C67.2051 477.429 67.2028 477.539 67.1982 477.685H61.7842C61.8298 478.482 62.0553 479.093 62.4609 479.517C62.8665 479.94 63.3724 480.152 63.9785 480.152C64.4297 480.152 64.8148 480.034 65.1338 479.797C65.4528 479.56 65.7057 479.182 65.8926 478.662ZM61.8525 476.673H65.9062C65.8516 476.062 65.6966 475.604 65.4414 475.299C65.0495 474.825 64.5413 474.588 63.917 474.588C63.3519 474.588 62.8757 474.777 62.4883 475.155C62.1055 475.534 61.8936 476.039 61.8525 476.673ZM71.4023 479.899L71.5801 480.986C71.2337 481.059 70.9238 481.096 70.6504 481.096C70.2038 481.096 69.8574 481.025 69.6113 480.884C69.3652 480.743 69.1921 480.558 69.0918 480.33C68.9915 480.098 68.9414 479.612 68.9414 478.874V474.697H68.0391V473.74H68.9414V471.942L70.165 471.204V473.74H71.4023V474.697H70.165V478.942C70.165 479.293 70.1855 479.519 70.2266 479.619C70.2721 479.719 70.3428 479.799 70.4385 479.858C70.5387 479.918 70.68 479.947 70.8623 479.947C70.999 479.947 71.179 479.931 71.4023 479.899ZM77.582 478.662L78.8535 478.819C78.653 479.562 78.2816 480.139 77.7393 480.549C77.1969 480.959 76.5042 481.164 75.6611 481.164C74.5993 481.164 73.7562 480.838 73.1318 480.187C72.512 479.53 72.2021 478.612 72.2021 477.432C72.2021 476.21 72.5166 475.262 73.1455 474.588C73.7744 473.913 74.5902 473.576 75.5928 473.576C76.5635 473.576 77.3564 473.907 77.9717 474.567C78.5869 475.228 78.8945 476.158 78.8945 477.356C78.8945 477.429 78.8923 477.539 78.8877 477.685H73.4736C73.5192 478.482 73.7448 479.093 74.1504 479.517C74.556 479.94 75.0618 480.152 75.668 480.152C76.1191 480.152 76.5042 480.034 76.8232 479.797C77.1423 479.56 77.3952 479.182 77.582 478.662ZM73.542 476.673H77.5957C77.541 476.062 77.3861 475.604 77.1309 475.299C76.7389 474.825 76.2308 474.588 75.6064 474.588C75.0413 474.588 74.5651 474.777 74.1777 475.155C73.7949 475.534 73.583 476.039 73.542 476.673ZM80.4053 481V473.74H81.5127V474.772C82.0459 473.975 82.8161 473.576 83.8232 473.576C84.2607 473.576 84.6618 473.656 85.0264 473.815C85.3955 473.97 85.6712 474.175 85.8535 474.431C86.0358 474.686 86.1634 474.989 86.2363 475.34C86.2819 475.568 86.3047 475.966 86.3047 476.536V481H85.0742V476.584C85.0742 476.083 85.0264 475.709 84.9307 475.463C84.835 475.212 84.6641 475.014 84.418 474.868C84.1764 474.718 83.8916 474.643 83.5635 474.643C83.0394 474.643 82.5859 474.809 82.2031 475.142C81.8249 475.474 81.6357 476.105 81.6357 477.035V481H80.4053ZM92.9355 480.104C92.4798 480.492 92.04 480.765 91.6162 480.925C91.1969 481.084 90.7458 481.164 90.2627 481.164C89.4652 481.164 88.8522 480.97 88.4238 480.583C87.9954 480.191 87.7812 479.692 87.7812 479.086C87.7812 478.73 87.861 478.407 88.0205 478.115C88.1846 477.819 88.3965 477.582 88.6562 477.404C88.9206 477.227 89.2168 477.092 89.5449 477.001C89.7865 476.937 90.151 476.876 90.6387 476.816C91.6322 476.698 92.3636 476.557 92.833 476.393C92.8376 476.224 92.8398 476.117 92.8398 476.071C92.8398 475.57 92.7236 475.217 92.4912 475.012C92.1768 474.734 91.7096 474.595 91.0898 474.595C90.5111 474.595 90.0827 474.697 89.8047 474.902C89.5312 475.103 89.3285 475.461 89.1963 475.976L87.9932 475.812C88.1025 475.297 88.2826 474.882 88.5332 474.567C88.7839 474.248 89.1462 474.005 89.6201 473.836C90.0941 473.663 90.6432 473.576 91.2676 473.576C91.8874 473.576 92.391 473.649 92.7783 473.795C93.1657 473.941 93.4505 474.125 93.6328 474.349C93.8151 474.567 93.9427 474.845 94.0156 475.183C94.0566 475.392 94.0771 475.771 94.0771 476.317V477.958C94.0771 479.102 94.1022 479.826 94.1523 480.132C94.207 480.433 94.3118 480.722 94.4668 481H93.1816C93.054 480.745 92.972 480.446 92.9355 480.104ZM92.833 477.356C92.3864 477.539 91.7165 477.694 90.8232 477.821C90.3174 477.894 89.9596 477.976 89.75 478.067C89.5404 478.159 89.3786 478.293 89.2646 478.471C89.1507 478.644 89.0938 478.838 89.0938 479.052C89.0938 479.38 89.2168 479.653 89.4629 479.872C89.7135 480.091 90.0781 480.2 90.5566 480.2C91.0306 480.2 91.4521 480.098 91.8213 479.893C92.1904 479.683 92.4616 479.398 92.6348 479.038C92.7669 478.76 92.833 478.35 92.833 477.808V477.356ZM95.9639 481V470.979H97.1943V481H95.9639ZM110.312 477.486L111.639 477.821C111.361 478.91 110.859 479.742 110.135 480.316C109.415 480.886 108.533 481.171 107.489 481.171C106.409 481.171 105.53 480.952 104.851 480.515C104.176 480.073 103.661 479.435 103.306 478.601C102.955 477.767 102.779 476.871 102.779 475.914C102.779 474.87 102.978 473.961 103.374 473.187C103.775 472.407 104.342 471.817 105.076 471.416C105.814 471.01 106.626 470.808 107.51 470.808C108.512 470.808 109.355 471.063 110.039 471.573C110.723 472.084 111.199 472.801 111.468 473.727L110.162 474.034C109.93 473.305 109.592 472.774 109.15 472.441C108.708 472.109 108.152 471.942 107.482 471.942C106.712 471.942 106.067 472.127 105.548 472.496C105.033 472.865 104.671 473.362 104.461 473.986C104.251 474.606 104.146 475.246 104.146 475.907C104.146 476.759 104.27 477.505 104.516 478.143C104.766 478.776 105.154 479.25 105.678 479.564C106.202 479.879 106.769 480.036 107.38 480.036C108.123 480.036 108.752 479.822 109.267 479.394C109.782 478.965 110.13 478.329 110.312 477.486ZM112.664 477.37C112.664 476.026 113.038 475.03 113.785 474.383C114.41 473.845 115.171 473.576 116.068 473.576C117.066 473.576 117.882 473.904 118.516 474.561C119.149 475.212 119.466 476.115 119.466 477.268C119.466 478.202 119.325 478.938 119.042 479.476C118.764 480.009 118.356 480.424 117.818 480.72C117.285 481.016 116.702 481.164 116.068 481.164C115.052 481.164 114.229 480.838 113.601 480.187C112.976 479.535 112.664 478.596 112.664 477.37ZM113.929 477.37C113.929 478.3 114.132 478.997 114.537 479.462C114.943 479.922 115.453 480.152 116.068 480.152C116.679 480.152 117.187 479.92 117.593 479.455C117.998 478.99 118.201 478.282 118.201 477.329C118.201 476.431 117.996 475.752 117.586 475.292C117.18 474.827 116.674 474.595 116.068 474.595C115.453 474.595 114.943 474.825 114.537 475.285C114.132 475.745 113.929 476.44 113.929 477.37ZM120.888 481V470.979H122.118V481H120.888ZM123.574 477.37C123.574 476.026 123.948 475.03 124.695 474.383C125.32 473.845 126.081 473.576 126.979 473.576C127.977 473.576 128.792 473.904 129.426 474.561C130.059 475.212 130.376 476.115 130.376 477.268C130.376 478.202 130.235 478.938 129.952 479.476C129.674 480.009 129.266 480.424 128.729 480.72C128.195 481.016 127.612 481.164 126.979 481.164C125.962 481.164 125.14 480.838 124.511 480.187C123.886 479.535 123.574 478.596 123.574 477.37ZM124.839 477.37C124.839 478.3 125.042 478.997 125.447 479.462C125.853 479.922 126.363 480.152 126.979 480.152C127.589 480.152 128.097 479.92 128.503 479.455C128.909 478.99 129.111 478.282 129.111 477.329C129.111 476.431 128.906 475.752 128.496 475.292C128.09 474.827 127.585 474.595 126.979 474.595C126.363 474.595 125.853 474.825 125.447 475.285C125.042 475.745 124.839 476.44 124.839 477.37ZM131.812 481V473.74H132.919V474.841C133.201 474.326 133.461 473.986 133.698 473.822C133.94 473.658 134.204 473.576 134.491 473.576C134.906 473.576 135.327 473.708 135.756 473.973L135.332 475.114C135.031 474.937 134.73 474.848 134.43 474.848C134.161 474.848 133.919 474.93 133.705 475.094C133.491 475.253 133.338 475.477 133.247 475.764C133.11 476.201 133.042 476.68 133.042 477.199V481H131.812ZM139.174 479.899L139.352 480.986C139.005 481.059 138.695 481.096 138.422 481.096C137.975 481.096 137.629 481.025 137.383 480.884C137.137 480.743 136.964 480.558 136.863 480.33C136.763 480.098 136.713 479.612 136.713 478.874V474.697H135.811V473.74H136.713V471.942L137.937 471.204V473.74H139.174V474.697H137.937V478.942C137.937 479.293 137.957 479.519 137.998 479.619C138.044 479.719 138.114 479.799 138.21 479.858C138.31 479.918 138.451 479.947 138.634 479.947C138.771 479.947 138.951 479.931 139.174 479.899ZM145.354 478.662L146.625 478.819C146.424 479.562 146.053 480.139 145.511 480.549C144.968 480.959 144.276 481.164 143.433 481.164C142.371 481.164 141.528 480.838 140.903 480.187C140.284 479.53 139.974 478.612 139.974 477.432C139.974 476.21 140.288 475.262 140.917 474.588C141.546 473.913 142.362 473.576 143.364 473.576C144.335 473.576 145.128 473.907 145.743 474.567C146.358 475.228 146.666 476.158 146.666 477.356C146.666 477.429 146.664 477.539 146.659 477.685H141.245C141.291 478.482 141.516 479.093 141.922 479.517C142.327 479.94 142.833 480.152 143.439 480.152C143.891 480.152 144.276 480.034 144.595 479.797C144.914 479.56 145.167 479.182 145.354 478.662ZM141.313 476.673H145.367C145.312 476.062 145.158 475.604 144.902 475.299C144.51 474.825 144.002 474.588 143.378 474.588C142.813 474.588 142.337 474.777 141.949 475.155C141.566 475.534 141.354 476.039 141.313 476.673ZM152.914 478.341L154.124 478.498C153.992 479.332 153.652 479.986 153.105 480.46C152.563 480.929 151.896 481.164 151.103 481.164C150.109 481.164 149.309 480.84 148.703 480.193C148.102 479.542 147.801 478.61 147.801 477.397C147.801 476.614 147.931 475.928 148.19 475.34C148.45 474.752 148.844 474.312 149.373 474.021C149.906 473.724 150.485 473.576 151.109 473.576C151.898 473.576 152.543 473.777 153.044 474.178C153.545 474.574 153.867 475.139 154.008 475.873L152.812 476.058C152.698 475.57 152.495 475.203 152.203 474.957C151.916 474.711 151.567 474.588 151.157 474.588C150.537 474.588 150.034 474.811 149.646 475.258C149.259 475.7 149.065 476.402 149.065 477.363C149.065 478.339 149.252 479.047 149.626 479.489C150 479.931 150.487 480.152 151.089 480.152C151.572 480.152 151.975 480.004 152.299 479.708C152.622 479.412 152.827 478.956 152.914 478.341Z" fill="#2699FB"/>
<path d="M60.6562 500.979H61.9824V506.769C61.9824 507.776 61.8685 508.576 61.6406 509.168C61.4128 509.76 61.0003 510.243 60.4033 510.617C59.8109 510.986 59.0316 511.171 58.0654 511.171C57.1266 511.171 56.3587 511.009 55.7617 510.686C55.1647 510.362 54.7386 509.895 54.4834 509.284C54.2282 508.669 54.1006 507.83 54.1006 506.769V500.979H55.4268V506.762C55.4268 507.632 55.5065 508.275 55.666 508.689C55.8301 509.1 56.1081 509.416 56.5 509.64C56.8965 509.863 57.3796 509.975 57.9492 509.975C58.9245 509.975 59.6195 509.754 60.0342 509.312C60.4489 508.869 60.6562 508.02 60.6562 506.762V500.979ZM64.04 511V503.74H65.1475V504.772C65.6807 503.975 66.4508 503.576 67.458 503.576C67.8955 503.576 68.2965 503.656 68.6611 503.815C69.0303 503.97 69.306 504.175 69.4883 504.431C69.6706 504.686 69.7982 504.989 69.8711 505.34C69.9167 505.568 69.9395 505.966 69.9395 506.536V511H68.709V506.584C68.709 506.083 68.6611 505.709 68.5654 505.463C68.4697 505.212 68.2988 505.014 68.0527 504.868C67.8112 504.718 67.5264 504.643 67.1982 504.643C66.6742 504.643 66.2207 504.809 65.8379 505.142C65.4596 505.474 65.2705 506.105 65.2705 507.035V511H64.04ZM71.8398 502.394V500.979H73.0703V502.394H71.8398ZM71.8398 511V503.74H73.0703V511H71.8398ZM79.6875 508.341L80.8975 508.498C80.7653 509.332 80.4258 509.986 79.8789 510.46C79.3366 510.929 78.6689 511.164 77.876 511.164C76.8825 511.164 76.0827 510.84 75.4766 510.193C74.875 509.542 74.5742 508.61 74.5742 507.397C74.5742 506.614 74.7041 505.928 74.9639 505.34C75.2236 504.752 75.6178 504.312 76.1465 504.021C76.6797 503.724 77.2585 503.576 77.8828 503.576C78.6712 503.576 79.3161 503.777 79.8174 504.178C80.3187 504.574 80.64 505.139 80.7812 505.873L79.585 506.058C79.471 505.57 79.2682 505.203 78.9766 504.957C78.6895 504.711 78.3408 504.588 77.9307 504.588C77.3109 504.588 76.8073 504.811 76.4199 505.258C76.0326 505.7 75.8389 506.402 75.8389 507.363C75.8389 508.339 76.0257 509.047 76.3994 509.489C76.7731 509.931 77.2607 510.152 77.8623 510.152C78.3454 510.152 78.7487 510.004 79.0723 509.708C79.3958 509.412 79.6009 508.956 79.6875 508.341ZM81.4922 507.37C81.4922 506.026 81.8659 505.03 82.6133 504.383C83.2376 503.845 83.9987 503.576 84.8965 503.576C85.8945 503.576 86.7103 503.904 87.3438 504.561C87.9772 505.212 88.2939 506.115 88.2939 507.268C88.2939 508.202 88.1527 508.938 87.8701 509.476C87.5921 510.009 87.1842 510.424 86.6465 510.72C86.1133 511.016 85.5299 511.164 84.8965 511.164C83.8802 511.164 83.0576 510.838 82.4287 510.187C81.8044 509.535 81.4922 508.596 81.4922 507.37ZM82.7568 507.37C82.7568 508.3 82.9596 508.997 83.3652 509.462C83.7708 509.922 84.2812 510.152 84.8965 510.152C85.5072 510.152 86.0153 509.92 86.4209 509.455C86.8265 508.99 87.0293 508.282 87.0293 507.329C87.0293 506.431 86.8242 505.752 86.4141 505.292C86.0085 504.827 85.5026 504.595 84.8965 504.595C84.2812 504.595 83.7708 504.825 83.3652 505.285C82.9596 505.745 82.7568 506.44 82.7568 507.37ZM89.7158 511V500.979H90.9463V511H89.7158ZM92.4023 507.37C92.4023 506.026 92.776 505.03 93.5234 504.383C94.1478 503.845 94.9089 503.576 95.8066 503.576C96.8047 503.576 97.6204 503.904 98.2539 504.561C98.8874 505.212 99.2041 506.115 99.2041 507.268C99.2041 508.202 99.0628 508.938 98.7803 509.476C98.5023 510.009 98.0944 510.424 97.5566 510.72C97.0234 511.016 96.4401 511.164 95.8066 511.164C94.7904 511.164 93.9678 510.838 93.3389 510.187C92.7145 509.535 92.4023 508.596 92.4023 507.37ZM93.667 507.37C93.667 508.3 93.8698 508.997 94.2754 509.462C94.681 509.922 95.1914 510.152 95.8066 510.152C96.4173 510.152 96.9255 509.92 97.3311 509.455C97.7367 508.99 97.9395 508.282 97.9395 507.329C97.9395 506.431 97.7344 505.752 97.3242 505.292C96.9186 504.827 96.4128 504.595 95.8066 504.595C95.1914 504.595 94.681 504.825 94.2754 505.285C93.8698 505.745 93.667 506.44 93.667 507.37ZM100.64 511V503.74H101.747V504.841C102.03 504.326 102.289 503.986 102.526 503.822C102.768 503.658 103.032 503.576 103.319 503.576C103.734 503.576 104.156 503.708 104.584 503.973L104.16 505.114C103.859 504.937 103.559 504.848 103.258 504.848C102.989 504.848 102.747 504.93 102.533 505.094C102.319 505.253 102.166 505.477 102.075 505.764C101.938 506.201 101.87 506.68 101.87 507.199V511H100.64ZM109.369 511V500.979H113.149C113.815 500.979 114.323 501.01 114.674 501.074C115.166 501.156 115.578 501.313 115.911 501.546C116.244 501.774 116.51 502.095 116.711 502.51C116.916 502.924 117.019 503.38 117.019 503.877C117.019 504.729 116.747 505.451 116.205 506.044C115.663 506.632 114.683 506.926 113.266 506.926H110.695V511H109.369ZM110.695 505.743H113.286C114.143 505.743 114.751 505.584 115.111 505.265C115.471 504.946 115.651 504.497 115.651 503.918C115.651 503.499 115.544 503.141 115.33 502.845C115.12 502.544 114.842 502.346 114.496 502.25C114.273 502.191 113.86 502.161 113.259 502.161H110.695V505.743ZM118.092 507.37C118.092 506.026 118.465 505.03 119.213 504.383C119.837 503.845 120.598 503.576 121.496 503.576C122.494 503.576 123.31 503.904 123.943 504.561C124.577 505.212 124.894 506.115 124.894 507.268C124.894 508.202 124.752 508.938 124.47 509.476C124.192 510.009 123.784 510.424 123.246 510.72C122.713 511.016 122.13 511.164 121.496 511.164C120.48 511.164 119.657 510.838 119.028 510.187C118.404 509.535 118.092 508.596 118.092 507.37ZM119.356 507.37C119.356 508.3 119.559 508.997 119.965 509.462C120.37 509.922 120.881 510.152 121.496 510.152C122.107 510.152 122.615 509.92 123.021 509.455C123.426 508.99 123.629 508.282 123.629 507.329C123.629 506.431 123.424 505.752 123.014 505.292C122.608 504.827 122.102 504.595 121.496 504.595C120.881 504.595 120.37 504.825 119.965 505.285C119.559 505.745 119.356 506.44 119.356 507.37ZM127.683 511L125.461 503.74H126.732L127.888 507.931L128.318 509.489C128.337 509.412 128.462 508.913 128.694 507.992L129.85 503.74H131.114L132.201 507.951L132.563 509.339L132.98 507.938L134.225 503.74H135.421L133.151 511H131.873L130.718 506.652L130.438 505.415L128.968 511H127.683ZM141.17 511V510.084C140.71 510.804 140.033 511.164 139.14 511.164C138.561 511.164 138.028 511.005 137.54 510.686C137.057 510.367 136.681 509.922 136.412 509.353C136.148 508.778 136.016 508.12 136.016 507.377C136.016 506.652 136.136 505.996 136.378 505.408C136.619 504.816 136.982 504.362 137.465 504.048C137.948 503.733 138.488 503.576 139.085 503.576C139.522 503.576 139.912 503.67 140.254 503.856C140.596 504.039 140.874 504.278 141.088 504.574V500.979H142.312V511H141.17ZM137.28 507.377C137.28 508.307 137.476 509.002 137.868 509.462C138.26 509.922 138.723 510.152 139.256 510.152C139.794 510.152 140.249 509.934 140.623 509.496C141.001 509.054 141.19 508.382 141.19 507.479C141.19 506.486 140.999 505.757 140.616 505.292C140.233 504.827 139.762 504.595 139.201 504.595C138.654 504.595 138.196 504.818 137.827 505.265C137.463 505.711 137.28 506.415 137.28 507.377ZM149.223 508.662L150.494 508.819C150.294 509.562 149.922 510.139 149.38 510.549C148.838 510.959 148.145 511.164 147.302 511.164C146.24 511.164 145.397 510.838 144.772 510.187C144.153 509.53 143.843 508.612 143.843 507.432C143.843 506.21 144.157 505.262 144.786 504.588C145.415 503.913 146.231 503.576 147.233 503.576C148.204 503.576 148.997 503.907 149.612 504.567C150.228 505.228 150.535 506.158 150.535 507.356C150.535 507.429 150.533 507.539 150.528 507.685H145.114C145.16 508.482 145.385 509.093 145.791 509.517C146.197 509.94 146.702 510.152 147.309 510.152C147.76 510.152 148.145 510.034 148.464 509.797C148.783 509.56 149.036 509.182 149.223 508.662ZM145.183 506.673H149.236C149.182 506.062 149.027 505.604 148.771 505.299C148.38 504.825 147.871 504.588 147.247 504.588C146.682 504.588 146.206 504.777 145.818 505.155C145.436 505.534 145.224 506.039 145.183 506.673ZM152.032 511V503.74H153.14V504.841C153.422 504.326 153.682 503.986 153.919 503.822C154.16 503.658 154.425 503.576 154.712 503.576C155.127 503.576 155.548 503.708 155.977 503.973L155.553 505.114C155.252 504.937 154.951 504.848 154.65 504.848C154.382 504.848 154.14 504.93 153.926 505.094C153.712 505.253 153.559 505.477 153.468 505.764C153.331 506.201 153.263 506.68 153.263 507.199V511H152.032Z" fill="#2699FB"/>
<path d="M58.7695 537.069V535.894L63.0146 535.887V539.605C62.363 540.125 61.6908 540.517 60.998 540.781C60.3053 541.041 59.5944 541.171 58.8652 541.171C57.8809 541.171 56.9854 540.961 56.1787 540.542C55.3766 540.118 54.7705 539.507 54.3604 538.71C53.9502 537.912 53.7451 537.021 53.7451 536.037C53.7451 535.062 53.9479 534.153 54.3535 533.31C54.7637 532.462 55.3516 531.833 56.1172 531.423C56.8828 531.013 57.7646 530.808 58.7627 530.808C59.4873 530.808 60.1413 530.926 60.7246 531.163C61.3125 531.396 61.7728 531.721 62.1055 532.141C62.4382 532.56 62.6911 533.107 62.8643 533.781L61.668 534.109C61.5176 533.599 61.3307 533.198 61.1074 532.906C60.8841 532.615 60.5651 532.382 60.1504 532.209C59.7357 532.031 59.2754 531.942 58.7695 531.942C58.1634 531.942 57.6393 532.036 57.1973 532.223C56.7552 532.405 56.3975 532.646 56.124 532.947C55.8551 533.248 55.6455 533.578 55.4951 533.938C55.2399 534.558 55.1123 535.23 55.1123 535.955C55.1123 536.848 55.265 537.596 55.5703 538.197C55.8802 538.799 56.3291 539.245 56.917 539.537C57.5049 539.829 58.1292 539.975 58.79 539.975C59.3643 539.975 59.9248 539.865 60.4717 539.646C61.0186 539.423 61.4333 539.186 61.7158 538.936V537.069H58.7695ZM69.7891 538.662L71.0605 538.819C70.86 539.562 70.4886 540.139 69.9463 540.549C69.404 540.959 68.7113 541.164 67.8682 541.164C66.8063 541.164 65.9632 540.838 65.3389 540.187C64.7191 539.53 64.4092 538.612 64.4092 537.432C64.4092 536.21 64.7236 535.262 65.3525 534.588C65.9814 533.913 66.7972 533.576 67.7998 533.576C68.7705 533.576 69.5635 533.907 70.1787 534.567C70.7939 535.228 71.1016 536.158 71.1016 537.356C71.1016 537.429 71.0993 537.539 71.0947 537.685H65.6807C65.7262 538.482 65.9518 539.093 66.3574 539.517C66.763 539.94 67.2689 540.152 67.875 540.152C68.3262 540.152 68.7113 540.034 69.0303 539.797C69.3493 539.56 69.6022 539.182 69.7891 538.662ZM65.749 536.673H69.8027C69.748 536.062 69.5931 535.604 69.3379 535.299C68.946 534.825 68.4378 534.588 67.8135 534.588C67.2484 534.588 66.7721 534.777 66.3848 535.155C66.002 535.534 65.79 536.039 65.749 536.673ZM72.6123 541V533.74H73.7197V534.772C74.2529 533.975 75.0231 533.576 76.0303 533.576C76.4678 533.576 76.8688 533.656 77.2334 533.815C77.6025 533.97 77.8783 534.175 78.0605 534.431C78.2428 534.686 78.3704 534.989 78.4434 535.34C78.4889 535.568 78.5117 535.966 78.5117 536.536V541H77.2812V536.584C77.2812 536.083 77.2334 535.709 77.1377 535.463C77.042 535.212 76.8711 535.014 76.625 534.868C76.3835 534.718 76.0986 534.643 75.7705 534.643C75.2464 534.643 74.793 534.809 74.4102 535.142C74.0319 535.474 73.8428 536.105 73.8428 537.035V541H72.6123ZM85.375 538.662L86.6465 538.819C86.446 539.562 86.0745 540.139 85.5322 540.549C84.9899 540.959 84.2972 541.164 83.4541 541.164C82.3923 541.164 81.5492 540.838 80.9248 540.187C80.305 539.53 79.9951 538.612 79.9951 537.432C79.9951 536.21 80.3096 535.262 80.9385 534.588C81.5674 533.913 82.3831 533.576 83.3857 533.576C84.3564 533.576 85.1494 533.907 85.7646 534.567C86.3799 535.228 86.6875 536.158 86.6875 537.356C86.6875 537.429 86.6852 537.539 86.6807 537.685H81.2666C81.3122 538.482 81.5378 539.093 81.9434 539.517C82.349 539.94 82.8548 540.152 83.4609 540.152C83.9121 540.152 84.2972 540.034 84.6162 539.797C84.9352 539.56 85.1882 539.182 85.375 538.662ZM81.335 536.673H85.3887C85.334 536.062 85.179 535.604 84.9238 535.299C84.5319 534.825 84.0238 534.588 83.3994 534.588C82.8343 534.588 82.3581 534.777 81.9707 535.155C81.5879 535.534 81.376 536.039 81.335 536.673ZM88.1846 541V533.74H89.292V534.841C89.5745 534.326 89.8343 533.986 90.0713 533.822C90.3128 533.658 90.5771 533.576 90.8643 533.576C91.279 533.576 91.7005 533.708 92.1289 533.973L91.7051 535.114C91.4043 534.937 91.1035 534.848 90.8027 534.848C90.5339 534.848 90.2923 534.93 90.0781 535.094C89.8639 535.253 89.7113 535.477 89.6201 535.764C89.4834 536.201 89.415 536.68 89.415 537.199V541H88.1846ZM92.8672 532.394V530.979H94.0977V532.394H92.8672ZM92.8672 541V533.74H94.0977V541H92.8672ZM100.715 538.341L101.925 538.498C101.793 539.332 101.453 539.986 100.906 540.46C100.364 540.929 99.6963 541.164 98.9033 541.164C97.9098 541.164 97.11 540.84 96.5039 540.193C95.9023 539.542 95.6016 538.61 95.6016 537.397C95.6016 536.614 95.7314 535.928 95.9912 535.34C96.251 534.752 96.6452 534.312 97.1738 534.021C97.707 533.724 98.2858 533.576 98.9102 533.576C99.6986 533.576 100.343 533.777 100.845 534.178C101.346 534.574 101.667 535.139 101.809 535.873L100.612 536.058C100.498 535.57 100.296 535.203 100.004 534.957C99.7168 534.711 99.3682 534.588 98.958 534.588C98.3382 534.588 97.8346 534.811 97.4473 535.258C97.0599 535.7 96.8662 536.402 96.8662 537.363C96.8662 538.339 97.0531 539.047 97.4268 539.489C97.8005 539.931 98.2881 540.152 98.8896 540.152C99.3727 540.152 99.776 540.004 100.1 539.708C100.423 539.412 100.628 538.956 100.715 538.341ZM107.059 541V530.979H114.305V532.161H108.385V535.23H113.929V536.406H108.385V539.817H114.537V541H107.059ZM115.733 537.992V536.755H119.514V537.992H115.733ZM126.917 533.433L125.693 533.528C125.584 533.045 125.429 532.694 125.229 532.476C124.896 532.125 124.486 531.949 123.998 531.949C123.606 531.949 123.262 532.059 122.966 532.277C122.578 532.56 122.273 532.972 122.05 533.515C121.826 534.057 121.71 534.829 121.701 535.832C121.997 535.381 122.36 535.046 122.788 534.827C123.216 534.608 123.665 534.499 124.135 534.499C124.955 534.499 125.652 534.802 126.227 535.408C126.805 536.01 127.095 536.789 127.095 537.746C127.095 538.375 126.958 538.961 126.685 539.503C126.416 540.041 126.044 540.453 125.57 540.74C125.096 541.027 124.559 541.171 123.957 541.171C122.932 541.171 122.095 540.795 121.448 540.043C120.801 539.286 120.478 538.042 120.478 536.311C120.478 534.374 120.835 532.965 121.551 532.086C122.175 531.32 123.016 530.938 124.073 530.938C124.862 530.938 125.507 531.159 126.008 531.601C126.514 532.043 126.817 532.653 126.917 533.433ZM121.893 537.753C121.893 538.177 121.981 538.582 122.159 538.97C122.341 539.357 122.594 539.653 122.918 539.858C123.242 540.059 123.581 540.159 123.937 540.159C124.456 540.159 124.903 539.95 125.276 539.53C125.65 539.111 125.837 538.541 125.837 537.821C125.837 537.129 125.652 536.584 125.283 536.188C124.914 535.786 124.449 535.586 123.889 535.586C123.333 535.586 122.861 535.786 122.474 536.188C122.086 536.584 121.893 537.106 121.893 537.753ZM132.666 541V530.979H133.992V535.948L138.969 530.979H140.767L136.562 535.039L140.951 541H139.201L135.633 535.928L133.992 537.527V541H132.666ZM141.908 532.394V530.979H143.139V532.394H141.908ZM141.908 541V533.74H143.139V541H141.908ZM147.705 539.899L147.883 540.986C147.536 541.059 147.227 541.096 146.953 541.096C146.507 541.096 146.16 541.025 145.914 540.884C145.668 540.743 145.495 540.558 145.395 540.33C145.294 540.098 145.244 539.612 145.244 538.874V534.697H144.342V533.74H145.244V531.942L146.468 531.204V533.74H147.705V534.697H146.468V538.942C146.468 539.293 146.488 539.519 146.529 539.619C146.575 539.719 146.646 539.799 146.741 539.858C146.841 539.918 146.983 539.947 147.165 539.947C147.302 539.947 147.482 539.931 147.705 539.899Z" fill="#2699FB"/>
<defs>
<filter id="filter0_d" x="0" y="0" width="387" height="95" filterUnits="userSpaceOnUse" color-interpolation-filters="sRGB">
<feFlood flood-opacity="0" result="BackgroundImageFix"/>
<feColorMatrix in="SourceAlpha" type="matrix" values="0 0 0 0 0 0 0 0 0 0 0 0 0 0 0 0 0 0 127 0"/>
<feOffset dy="3"/>
<feGaussianBlur stdDeviation="3"/>
<feColorMatrix type="matrix" values="0 0 0 0 0 0 0 0 0 0 0 0 0 0 0 0 0 0 0.161 0"/>
<feBlend mode="normal" in2="BackgroundImageFix" result="effect1_dropShadow"/>
<feBlend mode="normal" in="SourceGraphic" in2="effect1_dropShadow" result="shape"/>
</filter>
<filter id="filter1_d" x="24" y="174" width="340" height="68" filterUnits="userSpaceOnUse" color-interpolation-filters="sRGB">
<feFlood flood-opacity="0" result="BackgroundImageFix"/>
<feColorMatrix in="SourceAlpha" type="matrix" values="0 0 0 0 0 0 0 0 0 0 0 0 0 0 0 0 0 0 127 0"/>
<feOffset dy="3"/>
<feGaussianBlur stdDeviation="3"/>
<feColorMatrix type="matrix" values="0 0 0 0 0 0 0 0 0 0 0 0 0 0 0 0 0 0 0.161 0"/>
<feBlend mode="normal" in2="BackgroundImageFix" result="effect1_dropShadow"/>
<feBlend mode="normal" in="SourceGraphic" in2="effect1_dropShadow" result="shape"/>
</filter>
</defs>
</svg>
