<svg width="387" height="815" viewBox="0 0 387 815" fill="none" xmlns="http://www.w3.org/2000/svg">
<path d="M381 3H6V815H381V3Z" fill="white"/>
<g filter="url(#filter0_d)">
<path d="M6 3H381V85H6V3Z" fill="white"/>
</g>
<path d="M102.401 141V119.525H105.316L116.595 136.386V119.525H119.32V141H116.405L105.126 124.125V141H102.401ZM134.423 135.99L137.147 136.327C136.718 137.919 135.922 139.154 134.76 140.033C133.597 140.912 132.113 141.352 130.306 141.352C128.031 141.352 126.224 140.653 124.886 139.257C123.558 137.851 122.894 135.883 122.894 133.354C122.894 130.736 123.568 128.705 124.916 127.26C126.263 125.814 128.011 125.092 130.16 125.092C132.24 125.092 133.939 125.8 135.258 127.216C136.576 128.632 137.235 130.624 137.235 133.192C137.235 133.349 137.23 133.583 137.22 133.896H125.619C125.717 135.604 126.2 136.913 127.069 137.821C127.938 138.729 129.022 139.184 130.321 139.184C131.288 139.184 132.113 138.93 132.797 138.422C133.48 137.914 134.022 137.104 134.423 135.99ZM125.765 131.728H134.452C134.335 130.419 134.003 129.438 133.456 128.783C132.616 127.768 131.527 127.26 130.189 127.26C128.978 127.26 127.958 127.665 127.128 128.476C126.307 129.286 125.853 130.37 125.765 131.728ZM143.344 141L138.583 125.443H141.307L143.783 134.423L144.706 137.763C144.745 137.597 145.013 136.527 145.511 134.555L147.987 125.443H150.697L153.026 134.467L153.802 137.44L154.696 134.438L157.362 125.443H159.926L155.062 141H152.323L149.847 131.684L149.247 129.032L146.097 141H143.344ZM170.839 141V119.525H178.939C180.365 119.525 181.454 119.594 182.206 119.73C183.26 119.906 184.144 120.243 184.857 120.741C185.57 121.229 186.141 121.918 186.571 122.807C187.01 123.695 187.23 124.672 187.23 125.736C187.23 127.562 186.649 129.11 185.487 130.38C184.325 131.64 182.225 132.27 179.188 132.27H173.68V141H170.839ZM173.68 129.735H179.232C181.068 129.735 182.372 129.394 183.143 128.71C183.915 128.026 184.301 127.064 184.301 125.824C184.301 124.926 184.071 124.159 183.612 123.524C183.163 122.88 182.567 122.455 181.825 122.25C181.346 122.123 180.463 122.06 179.174 122.06H173.68V129.735ZM190.482 141V125.443H192.855V127.802C193.461 126.698 194.017 125.971 194.525 125.619C195.043 125.268 195.609 125.092 196.224 125.092C197.113 125.092 198.016 125.375 198.934 125.941L198.026 128.388C197.382 128.007 196.737 127.816 196.093 127.816C195.516 127.816 194.999 127.992 194.54 128.344C194.081 128.686 193.754 129.164 193.558 129.779C193.265 130.717 193.119 131.742 193.119 132.855V141H190.482ZM199.52 133.222C199.52 130.341 200.321 128.207 201.923 126.82C203.26 125.668 204.891 125.092 206.815 125.092C208.954 125.092 210.702 125.795 212.059 127.201C213.417 128.598 214.095 130.531 214.095 133.002C214.095 135.004 213.793 136.581 213.187 137.733C212.592 138.876 211.718 139.765 210.565 140.399C209.423 141.034 208.173 141.352 206.815 141.352C204.637 141.352 202.875 140.653 201.527 139.257C200.189 137.86 199.52 135.849 199.52 133.222ZM202.23 133.222C202.23 135.214 202.665 136.708 203.534 137.704C204.403 138.69 205.497 139.184 206.815 139.184C208.124 139.184 209.213 138.686 210.082 137.689C210.951 136.693 211.385 135.175 211.385 133.134C211.385 131.21 210.946 129.755 210.067 128.769C209.198 127.772 208.114 127.274 206.815 127.274C205.497 127.274 204.403 127.768 203.534 128.754C202.665 129.74 202.23 131.229 202.23 133.222ZM227.352 135.302L229.945 135.639C229.662 137.426 228.934 138.827 227.762 139.843C226.6 140.849 225.17 141.352 223.47 141.352C221.342 141.352 219.628 140.658 218.329 139.271C217.04 137.875 216.395 135.878 216.395 133.28C216.395 131.601 216.674 130.131 217.23 128.871C217.787 127.611 218.632 126.669 219.764 126.044C220.907 125.409 222.147 125.092 223.485 125.092C225.175 125.092 226.556 125.521 227.631 126.381C228.705 127.23 229.393 128.441 229.696 130.014L227.133 130.409C226.888 129.364 226.454 128.578 225.829 128.051C225.214 127.523 224.467 127.26 223.588 127.26C222.26 127.26 221.18 127.738 220.35 128.695C219.52 129.643 219.105 131.146 219.105 133.207C219.105 135.297 219.506 136.815 220.306 137.763C221.107 138.71 222.152 139.184 223.441 139.184C224.476 139.184 225.341 138.866 226.034 138.231C226.727 137.597 227.167 136.62 227.352 135.302ZM242.85 135.99L245.575 136.327C245.145 137.919 244.349 139.154 243.187 140.033C242.025 140.912 240.541 141.352 238.734 141.352C236.459 141.352 234.652 140.653 233.314 139.257C231.986 137.851 231.322 135.883 231.322 133.354C231.322 130.736 231.996 128.705 233.344 127.26C234.691 125.814 236.439 125.092 238.588 125.092C240.668 125.092 242.367 125.8 243.685 127.216C245.004 128.632 245.663 130.624 245.663 133.192C245.663 133.349 245.658 133.583 245.648 133.896H234.047C234.144 135.604 234.628 136.913 235.497 137.821C236.366 138.729 237.45 139.184 238.749 139.184C239.716 139.184 240.541 138.93 241.224 138.422C241.908 137.914 242.45 137.104 242.85 135.99ZM234.193 131.728H242.88C242.762 130.419 242.43 129.438 241.884 128.783C241.044 127.768 239.955 127.26 238.617 127.26C237.406 127.26 236.385 127.665 235.555 128.476C234.735 129.286 234.281 130.37 234.193 131.728ZM247.845 136.356L250.453 135.946C250.599 136.991 251.005 137.792 251.669 138.349C252.343 138.905 253.28 139.184 254.481 139.184C255.692 139.184 256.591 138.939 257.177 138.451C257.762 137.953 258.055 137.372 258.055 136.708C258.055 136.112 257.797 135.644 257.279 135.302C256.918 135.067 256.019 134.77 254.584 134.408C252.65 133.92 251.307 133.5 250.555 133.148C249.813 132.787 249.247 132.294 248.856 131.669C248.475 131.034 248.285 130.336 248.285 129.574C248.285 128.881 248.441 128.241 248.754 127.655C249.076 127.06 249.51 126.566 250.057 126.176C250.468 125.873 251.024 125.619 251.727 125.414C252.44 125.199 253.202 125.092 254.012 125.092C255.233 125.092 256.302 125.268 257.22 125.619C258.148 125.971 258.832 126.449 259.271 127.055C259.711 127.65 260.013 128.451 260.179 129.457L257.601 129.809C257.484 129.008 257.142 128.383 256.576 127.934C256.019 127.484 255.228 127.26 254.203 127.26C252.992 127.26 252.128 127.46 251.61 127.86C251.093 128.261 250.834 128.729 250.834 129.267C250.834 129.608 250.941 129.916 251.156 130.189C251.371 130.473 251.708 130.707 252.167 130.893C252.43 130.99 253.207 131.215 254.496 131.566C256.361 132.064 257.66 132.475 258.392 132.797C259.135 133.109 259.716 133.568 260.135 134.174C260.555 134.779 260.765 135.531 260.765 136.43C260.765 137.309 260.507 138.139 259.989 138.92C259.481 139.691 258.744 140.292 257.777 140.722C256.81 141.142 255.717 141.352 254.496 141.352C252.474 141.352 250.931 140.932 249.867 140.092C248.812 139.252 248.138 138.007 247.845 136.356ZM262.845 136.356L265.453 135.946C265.599 136.991 266.005 137.792 266.669 138.349C267.343 138.905 268.28 139.184 269.481 139.184C270.692 139.184 271.591 138.939 272.177 138.451C272.762 137.953 273.055 137.372 273.055 136.708C273.055 136.112 272.797 135.644 272.279 135.302C271.918 135.067 271.019 134.77 269.584 134.408C267.65 133.92 266.307 133.5 265.555 133.148C264.813 132.787 264.247 132.294 263.856 131.669C263.475 131.034 263.285 130.336 263.285 129.574C263.285 128.881 263.441 128.241 263.754 127.655C264.076 127.06 264.51 126.566 265.057 126.176C265.468 125.873 266.024 125.619 266.727 125.414C267.44 125.199 268.202 125.092 269.012 125.092C270.233 125.092 271.302 125.268 272.22 125.619C273.148 125.971 273.832 126.449 274.271 127.055C274.711 127.65 275.013 128.451 275.179 129.457L272.601 129.809C272.484 129.008 272.142 128.383 271.576 127.934C271.019 127.484 270.228 127.26 269.203 127.26C267.992 127.26 267.128 127.46 266.61 127.86C266.093 128.261 265.834 128.729 265.834 129.267C265.834 129.608 265.941 129.916 266.156 130.189C266.371 130.473 266.708 130.707 267.167 130.893C267.43 130.99 268.207 131.215 269.496 131.566C271.361 132.064 272.66 132.475 273.392 132.797C274.135 133.109 274.716 133.568 275.135 134.174C275.555 134.779 275.765 135.531 275.765 136.43C275.765 137.309 275.507 138.139 274.989 138.92C274.481 139.691 273.744 140.292 272.777 140.722C271.81 141.142 270.717 141.352 269.496 141.352C267.474 141.352 265.931 140.932 264.867 140.092C263.812 139.252 263.138 138.007 262.845 136.356Z" fill="#2699FB"/>
<path d="M358 181H30V234H358V181Z" fill="white"/>
<path d="M357.75 181.25H30.25V233.75H357.75V181.25Z" stroke="#7FC4FD" stroke-width="0.5" stroke-linecap="round" stroke-linejoin="round"/>
<path d="M358 253H30V302H358V253Z" fill="white"/>
<path d="M357.75 253.25H30.25V301.75H357.75V253.25Z" stroke="#7FC4FD" stroke-width="0.5" stroke-linecap="round" stroke-linejoin="round"/>
<path d="M358 318H30V370H358V318Z" fill="white"/>
<path d="M357.75 318.25H30.25V369.75H357.75V318.25Z" stroke="#7FC4FD" stroke-width="0.5" stroke-linecap="round" stroke-linejoin="round"/>
<path d="M70 18H40C34.4772 18 30 22.4772 30 28V58C30 63.5228 34.4772 68 40 68H70C75.5228 68 80 63.5228 80 58V28C80 22.4772 75.5228 18 70 18Z" fill="#FAFAFA"/>
<path d="M70 19H40C35.0294 19 31 23.0294 31 28V58C31 62.9706 35.0294 67 40 67H70C74.9706 67 79 62.9706 79 58V28C79 23.0294 74.9706 19 70 19Z" stroke="#2699FB" stroke-width="2"/>
<path d="M56 51L57.455 49.545L51.949 44.039H64V41.961H51.948L57.455 36.455L56 35L48 43L56 51Z" fill="#2699FB"/>
<path d="M179.52 283V268.684H189.872V270.373H181.415V274.758H189.334V276.438H181.415V281.311H190.204V283H179.52ZM191.913 278.703V276.936H197.313V278.703H191.913ZM207.889 272.189L206.141 272.326C205.985 271.636 205.764 271.135 205.477 270.822C205.002 270.321 204.416 270.07 203.719 270.07C203.159 270.07 202.668 270.227 202.245 270.539C201.691 270.943 201.255 271.532 200.936 272.307C200.617 273.081 200.451 274.185 200.438 275.617C200.861 274.973 201.379 274.494 201.991 274.182C202.603 273.869 203.244 273.713 203.915 273.713C205.086 273.713 206.083 274.146 206.903 275.012C207.73 275.871 208.143 276.984 208.143 278.352C208.143 279.25 207.948 280.087 207.557 280.861C207.173 281.63 206.642 282.219 205.965 282.629C205.288 283.039 204.52 283.244 203.661 283.244C202.196 283.244 201.001 282.707 200.077 281.633C199.152 280.552 198.69 278.775 198.69 276.301C198.69 273.534 199.201 271.522 200.223 270.266C201.115 269.172 202.316 268.625 203.827 268.625C204.953 268.625 205.874 268.941 206.59 269.572C207.313 270.204 207.746 271.076 207.889 272.189ZM200.711 278.361C200.711 278.967 200.838 279.546 201.092 280.1C201.353 280.653 201.714 281.076 202.176 281.369C202.639 281.656 203.124 281.799 203.631 281.799C204.374 281.799 205.012 281.499 205.545 280.9C206.079 280.301 206.346 279.488 206.346 278.459C206.346 277.469 206.083 276.691 205.555 276.125C205.028 275.552 204.364 275.266 203.563 275.266C202.769 275.266 202.095 275.552 201.542 276.125C200.988 276.691 200.711 277.437 200.711 278.361Z" fill="#2699FB"/>
<path d="M184.083 207.98L185.977 208.459C185.58 210.015 184.864 211.203 183.829 212.023C182.8 212.837 181.54 213.244 180.05 213.244C178.507 213.244 177.25 212.932 176.28 212.307C175.316 211.675 174.581 210.764 174.073 209.572C173.572 208.381 173.321 207.102 173.321 205.734C173.321 204.243 173.604 202.945 174.171 201.838C174.744 200.725 175.554 199.882 176.602 199.309C177.657 198.729 178.816 198.439 180.079 198.439C181.511 198.439 182.716 198.804 183.692 199.533C184.669 200.262 185.349 201.288 185.733 202.609L183.868 203.049C183.536 202.007 183.054 201.249 182.423 200.773C181.791 200.298 180.997 200.061 180.04 200.061C178.94 200.061 178.018 200.324 177.276 200.852C176.54 201.379 176.023 202.089 175.723 202.98C175.424 203.866 175.274 204.781 175.274 205.725C175.274 206.942 175.45 208.007 175.802 208.918C176.16 209.823 176.713 210.5 177.462 210.949C178.21 211.398 179.021 211.623 179.893 211.623C180.955 211.623 181.853 211.317 182.589 210.705C183.324 210.093 183.822 209.185 184.083 207.98ZM187.413 208.703V206.936H192.813V208.703H187.413ZM199.903 213V209.572H193.692V207.961L200.225 198.684H201.661V207.961H203.594V209.572H201.661V213H199.903ZM199.903 207.961V201.506L195.421 207.961H199.903ZM212.022 213H210.264V201.799C209.841 202.202 209.285 202.606 208.594 203.01C207.911 203.413 207.296 203.716 206.749 203.918V202.219C207.732 201.757 208.591 201.197 209.327 200.539C210.063 199.882 210.583 199.243 210.889 198.625H212.022V213Z" fill="#2699FB"/>
<path d="M171.083 350V335.684H176.454C177.548 335.684 178.423 335.83 179.081 336.123C179.745 336.41 180.262 336.855 180.634 337.461C181.011 338.06 181.2 338.688 181.2 339.346C181.2 339.958 181.034 340.534 180.702 341.074C180.37 341.615 179.869 342.051 179.198 342.383C180.064 342.637 180.728 343.07 181.19 343.682C181.659 344.294 181.893 345.016 181.893 345.85C181.893 346.52 181.75 347.145 181.464 347.725C181.184 348.298 180.835 348.74 180.419 349.053C180.002 349.365 179.478 349.603 178.846 349.766C178.221 349.922 177.453 350 176.542 350H171.083ZM172.977 341.699H176.073C176.913 341.699 177.515 341.644 177.88 341.533C178.361 341.39 178.723 341.152 178.964 340.82C179.211 340.488 179.335 340.072 179.335 339.57C179.335 339.095 179.221 338.678 178.993 338.32C178.765 337.956 178.44 337.708 178.016 337.578C177.593 337.441 176.867 337.373 175.839 337.373H172.977V341.699ZM172.977 348.311H176.542C177.154 348.311 177.583 348.288 177.831 348.242C178.267 348.164 178.632 348.034 178.925 347.852C179.218 347.669 179.458 347.406 179.647 347.061C179.836 346.709 179.93 346.305 179.93 345.85C179.93 345.316 179.794 344.854 179.52 344.463C179.247 344.066 178.866 343.789 178.378 343.633C177.896 343.47 177.199 343.389 176.288 343.389H172.977V348.311ZM192.46 348.311C191.88 348.955 191.249 349.44 190.565 349.766C189.882 350.085 189.143 350.244 188.348 350.244C186.884 350.244 185.721 349.749 184.862 348.76C184.165 347.952 183.817 347.051 183.817 346.055C183.817 345.169 184.1 344.372 184.667 343.662C185.24 342.946 186.093 342.318 187.225 341.777C186.581 341.035 186.151 340.433 185.936 339.971C185.721 339.508 185.614 339.062 185.614 338.633C185.614 337.773 185.949 337.028 186.62 336.396C187.297 335.758 188.147 335.439 189.169 335.439C190.145 335.439 190.943 335.739 191.561 336.338C192.186 336.937 192.499 337.656 192.499 338.496C192.499 339.857 191.597 341.019 189.794 341.982L192.362 345.254C192.655 344.681 192.883 344.017 193.046 343.262L194.872 343.652C194.559 344.902 194.136 345.931 193.602 346.738C194.26 347.611 195.005 348.343 195.839 348.936L194.657 350.332C193.947 349.876 193.215 349.202 192.46 348.311ZM188.885 340.85C189.647 340.4 190.139 340.007 190.36 339.668C190.588 339.329 190.702 338.955 190.702 338.545C190.702 338.057 190.546 337.66 190.233 337.354C189.927 337.041 189.543 336.885 189.081 336.885C188.606 336.885 188.208 337.038 187.889 337.344C187.577 337.65 187.421 338.024 187.421 338.467C187.421 338.688 187.476 338.923 187.587 339.17C187.704 339.411 187.876 339.668 188.104 339.941L188.885 340.85ZM191.356 346.924L188.134 342.93C187.183 343.496 186.542 344.023 186.21 344.512C185.878 344.993 185.712 345.472 185.712 345.947C185.712 346.527 185.943 347.129 186.405 347.754C186.867 348.379 187.522 348.691 188.368 348.691C188.895 348.691 189.439 348.529 189.999 348.203C190.565 347.871 191.018 347.445 191.356 346.924ZM200.341 350L196.542 335.684H198.485L200.663 345.068C200.897 346.051 201.099 347.028 201.268 347.998C201.633 346.468 201.848 345.586 201.913 345.352L204.637 335.684H206.923L208.973 342.93C209.488 344.727 209.859 346.416 210.087 347.998C210.269 347.093 210.507 346.055 210.8 344.883L213.046 335.684H214.95L211.024 350H209.198L206.18 339.092C205.927 338.18 205.777 337.62 205.731 337.412C205.581 338.07 205.441 338.63 205.311 339.092L202.274 350H200.341Z" fill="#2699FB"/>
<defs>
<filter id="filter0_d" x="0" y="0" width="387" height="94" filterUnits="userSpaceOnUse" color-interpolation-filters="sRGB">
<feFlood flood-opacity="0" result="BackgroundImageFix"/>
<feColorMatrix in="SourceAlpha" type="matrix" values="0 0 0 0 0 0 0 0 0 0 0 0 0 0 0 0 0 0 127 0"/>
<feOffset dy="3"/>
<feGaussianBlur stdDeviation="3"/>
<feColorMatrix type="matrix" values="0 0 0 0 0 0 0 0 0 0 0 0 0 0 0 0 0 0 0.161 0"/>
<feBlend mode="normal" in2="BackgroundImageFix" result="effect1_dropShadow"/>
<feBlend mode="normal" in="SourceGraphic" in2="effect1_dropShadow" result="shape"/>
</filter>
</defs>
</svg>
