<svg width="951" height="951" viewBox="0 0 951 951" fill="none" xmlns="http://www.w3.org/2000/svg">
<circle cx="475.723" cy="475.809" r="459.598" fill="white" stroke="#F2AF00" stroke-width="31"/>
<g clip-path="url(#clip0)">
<path d="M607.507 659.617C601.683 659.02 596.414 663.372 595.88 669.238L594.131 687.969L476.947 674.593C471.23 673.889 465.79 678.113 465.128 683.98C464.445 689.825 468.669 695.116 474.515 695.777L602.515 710.412C602.92 710.455 603.326 710.476 603.731 710.476C606.163 710.476 608.552 709.644 610.451 708.087C612.67 706.295 614.078 703.671 614.355 700.812L617.128 671.244C617.683 665.377 613.352 660.171 607.507 659.617Z" fill="#F2AF00"/>
<path d="M476.989 329.058L274.323 305.207C268.264 304.503 263.187 308.663 262.462 314.487L219.795 655.82C219.454 658.636 220.243 661.495 222.014 663.735C223.763 665.975 226.345 667.426 229.182 667.746L343.742 680.845C344.169 680.888 344.553 680.909 344.979 680.909C350.312 680.909 354.942 676.898 355.56 671.458C356.243 665.613 352.019 660.322 346.173 659.661L242.323 647.778L282.344 327.629L474.493 350.242C480.594 351.031 485.672 346.743 486.333 340.898C487.037 335.052 482.835 329.74 476.989 329.058Z" fill="#F2AF00"/>
<path d="M589.928 318.944C585.768 314.784 579.005 314.784 574.845 318.944L521.512 372.277C517.352 376.437 517.352 383.2 521.512 387.36C523.603 389.429 526.333 390.475 529.064 390.475C531.795 390.475 534.525 389.43 536.595 387.36L589.928 334.027C594.088 329.866 594.088 323.104 589.928 318.944Z" fill="#F2AF00"/>
<path d="M731.645 655.84L688.979 314.506C688.254 308.682 682.878 304.543 677.139 305.226L647.742 308.682C641.875 309.365 637.694 314.677 638.398 320.522C639.081 326.367 644.414 330.591 650.238 329.866L669.118 327.647L709.139 647.754L357.331 687.967L327.315 367.839L587.859 337.204C593.726 336.521 597.907 331.209 597.203 325.364C596.52 319.519 591.102 315.188 585.363 316.02L314.472 347.893C308.733 348.554 304.573 353.696 305.107 359.477L337.107 700.81C337.384 703.647 338.792 706.293 341.011 708.085C342.91 709.642 345.299 710.474 347.731 710.474C348.136 710.474 348.542 710.453 348.926 710.431L722.259 667.764C725.096 667.423 727.678 665.993 729.427 663.753C731.197 661.514 732.008 658.656 731.645 655.84Z" fill="#F2AF00"/>
<path d="M614.397 241.141C584.978 241.141 561.064 265.077 561.064 294.474C561.064 323.871 584.979 347.807 614.397 347.807C643.815 347.807 667.73 323.871 667.73 294.474C667.73 265.077 643.816 241.141 614.397 241.141ZM614.397 326.474C596.754 326.474 582.397 312.117 582.397 294.474C582.397 276.831 596.754 262.474 614.397 262.474C632.04 262.474 646.397 276.831 646.397 294.474C646.397 312.117 632.04 326.474 614.397 326.474Z" fill="#F2AF00"/>
</g>
<defs>
<clipPath id="clip0">
<rect x="219.717" y="219.801" width="512.013" height="512.013" fill="white"/>
</clipPath>
</defs>
</svg>
