<svg width="951" height="951" viewBox="0 0 951 951" fill="none" xmlns="http://www.w3.org/2000/svg">
<circle cx="475.703" cy="475.614" r="459.598" fill="white" stroke="#F2AF00" stroke-width="31"/>
<path d="M632.981 422.875L621.518 435.404L673.647 483.191C685.919 494.481 692.914 510.389 692.918 527.06V735.14H709.918V527.06C709.897 505.618 700.904 485.172 685.115 470.66L632.981 422.875Z" fill="#F2AF00" stroke="#F2AF00" stroke-width="6"/>
<path d="M565.418 225.141H344.418C320.958 225.17 301.948 244.181 301.918 267.641V692.641C301.948 716.101 320.958 735.111 344.418 735.141H556.918V719.934C556.878 681.644 568.212 644.195 589.49 612.358C591.742 608.984 591.29 604.494 588.427 601.631L528.927 542.131C523.428 536.625 520.512 529.054 520.897 521.283C521.284 513.507 524.937 506.265 530.95 501.331C542.534 492.476 558.915 493.741 569.005 504.262L652.908 588.167L664.927 576.148L607.918 519.122V267.641C607.888 244.181 588.878 225.17 565.418 225.141ZM590.918 502.122L581.024 492.228C564.717 475.568 538.49 473.832 520.13 488.203C510.419 496.184 504.526 507.902 503.912 520.463C503.3 533.021 508.017 545.255 516.908 554.15L571.563 608.807C551.18 641.653 540.249 679.487 539.977 718.141H344.418C330.338 718.141 318.918 706.721 318.918 692.641V667.141H531.418V650.141H318.918V293.141H590.918V502.122ZM590.918 276.141H318.918V267.641C318.918 253.56 330.338 242.141 344.418 242.141H565.418C579.498 242.141 590.918 253.56 590.918 267.641V276.141Z" fill="#F2AF00" stroke="#F2AF00" stroke-width="6"/>
<path d="M352.918 378.141H386.918C396.308 378.141 403.918 370.531 403.918 361.141V327.141C403.918 317.75 396.308 310.141 386.918 310.141H352.918C343.527 310.141 335.918 317.75 335.918 327.141V361.141C335.918 370.531 343.527 378.141 352.918 378.141ZM352.918 327.141H386.918V361.141H352.918V327.141Z" fill="#F2AF00" stroke="#F2AF00" stroke-width="6"/>
<path d="M437.918 378.141H471.918C481.308 378.141 488.918 370.531 488.918 361.141V327.141C488.918 317.75 481.308 310.141 471.918 310.141H437.918C428.528 310.141 420.918 317.75 420.918 327.141V361.141C420.918 370.531 428.528 378.141 437.918 378.141ZM437.918 327.141H471.918V361.141H437.918V327.141Z" fill="#F2AF00" stroke="#F2AF00" stroke-width="6"/>
<path d="M522.917 378.141H556.917C566.308 378.141 573.917 370.531 573.917 361.141V327.141C573.917 317.75 566.308 310.141 556.917 310.141H522.917C513.527 310.141 505.917 317.75 505.917 327.141V361.141C505.917 370.531 513.527 378.141 522.917 378.141ZM522.917 327.141H556.917V361.141H522.917V327.141Z" fill="#F2AF00" stroke="#F2AF00" stroke-width="6"/>
<path d="M352.918 463.141H386.918C396.308 463.141 403.918 455.531 403.918 446.141V412.141C403.918 402.75 396.308 395.141 386.918 395.141H352.918C343.527 395.141 335.918 402.75 335.918 412.141V446.141C335.918 455.531 343.527 463.141 352.918 463.141ZM352.918 412.141H386.918V446.141H352.918V412.141Z" fill="#F2AF00" stroke="#F2AF00" stroke-width="6"/>
<path d="M352.918 548.141H386.918C396.308 548.141 403.918 540.531 403.918 531.141V497.141C403.918 487.75 396.308 480.141 386.918 480.141H352.918C343.527 480.141 335.918 487.75 335.918 497.141V531.141C335.918 540.531 343.527 548.141 352.918 548.141ZM352.918 497.141H386.918V531.141H352.918V497.141Z" fill="#F2AF00" stroke="#F2AF00" stroke-width="6"/>
<path d="M437.918 463.141H471.918C481.308 463.141 488.918 455.531 488.918 446.141V412.141C488.918 402.75 481.308 395.141 471.918 395.141H437.918C428.528 395.141 420.918 402.75 420.918 412.141V446.141C420.918 455.531 428.528 463.141 437.918 463.141ZM437.918 412.141H471.918V446.141H437.918V412.141Z" fill="#F2AF00" stroke="#F2AF00" stroke-width="6"/>
<path d="M522.917 463.141H556.917C566.308 463.141 573.917 455.531 573.917 446.141V412.141C573.917 402.75 566.308 395.141 556.917 395.141H522.917C513.527 395.141 505.917 402.75 505.917 412.141V446.141C505.917 455.531 513.527 463.141 522.917 463.141ZM522.917 412.141H556.917V446.141H522.917V412.141Z" fill="#F2AF00" stroke="#F2AF00" stroke-width="6"/>
<path d="M437.918 548.141H471.918C481.308 548.141 488.918 540.531 488.918 531.141V497.141C488.918 487.75 481.308 480.141 471.918 480.141H437.918C428.528 480.141 420.918 487.75 420.918 497.141V531.141C420.918 540.531 428.528 548.141 437.918 548.141ZM437.918 497.141H471.918V531.141H437.918V497.141Z" fill="#F2AF00" stroke="#F2AF00" stroke-width="6"/>
<path d="M352.918 633.141H386.918C396.308 633.141 403.918 625.531 403.918 616.141V582.141C403.918 572.75 396.308 565.141 386.918 565.141H352.918C343.527 565.141 335.918 572.75 335.918 582.141V616.141C335.918 625.531 343.527 633.141 352.918 633.141ZM352.918 582.141H386.918V616.141H352.918V582.141Z" fill="#F2AF00" stroke="#F2AF00" stroke-width="6"/>
<path d="M437.918 633.141H471.918C481.308 633.141 488.918 625.531 488.918 616.141V582.141C488.918 572.75 481.308 565.141 471.918 565.141H437.918C428.528 565.141 420.918 572.75 420.918 582.141V616.141C420.918 625.531 428.528 633.141 437.918 633.141ZM437.918 582.141H471.918V616.141H437.918V582.141Z" fill="#F2AF00" stroke="#F2AF00" stroke-width="6"/>
<path d="M446.418 684.141H463.418V701.141H446.418V684.141Z" fill="#F2AF00" stroke="#F2AF00" stroke-width="6"/>
</svg>
