<svg width="952" height="951" viewBox="0 0 952 951" fill="none" xmlns="http://www.w3.org/2000/svg">
<circle cx="475.918" cy="475.809" r="459.598" fill="white" stroke="#F2AF00" stroke-width="31"/>
<path d="M423.453 641.504L405.969 699.809H387.918V715.809H563.918V699.809H545.879L540.406 681.512L525.078 686.105L529.176 699.809H422.672L438.781 646.113L423.453 641.504Z" fill="#F2AF00" stroke="#F2AF00" stroke-width="6"/>
<path d="M675.919 571.808H665.583C677.376 511.132 644.31 450.66 586.864 427.843C529.419 405.031 463.873 426.335 430.822 478.566C397.771 530.796 406.584 599.155 451.795 641.299C497.009 683.444 565.818 687.436 615.599 650.799L673.298 708.494C680.438 715.635 691.177 717.772 700.509 713.909C709.837 710.041 715.919 700.94 715.919 690.838C715.938 684.213 713.305 677.854 708.606 673.182L649.575 614.151L648.552 615.175C653.919 606.596 658.243 597.409 661.431 587.807H699.919V603.807C699.919 612.643 692.755 619.807 683.919 619.807V635.807C701.595 635.807 715.919 621.479 715.919 603.807V331.808C715.919 314.137 701.595 299.809 683.919 299.809V315.809C692.755 315.809 699.919 322.973 699.919 331.808V571.808H675.919ZM697.298 684.495C699.864 687.061 700.63 690.92 699.243 694.272C697.852 697.623 694.579 699.811 690.95 699.807C688.575 699.799 686.298 698.854 684.606 697.182L627.919 640.503C632.274 636.385 636.333 631.964 640.071 627.28L697.298 684.495ZM539.919 659.807C478.064 659.807 427.92 609.663 427.92 547.808C427.92 485.952 478.064 435.808 539.919 435.808C601.775 435.808 651.919 485.952 651.919 547.808C651.853 609.635 601.747 659.741 539.919 659.807Z" fill="#F2AF00" stroke="#F2AF00" stroke-width="6"/>
<path d="M267.918 635.807H403.917V619.807H267.918C259.082 619.807 251.918 612.643 251.918 603.807V587.807H395.917V571.807H251.918V331.808C251.918 322.973 259.082 315.809 267.918 315.809V299.809C250.246 299.809 235.918 314.137 235.918 331.808V603.807C235.918 621.479 250.246 635.807 267.918 635.807Z" fill="#F2AF00" stroke="#F2AF00" stroke-width="6"/>
<path d="M299.918 267.808C299.918 258.973 307.082 251.809 315.918 251.809H571.917V283.808H507.917C505.796 283.808 503.761 284.652 502.261 286.152L342.261 446.152C339.14 449.276 339.14 454.339 342.261 457.464L390.261 505.464L401.574 494.151L359.23 451.808L511.23 299.808H572.718C575.358 312.543 584.003 323.203 595.917 328.418V384.495L574.261 406.152L585.573 417.464L609.573 393.464C611.073 391.964 611.917 389.929 611.917 387.808V331.808H651.916V459.808H667.916V323.808C667.916 323.64 667.83 323.488 667.823 323.32C667.776 322.613 667.635 321.914 667.405 321.242C667.319 320.984 667.252 320.746 667.143 320.496C666.752 319.625 666.209 318.832 665.541 318.152L585.542 238.152C584.866 237.484 584.077 236.945 583.214 236.551C582.952 236.445 582.686 236.352 582.413 236.273C581.772 236.055 581.104 235.922 580.429 235.871C580.268 235.906 580.1 235.809 579.917 235.809H315.918C298.246 235.809 283.918 250.137 283.918 267.808V555.807H299.918V267.808ZM640.604 315.808H611.917C598.663 315.808 587.917 305.062 587.917 291.808V263.121L640.604 315.808Z" fill="#F2AF00" stroke="#F2AF00" stroke-width="6"/>
<path d="M315.918 267.809H331.918V283.809H315.918V267.809Z" fill="#F2AF00" stroke="#F2AF00" stroke-width="6"/>
<path d="M347.918 267.809H363.918V283.809H347.918V267.809Z" fill="#F2AF00" stroke="#F2AF00" stroke-width="6"/>
<path d="M379.918 267.809H395.918V283.809H379.918V267.809Z" fill="#F2AF00" stroke="#F2AF00" stroke-width="6"/>
<path d="M579.918 331.809C579.918 340.645 572.754 347.809 563.918 347.809C555.082 347.809 547.918 340.645 547.918 331.809C547.918 322.973 555.082 315.809 563.918 315.809C572.754 315.809 579.918 322.973 579.918 331.809Z" fill="#F2AF00" stroke="#F2AF00" stroke-width="6"/>
<path d="M390.262 449.465L401.574 438.152L425.578 462.152L414.262 473.465L390.262 449.465Z" fill="#F2AF00" stroke="#F2AF00" stroke-width="6"/>
<path d="M414.262 425.469L425.574 414.152L449.578 438.156L438.262 449.469L414.262 425.469Z" fill="#F2AF00" stroke="#F2AF00" stroke-width="6"/>
<path d="M525.116 370.61L532.077 405.376L547.757 402.243L539.757 362.243C539.124 359.079 536.651 356.602 533.487 355.969L493.487 347.969C490.87 347.442 488.167 348.262 486.284 350.153L462.284 374.153C460.405 376.04 459.585 378.739 460.101 381.352L468.101 421.352L483.78 418.215L476.632 382.419L494.573 364.465L525.116 370.61Z" fill="#F2AF00" stroke="#F2AF00" stroke-width="6"/>
<path d="M315.918 315.809H395.918V331.809H315.918V315.809Z" fill="#F2AF00" stroke="#F2AF00" stroke-width="6"/>
<path d="M315.918 347.809H395.918V363.809H315.918V347.809Z" fill="#F2AF00" stroke="#F2AF00" stroke-width="6"/>
<path d="M315.918 379.809H363.918V395.809H315.918V379.809Z" fill="#F2AF00" stroke="#F2AF00" stroke-width="6"/>
<path d="M315.918 507.809H371.918V523.809H315.918V507.809Z" fill="#F2AF00" stroke="#F2AF00" stroke-width="6"/>
<path d="M315.918 539.809H395.918V555.809H315.918V539.809Z" fill="#F2AF00" stroke="#F2AF00" stroke-width="6"/>
<path d="M635.918 547.809C635.918 494.789 592.938 451.809 539.918 451.809C486.898 451.809 443.918 494.789 443.918 547.809C443.918 600.828 486.898 643.809 539.918 643.809C592.938 643.809 635.918 600.828 635.918 547.809ZM507.918 547.809C507.918 530.137 522.246 515.809 539.918 515.809C557.594 515.809 571.918 530.137 571.918 547.809C571.918 565.48 557.594 579.809 539.918 579.809C522.246 579.809 507.918 565.48 507.918 547.809ZM498.613 572.137C484.871 566.879 472.504 558.559 462.453 547.809C472.504 537.059 484.871 528.738 498.613 523.48C489.688 538.469 489.688 557.148 498.613 572.137ZM581.223 523.48C594.965 528.738 607.332 537.059 617.383 547.809C607.332 558.559 594.965 566.879 581.223 572.137C590.152 557.148 590.152 538.469 581.223 523.48V523.48ZM539.918 467.809C575.496 467.852 606.781 491.367 616.719 525.527C596.109 509.59 570.941 500.668 544.895 500.066C541.602 499.723 538.285 499.723 534.992 500.066C508.93 500.656 483.742 509.582 463.117 525.527C473.055 491.367 504.34 467.852 539.918 467.809V467.809ZM539.918 627.809C504.34 627.766 473.055 604.25 463.117 570.09C483.727 586.027 508.898 594.949 534.941 595.551C538.234 595.895 541.555 595.895 544.848 595.551C570.91 594.961 596.098 586.035 616.719 570.09C606.781 604.25 575.496 627.766 539.918 627.809Z" fill="#F2AF00" stroke="#F2AF00" stroke-width="6"/>
<path d="M555.918 547.809C555.918 556.645 548.754 563.809 539.918 563.809C531.082 563.809 523.918 556.645 523.918 547.809C523.918 538.973 531.082 531.809 539.918 531.809C548.754 531.809 555.918 538.973 555.918 547.809Z" fill="#F2AF00" stroke="#F2AF00" stroke-width="6"/>
</svg>
