<svg width="959" height="959" viewBox="0 0 959 959" fill="none" xmlns="http://www.w3.org/2000/svg">
<g filter="url(#filter0_d)">
<circle cx="479.723" cy="475.2" r="459.598" fill="white" stroke="#F2AF00" stroke-width="31"/>
<path d="M696.611 287.071C700.995 281.591 703.723 274.743 703.723 267.199C703.723 249.551 689.371 235.199 671.723 235.199C654.075 235.199 639.723 249.551 639.723 267.199C639.723 274.743 642.451 281.591 646.835 287.071C633.227 293.463 623.723 307.199 623.723 323.199V339.199C623.723 343.623 627.299 347.199 631.723 347.199H711.723C716.147 347.199 719.723 343.623 719.723 339.199V323.199C719.723 307.199 710.219 293.463 696.611 287.071ZM671.723 251.199C680.547 251.199 687.723 258.375 687.723 267.199C687.723 276.023 680.547 283.199 671.723 283.199C662.899 283.199 655.723 276.023 655.723 267.199C655.723 258.375 662.899 251.199 671.723 251.199ZM703.723 331.199H639.723V323.199C639.723 309.967 650.491 299.199 663.723 299.199H679.723C692.955 299.199 703.723 309.967 703.723 323.199V331.199Z" fill="#F2AF00"/>
<path d="M632.611 479.071C636.995 473.591 639.723 466.743 639.723 459.199C639.723 441.551 625.371 427.199 607.723 427.199C601.211 427.199 595.155 429.175 590.099 432.535C586.947 421.239 579.059 411.975 568.611 407.071C572.995 401.591 575.723 394.743 575.723 387.199C575.723 369.551 561.371 355.199 543.723 355.199C537.211 355.199 531.155 357.175 526.099 360.535C522.947 349.239 515.059 339.975 504.611 335.071C508.995 329.591 511.723 322.743 511.723 315.199C511.723 297.551 497.371 283.199 479.723 283.199C462.075 283.199 447.723 297.551 447.723 315.199C447.723 322.743 450.451 329.591 454.835 335.071C441.227 341.463 431.723 355.199 431.723 371.199V387.199C431.723 391.623 435.299 395.199 439.723 395.199H512.859C514.003 399.615 516.067 403.615 518.835 407.071C505.227 413.463 495.723 427.199 495.723 443.199V459.199C495.723 463.623 499.299 467.199 503.723 467.199H576.859C578.003 471.615 580.067 475.615 582.835 479.071C569.227 485.463 559.723 499.199 559.723 515.199V531.199C559.723 535.623 563.299 539.199 567.723 539.199H647.723C652.147 539.199 655.723 535.623 655.723 531.199V515.199C655.723 499.199 646.219 485.463 632.611 479.071ZM479.723 299.199C488.547 299.199 495.723 306.375 495.723 315.199C495.723 324.023 488.547 331.199 479.723 331.199C470.899 331.199 463.723 324.023 463.723 315.199C463.723 306.375 470.899 299.199 479.723 299.199ZM511.723 379.199H447.723V371.199C447.723 357.967 458.491 347.199 471.723 347.199H487.723C500.955 347.199 511.723 357.967 511.723 371.199V379.199ZM543.723 371.199C552.547 371.199 559.723 378.375 559.723 387.199C559.723 396.023 552.547 403.199 543.723 403.199C534.899 403.199 527.723 396.023 527.723 387.199C527.723 378.375 534.899 371.199 543.723 371.199ZM575.723 451.199H511.723V443.199C511.723 429.967 522.491 419.199 535.723 419.199H551.723C564.955 419.199 575.723 429.967 575.723 443.199V451.199ZM607.723 443.199C616.547 443.199 623.723 450.375 623.723 459.199C623.723 468.023 616.547 475.199 607.723 475.199C598.899 475.199 591.723 468.023 591.723 459.199C591.723 450.375 598.899 443.199 607.723 443.199ZM639.723 523.199H575.723V515.199C575.723 501.967 586.491 491.199 599.723 491.199H615.723C628.955 491.199 639.723 501.967 639.723 515.199V523.199Z" fill="#F2AF00"/>
<path d="M602.056 341.518L586.059 357.516L597.372 368.829L613.37 352.832L602.056 341.518Z" fill="#F2AF00"/>
<path d="M671.723 395.199H655.723V419.199H671.723V395.199Z" fill="#F2AF00"/>
<path d="M559.723 283.199H535.723V299.199H559.723V283.199Z" fill="#F2AF00"/>
<path d="M474.056 469.546L458.059 485.543L469.372 496.857L485.37 480.859L474.056 469.546Z" fill="#F2AF00"/>
<path d="M543.723 523.199H527.723V547.199H543.723V523.199Z" fill="#F2AF00"/>
<path d="M431.723 411.199H407.723V427.199H431.723V411.199Z" fill="#F2AF00"/>
<path d="M568.611 655.071C572.995 649.591 575.723 642.743 575.723 635.199C575.723 617.551 561.371 603.199 543.723 603.199C537.731 603.199 532.179 604.959 527.379 607.831C526.139 593.295 517.235 580.999 504.603 575.071C508.995 569.591 511.723 562.743 511.723 555.199C511.723 537.551 497.371 523.199 479.723 523.199C473.211 523.199 467.155 525.175 462.099 528.535C458.947 517.239 451.059 507.975 440.611 503.071C444.995 497.591 447.723 490.743 447.723 483.199C447.723 465.551 433.371 451.199 415.723 451.199C409.211 451.199 403.155 453.175 398.099 456.535C394.947 445.239 387.059 435.975 376.611 431.071C380.995 425.591 383.723 418.743 383.723 411.199C383.723 393.551 369.371 379.199 351.723 379.199C345.211 379.199 339.155 381.175 334.099 384.535C330.947 373.239 323.059 363.975 312.611 359.071C316.995 353.591 319.723 346.743 319.723 339.199C319.723 321.551 305.371 307.199 287.723 307.199C270.075 307.199 255.723 321.551 255.723 339.199C255.723 346.743 258.451 353.591 262.835 359.071C249.227 365.463 239.723 379.199 239.723 395.199V411.199C239.723 415.623 243.299 419.199 247.723 419.199H320.859C322.003 423.615 324.067 427.615 326.835 431.071C316.387 435.975 308.499 445.239 305.347 456.535C300.291 453.175 294.235 451.199 287.723 451.199C270.075 451.199 255.723 465.551 255.723 483.199C255.723 490.743 258.451 497.591 262.835 503.071C249.227 509.463 239.723 523.199 239.723 539.199V555.199C239.723 559.623 243.299 563.199 247.723 563.199H320.859C322.003 567.615 324.067 571.615 326.835 575.071C318.379 579.047 311.563 585.855 307.595 594.311C302.115 589.927 295.267 587.199 287.723 587.199C270.075 587.199 255.723 601.551 255.723 619.199C255.723 626.743 258.451 633.591 262.835 639.071C249.227 645.463 239.723 659.199 239.723 675.199V691.199C239.723 695.623 243.299 699.199 247.723 699.199H327.723C332.147 699.199 335.723 695.623 335.723 691.199V675.199C335.723 659.199 326.219 645.463 312.611 639.071C313.595 637.847 314.483 636.567 315.275 635.199H384.859C386.003 639.615 388.067 643.615 390.835 647.071C377.227 653.463 367.723 667.199 367.723 683.199V699.199C367.723 703.623 371.299 707.199 375.723 707.199H455.723C460.147 707.199 463.723 703.623 463.723 699.199V683.199C463.723 667.199 454.219 653.463 440.611 647.071C443.379 643.615 445.443 639.615 446.587 635.199H511.723C511.723 642.743 514.451 649.591 518.835 655.071C505.227 661.463 495.723 675.199 495.723 691.199V707.199C495.723 711.623 499.299 715.199 503.723 715.199H583.723C588.147 715.199 591.723 711.623 591.723 707.199V691.199C591.723 675.199 582.219 661.463 568.611 655.071ZM287.723 323.199C296.547 323.199 303.723 330.375 303.723 339.199C303.723 348.023 296.547 355.199 287.723 355.199C278.899 355.199 271.723 348.023 271.723 339.199C271.723 330.375 278.899 323.199 287.723 323.199ZM319.723 403.199H255.723V395.199C255.723 381.967 266.491 371.199 279.723 371.199H295.723C308.955 371.199 319.723 381.967 319.723 395.199V403.199ZM287.723 603.199C296.547 603.199 303.723 610.375 303.723 619.199C303.723 628.023 296.547 635.199 287.723 635.199C278.899 635.199 271.723 628.023 271.723 619.199C271.723 610.375 278.899 603.199 287.723 603.199ZM319.723 675.199V683.199H255.723V675.199C255.723 661.967 266.491 651.199 279.723 651.199H295.723C308.955 651.199 319.723 661.967 319.723 675.199ZM479.723 539.199C488.547 539.199 495.723 546.375 495.723 555.199C495.723 564.023 488.547 571.199 479.723 571.199C470.899 571.199 463.723 564.023 463.723 555.199C463.723 546.375 470.899 539.199 479.723 539.199ZM415.723 467.199C424.547 467.199 431.723 474.375 431.723 483.199C431.723 492.023 424.547 499.199 415.723 499.199C406.899 499.199 399.723 492.023 399.723 483.199C399.723 474.375 406.899 467.199 415.723 467.199ZM407.723 515.199H423.723C436.955 515.199 447.723 525.967 447.723 539.199V547.199H383.723V539.199C383.723 525.967 394.491 515.199 407.723 515.199ZM351.723 395.199C360.547 395.199 367.723 402.375 367.723 411.199C367.723 420.023 360.547 427.199 351.723 427.199C342.899 427.199 335.723 420.023 335.723 411.199C335.723 402.375 342.899 395.199 351.723 395.199ZM319.723 467.199C319.723 453.967 330.491 443.199 343.723 443.199H359.723C372.955 443.199 383.723 453.967 383.723 467.199V475.199H319.723V467.199ZM287.723 467.199C296.547 467.199 303.723 474.375 303.723 483.199C303.723 492.023 296.547 499.199 287.723 499.199C278.899 499.199 271.723 492.023 271.723 483.199C271.723 474.375 278.899 467.199 287.723 467.199ZM319.723 547.199H255.723V539.199C255.723 525.967 266.491 515.199 279.723 515.199H295.723C308.955 515.199 319.723 525.967 319.723 539.199V547.199ZM312.611 503.071C315.379 499.615 317.443 495.615 318.587 491.199H384.859C386.003 495.615 388.067 499.615 390.835 503.071C380.387 507.975 372.499 517.239 369.347 528.535C364.291 525.175 358.235 523.199 351.723 523.199C345.211 523.199 339.155 525.175 334.099 528.535C330.947 517.239 323.059 507.975 312.611 503.071ZM367.723 555.199C367.723 564.023 360.547 571.199 351.723 571.199C342.899 571.199 335.723 564.023 335.723 555.199C335.723 546.375 342.899 539.199 351.723 539.199C360.547 539.199 367.723 546.375 367.723 555.199ZM383.723 619.199H319.723V611.199C319.723 597.967 330.491 587.199 343.723 587.199H359.723C372.955 587.199 383.723 597.967 383.723 611.199V619.199ZM447.723 683.199V691.199H383.723V683.199C383.723 669.967 394.491 659.199 407.723 659.199H423.723C436.955 659.199 447.723 669.967 447.723 683.199ZM399.723 627.199C399.723 618.375 406.899 611.199 415.723 611.199C424.547 611.199 431.723 618.375 431.723 627.199C431.723 636.023 424.547 643.199 415.723 643.199C406.899 643.199 399.723 636.023 399.723 627.199ZM433.347 600.535C428.291 597.175 422.235 595.199 415.723 595.199C409.211 595.199 403.155 597.175 398.099 600.535C394.947 589.239 387.059 579.975 376.611 575.071C379.379 571.615 381.443 567.615 382.587 563.199H448.859C450.003 567.615 452.067 571.615 454.835 575.071C444.387 579.975 436.499 589.239 433.347 600.535ZM511.723 619.199H447.723V611.199C447.723 597.967 458.491 587.199 471.723 587.199H487.723C500.955 587.199 511.723 597.967 511.723 611.199V619.199ZM543.723 619.199C552.547 619.199 559.723 626.375 559.723 635.199C559.723 644.023 552.547 651.199 543.723 651.199C534.899 651.199 527.723 644.023 527.723 635.199C527.723 626.375 534.899 619.199 543.723 619.199ZM575.723 699.199H511.723V691.199C511.723 677.967 522.491 667.199 535.723 667.199H551.723C564.955 667.199 575.723 677.967 575.723 691.199V699.199Z" fill="#F2AF00"/>
</g>
<defs>
<filter id="filter0_d" x="0.625" y="0.101562" width="958.196" height="958.196" filterUnits="userSpaceOnUse" color-interpolation-filters="sRGB">
<feFlood flood-opacity="0" result="BackgroundImageFix"/>
<feColorMatrix in="SourceAlpha" type="matrix" values="0 0 0 0 0 0 0 0 0 0 0 0 0 0 0 0 0 0 127 0"/>
<feOffset dy="4"/>
<feGaussianBlur stdDeviation="2"/>
<feColorMatrix type="matrix" values="0 0 0 0 0 0 0 0 0 0 0 0 0 0 0 0 0 0 0.25 0"/>
<feBlend mode="normal" in2="BackgroundImageFix" result="effect1_dropShadow"/>
<feBlend mode="normal" in="SourceGraphic" in2="effect1_dropShadow" result="shape"/>
</filter>
</defs>
</svg>
