<svg width="951" height="951" viewBox="0 0 951 951" fill="none" xmlns="http://www.w3.org/2000/svg">
<circle cx="475.309" cy="475.614" r="459.598" fill="white" stroke="#F2AF00" stroke-width="31"/>
<path d="M683.07 559.745C680.262 558.581 677.03 559.224 674.88 561.373L592.754 643.499C590.605 645.649 589.962 648.881 591.126 651.689C592.288 654.498 595.03 656.328 598.069 656.328H680.195C684.346 656.328 687.71 652.964 687.71 648.813V566.687C687.709 563.648 685.878 560.908 683.07 559.745ZM616.209 641.299L672.678 584.83V641.299H616.209Z" fill="#F2AF00" stroke="#F2AF00" stroke-width="11"/>
<path d="M737.396 439.289C734.588 438.125 731.356 438.768 729.206 440.917L706.699 463.424V310.393C706.699 306.242 703.334 302.878 699.184 302.878H641.443L662.403 281.918C662.406 281.915 662.409 281.911 662.412 281.908L682.608 261.712C686.935 257.385 689.318 251.629 689.318 245.509C689.318 239.389 686.935 233.635 682.608 229.306L659.254 205.952C654.927 201.625 649.171 199.242 643.051 199.242C636.931 199.242 631.176 201.625 626.848 205.952L606.642 226.158L582.226 250.574L529.923 302.877H296.655V228.532C296.655 224.381 293.29 221.017 289.14 221.017C256.55 221.019 230.035 247.532 230.035 280.124V599.31C230.035 599.865 230.099 600.405 230.213 600.925C231.251 614.754 237.234 627.603 247.233 637.357C257.921 647.781 272.03 653.522 286.962 653.522H516.6L473.351 696.771C471.202 698.921 470.559 702.152 471.722 704.961C472.885 707.769 475.626 709.6 478.665 709.6H734.52C738.67 709.6 742.035 706.236 742.035 702.085V446.232C742.035 443.193 740.203 440.452 737.396 439.289ZM637.478 216.581C640.55 213.507 645.555 213.507 648.627 216.581L671.982 239.936C675.056 243.009 675.056 248.012 671.982 251.086L657.091 265.978L622.585 231.473L637.478 216.581ZM611.957 242.101L646.462 276.605L632.673 290.394L598.17 255.89L611.957 242.101ZM727.007 530.674H713.142C708.991 530.674 705.627 534.038 705.627 538.189C705.627 542.34 708.991 545.704 713.142 545.704H727.007V568.35H713.142C708.991 568.35 705.627 571.714 705.627 575.865C705.627 580.016 708.991 583.38 713.142 583.38H727.007V606.025H713.142C708.991 606.025 705.627 609.389 705.627 613.54C705.627 617.691 708.991 621.055 713.142 621.055H727.007V643.701H713.142C708.991 643.701 705.627 647.066 705.627 651.216C705.627 655.367 708.991 658.731 713.142 658.731H727.007V694.573H496.807L572.715 618.666C575.65 615.73 575.65 610.973 572.715 608.038C572.378 607.701 572.016 607.409 571.637 607.149C568.711 605.145 564.685 605.44 562.086 608.038L531.63 638.494H286.963C264.171 638.494 245.823 620.7 245.101 597.949C245.144 596.521 245.255 595.105 245.433 593.705C245.434 593.697 245.435 593.689 245.436 593.681C245.52 593.016 245.621 592.354 245.736 591.696C245.749 591.621 245.763 591.546 245.776 591.471C245.881 590.884 245.999 590.3 246.128 589.718C246.164 589.556 246.202 589.394 246.24 589.233C246.354 588.741 246.477 588.252 246.609 587.765C246.681 587.501 246.756 587.24 246.833 586.977C246.943 586.595 247.057 586.214 247.178 585.837C247.299 585.46 247.428 585.087 247.559 584.714C247.65 584.453 247.74 584.192 247.838 583.933C248.021 583.441 248.215 582.954 248.415 582.471C248.472 582.332 248.528 582.191 248.587 582.052C248.844 581.452 249.111 580.859 249.393 580.273C249.405 580.248 249.416 580.223 249.428 580.198C255.306 568.034 266.611 558.965 280.178 556.151C280.216 556.143 280.254 556.134 280.292 556.126C280.914 555.999 281.542 555.89 282.174 555.789C282.279 555.772 282.384 555.751 282.491 555.735C283.062 555.648 283.639 555.58 284.216 555.515C284.378 555.497 284.539 555.472 284.702 555.456C285.259 555.4 285.821 555.363 286.383 555.328C286.561 555.317 286.739 555.298 286.917 555.289C287.653 555.252 288.395 555.233 289.14 555.233C293.29 555.233 296.655 551.869 296.655 547.718V493.229C296.655 489.078 293.29 485.714 289.14 485.714C284.99 485.714 281.625 489.078 281.625 493.229V540.676C268.935 542.281 257.156 547.941 247.868 557.011C246.891 557.965 245.965 558.957 245.063 559.965V280.124C245.063 258.383 260.889 240.266 281.624 236.688V310.393V463.17V463.171C281.624 467.321 284.989 470.686 289.139 470.686C293.289 470.686 296.654 467.321 296.654 463.171V463.17V317.908H514.894L473.35 359.452C470.415 362.388 470.415 367.145 473.35 370.08C476.285 373.014 481.043 373.014 483.977 370.08L538.35 315.707C538.352 315.705 538.353 315.703 538.355 315.702L587.54 266.517L622.043 301.022L617.995 305.07C617.992 305.073 617.988 305.076 617.985 305.079L466.457 456.609L431.953 422.105L461.821 392.237C464.756 389.301 464.756 384.544 461.821 381.609C458.886 378.675 454.128 378.675 451.194 381.609L416.011 416.791C415.823 416.979 415.647 417.178 415.482 417.382C415.427 417.45 415.378 417.523 415.326 417.594C415.22 417.735 415.116 417.877 415.019 418.025C414.964 418.111 414.914 418.199 414.862 418.288C414.779 418.428 414.699 418.57 414.626 418.715C414.578 418.809 414.535 418.904 414.491 419.002C414.424 419.149 414.362 419.299 414.305 419.449C414.285 419.502 414.259 419.552 414.24 419.605L399.599 461.08L389.617 489.359C389.485 489.735 389.39 490.117 389.319 490.502H364.327C360.177 490.502 356.812 493.866 356.812 498.017C356.812 502.168 360.177 505.532 364.327 505.532H572.441C576.592 505.532 579.956 502.168 579.956 498.017C579.956 493.866 576.592 490.502 572.441 490.502H423.128L468.958 474.324C468.996 474.31 469.032 474.291 469.07 474.277C469.248 474.211 469.423 474.137 469.596 474.058C469.665 474.026 469.734 473.996 469.801 473.963C469.981 473.873 470.158 473.774 470.332 473.668C470.388 473.634 470.446 473.603 470.501 473.568C470.682 473.452 470.858 473.325 471.031 473.191C471.074 473.158 471.119 473.129 471.161 473.095C471.37 472.927 471.575 472.746 471.769 472.552L626.413 317.909H691.668V478.455L584.172 585.952C581.237 588.888 581.237 593.645 584.172 596.58C584.355 596.763 584.546 596.935 584.743 597.096C586.121 598.219 587.804 598.781 589.486 598.781C591.168 598.781 592.852 598.219 594.229 597.096C594.426 596.936 594.617 596.763 594.8 596.58C594.803 596.577 594.8 596.58 594.803 596.577L727.007 464.372V530.674ZM452.712 464.118L431.186 471.717L416.844 457.375L424.443 435.849L452.712 464.118Z" fill="#F2AF00" stroke="#F2AF00" stroke-width="11"/>
</svg>
