<svg width="951" height="951" viewBox="0 0 951 951" fill="none" xmlns="http://www.w3.org/2000/svg">
<circle cx="475.504" cy="475.809" r="459.598" fill="white" stroke="#F2AF00" stroke-width="31"/>
<path d="M662.37 314.808C658.227 314.808 654.87 318.165 654.87 322.308C654.87 365.269 621.857 400.648 579.87 404.452V317.308C579.87 288.361 556.318 264.809 527.37 264.809C498.423 264.809 474.871 288.361 474.871 317.308V479.567C465.178 491.556 459.871 506.502 459.871 521.973C459.871 524.391 460.001 526.824 460.258 529.219L474.916 663.123C475.332 666.927 478.545 669.807 482.371 669.807H489.871V708.902L464.999 717.192C461.069 718.502 458.946 722.75 460.256 726.679C461.304 729.822 464.23 731.809 467.37 731.809C468.156 731.809 468.956 731.684 469.743 731.422L499.743 721.422C502.806 720.401 504.871 717.535 504.871 714.307V669.807H512.371C516.513 669.807 519.87 666.45 519.87 662.307V534.808H534.87V662.307C534.87 666.45 538.227 669.807 542.37 669.807H549.87V714.307C549.87 717.536 551.935 720.402 554.998 721.422L584.998 731.422C585.785 731.684 586.585 731.809 587.371 731.809C590.511 731.809 593.437 729.822 594.485 726.679C595.795 722.749 593.672 718.501 589.742 717.192L564.87 708.902V669.807H572.37C576.196 669.807 579.409 666.927 579.825 663.123L594.487 529.199C594.741 526.817 594.87 524.386 594.87 521.972C594.87 506.5 589.563 491.555 579.87 479.566V419.518C630.14 415.674 669.87 373.546 669.87 322.308C669.87 318.165 666.513 314.808 662.37 314.808V314.808ZM564.87 474.809H489.871V427.746C501.312 434.845 514.336 438.415 527.37 438.415C540.401 438.415 553.43 434.86 564.87 427.764V474.809ZM527.37 279.809C539.612 279.809 550.501 285.707 557.35 294.808H497.392C504.24 285.707 515.128 279.809 527.37 279.809ZM490.626 309.808H564.116C564.61 312.232 564.871 314.74 564.871 317.308C564.871 337.986 548.049 354.808 527.371 354.808C506.694 354.808 489.872 337.986 489.872 317.308C489.871 314.74 490.132 312.232 490.626 309.808ZM527.37 369.808C542.049 369.808 555.333 363.745 564.87 354V409.082C554.546 418.375 541.345 423.463 527.37 423.463C513.395 423.463 500.195 418.376 489.871 409.082V354C499.408 363.745 512.691 369.808 527.37 369.808ZM579.574 527.586L565.646 654.807H549.87V527.308C549.87 523.165 546.513 519.808 542.37 519.808H512.371C508.228 519.808 504.871 523.165 504.871 527.308V654.807H489.095L475.17 527.603C474.972 525.753 474.871 523.859 474.871 521.973C474.871 510.286 478.776 498.992 485.909 489.809H568.832C575.965 498.992 579.87 510.287 579.87 521.973C579.87 523.857 579.769 525.752 579.574 527.586Z" fill="#F2AF00" stroke="#F2AF00" stroke-width="2"/>
<path d="M678.619 219.809C672.749 219.809 667.105 221.592 662.369 224.842C657.633 221.592 651.989 219.809 646.119 219.809C630.266 219.809 617.369 232.694 617.369 248.532C617.369 280.547 657.662 298.441 659.378 299.187C660.332 299.602 661.351 299.809 662.369 299.809C663.387 299.809 664.406 299.602 665.36 299.187C667.076 298.441 707.369 280.546 707.369 248.532C707.369 232.694 694.472 219.809 678.619 219.809ZM662.387 283.955C654.273 279.687 632.369 266.496 632.369 248.532C632.369 240.966 638.537 234.809 646.119 234.809C650.177 234.809 654.011 236.594 656.638 239.706C658.063 241.394 660.16 242.369 662.369 242.369C664.578 242.369 666.676 241.394 668.1 239.706C670.727 236.594 674.561 234.809 678.619 234.809C686.201 234.809 692.369 240.965 692.369 248.532C692.369 266.663 670.528 279.719 662.387 283.955Z" fill="#F2AF00" stroke="#F2AF00" stroke-width="2"/>
<path d="M422.371 579.809H384.871V557.309C384.871 553.166 381.514 549.809 377.371 549.809H317.371C313.228 549.809 309.871 553.166 309.871 557.309V579.809H272.371C259.965 579.809 249.871 589.903 249.871 602.309V699.309C249.871 711.715 259.965 721.809 272.371 721.809H422.371C434.777 721.809 444.871 711.715 444.871 699.309V602.309C444.871 589.903 434.777 579.809 422.371 579.809ZM399.871 594.809V706.809H384.871V594.809H399.871ZM369.871 706.809H324.871V594.809H369.871V706.809ZM324.871 564.809H369.871V579.809H324.871V564.809ZM309.871 706.809H294.87V594.809H309.871V706.809ZM264.871 699.309V602.309C264.871 598.173 268.235 594.809 272.371 594.809H279.87V706.809H272.371C268.235 706.809 264.871 703.445 264.871 699.309ZM429.871 699.309C429.871 703.445 426.507 706.809 422.371 706.809H414.871V594.809H422.371C426.507 594.809 429.871 598.173 429.871 602.309V699.309Z" fill="#F2AF00" stroke="#F2AF00" stroke-width="2"/>
<path d="M459.871 462.311C459.871 462.309 459.871 392.309 459.871 392.309C459.871 371.631 443.049 354.809 422.371 354.809C401.693 354.809 384.871 371.631 384.871 392.309V462.309C384.871 482.987 401.693 499.809 422.371 499.809C443.047 499.809 459.869 482.989 459.871 462.311ZM405.407 425.736C410.505 428.334 416.267 429.809 422.371 429.809C430.807 429.809 438.599 427.008 444.871 422.289V454.267C427.562 451.779 412.962 440.819 405.407 425.736ZM422.371 369.809C434.777 369.809 444.871 379.903 444.871 392.309C444.871 404.715 434.777 414.809 422.371 414.809C409.965 414.809 399.871 404.715 399.871 392.309C399.871 379.903 409.965 369.809 422.371 369.809ZM422.371 484.809C409.965 484.809 399.871 474.715 399.871 462.309V444.672C410.552 457.883 426.104 466.986 443.772 469.244C440.841 478.267 432.358 484.809 422.371 484.809Z" fill="#F2AF00" stroke="#F2AF00" stroke-width="2"/>
</svg>
