<svg width="951" height="951" viewBox="0 0 951 951" fill="none" xmlns="http://www.w3.org/2000/svg">
<circle cx="475.114" cy="475.614" r="459.598" fill="white" stroke="#F2AF00" stroke-width="31"/>
<path d="M700.183 324.533L609.183 233.546C607.308 231.671 604.765 230.617 602.113 230.617H305.113C288.571 230.617 275.113 244.075 275.113 260.617V279.681C225.988 298.951 191.113 346.832 191.113 402.708C191.113 408.23 195.591 412.708 201.113 412.708H323.204C328.726 412.708 333.204 408.23 333.204 402.708V280.617C333.204 275.095 328.726 270.617 323.204 270.617C313.566 270.617 304.17 271.664 295.113 273.634V260.617C295.113 255.103 299.599 250.617 305.113 250.617H592.113V311.617C592.113 328.159 605.571 341.617 622.113 341.617H683.113V712.617C683.113 718.131 678.627 722.617 673.113 722.617H305.113C299.599 722.617 295.113 718.131 295.113 712.617V626.95C295.113 621.428 290.635 616.95 285.113 616.95C279.591 616.95 275.113 621.428 275.113 626.95V712.617C275.113 729.159 288.571 742.617 305.113 742.617H673.113C689.655 742.617 703.113 729.159 703.113 712.617V331.604C703.113 328.952 702.059 326.408 700.183 324.533ZM313.203 291.06V392.708H211.555C216.336 338.86 259.356 295.841 313.203 291.06ZM622.113 321.617C616.599 321.617 612.113 317.131 612.113 311.617V264.757L668.981 321.617H622.113Z" fill="#F2AF00" stroke="#F2AF00" stroke-width="5"/>
<path d="M292.182 583.547C290.323 581.686 287.743 580.617 285.113 580.617C282.483 580.617 279.903 581.686 278.043 583.547C276.183 585.407 275.113 587.987 275.113 590.617C275.113 593.247 276.182 595.827 278.043 597.686C279.903 599.547 282.483 600.617 285.113 600.617C287.743 600.617 290.323 599.547 292.182 597.686C294.043 595.827 295.113 593.247 295.113 590.617C295.113 587.987 294.043 585.407 292.182 583.547Z" fill="#F2AF00"/>
<path d="M359.024 306.438C353.502 306.438 349.024 310.916 349.024 316.438V428.527H236.934C231.412 428.527 226.934 433.005 226.934 438.527C226.934 511.362 286.189 570.618 359.024 570.618C431.859 570.618 491.115 511.362 491.115 438.527C491.115 365.692 431.859 306.438 359.024 306.438ZM369.024 326.881C392.434 328.959 413.795 338.268 430.86 352.55L369.024 414.385V326.881ZM359.024 550.618C300.587 550.618 252.45 505.669 247.377 448.527H359.024C361.784 448.527 364.282 447.41 366.092 445.602C366.093 445.601 366.094 445.6 366.096 445.598L445.005 366.691C461.296 386.158 471.115 411.217 471.115 438.527C471.115 500.334 420.831 550.618 359.024 550.618Z" fill="#F2AF00" stroke="#F2AF00" stroke-width="5"/>
<path d="M629.188 546.219C612.646 546.219 599.188 559.677 599.188 576.219C599.188 580.365 600.034 584.316 601.561 587.911L543.948 645.524C539.989 643.595 535.545 642.51 530.853 642.51C526.272 642.51 521.93 643.546 518.043 645.389L479.785 607.131C481.111 603.747 481.847 600.068 481.847 596.218C481.847 579.676 468.389 566.218 451.847 566.218C435.305 566.218 421.847 579.676 421.847 596.218C421.847 600.7 422.842 604.952 424.612 608.775L387.917 645.47C384.008 643.6 379.634 642.551 375.02 642.551C358.478 642.551 345.02 656.009 345.02 672.551C345.02 689.093 358.478 702.551 375.02 702.551C391.562 702.551 405.02 689.093 405.02 672.551C405.02 667.914 403.962 663.52 402.076 659.597L438.566 623.107C442.573 625.095 447.081 626.218 451.849 626.218C457.234 626.218 462.287 624.785 466.66 622.291L503.839 659.47C501.927 663.415 500.853 667.839 500.853 672.51C500.853 689.052 514.311 702.51 530.853 702.51C547.395 702.51 560.853 689.052 560.853 672.51C560.853 667.952 559.827 663.63 558 659.758L615.075 602.683C619.284 604.937 624.089 606.219 629.188 606.219C645.73 606.219 659.188 592.761 659.188 576.219C659.188 559.677 645.73 546.219 629.188 546.219ZM375.019 682.552C369.505 682.552 365.019 678.066 365.019 672.552C365.019 667.038 369.505 662.552 375.019 662.552C377.704 662.552 380.139 663.621 381.937 665.349C381.977 665.391 382.012 665.436 382.053 665.477C382.101 665.525 382.153 665.565 382.202 665.611C383.942 667.411 385.019 669.857 385.019 672.552C385.019 678.065 380.533 682.552 375.019 682.552ZM451.847 606.218C446.333 606.218 441.847 601.732 441.847 596.218C441.847 590.704 446.333 586.218 451.847 586.218C457.361 586.218 461.847 590.704 461.847 596.218C461.847 601.732 457.361 606.218 451.847 606.218ZM530.851 682.51C525.337 682.51 520.851 678.024 520.851 672.51C520.851 666.996 525.337 662.51 530.851 662.51C536.365 662.51 540.851 666.996 540.851 672.51C540.851 678.024 536.365 682.51 530.851 682.51ZM629.186 586.218C623.672 586.218 619.186 581.732 619.186 576.218C619.186 570.704 623.673 566.218 629.186 566.218C634.7 566.218 639.186 570.704 639.186 576.218C639.186 581.732 634.7 586.218 629.186 586.218Z" fill="#F2AF00" stroke="#F2AF00" stroke-width="5"/>
<path d="M579.203 465.617H526.424C520.902 465.617 516.424 470.095 516.424 475.617C516.424 481.139 520.901 485.617 526.424 485.617H579.203C584.725 485.617 589.203 481.139 589.203 475.617C589.203 470.095 584.725 465.617 579.203 465.617Z" fill="#F2AF00"/>
<path d="M631.801 468.547C629.942 466.687 627.362 465.617 624.732 465.617C622.102 465.617 619.522 466.686 617.662 468.547C615.802 470.407 614.732 472.987 614.732 475.617C614.732 478.247 615.801 480.827 617.662 482.686C619.522 484.546 622.092 485.617 624.732 485.617C627.362 485.617 629.942 484.547 631.801 482.686C633.661 480.827 634.732 478.247 634.732 475.617C634.732 472.987 633.662 470.407 631.801 468.547Z" fill="#F2AF00"/>
<path d="M648.578 369.617H526.424C520.902 369.617 516.424 374.095 516.424 379.617C516.424 385.139 520.901 389.617 526.424 389.617H648.578C654.1 389.617 658.578 385.139 658.578 379.617C658.578 374.095 654.1 369.617 648.578 369.617Z" fill="#F2AF00"/>
<path d="M648.578 417.617H526.424C520.902 417.617 516.424 422.095 516.424 427.617C516.424 433.139 520.901 437.617 526.424 437.617H648.578C654.1 437.617 658.578 433.139 658.578 427.617C658.578 422.095 654.1 417.617 648.578 417.617Z" fill="#F2AF00"/>
</svg>
