<svg width="951" height="952" viewBox="0 0 951 952" fill="none" xmlns="http://www.w3.org/2000/svg">
<path d="M935.321 475.942C935.321 729.771 729.552 935.54 475.723 935.54C221.894 935.54 16.1245 729.771 16.1245 475.942C16.1245 222.113 221.894 16.3438 475.723 16.3438C729.552 16.3438 935.321 222.113 935.321 475.942Z" fill="white" stroke="#F2AF00" stroke-width="31"/>
<path d="M690.888 565.949H540.888C516.378 565.949 494.578 577.769 480.888 596.009C467.198 577.769 445.398 565.949 420.888 565.949H270.888C262.608 565.949 255.888 572.669 255.888 580.949V595.949H381.678C416.77 595.949 451.681 602.9 480.888 622.369C510.086 602.905 544.992 595.949 580.098 595.949H705.888V580.949C705.888 572.669 699.168 565.949 690.888 565.949Z" fill="#F2AF00"/>
<path d="M452.735 676.056C436.111 662.714 412.202 655.949 381.673 655.949H239.888C231.604 655.949 224.888 649.233 224.888 640.949C224.888 632.665 231.604 625.949 239.888 625.949H381.673C419.202 625.949 449.429 634.936 471.513 652.66C476.986 657.053 484.787 657.055 490.263 652.66C512.347 634.936 542.574 625.949 580.103 625.949H721.888C730.172 625.949 736.888 632.665 736.888 640.949C736.888 649.233 730.172 655.949 721.888 655.949H580.103C549.574 655.949 525.665 662.714 509.04 676.056C492.705 689.168 469.247 689.309 452.735 676.056V676.056Z" fill="#F2AF00"/>
<path d="M585.888 417.75V460.95C585.888 466.63 582.678 471.83 577.598 474.37L511.258 507.53C503.908 511.21 497.178 515.95 491.258 521.61C485.458 527.15 476.318 527.15 470.518 521.61C464.598 515.95 457.868 511.21 450.518 507.53L384.178 474.37C379.098 471.83 375.888 466.63 375.888 460.95V417.75L468.528 444.22C476.447 446.485 485.041 446.568 493.248 444.22L585.888 417.75Z" fill="#F2AF00"/>
<path d="M645.888 400.609V490.949C645.888 499.229 639.168 505.949 630.888 505.949C622.608 505.949 615.888 499.229 615.888 490.949V409.179L645.888 400.609Z" fill="#F2AF00"/>
<path d="M476.767 415.373L266.767 355.373C252.321 351.246 252.296 330.662 266.767 326.527L476.767 266.527C479.46 265.757 482.315 265.757 485.008 266.527L695.008 326.527C709.454 330.654 709.479 351.238 695.008 355.373L485.008 415.373C482.326 416.139 479.471 416.145 476.767 415.373V415.373Z" fill="#F2AF00"/>
</svg>
