<svg width="951" height="951" viewBox="0 0 951 951" fill="none" xmlns="http://www.w3.org/2000/svg">
<circle cx="475.309" cy="475.418" r="459.598" fill="white" stroke="#F2AF00" stroke-width="31"/>
<g clip-path="url(#clip0)">
<path d="M569.32 316.006C567.832 314.517 565.766 313.66 563.66 313.66C561.545 313.66 559.487 314.517 557.998 316.006C556.501 317.496 555.652 319.562 555.652 321.668C555.652 323.774 556.501 325.84 557.998 327.329C559.487 328.819 561.545 329.676 563.66 329.676C565.766 329.676 567.832 328.819 569.32 327.329C570.81 325.84 571.667 323.774 571.667 321.668C571.667 319.562 570.811 317.496 569.32 316.006Z" fill="#F2AF00"/>
<path d="M549.277 352.098H498.027C493.605 352.098 490.019 355.683 490.019 360.105V411.355C490.019 415.778 493.605 419.363 498.027 419.363H549.277C553.699 419.363 557.284 415.778 557.284 411.355V360.105C557.284 355.683 553.699 352.098 549.277 352.098ZM541.269 403.348H506.034V368.113H541.269V403.348Z" fill="#F2AF00"/>
<path d="M549.277 441.785H498.027C493.605 441.785 490.019 445.37 490.019 449.793V501.043C490.019 505.466 493.605 509.051 498.027 509.051H549.277C553.699 509.051 557.284 505.466 557.284 501.043V449.793C557.284 445.37 553.699 441.785 549.277 441.785ZM541.269 493.035H506.034V457.801H541.269V493.035Z" fill="#F2AF00"/>
<path d="M523.652 531.473H498.027C493.605 531.473 490.019 535.058 490.019 539.48V590.73C490.019 595.153 493.605 598.738 498.027 598.738C502.449 598.738 506.034 595.153 506.034 590.73V547.488H523.652C528.074 547.488 531.659 543.903 531.659 539.48C531.659 535.058 528.074 531.473 523.652 531.473Z" fill="#F2AF00"/>
<path d="M459.56 352.098C455.138 352.098 451.552 355.683 451.552 360.105V403.348H408.31C403.888 403.348 400.302 406.933 400.302 411.355C400.302 415.778 403.888 419.363 408.31 419.363H459.56C463.982 419.363 467.568 415.778 467.568 411.355V360.105C467.568 355.683 463.982 352.098 459.56 352.098Z" fill="#F2AF00"/>
<path d="M459.56 441.785H408.31C403.888 441.785 400.302 445.37 400.302 449.793V501.043C400.302 505.466 403.888 509.051 408.31 509.051H459.56C463.982 509.051 467.568 505.466 467.568 501.043V449.793C467.568 445.37 463.982 441.785 459.56 441.785ZM451.552 493.035H416.318V457.801H451.552V493.035Z" fill="#F2AF00"/>
<path d="M459.56 531.473H408.31C403.888 531.473 400.302 535.058 400.302 539.48V590.73C400.302 595.153 403.888 598.738 408.31 598.738H459.56C463.982 598.738 467.568 595.153 467.568 590.73V539.48C467.568 535.058 463.982 531.473 459.56 531.473ZM451.552 582.723H416.318V547.488H451.552V582.723Z" fill="#F2AF00"/>
<path d="M480.753 646.143C479.264 644.646 477.198 643.797 475.092 643.797C472.986 643.797 470.92 644.646 469.431 646.143C467.941 647.633 467.084 649.691 467.084 651.805C467.084 653.911 467.941 655.969 469.431 657.466C470.92 658.956 472.986 659.812 475.092 659.812C477.198 659.812 479.264 658.956 480.753 657.466C482.243 655.969 483.099 653.911 483.099 651.805C483.099 649.691 482.243 647.633 480.753 646.143Z" fill="#F2AF00"/>
<path d="M584.21 270.418H366.408C353.161 270.418 342.384 281.195 342.384 294.441V297.634H294.332C281.086 297.634 270.309 308.411 270.309 321.658V395.329C270.309 408.576 281.086 419.353 294.332 419.353H368.004C381.251 419.353 392.028 408.576 392.028 395.329V329.676H526.559C530.981 329.676 534.567 326.091 534.567 321.668C534.567 317.245 530.981 313.66 526.559 313.66H390.654C387.351 304.334 378.447 297.634 368.004 297.634H358.4V294.441C358.4 290.026 361.992 286.434 366.408 286.434H584.21C588.626 286.434 592.218 290.026 592.218 294.441V475.418C592.218 479.841 595.804 483.426 600.226 483.426C604.648 483.426 608.234 479.841 608.234 475.418V294.441C608.234 281.195 597.457 270.418 584.21 270.418ZM376.012 395.329C376.012 399.745 372.42 403.337 368.004 403.337H294.332C289.917 403.337 286.325 399.745 286.325 395.329V392.42C286.769 392.127 287.191 391.784 287.583 391.393L312.951 366.025L330.711 383.785C333.839 386.912 338.908 386.912 342.037 383.785L376.012 349.81V395.329ZM368.004 313.65C372.42 313.65 376.012 317.242 376.012 321.658V327.16L336.373 366.798L318.613 349.038C315.485 345.911 310.416 345.911 307.287 349.038L286.325 370.001V321.658C286.325 317.242 289.917 313.65 294.332 313.65H368.004Z" fill="#F2AF00"/>
<path d="M656.285 502.645H569.801C556.554 502.645 545.777 513.421 545.777 526.668V613.152C545.777 626.399 556.554 637.176 569.801 637.176H592.218V656.395C592.218 660.81 588.625 664.402 584.21 664.402H366.407C361.992 664.402 358.399 660.81 358.399 656.395V637.176H527.639C532.061 637.176 535.647 633.591 535.647 629.168C535.647 624.745 532.061 621.16 527.639 621.16H358.399V449.793C358.399 445.37 354.813 441.785 350.391 441.785C345.97 441.785 342.384 445.37 342.384 449.793V656.395C342.384 669.641 353.161 680.418 366.407 680.418H584.21C597.456 680.418 608.233 669.641 608.233 656.395V637.176H656.285C669.532 637.176 680.309 626.399 680.309 613.152V526.668C680.309 513.421 669.532 502.645 656.285 502.645ZM664.293 613.152C664.293 617.568 660.701 621.16 656.285 621.16H569.801C565.385 621.16 561.793 617.568 561.793 613.152V526.668C561.793 522.252 565.385 518.66 569.801 518.66H656.285C660.701 518.66 664.293 522.252 664.293 526.668V613.152Z" fill="#F2AF00"/>
<path d="M637.117 352.098C632.695 352.098 629.109 355.683 629.109 360.105V423.885C629.109 428.308 632.695 431.893 637.117 431.893C641.539 431.893 645.125 428.308 645.125 423.885V360.105C645.125 355.683 641.539 352.098 637.117 352.098Z" fill="#F2AF00"/>
<path d="M642.777 448.706C641.287 447.216 639.221 446.359 637.115 446.359C635.009 446.359 632.943 447.216 631.454 448.706C629.965 450.195 629.107 452.261 629.107 454.367C629.107 456.473 629.964 458.539 631.454 460.029C632.943 461.518 635.009 462.375 637.115 462.375C639.221 462.375 641.287 461.518 642.777 460.029C644.274 458.539 645.123 456.473 645.123 454.367C645.123 452.261 644.274 450.195 642.777 448.706Z" fill="#F2AF00"/>
<path d="M313.551 455.383C309.129 455.383 305.543 458.968 305.543 463.391V518.537C305.543 522.96 309.129 526.545 313.551 526.545C317.973 526.545 321.559 522.96 321.559 518.537V463.391C321.559 458.968 317.973 455.383 313.551 455.383Z" fill="#F2AF00"/>
<path d="M638.013 554.832L609.902 538.618C604.45 535.474 597.943 535.477 592.495 538.624C587.047 541.772 583.794 547.407 583.794 553.699V586.116C583.794 592.407 587.047 598.043 592.494 601.191C595.221 602.766 598.212 603.554 601.204 603.554C604.19 603.554 607.176 602.769 609.898 601.2L638.009 584.996C643.465 581.851 646.724 576.212 646.724 569.914C646.725 563.617 643.468 557.979 638.013 554.832ZM630.01 571.122L601.9 587.326C601.438 587.591 600.969 587.591 600.506 587.325C600.044 587.057 599.81 586.651 599.81 586.117V553.7C599.81 553.166 600.044 552.76 600.506 552.492C600.738 552.359 600.971 552.292 601.204 552.292C601.437 552.292 601.669 552.359 601.901 552.492L630.011 568.707C630.474 568.973 630.709 569.38 630.709 569.914C630.709 570.447 630.474 570.854 630.01 571.122Z" fill="#F2AF00"/>
</g>
<defs>
<clipPath id="clip0">
<rect x="270.309" y="270.418" width="410" height="410" fill="white"/>
</clipPath>
</defs>
</svg>
