<svg width="951" height="951" viewBox="0 0 951 951" fill="none" xmlns="http://www.w3.org/2000/svg">
<circle cx="475.114" cy="475.418" r="459.598" fill="white" stroke="#F2AF00" stroke-width="31"/>
<path d="M475.114 222.301C448.604 222.301 427.114 243.791 427.114 270.301C427.114 296.811 448.604 318.301 475.114 318.301C501.613 318.275 523.088 296.8 523.114 270.301C523.114 243.791 501.624 222.301 475.114 222.301ZM475.114 302.301C457.441 302.301 443.114 287.974 443.114 270.301C443.114 252.628 457.441 238.301 475.114 238.301C492.787 238.301 507.114 252.628 507.114 270.301C507.114 287.974 492.787 302.301 475.114 302.301Z" fill="#F2AF00" stroke="#F2AF00" stroke-width="8"/>
<path d="M507.114 326.301H505.226L503.538 327.141C485.637 336.054 464.591 336.054 446.69 327.141L445.002 326.301H443.114C421.034 326.327 403.14 344.221 403.114 366.301V414.301C403.114 427.556 413.859 438.301 427.114 438.301H523.114C536.369 438.301 547.114 427.556 547.114 414.301V366.301C547.088 344.221 529.194 326.327 507.114 326.301ZM531.114 414.301C531.114 418.719 527.532 422.301 523.114 422.301H427.114C422.696 422.301 419.114 418.719 419.114 414.301V366.301C419.116 353.709 428.849 343.259 441.41 342.365C462.785 352.285 487.444 352.285 508.818 342.365C521.378 343.259 531.112 353.709 531.114 366.301V414.301Z" fill="#F2AF00" stroke="#F2AF00" stroke-width="8"/>
<path d="M643.114 486.301C616.604 486.301 595.114 507.791 595.114 534.301C595.114 560.811 616.604 582.301 643.114 582.301C669.624 582.301 691.114 560.811 691.114 534.301C691.088 507.802 669.613 486.327 643.114 486.301ZM643.114 566.301C625.441 566.301 611.114 551.974 611.114 534.301C611.114 516.628 625.441 502.301 643.114 502.301C660.787 502.301 675.114 516.628 675.114 534.301C675.114 551.974 660.787 566.301 643.114 566.301Z" fill="#F2AF00" stroke="#F2AF00" stroke-width="8"/>
<path d="M675.114 590.301H673.226L671.538 591.101C653.637 600.013 632.591 600.013 614.69 591.101L613.002 590.301H611.114C589.034 590.327 571.14 608.221 571.114 630.301V678.301C571.114 691.556 581.859 702.301 595.114 702.301H691.114C704.369 702.301 715.114 691.556 715.114 678.301V630.301C715.088 608.221 697.194 590.327 675.114 590.301ZM699.114 678.301C699.114 682.719 695.532 686.301 691.114 686.301H595.114C590.696 686.301 587.114 682.719 587.114 678.301V630.301C587.116 617.709 596.849 607.259 609.41 606.365C630.785 616.285 655.443 616.285 676.818 606.365C689.379 607.259 699.112 617.709 699.114 630.301V678.301Z" fill="#F2AF00" stroke="#F2AF00" stroke-width="8"/>
<path d="M307.114 486.301C280.604 486.301 259.114 507.791 259.114 534.301C259.114 560.811 280.604 582.301 307.114 582.301C333.624 582.301 355.114 560.811 355.114 534.301C355.088 507.802 333.613 486.327 307.114 486.301ZM307.114 566.301C289.441 566.301 275.114 551.974 275.114 534.301C275.114 516.628 289.441 502.301 307.114 502.301C324.787 502.301 339.114 516.628 339.114 534.301C339.114 551.974 324.787 566.301 307.114 566.301Z" fill="#F2AF00" stroke="#F2AF00" stroke-width="8"/>
<path d="M339.114 590.301H337.226L335.538 591.101C317.637 600.013 296.591 600.013 278.69 591.101L277.002 590.301H275.114C253.034 590.327 235.14 608.221 235.114 630.301V678.301C235.114 691.556 245.859 702.301 259.114 702.301H355.114C368.369 702.301 379.114 691.556 379.114 678.301V630.301C379.088 608.221 361.194 590.327 339.114 590.301ZM363.114 678.301C363.114 682.719 359.532 686.301 355.114 686.301H259.114C254.696 686.301 251.114 682.719 251.114 678.301V630.301C251.116 617.709 260.849 607.259 273.41 606.365C294.785 616.285 319.443 616.285 340.818 606.365C353.379 607.259 363.112 617.709 363.114 630.301V678.301Z" fill="#F2AF00" stroke="#F2AF00" stroke-width="8"/>
<path d="M554.484 628.577C554.48 628.568 554.476 628.559 554.472 628.549C552.74 624.484 548.041 622.593 543.977 624.325C507.852 639.465 467.732 642.227 429.873 632.181L437.361 629.981C441.603 628.739 444.035 624.295 442.793 620.053C441.551 615.811 437.107 613.379 432.865 614.621L400.865 624.005C400.745 624.005 400.657 624.141 400.545 624.181C399.804 624.457 399.108 624.843 398.481 625.325C398.203 625.475 397.936 625.643 397.681 625.829C396.837 626.582 396.168 627.51 395.721 628.549C395.287 629.595 395.08 630.721 395.113 631.853C395.308 632.936 395.575 634.005 395.913 635.053C395.961 635.165 395.913 635.293 396.001 635.405L412.001 666.021C414.047 669.94 418.882 671.459 422.801 669.413C426.72 667.367 428.239 662.532 426.193 658.613L419.681 646.165C462.695 659.095 508.876 656.582 550.233 639.061C554.301 637.34 556.205 632.646 554.484 628.577Z" fill="#F2AF00" stroke="#F2AF00" stroke-width="8"/>
<path d="M688.768 432.644C685.644 429.521 680.58 429.521 677.456 432.644L666.136 443.964C659.512 373.894 615.025 313.088 550.248 285.564C546.183 283.832 541.484 285.723 539.752 289.788C538.02 293.853 539.911 298.552 543.976 300.284C602.086 324.981 642.48 378.953 649.792 441.668L640.768 432.644C637.59 429.574 632.526 429.662 629.456 432.84C626.462 435.94 626.462 440.855 629.456 443.956L653.456 467.956C656.576 471.084 661.642 471.091 664.77 467.97C664.775 467.965 664.78 467.96 664.784 467.956L688.784 443.956C691.903 440.828 691.896 435.764 688.768 432.644Z" fill="#F2AF00" stroke="#F2AF00" stroke-width="8"/>
<path d="M410.882 291.571C410.856 291.104 410.787 290.641 410.674 290.187C410.674 290.115 410.586 290.067 410.554 289.987C410.522 289.907 410.554 289.851 410.554 289.787C410.336 289.398 410.084 289.028 409.802 288.683C409.543 288.214 409.237 287.772 408.89 287.363C408.417 286.944 407.893 286.587 407.33 286.299C407.049 286.06 406.749 285.843 406.434 285.651L374.434 271.035C370.347 269.357 365.673 271.31 363.995 275.397C362.408 279.262 364.063 283.698 367.794 285.579L384.362 293.155C321.989 326.536 283.069 391.555 283.114 462.299C283.114 466.717 286.696 470.299 291.114 470.299C295.532 470.299 299.114 466.717 299.114 462.299C299.074 400.006 332.015 342.347 385.698 310.747L379.914 322.835C378.007 326.812 379.678 331.582 383.65 333.499C384.729 334.026 385.913 334.3 387.114 334.299C390.186 334.295 392.984 332.532 394.314 329.763L410.314 296.379C410.314 296.299 410.314 296.211 410.378 296.131C410.586 295.584 410.731 295.015 410.81 294.435C410.947 294.004 411.049 293.563 411.114 293.115C411.087 292.594 411.01 292.077 410.882 291.571Z" fill="#F2AF00" stroke="#F2AF00" stroke-width="8"/>
</svg>
