<svg width="951" height="952" viewBox="0 0 951 952" fill="none" xmlns="http://www.w3.org/2000/svg">
<circle cx="475.114" cy="476.004" r="459.598" fill="white" stroke="#F2AF00" stroke-width="31"/>
<path d="M544.451 658.103H495.987V614.114L567.771 569.252L495.987 524.39V472.323H544.451V407.704H495.987V351.162H560.606V238.078H415.213V351.162H479.832V407.704H431.368V431.936H358.671V448.091H431.368V472.323H479.832V524.39L408.048 569.252L479.832 614.114V658.103H431.368C418.008 658.103 407.135 668.975 407.135 682.335V714.645C407.135 728.005 418.008 738.877 431.368 738.877H544.451C557.811 738.877 568.684 728.005 568.684 714.645V682.335C568.684 668.975 557.811 658.103 544.451 658.103ZM431.368 254.233H544.451V335.007H431.368V254.233ZM447.523 423.858H528.297V456.168H447.523V423.858ZM487.91 538.388L537.287 569.252L487.91 600.116L438.532 569.252L487.91 538.388ZM552.529 714.645C552.529 719.096 548.902 722.722 544.451 722.722H431.368C426.917 722.722 423.29 719.096 423.29 714.645V682.335C423.29 677.885 426.917 674.258 431.368 674.258H544.451C548.902 674.258 552.529 677.885 552.529 682.335V714.645Z" fill="#F2AF00" stroke="#F2AF00" stroke-width="8"/>
<path d="M344.883 671.892L363.404 690.413H292.566C290.126 683.572 284.739 678.184 277.897 675.745V504.633H261.742V675.745C252.364 679.089 245.587 687.974 245.587 698.491C245.587 711.851 256.46 722.723 269.82 722.723C280.336 722.723 289.222 715.946 292.566 706.568H363.404L344.883 725.089L356.304 736.511L394.325 698.491L356.304 660.47L344.883 671.892ZM269.82 706.568C265.369 706.568 261.742 702.941 261.742 698.491C261.742 694.04 265.369 690.413 269.82 690.413C274.27 690.413 277.897 694.04 277.897 698.491C277.897 702.941 274.27 706.568 269.82 706.568Z" fill="#F2AF00" stroke="#F2AF00" stroke-width="8"/>
<path d="M689.844 546.505V317.365C699.222 314.021 705.999 305.136 705.999 294.619C705.999 281.259 695.127 270.387 681.767 270.387C671.25 270.387 662.365 277.164 659.021 286.542H576.761V302.696H659.021C661.46 309.538 666.848 314.926 673.689 317.365V546.513C666.848 548.952 661.46 554.34 659.021 561.181H604.337L622.858 542.66L611.437 531.238L573.416 569.251L611.437 607.271L622.858 595.85L604.337 577.328H659.021C662.365 586.706 671.25 593.483 681.767 593.483C695.127 593.483 705.999 582.611 705.999 569.251C705.999 558.734 699.222 549.849 689.844 546.505V546.505ZM681.767 286.542C686.217 286.542 689.844 290.168 689.844 294.619C689.844 299.07 686.217 302.696 681.767 302.696C677.316 302.696 673.689 299.07 673.689 294.619C673.689 290.168 677.316 286.542 681.767 286.542ZM681.767 577.328C677.316 577.328 673.689 573.701 673.689 569.251C673.689 564.8 677.316 561.173 681.767 561.173C686.217 561.173 689.844 564.8 689.844 569.251C689.844 573.701 686.217 577.328 681.767 577.328Z" fill="#F2AF00" stroke="#F2AF00" stroke-width="8"/>
<path d="M340.263 440.013L269.82 389.699L199.377 440.013L269.82 490.328L340.263 440.013ZM269.82 409.553L312.461 440.013L269.82 470.473L227.179 440.013L269.82 409.553Z" fill="#F2AF00" stroke="#F2AF00" stroke-width="8"/>
<path d="M447.523 270.387H528.297V286.542H447.523V270.387Z" fill="#F2AF00" stroke="#F2AF00" stroke-width="8"/>
<path d="M447.523 302.699H495.987V318.854H447.523V302.699Z" fill="#F2AF00" stroke="#F2AF00" stroke-width="8"/>
<path d="M512.142 302.699H528.297V318.854H512.142V302.699Z" fill="#F2AF00" stroke="#F2AF00" stroke-width="8"/>
<path d="M649.458 690.414H665.612V706.569H649.458V690.414Z" fill="#F2AF00" stroke="#F2AF00" stroke-width="8"/>
<path d="M617.148 690.414H633.303V706.569H617.148V690.414Z" fill="#F2AF00" stroke="#F2AF00" stroke-width="8"/>
<path d="M584.838 690.414H600.993V706.569H584.838V690.414Z" fill="#F2AF00" stroke="#F2AF00" stroke-width="8"/>
<path d="M350.594 302.699H366.748V318.854H350.594V302.699Z" fill="#F2AF00" stroke="#F2AF00" stroke-width="8"/>
<path d="M382.903 302.699H399.058V318.854H382.903V302.699Z" fill="#F2AF00" stroke="#F2AF00" stroke-width="8"/>
<path d="M318.284 302.699H334.439V318.854H318.284V302.699Z" fill="#F2AF00" stroke="#F2AF00" stroke-width="8"/>
</svg>
