<svg width="951" height="952" viewBox="0 0 951 952" fill="none" xmlns="http://www.w3.org/2000/svg">
<circle cx="475.723" cy="476.004" r="459.598" fill="white" stroke="#F2AF00" stroke-width="31"/>
<path d="M399.204 589.019C399.11 588.993 399.015 588.973 398.919 588.95C407.656 579.196 412.981 566.326 412.981 552.232V510.85C412.981 486.49 393.163 466.672 368.803 466.672H312.11C306.956 466.672 302.776 470.851 302.776 476.005V552.232C302.776 566.326 308.102 579.196 316.837 588.95C316.742 588.973 316.647 588.993 316.553 589.02C276.219 592.736 244.525 626.745 244.525 668.032V705.611C244.525 710.765 248.705 714.945 253.859 714.945H461.9C467.054 714.945 471.233 710.765 471.233 705.611V668.031C471.232 626.744 439.537 592.735 399.204 589.019ZM357.879 588.667C337.788 588.667 321.443 572.322 321.443 552.232V535.541C326.524 538.316 332.346 539.897 338.532 539.897H394.314V552.232C394.315 572.322 377.969 588.667 357.879 588.667ZM374.148 607.334L357.878 623.605L341.608 607.334H374.148ZM321.442 485.339H368.804C382.87 485.339 394.314 496.783 394.314 510.85V521.229H338.532C329.109 521.229 321.442 513.563 321.442 504.14V485.339ZM263.191 696.278V668.031C263.191 637.318 286.126 611.876 315.767 607.894L351.277 643.404C353.1 645.226 355.489 646.138 357.877 646.138C360.265 646.138 362.654 645.226 364.477 643.404L399.988 607.893C429.628 611.875 452.564 637.317 452.564 668.03V696.278H263.191Z" fill="#F2AF00"/>
<path d="M660.867 595.935C668.045 588.816 672.499 578.955 672.499 568.071V530.121C672.499 508.585 661.704 489.531 645.251 478.057C645.4 477.392 645.48 476.705 645.48 476.005V453.816C667.3 451.08 684.233 432.412 684.233 409.862V316.33C684.233 291.904 664.361 272.031 639.934 272.031H494.826C470.399 272.031 450.527 291.904 450.527 316.33V409.862C450.527 434.288 470.399 454.161 494.826 454.161H601.101L613.809 466.869C612.235 466.751 610.651 466.672 609.049 466.672C574.062 466.672 545.598 495.135 545.598 530.121V568.07C545.598 578.955 550.052 588.816 557.231 595.934C530.076 608.481 511.178 635.959 511.178 667.784V705.611C511.178 710.765 515.357 714.945 520.511 714.945H697.586C702.74 714.945 706.92 710.765 706.92 705.611V667.786C706.92 635.96 688.021 608.482 660.867 595.935ZM611.569 438.228C609.818 436.478 607.444 435.494 604.969 435.494H494.826C480.693 435.494 469.194 423.996 469.194 409.862V316.33C469.194 302.196 480.693 290.698 494.826 290.698H639.934C654.067 290.698 665.565 302.196 665.565 316.33V316.832H606.355C601.201 316.832 597.022 321.011 597.022 326.166C597.022 331.321 601.201 335.5 606.355 335.5H665.565V409.862C665.565 423.996 654.067 435.494 639.934 435.494H636.145C630.991 435.494 626.811 439.672 626.811 444.827V453.471L611.569 438.228ZM564.266 530.121C564.266 505.428 584.356 485.339 609.05 485.339C633.743 485.339 653.832 505.428 653.832 530.121V568.07C653.832 579.427 644.593 588.666 633.236 588.666H627.803H590.297H584.863V588.667C573.506 588.667 564.266 579.428 564.266 568.071V530.121ZM688.254 696.278H688.253H529.846V667.786C529.846 634.453 556.965 607.334 590.298 607.334H627.804C661.137 607.334 688.254 634.453 688.254 667.786V696.278V696.278Z" fill="#F2AF00"/>
<path d="M435.554 237.07H326.994C302.568 237.07 282.695 256.943 282.695 281.369V374.901C282.695 397.451 299.629 416.119 321.448 418.855V441.044C321.448 444.819 323.723 448.223 327.21 449.668C328.364 450.146 329.578 450.379 330.78 450.379C333.21 450.379 335.596 449.43 337.382 447.644L365.826 419.2H414.33C419.484 419.2 423.663 415.021 423.663 409.866C423.663 404.712 419.484 400.533 414.33 400.533H361.96C359.484 400.533 357.111 401.517 355.36 403.267L340.116 418.51V409.866C340.116 404.712 335.937 400.533 330.783 400.533H326.994C312.86 400.533 301.362 389.035 301.362 374.901V281.369C301.362 267.235 312.861 255.737 326.994 255.737H435.553C440.707 255.737 444.887 251.559 444.887 246.404C444.887 241.249 440.707 237.07 435.554 237.07Z" fill="#F2AF00"/>
<path d="M573.978 319.571C572.243 317.835 569.834 316.836 567.38 316.836C564.926 316.836 562.518 317.835 560.782 319.571C559.046 321.307 558.047 323.715 558.047 326.17C558.047 328.624 559.045 331.032 560.782 332.768C562.519 334.504 564.926 335.503 567.38 335.503C569.835 335.503 572.243 334.504 573.978 332.768C575.714 331.032 576.714 328.624 576.714 326.17C576.714 323.715 575.715 321.307 573.978 319.571Z" fill="#F2AF00"/>
</svg>
