<svg width="952" height="951" viewBox="0 0 952 951" fill="none" xmlns="http://www.w3.org/2000/svg">
<path d="M935.598 475.098C935.598 728.927 729.829 934.696 476 934.696C222.171 934.696 16.4023 728.927 16.4023 475.098C16.4023 221.269 222.171 15.5 476 15.5C729.829 15.5 935.598 221.269 935.598 475.098Z" fill="white" stroke="#F2AF00" stroke-width="31"/>
<path d="M691.166 565.105H541.166C516.656 565.105 494.856 576.925 481.166 595.165C467.476 576.925 445.676 565.105 421.166 565.105H271.166C262.886 565.105 256.166 571.825 256.166 580.105V595.105H381.956C417.048 595.105 451.959 602.056 481.166 621.525C510.364 602.061 545.27 595.105 580.376 595.105H706.166V580.105C706.166 571.825 699.446 565.105 691.166 565.105Z" fill="#F2AF00"/>
<path d="M453.013 675.212C436.389 661.87 412.48 655.105 381.951 655.105H240.166C231.882 655.105 225.166 648.389 225.166 640.105C225.166 631.821 231.882 625.105 240.166 625.105H381.951C419.48 625.105 449.707 634.092 471.791 651.816C477.264 656.209 485.065 656.211 490.541 651.816C512.625 634.092 542.852 625.105 580.381 625.105H722.166C730.45 625.105 737.166 631.821 737.166 640.105C737.166 648.389 730.45 655.105 722.166 655.105H580.381C549.852 655.105 525.943 661.87 509.318 675.212C492.983 688.324 469.525 688.465 453.013 675.212V675.212Z" fill="#F2AF00"/>
<path d="M586.166 416.906V460.106C586.166 465.786 582.956 470.986 577.876 473.526L511.536 506.686C504.186 510.366 497.456 515.106 491.536 520.766C485.736 526.306 476.596 526.306 470.796 520.766C464.876 515.106 458.146 510.366 450.796 506.686L384.456 473.526C379.376 470.986 376.166 465.786 376.166 460.106V416.906L468.806 443.376C476.725 445.641 485.319 445.724 493.526 443.376L586.166 416.906Z" fill="#F2AF00"/>
<path d="M646.166 399.766V490.106C646.166 498.386 639.446 505.106 631.166 505.106C622.886 505.106 616.166 498.386 616.166 490.106V408.336L646.166 399.766Z" fill="#F2AF00"/>
<path d="M477.045 414.529L267.045 354.529C252.599 350.402 252.574 329.818 267.045 325.683L477.045 265.683C479.738 264.913 482.593 264.913 485.286 265.683L695.286 325.683C709.732 329.81 709.757 350.394 695.286 354.529L485.286 414.529C482.604 415.295 479.749 415.301 477.045 414.529V414.529Z" fill="#F2AF00"/>
</svg>
