<svg width="952" height="951" viewBox="0 0 952 951" fill="none" xmlns="http://www.w3.org/2000/svg">
<circle cx="475.918" cy="475.418" r="459.598" fill="white" stroke="#F2AF00" stroke-width="31"/>
<path d="M379.914 299.922H251.903C234.542 299.922 220.417 314.047 220.417 331.407V619.426C220.417 636.787 234.542 650.911 251.903 650.911H379.91C397.275 650.911 411.4 636.787 411.4 619.426V331.407C411.4 314.047 397.275 299.922 379.914 299.922ZM251.903 314.893H379.91C389.018 314.893 396.429 322.3 396.429 331.407V603.941H235.388V331.407C235.388 322.3 242.796 314.893 251.903 314.893ZM379.914 635.941H251.903C242.796 635.941 235.388 628.533 235.388 619.426V618.912H396.429V619.426C396.429 628.533 389.021 635.941 379.914 635.941Z" fill="#F2AF00"/>
<path d="M699.934 299.922H571.922C554.562 299.922 540.437 314.047 540.437 331.407V619.426C540.437 636.787 554.562 650.911 571.922 650.911H699.93C717.294 650.911 731.419 636.787 731.419 619.426V331.407C731.419 314.047 717.294 299.922 699.934 299.922ZM571.922 314.893H699.93C709.037 314.893 716.448 322.3 716.448 331.407V603.941H555.408V331.407C555.408 322.3 562.815 314.893 571.922 314.893ZM699.934 635.941H571.922C562.815 635.941 555.408 628.533 555.408 619.426V618.912H716.448V619.426C716.448 628.533 709.041 635.941 699.934 635.941Z" fill="#F2AF00"/>
<path d="M259.903 450.896H371.91C376.047 450.896 379.396 447.547 379.396 443.411V347.407C379.396 343.271 376.047 339.922 371.91 339.922H259.903C255.77 339.922 252.417 343.271 252.417 347.407V387.407C252.417 391.544 255.77 394.893 259.903 394.893C264.039 394.893 267.388 391.544 267.388 387.407V363.68L304.406 395.407L267.388 427.138V419.411C267.388 415.275 264.039 411.926 259.903 411.926C255.77 411.926 252.417 415.275 252.417 419.411V443.411C252.417 447.547 255.77 450.896 259.903 450.896ZM327.411 395.407L364.425 363.68V427.138L327.411 395.407ZM280.141 354.893H351.677L315.907 385.551L280.141 354.893ZM351.677 435.926H280.141L315.911 405.267L351.677 435.926Z" fill="#F2AF00"/>
<path d="M259.903 578.904H371.91C376.047 578.904 379.396 575.551 379.396 571.419V475.415C379.396 471.279 376.047 467.93 371.91 467.93H259.903C255.77 467.93 252.417 471.279 252.417 475.415V571.419C252.417 575.551 255.77 578.904 259.903 578.904ZM364.425 555.146L327.411 523.415L364.425 491.688V555.146ZM351.677 563.933H280.141L315.911 533.275L351.677 563.933ZM315.907 513.559L280.141 482.9H351.677L315.907 513.559ZM304.406 523.415L267.388 555.146V491.688L304.406 523.415Z" fill="#F2AF00"/>
<path d="M579.926 450.896H691.93C696.066 450.896 699.415 447.547 699.415 443.411V395.407C699.415 391.275 696.066 387.922 691.93 387.922C687.797 387.922 684.445 391.275 684.445 395.407V435.926H587.412V354.893H684.445V363.407C684.445 367.54 687.797 370.893 691.93 370.893C696.066 370.893 699.415 367.54 699.415 363.407V347.407C699.415 343.271 696.066 339.922 691.93 339.922H579.926C575.79 339.922 572.441 343.271 572.441 347.407V443.411C572.441 447.547 575.79 450.896 579.926 450.896V450.896Z" fill="#F2AF00"/>
<path d="M691.934 467.93H619.926C615.794 467.93 612.441 471.279 612.441 475.415C612.441 479.548 615.794 482.9 619.926 482.9H691.934C696.067 482.9 699.419 479.548 699.419 475.415C699.419 471.279 696.067 467.93 691.934 467.93Z" fill="#F2AF00"/>
<path d="M691.934 499.93H619.926C615.794 499.93 612.441 503.283 612.441 507.415C612.441 511.548 615.794 514.9 619.926 514.9H691.934C696.067 514.9 699.419 511.548 699.419 507.415C699.419 503.283 696.067 499.93 691.934 499.93Z" fill="#F2AF00"/>
<path d="M691.934 563.934H619.926C615.794 563.934 612.441 567.286 612.441 571.419C612.441 575.552 615.794 578.904 619.926 578.904H691.934C696.067 578.904 699.419 575.552 699.419 571.419C699.419 567.286 696.067 563.934 691.934 563.934Z" fill="#F2AF00"/>
<path d="M691.934 531.934H619.926C615.794 531.934 612.441 535.283 612.441 539.419C612.441 543.552 615.794 546.904 619.926 546.904H691.934C696.067 546.904 699.419 543.552 699.419 539.419C699.419 535.283 696.067 531.934 691.934 531.934Z" fill="#F2AF00"/>
<path d="M579.926 482.9H587.926C592.059 482.9 595.412 479.548 595.412 475.415C595.412 471.279 592.059 467.93 587.926 467.93H579.926C575.79 467.93 572.441 471.279 572.441 475.415C572.441 479.548 575.79 482.9 579.926 482.9Z" fill="#F2AF00"/>
<path d="M579.926 514.9H587.926C592.059 514.9 595.412 511.548 595.412 507.415C595.412 503.283 592.059 499.93 587.926 499.93H579.926C575.79 499.93 572.441 503.283 572.441 507.415C572.441 511.548 575.79 514.9 579.926 514.9Z" fill="#F2AF00"/>
<path d="M579.926 578.904H587.926C592.059 578.904 595.412 575.552 595.412 571.419C595.412 567.286 592.059 563.934 587.926 563.934H579.926C575.79 563.934 572.441 567.286 572.441 571.419C572.441 575.552 575.79 578.904 579.926 578.904Z" fill="#F2AF00"/>
<path d="M579.926 546.904H587.926C592.059 546.904 595.412 543.552 595.412 539.419C595.412 535.283 592.059 531.934 587.926 531.934H579.926C575.79 531.934 572.441 535.283 572.441 539.419C572.441 543.552 575.79 546.904 579.926 546.904Z" fill="#F2AF00"/>
<path d="M519.77 468.999L479.77 444.999C476.222 442.87 471.626 444.02 469.497 447.564C467.373 451.112 468.523 455.708 472.067 457.837L488.897 467.934H435.915C431.782 467.934 428.429 471.283 428.429 475.42C428.429 479.552 431.782 482.905 435.915 482.905H488.897L472.067 493.002C468.523 495.127 467.373 499.728 469.497 503.271C470.901 505.611 473.38 506.905 475.926 506.905C477.236 506.905 478.562 506.562 479.77 505.837L519.77 481.837C522.027 480.484 523.404 478.047 523.404 475.42C523.404 472.788 522.027 470.351 519.77 468.999Z" fill="#F2AF00"/>
</svg>
