<svg width="951" height="951" viewBox="0 0 951 951" fill="none" xmlns="http://www.w3.org/2000/svg">
<circle cx="475.309" cy="475.809" r="459.598" fill="white" stroke="#F2AF00" stroke-width="31"/>
<path d="M693.953 347.387C668.7 318.733 633.667 302.953 595.309 302.953C541.361 302.953 507.206 335.173 488.054 362.203C483.085 369.217 478.858 376.25 475.309 382.868C471.76 376.25 467.534 369.217 462.564 362.203C443.412 335.173 409.257 302.953 355.309 302.953C316.951 302.953 281.918 318.734 256.664 347.388C232.576 374.722 219.309 411.33 219.309 450.468C219.309 493.071 235.942 532.696 271.654 575.168C303.571 613.128 349.488 652.256 402.659 697.565C422.472 714.449 442.961 731.909 464.774 750.994L465.429 751.568C468.257 754.044 471.783 755.281 475.309 755.281C478.835 755.281 482.361 754.043 485.189 751.568L485.844 750.994C507.657 731.909 528.146 714.45 547.962 697.563C601.13 652.257 647.047 613.129 678.964 575.168C714.676 532.695 731.309 493.071 731.309 450.468C731.309 411.33 718.042 374.722 693.953 347.387ZM528.502 674.731C511.422 689.285 493.844 704.264 475.309 720.377C456.775 704.266 439.196 689.286 422.113 674.729C318.054 586.056 249.309 527.475 249.309 450.468C249.309 418.638 259.914 389.074 279.171 367.223C298.649 345.124 325.688 332.953 355.309 332.953C396.438 332.953 423.025 358.291 438.085 379.547C451.594 398.611 458.643 417.829 461.047 425.206C463.058 431.381 468.815 435.56 475.309 435.56C481.803 435.56 487.56 431.381 489.571 425.206C491.975 417.829 499.024 398.611 512.533 379.546C527.593 358.291 554.18 332.953 595.309 332.953C624.93 332.953 651.969 345.124 671.446 367.223C690.704 389.074 701.309 418.638 701.309 450.468C701.309 527.475 632.564 586.056 528.502 674.731Z" fill="#F2AF00"/>
</svg>
