<svg width="951" height="951" viewBox="0 0 951 951" fill="none" xmlns="http://www.w3.org/2000/svg">
<circle cx="475.504" cy="475.418" r="459.598" fill="white" stroke="#F2AF00" stroke-width="31"/>
<path d="M451.504 531.418C455.922 531.418 459.504 527.836 459.504 523.418C459.504 519 455.922 515.418 451.504 515.418C447.086 515.418 443.504 519 443.504 523.418C443.504 527.836 447.086 531.418 451.504 531.418Z" fill="#F2AF00"/>
<path d="M499.504 531.418C503.922 531.418 507.504 527.836 507.504 523.418C507.504 519 503.922 515.418 499.504 515.418C495.086 515.418 491.504 519 491.504 523.418C491.504 527.836 495.086 531.418 499.504 531.418Z" fill="#F2AF00"/>
<path d="M491.504 545.528C488.456 551.624 482.328 555.416 475.504 555.416C468.68 555.416 462.552 551.624 459.504 545.528L458.664 543.84L444.352 551L445.192 552.68C450.968 564.24 462.584 571.416 475.504 571.416C488.424 571.416 500.04 564.24 505.816 552.68L506.656 550.992L492.344 543.832L491.504 545.528Z" fill="#F2AF00"/>
<path d="M659.504 499.418C646.272 499.418 635.504 510.186 635.504 523.418C635.504 536.65 646.272 547.418 659.504 547.418C672.736 547.418 683.504 536.65 683.504 523.418C683.504 510.186 672.736 499.418 659.504 499.418ZM659.504 531.418C655.088 531.418 651.504 527.826 651.504 523.418C651.504 519.01 655.088 515.418 659.504 515.418C663.92 515.418 667.504 519.01 667.504 523.418C667.504 527.826 663.92 531.418 659.504 531.418Z" fill="#F2AF00"/>
<path d="M726.4 512.178L702.568 470.602L683.376 481.89V459.418H635.64L635.784 481.898L616.448 470.602L592.616 512.178L612.088 523.338L611.944 523.418H571.504C571.504 516.21 569.024 509.626 564.992 504.274L567.912 495.49C570.296 488.354 571.504 480.914 571.504 473.37C571.504 439.578 547.416 411.306 515.504 404.826V387.418C515.504 383.01 519.088 379.418 523.504 379.418H547.504V363.418H523.504C510.272 363.418 499.504 374.186 499.504 387.418V403.418H467.504V291.418C467.504 287.01 471.088 283.418 475.504 283.418H612.144C611.768 286.042 611.504 288.698 611.504 291.418C611.504 310.914 621.536 328.098 636.688 338.13L642.368 366.562C643.864 374.01 650.464 379.418 658.056 379.418H676.944C684.536 379.418 691.136 374.01 692.632 366.554L698.312 338.13C713.472 328.098 723.504 310.914 723.504 291.418C723.504 260.538 698.376 235.418 667.504 235.418C645.224 235.418 626 248.53 616.984 267.418H475.504C462.272 267.418 451.504 278.186 451.504 291.418V394.898C443.104 390.05 433.576 387.418 423.624 387.418H419.504V323.418C419.504 310.186 408.736 299.418 395.504 299.418H385.912C386.928 295.258 387.504 290.97 387.504 286.61V285.362C387.504 271.658 382.168 258.77 372.472 249.074C363.792 240.394 351.776 235.418 339.504 235.418C327.68 235.418 316.096 240.034 307.504 248.13C298.912 240.034 287.328 235.418 275.504 235.418C263.232 235.418 251.216 240.394 242.536 249.074C232.84 258.762 227.504 271.65 227.504 285.362V286.61C227.504 302.122 234.152 316.93 245.744 327.226L307.504 382.122L369.264 327.226C373.16 323.762 376.448 319.762 379.16 315.418H395.504C399.92 315.418 403.504 319.01 403.504 323.418V389.778C380.408 396.682 363.504 418.106 363.504 443.418C363.504 466.442 377.48 486.25 397.384 494.842C391.752 497.634 387.104 502.002 383.952 507.418H339.504V443.418H227.504V587.418H339.504V523.418H379.504C379.504 541.066 393.856 555.418 411.504 555.418H413.608C417.76 571.474 427.976 585.074 441.696 593.658L437.04 612.258L403.368 617.074C391.064 618.834 379.104 623.41 368.776 630.29C345.44 645.842 331.504 671.882 331.504 699.93V731.418H619.504V699.362C619.32 671.546 605.376 645.722 582.232 630.29C571.904 623.402 559.944 618.834 547.64 617.074L513.968 612.258L509.312 593.658C523.032 585.074 533.24 571.474 537.4 555.418H539.504C551.296 555.418 561.504 548.938 567.056 539.418H595.336L616.44 576.234L635.2 564.722L635.64 565.01V587.418H683.376L683.336 565.002L702.568 576.234L726.4 534.658L707.056 523.418L726.4 512.178ZM676.952 363.418H658.064L654.552 345.842C658.712 346.834 663.04 347.418 667.504 347.418C671.968 347.418 676.296 346.834 680.464 345.842L676.952 363.418ZM659.504 291.418C659.504 287.01 663.088 283.418 667.504 283.418C671.92 283.418 675.504 287.01 675.504 291.418C675.504 295.826 671.92 299.418 667.504 299.418C663.088 299.418 659.504 295.826 659.504 291.418ZM667.504 251.418C689.56 251.418 707.504 269.362 707.504 291.418C707.504 310.73 693.736 326.89 675.504 330.61V313.946C684.792 310.634 691.504 301.834 691.504 291.418C691.504 278.186 680.736 267.418 667.504 267.418C654.272 267.418 643.504 278.186 643.504 291.418C643.504 301.834 650.216 310.634 659.504 313.946V330.61C641.272 326.89 627.504 310.738 627.504 291.418C627.504 269.362 645.448 251.418 667.504 251.418V251.418ZM371.504 286.61C371.504 297.554 366.816 307.994 358.64 315.266L307.504 360.714L256.368 315.258C248.192 307.994 243.504 297.554 243.504 286.61V285.362C243.504 275.93 247.176 267.058 253.848 260.386C259.552 254.69 267.44 251.418 275.504 251.418C283.568 251.418 291.456 254.69 297.16 260.386L307.504 270.73L317.848 260.386C323.552 254.69 331.44 251.418 339.504 251.418C347.568 251.418 355.456 254.69 361.16 260.386C367.832 267.058 371.504 275.922 371.504 285.362V286.61ZM323.504 571.418H243.504V459.418H323.504V571.418ZM379.504 443.418C379.504 421.362 397.448 403.418 419.504 403.418H423.624C434.304 403.418 444.352 407.578 451.904 415.13L456.184 419.418H501.56C531.304 419.418 555.504 443.618 555.504 473.37C555.504 479.186 554.576 484.922 552.728 490.426L551.592 493.826C547.864 492.298 543.784 491.418 539.504 491.418H533.264C528.872 486.546 522.568 483.418 515.504 483.418H443.504C434.68 483.418 427.504 476.242 427.504 467.418C427.504 458.594 434.68 451.418 443.504 451.418C452.328 451.418 459.504 458.594 459.504 467.418H475.504C475.504 449.77 461.152 435.418 443.504 435.418C425.856 435.418 411.504 449.77 411.504 467.418C411.504 473.122 413.128 478.394 415.752 483.042C395.472 481.114 379.504 464.186 379.504 443.418V443.418ZM395.504 523.418C395.504 514.594 402.68 507.418 411.504 507.418V539.418C402.68 539.418 395.504 532.242 395.504 523.418ZM573.352 643.602C592.08 656.082 603.344 676.97 603.504 699.418V715.418H555.504V683.418H539.504V715.418H411.504V683.418H395.504V715.418H347.504V699.93C347.504 677.242 358.776 656.178 377.656 643.594C386.008 638.026 395.688 634.322 405.64 632.898L438.464 628.218C445.312 642.266 459.552 651.418 475.504 651.418C491.464 651.418 505.704 642.258 512.544 628.218L545.368 632.906C555.328 634.33 565.008 638.034 573.352 643.602ZM499.144 618.97C495.448 628.826 486.096 635.418 475.504 635.418C464.912 635.418 455.568 628.834 451.864 618.954L456.464 600.522C462.48 602.402 468.88 603.418 475.504 603.418C482.128 603.418 488.528 602.402 494.536 600.53L499.144 618.97ZM523.504 539.418C523.504 565.89 501.976 587.418 475.504 587.418C449.032 587.418 427.504 565.89 427.504 539.418V499.418H515.504C519.92 499.418 523.504 503.01 523.504 507.418V539.418ZM539.504 539.418V507.418C548.328 507.418 555.504 514.594 555.504 523.418C555.504 532.242 548.328 539.418 539.504 539.418ZM698.888 537.178L704.608 540.506L696.712 554.29L691.304 551.13C686.784 548.49 681.256 548.29 676.24 550.714L675.256 551.21C670.392 554.05 667.376 559.322 667.376 564.954V571.418H651.64V564.946C651.64 559.314 648.624 554.05 643.76 551.202L643.072 550.818C638.24 548.274 632.416 548.378 627.72 551.122L622.304 554.282L614.408 540.498L620.128 537.17C624.984 534.338 628 529.082 627.984 523.378C628 517.738 624.984 512.482 620.128 509.65L614.408 506.322L622.304 492.538L627.712 495.698C632.616 498.57 638.752 498.554 643.752 495.626C648.616 492.786 651.64 487.514 651.64 481.882V475.418H667.376V481.89C667.376 487.53 670.4 492.794 675.328 495.674C680.28 498.57 686.408 498.586 691.296 495.714L696.712 492.554L704.608 506.338L698.888 509.666C694.032 512.498 691.016 517.754 691.032 523.458C691.008 529.082 694.024 534.346 698.888 537.178V537.178Z" fill="#F2AF00"/>
<path d="M595.504 363.418H611.504V379.418H595.504V363.418Z" fill="#F2AF00"/>
<path d="M563.504 363.418H579.504V379.418H563.504V363.418Z" fill="#F2AF00"/>
<path d="M259.504 475.418H307.504V491.418H259.504V475.418Z" fill="#F2AF00"/>
<path d="M259.504 507.418H307.504V523.418H259.504V507.418Z" fill="#F2AF00"/>
<path d="M259.504 539.418H307.504V555.418H259.504V539.418Z" fill="#F2AF00"/>
</svg>
