<svg width="951" height="951" viewBox="0 0 951 951" fill="none" xmlns="http://www.w3.org/2000/svg">
<circle cx="475.899" cy="475.418" r="459.598" fill="white" stroke="#F2AF00" stroke-width="31"/>
<path d="M513.232 604.154H497.232V594.154C516 585.556 529.232 566.004 529.232 543.636V513.487C529.232 498.783 517.269 486.82 502.565 486.82H411.898C408.949 486.82 406.565 489.21 406.565 492.154V502.82C406.565 512.74 413.37 521.103 422.565 523.482V528.463L412.277 554.175C411.621 555.818 411.824 557.679 412.816 559.146C413.808 560.607 415.461 561.487 417.232 561.487H425.05C429.738 576.404 440.725 588.218 454.565 594.303V604.154H438.565C406.218 604.154 379.898 630.474 379.898 662.82V710.82C379.898 713.764 382.282 716.154 385.232 716.154H566.565C569.514 716.154 571.898 713.764 571.898 710.82V662.82C571.898 630.474 545.578 604.154 513.232 604.154V604.154ZM417.232 502.82V497.487H502.565C511.386 497.487 518.565 504.666 518.565 513.487V540.154C509.744 540.154 502.565 532.975 502.565 524.154V518.82C502.565 515.876 500.181 513.487 497.232 513.487H427.898C422.016 513.487 417.232 508.703 417.232 502.82ZM434.33 554.97C433.781 552.543 431.616 550.82 429.125 550.82H425.104L432.848 531.471C433.104 530.836 433.232 530.164 433.232 529.487V524.154H491.898C491.898 538.65 503.541 550.426 517.957 550.762C514.698 571.428 497.594 587.626 476.997 588.143C456.992 588.698 438.816 574.703 434.33 554.97V554.97ZM465.232 597.69C468.709 598.404 472.277 598.82 475.925 598.82C476.373 598.82 476.821 598.815 477.269 598.804C480.448 598.724 483.546 598.303 486.565 597.658V609.487C486.565 612.431 488.949 614.82 491.898 614.82H494.282L475.898 655.263L457.514 614.82H470.565C473.514 614.82 475.898 612.431 475.898 609.487C475.898 606.543 473.514 604.154 470.565 604.154H465.232V597.69ZM561.232 705.487H390.565V662.82C390.565 636.356 412.096 614.82 438.565 614.82H445.797L471.04 670.362C471.909 672.266 473.802 673.487 475.898 673.487C477.994 673.487 479.888 672.266 480.752 670.362L506 614.82H513.232C539.701 614.82 561.232 636.356 561.232 662.82V705.487Z" fill="#F2AF00" stroke="#F2AF00" stroke-width="9.33"/>
<path d="M475.898 379.717C477.343 379.717 478.735 379.125 479.743 378.08L526.885 329.077C538.591 316.906 538.591 297.098 526.885 284.928C521.146 278.965 513.503 275.68 505.365 275.68C505.359 275.68 505.359 275.68 505.359 275.68C497.221 275.68 489.578 278.965 483.845 284.928L475.898 293.189L467.957 284.933C462.223 278.97 454.581 275.69 446.442 275.685C446.442 275.685 446.442 275.685 446.437 275.685C438.298 275.685 430.655 278.97 424.917 284.933C413.21 297.104 413.21 316.912 424.917 329.082L472.058 378.085C473.061 379.13 474.453 379.717 475.898 379.717V379.717ZM432.602 292.33C436.309 288.474 441.221 286.352 446.437 286.352H446.442C451.658 286.352 456.565 288.474 460.271 292.33L472.058 304.581C474.069 306.672 477.733 306.672 479.743 304.581L491.53 292.33C498.943 284.624 511.786 284.624 519.199 292.33C526.986 300.426 526.986 313.594 519.199 321.685L475.898 366.693L432.602 321.69C424.815 313.594 424.815 300.426 432.602 292.33Z" fill="#F2AF00" stroke="#F2AF00" stroke-width="3.33"/>
<path d="M550.565 294.82C553.514 294.82 555.898 292.431 555.898 289.487V268.154C555.898 265.21 553.514 262.82 550.565 262.82H529.232C526.282 262.82 523.898 265.21 523.898 268.154C523.898 271.098 526.282 273.487 529.232 273.487H545.232V289.487C545.232 292.431 547.616 294.82 550.565 294.82Z" fill="#F2AF00" stroke="#F2AF00" stroke-width="3.33"/>
<path d="M401.232 358.82C398.282 358.82 395.898 361.21 395.898 364.154V385.487C395.898 388.431 398.282 390.82 401.232 390.82H422.565C425.514 390.82 427.898 388.431 427.898 385.487C427.898 382.543 425.514 380.154 422.565 380.154H406.565V364.154C406.565 361.21 404.181 358.82 401.232 358.82Z" fill="#F2AF00" stroke="#F2AF00" stroke-width="3.33"/>
<path d="M694.564 332.151H577.231C562.527 332.151 550.564 344.114 550.564 358.818V417.484H518.564C517.151 417.484 515.791 418.044 514.794 419.047L475.898 457.943L437.002 419.047C435.999 418.044 434.644 417.484 433.231 417.484H369.231C367.092 417.484 365.06 417.047 363.199 416.284C363.13 416.258 363.055 416.236 362.98 416.21C357.252 413.778 353.231 408.103 353.231 401.484V252.151C353.231 243.314 360.394 236.151 369.231 236.151H582.564C591.402 236.151 598.564 243.314 598.564 252.151V316.151C598.564 319.095 600.948 321.484 603.898 321.484C606.847 321.484 609.231 319.095 609.231 316.151V252.151C609.231 237.426 597.29 225.484 582.564 225.484H369.231C354.506 225.484 342.564 237.426 342.564 252.151V401.484C342.564 406.05 343.818 410.284 345.844 414.044C340.751 416.722 337.231 422.007 337.231 428.151C337.231 436.972 344.41 444.151 353.231 444.151C362.052 444.151 369.231 436.972 369.231 428.151H379.898V470.818H363.898C360.948 470.818 358.564 473.207 358.564 476.151V505.943L325.002 472.38C324.004 471.378 322.65 470.818 321.231 470.818H241.231V385.484H326.564C329.514 385.484 331.898 383.095 331.898 380.151C331.898 377.207 329.514 374.818 326.564 374.818H235.898C232.948 374.818 230.564 377.207 230.564 380.151V476.151C230.564 479.095 232.948 481.484 235.898 481.484H319.023L360.127 522.588C361.146 523.607 362.511 524.151 363.898 524.151C364.586 524.151 365.279 524.018 365.94 523.746C367.935 522.919 369.231 520.972 369.231 518.818V481.484H385.231C388.18 481.484 390.564 479.095 390.564 476.151V428.151H431.023L472.127 469.255C473.167 470.295 474.532 470.818 475.898 470.818C477.263 470.818 478.628 470.295 479.668 469.255L520.772 428.151H550.564V454.818C550.564 469.522 562.527 481.484 577.231 481.484H582.564V513.484C582.564 515.639 583.86 517.586 585.855 518.412C586.516 518.684 587.21 518.818 587.898 518.818C589.284 518.818 590.65 518.274 591.668 517.255L627.439 481.484H694.564C709.268 481.484 721.231 469.522 721.231 454.818V358.818C721.231 344.114 709.268 332.151 694.564 332.151V332.151ZM358.564 428.151C358.564 431.09 356.175 433.484 353.231 433.484C350.287 433.484 347.898 431.09 347.898 428.151C347.898 425.212 350.287 422.818 353.231 422.818C353.3 422.818 353.327 422.828 353.391 422.828C354.746 423.836 356.191 424.706 357.727 425.442C358.164 426.124 358.564 426.972 358.564 428.151V428.151ZM710.564 454.818C710.564 463.639 703.386 470.818 694.564 470.818H625.231C623.812 470.818 622.458 471.378 621.46 472.38L593.231 500.61V476.151C593.231 473.207 590.847 470.818 587.898 470.818H577.231C568.41 470.818 561.231 463.639 561.231 454.818V358.818C561.231 349.996 568.41 342.818 577.231 342.818H694.564C703.386 342.818 710.564 349.996 710.564 358.818V454.818Z" fill="#F2AF00" stroke="#F2AF00" stroke-width="11.33"/>
<path d="M640.672 377.771C638.859 374.155 632.944 374.155 631.131 377.771L604.464 431.104C603.638 432.757 603.723 434.72 604.699 436.293C605.67 437.861 607.382 438.821 609.232 438.821H662.566C664.416 438.821 666.128 437.861 667.104 436.293C668.08 434.72 668.166 432.757 667.339 431.104L640.672 377.771ZM617.862 428.155L635.899 392.08L653.936 428.155H617.862Z" fill="#F2AF00" stroke="#F2AF00" stroke-width="3.33"/>
<path d="M251.898 428.156C251.898 436.978 259.077 444.156 267.898 444.156C276.72 444.156 283.898 436.978 283.898 428.156C283.898 419.335 276.72 412.156 267.898 412.156C259.077 412.156 251.898 419.335 251.898 428.156ZM273.232 428.156C273.232 431.095 270.842 433.49 267.898 433.49C264.954 433.49 262.565 431.095 262.565 428.156C262.565 425.218 264.954 422.823 267.898 422.823C270.842 422.823 273.232 425.218 273.232 428.156Z" fill="#F2AF00" stroke="#F2AF00" stroke-width="3.33"/>
<path d="M294.564 428.156C294.564 436.978 301.743 444.156 310.564 444.156C319.386 444.156 326.564 436.978 326.564 428.156C326.564 419.335 319.386 412.156 310.564 412.156C301.743 412.156 294.564 419.335 294.564 428.156ZM315.898 428.156C315.898 431.095 313.508 433.49 310.564 433.49C307.62 433.49 305.231 431.095 305.231 428.156C305.231 425.218 307.62 422.823 310.564 422.823C313.508 422.823 315.898 425.218 315.898 428.156Z" fill="#F2AF00" stroke="#F2AF00" stroke-width="3.33"/>
<path d="M395.492 564.775C394.671 562.786 392.719 561.484 390.564 561.484H358.564V550.818C358.564 547.874 356.18 545.484 353.231 545.484H235.898C232.948 545.484 230.564 547.874 230.564 550.818V689.484C230.564 692.428 232.948 694.818 235.898 694.818H353.231C356.18 694.818 358.564 692.428 358.564 689.484V606.359L394.335 570.588C395.86 569.063 396.319 566.77 395.492 564.775ZM349.46 600.38C348.458 601.378 347.898 602.738 347.898 604.151V684.151H241.231V556.151H347.898V566.818C347.898 569.762 350.282 572.151 353.231 572.151H377.69L349.46 600.38Z" fill="#F2AF00" stroke="#F2AF00" stroke-width="9.33"/>
<path d="M715.898 540.156H587.898C584.949 540.156 582.565 542.546 582.565 545.49V556.156H550.565C548.41 556.156 546.458 557.458 545.637 559.447C544.81 561.442 545.269 563.735 546.794 565.26L582.565 601.031V641.49C582.565 644.434 584.949 646.823 587.898 646.823H715.898C718.847 646.823 721.231 644.434 721.231 641.49V545.49C721.231 542.546 718.847 540.156 715.898 540.156ZM710.565 636.156H593.231V598.823C593.231 597.41 592.671 596.05 591.669 595.052L563.439 566.823H587.898C590.847 566.823 593.231 564.434 593.231 561.49V550.823H710.565V636.156Z" fill="#F2AF00" stroke="#F2AF00" stroke-width="9.33"/>
<path d="M614.566 577.487H689.232C692.182 577.487 694.566 575.098 694.566 572.154C694.566 569.21 692.182 566.82 689.232 566.82H614.566C611.616 566.82 609.232 569.21 609.232 572.154C609.232 575.098 611.616 577.487 614.566 577.487Z" fill="#F2AF00" stroke="#F2AF00" stroke-width="3.33"/>
<path d="M614.566 598.823H689.232C692.182 598.823 694.566 596.434 694.566 593.49C694.566 590.546 692.182 588.156 689.232 588.156H614.566C611.616 588.156 609.232 590.546 609.232 593.49C609.232 596.434 611.616 598.823 614.566 598.823Z" fill="#F2AF00" stroke="#F2AF00" stroke-width="3.33"/>
<path d="M326.566 572.156H262.566C259.616 572.156 257.232 574.546 257.232 577.49C257.232 580.434 259.616 582.823 262.566 582.823H326.566C329.515 582.823 331.899 580.434 331.899 577.49C331.899 574.546 329.515 572.156 326.566 572.156Z" fill="#F2AF00" stroke="#F2AF00" stroke-width="3.33"/>
<path d="M326.566 593.484H262.566C259.616 593.484 257.232 595.874 257.232 598.818C257.232 601.762 259.616 604.151 262.566 604.151H326.566C329.515 604.151 331.899 601.762 331.899 598.818C331.899 595.874 329.515 593.484 326.566 593.484Z" fill="#F2AF00" stroke="#F2AF00" stroke-width="3.33"/>
<path d="M326.566 614.82H262.566C259.616 614.82 257.232 617.21 257.232 620.154C257.232 623.098 259.616 625.487 262.566 625.487H326.566C329.515 625.487 331.899 623.098 331.899 620.154C331.899 617.21 329.515 614.82 326.566 614.82Z" fill="#F2AF00" stroke="#F2AF00" stroke-width="3.33"/>
<path d="M326.566 636.156H262.566C259.616 636.156 257.232 638.546 257.232 641.49C257.232 644.434 259.616 646.823 262.566 646.823H326.566C329.515 646.823 331.899 644.434 331.899 641.49C331.899 638.546 329.515 636.156 326.566 636.156Z" fill="#F2AF00" stroke="#F2AF00" stroke-width="3.33"/>
<path d="M326.566 657.484H262.566C259.616 657.484 257.232 659.874 257.232 662.818C257.232 665.762 259.616 668.151 262.566 668.151H326.566C329.515 668.151 331.899 665.762 331.899 662.818C331.899 659.874 329.515 657.484 326.566 657.484Z" fill="#F2AF00" stroke="#F2AF00" stroke-width="3.33"/>
<path d="M523.899 657.484H502.566C499.616 657.484 497.232 659.874 497.232 662.818V684.151C497.232 686.172 498.374 688.018 500.182 688.924L510.848 694.258C511.595 694.631 512.416 694.818 513.232 694.818C514.048 694.818 514.87 694.631 515.616 694.258L526.283 688.924C528.091 688.018 529.232 686.172 529.232 684.151V662.818C529.232 659.874 526.848 657.484 523.899 657.484ZM518.566 680.855L513.232 683.522L507.899 680.855V668.151H518.566V680.855Z" fill="#F2AF00" stroke="#F2AF00" stroke-width="3.33"/>
<path d="M646.566 620.151C649.511 620.151 651.899 617.763 651.899 614.818C651.899 611.872 649.511 609.484 646.566 609.484C643.62 609.484 641.232 611.872 641.232 614.818C641.232 617.763 643.62 620.151 646.566 620.151Z" fill="#F2AF00" stroke="#F2AF00" stroke-width="3.33"/>
<path d="M667.898 620.151C670.843 620.151 673.231 617.763 673.231 614.818C673.231 611.872 670.843 609.484 667.898 609.484C664.952 609.484 662.564 611.872 662.564 614.818C662.564 617.763 664.952 620.151 667.898 620.151Z" fill="#F2AF00" stroke="#F2AF00" stroke-width="3.33"/>
<path d="M689.232 620.151C692.177 620.151 694.565 617.763 694.565 614.818C694.565 611.872 692.177 609.484 689.232 609.484C686.286 609.484 683.898 611.872 683.898 614.818C683.898 617.763 686.286 620.151 689.232 620.151Z" fill="#F2AF00" stroke="#F2AF00" stroke-width="3.33"/>
<path d="M614.566 620.151H625.232C628.182 620.151 630.566 617.762 630.566 614.818C630.566 611.874 628.182 609.484 625.232 609.484H614.566C611.616 609.484 609.232 611.874 609.232 614.818C609.232 617.762 611.616 620.151 614.566 620.151Z" fill="#F2AF00" stroke="#F2AF00" stroke-width="3.33"/>
</svg>
