<svg width="951" height="951" viewBox="0 0 951 951" fill="none" xmlns="http://www.w3.org/2000/svg">
<circle cx="475.114" cy="475.809" r="459.598" fill="white" stroke="#F2AF00" stroke-width="31"/>
<path d="M726.441 320.519L630.441 224.487C625.865 219.911 618.985 218.535 613.001 221.031C607.017 223.527 603.113 229.351 603.113 235.815V284.487C553.897 288.679 507.945 311.943 475.113 349.223C442.281 311.943 396.329 288.679 347.113 284.487V235.815C347.113 229.351 343.209 223.495 337.225 221.031C331.337 218.535 324.361 219.911 319.785 224.487L223.785 320.487C217.545 326.727 217.545 336.871 223.785 343.111L319.785 439.111C324.393 443.719 331.305 445.127 337.225 442.567C343.209 440.135 347.113 434.279 347.113 427.815V381.159C392.457 388.775 427.113 428.327 427.113 475.815V715.815C427.113 724.647 434.281 731.815 443.113 731.815H507.113C515.945 731.815 523.113 724.647 523.113 715.815V475.815C523.113 428.327 557.769 388.775 603.113 381.159V427.815C603.113 434.279 607.017 440.135 613.001 442.599C618.953 445.127 625.833 443.719 630.441 439.143L726.441 343.143C732.681 336.903 732.681 326.759 726.441 320.519ZM635.113 389.191V363.815C635.113 354.983 627.945 347.815 619.113 347.815C548.521 347.815 491.113 405.223 491.113 475.815V699.815H459.113V475.815C459.113 405.223 401.705 347.815 331.113 347.815C322.281 347.815 315.113 354.983 315.113 363.815V389.191L257.737 331.815L315.113 274.439V299.815C315.113 308.647 322.281 315.815 331.113 315.815C382.921 315.815 431.849 341.383 462.025 384.231C468.041 392.743 482.217 392.743 488.201 384.231C518.377 341.383 567.305 315.815 619.113 315.815C627.945 315.815 635.113 308.647 635.113 299.815V274.439L692.489 331.815L635.113 389.191Z" fill="#F2AF00"/>
</svg>
