<svg width="951" height="952" viewBox="0 0 951 952" fill="none" xmlns="http://www.w3.org/2000/svg">
<circle cx="475.899" cy="476.004" r="459.598" fill="white" stroke="#F2AF00" stroke-width="31"/>
<path d="M633.312 584.008L647.656 569.664L636.344 558.352L622 572.696L606.904 557.6C619.032 535.768 626 510.696 626 484.008C626 481.728 625.76 479.512 625.656 477.256C663.248 468.416 690 435.136 690 396.008H674C674 426.904 653.376 453.328 624.096 461.2C613.032 388.192 550.04 332.008 474 332.008C471.72 332.008 469.504 332.248 467.248 332.352C458.408 294.76 425.128 268.008 386 268.008V284.008C416.896 284.008 443.32 304.632 451.192 333.912C378.184 344.976 322 407.968 322 484.008C322 486.288 322.24 488.504 322.344 490.76C284.752 499.6 258 532.88 258 572.008H274C274 541.112 294.624 514.688 323.904 506.816C334.968 579.824 397.96 636.008 474 636.008C500.688 636.008 525.76 629.04 547.584 616.912L562.68 632.008L548.336 646.352L559.648 657.664L573.992 643.32L650.4 719.728C658.32 727.648 668.856 732.008 680.056 732.008C703.184 732.008 722 713.192 722 690.072C722 678.872 717.64 668.336 709.72 660.416L633.312 584.008ZM474 348.008C542.24 348.008 598.728 398.568 608.384 464.168L592.616 466.792C584.232 408.768 534.312 364.008 474 364.008C473.592 364.008 473.192 364.064 472.784 364.072L470.144 348.208C471.44 348.168 472.696 348.008 474 348.008ZM474 380.008C531.344 380.008 578 426.664 578 484.008C578 541.352 531.344 588.008 474 588.008C416.656 588.008 370 541.352 370 484.008C370 426.664 416.656 380.008 474 380.008ZM338 484.008C338 415.768 388.56 359.28 454.16 349.624L456.784 365.392C398.76 373.776 354 423.696 354 484.008C354 484.416 354.056 484.816 354.064 485.224L338.2 487.864C338.16 486.568 338 485.312 338 484.008ZM474 620.008C405.76 620.008 349.272 569.448 339.616 503.848L355.384 501.224C363.768 559.248 413.688 604.008 474 604.008C540.168 604.008 594 550.176 594 484.008C594 483.6 593.944 483.2 593.936 482.792L609.8 480.152C609.84 481.448 610 482.704 610 484.008C610 559 548.992 620.008 474 620.008ZM561.44 608.136C575.664 598.088 588.08 585.672 598.128 571.448L610.688 584.008L574 620.696L561.44 608.136ZM680.064 716.008C673.136 716.008 666.616 713.312 661.72 708.416L585.312 632.008L622 595.32L698.408 671.728C703.304 676.624 706 683.144 706 690.072C706 704.376 694.368 716.008 680.064 716.008Z" fill="#F2AF00" stroke="#F2AF00" stroke-width="7"/>
<path d="M650 380.008C689.704 380.008 722 347.712 722 308.008C722 268.304 689.704 236.008 650 236.008C610.296 236.008 578 268.304 578 308.008C578 347.712 610.296 380.008 650 380.008ZM674 358.528C666.712 362 658.592 364.008 650 364.008C641.408 364.008 633.288 362 626 358.528V348.008C626 334.776 636.768 324.008 650 324.008C663.232 324.008 674 334.776 674 348.008V358.528ZM634 292.008C634 283.184 641.176 276.008 650 276.008C658.824 276.008 666 283.184 666 292.008C666 300.832 658.824 308.008 650 308.008C641.176 308.008 634 300.832 634 292.008ZM650 252.008C680.872 252.008 706 277.136 706 308.008C706 323.264 699.848 337.096 689.92 347.208C689.648 333.76 682.776 321.896 672.352 314.848C678.288 309.04 682 300.96 682 292.008C682 274.36 667.648 260.008 650 260.008C632.352 260.008 618 274.36 618 292.008C618 300.96 621.712 309.04 627.648 314.848C617.216 321.904 610.344 333.76 610.08 347.208C600.152 337.096 594 323.264 594 308.008C594 277.136 619.128 252.008 650 252.008Z" fill="#F2AF00" stroke="#F2AF00" stroke-width="7"/>
<path d="M298 380.008C337.704 380.008 370 347.712 370 308.008C370 268.304 337.704 236.008 298 236.008C258.296 236.008 226 268.304 226 308.008C226 347.712 258.296 380.008 298 380.008ZM322 358.528C314.712 362 306.592 364.008 298 364.008C289.408 364.008 281.288 362 274 358.528V348.008C274 334.776 284.768 324.008 298 324.008C311.232 324.008 322 334.776 322 348.008V358.528ZM282 292.008C282 283.184 289.176 276.008 298 276.008C306.824 276.008 314 283.184 314 292.008C314 300.832 306.824 308.008 298 308.008C289.176 308.008 282 300.832 282 292.008ZM298 252.008C328.872 252.008 354 277.136 354 308.008C354 323.264 347.848 337.096 337.92 347.208C337.648 333.76 330.776 321.896 320.352 314.848C326.288 309.04 330 300.96 330 292.008C330 274.36 315.648 260.008 298 260.008C280.352 260.008 266 274.36 266 292.008C266 300.96 269.712 309.04 275.648 314.848C265.224 321.904 258.352 333.76 258.08 347.208C248.152 337.096 242 323.264 242 308.008C242 277.136 267.128 252.008 298 252.008Z" fill="#F2AF00" stroke="#F2AF00" stroke-width="7"/>
<path d="M298 588.008C258.296 588.008 226 620.304 226 660.008C226 699.712 258.296 732.008 298 732.008C337.704 732.008 370 699.712 370 660.008C370 620.304 337.704 588.008 298 588.008ZM322 710.528C314.712 714 306.592 716.008 298 716.008C289.408 716.008 281.288 714 274 710.528V700.008C274 686.776 284.768 676.008 298 676.008C311.232 676.008 322 686.776 322 700.008V710.528ZM282 644.008C282 635.184 289.176 628.008 298 628.008C306.824 628.008 314 635.184 314 644.008C314 652.832 306.824 660.008 298 660.008C289.176 660.008 282 652.832 282 644.008ZM337.92 699.208C337.648 685.76 330.776 673.896 320.352 666.848C326.288 661.04 330 652.96 330 644.008C330 626.36 315.648 612.008 298 612.008C280.352 612.008 266 626.36 266 644.008C266 652.96 269.712 661.04 275.648 666.848C265.224 673.904 258.352 685.76 258.08 699.208C248.152 689.096 242 675.264 242 660.008C242 629.136 267.128 604.008 298 604.008C328.872 604.008 354 629.136 354 660.008C354 675.264 347.848 689.096 337.92 699.208Z" fill="#F2AF00" stroke="#F2AF00" stroke-width="7"/>
<path d="M386 468.008V508.008V516.008V524.008H562V516.008V508.008V436.008H514V508.008H498V404.008H450V508.008H434V468.008H386ZM530 452.008H546V508.008H530V452.008ZM466 420.008H482V508.008H466V420.008ZM418 508.008H402V484.008H418V508.008Z" fill="#F2AF00" stroke="#F2AF00" stroke-width="7"/>
</svg>
