<svg width="959" height="960" viewBox="0 0 959 960" fill="none" xmlns="http://www.w3.org/2000/svg">
<g filter="url(#filter0_d)">
<circle cx="479.703" cy="476.004" r="475.098" fill="white"/>
<circle cx="479.703" cy="476.004" r="459.598" stroke="#F2AF00" stroke-width="31"/>
</g>
<g filter="url(#filter1_d)">
<path d="M479.703 220.008C338.318 220.008 223.703 334.623 223.703 476.008C223.703 617.393 338.318 732.008 479.703 732.008C621.088 732.008 735.703 617.393 735.703 476.008C735.543 334.689 621.022 220.168 479.703 220.008ZM479.703 714.941C347.744 714.941 240.77 607.967 240.77 476.008C240.77 344.049 347.744 237.074 479.703 237.074C611.662 237.074 718.636 344.049 718.636 476.008C718.489 607.906 611.601 714.794 479.703 714.941Z" fill="#F2AF00" stroke="#F2AF00" stroke-width="8.53333"/>
<path d="M479.703 450.406H411.437C392.594 450.427 377.324 465.697 377.303 484.54V535.74C377.313 545.161 384.948 552.797 394.37 552.806H496.77C506.192 552.797 513.827 545.161 513.837 535.74V484.54C513.815 465.697 498.546 450.427 479.703 450.406ZM394.37 484.54C394.379 475.118 402.015 467.482 411.437 467.473H479.703C488.942 467.49 496.488 474.859 496.726 484.094C481.104 483.753 450.675 485.281 434.57 500.734C427.291 507.662 423.476 517.471 424.159 527.496C424.282 530.273 424.658 533.032 425.283 535.74H394.37V484.54ZM496.77 535.74H442.912C441.935 532.845 441.361 529.83 441.205 526.78C440.704 521.65 442.615 516.579 446.375 513.055C457.182 502.673 481.936 500.924 496.77 501.18V535.74Z" fill="#F2AF00" stroke="#F2AF00" stroke-width="8.53333"/>
<path d="M393.956 394.77L397.944 397.62C401.781 400.359 407.111 399.469 409.849 395.633C412.588 391.796 411.698 386.466 407.862 383.728L348.128 341.061C345.647 339.289 342.409 338.976 339.634 340.24C336.858 341.503 334.968 344.151 334.675 347.186C334.381 350.221 335.729 353.182 338.211 354.953L345.391 360.081C330.663 367.162 323.043 383.708 327.236 399.503C331.429 415.298 346.252 425.886 362.553 424.729C378.854 423.573 392.034 410.998 393.956 394.77V394.77ZM360.236 407.741C350.811 407.741 343.17 400.1 343.17 390.674C343.17 381.248 350.811 373.607 360.236 373.607C362.125 373.592 363.999 373.94 365.757 374.631L373.64 380.263C376.003 383.219 377.294 386.889 377.303 390.674C377.294 400.096 369.658 407.731 360.236 407.741Z" fill="#F2AF00" stroke="#F2AF00" stroke-width="8.53333"/>
<path d="M545.751 360.081L552.931 354.953C555.413 353.182 556.761 350.221 556.467 347.186C556.174 344.151 554.284 341.503 551.509 340.24C548.733 338.976 545.495 339.289 543.014 341.061L483.28 383.728C479.444 386.466 478.554 391.796 481.293 395.633C484.032 399.469 489.361 400.359 493.198 397.62L497.186 394.77C499.108 410.998 512.288 423.573 528.589 424.729C544.89 425.886 559.713 415.298 563.906 399.503C568.099 383.708 560.479 367.162 545.751 360.081ZM530.903 407.741C521.481 407.731 513.846 400.096 513.836 390.674C513.844 386.888 515.136 383.216 517.5 380.259L525.383 374.627C527.141 373.937 529.015 373.591 530.903 373.607C540.329 373.607 547.97 381.248 547.97 390.674C547.97 400.1 540.329 407.741 530.903 407.741Z" fill="#F2AF00" stroke="#F2AF00" stroke-width="8.53333"/>
</g>
<defs>
<filter id="filter0_d" x="0.605469" y="0.90625" width="958.196" height="958.196" filterUnits="userSpaceOnUse" color-interpolation-filters="sRGB">
<feFlood flood-opacity="0" result="BackgroundImageFix"/>
<feColorMatrix in="SourceAlpha" type="matrix" values="0 0 0 0 0 0 0 0 0 0 0 0 0 0 0 0 0 0 127 0"/>
<feOffset dy="4"/>
<feGaussianBlur stdDeviation="2"/>
<feColorMatrix type="matrix" values="0 0 0 0 0 0 0 0 0 0 0 0 0 0 0 0 0 0 0.25 0"/>
<feBlend mode="normal" in2="BackgroundImageFix" result="effect1_dropShadow"/>
<feBlend mode="normal" in="SourceGraphic" in2="effect1_dropShadow" result="shape"/>
</filter>
<filter id="filter1_d" x="215.437" y="215.742" width="528.533" height="528.533" filterUnits="userSpaceOnUse" color-interpolation-filters="sRGB">
<feFlood flood-opacity="0" result="BackgroundImageFix"/>
<feColorMatrix in="SourceAlpha" type="matrix" values="0 0 0 0 0 0 0 0 0 0 0 0 0 0 0 0 0 0 127 0"/>
<feOffset dy="4"/>
<feGaussianBlur stdDeviation="2"/>
<feColorMatrix type="matrix" values="0 0 0 0 0 0 0 0 0 0 0 0 0 0 0 0 0 0 0.25 0"/>
<feBlend mode="normal" in2="BackgroundImageFix" result="effect1_dropShadow"/>
<feBlend mode="normal" in="SourceGraphic" in2="effect1_dropShadow" result="shape"/>
</filter>
</defs>
</svg>
