<svg width="952" height="951" viewBox="0 0 952 951" fill="none" xmlns="http://www.w3.org/2000/svg">
<circle cx="475.918" cy="475.614" r="459.598" fill="white" stroke="#F2AF00" stroke-width="31"/>
<path d="M676.625 339.05C673.181 325.924 644.144 318.653 611.712 314.633C618.575 309.348 636.945 292.347 636.945 261.62C636.945 224.663 610.31 207.502 609.173 206.789L600.653 220.347C600.853 220.475 620.929 233.424 620.929 261.62C620.929 289.48 601.437 302.381 600.653 302.885L607.732 314.145C580.04 310.957 550.619 310.021 532.849 309.764V284.171C542.146 280.855 548.865 272.046 548.865 261.62C548.865 248.375 538.086 237.596 524.841 237.596C511.595 237.596 500.817 248.375 500.817 261.62C500.817 272.046 507.535 280.855 516.833 284.171V309.684C502.546 309.756 472.332 310.309 442.518 313.24L449.021 302.893C448.813 302.765 428.736 289.816 428.736 261.62C428.736 233.76 448.228 220.859 449.053 220.331L444.752 213.572L440.492 206.789C439.355 207.502 412.72 224.663 412.72 261.62C412.72 290.921 429.425 307.73 436.929 313.816C401.781 317.644 368.724 324.988 365.033 339.05C362.134 344.295 359.539 349.54 357.153 354.777L223.058 310.085L221.825 309.668H204.512V325.684H219.23L351.027 369.616C344.156 388.539 340.648 407.334 340.648 425.785V459.779L318.218 500.9L219.23 533.893H204.512V549.909H221.825L306.966 521.528L296.188 541.284C293.841 545.593 292.6 550.461 292.6 555.37C292.6 569.905 303.451 582.43 317.849 584.496L348.656 588.884V613.973C348.656 644.876 373.809 670.029 404.712 670.029H428.736V702.061H444.752V654.013H404.712C382.634 654.013 364.672 636.051 364.672 613.973V574.998L320.124 568.632C313.557 567.695 308.616 561.993 308.616 555.37C308.616 553.136 309.177 550.91 310.25 548.948L329.261 514.097L462.25 469.765C508.36 469.084 544.653 437.132 546.19 435.755L552.853 429.789L546.19 423.823C544.653 422.445 508.36 390.493 462.25 389.812L372.432 359.87C373.217 358.189 373.97 356.507 374.81 354.825C405.849 372.651 499.175 373.732 520.829 373.732C542.482 373.732 635.808 372.651 666.847 354.825C678.875 378.898 684.993 402.729 684.993 425.785C684.993 478.253 667.376 530.049 635.383 571.635L604.913 611.25V702.061H620.929V616.696L648.084 581.396C682.206 537.032 701.009 481.761 701.009 425.785C701.009 397.42 692.777 368.239 676.625 339.05ZM497.085 413.164C510.218 418.289 521.053 424.984 527.796 429.789C521.053 434.585 510.218 441.28 497.085 446.413C499.423 441.328 500.809 435.73 500.809 429.789C500.809 423.847 499.423 418.249 497.085 413.164ZM460.768 405.764C474.014 405.764 484.793 416.543 484.793 429.789C484.793 443.034 474.014 453.813 460.768 453.813C447.523 453.813 436.744 443.034 436.744 429.789C436.744 416.543 447.523 405.764 460.768 405.764ZM427.359 395.058C397.409 404.371 376.508 422.782 375.347 423.823L368.684 429.789L375.347 435.755C376.508 436.796 397.401 455.206 427.359 464.519L340.52 493.468L356.664 463.863V425.785C356.664 409.088 359.899 391.983 366.226 374.685L427.359 395.058ZM424.452 446.413C411.319 441.288 400.484 434.593 393.741 429.789C400.484 424.992 411.319 418.297 424.452 413.164C422.114 418.249 420.728 423.847 420.728 429.789C420.728 435.73 422.114 441.328 424.452 446.413ZM516.825 261.62C516.825 257.2 520.412 253.612 524.833 253.612C529.253 253.612 532.841 257.2 532.841 261.62C532.841 266.04 529.253 269.628 524.833 269.628C520.412 269.628 516.825 266.04 516.825 261.62ZM520.829 357.716C446.25 357.716 395.111 348.819 382.602 341.7C394.878 334.717 444.456 326.029 516.825 325.716V341.7H532.841V325.772C600.861 326.661 647.235 334.974 659.055 341.7C646.547 348.819 595.407 357.716 520.829 357.716Z" fill="#F2AF00" stroke="#F2AF00" stroke-width="8"/>
<path d="M572.882 261.619C572.882 277.371 560.213 287.141 560.117 287.205L569.631 300.09C570.415 299.513 588.898 285.603 588.898 261.619C588.898 237.635 570.415 223.725 569.631 223.141L560.085 235.994C560.213 236.098 572.882 245.867 572.882 261.619Z" fill="#F2AF00"/>
<path d="M480.035 300.098L489.58 287.245C489.452 287.141 476.784 277.371 476.784 261.619C476.784 245.867 489.452 236.098 489.588 236.002L484.792 229.587L480.035 223.141C479.25 223.725 460.767 237.635 460.767 261.619C460.767 285.603 479.25 299.513 480.035 300.098Z" fill="#F2AF00" stroke="#F2AF00" stroke-width="8"/>
</svg>
