<svg width="951" height="952" viewBox="0 0 951 952" fill="none" xmlns="http://www.w3.org/2000/svg">
<circle cx="475.504" cy="476.004" r="459.598" fill="white" stroke="#F2AF00" stroke-width="31"/>
<path d="M671.225 457.264C653.803 448.554 621.138 448.453 619.756 448.453C615.614 448.453 612.256 451.811 612.256 455.953C612.256 460.095 615.614 463.453 619.756 463.453C628.185 463.454 652.658 464.752 664.517 470.681C665.594 471.22 666.738 471.474 667.865 471.474C670.616 471.474 673.265 469.954 674.579 467.327C676.432 463.622 674.93 459.117 671.225 457.264Z" fill="#F2AF00" stroke="#F2AF00" stroke-width="6"/>
<path d="M708.616 564.045L677.641 555.195C676.304 554.813 675.37 553.575 675.37 552.184V541.845C677.89 540.099 680.294 538.145 682.541 535.964C693.431 525.396 699.428 511.221 699.428 496.049V481.782L702.423 475.793C705.71 469.218 707.447 461.857 707.447 454.507V415.857C707.447 411.715 704.089 408.357 699.947 408.357H627.774C601.53 408.357 580.178 429.709 580.178 455.953V456.4C580.178 462.512 581.623 468.633 584.356 474.099L588.197 481.781V494.031C588.197 513.445 597.764 530.864 612.255 541.346L612.257 552.182C612.257 553.853 612.257 554.545 606.064 556.315L590.95 560.633L547.229 544.735C547.386 542.672 546.69 540.574 545.185 538.993L531.214 524.315V499.675C532.691 498.458 534.147 497.208 535.558 495.886C553.183 479.366 563.291 456.042 563.291 431.895V412.217C568.613 400.636 571.31 388.381 571.31 375.76V295.57C571.31 291.428 567.952 288.07 563.81 288.07H451.541C412.031 288.07 379.888 320.214 379.888 359.723V375.762C379.888 388.383 382.585 400.638 387.907 412.219V429.15C387.907 457.186 400.373 482.444 419.984 499.096V524.316L406.013 538.994C404.508 540.575 403.812 542.673 403.969 544.736L357.824 561.515C354.48 562.731 351.373 564.378 348.552 566.373L341.306 562.75C362.876 553.361 369.709 540.156 370.037 539.5C371.093 537.389 371.093 534.903 370.037 532.792C364.63 521.978 363.975 502.157 363.449 486.231C363.274 480.929 363.108 475.92 362.791 471.46C360.234 435.486 332.886 408.357 299.176 408.357C265.466 408.357 238.117 435.485 235.561 471.46C235.244 475.921 235.078 480.93 234.903 486.233C234.377 502.158 233.721 521.977 228.315 532.791C227.259 534.902 227.259 537.388 228.315 539.499C228.643 540.155 235.462 553.333 257.075 562.733L236.948 572.796C226.188 578.18 219.504 588.995 219.504 601.024V656.433C219.504 660.575 222.862 663.933 227.004 663.933C231.146 663.933 234.504 660.575 234.504 656.433V601.024C234.504 594.712 238.011 589.037 243.656 586.214L268.719 573.683L277.437 581.968C283.533 587.761 291.353 590.656 299.176 590.656C306.997 590.656 314.821 587.759 320.915 581.968L329.632 573.684L337.804 577.77C333.956 583.927 331.772 591.147 331.772 598.71V656.435C331.772 660.577 335.13 663.935 339.272 663.935C343.414 663.935 346.772 660.577 346.772 656.435V598.71C346.772 588.414 353.273 579.132 362.95 575.613L411.602 557.922L431.855 588.303C434.444 592.187 438.593 594.678 443.238 595.138C443.756 595.189 444.271 595.214 444.785 595.214C448.883 595.214 452.808 593.601 455.742 590.668L468.098 578.312V656.436C468.098 660.578 471.456 663.936 475.598 663.936C479.74 663.936 483.098 660.578 483.098 656.436V578.312L495.454 590.668C498.387 593.602 502.312 595.215 506.411 595.215C506.924 595.215 507.44 595.19 507.957 595.139C512.603 594.679 516.752 592.188 519.341 588.304L539.595 557.924L588.246 575.615C597.922 579.134 604.424 588.416 604.424 598.712V656.437C604.424 660.579 607.782 663.937 611.924 663.937C616.066 663.937 619.424 660.579 619.424 656.437V598.712C619.424 588.284 615.281 578.504 608.331 571.271L610.184 570.742C612.053 570.208 614.603 569.477 617.163 568.222L636.312 587.371V656.437C636.312 660.579 639.67 663.937 643.812 663.937C647.954 663.937 651.312 660.579 651.312 656.437V587.371L670.328 568.355C671.339 568.869 672.401 569.303 673.519 569.622L704.495 578.472C711.565 580.492 716.504 587.039 716.504 594.393V656.437C716.504 660.579 719.862 663.937 724.004 663.937C728.146 663.937 731.504 660.579 731.504 656.437V594.393C731.504 580.375 722.092 567.896 708.616 564.045ZM267.619 550.798C253.59 545.75 246.553 539.02 243.549 535.345C245.597 529.991 246.925 523.859 247.824 517.386C251.96 527.303 258.887 535.769 267.619 541.809V550.798ZM310.584 571.096C304.187 577.174 294.166 577.173 287.771 571.095L280.796 564.467C281.973 562.262 282.62 559.762 282.62 557.143V549.149C287.852 550.784 293.414 551.666 299.178 551.666C304.935 551.666 310.494 550.78 315.735 549.154L315.734 557.142C315.734 559.762 316.38 562.263 317.558 564.469L310.584 571.096ZM299.18 536.666C276.784 536.666 258.565 518.446 258.565 496.051C258.565 491.909 255.207 488.551 251.065 488.551C250.645 488.551 250.235 488.594 249.834 488.661C249.856 488.016 249.877 487.37 249.899 486.731C250.066 481.574 250.227 476.703 250.524 472.525C251.482 459.049 256.867 446.631 265.687 437.557C274.586 428.401 286.48 423.359 299.178 423.359C311.876 423.359 323.769 428.401 332.669 437.557C341.489 446.631 346.874 459.049 347.832 472.525C348.128 476.702 348.29 481.572 348.46 486.728C348.475 487.171 348.49 487.62 348.505 488.066C340.345 475.494 327.743 466.229 311.46 460.997C296.417 456.164 283.479 456.463 282.933 456.477C280.969 456.532 279.105 457.354 277.742 458.768L264.21 472.802C261.335 475.784 261.421 480.532 264.403 483.407C267.385 486.282 272.133 486.195 275.008 483.214L286.268 471.537C295.965 472.011 327.162 475.639 339.295 502.356C336.242 522.044 319.32 536.666 299.18 536.666ZM330.733 550.823L330.734 541.878C339.459 535.871 346.396 527.421 350.535 517.429C351.434 523.887 352.761 530.005 354.805 535.347C351.818 538.987 344.748 545.777 330.733 550.823ZM402.907 429.149V410.541C402.907 409.412 402.652 408.297 402.161 407.28C397.335 397.286 394.888 386.682 394.888 375.762V359.724C394.888 328.485 420.303 303.071 451.541 303.071H556.31V375.763C556.31 386.683 553.863 397.287 549.037 407.281C548.546 408.298 548.291 409.413 548.291 410.542V431.897C548.291 452.208 540.126 471.047 525.3 484.944C523.449 486.678 521.528 488.304 519.542 489.819C519.498 489.849 519.456 489.882 519.413 489.913C505.524 500.458 488.512 505.583 470.746 504.432C432.705 501.969 402.907 468.901 402.907 429.149ZM445.136 580.06C445.084 580.112 444.963 580.235 444.718 580.209C444.474 580.185 444.378 580.042 444.337 579.98L421.012 544.992L428.518 537.105L463.903 561.292L445.136 580.06ZM475.599 551.117L434.984 523.355V509.355C445.493 515.036 457.26 518.589 469.775 519.399C471.752 519.527 473.717 519.59 475.676 519.59C490.017 519.59 503.819 516.162 516.214 509.655V523.355L475.599 551.117ZM506.861 579.982C506.82 580.044 506.724 580.187 506.48 580.211C506.235 580.242 506.115 580.113 506.062 580.062L487.295 561.295L522.68 537.107L530.187 544.994L506.861 579.982ZM643.812 573.654L626.792 556.635C627.089 555.286 627.257 553.809 627.256 552.18L627.255 549.015C631.978 550.565 636.956 551.485 642.107 551.639C642.685 551.657 643.258 551.665 643.834 551.665C649.526 551.665 655.082 550.805 660.37 549.164V552.184C660.37 553.68 660.558 555.146 660.912 556.555L643.812 573.654ZM672.095 525.2C664.146 532.914 653.645 536.988 642.558 536.646C620.854 535.995 603.197 516.878 603.197 494.033V480.012C603.197 478.847 602.926 477.699 602.405 476.658L597.772 467.392C596.075 463.997 595.178 460.197 595.178 456.401V455.954C595.178 437.98 609.801 423.358 627.774 423.358H692.447V454.508C692.447 459.542 691.257 464.583 689.006 469.086L685.22 476.658C684.699 477.7 684.428 478.847 684.428 480.012V496.05C684.428 507.13 680.048 517.482 672.095 525.2Z" fill="#F2AF00" stroke="#F2AF00" stroke-width="6"/>
<path d="M691.928 600.82C687.786 600.82 684.428 604.178 684.428 608.32V656.435C684.428 660.577 687.786 663.935 691.928 663.935C696.07 663.935 699.428 660.577 699.428 656.435V608.32C699.428 604.179 696.07 600.82 691.928 600.82Z" fill="#F2AF00" stroke="#F2AF00" stroke-width="6"/>
<path d="M537.037 378.476C508.671 350.11 449.322 355.533 425.12 359.181C417.497 360.33 411.965 366.781 411.965 374.52V391.798C411.965 395.94 415.323 399.298 419.465 399.298C423.607 399.298 426.965 395.94 426.965 391.798V374.519C426.965 374.264 427.133 374.046 427.357 374.012C437.024 372.555 456.207 370.307 476.082 371.632C499.47 373.189 516.41 379.06 526.431 389.082C529.36 392.011 534.109 392.011 537.037 389.082C539.966 386.153 539.966 381.404 537.037 378.476Z" fill="#F2AF00" stroke="#F2AF00" stroke-width="6"/>
<path d="M387.389 616.859C383.247 616.859 379.889 620.217 379.889 624.359V656.436C379.889 660.578 383.247 663.936 387.389 663.936C391.531 663.936 394.889 660.578 394.889 656.436V624.359C394.889 620.218 391.531 616.859 387.389 616.859Z" fill="#F2AF00" stroke="#F2AF00" stroke-width="6"/>
<path d="M563.811 616.859C559.669 616.859 556.311 620.217 556.311 624.359V656.436C556.311 660.578 559.669 663.936 563.811 663.936C567.953 663.936 571.311 660.578 571.311 656.436V624.359C571.311 620.218 567.953 616.859 563.811 616.859Z" fill="#F2AF00" stroke="#F2AF00" stroke-width="6"/>
</svg>
