<svg width="951" height="951" viewBox="0 0 951 951" fill="none" xmlns="http://www.w3.org/2000/svg">
<circle cx="475.899" cy="475.614" r="459.598" fill="white" stroke="#F2AF00" stroke-width="31"/>
<path d="M566.72 688.05H301.116V342.03C301.116 338.155 297.976 335.016 294.102 335.016C290.229 335.016 287.088 338.155 287.088 342.03V690.388C287.088 696.835 292.332 702.078 298.778 702.078H566.72C570.593 702.078 573.733 698.938 573.734 695.064C573.734 691.19 570.593 688.05 566.72 688.05Z" fill="#F2AF00" stroke="#F2AF00" stroke-width="13"/>
<path d="M667.611 287.626L607.991 226.327C606.671 224.969 604.857 224.203 602.963 224.203H298.778C292.332 224.203 287.089 229.449 287.088 235.894V290.601C287.088 294.476 290.229 297.616 294.102 297.616C297.976 297.616 301.116 294.476 301.116 290.601V238.232H600.001L655.569 295.365V688.055H615.817C611.944 688.055 608.803 691.195 608.803 695.069C608.803 698.944 611.944 702.084 615.817 702.084H657.906C664.353 702.084 669.597 696.84 669.597 690.394V292.516C669.597 290.689 668.885 288.935 667.611 287.626Z" fill="#F2AF00" stroke="#F2AF00" stroke-width="5"/>
<path d="M667.608 287.625L607.989 226.327C605.998 224.281 602.966 223.645 600.322 224.719C597.678 225.793 595.947 228.363 595.947 231.218V292.515C595.947 296.39 599.088 299.53 602.961 299.53H662.581C665.4 299.53 667.946 297.842 669.042 295.244C670.138 292.648 669.574 289.645 667.608 287.625ZM609.976 285.501V248.488L645.974 285.501H609.976Z" fill="#F2AF00" stroke="#F2AF00" stroke-width="13"/>
<path d="M510.803 261.438H341.804C335.357 261.438 330.113 266.682 330.113 273.128V311.893C330.113 318.34 335.358 323.583 341.804 323.583H510.803C517.249 323.583 522.494 318.339 522.494 311.894V273.127C522.494 266.68 517.249 261.438 510.803 261.438ZM508.465 309.554H344.142V275.465H508.465V309.554Z" fill="#F2AF00" stroke="#F2AF00" stroke-width="13"/>
<path d="M400.169 360.297C397.086 357.955 392.685 358.552 390.341 361.637L359.35 402.413L350.043 394.269C347.128 391.717 342.697 392.013 340.146 394.929C337.595 397.845 337.891 402.275 340.805 404.826L355.768 417.918C357.052 419.041 358.696 419.654 360.386 419.654C360.622 419.654 360.858 419.641 361.095 419.619C363.029 419.422 364.796 418.433 365.972 416.884L401.509 370.125C403.853 367.041 403.253 362.64 400.169 360.297Z" fill="#F2AF00" stroke="#F2AF00" stroke-width="13"/>
<path d="M611.26 358.859H434.6C430.727 358.859 427.586 361.999 427.586 365.874C427.586 369.748 430.727 372.888 434.6 372.888H611.26C615.134 372.888 618.274 369.748 618.274 365.874C618.274 361.999 615.134 358.859 611.26 358.859Z" fill="#F2AF00" stroke="#F2AF00" stroke-width="13"/>
<path d="M549.296 382.242H434.6C430.727 382.242 427.586 385.382 427.586 389.256C427.586 393.131 430.727 396.271 434.6 396.271H549.296C553.17 396.271 556.31 393.131 556.31 389.256C556.31 385.382 553.17 382.242 549.296 382.242Z" fill="#F2AF00" stroke="#F2AF00" stroke-width="13"/>
<path d="M575.482 405.625H434.6C430.727 405.625 427.586 408.765 427.586 412.639C427.586 416.514 430.727 419.653 434.6 419.653H575.482C579.355 419.653 582.496 416.514 582.496 412.639C582.496 408.765 579.355 405.625 575.482 405.625Z" fill="#F2AF00" stroke="#F2AF00" stroke-width="13"/>
<path d="M400.169 455.688C397.086 453.345 392.685 453.943 390.341 457.028L359.35 497.805L350.043 489.66C347.128 487.109 342.697 487.405 340.146 490.32C337.595 493.236 337.891 497.666 340.805 500.217L355.768 513.31C357.052 514.432 358.696 515.045 360.386 515.045C360.622 515.045 360.858 515.032 361.095 515.01C363.029 514.813 364.796 513.824 365.972 512.275L401.509 465.516C403.853 462.432 403.253 458.033 400.169 455.688Z" fill="#F2AF00" stroke="#F2AF00" stroke-width="13"/>
<path d="M611.26 454.258H434.6C430.727 454.258 427.586 457.398 427.586 461.272C427.586 465.146 430.727 468.286 434.6 468.286H611.26C615.134 468.286 618.274 465.146 618.274 461.272C618.274 457.398 615.134 454.258 611.26 454.258Z" fill="#F2AF00" stroke="#F2AF00" stroke-width="13"/>
<path d="M549.296 477.633H434.6C430.727 477.633 427.586 480.773 427.586 484.647C427.586 488.521 430.727 491.661 434.6 491.661H549.296C553.17 491.661 556.31 488.521 556.31 484.647C556.31 480.773 553.17 477.633 549.296 477.633Z" fill="#F2AF00" stroke="#F2AF00" stroke-width="13"/>
<path d="M575.482 501.016H434.6C430.727 501.016 427.586 504.155 427.586 508.03C427.586 511.904 430.727 515.044 434.6 515.044H575.482C579.355 515.044 582.496 511.904 582.496 508.03C582.496 504.155 579.355 501.016 575.482 501.016Z" fill="#F2AF00" stroke="#F2AF00" stroke-width="13"/>
<path d="M611.26 549.648H434.6C430.727 549.648 427.586 552.788 427.586 556.663C427.586 560.537 430.727 563.677 434.6 563.677H611.26C615.134 563.677 618.273 560.537 618.274 556.663C618.274 552.788 615.134 549.648 611.26 549.648Z" fill="#F2AF00" stroke="#F2AF00" stroke-width="13"/>
<path d="M549.296 573.031H434.6C430.727 573.031 427.586 576.171 427.586 580.045C427.586 583.92 430.727 587.06 434.6 587.06H549.296C553.17 587.06 556.31 583.92 556.31 580.045C556.31 576.171 553.17 573.031 549.296 573.031Z" fill="#F2AF00" stroke="#F2AF00" stroke-width="13"/>
<path d="M575.482 596.406H434.6C430.727 596.406 427.586 599.546 427.586 603.42C427.586 607.295 430.727 610.435 434.6 610.435H575.482C579.355 610.435 582.496 607.295 582.496 603.42C582.496 599.546 579.355 596.406 575.482 596.406Z" fill="#F2AF00" stroke="#F2AF00" stroke-width="13"/>
<path d="M387.507 549.648H350.099C343.652 549.648 338.408 554.893 338.408 561.339V598.746C338.408 605.193 343.653 610.436 350.099 610.436H387.507C393.953 610.436 399.197 605.193 399.197 598.747V561.339C399.197 554.892 393.952 549.648 387.507 549.648ZM385.17 596.409H352.438V563.677H385.17V596.409Z" fill="#F2AF00" stroke="#F2AF00" stroke-width="13"/>
</svg>
