<svg width="951" height="951" viewBox="0 0 951 951" fill="none" xmlns="http://www.w3.org/2000/svg">
<circle cx="475.723" cy="475.614" r="459.598" fill="white" stroke="#F2AF00" stroke-width="31"/>
<path d="M539.723 436.613H579.723C581.845 436.613 583.88 435.77 585.38 434.27C586.88 432.77 587.723 430.735 587.723 428.613C587.723 426.492 586.88 424.457 585.38 422.956C583.88 421.456 581.845 420.613 579.723 420.613H539.723C537.601 420.613 535.567 421.456 534.066 422.956C532.566 424.457 531.723 426.492 531.723 428.613C531.723 430.735 532.566 432.77 534.066 434.27C535.567 435.77 537.601 436.613 539.723 436.613Z" fill="#F2AF00" stroke="#F2AF00" stroke-width="6"/>
<path d="M707.723 420.613C705.601 420.613 703.567 421.456 702.066 422.956C700.566 424.457 699.723 426.492 699.723 428.613V692.613H291.723C283.812 692.613 276.078 690.267 269.5 685.872C262.922 681.477 257.795 675.23 254.768 667.921C251.74 660.612 250.948 652.569 252.492 644.81C254.035 637.05 257.845 629.923 263.439 624.329C269.033 618.735 276.16 614.925 283.92 613.382C291.679 611.838 299.721 612.631 307.03 615.658C314.34 618.686 320.587 623.813 324.982 630.39C329.377 636.968 331.723 644.702 331.723 652.613C331.723 654.735 332.566 656.77 334.066 658.27C335.567 659.77 337.601 660.613 339.723 660.613C341.845 660.613 343.88 659.77 345.38 658.27C346.88 656.77 347.723 654.735 347.723 652.613V436.613H371.723C373.845 436.613 375.88 435.77 377.38 434.27C378.88 432.77 379.723 430.735 379.723 428.613C379.723 426.492 378.88 424.457 377.38 422.956C375.88 421.456 373.845 420.613 371.723 420.613H347.723V396.613C347.723 381.761 341.823 367.517 331.321 357.015C320.819 346.513 306.575 340.613 291.723 340.613C276.871 340.613 262.627 346.513 252.125 357.015C241.623 367.517 235.723 381.761 235.723 396.613V652.613C235.74 667.46 241.646 681.694 252.144 692.193C262.642 702.691 276.876 708.596 291.723 708.613H707.723C709.845 708.613 711.88 707.77 713.38 706.27C714.88 704.77 715.723 702.735 715.723 700.613V428.613C715.723 426.492 714.88 424.457 713.38 422.956C711.88 421.456 709.845 420.613 707.723 420.613ZM251.723 396.613C251.723 386.005 255.937 375.83 263.439 368.329C270.94 360.828 281.114 356.613 291.723 356.613C302.332 356.613 312.506 360.828 320.007 368.329C327.509 375.83 331.723 386.005 331.723 396.613V613.413C326.514 608.083 320.292 603.847 313.423 600.956C306.554 598.064 299.176 596.574 291.723 596.574C284.27 596.574 276.892 598.064 270.023 600.956C263.154 603.847 256.932 608.083 251.723 613.413V396.613Z" fill="#F2AF00" stroke="#F2AF00" stroke-width="6"/>
<path d="M604.291 519.589L617.091 551.589L636.291 599.589C636.884 601.076 637.908 602.352 639.233 603.25C640.558 604.148 642.122 604.629 643.723 604.629C645.324 604.629 646.888 604.148 648.213 603.25C649.538 602.352 650.563 601.076 651.155 599.589L670.355 551.589L683.155 519.589C683.476 518.734 683.647 517.83 683.659 516.917C683.659 516.813 683.723 516.725 683.723 516.613V380.613C683.723 378.492 682.88 376.457 681.38 374.956C679.88 373.456 677.845 372.613 675.723 372.613C673.601 372.613 671.567 373.456 670.066 374.956C668.566 376.457 667.723 378.492 667.723 380.613V508.613H651.723V324.613H667.723V348.613C667.723 350.735 668.566 352.77 670.066 354.27C671.567 355.77 673.601 356.613 675.723 356.613C677.845 356.613 679.88 355.77 681.38 354.27C682.88 352.77 683.723 350.735 683.723 348.613V268.613C683.723 258.005 679.509 247.83 672.007 240.329C664.506 232.828 654.332 228.613 643.723 228.613C633.114 228.613 622.94 232.828 615.439 240.329C607.937 247.83 603.723 258.005 603.723 268.613V516.613C603.723 516.725 603.779 516.813 603.787 516.925C603.8 517.836 603.971 518.737 604.291 519.589V519.589ZM636.339 556.613H651.107L643.723 575.077L636.339 556.613ZM657.507 540.613H629.939L623.539 524.613H663.907L657.507 540.613ZM635.723 508.613H619.723V324.613H635.723V508.613ZM619.723 308.613V292.613H667.723V308.613H619.723ZM619.723 268.613C619.723 262.248 622.252 256.144 626.753 251.643C631.253 247.142 637.358 244.613 643.723 244.613C650.088 244.613 656.193 247.142 660.694 251.643C665.195 256.144 667.723 262.248 667.723 268.613V276.613H619.723V268.613Z" fill="#F2AF00" stroke="#F2AF00" stroke-width="6"/>
<path d="M411.723 386.215V390.063C407.047 391.692 402.993 394.736 400.125 398.773C397.257 402.81 395.716 407.639 395.716 412.591C395.716 417.543 397.257 422.372 400.125 426.409C402.993 430.446 407.047 433.49 411.723 435.119V436.615C411.738 446.733 414.946 456.588 420.89 464.776C426.834 472.964 435.211 479.067 444.827 482.215C436.282 490.803 425.551 496.889 413.795 499.815L401.595 502.871C392.231 505.185 384.039 510.85 378.568 518.794C373.098 526.739 370.727 536.412 371.906 545.986C373.084 555.559 377.729 564.37 384.963 570.75C392.196 577.131 401.517 580.641 411.163 580.615H427.723C429.845 580.615 431.88 579.772 433.38 578.272C434.88 576.772 435.723 574.737 435.723 572.615C435.723 570.493 434.88 568.459 433.38 566.958C431.88 565.458 429.845 564.615 427.723 564.615H411.163C405.444 564.61 399.924 562.514 395.642 558.723C391.36 554.931 388.611 549.705 387.913 544.029C387.215 538.352 388.616 532.616 391.852 527.9C395.088 523.185 399.935 519.814 405.483 518.423L417.683 515.375C436.218 510.726 452.562 499.778 463.915 484.407C475.866 483.35 486.989 477.859 495.097 469.015C503.204 460.171 507.708 448.613 507.723 436.615V435.143C512.399 433.514 516.453 430.47 519.321 426.433C522.19 422.396 523.731 417.567 523.731 412.615C523.731 407.663 522.19 402.834 519.321 398.797C516.453 394.76 512.399 391.716 507.723 390.087V386.215C520.142 375.138 528.327 360.09 530.876 343.645C533.426 327.2 530.182 310.38 521.699 296.063C520.62 294.235 518.859 292.911 516.804 292.381C514.749 291.852 512.567 292.16 510.739 293.239C508.911 294.318 507.587 296.079 507.057 298.134C506.528 300.19 506.836 302.371 507.915 304.199C514.787 315.782 517.236 329.459 514.809 342.707C512.383 355.954 505.246 367.876 494.715 376.271C493.781 377.021 493.027 377.971 492.509 379.051C491.992 380.131 491.723 381.313 491.723 382.511V388.615H484.659L491.675 325.495C491.823 324.161 491.633 322.811 491.122 321.57C490.612 320.328 489.797 319.235 488.753 318.392C487.709 317.548 486.47 316.98 485.149 316.741C483.828 316.502 482.469 316.599 481.195 317.023L459.723 324.183L438.251 317.023C436.978 316.599 435.618 316.502 434.297 316.741C432.976 316.98 431.737 317.548 430.693 318.392C429.649 319.235 428.834 320.328 428.324 321.57C427.813 322.811 427.623 324.161 427.771 325.495L434.787 388.615H427.723V382.535C427.723 381.337 427.455 380.155 426.937 379.075C426.419 377.995 425.665 377.045 424.731 376.295C413.65 367.464 406.332 354.757 404.256 340.74C402.18 326.723 405.501 312.441 413.547 300.777C421.593 289.113 433.766 280.937 447.607 277.9C461.447 274.863 475.925 277.192 488.115 284.415C489.943 285.494 492.125 285.803 494.18 285.273C496.235 284.743 497.996 283.419 499.075 281.591C500.154 279.763 500.463 277.582 499.933 275.526C499.403 273.471 498.079 271.71 496.251 270.631C480.871 261.577 462.675 258.561 445.196 262.171C427.718 265.78 412.204 275.756 401.669 290.162C391.134 304.568 386.329 322.376 388.186 340.126C390.044 357.877 398.433 374.303 411.723 386.215V386.215ZM459.723 468.615C451.236 468.615 443.097 465.244 437.096 459.243C431.095 453.241 427.723 445.102 427.723 436.615H491.723C491.723 445.102 488.352 453.241 482.351 459.243C476.349 465.244 468.21 468.615 459.723 468.615ZM445.059 336.159L457.195 340.207C458.836 340.754 460.61 340.754 462.251 340.207L474.387 336.159L468.563 388.615H450.923L445.059 336.159ZM443.723 404.615H499.723C501.845 404.615 503.88 405.458 505.38 406.958C506.88 408.459 507.723 410.493 507.723 412.615C507.723 414.737 506.88 416.772 505.38 418.272C503.88 419.772 501.845 420.615 499.723 420.615H419.723C417.601 420.615 415.567 419.772 414.066 418.272C412.566 416.772 411.723 414.737 411.723 412.615C411.723 410.493 412.566 408.459 414.066 406.958C415.567 405.458 417.601 404.615 419.723 404.615H443.723Z" fill="#F2AF00" stroke="#F2AF00" stroke-width="6"/>
<path d="M363.723 340.613C368.141 340.613 371.723 337.032 371.723 332.613C371.723 328.195 368.141 324.613 363.723 324.613C359.305 324.613 355.723 328.195 355.723 332.613C355.723 337.032 359.305 340.613 363.723 340.613Z" fill="#F2AF00" stroke="#F2AF00" stroke-width="6"/>
<path d="M555.723 340.613C560.141 340.613 563.723 337.032 563.723 332.613C563.723 328.195 560.141 324.613 555.723 324.613C551.305 324.613 547.723 328.195 547.723 332.613C547.723 337.032 551.305 340.613 555.723 340.613Z" fill="#F2AF00" stroke="#F2AF00" stroke-width="6"/>
<path d="M459.723 244.613C464.141 244.613 467.723 241.032 467.723 236.613C467.723 232.195 464.141 228.613 459.723 228.613C455.305 228.613 451.723 232.195 451.723 236.613C451.723 241.032 455.305 244.613 459.723 244.613Z" fill="#F2AF00" stroke="#F2AF00" stroke-width="6"/>
<path d="M372.587 291.541C373.957 292.333 375.532 292.7 377.11 292.596C378.689 292.493 380.202 291.923 381.457 290.96C382.713 289.997 383.654 288.683 384.163 287.185C384.671 285.687 384.724 284.071 384.315 282.543C383.905 281.014 383.052 279.642 381.862 278.599C380.673 277.555 379.2 276.888 377.632 276.682C376.063 276.475 374.468 276.738 373.049 277.438C371.63 278.138 370.45 279.243 369.659 280.613C368.598 282.451 368.311 284.634 368.86 286.684C369.409 288.733 370.75 290.48 372.587 291.541Z" fill="#F2AF00" stroke="#F2AF00" stroke-width="6"/>
<path d="M538.859 387.541C540.229 388.333 541.804 388.7 543.382 388.596C544.961 388.493 546.474 387.923 547.729 386.96C548.985 385.997 549.926 384.683 550.435 383.185C550.943 381.687 550.996 380.071 550.587 378.543C550.177 377.014 549.324 375.642 548.134 374.599C546.945 373.555 545.472 372.888 543.904 372.682C542.335 372.475 540.74 372.738 539.321 373.438C537.902 374.138 536.722 375.243 535.931 376.613C534.87 378.451 534.583 380.634 535.132 382.684C535.681 384.733 537.022 386.48 538.859 387.541Z" fill="#F2AF00" stroke="#F2AF00" stroke-width="6"/>
<path d="M509.793 257.208C514.061 256.065 516.594 251.678 515.45 247.411C514.307 243.143 509.92 240.61 505.652 241.754C501.385 242.897 498.852 247.284 499.995 251.552C501.139 255.819 505.526 258.352 509.793 257.208Z" fill="#F2AF00" stroke="#F2AF00" stroke-width="6"/>
<path d="M546.859 291.542C548.229 290.75 549.334 289.571 550.034 288.152C550.734 286.733 550.997 285.138 550.791 283.569C550.584 282 549.917 280.528 548.874 279.338C547.831 278.149 546.458 277.295 544.93 276.886C543.401 276.476 541.786 276.529 540.288 277.038C538.789 277.547 537.475 278.488 536.512 279.743C535.549 280.999 534.98 282.511 534.876 284.09C534.773 285.669 535.14 287.243 535.931 288.614C536.992 290.451 538.739 291.792 540.789 292.341C542.838 292.89 545.022 292.602 546.859 291.542Z" fill="#F2AF00" stroke="#F2AF00" stroke-width="6"/>
<path d="M383.515 376.613C382.724 375.243 381.544 374.138 380.125 373.438C378.706 372.738 377.111 372.475 375.543 372.682C373.974 372.888 372.502 373.555 371.312 374.599C370.123 375.642 369.269 377.014 368.859 378.543C368.45 380.071 368.503 381.687 369.012 383.185C369.52 384.683 370.462 385.997 371.717 386.96C372.972 387.923 374.485 388.493 376.064 388.596C377.643 388.7 379.217 388.333 380.587 387.541C382.425 386.48 383.765 384.733 384.314 382.684C384.863 380.634 384.576 378.451 383.515 376.613Z" fill="#F2AF00" stroke="#F2AF00" stroke-width="6"/>
<path d="M415.723 256.405C417.093 255.614 418.198 254.434 418.898 253.015C419.598 251.596 419.861 250.001 419.655 248.432C419.448 246.864 418.781 245.391 417.738 244.202C416.695 243.012 415.322 242.159 413.794 241.749C412.265 241.34 410.65 241.393 409.151 241.901C407.653 242.41 406.339 243.351 405.376 244.607C404.413 245.862 403.844 247.375 403.74 248.954C403.637 250.532 404.004 252.107 404.795 253.477C405.856 255.314 407.603 256.655 409.653 257.204C411.702 257.753 413.886 257.466 415.723 256.405V256.405Z" fill="#F2AF00" stroke="#F2AF00" stroke-width="6"/>
<path d="M499.723 644.613H531.723C533.845 644.613 535.88 643.77 537.38 642.27C538.88 640.77 539.723 638.735 539.723 636.613V623.165C542.439 621.885 545.045 620.384 547.515 618.677L559.147 625.397C560.985 626.458 563.168 626.746 565.218 626.196C567.267 625.647 569.014 624.307 570.075 622.469L586.075 594.757C587.136 592.92 587.423 590.736 586.874 588.687C586.325 586.638 584.985 584.89 583.147 583.829L571.531 577.117C571.659 575.605 571.723 574.109 571.723 572.613C571.723 571.117 571.659 569.621 571.531 568.109L583.147 561.397C584.985 560.336 586.325 558.589 586.874 556.54C587.423 554.49 587.136 552.307 586.075 550.469L570.075 522.757C569.014 520.92 567.267 519.579 565.218 519.03C563.168 518.481 560.985 518.768 559.147 519.829L547.515 526.549C545.045 524.843 542.439 523.342 539.723 522.061V508.613C539.723 506.492 538.88 504.457 537.38 502.956C535.88 501.456 533.845 500.613 531.723 500.613H499.723C497.601 500.613 495.567 501.456 494.066 502.956C492.566 504.457 491.723 506.492 491.723 508.613V522.061C489.008 523.342 486.402 524.843 483.931 526.549L472.299 519.829C470.462 518.768 468.278 518.481 466.229 519.03C464.179 519.579 462.432 520.92 461.371 522.757L445.371 550.469C444.31 552.307 444.023 554.49 444.572 556.54C445.121 558.589 446.462 560.336 448.299 561.397L459.915 568.109C459.787 569.621 459.723 571.117 459.723 572.613C459.723 574.109 459.787 575.605 459.915 577.117L448.299 583.829C447.382 584.351 446.577 585.048 445.931 585.882C445.284 586.716 444.809 587.67 444.533 588.688C444.256 589.706 444.184 590.769 444.32 591.815C444.456 592.861 444.798 593.87 445.325 594.784C445.853 595.698 446.556 596.498 447.394 597.139C448.232 597.78 449.188 598.248 450.208 598.518C451.228 598.788 452.292 598.853 453.337 598.71C454.382 598.567 455.389 598.219 456.299 597.685L472.523 588.293C473.954 587.468 475.095 586.22 475.788 584.72C476.482 583.22 476.694 581.542 476.395 579.917C475.456 575.093 475.456 570.133 476.395 565.309C476.694 563.684 476.482 562.007 475.788 560.507C475.095 559.007 473.954 557.759 472.523 556.933L463.195 551.541L471.195 537.685L480.523 543.077C481.956 543.905 483.61 544.267 485.258 544.116C486.906 543.964 488.466 543.305 489.723 542.229C493.453 539.045 497.738 536.574 502.363 534.941C503.927 534.395 505.282 533.376 506.242 532.026C507.202 530.676 507.72 529.062 507.723 527.405V516.613H523.723V527.405C523.724 529.058 524.237 530.67 525.191 532.019C526.145 533.368 527.493 534.389 529.051 534.941C533.676 536.574 537.961 539.045 541.691 542.229C542.949 543.305 544.509 543.964 546.156 544.116C547.804 544.267 549.458 543.905 550.891 543.077L560.219 537.685L568.219 551.541L558.923 556.933C557.492 557.759 556.351 559.007 555.658 560.507C554.964 562.007 554.753 563.684 555.051 565.309C555.99 570.133 555.99 575.093 555.051 579.917C554.753 581.542 554.964 583.22 555.658 584.72C556.351 586.22 557.492 587.468 558.923 588.293L568.251 593.685L560.251 607.541L550.923 602.149C549.49 601.322 547.836 600.959 546.188 601.111C544.541 601.263 542.981 601.922 541.723 602.997C537.993 606.182 533.708 608.652 529.083 610.285C527.525 610.837 526.177 611.858 525.223 613.207C524.269 614.557 523.756 616.169 523.755 617.821V628.613H507.723V617.821C507.722 616.169 507.209 614.557 506.255 613.207C505.301 611.858 503.953 610.837 502.395 610.285C497.77 608.652 493.485 606.182 489.755 602.997C488.498 601.922 486.938 601.263 485.29 601.111C483.642 600.959 481.988 601.322 480.555 602.149L464.299 611.541C463.382 612.063 462.577 612.76 461.931 613.594C461.284 614.428 460.809 615.382 460.533 616.4C460.256 617.418 460.184 618.481 460.32 619.527C460.456 620.573 460.797 621.582 461.325 622.496C461.853 623.41 462.556 624.21 463.394 624.851C464.232 625.492 465.188 625.96 466.208 626.23C467.228 626.5 468.292 626.565 469.337 626.422C470.382 626.279 471.389 625.931 472.299 625.397L483.931 618.677C486.402 620.384 489.008 621.885 491.723 623.165V636.613C491.723 638.735 492.566 640.77 494.066 642.27C495.567 643.77 497.601 644.613 499.723 644.613Z" fill="#F2AF00" stroke="#F2AF00" stroke-width="6"/>
<path d="M539.723 572.613C539.723 567.867 538.316 563.226 535.678 559.28C533.041 555.333 529.293 552.257 524.908 550.44C520.522 548.624 515.697 548.148 511.041 549.074C506.385 550 502.109 552.286 498.753 555.643C495.396 558.999 493.11 563.276 492.184 567.931C491.258 572.587 491.734 577.412 493.55 581.798C495.367 586.183 498.443 589.931 502.389 592.569C506.336 595.206 510.976 596.613 515.723 596.613C522.088 596.613 528.193 594.085 532.694 589.584C537.195 585.083 539.723 578.978 539.723 572.613ZM507.723 572.613C507.723 571.031 508.192 569.484 509.071 568.169C509.95 566.853 511.2 565.828 512.662 565.222C514.124 564.617 515.732 564.458 517.284 564.767C518.836 565.076 520.261 565.838 521.38 566.956C522.499 568.075 523.261 569.501 523.569 571.053C523.878 572.604 523.72 574.213 523.114 575.675C522.509 577.137 521.483 578.386 520.168 579.265C518.852 580.144 517.305 580.613 515.723 580.613C513.601 580.613 511.567 579.77 510.066 578.27C508.566 576.77 507.723 574.735 507.723 572.613Z" fill="#F2AF00" stroke="#F2AF00" stroke-width="6"/>
<path d="M523.723 676.613H619.723C628.21 676.613 636.349 673.242 642.351 667.241C648.352 661.24 651.723 653.1 651.723 644.613V628.613C651.723 626.492 650.88 624.457 649.38 622.956C647.88 621.456 645.845 620.613 643.723 620.613C641.601 620.613 639.567 621.456 638.066 622.956C636.566 624.457 635.723 626.492 635.723 628.613V644.613C635.723 648.857 634.037 652.926 631.037 655.927C628.036 658.928 623.967 660.613 619.723 660.613H523.723C521.601 660.613 519.567 661.456 518.066 662.956C516.566 664.457 515.723 666.492 515.723 668.613C515.723 670.735 516.566 672.77 518.066 674.27C519.567 675.77 521.601 676.613 523.723 676.613Z" fill="#F2AF00" stroke="#F2AF00" stroke-width="6"/>
<path d="M379.723 644.613C379.723 649.36 381.131 654 383.768 657.947C386.405 661.894 390.153 664.97 394.539 666.786C398.924 668.603 403.75 669.078 408.405 668.152C413.061 667.226 417.337 664.94 420.694 661.584C424.05 658.227 426.336 653.951 427.262 649.295C428.188 644.64 427.713 639.814 425.896 635.429C424.08 631.043 421.004 627.295 417.057 624.658C413.11 622.021 408.47 620.613 403.723 620.613C397.358 620.613 391.253 623.142 386.753 627.643C382.252 632.144 379.723 638.248 379.723 644.613V644.613ZM411.723 644.613C411.723 646.196 411.254 647.742 410.375 649.058C409.496 650.373 408.246 651.399 406.785 652.004C405.323 652.61 403.714 652.768 402.162 652.46C400.611 652.151 399.185 651.389 398.066 650.27C396.947 649.151 396.186 647.726 395.877 646.174C395.568 644.622 395.727 643.014 396.332 641.552C396.938 640.09 397.963 638.841 399.279 637.962C400.594 637.082 402.141 636.613 403.723 636.613C405.845 636.613 407.88 637.456 409.38 638.956C410.88 640.457 411.723 642.492 411.723 644.613Z" fill="#F2AF00" stroke="#F2AF00" stroke-width="6"/>
</svg>
