<svg width="951" height="951" viewBox="0 0 951 951" fill="none" xmlns="http://www.w3.org/2000/svg">
<circle cx="475.703" cy="475.418" r="459.598" fill="white" stroke="#F2AF00" stroke-width="31"/>
<path d="M688.658 395.445H584.658C580.24 395.445 576.658 399.027 576.658 403.445V435.445C576.658 439.863 580.24 443.445 584.658 443.445H608.658C617.495 443.445 624.658 450.608 624.658 459.445C624.658 468.282 617.495 475.445 608.658 475.445H584.658C580.24 475.445 576.658 479.027 576.658 483.445V523.445H456.658C452.24 523.445 448.658 527.027 448.658 531.445V635.445C448.658 653.118 462.985 667.445 480.658 667.445H688.658C706.331 667.445 720.658 653.118 720.658 635.445V427.445C720.658 409.772 706.331 395.445 688.658 395.445ZM576.658 651.445H480.658C471.821 651.445 464.658 644.282 464.658 635.445V539.445H576.658V555.445H560.658C542.985 555.445 528.658 569.772 528.658 587.445C528.658 605.118 542.985 619.445 560.658 619.445H576.658V651.445ZM704.658 635.445C704.658 644.282 697.495 651.445 688.658 651.445H592.658V611.445C592.658 607.027 589.076 603.445 584.658 603.445H560.658C551.821 603.445 544.658 596.282 544.658 587.445C544.658 578.608 551.821 571.445 560.658 571.445H584.658C589.076 571.445 592.658 567.863 592.658 563.445V539.445H616.658V555.445C616.658 573.118 630.985 587.445 648.658 587.445C666.331 587.445 680.658 573.118 680.658 555.445V539.445H704.658V635.445ZM704.658 523.445H672.658C668.24 523.445 664.658 527.027 664.658 531.445V555.445C664.658 564.282 657.495 571.445 648.658 571.445C639.821 571.445 632.658 564.282 632.658 555.445V531.445C632.658 527.027 629.076 523.445 624.658 523.445H592.658V491.445H608.658C626.331 491.445 640.658 477.118 640.658 459.445C640.658 441.772 626.331 427.445 608.658 427.445H592.658V411.445H688.658C697.495 411.445 704.658 418.608 704.658 427.445V523.445Z" fill="#F2AF00"/>
<path d="M592.658 267.443H576.658V243.443C576.658 239.025 573.076 235.443 568.658 235.443H464.658C446.985 235.443 432.658 249.77 432.658 267.443V357.043L399.562 373.043C394.585 366.469 388.407 360.898 381.354 356.627C412.955 340.793 425.737 302.339 409.903 270.738C394.069 239.137 355.615 226.355 324.014 242.189C292.413 258.023 279.631 296.477 295.465 328.078C300.925 338.974 309.382 348.085 319.842 354.339C303.097 362.505 290.73 377.547 285.954 395.555L254.082 495.915C245.065 524.262 246.899 554.947 259.226 582.019C272.3 610.635 271.688 643.636 257.562 671.747L241.498 703.867C239.523 707.819 241.126 712.624 245.078 714.599C246.19 715.154 247.415 715.443 248.658 715.443H336.658C341.076 715.443 344.658 711.861 344.658 707.443C344.682 692.595 336.433 678.97 323.266 672.107L327.09 664.475C338.67 641.195 342.438 614.802 337.834 589.211L331.898 556.571C331.138 552.358 333.938 548.326 338.151 547.566C338.601 547.485 339.057 547.444 339.514 547.443C343.258 547.439 346.47 550.112 347.146 553.795L358.01 613.571C359.771 623.28 360.658 633.128 360.658 642.995V707.443C360.658 711.861 364.24 715.443 368.658 715.443H456.658C461.076 715.443 464.658 711.861 464.658 707.443C464.658 705.887 464.567 704.332 464.386 702.787C463.01 690.746 455.574 680.244 444.674 674.947C435.75 670.399 425.412 669.482 415.826 672.387L421.154 645.763C423.482 634.107 424.655 622.249 424.658 610.363V538.755L415.314 431.627L470.826 405.139C481.084 400.577 487.921 390.653 488.53 379.443H568.658C573.076 379.443 576.658 375.861 576.658 371.443V331.443H592.658C610.331 331.443 624.658 317.116 624.658 299.443C624.658 281.77 610.331 267.443 592.658 267.443ZM304.658 299.443C304.658 272.933 326.148 251.443 352.658 251.443C379.168 251.443 400.658 272.933 400.658 299.443C400.658 325.953 379.168 347.443 352.658 347.443C326.16 347.417 304.685 325.942 304.658 299.443ZM415.818 689.699C422.48 685.918 430.597 685.741 437.418 689.227C441.789 691.345 445.244 694.974 447.146 699.443H376.658V642.995C376.657 632.167 375.683 621.361 373.746 610.707L362.882 550.939C360.648 538.017 348.361 529.353 335.44 531.588C322.518 533.822 313.854 546.109 316.089 559.03C316.112 559.165 316.137 559.3 316.163 559.435L322.107 592.075C326.09 614.259 322.819 637.136 312.779 657.315L305.011 672.843C303.009 676.782 304.579 681.598 308.518 683.6C309.071 683.881 309.656 684.097 310.259 684.243C318.141 686.1 324.548 691.82 327.283 699.443H261.603L271.859 678.899C288.15 646.471 288.856 608.405 273.779 575.395C263.089 551.929 261.498 525.328 269.315 500.755L301.315 399.955C307.955 375.078 332.666 359.541 357.963 364.339C368.418 366.433 377.855 372.005 384.739 380.147L337.459 402.987C327.22 407.968 320.704 418.337 320.659 429.723C320.619 446.097 333.86 459.404 350.234 459.444C354.701 459.455 359.112 458.457 363.139 456.523L399.939 438.979L408.659 539.443V610.363C408.65 621.194 407.578 631.998 405.459 642.619L396.931 685.227C396.061 689.559 398.866 693.776 403.198 694.646C405.096 695.027 407.067 694.708 408.747 693.747L415.818 689.699ZM464.282 390.547L464.042 390.651L356.242 442.083C349.413 445.335 341.24 442.435 337.988 435.605C337.113 433.767 336.659 431.758 336.658 429.723C336.678 424.476 339.678 419.696 344.394 417.395L453.058 364.915C457.379 362.986 462.387 363.402 466.33 366.019C470.312 368.576 472.702 372.999 472.658 377.731C472.656 383.287 469.37 388.315 464.282 390.547ZM592.658 315.443H568.658C564.24 315.443 560.658 319.025 560.658 323.443V363.443H485.05C478.019 350.456 462.558 344.549 448.658 349.539V267.443C448.658 258.606 455.821 251.443 464.658 251.443H560.658V275.443C560.658 279.861 564.24 283.443 568.658 283.443H592.658C601.495 283.443 608.658 290.606 608.658 299.443C608.658 308.28 601.495 315.443 592.658 315.443Z" fill="#F2AF00"/>
<path d="M563.002 445.789L536.658 472.133V427.445H520.658V488.133L512.658 496.133L504.658 488.133V459.445H488.658V472.133L462.314 445.789L451.002 457.101L507.002 513.101C510.126 516.224 515.19 516.224 518.314 513.101L574.314 457.101L563.002 445.789Z" fill="#F2AF00"/>
<path d="M504.658 427.445H488.658V443.445H504.658V427.445Z" fill="#F2AF00"/>
<path d="M504.658 395.445H488.658V411.445H504.658V395.445Z" fill="#F2AF00"/>
<path d="M536.658 395.445H520.658V411.445H536.658V395.445Z" fill="#F2AF00"/>
</svg>
