<svg width="951" height="951" viewBox="0 0 951 951" fill="none" xmlns="http://www.w3.org/2000/svg">
<circle cx="475.504" cy="475.614" r="459.598" fill="white" stroke="#F2AF00" stroke-width="31"/>
<path d="M704.014 652.43H566.144L606.874 584.545C607.602 583.331 607.995 581.946 608.013 580.53C608.031 579.115 607.673 577.72 606.975 576.488C606.278 575.256 605.266 574.231 604.043 573.518C602.82 572.805 601.429 572.43 600.014 572.43H560.014V527.744L669.671 418.086C671.171 416.586 672.014 414.551 672.014 412.43V380.43H656.014V409.116L546.356 518.773C544.856 520.273 544.014 522.308 544.014 524.43V572.43H528.014V524.43C528.014 522.308 527.171 520.273 525.671 518.773L416.014 409.116V380.43H400.014V412.43C400.014 414.551 400.856 416.586 402.356 418.086L512.014 527.744V572.43H504.014C502.603 572.43 501.218 572.802 499.998 573.51C498.778 574.218 497.767 575.236 497.067 576.46L467.371 628.43H466.138L415.28 599.368L410.942 573.334C409.804 566.479 407.189 559.952 403.278 554.208C399.366 548.463 394.253 543.638 388.291 540.066L375.07 532.134C375.697 529.614 376.013 527.027 376.014 524.43V486.852C376.014 482.07 374.716 477.377 372.258 473.274C369.801 469.171 366.276 465.813 362.059 463.556C357.843 461.299 353.093 460.23 348.316 460.461C343.539 460.692 338.915 462.215 334.936 464.868L315.576 477.773C314.48 478.504 313.582 479.494 312.96 480.655C312.339 481.816 312.014 483.113 312.014 484.43V524.43C312.014 527.238 312.385 530.035 313.116 532.747L293.388 545.899C283.851 552.25 276.908 561.809 273.82 572.843C262.267 574.359 251.658 580.021 243.968 588.775C236.278 597.529 232.03 608.778 232.014 620.43V692.43C232.014 694.551 232.857 696.586 234.357 698.087C235.857 699.587 237.892 700.43 240.014 700.43H704.014C706.135 700.43 708.17 699.587 709.671 698.087C711.171 696.586 712.014 694.551 712.014 692.43V660.43C712.014 658.308 711.171 656.273 709.671 654.773C708.17 653.273 706.135 652.43 704.014 652.43V652.43ZM272.014 684.43H248.014V620.43C248.023 613.337 250.384 606.448 254.726 600.841C259.069 595.234 265.149 591.225 272.014 589.442V684.43ZM480.014 638.555L508.656 588.43H585.884L547.484 652.43H480.014V638.555ZM433.89 628.43H408.582L384.72 625.021L407.762 613.5L433.89 628.43ZM464.014 644.43V652.43H416.014V644.43H464.014ZM328.014 488.711L343.812 478.18C345.381 477.133 347.205 476.533 349.089 476.442C350.973 476.351 352.847 476.773 354.51 477.663C356.173 478.553 357.563 479.878 358.533 481.496C359.502 483.115 360.014 484.966 360.014 486.852V492.43H328.014V488.711ZM328.014 508.43H360.014V524.43C360.014 528.673 358.328 532.743 355.327 535.743C352.327 538.744 348.257 540.43 344.014 540.43C339.77 540.43 335.701 538.744 332.7 535.743C329.699 532.743 328.014 528.673 328.014 524.43V508.43ZM288.014 585.837C288.008 580.568 289.306 575.379 291.792 570.734C294.279 566.088 297.876 562.13 302.263 559.211L321.052 546.685C324.068 549.807 327.689 552.281 331.694 553.956C335.698 555.632 340.003 556.473 344.343 556.428C348.684 556.383 352.97 555.454 356.939 553.697C360.909 551.94 364.478 549.392 367.429 546.209L380.059 553.786C384.033 556.167 387.442 559.384 390.05 563.214C392.657 567.043 394.401 571.394 395.159 575.965L399.151 599.917L384.014 607.485V596.43H368.014V622.634L356.914 621.048L334.874 584.314L321.153 592.545L331.861 610.392L303.106 627.645L288.014 609.533V585.837ZM312.014 684.43H288.014V634.526L312.014 663.326V684.43ZM313.473 640.084L340.093 624.112L345.153 632.545C345.765 633.565 346.597 634.436 347.588 635.094C348.579 635.752 349.704 636.181 350.882 636.349L400.014 643.368V652.43H323.761L313.473 640.084ZM696.014 684.43H328.014V668.43H696.014V684.43Z" fill="#F2AF00" stroke="#F2AF00" stroke-width="8"/>
<path d="M432.014 348.43H448.014V412.43H432.014V348.43Z" fill="#F2AF00" stroke="#F2AF00" stroke-width="8"/>
<path d="M512.014 308.43C512.014 306.308 511.171 304.273 509.671 302.773C508.17 301.273 506.135 300.43 504.014 300.43H472.014C469.892 300.43 467.857 301.273 466.357 302.773C464.857 304.273 464.014 306.308 464.014 308.43V364.43C464.014 366.551 464.857 368.586 466.357 370.087C467.857 371.587 469.892 372.43 472.014 372.43H504.014C506.135 372.43 508.17 371.587 509.671 370.087C511.171 368.586 512.014 366.551 512.014 364.43V308.43ZM496.014 356.43H480.014V316.43H496.014V356.43Z" fill="#F2AF00" stroke="#F2AF00" stroke-width="8"/>
<path d="M576.014 356.43C576.014 354.308 575.171 352.273 573.671 350.773C572.17 349.273 570.135 348.43 568.014 348.43H536.014C533.892 348.43 531.857 349.273 530.357 350.773C528.857 352.273 528.014 354.308 528.014 356.43V420.43C528.014 422.551 528.857 424.586 530.357 426.087C531.857 427.587 533.892 428.43 536.014 428.43H568.014C570.135 428.43 572.17 427.587 573.671 426.087C575.171 424.586 576.014 422.551 576.014 420.43V356.43ZM560.014 412.43H544.014V364.43H560.014V412.43Z" fill="#F2AF00" stroke="#F2AF00" stroke-width="8"/>
<path d="M400.014 284.43H416.014V364.43H400.014V284.43Z" fill="#F2AF00" stroke="#F2AF00" stroke-width="8"/>
<path d="M496.014 268.43H512.014V284.43H496.014V268.43Z" fill="#F2AF00" stroke="#F2AF00" stroke-width="8"/>
<path d="M528.014 292.43H544.014V332.43H528.014V292.43Z" fill="#F2AF00" stroke="#F2AF00" stroke-width="8"/>
<path d="M560.014 308.43H576.014V332.43H560.014V308.43Z" fill="#F2AF00" stroke="#F2AF00" stroke-width="8"/>
<path d="M464.014 388.43H480.014V444.43H464.014V388.43Z" fill="#F2AF00" stroke="#F2AF00" stroke-width="8"/>
<path d="M496.014 388.43H512.014V412.43H496.014V388.43Z" fill="#F2AF00" stroke="#F2AF00" stroke-width="8"/>
<path d="M640.014 276.43C640.014 274.308 639.171 272.273 637.671 270.773C636.17 269.273 634.135 268.43 632.014 268.43H600.014C597.892 268.43 595.857 269.273 594.357 270.773C592.857 272.273 592.014 274.308 592.014 276.43V332.43C592.014 334.551 592.857 336.586 594.357 338.087C595.857 339.587 597.892 340.43 600.014 340.43H632.014C634.135 340.43 636.17 339.587 637.671 338.087C639.171 336.586 640.014 334.551 640.014 332.43V276.43ZM624.014 324.43H608.014V284.43H624.014V324.43Z" fill="#F2AF00" stroke="#F2AF00" stroke-width="8"/>
<path d="M656.014 284.43H672.014V356.43H656.014V284.43Z" fill="#F2AF00" stroke="#F2AF00" stroke-width="8"/>
<path d="M672.014 228.43C672.014 226.308 671.171 224.273 669.671 222.773C668.17 221.273 666.135 220.43 664.014 220.43H408.014C405.892 220.43 403.857 221.273 402.357 222.773C400.857 224.273 400.014 226.308 400.014 228.43V268.43H416.014V236.43H432.014V332.43H448.014V236.43H464.014V284.43H480.014V236.43H496.014V252.43H512.014V236.43H528.014V276.43H544.014V236.43H560.014V292.43H576.014V236.43H592.014V252.43H608.014V236.43H624.014V252.43H640.014V236.43H656.014V268.43H672.014V228.43Z" fill="#F2AF00" stroke="#F2AF00" stroke-width="8"/>
<path d="M592.014 356.43H608.014V436.43H592.014V356.43Z" fill="#F2AF00" stroke="#F2AF00" stroke-width="8"/>
<path d="M624.014 356.43H640.014V412.43H624.014V356.43Z" fill="#F2AF00" stroke="#F2AF00" stroke-width="8"/>
<path d="M496.014 428.43H512.014V476.43H496.014V428.43Z" fill="#F2AF00" stroke="#F2AF00" stroke-width="8"/>
<path d="M528.014 444.43H544.014V500.43H528.014V444.43Z" fill="#F2AF00" stroke="#F2AF00" stroke-width="8"/>
<path d="M560.014 444.43H576.014V468.43H560.014V444.43Z" fill="#F2AF00" stroke="#F2AF00" stroke-width="8"/>
</svg>
