<svg width="951" height="951" viewBox="0 0 951 951" fill="none" xmlns="http://www.w3.org/2000/svg">
<circle cx="475.658" cy="475.813" r="459.598" fill="white" stroke="#F2AF00" stroke-width="31"/>
<path d="M595.658 635.812H611.658V651.812H595.658V635.812Z" fill="#F2AF00" stroke="#F2AF00" stroke-width="2"/>
<path d="M627.658 635.812H643.658V651.812H627.658V635.812Z" fill="#F2AF00" stroke="#F2AF00" stroke-width="2"/>
<path d="M563.658 635.812H579.658V651.812H563.658V635.812Z" fill="#F2AF00" stroke="#F2AF00" stroke-width="2"/>
<path d="M323.658 419.812H339.658V435.812H323.658V419.812Z" fill="#F2AF00" stroke="#F2AF00" stroke-width="2"/>
<path d="M387.658 419.812H403.658V435.812H387.658V419.812Z" fill="#F2AF00" stroke="#F2AF00" stroke-width="2"/>
<path d="M291.658 419.812H307.658V435.812H291.658V419.812Z" fill="#F2AF00" stroke="#F2AF00" stroke-width="2"/>
<path d="M355.658 419.812H371.658V435.812H355.658V419.812Z" fill="#F2AF00" stroke="#F2AF00" stroke-width="2"/>
<path d="M707.658 389.285V331.812C707.658 274.468 661.002 227.812 603.658 227.812H539.658C488.538 227.812 446.002 264.932 437.354 313.604C415.498 299.524 389.826 291.812 363.658 291.812C288.666 291.812 227.658 352.821 227.658 427.812C227.658 491.764 272.082 545.405 331.658 559.853V587.812C331.658 592.109 332.882 596.085 334.866 599.581C328.154 603.837 323.658 611.292 323.658 619.812V683.812C323.658 705.868 341.602 723.812 363.658 723.812C385.714 723.812 403.658 705.868 403.658 683.812V619.812C403.658 611.292 399.162 603.837 392.45 599.581C394.434 596.085 395.658 592.109 395.658 587.812V559.909C430.034 551.557 460.242 529.997 479.242 499.365C480.698 499.573 482.146 499.812 483.658 499.812C499.754 499.812 512.97 487.837 515.202 472.357C528.394 489.045 548.778 499.812 571.658 499.812C594.538 499.812 614.922 489.045 628.114 472.357C630.346 487.837 643.562 499.812 659.658 499.812C677.306 499.812 691.658 485.461 691.658 467.812V466.34C694.17 467.236 696.842 467.812 699.658 467.812C712.89 467.812 723.658 457.045 723.658 443.812V411.812C723.658 401.396 716.946 392.597 707.658 389.285V389.285ZM628.114 383.268C614.922 366.58 594.538 355.812 571.658 355.812C548.778 355.812 528.394 366.58 515.202 383.268C512.97 367.788 499.754 355.812 483.658 355.812V331.812C483.658 300.941 508.786 275.812 539.658 275.812H603.658C634.53 275.812 659.658 300.941 659.658 331.812V355.812C643.562 355.812 630.346 367.788 628.114 383.268ZM451.658 331.812C451.658 283.292 491.138 243.812 539.658 243.812H603.658C652.178 243.812 691.658 283.292 691.658 331.812V387.812C691.658 376.021 685.178 365.812 675.658 360.26V331.812C675.658 292.109 643.362 259.812 603.658 259.812H539.658C499.954 259.812 467.658 292.109 467.658 331.812V360.26C458.138 365.812 451.658 376.021 451.658 387.812V331.812ZM443.658 403.812C448.074 403.812 451.658 407.397 451.658 411.812V443.812C451.658 448.228 448.074 451.812 443.658 451.812C439.242 451.812 435.658 448.228 435.658 443.812V411.812C435.658 407.397 439.242 403.812 443.658 403.812ZM435.658 389.285C426.37 392.597 419.658 401.396 419.658 411.812V443.812C419.658 456.5 429.586 466.812 442.066 467.652C427.282 496.644 397.106 515.812 363.658 515.812C315.138 515.812 275.658 476.333 275.658 427.812C275.658 379.292 315.138 339.812 363.658 339.812C392.402 339.812 419.162 353.853 435.658 377.357V389.285ZM387.658 683.812C387.658 697.045 376.89 707.812 363.658 707.812C350.426 707.812 339.658 697.045 339.658 683.812V619.812C339.658 615.397 343.242 611.812 347.658 611.812H355.658H371.658H379.658C384.074 611.812 387.658 615.397 387.658 619.812V683.812ZM379.658 587.812C379.658 592.228 376.074 595.812 371.658 595.812H355.658C351.242 595.812 347.658 592.228 347.658 587.812V562.789C352.914 563.405 358.234 563.812 363.658 563.812C369.05 563.812 374.378 563.437 379.658 562.812V587.812ZM363.658 547.812C297.49 547.812 243.658 493.98 243.658 427.812C243.658 361.645 297.49 307.812 363.658 307.812C389.994 307.812 414.778 316.196 435.658 331.916V352.98C416.474 334.516 390.85 323.812 363.658 323.812C306.314 323.812 259.658 370.468 259.658 427.812C259.658 485.157 306.314 531.812 363.658 531.812C401.41 531.812 435.698 511.181 453.93 479.461C456.082 484.941 459.722 489.613 464.322 493.141C442.274 527.045 404.378 547.812 363.658 547.812V547.812ZM499.658 467.812C499.658 476.637 492.482 483.812 483.658 483.812C474.834 483.812 467.658 476.637 467.658 467.812V443.812V411.812V387.812C467.658 378.988 474.834 371.812 483.658 371.812C492.482 371.812 499.658 378.988 499.658 387.812V467.812ZM571.658 483.812C540.786 483.812 515.658 458.684 515.658 427.812C515.658 396.941 540.786 371.812 571.658 371.812C602.53 371.812 627.658 396.941 627.658 427.812C627.658 458.684 602.53 483.812 571.658 483.812ZM675.658 467.812C675.658 476.637 668.482 483.812 659.658 483.812C650.834 483.812 643.658 476.637 643.658 467.812V387.812C643.658 378.988 650.834 371.812 659.658 371.812C668.482 371.812 675.658 378.988 675.658 387.812V411.812V443.812V467.812ZM707.658 443.812C707.658 448.228 704.074 451.812 699.658 451.812C695.242 451.812 691.658 448.228 691.658 443.812V411.812C691.658 407.397 695.242 403.812 699.658 403.812C704.074 403.812 707.658 407.397 707.658 411.812V443.812Z" fill="#F2AF00" stroke="#F2AF00" stroke-width="2"/>
<path d="M635.658 563.812H611.658V535.125C611.658 524.477 602.994 515.812 592.346 515.812C587.258 515.812 582.282 517.877 578.69 521.469L536.346 563.812H459.658C437.602 563.812 419.658 581.757 419.658 603.812V683.812C419.658 705.868 437.602 723.812 459.658 723.812H635.658C657.714 723.812 675.658 705.868 675.658 683.812V603.812C675.658 581.757 657.714 563.812 635.658 563.812ZM659.658 683.812C659.658 697.045 648.89 707.812 635.658 707.812H459.658C446.426 707.812 435.658 697.045 435.658 683.812V603.812C435.658 590.58 446.426 579.812 459.658 579.812H542.97L590.002 532.78C591.906 530.876 595.658 532.421 595.658 535.125V579.812H635.658C648.89 579.812 659.658 590.58 659.658 603.812V683.812Z" fill="#F2AF00" stroke="#F2AF00" stroke-width="2"/>
<path d="M494.058 595.812L460.146 689.077L475.178 694.548L481.986 675.812H533.33L540.146 694.548L555.178 689.077L521.258 595.812H494.058ZM487.802 659.812L505.258 611.812H510.058L527.514 659.812H487.802Z" fill="#F2AF00" stroke="#F2AF00" stroke-width="2"/>
</svg>
