<svg width="951" height="952" viewBox="0 0 951 952" fill="none" xmlns="http://www.w3.org/2000/svg">
<circle cx="475.309" cy="476.004" r="459.598" fill="white" stroke="#F2AF00" stroke-width="31"/>
<path d="M510.342 644.828C515.865 644.828 520.342 640.351 520.342 634.828C520.342 629.305 515.865 624.828 510.342 624.828C504.819 624.828 500.342 629.305 500.342 634.828C500.342 640.351 504.819 644.828 510.342 644.828Z" fill="#F2AF00" stroke="#F2AF00" stroke-width="6"/>
<path d="M676.342 424.828C676.342 406.224 663.575 390.546 646.342 386.094V238.828C646.342 216.772 628.398 198.828 606.342 198.828H414.342C392.286 198.828 374.342 216.772 374.342 238.828V354.828H359.212C334.046 354.828 311.787 370.869 303.825 394.746C294.908 421.493 271.689 440.39 244.342 444.134V424.828C244.342 419.305 239.864 414.828 234.342 414.828H174.342C168.82 414.828 164.342 419.305 164.342 424.828V634.828C164.342 640.351 168.82 644.828 174.342 644.828H234.342C239.864 644.828 244.342 640.351 244.342 634.828V614.828H273.132C283.98 614.828 294.6 619.228 302.271 626.899C313.664 638.293 329.44 644.828 345.552 644.828H374.342V670.828C374.342 692.884 392.286 710.828 414.342 710.828H465.342C470.864 710.828 475.342 706.351 475.342 700.828C475.342 695.305 470.864 690.828 465.342 690.828H414.342C403.314 690.828 394.342 681.856 394.342 670.828V434.828H414.342C452.94 434.828 484.342 403.426 484.342 364.828C484.342 359.305 479.864 354.828 474.342 354.828H394.342V238.828C394.342 227.8 403.314 218.828 414.342 218.828H606.342C617.37 218.828 626.342 227.8 626.342 238.828V384.828H606.342C584.286 384.828 566.342 402.772 566.342 424.828C566.342 436.766 571.606 447.493 579.927 454.828C571.606 462.163 566.342 472.89 566.342 484.828C566.342 496.766 571.606 507.493 579.927 514.828C571.606 522.163 566.342 532.89 566.342 544.828C566.342 556.766 571.606 567.493 579.927 574.828C571.606 582.163 566.342 592.89 566.342 604.828C566.342 626.884 584.286 644.828 606.342 644.828H626.342V670.828C626.342 681.856 617.37 690.828 606.342 690.828H555.342C549.82 690.828 545.342 695.305 545.342 700.828C545.342 706.351 549.82 710.828 555.342 710.828H606.342C628.398 710.828 646.342 692.884 646.342 670.828V643.562C663.575 639.11 676.342 623.432 676.342 604.828C676.342 592.89 671.078 582.163 662.757 574.828C671.078 567.493 676.342 556.766 676.342 544.828C676.342 532.89 671.078 522.163 662.757 514.828C671.078 507.493 676.342 496.766 676.342 484.828C676.342 472.89 671.078 462.163 662.757 454.828C671.078 447.493 676.342 436.766 676.342 424.828ZM224.342 624.828H184.342V434.828H224.342V624.828ZM414.342 414.828H384.342C378.82 414.828 374.342 419.305 374.342 424.828V454.828C374.342 482.398 351.912 504.828 324.342 504.828C318.82 504.828 314.342 509.305 314.342 514.828C314.342 520.351 318.82 524.828 324.342 524.828C343.914 524.828 361.626 516.744 374.342 503.751V624.828H345.552C334.704 624.828 324.084 620.428 316.413 612.757C305.02 601.363 289.244 594.828 273.132 594.828H244.342V464.28C280.336 460.427 311.152 436.008 322.798 401.072C328.033 385.375 342.666 374.828 359.212 374.818H463.337C458.692 397.622 438.488 414.828 414.342 414.828ZM656.342 604.828C656.342 615.856 647.37 624.828 636.342 624.828H606.342C595.314 624.828 586.342 615.856 586.342 604.828C586.342 593.8 595.314 584.828 606.342 584.828H636.342C647.37 584.828 656.342 593.8 656.342 604.828ZM656.342 544.828C656.342 555.856 647.37 564.828 636.342 564.828H606.342C595.314 564.828 586.342 555.856 586.342 544.828C586.342 533.8 595.314 524.828 606.342 524.828H636.342C647.37 524.828 656.342 533.8 656.342 544.828ZM656.342 484.828C656.342 495.856 647.37 504.828 636.342 504.828H606.342C595.314 504.828 586.342 495.856 586.342 484.828C586.342 473.8 595.314 464.828 606.342 464.828H636.342C647.37 464.828 656.342 473.8 656.342 484.828ZM606.342 444.828C595.314 444.828 586.342 435.856 586.342 424.828C586.342 413.8 595.314 404.828 606.342 404.828H636.342C647.37 404.828 656.342 413.8 656.342 424.828C656.342 435.856 647.37 444.828 636.342 444.828H606.342Z" fill="#F2AF00" stroke="#F2AF00" stroke-width="6"/>
<path d="M550.342 268.828C550.342 263.305 545.864 258.828 540.342 258.828H480.342C474.82 258.828 470.342 263.305 470.342 268.828C470.342 274.351 474.82 278.828 480.342 278.828H540.342C545.864 278.828 550.342 274.351 550.342 268.828Z" fill="#F2AF00" stroke="#F2AF00" stroke-width="6"/>
<path d="M517.321 707.883C521.226 703.978 521.226 697.647 517.321 693.742C513.417 689.838 507.086 689.838 503.181 693.742C499.277 697.647 499.277 703.978 503.181 707.883C507.086 711.787 513.417 711.787 517.321 707.883Z" fill="#F2AF00" stroke="#F2AF00" stroke-width="6"/>
</svg>
