<svg width="952" height="952" viewBox="0 0 952 952" fill="none" xmlns="http://www.w3.org/2000/svg">
<circle cx="475.918" cy="476.004" r="459.598" fill="white" stroke="#F2AF00" stroke-width="31"/>
<path d="M475.971 460.959C506.729 460.959 533.36 449.927 555.125 428.162C576.884 406.4 587.919 379.773 587.919 349.011C587.919 318.26 576.887 291.629 555.122 269.86C533.356 248.102 506.726 237.07 475.971 237.07C445.209 237.07 418.582 248.102 396.821 269.864C375.059 291.626 364.023 318.256 364.023 349.011C364.023 379.773 375.059 406.403 396.821 428.165C418.59 449.923 445.22 460.959 475.971 460.959V460.959ZM416.082 289.122C432.781 272.424 452.369 264.307 475.971 264.307C499.57 264.307 519.162 272.424 535.863 289.122C552.562 305.824 560.682 325.416 560.682 349.011C560.682 372.613 552.562 392.201 535.863 408.903C519.162 425.605 499.57 433.722 475.971 433.722C452.376 433.722 432.788 425.601 416.082 408.903C399.381 392.205 391.26 372.613 391.26 349.011C391.26 325.416 399.381 305.824 416.082 289.122Z" fill="#F2AF00"/>
<path d="M671.849 594.465C671.221 585.409 669.952 575.529 668.083 565.097C666.196 554.587 663.767 544.651 660.86 535.569C657.853 526.183 653.771 516.914 648.718 508.031C643.481 498.811 637.325 490.783 630.417 484.177C623.194 477.266 614.35 471.709 604.123 467.656C593.932 463.624 582.638 461.582 570.557 461.582C565.812 461.582 561.224 463.528 552.362 469.298C546.909 472.854 540.529 476.968 533.409 481.517C527.32 485.397 519.072 489.031 508.885 492.322C498.945 495.538 488.853 497.169 478.889 497.169C468.932 497.169 458.84 495.538 448.893 492.322C438.716 489.035 430.464 485.4 424.387 481.521C417.334 477.014 410.951 472.901 405.415 469.294C396.561 463.525 391.972 461.578 387.228 461.578C375.143 461.578 363.853 463.624 353.665 467.66C343.445 471.706 334.598 477.262 327.368 484.18C320.46 490.79 314.304 498.815 309.07 508.031C304.024 516.914 299.939 526.179 296.932 535.573C294.028 544.654 291.599 554.587 289.713 565.097C287.84 575.515 286.574 585.398 285.947 594.476C285.33 603.351 285.018 612.589 285.018 621.922C285.018 646.184 292.73 665.825 307.939 680.311C322.96 694.604 342.832 701.853 367.005 701.853H590.801C614.967 701.853 634.839 694.604 649.864 680.311C665.076 665.836 672.789 646.187 672.789 621.918C672.785 612.553 672.469 603.316 671.849 594.465ZM631.084 660.577C621.159 670.024 607.982 674.616 590.798 674.616H367.005C349.817 674.616 336.64 670.024 326.719 660.58C316.985 651.315 312.255 638.666 312.255 621.922C312.255 613.213 312.542 604.614 313.116 596.359C313.676 588.26 314.822 579.363 316.52 569.909C318.198 560.572 320.332 551.81 322.871 543.878C325.307 536.271 328.63 528.74 332.75 521.485C336.683 514.57 341.208 508.637 346.201 503.857C350.871 499.386 356.757 495.726 363.693 492.982C370.108 490.443 377.317 489.053 385.143 488.843C386.097 489.351 387.795 490.319 390.547 492.113C396.146 495.762 402.6 499.925 409.734 504.481C417.777 509.609 428.138 514.24 440.517 518.236C453.173 522.328 466.081 524.406 478.892 524.406C491.704 524.406 504.615 522.328 517.264 518.24C529.654 514.236 540.012 509.609 548.065 504.474C555.366 499.808 561.639 495.765 567.238 492.113C569.99 490.322 571.688 489.351 572.642 488.843C580.472 489.053 587.681 490.443 594.099 492.982C601.031 495.726 606.918 499.389 611.588 503.857C616.581 508.634 621.105 514.566 625.038 521.488C629.162 528.74 632.488 536.275 634.921 543.874C637.463 551.817 639.601 560.576 641.275 569.905C642.97 579.377 644.119 588.277 644.679 596.362V596.369C645.257 604.592 645.548 613.188 645.552 621.922C645.548 638.67 640.818 651.315 631.084 660.577Z" fill="#F2AF00"/>
</svg>
