<svg width="951" height="951" viewBox="0 0 951 951" fill="none" xmlns="http://www.w3.org/2000/svg">
<circle cx="475.496" cy="475.809" r="459.598" fill="white" stroke="#F2AF00" stroke-width="31"/>
<path d="M707.496 235.809H243.496C239.08 235.809 235.496 239.385 235.496 243.809V355.809C235.496 360.233 239.08 363.809 243.496 363.809H707.496C711.912 363.809 715.496 360.233 715.496 355.809V243.809C715.496 239.385 711.912 235.809 707.496 235.809ZM640.264 251.809L475.496 291.585L310.72 251.809H640.264ZM251.496 253.969L441.416 299.809L251.496 345.649V253.969ZM310.72 347.809L475.496 308.033L640.272 347.809H310.72ZM699.496 345.649L509.576 299.809L699.496 253.969V345.649Z" fill="#F2AF00"/>
<path d="M371.496 379.809H243.496C239.08 379.809 235.496 383.385 235.496 387.809V643.809V707.809C235.496 712.233 239.08 715.809 243.496 715.809H371.496C375.912 715.809 379.496 712.233 379.496 707.809V643.809V387.809C379.496 383.385 375.912 379.809 371.496 379.809ZM358.552 395.809L307.496 497.921L256.44 395.809H358.552ZM358.552 635.809H256.44L307.496 533.697L358.552 635.809ZM251.496 421.697L298.552 515.809L251.496 609.921V421.697ZM363.496 699.809H251.496V651.809H363.496V699.809ZM363.496 609.921L316.44 515.809L363.496 421.697V609.921Z" fill="#F2AF00"/>
<path d="M283.496 667.809H267.496V683.809H283.496V667.809Z" fill="#F2AF00"/>
<path d="M315.496 667.809H299.496V683.809H315.496V667.809Z" fill="#F2AF00"/>
<path d="M347.496 667.809H331.496V683.809H347.496V667.809Z" fill="#F2AF00"/>
<path d="M539.496 379.809H411.496C407.08 379.809 403.496 383.385 403.496 387.809V491.809V555.809C403.496 560.233 407.08 563.809 411.496 563.809H539.496C543.912 563.809 547.496 560.233 547.496 555.809V491.809V387.809C547.496 383.385 543.912 379.809 539.496 379.809ZM516.968 395.809L475.496 429.497L434.032 395.809H516.968ZM516.96 483.809H434.032L475.496 450.121L516.96 483.809ZM419.496 404.617L462.808 439.809L419.496 475.001V404.617ZM531.496 547.809H419.496V499.809H531.496V547.809ZM531.496 475.001L488.184 439.809L531.496 404.617V475.001Z" fill="#F2AF00"/>
<path d="M451.496 515.809H435.496V531.809H451.496V515.809Z" fill="#F2AF00"/>
<path d="M483.496 515.809H467.496V531.809H483.496V515.809Z" fill="#F2AF00"/>
<path d="M515.496 515.809H499.496V531.809H515.496V515.809Z" fill="#F2AF00"/>
<path d="M707.496 379.809H571.496C567.08 379.809 563.496 383.385 563.496 387.809V491.809C563.496 496.233 567.08 499.809 571.496 499.809H707.496C711.912 499.809 715.496 496.233 715.496 491.809V387.809C715.496 383.385 711.912 379.809 707.496 379.809ZM699.496 483.809H579.496V395.809H699.496V483.809Z" fill="#F2AF00"/>
<path d="M691.496 515.809H587.496V531.809H691.496V515.809Z" fill="#F2AF00"/>
<path d="M715.496 547.809H563.496V563.809H715.496V547.809Z" fill="#F2AF00"/>
<path d="M539.496 579.809H411.496C407.08 579.809 403.496 583.385 403.496 587.809V675.809C403.496 680.233 407.08 683.809 411.496 683.809H539.496C543.912 683.809 547.496 680.233 547.496 675.809V587.809C547.496 583.385 543.912 579.809 539.496 579.809ZM531.496 667.809H419.496V595.809H531.496V667.809Z" fill="#F2AF00"/>
<path d="M547.496 699.809H403.496V715.809H547.496V699.809Z" fill="#F2AF00"/>
<path d="M707.496 579.809H571.496C567.08 579.809 563.496 583.385 563.496 587.809V707.809C563.496 712.233 567.08 715.809 571.496 715.809H707.496C711.912 715.809 715.496 712.233 715.496 707.809V587.809C715.496 583.385 711.912 579.809 707.496 579.809ZM686.336 595.809L639.496 637.137L592.656 595.809H686.336ZM579.496 605.537L627.4 647.809L579.496 690.081V605.537ZM592.656 699.809L639.496 658.481L686.336 699.809H592.656ZM699.496 690.081L651.592 647.809L699.496 605.537V690.081Z" fill="#F2AF00"/>
</svg>
