<svg width="90" height="41" viewBox="0 0 90 42" fill="none" xmlns="http://www.w3.org/2000/svg">
<path d="M4 1.07227H86C87.933 1.07227 89.5 2.63927 89.5 4.57227V37.5723C89.5 39.5053 87.933 41.0723 86 41.0723H4C2.067 41.0723 0.5 39.5053 0.5 37.5723V4.57227C0.5 2.63927 2.067 1.07227 4 1.07227Z" fill="white" stroke="#DF1F26"/>
<path d="M26.7783 24.2148C26.7783 23.7168 26.6025 23.3359 26.251 23.0723C25.8994 22.8027 25.2666 22.5215 24.3525 22.2285C23.4385 21.9297 22.7148 21.6367 22.1816 21.3496C20.7285 20.5645 20.002 19.5068 20.002 18.1768C20.002 17.4854 20.1953 16.8701 20.582 16.3311C20.9746 15.7861 21.5342 15.3613 22.2607 15.0566C22.9932 14.752 23.8135 14.5996 24.7217 14.5996C25.6357 14.5996 26.4502 14.7666 27.165 15.1006C27.8799 15.4287 28.4336 15.8945 28.8262 16.498C29.2246 17.1016 29.4238 17.7871 29.4238 18.5547H26.7871C26.7871 17.9688 26.6025 17.5146 26.2334 17.1924C25.8643 16.8643 25.3457 16.7002 24.6777 16.7002C24.0332 16.7002 23.5322 16.8379 23.1748 17.1133C22.8174 17.3828 22.6387 17.7402 22.6387 18.1855C22.6387 18.6016 22.8467 18.9502 23.2627 19.2314C23.6846 19.5127 24.3027 19.7764 25.1172 20.0225C26.6172 20.4736 27.71 21.0332 28.3955 21.7012C29.0811 22.3691 29.4238 23.2012 29.4238 24.1973C29.4238 25.3047 29.0049 26.1748 28.167 26.8076C27.3291 27.4346 26.2012 27.748 24.7832 27.748C23.7988 27.748 22.9023 27.5693 22.0938 27.2119C21.2852 26.8486 20.667 26.3535 20.2393 25.7266C19.8174 25.0996 19.6064 24.373 19.6064 23.5469H22.252C22.252 24.959 23.0957 25.665 24.7832 25.665C25.4102 25.665 25.8994 25.5391 26.251 25.2871C26.6025 25.0293 26.7783 24.6719 26.7783 24.2148ZM36.5605 27.5723C36.4434 27.3438 36.3584 27.0596 36.3057 26.7197C35.6904 27.4053 34.8906 27.748 33.9062 27.748C32.9746 27.748 32.2012 27.4785 31.5859 26.9395C30.9766 26.4004 30.6719 25.7207 30.6719 24.9004C30.6719 23.8926 31.0439 23.1191 31.7881 22.5801C32.5381 22.041 33.6191 21.7686 35.0312 21.7627H36.2002V21.2178C36.2002 20.7783 36.0859 20.4268 35.8574 20.1631C35.6348 19.8994 35.2803 19.7676 34.7939 19.7676C34.3662 19.7676 34.0293 19.8701 33.7832 20.0752C33.543 20.2803 33.4229 20.5615 33.4229 20.9189H30.8828C30.8828 20.3682 31.0527 19.8584 31.3926 19.3896C31.7324 18.9209 32.2129 18.5547 32.834 18.291C33.4551 18.0215 34.1523 17.8867 34.9258 17.8867C36.0977 17.8867 37.0264 18.1826 37.7119 18.7744C38.4033 19.3604 38.749 20.1865 38.749 21.2529V25.375C38.7549 26.2773 38.8809 26.96 39.127 27.4229V27.5723H36.5605ZM34.46 25.8057C34.835 25.8057 35.1807 25.7236 35.4971 25.5596C35.8135 25.3896 36.0479 25.1641 36.2002 24.8828V23.248H35.251C33.9795 23.248 33.3027 23.6875 33.2207 24.5664L33.2119 24.7158C33.2119 25.0322 33.3232 25.293 33.5459 25.498C33.7686 25.7031 34.0732 25.8057 34.46 25.8057ZM44.1104 23.9775L45.8682 18.0625H48.5928L44.7695 29.0488L44.5586 29.5498C43.9902 30.792 43.0527 31.4131 41.7461 31.4131C41.377 31.4131 41.002 31.3574 40.6211 31.2461V29.3213L41.0078 29.3301C41.4883 29.3301 41.8457 29.2568 42.0801 29.1104C42.3203 28.9639 42.5078 28.7207 42.6426 28.3809L42.9414 27.5986L39.6104 18.0625H42.3438L44.1104 23.9775ZM56.5557 19.0996C57.2295 18.291 58.0762 17.8867 59.0957 17.8867C61.1582 17.8867 62.2041 19.085 62.2334 21.4814V27.5723H59.6934V21.5518C59.6934 21.0068 59.5762 20.6055 59.3418 20.3477C59.1074 20.084 58.7178 19.9521 58.1729 19.9521C57.4287 19.9521 56.8896 20.2393 56.5557 20.8135V27.5723H54.0156V14.0723H56.5557V19.0996ZM66.8301 27.5723H64.2812V18.0625H66.8301V27.5723ZM64.1318 15.6016C64.1318 15.2207 64.2578 14.9072 64.5098 14.6611C64.7676 14.415 65.1162 14.292 65.5557 14.292C65.9893 14.292 66.335 14.415 66.5928 14.6611C66.8506 14.9072 66.9795 15.2207 66.9795 15.6016C66.9795 15.9883 66.8477 16.3047 66.584 16.5508C66.3262 16.7969 65.9834 16.9199 65.5557 16.9199C65.1279 16.9199 64.7822 16.7969 64.5186 16.5508C64.2607 16.3047 64.1318 15.9883 64.1318 15.6016Z" fill="#DF1F26"/>
</svg>
