<svg width="513" height="513" viewBox="0 0 513 513" fill="none" xmlns="http://www.w3.org/2000/svg">
<g clip-path="url(#clip0)">
<path d="M349.726 154.359H341.206V205.481H349.726C363.844 205.481 375.287 194.038 375.287 179.92C375.287 165.802 363.835 154.359 349.726 154.359Z" fill="#8F4F24"/>
<path d="M136.715 179.924C136.715 194.042 148.158 205.485 162.276 205.485H170.796V154.363H162.276C148.158 154.362 136.715 165.805 136.715 179.924Z" fill="#8F4F24"/>
<path d="M349.726 154.363L359.78 102.644C363.077 83.0126 349.828 64.4296 330.197 61.1326C328.203 60.8006 326.184 60.6386 324.165 60.6386C319.07 45.3866 304.798 35.0946 288.72 35.0776H187.838L170.797 9.51562L162.277 18.0356C138.752 41.5606 138.744 79.6976 162.26 103.223C162.269 103.232 162.269 103.24 162.277 103.24H315.644L349.726 154.363Z" fill="black"/>
<path d="M375.798 350.926L314.025 342.406L256.001 375.891L197.977 342.747L136.204 351.267C102.48 355.774 77.2433 384.463 77.0723 418.493V512.218H434.93V418.493C434.93 384.343 409.65 355.451 375.798 350.926Z" fill="#DBDBDB"/>
<path d="M314.025 342.748L307.123 341.81V282.168H204.879V341.81L197.977 342.748L256.001 375.892L314.025 342.748Z" fill="#A15D30"/>
<path d="M204.879 409.973L256.001 375.891L204.879 341.809H187.838L204.879 409.973Z" fill="#EAEAEA"/>
<path d="M256.001 375.891L307.123 409.973L324.164 341.809H307.123L256.001 375.891Z" fill="#EAEAEA"/>
<path d="M230.44 512.218L238.96 418.493L230.44 392.932L256.001 375.891L281.562 392.932L273.042 418.493L281.562 512.218" fill="#FF637B"/>
<path d="M307.123 329.371V282.168H204.879V329.371C243.22 345.985 268.782 345.985 307.123 329.371Z" fill="#8F4F24"/>
<path d="M77.0723 418.492V512.217H111.154V359.531C90.0833 371.698 77.0893 394.166 77.0723 418.492Z" fill="#BFBFBF"/>
<path d="M349.726 154.361V202.927C349.717 226.963 343.591 250.59 331.918 271.602C316.598 299.166 287.535 316.257 256.001 316.249C224.467 316.258 195.404 299.166 180.084 271.602C168.411 250.591 162.285 226.964 162.276 202.927V103.238H315.643L349.726 154.361Z" fill="#8F4F24"/>
<path d="M196.358 103.238H162.276V202.927C162.285 226.963 168.411 250.59 180.084 271.602C188.604 286.854 201.564 299.157 217.233 306.877C187.838 222.524 196.358 103.238 196.358 103.238Z" fill="#A15D30"/>
<path d="M146.429 46.3242C141.368 66.7642 147.383 88.3552 162.277 103.24H298.604C201.811 103.24 162.276 69.1582 146.429 46.3242Z" fill="black"/>
<path d="M349.726 214.004H341.206V196.963H349.726C359.124 196.963 366.767 189.32 366.767 179.922C366.767 170.524 359.124 162.881 349.726 162.881H341.206V145.84H349.726C368.522 145.84 383.808 161.126 383.808 179.922C383.808 198.718 368.522 214.004 349.726 214.004Z" fill="black"/>
<path d="M170.797 214.004H162.277C143.481 214.004 128.195 198.718 128.195 179.922C128.195 161.126 143.481 145.84 162.277 145.84H170.797V162.881H162.277C152.879 162.881 145.236 170.524 145.236 179.922C145.236 189.32 152.879 196.963 162.277 196.963H170.797V214.004Z" fill="black"/>
<path d="M264.521 231.045H238.96C236.285 231.045 233.771 229.792 232.161 227.654C230.551 225.515 230.031 222.755 230.772 220.182L247.813 160.539L264.198 165.225L250.25 214.004H264.513V231.045H264.521Z" fill="black"/>
<path d="M256.018 324.769C256.001 324.769 255.984 324.769 255.967 324.769C221.374 324.769 189.44 305.99 172.629 275.734C160.283 253.521 153.756 228.343 153.748 202.936V103.239C153.748 98.5358 157.565 94.7188 162.268 94.7188H315.635C318.481 94.7188 321.139 96.1417 322.724 98.5107L356.806 149.633C357.735 151.03 358.237 152.675 358.237 154.362V202.928C358.228 228.336 351.693 253.514 339.356 275.735C322.554 305.981 290.619 324.769 256.018 324.769ZM255.992 307.728C256 307.728 256.009 307.728 256.009 307.728C284.433 307.728 310.659 292.298 324.462 267.461C335.402 247.762 341.188 225.447 341.196 202.919V156.934L311.076 111.759H170.796V202.927C170.805 225.455 176.59 247.77 187.53 267.461C201.333 292.307 227.559 307.728 255.974 307.728C255.984 307.728 255.992 307.728 255.992 307.728Z" fill="black"/>
<path d="M248.929 265.125H238.96V248.084H248.929C262.195 248.075 274.669 242.912 284.059 233.531L296.107 245.587C283.496 258.181 266.745 265.116 248.929 265.125Z" fill="black"/>
<path d="M204.913 188.441C214.325 188.441 221.954 180.812 221.954 171.4C221.954 161.989 214.325 154.359 204.913 154.359C195.502 154.359 187.872 161.989 187.872 171.4C187.872 180.812 195.502 188.441 204.913 188.441Z" fill="black"/>
<path d="M307.158 188.441C316.57 188.441 324.199 180.812 324.199 171.4C324.199 161.989 316.57 154.359 307.158 154.359C297.747 154.359 290.117 161.989 290.117 171.4C290.117 180.812 297.747 188.441 307.158 188.441Z" fill="black"/>
<path d="M358.127 164.29L341.316 161.487L351.37 101.248C352.588 93.9887 350.91 86.6947 346.641 80.7137C342.372 74.7327 336.033 70.7617 328.782 69.5437C327.265 69.2877 325.544 69.1007 324.172 69.1687C324.163 69.1687 324.163 69.1687 324.155 69.1687C320.491 69.1687 317.228 66.8257 316.078 63.3497C312.133 51.5487 301.133 43.6167 288.702 43.5997H187.838C184.992 43.5997 182.334 42.1767 180.749 39.8077L169.468 22.8947L168.292 24.0617C158.528 33.8257 153.143 46.8197 153.143 60.6317C153.143 74.4517 158.519 87.4367 168.284 97.2017L156.245 109.267C129.431 82.4447 129.431 38.8197 156.245 12.0147L164.765 3.49468C166.571 1.69668 169.093 0.776676 171.632 1.04068C174.171 1.28768 176.463 2.66768 177.877 4.78968L192.396 26.5597H288.719C306.518 26.5767 322.46 36.7927 330.043 52.4957C330.571 52.5637 331.082 52.6407 331.611 52.7257C343.361 54.6937 353.628 61.1187 360.538 70.8147C367.448 80.5107 370.166 92.3117 368.189 104.053L358.127 164.29Z" fill="black"/>
<path d="M85.5932 512.218H68.5522V418.493C68.5522 380.236 97.1462 347.561 135.079 342.482L196.358 334.345V299.207H213.399V341.809C213.399 346.078 210.238 349.69 206.003 350.253L137.329 359.37C107.84 363.315 85.5932 388.723 85.5932 418.485V512.218V512.218Z" fill="black"/>
<path d="M443.45 512.218H426.409V418.493C426.409 388.731 404.171 363.315 374.665 359.378L305.999 350.261C301.764 349.699 298.603 346.086 298.603 341.817V299.215H315.644V334.353L376.914 342.49C414.847 347.56 443.45 380.244 443.45 418.501V512.218Z" fill="black"/>
<path d="M153.79 444.055H136.749V512.218H153.79V444.055Z" fill="black"/>
<path d="M375.321 444.055H358.28V512.218H375.321V444.055Z" fill="black"/>
<path d="M204.879 418.495C203.84 418.495 202.8 418.308 201.803 417.924C199.221 416.927 197.287 414.729 196.614 412.045L179.573 343.882L196.103 339.758L210.213 396.189L251.273 368.813L260.722 382.991L209.6 417.073C208.184 418.018 206.531 418.495 204.879 418.495Z" fill="black"/>
<path d="M256.001 384.412C254.544 384.412 253.087 384.037 251.775 383.287L192.132 349.205L200.584 334.414L256.001 366.084L311.418 334.414L319.87 349.205L260.227 383.287C258.915 384.038 257.458 384.412 256.001 384.412Z" fill="black"/>
<path d="M307.123 418.496C305.47 418.496 303.817 418.01 302.394 417.065L251.272 382.983L260.721 368.805L301.781 396.181L315.891 339.75L332.412 343.874L315.371 412.037C314.706 414.721 312.764 416.919 310.182 417.916C309.202 418.309 308.163 418.496 307.123 418.496Z" fill="black"/>
<path d="M238.926 512.992L221.953 511.441L230.312 419.497L222.354 395.623L238.517 390.23L247.037 415.791C247.403 416.907 247.548 418.092 247.437 419.259L238.926 512.992Z" fill="black"/>
<path d="M273.067 512.992L264.547 419.267C264.445 418.091 264.581 416.915 264.956 415.799L273.476 390.238L289.631 395.631L281.673 419.505L290.032 511.449L273.067 512.992Z" fill="black"/>
<path d="M273.076 409.973H238.994V427.014H273.076V409.973Z" fill="black"/>
</g>
<defs>
<clipPath id="clip0">
<rect x="0.000244141" y="0.992188" width="512.002" height="512.002" fill="white"/>
</clipPath>
</defs>
</svg>
