<svg width="512" height="513" viewBox="0 0 512 513" fill="none" xmlns="http://www.w3.org/2000/svg">
<g clip-path="url(#clip0)">
<path d="M375.424 359.39V128.99C375.424 63.0104 321.937 9.52344 255.957 9.52344C189.977 9.52344 136.49 63.0104 136.49 128.99V359.39H375.424Z" fill="#DBDBDB"/>
<path d="M255.958 163.125H136.491V359.392H255.958V163.125Z" fill="#BFBFBF"/>
<path d="M187.691 444.727V512.994H324.224V444.727C290.739 482.427 233.028 485.849 195.319 452.356C192.631 449.967 190.089 447.415 187.691 444.727Z" fill="#EBEBEB"/>
<path d="M313.557 352.736C304.972 351.652 298.555 344.322 298.624 335.669V291.125H213.291V335.754C213.359 344.407 206.942 351.737 198.358 352.821L187.691 354.101V444.725C221.176 482.425 278.887 485.847 316.596 452.354C319.284 449.965 321.835 447.413 324.225 444.725V354.101L313.557 352.736Z" fill="#FEDAC6"/>
<path d="M221.824 468.706C208.751 463.449 197.069 455.24 187.691 444.727V512.994H221.824V468.706Z" fill="#DBDBDB"/>
<path d="M298.624 320.992V291.125H213.291V320.992C239.172 338.067 272.742 338.067 298.624 320.992Z" fill="#F5C4B0"/>
<path d="M121.643 362.294C95.8553 365.494 76.5613 387.51 76.7583 413.494V512.993H187.691V354.102L121.643 362.294Z" fill="#368A50"/>
<path d="M435.157 413.151C435.353 387.167 416.059 365.151 390.272 361.951L324.224 353.418V512.991H435.157V413.151Z" fill="#368A50"/>
<path d="M162.091 137.525L166.784 214.325C168.943 263.571 210.611 301.749 259.857 299.599C306.091 297.577 343.108 260.559 345.131 214.325L349.824 137.525L255.957 69.2578L162.091 137.525Z" fill="#FEDAC6"/>
<path d="M358.357 146.059H349.824V197.259H358.357C372.497 197.259 383.957 185.799 383.957 171.659C383.957 157.519 372.497 146.059 358.357 146.059Z" fill="#FEDAC6"/>
<path d="M127.957 171.659C127.957 185.799 139.417 197.259 153.557 197.259H162.09V146.059H153.557C139.418 146.059 127.957 157.519 127.957 171.659Z" fill="#F5C4B0"/>
<path d="M76.7573 409.908V512.991H110.89V359.391C85.2913 367.924 76.7573 384.991 76.7573 409.908Z" fill="#28663B"/>
<path d="M255.957 45.5352C222.942 74.2072 182.835 93.4842 139.818 101.343C137.616 110.397 136.507 119.673 136.49 128.991V146.058H162.09L255.957 69.2582V45.5352Z" fill="#BFBFBF"/>
<path d="M207.317 171.659L204.757 111.926C189.969 122.576 175.727 133.968 162.09 146.059L169.258 214.326C171.084 254.561 199.603 288.6 238.89 297.441L227.541 276.364C208.597 241.205 207.317 211.509 207.317 171.659Z" fill="#F5C4B0"/>
<path d="M307.157 180.193C316.583 180.193 324.224 172.551 324.224 163.126C324.224 153.7 316.583 146.059 307.157 146.059C297.732 146.059 290.09 153.7 290.09 163.126C290.09 172.551 297.732 180.193 307.157 180.193Z" fill="black"/>
<path d="M261.794 213.891L236.194 205.359C233.847 204.574 231.953 202.816 231.014 200.529C230.067 198.242 230.161 195.655 231.261 193.445L248.328 159.312L263.594 166.949L250.931 192.285L267.196 197.704L261.794 213.891Z" fill="black"/>
<path d="M85.2912 512.991H68.2242V413.151C67.9942 382.9 90.5052 357.224 120.593 353.486L197.393 343.929C201.668 343.391 204.877 339.722 204.851 335.396V291.125H221.918V335.328C222.02 348.247 212.386 359.255 199.518 360.86L122.709 370.417C101.214 373.088 85.1372 391.435 85.2992 413.084V512.991H85.2912Z" fill="black"/>
<path d="M443.776 512.992H426.709V413.579C426.88 391.862 410.794 373.524 389.307 370.844L312.507 361.295C299.622 359.674 289.988 348.666 290.09 335.695V291.125H307.157V335.754C307.123 340.149 310.331 343.809 314.624 344.356L391.407 353.905C421.496 357.643 444.006 383.328 443.776 413.638V512.992Z" fill="black"/>
<path d="M358.357 205.791H349.824V188.724H358.357C367.769 188.724 375.424 181.07 375.424 171.657C375.424 162.245 367.77 154.59 358.357 154.59H349.824V137.523H358.357C377.182 137.523 392.49 152.832 392.49 171.656C392.49 190.48 377.182 205.791 358.357 205.791Z" fill="black"/>
<path d="M255.957 308.191C203.486 308.191 160.571 267.12 158.259 214.7L153.574 138.045L170.607 137.004L175.3 213.804C177.22 257.222 212.642 291.125 255.957 291.125C299.272 291.125 334.703 257.222 336.606 213.95L341.308 137.005L358.341 138.046L353.648 214.846C351.351 267.129 308.437 308.191 255.957 308.191Z" fill="black"/>
<path d="M245.402 248.458C245.393 248.458 245.385 248.458 245.376 248.458H238.891V231.391H245.376C245.385 231.391 245.393 231.391 245.402 231.391C256.572 231.391 267.751 228.754 277.743 223.754L285.38 239.02C273.033 245.198 259.209 248.458 245.402 248.458Z" fill="black"/>
<path d="M204.757 180.193C214.183 180.193 221.824 172.551 221.824 163.126C221.824 153.7 214.183 146.059 204.757 146.059C195.331 146.059 187.69 153.7 187.69 163.126C187.69 172.551 195.331 180.193 204.757 180.193Z" fill="black"/>
<path d="M344.422 152.662L255.957 80.2815L167.492 152.662L156.68 139.451L250.547 62.6515C253.687 60.0745 258.21 60.0745 261.359 62.6515L355.226 139.451L344.422 152.662Z" fill="black"/>
<path d="M162.091 205.793H153.558C134.733 205.793 119.425 190.484 119.425 171.66C119.425 152.836 134.734 137.527 153.558 137.527H162.091V154.593H153.558C144.146 154.593 136.491 162.247 136.491 171.66C136.491 181.072 144.145 188.727 153.558 188.727H162.091V205.793Z" fill="black"/>
<path d="M383.957 154.592H366.89V128.992C366.89 67.8252 317.124 18.0592 255.957 18.0592C194.79 18.0592 145.024 67.8252 145.024 128.992V154.592H127.957V128.992C127.957 58.4132 185.378 0.992188 255.957 0.992188C326.536 0.992188 383.957 58.4132 383.957 128.992V154.592Z" fill="black"/>
<path d="M264.491 9.52344H247.424V69.2564H264.491V9.52344Z" fill="black"/>
<path d="M145.024 188.727H127.957V359.394H145.024V188.727Z" fill="black"/>
<path d="M383.958 188.727H366.891V359.394H383.958V188.727Z" fill="black"/>
<path d="M196.224 350.859H179.157V512.992H196.224V350.859Z" fill="black"/>
<path d="M332.758 350.859H315.691V512.992H332.758V350.859Z" fill="black"/>
<path d="M256.017 483.884C228.454 483.884 201.011 472.577 181.316 450.391L194.073 439.059C224.383 473.175 276.812 476.29 310.928 445.98C313.36 443.821 315.69 441.5 317.857 439.059L330.606 450.391C328.003 453.326 325.196 456.134 322.26 458.737C303.283 475.589 279.603 483.884 256.017 483.884Z" fill="black"/>
</g>
<defs>
<clipPath id="clip0">
<rect x="0.000244141" y="0.992188" width="512" height="512" fill="white"/>
</clipPath>
</defs>
</svg>
