<svg width="1052" height="130" viewBox="0 0 1052 130" fill="none" xmlns="http://www.w3.org/2000/svg">
<circle cx="64.9191" cy="64.9542" r="64.7199" fill="#28BEE4"/>
<circle cx="833.318" cy="64.9542" r="64.7199" fill="#EA91BA"/>
<circle cx="986.997" cy="64.9542" r="64.7199" fill="#9504A9"/>
<circle cx="679.638" cy="64.9542" r="64.7199" fill="#F24538"/>
<circle cx="525.958" cy="64.9542" r="64.7199" fill="#00A687"/>
<circle cx="372.278" cy="64.9542" r="64.7199" fill="#CBE74F"/>
<circle cx="218.599" cy="64.9542" r="64.7199" fill="#F9C535"/>
<path d="M44.4287 52.8151H40.1447V64.9531H37.2677V52.8151H32.9627V50.2531H44.4287V52.8151ZM46.9997 60.3541L47.3777 61.9921H47.5037L47.7767 60.3331L49.3727 54.4531H52.1867L48.9947 63.9241C48.7287 64.7081 48.4697 65.4221 48.2177 66.0661C47.9797 66.7241 47.7137 67.2911 47.4197 67.7671C47.1257 68.2431 46.7967 68.6071 46.4327 68.8591C46.0827 69.1251 45.6627 69.2581 45.1727 69.2581C44.4447 69.2581 43.8637 69.1391 43.4297 68.9011L43.9337 66.7171C44.1437 66.8011 44.3537 66.8431 44.5637 66.8431C44.8857 66.8431 45.1937 66.7031 45.4877 66.4231C45.7957 66.1571 46.0267 65.6671 46.1807 64.9531L41.7917 54.4531H45.0677L46.9997 60.3541ZM53.206 54.4531H55.201L55.516 55.7131H55.6C55.964 55.1811 56.391 54.7891 56.881 54.5371C57.385 54.2851 57.994 54.1591 58.708 54.1591C60.024 54.1591 61.011 54.5791 61.669 55.4191C62.327 56.2451 62.656 57.5821 62.656 59.4301C62.656 60.3261 62.551 61.1381 62.341 61.8661C62.131 62.5801 61.816 63.1891 61.396 63.6931C60.99 64.1971 60.486 64.5821 59.884 64.8481C59.296 65.1141 58.617 65.2471 57.847 65.2471C57.413 65.2471 57.056 65.2121 56.776 65.1421C56.496 65.0861 56.216 64.9881 55.936 64.8481V69.1531H53.206V54.4531ZM57.889 56.4691C57.357 56.4691 56.937 56.6021 56.629 56.8681C56.335 57.1341 56.104 57.5331 55.936 58.0651V62.4331C56.132 62.5871 56.342 62.7131 56.566 62.8111C56.804 62.8951 57.112 62.9371 57.49 62.9371C58.274 62.9371 58.862 62.6641 59.254 62.1181C59.646 61.5581 59.842 60.6411 59.842 59.3671C59.842 58.4431 59.688 57.7291 59.38 57.2251C59.072 56.7211 58.575 56.4691 57.889 56.4691ZM72.9468 64.0501C72.5268 64.3861 71.9528 64.6731 71.2248 64.9111C70.5108 65.1351 69.7478 65.2471 68.9358 65.2471C67.2418 65.2471 66.0028 64.7571 65.2188 63.7771C64.4348 62.7831 64.0428 61.4251 64.0428 59.7031C64.0428 57.8551 64.4838 56.4691 65.3658 55.5451C66.2478 54.6211 67.4868 54.1591 69.0828 54.1591C69.6148 54.1591 70.1328 54.2291 70.6368 54.3691C71.1408 54.5091 71.5888 54.7401 71.9808 55.0621C72.3728 55.3841 72.6878 55.8181 72.9258 56.3641C73.1638 56.9101 73.2828 57.5891 73.2828 58.4011C73.2828 58.6951 73.2618 59.0101 73.2198 59.3461C73.1918 59.6821 73.1428 60.0321 73.0728 60.3961H66.7728C66.8148 61.2781 67.0388 61.9431 67.4448 62.3911C67.8648 62.8391 68.5368 63.0631 69.4608 63.0631C70.0348 63.0631 70.5458 62.9791 70.9938 62.8111C71.4558 62.6291 71.8058 62.4471 72.0438 62.2651L72.9468 64.0501ZM69.0408 56.3431C68.3268 56.3431 67.7948 56.5601 67.4448 56.9941C67.1088 57.4141 66.9058 57.9811 66.8358 58.6951H70.7418C70.7978 57.9391 70.6788 57.3581 70.3848 56.9521C70.1048 56.5461 69.6568 56.3431 69.0408 56.3431ZM80.0184 59.7031C80.0184 57.9251 80.4524 56.5601 81.3204 55.6081C82.1884 54.6421 83.4064 54.1591 84.9744 54.1591C85.8144 54.1591 86.5424 54.2921 87.1584 54.5581C87.7744 54.8241 88.2854 55.2021 88.6914 55.6921C89.0974 56.1681 89.3984 56.7491 89.5944 57.4351C89.8044 58.1211 89.9094 58.8771 89.9094 59.7031C89.9094 61.4811 89.4754 62.8531 88.6074 63.8191C87.7534 64.7711 86.5424 65.2471 84.9744 65.2471C84.1344 65.2471 83.4064 65.1141 82.7904 64.8481C82.1744 64.5821 81.6564 64.2111 81.2364 63.7351C80.8304 63.2451 80.5224 62.6571 80.3124 61.9711C80.1164 61.2851 80.0184 60.5291 80.0184 59.7031ZM82.8324 59.7031C82.8324 60.1651 82.8744 60.5921 82.9584 60.9841C83.0424 61.3761 83.1684 61.7191 83.3364 62.0131C83.5044 62.3071 83.7214 62.5381 83.9874 62.7061C84.2674 62.8601 84.5964 62.9371 84.9744 62.9371C85.6884 62.9371 86.2204 62.6781 86.5704 62.1601C86.9204 61.6421 87.0954 60.8231 87.0954 59.7031C87.0954 58.7371 86.9344 57.9601 86.6124 57.3721C86.2904 56.7701 85.7444 56.4691 84.9744 56.4691C84.3024 56.4691 83.7774 56.7211 83.3994 57.2251C83.0214 57.7291 82.8324 58.5551 82.8324 59.7031ZM90.5896 54.4531H92.0386V53.8651C92.0386 52.5351 92.3186 51.5761 92.8786 50.9881C93.4386 50.3861 94.2506 50.0851 95.3146 50.0851C96.4346 50.0851 97.3656 50.2181 98.1076 50.4841L97.5826 52.6681C97.2606 52.5561 96.9736 52.4861 96.7216 52.4581C96.4836 52.4161 96.2316 52.3951 95.9656 52.3951C95.6856 52.3951 95.4616 52.4371 95.2936 52.5211C95.1396 52.6051 95.0206 52.7381 94.9366 52.9201C94.8666 53.0881 94.8176 53.3051 94.7896 53.5711C94.7756 53.8231 94.7686 54.1171 94.7686 54.4531H97.0786V56.7631H94.7686V64.9531H92.0386V56.7631H90.5896V54.4531ZM49.6479 81.4531V87.4171C49.6479 88.2711 49.7459 88.8871 49.9419 89.2651C50.1519 89.6431 50.5509 89.8321 51.1389 89.8321C51.6569 89.8321 52.0839 89.6781 52.4199 89.3701C52.7699 89.0621 53.0289 88.6841 53.1969 88.2361V81.4531H55.9269V88.7611C55.9269 89.3351 55.9549 89.9021 56.0109 90.4621C56.0669 91.0081 56.1509 91.5051 56.2629 91.9531H54.2049L53.7219 90.3991H53.6379C53.3159 90.9311 52.8679 91.3721 52.2939 91.7221C51.7199 92.0721 51.0409 92.2471 50.2569 92.2471C49.7249 92.2471 49.2489 92.1771 48.8289 92.0371C48.4089 91.8971 48.0589 91.6661 47.7789 91.3441C47.4989 91.0221 47.2819 90.5881 47.1279 90.0421C46.9879 89.4961 46.9179 88.8101 46.9179 87.9841V81.4531H49.6479ZM62.6697 89.0551C62.6697 88.7751 62.5507 88.5511 62.3127 88.3831C62.0747 88.2151 61.7807 88.0611 61.4307 87.9211C61.0807 87.7811 60.6957 87.6411 60.2757 87.5011C59.8557 87.3471 59.4707 87.1441 59.1207 86.8921C58.7707 86.6261 58.4767 86.2971 58.2387 85.9051C58.0007 85.4991 57.8817 84.9811 57.8817 84.3511C57.8817 83.3151 58.1897 82.5241 58.8057 81.9781C59.4217 81.4321 60.3107 81.1591 61.4727 81.1591C62.2707 81.1591 62.9917 81.2431 63.6357 81.4111C64.2797 81.5791 64.7837 81.7681 65.1477 81.9781L64.5387 83.9521C64.2167 83.8261 63.8107 83.6931 63.3207 83.5531C62.8307 83.4131 62.3337 83.3431 61.8297 83.3431C61.0177 83.3431 60.6117 83.6581 60.6117 84.2881C60.6117 84.5401 60.7307 84.7431 60.9687 84.8971C61.2067 85.0511 61.5007 85.1981 61.8507 85.3381C62.2007 85.4641 62.5857 85.6041 63.0057 85.7581C63.4257 85.9121 63.8107 86.1151 64.1607 86.3671C64.5107 86.6051 64.8047 86.9201 65.0427 87.3121C65.2807 87.7041 65.3997 88.2081 65.3997 88.8241C65.3997 89.8881 65.0567 90.7281 64.3707 91.3441C63.6987 91.9461 62.6837 92.2471 61.3257 92.2471C60.5837 92.2471 59.8837 92.1491 59.2257 91.9531C58.5817 91.7711 58.0567 91.5541 57.6507 91.3021L58.4067 89.2651C58.7287 89.4471 59.1557 89.6291 59.6877 89.8111C60.2197 89.9791 60.7657 90.0631 61.3257 90.0631C61.7317 90.0631 62.0537 89.9861 62.2917 89.8321C62.5437 89.6781 62.6697 89.4191 62.6697 89.0551ZM75.5821 91.0501C75.1621 91.3861 74.5881 91.6731 73.8601 91.9111C73.1461 92.1351 72.3831 92.2471 71.5711 92.2471C69.8771 92.2471 68.6381 91.7571 67.8541 90.7771C67.0701 89.7831 66.6781 88.4251 66.6781 86.7031C66.6781 84.8551 67.1191 83.4691 68.0011 82.5451C68.8831 81.6211 70.1221 81.1591 71.7181 81.1591C72.2501 81.1591 72.7681 81.2291 73.2721 81.3691C73.7761 81.5091 74.2241 81.7401 74.6161 82.0621C75.0081 82.3841 75.3231 82.8181 75.5611 83.3641C75.7991 83.9101 75.9181 84.5891 75.9181 85.4011C75.9181 85.6951 75.8971 86.0101 75.8551 86.3461C75.8271 86.6821 75.7781 87.0321 75.7081 87.3961H69.4081C69.4501 88.2781 69.6741 88.9431 70.0801 89.3911C70.5001 89.8391 71.1721 90.0631 72.0961 90.0631C72.6701 90.0631 73.1811 89.9791 73.6291 89.8111C74.0911 89.6291 74.4411 89.4471 74.6791 89.2651L75.5821 91.0501ZM71.6761 83.3431C70.9621 83.3431 70.4301 83.5601 70.0801 83.9941C69.7441 84.4141 69.5411 84.9811 69.4711 85.6951H73.3771C73.4331 84.9391 73.3141 84.3581 73.0201 83.9521C72.7401 83.5461 72.2921 83.3431 71.6761 83.3431ZM83.6421 84.0151C83.2081 83.8611 82.8161 83.7841 82.4661 83.7841C81.9761 83.7841 81.5631 83.9171 81.2271 84.1831C80.9051 84.4351 80.6881 84.7641 80.5761 85.1701V91.9531H77.8461V81.4531H79.9671L80.2821 82.8391H80.3661C80.6041 82.3211 80.9261 81.9221 81.3321 81.6421C81.7381 81.3621 82.2141 81.2221 82.7601 81.2221C83.1241 81.2221 83.5371 81.2991 83.9991 81.4531L83.6421 84.0151Z" fill="white"/>
<path d="M817.994 46.6761C817.994 47.0401 817.945 47.4041 817.847 47.7681C817.763 48.1321 817.616 48.4681 817.406 48.7761C817.196 49.0701 816.923 49.3361 816.587 49.5741C816.251 49.7981 815.845 49.9661 815.369 50.0781V50.2041C815.789 50.2741 816.188 50.3931 816.566 50.5611C816.944 50.7291 817.273 50.9601 817.553 51.2541C817.833 51.5481 818.05 51.9051 818.204 52.3251C818.372 52.7451 818.456 53.2421 818.456 53.8161C818.456 54.5721 818.295 55.2301 817.973 55.7901C817.651 56.3361 817.217 56.7841 816.671 57.1341C816.139 57.4841 815.53 57.7431 814.844 57.9111C814.158 58.0791 813.451 58.1631 812.723 58.1631C812.485 58.1631 812.177 58.1631 811.799 58.1631C811.435 58.1631 811.036 58.1491 810.602 58.1211C810.182 58.1071 809.748 58.0791 809.3 58.0371C808.866 57.9951 808.467 57.9321 808.103 57.8481V43.3581C808.369 43.3161 808.67 43.2741 809.006 43.2321C809.356 43.1901 809.727 43.1551 810.119 43.1271C810.511 43.0991 810.91 43.0781 811.316 43.0641C811.736 43.0501 812.149 43.0431 812.555 43.0431C813.241 43.0431 813.906 43.0991 814.55 43.2111C815.208 43.3091 815.789 43.4911 816.293 43.7571C816.811 44.0231 817.224 44.3941 817.532 44.8701C817.84 45.3461 817.994 45.9481 817.994 46.6761ZM812.744 55.7901C813.094 55.7901 813.43 55.7481 813.752 55.6641C814.088 55.5801 814.382 55.4541 814.634 55.2861C814.886 55.1041 815.089 54.8801 815.243 54.6141C815.397 54.3481 815.474 54.0331 815.474 53.6691C815.474 53.2071 815.383 52.8431 815.201 52.5771C815.019 52.3111 814.781 52.1081 814.487 51.9681C814.193 51.8141 813.864 51.7161 813.5 51.6741C813.136 51.6321 812.772 51.6111 812.408 51.6111H810.875V55.6641C810.945 55.6921 811.057 55.7131 811.211 55.7271C811.365 55.7411 811.526 55.7551 811.694 55.7691C811.876 55.7691 812.058 55.7761 812.24 55.7901C812.436 55.7901 812.604 55.7901 812.744 55.7901ZM811.799 49.4271C811.995 49.4271 812.219 49.4201 812.471 49.4061C812.737 49.3921 812.954 49.3711 813.122 49.3431C813.654 49.1751 814.109 48.9231 814.487 48.5871C814.879 48.2511 815.075 47.8101 815.075 47.2641C815.075 46.9001 815.005 46.5991 814.865 46.3611C814.725 46.1231 814.536 45.9341 814.298 45.7941C814.074 45.6541 813.815 45.5561 813.521 45.5001C813.227 45.4441 812.919 45.4161 812.597 45.4161C812.233 45.4161 811.897 45.4231 811.589 45.4371C811.281 45.4511 811.043 45.4721 810.875 45.5001V49.4271H811.799ZM826.243 50.0151C825.809 49.8611 825.417 49.7841 825.067 49.7841C824.577 49.7841 824.164 49.9171 823.828 50.1831C823.506 50.4351 823.289 50.7641 823.177 51.1701V57.9531H820.447V47.4531H822.568L822.883 48.8391H822.967C823.205 48.3211 823.527 47.9221 823.933 47.6421C824.339 47.3621 824.815 47.2221 825.361 47.2221C825.725 47.2221 826.138 47.2991 826.6 47.4531L826.243 50.0151ZM827.746 48.0621C828.306 47.8101 828.971 47.6141 829.741 47.4741C830.511 47.3201 831.316 47.2431 832.156 47.2431C832.884 47.2431 833.493 47.3341 833.983 47.5161C834.473 47.6841 834.858 47.9291 835.138 48.2511C835.432 48.5731 835.635 48.9581 835.747 49.4061C835.873 49.8541 835.936 50.3581 835.936 50.9181C835.936 51.5341 835.915 52.1571 835.873 52.7871C835.831 53.4031 835.803 54.0121 835.789 54.6141C835.789 55.2161 835.81 55.8041 835.852 56.3781C835.894 56.9381 835.999 57.4701 836.167 57.9741H833.941L833.5 56.5251H833.395C833.115 56.9591 832.723 57.3371 832.219 57.6591C831.729 57.9671 831.092 58.1211 830.308 58.1211C829.818 58.1211 829.377 58.0511 828.985 57.9111C828.593 57.7571 828.257 57.5471 827.977 57.2811C827.697 57.0011 827.48 56.6791 827.326 56.3151C827.172 55.9371 827.095 55.5171 827.095 55.0551C827.095 54.4111 827.235 53.8721 827.515 53.4381C827.809 52.9901 828.222 52.6331 828.754 52.3671C829.3 52.0871 829.944 51.8981 830.686 51.8001C831.442 51.6881 832.282 51.6531 833.206 51.6951C833.304 50.9111 833.248 50.3511 833.038 50.0151C832.828 49.6651 832.359 49.4901 831.631 49.4901C831.085 49.4901 830.504 49.5461 829.888 49.6581C829.286 49.7701 828.789 49.9171 828.397 50.0991L827.746 48.0621ZM831.211 55.8741C831.757 55.8741 832.191 55.7551 832.513 55.5171C832.835 55.2651 833.073 54.9991 833.227 54.7191V53.3541C832.793 53.3121 832.373 53.3051 831.967 53.3331C831.575 53.3611 831.225 53.4241 830.917 53.5221C830.609 53.6201 830.364 53.7601 830.182 53.9421C830 54.1241 829.909 54.3551 829.909 54.6351C829.909 55.0271 830.021 55.3351 830.245 55.5591C830.483 55.7691 830.805 55.8741 831.211 55.8741ZM844.653 57.9531V51.9891C844.653 51.1351 844.527 50.5191 844.275 50.1411C844.037 49.7631 843.624 49.5741 843.036 49.5741C842.518 49.5741 842.077 49.7281 841.713 50.0361C841.363 50.3301 841.111 50.7011 840.957 51.1491V57.9531H838.227V47.4531H840.39L840.705 48.8391H840.789C841.111 48.3911 841.538 47.9991 842.07 47.6631C842.602 47.3271 843.288 47.1591 844.128 47.1591C844.646 47.1591 845.108 47.2291 845.514 47.3691C845.92 47.5091 846.263 47.7401 846.543 48.0621C846.823 48.3841 847.033 48.8251 847.173 49.3851C847.313 49.9311 847.383 50.6101 847.383 51.4221V57.9531H844.653ZM858.595 54.2571C858.595 54.8451 858.602 55.4331 858.616 56.0211C858.63 56.6091 858.693 57.2601 858.805 57.9741H856.852L856.474 56.6091H856.39C856.11 57.0991 855.704 57.4981 855.172 57.8061C854.654 58.1001 854.038 58.2471 853.324 58.2471C852.008 58.2471 850.986 57.8131 850.258 56.9451C849.53 56.0771 849.166 54.7191 849.166 52.8711C849.166 51.0791 849.572 49.6861 850.384 48.6921C851.196 47.6981 852.386 47.2011 853.954 47.2011C854.388 47.2011 854.745 47.2291 855.025 47.2851C855.305 47.3271 855.585 47.4041 855.865 47.5161V43.2531H858.595V54.2571ZM853.954 55.9371C854.486 55.9371 854.906 55.8111 855.214 55.5591C855.522 55.2931 855.739 54.9151 855.865 54.4251V49.9731C855.669 49.8191 855.452 49.7071 855.214 49.6371C854.976 49.5531 854.668 49.5111 854.29 49.5111C853.52 49.5111 852.939 49.7701 852.547 50.2881C852.169 50.8061 851.98 51.6951 851.98 52.9551C851.98 53.8511 852.134 54.5721 852.442 55.1181C852.764 55.6641 853.268 55.9371 853.954 55.9371ZM787.541 75.0621C788.101 74.8101 788.766 74.6141 789.536 74.4741C790.306 74.3201 791.111 74.2431 791.951 74.2431C792.679 74.2431 793.288 74.3341 793.778 74.5161C794.268 74.6841 794.653 74.9291 794.933 75.2511C795.227 75.5731 795.43 75.9581 795.542 76.4061C795.668 76.8541 795.731 77.3581 795.731 77.9181C795.731 78.5341 795.71 79.1571 795.668 79.7871C795.626 80.4031 795.598 81.0121 795.584 81.6141C795.584 82.2161 795.605 82.8041 795.647 83.3781C795.689 83.9381 795.794 84.4701 795.962 84.9741H793.736L793.295 83.5251H793.19C792.91 83.9591 792.518 84.3371 792.014 84.6591C791.524 84.9671 790.887 85.1211 790.103 85.1211C789.613 85.1211 789.172 85.0511 788.78 84.9111C788.388 84.7571 788.052 84.5471 787.772 84.2811C787.492 84.0011 787.275 83.6791 787.121 83.3151C786.967 82.9371 786.89 82.5171 786.89 82.0551C786.89 81.4111 787.03 80.8721 787.31 80.4381C787.604 79.9901 788.017 79.6331 788.549 79.3671C789.095 79.0871 789.739 78.8981 790.481 78.8001C791.237 78.6881 792.077 78.6531 793.001 78.6951C793.099 77.9111 793.043 77.3511 792.833 77.0151C792.623 76.6651 792.154 76.4901 791.426 76.4901C790.88 76.4901 790.299 76.5461 789.683 76.6581C789.081 76.7701 788.584 76.9171 788.192 77.0991L787.541 75.0621ZM791.006 82.8741C791.552 82.8741 791.986 82.7551 792.308 82.5171C792.63 82.2651 792.868 81.9991 793.022 81.7191V80.3541C792.588 80.3121 792.168 80.3051 791.762 80.3331C791.37 80.3611 791.02 80.4241 790.712 80.5221C790.404 80.6201 790.159 80.7601 789.977 80.9421C789.795 81.1241 789.704 81.3551 789.704 81.6351C789.704 82.0271 789.816 82.3351 790.04 82.5591C790.278 82.7691 790.6 82.8741 791.006 82.8741ZM805.624 74.4531L807.535 79.8291L807.913 81.5721H807.997L808.291 79.8081L809.635 74.4531H812.134L808.9 85.0581H806.884L804.763 79.1781L804.49 77.8551H804.385L804.133 79.1991L802.117 85.0581H800.038L796.657 74.4531H799.618L801.151 79.7241L801.403 81.5931H801.508L801.865 79.7031L803.608 74.4531H805.624ZM813.093 75.0621C813.653 74.8101 814.318 74.6141 815.088 74.4741C815.858 74.3201 816.663 74.2431 817.503 74.2431C818.231 74.2431 818.84 74.3341 819.33 74.5161C819.82 74.6841 820.205 74.9291 820.485 75.2511C820.779 75.5731 820.982 75.9581 821.094 76.4061C821.22 76.8541 821.283 77.3581 821.283 77.9181C821.283 78.5341 821.262 79.1571 821.22 79.7871C821.178 80.4031 821.15 81.0121 821.136 81.6141C821.136 82.2161 821.157 82.8041 821.199 83.3781C821.241 83.9381 821.346 84.4701 821.514 84.9741H819.288L818.847 83.5251H818.742C818.462 83.9591 818.07 84.3371 817.566 84.6591C817.076 84.9671 816.439 85.1211 815.655 85.1211C815.165 85.1211 814.724 85.0511 814.332 84.9111C813.94 84.7571 813.604 84.5471 813.324 84.2811C813.044 84.0011 812.827 83.6791 812.673 83.3151C812.519 82.9371 812.442 82.5171 812.442 82.0551C812.442 81.4111 812.582 80.8721 812.862 80.4381C813.156 79.9901 813.569 79.6331 814.101 79.3671C814.647 79.0871 815.291 78.8981 816.033 78.8001C816.789 78.6881 817.629 78.6531 818.553 78.6951C818.651 77.9111 818.595 77.3511 818.385 77.0151C818.175 76.6651 817.706 76.4901 816.978 76.4901C816.432 76.4901 815.851 76.5461 815.235 76.6581C814.633 76.7701 814.136 76.9171 813.744 77.0991L813.093 75.0621ZM816.558 82.8741C817.104 82.8741 817.538 82.7551 817.86 82.5171C818.182 82.2651 818.42 81.9991 818.574 81.7191V80.3541C818.14 80.3121 817.72 80.3051 817.314 80.3331C816.922 80.3611 816.572 80.4241 816.264 80.5221C815.956 80.6201 815.711 80.7601 815.529 80.9421C815.347 81.1241 815.256 81.3551 815.256 81.6351C815.256 82.0271 815.368 82.3351 815.592 82.5591C815.83 82.7691 816.152 82.8741 816.558 82.8741ZM829.37 77.0151C828.936 76.8611 828.544 76.7841 828.194 76.7841C827.704 76.7841 827.291 76.9171 826.955 77.1831C826.633 77.4351 826.416 77.7641 826.304 78.1701V84.9531H823.574V74.4531H825.695L826.01 75.8391H826.094C826.332 75.3211 826.654 74.9221 827.06 74.6421C827.466 74.3621 827.942 74.2221 828.488 74.2221C828.852 74.2221 829.265 74.2991 829.727 74.4531L829.37 77.0151ZM839.337 84.0501C838.917 84.3861 838.343 84.6731 837.615 84.9111C836.901 85.1351 836.138 85.2471 835.326 85.2471C833.632 85.2471 832.393 84.7571 831.609 83.7771C830.825 82.7831 830.433 81.4251 830.433 79.7031C830.433 77.8551 830.874 76.4691 831.756 75.5451C832.638 74.6211 833.877 74.1591 835.473 74.1591C836.005 74.1591 836.523 74.2291 837.027 74.3691C837.531 74.5091 837.979 74.7401 838.371 75.0621C838.763 75.3841 839.078 75.8181 839.316 76.3641C839.554 76.9101 839.673 77.5891 839.673 78.4011C839.673 78.6951 839.652 79.0101 839.61 79.3461C839.582 79.6821 839.533 80.0321 839.463 80.3961H833.163C833.205 81.2781 833.429 81.9431 833.835 82.3911C834.255 82.8391 834.927 83.0631 835.851 83.0631C836.425 83.0631 836.936 82.9791 837.384 82.8111C837.846 82.6291 838.196 82.4471 838.434 82.2651L839.337 84.0501ZM835.431 76.3431C834.717 76.3431 834.185 76.5601 833.835 76.9941C833.499 77.4141 833.296 77.9811 833.226 78.6951H837.132C837.188 77.9391 837.069 77.3581 836.775 76.9521C836.495 76.5461 836.047 76.3431 835.431 76.3431ZM848.027 84.9531V78.9891C848.027 78.1351 847.901 77.5191 847.649 77.1411C847.411 76.7631 846.998 76.5741 846.41 76.5741C845.892 76.5741 845.451 76.7281 845.087 77.0361C844.737 77.3301 844.485 77.7011 844.331 78.1491V84.9531H841.601V74.4531H843.764L844.079 75.8391H844.163C844.485 75.3911 844.912 74.9991 845.444 74.6631C845.976 74.3271 846.662 74.1591 847.502 74.1591C848.02 74.1591 848.482 74.2291 848.888 74.3691C849.294 74.5091 849.637 74.7401 849.917 75.0621C850.197 75.3841 850.407 75.8251 850.547 76.3851C850.687 76.9311 850.757 77.6101 850.757 78.4221V84.9531H848.027ZM861.444 84.0501C861.024 84.3861 860.45 84.6731 859.722 84.9111C859.008 85.1351 858.245 85.2471 857.433 85.2471C855.739 85.2471 854.5 84.7571 853.716 83.7771C852.932 82.7831 852.54 81.4251 852.54 79.7031C852.54 77.8551 852.981 76.4691 853.863 75.5451C854.745 74.6211 855.984 74.1591 857.58 74.1591C858.112 74.1591 858.63 74.2291 859.134 74.3691C859.638 74.5091 860.086 74.7401 860.478 75.0621C860.87 75.3841 861.185 75.8181 861.423 76.3641C861.661 76.9101 861.78 77.5891 861.78 78.4011C861.78 78.6951 861.759 79.0101 861.717 79.3461C861.689 79.6821 861.64 80.0321 861.57 80.3961H855.27C855.312 81.2781 855.536 81.9431 855.942 82.3911C856.362 82.8391 857.034 83.0631 857.958 83.0631C858.532 83.0631 859.043 82.9791 859.491 82.8111C859.953 82.6291 860.303 82.4471 860.541 82.2651L861.444 84.0501ZM857.538 76.3431C856.824 76.3431 856.292 76.5601 855.942 76.9941C855.606 77.4141 855.403 77.9811 855.333 78.6951H859.239C859.295 77.9391 859.176 77.3581 858.882 76.9521C858.602 76.5461 858.154 76.3431 857.538 76.3431ZM868.055 82.0551C868.055 81.7751 867.936 81.5511 867.698 81.3831C867.46 81.2151 867.166 81.0611 866.816 80.9211C866.466 80.7811 866.081 80.6411 865.661 80.5011C865.241 80.3471 864.856 80.1441 864.506 79.8921C864.156 79.6261 863.862 79.2971 863.624 78.9051C863.386 78.4991 863.267 77.9811 863.267 77.3511C863.267 76.3151 863.575 75.5241 864.191 74.9781C864.807 74.4321 865.696 74.1591 866.858 74.1591C867.656 74.1591 868.377 74.2431 869.021 74.4111C869.665 74.5791 870.169 74.7681 870.533 74.9781L869.924 76.9521C869.602 76.8261 869.196 76.6931 868.706 76.5531C868.216 76.4131 867.719 76.3431 867.215 76.3431C866.403 76.3431 865.997 76.6581 865.997 77.2881C865.997 77.5401 866.116 77.7431 866.354 77.8971C866.592 78.0511 866.886 78.1981 867.236 78.3381C867.586 78.4641 867.971 78.6041 868.391 78.7581C868.811 78.9121 869.196 79.1151 869.546 79.3671C869.896 79.6051 870.19 79.9201 870.428 80.3121C870.666 80.7041 870.785 81.2081 870.785 81.8241C870.785 82.8881 870.442 83.7281 869.756 84.3441C869.084 84.9461 868.069 85.2471 866.711 85.2471C865.969 85.2471 865.269 85.1491 864.611 84.9531C863.967 84.7711 863.442 84.5541 863.036 84.3021L863.792 82.2651C864.114 82.4471 864.541 82.6291 865.073 82.8111C865.605 82.9791 866.151 83.0631 866.711 83.0631C867.117 83.0631 867.439 82.9861 867.677 82.8321C867.929 82.6781 868.055 82.4191 868.055 82.0551ZM876.914 82.0551C876.914 81.7751 876.795 81.5511 876.557 81.3831C876.319 81.2151 876.025 81.0611 875.675 80.9211C875.325 80.7811 874.94 80.6411 874.52 80.5011C874.1 80.3471 873.715 80.1441 873.365 79.8921C873.015 79.6261 872.721 79.2971 872.483 78.9051C872.245 78.4991 872.126 77.9811 872.126 77.3511C872.126 76.3151 872.434 75.5241 873.05 74.9781C873.666 74.4321 874.555 74.1591 875.717 74.1591C876.515 74.1591 877.236 74.2431 877.88 74.4111C878.524 74.5791 879.028 74.7681 879.392 74.9781L878.783 76.9521C878.461 76.8261 878.055 76.6931 877.565 76.5531C877.075 76.4131 876.578 76.3431 876.074 76.3431C875.262 76.3431 874.856 76.6581 874.856 77.2881C874.856 77.5401 874.975 77.7431 875.213 77.8971C875.451 78.0511 875.745 78.1981 876.095 78.3381C876.445 78.4641 876.83 78.6041 877.25 78.7581C877.67 78.9121 878.055 79.1151 878.405 79.3671C878.755 79.6051 879.049 79.9201 879.287 80.3121C879.525 80.7041 879.644 81.2081 879.644 81.8241C879.644 82.8881 879.301 83.7281 878.615 84.3441C877.943 84.9461 876.928 85.2471 875.57 85.2471C874.828 85.2471 874.128 85.1491 873.47 84.9531C872.826 84.7711 872.301 84.5541 871.895 84.3021L872.651 82.2651C872.973 82.4471 873.4 82.6291 873.932 82.8111C874.464 82.9791 875.01 83.0631 875.57 83.0631C875.976 83.0631 876.298 82.9861 876.536 82.8321C876.788 82.6781 876.914 82.4191 876.914 82.0551Z" fill="white"/>
<path d="M962.365 51.7242C962.365 49.2742 962.904 47.3912 963.982 46.0752C965.06 44.7452 966.6 44.0802 968.602 44.0802C969.652 44.0802 970.569 44.2622 971.353 44.6262C972.137 44.9902 972.788 45.5082 973.306 46.1802C973.824 46.8522 974.209 47.6572 974.461 48.5952C974.713 49.5332 974.839 50.5762 974.839 51.7242C974.839 54.1742 974.293 56.0642 973.201 57.3942C972.123 58.7102 970.59 59.3682 968.602 59.3682C967.538 59.3682 966.614 59.1862 965.83 58.8222C965.046 58.4582 964.395 57.9402 963.877 57.2682C963.373 56.5962 962.995 55.7912 962.743 54.8532C962.491 53.9152 962.365 52.8722 962.365 51.7242ZM965.389 51.7242C965.389 52.4662 965.452 53.1522 965.578 53.7822C965.704 54.3982 965.893 54.9302 966.145 55.3782C966.411 55.8262 966.747 56.1762 967.153 56.4282C967.559 56.6802 968.042 56.8062 968.602 56.8062C969.624 56.8062 970.415 56.4072 970.975 55.6092C971.535 54.8112 971.815 53.5162 971.815 51.7242C971.815 51.0102 971.752 50.3452 971.626 49.7292C971.514 49.1132 971.332 48.5742 971.08 48.1122C970.828 47.6502 970.499 47.2932 970.093 47.0412C969.687 46.7752 969.19 46.6422 968.602 46.6422C967.58 46.6422 966.789 47.0552 966.229 47.8812C965.669 48.6932 965.389 49.9742 965.389 51.7242ZM975.74 48.5742H977.189V46.6002L979.919 45.8232V48.5742H982.481V50.8842H979.919V54.9162C979.919 55.6442 979.989 56.1692 980.129 56.4912C980.283 56.7992 980.563 56.9532 980.969 56.9532C981.249 56.9532 981.487 56.9252 981.683 56.8692C981.893 56.8132 982.124 56.7292 982.376 56.6172L982.859 58.7172C982.481 58.8992 982.04 59.0532 981.536 59.1792C981.032 59.3052 980.521 59.3682 980.003 59.3682C979.037 59.3682 978.323 59.1232 977.861 58.6332C977.413 58.1292 977.189 57.3102 977.189 56.1762V50.8842H975.74V48.5742ZM990.58 59.0742V53.1102C990.58 52.2562 990.461 51.6402 990.223 51.2622C989.985 50.8842 989.551 50.6952 988.921 50.6952C988.459 50.6952 988.032 50.8562 987.64 51.1782C987.262 51.4862 987.01 51.8852 986.884 52.3752V59.0742H984.154V44.3742H986.884V49.7502H986.968C987.304 49.3022 987.717 48.9452 988.207 48.6792C988.697 48.4132 989.32 48.2802 990.076 48.2802C990.608 48.2802 991.077 48.3502 991.483 48.4902C991.889 48.6302 992.225 48.8612 992.491 49.1832C992.771 49.5052 992.974 49.9462 993.1 50.5062C993.24 51.0522 993.31 51.7312 993.31 52.5432V59.0742H990.58ZM1004 58.1712C1003.58 58.5072 1003 58.7942 1002.28 59.0322C1001.56 59.2562 1000.8 59.3682 999.986 59.3682C998.292 59.3682 997.053 58.8782 996.269 57.8982C995.485 56.9042 995.093 55.5462 995.093 53.8242C995.093 51.9762 995.534 50.5902 996.416 49.6662C997.298 48.7422 998.537 48.2802 1000.13 48.2802C1000.67 48.2802 1001.18 48.3502 1001.69 48.4902C1002.19 48.6302 1002.64 48.8612 1003.03 49.1832C1003.42 49.5052 1003.74 49.9392 1003.98 50.4852C1004.21 51.0312 1004.33 51.7102 1004.33 52.5222C1004.33 52.8162 1004.31 53.1312 1004.27 53.4672C1004.24 53.8032 1004.19 54.1532 1004.12 54.5172H997.823C997.865 55.3992 998.089 56.0642 998.495 56.5122C998.915 56.9602 999.587 57.1842 1000.51 57.1842C1001.09 57.1842 1001.6 57.1002 1002.04 56.9322C1002.51 56.7502 1002.86 56.5682 1003.09 56.3862L1004 58.1712ZM1000.09 50.4642C999.377 50.4642 998.845 50.6812 998.495 51.1152C998.159 51.5352 997.956 52.1022 997.886 52.8162H1001.79C1001.85 52.0602 1001.73 51.4792 1001.44 51.0732C1001.16 50.6672 1000.71 50.4642 1000.09 50.4642ZM1012.06 51.1362C1011.62 50.9822 1011.23 50.9052 1010.88 50.9052C1010.39 50.9052 1009.98 51.0382 1009.64 51.3042C1009.32 51.5562 1009.1 51.8852 1008.99 52.2912V59.0742H1006.26V48.5742H1008.38L1008.7 49.9602H1008.78C1009.02 49.4422 1009.34 49.0432 1009.75 48.7632C1010.15 48.4832 1010.63 48.3432 1011.18 48.3432C1011.54 48.3432 1011.95 48.4202 1012.41 48.5742L1012.06 51.1362ZM949.26 75.5742H951.255L951.57 76.8342H951.654C952.018 76.3022 952.445 75.9102 952.935 75.6582C953.439 75.4062 954.048 75.2802 954.762 75.2802C956.078 75.2802 957.065 75.7002 957.723 76.5402C958.381 77.3662 958.71 78.7032 958.71 80.5512C958.71 81.4472 958.605 82.2592 958.395 82.9872C958.185 83.7012 957.87 84.3102 957.45 84.8142C957.044 85.3182 956.54 85.7032 955.938 85.9692C955.35 86.2352 954.671 86.3682 953.901 86.3682C953.467 86.3682 953.11 86.3332 952.83 86.2632C952.55 86.2072 952.27 86.1092 951.99 85.9692V90.2742H949.26V75.5742ZM953.943 77.5902C953.411 77.5902 952.991 77.7232 952.683 77.9892C952.389 78.2552 952.158 78.6542 951.99 79.1862V83.5542C952.186 83.7082 952.396 83.8342 952.62 83.9322C952.858 84.0162 953.166 84.0582 953.544 84.0582C954.328 84.0582 954.916 83.7852 955.308 83.2392C955.7 82.6792 955.896 81.7622 955.896 80.4882C955.896 79.5642 955.742 78.8502 955.434 78.3462C955.126 77.8422 954.629 77.5902 953.943 77.5902ZM966.396 78.1362C965.962 77.9822 965.57 77.9052 965.22 77.9052C964.73 77.9052 964.317 78.0382 963.981 78.3042C963.659 78.5562 963.442 78.8852 963.33 79.2912V86.0742H960.6V75.5742H962.721L963.036 76.9602H963.12C963.358 76.4422 963.68 76.0432 964.086 75.7632C964.492 75.4832 964.968 75.3432 965.514 75.3432C965.878 75.3432 966.291 75.4202 966.753 75.5742L966.396 78.1362ZM967.459 80.8242C967.459 79.0462 967.893 77.6812 968.761 76.7292C969.629 75.7632 970.847 75.2802 972.415 75.2802C973.255 75.2802 973.983 75.4132 974.599 75.6792C975.215 75.9452 975.726 76.3232 976.132 76.8132C976.538 77.2892 976.839 77.8702 977.035 78.5562C977.245 79.2422 977.35 79.9982 977.35 80.8242C977.35 82.6022 976.916 83.9742 976.048 84.9402C975.194 85.8922 973.983 86.3682 972.415 86.3682C971.575 86.3682 970.847 86.2352 970.231 85.9692C969.615 85.7032 969.097 85.3322 968.677 84.8562C968.271 84.3662 967.963 83.7782 967.753 83.0922C967.557 82.4062 967.459 81.6502 967.459 80.8242ZM970.273 80.8242C970.273 81.2862 970.315 81.7132 970.399 82.1052C970.483 82.4972 970.609 82.8402 970.777 83.1342C970.945 83.4282 971.162 83.6592 971.428 83.8272C971.708 83.9812 972.037 84.0582 972.415 84.0582C973.129 84.0582 973.661 83.7992 974.011 83.2812C974.361 82.7632 974.536 81.9442 974.536 80.8242C974.536 79.8582 974.375 79.0812 974.053 78.4932C973.731 77.8912 973.185 77.5902 972.415 77.5902C971.743 77.5902 971.218 77.8422 970.84 78.3462C970.462 78.8502 970.273 79.6762 970.273 80.8242ZM988.167 82.3782C988.167 82.9662 988.174 83.5542 988.188 84.1422C988.202 84.7302 988.265 85.3812 988.377 86.0952H986.424L986.046 84.7302H985.962C985.682 85.2202 985.276 85.6192 984.744 85.9272C984.226 86.2212 983.61 86.3682 982.896 86.3682C981.58 86.3682 980.558 85.9342 979.83 85.0662C979.102 84.1982 978.738 82.8402 978.738 80.9922C978.738 79.2002 979.144 77.8072 979.956 76.8132C980.768 75.8192 981.958 75.3222 983.526 75.3222C983.96 75.3222 984.317 75.3502 984.597 75.4062C984.877 75.4482 985.157 75.5252 985.437 75.6372V71.3742H988.167V82.3782ZM983.526 84.0582C984.058 84.0582 984.478 83.9322 984.786 83.6802C985.094 83.4142 985.311 83.0362 985.437 82.5462V78.0942C985.241 77.9402 985.024 77.8282 984.786 77.7582C984.548 77.6742 984.24 77.6322 983.862 77.6322C983.092 77.6322 982.511 77.8912 982.119 78.4092C981.741 78.9272 981.552 79.8162 981.552 81.0762C981.552 81.9722 981.706 82.6932 982.014 83.2392C982.336 83.7852 982.84 84.0582 983.526 84.0582ZM993.187 75.5742V81.5382C993.187 82.3922 993.285 83.0082 993.481 83.3862C993.691 83.7642 994.09 83.9532 994.678 83.9532C995.196 83.9532 995.623 83.7992 995.959 83.4912C996.309 83.1832 996.568 82.8052 996.736 82.3572V75.5742H999.466V82.8822C999.466 83.4562 999.494 84.0232 999.55 84.5832C999.606 85.1292 999.69 85.6262 999.802 86.0742H997.744L997.261 84.5202H997.177C996.855 85.0522 996.407 85.4932 995.833 85.8432C995.259 86.1932 994.58 86.3682 993.796 86.3682C993.264 86.3682 992.788 86.2982 992.368 86.1582C991.948 86.0182 991.598 85.7872 991.318 85.4652C991.038 85.1432 990.821 84.7092 990.667 84.1632C990.527 83.6172 990.457 82.9312 990.457 82.1052V75.5742H993.187ZM1009.3 85.4232C1008.88 85.7312 1008.37 85.9622 1007.76 86.1162C1007.18 86.2842 1006.57 86.3682 1005.94 86.3682C1005.1 86.3682 1004.38 86.2352 1003.79 85.9692C1003.22 85.7032 1002.75 85.3322 1002.39 84.8562C1002.02 84.3662 1001.76 83.7782 1001.59 83.0922C1001.44 82.4062 1001.36 81.6502 1001.36 80.8242C1001.36 79.0462 1001.76 77.6812 1002.56 76.7292C1003.35 75.7632 1004.52 75.2802 1006.04 75.2802C1006.81 75.2802 1007.43 75.3432 1007.89 75.4692C1008.37 75.5952 1008.79 75.7562 1009.17 75.9522L1008.52 78.1782C1008.2 78.0242 1007.88 77.9052 1007.55 77.8212C1007.25 77.7372 1006.89 77.6952 1006.48 77.6952C1005.73 77.6952 1005.15 77.9472 1004.76 78.4512C1004.37 78.9412 1004.17 79.7322 1004.17 80.8242C1004.17 81.2722 1004.22 81.6852 1004.32 82.0632C1004.42 82.4412 1004.56 82.7702 1004.76 83.0502C1004.96 83.3302 1005.21 83.5542 1005.52 83.7222C1005.84 83.8762 1006.21 83.9532 1006.63 83.9532C1007.09 83.9532 1007.48 83.8972 1007.81 83.7852C1008.13 83.6592 1008.41 83.5122 1008.67 83.3442L1009.3 85.4232ZM1009.86 75.5742H1011.3V73.6002L1014.03 72.8232V75.5742H1016.6V77.8842H1014.03V81.9162C1014.03 82.6442 1014.1 83.1692 1014.24 83.4912C1014.4 83.7992 1014.68 83.9532 1015.08 83.9532C1015.36 83.9532 1015.6 83.9252 1015.8 83.8692C1016.01 83.8132 1016.24 83.7292 1016.49 83.6172L1016.97 85.7172C1016.6 85.8992 1016.16 86.0532 1015.65 86.1792C1015.15 86.3052 1014.64 86.3682 1014.12 86.3682C1013.15 86.3682 1012.44 86.1232 1011.98 85.6332C1011.53 85.1292 1011.3 84.3102 1011.3 83.1762V77.8842H1009.86V75.5742ZM1022.62 83.1762C1022.62 82.8962 1022.5 82.6722 1022.26 82.5042C1022.02 82.3362 1021.73 82.1822 1021.38 82.0422C1021.03 81.9022 1020.64 81.7622 1020.22 81.6222C1019.8 81.4682 1019.42 81.2652 1019.07 81.0132C1018.72 80.7472 1018.42 80.4182 1018.18 80.0262C1017.95 79.6202 1017.83 79.1022 1017.83 78.4722C1017.83 77.4362 1018.14 76.6452 1018.75 76.0992C1019.37 75.5532 1020.26 75.2802 1021.42 75.2802C1022.22 75.2802 1022.94 75.3642 1023.58 75.5322C1024.23 75.7002 1024.73 75.8892 1025.09 76.0992L1024.48 78.0732C1024.16 77.9472 1023.76 77.8142 1023.27 77.6742C1022.78 77.5342 1022.28 77.4642 1021.78 77.4642C1020.96 77.4642 1020.56 77.7792 1020.56 78.4092C1020.56 78.6612 1020.68 78.8642 1020.91 79.0182C1021.15 79.1722 1021.45 79.3192 1021.8 79.4592C1022.15 79.5852 1022.53 79.7252 1022.95 79.8792C1023.37 80.0332 1023.76 80.2362 1024.11 80.4882C1024.46 80.7262 1024.75 81.0412 1024.99 81.4332C1025.23 81.8252 1025.35 82.3292 1025.35 82.9452C1025.35 84.0092 1025 84.8492 1024.32 85.4652C1023.64 86.0672 1022.63 86.3682 1021.27 86.3682C1020.53 86.3682 1019.83 86.2702 1019.17 86.0742C1018.53 85.8922 1018 85.6752 1017.6 85.4232L1018.35 83.3862C1018.67 83.5682 1019.1 83.7502 1019.63 83.9322C1020.17 84.1002 1020.71 84.1842 1021.27 84.1842C1021.68 84.1842 1022 84.1072 1022.24 83.9532C1022.49 83.7992 1022.62 83.5402 1022.62 83.1762Z" fill="white"/>
<path d="M661.446 49.279C662.034 49.167 662.678 49.083 663.378 49.027C664.092 48.957 664.799 48.922 665.499 48.922C666.227 48.922 666.955 48.985 667.683 49.111C668.425 49.223 669.09 49.461 669.678 49.825C670.266 50.175 670.742 50.672 671.106 51.316C671.484 51.946 671.673 52.772 671.673 53.794C671.673 54.718 671.512 55.502 671.19 56.146C670.868 56.776 670.441 57.294 669.909 57.7C669.377 58.106 668.768 58.4 668.082 58.582C667.41 58.764 666.71 58.855 665.982 58.855C665.912 58.855 665.8 58.855 665.646 58.855C665.492 58.855 665.331 58.855 665.163 58.855C664.995 58.841 664.827 58.827 664.659 58.813C664.505 58.799 664.393 58.785 664.323 58.771V63.832H661.446V49.279ZM665.73 51.4C665.45 51.4 665.184 51.414 664.932 51.442C664.68 51.456 664.477 51.477 664.323 51.505V56.272C664.379 56.286 664.463 56.3 664.575 56.314C664.687 56.328 664.806 56.342 664.932 56.356C665.058 56.356 665.177 56.356 665.289 56.356C665.415 56.356 665.506 56.356 665.562 56.356C665.94 56.356 666.311 56.321 666.675 56.251C667.053 56.181 667.389 56.055 667.683 55.873C667.977 55.677 668.208 55.411 668.376 55.075C668.558 54.739 668.649 54.298 668.649 53.752C668.649 53.29 668.565 52.912 668.397 52.618C668.229 52.31 668.005 52.065 667.725 51.883C667.459 51.701 667.151 51.575 666.801 51.505C666.451 51.435 666.094 51.4 665.73 51.4ZM672.722 53.941C673.282 53.689 673.947 53.493 674.717 53.353C675.487 53.199 676.292 53.122 677.132 53.122C677.86 53.122 678.469 53.213 678.959 53.395C679.449 53.563 679.834 53.808 680.114 54.13C680.408 54.452 680.611 54.837 680.723 55.285C680.849 55.733 680.912 56.237 680.912 56.797C680.912 57.413 680.891 58.036 680.849 58.666C680.807 59.282 680.779 59.891 680.765 60.493C680.765 61.095 680.786 61.683 680.828 62.257C680.87 62.817 680.975 63.349 681.143 63.853H678.917L678.476 62.404H678.371C678.091 62.838 677.699 63.216 677.195 63.538C676.705 63.846 676.068 64 675.284 64C674.794 64 674.353 63.93 673.961 63.79C673.569 63.636 673.233 63.426 672.953 63.16C672.673 62.88 672.456 62.558 672.302 62.194C672.148 61.816 672.071 61.396 672.071 60.934C672.071 60.29 672.211 59.751 672.491 59.317C672.785 58.869 673.198 58.512 673.73 58.246C674.276 57.966 674.92 57.777 675.662 57.679C676.418 57.567 677.258 57.532 678.182 57.574C678.28 56.79 678.224 56.23 678.014 55.894C677.804 55.544 677.335 55.369 676.607 55.369C676.061 55.369 675.48 55.425 674.864 55.537C674.262 55.649 673.765 55.796 673.373 55.978L672.722 53.941ZM676.187 61.753C676.733 61.753 677.167 61.634 677.489 61.396C677.811 61.144 678.049 60.878 678.203 60.598V59.233C677.769 59.191 677.349 59.184 676.943 59.212C676.551 59.24 676.201 59.303 675.893 59.401C675.585 59.499 675.34 59.639 675.158 59.821C674.976 60.003 674.885 60.234 674.885 60.514C674.885 60.906 674.997 61.214 675.221 61.438C675.459 61.648 675.781 61.753 676.187 61.753ZM683.455 53.332H686.185V63.832H683.455V53.332ZM683.056 50.371C683.056 49.965 683.203 49.622 683.497 49.342C683.805 49.048 684.225 48.901 684.757 48.901C685.289 48.901 685.716 49.048 686.038 49.342C686.374 49.622 686.542 49.965 686.542 50.371C686.542 50.777 686.374 51.12 686.038 51.4C685.716 51.666 685.289 51.799 684.757 51.799C684.225 51.799 683.805 51.666 683.497 51.4C683.203 51.12 683.056 50.777 683.056 50.371ZM695.269 63.832V57.868C695.269 57.014 695.143 56.398 694.891 56.02C694.653 55.642 694.24 55.453 693.652 55.453C693.134 55.453 692.693 55.607 692.329 55.915C691.979 56.209 691.727 56.58 691.573 57.028V63.832H688.843V53.332H691.006L691.321 54.718H691.405C691.727 54.27 692.154 53.878 692.686 53.542C693.218 53.206 693.904 53.038 694.744 53.038C695.262 53.038 695.724 53.108 696.13 53.248C696.536 53.388 696.879 53.619 697.159 53.941C697.439 54.263 697.649 54.704 697.789 55.264C697.929 55.81 697.999 56.489 697.999 57.301V63.832H695.269ZM652.893 80.332H654.888L655.203 81.592H655.287C655.651 81.06 656.078 80.668 656.568 80.416C657.072 80.164 657.681 80.038 658.395 80.038C659.711 80.038 660.698 80.458 661.356 81.298C662.014 82.124 662.343 83.461 662.343 85.309C662.343 86.205 662.238 87.017 662.028 87.745C661.818 88.459 661.503 89.068 661.083 89.572C660.677 90.076 660.173 90.461 659.571 90.727C658.983 90.993 658.304 91.126 657.534 91.126C657.1 91.126 656.743 91.091 656.463 91.021C656.183 90.965 655.903 90.867 655.623 90.727V95.032H652.893V80.332ZM657.576 82.348C657.044 82.348 656.624 82.481 656.316 82.747C656.022 83.013 655.791 83.412 655.623 83.944V88.312C655.819 88.466 656.029 88.592 656.253 88.69C656.491 88.774 656.799 88.816 657.177 88.816C657.961 88.816 658.549 88.543 658.941 87.997C659.333 87.437 659.529 86.52 659.529 85.246C659.529 84.322 659.375 83.608 659.067 83.104C658.759 82.6 658.262 82.348 657.576 82.348ZM663.729 85.582C663.729 83.804 664.163 82.439 665.031 81.487C665.899 80.521 667.117 80.038 668.685 80.038C669.525 80.038 670.253 80.171 670.869 80.437C671.485 80.703 671.996 81.081 672.402 81.571C672.808 82.047 673.109 82.628 673.305 83.314C673.515 84 673.62 84.756 673.62 85.582C673.62 87.36 673.186 88.732 672.318 89.698C671.464 90.65 670.253 91.126 668.685 91.126C667.845 91.126 667.117 90.993 666.501 90.727C665.885 90.461 665.367 90.09 664.947 89.614C664.541 89.124 664.233 88.536 664.023 87.85C663.827 87.164 663.729 86.408 663.729 85.582ZM666.543 85.582C666.543 86.044 666.585 86.471 666.669 86.863C666.753 87.255 666.879 87.598 667.047 87.892C667.215 88.186 667.432 88.417 667.698 88.585C667.978 88.739 668.307 88.816 668.685 88.816C669.399 88.816 669.931 88.557 670.281 88.039C670.631 87.521 670.806 86.702 670.806 85.582C670.806 84.616 670.645 83.839 670.323 83.251C670.001 82.649 669.455 82.348 668.685 82.348C668.013 82.348 667.488 82.6 667.11 83.104C666.732 83.608 666.543 84.434 666.543 85.582ZM675.765 80.332H678.495V90.832H675.765V80.332ZM675.366 77.371C675.366 76.965 675.513 76.622 675.807 76.342C676.115 76.048 676.535 75.901 677.067 75.901C677.599 75.901 678.026 76.048 678.348 76.342C678.684 76.622 678.852 76.965 678.852 77.371C678.852 77.777 678.684 78.12 678.348 78.4C678.026 78.666 677.599 78.799 677.067 78.799C676.535 78.799 676.115 78.666 675.807 78.4C675.513 78.12 675.366 77.777 675.366 77.371ZM687.578 90.832V84.868C687.578 84.014 687.452 83.398 687.2 83.02C686.962 82.642 686.549 82.453 685.961 82.453C685.443 82.453 685.002 82.607 684.638 82.915C684.288 83.209 684.036 83.58 683.882 84.028V90.832H681.152V80.332H683.315L683.63 81.718H683.714C684.036 81.27 684.463 80.878 684.995 80.542C685.527 80.206 686.213 80.038 687.053 80.038C687.571 80.038 688.033 80.108 688.439 80.248C688.845 80.388 689.188 80.619 689.468 80.941C689.748 81.263 689.958 81.704 690.098 82.264C690.238 82.81 690.308 83.489 690.308 84.301V90.832H687.578ZM691.504 80.332H692.953V78.358L695.683 77.581V80.332H698.245V82.642H695.683V86.674C695.683 87.402 695.753 87.927 695.893 88.249C696.047 88.557 696.327 88.711 696.733 88.711C697.013 88.711 697.251 88.683 697.447 88.627C697.657 88.571 697.888 88.487 698.14 88.375L698.623 90.475C698.245 90.657 697.804 90.811 697.3 90.937C696.796 91.063 696.285 91.126 695.767 91.126C694.801 91.126 694.087 90.881 693.625 90.391C693.177 89.887 692.953 89.068 692.953 87.934V82.642H691.504V80.332ZM704.264 87.934C704.264 87.654 704.145 87.43 703.907 87.262C703.669 87.094 703.375 86.94 703.025 86.8C702.675 86.66 702.29 86.52 701.87 86.38C701.45 86.226 701.065 86.023 700.715 85.771C700.365 85.505 700.071 85.176 699.833 84.784C699.595 84.378 699.476 83.86 699.476 83.23C699.476 82.194 699.784 81.403 700.4 80.857C701.016 80.311 701.905 80.038 703.067 80.038C703.865 80.038 704.586 80.122 705.23 80.29C705.874 80.458 706.378 80.647 706.742 80.857L706.133 82.831C705.811 82.705 705.405 82.572 704.915 82.432C704.425 82.292 703.928 82.222 703.424 82.222C702.612 82.222 702.206 82.537 702.206 83.167C702.206 83.419 702.325 83.622 702.563 83.776C702.801 83.93 703.095 84.077 703.445 84.217C703.795 84.343 704.18 84.483 704.6 84.637C705.02 84.791 705.405 84.994 705.755 85.246C706.105 85.484 706.399 85.799 706.637 86.191C706.875 86.583 706.994 87.087 706.994 87.703C706.994 88.767 706.651 89.607 705.965 90.223C705.293 90.825 704.278 91.126 702.92 91.126C702.178 91.126 701.478 91.028 700.82 90.832C700.176 90.65 699.651 90.433 699.245 90.181L700.001 88.144C700.323 88.326 700.75 88.508 701.282 88.69C701.814 88.858 702.36 88.942 702.92 88.942C703.326 88.942 703.648 88.865 703.886 88.711C704.138 88.557 704.264 88.298 704.264 87.934Z" fill="white"/>
<path d="M496.487 43.2531C496.781 43.2111 497.11 43.1761 497.474 43.1481C497.852 43.1201 498.237 43.0991 498.629 43.0851C499.021 43.0711 499.399 43.0641 499.763 43.0641C500.141 43.0501 500.477 43.0431 500.771 43.0431C502.073 43.0431 503.186 43.2251 504.11 43.5891C505.034 43.9531 505.783 44.4641 506.357 45.1221C506.931 45.7801 507.351 46.5641 507.617 47.4741C507.883 48.3841 508.016 49.3851 508.016 50.4771C508.016 51.4711 507.89 52.4301 507.638 53.3541C507.386 54.2781 506.966 55.0971 506.378 55.8111C505.79 56.5251 505.013 57.0991 504.047 57.5331C503.095 57.9671 501.912 58.1841 500.498 58.1841C500.274 58.1841 499.973 58.1771 499.595 58.1631C499.231 58.1491 498.846 58.1281 498.44 58.1001C498.048 58.0861 497.67 58.0651 497.306 58.0371C496.942 58.0231 496.669 58.0021 496.487 57.9741V43.2531ZM501.002 45.6051C500.694 45.6051 500.379 45.6121 500.057 45.6261C499.749 45.6401 499.518 45.6611 499.364 45.6891V55.5381C499.42 55.5521 499.511 55.5661 499.637 55.5801C499.777 55.5801 499.924 55.5871 500.078 55.6011C500.232 55.6011 500.379 55.6081 500.519 55.6221C500.659 55.6221 500.764 55.6221 500.834 55.6221C501.646 55.6221 502.318 55.4821 502.85 55.2021C503.396 54.9081 503.823 54.5231 504.131 54.0471C504.453 53.5711 504.677 53.0251 504.803 52.4091C504.929 51.7791 504.992 51.1351 504.992 50.4771C504.992 49.9031 504.936 49.3291 504.824 48.7551C504.712 48.1671 504.502 47.6421 504.194 47.1801C503.9 46.7181 503.494 46.3401 502.976 46.0461C502.458 45.7521 501.8 45.6051 501.002 45.6051ZM518.42 57.0501C518 57.3861 517.426 57.6731 516.698 57.9111C515.984 58.1351 515.221 58.2471 514.409 58.2471C512.715 58.2471 511.476 57.7571 510.692 56.7771C509.908 55.7831 509.516 54.4251 509.516 52.7031C509.516 50.8551 509.957 49.4691 510.839 48.5451C511.721 47.6211 512.96 47.1591 514.556 47.1591C515.088 47.1591 515.606 47.2291 516.11 47.3691C516.614 47.5091 517.062 47.7401 517.454 48.0621C517.846 48.3841 518.161 48.8181 518.399 49.3641C518.637 49.9101 518.756 50.5891 518.756 51.4011C518.756 51.6951 518.735 52.0101 518.693 52.3461C518.665 52.6821 518.616 53.0321 518.546 53.3961H512.246C512.288 54.2781 512.512 54.9431 512.918 55.3911C513.338 55.8391 514.01 56.0631 514.934 56.0631C515.508 56.0631 516.019 55.9791 516.467 55.8111C516.929 55.6291 517.279 55.4471 517.517 55.2651L518.42 57.0501ZM514.514 49.3431C513.8 49.3431 513.268 49.5601 512.918 49.9941C512.582 50.4141 512.379 50.9811 512.309 51.6951H516.215C516.271 50.9391 516.152 50.3581 515.858 49.9521C515.578 49.5461 515.13 49.3431 514.514 49.3431ZM525.032 55.0551C525.032 54.7751 524.913 54.5511 524.675 54.3831C524.437 54.2151 524.143 54.0611 523.793 53.9211C523.443 53.7811 523.058 53.6411 522.638 53.5011C522.218 53.3471 521.833 53.1441 521.483 52.8921C521.133 52.6261 520.839 52.2971 520.601 51.9051C520.363 51.4991 520.244 50.9811 520.244 50.3511C520.244 49.3151 520.552 48.5241 521.168 47.9781C521.784 47.4321 522.673 47.1591 523.835 47.1591C524.633 47.1591 525.354 47.2431 525.998 47.4111C526.642 47.5791 527.146 47.7681 527.51 47.9781L526.901 49.9521C526.579 49.8261 526.173 49.6931 525.683 49.5531C525.193 49.4131 524.696 49.3431 524.192 49.3431C523.38 49.3431 522.974 49.6581 522.974 50.2881C522.974 50.5401 523.093 50.7431 523.331 50.8971C523.569 51.0511 523.863 51.1981 524.213 51.3381C524.563 51.4641 524.948 51.6041 525.368 51.7581C525.788 51.9121 526.173 52.1151 526.523 52.3671C526.873 52.6051 527.167 52.9201 527.405 53.3121C527.643 53.7041 527.762 54.2081 527.762 54.8241C527.762 55.8881 527.419 56.7281 526.733 57.3441C526.061 57.9461 525.046 58.2471 523.688 58.2471C522.946 58.2471 522.246 58.1491 521.588 57.9531C520.944 57.7711 520.419 57.5541 520.013 57.3021L520.769 55.2651C521.091 55.4471 521.518 55.6291 522.05 55.8111C522.582 55.9791 523.128 56.0631 523.688 56.0631C524.094 56.0631 524.416 55.9861 524.654 55.8321C524.906 55.6781 525.032 55.4191 525.032 55.0551ZM529.796 47.4531H532.526V57.9531H529.796V47.4531ZM529.397 44.4921C529.397 44.0861 529.544 43.7431 529.838 43.4631C530.146 43.1691 530.566 43.0221 531.098 43.0221C531.63 43.0221 532.057 43.1691 532.379 43.4631C532.715 43.7431 532.883 44.0861 532.883 44.4921C532.883 44.8981 532.715 45.2411 532.379 45.5211C532.057 45.7871 531.63 45.9201 531.098 45.9201C530.566 45.9201 530.146 45.7871 529.838 45.5211C529.544 45.2411 529.397 44.8981 529.397 44.4921ZM544.067 57.9531C544.067 59.4791 543.654 60.5991 542.828 61.3131C542.002 62.0411 540.847 62.4051 539.363 62.4051C538.355 62.4051 537.557 62.3351 536.969 62.1951C536.395 62.0551 535.961 61.9081 535.667 61.7541L536.234 59.5911C536.556 59.7171 536.927 59.8431 537.347 59.9691C537.781 60.0951 538.313 60.1581 538.943 60.1581C539.895 60.1581 540.539 59.9481 540.875 59.5281C541.225 59.1221 541.4 58.5481 541.4 57.8061V57.1341H541.316C540.826 57.7921 539.958 58.1211 538.712 58.1211C537.354 58.1211 536.339 57.7011 535.667 56.8611C535.009 56.0211 534.68 54.7051 534.68 52.9131C534.68 51.0371 535.128 49.6161 536.024 48.6501C536.92 47.6841 538.222 47.2011 539.93 47.2011C540.826 47.2011 541.624 47.2641 542.324 47.3901C543.038 47.5161 543.619 47.6631 544.067 47.8311V57.9531ZM539.447 55.9371C539.979 55.9371 540.385 55.8181 540.665 55.5801C540.959 55.3421 541.183 54.9851 541.337 54.5091V49.7841C540.903 49.6021 540.364 49.5111 539.72 49.5111C539.02 49.5111 538.474 49.7771 538.082 50.3091C537.69 50.8271 537.494 51.6601 537.494 52.8081C537.494 53.8301 537.662 54.6071 537.998 55.1391C538.334 55.6711 538.817 55.9371 539.447 55.9371ZM552.868 57.9531V51.9891C552.868 51.1351 552.742 50.5191 552.49 50.1411C552.252 49.7631 551.839 49.5741 551.251 49.5741C550.733 49.5741 550.292 49.7281 549.928 50.0361C549.578 50.3301 549.326 50.7011 549.172 51.1491V57.9531H546.442V47.4531H548.605L548.92 48.8391H549.004C549.326 48.3911 549.753 47.9991 550.285 47.6631C550.817 47.3271 551.503 47.1591 552.343 47.1591C552.861 47.1591 553.323 47.2291 553.729 47.3691C554.135 47.5091 554.478 47.7401 554.758 48.0621C555.038 48.3841 555.248 48.8251 555.388 49.3851C555.528 49.9311 555.598 50.6101 555.598 51.4221V57.9531H552.868ZM507.156 84.9531V78.9891C507.156 78.1351 507.03 77.5191 506.778 77.1411C506.54 76.7631 506.127 76.5741 505.539 76.5741C505.021 76.5741 504.58 76.7281 504.216 77.0361C503.866 77.3301 503.614 77.7011 503.46 78.1491V84.9531H500.73V74.4531H502.893L503.208 75.8391H503.292C503.614 75.3911 504.041 74.9991 504.573 74.6631C505.105 74.3271 505.791 74.1591 506.631 74.1591C507.149 74.1591 507.611 74.2291 508.017 74.3691C508.423 74.5091 508.766 74.7401 509.046 75.0621C509.326 75.3841 509.536 75.8251 509.676 76.3851C509.816 76.9311 509.886 77.6101 509.886 78.4221V84.9531H507.156ZM520.574 84.0501C520.154 84.3861 519.58 84.6731 518.852 84.9111C518.138 85.1351 517.375 85.2471 516.563 85.2471C514.869 85.2471 513.63 84.7571 512.846 83.7771C512.062 82.7831 511.67 81.4251 511.67 79.7031C511.67 77.8551 512.111 76.4691 512.993 75.5451C513.875 74.6211 515.114 74.1591 516.71 74.1591C517.242 74.1591 517.76 74.2291 518.264 74.3691C518.768 74.5091 519.216 74.7401 519.608 75.0621C520 75.3841 520.315 75.8181 520.553 76.3641C520.791 76.9101 520.91 77.5891 520.91 78.4011C520.91 78.6951 520.889 79.0101 520.847 79.3461C520.819 79.6821 520.77 80.0321 520.7 80.3961H514.4C514.442 81.2781 514.666 81.9431 515.072 82.3911C515.492 82.8391 516.164 83.0631 517.088 83.0631C517.662 83.0631 518.173 82.9791 518.621 82.8111C519.083 82.6291 519.433 82.4471 519.671 82.2651L520.574 84.0501ZM516.668 76.3431C515.954 76.3431 515.422 76.5601 515.072 76.9941C514.736 77.4141 514.533 77.9811 514.463 78.6951H518.369C518.425 77.9391 518.306 77.3581 518.012 76.9521C517.732 76.5461 517.284 76.3431 516.668 76.3431ZM531.135 84.0501C530.715 84.3861 530.141 84.6731 529.413 84.9111C528.699 85.1351 527.936 85.2471 527.124 85.2471C525.43 85.2471 524.191 84.7571 523.407 83.7771C522.623 82.7831 522.231 81.4251 522.231 79.7031C522.231 77.8551 522.672 76.4691 523.554 75.5451C524.436 74.6211 525.675 74.1591 527.271 74.1591C527.803 74.1591 528.321 74.2291 528.825 74.3691C529.329 74.5091 529.777 74.7401 530.169 75.0621C530.561 75.3841 530.876 75.8181 531.114 76.3641C531.352 76.9101 531.471 77.5891 531.471 78.4011C531.471 78.6951 531.45 79.0101 531.408 79.3461C531.38 79.6821 531.331 80.0321 531.261 80.3961H524.961C525.003 81.2781 525.227 81.9431 525.633 82.3911C526.053 82.8391 526.725 83.0631 527.649 83.0631C528.223 83.0631 528.734 82.9791 529.182 82.8111C529.644 82.6291 529.994 82.4471 530.232 82.2651L531.135 84.0501ZM527.229 76.3431C526.515 76.3431 525.983 76.5601 525.633 76.9941C525.297 77.4141 525.094 77.9811 525.024 78.6951H528.93C528.986 77.9391 528.867 77.3581 528.573 76.9521C528.293 76.5461 527.845 76.3431 527.229 76.3431ZM542.324 81.2571C542.324 81.8451 542.331 82.4331 542.345 83.0211C542.359 83.6091 542.422 84.2601 542.534 84.9741H540.581L540.203 83.6091H540.119C539.839 84.0991 539.433 84.4981 538.901 84.8061C538.383 85.1001 537.767 85.2471 537.053 85.2471C535.737 85.2471 534.715 84.8131 533.987 83.9451C533.259 83.0771 532.895 81.7191 532.895 79.8711C532.895 78.0791 533.301 76.6861 534.113 75.6921C534.925 74.6981 536.115 74.2011 537.683 74.2011C538.117 74.2011 538.474 74.2291 538.754 74.2851C539.034 74.3271 539.314 74.4041 539.594 74.5161V70.2531H542.324V81.2571ZM537.683 82.9371C538.215 82.9371 538.635 82.8111 538.943 82.5591C539.251 82.2931 539.468 81.9151 539.594 81.4251V76.9731C539.398 76.8191 539.181 76.7071 538.943 76.6371C538.705 76.5531 538.397 76.5111 538.019 76.5111C537.249 76.5111 536.668 76.7701 536.276 77.2881C535.898 77.8061 535.709 78.6951 535.709 79.9551C535.709 80.8511 535.863 81.5721 536.171 82.1181C536.493 82.6641 536.997 82.9371 537.683 82.9371ZM549.067 82.0551C549.067 81.7751 548.948 81.5511 548.71 81.3831C548.472 81.2151 548.178 81.0611 547.828 80.9211C547.478 80.7811 547.093 80.6411 546.673 80.5011C546.253 80.3471 545.868 80.1441 545.518 79.8921C545.168 79.6261 544.874 79.2971 544.636 78.9051C544.398 78.4991 544.279 77.9811 544.279 77.3511C544.279 76.3151 544.587 75.5241 545.203 74.9781C545.819 74.4321 546.708 74.1591 547.87 74.1591C548.668 74.1591 549.389 74.2431 550.033 74.4111C550.677 74.5791 551.181 74.7681 551.545 74.9781L550.936 76.9521C550.614 76.8261 550.208 76.6931 549.718 76.5531C549.228 76.4131 548.731 76.3431 548.227 76.3431C547.415 76.3431 547.009 76.6581 547.009 77.2881C547.009 77.5401 547.128 77.7431 547.366 77.8971C547.604 78.0511 547.898 78.1981 548.248 78.3381C548.598 78.4641 548.983 78.6041 549.403 78.7581C549.823 78.9121 550.208 79.1151 550.558 79.3671C550.908 79.6051 551.202 79.9201 551.44 80.3121C551.678 80.7041 551.797 81.2081 551.797 81.8241C551.797 82.8881 551.454 83.7281 550.768 84.3441C550.096 84.9461 549.081 85.2471 547.723 85.2471C546.981 85.2471 546.281 85.1491 545.623 84.9531C544.979 84.7711 544.454 84.5541 544.048 84.3021L544.804 82.2651C545.126 82.4471 545.553 82.6291 546.085 82.8111C546.617 82.9791 547.163 83.0631 547.723 83.0631C548.129 83.0631 548.451 82.9861 548.689 82.8321C548.941 82.6781 549.067 82.4191 549.067 82.0551Z" fill="white"/>
<path d="M349.791 64.343L350.064 66.947H350.148L350.442 64.301L353.004 56.132H354.894L357.414 64.343L357.708 66.947H357.792L358.107 64.301L359.892 56.132H362.811L358.758 70.937H356.826L354.201 62.768L353.844 60.521H353.739L353.382 62.789L350.778 70.937H348.741L344.709 56.132H347.838L349.791 64.343ZM362.947 60.941C363.507 60.689 364.172 60.493 364.942 60.353C365.712 60.199 366.517 60.122 367.357 60.122C368.085 60.122 368.694 60.213 369.184 60.395C369.674 60.563 370.059 60.808 370.339 61.13C370.633 61.452 370.836 61.837 370.948 62.285C371.074 62.733 371.137 63.237 371.137 63.797C371.137 64.413 371.116 65.036 371.074 65.666C371.032 66.282 371.004 66.891 370.99 67.493C370.99 68.095 371.011 68.683 371.053 69.257C371.095 69.817 371.2 70.349 371.368 70.853H369.142L368.701 69.404H368.596C368.316 69.838 367.924 70.216 367.42 70.538C366.93 70.846 366.293 71 365.509 71C365.019 71 364.578 70.93 364.186 70.79C363.794 70.636 363.458 70.426 363.178 70.16C362.898 69.88 362.681 69.558 362.527 69.194C362.373 68.816 362.296 68.396 362.296 67.934C362.296 67.29 362.436 66.751 362.716 66.317C363.01 65.869 363.423 65.512 363.955 65.246C364.501 64.966 365.145 64.777 365.887 64.679C366.643 64.567 367.483 64.532 368.407 64.574C368.505 63.79 368.449 63.23 368.239 62.894C368.029 62.544 367.56 62.369 366.832 62.369C366.286 62.369 365.705 62.425 365.089 62.537C364.487 62.649 363.99 62.796 363.598 62.978L362.947 60.941ZM366.412 68.753C366.958 68.753 367.392 68.634 367.714 68.396C368.036 68.144 368.274 67.878 368.428 67.598V66.233C367.994 66.191 367.574 66.184 367.168 66.212C366.776 66.24 366.426 66.303 366.118 66.401C365.81 66.499 365.565 66.639 365.383 66.821C365.201 67.003 365.11 67.234 365.11 67.514C365.11 67.906 365.222 68.214 365.446 68.438C365.684 68.648 366.006 68.753 366.412 68.753ZM379.854 70.832V64.868C379.854 64.014 379.728 63.398 379.476 63.02C379.238 62.642 378.825 62.453 378.237 62.453C377.719 62.453 377.278 62.607 376.914 62.915C376.564 63.209 376.312 63.58 376.158 64.028V70.832H373.428V60.332H375.591L375.906 61.718H375.99C376.312 61.27 376.739 60.878 377.271 60.542C377.803 60.206 378.489 60.038 379.329 60.038C379.847 60.038 380.309 60.108 380.715 60.248C381.121 60.388 381.464 60.619 381.744 60.941C382.024 61.263 382.234 61.704 382.374 62.264C382.514 62.81 382.584 63.489 382.584 64.301V70.832H379.854ZM383.779 60.332H385.228V58.358L387.958 57.581V60.332H390.52V62.642H387.958V66.674C387.958 67.402 388.028 67.927 388.168 68.249C388.322 68.557 388.602 68.711 389.008 68.711C389.288 68.711 389.526 68.683 389.722 68.627C389.932 68.571 390.163 68.487 390.415 68.375L390.898 70.475C390.52 70.657 390.079 70.811 389.575 70.937C389.071 71.063 388.56 71.126 388.042 71.126C387.076 71.126 386.362 70.881 385.9 70.391C385.452 69.887 385.228 69.068 385.228 67.934V62.642H383.779V60.332ZM396.539 67.934C396.539 67.654 396.42 67.43 396.182 67.262C395.944 67.094 395.65 66.94 395.3 66.8C394.95 66.66 394.565 66.52 394.145 66.38C393.725 66.226 393.34 66.023 392.99 65.771C392.64 65.505 392.346 65.176 392.108 64.784C391.87 64.378 391.751 63.86 391.751 63.23C391.751 62.194 392.059 61.403 392.675 60.857C393.291 60.311 394.18 60.038 395.342 60.038C396.14 60.038 396.861 60.122 397.505 60.29C398.149 60.458 398.653 60.647 399.017 60.857L398.408 62.831C398.086 62.705 397.68 62.572 397.19 62.432C396.7 62.292 396.203 62.222 395.699 62.222C394.887 62.222 394.481 62.537 394.481 63.167C394.481 63.419 394.6 63.622 394.838 63.776C395.076 63.93 395.37 64.077 395.72 64.217C396.07 64.343 396.455 64.483 396.875 64.637C397.295 64.791 397.68 64.994 398.03 65.246C398.38 65.484 398.674 65.799 398.912 66.191C399.15 66.583 399.269 67.087 399.269 67.703C399.269 68.767 398.926 69.607 398.24 70.223C397.568 70.825 396.553 71.126 395.195 71.126C394.453 71.126 393.753 71.028 393.095 70.832C392.451 70.65 391.926 70.433 391.52 70.181L392.276 68.144C392.598 68.326 393.025 68.508 393.557 68.69C394.089 68.858 394.635 68.942 395.195 68.942C395.601 68.942 395.923 68.865 396.161 68.711C396.413 68.557 396.539 68.298 396.539 67.934Z" fill="white"/>
<path d="M200.282 63.167H205.763V69.719C205.175 70.209 204.468 70.566 203.642 70.79C202.83 71.014 202.025 71.126 201.227 71.126C200.289 71.126 199.414 70.979 198.602 70.685C197.804 70.391 197.111 69.936 196.523 69.32C195.935 68.69 195.473 67.892 195.137 66.926C194.801 65.96 194.633 64.812 194.633 63.482C194.633 62.096 194.829 60.92 195.221 59.954C195.627 58.974 196.152 58.183 196.796 57.581C197.454 56.965 198.189 56.524 199.001 56.258C199.813 55.978 200.639 55.838 201.479 55.838C202.319 55.838 203.054 55.901 203.684 56.027C204.328 56.153 204.839 56.286 205.217 56.426L204.629 58.841C204.279 58.701 203.887 58.596 203.453 58.526C203.019 58.442 202.466 58.4 201.794 58.4C201.192 58.4 200.639 58.491 200.135 58.673C199.631 58.855 199.19 59.156 198.812 59.576C198.448 59.982 198.161 60.507 197.951 61.151C197.755 61.795 197.657 62.579 197.657 63.503C197.657 64.385 197.755 65.148 197.951 65.792C198.147 66.422 198.42 66.947 198.77 67.367C199.12 67.773 199.526 68.074 199.988 68.27C200.464 68.466 200.968 68.564 201.5 68.564C201.864 68.564 202.221 68.522 202.571 68.438C202.921 68.34 203.215 68.2 203.453 68.018V65.246L200.282 64.91V63.167ZM207.325 65.582C207.325 63.804 207.759 62.439 208.627 61.487C209.495 60.521 210.713 60.038 212.281 60.038C213.121 60.038 213.849 60.171 214.465 60.437C215.081 60.703 215.592 61.081 215.998 61.571C216.404 62.047 216.705 62.628 216.901 63.314C217.111 64 217.216 64.756 217.216 65.582C217.216 67.36 216.782 68.732 215.914 69.698C215.06 70.65 213.849 71.126 212.281 71.126C211.441 71.126 210.713 70.993 210.097 70.727C209.481 70.461 208.963 70.09 208.543 69.614C208.137 69.124 207.829 68.536 207.619 67.85C207.423 67.164 207.325 66.408 207.325 65.582ZM210.139 65.582C210.139 66.044 210.181 66.471 210.265 66.863C210.349 67.255 210.475 67.598 210.643 67.892C210.811 68.186 211.028 68.417 211.294 68.585C211.574 68.739 211.903 68.816 212.281 68.816C212.995 68.816 213.527 68.557 213.877 68.039C214.227 67.521 214.402 66.702 214.402 65.582C214.402 64.616 214.241 63.839 213.919 63.251C213.597 62.649 213.051 62.348 212.281 62.348C211.609 62.348 211.084 62.6 210.706 63.104C210.328 63.608 210.139 64.434 210.139 65.582ZM219.045 60.941C219.605 60.689 220.27 60.493 221.04 60.353C221.81 60.199 222.615 60.122 223.455 60.122C224.183 60.122 224.792 60.213 225.282 60.395C225.772 60.563 226.157 60.808 226.437 61.13C226.731 61.452 226.934 61.837 227.046 62.285C227.172 62.733 227.235 63.237 227.235 63.797C227.235 64.413 227.214 65.036 227.172 65.666C227.13 66.282 227.102 66.891 227.088 67.493C227.088 68.095 227.109 68.683 227.151 69.257C227.193 69.817 227.298 70.349 227.466 70.853H225.24L224.799 69.404H224.694C224.414 69.838 224.022 70.216 223.518 70.538C223.028 70.846 222.391 71 221.607 71C221.117 71 220.676 70.93 220.284 70.79C219.892 70.636 219.556 70.426 219.276 70.16C218.996 69.88 218.779 69.558 218.625 69.194C218.471 68.816 218.394 68.396 218.394 67.934C218.394 67.29 218.534 66.751 218.814 66.317C219.108 65.869 219.521 65.512 220.053 65.246C220.599 64.966 221.243 64.777 221.985 64.679C222.741 64.567 223.581 64.532 224.505 64.574C224.603 63.79 224.547 63.23 224.337 62.894C224.127 62.544 223.658 62.369 222.93 62.369C222.384 62.369 221.803 62.425 221.187 62.537C220.585 62.649 220.088 62.796 219.696 62.978L219.045 60.941ZM222.51 68.753C223.056 68.753 223.49 68.634 223.812 68.396C224.134 68.144 224.372 67.878 224.526 67.598V66.233C224.092 66.191 223.672 66.184 223.266 66.212C222.874 66.24 222.524 66.303 222.216 66.401C221.908 66.499 221.663 66.639 221.481 66.821C221.299 67.003 221.208 67.234 221.208 67.514C221.208 67.906 221.32 68.214 221.544 68.438C221.782 68.648 222.104 68.753 222.51 68.753ZM232.34 67.304C232.34 67.794 232.403 68.151 232.529 68.375C232.655 68.599 232.858 68.711 233.138 68.711C233.306 68.711 233.467 68.697 233.621 68.669C233.789 68.641 233.992 68.578 234.23 68.48L234.524 70.622C234.3 70.734 233.957 70.846 233.495 70.958C233.033 71.07 232.557 71.126 232.067 71.126C231.269 71.126 230.66 70.944 230.24 70.58C229.82 70.202 229.61 69.586 229.61 68.732V56.132H232.34V67.304ZM240.046 67.934C240.046 67.654 239.927 67.43 239.689 67.262C239.451 67.094 239.157 66.94 238.807 66.8C238.457 66.66 238.072 66.52 237.652 66.38C237.232 66.226 236.847 66.023 236.497 65.771C236.147 65.505 235.853 65.176 235.615 64.784C235.377 64.378 235.258 63.86 235.258 63.23C235.258 62.194 235.566 61.403 236.182 60.857C236.798 60.311 237.687 60.038 238.849 60.038C239.647 60.038 240.368 60.122 241.012 60.29C241.656 60.458 242.16 60.647 242.524 60.857L241.915 62.831C241.593 62.705 241.187 62.572 240.697 62.432C240.207 62.292 239.71 62.222 239.206 62.222C238.394 62.222 237.988 62.537 237.988 63.167C237.988 63.419 238.107 63.622 238.345 63.776C238.583 63.93 238.877 64.077 239.227 64.217C239.577 64.343 239.962 64.483 240.382 64.637C240.802 64.791 241.187 64.994 241.537 65.246C241.887 65.484 242.181 65.799 242.419 66.191C242.657 66.583 242.776 67.087 242.776 67.703C242.776 68.767 242.433 69.607 241.747 70.223C241.075 70.825 240.06 71.126 238.702 71.126C237.96 71.126 237.26 71.028 236.602 70.832C235.958 70.65 235.433 70.433 235.027 70.181L235.783 68.144C236.105 68.326 236.532 68.508 237.064 68.69C237.596 68.858 238.142 68.942 238.702 68.942C239.108 68.942 239.43 68.865 239.668 68.711C239.92 68.557 240.046 68.298 240.046 67.934Z" fill="white"/>
</svg>
