<svg width="951" height="951" viewBox="0 0 951 951" fill="none" xmlns="http://www.w3.org/2000/svg">
<circle cx="475.807" cy="475.645" r="459.598" fill="white" stroke="#DF1F26" stroke-width="31"/>
<g clip-path="url(#clip0)">
<path d="M607.59 659.453C601.766 658.856 596.497 663.208 595.963 669.074L594.214 687.805L477.03 674.429C471.313 673.725 465.873 677.949 465.211 683.816C464.528 689.661 468.752 694.952 474.598 695.613L602.598 710.248C603.003 710.291 603.409 710.312 603.814 710.312C606.246 710.312 608.635 709.48 610.534 707.923C612.753 706.131 614.161 703.507 614.438 700.648L617.211 671.08C617.766 665.213 613.435 660.007 607.59 659.453Z" fill="#DF1F26"/>
<path d="M477.072 328.894L274.406 305.043C268.347 304.339 263.27 308.499 262.545 314.323L219.878 655.656C219.537 658.472 220.326 661.331 222.097 663.571C223.846 665.811 226.428 667.262 229.265 667.582L343.825 680.681C344.252 680.724 344.636 680.745 345.062 680.745C350.395 680.745 355.025 676.734 355.643 671.294C356.326 665.449 352.102 660.158 346.256 659.497L242.406 647.614L282.427 327.465L474.576 350.078C480.677 350.867 485.755 346.579 486.416 340.734C487.12 334.888 482.918 329.576 477.072 328.894Z" fill="#DF1F26"/>
<path d="M590.013 318.78C585.853 314.62 579.09 314.62 574.93 318.78L521.597 372.113C517.437 376.273 517.437 383.036 521.597 387.196C523.688 389.265 526.418 390.311 529.149 390.311C531.88 390.311 534.61 389.266 536.68 387.196L590.013 333.863C594.173 329.702 594.173 322.94 590.013 318.78Z" fill="#DF1F26"/>
<path d="M731.729 655.676L689.063 314.342C688.338 308.518 682.962 304.379 677.223 305.062L647.826 308.518C641.959 309.201 637.778 314.513 638.482 320.358C639.165 326.203 644.498 330.427 650.322 329.702L669.202 327.483L709.223 647.59L357.415 687.803L327.399 367.675L587.943 337.04C593.81 336.357 597.991 331.045 597.287 325.2C596.604 319.355 591.186 315.024 585.447 315.856L314.556 347.729C308.817 348.39 304.657 353.532 305.191 359.313L337.191 700.646C337.468 703.483 338.876 706.129 341.095 707.921C342.994 709.478 345.383 710.31 347.815 710.31C348.22 710.31 348.626 710.289 349.01 710.267L722.343 667.6C725.18 667.259 727.762 665.829 729.511 663.589C731.281 661.35 732.092 658.492 731.729 655.676Z" fill="#DF1F26"/>
<path d="M614.481 240.977C585.062 240.977 561.148 264.913 561.148 294.31C561.148 323.707 585.063 347.643 614.481 347.643C643.899 347.643 667.814 323.707 667.814 294.31C667.814 264.913 643.9 240.977 614.481 240.977ZM614.481 326.31C596.838 326.31 582.481 311.953 582.481 294.31C582.481 276.667 596.838 262.31 614.481 262.31C632.124 262.31 646.481 276.667 646.481 294.31C646.481 311.953 632.124 326.31 614.481 326.31Z" fill="#DF1F26"/>
</g>
<defs>
<clipPath id="clip0">
<rect x="219.801" y="219.637" width="512.013" height="512.013" fill="white"/>
</clipPath>
</defs>
</svg>
