<?xml version="1.0" encoding="iso-8859-1"?>
<!-- Generator: Adobe Illustrator 19.0.0, SVG Export Plug-In . SVG Version: 6.00 Build 0)  -->
<svg version="1.1" id="Capa_1" xmlns="http://www.w3.org/2000/svg" xmlns:xlink="http://www.w3.org/1999/xlink" x="0px" y="0px"
	 viewBox="0 0 414.824 414.824" style="enable-background:new 0 0 414.824 414.824;" xml:space="preserve">
<path style="fill:#4DCFE0;" d="M97.698,15.673h219.429c5.747,0,10.449,4.702,10.449,10.449v372.506l-120.163-73.665L87.249,399.151
	V26.122C87.249,20.376,91.951,15.673,97.698,15.673z"/>
<path style="fill:#3A2C51;" d="M87.249,414.824c-2.612,0-5.224-0.522-7.837-2.09c-4.702-2.612-7.837-7.837-7.837-13.584V26.122
	C71.576,11.494,83.069,0,97.698,0h219.429c14.629,0,26.122,11.494,26.122,26.122v372.506c0,5.747-3.135,10.971-7.837,13.584
	s-10.971,2.612-15.673-0.522l-112.327-68.441L95.608,412.735C92.996,414.302,89.861,414.824,87.249,414.824z M102.922,31.347
	v339.592l96.131-59.559c5.224-3.135,11.494-3.135,16.196,0l96.653,59.037V31.347H102.922z"/>
<g>
</g>
<g>
</g>
<g>
</g>
<g>
</g>
<g>
</g>
<g>
</g>
<g>
</g>
<g>
</g>
<g>
</g>
<g>
</g>
<g>
</g>
<g>
</g>
<g>
</g>
<g>
</g>
<g>
</g>
</svg>
