<svg width="512" height="512" viewBox="0 0 512 512" fill="none" xmlns="http://www.w3.org/2000/svg">
<path d="M16 448H496V496H16V448Z" fill="#D3A06C"/>
<path d="M16 272V448H496V272H16Z" fill="#DFB28B"/>
<path d="M72 272H32V224C32 197.44 42.72 173.44 60.08 156.08C77.44 138.72 101.44 128 128 128C159.44 128 187.28 143.12 204.8 166.4C197.04 172.24 192 181.52 192 192V272H72Z" fill="#FF826E"/>
<path d="M176 328V360C176 373.28 138.48 384 112 384C85.52 384 48 373.28 48 360V328C48 341.28 85.52 352 112 352C138.48 352 176 341.28 176 328Z" fill="#FFEAA7"/>
<path d="M176 360V392C176 405.28 138.48 416 112 416C85.52 416 48 405.28 48 392V360C48 373.28 85.52 384 112 384C138.48 384 176 373.28 176 360Z" fill="#FCD770"/>
<path d="M112 352C147.346 352 176 341.255 176 328C176 314.745 147.346 304 112 304C76.6538 304 48 314.745 48 328C48 341.255 76.6538 352 112 352Z" fill="#FCD770"/>
<path d="M264 352H392V400H264V352Z" fill="#AAB2BD"/>
<path d="M464 304V320C464 337.68 449.68 352 432 352H392H264H224C206.32 352 192 337.68 192 320V304H464Z" fill="#CCD1D9"/>
<path d="M192 272V192C192 181.52 197.04 172.24 204.8 166.4C210.16 162.4 216.8 160 224 160H432C449.68 160 464 174.32 464 192V272V304H192V272Z" fill="#69D6F4"/>
<path d="M376 192H408V272H376V192Z" fill="#FCD770"/>
<path d="M312 224H344V272H312V224Z" fill="#FCD770"/>
<path d="M248 208H280V272H248V208Z" fill="#FCD770"/>
<path d="M128 128C158.928 128 184 102.928 184 72C184 41.0721 158.928 16 128 16C97.0721 16 72 41.0721 72 72C72 102.928 97.0721 128 128 128Z" fill="#6E3C24"/>
<path d="M488 32C488 40.8 480.8 48 472 48C467.6 48 463.6 46.24 460.72 43.28C457.76 40.4 456 36.4 456 32C456 23.2 463.2 16 472 16C480.8 16 488 23.2 488 32Z" fill="#FCD770"/>
<path d="M419.28 84.72C422.24 87.6 424 91.6 424 96C424 104.8 416.8 112 408 112C399.2 112 392 104.8 392 96C392 91.6 393.76 87.6 396.72 84.72C399.6 81.76 403.6 80 408 80C412.4 80 416.4 81.76 419.28 84.72Z" fill="#FCD770"/>
<path d="M376 48C376 52.4 374.24 56.4 371.28 59.28C368.4 62.24 364.4 64 360 64C355.6 64 351.6 62.24 348.72 59.28C345.76 56.4 344 52.4 344 48C344 39.2 351.2 32 360 32C368.8 32 376 39.2 376 48Z" fill="#FCD770"/>
<path d="M280 112C280 108.4 281.2 105.12 283.28 102.4C286.16 98.56 290.8 96 296 96C300.4 96 304.4 97.76 307.28 100.72C310.24 103.6 312 107.6 312 112C312 120.8 304.8 128 296 128C287.2 128 280 120.8 280 112Z" fill="#FCD770"/>
<path d="M232 48C240.8 48 248 55.2 248 64C248 67.6 246.8 70.88 244.8 73.6C241.84 77.44 237.2 80 232 80C223.2 80 216 72.8 216 64C216 55.2 223.2 48 232 48Z" fill="#FCD770"/>
<path d="M472 264V192C472 169.944 454.056 152 432 152H224C217.736 152 211.888 153.576 206.608 156.152C194.552 142.152 179.432 131.776 162.456 125.856C180.192 114.456 192 94.6 192 72C192 36.712 163.288 8 128 8C92.712 8 64 36.712 64 72C64 94.664 75.872 114.56 93.688 125.936C53.176 140.152 24 178.688 24 224V264H8V504H504V264H472ZM272 392V360H384V392H272ZM224 344C210.768 344 200 333.232 200 320V312H456V320C456 333.232 445.232 344 432 344H224ZM432 168C445.232 168 456 178.768 456 192V296H200V192C200 178.768 210.768 168 224 168H432ZM80 72C80 45.528 101.528 24 128 24C154.472 24 176 45.528 176 72C176 98.472 154.472 120 128 120C101.528 120 80 98.472 80 72ZM40 224C40 175.48 79.48 136 128 136C153.608 136 177.216 146.88 193.936 165.904C187.832 172.928 184 181.984 184 192V264H80V192H64V264H40V224ZM184 280V320C184 342.056 201.944 360 224 360H256V392H224V408H432V392H400V360H432C454.056 360 472 342.056 472 320V280H488V440H24V280H184ZM24 488V456H488V488H24Z" fill="black"/>
<path d="M112 424C136.32 424 184 414.336 184 392V328C184 305.664 136.32 296 112 296C87.68 296 40 305.664 40 328V392C40 414.336 87.68 424 112 424ZM112 408C84.496 408 57.56 397.152 56 392V379.728C72.104 388.152 96.68 392 112 392C127.328 392 151.912 388.152 168.016 379.72V391.816C166.44 397.152 139.504 408 112 408V408ZM112 312C139.192 312 165.824 322.608 167.96 328C165.824 333.392 139.192 344 112 344C84.552 344 57.688 333.192 56 328.224V328.152C57.688 322.808 84.552 312 112 312ZM56 347.728C72.104 356.152 96.68 360 112 360C127.328 360 151.904 356.152 168.008 347.728V359.832C166.376 365.176 139.48 376 112 376C84.496 376 57.56 365.152 56 360V347.728Z" fill="black"/>
<path d="M232 88C236.912 88 241.48 86.504 245.288 83.96L273.2 104.896C272.488 107.152 272 109.512 272 112C272 125.232 282.768 136 296 136C309.232 136 320 125.232 320 112C320 108.304 319.096 104.848 317.592 101.72L349.712 69.6C352.848 71.096 356.304 72 360 72C363.696 72 367.152 71.096 370.28 69.592L386.4 85.712C384.904 88.848 384 92.304 384 96C384 109.232 394.768 120 408 120C421.232 120 432 109.232 432 96C432 92.304 431.096 88.848 429.592 85.72L461.712 53.6C464.848 55.096 468.304 56 472 56C485.232 56 496 45.232 496 32C496 18.768 485.232 8 472 8C458.768 8 448 18.768 448 32C448 35.696 448.904 39.152 450.408 42.28L418.288 74.4C415.152 72.904 411.696 72 408 72C404.304 72 400.848 72.904 397.72 74.408L381.6 58.288C383.096 55.152 384 51.696 384 48C384 34.768 373.232 24 360 24C346.768 24 336 34.768 336 48C336 51.696 336.904 55.152 338.408 58.28L306.288 90.4C303.152 88.904 299.696 88 296 88C291.088 88 286.52 89.496 282.712 92.04L254.8 71.104C255.512 68.848 256 66.488 256 64C256 50.768 245.232 40 232 40C218.768 40 208 50.768 208 64C208 77.232 218.768 88 232 88V88ZM472 24C476.408 24 480 27.592 480 32C480 36.408 476.408 40 472 40C467.592 40 464 36.408 464 32C464 27.592 467.592 24 472 24ZM416 96C416 100.408 412.408 104 408 104C403.592 104 400 100.408 400 96C400 91.592 403.592 88 408 88C412.408 88 416 91.592 416 96ZM360 40C364.408 40 368 43.592 368 48C368 52.408 364.408 56 360 56C355.592 56 352 52.408 352 48C352 43.592 355.592 40 360 40ZM296 104C300.408 104 304 107.592 304 112C304 116.408 300.408 120 296 120C291.592 120 288 116.408 288 112C288 107.592 291.592 104 296 104ZM232 56C236.408 56 240 59.592 240 64C240 68.408 236.408 72 232 72C227.592 72 224 68.408 224 64C224 59.592 227.592 56 232 56Z" fill="black"/>
<path d="M432 264H416V184H368V264H352V216H304V264H288V200H240V264H224V280H432V264ZM384 200H400V264H384V200ZM320 232H336V264H320V232ZM256 216H272V264H256V216Z" fill="black"/>
</svg>
