<svg width="512" height="512" viewBox="0 0 512 512" fill="none" xmlns="http://www.w3.org/2000/svg">
<path d="M488 351.84V496H152V351.84C151.999 340.644 155.912 329.801 163.061 321.185C170.21 312.57 180.146 306.724 191.15 304.66L254.14 292.85L280 288V208H360V288L385.86 292.85L448.85 304.66C457.488 306.28 465.512 310.25 472.04 316.135L472.169 316.25C472.751 316.778 473.325 317.315 473.88 317.87C474.3 318.29 474.71 318.71 475.11 319.15C475.51 319.59 475.91 320.02 476.29 320.46C476.74 320.97 477.17 321.49 477.59 322.02C477.85 322.36 478.12 322.7 478.38 323.05C478.46 323.16 478.55 323.27 478.63 323.38C478.89 323.73 479.15 324.09 479.4 324.46C479.57 324.69 479.73 324.93 479.88 325.17L480.09 325.47C480.2 325.65 480.32 325.82 480.43 326C480.65 326.34 480.87 326.68 481.06 327.03C481.23 327.3 481.39 327.57 481.55 327.85C481.81 328.3 482.07 328.76 482.32 329.23C482.53 329.62 482.73 330.02 482.93 330.42C483.02 330.61 483.12 330.8 483.22 331C483.345 331.231 483.459 331.468 483.56 331.71C483.72 332.05 483.88 332.4 484.03 332.74C484.22 333.17 484.4 333.6 484.57 334.03C484.79 334.59 485.01 335.14 485.21 335.71C485.62 336.83 485.98 337.97 486.29 339.13C486.57 340.16 486.82 341.2 487.03 342.25C487.08 342.46 487.12 342.67 487.16 342.88V342.89C487.26 343.39 487.34 343.89 487.42 344.39C487.42 344.41 487.43 344.44 487.43 344.46C487.5 344.92 487.57 345.37 487.62 345.84C487.622 345.842 487.624 345.844 487.625 345.847C487.627 345.849 487.627 345.852 487.627 345.855C487.627 345.858 487.627 345.861 487.625 345.863C487.624 345.866 487.622 345.868 487.62 345.87C487.65 346.08 487.68 346.28 487.7 346.49C487.76 346.96 487.8 347.43 487.84 347.9C487.86 348.08 487.87 348.26 487.88 348.43C487.88 348.49 487.89 348.55 487.89 348.61C487.92 349.06 487.95 349.51 487.96 349.97C487.99 350.59 488 351.21 488 351.84V351.84Z" fill="#FEC9A3"/>
<path d="M360 251.856V208H280V251.856C291.838 259.772 305.759 263.997 320 263.997C334.241 263.997 348.162 259.772 360 251.856V251.856Z" fill="#FEB784"/>
<path d="M488 351.84V496H152V351.84C151.999 340.644 155.912 329.801 163.061 321.185C170.21 312.57 180.146 306.724 191.15 304.66L280 288L304 320L320 376L336 320L360 288L448.85 304.66C449.11 304.71 449.37 304.76 449.62 304.82C451.272 305.152 452.904 305.572 454.51 306.08C464.227 309.164 472.711 315.261 478.732 323.488C484.753 331.715 487.999 341.645 488 351.84V351.84Z" fill="#743B20"/>
<path d="M487.999 351.84V496H258.469C310.259 472.1 401.479 416.21 449.619 304.82C451.27 305.152 452.903 305.572 454.509 306.08C464.226 309.164 472.71 315.261 478.731 323.488C484.752 331.715 487.998 341.645 487.999 351.84V351.84Z" fill="#61311B"/>
<path d="M304.001 320L264.001 352L254.141 292.85L280.001 288L304.001 320Z" fill="#95573A"/>
<path d="M385.86 292.85L376 352L336 320L360 288L385.86 292.85Z" fill="#95573A"/>
<path d="M392 112V176C392 185.455 390.138 194.818 386.519 203.553C382.901 212.289 377.598 220.226 370.912 226.912C364.226 233.598 356.289 238.901 347.553 242.52C338.818 246.138 329.455 248 320 248C310.545 248 301.182 246.138 292.447 242.52C283.711 238.901 275.774 233.598 269.088 226.912C262.402 220.226 257.099 212.289 253.481 203.553C249.862 194.818 248 185.455 248 176V112C248.004 99.6735 251.172 87.5539 257.2 76.8017C263.228 66.0494 271.915 57.0242 282.429 50.59C292.943 44.1558 304.933 40.5278 317.251 40.0534C329.569 39.5789 341.802 42.2739 352.78 47.8803C352.783 47.8803 352.785 47.8813 352.787 47.8832C352.789 47.8851 352.79 47.8876 352.79 47.8903C364.591 53.9354 374.495 63.1188 381.413 74.4299C388.331 85.741 391.994 98.7414 392 112V112Z" fill="#FEC9A3"/>
<path d="M392 112.001V176.001C391.995 186.599 389.652 197.065 385.137 206.653C380.623 216.241 374.048 224.715 365.882 231.471C357.716 238.226 348.16 243.096 337.896 245.734C327.631 248.372 316.911 248.712 306.5 246.731C322.955 243.584 337.798 234.801 348.476 221.891C359.153 208.981 364.996 192.754 365 176.001V88.0006C365.023 73.7119 360.77 59.7431 352.79 47.8906C364.591 53.9358 374.495 63.1192 381.413 74.4303C388.331 85.7414 391.994 98.7417 392 112.001V112.001Z" fill="#FEC093"/>
<path d="M392 119.998L408 135.998V80.6604C408 74.6735 406.696 68.7584 404.178 63.3265C401.661 57.8946 397.991 53.0763 393.422 49.2065C388.854 45.3367 383.498 42.5084 377.726 40.9182C371.954 39.328 365.905 39.0141 360 39.9984V63.9984C360 63.9984 374.463 98.9544 392 119.998Z" fill="#743B20"/>
<path d="M248 119.998L232 135.998V80.6604C232 74.6735 233.304 68.7584 235.822 63.3265C238.339 57.8946 242.009 53.0763 246.578 49.2065C251.146 45.3367 256.502 42.5084 262.274 40.9182C268.046 39.328 274.095 39.0141 280 39.9984V63.9984C280 63.9984 265.537 98.9544 248 119.998Z" fill="#8C5137"/>
<path d="M360 40V64C359.7 64.18 359.4 64.36 359.09 64.54C332.989 80.0183 303.761 89.4749 273.54 92.22L232 96V80C232 65.1479 237.9 50.9041 248.402 40.402C258.904 29.9 273.148 24 288 24H334.11C339.486 23.9991 344.755 25.4956 349.328 28.3216C353.901 31.1477 357.596 35.1916 360 40V40Z" fill="#7A432A"/>
<path d="M360.002 40V64C359.702 64.18 359.402 64.36 359.092 64.54C353.031 47.0273 340.472 32.5134 324.012 24H334.112C339.487 23.9991 344.757 25.4956 349.33 28.3216C353.903 31.1477 357.598 35.1916 360.002 40V40Z" fill="#743B20"/>
<path d="M152 312H280V488H152V312Z" fill="#3D4D63"/>
<path d="M24 312H152V488H24V312Z" fill="#3D4D63"/>
<path d="M152 488C152 479.513 148.629 471.374 142.627 465.373C136.626 459.371 128.487 456 120 456H24V280H120C128.487 280 136.626 283.371 142.627 289.373C148.629 295.374 152 303.513 152 312V488Z" fill="#FAE890"/>
<path d="M152 488C152 479.513 155.371 471.374 161.373 465.373C167.374 459.371 175.513 456 184 456H280V280H184C175.513 280 167.374 283.371 161.373 289.373C155.371 295.374 152 303.513 152 312V488Z" fill="#F5DF7B"/>
<path d="M152 432V488C152 479.513 155.371 471.374 161.373 465.373C167.374 459.371 175.513 456 184 456H280V304L152 432Z" fill="#EDD561"/>
<path d="M88 304L72 320L56 304V160C56 155.757 57.6857 151.687 60.6863 148.686C63.6869 145.686 67.7565 144 72 144C76.2435 144 80.3131 145.686 83.3137 148.686C86.3143 151.687 88 155.757 88 160V304Z" fill="#7A432A"/>
<path d="M56 270.401V304.001L72 320.001L88 304.001V212.801L56 270.401Z" fill="#743B20"/>
<path d="M400 120H392V168H400C406.365 168 412.47 165.471 416.971 160.971C421.471 156.47 424 150.365 424 144C424 137.635 421.471 131.53 416.971 127.029C412.47 122.529 406.365 120 400 120V120Z" fill="#FEB784"/>
<path d="M240.4 120H240C233.635 120 227.53 122.529 223.029 127.029C218.529 131.53 216 137.635 216 144C216 150.365 218.529 156.47 223.029 160.971C227.53 165.471 233.635 168 240 168H248.48L248 120H240.4Z" fill="#FEB784"/>
<path d="M291.2 120H252.8C245.731 120 240 125.731 240 132.8V155.2C240 162.269 245.731 168 252.8 168H291.2C298.269 168 304 162.269 304 155.2V132.8C304 125.731 298.269 120 291.2 120Z" fill="#E0E0DE"/>
<path d="M387.2 120H348.8C341.731 120 336 125.731 336 132.8V155.2C336 162.269 341.731 168 348.8 168H387.2C394.269 168 400 162.269 400 155.2V132.8C400 125.731 394.269 120 387.2 120Z" fill="#E0E0DE"/>
<path d="M256 168.001H291.2C294.595 168.001 297.851 166.652 300.251 164.252C302.651 161.851 304 158.596 304 155.201V132.801C304.002 131.12 303.672 129.455 303.029 127.901C302.385 126.348 301.441 124.937 300.251 123.75L256 168.001Z" fill="#D6D6D4"/>
<path d="M352 168.001H387.2C390.595 168.001 393.851 166.652 396.251 164.252C398.651 161.851 400 158.596 400 155.201V132.801C400.002 131.12 399.672 129.455 399.029 127.901C398.385 126.348 397.441 124.937 396.251 123.75L352 168.001Z" fill="#D6D6D4"/>
<path d="M450.352 296.776L368 281.358V239.966C377.943 232.529 386.012 222.874 391.568 211.769C397.123 200.665 400.01 188.417 400 176C407.043 176.002 413.89 173.68 419.479 169.394C425.067 165.107 429.085 159.096 430.909 152.293C432.732 145.49 432.259 138.275 429.564 131.768C426.868 125.261 422.1 119.826 416 116.305V80.6622C416 73.9807 414.64 67.369 412.002 61.2302C409.365 55.0913 405.505 49.5537 400.658 44.9548C395.811 40.356 390.078 36.7921 383.809 34.4803C377.54 32.1685 370.866 31.1573 364.194 31.5082C360.792 26.6986 356.283 22.7786 351.047 20.0794C345.811 17.3801 340.002 15.981 334.111 16.0002H288C271.476 16.0207 255.598 22.425 243.684 33.8754C231.77 45.3258 224.741 60.9366 224.065 77.4472C224.005 78.3812 224 116.302 224 116.302C217.898 119.822 213.129 125.258 210.432 131.765C207.736 138.273 207.263 145.488 209.086 152.292C210.91 159.097 214.928 165.108 220.518 169.395C226.108 173.682 232.956 176.004 240 176C239.989 188.417 242.876 200.665 248.431 211.77C253.987 222.875 262.057 232.53 272 239.967V272H184C177.789 272.001 171.664 273.449 166.111 276.229C160.557 279.01 155.728 283.047 152.007 288.019C150.882 286.512 149.656 285.083 148.336 283.743L148.258 283.665C140.752 276.193 130.591 271.998 120 272H96V184H104C106.121 184.003 108.154 184.846 109.654 186.346C111.154 187.846 111.998 189.879 112 192V240H128V192C127.993 185.637 125.462 179.537 120.962 175.038C116.463 170.539 110.363 168.008 104 168H96V160C96 153.635 93.4714 147.531 88.9706 143.03C84.4697 138.529 78.3652 136 72 136C65.6348 136 59.5303 138.529 55.0294 143.03C50.5286 147.531 48 153.635 48 160V272H24C21.8783 272 19.8434 272.843 18.3431 274.343C16.8429 275.844 16 277.878 16 280V488C16 490.122 16.8429 492.157 18.3431 493.657C19.8434 495.157 21.8783 496 24 496H280C282.122 496 284.157 495.157 285.657 493.657C287.157 492.157 288 490.122 288 488V408H296V392H288V343.045L299.61 333.757L312 377.122V496H328V377.122L340.39 333.757L371 358.247C372.103 359.13 373.42 359.704 374.817 359.913C376.214 360.122 377.641 359.957 378.954 359.435C380.266 358.913 381.417 358.053 382.29 356.942C383.162 355.831 383.725 354.509 383.921 353.11L391.087 301.959L447.407 312.5C456.574 314.229 464.848 319.108 470.8 326.291C476.751 333.474 480.005 342.512 480 351.84V496H496V351.84C496.003 338.78 491.443 326.129 483.108 316.075C474.773 306.02 463.186 299.194 450.352 296.776ZM328.313 317.8L320 346.88L311.692 317.8C311.425 316.862 310.989 315.981 310.405 315.2L288 285.333V249.316C298.092 253.724 308.987 256 320 256C331.013 256 341.908 253.724 352 249.316V285.332L329.6 315.2C329.016 315.981 328.58 316.862 328.313 317.8V317.8ZM328.091 131C322.74 130.033 317.26 130.033 311.909 131C311.455 125.819 309.077 120.995 305.244 117.479C301.412 113.962 296.401 112.008 291.2 112H263.805C266.146 108.446 268.495 104.613 270.852 100.5L274.269 100.189C302.999 97.5298 330.89 89.0699 356.256 75.3212C362.033 88.0081 368.709 100.266 376.234 112H348.8C343.599 112.008 338.588 113.962 334.756 117.479C330.923 120.995 328.545 125.819 328.091 131V131ZM252.8 160C251.527 159.999 250.307 159.493 249.407 158.593C248.507 157.693 248.001 156.473 248 155.2V132.8C248.001 131.528 248.507 130.307 249.407 129.408C250.307 128.508 251.527 128.002 252.8 128H291.2C292.473 128.002 293.693 128.508 294.593 129.408C295.493 130.307 295.999 131.528 296 132.8V155.2C295.999 156.473 295.493 157.693 294.593 158.593C293.693 159.493 292.473 159.999 291.2 160H252.8ZM344 132.8C344.001 131.528 344.507 130.307 345.407 129.408C346.307 128.508 347.527 128.002 348.8 128H387.2C388.473 128.002 389.693 128.508 390.593 129.408C391.493 130.307 391.999 131.528 392 132.8V155.2C391.999 156.473 391.493 157.693 390.593 158.593C389.693 159.493 388.473 159.999 387.2 160H348.8C347.527 159.999 346.307 159.493 345.407 158.593C344.507 157.693 344.001 156.473 344 155.2V132.8ZM411.3 155.3C410.257 156.339 409.077 157.23 407.793 157.95C407.92 157.038 407.987 156.118 407.993 155.196V132.8C407.988 131.877 407.921 130.955 407.793 130.04C409.953 131.243 411.805 132.93 413.202 134.97C414.599 137.01 415.503 139.347 415.843 141.796C416.183 144.245 415.95 146.74 415.161 149.083C414.373 151.426 413.051 153.555 411.3 155.3V155.3ZM400 80.6622V112H395.837C382.235 94.4182 370.722 68.6672 368 62.3672V47.4582C376.593 47.7762 384.728 51.4131 390.696 57.6044C396.663 63.7956 399.998 72.0592 400 80.6582V80.6622ZM288 32.0002H334.111C337.707 31.9875 341.244 32.9064 344.379 34.6673C347.514 36.4282 350.14 38.9711 352 42.0482V59.4092C327.668 73.214 300.677 81.6841 272.82 84.2572L240 87.2402V80.0002C240 79.4282 240.023 78.8622 240.043 78.3002C240.054 78.1802 240.067 78.0662 240.084 77.9772L240.052 77.9702C240.588 65.6083 245.872 53.9296 254.804 45.3663C263.736 36.8031 275.626 32.0154 288 32.0002V32.0002ZM240 103.305L251.033 102.305C248.72 105.864 246.433 109.105 244.181 112H240V103.305ZM224 144C224.003 141.154 224.765 138.36 226.207 135.906C227.649 133.452 229.72 131.427 232.205 130.04C232.075 130.955 232.007 131.877 232 132.8V155.2C232.006 156.123 232.073 157.044 232.2 157.957C229.716 156.569 227.647 154.545 226.206 152.092C224.765 149.638 224.003 146.845 224 144V144ZM256 176H291.2C296.715 175.994 302.001 173.8 305.901 169.901C309.8 166.002 311.994 160.715 312 155.2V147.415C317.23 145.932 322.77 145.932 328 147.415V155.2C328.006 160.715 330.2 166.002 334.099 169.901C337.999 173.8 343.285 175.994 348.8 176H384C384 192.974 377.257 209.253 365.255 221.255C353.252 233.257 336.974 240 320 240C303.026 240 286.748 233.257 274.745 221.255C262.743 209.253 256 192.974 256 176ZM184 288H272V448H184C175.341 447.991 166.914 450.806 160 456.019V312C160.007 305.637 162.538 299.537 167.038 295.038C171.537 290.539 177.637 288.008 184 288V288ZM80 300.687L72 308.687L64 300.687V184H80V300.687ZM72 152C74.121 152.003 76.1544 152.846 77.6542 154.346C79.154 155.846 79.9976 157.879 80 160V168H64V160C64.0024 157.879 64.846 155.846 66.3458 154.346C67.8456 152.846 69.879 152.003 72 152ZM32 288H48V304C48 305.051 48.2069 306.091 48.6089 307.062C49.0109 308.032 49.6001 308.914 50.343 309.657L66.343 325.657C67.0851 326.401 67.9669 326.991 68.9377 327.393C69.9085 327.795 70.9492 328.002 72 328H128V312H91.314L93.657 309.657C94.3999 308.914 94.9891 308.032 95.3911 307.062C95.7931 306.091 96 305.051 96 304V288H120C123.153 287.995 126.277 288.612 129.191 289.816C132.105 291.02 134.753 292.788 136.983 295.018C139.212 297.247 140.98 299.895 142.184 302.809C143.388 305.724 144.005 308.847 144 312V456.022C137.086 450.808 128.66 447.991 120 448H32V288ZM32 464H120C124.961 464.007 129.799 465.548 133.849 468.412C137.9 471.277 140.965 475.325 142.624 480H32V464ZM161.376 480C163.035 475.325 166.1 471.277 170.151 468.412C174.201 465.548 179.039 464.007 184 464H272V480H161.376ZM288 322.555V312L292.948 318.6L288 322.555ZM370.027 336.977L347.052 318.6L363.375 296.836L375.316 299.225L370.027 336.977Z" fill="black"/>
<path d="M416 416H344V432H416V496H432V392H416V416Z" fill="black"/>
<path d="M346.319 195.102L341.681 179.789C332.358 182.599 322.671 184.018 312.934 184.002H296V200.002H312.934C324.243 200.019 335.492 198.367 346.319 195.102Z" fill="black"/>
<path d="M48 344H128V360H48V344Z" fill="black"/>
<path d="M48 376H128V392H48V376Z" fill="black"/>
<path d="M48 408H128V424H48V408Z" fill="black"/>
<path d="M176 312H256V328H176V312Z" fill="black"/>
<path d="M176 344H256V360H176V344Z" fill="black"/>
<path d="M176 376H224V392H176V376Z" fill="black"/>
<path d="M176 408H256V424H176V408Z" fill="black"/>
<path d="M240 376H256V392H240V376Z" fill="black"/>
</svg>
