<svg width="520" height="518" viewBox="0 0 520 518" fill="none" xmlns="http://www.w3.org/2000/svg">
<path d="M511.605 244.096C508.797 242.932 505.565 243.575 503.415 245.724L480.908 268.231V115.2C480.908 111.049 477.543 107.685 473.393 107.685H415.652L436.612 86.7248C436.615 86.7218 436.618 86.7178 436.621 86.7148L456.817 66.5188C461.144 62.1918 463.527 56.4358 463.527 50.3158C463.527 44.1958 461.144 38.4418 456.817 34.1128L433.463 10.7588C429.136 6.43183 423.38 4.04883 417.26 4.04883C411.14 4.04883 405.385 6.43183 401.057 10.7588L380.851 30.9648L356.435 55.3808L304.132 107.684H70.8641V33.3388C70.8641 29.1878 67.4991 25.8238 63.3491 25.8238C30.7591 25.8258 4.24414 52.3388 4.24414 84.9308V404.117C4.24414 404.672 4.30814 405.212 4.42214 405.732C5.46014 419.561 11.4431 432.41 21.4421 442.164C32.1301 452.588 46.2391 458.329 61.1711 458.329H290.809L247.56 501.578C245.411 503.728 244.768 506.959 245.931 509.768C247.094 512.576 249.835 514.407 252.874 514.407H508.729C512.879 514.407 516.244 511.043 516.244 506.892V251.039C516.244 248 514.412 245.259 511.605 244.096ZM411.687 21.3878C414.759 18.3138 419.764 18.3138 422.836 21.3878L446.191 44.7428C449.265 47.8158 449.265 52.8188 446.191 55.8928L431.3 70.7848L396.794 36.2798L411.687 21.3878ZM386.166 46.9078L420.671 81.4118L406.882 95.2008L372.379 60.6968L386.166 46.9078ZM501.216 335.481H487.351C483.2 335.481 479.836 338.845 479.836 342.996C479.836 347.147 483.2 350.511 487.351 350.511H501.216V373.157H487.351C483.2 373.157 479.836 376.521 479.836 380.672C479.836 384.823 483.2 388.187 487.351 388.187H501.216V410.832H487.351C483.2 410.832 479.836 414.196 479.836 418.347C479.836 422.498 483.2 425.862 487.351 425.862H501.216V448.508H487.351C483.2 448.508 479.836 451.873 479.836 456.023C479.836 460.174 483.2 463.538 487.351 463.538H501.216V499.38H271.016L346.924 423.473C349.859 420.537 349.859 415.78 346.924 412.845C346.587 412.508 346.225 412.216 345.846 411.956C342.92 409.952 338.894 410.247 336.295 412.845L305.839 443.301H61.1721C38.3801 443.301 20.0321 425.507 19.3101 402.756C19.3531 401.328 19.4641 399.912 19.6421 398.512C19.6431 398.504 19.6441 398.496 19.6451 398.488C19.7291 397.823 19.8301 397.161 19.9451 396.503C19.9581 396.428 19.9721 396.353 19.9851 396.278C20.0901 395.691 20.2081 395.107 20.3371 394.525C20.3731 394.363 20.4111 394.201 20.4491 394.04C20.5631 393.548 20.6861 393.059 20.8181 392.572C20.8901 392.308 20.9651 392.047 21.0421 391.784C21.1521 391.402 21.2661 391.021 21.3871 390.644C21.5081 390.267 21.6371 389.894 21.7681 389.521C21.8591 389.26 21.9491 388.999 22.0471 388.74C22.2301 388.248 22.4241 387.761 22.6241 387.278C22.6811 387.139 22.7371 386.998 22.7961 386.859C23.0531 386.259 23.3201 385.666 23.6021 385.08C23.6141 385.055 23.6251 385.03 23.6371 385.005C29.5151 372.841 40.8201 363.772 54.3871 360.958C54.4251 360.95 54.4631 360.941 54.5011 360.933C55.1231 360.806 55.7511 360.697 56.3831 360.596C56.4881 360.579 56.5931 360.558 56.7001 360.542C57.2711 360.455 57.8481 360.387 58.4251 360.322C58.5871 360.304 58.7481 360.279 58.9111 360.263C59.4681 360.207 60.0301 360.17 60.5921 360.135C60.7701 360.124 60.9481 360.105 61.1261 360.096C61.8621 360.059 62.6041 360.04 63.3491 360.04C67.4991 360.04 70.8641 356.676 70.8641 352.525V298.036C70.8641 293.885 67.4991 290.521 63.3491 290.521C59.1991 290.521 55.8341 293.885 55.8341 298.036V345.483C43.1441 347.088 31.3651 352.748 22.0771 361.818C21.1001 362.772 20.1741 363.764 19.2721 364.772V84.9308C19.2721 63.1898 35.0981 45.0728 55.8331 41.4948V115.2V267.977V267.978C55.8331 272.128 59.1981 275.493 63.3481 275.493C67.4981 275.493 70.8631 272.128 70.8631 267.978V267.977V122.715H289.103L247.559 164.259C244.624 167.195 244.624 171.952 247.559 174.887C250.494 177.821 255.252 177.821 258.186 174.887L312.559 120.514C312.561 120.512 312.562 120.51 312.564 120.509L361.749 71.3238L396.252 105.829L392.204 109.877C392.201 109.88 392.197 109.883 392.194 109.886L240.666 261.416L206.162 226.912L236.03 197.044C238.965 194.108 238.965 189.351 236.03 186.416C233.095 183.482 228.337 183.482 225.403 186.416L190.22 221.598C190.032 221.786 189.856 221.985 189.691 222.189C189.636 222.257 189.587 222.33 189.535 222.401C189.429 222.542 189.325 222.684 189.228 222.832C189.173 222.918 189.123 223.006 189.071 223.095C188.988 223.235 188.908 223.377 188.835 223.522C188.787 223.616 188.744 223.711 188.7 223.809C188.633 223.956 188.571 224.106 188.514 224.256C188.494 224.309 188.468 224.359 188.449 224.412L173.808 265.887L163.826 294.166C163.694 294.542 163.599 294.924 163.528 295.309H138.536C134.386 295.309 131.021 298.673 131.021 302.824C131.021 306.975 134.386 310.339 138.536 310.339H346.65C350.801 310.339 354.165 306.975 354.165 302.824C354.165 298.673 350.801 295.309 346.65 295.309H197.337L243.167 279.131C243.205 279.117 243.241 279.098 243.279 279.084C243.457 279.018 243.632 278.944 243.805 278.865C243.874 278.833 243.943 278.803 244.01 278.77C244.19 278.68 244.367 278.581 244.541 278.475C244.597 278.441 244.655 278.41 244.71 278.375C244.891 278.259 245.067 278.132 245.24 277.998C245.283 277.965 245.328 277.936 245.37 277.902C245.579 277.734 245.784 277.553 245.978 277.359L400.622 122.716H465.877V283.262L358.381 390.759C355.446 393.695 355.446 398.452 358.381 401.387C358.564 401.57 358.755 401.742 358.952 401.903C360.33 403.026 362.013 403.588 363.695 403.588C365.377 403.588 367.061 403.026 368.438 401.903C368.635 401.743 368.826 401.57 369.009 401.387C369.012 401.384 369.009 401.387 369.012 401.384L501.216 269.179V335.481ZM226.921 268.925L205.395 276.524L191.053 262.182L198.652 240.656L226.921 268.925Z" fill="white" stroke="white" stroke-width="7"/>
</svg>
