<svg width="951" height="951" viewBox="0 0 951 951" fill="none" xmlns="http://www.w3.org/2000/svg">
<circle cx="475.828" cy="475.629" r="459.598" fill="white" stroke="#DF1F26" stroke-width="31"/>
<path d="M566.65 688.066H301.046V342.045C301.046 338.171 297.905 335.031 294.032 335.031C290.158 335.031 287.018 338.171 287.018 342.045V690.404C287.018 696.85 292.262 702.094 298.708 702.094H566.65C570.523 702.094 573.663 698.954 573.664 695.08C573.664 691.205 570.523 688.066 566.65 688.066Z" fill="#DF1F26" stroke="#DF1F26" stroke-width="13"/>
<path d="M667.54 287.642L607.921 226.343C606.6 224.985 604.787 224.219 602.893 224.219H298.708C292.262 224.219 287.019 229.464 287.018 235.91V290.617C287.018 294.491 290.158 297.631 294.032 297.631C297.905 297.631 301.046 294.491 301.046 290.617V238.248H599.93L655.499 295.381V688.071H615.747C611.874 688.071 608.733 691.211 608.733 695.085C608.733 698.96 611.874 702.099 615.747 702.099H657.836C664.283 702.099 669.526 696.856 669.526 690.41V292.531C669.526 290.705 668.814 288.951 667.54 287.642Z" fill="#DF1F26" stroke="#DF1F26" stroke-width="5"/>
<path d="M667.538 287.641L607.918 226.343C605.927 224.297 602.896 223.66 600.252 224.734C597.607 225.809 595.877 228.378 595.877 231.233V292.531C595.877 296.405 599.018 299.545 602.891 299.545H662.51C665.33 299.545 667.875 297.858 668.971 295.26C670.068 292.663 669.503 289.661 667.538 287.641ZM609.905 285.517V248.503L645.904 285.517H609.905Z" fill="#DF1F26" stroke="#DF1F26" stroke-width="13"/>
<path d="M510.733 261.453H341.733C335.287 261.453 330.043 266.698 330.043 273.143V311.909C330.043 318.355 335.288 323.599 341.733 323.599H510.733C517.179 323.599 522.424 318.355 522.424 311.91V273.143C522.424 266.696 517.179 261.453 510.733 261.453ZM508.395 309.57H344.071V275.481H508.395V309.57Z" fill="#DF1F26" stroke="#DF1F26" stroke-width="13"/>
<path d="M400.099 360.312C397.016 357.97 392.615 358.568 390.27 361.652L359.28 402.429L349.973 394.285C347.058 391.733 342.627 392.029 340.075 394.945C337.524 397.86 337.82 402.291 340.735 404.842L355.698 417.934C356.982 419.057 358.626 419.669 360.316 419.669C360.551 419.669 360.787 419.657 361.024 419.635C362.958 419.438 364.725 418.448 365.901 416.9L401.439 370.14C403.783 367.057 403.183 362.656 400.099 360.312Z" fill="#DF1F26" stroke="#DF1F26" stroke-width="13"/>
<path d="M611.19 358.875H434.53C430.656 358.875 427.516 362.015 427.516 365.889C427.516 369.764 430.656 372.903 434.53 372.903H611.19C615.063 372.903 618.204 369.764 618.204 365.889C618.204 362.015 615.063 358.875 611.19 358.875Z" fill="#DF1F26" stroke="#DF1F26" stroke-width="13"/>
<path d="M549.226 382.258H434.53C430.656 382.258 427.516 385.398 427.516 389.272C427.516 393.146 430.656 396.286 434.53 396.286H549.226C553.099 396.286 556.24 393.146 556.24 389.272C556.24 385.398 553.099 382.258 549.226 382.258Z" fill="#DF1F26" stroke="#DF1F26" stroke-width="13"/>
<path d="M575.411 405.641H434.53C430.656 405.641 427.516 408.78 427.516 412.655C427.516 416.529 430.656 419.669 434.53 419.669H575.411C579.285 419.669 582.425 416.529 582.425 412.655C582.425 408.78 579.285 405.641 575.411 405.641Z" fill="#DF1F26" stroke="#DF1F26" stroke-width="13"/>
<path d="M400.099 455.703C397.016 453.36 392.615 453.959 390.27 457.043L359.28 497.82L349.973 489.676C347.058 487.125 342.627 487.421 340.075 490.336C337.524 493.251 337.82 497.682 340.735 500.233L355.698 513.325C356.982 514.448 358.626 515.06 360.316 515.06C360.551 515.06 360.787 515.048 361.024 515.026C362.958 514.829 364.725 513.839 365.901 512.291L401.439 465.531C403.783 462.448 403.183 458.049 400.099 455.703Z" fill="#DF1F26" stroke="#DF1F26" stroke-width="13"/>
<path d="M611.19 454.273H434.53C430.656 454.273 427.516 457.413 427.516 461.288C427.516 465.162 430.656 468.302 434.53 468.302H611.19C615.063 468.302 618.204 465.162 618.204 461.288C618.204 457.413 615.063 454.273 611.19 454.273Z" fill="#DF1F26" stroke="#DF1F26" stroke-width="13"/>
<path d="M549.226 477.648H434.53C430.656 477.648 427.516 480.788 427.516 484.663C427.516 488.537 430.656 491.677 434.53 491.677H549.226C553.099 491.677 556.24 488.537 556.24 484.663C556.24 480.788 553.099 477.648 549.226 477.648Z" fill="#DF1F26" stroke="#DF1F26" stroke-width="13"/>
<path d="M575.411 501.031H434.53C430.656 501.031 427.516 504.171 427.516 508.045C427.516 511.92 430.656 515.06 434.53 515.06H575.411C579.285 515.06 582.425 511.92 582.425 508.045C582.425 504.171 579.285 501.031 575.411 501.031Z" fill="#DF1F26" stroke="#DF1F26" stroke-width="13"/>
<path d="M611.19 549.664H434.53C430.656 549.664 427.516 552.804 427.516 556.678C427.516 560.553 430.656 563.692 434.53 563.692H611.19C615.063 563.692 618.203 560.553 618.204 556.678C618.204 552.804 615.063 549.664 611.19 549.664Z" fill="#DF1F26" stroke="#DF1F26" stroke-width="13"/>
<path d="M549.226 573.047H434.53C430.656 573.047 427.516 576.187 427.516 580.061C427.516 583.935 430.656 587.075 434.53 587.075H549.226C553.099 587.075 556.24 583.935 556.24 580.061C556.24 576.187 553.099 573.047 549.226 573.047Z" fill="#DF1F26" stroke="#DF1F26" stroke-width="13"/>
<path d="M575.411 596.422H434.53C430.656 596.422 427.516 599.562 427.516 603.436C427.516 607.31 430.656 610.45 434.53 610.45H575.411C579.285 610.45 582.425 607.31 582.425 603.436C582.425 599.562 579.285 596.422 575.411 596.422Z" fill="#DF1F26" stroke="#DF1F26" stroke-width="13"/>
<path d="M387.436 549.664H350.028C343.582 549.664 338.338 554.909 338.338 561.354V598.762C338.338 605.208 343.582 610.452 350.028 610.452H387.436C393.883 610.452 399.127 605.208 399.127 598.763V561.354C399.127 554.908 393.882 549.664 387.436 549.664ZM385.099 596.424H352.367V563.692H385.099V596.424Z" fill="#DF1F26" stroke="#DF1F26" stroke-width="13"/>
</svg>
