<svg width="951" height="951" viewBox="0 0 951 951" fill="none" xmlns="http://www.w3.org/2000/svg">
<circle cx="475.121" cy="475.629" r="459.598" fill="white" stroke="#DF1F26" stroke-width="31"/>
<path d="M675.828 339.065C672.384 325.94 643.347 318.669 610.915 314.649C617.778 309.363 636.148 292.362 636.148 261.636C636.148 224.679 609.513 207.517 608.376 206.805L599.856 220.362C600.056 220.49 620.132 233.439 620.132 261.636C620.132 289.496 600.641 302.396 599.856 302.901L606.935 314.16C579.243 310.973 549.822 310.036 532.052 309.78V284.186C541.349 280.871 548.068 272.062 548.068 261.636C548.068 248.39 537.289 237.612 524.044 237.612C510.799 237.612 500.02 248.39 500.02 261.636C500.02 272.062 506.738 280.871 516.036 284.186V309.7C501.749 309.772 471.535 310.324 441.721 313.255L448.224 302.909C448.016 302.781 427.94 289.832 427.94 261.636C427.94 233.776 447.431 220.875 448.256 220.346L443.956 213.587L439.695 206.805C438.558 207.517 411.923 224.679 411.923 261.636C411.923 290.937 428.628 307.746 436.132 313.832C400.985 317.66 367.927 325.003 364.236 339.065C361.337 344.31 358.742 349.556 356.356 354.793L222.261 310.1L221.028 309.684H203.715V325.7H218.434L350.23 369.632C343.359 388.555 339.851 407.35 339.851 425.8V459.794L317.421 500.915L218.434 533.908H203.715V549.925H221.028L306.17 521.544L295.391 541.3C293.044 545.608 291.803 550.477 291.803 555.386C291.803 569.921 302.654 582.445 317.052 584.511L347.859 588.9V613.989C347.859 644.892 373.012 670.045 403.915 670.045H427.94V702.077H443.956V654.029H403.915C381.837 654.029 363.875 636.067 363.875 613.989V575.014L319.327 568.647C312.76 567.71 307.819 562.009 307.819 555.386C307.819 553.152 308.38 550.926 309.453 548.964L328.464 514.113L461.453 469.78C507.563 469.1 543.856 437.148 545.393 435.77L552.056 429.804L545.393 423.838C543.856 422.461 507.563 390.509 461.453 389.828L371.635 359.886C372.42 358.204 373.173 356.523 374.013 354.841C405.053 372.667 498.378 373.748 520.032 373.748C541.685 373.748 635.011 372.667 666.05 354.841C678.078 378.913 684.196 402.745 684.196 425.8C684.196 478.269 666.579 530.065 634.587 571.65L604.116 611.266V702.077H620.132V616.711L647.287 581.412C681.409 537.048 700.212 481.776 700.212 425.8C700.212 397.436 691.98 368.254 675.828 339.065ZM496.288 413.18C509.421 418.305 520.256 424.999 526.999 429.804C520.256 434.601 509.421 441.296 496.288 446.429C498.626 441.344 500.012 435.746 500.012 429.804C500.012 423.862 498.626 418.265 496.288 413.18ZM459.972 405.78C473.217 405.78 483.996 416.559 483.996 429.804C483.996 443.049 473.217 453.828 459.972 453.828C446.726 453.828 435.948 443.049 435.948 429.804C435.948 416.559 446.726 405.78 459.972 405.78ZM426.562 395.073C396.612 404.387 375.711 422.797 374.55 423.838L367.887 429.804L374.55 435.77C375.711 436.811 396.604 455.222 426.562 464.535L339.723 493.484L355.867 463.878V425.8C355.867 409.103 359.103 391.998 365.429 374.701L426.562 395.073ZM423.655 446.429C410.522 441.304 399.687 434.609 392.944 429.804C399.687 425.007 410.522 418.313 423.655 413.18C421.317 418.265 419.932 423.862 419.932 429.804C419.932 435.746 421.317 441.344 423.655 446.429ZM516.028 261.636C516.028 257.215 519.615 253.628 524.036 253.628C528.456 253.628 532.044 257.215 532.044 261.636C532.044 266.056 528.456 269.644 524.036 269.644C519.615 269.644 516.028 266.056 516.028 261.636ZM520.032 357.732C445.453 357.732 394.314 348.835 381.805 341.716C394.082 334.733 443.659 326.044 516.028 325.732V341.716H532.044V325.788C600.064 326.677 646.438 334.989 658.258 341.716C645.75 348.835 594.611 357.732 520.032 357.732Z" fill="#DF1F26" stroke="#DF1F26" stroke-width="8"/>
<path d="M572.086 261.635C572.086 277.387 559.417 287.156 559.321 287.22L568.835 300.105C569.619 299.529 588.102 285.619 588.102 261.635C588.102 237.651 569.619 223.741 568.835 223.156L559.289 236.009C559.417 236.113 572.086 245.883 572.086 261.635Z" fill="#DF1F26"/>
<path d="M479.236 300.113L488.782 287.26C488.653 287.156 475.985 277.387 475.985 261.635C475.985 245.883 488.653 236.113 488.79 236.017L483.993 229.603L479.236 223.156C478.451 223.741 459.969 237.651 459.969 261.635C459.969 285.619 478.451 299.529 479.236 300.113Z" fill="#DF1F26" stroke="#DF1F26" stroke-width="8"/>
</svg>
