<svg width="951" height="951" viewBox="0 0 951 951" fill="none" xmlns="http://www.w3.org/2000/svg">
<circle cx="475.871" cy="475.668" r="459.598" fill="white" stroke="#DF1F26" stroke-width="31"/>
<path d="M671.592 456.928C654.17 448.218 621.505 448.117 620.123 448.117C615.981 448.117 612.623 451.475 612.623 455.617C612.623 459.759 615.981 463.117 620.123 463.117C628.552 463.118 653.025 464.416 664.884 470.345C665.961 470.884 667.105 471.138 668.232 471.138C670.983 471.138 673.632 469.618 674.946 466.991C676.799 463.286 675.297 458.781 671.592 456.928Z" fill="#DF1F26" stroke="#DF1F26" stroke-width="6"/>
<path d="M708.983 563.709L678.008 554.859C676.671 554.477 675.737 553.239 675.737 551.848V541.509C678.257 539.763 680.661 537.809 682.908 535.628C693.798 525.06 699.795 510.885 699.795 495.713V481.446L702.79 475.457C706.077 468.882 707.814 461.521 707.814 454.171V415.521C707.814 411.379 704.456 408.021 700.314 408.021H628.141C601.897 408.021 580.545 429.373 580.545 455.617V456.064C580.545 462.176 581.99 468.297 584.723 473.763L588.564 481.445V493.695C588.564 513.109 598.131 530.528 612.622 541.01L612.624 551.846C612.624 553.517 612.624 554.209 606.431 555.979L591.317 560.297L547.596 544.399C547.753 542.336 547.057 540.238 545.552 538.657L531.581 523.979V499.339C533.058 498.122 534.514 496.872 535.925 495.55C553.55 479.03 563.658 455.706 563.658 431.559V411.881C568.98 400.3 571.677 388.045 571.677 375.424V295.234C571.677 291.092 568.319 287.734 564.177 287.734H451.908C412.398 287.734 380.255 319.878 380.255 359.387V375.426C380.255 388.047 382.952 400.302 388.274 411.883V428.814C388.274 456.85 400.74 482.108 420.351 498.76V523.98L406.38 538.658C404.875 540.239 404.179 542.337 404.336 544.4L358.191 561.179C354.847 562.395 351.74 564.042 348.919 566.037L341.673 562.414C363.243 553.025 370.076 539.82 370.404 539.164C371.46 537.053 371.46 534.567 370.404 532.456C364.997 521.642 364.342 501.821 363.816 485.895C363.641 480.593 363.475 475.584 363.158 471.124C360.601 435.15 333.253 408.021 299.543 408.021C265.833 408.021 238.484 435.149 235.928 471.124C235.611 475.585 235.445 480.594 235.27 485.897C234.744 501.822 234.088 521.641 228.682 532.455C227.626 534.566 227.626 537.052 228.682 539.163C229.01 539.819 235.829 552.997 257.442 562.397L237.315 572.46C226.555 577.844 219.871 588.659 219.871 600.688V656.097C219.871 660.239 223.229 663.597 227.371 663.597C231.513 663.597 234.871 660.239 234.871 656.097V600.688C234.871 594.376 238.378 588.701 244.023 585.878L269.086 573.347L277.804 581.632C283.9 587.425 291.72 590.32 299.543 590.32C307.364 590.32 315.188 587.423 321.282 581.632L329.999 573.348L338.171 577.434C334.323 583.591 332.139 590.811 332.139 598.374V656.099C332.139 660.241 335.497 663.599 339.639 663.599C343.781 663.599 347.139 660.241 347.139 656.099V598.374C347.139 588.078 353.64 578.796 363.317 575.277L411.969 557.586L432.222 587.967C434.811 591.851 438.96 594.342 443.605 594.802C444.123 594.853 444.638 594.878 445.152 594.878C449.25 594.878 453.175 593.265 456.109 590.332L468.465 577.976V656.1C468.465 660.242 471.823 663.6 475.965 663.6C480.107 663.6 483.465 660.242 483.465 656.1V577.976L495.821 590.332C498.754 593.266 502.679 594.879 506.778 594.879C507.291 594.879 507.807 594.854 508.324 594.803C512.97 594.343 517.119 591.852 519.708 587.968L539.962 557.588L588.613 575.279C598.289 578.798 604.791 588.08 604.791 598.376V656.101C604.791 660.243 608.149 663.601 612.291 663.601C616.433 663.601 619.791 660.243 619.791 656.101V598.376C619.791 587.948 615.648 578.168 608.698 570.935L610.551 570.406C612.42 569.872 614.97 569.141 617.53 567.886L636.679 587.035V656.101C636.679 660.243 640.037 663.601 644.179 663.601C648.321 663.601 651.679 660.243 651.679 656.101V587.035L670.695 568.019C671.706 568.533 672.768 568.967 673.886 569.286L704.862 578.136C711.932 580.156 716.871 586.703 716.871 594.057V656.101C716.871 660.243 720.229 663.601 724.371 663.601C728.513 663.601 731.871 660.243 731.871 656.101V594.057C731.871 580.039 722.459 567.56 708.983 563.709ZM267.986 550.462C253.957 545.414 246.92 538.684 243.916 535.009C245.964 529.655 247.292 523.523 248.191 517.05C252.327 526.967 259.254 535.433 267.986 541.473V550.462ZM310.951 570.76C304.554 576.838 294.533 576.837 288.138 570.759L281.163 564.131C282.34 561.926 282.987 559.426 282.987 556.807V548.813C288.219 550.448 293.781 551.33 299.545 551.33C305.302 551.33 310.861 550.444 316.102 548.818L316.101 556.806C316.101 559.426 316.747 561.927 317.925 564.133L310.951 570.76ZM299.547 536.33C277.151 536.33 258.932 518.11 258.932 495.715C258.932 491.573 255.574 488.215 251.432 488.215C251.012 488.215 250.602 488.258 250.201 488.325C250.223 487.68 250.244 487.034 250.266 486.395C250.433 481.238 250.594 476.367 250.891 472.189C251.849 458.713 257.234 446.295 266.054 437.221C274.953 428.065 286.847 423.023 299.545 423.023C312.243 423.023 324.136 428.065 333.036 437.221C341.856 446.295 347.241 458.713 348.199 472.189C348.495 476.366 348.657 481.236 348.827 486.392C348.842 486.835 348.857 487.284 348.872 487.73C340.712 475.158 328.11 465.893 311.827 460.661C296.784 455.828 283.846 456.127 283.3 456.141C281.336 456.196 279.472 457.018 278.109 458.432L264.577 472.466C261.702 475.448 261.788 480.196 264.77 483.071C267.752 485.946 272.5 485.859 275.375 482.878L286.635 471.201C296.332 471.675 327.529 475.303 339.662 502.02C336.609 521.708 319.687 536.33 299.547 536.33ZM331.1 550.487L331.101 541.542C339.826 535.535 346.763 527.085 350.902 517.093C351.801 523.551 353.128 529.669 355.172 535.011C352.185 538.651 345.115 545.441 331.1 550.487ZM403.274 428.813V410.205C403.274 409.076 403.019 407.961 402.528 406.944C397.702 396.95 395.255 386.346 395.255 375.426V359.388C395.255 328.149 420.67 302.735 451.908 302.735H556.677V375.427C556.677 386.347 554.23 396.951 549.404 406.945C548.913 407.962 548.658 409.077 548.658 410.206V431.561C548.658 451.872 540.493 470.711 525.667 484.608C523.816 486.342 521.895 487.968 519.909 489.483C519.865 489.513 519.823 489.546 519.78 489.577C505.891 500.122 488.879 505.247 471.113 504.096C433.072 501.633 403.274 468.565 403.274 428.813ZM445.503 579.724C445.451 579.776 445.33 579.899 445.085 579.873C444.841 579.849 444.745 579.706 444.704 579.644L421.379 544.656L428.885 536.769L464.27 560.956L445.503 579.724ZM475.966 550.781L435.351 523.019V509.019C445.86 514.7 457.627 518.253 470.142 519.063C472.119 519.191 474.084 519.254 476.043 519.254C490.384 519.254 504.186 515.826 516.581 509.319V523.019L475.966 550.781ZM507.228 579.646C507.187 579.708 507.091 579.851 506.847 579.875C506.602 579.906 506.482 579.777 506.429 579.726L487.662 560.959L523.047 536.771L530.554 544.658L507.228 579.646ZM644.179 573.318L627.159 556.299C627.456 554.95 627.624 553.473 627.623 551.844L627.622 548.679C632.345 550.229 637.323 551.149 642.474 551.303C643.052 551.321 643.625 551.329 644.201 551.329C649.893 551.329 655.449 550.469 660.737 548.828V551.848C660.737 553.344 660.925 554.81 661.279 556.219L644.179 573.318ZM672.462 524.864C664.513 532.578 654.012 536.652 642.925 536.31C621.221 535.659 603.564 516.542 603.564 493.697V479.676C603.564 478.511 603.293 477.363 602.772 476.322L598.139 467.056C596.442 463.661 595.545 459.861 595.545 456.065V455.618C595.545 437.644 610.168 423.022 628.141 423.022H692.814V454.172C692.814 459.206 691.624 464.247 689.373 468.75L685.587 476.322C685.066 477.364 684.795 478.511 684.795 479.676V495.714C684.795 506.794 680.415 517.146 672.462 524.864Z" fill="#DF1F26" stroke="#DF1F26" stroke-width="6"/>
<path d="M692.295 600.484C688.153 600.484 684.795 603.842 684.795 607.984V656.099C684.795 660.241 688.153 663.599 692.295 663.599C696.437 663.599 699.795 660.241 699.795 656.099V607.984C699.795 603.843 696.437 600.484 692.295 600.484Z" fill="#DF1F26" stroke="#DF1F26" stroke-width="6"/>
<path d="M537.404 378.14C509.038 349.774 449.689 355.197 425.487 358.845C417.864 359.994 412.332 366.445 412.332 374.184V391.462C412.332 395.604 415.69 398.962 419.832 398.962C423.974 398.962 427.332 395.604 427.332 391.462V374.183C427.332 373.928 427.5 373.71 427.724 373.676C437.391 372.219 456.574 369.971 476.449 371.296C499.837 372.853 516.777 378.724 526.798 388.746C529.727 391.675 534.476 391.675 537.404 388.746C540.333 385.817 540.333 381.068 537.404 378.14Z" fill="#DF1F26" stroke="#DF1F26" stroke-width="6"/>
<path d="M387.756 616.523C383.614 616.523 380.256 619.881 380.256 624.023V656.1C380.256 660.242 383.614 663.6 387.756 663.6C391.898 663.6 395.256 660.242 395.256 656.1V624.023C395.256 619.882 391.898 616.523 387.756 616.523Z" fill="#DF1F26" stroke="#DF1F26" stroke-width="6"/>
<path d="M564.178 616.523C560.036 616.523 556.678 619.881 556.678 624.023V656.1C556.678 660.242 560.036 663.6 564.178 663.6C568.32 663.6 571.678 660.242 571.678 656.1V624.023C571.678 619.882 568.32 616.523 564.178 616.523Z" fill="#DF1F26" stroke="#DF1F26" stroke-width="6"/>
</svg>
