<svg id="Layer_5" enable-background="new 0 0 64 64" height="512" viewBox="0 0 64 64" width="512" xmlns="http://www.w3.org/2000/svg"><g><g><g><path d="m21 49-11.76 11.76c-.79.79-1.87 1.24-3 1.24-1.17 0-2.23-.48-3-1.24-.76-.77-1.24-1.83-1.24-3 0-1.13.45-2.21 1.24-3l11.76-11.76 1 1 4 4z" fill="#969faa"/></g><g><path d="m24.31 43.69-4.31 4.31-4-4 4.31-4.31c1.04 1.6 2.4 2.96 4 4z" fill="#ccd1d9"/></g><g><path d="m13 26h6.35c-.86 1.81-1.35 3.84-1.35 5.97-.33.02-.66.03-1 .03-4.9 0-9.25-2.35-11.99-5.99l.01-.01z" fill="#e6e9ed"/></g><g><path d="m27.6 6.4c.93.92 1.74 1.97 2.4 3.12v8.62c-3.94.57-7.34 2.76-9.5 5.89l-.02-.01c-.35-.62-.86-1.13-1.48-1.48v-3.93c0-2.36-.7-4.65-2-6.61-1.3 1.96-2 4.25-2 6.61v3.93c-1.2.69-2 1.98-2 3.46h-7.98l-.01.01c-1.89-2.51-3.01-5.63-3.01-9.01 0-4.14 1.68-7.89 4.4-10.6 2.71-2.72 6.46-4.4 10.6-4.4s7.89 1.68 10.6 4.4z" fill="#4fc1e9"/></g><g><path d="m19 22.54c.62.35 1.13.86 1.48 1.48l.02.01c-.44.62-.82 1.28-1.15 1.97h-6.35c0-1.48.8-2.77 2-3.46.59-.34 1.27-.54 2-.54s1.41.19 2 .54z" fill="#b4dd7f"/></g><g><path d="m19 18.61v3.93c-.59-.35-1.27-.54-2-.54s-1.41.2-2 .54v-3.93c0-2.36.7-4.65 2-6.61 1.3 1.96 2 4.25 2 6.61z" fill="#ff826e"/></g><g><path d="m58 2h-24c-2.21 0-4 1.79-4 4v44c0 2.21 1.79 4 4 4h24c2.21 0 4-1.79 4-4v-44c0-2.21-1.79-4-4-4z" fill="#969faa"/></g><g><path d="m57 6h-22c-.55 0-1 .45-1 1v42c0 .55.45 1 1 1h22c.55 0 1-.45 1-1v-42c0-.55-.45-1-1-1z" fill="#e6e9ed"/></g><g><path d="m54 40v6h-16v-1.35c2.21-1.05 4.1-2.66 5.48-4.65z" fill="#b4dd7f"/></g><g><path d="m54 30v6h-8.58c.38-1.27.58-2.61.58-4 0-.68-.05-1.35-.14-2z" fill="#b4dd7f"/></g><g><path d="m54 20v6h-9.35c-1.18-2.5-3.09-4.59-5.44-6z" fill="#b4dd7f"/></g><g><path d="m38 10h16v6h-16z" fill="#b4dd7f"/></g><g><path d="m45.86 30c.09.65.14 1.32.14 2 0 1.39-.2 2.73-.58 4h-.01c-.42 1.44-1.08 2.79-1.93 4-1.38 1.99-3.27 3.6-5.48 4.65-1.25.59-2.59 1.01-4 1.21-.65.09-1.32.14-2 .14s-1.35-.05-2-.14c-2.08-.3-4.01-1.06-5.69-2.17-1.6-1.04-2.96-2.4-4-4-1.46-2.21-2.31-4.85-2.31-7.69 0-.01 0-.02 0-.03 0-2.13.49-4.16 1.35-5.97.33-.69.71-1.35 1.15-1.97 2.16-3.13 5.56-5.32 9.5-5.89.65-.09 1.32-.14 2-.14s1.35.05 2 .14c1.88.27 3.64.92 5.21 1.86 2.35 1.41 4.26 3.5 5.44 6 .59 1.25 1.01 2.59 1.21 4z" fill="#fcd770"/></g><g><path d="m41.95 31c-.5-5.05-4.77-9-9.95-9-5.52 0-10 4.48-10 10s4.48 10 10 10 10-4.48 10-10c0-.34-.02-.67-.05-1z" fill="#69d6f4"/></g></g><g><path d="m32 43c6.065 0 11-4.935 11-11s-4.935-11-11-11-11 4.935-11 11 4.935 11 11 11zm0-2c-4.624 0-8.442-3.507-8.941-8h3.264l2.812 7.03 2.971-9.901 2.763 7.369 2.749-5.498h3.382c0 4.963-4.038 9-9 9zm0-18c4.274 0 7.855 2.998 8.768 7h-4.386l-1.25 2.502-3.237-8.631-3.03 10.099-1.188-2.97h-4.618c.499-4.493 4.317-8 8.941-8z"/><path d="m58 1h-24c-2.757 0-5 2.243-5 5v.421c-3.008-3.4-7.376-5.421-12-5.421-8.822 0-16 7.178-16 16s7.178 16 16 16c.017 0 .034-.002.051-.002.157 2.372.864 4.591 2 6.537l-3.051 3.051-1-1-12.464 12.464c-.991.99-1.536 2.306-1.536 3.708 0 2.89 2.352 5.242 5.243 5.242 1.399 0 2.716-.545 3.707-1.535l12.464-12.465-1-1 3.051-3.051c1.389.811 2.91 1.417 4.535 1.748v3.303c0 2.757 2.243 5 5 5h24c2.757 0 5-2.243 5-5v-44c0-2.757-2.243-5-5-5zm-29 16.302c-3.399.693-6.382 2.54-8.525 5.111-.151-.146-.309-.282-.475-.407v-3.401c0-2.557-.75-5.033-2.168-7.16l-.832-1.248-.832 1.248c-1.418 2.127-2.168 4.604-2.168 7.16v3.42c-.953.721-1.652 1.762-1.899 2.974h-6.574c-1.408-2.013-2.292-4.409-2.477-7h3.95v-2h-3.949c.221-3.108 1.455-5.934 3.381-8.154l2.79 2.79 1.414-1.414-2.79-2.79c2.22-1.926 5.047-3.16 8.154-3.381v3.95h2v-3.962c3.036.219 5.897 1.429 8.162 3.385l-2.798 2.798 1.414 1.414 2.8-2.8c.527.606 1.001 1.263 1.422 1.962zm-10.256 7.698h-4.559c.414-1.161 1.514-2 2.816-2 .892 0 1.716.416 2.281 1.087-.188.299-.373.6-.538.913zm-.744-3.887c-.327-.068-.66-.113-1-.113-.342 0-.677.035-1 .101v-2.496c0-1.589.342-3.141 1-4.564.658 1.424 1 2.976 1 4.564zm-10.779 5.887h10.654c-.449 1.265-.732 2.604-.824 3.998-.017 0-.034.002-.051.002-3.804 0-7.254-1.53-9.779-4zm24.779-8c7.168 0 13 5.832 13 13s-5.832 13-13 13-13-5.832-13-13 5.832-13 13-13zm3 27.698c.687-.14 1.35-.342 2-.573v.875h18v-8h-9.744c.339-.639.623-1.31.868-2h8.876v-8h-8.302c-.14-.687-.342-1.35-.573-2h8.875v-8h-15.549c-1.366-.786-2.86-1.373-4.451-1.698v-10.302h22v42h-22zm8.972-5.698h9.028v4h-13.549c1.766-1.016 3.3-2.381 4.521-4zm-1.808-20h10.836v4h-7.744c-.798-1.506-1.851-2.852-3.092-4zm4.785 10h6.051v4h-6.302c.197-.97.302-1.973.302-3 0-.338-.029-.668-.051-1zm-38.413 29.05c-.613.613-1.428.95-2.293.95-1.788 0-3.243-1.454-3.243-3.242 0-.867.337-1.681.95-2.293l11.05-11.051 4.586 4.586zm11.464-13.464-2.586-2.586 2.779-2.779c.755.964 1.622 1.831 2.586 2.586zm41 3.414c0 1.654-1.346 3-3 3h-24c-1.654 0-3-1.346-3-3v-3.051c.332.022.662.051 1 .051s.668-.029 1-.051v2.051c0 1.103.897 2 2 2h22c1.103 0 2-.897 2-2v-42c0-1.103-.897-2-2-2h-22c-1.103 0-2 .897-2 2v10.051c-.332-.022-.662-.051-1-.051s-.668.029-1 .051v-11.051c0-1.654 1.346-3 3-3h24c1.654 0 3 1.346 3 3z"/><path d="m37 17h18v-8h-18zm2-6h14v4h-14z"/></g></g></svg>