<svg width="512" height="512" viewBox="0 0 512 512" fill="none" xmlns="http://www.w3.org/2000/svg">
<path d="M500.109 372.641C494.25 378.496 484.754 378.496 478.895 372.641L380.605 274.352L401.82 253.137L500.109 351.426C505.965 357.285 505.965 366.781 500.109 372.641Z" fill="#484B63"/>
<path d="M7.5 62.5H322.5V504.5H7.5V62.5Z" fill="#D8D5ED"/>
<path d="M40 307.727H100V469.727H40V307.727Z" fill="#FF2C5C"/>
<path d="M134 247.727H194V469.727H134V247.727Z" fill="#FFD659"/>
<path d="M230 269.727H290V469.727H230V269.727Z" fill="#4FC6F5"/>
<path d="M70 307.727H100V469.727H70V307.727Z" fill="#E62753"/>
<path d="M164 247.727H194V469.727H164V247.727Z" fill="#FFBD54"/>
<path d="M260 269.727H290V469.727H260V269.727Z" fill="#3BB3E3"/>
<path d="M408.341 54.0742C346.247 -8.01953 245.575 -8.01953 183.481 54.0742C121.392 116.164 121.392 216.836 183.481 278.93C245.575 341.023 346.247 341.023 408.341 278.93C470.435 216.836 470.435 116.164 408.341 54.0742Z" fill="#50536E"/>
<path d="M387.129 257.718C336.832 308.015 254.996 308.015 204.695 257.718C154.398 207.421 154.398 125.582 204.695 75.2847C254.992 24.9839 336.832 24.9878 387.129 75.2847C437.43 125.582 437.43 207.421 387.129 257.718Z" fill="#B5FCFF"/>
<path d="M387.129 75.2846C358.168 46.3197 318.75 34.0385 280.914 38.433C308.785 41.6674 335.797 53.9486 357.129 75.2846C407.426 125.581 407.426 207.421 357.129 257.718C335.797 279.054 308.785 291.331 280.914 294.57C318.75 298.96 358.168 286.679 387.129 257.718C437.426 207.421 437.426 125.581 387.129 75.2846V75.2846Z" fill="#71F6FC"/>
<path d="M505.425 344.151L428.48 267.194C447.069 242.698 458.675 213.335 461.651 182.549C465.296 144.768 455.886 106.596 435.151 75.0614C432.874 71.6004 428.222 70.6395 424.765 72.9168C421.304 75.1942 420.343 79.8465 422.62 83.3075C461.858 142.979 453.628 223.006 403.05 273.588C343.976 332.666 247.863 332.666 188.793 273.588C129.718 214.51 129.718 118.382 188.793 59.3036C247.863 0.225585 343.98 0.225585 403.03 59.2841L403.441 59.6981C406.362 62.6356 411.109 62.6552 414.046 59.7333C416.987 56.8153 417.003 52.0653 414.085 49.1278L413.655 48.6942C348.734 -16.2314 243.105 -16.2314 178.183 48.6942C176.144 50.7333 174.172 52.8114 172.261 54.9286H7.49999C3.35937 54.9286 0 58.288 0 62.4286V95.6004C0 99.7449 3.35937 103.104 7.49999 103.104C11.6445 103.104 15 99.7449 15 95.6004V69.9325H160.23C154.5 77.9832 149.57 86.4285 145.441 95.1668H51.9999C47.8593 95.1668 44.4999 98.5223 44.4999 102.667C44.4999 106.811 47.8593 110.167 51.9999 110.167H139.234C137.082 116.19 135.289 122.311 133.851 128.503H51.9999C47.8593 128.503 44.4999 131.858 44.4999 136.003C44.4999 140.143 47.8593 143.503 51.9999 143.503H131.078C130.238 149.585 129.734 155.706 129.566 161.835H51.9999C47.8593 161.835 44.4999 165.194 44.4999 169.339C44.4999 173.479 47.8593 176.839 51.9999 176.839H129.828C131.179 198.628 136.769 220.198 146.617 240.186H134.004C129.859 240.186 126.504 243.545 126.504 247.69V469.721C126.504 473.865 129.859 477.225 134.004 477.225H194.004C198.148 477.225 201.504 473.865 201.504 469.721V303.623C208.257 308.276 215.277 312.377 222.503 315.92V469.721C222.503 473.865 225.863 477.225 230.003 477.225H290.003C294.148 477.225 297.503 473.865 297.503 469.721V332.877C303.351 332.819 309.191 332.463 315.007 331.799V447.654C315.007 451.799 318.363 455.158 322.507 455.158C326.648 455.158 330.007 451.799 330.007 447.654V329.385C353.714 324.463 376.546 314.346 396.663 299.03L473.593 375.971C477.847 380.221 483.499 382.565 489.507 382.565C495.519 382.565 501.171 380.221 505.421 375.971C514.19 367.205 514.194 352.932 505.425 344.151V344.151ZM186.504 462.221H141.504V255.19H155.015C161.504 265.491 169.222 275.233 178.183 284.198C180.886 286.901 183.668 289.483 186.504 291.959V462.221ZM237.507 462.221V322.373C252.054 327.799 267.21 331.119 282.507 332.346V462.221H237.507ZM494.819 365.362C493.401 366.78 491.515 367.561 489.511 367.561C487.507 367.561 485.62 366.78 484.206 365.362L408.226 289.377C410.066 287.694 411.878 285.975 413.655 284.198C415.429 282.424 417.155 280.616 418.839 278.768L494.812 354.756C497.737 357.682 497.741 362.444 494.819 365.362V365.362Z" fill="black"/>
<path d="M322.508 472.496C318.367 472.496 315.008 475.852 315.008 479.996V497H15V128.109C15 123.965 11.6445 120.609 7.5 120.609C3.35938 120.609 0 123.965 0 128.109V504.5C0 508.645 3.35938 512 7.5 512H322.508C326.652 512 330.008 508.645 330.008 504.5V479.996C330.008 475.852 326.652 472.496 322.508 472.496V472.496Z" fill="black"/>
<path d="M32.5 307.695V469.723C32.5 473.863 35.8594 477.223 40 477.223H100.004C104.145 477.223 107.504 473.863 107.504 469.723V307.695C107.504 303.555 104.145 300.195 100.004 300.195H40C35.8594 300.195 32.5 303.555 32.5 307.695V307.695ZM47.5 315.199H92.5039V462.219H47.5V315.199Z" fill="black"/>
<path d="M108.082 210.184C112.227 210.184 115.582 206.824 115.582 202.68C115.582 198.539 112.227 195.18 108.082 195.18H52C47.8594 195.18 44.5 198.539 44.5 202.68C44.5 206.824 47.8594 210.184 52 210.184H108.082Z" fill="black"/>
<path d="M295.922 29.9883C259.422 29.9883 225.141 44.168 199.398 69.9141C173.656 95.6602 159.477 129.945 159.477 166.449C159.477 202.953 173.656 237.238 199.398 262.984C225.145 288.73 259.422 302.91 295.922 302.91C332.422 302.91 366.699 288.73 392.445 262.984C418.188 237.238 432.363 202.953 432.363 166.449C432.363 129.945 418.188 95.6602 392.445 69.9141C366.699 44.168 332.422 29.9883 295.922 29.9883V29.9883ZM381.836 252.375C358.926 275.289 328.414 287.906 295.922 287.906C263.426 287.906 232.918 275.289 210.008 252.375C187.094 229.461 174.477 198.945 174.477 166.449C174.477 133.949 187.094 103.434 210.008 80.5195C233.691 56.832 264.809 44.9844 295.922 44.9844C327.035 44.9844 358.152 56.832 381.836 80.5195C404.746 103.434 417.363 133.949 417.363 166.449C417.363 198.945 404.746 229.461 381.836 252.375V252.375Z" fill="black"/>
</svg>
