<svg height="512pt" viewBox="0 0 512 512" width="512pt" xmlns="http://www.w3.org/2000/svg"><path d="m266.667969 426.667969h-128c-5.890625 0-10.667969 4.777343-10.667969 10.664062 0 41.175781 33.492188 74.667969 74.667969 74.667969 41.171875 0 74.664062-33.492188 74.664062-74.667969 0-5.886719-4.777343-10.664062-10.664062-10.664062zm0 0" fill="#ffa000"/><path d="m202.667969 0c-29.421875 0-53.335938 23.9375-53.335938 53.332031 0 5.890625 4.78125 10.667969 10.667969 10.667969h85.332031c5.890625 0 10.667969-4.777344 10.667969-10.667969 0-29.394531-23.914062-53.332031-53.332031-53.332031zm0 0" fill="#ffa000"/><path d="m401.601562 395.347656c-10.050781-20.671875-60.269531-128.125-60.269531-214.015625 0-76.457031-62.207031-138.664062-138.664062-138.664062-76.460938 0-138.667969 62.207031-138.667969 138.664062 0 85.890625-50.21875 193.34375-60.265625 213.976563-2.476563 5.074218-3.734375 10.472656-3.734375 16.105468 0 20.160157 16.425781 36.585938 36.585938 36.585938h332.160156c20.160156 0 36.585937-16.425781 36.585937-36.585938 0-5.632812-1.257812-11.007812-3.730469-16.066406zm0 0" fill="#ffc107"/><path d="m368.746094 448h-332.160156c-20.179688 0-36.585938-16.425781-36.585938-36.585938 0-5.589843 1.257812-10.988281 3.710938-16.066406 10.070312-20.671875 60.289062-128.148437 60.289062-214.015625 0-76.457031 62.207031-138.664062 138.667969-138.664062 76.457031 0 138.664062 62.207031 138.664062 138.664062 0 85.867188 50.21875 193.34375 60.289063 214.015625 2.453125 5.101563 3.710937 10.476563 3.710937 16.066406 0 20.160157-16.402343 36.585938-36.585937 36.585938zm-166.078125-384c-64.707031 0-117.335938 52.628906-117.335938 117.332031 0 88.277344-47.785156 193.28125-62.441406 223.359375-1.023437 2.113282-1.558594 4.398438-1.558594 6.722656 0 8.425782 6.847657 15.253907 15.253907 15.253907h332.160156c8.40625 0 15.253906-6.828125 15.253906-15.253907 0-2.324218-.535156-4.609374-1.558594-6.722656-14.65625-30.097656-62.441406-135.101562-62.441406-223.359375 0-64.703125-52.628906-117.332031-117.332031-117.332031zm0 0"/><path d="m62.785156 405.332031c-1.429687 0-2.902344-.296875-4.308594-.917969-5.378906-2.367187-7.832031-8.679687-5.441406-14.058593 20.03125-45.265625 53.632813-132.605469 53.632813-209.023438 0-52.925781 43.070312-96 96-96 5.886719 0 10.664062 4.78125 10.664062 10.667969s-4.777343 10.667969-10.664062 10.667969c-41.175781 0-74.667969 33.492187-74.667969 74.664062 0 80.320313-34.730469 170.839844-55.445312 217.644531-1.769532 3.988282-5.675782 6.355469-9.769532 6.355469zm0 0"/><path d="m202.667969 512c-41.175781 0-74.667969-33.492188-74.667969-74.667969 0-5.886719 4.777344-10.664062 10.667969-10.664062 5.886719 0 10.664062 4.777343 10.664062 10.664062 0 29.421875 23.9375 53.335938 53.335938 53.335938 29.394531 0 53.332031-23.914063 53.332031-53.335938 0-5.886719 4.777344-10.664062 10.667969-10.664062 5.886719 0 10.664062 4.777343 10.664062 10.664062 0 41.175781-33.492187 74.667969-74.664062 74.667969zm0 0"/><path d="m245.332031 64c-5.886719 0-10.664062-4.777344-10.664062-10.667969 0-17.640625-14.359375-32-32-32-17.644531 0-32 14.359375-32 32 0 5.890625-4.78125 10.667969-10.667969 10.667969s-10.667969-4.777344-10.667969-10.667969c0-29.394531 23.9375-53.332031 53.335938-53.332031 29.394531 0 53.332031 23.9375 53.332031 53.332031 0 5.890625-4.777344 10.667969-10.667969 10.667969zm0 0"/><path d="m501.332031 85.332031h-42.664062c-3.949219 0-7.554688-2.175781-9.410157-5.628906-1.855468-3.457031-1.640624-7.683594.535157-10.945313l31.613281-47.425781h-22.738281c-5.890625 0-10.667969-4.777343-10.667969-10.664062 0-5.890625 4.777344-10.667969 10.667969-10.667969h42.664062c3.949219 0 7.554688 2.175781 9.410157 5.632812 1.855468 3.457032 1.640624 7.679688-.535157 10.941407l-31.613281 47.425781h22.738281c5.890625 0 10.667969 4.777344 10.667969 10.667969 0 5.886719-4.777344 10.664062-10.667969 10.664062zm0 0"/><path d="m437.332031 170.667969h-85.332031c-4.097656 0-7.828125-2.347657-9.621094-6.039063-1.769531-3.691406-1.28125-8.085937 1.28125-11.285156l71.464844-89.34375h-63.125c-5.886719 0-10.667969-4.777344-10.667969-10.667969 0-5.886719 4.78125-10.664062 10.667969-10.664062h85.332031c4.097657 0 7.832031 2.34375 9.621094 6.035156 1.773437 3.691406 1.28125 8.085937-1.277344 11.285156l-71.46875 89.34375h63.125c5.890625 0 10.667969 4.78125 10.667969 10.667969s-4.777344 10.667969-10.667969 10.667969zm0 0"/></svg>