<svg width="951" height="951" viewBox="0 0 951 951" fill="none" xmlns="http://www.w3.org/2000/svg">
<circle cx="475.168" cy="475.629" r="459.598" fill="white" stroke="#DF1F26" stroke-width="31"/>
<path d="M703.678 652.445H565.808L606.538 584.561C607.266 583.347 607.66 581.962 607.677 580.546C607.695 579.13 607.337 577.735 606.639 576.503C605.942 575.272 604.93 574.247 603.707 573.534C602.484 572.821 601.093 572.445 599.678 572.445H559.678V527.759L669.335 418.102C670.835 416.602 671.678 414.567 671.678 412.445V380.445H655.678V409.131L546.021 518.789C544.52 520.289 543.678 522.324 543.678 524.445V572.445H527.678V524.445C527.678 522.324 526.835 520.289 525.335 518.789L415.678 409.131V380.445H399.678V412.445C399.678 414.567 400.52 416.602 402.021 418.102L511.678 527.759V572.445H503.678C502.267 572.445 500.882 572.818 499.662 573.526C498.442 574.234 497.431 575.252 496.731 576.476L467.035 628.445H465.802L414.944 599.384L410.606 573.35C409.468 566.494 406.853 559.968 402.942 554.224C399.03 548.479 393.917 543.654 387.955 540.082L374.734 532.15C375.361 529.629 375.678 527.042 375.678 524.445V486.868C375.678 482.085 374.38 477.392 371.923 473.29C369.465 469.187 365.94 465.828 361.723 463.572C357.507 461.315 352.757 460.245 347.98 460.476C343.203 460.707 338.579 462.23 334.6 464.883L315.24 477.789C314.144 478.52 313.246 479.509 312.624 480.67C312.003 481.832 311.678 483.128 311.678 484.445V524.445C311.678 527.254 312.049 530.051 312.781 532.762L293.052 545.915C283.515 552.265 276.572 561.825 273.484 572.858C261.931 574.375 251.322 580.037 243.632 588.79C235.942 597.544 231.694 608.793 231.678 620.445V692.445C231.678 694.567 232.521 696.602 234.021 698.102C235.521 699.602 237.556 700.445 239.678 700.445H703.678C705.799 700.445 707.834 699.602 709.335 698.102C710.835 696.602 711.678 694.567 711.678 692.445V660.445C711.678 658.324 710.835 656.289 709.335 654.788C707.834 653.288 705.799 652.445 703.678 652.445ZM271.678 684.445H247.678V620.445C247.687 613.353 250.048 606.464 254.39 600.857C258.733 595.249 264.813 591.241 271.678 589.458V684.445ZM479.678 638.571L508.32 588.445H585.548L547.148 652.445H479.678V638.571ZM433.554 628.445H408.246L384.384 625.036L407.426 613.515L433.554 628.445ZM463.678 644.445V652.445H415.678V644.445H463.678ZM327.678 488.727L343.476 478.195C345.045 477.149 346.869 476.548 348.753 476.457C350.638 476.366 352.511 476.789 354.174 477.679C355.837 478.569 357.228 479.894 358.197 481.512C359.166 483.13 359.678 484.981 359.678 486.868V492.445H327.678V488.727ZM327.678 508.445H359.678V524.445C359.678 528.689 357.992 532.758 354.991 535.759C351.991 538.76 347.921 540.445 343.678 540.445C339.434 540.445 335.365 538.76 332.364 535.759C329.363 532.758 327.678 528.689 327.678 524.445V508.445ZM287.678 585.853C287.672 580.583 288.97 575.395 291.456 570.749C293.943 566.104 297.54 562.145 301.927 559.227L320.716 546.701C323.732 549.823 327.353 552.297 331.358 553.972C335.363 555.647 339.667 556.488 344.007 556.444C348.348 556.399 352.634 555.47 356.603 553.713C360.573 551.956 364.142 549.408 367.093 546.224L379.723 553.802C383.697 556.183 387.106 559.4 389.714 563.229C392.321 567.059 394.065 571.41 394.823 575.98L398.815 599.932L383.678 607.501V596.445H367.678V622.65L356.578 621.064L334.538 584.33L320.817 592.561L331.525 610.407L302.771 627.66L287.678 609.549V585.853ZM311.678 684.445H287.678V634.542L311.678 663.342V684.445ZM313.137 640.1L339.757 624.127L344.817 632.561C345.429 633.581 346.261 634.452 347.252 635.11C348.243 635.768 349.368 636.197 350.546 636.365L399.678 643.384V652.445H323.425L313.137 640.1ZM695.678 684.445H327.678V668.445H695.678V684.445Z" fill="#DF1F26" stroke="#DF1F26" stroke-width="8"/>
<path d="M431.678 348.445H447.678V412.445H431.678V348.445Z" fill="#DF1F26" stroke="#DF1F26" stroke-width="8"/>
<path d="M511.678 308.445C511.678 306.324 510.835 304.289 509.335 302.788C507.834 301.288 505.799 300.445 503.678 300.445H471.678C469.556 300.445 467.521 301.288 466.021 302.788C464.521 304.289 463.678 306.324 463.678 308.445V364.445C463.678 366.567 464.521 368.602 466.021 370.102C467.521 371.602 469.556 372.445 471.678 372.445H503.678C505.799 372.445 507.834 371.602 509.335 370.102C510.835 368.602 511.678 366.567 511.678 364.445V308.445ZM495.678 356.445H479.678V316.445H495.678V356.445Z" fill="#DF1F26" stroke="#DF1F26" stroke-width="8"/>
<path d="M575.678 356.445C575.678 354.324 574.835 352.289 573.335 350.788C571.834 349.288 569.799 348.445 567.678 348.445H535.678C533.556 348.445 531.521 349.288 530.021 350.788C528.521 352.289 527.678 354.324 527.678 356.445V420.445C527.678 422.567 528.521 424.602 530.021 426.102C531.521 427.602 533.556 428.445 535.678 428.445H567.678C569.799 428.445 571.834 427.602 573.335 426.102C574.835 424.602 575.678 422.567 575.678 420.445V356.445ZM559.678 412.445H543.678V364.445H559.678V412.445Z" fill="#DF1F26" stroke="#DF1F26" stroke-width="8"/>
<path d="M399.678 284.445H415.678V364.445H399.678V284.445Z" fill="#DF1F26" stroke="#DF1F26" stroke-width="8"/>
<path d="M495.678 268.445H511.678V284.445H495.678V268.445Z" fill="#DF1F26" stroke="#DF1F26" stroke-width="8"/>
<path d="M527.678 292.445H543.678V332.445H527.678V292.445Z" fill="#DF1F26" stroke="#DF1F26" stroke-width="8"/>
<path d="M559.678 308.445H575.678V332.445H559.678V308.445Z" fill="#DF1F26" stroke="#DF1F26" stroke-width="8"/>
<path d="M463.678 388.445H479.678V444.445H463.678V388.445Z" fill="#DF1F26" stroke="#DF1F26" stroke-width="8"/>
<path d="M495.678 388.445H511.678V412.445H495.678V388.445Z" fill="#DF1F26" stroke="#DF1F26" stroke-width="8"/>
<path d="M639.678 276.445C639.678 274.324 638.835 272.289 637.335 270.788C635.834 269.288 633.799 268.445 631.678 268.445H599.678C597.556 268.445 595.521 269.288 594.021 270.788C592.521 272.289 591.678 274.324 591.678 276.445V332.445C591.678 334.567 592.521 336.602 594.021 338.102C595.521 339.602 597.556 340.445 599.678 340.445H631.678C633.799 340.445 635.834 339.602 637.335 338.102C638.835 336.602 639.678 334.567 639.678 332.445V276.445ZM623.678 324.445H607.678V284.445H623.678V324.445Z" fill="#DF1F26" stroke="#DF1F26" stroke-width="8"/>
<path d="M655.678 284.445H671.678V356.445H655.678V284.445Z" fill="#DF1F26" stroke="#DF1F26" stroke-width="8"/>
<path d="M671.678 228.445C671.678 226.324 670.835 224.289 669.335 222.788C667.834 221.288 665.799 220.445 663.678 220.445H407.678C405.556 220.445 403.521 221.288 402.021 222.788C400.521 224.289 399.678 226.324 399.678 228.445V268.445H415.678V236.445H431.678V332.445H447.678V236.445H463.678V284.445H479.678V236.445H495.678V252.445H511.678V236.445H527.678V276.445H543.678V236.445H559.678V292.445H575.678V236.445H591.678V252.445H607.678V236.445H623.678V252.445H639.678V236.445H655.678V268.445H671.678V228.445Z" fill="#DF1F26" stroke="#DF1F26" stroke-width="8"/>
<path d="M591.678 356.445H607.678V436.445H591.678V356.445Z" fill="#DF1F26" stroke="#DF1F26" stroke-width="8"/>
<path d="M623.678 356.445H639.678V412.445H623.678V356.445Z" fill="#DF1F26" stroke="#DF1F26" stroke-width="8"/>
<path d="M495.678 428.445H511.678V476.445H495.678V428.445Z" fill="#DF1F26" stroke="#DF1F26" stroke-width="8"/>
<path d="M527.678 444.445H543.678V500.445H527.678V444.445Z" fill="#DF1F26" stroke="#DF1F26" stroke-width="8"/>
<path d="M559.678 444.445H575.678V468.445H559.678V444.445Z" fill="#DF1F26" stroke="#DF1F26" stroke-width="8"/>
</svg>
