<svg width="1161" height="1161" viewBox="0 0 1161 1161" fill="none" xmlns="http://www.w3.org/2000/svg">
<circle cx="580.291" cy="580.291" r="564.791" fill="#3C4FAF" stroke="#3C4FAF" stroke-width="31"/>
<path d="M744.828 427.757L677.828 360.757C676.891 359.82 675.619 359.293 674.293 359.293H419.293C416.531 359.293 414.293 361.532 414.293 364.293V796.293C414.293 799.054 416.531 801.293 419.293 801.293H741.293C744.055 801.293 746.293 799.054 746.293 796.293V431.293C746.293 429.967 745.767 428.695 744.828 427.757ZM679.293 376.364L729.222 426.293H679.293V376.364ZM736.293 791.293H424.293V369.293H669.293V431.293C669.293 434.054 671.531 436.293 674.293 436.293H736.293V791.293Z" fill="white" stroke="white" stroke-width="15"/>
<path d="M514.793 447.293H468.793C466.031 447.293 463.793 449.532 463.793 452.293V498.293C463.793 501.054 466.031 503.293 468.793 503.293H514.793C517.555 503.293 519.793 501.054 519.793 498.293V452.293C519.793 449.532 517.555 447.293 514.793 447.293ZM509.793 493.293H473.793V457.293H509.793V493.293Z" fill="white" stroke="white" stroke-width="15"/>
<path d="M514.793 514.926H468.793C466.031 514.926 463.793 517.165 463.793 519.926V565.926C463.793 568.687 466.031 570.926 468.793 570.926H514.793C517.555 570.926 519.793 568.687 519.793 565.926V519.926C519.793 517.165 517.555 514.926 514.793 514.926ZM509.793 560.926H473.793V524.926H509.793V560.926Z" fill="white" stroke="white" stroke-width="15"/>
<path d="M514.793 582.555H468.793C466.031 582.555 463.793 584.794 463.793 587.555V633.555C463.793 636.316 466.031 638.555 468.793 638.555H514.793C517.555 638.555 519.793 636.316 519.793 633.555V587.555C519.793 584.793 517.555 582.555 514.793 582.555ZM509.793 628.555H473.793V592.555H509.793V628.555Z" fill="white" stroke="white" stroke-width="15"/>
<path d="M514.793 650.188H468.793C466.031 650.188 463.793 652.427 463.793 655.188V701.188C463.793 703.948 466.031 706.188 468.793 706.188H514.793C517.555 706.188 519.793 703.948 519.793 701.188V655.188C519.793 652.427 517.555 650.188 514.793 650.188ZM509.793 696.188H473.793V660.188H509.793V696.188Z" fill="white" stroke="white" stroke-width="15"/>
<path d="M543.793 498.293C543.793 501.054 546.031 503.293 548.793 503.293H691.793C694.555 503.293 696.793 501.054 696.793 498.293C696.793 495.532 694.555 493.293 691.793 493.293H548.793C546.031 493.293 543.793 495.532 543.793 498.293Z" fill="white" stroke="white" stroke-width="15"/>
<path d="M691.793 560.926H548.793C546.031 560.926 543.793 563.165 543.793 565.926C543.793 568.687 546.031 570.926 548.793 570.926H691.793C694.555 570.926 696.793 568.687 696.793 565.926C696.793 563.165 694.555 560.926 691.793 560.926Z" fill="white" stroke="white" stroke-width="15"/>
<path d="M691.793 628.555H548.793C546.031 628.555 543.793 630.794 543.793 633.555C543.793 636.316 546.031 638.555 548.793 638.555H691.793C694.555 638.555 696.793 636.316 696.793 633.555C696.793 630.794 694.555 628.555 691.793 628.555Z" fill="white" stroke="white" stroke-width="15"/>
<path d="M691.793 696.188H548.793C546.031 696.188 543.793 698.427 543.793 701.188C543.793 703.948 546.031 706.188 548.793 706.188H691.793C694.555 706.188 696.793 703.948 696.793 701.188C696.793 698.427 694.555 696.188 691.793 696.188Z" fill="white" stroke="white" stroke-width="15"/>
<path d="M485.822 554.53C486.629 556.144 488.243 557.197 490.045 557.287C490.128 557.291 490.212 557.293 490.295 557.293C492.004 557.293 493.603 556.418 494.522 554.963L506.522 535.963C507.997 533.629 507.299 530.54 504.964 529.066C502.629 527.591 499.541 528.289 498.067 530.624L490.801 542.128L489.566 539.658C488.331 537.189 485.329 536.187 482.858 537.422C480.388 538.657 479.387 541.66 480.623 544.13L485.822 554.53Z" fill="white" stroke="white" stroke-width="15"/>
<path d="M639.293 422.293C639.293 419.532 637.055 417.293 634.293 417.293H526.293C523.531 417.293 521.293 419.532 521.293 422.293C521.293 425.054 523.531 427.293 526.293 427.293H634.293C637.055 427.293 639.293 425.054 639.293 422.293Z" fill="white" stroke="white" stroke-width="15"/>
</svg>
