<svg width="90" height="41" viewBox="0 0 90 41" fill="none" xmlns="http://www.w3.org/2000/svg">
<path d="M0 4C0 1.79086 1.79086 0 4 0H86C88.2091 0 90 1.79086 90 4V37C90 39.2091 88.2091 41 86 41H4C1.79086 41 0 39.2091 0 37V4Z" fill="#DF1F26"/>
<path d="M26.7783 23.6426C26.7783 23.1445 26.6025 22.7637 26.251 22.5C25.8994 22.2305 25.2666 21.9492 24.3525 21.6562C23.4385 21.3574 22.7148 21.0645 22.1816 20.7773C20.7285 19.9922 20.002 18.9346 20.002 17.6045C20.002 16.9131 20.1953 16.2979 20.582 15.7588C20.9746 15.2139 21.5342 14.7891 22.2607 14.4844C22.9932 14.1797 23.8135 14.0273 24.7217 14.0273C25.6357 14.0273 26.4502 14.1943 27.165 14.5283C27.8799 14.8564 28.4336 15.3223 28.8262 15.9258C29.2246 16.5293 29.4238 17.2148 29.4238 17.9824H26.7871C26.7871 17.3965 26.6025 16.9424 26.2334 16.6201C25.8643 16.292 25.3457 16.1279 24.6777 16.1279C24.0332 16.1279 23.5322 16.2656 23.1748 16.541C22.8174 16.8105 22.6387 17.168 22.6387 17.6133C22.6387 18.0293 22.8467 18.3779 23.2627 18.6592C23.6846 18.9404 24.3027 19.2041 25.1172 19.4502C26.6172 19.9014 27.71 20.4609 28.3955 21.1289C29.0811 21.7969 29.4238 22.6289 29.4238 23.625C29.4238 24.7324 29.0049 25.6025 28.167 26.2354C27.3291 26.8623 26.2012 27.1758 24.7832 27.1758C23.7988 27.1758 22.9023 26.9971 22.0938 26.6396C21.2852 26.2764 20.667 25.7812 20.2393 25.1543C19.8174 24.5273 19.6064 23.8008 19.6064 22.9746H22.252C22.252 24.3867 23.0957 25.0928 24.7832 25.0928C25.4102 25.0928 25.8994 24.9668 26.251 24.7148C26.6025 24.457 26.7783 24.0996 26.7783 23.6426ZM36.5605 27C36.4434 26.7715 36.3584 26.4873 36.3057 26.1475C35.6904 26.833 34.8906 27.1758 33.9062 27.1758C32.9746 27.1758 32.2012 26.9062 31.5859 26.3672C30.9766 25.8281 30.6719 25.1484 30.6719 24.3281C30.6719 23.3203 31.0439 22.5469 31.7881 22.0078C32.5381 21.4688 33.6191 21.1963 35.0312 21.1904H36.2002V20.6455C36.2002 20.2061 36.0859 19.8545 35.8574 19.5908C35.6348 19.3271 35.2803 19.1953 34.7939 19.1953C34.3662 19.1953 34.0293 19.2979 33.7832 19.5029C33.543 19.708 33.4229 19.9893 33.4229 20.3467H30.8828C30.8828 19.7959 31.0527 19.2861 31.3926 18.8174C31.7324 18.3486 32.2129 17.9824 32.834 17.7188C33.4551 17.4492 34.1523 17.3145 34.9258 17.3145C36.0977 17.3145 37.0264 17.6104 37.7119 18.2021C38.4033 18.7881 38.749 19.6143 38.749 20.6807V24.8027C38.7549 25.7051 38.8809 26.3877 39.127 26.8506V27H36.5605ZM34.46 25.2334C34.835 25.2334 35.1807 25.1514 35.4971 24.9873C35.8135 24.8174 36.0479 24.5918 36.2002 24.3105V22.6758H35.251C33.9795 22.6758 33.3027 23.1152 33.2207 23.9941L33.2119 24.1436C33.2119 24.46 33.3232 24.7207 33.5459 24.9258C33.7686 25.1309 34.0732 25.2334 34.46 25.2334ZM44.1104 23.4053L45.8682 17.4902H48.5928L44.7695 28.4766L44.5586 28.9775C43.9902 30.2197 43.0527 30.8408 41.7461 30.8408C41.377 30.8408 41.002 30.7852 40.6211 30.6738V28.749L41.0078 28.7578C41.4883 28.7578 41.8457 28.6846 42.0801 28.5381C42.3203 28.3916 42.5078 28.1484 42.6426 27.8086L42.9414 27.0264L39.6104 17.4902H42.3438L44.1104 23.4053ZM56.5557 18.5273C57.2295 17.7188 58.0762 17.3145 59.0957 17.3145C61.1582 17.3145 62.2041 18.5127 62.2334 20.9092V27H59.6934V20.9795C59.6934 20.4346 59.5762 20.0332 59.3418 19.7754C59.1074 19.5117 58.7178 19.3799 58.1729 19.3799C57.4287 19.3799 56.8896 19.667 56.5557 20.2412V27H54.0156V13.5H56.5557V18.5273ZM66.8301 27H64.2812V17.4902H66.8301V27ZM64.1318 15.0293C64.1318 14.6484 64.2578 14.335 64.5098 14.0889C64.7676 13.8428 65.1162 13.7197 65.5557 13.7197C65.9893 13.7197 66.335 13.8428 66.5928 14.0889C66.8506 14.335 66.9795 14.6484 66.9795 15.0293C66.9795 15.416 66.8477 15.7324 66.584 15.9785C66.3262 16.2246 65.9834 16.3477 65.5557 16.3477C65.1279 16.3477 64.7822 16.2246 64.5186 15.9785C64.2607 15.7324 64.1318 15.416 64.1318 15.0293Z" fill="white"/>
</svg>
