<svg width="1161" height="1162" viewBox="0 0 1161 1162" fill="none" xmlns="http://www.w3.org/2000/svg">
<circle cx="580.67" cy="580.963" r="564.791" fill="#3C4FAF" stroke="#3C4FAF" stroke-width="31"/>
<g clip-path="url(#clip0)">
<path d="M712.455 764.774C706.631 764.177 701.362 768.529 700.828 774.395L699.079 793.126L581.895 779.75C576.178 779.046 570.738 783.27 570.076 789.137C569.393 794.982 573.617 800.273 579.463 800.934L707.463 815.569C707.868 815.612 708.274 815.633 708.679 815.633C711.111 815.633 713.5 814.801 715.399 813.244C717.618 811.452 719.026 808.828 719.303 805.969L722.076 776.401C722.631 770.534 718.3 765.328 712.455 764.774Z" fill="white"/>
<path d="M581.936 434.214L379.27 410.363C373.211 409.659 368.134 413.819 367.409 419.643L324.742 760.976C324.401 763.792 325.19 766.651 326.961 768.891C328.71 771.131 331.292 772.582 334.129 772.902L448.689 786.001C449.116 786.044 449.5 786.065 449.926 786.065C455.259 786.065 459.889 782.054 460.507 776.614C461.19 770.769 456.966 765.478 451.12 764.817L347.27 752.934L387.291 432.785L579.44 455.398C585.541 456.187 590.619 451.899 591.28 446.054C591.984 440.208 587.782 434.896 581.936 434.214Z" fill="white"/>
<path d="M694.876 424.1C690.716 419.94 683.953 419.94 679.793 424.1L626.46 477.433C622.3 481.593 622.3 488.356 626.46 492.516C628.551 494.585 631.281 495.631 634.012 495.631C636.743 495.631 639.473 494.586 641.543 492.516L694.876 439.183C699.036 435.022 699.036 428.26 694.876 424.1Z" fill="white"/>
<path d="M836.592 760.996L793.926 419.662C793.201 413.838 787.825 409.699 782.086 410.382L752.689 413.838C746.822 414.521 742.641 419.833 743.345 425.678C744.028 431.523 749.361 435.747 755.185 435.022L774.065 432.803L814.086 752.91L462.278 793.123L432.262 472.995L692.806 442.36C698.673 441.677 702.854 436.365 702.15 430.52C701.467 424.675 696.049 420.344 690.31 421.176L419.419 453.049C413.68 453.71 409.52 458.852 410.054 464.633L442.054 805.966C442.331 808.803 443.739 811.449 445.958 813.241C447.857 814.798 450.246 815.63 452.678 815.63C453.083 815.63 453.489 815.609 453.873 815.587L827.206 772.92C830.043 772.579 832.625 771.149 834.374 768.909C836.144 766.67 836.955 763.812 836.592 760.996Z" fill="white"/>
<path d="M719.345 346.297C689.926 346.297 666.012 370.233 666.012 399.63C666.012 429.027 689.927 452.963 719.345 452.963C748.763 452.963 772.678 429.027 772.678 399.63C772.678 370.233 748.764 346.297 719.345 346.297ZM719.345 431.63C701.702 431.63 687.345 417.273 687.345 399.63C687.345 381.987 701.702 367.63 719.345 367.63C736.988 367.63 751.345 381.987 751.345 399.63C751.345 417.273 736.988 431.63 719.345 431.63Z" fill="white"/>
</g>
<defs>
<clipPath id="clip0">
<rect x="324.664" y="324.957" width="512.013" height="512.013" fill="white"/>
</clipPath>
</defs>
</svg>
