<svg width="518" height="518" viewBox="0 0 518 518" fill="none" xmlns="http://www.w3.org/2000/svg">
<path d="M512.328 96.625L421.328 5.63798C419.453 3.76298 416.91 2.70898 414.258 2.70898H117.258C100.716 2.70898 87.2578 16.167 87.2578 32.709V51.773C38.1328 71.043 3.25781 118.924 3.25781 174.8C3.25781 180.322 7.73581 184.8 13.2578 184.8H135.349C140.871 184.8 145.349 180.322 145.349 174.8V52.709C145.349 47.187 140.871 42.709 135.349 42.709C125.711 42.709 116.315 43.756 107.258 45.726V32.709C107.258 27.195 111.744 22.709 117.258 22.709H404.258V83.709C404.258 100.251 417.716 113.709 434.258 113.709H495.258V484.709C495.258 490.223 490.772 494.709 485.258 494.709H117.258C111.744 494.709 107.258 490.223 107.258 484.709V399.042C107.258 393.52 102.78 389.042 97.2578 389.042C91.7358 389.042 87.2578 393.52 87.2578 399.042V484.709C87.2578 501.251 100.716 514.709 117.258 514.709H485.258C501.8 514.709 515.258 501.251 515.258 484.709V103.696C515.258 101.044 514.204 98.5 512.328 96.625ZM125.348 63.152V164.8H23.6998C28.4808 110.952 71.5008 67.933 125.348 63.152ZM434.258 93.709C428.744 93.709 424.258 89.223 424.258 83.709V36.849L481.126 93.709H434.258Z" fill="white" stroke="white" stroke-width="5"/>
<path d="M104.327 355.639C102.468 353.778 99.8878 352.709 97.2578 352.709C94.6278 352.709 92.0478 353.778 90.1878 355.639C88.3278 357.499 87.2578 360.079 87.2578 362.709C87.2578 365.339 88.3268 367.919 90.1878 369.778C92.0478 371.639 94.6278 372.709 97.2578 372.709C99.8878 372.709 102.468 371.639 104.327 369.778C106.188 367.919 107.258 365.339 107.258 362.709C107.258 360.079 106.188 357.499 104.327 355.639Z" fill="white"/>
<path d="M171.168 78.5293C165.646 78.5293 161.168 83.0073 161.168 88.5293V200.619H49.0781C43.5561 200.619 39.0781 205.097 39.0781 210.619C39.0781 283.454 98.3331 342.71 171.168 342.71C244.003 342.71 303.259 283.454 303.259 210.619C303.259 137.784 244.003 78.5293 171.168 78.5293ZM181.168 98.9723C204.578 101.05 225.939 110.36 243.004 124.642L181.168 186.477V98.9723ZM171.168 322.71C112.731 322.71 64.5941 277.761 59.5211 220.619H171.168C173.928 220.619 176.426 219.501 178.236 217.693C178.237 217.692 178.238 217.692 178.24 217.69L257.149 138.782C273.44 158.249 283.259 183.309 283.259 210.619C283.259 272.426 232.975 322.71 171.168 322.71Z" fill="white" stroke="white" stroke-width="5"/>
<path d="M441.332 318.314C424.79 318.314 411.332 331.772 411.332 348.314C411.332 352.46 412.178 356.411 413.705 360.006L356.092 417.619C352.133 415.69 347.689 414.605 342.997 414.605C338.416 414.605 334.074 415.641 330.187 417.484L291.929 379.226C293.255 375.842 293.991 372.163 293.991 368.313C293.991 351.771 280.533 338.313 263.991 338.313C247.449 338.313 233.991 351.771 233.991 368.313C233.991 372.795 234.986 377.047 236.756 380.87L200.061 417.565C196.152 415.695 191.778 414.646 187.164 414.646C170.622 414.646 157.164 428.104 157.164 444.646C157.164 461.188 170.622 474.646 187.164 474.646C203.706 474.646 217.164 461.188 217.164 444.646C217.164 440.009 216.106 435.615 214.22 431.692L250.71 395.202C254.717 397.19 259.225 398.313 263.993 398.313C269.378 398.313 274.431 396.88 278.804 394.386L315.983 431.565C314.071 435.51 312.997 439.934 312.997 444.605C312.997 461.147 326.455 474.605 342.997 474.605C359.539 474.605 372.997 461.147 372.997 444.605C372.997 440.047 371.971 435.725 370.144 431.853L427.219 374.778C431.428 377.032 436.233 378.314 441.332 378.314C457.874 378.314 471.332 364.856 471.332 348.314C471.332 331.772 457.874 318.314 441.332 318.314ZM187.163 454.647C181.649 454.647 177.163 450.161 177.163 444.647C177.163 439.133 181.649 434.647 187.163 434.647C189.848 434.647 192.283 435.716 194.081 437.444C194.121 437.486 194.156 437.531 194.197 437.572C194.245 437.62 194.297 437.66 194.346 437.706C196.086 439.506 197.163 441.952 197.163 444.647C197.163 450.16 192.677 454.647 187.163 454.647ZM263.991 378.313C258.477 378.313 253.991 373.827 253.991 368.313C253.991 362.799 258.477 358.313 263.991 358.313C269.505 358.313 273.991 362.799 273.991 368.313C273.991 373.827 269.505 378.313 263.991 378.313ZM342.995 454.605C337.481 454.605 332.995 450.119 332.995 444.605C332.995 439.091 337.481 434.605 342.995 434.605C348.509 434.605 352.995 439.091 352.995 444.605C352.995 450.119 348.509 454.605 342.995 454.605ZM441.33 358.313C435.816 358.313 431.33 353.827 431.33 348.313C431.33 342.799 435.817 338.313 441.33 338.313C446.844 338.313 451.33 342.799 451.33 348.313C451.33 353.827 446.844 358.313 441.33 358.313Z" fill="white" stroke="white" stroke-width="5"/>
<path d="M391.349 237.709H338.57C333.048 237.709 328.57 242.187 328.57 247.709C328.57 253.231 333.047 257.709 338.57 257.709H391.349C396.871 257.709 401.349 253.231 401.349 247.709C401.349 242.187 396.871 237.709 391.349 237.709Z" fill="white"/>
<path d="M443.944 240.639C442.085 238.779 439.505 237.709 436.875 237.709C434.245 237.709 431.665 238.778 429.805 240.639C427.945 242.499 426.875 245.079 426.875 247.709C426.875 250.339 427.944 252.919 429.805 254.778C431.665 256.638 434.235 257.709 436.875 257.709C439.505 257.709 442.085 256.639 443.944 254.778C445.804 252.919 446.875 250.339 446.875 247.709C446.875 245.079 445.805 242.499 443.944 240.639Z" fill="white"/>
<path d="M460.724 141.709H338.57C333.048 141.709 328.57 146.187 328.57 151.709C328.57 157.231 333.047 161.709 338.57 161.709H460.724C466.246 161.709 470.724 157.231 470.724 151.709C470.724 146.187 466.246 141.709 460.724 141.709Z" fill="white"/>
<path d="M460.724 189.709H338.57C333.048 189.709 328.57 194.187 328.57 199.709C328.57 205.231 333.047 209.709 338.57 209.709H460.724C466.246 209.709 470.724 205.231 470.724 199.709C470.724 194.187 466.246 189.709 460.724 189.709Z" fill="white"/>
</svg>
