<svg width="1162" height="1162" viewBox="0 0 1162 1162" fill="none" xmlns="http://www.w3.org/2000/svg">
<circle cx="580.787" cy="580.784" r="564.791" fill="#3C4FAF" stroke="#3C4FAF" stroke-width="31"/>
<path d="M580.789 319.475C439.404 319.475 324.789 434.09 324.789 575.475C324.789 716.86 439.404 831.475 580.789 831.475C722.174 831.475 836.789 716.86 836.789 575.475C836.629 434.156 722.108 319.634 580.789 319.475ZM580.789 814.408C448.83 814.408 341.856 707.434 341.856 575.475C341.856 443.515 448.83 336.541 580.789 336.541C712.748 336.541 819.722 443.515 819.722 575.475C819.575 707.373 712.687 814.26 580.789 814.408Z" fill="white" stroke="white" stroke-width="8.53333"/>
<path d="M580.791 549.875H512.524C493.681 549.896 478.412 565.166 478.391 584.008V635.208C478.4 644.63 486.036 652.266 495.457 652.275H597.857C607.279 652.266 614.915 644.63 614.924 635.208V584.008C614.903 565.166 599.633 549.896 580.791 549.875ZM495.457 584.008C495.467 574.587 503.102 566.951 512.524 566.942H580.791C590.029 566.959 597.575 574.327 597.813 583.563C582.191 583.222 551.763 584.75 535.657 600.203C528.379 607.131 524.563 616.94 525.246 626.965C525.369 629.741 525.745 632.501 526.37 635.208H495.457V584.008ZM597.857 635.208H543.999C543.022 632.314 542.448 629.299 542.293 626.248C541.792 621.119 543.702 616.048 547.463 612.523C558.269 602.142 583.024 600.392 597.857 600.648V635.208Z" fill="white" stroke="white" stroke-width="8.53333"/>
<path d="M495.044 494.237L499.032 497.087C502.868 499.825 508.198 498.936 510.937 495.099C513.676 491.263 512.786 485.933 508.95 483.195L449.216 440.528C446.735 438.756 443.496 438.443 440.721 439.707C437.946 440.97 436.056 443.618 435.763 446.653C435.469 449.688 436.817 452.649 439.299 454.42L446.479 459.548C431.751 466.629 424.131 483.175 428.324 498.97C432.517 514.764 447.34 525.353 463.641 524.196C479.942 523.04 493.122 510.465 495.044 494.237V494.237ZM461.324 507.207C451.899 507.207 444.258 499.566 444.258 490.141C444.258 480.715 451.899 473.074 461.324 473.074C463.213 473.059 465.087 473.407 466.844 474.098L474.728 479.73C477.091 482.686 478.382 486.356 478.391 490.141C478.382 499.562 470.746 507.198 461.324 507.207Z" fill="white" stroke="white" stroke-width="8.53333"/>
<path d="M646.836 459.548L654.016 454.42C656.498 452.649 657.846 449.688 657.552 446.653C657.259 443.618 655.369 440.97 652.594 439.707C649.819 438.443 646.58 438.756 644.099 440.528L584.366 483.195C580.529 485.933 579.639 491.263 582.378 495.099C585.117 498.936 590.447 499.825 594.283 497.087L598.271 494.237C600.193 510.465 613.373 523.04 629.674 524.196C645.975 525.353 660.798 514.764 664.991 498.97C669.184 483.175 661.564 466.629 646.836 459.548ZM631.988 507.207C622.567 507.198 614.931 499.562 614.922 490.141C614.93 486.355 616.221 482.683 618.585 479.726L626.468 474.094C628.226 473.404 630.1 473.058 631.988 473.074C641.414 473.074 649.055 480.715 649.055 490.141C649.055 499.566 641.414 507.207 631.988 507.207Z" fill="white" stroke="white" stroke-width="8.53333"/>
</svg>
