<svg width="513" height="513" viewBox="0 0 513 513" fill="none" xmlns="http://www.w3.org/2000/svg">
<g clip-path="url(#clip0)">
<path d="M395.334 322.088C384.415 347.022 380.321 374.411 383.473 401.448C385.394 419.045 388.878 436.437 393.884 453.416C396.571 462.21 399.967 470.771 404.038 479.016C409.089 486.773 413.649 494.839 417.692 503.165L203.505 503.763V503.677C202.823 501.117 189.937 450.941 161.436 438.056C156.145 439.933 150.513 441.811 144.796 443.773C125.842 450.348 106.559 455.931 87.0252 460.499C81.6439 461.785 75.9756 460.992 71.1532 458.28C65.6642 454.903 61.5748 449.662 59.6331 443.517C57.3979 437.439 56.5807 430.93 57.2438 424.488C59.2096 417.91 59.8762 411.012 59.2065 404.179C56.9878 395.56 48.7958 393.427 42.3105 388.819C37.0198 385.064 46.4918 373.032 46.4918 373.032C46.4918 373.032 36.4225 365.608 32.8385 362.365C29.0838 359.293 34.3745 354.003 39.0678 344.019C41.0044 339.684 41.5701 334.86 40.6891 330.195C38.8971 321.064 25.0731 317.565 18.2465 312.531C15.0038 310.141 9.79848 306.557 9.20115 302.205C8.26248 296.147 15.4305 287.613 18.9291 283.347C33.8159 264.162 46.5769 243.418 56.9878 221.48C58.3541 219.164 59.1714 216.566 59.3771 213.885C59.2065 201.683 41.5425 196.648 39.9211 184.787C39.6671 181.306 40.2829 177.816 41.7131 174.632C46.6341 164.172 50.8532 153.396 54.3425 142.376C56.4428 132.267 59.1499 122.293 62.4491 112.509C69.6052 92.8798 80.6323 74.8882 94.8758 59.6026C115.782 37.5013 146.673 26.5786 175.857 20.776C201.81 15.1017 228.129 11.2523 254.62 9.25597C255.473 9.17064 256.326 9.17064 257.18 9.0853C311.793 6.35464 354.972 24.872 397.297 57.9813C420.36 75.1872 437.219 99.4115 445.34 127.016C451.528 149.811 454.43 173.374 453.959 196.989C453.795 220.312 446.987 243.105 434.332 262.696C421.617 282.749 404.977 300.157 395.334 322.088Z" fill="#BB193B"/>
<path d="M369.734 322.088C358.815 347.022 354.721 374.411 357.873 401.448C359.794 419.045 363.278 436.437 368.284 453.416C370.971 462.21 374.367 470.771 378.438 479.016C383.489 486.773 388.049 494.839 392.092 503.165L203.505 503.677C202.823 501.117 189.937 450.941 161.436 438.056C156.145 439.933 150.513 441.811 144.796 443.773C142.086 441.465 139.071 439.542 135.836 438.056C115.27 445.224 90.1825 453.501 71.1532 458.28C65.6642 454.903 61.5748 449.662 59.6331 443.517C57.3979 437.439 56.5807 430.93 57.2438 424.488C59.2096 417.91 59.8762 411.012 59.2065 404.179C56.9878 395.56 48.7958 393.427 42.3105 388.819C37.0198 385.064 46.4918 373.032 46.4918 373.032C46.4918 373.032 36.4225 365.608 32.8385 362.365C29.0838 359.293 34.3745 354.003 39.0678 344.019C41.0044 339.683 41.5701 334.86 40.6891 330.195C38.8971 321.064 25.0731 317.565 18.2465 312.531C15.0038 310.141 9.79848 306.557 9.20115 302.205C8.26248 296.147 15.4305 287.613 18.9291 283.347C33.8159 264.162 46.5769 243.418 56.9878 221.48C58.3541 219.164 59.1714 216.566 59.3771 213.885C59.2065 201.683 41.5425 196.648 39.9211 184.787C39.6671 181.305 40.2829 177.816 41.7131 174.632C46.6341 164.172 50.8532 153.396 54.3425 142.376C56.4428 132.267 59.1499 122.293 62.4491 112.509C69.6052 92.8797 80.6323 74.8881 94.8758 59.6025C115.782 37.5012 146.673 26.5785 175.857 20.7759C201.81 15.1016 228.129 11.2521 254.62 9.25586C298.652 11.9865 335.516 29.6505 371.697 57.9812C394.76 75.1871 411.619 99.4114 419.74 127.016C425.928 149.811 428.83 173.373 428.359 196.989C428.195 220.312 421.387 243.105 408.732 262.696C396.017 282.749 379.377 300.157 369.734 322.088Z" fill="#EF314C"/>
<path fill-rule="evenodd" clip-rule="evenodd" d="M444.316 172.926C444.875 199.848 435.383 226.012 417.692 246.313C400.967 264.915 367.516 277.715 367.516 307.497H316.316C316.316 277.715 282.866 264.915 266.14 246.313C248.484 225.991 238.997 199.841 239.516 172.926C240.18 121.203 278.022 77.4863 329.116 69.4167C333.357 68.8297 337.635 68.5445 341.916 68.5634C398.582 70.1054 443.85 116.242 444.316 172.926Z" fill="#FEC108"/>
<path fill-rule="evenodd" clip-rule="evenodd" d="M418.716 172.925C419.275 199.847 409.783 226.011 392.092 246.312C375.367 264.915 341.916 277.715 341.916 307.496H316.316C316.316 277.715 282.866 264.915 266.14 246.312C248.484 225.991 238.997 199.84 239.516 172.925C240.18 121.202 278.022 77.4856 329.116 69.416C380.227 77.4562 418.084 121.19 418.716 172.925Z" fill="#FFDC00"/>
<path d="M316.316 358.695H367.516V367.229C367.516 381.367 356.055 392.829 341.916 392.829C327.778 392.829 316.316 381.367 316.316 367.229V358.695Z" fill="#7F8E94"/>
<path d="M341.913 239.229C384.329 239.229 418.713 201.024 418.713 153.896C418.713 106.768 384.329 68.5625 341.913 68.5625C299.498 68.5625 265.113 106.768 265.113 153.896C265.113 201.024 299.498 239.229 341.913 239.229Z" fill="#FFEB3A"/>
<path fill-rule="evenodd" clip-rule="evenodd" d="M384.583 324.563V341.629C384.583 351.055 376.942 358.696 367.517 358.696H316.317C306.903 358.668 299.278 351.043 299.25 341.629V324.563C299.278 315.149 306.903 307.524 316.317 307.496H367.517C376.942 307.496 384.583 315.137 384.583 324.563Z" fill="#CFD8DC"/>
<path fill-rule="evenodd" clip-rule="evenodd" d="M358.983 324.563V341.629C358.983 351.055 351.342 358.696 341.917 358.696H316.317C306.903 358.668 299.278 351.043 299.25 341.629V324.563C299.278 315.149 306.903 307.524 316.317 307.496H341.917C351.342 307.496 358.983 315.137 358.983 324.563Z" fill="#F5F5F5"/>
<path d="M81.7421 469.629C67.6659 469.365 55.42 459.922 51.5853 446.376C48.8913 439.031 47.9304 431.164 48.7778 423.387C49.068 421.143 49.5544 418.856 50.0578 416.56C51.0939 413.252 51.3853 409.755 50.9112 406.32C50.22 403.649 48.2488 402.31 43.2312 399.434C41.2344 398.299 39.212 397.138 37.3176 395.799C34.541 393.825 32.7084 390.787 32.2573 387.41C31.9287 383.121 32.8948 378.831 35.0306 375.097C32.1293 372.87 28.9464 370.361 27.1032 368.697C19.2184 362.254 24.4493 353.004 27.5725 347.483C28.7245 345.461 30.0557 343.114 31.3272 340.383C32.5018 337.674 32.8405 334.676 32.3 331.773C31.8648 329.563 25.6866 326.406 22.0002 324.52C18.9062 323.065 15.9404 321.352 13.1341 319.4C7.01449 315.946 2.54941 310.167 0.752223 303.374C-0.621643 294.61 5.87222 285.847 12.0077 278.329C26.6286 259.498 39.1608 239.135 49.3837 217.597C50.0427 216.435 50.534 215.185 50.8429 213.885C50.8429 211.538 48.0696 208.842 43.8968 205.01C37.5923 200.359 33.1753 193.591 31.4552 185.947C30.9732 181.073 31.7518 176.157 33.7165 171.671C35.244 167.643 36.9848 163.752 38.7256 159.861C41.7606 153.623 44.2061 147.115 46.0301 140.422L46.8834 136.821C48.8463 127.596 51.3712 118.499 54.444 109.582C61.9707 88.8531 73.6133 69.8609 88.6712 53.7485C107.752 33.5757 135.715 20.0589 174.192 12.4045C201.38 6.44484 228.968 2.48615 256.735 0.560269C271.44 -0.239808 286.189 0.601654 300.707 3.06907C305.256 3.96738 308.254 8.33259 307.462 12.9003C306.669 17.4679 302.374 20.5669 297.789 19.8797C284.526 17.6383 271.054 16.8741 257.623 17.6013C230.691 19.4935 203.933 23.3494 177.563 29.1384C143.122 35.9651 117.394 48.2104 101.07 65.4648C87.5923 79.9045 77.1772 96.9233 70.4525 115.496C67.6207 123.751 65.2981 132.172 63.4978 140.712L62.6445 144.347C60.6055 152.091 57.825 159.621 54.3416 166.832C52.7288 170.425 51.1245 174.009 49.7336 177.67C48.9116 179.518 48.4594 181.51 48.4024 183.532C48.7778 186.288 52.029 189.275 55.485 192.441C62.5254 197.419 67.0708 205.197 67.9522 213.774C67.7754 217.835 66.6189 221.794 64.5816 225.311C53.9036 247.802 40.8103 269.064 25.533 288.722C19.0306 296.65 17.6909 299.816 17.6482 301.062C19.2247 302.603 20.9384 303.996 22.7682 305.226C24.9886 306.776 27.3349 308.138 29.7826 309.296C37.0616 313.017 47.0285 318.12 49.0765 328.53C50.2939 334.979 49.4984 341.647 46.7981 347.628C45.3048 350.785 43.7773 353.516 42.4376 355.863C42.0194 356.605 41.5842 357.424 41.1576 358.167C44.6904 361.017 49.5202 364.635 51.5682 366.137C53.4361 367.511 54.6642 369.586 54.9701 371.885C55.2759 374.183 54.6331 376.508 53.1896 378.322C51.9259 379.97 50.8256 381.736 49.9042 383.596L51.6792 384.611C59.2201 387.862 64.9819 394.221 67.4744 402.045C68.7258 408.07 68.4708 414.31 66.732 420.213C66.3394 421.996 65.9298 423.771 65.708 425.563C65.2043 430.724 65.8903 435.932 67.7133 440.786C69.5753 448.672 77.3283 453.684 85.2834 452.144C110.153 446.168 134.656 438.76 158.67 429.958C163.124 428.409 167.989 430.765 169.537 435.218C171.085 439.672 168.73 444.537 164.277 446.086C139.579 455.138 114.37 462.731 88.7821 468.827C86.4694 469.337 84.1102 469.605 81.7421 469.629ZM38.2221 355.786L38.4952 356.033C38.4164 355.936 38.3309 355.845 38.2392 355.76L38.2221 355.786Z" fill="black"/>
<path d="M203.506 512.296C199.576 512.295 196.155 509.611 195.22 505.794C191.909 492.303 178.759 455.242 157.921 445.83C154.729 444.387 152.743 441.14 152.912 437.641C153.082 434.143 155.372 431.103 158.689 429.975C167.581 426.954 175.645 424.138 181.985 421.92C187.898 419.855 192.353 418.301 194.665 417.559C230.138 406.338 237.332 393.529 237.127 384.748C237.075 382.481 237.927 380.285 239.496 378.647C241.065 377.009 243.222 376.064 245.49 376.019C247.77 375.902 249.998 376.728 251.651 378.303C253.304 379.878 254.236 382.064 254.228 384.347C254.723 405.612 236.445 422.261 199.888 433.841C197.678 434.549 193.368 436.051 187.651 438.048L179.971 440.736C194.043 456.339 204.307 474.992 209.957 495.229L403.51 494.692L402.938 493.839C400.482 490.276 398.272 486.55 396.325 482.685C392.085 474.081 388.543 465.149 385.735 455.976C380.629 438.69 377.068 420.985 375.094 403.069C374.614 399.992 375.849 396.897 378.315 394.996C380.782 393.094 384.089 392.687 386.943 393.935C389.797 395.182 391.745 397.885 392.024 400.987C393.883 417.891 397.235 434.596 402.042 450.907C404.592 459.244 407.814 467.36 411.677 475.176C413.307 478.375 415.151 481.459 417.198 484.409C420.822 489.383 423.732 494.841 425.842 500.623C426.656 503.212 426.19 506.034 424.586 508.224C422.983 510.414 420.433 511.711 417.718 511.716L203.532 512.313L203.506 512.296Z" fill="black"/>
<path d="M87.5696 158.734C86.9174 158.736 86.2674 158.661 85.6325 158.512C81.046 157.443 78.1931 152.86 79.2581 148.272L80.1114 144.577C81.7629 136.754 83.8743 129.035 86.4346 121.461C92.3685 105.039 101.561 89.9859 113.46 77.2067C126.538 64.5962 142.647 55.5704 160.231 51.0008C163.169 50.0403 166.396 50.7434 168.668 52.8387C170.94 54.9341 171.901 58.0942 171.181 61.0998C170.461 64.1054 168.172 66.4868 165.197 67.3251C150.463 71.0615 136.927 78.4952 125.867 88.9229C115.555 100.015 107.591 113.077 102.452 127.323C100.156 134.2 98.2556 141.203 96.7599 148.298L95.9066 152.095C95.021 155.985 91.5587 158.742 87.5696 158.734Z" fill="black"/>
<path d="M77.381 188.03C82.0938 188.03 85.9143 184.209 85.9143 179.496C85.9143 174.783 82.0938 170.963 77.381 170.963C72.6682 170.963 68.8477 174.783 68.8477 179.496C68.8477 184.209 72.6682 188.03 77.381 188.03Z" fill="black"/>
<path d="M367.515 367.23H316.315C302.176 367.23 290.715 355.768 290.715 341.63V324.563C290.715 310.424 302.176 298.963 316.315 298.963H367.515C381.653 298.963 393.115 310.424 393.115 324.563V341.63C393.115 355.768 381.653 367.23 367.515 367.23ZM316.315 316.03C311.602 316.03 307.782 319.85 307.782 324.563V341.63C307.782 346.342 311.602 350.163 316.315 350.163H367.515C372.228 350.163 376.048 346.342 376.048 341.63V324.563C376.048 319.85 372.228 316.03 367.515 316.03H316.315Z" fill="black"/>
<path d="M341.915 401.362C323.063 401.362 307.781 386.08 307.781 367.229V358.695C307.781 353.983 311.602 350.162 316.315 350.162H367.515C372.227 350.162 376.048 353.983 376.048 358.695V367.229C376.048 386.08 360.766 401.362 341.915 401.362ZM324.848 367.229C324.848 376.654 332.489 384.295 341.915 384.295C351.34 384.295 358.981 376.654 358.981 367.229H324.848Z" fill="black"/>
<path d="M358.98 316.03C354.267 316.03 350.446 312.209 350.446 307.496V205.096H333.38V307.496C333.38 312.209 329.559 316.03 324.846 316.03C320.134 316.03 316.313 312.209 316.313 307.496V205.096H307.78C293.641 205.096 282.18 193.635 282.18 179.496C282.18 165.358 293.641 153.896 307.78 153.896C321.918 153.896 333.38 165.358 333.38 179.496V188.03H350.446V179.496C350.446 165.358 361.908 153.896 376.046 153.896C390.185 153.896 401.646 165.358 401.646 179.496C401.646 193.635 390.185 205.096 376.046 205.096H367.513V307.496C367.513 312.209 363.693 316.03 358.98 316.03ZM367.513 188.03H376.046C380.759 188.03 384.58 184.209 384.58 179.496C384.58 174.784 380.759 170.963 376.046 170.963C371.334 170.963 367.513 174.784 367.513 179.496V188.03ZM307.78 170.963C303.067 170.963 299.246 174.784 299.246 179.496C299.246 184.209 303.067 188.03 307.78 188.03H316.313V179.496C316.313 174.784 312.493 170.963 307.78 170.963Z" fill="black"/>
<path d="M367.513 316.029H316.313C311.601 316.029 307.78 312.209 307.78 307.496C307.78 290.984 294.024 280.351 279.466 269.096C272.432 264 265.864 258.288 259.84 252.029C240.693 230.115 230.403 201.85 230.98 172.755C231.218 111.292 280.463 61.2522 341.913 60.0293C403.364 61.2522 452.609 111.292 452.847 172.755C453.433 201.842 443.162 230.104 424.038 252.029C418.012 258.286 411.445 263.997 404.412 269.096C389.811 280.351 376.047 290.984 376.047 307.496C376.047 312.209 372.226 316.029 367.513 316.029ZM324.079 298.963H359.748C363.417 279.182 379.52 266.732 393.941 255.588C400.155 251.099 405.971 246.083 411.324 240.595C427.586 221.889 436.304 197.8 435.78 173.019C434.969 121.017 392.004 77.096 341.913 77.096C291.823 77.096 248.9 121.017 248.047 173.019C247.513 197.799 256.226 221.889 272.486 240.595C277.842 246.085 283.66 251.104 289.877 255.596C304.367 266.741 320.418 279.182 324.087 298.963H324.079Z" fill="black"/>
<path d="M504.047 179.496H478.447C473.735 179.496 469.914 175.676 469.914 170.963C469.914 166.25 473.735 162.43 478.447 162.43H504.047C508.76 162.43 512.581 166.25 512.581 170.963C512.581 175.676 508.76 179.496 504.047 179.496Z" fill="black"/>
<path d="M438.454 82.9572C435 82.9599 431.884 80.8795 430.563 77.6876C429.242 74.4956 429.975 70.822 432.421 68.3823L450.529 50.2831C452.672 48.0648 455.844 47.1751 458.828 47.9561C461.811 48.737 464.141 51.067 464.922 54.0505C465.703 57.034 464.813 60.2067 462.595 62.3492L444.496 80.4569C442.894 82.0595 440.72 82.959 438.454 82.9572Z" fill="black"/>
<path d="M341.916 42.9616C337.203 42.9616 333.383 39.1411 333.383 34.4283V8.82826C333.383 4.11543 337.203 0.294922 341.916 0.294922C346.629 0.294922 350.449 4.11543 350.449 8.82826V34.4283C350.449 39.1411 346.629 42.9616 341.916 42.9616Z" fill="black"/>
<path d="M245.379 82.9572C243.113 82.959 240.939 82.0595 239.337 80.4569L221.238 62.3492C219.02 60.2067 218.13 57.034 218.911 54.0505C219.692 51.067 222.022 48.737 225.006 47.9561C227.989 47.1751 231.162 48.0648 233.304 50.2831L251.412 68.3823C253.858 70.822 254.591 74.4956 253.27 77.6876C251.949 80.8795 248.834 82.9599 245.379 82.9572Z" fill="black"/>
<path d="M205.383 179.496H179.783C175.071 179.496 171.25 175.676 171.25 170.963C171.25 166.25 175.071 162.43 179.783 162.43H205.383C210.096 162.43 213.917 166.25 213.917 170.963C213.917 175.676 210.096 179.496 205.383 179.496Z" fill="black"/>
</g>
<defs>
<clipPath id="clip0">
<path d="M0.582031 0.294922H512.582V512.295H0.582031V0.294922Z" fill="white"/>
</clipPath>
</defs>
</svg>
