<svg width="1161" height="1162" viewBox="0 0 1161 1162" fill="none" xmlns="http://www.w3.org/2000/svg">
<circle cx="580.534" cy="580.998" r="564.791" fill="#3C4FAF" stroke="#3C4FAF" stroke-width="31"/>
<g clip-path="url(#clip0)">
<path d="M528.07 746.695L510.586 805H492.535V821H668.535V805H650.496L645.023 786.703L629.695 791.297L633.793 805H527.289L543.398 751.305L528.07 746.695Z" fill="white"/>
<path d="M780.536 676.999H770.2C781.993 616.323 748.927 555.851 691.482 533.035C634.037 510.222 568.49 531.527 535.439 583.757C502.389 635.987 511.201 704.346 556.412 746.491C601.627 788.635 670.435 792.627 720.216 755.991L777.915 813.686C785.056 820.826 795.794 822.963 805.126 819.1C814.454 815.233 820.536 806.131 820.536 796.03C820.555 789.405 817.923 783.045 813.223 778.374L754.192 719.343L753.169 720.366C758.536 711.788 762.86 702.6 766.048 692.999H804.536V708.999C804.536 717.835 797.372 724.999 788.536 724.999V740.999C806.212 740.999 820.536 726.671 820.536 708.999V437C820.536 419.328 806.212 405 788.536 405V421C797.372 421 804.536 428.164 804.536 437V676.999H780.536ZM801.915 789.686C804.481 792.252 805.247 796.112 803.86 799.463C802.47 802.815 799.196 805.002 795.567 804.998C793.192 804.991 790.915 804.045 789.223 802.373L732.536 745.694C736.892 741.577 740.95 737.155 744.688 732.471L801.915 789.686ZM644.537 764.999C582.681 764.999 532.537 714.854 532.537 652.999C532.537 591.144 582.681 540.999 644.537 540.999C706.392 540.999 756.536 591.144 756.536 652.999C756.47 714.827 706.364 764.932 644.537 764.999Z" fill="white"/>
<path d="M372.535 740.999H508.534V724.999H372.535C363.699 724.999 356.535 717.835 356.535 708.999V692.999H500.535V676.999H356.535V437C356.535 428.164 363.699 421 372.535 421V405C354.863 405 340.535 419.328 340.535 437V708.999C340.535 726.671 354.863 740.999 372.535 740.999Z" fill="white"/>
<path d="M404.535 373C404.535 364.164 411.699 357 420.535 357H676.534V389H612.534C610.413 389 608.378 389.844 606.878 391.344L446.879 551.343C443.758 554.468 443.758 559.53 446.879 562.655L494.878 610.655L506.191 599.343L463.847 556.999L615.847 405H677.335C679.975 417.734 688.62 428.394 700.534 433.609V489.687L678.878 511.343L690.19 522.656L714.19 498.656C715.69 497.156 716.534 495.12 716.534 492.999V437H756.534V564.999H772.534V429C772.534 428.832 772.448 428.679 772.44 428.511C772.393 427.804 772.252 427.105 772.022 426.433C771.936 426.175 771.87 425.937 771.76 425.687C771.37 424.816 770.827 424.023 770.159 423.343L690.159 343.344C689.483 342.676 688.694 342.137 687.831 341.742C687.569 341.637 687.303 341.543 687.03 341.465C686.389 341.246 685.721 341.113 685.046 341.062C684.886 341.098 684.718 341 684.534 341H420.535C402.863 341 388.535 355.328 388.535 373V660.999H404.535V373ZM745.221 421H716.534C703.28 421 692.534 410.254 692.534 397V368.312L745.221 421Z" fill="white"/>
<path d="M420.535 373H436.535V389H420.535V373Z" fill="white"/>
<path d="M452.535 373H468.535V389H452.535V373Z" fill="white"/>
<path d="M484.535 373H500.535V389H484.535V373Z" fill="white"/>
<path d="M684.535 437C684.535 445.836 677.371 453 668.535 453C659.699 453 652.535 445.836 652.535 437C652.535 428.164 659.699 421 668.535 421C677.371 421 684.535 428.164 684.535 437Z" fill="white"/>
<path d="M494.879 554.656L506.191 543.344L530.195 567.344L518.879 578.656L494.879 554.656Z" fill="white"/>
<path d="M518.879 530.66L530.191 519.344L554.195 543.348L542.879 554.66L518.879 530.66Z" fill="white"/>
<path d="M629.733 475.801L636.694 510.567L652.374 507.434L644.374 467.434C643.741 464.27 641.269 461.794 638.104 461.161L598.104 453.161C595.487 452.633 592.784 453.454 590.901 455.344L566.901 479.344C565.022 481.231 564.202 483.93 564.718 486.544L572.718 526.544L588.397 523.407L581.249 487.61L599.19 469.657L629.733 475.801Z" fill="white"/>
<path d="M420.535 421H500.535V437H420.535V421Z" fill="white"/>
<path d="M420.535 453H500.535V469H420.535V453Z" fill="white"/>
<path d="M420.535 485H468.535V501H420.535V485Z" fill="white"/>
<path d="M420.535 613H476.535V629H420.535V613Z" fill="white"/>
<path d="M420.535 645H500.535V661H420.535V645Z" fill="white"/>
<path d="M740.535 653C740.535 599.98 697.555 557 644.535 557C591.516 557 548.535 599.98 548.535 653C548.535 706.02 591.516 749 644.535 749C697.555 749 740.535 706.02 740.535 653ZM612.535 653C612.535 635.328 626.863 621 644.535 621C662.211 621 676.535 635.328 676.535 653C676.535 670.672 662.211 685 644.535 685C626.863 685 612.535 670.672 612.535 653ZM603.23 677.328C589.488 672.07 577.121 663.75 567.07 653C577.121 642.25 589.488 633.93 603.23 628.672C594.305 643.66 594.305 662.34 603.23 677.328ZM685.84 628.672C699.582 633.93 711.949 642.25 722 653C711.949 663.75 699.582 672.07 685.84 677.328C694.77 662.34 694.77 643.66 685.84 628.672V628.672ZM644.535 573C680.113 573.043 711.398 596.559 721.336 630.719C700.727 614.781 675.559 605.859 649.512 605.258C646.219 604.914 642.902 604.914 639.609 605.258C613.547 605.848 588.359 614.773 567.734 630.719C577.672 596.559 608.957 573.043 644.535 573V573ZM644.535 733C608.957 732.957 577.672 709.441 567.734 675.281C588.344 691.219 613.516 700.141 639.559 700.742C642.852 701.086 646.172 701.086 649.465 700.742C675.527 700.152 700.715 691.227 721.336 675.281C711.398 709.441 680.113 732.957 644.535 733Z" fill="white"/>
<path d="M660.535 653C660.535 661.836 653.371 669 644.535 669C635.699 669 628.535 661.836 628.535 653C628.535 644.164 635.699 637 644.535 637C653.371 637 660.535 644.164 660.535 653Z" fill="white"/>
</g>
<rect x="340.535" y="341" width="480" height="480" stroke="white" stroke-width="32"/>
<defs>
<clipPath id="clip0">
<rect x="340.535" y="341" width="480" height="480" fill="white"/>
</clipPath>
</defs>
</svg>
