<svg width="388" height="483" viewBox="0 0 388 483" fill="none" xmlns="http://www.w3.org/2000/svg">
<path d="M282.413 466.415H16.8097V120.395C16.8097 116.521 13.6689 113.381 9.79545 113.381C5.92201 113.381 2.78125 116.521 2.78125 120.395V468.753C2.78125 475.2 8.0258 480.444 14.4716 480.444H282.413C286.287 480.444 289.427 477.304 289.427 473.429C289.427 469.555 286.287 466.415 282.413 466.415Z" fill="white" stroke="white" stroke-width="5"/>
<path d="M383.304 65.9872L323.685 4.68878C322.364 3.33074 320.55 2.56445 318.657 2.56445H14.4716C8.0258 2.56445 2.78218 7.80994 2.78125 14.2557V68.9628C2.78125 72.8372 5.92201 75.977 9.79545 75.977C13.6689 75.977 16.8097 72.8372 16.8097 68.9628V16.5938H315.694L371.263 73.7267V466.417H331.511C327.637 466.417 324.497 469.556 324.497 473.431C324.497 477.305 327.637 480.445 331.511 480.445H373.6C380.047 480.445 385.29 475.201 385.29 468.756V70.8771C385.29 69.0505 384.578 67.2967 383.304 65.9872Z" fill="white" stroke="white" stroke-width="5"/>
<path d="M383.301 65.9868L323.682 4.68831C321.691 2.64239 318.66 2.00584 316.015 3.08013C313.371 4.15443 311.641 6.72397 311.641 9.57912V70.8766C311.641 74.751 314.781 77.8908 318.655 77.8908H378.274C381.094 77.8908 383.639 76.2033 384.735 73.6058C385.832 71.0092 385.267 68.0066 383.301 65.9868ZM325.669 63.8624V26.8491L361.668 63.8624H325.669Z" fill="white" stroke="white" stroke-width="3"/>
<path d="M226.499 39.8027H57.4989C51.0522 39.8027 45.8086 45.0473 45.8086 51.4931V90.2583C45.8086 96.7051 51.0531 101.949 57.4989 101.949H226.499C232.945 101.949 238.189 96.7041 238.189 90.2593V51.4921C238.189 45.0454 232.945 39.8027 226.499 39.8027ZM224.161 87.9193H59.837V53.8302H224.161V87.9193Z" fill="white" stroke="white" stroke-width="3"/>
<path d="M115.864 138.658C112.781 136.316 108.381 136.913 106.036 139.998L75.0457 180.775L65.7382 172.63C62.8233 170.079 58.3926 170.374 55.8408 173.29C53.29 176.206 53.5858 180.637 56.5007 183.188L71.4634 196.28C72.7477 197.403 74.3914 198.015 76.0817 198.015C76.3169 198.015 76.553 198.003 76.7901 197.98C78.724 197.783 80.4909 196.794 81.6669 195.246L117.205 148.486C119.548 145.402 118.948 141.002 115.864 138.658Z" fill="white" stroke="white" stroke-width="13"/>
<path d="M326.955 137.225H150.295C146.422 137.225 143.281 140.364 143.281 144.239C143.281 148.113 146.422 151.253 150.295 151.253H326.955C330.829 151.253 333.97 148.113 333.97 144.239C333.97 140.364 330.829 137.225 326.955 137.225Z" fill="white" stroke="white" stroke-width="3"/>
<path d="M264.991 160.607H150.295C146.422 160.607 143.281 163.747 143.281 167.622C143.281 171.496 146.422 174.636 150.295 174.636H264.991C268.865 174.636 272.006 171.496 272.006 167.622C272.006 163.747 268.865 160.607 264.991 160.607Z" fill="white" stroke="white" stroke-width="3"/>
<path d="M291.177 183.986H150.295C146.422 183.986 143.281 187.126 143.281 191.001C143.281 194.875 146.422 198.015 150.295 198.015H291.177C295.05 198.015 298.191 194.875 298.191 191.001C298.191 187.126 295.05 183.986 291.177 183.986Z" fill="white" stroke="white" stroke-width="3"/>
<path d="M115.864 234.049C112.781 231.706 108.381 232.304 106.036 235.389L75.0457 276.166L65.7382 268.021C62.8233 265.47 58.3926 265.766 55.8408 268.681C53.29 271.597 53.5858 276.028 56.5007 278.579L71.4634 291.671C72.7477 292.794 74.3914 293.406 76.0817 293.406C76.3169 293.406 76.553 293.394 76.7901 293.371C78.724 293.174 80.4909 292.185 81.6669 290.637L117.205 243.877C119.548 240.793 118.948 236.394 115.864 234.049Z" fill="white" stroke="white" stroke-width="13"/>
<path d="M326.955 232.619H150.295C146.422 232.619 143.281 235.759 143.281 239.633C143.281 243.508 146.422 246.648 150.295 246.648H326.955C330.829 246.648 333.97 243.508 333.97 239.633C333.97 235.759 330.829 232.619 326.955 232.619Z" fill="white" stroke="white" stroke-width="3"/>
<path d="M264.991 255.998H150.295C146.422 255.998 143.281 259.138 143.281 263.012C143.281 266.887 146.422 270.026 150.295 270.026H264.991C268.865 270.026 272.006 266.887 272.006 263.012C272.006 259.138 268.865 255.998 264.991 255.998Z" fill="white" stroke="white" stroke-width="3"/>
<path d="M291.177 279.377H150.295C146.422 279.377 143.281 282.517 143.281 286.391C143.281 290.266 146.422 293.405 150.295 293.405H291.177C295.05 293.405 298.191 290.266 298.191 286.391C298.191 282.517 295.05 279.377 291.177 279.377Z" fill="white" stroke="white" stroke-width="3"/>
<path d="M326.955 328.014H150.295C146.422 328.014 143.281 331.154 143.281 335.028C143.281 338.902 146.422 342.042 150.295 342.042H326.955C330.829 342.042 333.969 338.902 333.97 335.028C333.97 331.154 330.829 328.014 326.955 328.014Z" fill="white" stroke="white" stroke-width="4"/>
<path d="M264.991 351.393H150.295C146.422 351.393 143.281 354.532 143.281 358.407C143.281 362.281 146.422 365.421 150.295 365.421H264.991C268.865 365.421 272.006 362.281 272.006 358.407C272.006 354.532 268.865 351.393 264.991 351.393Z" fill="white" stroke="white" stroke-width="3"/>
<path d="M291.177 374.771H150.295C146.422 374.771 143.281 377.911 143.281 381.786C143.281 385.66 146.422 388.8 150.295 388.8H291.177C295.05 388.8 298.191 385.66 298.191 381.786C298.191 377.911 295.05 374.771 291.177 374.771Z" fill="white" stroke="white" stroke-width="3"/>
<path d="M103.2 328.014H65.7919C59.3452 328.014 54.1016 333.258 54.1016 339.704V377.111C54.1016 383.558 59.3461 388.802 65.7919 388.802H103.2C109.647 388.802 114.89 383.558 114.89 377.112V339.704C114.89 333.257 109.646 328.014 103.2 328.014ZM100.863 374.774H68.1309V342.042H100.863V374.774Z" fill="white" stroke="white" stroke-width="13"/>
</svg>
