<svg id="Layer_5" enable-background="new 0 0 64 64" height="512" viewBox="0 0 64 64" width="512" xmlns="http://www.w3.org/2000/svg"><g><g><g><path d="m55 27 6 8h-3v12h-6v-12h-3z" fill="#b4dd7f"/></g><g><circle cx="55" cy="4" fill="#ff826e" r="2"/></g><g><circle cx="55" cy="12" fill="#ff826e" r="2"/></g><g><circle cx="55" cy="20" fill="#ff826e" r="2"/></g><g><path d="m40 36.52c3.62 2.53 6 6.72 6 11.48 0 7.73-6.27 14-14 14s-14-6.27-14-14c0-4.76 2.38-8.95 6-11.48v-31.52-2-2h16z" fill="#ffc729"/></g><g><circle cx="32" cy="48" fill="#fcd770" r="10"/></g><g><path d="m15 29-6 8-6-8h3v-12h6v12z" fill="#b4dd7f"/></g><g><circle cx="9" cy="44" fill="#ff826e" r="2"/></g><g><circle cx="9" cy="52" fill="#ff826e" r="2"/></g><g><circle cx="9" cy="60" fill="#ff826e" r="2"/></g></g><g><path d="m33 45c.552 0 1 .449 1 1h2c0-1.654-1.346-3-3-3v-2h-2v2h-3v3c0 1.654 1.346 3 3 3h2c.552 0 1 .449 1 1v1h-3c-.552 0-1-.449-1-1h-2c0 1.654 1.346 3 3 3v2h2v-2h3v-3c0-1.654-1.346-3-3-3h-2c-.552 0-1-.449-1-1v-1z"/><path d="m17 28h-4v-12h-8v12h-4l8 10.667zm-10 2v-12h4v12h2l-4 5.333-4-5.333z"/><path d="m33 37c2.206 0 4-1.794 4-4h-2c0 1.103-.897 2-2 2s-2-.897-2-2h2v-2h-2v-2h2v-2h-2c0-1.103.897-2 2-2s2 .897 2 2h2c0-2.206-1.794-4-4-4s-4 1.794-4 4h-2v2h2v2h-2v2h2c0 2.206 1.794 4 4 4z"/><path d="m29 11v2h2v2h-2v2h2v2h2v-2h2v-2h-2v-2h2v-2h-1.719l3.5-4.375-1.562-1.25-3.219 4.024-3.219-4.024-1.562 1.25 3.5 4.375z"/><path d="m24.801 42.617-1.602-1.199c-1.438 1.922-2.199 4.198-2.199 6.582 0 6.065 4.935 11 11 11s11-4.935 11-11c0-2.384-.761-4.66-2.199-6.582l-1.602 1.199c1.178 1.573 1.801 3.435 1.801 5.383 0 4.962-4.037 9-9 9s-9-4.038-9-9c0-1.948.623-3.81 1.801-5.383z"/><path d="m41 36.01v-35.01h-2v36.042l.428.298c3.489 2.436 5.572 6.421 5.572 10.66 0 7.168-5.832 13-13 13s-13-5.832-13-13c0-4.239 2.083-8.224 5.572-10.66l.428-.298v-32.042h-2v31.01c-3.767 2.831-6 7.274-6 11.99 0 8.271 6.729 15 15 15s15-6.729 15-15c0-4.716-2.233-9.159-6-11.99z"/><path d="m23 1h2v2h-2z"/><path d="m9 41c-1.654 0-3 1.346-3 3s1.346 3 3 3 3-1.346 3-3-1.346-3-3-3zm0 4c-.552 0-1-.449-1-1s.448-1 1-1 1 .449 1 1-.448 1-1 1z"/><path d="m9 49c-1.654 0-3 1.346-3 3s1.346 3 3 3 3-1.346 3-3-1.346-3-3-3zm0 4c-.552 0-1-.449-1-1s.448-1 1-1 1 .449 1 1-.448 1-1 1z"/><path d="m9 57c-1.654 0-3 1.346-3 3s1.346 3 3 3 3-1.346 3-3-1.346-3-3-3zm0 4c-.552 0-1-.449-1-1s.448-1 1-1 1 .449 1 1-.448 1-1 1z"/><path d="m55 25.333-8 10.667h4v12h8v-12h4zm2 8.667v12h-4v-12h-2l4-5.333 4 5.333z"/><path d="m55 23c1.654 0 3-1.346 3-3s-1.346-3-3-3-3 1.346-3 3 1.346 3 3 3zm0-4c.552 0 1 .449 1 1s-.448 1-1 1-1-.449-1-1 .448-1 1-1z"/><path d="m55 15c1.654 0 3-1.346 3-3s-1.346-3-3-3-3 1.346-3 3 1.346 3 3 3zm0-4c.552 0 1 .449 1 1s-.448 1-1 1-1-.449-1-1 .448-1 1-1z"/><path d="m55 7c1.654 0 3-1.346 3-3s-1.346-3-3-3-3 1.346-3 3 1.346 3 3 3zm0-4c.552 0 1 .449 1 1s-.448 1-1 1-1-.449-1-1 .448-1 1-1z"/></g></g></svg>