<svg width="512" height="512" viewBox="0 0 512 512" fill="none" xmlns="http://www.w3.org/2000/svg">
<path d="M213.68 193.44L208 216L185.12 220.16L141.28 228.16C127.6 230.64 115.36 238.16 107.04 249.28C99.84 258.88 96 270.48 96 282.4V336H64V160C64 115.84 99.84 80 144 80H152V80.08C152 85.36 152.64 90.56 153.92 95.68L156.48 106C153.68 109.92 152 114.8 152 120C152 126.64 154.72 132.64 159.04 136.96C163.36 141.28 169.36 144 176 144H184C184 159.52 190.24 173.44 200.4 183.6C204.32 187.52 208.8 190.88 213.68 193.44Z" fill="#CCD1D9"/>
<path d="M400 144V174.08C400 190 391.04 204.48 376.88 211.6C371.04 214.48 364.64 216 358.08 216H296H272L266.32 193.44C284 184.08 296 165.44 296 144H304C310.64 144 316.64 141.28 320.96 136.96C325.28 132.64 328 126.64 328 120C328 114.8 326.32 109.92 323.52 106L326.08 95.68C327.36 90.56 328 85.36 328 80.08V80H336C354 80 370.64 85.92 384 96V114.72C384 123.2 387.36 131.36 393.36 137.36L400 144Z" fill="#CCD1D9"/>
<path d="M416 264.002V336.002H336V280.002H360.72C380.32 280.002 399.44 274.482 415.92 263.922L416 264.002Z" fill="#CCD1D9"/>
<path d="M16 336H496V496H16V336Z" fill="#D3A06C"/>
<path d="M216 336H240V384H208H136C113.92 384 96 366.08 96 344V336V282.4C96 270.48 99.84 258.88 107.04 249.28C115.36 238.16 127.6 230.64 141.28 228.16L185.12 220.16L196.24 261.92L216 336Z" fill="#FCD770"/>
<path d="M463.999 152V176.72C463.999 194 459.679 210.72 451.759 225.44C443.839 240.24 432.319 253.12 417.999 262.64C417.279 263.12 416.639 263.52 415.919 263.92C399.439 274.48 380.319 280 360.719 280H335.999V336H287.999V296C287.999 291.6 286.239 287.6 283.279 284.72C281.919 283.36 280.319 282.16 278.559 281.44L283.759 261.92L295.999 216H358.079C364.639 216 371.039 214.48 376.879 211.6C391.039 204.48 399.999 190 399.999 174.08V144H447.999H455.999C460.399 144 463.999 147.6 463.999 152V152Z" fill="#FCD770"/>
<path d="M216 72L208.24 73.92C197.04 76.8 188.4 85.36 185.28 96H176C167.92 96 160.88 99.92 156.48 106L153.92 95.68C152.64 90.56 152 85.36 152 80.08V80C152 62.32 159.2 46.4 170.8 34.8C182.4 23.2 198.4 16 216.08 16H263.92C299.28 16 327.92 44.64 328 80V80.08C328 85.36 327.36 90.56 326.08 95.68L323.52 106C319.12 99.92 312.08 96 304 96H296H240C233.36 96 227.36 93.28 223.04 88.96C218.72 84.64 216 78.64 216 72Z" fill="#656D78"/>
<path d="M323.52 106C326.32 109.92 328 114.8 328 120C328 126.64 325.28 132.64 320.96 136.96C316.64 141.28 310.64 144 304 144H296V96H304C312.08 96 319.12 99.92 323.52 106Z" fill="#FFC107"/>
<path d="M176 96H185.28C184.48 98.88 184 101.84 184 104.96V144H176C169.36 144 163.36 141.28 159.04 136.96C154.72 132.64 152 126.64 152 120C152 114.8 153.68 109.92 156.48 106C160.88 99.92 167.92 96 176 96Z" fill="#FFC107"/>
<path d="M266.32 193.441L272 216.001L240 240.001L208 216.001L213.68 193.441C221.52 197.681 230.48 200.001 240 200.001C249.52 200.001 258.48 197.681 266.32 193.441Z" fill="#FFC107"/>
<path d="M296 96V144C296 165.44 284 184.08 266.32 193.44C258.48 197.68 249.52 200 240 200C230.48 200 221.52 197.68 213.68 193.44C208.8 190.88 204.32 187.52 200.4 183.6C190.24 173.44 184 159.52 184 144V104.96C184 101.84 184.48 98.88 185.28 96C188.4 85.36 197.04 76.8 208.24 73.92L216 72C216 78.64 218.72 84.64 223.04 88.96C227.36 93.28 233.36 96 240 96H296Z" fill="#FFC107"/>
<path d="M256 304V336H240H216L232 272H248L256 304Z" fill="#B4DD7F"/>
<path d="M400 80V64C400 55.2 403.6 47.2 409.36 41.36C415.2 35.6 423.2 32 432 32C449.68 32 464 46.32 464 64V111.44C464 122.08 459.76 132.24 452.32 139.68L448 144H400L393.36 137.36C387.36 131.36 384 123.2 384 114.72V96C384 87.2 391.2 80 400 80V80Z" fill="#FFC107"/>
<path d="M416 336H336H288V360V400L272 432L256 400V384H240H208V464H336H448V336H416Z" fill="#E6E9ED"/>
<path d="M296 216L283.76 261.92L262 251.04L240 240L272 216H296Z" fill="#FC6E51"/>
<path d="M288 360V400L272 432L256 400V384H264C277.28 384 288 373.28 288 360Z" fill="#AAB2BD"/>
<path d="M288 336V360C288 353.36 285.28 347.36 280.96 343.04C276.64 338.72 270.64 336 264 336H256V304V296C256 287.2 263.2 280 272 280C274.32 280 276.56 280.48 278.56 281.44C280.32 282.16 281.92 283.36 283.28 284.72C286.24 287.6 288 291.6 288 296V336Z" fill="#AAB2BD"/>
<path d="M283.76 261.919L278.56 281.439C276.56 280.479 274.32 279.999 272 279.999C263.2 279.999 256 287.199 256 295.999V303.999L248 271.999L262 251.039L283.76 261.919Z" fill="#FF826E"/>
<path d="M280.96 343.04C285.28 347.36 288 353.36 288 360C288 373.28 277.28 384 264 384H256H240V336H256H264C270.64 336 276.64 338.72 280.96 343.04Z" fill="#FFC107"/>
<path d="M262 251.04L248 272H232L218 251.04L240 240L262 251.04Z" fill="#A0D468"/>
<path d="M240.001 240L218.001 251.04L196.241 261.92L185.121 220.16L208.001 216L240.001 240Z" fill="#FC6E51"/>
<path d="M217.998 251.039L231.998 271.999L215.998 335.999L196.238 261.919L217.998 251.039Z" fill="#FF826E"/>
<path d="M223.16 148.422L208.848 155.582L209.688 157.262C215.464 168.822 227.08 175.998 240 175.998C252.92 175.998 264.536 168.822 270.312 157.262L271.152 155.574L256.84 148.414L256 150.11C252.952 156.206 246.824 159.998 240 159.998C233.176 159.998 227.048 156.206 224 150.11L223.16 148.422Z" fill="black"/>
<path d="M216 136C220.418 136 224 132.418 224 128C224 123.582 220.418 120 216 120C211.582 120 208 123.582 208 128C208 132.418 211.582 136 216 136Z" fill="black"/>
<path d="M264 136C268.418 136 272 132.418 272 128C272 123.582 268.418 120 264 120C259.582 120 256 123.582 256 128C256 132.418 259.582 136 264 136Z" fill="black"/>
<path d="M424 328V268.136C454.048 247.336 472 213.368 472 176.736V152C472 146.056 468.704 140.92 463.88 138.16C469.16 130.32 472 121.096 472 111.432V64C472 41.944 454.056 24 432 24C409.944 24 392 41.944 392 64V73.472C386.768 75.336 382.408 78.92 379.56 83.592C366.344 76.024 351.496 72 336 72H335.512C331.464 36.048 300.904 8 263.888 8H216.104C179.088 8 148.528 36.048 144.48 72H144C95.48 72 56 111.48 56 160V328H8V504H504V328H424ZM209.712 81.864C213.904 94.664 225.816 104 240 104H288V144C288 170.472 266.472 192 240 192C213.528 192 192 170.472 192 144V104.984C192 94.12 199.264 84.704 209.712 81.864ZM320 120C320 128.824 312.824 136 304 136V104C312.824 104 320 111.176 320 120ZM272 414.112L264 398.112V392C269.856 392 275.272 390.304 280 387.552V398.112L272 414.112ZM240 248.944L250.32 254.104L243.72 264H236.28L229.68 254.104L240 248.944ZM272 288C276.416 288 280 291.592 280 296V332.448C275.272 329.696 269.856 328 264 328V296C264 291.592 267.584 288 272 288ZM215.264 261.312L223.384 273.488L215.752 304.024L205.648 266.12L215.264 261.312ZM238.248 280H241.76L248 304.976V328H226.24L238.248 280ZM264 344C272.824 344 280 351.176 280 360C280 368.824 272.824 376 264 376H248V344H264ZM272 272C266.528 272 261.536 273.912 257.496 277.008L256.616 273.496L264.736 261.32L274.36 266.128L272.776 272.08C272.512 272.072 272.264 272 272 272ZM278.568 250.336L255.152 238.632L274.664 224H285.592L278.568 250.336ZM240 208C247.312 208 254.312 206.704 260.864 204.44L262.952 212.792L240 230L217.048 212.784L219.136 204.432C225.68 206.704 232.688 208 240 208ZM206 224.496L224.848 238.632L201.44 250.336L195.08 226.48L206 224.496ZM179.288 229.352L205.592 328H152V280H136V332.688L122.344 346.344L133.656 357.656L147.312 344H232V376H136C118.352 376 104 361.648 104 344V282.376C104 272.24 107.344 262.2 113.424 254.096C120.584 244.56 130.976 238.128 142.704 236L179.288 229.352ZM216 392H248V401.888L259.056 424H232V440H312V424H284.944L296 401.888V344H328V456H216V392ZM344 344H440V456H344V344ZM344 328V288H360.736C377.2 288 393.28 284.384 408 277.464V328H344ZM456 176.736C456 208.656 440.144 238.288 413.576 256C397.872 266.472 379.608 272 360.736 272H328V328H296V296C296 288.816 292.76 282.432 287.736 278.024L302.144 224H358.112C365.816 224 373.536 222.176 380.424 218.736C397.432 210.224 408 193.128 408 174.112V152H456V176.736ZM392 96C392 91.592 395.584 88 400 88C404.416 88 408 91.592 408 96V104H424V96C424 85.584 417.288 76.784 408 73.472V64C408 50.768 418.768 40 432 40C445.232 40 456 50.768 456 64V111.432C456 119.984 452.672 128.016 446.624 134.064L444.688 136H403.312L399.032 131.712C394.56 127.248 392 121.064 392 114.744V96ZM376 100.184V114.744C376 125.424 380.168 135.472 387.72 143.024L392 147.312V174.112C392 187.032 384.824 198.64 373.264 204.424C368.584 206.76 363.344 208 358.112 208H278.256L275.552 197.184C290.592 187.096 301.096 170.8 303.456 152H304C321.648 152 336 137.648 336 120C336 114.504 334.48 109.4 332.024 104.872L333.84 97.592C334.632 94.44 335.152 91.224 335.512 87.992H336C350.424 88 364.152 92.232 376 100.184V100.184ZM216.112 24H263.896C294.832 24 320 49.168 320 80.112C320 84.032 319.504 87.92 318.696 91.744C314.272 89.432 309.328 88 304 88H240C231.176 88 224 80.824 224 72C224 63.176 231.176 56 240 56V40C224.544 40 211.624 51.008 208.648 65.592L206.304 66.176C194.336 69.168 184.896 77.392 179.904 88H176C170.672 88 165.728 89.432 161.304 91.744C160.496 87.92 160 84.024 160 80.112C160 49.168 185.168 24 216.112 24V24ZM176 104.984V136C167.176 136 160 128.824 160 120C160 111.176 167.176 104 176 104H176.08C176.072 104.336 176 104.648 176 104.984V104.984ZM72 160C72 120.304 104.296 88 144 88H144.488C144.848 91.232 145.368 94.448 146.16 97.6L147.976 104.88C145.52 109.4 144 114.504 144 120C144 137.648 158.352 152 176 152H176.552C178.912 170.8 189.408 187.104 204.456 197.184L201.488 209.048L139.84 220.256C124.136 223.112 110.208 231.72 100.624 244.488C92.488 255.352 88 268.808 88 282.376V328H72V160ZM488 488H24V344H88C88 370.472 109.528 392 136 392H200V472H456V344H488V488Z" fill="black"/>
<path d="M360 424H424V440H360V424Z" fill="black"/>
<path d="M360 392H424V408H360V392Z" fill="black"/>
<path d="M360 360H424V376H360V360Z" fill="black"/>
</svg>
