<svg width="481" height="481" viewBox="0 0 481 481" fill="none" xmlns="http://www.w3.org/2000/svg">
<path d="M472.172 432.002H334.302L375.032 364.118C375.761 362.904 376.154 361.518 376.172 360.103C376.189 358.687 375.831 357.292 375.134 356.06C374.436 354.828 373.424 353.803 372.201 353.09C370.978 352.378 369.588 352.002 368.172 352.002H328.172V307.316L437.829 197.659C439.329 196.158 440.172 194.124 440.172 192.002V160.002H424.172V188.688L314.515 298.345C313.015 299.846 312.172 301.88 312.172 304.002V352.002H296.172V304.002C296.172 301.88 295.329 299.846 293.829 298.345L184.172 188.688V160.002H168.172V192.002C168.172 194.124 169.015 196.158 170.515 197.659L280.172 307.316V352.002H272.172C270.762 352.002 269.376 352.375 268.156 353.083C266.936 353.79 265.925 354.808 265.226 356.033L235.529 408.002H234.296L183.438 378.94L179.101 352.907C177.962 346.051 175.347 339.525 171.436 333.78C167.524 328.036 162.411 323.21 156.449 319.639L143.228 311.706C143.855 309.186 144.172 306.599 144.172 304.002V266.424C144.172 261.642 142.874 256.949 140.417 252.846C137.959 248.744 134.434 245.385 130.218 243.128C126.001 240.872 121.251 239.802 116.474 240.033C111.697 240.264 107.073 241.787 103.094 244.44L83.7344 257.346C82.6385 258.076 81.74 259.066 81.1185 260.227C80.497 261.388 80.1719 262.685 80.1719 264.002V304.002C80.172 306.811 80.5427 309.607 81.2747 312.319L61.5459 325.471C52.0094 331.822 45.0665 341.382 41.9778 352.415C30.425 353.932 19.8166 359.593 12.1264 368.347C4.43616 377.101 0.187836 388.35 0.171875 400.002V472.002C0.171896 474.124 1.01476 476.158 2.51504 477.659C4.01533 479.159 6.05015 480.002 8.17188 480.002H472.172C474.294 480.002 476.328 479.159 477.829 477.659C479.329 476.158 480.172 474.124 480.172 472.002V440.002C480.172 437.88 479.329 435.845 477.829 434.345C476.328 432.845 474.294 432.002 472.172 432.002V432.002ZM40.1719 464.002H16.1719V400.002C16.1809 392.91 18.5417 386.02 22.8846 380.413C27.2274 374.806 33.3072 370.797 40.1719 369.015V464.002ZM248.172 418.127L276.814 368.002H354.042L315.643 432.002H248.172V418.127ZM202.048 408.002H176.74L152.878 404.593L175.92 393.072L202.048 408.002ZM232.172 424.002V432.002H184.172V424.002H232.172ZM96.1719 268.284L111.97 257.752C113.539 256.706 115.363 256.105 117.248 256.014C119.132 255.923 121.005 256.345 122.668 257.235C124.331 258.126 125.722 259.45 126.691 261.069C127.66 262.687 128.172 264.538 128.172 266.424V272.002H96.1719V268.284ZM96.1719 288.002H128.172V304.002C128.172 308.245 126.486 312.315 123.486 315.316C120.485 318.316 116.415 320.002 112.172 320.002C107.928 320.002 103.859 318.316 100.858 315.316C97.8576 312.315 96.1719 308.245 96.1719 304.002V288.002ZM56.1719 365.409C56.1662 360.14 57.4644 354.952 59.9506 350.306C62.4367 345.66 66.0337 341.702 70.4209 338.784L89.2104 326.257C92.2265 329.379 95.8474 331.853 99.852 333.529C103.857 335.204 108.161 336.045 112.501 336C116.842 335.956 121.128 335.026 125.097 333.269C129.067 331.512 132.636 328.964 135.587 325.781L148.217 333.358C152.191 335.739 155.601 338.956 158.208 342.786C160.815 346.616 162.559 350.967 163.317 355.537L167.309 379.489L152.172 387.058V376.002H136.172V402.206L125.072 400.621L103.032 363.886L89.3116 372.118L100.019 389.964L71.2646 407.217L56.1719 389.106V365.409ZM80.1719 464.002H56.1719V414.098L80.1719 442.898V464.002ZM81.6309 419.656L108.251 403.684L113.312 412.118C113.924 413.138 114.755 414.008 115.746 414.666C116.737 415.324 117.862 415.753 119.04 415.921L168.172 422.94V432.002H91.9189L81.6309 419.656ZM464.172 464.002H96.1719V448.002H464.172V464.002Z" fill="white"/>
<path d="M200.172 128.002H216.172V192.002H200.172V128.002Z" fill="white"/>
<path d="M280.172 88.002C280.172 85.8802 279.329 83.8454 277.829 82.3451C276.328 80.8448 274.294 80.002 272.172 80.002H240.172C238.05 80.002 236.015 80.8448 234.515 82.3451C233.015 83.8454 232.172 85.8802 232.172 88.002V144.002C232.172 146.124 233.015 148.158 234.515 149.659C236.015 151.159 238.05 152.002 240.172 152.002H272.172C274.294 152.002 276.328 151.159 277.829 149.659C279.329 148.158 280.172 146.124 280.172 144.002V88.002ZM264.172 136.002H248.172V96.002H264.172V136.002Z" fill="white"/>
<path d="M344.172 136.002C344.172 133.88 343.329 131.845 341.829 130.345C340.328 128.845 338.294 128.002 336.172 128.002H304.172C302.05 128.002 300.015 128.845 298.515 130.345C297.015 131.845 296.172 133.88 296.172 136.002V200.002C296.172 202.124 297.015 204.158 298.515 205.659C300.015 207.159 302.05 208.002 304.172 208.002H336.172C338.294 208.002 340.328 207.159 341.829 205.659C343.329 204.158 344.172 202.124 344.172 200.002V136.002ZM328.172 192.002H312.172V144.002H328.172V192.002Z" fill="white"/>
<path d="M168.172 64.002H184.172V144.002H168.172V64.002Z" fill="white"/>
<path d="M264.172 48.002H280.172V64.002H264.172V48.002Z" fill="white"/>
<path d="M296.172 72.002H312.172V112.002H296.172V72.002Z" fill="white"/>
<path d="M328.172 88.002H344.172V112.002H328.172V88.002Z" fill="white"/>
<path d="M232.172 168.002H248.172V224.002H232.172V168.002Z" fill="white"/>
<path d="M264.172 168.002H280.172V192.002H264.172V168.002Z" fill="white"/>
<path d="M408.172 56.002C408.172 53.8802 407.329 51.8454 405.829 50.3451C404.328 48.8448 402.294 48.002 400.172 48.002H368.172C366.05 48.002 364.015 48.8448 362.515 50.3451C361.015 51.8454 360.172 53.8802 360.172 56.002V112.002C360.172 114.124 361.015 116.158 362.515 117.659C364.015 119.159 366.05 120.002 368.172 120.002H400.172C402.294 120.002 404.328 119.159 405.829 117.659C407.329 116.158 408.172 114.124 408.172 112.002V56.002ZM392.172 104.002H376.172V64.002H392.172V104.002Z" fill="white"/>
<path d="M424.172 64.002H440.172V136.002H424.172V64.002Z" fill="white"/>
<path d="M440.172 8.00195C440.172 5.88023 439.329 3.84541 437.829 2.34512C436.328 0.844835 434.294 0.00197434 432.172 0.00195312H176.172C174.05 0.00197434 172.015 0.844835 170.515 2.34512C169.015 3.84541 168.172 5.88023 168.172 8.00195V48.002H184.172V16.002H200.172V112.002H216.172V16.002H232.172V64.002H248.172V16.002H264.172V32.002H280.172V16.002H296.172V56.002H312.172V16.002H328.172V72.002H344.172V16.002H360.172V32.002H376.172V16.002H392.172V32.002H408.172V16.002H424.172V48.002H440.172V8.00195Z" fill="white"/>
<path d="M360.172 136.002H376.172V216.002H360.172V136.002Z" fill="white"/>
<path d="M392.172 136.002H408.172V192.002H392.172V136.002Z" fill="white"/>
<path d="M264.172 208.002H280.172V256.002H264.172V208.002Z" fill="white"/>
<path d="M296.172 224.002H312.172V280.002H296.172V224.002Z" fill="white"/>
<path d="M328.172 224.002H344.172V248.002H328.172V224.002Z" fill="white"/>
</svg>
