<svg id="outline" height="512" viewBox="0 0 512 512" width="512" xmlns="http://www.w3.org/2000/svg"><path d="m488 448h-137.87012l40.73047-67.88428a8 8 0 0 0 -6.86035-12.11572h-40v-44.686l109.65723-109.65726a8.00035 8.00035 0 0 0 2.34277-5.65674v-32h-16v28.686l-109.65723 109.65726a8.00035 8.00035 0 0 0 -2.34277 5.65674v48h-16v-48a8.00035 8.00035 0 0 0 -2.34277-5.65674l-109.65723-109.65726v-28.686h-16v32a8.00035 8.00035 0 0 0 2.34277 5.65674l109.65723 109.65726v44.686h-8a8.00057 8.00057 0 0 0 -6.94629 4.03076l-29.69678 51.96924h-1.23293l-50.8574-29.06152-4.33789-26.03369a47.93353 47.93353 0 0 0 -22.65137-33.26807l-13.22094-7.9325a31.94252 31.94252 0 0 0 .9436-7.70422v-37.57764a26.42138 26.42138 0 0 0 -41.07812-21.98436l-19.35938 12.90575a7.99943 7.99943 0 0 0 -3.5625 6.65625v40a31.91988 31.91988 0 0 0 1.10278 8.31689l-19.72878 13.15235a47.87881 47.87881 0 0 0 -19.56811 26.94385 48.0616 48.0616 0 0 0 -41.80589 47.58691v72a8.00008 8.00008 0 0 0 8 8h464a8.00008 8.00008 0 0 0 8-8v-32a8.00008 8.00008 0 0 0 -8-8zm-432 32h-24v-64a32.0573 32.0573 0 0 1 24-30.9873zm208-45.87476 28.64258-50.12524h77.22754l-38.39942 64h-67.4707zm-46.124-10.12524h-25.30813l-23.86133-3.40894 23.042-11.521zm30.124 16v8h-48v-8zm-136-155.71826 15.79785-10.53174a10.42171 10.42171 0 0 1 16.20215 8.67236v5.57764h-32zm0 19.71826h32v16a16 16 0 0 1 -32 0zm-40 77.40723a31.93682 31.93682 0 0 1 14.249-26.62549l18.78955-12.52637a31.92828 31.92828 0 0 0 46.377-.47644l12.62939 7.57752a31.95129 31.95129 0 0 1 15.10059 22.17871l3.9917 23.9519-15.13723 7.5686v-11.05566h-16v26.20435l-11.09961-1.5857-22.04-36.73437-13.7207 8.23144 10.70776 17.84619-28.75468 17.25293-15.09277-18.11108zm24 98.59277h-24v-49.90381l24 28.80005zm1.459-44.3457 26.62037-15.97242 5.0603 8.43384a8 8 0 0 0 5.72851 3.80371l49.13182 7.01905v9.06152h-76.25293zm382.541 44.3457h-368v-16h368z"/><path d="m216 144h16v64h-16z"/><path d="m296 104a8.00008 8.00008 0 0 0 -8-8h-32a8.00008 8.00008 0 0 0 -8 8v56a8.00008 8.00008 0 0 0 8 8h32a8.00008 8.00008 0 0 0 8-8zm-16 48h-16v-40h16z"/><path d="m360 152a8.00008 8.00008 0 0 0 -8-8h-32a8.00008 8.00008 0 0 0 -8 8v64a8.00008 8.00008 0 0 0 8 8h32a8.00008 8.00008 0 0 0 8-8zm-16 56h-16v-48h16z"/><path d="m184 80h16v80h-16z"/><path d="m280 64h16v16h-16z"/><path d="m312 88h16v40h-16z"/><path d="m344 104h16v24h-16z"/><path d="m248 184h16v56h-16z"/><path d="m280 184h16v24h-16z"/><path d="m424 72a8.00008 8.00008 0 0 0 -8-8h-32a8.00008 8.00008 0 0 0 -8 8v56a8.00008 8.00008 0 0 0 8 8h32a8.00008 8.00008 0 0 0 8-8zm-16 48h-16v-40h16z"/><path d="m440 80h16v72h-16z"/><path d="m456 24a8.00008 8.00008 0 0 0 -8-8h-256a8.00008 8.00008 0 0 0 -8 8v40h16v-32h16v96h16v-96h16v48h16v-48h16v16h16v-16h16v40h16v-40h16v56h16v-56h16v16h16v-16h16v16h16v-16h16v32h16z"/><path d="m376 152h16v80h-16z"/><path d="m408 152h16v56h-16z"/><path d="m280 224h16v48h-16z"/><path d="m312 240h16v56h-16z"/><path d="m344 240h16v24h-16z"/></svg>