<svg width="519" height="510" viewBox="0 0 519 510" fill="none" xmlns="http://www.w3.org/2000/svg">
<path d="M352.815 424.808H304.351V380.819L376.135 335.957L304.351 291.095V239.028H352.815V174.409H304.351V117.867H368.97V4.7832H223.577V117.867H288.196V174.409H239.732V198.641H167.035V214.796H239.732V239.028H288.196V291.095L216.412 335.957L288.196 380.819V424.808H239.732C226.372 424.808 215.5 435.68 215.5 449.041V481.35C215.5 494.71 226.372 505.582 239.732 505.582H352.815C366.176 505.582 377.048 494.71 377.048 481.35V449.041C377.048 435.68 366.176 424.808 352.815 424.808ZM239.732 20.938H352.815V101.712H239.732V20.938ZM255.887 190.564H336.661V222.873H255.887V190.564ZM296.274 305.093L345.651 335.957L296.274 366.821L246.896 335.957L296.274 305.093ZM360.893 481.35C360.893 485.801 357.266 489.428 352.815 489.428H239.732C235.281 489.428 231.654 485.801 231.654 481.35V449.041C231.654 444.59 235.281 440.963 239.732 440.963H352.815C357.266 440.963 360.893 444.59 360.893 449.041V481.35Z" fill="white" stroke="white" stroke-width="8"/>
<path d="M153.249 438.597L171.77 457.118H100.931C98.4919 450.277 93.1043 444.889 86.2627 442.45V271.338H70.1079V442.45C60.7301 445.794 53.9531 454.679 53.9531 465.196C53.9531 478.556 64.8253 489.428 78.1853 489.428C88.7021 489.428 97.5873 482.651 100.931 473.273H171.77L153.249 491.795L164.67 503.216L202.69 465.196L164.67 427.175L153.249 438.597ZM78.1853 473.273C73.7347 473.273 70.1079 469.646 70.1079 465.196C70.1079 460.745 73.7347 457.118 78.1853 457.118C82.636 457.118 86.2627 460.745 86.2627 465.196C86.2627 469.646 82.636 473.273 78.1853 473.273Z" fill="white" stroke="white" stroke-width="8"/>
<path d="M498.209 313.212V84.0719C507.587 80.7279 514.364 71.8428 514.364 61.326C514.364 47.9659 503.492 37.0938 490.132 37.0938C479.615 37.0938 470.73 43.8707 467.386 53.2486H385.125V69.4034H467.386C469.825 76.2449 475.213 81.6326 482.054 84.0719V313.22C475.213 315.659 469.825 321.047 467.386 327.888H412.702L431.223 309.367L419.802 297.945L381.781 335.958L419.802 373.978L431.223 362.557L412.702 344.035H467.386C470.73 353.413 479.615 360.19 490.132 360.19C503.492 360.19 514.364 349.318 514.364 335.958C514.364 325.441 507.587 316.556 498.209 313.212V313.212ZM490.132 53.2486C494.582 53.2486 498.209 56.8753 498.209 61.326C498.209 65.7766 494.582 69.4034 490.132 69.4034C485.681 69.4034 482.054 65.7766 482.054 61.326C482.054 56.8753 485.681 53.2486 490.132 53.2486ZM490.132 344.035C485.681 344.035 482.054 340.408 482.054 335.958C482.054 331.507 485.681 327.88 490.132 327.88C494.582 327.88 498.209 331.507 498.209 335.958C498.209 340.408 494.582 344.035 490.132 344.035Z" fill="white" stroke="white" stroke-width="8"/>
<path d="M148.628 206.718L78.1852 156.404L7.74219 206.718L78.1852 257.033L148.628 206.718ZM78.1852 176.259L120.826 206.718L78.1852 237.178L35.5446 206.718L78.1852 176.259Z" fill="white" stroke="white" stroke-width="8"/>
<path d="M255.887 37.0938H336.661V53.2486H255.887V37.0938Z" fill="white" stroke="white" stroke-width="8"/>
<path d="M255.887 69.4023H304.351V85.5572H255.887V69.4023Z" fill="white" stroke="white" stroke-width="8"/>
<path d="M320.508 69.4023H336.663V85.5572H320.508V69.4023Z" fill="white" stroke="white" stroke-width="8"/>
<path d="M457.824 457.117H473.979V473.272H457.824V457.117Z" fill="white" stroke="white" stroke-width="8"/>
<path d="M425.512 457.117H441.667V473.272H425.512V457.117Z" fill="white" stroke="white" stroke-width="8"/>
<path d="M393.203 457.117H409.358V473.272H393.203V457.117Z" fill="white" stroke="white" stroke-width="8"/>
<path d="M158.957 69.4023H175.112V85.5572H158.957V69.4023Z" fill="white" stroke="white" stroke-width="8"/>
<path d="M191.27 69.4023H207.424V85.5572H191.27V69.4023Z" fill="white" stroke="white" stroke-width="8"/>
<path d="M126.648 69.4023H142.803V85.5572H126.648V69.4023Z" fill="white" stroke="white" stroke-width="8"/>
</svg>
