<svg width="951" height="951" viewBox="0 0 951 951" fill="none" xmlns="http://www.w3.org/2000/svg">
<circle cx="475.161" cy="475.153" r="459.598" fill="white" stroke="#DF1F26" stroke-width="31"/>
<path d="M398.642 588.168C398.547 588.141 398.452 588.122 398.357 588.099C407.093 578.344 412.418 565.474 412.418 551.38V509.998C412.418 485.638 392.6 465.82 368.24 465.82H311.547C306.393 465.82 302.214 469.999 302.214 475.154V551.38C302.214 565.474 307.539 578.344 316.275 588.099C316.18 588.122 316.084 588.141 315.99 588.169C275.657 591.884 243.963 625.894 243.963 667.18V704.76C243.963 709.914 248.142 714.093 253.296 714.093H461.337C466.491 714.093 470.671 709.914 470.671 704.76V667.179C470.67 625.892 438.975 591.883 398.642 588.168ZM357.316 587.816C337.226 587.816 320.881 571.471 320.881 551.38V534.689C325.961 537.465 331.783 539.045 337.97 539.045H393.752V551.38C393.753 571.471 377.407 587.816 357.316 587.816ZM373.586 606.483L357.315 622.753L341.045 606.483H373.586ZM320.88 484.487H368.241C382.308 484.487 393.752 495.931 393.752 509.998V520.378H337.97C328.547 520.378 320.88 512.711 320.88 503.288V484.487ZM262.628 695.426V667.179C262.628 636.466 285.564 611.025 315.204 607.042L350.715 642.552C352.538 644.374 354.926 645.286 357.314 645.286C359.703 645.286 362.091 644.374 363.914 642.552L399.426 607.041C429.065 611.024 452.002 636.465 452.002 667.178V695.426H262.628Z" fill="#DF1F26" stroke="#DF1F26" stroke-width="6"/>
<path d="M660.304 595.084C667.483 587.965 671.937 578.103 671.937 567.219V529.27C671.937 507.734 661.142 488.68 644.688 477.205C644.838 476.541 644.917 475.854 644.917 475.154V452.964C666.737 450.228 683.671 431.56 683.671 409.01V315.479C683.671 291.053 663.799 271.18 639.372 271.18H494.264C469.837 271.18 449.965 291.053 449.965 315.479V409.01C449.965 433.436 469.837 453.309 494.264 453.309H600.539L613.246 466.017C611.673 465.899 610.089 465.82 608.486 465.82C573.499 465.82 545.036 494.284 545.036 529.27V567.218C545.036 578.103 549.49 587.964 556.668 595.083C529.513 607.63 510.615 635.108 510.615 666.932V704.76C510.615 709.914 514.795 714.093 519.949 714.093H697.024C702.178 714.093 706.357 709.914 706.357 704.76V666.934C706.357 635.109 687.459 607.631 660.304 595.084ZM611.006 437.376C609.255 435.626 606.882 434.642 604.407 434.642H494.264C480.13 434.642 468.632 423.144 468.632 409.01V315.479C468.632 301.345 480.13 289.847 494.264 289.847H639.371C653.505 289.847 665.003 301.345 665.003 315.479V315.981H605.793C600.639 315.981 596.459 320.159 596.459 325.314C596.459 330.469 600.639 334.648 605.793 334.648H665.003V409.01C665.003 423.144 653.505 434.642 639.371 434.642H635.583C630.429 434.642 626.249 438.821 626.249 443.976V452.62L611.006 437.376ZM563.704 529.27C563.704 504.577 583.793 484.487 608.487 484.487C633.18 484.487 653.27 504.577 653.27 529.27V567.218C653.27 578.575 644.03 587.815 632.673 587.815H627.24H589.734H584.3V587.816C572.943 587.816 563.704 578.576 563.704 567.219V529.27ZM687.692 695.426H687.691H529.283V666.934C529.283 633.601 556.402 606.483 589.735 606.483H627.241C660.574 606.483 687.692 633.601 687.692 666.934V695.426Z" fill="#DF1F26" stroke="#DF1F26" stroke-width="6"/>
<path d="M434.992 236.219H326.432C302.006 236.219 282.133 256.092 282.133 280.518V374.049C282.133 396.599 299.067 415.268 320.886 418.003V440.193C320.886 443.967 323.16 447.371 326.647 448.816C327.802 449.295 329.015 449.527 330.218 449.527C332.647 449.527 335.034 448.578 336.819 446.793L365.263 418.349H413.767C418.921 418.349 423.101 414.17 423.101 409.015C423.101 403.86 418.921 399.681 413.767 399.681H361.397C358.922 399.681 356.548 400.665 354.797 402.415L339.554 417.659V409.015C339.554 403.86 335.374 399.681 330.22 399.681H326.432C312.298 399.681 300.8 388.183 300.8 374.049V280.518C300.8 266.384 312.299 254.886 326.432 254.886H434.991C440.145 254.886 444.324 250.707 444.324 245.552C444.324 240.397 440.145 236.219 434.992 236.219Z" fill="#DF1F26" stroke="#DF1F26" stroke-width="6"/>
<path d="M573.416 318.719C571.681 316.983 569.272 315.984 566.818 315.984C564.363 315.984 561.955 316.983 560.219 318.719C558.483 320.455 557.484 322.863 557.484 325.318C557.484 327.773 558.482 330.181 560.219 331.917C561.956 333.653 564.363 334.652 566.818 334.652C569.273 334.652 571.681 333.653 573.416 331.917C575.152 330.181 576.152 327.773 576.152 325.318C576.152 322.863 575.153 320.455 573.416 318.719Z" fill="#DF1F26" stroke="#DF1F26" stroke-width="6"/>
</svg>
