<svg width="469" height="485" viewBox="0 0 469 485" fill="none" xmlns="http://www.w3.org/2000/svg">
<path d="M158.132 355.877C158.038 355.85 157.942 355.831 157.847 355.808C166.583 346.053 171.908 333.183 171.908 319.089V277.707C171.908 253.347 152.09 233.529 127.731 233.529H71.0375C65.8835 233.529 61.704 237.708 61.704 242.863V319.089C61.704 333.183 67.0297 346.053 75.765 355.808C75.6698 355.831 75.5746 355.85 75.4803 355.878C35.1471 359.593 3.45312 393.603 3.45312 434.889V472.469C3.45312 477.623 7.6327 481.802 12.7867 481.802H220.827C225.981 481.802 230.161 477.623 230.161 472.469V434.888C230.16 393.601 198.465 359.592 158.132 355.877ZM116.807 355.525C96.7161 355.525 80.3711 339.18 80.3711 319.089V302.398C85.4514 305.174 91.2737 306.754 97.4599 306.754H153.242V319.089C153.243 339.18 136.897 355.525 116.807 355.525ZM133.076 374.192L116.806 390.462L100.535 374.192H133.076ZM80.3702 252.196H127.732C141.798 252.196 153.242 263.64 153.242 277.707V288.087H97.4599C88.0368 288.087 80.3702 280.42 80.3702 270.997V252.196ZM22.1184 463.135V434.888C22.1184 404.175 45.0538 378.734 74.6944 374.751L110.205 410.261C112.028 412.083 114.416 412.995 116.805 412.995C119.193 412.995 121.582 412.083 123.404 410.261L158.916 374.75C188.556 378.733 211.492 404.174 211.492 434.887V463.135H22.1184Z" fill="white" stroke="white" stroke-width="6"/>
<path d="M419.797 362.793C426.975 355.674 431.429 345.812 431.429 334.928V296.979C431.429 275.442 420.634 256.389 404.181 244.914C404.33 244.25 404.409 243.563 404.409 242.863V220.673C426.229 217.937 443.163 199.269 443.163 176.719V83.1877C443.163 58.7617 423.291 38.8887 398.864 38.8887H253.756C229.329 38.8887 209.457 58.7617 209.457 83.1877V176.719C209.457 201.145 229.329 221.018 253.756 221.018H360.031L372.739 233.726C371.165 233.608 369.581 233.529 367.978 233.529C332.992 233.529 304.528 261.993 304.528 296.979V334.927C304.528 345.812 308.982 355.673 316.16 362.792C289.005 375.339 270.108 402.817 270.108 434.641V472.469C270.108 477.623 274.287 481.802 279.441 481.802H456.516C461.67 481.802 465.849 477.623 465.849 472.469V434.643C465.849 402.818 446.951 375.34 419.797 362.793ZM370.499 205.085C368.748 203.335 366.374 202.351 363.899 202.351H253.756C239.622 202.351 228.124 190.853 228.124 176.719V83.1877C228.124 69.0538 239.622 57.5558 253.756 57.5558H398.863C412.997 57.5558 424.495 69.0538 424.495 83.1877V83.6898H365.285C360.131 83.6898 355.951 87.8685 355.951 93.0234C355.951 98.1783 360.131 102.357 365.285 102.357H424.495V176.719C424.495 190.853 412.997 202.351 398.863 202.351H395.075C389.921 202.351 385.741 206.53 385.741 211.685V220.329L370.499 205.085ZM323.196 296.979C323.196 272.286 343.286 252.196 367.979 252.196C392.672 252.196 412.762 272.286 412.762 296.979V334.927C412.762 346.284 403.523 355.524 392.165 355.524H386.732H349.226H343.792V355.525C332.435 355.525 323.196 346.285 323.196 334.928V296.979ZM447.184 463.135H447.183H288.776V434.643C288.776 401.31 315.894 374.192 349.227 374.192H386.733C420.066 374.192 447.184 401.31 447.184 434.643V463.135V463.135Z" fill="white" stroke="white" stroke-width="6"/>
<path d="M194.484 3.92383H85.924C61.498 3.92383 41.625 23.7969 41.625 48.2228V141.755C41.625 164.304 58.5589 182.973 80.378 185.708V207.898C80.378 211.672 82.6526 215.076 86.1396 216.521C87.2942 217 88.5075 217.232 89.7097 217.232C92.1392 217.232 94.5258 216.283 96.3113 214.498L124.755 186.054H173.259C178.413 186.054 182.593 181.875 182.593 176.72C182.593 171.565 178.413 167.386 173.259 167.386H120.889C118.414 167.386 116.041 168.37 114.29 170.12L99.0461 185.364V176.72C99.0461 171.565 94.8665 167.386 89.7125 167.386H85.924C71.7902 167.386 60.2922 155.888 60.2922 141.755V48.2228C60.2922 34.089 71.7911 22.591 85.924 22.591H194.483C199.637 22.591 203.816 18.4123 203.816 13.2574C203.816 8.10247 199.637 3.92383 194.484 3.92383Z" fill="white" stroke="white" stroke-width="6"/>
<path d="M332.908 86.4242C331.173 84.6881 328.764 83.6895 326.31 83.6895C323.855 83.6895 321.447 84.6881 319.711 86.4242C317.975 88.1602 316.977 90.5683 316.977 93.023C316.977 95.4778 317.974 97.8858 319.711 99.6219C321.448 101.358 323.855 102.357 326.31 102.357C328.765 102.357 331.173 101.358 332.908 99.6219C334.644 97.8858 335.644 95.4778 335.644 93.023C335.644 90.5683 334.645 88.1602 332.908 86.4242Z" fill="white" stroke="white" stroke-width="6"/>
</svg>
