<svg width="1162" height="1162" viewBox="0 0 1162 1162" fill="none" xmlns="http://www.w3.org/2000/svg">
<circle cx="580.975" cy="581.08" r="564.791" fill="#3C4FAF" stroke="#3C4FAF" stroke-width="31"/>
<path d="M746.716 507.518L735.254 520.047L787.382 567.834C799.654 579.124 806.65 595.031 806.654 611.702V819.782H823.654V611.702C823.633 590.261 814.64 569.814 798.851 555.302L746.716 507.518Z" fill="white" stroke="white" stroke-width="2"/>
<path d="M679.154 309.783H458.154C434.694 309.813 415.684 328.823 415.654 352.283V777.283C415.684 800.743 434.694 819.753 458.154 819.783H670.654V804.577C670.614 766.286 681.949 728.837 703.226 697.001C705.479 693.626 705.026 689.136 702.164 686.274L642.664 626.774C637.164 621.268 634.249 613.696 634.633 605.925C635.02 598.15 638.673 590.908 644.687 585.974C656.27 577.119 672.652 578.383 682.741 588.904L766.645 672.81L778.664 660.791L721.654 603.764V352.283C721.625 328.823 702.614 309.813 679.154 309.783ZM704.654 586.764L694.76 576.87C678.453 560.21 652.226 558.474 633.866 572.845C624.155 580.827 618.262 592.544 617.648 605.105C617.036 617.664 621.754 629.897 630.645 638.793L685.3 693.45C664.917 726.296 653.986 764.129 653.714 802.783H458.154C444.074 802.783 432.654 791.363 432.654 777.283V751.783H645.154V734.783H432.654V377.783H704.654V586.764ZM704.654 360.783H432.654V352.283C432.654 338.203 444.074 326.783 458.154 326.783H679.154C693.235 326.783 704.654 338.203 704.654 352.283V360.783Z" fill="white" stroke="white" stroke-width="2"/>
<path d="M466.654 462.783H500.654C510.045 462.783 517.654 455.174 517.654 445.783V411.783C517.654 402.393 510.045 394.783 500.654 394.783H466.654C457.264 394.783 449.654 402.393 449.654 411.783V445.783C449.654 455.174 457.264 462.783 466.654 462.783ZM466.654 411.783H500.654V445.783H466.654V411.783Z" fill="white" stroke="white" stroke-width="2"/>
<path d="M551.654 462.783H585.654C595.045 462.783 602.654 455.174 602.654 445.783V411.783C602.654 402.393 595.045 394.783 585.654 394.783H551.654C542.264 394.783 534.654 402.393 534.654 411.783V445.783C534.654 455.174 542.264 462.783 551.654 462.783ZM551.654 411.783H585.654V445.783H551.654V411.783Z" fill="white" stroke="white" stroke-width="2"/>
<path d="M636.654 462.783H670.654C680.045 462.783 687.654 455.174 687.654 445.783V411.783C687.654 402.393 680.045 394.783 670.654 394.783H636.654C627.264 394.783 619.654 402.393 619.654 411.783V445.783C619.654 455.174 627.264 462.783 636.654 462.783ZM636.654 411.783H670.654V445.783H636.654V411.783Z" fill="white" stroke="white" stroke-width="2"/>
<path d="M466.654 547.783H500.654C510.045 547.783 517.654 540.174 517.654 530.783V496.783C517.654 487.393 510.045 479.783 500.654 479.783H466.654C457.264 479.783 449.654 487.393 449.654 496.783V530.783C449.654 540.174 457.264 547.783 466.654 547.783ZM466.654 496.783H500.654V530.783H466.654V496.783Z" fill="white" stroke="white" stroke-width="2"/>
<path d="M466.654 632.783H500.654C510.045 632.783 517.654 625.174 517.654 615.783V581.783C517.654 572.393 510.045 564.783 500.654 564.783H466.654C457.264 564.783 449.654 572.393 449.654 581.783V615.783C449.654 625.174 457.264 632.783 466.654 632.783ZM466.654 581.783H500.654V615.783H466.654V581.783Z" fill="white" stroke="white" stroke-width="2"/>
<path d="M551.654 547.783H585.654C595.045 547.783 602.654 540.174 602.654 530.783V496.783C602.654 487.393 595.045 479.783 585.654 479.783H551.654C542.264 479.783 534.654 487.393 534.654 496.783V530.783C534.654 540.174 542.264 547.783 551.654 547.783ZM551.654 496.783H585.654V530.783H551.654V496.783Z" fill="white" stroke="white" stroke-width="2"/>
<path d="M636.654 547.783H670.654C680.045 547.783 687.654 540.174 687.654 530.783V496.783C687.654 487.393 680.045 479.783 670.654 479.783H636.654C627.264 479.783 619.654 487.393 619.654 496.783V530.783C619.654 540.174 627.264 547.783 636.654 547.783ZM636.654 496.783H670.654V530.783H636.654V496.783Z" fill="white" stroke="white" stroke-width="2"/>
<path d="M551.654 632.783H585.654C595.045 632.783 602.654 625.174 602.654 615.783V581.783C602.654 572.393 595.045 564.783 585.654 564.783H551.654C542.264 564.783 534.654 572.393 534.654 581.783V615.783C534.654 625.174 542.264 632.783 551.654 632.783ZM551.654 581.783H585.654V615.783H551.654V581.783Z" fill="white" stroke="white" stroke-width="2"/>
<path d="M466.654 717.783H500.654C510.045 717.783 517.654 710.174 517.654 700.783V666.783C517.654 657.393 510.045 649.783 500.654 649.783H466.654C457.264 649.783 449.654 657.393 449.654 666.783V700.783C449.654 710.174 457.264 717.783 466.654 717.783ZM466.654 666.783H500.654V700.783H466.654V666.783Z" fill="white" stroke="white" stroke-width="2"/>
<path d="M551.654 717.783H585.654C595.045 717.783 602.654 710.174 602.654 700.783V666.783C602.654 657.393 595.045 649.783 585.654 649.783H551.654C542.264 649.783 534.654 657.393 534.654 666.783V700.783C534.654 710.174 542.264 717.783 551.654 717.783ZM551.654 666.783H585.654V700.783H551.654V666.783Z" fill="white" stroke="white" stroke-width="2"/>
<path d="M560.154 768.783H577.154V785.783H560.154V768.783Z" fill="white" stroke="white" stroke-width="2"/>
</svg>
