<svg width="951" height="951" viewBox="0 0 951 951" fill="none" xmlns="http://www.w3.org/2000/svg">
<circle cx="475.633" cy="475.629" r="459.598" fill="white" stroke="#DF1F26" stroke-width="31"/>
<path d="M632.91 422.891L621.447 435.42L673.576 483.207C685.847 494.497 692.843 510.405 692.847 527.075V735.155H709.847V527.075C709.826 505.634 700.833 485.187 685.044 470.676L632.91 422.891Z" fill="#DF1F26" stroke="#DF1F26" stroke-width="6"/>
<path d="M565.348 225.156H344.348C320.888 225.186 301.877 244.196 301.848 267.656V692.656C301.877 716.116 320.888 735.127 344.348 735.156H556.848V719.95C556.807 681.659 568.142 644.211 589.42 612.374C591.672 608.999 591.22 604.509 588.357 601.647L528.857 542.147C523.358 536.641 520.442 529.07 520.827 521.298C521.214 513.523 524.866 506.281 530.88 501.347C542.464 492.492 558.845 493.756 568.935 504.277L652.838 588.183L664.857 576.164L607.848 519.137V267.656C607.818 244.196 588.808 225.186 565.348 225.156ZM590.848 502.137L580.954 492.243C564.646 475.583 538.42 473.847 520.06 488.219C510.348 496.2 504.456 507.917 503.842 520.478C503.23 533.037 507.947 545.271 516.838 554.166L571.493 608.823C551.11 641.669 540.179 679.503 539.907 718.156H344.348C330.267 718.156 318.848 706.737 318.848 692.656V667.156H531.348V650.156H318.848V293.156H590.848V502.137ZM590.848 276.156H318.848V267.656C318.848 253.576 330.267 242.156 344.348 242.156H565.348C579.428 242.156 590.848 253.576 590.848 267.656V276.156Z" fill="#DF1F26" stroke="#DF1F26" stroke-width="6"/>
<path d="M352.848 378.156H386.848C396.238 378.156 403.848 370.547 403.848 361.156V327.156C403.848 317.766 396.238 310.156 386.848 310.156H352.848C343.457 310.156 335.848 317.766 335.848 327.156V361.156C335.848 370.547 343.457 378.156 352.848 378.156ZM352.848 327.156H386.848V361.156H352.848V327.156Z" fill="#DF1F26" stroke="#DF1F26" stroke-width="6"/>
<path d="M437.848 378.156H471.848C481.238 378.156 488.848 370.547 488.848 361.156V327.156C488.848 317.766 481.238 310.156 471.848 310.156H437.848C428.457 310.156 420.848 317.766 420.848 327.156V361.156C420.848 370.547 428.457 378.156 437.848 378.156ZM437.848 327.156H471.848V361.156H437.848V327.156Z" fill="#DF1F26" stroke="#DF1F26" stroke-width="6"/>
<path d="M522.848 378.156H556.848C566.238 378.156 573.848 370.547 573.848 361.156V327.156C573.848 317.766 566.238 310.156 556.848 310.156H522.848C513.457 310.156 505.848 317.766 505.848 327.156V361.156C505.848 370.547 513.457 378.156 522.848 378.156ZM522.848 327.156H556.848V361.156H522.848V327.156Z" fill="#DF1F26" stroke="#DF1F26" stroke-width="6"/>
<path d="M352.848 463.156H386.848C396.238 463.156 403.848 455.547 403.848 446.156V412.156C403.848 402.766 396.238 395.156 386.848 395.156H352.848C343.457 395.156 335.848 402.766 335.848 412.156V446.156C335.848 455.547 343.457 463.156 352.848 463.156ZM352.848 412.156H386.848V446.156H352.848V412.156Z" fill="#DF1F26" stroke="#DF1F26" stroke-width="6"/>
<path d="M352.848 548.156H386.848C396.238 548.156 403.848 540.547 403.848 531.156V497.156C403.848 487.766 396.238 480.156 386.848 480.156H352.848C343.457 480.156 335.848 487.766 335.848 497.156V531.156C335.848 540.547 343.457 548.156 352.848 548.156ZM352.848 497.156H386.848V531.156H352.848V497.156Z" fill="#DF1F26" stroke="#DF1F26" stroke-width="6"/>
<path d="M437.848 463.156H471.848C481.238 463.156 488.848 455.547 488.848 446.156V412.156C488.848 402.766 481.238 395.156 471.848 395.156H437.848C428.457 395.156 420.848 402.766 420.848 412.156V446.156C420.848 455.547 428.457 463.156 437.848 463.156ZM437.848 412.156H471.848V446.156H437.848V412.156Z" fill="#DF1F26" stroke="#DF1F26" stroke-width="6"/>
<path d="M522.848 463.156H556.848C566.238 463.156 573.848 455.547 573.848 446.156V412.156C573.848 402.766 566.238 395.156 556.848 395.156H522.848C513.457 395.156 505.848 402.766 505.848 412.156V446.156C505.848 455.547 513.457 463.156 522.848 463.156ZM522.848 412.156H556.848V446.156H522.848V412.156Z" fill="#DF1F26" stroke="#DF1F26" stroke-width="6"/>
<path d="M437.848 548.156H471.848C481.238 548.156 488.848 540.547 488.848 531.156V497.156C488.848 487.766 481.238 480.156 471.848 480.156H437.848C428.457 480.156 420.848 487.766 420.848 497.156V531.156C420.848 540.547 428.457 548.156 437.848 548.156ZM437.848 497.156H471.848V531.156H437.848V497.156Z" fill="#DF1F26" stroke="#DF1F26" stroke-width="6"/>
<path d="M352.848 633.156H386.848C396.238 633.156 403.848 625.547 403.848 616.156V582.156C403.848 572.766 396.238 565.156 386.848 565.156H352.848C343.457 565.156 335.848 572.766 335.848 582.156V616.156C335.848 625.547 343.457 633.156 352.848 633.156ZM352.848 582.156H386.848V616.156H352.848V582.156Z" fill="#DF1F26" stroke="#DF1F26" stroke-width="6"/>
<path d="M437.848 633.156H471.848C481.238 633.156 488.848 625.547 488.848 616.156V582.156C488.848 572.766 481.238 565.156 471.848 565.156H437.848C428.457 565.156 420.848 572.766 420.848 582.156V616.156C420.848 625.547 428.457 633.156 437.848 633.156ZM437.848 582.156H471.848V616.156H437.848V582.156Z" fill="#DF1F26" stroke="#DF1F26" stroke-width="6"/>
<path d="M446.348 684.156H463.348V701.156H446.348V684.156Z" fill="#DF1F26" stroke="#DF1F26" stroke-width="6"/>
</svg>
