<svg width="1162" height="1161" viewBox="0 0 1162 1161" fill="none" xmlns="http://www.w3.org/2000/svg">
<circle cx="580.791" cy="580.475" r="564.791" fill="#3C4FAF" stroke="#3C4FAF" stroke-width="31"/>
<path d="M618.126 697.808H602.126V687.808C620.894 679.211 634.126 659.659 634.126 637.291V607.141C634.126 592.437 622.164 580.475 607.46 580.475H516.793C513.844 580.475 511.46 582.864 511.46 585.808V596.475C511.46 606.395 518.265 614.757 527.46 617.136V622.117L517.172 647.829C516.516 649.472 516.718 651.333 517.71 652.8C518.702 654.261 520.356 655.141 522.126 655.141H529.945C534.633 670.059 545.62 681.872 559.46 687.957V697.808H543.46C511.113 697.808 484.793 724.128 484.793 756.475V804.475C484.793 807.419 487.177 809.808 490.126 809.808H671.46C674.409 809.808 676.793 807.419 676.793 804.475V756.475C676.793 724.128 650.473 697.808 618.126 697.808V697.808ZM522.126 596.475V591.141H607.46C616.281 591.141 623.46 598.32 623.46 607.141V633.808C614.638 633.808 607.46 626.629 607.46 617.808V612.475C607.46 609.531 605.076 607.141 602.126 607.141H532.793C526.91 607.141 522.126 602.357 522.126 596.475ZM539.225 648.624C538.676 646.197 536.51 644.475 534.02 644.475H529.998L537.742 625.125C537.998 624.491 538.126 623.819 538.126 623.141V617.808H596.793C596.793 632.304 608.436 644.08 622.852 644.416C619.593 665.083 602.489 681.28 581.892 681.797C561.886 682.352 543.71 668.357 539.225 648.624V648.624ZM570.126 691.344C573.604 692.059 577.172 692.475 580.82 692.475C581.268 692.475 581.716 692.469 582.164 692.459C585.342 692.379 588.441 691.957 591.46 691.312V703.141C591.46 706.085 593.844 708.475 596.793 708.475H599.177L580.793 748.917L562.409 708.475H575.46C578.409 708.475 580.793 706.085 580.793 703.141C580.793 700.197 578.409 697.808 575.46 697.808H570.126V691.344ZM666.126 799.141H495.46V756.475C495.46 730.011 516.99 708.475 543.46 708.475H550.692L575.934 764.016C576.804 765.92 578.697 767.141 580.793 767.141C582.889 767.141 584.782 765.92 585.646 764.016L610.894 708.475H618.126C644.596 708.475 666.126 730.011 666.126 756.475V799.141Z" fill="white" stroke="white" stroke-width="6"/>
<path d="M580.793 473.371C582.238 473.371 583.63 472.779 584.638 471.734L631.779 422.731C643.486 410.561 643.486 390.753 631.779 378.582C626.041 372.619 618.398 369.334 610.259 369.334C610.254 369.334 610.254 369.334 610.254 369.334C602.115 369.334 594.473 372.619 588.739 378.582L580.793 386.843L572.851 378.587C567.118 372.625 559.475 369.345 551.337 369.339C551.337 369.339 551.337 369.339 551.331 369.339C543.193 369.339 535.55 372.625 529.811 378.587C518.105 390.758 518.105 410.566 529.811 422.737L576.953 471.739C577.955 472.785 579.347 473.371 580.793 473.371V473.371ZM537.497 385.985C541.203 382.129 546.115 380.006 551.331 380.006H551.337C556.553 380.006 561.459 382.129 565.166 385.985L576.953 398.235C578.963 400.326 582.627 400.326 584.638 398.235L596.425 385.985C603.838 378.278 616.681 378.278 624.094 385.985C631.881 394.081 631.881 407.249 624.094 415.339L580.793 460.347L537.497 415.345C529.71 407.249 529.71 394.081 537.497 385.985Z" fill="white" stroke="white" stroke-width="6"/>
<path d="M655.46 388.475C658.409 388.475 660.793 386.085 660.793 383.141V361.808C660.793 358.864 658.409 356.475 655.46 356.475H634.126C631.177 356.475 628.793 358.864 628.793 361.808C628.793 364.752 631.177 367.141 634.126 367.141H650.126V383.141C650.126 386.085 652.51 388.475 655.46 388.475Z" fill="white" stroke="white" stroke-width="6"/>
<path d="M506.126 452.475C503.177 452.475 500.793 454.864 500.793 457.808V479.141C500.793 482.085 503.177 484.475 506.126 484.475H527.46C530.409 484.475 532.793 482.085 532.793 479.141C532.793 476.197 530.409 473.808 527.46 473.808H511.46V457.808C511.46 454.864 509.076 452.475 506.126 452.475Z" fill="white" stroke="white" stroke-width="6"/>
<path d="M799.461 425.807H682.128C667.424 425.807 655.461 437.77 655.461 452.474V511.141H623.461C622.048 511.141 620.688 511.701 619.69 512.703L580.794 551.599L541.898 512.703C540.896 511.701 539.541 511.141 538.128 511.141H474.128C471.989 511.141 469.957 510.703 468.096 509.941C468.026 509.914 467.952 509.893 467.877 509.866C462.149 507.434 458.128 501.759 458.128 495.141V345.807C458.128 336.97 465.29 329.807 474.128 329.807H687.461C696.298 329.807 703.461 336.97 703.461 345.807V409.807C703.461 412.751 705.845 415.141 708.794 415.141C711.744 415.141 714.128 412.751 714.128 409.807V345.807C714.128 331.082 702.186 319.141 687.461 319.141H474.128C459.402 319.141 447.461 331.082 447.461 345.807V495.141C447.461 499.706 448.714 503.941 450.741 507.701C445.648 510.378 442.128 515.663 442.128 521.807C442.128 530.629 449.306 537.807 458.128 537.807C466.949 537.807 474.128 530.629 474.128 521.807H484.794V564.474H468.794C465.845 564.474 463.461 566.863 463.461 569.807V599.599L429.898 566.037C428.901 565.034 427.546 564.474 426.128 564.474H346.128V479.141H431.461C434.41 479.141 436.794 476.751 436.794 473.807C436.794 470.863 434.41 468.474 431.461 468.474H340.794C337.845 468.474 335.461 470.863 335.461 473.807V569.807C335.461 572.751 337.845 575.141 340.794 575.141H423.92L465.024 616.245C466.042 617.263 467.408 617.807 468.794 617.807C469.482 617.807 470.176 617.674 470.837 617.402C472.832 616.575 474.128 614.629 474.128 612.474V575.141H490.128C493.077 575.141 495.461 572.751 495.461 569.807V521.807H535.92L577.024 562.911C578.064 563.951 579.429 564.474 580.794 564.474C582.16 564.474 583.525 563.951 584.565 562.911L625.669 521.807H655.461V548.474C655.461 563.178 667.424 575.141 682.128 575.141H687.461V607.141C687.461 609.295 688.757 611.242 690.752 612.069C691.413 612.341 692.106 612.474 692.794 612.474C694.181 612.474 695.546 611.93 696.565 610.911L732.336 575.141H799.461C814.165 575.141 826.128 563.178 826.128 548.474V452.474C826.128 437.77 814.165 425.807 799.461 425.807V425.807ZM463.461 521.807C463.461 524.746 461.072 527.141 458.128 527.141C455.184 527.141 452.794 524.746 452.794 521.807C452.794 518.869 455.184 516.474 458.128 516.474C458.197 516.474 458.224 516.485 458.288 516.485C459.642 517.493 461.088 518.362 462.624 519.098C463.061 519.781 463.461 520.629 463.461 521.807V521.807ZM815.461 548.474C815.461 557.295 808.282 564.474 799.461 564.474H730.128C728.709 564.474 727.354 565.034 726.357 566.037L698.128 594.266V569.807C698.128 566.863 695.744 564.474 692.794 564.474H682.128C673.306 564.474 666.128 557.295 666.128 548.474V452.474C666.128 443.653 673.306 436.474 682.128 436.474H799.461C808.282 436.474 815.461 443.653 815.461 452.474V548.474Z" fill="white" stroke="white" stroke-width="6"/>
<path d="M745.569 471.425C743.756 467.809 737.841 467.809 736.028 471.425L709.361 524.758C708.534 526.412 708.62 528.374 709.596 529.948C710.566 531.516 712.278 532.476 714.129 532.476H767.462C769.313 532.476 771.025 531.516 772.001 529.948C772.977 528.374 773.062 526.412 772.236 524.758L745.569 471.425ZM722.758 521.809L740.796 485.734L758.833 521.809H722.758Z" fill="white" stroke="white" stroke-width="6"/>
<path d="M356.793 521.809C356.793 530.63 363.972 537.809 372.793 537.809C381.614 537.809 388.793 530.63 388.793 521.809C388.793 512.987 381.614 505.809 372.793 505.809C363.972 505.809 356.793 512.987 356.793 521.809ZM378.126 521.809C378.126 524.747 375.737 527.142 372.793 527.142C369.849 527.142 367.46 524.747 367.46 521.809C367.46 518.87 369.849 516.475 372.793 516.475C375.737 516.475 378.126 518.87 378.126 521.809Z" fill="white" stroke="white" stroke-width="6"/>
<path d="M399.461 521.809C399.461 530.63 406.64 537.809 415.461 537.809C424.282 537.809 431.461 530.63 431.461 521.809C431.461 512.987 424.282 505.809 415.461 505.809C406.64 505.809 399.461 512.987 399.461 521.809ZM420.794 521.809C420.794 524.747 418.405 527.142 415.461 527.142C412.517 527.142 410.128 524.747 410.128 521.809C410.128 518.87 412.517 516.475 415.461 516.475C418.405 516.475 420.794 518.87 420.794 521.809Z" fill="white" stroke="white" stroke-width="6"/>
<path d="M500.389 658.431C499.568 656.442 497.616 655.141 495.461 655.141H463.461V644.474C463.461 641.53 461.077 639.141 458.128 639.141H340.794C337.845 639.141 335.461 641.53 335.461 644.474V783.141C335.461 786.085 337.845 788.474 340.794 788.474H458.128C461.077 788.474 463.461 786.085 463.461 783.141V700.015L499.232 664.245C500.757 662.719 501.216 660.426 500.389 658.431ZM454.357 694.037C453.354 695.034 452.794 696.394 452.794 697.807V777.807H346.128V649.807H452.794V660.474C452.794 663.418 455.178 665.807 458.128 665.807H482.586L454.357 694.037Z" fill="white" stroke="white" stroke-width="6"/>
<path d="M820.793 633.809H692.793C689.843 633.809 687.459 636.198 687.459 639.142V649.809H655.459C653.305 649.809 651.353 651.11 650.531 653.099C649.705 655.094 650.163 657.387 651.689 658.913L687.459 694.683V735.142C687.459 738.086 689.843 740.475 692.793 740.475H820.793C823.742 740.475 826.126 738.086 826.126 735.142V639.142C826.126 636.198 823.742 633.809 820.793 633.809ZM815.459 729.809H698.126V692.475C698.126 691.062 697.566 689.702 696.563 688.705L668.334 660.475H692.793C695.742 660.475 698.126 658.086 698.126 655.142V644.475H815.459V729.809Z" fill="white" stroke="white" stroke-width="6"/>
<path d="M719.462 671.141H794.129C797.078 671.141 799.462 668.752 799.462 665.808C799.462 662.864 797.078 660.475 794.129 660.475H719.462C716.513 660.475 714.129 662.864 714.129 665.808C714.129 668.752 716.513 671.141 719.462 671.141Z" fill="white" stroke="white" stroke-width="6"/>
<path d="M719.462 692.475H794.129C797.078 692.475 799.462 690.086 799.462 687.142C799.462 684.198 797.078 681.809 794.129 681.809H719.462C716.513 681.809 714.129 684.198 714.129 687.142C714.129 690.086 716.513 692.475 719.462 692.475Z" fill="white" stroke="white" stroke-width="6"/>
<path d="M431.462 665.809H367.462C364.513 665.809 362.129 668.198 362.129 671.142C362.129 674.086 364.513 676.475 367.462 676.475H431.462C434.412 676.475 436.796 674.086 436.796 671.142C436.796 668.198 434.412 665.809 431.462 665.809Z" fill="white" stroke="white" stroke-width="6"/>
<path d="M431.462 687.141H367.462C364.513 687.141 362.129 689.53 362.129 692.474C362.129 695.418 364.513 697.807 367.462 697.807H431.462C434.412 697.807 436.796 695.418 436.796 692.474C436.796 689.53 434.412 687.141 431.462 687.141Z" fill="white" stroke="white" stroke-width="6"/>
<path d="M431.462 708.475H367.462C364.513 708.475 362.129 710.864 362.129 713.808C362.129 716.752 364.513 719.141 367.462 719.141H431.462C434.412 719.141 436.796 716.752 436.796 713.808C436.796 710.864 434.412 708.475 431.462 708.475Z" fill="white" stroke="white" stroke-width="6"/>
<path d="M431.462 729.809H367.462C364.513 729.809 362.129 732.198 362.129 735.142C362.129 738.086 364.513 740.475 367.462 740.475H431.462C434.412 740.475 436.796 738.086 436.796 735.142C436.796 732.198 434.412 729.809 431.462 729.809Z" fill="white" stroke="white" stroke-width="6"/>
<path d="M431.462 751.141H367.462C364.513 751.141 362.129 753.53 362.129 756.474C362.129 759.418 364.513 761.807 367.462 761.807H431.462C434.412 761.807 436.796 759.418 436.796 756.474C436.796 753.53 434.412 751.141 431.462 751.141Z" fill="white" stroke="white" stroke-width="6"/>
<path d="M628.796 751.141H607.462C604.513 751.141 602.129 753.53 602.129 756.474V777.807C602.129 779.829 603.27 781.674 605.078 782.581L615.745 787.914C616.492 788.287 617.313 788.474 618.129 788.474C618.945 788.474 619.766 788.287 620.513 787.914L631.18 782.581C632.988 781.674 634.129 779.829 634.129 777.807V756.474C634.129 753.53 631.745 751.141 628.796 751.141ZM623.462 774.511L618.129 777.178L612.796 774.511V761.807H623.462V774.511Z" fill="white" stroke="white" stroke-width="6"/>
<path d="M751.462 713.807C754.408 713.807 756.796 711.419 756.796 708.474C756.796 705.528 754.408 703.141 751.462 703.141C748.517 703.141 746.129 705.528 746.129 708.474C746.129 711.419 748.517 713.807 751.462 713.807Z" fill="white" stroke="white" stroke-width="6"/>
<path d="M772.794 713.807C775.74 713.807 778.128 711.419 778.128 708.474C778.128 705.528 775.74 703.141 772.794 703.141C769.849 703.141 767.461 705.528 767.461 708.474C767.461 711.419 769.849 713.807 772.794 713.807Z" fill="white" stroke="white" stroke-width="6"/>
<path d="M794.126 713.807C797.072 713.807 799.46 711.419 799.46 708.474C799.46 705.528 797.072 703.141 794.126 703.141C791.181 703.141 788.793 705.528 788.793 708.474C788.793 711.419 791.181 713.807 794.126 713.807Z" fill="white" stroke="white" stroke-width="6"/>
<path d="M719.462 713.807H730.129C733.078 713.807 735.462 711.418 735.462 708.474C735.462 705.53 733.078 703.141 730.129 703.141H719.462C716.513 703.141 714.129 705.53 714.129 708.474C714.129 711.418 716.513 713.807 719.462 713.807Z" fill="white" stroke="white" stroke-width="6"/>
</svg>
