<svg width="1162" height="1161" viewBox="0 0 1162 1161" fill="none" xmlns="http://www.w3.org/2000/svg">
<circle cx="580.955" cy="580.475" r="564.791" fill="#3C4FAF" stroke="#3C4FAF" stroke-width="31"/>
<path d="M766.121 427.274C762.345 412.879 730.5 404.905 694.931 400.496C702.457 394.7 722.604 376.054 722.604 342.356C722.604 301.825 693.394 283.004 692.147 282.223L682.802 297.091C683.022 297.232 705.039 311.433 705.039 342.356C705.039 372.91 683.663 387.059 682.802 387.612L690.566 399.96C660.196 396.465 627.929 395.437 608.441 395.156V367.088C618.638 363.452 626.006 353.791 626.006 342.356C626.006 327.83 614.185 316.009 599.659 316.009C585.133 316.009 573.311 327.83 573.311 342.356C573.311 353.791 580.68 363.452 590.876 367.088V395.068C575.208 395.148 542.072 395.754 509.375 398.968L516.506 387.621C516.278 387.48 494.26 373.279 494.26 342.356C494.26 311.802 515.637 297.653 516.542 297.074L511.825 289.661L507.153 282.223C505.906 283.004 476.696 301.825 476.696 342.356C476.696 374.491 495.016 392.926 503.245 399.6C464.699 403.798 428.445 411.852 424.396 427.274C421.217 433.026 418.371 438.779 415.754 444.522L268.692 395.508L267.339 395.051H248.352V412.616H264.494L409.035 460.796C401.5 481.549 397.653 502.162 397.653 522.397V559.678L373.054 604.776L264.494 640.96H248.352V658.525H267.339L360.714 627.4L348.893 649.066C346.32 653.791 344.959 659.131 344.959 664.514C344.959 680.454 356.859 694.19 372.65 696.456L406.436 701.269V728.784C406.436 762.676 434.022 790.262 467.913 790.262H494.26V825.391H511.825V772.697H467.913C443.7 772.697 424.001 752.998 424.001 728.784V686.04L375.144 679.058C367.942 678.031 362.524 671.777 362.524 664.514C362.524 662.064 363.138 659.623 364.315 657.471L385.165 619.25L531.015 570.63C581.584 569.883 621.387 534.841 623.073 533.331L630.38 526.788L623.073 520.245C621.387 518.734 581.584 483.692 531.015 482.946L432.511 450.108C433.372 448.264 434.197 446.42 435.119 444.575C469.16 464.125 571.511 465.311 595.259 465.311C619.006 465.311 721.357 464.125 755.398 444.575C768.589 470.975 775.299 497.112 775.299 522.397C775.299 579.939 755.978 636.744 720.892 682.352L687.475 725.798V825.391H705.039V731.77L734.821 693.057C772.243 644.402 792.864 583.786 792.864 522.397C792.864 491.289 783.836 459.286 766.121 427.274ZM569.219 508.555C583.622 514.176 595.505 521.518 602.899 526.788C595.505 532.048 583.622 539.391 569.219 545.02C571.783 539.443 573.303 533.304 573.303 526.788C573.303 520.271 571.783 514.132 569.219 508.555ZM529.39 500.44C543.916 500.44 555.738 512.262 555.738 526.788C555.738 541.314 543.916 553.135 529.39 553.135C514.864 553.135 503.043 541.314 503.043 526.788C503.043 512.262 514.864 500.44 529.39 500.44ZM492.75 488.698C459.903 498.912 436.981 519.103 435.708 520.245L428.401 526.788L435.708 533.331C436.981 534.472 459.895 554.663 492.75 564.877L397.513 596.626L415.218 564.157V522.397C415.218 504.085 418.766 485.326 425.705 466.356L492.75 488.698ZM489.562 545.02C475.159 539.399 463.276 532.057 455.881 526.788C463.276 521.527 475.159 514.185 489.562 508.555C486.997 514.132 485.478 520.271 485.478 526.788C485.478 533.304 486.997 539.443 489.562 545.02ZM590.867 342.356C590.867 337.508 594.802 333.574 599.65 333.574C604.498 333.574 608.432 337.508 608.432 342.356C608.432 347.204 604.498 351.139 599.65 351.139C594.802 351.139 590.867 347.204 590.867 342.356ZM595.259 447.746C513.468 447.746 457.383 437.988 443.665 430.181C457.128 422.522 511.5 412.993 590.867 412.651V430.181H608.432V412.712C683.031 413.687 733.89 422.803 746.853 430.181C733.135 437.988 677.05 447.746 595.259 447.746Z" fill="white" stroke="white" stroke-width="3"/>
<path d="M652.347 342.356C652.347 359.631 638.453 370.346 638.348 370.416L648.781 384.547C649.642 383.915 669.912 368.659 669.912 342.356C669.912 316.053 649.642 300.797 648.781 300.156L638.312 314.252C638.453 314.366 652.347 325.081 652.347 342.356Z" fill="white"/>
<path d="M550.517 384.556L560.986 370.46C560.845 370.346 546.952 359.631 546.952 342.356C546.952 325.081 560.845 314.366 560.995 314.261L555.734 307.226L550.517 300.156C549.657 300.797 529.387 316.053 529.387 342.356C529.387 368.659 549.657 383.915 550.517 384.556Z" fill="white" stroke="white" stroke-width="3"/>
</svg>
