<svg height="512" viewBox="0 0 64 64" width="512" xmlns="http://www.w3.org/2000/svg"><g id="Fill_Outline" data-name="Fill Outline"><path d="m8 3h49v58h-49z" fill="#82d1df"/><path d="m8 3h49v4h-49z" fill="#03aaa5"/><path d="m12 15h27v20h-27z" fill="#d4eded"/><path d="m33 45h21v13h-21z" fill="#d4eded"/><g fill="#f6aa43"><circle cx="37" cy="40" r="2"/><circle cx="44" cy="40" r="2"/><circle cx="51" cy="40" r="2"/></g><path d="m12 30 10-10 4 4 2-2 5 5h3l3 3v5h-27z" fill="#039791"/><path d="m33 56 7-7 6 6h4l3 3h-20z" fill="#29485a"/></g><path d="m57 2h-49a1 1 0 0 0 -1 1v58a1 1 0 0 0 1 1h49a1 1 0 0 0 1-1v-58a1 1 0 0 0 -1-1zm-48 2h2v1h2v-1h2v1h2v-1h2v1h2v-1h35v2h-47zm0 56v-52h47v52z"/><path d="m11 10h7v2h-7z"/><path d="m20 10h7v2h-7z"/><path d="m29 10h7v2h-7z"/><path d="m38 10h7v2h-7z"/><path d="m47 10h7v2h-7z"/><path d="m44 14h10v2h-10z"/><path d="m42 18h12v2h-12z"/><path d="m42 22h12v2h-12z"/><path d="m42 26h12v2h-12z"/><path d="m42 30h12v2h-12z"/><path d="m42 34h6v2h-6z"/><path d="m12 37h17v2h-17z"/><path d="m12 40h7v2h-7z"/><path d="m16 44h14v2h-14z"/><path d="m11 48h19v2h-19z"/><path d="m11 52h19v2h-19z"/><path d="m11 56h14v2h-14z"/><path d="m54 44h-21a1 1 0 0 0 -1 1v13a1 1 0 0 0 1 1h21a1 1 0 0 0 1-1v-13a1 1 0 0 0 -1-1zm-1 2v10.586l-2.293-2.293a1 1 0 0 0 -.707-.293h-3.586l-5.707-5.707a1 1 0 0 0 -1.414 0l-5.293 5.293v-7.586zm-19 11v-.586l6-6 5.293 5.293a1 1 0 0 0 .707.293h3.586l1 1z"/><path d="m37 37a3 3 0 1 0 3 3 3 3 0 0 0 -3-3zm0 4a1 1 0 1 1 1-1 1 1 0 0 1 -1 1z"/><path d="m41 40a3 3 0 1 0 3-3 3 3 0 0 0 -3 3zm4 0a1 1 0 1 1 -1-1 1 1 0 0 1 1 1z"/><path d="m51 43a3 3 0 1 0 -3-3 3 3 0 0 0 3 3zm0-4a1 1 0 1 1 -1 1 1 1 0 0 1 1-1z"/><path d="m12 36h27a1 1 0 0 0 1-1v-20a1 1 0 0 0 -1-1h-27a1 1 0 0 0 -1 1v20a1 1 0 0 0 1 1zm26-2h-25v-3.586l9-9 3.293 3.293a1 1 0 0 0 1.414 0l1.293-1.293 4.293 4.293a1 1 0 0 0 .707.293h2.586l2.414 2.414zm0-18v11.586l-1.293-1.293a1 1 0 0 0 -.707-.293h-2.586l-4.707-4.707a1 1 0 0 0 -1.414 0l-1.293 1.293-3.293-3.293a1 1 0 0 0 -1.414 0l-8.293 8.293v-11.586z"/></svg>