<svg height="512" viewBox="0 0 128 128" width="512" xmlns="http://www.w3.org/2000/svg"><g><path d="m121.5 4.75h-115a1.751 1.751 0 0 0 -1.75 1.75v84.53a1.751 1.751 0 0 0 1.75 1.75h12.037a6.231 6.231 0 0 0 7.519 0h30.421l-2.577 15.163a13.76 13.76 0 0 0 -11.554 13.557 1.751 1.751 0 0 0 1.75 1.75h39.804a1.751 1.751 0 0 0 1.75-1.75 13.76 13.76 0 0 0 -11.549-13.557l-2.578-15.163h49.977a1.751 1.751 0 0 0 1.75-1.75v-84.53a1.751 1.751 0 0 0 -1.75-1.75zm-101.148 84.99a2.752 2.752 0 0 1 0-3.889l19.785-19.786 3.889 3.89-7.808 7.808c-.022.021-.044.043-.065.065l-11.912 11.912a2.752 2.752 0 0 1 -3.889 0zm27.387-21.023-1.945-1.944 4.23-4.224a21.672 21.672 0 1 0 -2.478-2.471l-4.227 4.222-1.944-1.944a1.749 1.749 0 0 0 -2.475 0l-14.926 14.924h-9.724v-63.03h99.5v63.03h-72.1l6.088-6.088a1.752 1.752 0 0 0 0-2.475zm3.424-9.849a18.154 18.154 0 1 1 25.674 0 18.175 18.175 0 0 1 -25.674 0zm30.837 60.882h-36a10.267 10.267 0 0 1 10.1-8.5h15.8a10.267 10.267 0 0 1 10.1 8.5zm-11.482-12h-13.04l2.549-14.97h7.946zm49.232-18.47h-90.1l8.5-8.5h77.35a1.751 1.751 0 0 0 1.75-1.75v-66.53a1.751 1.751 0 0 0 -1.75-1.75h-103a1.751 1.751 0 0 0 -1.75 1.75v66.53a1.751 1.751 0 0 0 1.75 1.75h7.974l-2.6 2.6a6.249 6.249 0 0 0 -1.643 5.9h-7.981v-81.03h111.5z"/><path d="m37 16.75h-11.167a1.75 1.75 0 0 0 0 3.5h11.167a1.75 1.75 0 0 0 0-3.5z"/><path d="m67.261 52.902h2.96l4.161-13.743h-3.2l-2.541 9.222-3.04-9.222h-3.201l-3.041 9.222-2.541-9.222h-3.2l4.161 13.743h2.98l3.261-9.442z"/></g></svg>