<svg width="951" height="951" viewBox="0 0 951 951" fill="none" xmlns="http://www.w3.org/2000/svg">
<circle cx="475.766" cy="475.153" r="459.598" fill="white" stroke="#DF1F26" stroke-width="31"/>
<path d="M700.836 324.072L609.836 233.085C607.961 231.21 605.418 230.156 602.766 230.156H305.766C289.224 230.156 275.766 243.614 275.766 260.156V279.22C226.641 298.49 191.766 346.371 191.766 402.247C191.766 407.769 196.244 412.247 201.766 412.247H323.857C329.379 412.247 333.857 407.769 333.857 402.247V280.156C333.857 274.634 329.379 270.156 323.857 270.156C314.219 270.156 304.823 271.203 295.766 273.173V260.156C295.766 254.642 300.252 250.156 305.766 250.156H592.766V311.156C592.766 327.698 606.224 341.156 622.766 341.156H683.766V712.156C683.766 717.67 679.28 722.156 673.766 722.156H305.766C300.252 722.156 295.766 717.67 295.766 712.156V626.489C295.766 620.967 291.288 616.489 285.766 616.489C280.244 616.489 275.766 620.967 275.766 626.489V712.156C275.766 728.698 289.224 742.156 305.766 742.156H673.766C690.308 742.156 703.766 728.698 703.766 712.156V331.143C703.766 328.491 702.712 325.947 700.836 324.072ZM313.856 290.599V392.247H212.208C216.989 338.399 260.009 295.38 313.856 290.599ZM622.766 321.156C617.252 321.156 612.766 316.67 612.766 311.156V264.296L669.634 321.156H622.766Z" fill="#DF1F26" stroke="#DF1F26" stroke-width="5"/>
<path d="M292.835 583.086C290.976 581.225 288.396 580.156 285.766 580.156C283.136 580.156 280.556 581.225 278.696 583.086C276.836 584.946 275.766 587.526 275.766 590.156C275.766 592.786 276.835 595.366 278.696 597.225C280.556 599.086 283.136 600.156 285.766 600.156C288.396 600.156 290.976 599.086 292.835 597.225C294.696 595.366 295.766 592.786 295.766 590.156C295.766 587.526 294.696 584.946 292.835 583.086Z" fill="#DF1F26"/>
<path d="M359.676 305.977C354.154 305.977 349.676 310.455 349.676 315.977V428.067H237.586C232.064 428.067 227.586 432.545 227.586 438.067C227.586 510.902 286.841 570.158 359.676 570.158C432.511 570.158 491.767 510.902 491.767 438.067C491.767 365.232 432.511 305.977 359.676 305.977ZM369.676 326.42C393.086 328.498 414.447 337.808 431.512 352.09L369.676 413.925V326.42ZM359.676 550.158C301.239 550.158 253.102 505.209 248.029 448.067H359.676C362.436 448.067 364.934 446.949 366.744 445.141C366.745 445.14 366.746 445.14 366.748 445.138L445.657 366.23C461.948 385.697 471.767 410.757 471.767 438.067C471.767 499.874 421.483 550.158 359.676 550.158Z" fill="#DF1F26" stroke="#DF1F26" stroke-width="5"/>
<path d="M629.84 545.758C613.298 545.758 599.84 559.216 599.84 575.758C599.84 579.904 600.686 583.855 602.213 587.45L544.6 645.063C540.641 643.134 536.197 642.049 531.505 642.049C526.924 642.049 522.582 643.085 518.695 644.928L480.437 606.67C481.763 603.286 482.499 599.607 482.499 595.757C482.499 579.215 469.041 565.757 452.499 565.757C435.957 565.757 422.499 579.215 422.499 595.757C422.499 600.239 423.494 604.491 425.264 608.314L388.569 645.009C384.66 643.139 380.286 642.09 375.672 642.09C359.13 642.09 345.672 655.548 345.672 672.09C345.672 688.632 359.13 702.09 375.672 702.09C392.214 702.09 405.672 688.632 405.672 672.09C405.672 667.453 404.614 663.059 402.728 659.136L439.218 622.646C443.225 624.634 447.733 625.757 452.501 625.757C457.886 625.757 462.939 624.324 467.312 621.83L504.491 659.009C502.579 662.954 501.505 667.378 501.505 672.049C501.505 688.591 514.963 702.049 531.505 702.049C548.047 702.049 561.505 688.591 561.505 672.049C561.505 667.491 560.479 663.169 558.652 659.297L615.727 602.222C619.936 604.476 624.741 605.758 629.84 605.758C646.382 605.758 659.84 592.3 659.84 575.758C659.84 559.216 646.382 545.758 629.84 545.758ZM375.671 682.091C370.157 682.091 365.671 677.605 365.671 672.091C365.671 666.577 370.157 662.091 375.671 662.091C378.356 662.091 380.791 663.16 382.589 664.888C382.629 664.93 382.664 664.975 382.705 665.016C382.753 665.064 382.805 665.104 382.854 665.15C384.594 666.95 385.671 669.396 385.671 672.091C385.671 677.604 381.185 682.091 375.671 682.091ZM452.499 605.757C446.985 605.757 442.499 601.271 442.499 595.757C442.499 590.243 446.985 585.757 452.499 585.757C458.013 585.757 462.499 590.243 462.499 595.757C462.499 601.271 458.013 605.757 452.499 605.757ZM531.503 682.049C525.989 682.049 521.503 677.563 521.503 672.049C521.503 666.535 525.989 662.049 531.503 662.049C537.017 662.049 541.503 666.535 541.503 672.049C541.503 677.563 537.017 682.049 531.503 682.049ZM629.838 585.757C624.324 585.757 619.838 581.271 619.838 575.757C619.838 570.243 624.325 565.757 629.838 565.757C635.352 565.757 639.838 570.243 639.838 575.757C639.838 581.271 635.352 585.757 629.838 585.757Z" fill="#DF1F26" stroke="#DF1F26" stroke-width="5"/>
<path d="M579.855 465.156H527.076C521.554 465.156 517.076 469.634 517.076 475.156C517.076 480.678 521.553 485.156 527.076 485.156H579.855C585.377 485.156 589.855 480.678 589.855 475.156C589.855 469.634 585.377 465.156 579.855 465.156Z" fill="#DF1F26"/>
<path d="M632.454 468.086C630.595 466.226 628.015 465.156 625.385 465.156C622.755 465.156 620.175 466.225 618.315 468.086C616.455 469.946 615.385 472.526 615.385 475.156C615.385 477.786 616.454 480.366 618.315 482.225C620.175 484.085 622.745 485.156 625.385 485.156C628.015 485.156 630.595 484.086 632.454 482.225C634.314 480.366 635.385 477.786 635.385 475.156C635.385 472.526 634.315 469.946 632.454 468.086Z" fill="#DF1F26"/>
<path d="M649.23 369.156H527.076C521.554 369.156 517.076 373.634 517.076 379.156C517.076 384.678 521.553 389.156 527.076 389.156H649.23C654.752 389.156 659.23 384.678 659.23 379.156C659.23 373.634 654.752 369.156 649.23 369.156Z" fill="#DF1F26"/>
<path d="M649.23 417.156H527.076C521.554 417.156 517.076 421.634 517.076 427.156C517.076 432.678 521.553 437.156 527.076 437.156H649.23C654.752 437.156 659.23 432.678 659.23 427.156C659.23 421.634 654.752 417.156 649.23 417.156Z" fill="#DF1F26"/>
</svg>
