<svg width="512" height="512" viewBox="0 0 512 512" fill="none" xmlns="http://www.w3.org/2000/svg">
<path d="M98.4297 209.501H58.4297V147.668C58.4297 136.622 67.3837 127.668 78.4297 127.668C89.4757 127.668 98.4297 136.622 98.4297 147.668V209.501Z" fill="#8690A6"/>
<path d="M357.904 64.297L218.001 118.593L78.0977 64.297L218.001 10L357.904 64.297Z" fill="#8690A6"/>
<path d="M138.098 87.4805H297.904V163.749H138.098V87.4805Z" fill="#8690A6"/>
<path d="M372 318.334C372 291.931 357.194 268.993 335.436 257.349C346.272 233.273 341.816 203.991 322.039 184.214C315.169 177.344 307.151 172.321 298.603 169.145H138.305H137.397C128.849 172.321 120.831 177.344 113.961 184.214C94.184 203.991 89.728 233.273 100.564 257.349C78.806 268.993 64 291.931 64 318.334H372Z" fill="#FFCB7C"/>
<path d="M426 501.999V392.791C426 350.518 391.731 316.249 349.458 316.249H257.951V278.332H178.048V316.249H86.542C44.269 316.249 10 350.518 10 392.791V501.999H426Z" fill="#8690A6"/>
<path d="M257.951 316.25V278.334H178.048V316.25H109L172.632 502H263.367L326.999 316.25H257.951Z" fill="#F9F9F9"/>
<path d="M257.954 316.25L218.002 407.988L178.051 316.25V278.334H257.954V316.25Z" fill="#FFBF9E"/>
<path d="M297.904 163.75V206.672C297.904 250.801 262.13 286.575 218.001 286.575C173.872 286.575 138.098 250.801 138.098 206.672V163.75H297.904Z" fill="#FFBF9E"/>
<path d="M476.637 502C490.646 502 502.004 484.091 502.004 462C502.004 439.909 490.646 422 476.637 422C462.627 422 451.27 439.909 451.27 462C451.27 484.091 462.627 502 476.637 502Z" fill="#F9F9F9"/>
<path d="M476.635 502H273.336C259.326 502 247.969 484.091 247.969 462C247.969 439.909 259.326 422 273.336 422H476.635V502Z" fill="#F5737F"/>
<path d="M476.637 502C490.646 502 502.004 484.091 502.004 462C502.004 439.909 490.646 422 476.637 422C462.627 422 451.27 439.909 451.27 462C451.27 484.091 462.627 502 476.637 502Z" fill="#F9F9F9"/>
<path d="M217.999 248.715C225.087 248.715 231.752 245.954 236.764 240.941C240.669 237.036 240.669 230.705 236.764 226.799C232.859 222.895 226.527 222.895 222.622 226.799C221.387 228.034 219.746 228.715 217.999 228.715C216.252 228.715 214.611 228.034 213.376 226.799C209.472 222.896 203.14 222.895 199.234 226.799C195.329 230.704 195.328 237.035 199.234 240.941C204.246 245.955 210.911 248.715 217.999 248.715Z" fill="black"/>
<path d="M476.633 412H436V392.792C436 356.493 413.534 325.348 381.779 312.516C380.022 288.514 367.475 266.717 347.716 253.133C356.004 226.65 349.019 197.052 329.111 177.142C322.879 170.91 315.757 165.93 307.904 162.241V94.428L361.522 73.619C365.369 72.126 367.904 68.424 367.904 64.297C367.904 60.17 365.369 56.468 361.522 54.975L221.618 0.678C219.29 -0.226 216.71 -0.226 214.382 0.678L74.479 54.974C70.632 56.467 68.097 60.169 68.097 64.296V119.502C56.631 123.722 48.43 134.755 48.43 147.667V209.5C48.43 215.022 52.907 219.5 58.43 219.5H85.692C84.045 230.638 84.848 242.153 88.284 253.133C68.525 266.717 55.977 288.513 54.221 312.516C22.466 325.348 0 356.494 0 392.792V502C0 507.522 4.477 512 10 512H476.633C496.465 512 512 490.038 512 462C512 433.962 496.465 412 476.633 412ZM374.983 492C367.729 492 359.616 479.17 359.616 462C359.616 444.83 367.729 432 374.983 432H448.155C443.811 440.304 441.265 450.654 441.265 462C441.265 473.346 443.811 483.696 448.155 492H374.983ZM273.334 492C266.08 492 257.966 479.17 257.966 462C257.966 444.83 266.079 432 273.334 432H346.506C342.162 440.304 339.616 450.654 339.616 462C339.616 473.346 342.162 483.696 346.506 492H273.334ZM416 392.792V412H304.77L334.145 326.25H349.458C386.15 326.25 416 356.101 416 392.792V392.792ZM326.318 253.244C324.16 258.038 326.083 263.684 330.718 266.165C346.616 274.674 357.545 289.744 360.903 307.009C357.157 306.512 353.338 306.251 349.458 306.251H267.952V281.385C292.026 265.237 307.904 237.775 307.904 206.673V185.303C310.399 187.084 312.76 189.076 314.968 191.285C331.153 207.469 335.714 232.369 326.318 253.244V253.244ZM148.097 173.75H287.904V206.672C287.904 245.217 256.546 276.575 218.001 276.575C179.456 276.575 148.098 245.217 148.098 206.672V173.75H148.097ZM188.049 291.439C197.423 294.761 207.503 296.576 218.001 296.576C228.499 296.576 238.579 294.761 247.953 291.439V314.167L218 382.943L188.048 314.166V291.439H188.049ZM287.904 153.75H148.097V102.19L214.382 127.915C215.546 128.367 216.773 128.593 218 128.593C219.227 128.593 220.454 128.367 221.618 127.915L287.903 102.19V153.75H287.904ZM218 20.727L330.264 64.296L218 107.866L105.736 64.296L218 20.727ZM128.097 94.428V162.242C120.878 165.634 114.29 170.135 108.43 175.681V147.668C108.43 134.508 99.909 123.308 88.097 119.275V78.904L128.097 94.428ZM68.43 147.667C68.43 142.153 72.916 137.667 78.43 137.667C83.944 137.667 88.43 142.153 88.43 147.667V199.5H68.43V147.667ZM105.282 266.165C109.917 263.685 111.84 258.038 109.682 253.244C100.286 232.369 104.848 207.47 121.031 191.285C123.24 189.076 125.602 187.084 128.096 185.303V206.673C128.096 237.776 143.974 265.237 168.048 281.385V306.251H86.542C82.662 306.251 78.843 306.512 75.097 307.009C78.456 289.744 89.385 274.673 105.282 266.165V266.165ZM20 392.792C20 356.101 49.851 326.25 86.542 326.25H101.855L116.741 369.703C118.163 373.854 122.045 376.465 126.2 376.465C127.275 376.465 128.368 376.29 129.442 375.922C134.667 374.133 137.451 368.446 135.662 363.221L122.997 326.25H171.496L208.831 411.98C210.42 415.627 214.02 417.987 217.999 417.987C221.978 417.987 225.579 415.628 227.167 411.98L264.503 326.25H313.002L283.628 412H273.334C253.501 412 237.966 433.963 237.966 462C237.966 473.346 240.512 483.696 244.856 492H179.779L164.859 448.446C163.069 443.222 157.384 440.435 152.158 442.227C146.933 444.017 144.149 449.703 145.938 454.928L158.638 491.999H20V392.792ZM476.633 492C469.379 492 461.265 479.17 461.265 462C461.265 444.83 469.378 432 476.633 432C483.887 432 492 444.83 492 462C492 479.17 483.887 492 476.633 492Z" fill="black"/>
<path d="M150.82 409.121C150.82 406.491 149.75 403.921 147.89 402.051C146.03 400.191 143.45 399.121 140.82 399.121C138.19 399.121 135.61 400.19 133.75 402.051C131.88 403.921 130.82 406.491 130.82 409.121C130.82 411.761 131.88 414.331 133.75 416.19C135.61 418.06 138.18 419.121 140.82 419.121C143.45 419.121 146.03 418.06 147.89 416.19C149.75 414.331 150.82 411.76 150.82 409.121Z" fill="black"/>
</svg>
