<svg width="951" height="951" viewBox="0 0 951 951" fill="none" xmlns="http://www.w3.org/2000/svg">
<circle cx="475.411" cy="475.629" r="459.598" fill="white" stroke="#DF1F26" stroke-width="31"/>
<path d="M683.171 559.76C680.363 558.596 677.131 559.239 674.981 561.388L592.855 643.514C590.706 645.664 590.063 648.896 591.227 651.704C592.389 654.513 595.131 656.343 598.17 656.343H680.296C684.447 656.343 687.811 652.979 687.811 648.828V566.702C687.81 563.663 685.979 560.923 683.171 559.76ZM616.31 641.314L672.779 584.845V641.314H616.31Z" fill="#DF1F26" stroke="#DF1F26" stroke-width="11"/>
<path d="M737.498 439.305C734.69 438.141 731.458 438.784 729.308 440.933L706.801 463.44V310.409C706.801 306.258 703.436 302.894 699.286 302.894H641.545L662.505 281.934C662.508 281.931 662.511 281.927 662.514 281.924L682.71 261.728C687.037 257.401 689.42 251.645 689.42 245.525C689.42 239.405 687.037 233.651 682.71 229.322L659.356 205.968C655.029 201.641 649.273 199.258 643.153 199.258C637.033 199.258 631.278 201.641 626.95 205.968L606.744 226.174L582.328 250.59L530.025 302.893H296.757V228.548C296.757 224.397 293.392 221.033 289.242 221.033C256.652 221.035 230.137 247.548 230.137 280.14V599.326C230.137 599.881 230.201 600.421 230.315 600.941C231.353 614.77 237.336 627.619 247.335 637.373C258.023 647.797 272.132 653.538 287.064 653.538H516.702L473.453 696.787C471.304 698.937 470.661 702.168 471.824 704.977C472.987 707.785 475.728 709.616 478.767 709.616H734.622C738.772 709.616 742.137 706.252 742.137 702.101V446.248C742.137 443.209 740.305 440.468 737.498 439.305ZM637.58 216.597C640.652 213.523 645.657 213.523 648.729 216.597L672.084 239.952C675.158 243.025 675.158 248.028 672.084 251.102L657.193 265.994L622.687 231.489L637.58 216.597ZM612.059 242.117L646.564 276.621L632.775 290.41L598.272 255.906L612.059 242.117ZM727.109 530.69H713.244C709.093 530.69 705.729 534.054 705.729 538.205C705.729 542.356 709.093 545.72 713.244 545.72H727.109V568.366H713.244C709.093 568.366 705.729 571.73 705.729 575.881C705.729 580.032 709.093 583.396 713.244 583.396H727.109V606.041H713.244C709.093 606.041 705.729 609.405 705.729 613.556C705.729 617.707 709.093 621.071 713.244 621.071H727.109V643.717H713.244C709.093 643.717 705.729 647.082 705.729 651.232C705.729 655.383 709.093 658.747 713.244 658.747H727.109V694.589H496.909L572.817 618.682C575.752 615.746 575.752 610.989 572.817 608.054C572.48 607.717 572.118 607.425 571.739 607.165C568.813 605.161 564.787 605.456 562.188 608.054L531.732 638.51H287.065C264.273 638.51 245.925 620.716 245.203 597.965C245.246 596.537 245.357 595.121 245.535 593.721C245.536 593.713 245.537 593.705 245.538 593.697C245.622 593.032 245.723 592.37 245.838 591.712C245.851 591.637 245.865 591.562 245.878 591.487C245.983 590.9 246.101 590.316 246.23 589.734C246.266 589.572 246.304 589.41 246.342 589.249C246.456 588.757 246.579 588.268 246.711 587.781C246.783 587.517 246.858 587.256 246.935 586.993C247.045 586.611 247.159 586.23 247.28 585.853C247.401 585.476 247.53 585.103 247.661 584.73C247.752 584.469 247.842 584.208 247.94 583.949C248.123 583.457 248.317 582.97 248.517 582.487C248.574 582.348 248.63 582.207 248.689 582.068C248.946 581.468 249.213 580.875 249.495 580.289C249.507 580.264 249.518 580.239 249.53 580.214C255.408 568.05 266.713 558.981 280.28 556.167C280.318 556.159 280.356 556.15 280.394 556.142C281.016 556.015 281.644 555.906 282.276 555.805C282.381 555.788 282.486 555.767 282.593 555.751C283.164 555.664 283.741 555.596 284.318 555.531C284.48 555.513 284.641 555.488 284.804 555.472C285.361 555.416 285.923 555.379 286.485 555.344C286.663 555.333 286.841 555.314 287.019 555.305C287.755 555.268 288.497 555.249 289.242 555.249C293.392 555.249 296.757 551.885 296.757 547.734V493.245C296.757 489.094 293.392 485.73 289.242 485.73C285.092 485.73 281.727 489.094 281.727 493.245V540.692C269.037 542.297 257.258 547.957 247.97 557.027C246.993 557.981 246.067 558.973 245.165 559.981V280.14C245.165 258.399 260.991 240.282 281.726 236.704V310.409V463.186V463.187C281.726 467.337 285.091 470.702 289.241 470.702C293.391 470.702 296.756 467.337 296.756 463.187V463.186V317.924H514.996L473.452 359.468C470.517 362.404 470.517 367.161 473.452 370.096C476.387 373.03 481.145 373.03 484.079 370.096L538.452 315.723C538.454 315.721 538.455 315.719 538.457 315.718L587.642 266.533L622.145 301.038L618.097 305.086C618.094 305.089 618.09 305.092 618.087 305.095L466.559 456.625L432.055 422.121L461.923 392.253C464.858 389.317 464.858 384.56 461.923 381.625C458.988 378.691 454.23 378.691 451.296 381.625L416.113 416.807C415.925 416.995 415.749 417.194 415.584 417.398C415.529 417.466 415.48 417.539 415.428 417.61C415.322 417.751 415.218 417.893 415.121 418.041C415.066 418.127 415.016 418.215 414.964 418.304C414.881 418.444 414.801 418.586 414.728 418.731C414.68 418.825 414.637 418.92 414.593 419.018C414.526 419.165 414.464 419.315 414.407 419.465C414.387 419.518 414.361 419.568 414.342 419.621L399.701 461.096L389.719 489.375C389.587 489.751 389.492 490.133 389.421 490.518H364.429C360.279 490.518 356.914 493.882 356.914 498.033C356.914 502.184 360.279 505.548 364.429 505.548H572.543C576.694 505.548 580.058 502.184 580.058 498.033C580.058 493.882 576.694 490.518 572.543 490.518H423.23L469.06 474.34C469.098 474.326 469.134 474.307 469.172 474.293C469.35 474.227 469.525 474.153 469.698 474.074C469.767 474.042 469.836 474.012 469.903 473.979C470.083 473.889 470.26 473.79 470.434 473.684C470.49 473.65 470.548 473.619 470.603 473.584C470.784 473.468 470.96 473.341 471.133 473.207C471.176 473.174 471.221 473.145 471.263 473.111C471.472 472.943 471.677 472.762 471.871 472.568L626.515 317.925H691.77V478.471L584.274 585.968C581.339 588.904 581.339 593.661 584.274 596.596C584.457 596.779 584.648 596.951 584.845 597.112C586.223 598.235 587.906 598.797 589.588 598.797C591.27 598.797 592.954 598.235 594.331 597.112C594.528 596.952 594.719 596.779 594.902 596.596C594.905 596.593 594.902 596.596 594.905 596.593L727.109 464.388V530.69ZM452.814 464.134L431.288 471.733L416.946 457.391L424.545 435.865L452.814 464.134Z" fill="#DF1F26" stroke="#DF1F26" stroke-width="11"/>
</svg>
