<svg width="951" height="951" viewBox="0 0 951 951" fill="none" xmlns="http://www.w3.org/2000/svg">
<circle cx="475.783" cy="475.645" r="459.598" fill="white" stroke="#DF1F26" stroke-width="31"/>
<path d="M595.782 635.645H611.782V651.645H595.782V635.645Z" fill="#DF1F26" stroke="#DF1F26" stroke-width="8"/>
<path d="M627.782 635.645H643.782V651.645H627.782V635.645Z" fill="#DF1F26" stroke="#DF1F26" stroke-width="8"/>
<path d="M563.782 635.645H579.782V651.645H563.782V635.645Z" fill="#DF1F26" stroke="#DF1F26" stroke-width="8"/>
<path d="M323.782 419.645H339.782V435.645H323.782V419.645Z" fill="#DF1F26" stroke="#DF1F26" stroke-width="8"/>
<path d="M387.782 419.645H403.782V435.645H387.782V419.645Z" fill="#DF1F26" stroke="#DF1F26" stroke-width="8"/>
<path d="M291.782 419.645H307.782V435.645H291.782V419.645Z" fill="#DF1F26" stroke="#DF1F26" stroke-width="8"/>
<path d="M355.782 419.645H371.782V435.645H355.782V419.645Z" fill="#DF1F26" stroke="#DF1F26" stroke-width="8"/>
<path d="M707.782 389.117V331.645C707.782 274.301 661.126 227.645 603.782 227.645H539.782C488.662 227.645 446.126 264.765 437.478 313.437C415.622 299.357 389.95 291.645 363.782 291.645C288.79 291.645 227.782 352.653 227.782 427.645C227.782 491.597 272.206 545.237 331.782 559.685V587.645C331.782 591.941 333.006 595.917 334.99 599.413C328.278 603.669 323.782 611.125 323.782 619.645V683.645C323.782 705.701 341.726 723.645 363.782 723.645C385.838 723.645 403.782 705.701 403.782 683.645V619.645C403.782 611.125 399.286 603.669 392.574 599.413C394.558 595.917 395.782 591.941 395.782 587.645V559.741C430.158 551.389 460.366 529.829 479.366 499.197C480.822 499.405 482.27 499.645 483.782 499.645C499.878 499.645 513.094 487.669 515.326 472.189C528.518 488.877 548.902 499.645 571.782 499.645C594.662 499.645 615.046 488.877 628.238 472.189C630.47 487.669 643.686 499.645 659.782 499.645C677.43 499.645 691.782 485.293 691.782 467.645V466.173C694.294 467.069 696.966 467.645 699.782 467.645C713.014 467.645 723.782 456.877 723.782 443.645V411.645C723.782 401.229 717.07 392.429 707.782 389.117V389.117ZM628.238 383.101C615.046 366.413 594.662 355.645 571.782 355.645C548.902 355.645 528.518 366.413 515.326 383.101C513.094 367.621 499.878 355.645 483.782 355.645V331.645C483.782 300.773 508.91 275.645 539.782 275.645H603.782C634.654 275.645 659.782 300.773 659.782 331.645V355.645C643.686 355.645 630.47 367.621 628.238 383.101ZM451.782 331.645C451.782 283.125 491.262 243.645 539.782 243.645H603.782C652.302 243.645 691.782 283.125 691.782 331.645V387.645C691.782 375.853 685.302 365.645 675.782 360.093V331.645C675.782 291.941 643.486 259.645 603.782 259.645H539.782C500.078 259.645 467.782 291.941 467.782 331.645V360.093C458.262 365.645 451.782 375.853 451.782 387.645V331.645ZM443.782 403.645C448.198 403.645 451.782 407.229 451.782 411.645V443.645C451.782 448.061 448.198 451.645 443.782 451.645C439.366 451.645 435.782 448.061 435.782 443.645V411.645C435.782 407.229 439.366 403.645 443.782 403.645ZM435.782 389.117C426.494 392.429 419.782 401.229 419.782 411.645V443.645C419.782 456.333 429.71 466.645 442.19 467.485C427.406 496.477 397.23 515.645 363.782 515.645C315.262 515.645 275.782 476.165 275.782 427.645C275.782 379.125 315.262 339.645 363.782 339.645C392.526 339.645 419.286 353.685 435.782 377.189V389.117ZM387.782 683.645C387.782 696.877 377.014 707.645 363.782 707.645C350.55 707.645 339.782 696.877 339.782 683.645V619.645C339.782 615.229 343.366 611.645 347.782 611.645H355.782H371.782H379.782C384.198 611.645 387.782 615.229 387.782 619.645V683.645ZM379.782 587.645C379.782 592.061 376.198 595.645 371.782 595.645H355.782C351.366 595.645 347.782 592.061 347.782 587.645V562.621C353.038 563.237 358.358 563.645 363.782 563.645C369.174 563.645 374.502 563.269 379.782 562.645V587.645ZM363.782 547.645C297.614 547.645 243.782 493.813 243.782 427.645C243.782 361.477 297.614 307.645 363.782 307.645C390.118 307.645 414.902 316.029 435.782 331.749V352.813C416.598 334.349 390.974 323.645 363.782 323.645C306.438 323.645 259.782 370.301 259.782 427.645C259.782 484.989 306.438 531.645 363.782 531.645C401.534 531.645 435.822 511.013 454.054 479.293C456.206 484.773 459.846 489.445 464.446 492.973C442.398 526.877 404.502 547.645 363.782 547.645V547.645ZM499.782 467.645C499.782 476.469 492.606 483.645 483.782 483.645C474.958 483.645 467.782 476.469 467.782 467.645V443.645V411.645V387.645C467.782 378.821 474.958 371.645 483.782 371.645C492.606 371.645 499.782 378.821 499.782 387.645V467.645ZM571.782 483.645C540.91 483.645 515.782 458.517 515.782 427.645C515.782 396.773 540.91 371.645 571.782 371.645C602.654 371.645 627.782 396.773 627.782 427.645C627.782 458.517 602.654 483.645 571.782 483.645ZM675.782 467.645C675.782 476.469 668.606 483.645 659.782 483.645C650.958 483.645 643.782 476.469 643.782 467.645V387.645C643.782 378.821 650.958 371.645 659.782 371.645C668.606 371.645 675.782 378.821 675.782 387.645V411.645V443.645V467.645ZM707.782 443.645C707.782 448.061 704.198 451.645 699.782 451.645C695.366 451.645 691.782 448.061 691.782 443.645V411.645C691.782 407.229 695.366 403.645 699.782 403.645C704.198 403.645 707.782 407.229 707.782 411.645V443.645Z" fill="#DF1F26" stroke="#DF1F26" stroke-width="8"/>
<path d="M635.782 563.645H611.782V534.957C611.782 524.309 603.118 515.645 592.47 515.645C587.382 515.645 582.406 517.709 578.814 521.301L536.47 563.645H459.782C437.726 563.645 419.782 581.589 419.782 603.645V683.645C419.782 705.701 437.726 723.645 459.782 723.645H635.782C657.838 723.645 675.782 705.701 675.782 683.645V603.645C675.782 581.589 657.838 563.645 635.782 563.645ZM659.782 683.645C659.782 696.877 649.014 707.645 635.782 707.645H459.782C446.55 707.645 435.782 696.877 435.782 683.645V603.645C435.782 590.413 446.55 579.645 459.782 579.645H543.094L590.126 532.613C592.03 530.709 595.782 532.253 595.782 534.957V579.645H635.782C649.014 579.645 659.782 590.413 659.782 603.645V683.645Z" fill="#DF1F26" stroke="#DF1F26" stroke-width="8"/>
<path d="M494.182 595.645L460.271 688.909L475.303 694.381L482.111 675.645H533.454L540.271 694.381L555.302 688.909L521.383 595.645H494.182ZM487.927 659.645L505.383 611.645H510.182L527.638 659.645H487.927Z" fill="#DF1F26" stroke="#DF1F26" stroke-width="8"/>
</svg>
