<svg width="952" height="951" viewBox="0 0 952 951" fill="none" xmlns="http://www.w3.org/2000/svg">
<circle cx="476.061" cy="475.645" r="459.598" fill="white" stroke="#DF1F26" stroke-width="31"/>
<path d="M633.474 583.648L647.818 569.304L636.506 557.992L622.162 572.336L607.066 557.24C619.194 535.408 626.162 510.336 626.162 483.648C626.162 481.368 625.922 479.152 625.818 476.896C663.41 468.056 690.162 434.776 690.162 395.648H674.162C674.162 426.544 653.538 452.968 624.258 460.84C613.194 387.832 550.202 331.648 474.162 331.648C471.882 331.648 469.666 331.888 467.41 331.992C458.57 294.4 425.29 267.648 386.162 267.648V283.648C417.058 283.648 443.482 304.272 451.354 333.552C378.346 344.616 322.162 407.608 322.162 483.648C322.162 485.928 322.402 488.144 322.506 490.4C284.914 499.24 258.162 532.52 258.162 571.648H274.162C274.162 540.752 294.786 514.328 324.066 506.456C335.13 579.464 398.122 635.648 474.162 635.648C500.85 635.648 525.922 628.68 547.746 616.552L562.842 631.648L548.498 645.992L559.81 657.304L574.154 642.96L650.562 719.368C658.482 727.288 669.018 731.648 680.218 731.648C703.346 731.648 722.162 712.832 722.162 689.712C722.162 678.512 717.802 667.976 709.882 660.056L633.474 583.648ZM474.162 347.648C542.402 347.648 598.89 398.208 608.546 463.808L592.778 466.432C584.394 408.408 534.474 363.648 474.162 363.648C473.754 363.648 473.354 363.704 472.946 363.712L470.306 347.848C471.602 347.808 472.858 347.648 474.162 347.648ZM474.162 379.648C531.506 379.648 578.162 426.304 578.162 483.648C578.162 540.992 531.506 587.648 474.162 587.648C416.818 587.648 370.162 540.992 370.162 483.648C370.162 426.304 416.818 379.648 474.162 379.648ZM338.162 483.648C338.162 415.408 388.722 358.92 454.322 349.264L456.946 365.032C398.922 373.416 354.162 423.336 354.162 483.648C354.162 484.056 354.218 484.456 354.226 484.864L338.362 487.504C338.322 486.208 338.162 484.952 338.162 483.648ZM474.162 619.648C405.922 619.648 349.434 569.088 339.778 503.488L355.546 500.864C363.93 558.888 413.85 603.648 474.162 603.648C540.33 603.648 594.162 549.816 594.162 483.648C594.162 483.24 594.106 482.84 594.098 482.432L609.962 479.792C610.002 481.088 610.162 482.344 610.162 483.648C610.162 558.64 549.154 619.648 474.162 619.648ZM561.602 607.776C575.826 597.728 588.242 585.312 598.29 571.088L610.85 583.648L574.162 620.336L561.602 607.776ZM680.226 715.648C673.298 715.648 666.778 712.952 661.882 708.056L585.474 631.648L622.162 594.96L698.57 671.368C703.466 676.264 706.162 682.784 706.162 689.712C706.162 704.016 694.53 715.648 680.226 715.648Z" fill="#DF1F26" stroke="#DF1F26" stroke-width="7"/>
<path d="M650.162 379.648C689.866 379.648 722.162 347.352 722.162 307.648C722.162 267.944 689.866 235.648 650.162 235.648C610.458 235.648 578.162 267.944 578.162 307.648C578.162 347.352 610.458 379.648 650.162 379.648ZM674.162 358.168C666.874 361.64 658.754 363.648 650.162 363.648C641.57 363.648 633.45 361.64 626.162 358.168V347.648C626.162 334.416 636.93 323.648 650.162 323.648C663.394 323.648 674.162 334.416 674.162 347.648V358.168ZM634.162 291.648C634.162 282.824 641.338 275.648 650.162 275.648C658.986 275.648 666.162 282.824 666.162 291.648C666.162 300.472 658.986 307.648 650.162 307.648C641.338 307.648 634.162 300.472 634.162 291.648ZM650.162 251.648C681.034 251.648 706.162 276.776 706.162 307.648C706.162 322.904 700.01 336.736 690.082 346.848C689.81 333.4 682.938 321.536 672.514 314.488C678.45 308.68 682.162 300.6 682.162 291.648C682.162 274 667.81 259.648 650.162 259.648C632.514 259.648 618.162 274 618.162 291.648C618.162 300.6 621.874 308.68 627.81 314.488C617.378 321.544 610.506 333.4 610.242 346.848C600.314 336.736 594.162 322.904 594.162 307.648C594.162 276.776 619.29 251.648 650.162 251.648Z" fill="#DF1F26" stroke="#DF1F26" stroke-width="7"/>
<path d="M298.162 379.648C337.866 379.648 370.162 347.352 370.162 307.648C370.162 267.944 337.866 235.648 298.162 235.648C258.458 235.648 226.162 267.944 226.162 307.648C226.162 347.352 258.458 379.648 298.162 379.648ZM322.162 358.168C314.874 361.64 306.754 363.648 298.162 363.648C289.57 363.648 281.45 361.64 274.162 358.168V347.648C274.162 334.416 284.93 323.648 298.162 323.648C311.394 323.648 322.162 334.416 322.162 347.648V358.168ZM282.162 291.648C282.162 282.824 289.338 275.648 298.162 275.648C306.986 275.648 314.162 282.824 314.162 291.648C314.162 300.472 306.986 307.648 298.162 307.648C289.338 307.648 282.162 300.472 282.162 291.648ZM298.162 251.648C329.034 251.648 354.162 276.776 354.162 307.648C354.162 322.904 348.01 336.736 338.082 346.848C337.81 333.4 330.938 321.536 320.514 314.488C326.45 308.68 330.162 300.6 330.162 291.648C330.162 274 315.81 259.648 298.162 259.648C280.514 259.648 266.162 274 266.162 291.648C266.162 300.6 269.874 308.68 275.81 314.488C265.386 321.544 258.514 333.4 258.242 346.848C248.314 336.736 242.162 322.904 242.162 307.648C242.162 276.776 267.29 251.648 298.162 251.648Z" fill="#DF1F26" stroke="#DF1F26" stroke-width="7"/>
<path d="M298.162 587.648C258.458 587.648 226.162 619.944 226.162 659.648C226.162 699.352 258.458 731.648 298.162 731.648C337.866 731.648 370.162 699.352 370.162 659.648C370.162 619.944 337.866 587.648 298.162 587.648ZM322.162 710.168C314.874 713.64 306.754 715.648 298.162 715.648C289.57 715.648 281.45 713.64 274.162 710.168V699.648C274.162 686.416 284.93 675.648 298.162 675.648C311.394 675.648 322.162 686.416 322.162 699.648V710.168ZM282.162 643.648C282.162 634.824 289.338 627.648 298.162 627.648C306.986 627.648 314.162 634.824 314.162 643.648C314.162 652.472 306.986 659.648 298.162 659.648C289.338 659.648 282.162 652.472 282.162 643.648ZM338.082 698.848C337.81 685.4 330.938 673.536 320.514 666.488C326.45 660.68 330.162 652.6 330.162 643.648C330.162 626 315.81 611.648 298.162 611.648C280.514 611.648 266.162 626 266.162 643.648C266.162 652.6 269.874 660.68 275.81 666.488C265.386 673.544 258.514 685.4 258.242 698.848C248.314 688.736 242.162 674.904 242.162 659.648C242.162 628.776 267.29 603.648 298.162 603.648C329.034 603.648 354.162 628.776 354.162 659.648C354.162 674.904 348.01 688.736 338.082 698.848Z" fill="#DF1F26" stroke="#DF1F26" stroke-width="7"/>
<path d="M386.162 467.648V507.648V515.648V523.648H562.162V515.648V507.648V435.648H514.162V507.648H498.162V403.648H450.162V507.648H434.162V467.648H386.162ZM530.162 451.648H546.162V507.648H530.162V451.648ZM466.162 419.648H482.162V507.648H466.162V419.648ZM418.162 507.648H402.162V483.648H418.162V507.648Z" fill="#DF1F26" stroke="#DF1F26" stroke-width="7"/>
</svg>
