<svg width="515" height="519" viewBox="0 0 515 519" fill="none" xmlns="http://www.w3.org/2000/svg">
<path d="M347.375 447.381C352.898 447.381 357.375 442.904 357.375 437.381C357.375 431.858 352.898 427.381 347.375 427.381C341.852 427.381 337.375 431.858 337.375 437.381C337.375 442.904 341.852 447.381 347.375 447.381Z" fill="white" stroke="white" stroke-width="2"/>
<path d="M513.375 227.381C513.375 208.777 500.608 193.099 483.375 188.647V41.3809C483.375 19.3249 465.431 1.38086 443.375 1.38086H251.375C229.319 1.38086 211.375 19.3249 211.375 41.3809V157.381H196.245C171.079 157.381 148.82 173.422 140.858 197.299C131.941 224.046 108.722 242.943 81.375 246.687V227.381C81.375 221.858 76.897 217.381 71.375 217.381H11.375C5.853 217.381 1.375 221.858 1.375 227.381V437.381C1.375 442.904 5.853 447.381 11.375 447.381H71.375C76.897 447.381 81.375 442.904 81.375 437.381V417.381H110.165C121.013 417.381 131.633 421.781 139.304 429.452C150.697 440.846 166.473 447.381 182.585 447.381H211.375V473.381C211.375 495.437 229.319 513.381 251.375 513.381H302.375C307.897 513.381 312.375 508.904 312.375 503.381C312.375 497.858 307.897 493.381 302.375 493.381H251.375C240.347 493.381 231.375 484.409 231.375 473.381V237.381H251.375C289.973 237.381 321.375 205.979 321.375 167.381C321.375 161.858 316.897 157.381 311.375 157.381H231.375V41.3809C231.375 30.3529 240.347 21.3809 251.375 21.3809H443.375C454.403 21.3809 463.375 30.3529 463.375 41.3809V187.381H443.375C421.319 187.381 403.375 205.325 403.375 227.381C403.375 239.319 408.639 250.046 416.96 257.381C408.639 264.716 403.375 275.443 403.375 287.381C403.375 299.319 408.639 310.046 416.96 317.381C408.639 324.716 403.375 335.443 403.375 347.381C403.375 359.319 408.639 370.046 416.96 377.381C408.639 384.716 403.375 395.443 403.375 407.381C403.375 429.437 421.319 447.381 443.375 447.381H463.375V473.381C463.375 484.409 454.403 493.381 443.375 493.381H392.375C386.853 493.381 382.375 497.858 382.375 503.381C382.375 508.904 386.853 513.381 392.375 513.381H443.375C465.431 513.381 483.375 495.437 483.375 473.381V446.115C500.608 441.663 513.375 425.985 513.375 407.381C513.375 395.443 508.111 384.716 499.79 377.381C508.111 370.046 513.375 359.319 513.375 347.381C513.375 335.443 508.111 324.716 499.79 317.381C508.111 310.046 513.375 299.319 513.375 287.381C513.375 275.443 508.111 264.716 499.79 257.381C508.111 250.046 513.375 239.319 513.375 227.381ZM61.375 427.381H21.375V237.381H61.375V427.381ZM251.375 217.381H221.375C215.853 217.381 211.375 221.858 211.375 227.381V257.381C211.375 284.951 188.945 307.381 161.375 307.381C155.853 307.381 151.375 311.858 151.375 317.381C151.375 322.904 155.853 327.381 161.375 327.381C180.947 327.381 198.659 319.297 211.375 306.304V427.381H182.585C171.737 427.381 161.117 422.981 153.446 415.31C142.053 403.916 126.277 397.381 110.165 397.381H81.375V266.833C117.369 262.98 148.185 238.561 159.831 203.625C165.066 187.928 179.699 177.381 196.245 177.371H300.37C295.725 200.175 275.521 217.381 251.375 217.381ZM493.375 407.381C493.375 418.409 484.403 427.381 473.375 427.381H443.375C432.347 427.381 423.375 418.409 423.375 407.381C423.375 396.353 432.347 387.381 443.375 387.381H473.375C484.403 387.381 493.375 396.353 493.375 407.381ZM493.375 347.381C493.375 358.409 484.403 367.381 473.375 367.381H443.375C432.347 367.381 423.375 358.409 423.375 347.381C423.375 336.353 432.347 327.381 443.375 327.381H473.375C484.403 327.381 493.375 336.353 493.375 347.381ZM493.375 287.381C493.375 298.409 484.403 307.381 473.375 307.381H443.375C432.347 307.381 423.375 298.409 423.375 287.381C423.375 276.353 432.347 267.381 443.375 267.381H473.375C484.403 267.381 493.375 276.353 493.375 287.381ZM443.375 247.381C432.347 247.381 423.375 238.409 423.375 227.381C423.375 216.353 432.347 207.381 443.375 207.381H473.375C484.403 207.381 493.375 216.353 493.375 227.381C493.375 238.409 484.403 247.381 473.375 247.381H443.375Z" fill="white" stroke="white" stroke-width="2"/>
<path d="M387.375 71.3809C387.375 65.8579 382.897 61.3809 377.375 61.3809H317.375C311.853 61.3809 307.375 65.8579 307.375 71.3809C307.375 76.9039 311.853 81.3809 317.375 81.3809H377.375C382.897 81.3809 387.375 76.9039 387.375 71.3809Z" fill="white" stroke="white" stroke-width="2"/>
<path d="M354.355 510.435C358.259 506.531 358.259 500.2 354.355 496.295C350.45 492.391 344.119 492.391 340.215 496.295C336.31 500.2 336.31 506.531 340.215 510.435C344.119 514.34 350.45 514.34 354.355 510.435Z" fill="white" stroke="white" stroke-width="2"/>
</svg>
