<svg width="951" height="951" viewBox="0 0 951 951" fill="none" xmlns="http://www.w3.org/2000/svg">
<circle cx="475.209" cy="475.153" r="459.598" fill="white" stroke="#DF1F26" stroke-width="31"/>
<path d="M510.242 643.977C515.765 643.977 520.242 639.499 520.242 633.977C520.242 628.454 515.765 623.977 510.242 623.977C504.719 623.977 500.242 628.454 500.242 633.977C500.242 639.499 504.719 643.977 510.242 643.977Z" fill="#DF1F26" stroke="#DF1F26" stroke-width="6"/>
<path d="M676.242 423.977C676.242 405.373 663.475 389.695 646.242 385.243V237.977C646.242 215.921 628.298 197.977 606.242 197.977H414.242C392.186 197.977 374.242 215.921 374.242 237.977V353.977H359.112C333.946 353.977 311.687 370.018 303.725 393.895C294.808 420.642 271.589 439.539 244.242 443.283V423.977C244.242 418.454 239.764 413.977 234.242 413.977H174.242C168.72 413.977 164.242 418.454 164.242 423.977V633.977C164.242 639.5 168.72 643.977 174.242 643.977H234.242C239.764 643.977 244.242 639.5 244.242 633.977V613.977H273.032C283.88 613.977 294.5 618.377 302.171 626.048C313.564 637.442 329.34 643.977 345.452 643.977H374.242V669.977C374.242 692.033 392.186 709.977 414.242 709.977H465.242C470.764 709.977 475.242 705.5 475.242 699.977C475.242 694.454 470.764 689.977 465.242 689.977H414.242C403.214 689.977 394.242 681.005 394.242 669.977V433.977H414.242C452.84 433.977 484.242 402.575 484.242 363.977C484.242 358.454 479.764 353.977 474.242 353.977H394.242V237.977C394.242 226.949 403.214 217.977 414.242 217.977H606.242C617.27 217.977 626.242 226.949 626.242 237.977V383.977H606.242C584.186 383.977 566.242 401.921 566.242 423.977C566.242 435.915 571.506 446.642 579.827 453.977C571.506 461.312 566.242 472.039 566.242 483.977C566.242 495.915 571.506 506.642 579.827 513.977C571.506 521.312 566.242 532.039 566.242 543.977C566.242 555.915 571.506 566.642 579.827 573.977C571.506 581.312 566.242 592.039 566.242 603.977C566.242 626.033 584.186 643.977 606.242 643.977H626.242V669.977C626.242 681.005 617.27 689.977 606.242 689.977H555.242C549.72 689.977 545.242 694.454 545.242 699.977C545.242 705.5 549.72 709.977 555.242 709.977H606.242C628.298 709.977 646.242 692.033 646.242 669.977V642.711C663.475 638.259 676.242 622.581 676.242 603.977C676.242 592.039 670.978 581.312 662.657 573.977C670.978 566.642 676.242 555.915 676.242 543.977C676.242 532.039 670.978 521.312 662.657 513.977C670.978 506.642 676.242 495.915 676.242 483.977C676.242 472.039 670.978 461.312 662.657 453.977C670.978 446.642 676.242 435.915 676.242 423.977ZM224.242 623.977H184.242V433.977H224.242V623.977ZM414.242 413.977H384.242C378.72 413.977 374.242 418.454 374.242 423.977V453.977C374.242 481.547 351.812 503.977 324.242 503.977C318.72 503.977 314.242 508.454 314.242 513.977C314.242 519.5 318.72 523.977 324.242 523.977C343.814 523.977 361.526 515.893 374.242 502.9V623.977H345.452C334.604 623.977 323.984 619.577 316.313 611.906C304.92 600.512 289.144 593.977 273.032 593.977H244.242V463.429C280.236 459.576 311.052 435.157 322.698 400.221C327.933 384.524 342.566 373.977 359.112 373.967H463.237C458.592 396.771 438.388 413.977 414.242 413.977ZM656.242 603.977C656.242 615.005 647.27 623.977 636.242 623.977H606.242C595.214 623.977 586.242 615.005 586.242 603.977C586.242 592.949 595.214 583.977 606.242 583.977H636.242C647.27 583.977 656.242 592.949 656.242 603.977ZM656.242 543.977C656.242 555.005 647.27 563.977 636.242 563.977H606.242C595.214 563.977 586.242 555.005 586.242 543.977C586.242 532.949 595.214 523.977 606.242 523.977H636.242C647.27 523.977 656.242 532.949 656.242 543.977ZM656.242 483.977C656.242 495.005 647.27 503.977 636.242 503.977H606.242C595.214 503.977 586.242 495.005 586.242 483.977C586.242 472.949 595.214 463.977 606.242 463.977H636.242C647.27 463.977 656.242 472.949 656.242 483.977ZM606.242 443.977C595.214 443.977 586.242 435.005 586.242 423.977C586.242 412.949 595.214 403.977 606.242 403.977H636.242C647.27 403.977 656.242 412.949 656.242 423.977C656.242 435.005 647.27 443.977 636.242 443.977H606.242Z" fill="#DF1F26" stroke="#DF1F26" stroke-width="6"/>
<path d="M550.242 267.977C550.242 262.454 545.764 257.977 540.242 257.977H480.242C474.72 257.977 470.242 262.454 470.242 267.977C470.242 273.5 474.72 277.977 480.242 277.977H540.242C545.764 277.977 550.242 273.5 550.242 267.977Z" fill="#DF1F26" stroke="#DF1F26" stroke-width="6"/>
<path d="M517.222 707.031C521.126 703.126 521.126 696.796 517.222 692.891C513.317 688.986 506.986 688.986 503.082 692.891C499.177 696.796 499.177 703.126 503.082 707.031C506.986 710.936 513.317 710.936 517.222 707.031Z" fill="#DF1F26" stroke="#DF1F26" stroke-width="6"/>
</svg>
