<svg width="1162" height="1162" viewBox="0 0 1162 1162" fill="none" xmlns="http://www.w3.org/2000/svg">
<circle cx="580.858" cy="580.924" r="564.791" fill="#3C4FAF" stroke="#3C4FAF" stroke-width="31"/>
<path d="M548.592 580.923C579.35 580.923 605.981 569.892 627.746 548.126C649.505 526.364 660.54 499.737 660.54 468.976C660.54 438.225 649.508 411.594 627.743 389.825C605.977 368.067 579.347 357.035 548.592 357.035C517.831 357.035 491.204 368.067 469.442 389.829C447.68 411.591 436.645 438.221 436.645 468.976C436.645 499.737 447.68 526.368 469.442 548.13C491.211 569.888 517.841 580.923 548.592 580.923V580.923ZM488.704 409.087C505.402 392.389 524.99 384.272 548.592 384.272C572.191 384.272 591.783 392.389 608.484 409.087C625.183 425.789 633.303 445.381 633.303 468.976C633.303 492.578 625.183 512.166 608.484 528.868C591.783 545.57 572.191 553.687 548.592 553.687C524.997 553.687 505.409 545.566 488.704 528.868C472.002 512.17 463.881 492.578 463.881 468.976C463.881 445.381 472.002 425.789 488.704 409.087Z" fill="white"/>
<path d="M744.468 714.43C743.84 705.373 742.571 695.494 740.702 685.062C738.816 674.551 736.387 664.615 733.479 655.534C730.472 646.148 726.39 636.879 721.337 627.996C716.1 618.776 709.944 610.748 703.036 604.142C695.813 597.231 686.969 591.674 676.743 587.621C666.551 583.589 655.257 581.547 643.176 581.547C638.431 581.547 633.843 583.493 624.981 589.263C619.528 592.819 613.148 596.933 606.028 601.482C599.939 605.362 591.691 608.996 581.504 612.287C571.564 615.503 561.472 617.134 551.508 617.134C541.551 617.134 531.459 615.503 521.512 612.287C511.335 609 503.084 605.365 497.006 601.486C489.953 596.979 483.57 592.865 478.035 589.259C469.18 583.49 464.592 581.543 459.847 581.543C447.762 581.543 436.472 583.589 426.284 587.624C416.064 591.67 407.217 597.227 399.987 604.145C393.079 610.755 386.923 618.78 381.689 627.996C376.643 636.879 372.558 646.144 369.551 655.538C366.647 664.619 364.218 674.551 362.332 685.062C360.459 695.48 359.193 705.363 358.566 714.441C357.949 723.316 357.637 732.554 357.637 741.887C357.637 766.149 365.349 785.79 380.558 800.275C395.579 814.569 415.451 821.817 439.624 821.817H663.42C687.586 821.817 707.458 814.569 722.483 800.275C737.695 785.801 745.408 766.152 745.408 741.883C745.404 732.518 745.089 723.281 744.468 714.43ZM703.703 780.542C693.778 789.988 680.601 794.58 663.417 794.58H439.624C422.437 794.58 409.26 789.988 399.338 780.545C389.604 771.28 384.874 758.631 384.874 741.887C384.874 733.178 385.161 724.579 385.735 716.323C386.296 708.224 387.441 699.327 389.14 689.874C390.817 680.537 392.951 671.775 395.49 663.842C397.927 656.236 401.249 648.704 405.37 641.449C409.302 634.535 413.827 628.602 418.82 623.822C423.49 619.351 429.376 615.691 436.312 612.946C442.727 610.408 449.936 609.017 457.762 608.808C458.716 609.315 460.414 610.283 463.166 612.078C468.765 615.727 475.219 619.89 482.354 624.446C490.396 629.574 500.757 634.205 513.137 638.201C525.792 642.293 538.7 644.371 551.512 644.371C564.323 644.371 577.234 642.293 589.883 638.205C602.273 634.201 612.631 629.574 620.684 624.439C627.985 619.773 634.258 615.73 639.857 612.078C642.609 610.287 644.307 609.315 645.261 608.808C653.091 609.017 660.3 610.408 666.718 612.946C673.65 615.691 679.537 619.354 684.207 623.822C689.2 628.599 693.724 634.531 697.657 641.453C701.781 648.704 705.107 656.24 707.54 663.839C710.082 671.782 712.221 680.541 713.894 689.87C715.589 699.342 716.738 708.242 717.298 716.327V716.334C717.876 724.557 718.167 733.153 718.171 741.887C718.167 758.634 713.437 771.28 703.703 780.542Z" fill="white"/>
<path d="M842.908 467.389C842.908 472.984 838.373 477.519 832.778 477.519C827.184 477.519 822.648 472.984 822.648 467.389C822.648 461.795 827.184 457.26 832.778 457.26C838.373 457.26 842.908 461.795 842.908 467.389Z" fill="white"/>
<path d="M832.778 528.172C765.745 528.172 711.215 473.641 711.215 406.608C711.215 339.576 765.745 285.045 832.778 285.045C899.811 285.045 954.341 339.576 954.341 406.608C954.341 473.641 899.811 528.172 832.778 528.172ZM832.778 300.24C774.124 300.24 726.41 347.954 726.41 406.608C726.41 465.262 774.124 512.976 832.778 512.976C891.432 512.976 939.146 465.262 939.146 406.608C939.146 347.954 891.432 300.24 832.778 300.24Z" fill="white" stroke="white" stroke-width="8"/>
<path d="M832.777 434.468C828.583 434.468 825.179 431.064 825.179 426.87V416.639C825.179 406.995 831.299 398.353 840.395 395.142C852.5 390.878 860.636 377.981 860.636 368.621C860.636 353.253 848.145 340.762 832.777 340.762C817.409 340.762 804.918 353.253 804.918 368.621C804.918 372.815 801.514 376.218 797.32 376.218C793.126 376.218 789.723 372.815 789.723 368.621C789.723 344.885 809.032 325.566 832.777 325.566C856.522 325.566 875.831 344.885 875.831 368.621C875.831 385.519 862.489 403.46 845.45 409.477C842.411 410.54 840.375 413.426 840.375 416.648V426.87C840.375 431.064 836.971 434.468 832.777 434.468V434.468Z" fill="white" stroke="white" stroke-width="8"/>
</svg>
