<svg width="951" height="952" viewBox="0 0 951 952" fill="none" xmlns="http://www.w3.org/2000/svg">
<circle cx="475.098" cy="476" r="459.598" fill="white" stroke="#DF1F26" stroke-width="31"/>
<path d="M707.098 236H243.098C238.682 236 235.098 239.576 235.098 244V356C235.098 360.424 238.682 364 243.098 364H707.098C711.514 364 715.098 360.424 715.098 356V244C715.098 239.576 711.514 236 707.098 236ZM639.866 252L475.098 291.776L310.322 252H639.866ZM251.098 254.16L441.018 300L251.098 345.84V254.16ZM310.322 348L475.098 308.224L639.874 348H310.322ZM699.098 345.84L509.178 300L699.098 254.16V345.84Z" fill="#DF1F26"/>
<path d="M371.098 380H243.098C238.682 380 235.098 383.576 235.098 388V644V708C235.098 712.424 238.682 716 243.098 716H371.098C375.514 716 379.098 712.424 379.098 708V644V388C379.098 383.576 375.514 380 371.098 380ZM358.154 396L307.098 498.112L256.042 396H358.154ZM358.154 636H256.042L307.098 533.888L358.154 636ZM251.098 421.888L298.154 516L251.098 610.112V421.888ZM363.098 700H251.098V652H363.098V700ZM363.098 610.112L316.042 516L363.098 421.888V610.112Z" fill="#DF1F26"/>
<path d="M283.098 668H267.098V684H283.098V668Z" fill="#DF1F26"/>
<path d="M315.098 668H299.098V684H315.098V668Z" fill="#DF1F26"/>
<path d="M347.098 668H331.098V684H347.098V668Z" fill="#DF1F26"/>
<path d="M539.098 380H411.098C406.682 380 403.098 383.576 403.098 388V492V556C403.098 560.424 406.682 564 411.098 564H539.098C543.514 564 547.098 560.424 547.098 556V492V388C547.098 383.576 543.514 380 539.098 380ZM516.57 396L475.098 429.688L433.634 396H516.57ZM516.562 484H433.634L475.098 450.312L516.562 484ZM419.098 404.808L462.41 440L419.098 475.192V404.808ZM531.098 548H419.098V500H531.098V548ZM531.098 475.192L487.786 440L531.098 404.808V475.192Z" fill="#DF1F26"/>
<path d="M451.098 516H435.098V532H451.098V516Z" fill="#DF1F26"/>
<path d="M483.098 516H467.098V532H483.098V516Z" fill="#DF1F26"/>
<path d="M515.098 516H499.098V532H515.098V516Z" fill="#DF1F26"/>
<path d="M707.098 380H571.098C566.682 380 563.098 383.576 563.098 388V492C563.098 496.424 566.682 500 571.098 500H707.098C711.514 500 715.098 496.424 715.098 492V388C715.098 383.576 711.514 380 707.098 380ZM699.098 484H579.098V396H699.098V484Z" fill="#DF1F26"/>
<path d="M691.098 516H587.098V532H691.098V516Z" fill="#DF1F26"/>
<path d="M715.098 548H563.098V564H715.098V548Z" fill="#DF1F26"/>
<path d="M539.098 580H411.098C406.682 580 403.098 583.576 403.098 588V676C403.098 680.424 406.682 684 411.098 684H539.098C543.514 684 547.098 680.424 547.098 676V588C547.098 583.576 543.514 580 539.098 580ZM531.098 668H419.098V596H531.098V668Z" fill="#DF1F26"/>
<path d="M547.098 700H403.098V716H547.098V700Z" fill="#DF1F26"/>
<path d="M707.098 580H571.098C566.682 580 563.098 583.576 563.098 588V708C563.098 712.424 566.682 716 571.098 716H707.098C711.514 716 715.098 712.424 715.098 708V588C715.098 583.576 711.514 580 707.098 580ZM685.938 596L639.098 637.328L592.258 596H685.938ZM579.098 605.728L627.002 648L579.098 690.272V605.728ZM592.258 700L639.098 658.672L685.938 700H592.258ZM699.098 690.272L651.194 648L699.098 605.728V690.272Z" fill="#DF1F26"/>
</svg>
