<?xml version="1.0" encoding="UTF-8"?>
<svg xmlns="http://www.w3.org/2000/svg" xmlns:xlink="http://www.w3.org/1999/xlink" width="512" height="512" viewBox="0 0 58 58" version="1.1"><!-- Generator: Sketch 51.3 (57544) - http://www.bohemiancoding.com/sketch --><title>015 - Film</title><desc>Created with Sketch.</desc><defs/><g id="Page-1" stroke="none" stroke-width="1" fill="none" fill-rule="evenodd"><g id="015---Film" fill-rule="nonzero"><path d="M57,24 C55.8988312,23.9918328 55.0081672,23.1011688 55,22 C55,20.3431458 53.6568542,19 52,19 L29,19 L29,38 L56,38 C57.1032019,37.9967052 57.9967052,37.1032019 58,36 L58,25 C58,24.4477153 57.5522847,24 57,24 Z M36,24 C36,24.5522847 35.5522847,25 35,25 C34.4477153,25 34,24.5522847 34,24 L34,23 C34,22.4477153 34.4477153,22 35,22 C35.5522847,22 36,22.4477153 36,23 L36,24 Z M40,24 C40,24.5522847 39.5522847,25 39,25 C38.4477153,25 38,24.5522847 38,24 L38,23 C38,22.4477153 38.4477153,22 39,22 C39.5522847,22 40,22.4477153 40,23 L40,24 Z M44,24 C44,24.5522847 43.5522847,25 43,25 C42.4477153,25 42,24.5522847 42,24 L42,23 C42,22.4477153 42.4477153,22 43,22 C43.5522847,22 44,22.4477153 44,23 L44,24 Z M48,24 C48,24.5522847 47.5522847,25 47,25 C46.4477153,25 46,24.5522847 46,24 L46,23 C46,22.4477153 46.4477153,22 47,22 C47.5522847,22 48,22.4477153 48,23 L48,24 Z M52,24 C52,24.5522847 51.5522847,25 51,25 C50.4477153,25 50,24.5522847 50,24 L50,23 C50,22.4477153 50.4477153,22 51,22 C51.5522847,22 52,22.4477153 52,23 L52,24 Z" id="Shape" fill="#805333"/><path d="M32,49 C31.9502179,49.6740901 31.6064406,50.2921578 31.06,50.69 C28.84,52.62 22.94,54 16,54 C9.06,54 3.16,52.62 0.94,50.69 C0.393559389,50.2921578 0.0497820682,49.6740901 0,49 C0.0631426191,48.2293759 0.421386305,47.5128885 1,47 L1,46.41 C1.15334778,46.8770292 1.44229203,47.2878174 1.83,47.59 C3.92,49.41 9.47,50.71 16,50.71 C22.53,50.71 28.08,49.41 30.17,47.59 C30.557708,47.2878174 30.8466522,46.8770292 31,46.41 L31,47 C31.5786137,47.5128885 31.9368574,48.2293759 32,49 Z" id="Shape" fill="#35495E"/><path d="M32,49 L32,53 C32,55.76 24.84,58 16,58 C7.16,58 0,55.76 0,53 L0,49 C0.0497820682,49.6740901 0.393559389,50.2921578 0.94,50.69 C3.16,52.62 9.06,54 16,54 C22.94,54 28.84,52.62 31.06,50.69 C31.6064406,50.2921578 31.9502179,49.6740901 32,49 Z" id="Shape" fill="#2C3E50"/><path d="M31,14.74 L31,49 C30.8466522,49.4670292 30.557708,49.8778174 30.17,50.18 C28.08,52 22.53,53.3 16,53.3 C9.47,53.3 3.92,52 1.83,50.18 C1.44229203,49.8778174 1.15334778,49.4670292 1,49 L1,14.74 C3.26,16.64 9.12,18 16,18 C22.88,18 28.74,16.64 31,14.74 Z" id="Shape" fill="#F0C419"/><path d="M5,28 C4.44771525,28 4,27.5522847 4,27 L4,24 C4,23.4477153 4.44771525,23 5,23 C5.55228475,23 6,23.4477153 6,24 L6,27 C6,27.5522847 5.55228475,28 5,28 Z" id="Shape" fill="#F9EAB0"/><path d="M5,40 C4.44771525,40 4,39.5522847 4,39 L4,31 C4,30.4477153 4.44771525,30 5,30 C5.55228475,30 6,30.4477153 6,31 L6,39 C6,39.5522847 5.55228475,40 5,40 Z" id="Shape" fill="#F9EAB0"/><path d="M32,12 C31.9502179,12.6740901 31.6064406,13.2921578 31.06,13.69 C28.84,15.62 22.94,17 16,17 C9.06,17 3.16,15.62 0.94,13.69 C0.393559389,13.2921578 0.0497820682,12.6740901 0,12 C0,10.02 3.67,8.32 9,7.5 L23,7.5 C28.33,8.32 32,10.02 32,12 Z" id="Shape" fill="#35495E"/><path d="M23,2 L23,10 C23,11.1 19.87,12 16,12 C12.13,12 9,11.1 9,10 L9,2 L23,2 Z" id="Shape" fill="#2C3E50"/><path d="M32,12 L32,16 C31.9502179,16.6740901 31.6064406,17.2921578 31.06,17.69 C31.04,17.71 31.02,17.72 31,17.74 C28.74,19.64 22.88,21 16,21 C9.12,21 3.26,19.64 1,17.74 C0.98,17.72 0.96,17.71 0.94,17.69 C0.393559389,17.2921578 0.0497820682,16.6740901 0,16 L0,12 C0.0497820682,12.6740901 0.393559389,13.2921578 0.94,13.69 C3.16,15.62 9.06,17 16,17 C22.94,17 28.84,15.62 31.06,13.69 C31.6064406,13.2921578 31.9502179,12.6740901 32,12 Z" id="Shape" fill="#2C3E50"/><ellipse id="Oval" fill="#A5A5A4" cx="16" cy="2" rx="7" ry="2"/></g></g></svg>
