<svg width="332" height="544" viewBox="0 0 332 544" fill="none" xmlns="http://www.w3.org/2000/svg">
<path d="M0 0H332V544H0V0Z" fill="white"/>
<ellipse cx="56.6283" cy="496.048" rx="31.7357" ry="31.771" fill="#070001"/>
<path d="M118.086 494.256C118.906 494.256 119.544 494.142 120 493.914C120.716 493.556 121.074 492.911 121.074 491.98C121.074 491.043 120.693 490.411 119.932 490.086C119.502 489.904 118.864 489.812 118.018 489.812H114.551V494.256H118.086ZM118.74 500.877C119.932 500.877 120.781 500.532 121.289 499.842C121.608 499.406 121.768 498.878 121.768 498.26C121.768 497.218 121.302 496.508 120.371 496.131C119.876 495.929 119.222 495.828 118.408 495.828H114.551V500.877H118.74ZM112.646 488.191H118.809C120.488 488.191 121.683 488.693 122.393 489.695C122.809 490.288 123.018 490.971 123.018 491.746C123.018 492.651 122.76 493.393 122.246 493.973C121.979 494.279 121.595 494.559 121.094 494.812C121.829 495.092 122.38 495.408 122.744 495.76C123.389 496.385 123.711 497.247 123.711 498.348C123.711 499.272 123.421 500.109 122.842 500.857C121.976 501.977 120.599 502.537 118.711 502.537H112.646V488.191ZM125.85 488.191H127.607V502.537H125.85V488.191ZM131.602 499.754C131.602 500.262 131.787 500.662 132.158 500.955C132.529 501.248 132.969 501.395 133.477 501.395C134.095 501.395 134.694 501.251 135.273 500.965C136.25 500.49 136.738 499.712 136.738 498.631V497.215C136.523 497.352 136.247 497.465 135.908 497.557C135.57 497.648 135.238 497.713 134.912 497.752L133.848 497.889C133.21 497.973 132.731 498.107 132.412 498.289C131.872 498.595 131.602 499.083 131.602 499.754ZM135.859 496.199C136.263 496.147 136.533 495.978 136.67 495.691C136.748 495.535 136.787 495.311 136.787 495.018C136.787 494.419 136.572 493.986 136.143 493.719C135.719 493.445 135.111 493.309 134.316 493.309C133.398 493.309 132.747 493.556 132.363 494.051C132.148 494.324 132.008 494.731 131.943 495.271H130.303C130.335 493.982 130.752 493.087 131.553 492.586C132.36 492.078 133.294 491.824 134.355 491.824C135.586 491.824 136.585 492.059 137.354 492.527C138.115 492.996 138.496 493.725 138.496 494.715V500.74C138.496 500.923 138.532 501.069 138.604 501.18C138.682 501.29 138.841 501.346 139.082 501.346C139.16 501.346 139.248 501.342 139.346 501.336C139.443 501.323 139.548 501.307 139.658 501.287V502.586C139.385 502.664 139.176 502.713 139.033 502.732C138.89 502.752 138.695 502.762 138.447 502.762C137.842 502.762 137.402 502.547 137.129 502.117C136.986 501.889 136.885 501.567 136.826 501.15C136.468 501.619 135.954 502.026 135.283 502.371C134.613 502.716 133.874 502.889 133.066 502.889C132.096 502.889 131.302 502.596 130.684 502.01C130.072 501.417 129.766 500.678 129.766 499.793C129.766 498.823 130.068 498.071 130.674 497.537C131.279 497.003 132.074 496.674 133.057 496.551L135.859 496.199ZM145.42 491.775C146.598 491.775 147.555 492.062 148.291 492.635C149.033 493.208 149.479 494.194 149.629 495.594H147.92C147.816 494.949 147.578 494.415 147.207 493.992C146.836 493.562 146.24 493.348 145.42 493.348C144.3 493.348 143.499 493.895 143.018 494.988C142.705 495.698 142.549 496.574 142.549 497.615C142.549 498.663 142.77 499.546 143.213 500.262C143.656 500.978 144.352 501.336 145.303 501.336C146.032 501.336 146.608 501.115 147.031 500.672C147.461 500.223 147.757 499.611 147.92 498.836H149.629C149.434 500.223 148.945 501.238 148.164 501.883C147.383 502.521 146.383 502.84 145.166 502.84C143.799 502.84 142.708 502.342 141.895 501.346C141.081 500.343 140.674 499.093 140.674 497.596C140.674 495.76 141.12 494.331 142.012 493.309C142.904 492.286 144.04 491.775 145.42 491.775ZM151.348 488.191H153.037V496.521L157.549 492.078H159.795L155.791 495.994L160.02 502.537H157.773L154.512 497.264L153.037 498.611V502.537H151.348V488.191ZM171.523 497.059H173.799L174.717 493.699H172.451L172.754 492.566H175.02L176.182 488.191H177.637L176.455 492.566H178.613L179.814 488.191H181.25L180.068 492.566H182.334L182.031 493.699H179.766L178.838 497.059H181.113L180.811 498.191H178.564L177.363 502.537H175.928L177.109 498.191H174.932L173.77 502.537H172.314L173.496 498.191H171.23L171.523 497.059ZM177.383 497.059L178.311 493.699H176.152L175.254 497.059H177.383ZM187.773 488.553C189.583 488.553 190.892 489.298 191.699 490.789C192.324 491.941 192.637 493.52 192.637 495.525C192.637 497.426 192.354 498.999 191.787 500.242C190.967 502.026 189.626 502.918 187.764 502.918C186.084 502.918 184.834 502.189 184.014 500.73C183.33 499.513 182.988 497.879 182.988 495.828C182.988 494.24 183.193 492.876 183.604 491.736C184.372 489.614 185.762 488.553 187.773 488.553ZM187.754 501.316C188.665 501.316 189.391 500.913 189.932 500.105C190.472 499.298 190.742 497.794 190.742 495.594C190.742 494.005 190.547 492.7 190.156 491.678C189.766 490.649 189.007 490.135 187.881 490.135C186.846 490.135 186.087 490.623 185.605 491.6C185.13 492.57 184.893 494.002 184.893 495.896C184.893 497.322 185.046 498.468 185.352 499.334C185.82 500.656 186.621 501.316 187.754 501.316ZM198.906 488.553C200.716 488.553 202.025 489.298 202.832 490.789C203.457 491.941 203.77 493.52 203.77 495.525C203.77 497.426 203.486 498.999 202.92 500.242C202.1 502.026 200.758 502.918 198.896 502.918C197.217 502.918 195.967 502.189 195.146 500.73C194.463 499.513 194.121 497.879 194.121 495.828C194.121 494.24 194.326 492.876 194.736 491.736C195.505 489.614 196.895 488.553 198.906 488.553ZM198.887 501.316C199.798 501.316 200.524 500.913 201.064 500.105C201.605 499.298 201.875 497.794 201.875 495.594C201.875 494.005 201.68 492.7 201.289 491.678C200.898 490.649 200.14 490.135 199.014 490.135C197.979 490.135 197.22 490.623 196.738 491.6C196.263 492.57 196.025 494.002 196.025 495.896C196.025 497.322 196.178 498.468 196.484 499.334C196.953 500.656 197.754 501.316 198.887 501.316ZM210.039 488.553C211.849 488.553 213.158 489.298 213.965 490.789C214.59 491.941 214.902 493.52 214.902 495.525C214.902 497.426 214.619 498.999 214.053 500.242C213.232 502.026 211.891 502.918 210.029 502.918C208.35 502.918 207.1 502.189 206.279 500.73C205.596 499.513 205.254 497.879 205.254 495.828C205.254 494.24 205.459 492.876 205.869 491.736C206.637 489.614 208.027 488.553 210.039 488.553ZM210.02 501.316C210.931 501.316 211.657 500.913 212.197 500.105C212.738 499.298 213.008 497.794 213.008 495.594C213.008 494.005 212.812 492.7 212.422 491.678C212.031 490.649 211.273 490.135 210.146 490.135C209.111 490.135 208.353 490.623 207.871 491.6C207.396 492.57 207.158 494.002 207.158 495.896C207.158 497.322 207.311 498.468 207.617 499.334C208.086 500.656 208.887 501.316 210.02 501.316ZM221.172 488.553C222.982 488.553 224.29 489.298 225.098 490.789C225.723 491.941 226.035 493.52 226.035 495.525C226.035 497.426 225.752 498.999 225.186 500.242C224.365 502.026 223.024 502.918 221.162 502.918C219.482 502.918 218.232 502.189 217.412 500.73C216.729 499.513 216.387 497.879 216.387 495.828C216.387 494.24 216.592 492.876 217.002 491.736C217.77 489.614 219.16 488.553 221.172 488.553ZM221.152 501.316C222.064 501.316 222.79 500.913 223.33 500.105C223.87 499.298 224.141 497.794 224.141 495.594C224.141 494.005 223.945 492.7 223.555 491.678C223.164 490.649 222.406 490.135 221.279 490.135C220.244 490.135 219.486 490.623 219.004 491.6C218.529 492.57 218.291 494.002 218.291 495.896C218.291 497.322 218.444 498.468 218.75 499.334C219.219 500.656 220.02 501.316 221.152 501.316ZM232.305 488.553C234.115 488.553 235.423 489.298 236.23 490.789C236.855 491.941 237.168 493.52 237.168 495.525C237.168 497.426 236.885 498.999 236.318 500.242C235.498 502.026 234.157 502.918 232.295 502.918C230.615 502.918 229.365 502.189 228.545 500.73C227.861 499.513 227.52 497.879 227.52 495.828C227.52 494.24 227.725 492.876 228.135 491.736C228.903 489.614 230.293 488.553 232.305 488.553ZM232.285 501.316C233.197 501.316 233.923 500.913 234.463 500.105C235.003 499.298 235.273 497.794 235.273 495.594C235.273 494.005 235.078 492.7 234.688 491.678C234.297 490.649 233.538 490.135 232.412 490.135C231.377 490.135 230.618 490.623 230.137 491.6C229.661 492.57 229.424 494.002 229.424 495.896C229.424 497.322 229.577 498.468 229.883 499.334C230.352 500.656 231.152 501.316 232.285 501.316ZM243.438 488.553C245.247 488.553 246.556 489.298 247.363 490.789C247.988 491.941 248.301 493.52 248.301 495.525C248.301 497.426 248.018 498.999 247.451 500.242C246.631 502.026 245.29 502.918 243.428 502.918C241.748 502.918 240.498 502.189 239.678 500.73C238.994 499.513 238.652 497.879 238.652 495.828C238.652 494.24 238.857 492.876 239.268 491.736C240.036 489.614 241.426 488.553 243.438 488.553ZM243.418 501.316C244.329 501.316 245.055 500.913 245.596 500.105C246.136 499.298 246.406 497.794 246.406 495.594C246.406 494.005 246.211 492.7 245.82 491.678C245.43 490.649 244.671 490.135 243.545 490.135C242.51 490.135 241.751 490.623 241.27 491.6C240.794 492.57 240.557 494.002 240.557 495.896C240.557 497.322 240.71 498.468 241.016 499.334C241.484 500.656 242.285 501.316 243.418 501.316Z" fill="black"/>
<path d="M88.1141 424.218C88.1141 441.627 74.0172 455.739 56.6283 455.739C39.2395 455.739 25.1426 441.627 25.1426 424.218C25.1426 406.809 39.2395 392.697 56.6283 392.697C74.0172 392.697 88.1141 406.809 88.1141 424.218Z" fill="white" stroke="black" stroke-width="0.5"/>
<path d="M123.652 417.361C124.473 417.361 125.111 417.247 125.566 417.02C126.283 416.661 126.641 416.017 126.641 415.086C126.641 414.148 126.26 413.517 125.498 413.191C125.068 413.009 124.43 412.918 123.584 412.918H120.117V417.361H123.652ZM124.307 423.982C125.498 423.982 126.348 423.637 126.855 422.947C127.174 422.511 127.334 421.984 127.334 421.365C127.334 420.324 126.868 419.614 125.938 419.236C125.443 419.035 124.788 418.934 123.975 418.934H120.117V423.982H124.307ZM118.213 411.297H124.375C126.055 411.297 127.249 411.798 127.959 412.801C128.376 413.393 128.584 414.077 128.584 414.852C128.584 415.757 128.327 416.499 127.812 417.078C127.546 417.384 127.161 417.664 126.66 417.918C127.396 418.198 127.946 418.514 128.311 418.865C128.955 419.49 129.277 420.353 129.277 421.453C129.277 422.378 128.988 423.214 128.408 423.963C127.542 425.083 126.165 425.643 124.277 425.643H118.213V411.297ZM132.715 422.859C132.715 423.367 132.9 423.768 133.271 424.061C133.643 424.354 134.082 424.5 134.59 424.5C135.208 424.5 135.807 424.357 136.387 424.07C137.363 423.595 137.852 422.817 137.852 421.736V420.32C137.637 420.457 137.36 420.571 137.021 420.662C136.683 420.753 136.351 420.818 136.025 420.857L134.961 420.994C134.323 421.079 133.844 421.212 133.525 421.395C132.985 421.701 132.715 422.189 132.715 422.859ZM136.973 419.305C137.376 419.253 137.646 419.083 137.783 418.797C137.861 418.641 137.9 418.416 137.9 418.123C137.9 417.524 137.686 417.091 137.256 416.824C136.833 416.551 136.224 416.414 135.43 416.414C134.512 416.414 133.861 416.661 133.477 417.156C133.262 417.43 133.122 417.837 133.057 418.377H131.416C131.449 417.088 131.865 416.193 132.666 415.691C133.473 415.184 134.408 414.93 135.469 414.93C136.699 414.93 137.699 415.164 138.467 415.633C139.229 416.102 139.609 416.831 139.609 417.82V423.846C139.609 424.028 139.645 424.174 139.717 424.285C139.795 424.396 139.954 424.451 140.195 424.451C140.273 424.451 140.361 424.448 140.459 424.441C140.557 424.428 140.661 424.412 140.771 424.393V425.691C140.498 425.77 140.29 425.818 140.146 425.838C140.003 425.857 139.808 425.867 139.561 425.867C138.955 425.867 138.516 425.652 138.242 425.223C138.099 424.995 137.998 424.673 137.939 424.256C137.581 424.725 137.067 425.132 136.396 425.477C135.726 425.822 134.987 425.994 134.18 425.994C133.21 425.994 132.415 425.701 131.797 425.115C131.185 424.523 130.879 423.784 130.879 422.898C130.879 421.928 131.182 421.176 131.787 420.643C132.393 420.109 133.187 419.78 134.17 419.656L136.973 419.305ZM146.533 414.881C147.712 414.881 148.669 415.167 149.404 415.74C150.146 416.313 150.592 417.299 150.742 418.699H149.033C148.929 418.055 148.691 417.521 148.32 417.098C147.949 416.668 147.354 416.453 146.533 416.453C145.413 416.453 144.613 417 144.131 418.094C143.818 418.803 143.662 419.679 143.662 420.721C143.662 421.769 143.883 422.651 144.326 423.367C144.769 424.083 145.465 424.441 146.416 424.441C147.145 424.441 147.721 424.22 148.145 423.777C148.574 423.328 148.87 422.716 149.033 421.941H150.742C150.547 423.328 150.059 424.344 149.277 424.988C148.496 425.626 147.497 425.945 146.279 425.945C144.912 425.945 143.822 425.447 143.008 424.451C142.194 423.449 141.787 422.199 141.787 420.701C141.787 418.865 142.233 417.436 143.125 416.414C144.017 415.392 145.153 414.881 146.533 414.881ZM152.461 411.297H154.15V419.627L158.662 415.184H160.908L156.904 419.1L161.133 425.643H158.887L155.625 420.369L154.15 421.717V425.643H152.461V411.297ZM166.191 414.998C167.012 414.998 167.728 415.2 168.34 415.604C168.672 415.831 169.01 416.163 169.355 416.6V415.281H170.977V424.793C170.977 426.121 170.781 427.169 170.391 427.938C169.661 429.357 168.285 430.066 166.26 430.066C165.133 430.066 164.186 429.812 163.418 429.305C162.65 428.803 162.22 428.016 162.129 426.941H163.916C164.001 427.41 164.17 427.771 164.424 428.025C164.821 428.416 165.446 428.611 166.299 428.611C167.646 428.611 168.529 428.136 168.945 427.186C169.193 426.626 169.307 425.626 169.287 424.188C168.936 424.721 168.512 425.118 168.018 425.379C167.523 425.639 166.868 425.77 166.055 425.77C164.922 425.77 163.929 425.369 163.076 424.568C162.23 423.761 161.807 422.43 161.807 420.574C161.807 418.823 162.233 417.456 163.086 416.473C163.945 415.49 164.98 414.998 166.191 414.998ZM169.355 420.369C169.355 419.074 169.089 418.113 168.555 417.488C168.021 416.863 167.34 416.551 166.514 416.551C165.277 416.551 164.43 417.13 163.975 418.289C163.734 418.908 163.613 419.718 163.613 420.721C163.613 421.899 163.851 422.798 164.326 423.416C164.808 424.028 165.452 424.334 166.26 424.334C167.523 424.334 168.411 423.764 168.926 422.625C169.212 421.98 169.355 421.229 169.355 420.369ZM173.682 415.184H175.352V416.99C175.488 416.639 175.824 416.212 176.357 415.711C176.891 415.203 177.507 414.949 178.203 414.949C178.236 414.949 178.291 414.952 178.369 414.959C178.447 414.965 178.581 414.979 178.77 414.998V416.854C178.665 416.834 178.568 416.821 178.477 416.814C178.392 416.808 178.298 416.805 178.193 416.805C177.308 416.805 176.628 417.091 176.152 417.664C175.677 418.23 175.439 418.885 175.439 419.627V425.643H173.682V415.184ZM184.443 424.51C185.609 424.51 186.406 424.07 186.836 423.191C187.272 422.306 187.49 421.323 187.49 420.242C187.49 419.266 187.334 418.471 187.021 417.859C186.527 416.896 185.674 416.414 184.463 416.414C183.389 416.414 182.607 416.824 182.119 417.645C181.631 418.465 181.387 419.454 181.387 420.613C181.387 421.727 181.631 422.654 182.119 423.396C182.607 424.139 183.382 424.51 184.443 424.51ZM184.512 414.881C185.859 414.881 186.999 415.33 187.93 416.229C188.861 417.127 189.326 418.449 189.326 420.193C189.326 421.88 188.916 423.273 188.096 424.373C187.275 425.473 186.003 426.023 184.277 426.023C182.839 426.023 181.696 425.538 180.85 424.568C180.003 423.592 179.58 422.283 179.58 420.643C179.58 418.885 180.026 417.485 180.918 416.443C181.81 415.402 183.008 414.881 184.512 414.881ZM193.184 415.184V422.127C193.184 422.661 193.268 423.097 193.438 423.436C193.75 424.061 194.333 424.373 195.186 424.373C196.41 424.373 197.243 423.826 197.686 422.732C197.926 422.146 198.047 421.342 198.047 420.32V415.184H199.805V425.643H198.145L198.164 424.1C197.936 424.497 197.653 424.832 197.314 425.105C196.644 425.652 195.83 425.926 194.873 425.926C193.382 425.926 192.367 425.428 191.826 424.432C191.533 423.898 191.387 423.185 191.387 422.293V415.184H193.184ZM202.559 415.184H204.229V416.668C204.723 416.056 205.247 415.617 205.801 415.35C206.354 415.083 206.969 414.949 207.646 414.949C209.131 414.949 210.133 415.467 210.654 416.502C210.941 417.068 211.084 417.879 211.084 418.934V425.643H209.297V419.051C209.297 418.413 209.202 417.898 209.014 417.508C208.701 416.857 208.135 416.531 207.314 416.531C206.898 416.531 206.556 416.574 206.289 416.658C205.807 416.801 205.384 417.088 205.02 417.518C204.727 417.863 204.535 418.221 204.443 418.592C204.359 418.956 204.316 419.48 204.316 420.164V425.643H202.559V415.184ZM214.805 420.535C214.805 421.655 215.042 422.592 215.518 423.348C215.993 424.103 216.755 424.48 217.803 424.48C218.617 424.48 219.284 424.132 219.805 423.436C220.332 422.732 220.596 421.727 220.596 420.418C220.596 419.096 220.326 418.12 219.785 417.488C219.245 416.85 218.577 416.531 217.783 416.531C216.898 416.531 216.178 416.87 215.625 417.547C215.078 418.224 214.805 419.22 214.805 420.535ZM217.451 414.998C218.252 414.998 218.923 415.167 219.463 415.506C219.775 415.701 220.13 416.043 220.527 416.531V411.248H222.217V425.643H220.635V424.188C220.225 424.832 219.74 425.298 219.18 425.584C218.62 425.87 217.979 426.014 217.256 426.014C216.09 426.014 215.081 425.525 214.229 424.549C213.376 423.566 212.949 422.26 212.949 420.633C212.949 419.109 213.337 417.791 214.111 416.678C214.893 415.558 216.006 414.998 217.451 414.998ZM229.395 420.164H231.67L232.588 416.805H230.322L230.625 415.672H232.891L234.053 411.297H235.508L234.326 415.672H236.484L237.686 411.297H239.121L237.939 415.672H240.205L239.902 416.805H237.637L236.709 420.164H238.984L238.682 421.297H236.436L235.234 425.643H233.799L234.98 421.297H232.803L231.641 425.643H230.186L231.367 421.297H229.102L229.395 420.164ZM235.254 420.164L236.182 416.805H234.023L233.125 420.164H235.254ZM241.943 411.297H251.895V413.055H243.887V417.41H250.928V419.119H243.887V425.643H241.943V411.297ZM254.17 411.297H264.121V413.055H256.113V417.41H263.154V419.119H256.113V425.643H254.17V411.297ZM266.396 411.297H276.348V413.055H268.34V417.41H275.381V419.119H268.34V425.643H266.396V411.297ZM278.623 411.297H288.574V413.055H280.566V417.41H287.607V419.119H280.566V425.643H278.623V411.297ZM290.85 411.297H300.801V413.055H292.793V417.41H299.834V419.119H292.793V425.643H290.85V411.297Z" fill="black"/>
<path d="M122.367 268.693V270.402H117.533V283.039H115.561V270.402H110.727V268.693H122.367ZM126.049 272.346C126.791 272.346 127.51 272.521 128.207 272.873C128.904 273.218 129.434 273.667 129.799 274.221C130.15 274.748 130.385 275.363 130.502 276.066C130.606 276.548 130.658 277.316 130.658 278.371H122.992C123.025 279.432 123.275 280.285 123.744 280.93C124.213 281.568 124.939 281.887 125.922 281.887C126.84 281.887 127.572 281.584 128.119 280.979C128.432 280.627 128.653 280.22 128.783 279.758H130.512C130.466 280.142 130.313 280.572 130.053 281.047C129.799 281.516 129.512 281.9 129.193 282.199C128.66 282.72 127.999 283.072 127.211 283.254C126.788 283.358 126.309 283.41 125.775 283.41C124.473 283.41 123.37 282.938 122.465 281.994C121.56 281.044 121.107 279.715 121.107 278.01C121.107 276.33 121.563 274.966 122.475 273.918C123.386 272.87 124.577 272.346 126.049 272.346ZM128.852 276.975C128.78 276.213 128.614 275.604 128.354 275.148C127.872 274.302 127.068 273.879 125.941 273.879C125.134 273.879 124.457 274.172 123.91 274.758C123.363 275.337 123.074 276.076 123.041 276.975H128.852ZM131.83 272.58H134.105L136.508 276.262L138.939 272.58L141.078 272.629L137.553 277.678L141.234 283.039H138.988L136.391 279.113L133.871 283.039H131.645L135.326 277.678L131.83 272.58ZM143.178 269.66H144.955V272.58H146.625V274.016H144.955V280.842C144.955 281.206 145.079 281.451 145.326 281.574C145.463 281.646 145.691 281.682 146.01 281.682C146.094 281.682 146.186 281.682 146.283 281.682C146.381 281.675 146.495 281.665 146.625 281.652V283.039C146.423 283.098 146.212 283.14 145.99 283.166C145.775 283.192 145.541 283.205 145.287 283.205C144.467 283.205 143.91 282.997 143.617 282.58C143.324 282.157 143.178 281.61 143.178 280.939V274.016H141.762V272.58H143.178V269.66ZM152.963 277.561H155.238L156.156 274.201H153.891L154.193 273.068H156.459L157.621 268.693H159.076L157.895 273.068H160.053L161.254 268.693H162.689L161.508 273.068H163.773L163.471 274.201H161.205L160.277 277.561H162.553L162.25 278.693H160.004L158.803 283.039H157.367L158.549 278.693H156.371L155.209 283.039H153.754L154.936 278.693H152.67L152.963 277.561ZM158.822 277.561L159.75 274.201H157.592L156.693 277.561H158.822ZM166.273 279.475C166.391 280.477 166.856 281.171 167.67 281.555C168.087 281.75 168.568 281.848 169.115 281.848C170.157 281.848 170.928 281.516 171.43 280.852C171.931 280.188 172.182 279.452 172.182 278.645C172.182 277.668 171.882 276.913 171.283 276.379C170.691 275.845 169.978 275.578 169.145 275.578C168.539 275.578 168.018 275.695 167.582 275.93C167.152 276.164 166.785 276.49 166.479 276.906L164.955 276.818L166.02 269.289H173.285V270.988H167.338L166.742 274.875C167.068 274.628 167.377 274.442 167.67 274.318C168.191 274.104 168.793 273.996 169.477 273.996C170.759 273.996 171.846 274.41 172.738 275.236C173.63 276.063 174.076 277.111 174.076 278.381C174.076 279.702 173.666 280.868 172.846 281.877C172.032 282.886 170.73 283.391 168.939 283.391C167.8 283.391 166.791 283.072 165.912 282.434C165.04 281.789 164.551 280.803 164.447 279.475H166.273ZM182.504 268.303C184.32 268.303 185.73 268.781 186.732 269.738C187.735 270.695 188.292 271.783 188.402 273H186.508C186.293 272.076 185.863 271.343 185.219 270.803C184.581 270.262 183.682 269.992 182.523 269.992C181.111 269.992 179.968 270.49 179.096 271.486C178.23 272.476 177.797 273.996 177.797 276.047C177.797 277.727 178.188 279.09 178.969 280.139C179.757 281.18 180.928 281.701 182.484 281.701C183.917 281.701 185.007 281.151 185.756 280.051C186.153 279.471 186.449 278.71 186.645 277.766H188.539C188.37 279.276 187.81 280.542 186.859 281.564C185.72 282.795 184.184 283.41 182.25 283.41C180.583 283.41 179.184 282.906 178.051 281.896C176.56 280.562 175.814 278.501 175.814 275.715C175.814 273.599 176.374 271.864 177.494 270.51C178.705 269.038 180.375 268.303 182.504 268.303ZM191.859 279.475C191.977 280.477 192.442 281.171 193.256 281.555C193.673 281.75 194.154 281.848 194.701 281.848C195.743 281.848 196.514 281.516 197.016 280.852C197.517 280.188 197.768 279.452 197.768 278.645C197.768 277.668 197.468 276.913 196.869 276.379C196.277 275.845 195.564 275.578 194.73 275.578C194.125 275.578 193.604 275.695 193.168 275.93C192.738 276.164 192.37 276.49 192.064 276.906L190.541 276.818L191.605 269.289H198.871V270.988H192.924L192.328 274.875C192.654 274.628 192.963 274.442 193.256 274.318C193.777 274.104 194.379 273.996 195.062 273.996C196.345 273.996 197.432 274.41 198.324 275.236C199.216 276.063 199.662 277.111 199.662 278.381C199.662 279.702 199.252 280.868 198.432 281.877C197.618 282.886 196.316 283.391 194.525 283.391C193.386 283.391 192.377 283.072 191.498 282.434C190.626 281.789 190.137 280.803 190.033 279.475H191.859ZM208.09 268.303C209.906 268.303 211.316 268.781 212.318 269.738C213.321 270.695 213.878 271.783 213.988 273H212.094C211.879 272.076 211.449 271.343 210.805 270.803C210.167 270.262 209.268 269.992 208.109 269.992C206.697 269.992 205.554 270.49 204.682 271.486C203.816 272.476 203.383 273.996 203.383 276.047C203.383 277.727 203.773 279.09 204.555 280.139C205.342 281.18 206.514 281.701 208.07 281.701C209.503 281.701 210.593 281.151 211.342 280.051C211.739 279.471 212.035 278.71 212.23 277.766H214.125C213.956 279.276 213.396 280.542 212.445 281.564C211.306 282.795 209.77 283.41 207.836 283.41C206.169 283.41 204.77 282.906 203.637 281.896C202.146 280.562 201.4 278.501 201.4 275.715C201.4 273.599 201.96 271.864 203.08 270.51C204.291 269.038 205.961 268.303 208.09 268.303ZM217.445 279.475C217.562 280.477 218.028 281.171 218.842 281.555C219.258 281.75 219.74 281.848 220.287 281.848C221.329 281.848 222.1 281.516 222.602 280.852C223.103 280.188 223.354 279.452 223.354 278.645C223.354 277.668 223.054 276.913 222.455 276.379C221.863 275.845 221.15 275.578 220.316 275.578C219.711 275.578 219.19 275.695 218.754 275.93C218.324 276.164 217.956 276.49 217.65 276.906L216.127 276.818L217.191 269.289H224.457V270.988H218.51L217.914 274.875C218.24 274.628 218.549 274.442 218.842 274.318C219.363 274.104 219.965 273.996 220.648 273.996C221.931 273.996 223.018 274.41 223.91 275.236C224.802 276.063 225.248 277.111 225.248 278.381C225.248 279.702 224.838 280.868 224.018 281.877C223.204 282.886 221.902 283.391 220.111 283.391C218.972 283.391 217.963 283.072 217.084 282.434C216.212 281.789 215.723 280.803 215.619 279.475H217.445ZM233.676 268.303C235.492 268.303 236.902 268.781 237.904 269.738C238.907 270.695 239.464 271.783 239.574 273H237.68C237.465 272.076 237.035 271.343 236.391 270.803C235.753 270.262 234.854 269.992 233.695 269.992C232.283 269.992 231.14 270.49 230.268 271.486C229.402 272.476 228.969 273.996 228.969 276.047C228.969 277.727 229.359 279.09 230.141 280.139C230.928 281.18 232.1 281.701 233.656 281.701C235.089 281.701 236.179 281.151 236.928 280.051C237.325 279.471 237.621 278.71 237.816 277.766H239.711C239.542 279.276 238.982 280.542 238.031 281.564C236.892 282.795 235.355 283.41 233.422 283.41C231.755 283.41 230.355 282.906 229.223 281.896C227.732 280.562 226.986 278.501 226.986 275.715C226.986 273.599 227.546 271.864 228.666 270.51C229.877 269.038 231.547 268.303 233.676 268.303Z" fill="black"/>
<ellipse cx="56.6283" cy="280.099" rx="31.7357" ry="32.2314" fill="#5C5C5C"/>
<ellipse cx="56.6283" cy="352.388" rx="31.7357" ry="31.771" fill="#DADADA"/>
<path d="M123.135 344.688V346.396H118.301V359.033H116.328V346.396H111.494V344.688H123.135ZM126.816 348.34C127.559 348.34 128.278 348.516 128.975 348.867C129.671 349.212 130.202 349.661 130.566 350.215C130.918 350.742 131.152 351.357 131.27 352.061C131.374 352.542 131.426 353.311 131.426 354.365H123.76C123.792 355.426 124.043 356.279 124.512 356.924C124.98 357.562 125.706 357.881 126.689 357.881C127.607 357.881 128.34 357.578 128.887 356.973C129.199 356.621 129.421 356.214 129.551 355.752H131.279C131.234 356.136 131.081 356.566 130.82 357.041C130.566 357.51 130.28 357.894 129.961 358.193C129.427 358.714 128.766 359.066 127.979 359.248C127.555 359.352 127.077 359.404 126.543 359.404C125.241 359.404 124.137 358.932 123.232 357.988C122.327 357.038 121.875 355.71 121.875 354.004C121.875 352.324 122.331 350.96 123.242 349.912C124.154 348.864 125.345 348.34 126.816 348.34ZM129.619 352.969C129.548 352.207 129.382 351.598 129.121 351.143C128.639 350.296 127.835 349.873 126.709 349.873C125.902 349.873 125.225 350.166 124.678 350.752C124.131 351.331 123.841 352.07 123.809 352.969H129.619ZM132.598 348.574H134.873L137.275 352.256L139.707 348.574L141.846 348.623L138.32 353.672L142.002 359.033H139.756L137.158 355.107L134.639 359.033H132.412L136.094 353.672L132.598 348.574ZM143.945 345.654H145.723V348.574H147.393V350.01H145.723V356.836C145.723 357.201 145.846 357.445 146.094 357.568C146.23 357.64 146.458 357.676 146.777 357.676C146.862 357.676 146.953 357.676 147.051 357.676C147.148 357.669 147.262 357.66 147.393 357.646V359.033C147.191 359.092 146.979 359.134 146.758 359.16C146.543 359.186 146.309 359.199 146.055 359.199C145.234 359.199 144.678 358.991 144.385 358.574C144.092 358.151 143.945 357.604 143.945 356.934V350.01H142.529V348.574H143.945V345.654ZM155.771 355.752C155.824 356.338 155.97 356.787 156.211 357.1C156.654 357.666 157.422 357.949 158.516 357.949C159.167 357.949 159.74 357.809 160.234 357.529C160.729 357.243 160.977 356.803 160.977 356.211C160.977 355.762 160.778 355.42 160.381 355.186C160.127 355.042 159.626 354.876 158.877 354.688L157.48 354.336C156.589 354.115 155.931 353.867 155.508 353.594C154.753 353.118 154.375 352.461 154.375 351.621C154.375 350.632 154.73 349.831 155.439 349.219C156.156 348.607 157.116 348.301 158.32 348.301C159.896 348.301 161.032 348.763 161.729 349.688C162.165 350.273 162.376 350.905 162.363 351.582H160.703C160.671 351.185 160.531 350.824 160.283 350.498C159.88 350.036 159.18 349.805 158.184 349.805C157.52 349.805 157.015 349.932 156.67 350.186C156.331 350.439 156.162 350.775 156.162 351.191C156.162 351.647 156.387 352.012 156.836 352.285C157.096 352.448 157.48 352.591 157.988 352.715L159.15 352.998C160.413 353.304 161.26 353.6 161.689 353.887C162.373 354.336 162.715 355.042 162.715 356.006C162.715 356.937 162.36 357.741 161.65 358.418C160.947 359.095 159.873 359.434 158.428 359.434C156.872 359.434 155.768 359.082 155.117 358.379C154.473 357.669 154.128 356.794 154.082 355.752H155.771ZM169.082 348.34C169.824 348.34 170.544 348.516 171.24 348.867C171.937 349.212 172.467 349.661 172.832 350.215C173.184 350.742 173.418 351.357 173.535 352.061C173.639 352.542 173.691 353.311 173.691 354.365H166.025C166.058 355.426 166.309 356.279 166.777 356.924C167.246 357.562 167.972 357.881 168.955 357.881C169.873 357.881 170.605 357.578 171.152 356.973C171.465 356.621 171.686 356.214 171.816 355.752H173.545C173.499 356.136 173.346 356.566 173.086 357.041C172.832 357.51 172.546 357.894 172.227 358.193C171.693 358.714 171.032 359.066 170.244 359.248C169.821 359.352 169.342 359.404 168.809 359.404C167.507 359.404 166.403 358.932 165.498 357.988C164.593 357.038 164.141 355.71 164.141 354.004C164.141 352.324 164.596 350.96 165.508 349.912C166.419 348.864 167.611 348.34 169.082 348.34ZM171.885 352.969C171.813 352.207 171.647 351.598 171.387 351.143C170.905 350.296 170.101 349.873 168.975 349.873C168.167 349.873 167.49 350.166 166.943 350.752C166.396 351.331 166.107 352.07 166.074 352.969H171.885ZM179.893 348.271C181.071 348.271 182.028 348.558 182.764 349.131C183.506 349.704 183.952 350.69 184.102 352.09H182.393C182.288 351.445 182.051 350.911 181.68 350.488C181.309 350.059 180.713 349.844 179.893 349.844C178.773 349.844 177.972 350.391 177.49 351.484C177.178 352.194 177.021 353.07 177.021 354.111C177.021 355.16 177.243 356.042 177.686 356.758C178.128 357.474 178.825 357.832 179.775 357.832C180.505 357.832 181.081 357.611 181.504 357.168C181.934 356.719 182.23 356.107 182.393 355.332H184.102C183.906 356.719 183.418 357.734 182.637 358.379C181.855 359.017 180.856 359.336 179.639 359.336C178.271 359.336 177.181 358.838 176.367 357.842C175.553 356.839 175.146 355.589 175.146 354.092C175.146 352.256 175.592 350.827 176.484 349.805C177.376 348.783 178.512 348.271 179.893 348.271ZM190.01 357.9C191.175 357.9 191.973 357.461 192.402 356.582C192.839 355.697 193.057 354.714 193.057 353.633C193.057 352.656 192.9 351.862 192.588 351.25C192.093 350.286 191.24 349.805 190.029 349.805C188.955 349.805 188.174 350.215 187.686 351.035C187.197 351.855 186.953 352.845 186.953 354.004C186.953 355.117 187.197 356.045 187.686 356.787C188.174 357.529 188.949 357.9 190.01 357.9ZM190.078 348.271C191.426 348.271 192.565 348.721 193.496 349.619C194.427 350.518 194.893 351.839 194.893 353.584C194.893 355.27 194.482 356.663 193.662 357.764C192.842 358.864 191.569 359.414 189.844 359.414C188.405 359.414 187.262 358.929 186.416 357.959C185.57 356.982 185.146 355.674 185.146 354.033C185.146 352.275 185.592 350.876 186.484 349.834C187.376 348.792 188.574 348.271 190.078 348.271ZM196.992 348.574H198.662V350.059C199.157 349.447 199.681 349.007 200.234 348.74C200.788 348.473 201.403 348.34 202.08 348.34C203.564 348.34 204.567 348.857 205.088 349.893C205.374 350.459 205.518 351.27 205.518 352.324V359.033H203.73V352.441C203.73 351.803 203.636 351.289 203.447 350.898C203.135 350.247 202.568 349.922 201.748 349.922C201.331 349.922 200.99 349.964 200.723 350.049C200.241 350.192 199.818 350.479 199.453 350.908C199.16 351.253 198.968 351.611 198.877 351.982C198.792 352.347 198.75 352.871 198.75 353.555V359.033H196.992V348.574ZM209.238 353.926C209.238 355.046 209.476 355.983 209.951 356.738C210.426 357.493 211.188 357.871 212.236 357.871C213.05 357.871 213.717 357.523 214.238 356.826C214.766 356.123 215.029 355.117 215.029 353.809C215.029 352.487 214.759 351.51 214.219 350.879C213.678 350.241 213.011 349.922 212.217 349.922C211.331 349.922 210.612 350.26 210.059 350.938C209.512 351.615 209.238 352.611 209.238 353.926ZM211.885 348.389C212.686 348.389 213.356 348.558 213.896 348.896C214.209 349.092 214.564 349.434 214.961 349.922V344.639H216.65V359.033H215.068V357.578C214.658 358.223 214.173 358.688 213.613 358.975C213.053 359.261 212.412 359.404 211.689 359.404C210.524 359.404 209.515 358.916 208.662 357.939C207.809 356.956 207.383 355.651 207.383 354.023C207.383 352.5 207.77 351.182 208.545 350.068C209.326 348.949 210.439 348.389 211.885 348.389ZM220.605 356.25C220.605 356.758 220.791 357.158 221.162 357.451C221.533 357.744 221.973 357.891 222.48 357.891C223.099 357.891 223.698 357.747 224.277 357.461C225.254 356.986 225.742 356.208 225.742 355.127V353.711C225.527 353.848 225.251 353.962 224.912 354.053C224.574 354.144 224.242 354.209 223.916 354.248L222.852 354.385C222.214 354.469 221.735 354.603 221.416 354.785C220.876 355.091 220.605 355.579 220.605 356.25ZM224.863 352.695C225.267 352.643 225.537 352.474 225.674 352.188C225.752 352.031 225.791 351.807 225.791 351.514C225.791 350.915 225.576 350.482 225.146 350.215C224.723 349.941 224.115 349.805 223.32 349.805C222.402 349.805 221.751 350.052 221.367 350.547C221.152 350.82 221.012 351.227 220.947 351.768H219.307C219.339 350.479 219.756 349.583 220.557 349.082C221.364 348.574 222.298 348.32 223.359 348.32C224.59 348.32 225.589 348.555 226.357 349.023C227.119 349.492 227.5 350.221 227.5 351.211V357.236C227.5 357.419 227.536 357.565 227.607 357.676C227.686 357.786 227.845 357.842 228.086 357.842C228.164 357.842 228.252 357.839 228.35 357.832C228.447 357.819 228.551 357.803 228.662 357.783V359.082C228.389 359.16 228.18 359.209 228.037 359.229C227.894 359.248 227.699 359.258 227.451 359.258C226.846 359.258 226.406 359.043 226.133 358.613C225.99 358.385 225.889 358.063 225.83 357.646C225.472 358.115 224.958 358.522 224.287 358.867C223.617 359.212 222.878 359.385 222.07 359.385C221.1 359.385 220.306 359.092 219.688 358.506C219.076 357.913 218.77 357.174 218.77 356.289C218.77 355.319 219.072 354.567 219.678 354.033C220.283 353.499 221.077 353.171 222.061 353.047L224.863 352.695ZM230.439 348.574H232.109V350.381C232.246 350.029 232.581 349.603 233.115 349.102C233.649 348.594 234.264 348.34 234.961 348.34C234.993 348.34 235.049 348.343 235.127 348.35C235.205 348.356 235.339 348.369 235.527 348.389V350.244C235.423 350.225 235.326 350.212 235.234 350.205C235.15 350.199 235.055 350.195 234.951 350.195C234.066 350.195 233.385 350.482 232.91 351.055C232.435 351.621 232.197 352.275 232.197 353.018V359.033H230.439V348.574ZM243.584 348.574H245.527C245.28 349.245 244.73 350.775 243.877 353.164C243.239 354.961 242.705 356.426 242.275 357.559C241.26 360.228 240.544 361.855 240.127 362.441C239.71 363.027 238.994 363.32 237.979 363.32C237.731 363.32 237.539 363.311 237.402 363.291C237.272 363.271 237.109 363.236 236.914 363.184V361.582C237.22 361.667 237.441 361.719 237.578 361.738C237.715 361.758 237.835 361.768 237.939 361.768C238.265 361.768 238.503 361.712 238.652 361.602C238.809 361.497 238.939 361.367 239.043 361.211C239.076 361.159 239.193 360.892 239.395 360.41C239.596 359.928 239.743 359.57 239.834 359.336L235.967 348.574H237.959L240.762 357.09L243.584 348.574ZM111.465 376.555H113.74L114.658 373.195H112.393L112.695 372.062H114.961L116.123 367.688H117.578L116.396 372.062H118.555L119.756 367.688H121.191L120.01 372.062H122.275L121.973 373.195H119.707L118.779 376.555H121.055L120.752 377.688H118.506L117.305 382.033H115.869L117.051 377.688H114.873L113.711 382.033H112.256L113.438 377.688H111.172L111.465 376.555ZM117.324 376.555L118.252 373.195H116.094L115.195 376.555H117.324ZM129.336 380.373C129.993 380.373 130.534 380.305 130.957 380.168C131.712 379.914 132.331 379.426 132.812 378.703C133.197 378.124 133.473 377.382 133.643 376.477C133.74 375.936 133.789 375.435 133.789 374.973C133.789 373.195 133.434 371.815 132.725 370.832C132.021 369.849 130.885 369.357 129.316 369.357H125.869V380.373H129.336ZM123.916 367.688H129.727C131.699 367.688 133.229 368.387 134.316 369.787C135.286 371.05 135.771 372.668 135.771 374.641C135.771 376.164 135.485 377.541 134.912 378.771C133.903 380.946 132.168 382.033 129.707 382.033H123.916V367.688ZM145.645 376.154L143.467 369.816L141.152 376.154H145.645ZM142.451 367.688H144.648L149.854 382.033H147.725L146.27 377.736H140.596L139.043 382.033H137.051L142.451 367.688ZM157.129 380.373C157.786 380.373 158.327 380.305 158.75 380.168C159.505 379.914 160.124 379.426 160.605 378.703C160.99 378.124 161.266 377.382 161.436 376.477C161.533 375.936 161.582 375.435 161.582 374.973C161.582 373.195 161.227 371.815 160.518 370.832C159.814 369.849 158.678 369.357 157.109 369.357H153.662V380.373H157.129ZM151.709 367.688H157.52C159.492 367.688 161.022 368.387 162.109 369.787C163.079 371.05 163.564 372.668 163.564 374.641C163.564 376.164 163.278 377.541 162.705 378.771C161.696 380.946 159.961 382.033 157.5 382.033H151.709V367.688ZM173.438 376.154L171.26 369.816L168.945 376.154H173.438ZM170.244 367.688H172.441L177.646 382.033H175.518L174.062 377.736H168.389L166.836 382.033H164.844L170.244 367.688ZM184.922 380.373C185.579 380.373 186.12 380.305 186.543 380.168C187.298 379.914 187.917 379.426 188.398 378.703C188.783 378.124 189.059 377.382 189.229 376.477C189.326 375.936 189.375 375.435 189.375 374.973C189.375 373.195 189.02 371.815 188.311 370.832C187.607 369.849 186.471 369.357 184.902 369.357H181.455V380.373H184.922ZM179.502 367.688H185.312C187.285 367.688 188.815 368.387 189.902 369.787C190.872 371.05 191.357 372.668 191.357 374.641C191.357 376.164 191.071 377.541 190.498 378.771C189.489 380.946 187.754 382.033 185.293 382.033H179.502V367.688ZM201.23 376.154L199.053 369.816L196.738 376.154H201.23ZM198.037 367.688H200.234L205.439 382.033H203.311L201.855 377.736H196.182L194.629 382.033H192.637L198.037 367.688Z" fill="black"/>
<path d="M112.113 50.5977H118.568C119.844 50.5977 120.873 50.959 121.654 51.6816C122.436 52.3978 122.826 53.4069 122.826 54.709C122.826 55.8288 122.478 56.8053 121.781 57.6387C121.085 58.4655 120.014 58.8789 118.568 58.8789H114.057V64.9434H112.113V50.5977ZM120.863 54.7188C120.863 53.6641 120.473 52.9479 119.691 52.5703C119.262 52.3685 118.673 52.2676 117.924 52.2676H114.057V57.2383H117.924C118.796 57.2383 119.503 57.0527 120.043 56.6816C120.59 56.3105 120.863 55.6562 120.863 54.7188ZM125.082 54.4844H126.752V56.291C126.889 55.9395 127.224 55.513 127.758 55.0117C128.292 54.5039 128.907 54.25 129.604 54.25C129.636 54.25 129.691 54.2533 129.77 54.2598C129.848 54.2663 129.981 54.2793 130.17 54.2988V56.1543C130.066 56.1348 129.968 56.1217 129.877 56.1152C129.792 56.1087 129.698 56.1055 129.594 56.1055C128.708 56.1055 128.028 56.3919 127.553 56.9648C127.077 57.5312 126.84 58.1855 126.84 58.9277V64.9434H125.082V54.4844ZM131.693 54.5332H133.48V64.9434H131.693V54.5332ZM131.693 50.5977H133.48V52.5898H131.693V50.5977ZM136.146 54.4844H137.885V55.9688C138.301 55.4544 138.679 55.0801 139.018 54.8457C139.597 54.4486 140.255 54.25 140.99 54.25C141.824 54.25 142.494 54.4551 143.002 54.8652C143.288 55.0996 143.549 55.4447 143.783 55.9004C144.174 55.3405 144.633 54.9271 145.16 54.6602C145.688 54.3867 146.28 54.25 146.938 54.25C148.344 54.25 149.301 54.7578 149.809 55.7734C150.082 56.3203 150.219 57.056 150.219 57.9805V64.9434H148.393V57.6777C148.393 56.9811 148.217 56.5026 147.865 56.2422C147.52 55.9818 147.097 55.8516 146.596 55.8516C145.906 55.8516 145.31 56.0827 144.809 56.5449C144.314 57.0072 144.066 57.7786 144.066 58.8594V64.9434H142.279V58.1172C142.279 57.4076 142.195 56.89 142.025 56.5645C141.758 56.0762 141.26 55.832 140.531 55.832C139.867 55.832 139.262 56.0892 138.715 56.6035C138.174 57.1178 137.904 58.0488 137.904 59.3965V64.9434H136.146V54.4844ZM154.154 62.1602C154.154 62.668 154.34 63.0684 154.711 63.3613C155.082 63.6543 155.521 63.8008 156.029 63.8008C156.648 63.8008 157.247 63.6576 157.826 63.3711C158.803 62.8958 159.291 62.1178 159.291 61.0371V59.6211C159.076 59.7578 158.799 59.8717 158.461 59.9629C158.122 60.054 157.79 60.1191 157.465 60.1582L156.4 60.2949C155.762 60.3796 155.284 60.513 154.965 60.6953C154.424 61.0013 154.154 61.4896 154.154 62.1602ZM158.412 58.6055C158.816 58.5534 159.086 58.3841 159.223 58.0977C159.301 57.9414 159.34 57.7168 159.34 57.4238C159.34 56.8249 159.125 56.3919 158.695 56.125C158.272 55.8516 157.663 55.7148 156.869 55.7148C155.951 55.7148 155.3 55.9622 154.916 56.457C154.701 56.7305 154.561 57.1374 154.496 57.6777H152.855C152.888 56.3887 153.305 55.4935 154.105 54.9922C154.913 54.4844 155.847 54.2305 156.908 54.2305C158.139 54.2305 159.138 54.4648 159.906 54.9336C160.668 55.4023 161.049 56.1315 161.049 57.1211V63.1465C161.049 63.3288 161.085 63.4753 161.156 63.5859C161.234 63.6966 161.394 63.752 161.635 63.752C161.713 63.752 161.801 63.7487 161.898 63.7422C161.996 63.7292 162.1 63.7129 162.211 63.6934V64.9922C161.938 65.0703 161.729 65.1191 161.586 65.1387C161.443 65.1582 161.247 65.168 161 65.168C160.395 65.168 159.955 64.9531 159.682 64.5234C159.538 64.2956 159.438 63.9733 159.379 63.5566C159.021 64.0254 158.507 64.4323 157.836 64.7773C157.165 65.1224 156.426 65.2949 155.619 65.2949C154.649 65.2949 153.855 65.002 153.236 64.416C152.624 63.8236 152.318 63.0846 152.318 62.1992C152.318 61.2292 152.621 60.4772 153.227 59.9434C153.832 59.4095 154.626 59.0807 155.609 58.957L158.412 58.6055ZM163.988 54.4844H165.658V56.291C165.795 55.9395 166.13 55.513 166.664 55.0117C167.198 54.5039 167.813 54.25 168.51 54.25C168.542 54.25 168.598 54.2533 168.676 54.2598C168.754 54.2663 168.887 54.2793 169.076 54.2988V56.1543C168.972 56.1348 168.874 56.1217 168.783 56.1152C168.699 56.1087 168.604 56.1055 168.5 56.1055C167.615 56.1055 166.934 56.3919 166.459 56.9648C165.984 57.5312 165.746 58.1855 165.746 58.9277V64.9434H163.988V54.4844ZM177.133 54.4844H179.076C178.829 55.1549 178.279 56.6849 177.426 59.0742C176.788 60.8711 176.254 62.3359 175.824 63.4688C174.809 66.138 174.092 67.7656 173.676 68.3516C173.259 68.9375 172.543 69.2305 171.527 69.2305C171.28 69.2305 171.088 69.2207 170.951 69.2012C170.821 69.1816 170.658 69.1458 170.463 69.0938V67.4922C170.769 67.5768 170.99 67.6289 171.127 67.6484C171.264 67.668 171.384 67.6777 171.488 67.6777C171.814 67.6777 172.051 67.6224 172.201 67.5117C172.357 67.4076 172.488 67.2773 172.592 67.1211C172.624 67.069 172.742 66.8021 172.943 66.3203C173.145 65.8385 173.292 65.4805 173.383 65.2461L169.516 54.4844H171.508L174.311 63L177.133 54.4844ZM185.17 59.4648H187.445L188.363 56.1055H186.098L186.4 54.9727H188.666L189.828 50.5977H191.283L190.102 54.9727H192.26L193.461 50.5977H194.896L193.715 54.9727H195.98L195.678 56.1055H193.412L192.484 59.4648H194.76L194.457 60.5977H192.211L191.01 64.9434H189.574L190.756 60.5977H188.578L187.416 64.9434H185.961L187.143 60.5977H184.877L185.17 59.4648ZM191.029 59.4648L191.957 56.1055H189.799L188.9 59.4648H191.029ZM196.635 64.9434C196.7 63.7389 196.947 62.6908 197.377 61.7988C197.813 60.9069 198.66 60.0964 199.916 59.3672L201.791 58.2832C202.631 57.7949 203.22 57.3783 203.559 57.0332C204.092 56.4928 204.359 55.8743 204.359 55.1777C204.359 54.3639 204.115 53.7194 203.627 53.2441C203.139 52.7624 202.488 52.5215 201.674 52.5215C200.469 52.5215 199.636 52.9772 199.174 53.8887C198.926 54.377 198.79 55.054 198.764 55.9199H196.977C196.996 54.7025 197.221 53.7096 197.65 52.9414C198.412 51.5872 199.757 50.9102 201.684 50.9102C203.285 50.9102 204.454 51.3431 205.189 52.209C205.932 53.0749 206.303 54.0384 206.303 55.0996C206.303 56.2194 205.909 57.1764 205.121 57.9707C204.665 58.4329 203.848 58.9928 202.67 59.6504L201.332 60.3926C200.694 60.7441 200.193 61.0794 199.828 61.3984C199.177 61.9648 198.767 62.5931 198.598 63.2832H206.234V64.9434H196.635ZM213.754 59.9922V53.6543L209.271 59.9922H213.754ZM213.783 64.9434V61.5254H207.65V59.8066L214.057 50.9199H215.541V59.9922H217.602V61.5254H215.541V64.9434H213.783ZM224.125 50.9004C225.688 50.9004 226.775 51.3073 227.387 52.1211C228.005 52.9284 228.314 53.7617 228.314 54.6211H226.576C226.472 54.0677 226.306 53.6348 226.078 53.3223C225.655 52.7363 225.014 52.4434 224.154 52.4434C223.171 52.4434 222.39 52.8991 221.811 53.8105C221.231 54.7155 220.909 56.0143 220.844 57.707C221.247 57.1146 221.755 56.6719 222.367 56.3789C222.927 56.1185 223.552 55.9883 224.242 55.9883C225.414 55.9883 226.436 56.3626 227.309 57.1113C228.181 57.86 228.617 58.9766 228.617 60.4609C228.617 61.7305 228.204 62.8568 227.377 63.8398C226.55 64.8164 225.372 65.3047 223.842 65.3047C222.533 65.3047 221.404 64.8099 220.453 63.8203C219.503 62.8242 219.027 61.151 219.027 58.8008C219.027 57.0625 219.239 55.5879 219.662 54.377C220.476 52.0592 221.964 50.9004 224.125 50.9004ZM223.998 63.7422C224.923 63.7422 225.613 63.4329 226.068 62.8145C226.531 62.1895 226.762 61.4538 226.762 60.6074C226.762 59.8913 226.557 59.2109 226.146 58.5664C225.736 57.9154 224.991 57.5898 223.91 57.5898C223.155 57.5898 222.491 57.8405 221.918 58.3418C221.352 58.8431 221.068 59.5983 221.068 60.6074C221.068 61.4928 221.326 62.2383 221.84 62.8438C222.361 63.4427 223.08 63.7422 223.998 63.7422ZM236.322 56.6621C237.143 56.6621 237.781 56.5482 238.236 56.3203C238.952 55.9622 239.311 55.3177 239.311 54.3867C239.311 53.4492 238.93 52.8177 238.168 52.4922C237.738 52.3099 237.1 52.2188 236.254 52.2188H232.787V56.6621H236.322ZM236.977 63.2832C238.168 63.2832 239.018 62.9382 239.525 62.248C239.844 61.8118 240.004 61.2845 240.004 60.666C240.004 59.6243 239.538 58.9147 238.607 58.5371C238.113 58.3353 237.458 58.2344 236.645 58.2344H232.787V63.2832H236.977ZM230.883 50.5977H237.045C238.725 50.5977 239.919 51.099 240.629 52.1016C241.046 52.694 241.254 53.3776 241.254 54.1523C241.254 55.0573 240.997 55.7995 240.482 56.3789C240.215 56.6849 239.831 56.9648 239.33 57.2188C240.066 57.4987 240.616 57.8145 240.98 58.166C241.625 58.791 241.947 59.6536 241.947 60.7539C241.947 61.6784 241.658 62.515 241.078 63.2637C240.212 64.3835 238.835 64.9434 236.947 64.9434H230.883V50.5977ZM248.598 50.9004C250.16 50.9004 251.247 51.3073 251.859 52.1211C252.478 52.9284 252.787 53.7617 252.787 54.6211H251.049C250.945 54.0677 250.779 53.6348 250.551 53.3223C250.128 52.7363 249.486 52.4434 248.627 52.4434C247.644 52.4434 246.863 52.8991 246.283 53.8105C245.704 54.7155 245.382 56.0143 245.316 57.707C245.72 57.1146 246.228 56.6719 246.84 56.3789C247.4 56.1185 248.025 55.9883 248.715 55.9883C249.887 55.9883 250.909 56.3626 251.781 57.1113C252.654 57.86 253.09 58.9766 253.09 60.4609C253.09 61.7305 252.676 62.8568 251.85 63.8398C251.023 64.8164 249.844 65.3047 248.314 65.3047C247.006 65.3047 245.876 64.8099 244.926 63.8203C243.975 62.8242 243.5 61.151 243.5 58.8008C243.5 57.0625 243.712 55.5879 244.135 54.377C244.949 52.0592 246.436 50.9004 248.598 50.9004ZM248.471 63.7422C249.395 63.7422 250.085 63.4329 250.541 62.8145C251.003 62.1895 251.234 61.4538 251.234 60.6074C251.234 59.8913 251.029 59.2109 250.619 58.5664C250.209 57.9154 249.464 57.5898 248.383 57.5898C247.628 57.5898 246.964 57.8405 246.391 58.3418C245.824 58.8431 245.541 59.5983 245.541 60.6074C245.541 61.4928 245.798 62.2383 246.312 62.8438C246.833 63.4427 247.553 63.7422 248.471 63.7422ZM260.912 63.2832C261.57 63.2832 262.11 63.2148 262.533 63.0781C263.288 62.8242 263.907 62.3359 264.389 61.6133C264.773 61.0339 265.049 60.2917 265.219 59.3867C265.316 58.8464 265.365 58.3451 265.365 57.8828C265.365 56.1055 265.01 54.7253 264.301 53.7422C263.598 52.7591 262.462 52.2676 260.893 52.2676H257.445V63.2832H260.912ZM255.492 50.5977H261.303C263.275 50.5977 264.805 51.2975 265.893 52.6973C266.863 53.9603 267.348 55.5781 267.348 57.5508C267.348 59.0742 267.061 60.4512 266.488 61.6816C265.479 63.8561 263.744 64.9434 261.283 64.9434H255.492V50.5977Z" fill="black"/>
<path d="M113.197 198.754C113.243 199.568 113.435 200.229 113.773 200.736C114.418 201.687 115.554 202.162 117.182 202.162C117.911 202.162 118.575 202.058 119.174 201.85C120.333 201.446 120.912 200.723 120.912 199.682C120.912 198.9 120.668 198.344 120.18 198.012C119.685 197.686 118.91 197.403 117.855 197.162L115.912 196.723C114.643 196.436 113.744 196.12 113.217 195.775C112.305 195.176 111.85 194.281 111.85 193.09C111.85 191.801 112.296 190.743 113.188 189.916C114.079 189.089 115.342 188.676 116.977 188.676C118.48 188.676 119.757 189.04 120.805 189.77C121.859 190.492 122.387 191.651 122.387 193.246H120.561C120.463 192.478 120.255 191.889 119.936 191.479C119.343 190.73 118.337 190.355 116.918 190.355C115.772 190.355 114.949 190.596 114.447 191.078C113.946 191.56 113.695 192.12 113.695 192.758C113.695 193.461 113.988 193.975 114.574 194.301C114.958 194.509 115.827 194.77 117.182 195.082L119.193 195.541C120.163 195.762 120.912 196.065 121.439 196.449C122.351 197.12 122.807 198.093 122.807 199.369C122.807 200.958 122.227 202.094 121.068 202.777C119.916 203.461 118.575 203.803 117.045 203.803C115.261 203.803 113.865 203.347 112.855 202.436C111.846 201.531 111.352 200.303 111.371 198.754H113.197ZM129.389 192.689C130.131 192.689 130.85 192.865 131.547 193.217C132.243 193.562 132.774 194.011 133.139 194.564C133.49 195.092 133.725 195.707 133.842 196.41C133.946 196.892 133.998 197.66 133.998 198.715H126.332C126.365 199.776 126.615 200.629 127.084 201.273C127.553 201.911 128.279 202.23 129.262 202.23C130.18 202.23 130.912 201.928 131.459 201.322C131.771 200.971 131.993 200.564 132.123 200.102H133.852C133.806 200.486 133.653 200.915 133.393 201.391C133.139 201.859 132.852 202.243 132.533 202.543C131.999 203.064 131.339 203.415 130.551 203.598C130.128 203.702 129.649 203.754 129.115 203.754C127.813 203.754 126.71 203.282 125.805 202.338C124.9 201.387 124.447 200.059 124.447 198.354C124.447 196.674 124.903 195.31 125.814 194.262C126.726 193.214 127.917 192.689 129.389 192.689ZM132.191 197.318C132.12 196.557 131.954 195.948 131.693 195.492C131.212 194.646 130.408 194.223 129.281 194.223C128.474 194.223 127.797 194.516 127.25 195.102C126.703 195.681 126.413 196.42 126.381 197.318H132.191ZM140.199 192.621C141.378 192.621 142.335 192.908 143.07 193.48C143.812 194.053 144.258 195.04 144.408 196.439H142.699C142.595 195.795 142.357 195.261 141.986 194.838C141.615 194.408 141.02 194.193 140.199 194.193C139.079 194.193 138.279 194.74 137.797 195.834C137.484 196.544 137.328 197.419 137.328 198.461C137.328 199.509 137.549 200.391 137.992 201.107C138.435 201.824 139.132 202.182 140.082 202.182C140.811 202.182 141.387 201.96 141.811 201.518C142.24 201.068 142.536 200.456 142.699 199.682H144.408C144.213 201.068 143.725 202.084 142.943 202.729C142.162 203.367 141.163 203.686 139.945 203.686C138.578 203.686 137.488 203.188 136.674 202.191C135.86 201.189 135.453 199.939 135.453 198.441C135.453 196.605 135.899 195.176 136.791 194.154C137.683 193.132 138.819 192.621 140.199 192.621ZM150.316 202.25C151.482 202.25 152.279 201.811 152.709 200.932C153.145 200.046 153.363 199.063 153.363 197.982C153.363 197.006 153.207 196.212 152.895 195.6C152.4 194.636 151.547 194.154 150.336 194.154C149.262 194.154 148.48 194.564 147.992 195.385C147.504 196.205 147.26 197.195 147.26 198.354C147.26 199.467 147.504 200.395 147.992 201.137C148.48 201.879 149.255 202.25 150.316 202.25ZM150.385 192.621C151.732 192.621 152.872 193.07 153.803 193.969C154.734 194.867 155.199 196.189 155.199 197.934C155.199 199.62 154.789 201.013 153.969 202.113C153.148 203.214 151.876 203.764 150.15 203.764C148.712 203.764 147.569 203.279 146.723 202.309C145.876 201.332 145.453 200.023 145.453 198.383C145.453 196.625 145.899 195.225 146.791 194.184C147.683 193.142 148.881 192.621 150.385 192.621ZM157.299 192.924H158.969V194.408C159.464 193.796 159.988 193.357 160.541 193.09C161.094 192.823 161.71 192.689 162.387 192.689C163.871 192.689 164.874 193.207 165.395 194.242C165.681 194.809 165.824 195.619 165.824 196.674V203.383H164.037V196.791C164.037 196.153 163.943 195.639 163.754 195.248C163.441 194.597 162.875 194.271 162.055 194.271C161.638 194.271 161.296 194.314 161.029 194.398C160.548 194.542 160.124 194.828 159.76 195.258C159.467 195.603 159.275 195.961 159.184 196.332C159.099 196.697 159.057 197.221 159.057 197.904V203.383H157.299V192.924ZM169.545 198.275C169.545 199.395 169.783 200.333 170.258 201.088C170.733 201.843 171.495 202.221 172.543 202.221C173.357 202.221 174.024 201.872 174.545 201.176C175.072 200.473 175.336 199.467 175.336 198.158C175.336 196.837 175.066 195.86 174.525 195.229C173.985 194.59 173.318 194.271 172.523 194.271C171.638 194.271 170.919 194.61 170.365 195.287C169.818 195.964 169.545 196.96 169.545 198.275ZM172.191 192.738C172.992 192.738 173.663 192.908 174.203 193.246C174.516 193.441 174.87 193.783 175.268 194.271V188.988H176.957V203.383H175.375V201.928C174.965 202.572 174.48 203.038 173.92 203.324C173.36 203.611 172.719 203.754 171.996 203.754C170.831 203.754 169.822 203.266 168.969 202.289C168.116 201.306 167.689 200.001 167.689 198.373C167.689 196.85 168.077 195.531 168.852 194.418C169.633 193.298 170.746 192.738 172.191 192.738ZM180.912 200.6C180.912 201.107 181.098 201.508 181.469 201.801C181.84 202.094 182.279 202.24 182.787 202.24C183.406 202.24 184.005 202.097 184.584 201.811C185.561 201.335 186.049 200.557 186.049 199.477V198.061C185.834 198.197 185.557 198.311 185.219 198.402C184.88 198.493 184.548 198.559 184.223 198.598L183.158 198.734C182.52 198.819 182.042 198.952 181.723 199.135C181.182 199.441 180.912 199.929 180.912 200.6ZM185.17 197.045C185.574 196.993 185.844 196.824 185.98 196.537C186.059 196.381 186.098 196.156 186.098 195.863C186.098 195.264 185.883 194.831 185.453 194.564C185.03 194.291 184.421 194.154 183.627 194.154C182.709 194.154 182.058 194.402 181.674 194.896C181.459 195.17 181.319 195.577 181.254 196.117H179.613C179.646 194.828 180.062 193.933 180.863 193.432C181.671 192.924 182.605 192.67 183.666 192.67C184.896 192.67 185.896 192.904 186.664 193.373C187.426 193.842 187.807 194.571 187.807 195.561V201.586C187.807 201.768 187.842 201.915 187.914 202.025C187.992 202.136 188.152 202.191 188.393 202.191C188.471 202.191 188.559 202.188 188.656 202.182C188.754 202.169 188.858 202.152 188.969 202.133V203.432C188.695 203.51 188.487 203.559 188.344 203.578C188.201 203.598 188.005 203.607 187.758 203.607C187.152 203.607 186.713 203.393 186.439 202.963C186.296 202.735 186.195 202.413 186.137 201.996C185.779 202.465 185.264 202.872 184.594 203.217C183.923 203.562 183.184 203.734 182.377 203.734C181.407 203.734 180.613 203.441 179.994 202.855C179.382 202.263 179.076 201.524 179.076 200.639C179.076 199.669 179.379 198.917 179.984 198.383C180.59 197.849 181.384 197.52 182.367 197.396L185.17 197.045ZM190.746 192.924H192.416V194.73C192.553 194.379 192.888 193.952 193.422 193.451C193.956 192.943 194.571 192.689 195.268 192.689C195.3 192.689 195.355 192.693 195.434 192.699C195.512 192.706 195.645 192.719 195.834 192.738V194.594C195.73 194.574 195.632 194.561 195.541 194.555C195.456 194.548 195.362 194.545 195.258 194.545C194.372 194.545 193.692 194.831 193.217 195.404C192.742 195.971 192.504 196.625 192.504 197.367V203.383H190.746V192.924ZM203.891 192.924H205.834C205.587 193.594 205.036 195.124 204.184 197.514C203.546 199.311 203.012 200.775 202.582 201.908C201.566 204.577 200.85 206.205 200.434 206.791C200.017 207.377 199.301 207.67 198.285 207.67C198.038 207.67 197.846 207.66 197.709 207.641C197.579 207.621 197.416 207.585 197.221 207.533V205.932C197.527 206.016 197.748 206.068 197.885 206.088C198.021 206.107 198.142 206.117 198.246 206.117C198.572 206.117 198.809 206.062 198.959 205.951C199.115 205.847 199.245 205.717 199.35 205.561C199.382 205.508 199.499 205.242 199.701 204.76C199.903 204.278 200.049 203.92 200.141 203.686L196.273 192.924H198.266L201.068 201.439L203.891 192.924ZM211.928 197.904H214.203L215.121 194.545H212.855L213.158 193.412H215.424L216.586 189.037H218.041L216.859 193.412H219.018L220.219 189.037H221.654L220.473 193.412H222.738L222.436 194.545H220.17L219.242 197.904H221.518L221.215 199.037H218.969L217.768 203.383H216.332L217.514 199.037H215.336L214.174 203.383H212.719L213.9 199.037H211.635L211.928 197.904ZM217.787 197.904L218.715 194.545H216.557L215.658 197.904H217.787ZM224.682 193.48V192.133C225.951 192.009 226.837 191.804 227.338 191.518C227.839 191.225 228.214 190.538 228.461 189.457H229.848V203.383H227.973V193.48H224.682ZM235.609 189.037H245.561V190.795H237.553V195.15H244.594V196.859H237.553V203.383H235.609V189.037ZM253.158 201.723C253.816 201.723 254.356 201.654 254.779 201.518C255.535 201.264 256.153 200.775 256.635 200.053C257.019 199.473 257.296 198.731 257.465 197.826C257.562 197.286 257.611 196.785 257.611 196.322C257.611 194.545 257.257 193.165 256.547 192.182C255.844 191.199 254.708 190.707 253.139 190.707H249.691V201.723H253.158ZM247.738 189.037H253.549C255.521 189.037 257.051 189.737 258.139 191.137C259.109 192.4 259.594 194.018 259.594 195.99C259.594 197.514 259.307 198.891 258.734 200.121C257.725 202.296 255.99 203.383 253.529 203.383H247.738V189.037ZM262.289 189.037H272.24V190.795H264.232V195.15H271.273V196.859H264.232V203.383H262.289V189.037ZM279.838 201.723C280.495 201.723 281.036 201.654 281.459 201.518C282.214 201.264 282.833 200.775 283.314 200.053C283.699 199.473 283.975 198.731 284.145 197.826C284.242 197.286 284.291 196.785 284.291 196.322C284.291 194.545 283.936 193.165 283.227 192.182C282.523 191.199 281.387 190.707 279.818 190.707H276.371V201.723H279.838ZM274.418 189.037H280.229C282.201 189.037 283.731 189.737 284.818 191.137C285.788 192.4 286.273 194.018 286.273 195.99C286.273 197.514 285.987 198.891 285.414 200.121C284.405 202.296 282.67 203.383 280.209 203.383H274.418V189.037ZM292.699 195.258C293.474 195.258 294.079 195.043 294.516 194.613C294.952 194.177 295.17 193.66 295.17 193.061C295.17 192.54 294.962 192.061 294.545 191.625C294.128 191.189 293.493 190.971 292.641 190.971C291.794 190.971 291.182 191.189 290.805 191.625C290.427 192.061 290.238 192.572 290.238 193.158C290.238 193.816 290.482 194.33 290.971 194.701C291.459 195.072 292.035 195.258 292.699 195.258ZM292.807 202.182C293.62 202.182 294.294 201.964 294.828 201.527C295.368 201.085 295.639 200.427 295.639 199.555C295.639 198.65 295.362 197.963 294.809 197.494C294.255 197.025 293.546 196.791 292.68 196.791C291.84 196.791 291.153 197.032 290.619 197.514C290.092 197.989 289.828 198.65 289.828 199.496C289.828 200.225 290.069 200.857 290.551 201.391C291.039 201.918 291.791 202.182 292.807 202.182ZM290.307 195.932C289.818 195.723 289.438 195.479 289.164 195.199C288.65 194.678 288.393 194.001 288.393 193.168C288.393 192.126 288.77 191.231 289.525 190.482C290.281 189.734 291.352 189.359 292.738 189.359C294.079 189.359 295.131 189.714 295.893 190.424C296.654 191.127 297.035 191.951 297.035 192.895C297.035 193.767 296.814 194.473 296.371 195.014C296.124 195.32 295.74 195.619 295.219 195.912C295.798 196.179 296.254 196.485 296.586 196.83C297.204 197.481 297.514 198.327 297.514 199.369C297.514 200.6 297.1 201.645 296.273 202.504C295.447 203.357 294.278 203.783 292.768 203.783C291.407 203.783 290.255 203.415 289.311 202.68C288.373 201.938 287.904 200.863 287.904 199.457C287.904 198.63 288.106 197.917 288.51 197.318C288.913 196.713 289.512 196.251 290.307 195.932Z" fill="black"/>
<ellipse cx="56.6283" cy="58.1616" rx="31.7357" ry="31.771" fill="#246B6D"/>
<ellipse cx="56.6283" cy="129.992" rx="31.7357" ry="31.771" fill="#246B6D" fill-opacity="0.7"/>
<ellipse cx="56.6283" cy="201.822" rx="31.7357" ry="31.771" fill="#FF5630"/>
<path d="M112.113 118.127H118.568C119.844 118.127 120.873 118.488 121.654 119.211C122.436 119.927 122.826 120.936 122.826 122.238C122.826 123.358 122.478 124.335 121.781 125.168C121.085 125.995 120.014 126.408 118.568 126.408H114.057V132.473H112.113V118.127ZM120.863 122.248C120.863 121.193 120.473 120.477 119.691 120.1C119.262 119.898 118.673 119.797 117.924 119.797H114.057V124.768H117.924C118.796 124.768 119.503 124.582 120.043 124.211C120.59 123.84 120.863 123.186 120.863 122.248ZM125.082 122.014H126.752V123.82C126.889 123.469 127.224 123.042 127.758 122.541C128.292 122.033 128.907 121.779 129.604 121.779C129.636 121.779 129.691 121.783 129.77 121.789C129.848 121.796 129.981 121.809 130.17 121.828V123.684C130.066 123.664 129.968 123.651 129.877 123.645C129.792 123.638 129.698 123.635 129.594 123.635C128.708 123.635 128.028 123.921 127.553 124.494C127.077 125.061 126.84 125.715 126.84 126.457V132.473H125.082V122.014ZM131.693 122.062H133.48V132.473H131.693V122.062ZM131.693 118.127H133.48V120.119H131.693V118.127ZM136.146 122.014H137.885V123.498C138.301 122.984 138.679 122.609 139.018 122.375C139.597 121.978 140.255 121.779 140.99 121.779C141.824 121.779 142.494 121.984 143.002 122.395C143.288 122.629 143.549 122.974 143.783 123.43C144.174 122.87 144.633 122.456 145.16 122.189C145.688 121.916 146.28 121.779 146.938 121.779C148.344 121.779 149.301 122.287 149.809 123.303C150.082 123.85 150.219 124.585 150.219 125.51V132.473H148.393V125.207C148.393 124.51 148.217 124.032 147.865 123.771C147.52 123.511 147.097 123.381 146.596 123.381C145.906 123.381 145.31 123.612 144.809 124.074C144.314 124.536 144.066 125.308 144.066 126.389V132.473H142.279V125.646C142.279 124.937 142.195 124.419 142.025 124.094C141.758 123.605 141.26 123.361 140.531 123.361C139.867 123.361 139.262 123.618 138.715 124.133C138.174 124.647 137.904 125.578 137.904 126.926V132.473H136.146V122.014ZM154.154 129.689C154.154 130.197 154.34 130.598 154.711 130.891C155.082 131.184 155.521 131.33 156.029 131.33C156.648 131.33 157.247 131.187 157.826 130.9C158.803 130.425 159.291 129.647 159.291 128.566V127.15C159.076 127.287 158.799 127.401 158.461 127.492C158.122 127.583 157.79 127.648 157.465 127.688L156.4 127.824C155.762 127.909 155.284 128.042 154.965 128.225C154.424 128.531 154.154 129.019 154.154 129.689ZM158.412 126.135C158.816 126.083 159.086 125.913 159.223 125.627C159.301 125.471 159.34 125.246 159.34 124.953C159.34 124.354 159.125 123.921 158.695 123.654C158.272 123.381 157.663 123.244 156.869 123.244C155.951 123.244 155.3 123.492 154.916 123.986C154.701 124.26 154.561 124.667 154.496 125.207H152.855C152.888 123.918 153.305 123.023 154.105 122.521C154.913 122.014 155.847 121.76 156.908 121.76C158.139 121.76 159.138 121.994 159.906 122.463C160.668 122.932 161.049 123.661 161.049 124.65V130.676C161.049 130.858 161.085 131.005 161.156 131.115C161.234 131.226 161.394 131.281 161.635 131.281C161.713 131.281 161.801 131.278 161.898 131.271C161.996 131.258 162.1 131.242 162.211 131.223V132.521C161.938 132.6 161.729 132.648 161.586 132.668C161.443 132.688 161.247 132.697 161 132.697C160.395 132.697 159.955 132.482 159.682 132.053C159.538 131.825 159.438 131.503 159.379 131.086C159.021 131.555 158.507 131.962 157.836 132.307C157.165 132.652 156.426 132.824 155.619 132.824C154.649 132.824 153.855 132.531 153.236 131.945C152.624 131.353 152.318 130.614 152.318 129.729C152.318 128.758 152.621 128.007 153.227 127.473C153.832 126.939 154.626 126.61 155.609 126.486L158.412 126.135ZM163.988 122.014H165.658V123.82C165.795 123.469 166.13 123.042 166.664 122.541C167.198 122.033 167.813 121.779 168.51 121.779C168.542 121.779 168.598 121.783 168.676 121.789C168.754 121.796 168.887 121.809 169.076 121.828V123.684C168.972 123.664 168.874 123.651 168.783 123.645C168.699 123.638 168.604 123.635 168.5 123.635C167.615 123.635 166.934 123.921 166.459 124.494C165.984 125.061 165.746 125.715 165.746 126.457V132.473H163.988V122.014ZM177.133 122.014H179.076C178.829 122.684 178.279 124.214 177.426 126.604C176.788 128.4 176.254 129.865 175.824 130.998C174.809 133.667 174.092 135.295 173.676 135.881C173.259 136.467 172.543 136.76 171.527 136.76C171.28 136.76 171.088 136.75 170.951 136.73C170.821 136.711 170.658 136.675 170.463 136.623V135.021C170.769 135.106 170.99 135.158 171.127 135.178C171.264 135.197 171.384 135.207 171.488 135.207C171.814 135.207 172.051 135.152 172.201 135.041C172.357 134.937 172.488 134.807 172.592 134.65C172.624 134.598 172.742 134.331 172.943 133.85C173.145 133.368 173.292 133.01 173.383 132.775L169.516 122.014H171.508L174.311 130.529L177.133 122.014ZM187.514 129.689C187.514 130.197 187.699 130.598 188.07 130.891C188.441 131.184 188.881 131.33 189.389 131.33C190.007 131.33 190.606 131.187 191.186 130.9C192.162 130.425 192.65 129.647 192.65 128.566V127.15C192.436 127.287 192.159 127.401 191.82 127.492C191.482 127.583 191.15 127.648 190.824 127.688L189.76 127.824C189.122 127.909 188.643 128.042 188.324 128.225C187.784 128.531 187.514 129.019 187.514 129.689ZM191.771 126.135C192.175 126.083 192.445 125.913 192.582 125.627C192.66 125.471 192.699 125.246 192.699 124.953C192.699 124.354 192.484 123.921 192.055 123.654C191.632 123.381 191.023 123.244 190.229 123.244C189.311 123.244 188.66 123.492 188.275 123.986C188.061 124.26 187.921 124.667 187.855 125.207H186.215C186.247 123.918 186.664 123.023 187.465 122.521C188.272 122.014 189.206 121.76 190.268 121.76C191.498 121.76 192.497 121.994 193.266 122.463C194.027 122.932 194.408 123.661 194.408 124.65V130.676C194.408 130.858 194.444 131.005 194.516 131.115C194.594 131.226 194.753 131.281 194.994 131.281C195.072 131.281 195.16 131.278 195.258 131.271C195.355 131.258 195.46 131.242 195.57 131.223V132.521C195.297 132.6 195.089 132.648 194.945 132.668C194.802 132.688 194.607 132.697 194.359 132.697C193.754 132.697 193.314 132.482 193.041 132.053C192.898 131.825 192.797 131.503 192.738 131.086C192.38 131.555 191.866 131.962 191.195 132.307C190.525 132.652 189.786 132.824 188.979 132.824C188.008 132.824 187.214 132.531 186.596 131.945C185.984 131.353 185.678 130.614 185.678 129.729C185.678 128.758 185.98 128.007 186.586 127.473C187.191 126.939 187.986 126.61 188.969 126.486L191.771 126.135ZM197.65 119.094H199.428V122.014H201.098V123.449H199.428V130.275C199.428 130.64 199.551 130.884 199.799 131.008C199.936 131.079 200.163 131.115 200.482 131.115C200.567 131.115 200.658 131.115 200.756 131.115C200.854 131.109 200.967 131.099 201.098 131.086V132.473C200.896 132.531 200.684 132.574 200.463 132.6C200.248 132.626 200.014 132.639 199.76 132.639C198.939 132.639 198.383 132.43 198.09 132.014C197.797 131.59 197.65 131.044 197.65 130.373V123.449H196.234V122.014H197.65V119.094ZM217.602 118.723V120.256C217.152 120.692 216.553 121.451 215.805 122.531C215.062 123.612 214.405 124.777 213.832 126.027C213.266 127.245 212.836 128.355 212.543 129.357C212.354 130.002 212.11 131.04 211.811 132.473H209.867C210.31 129.803 211.286 127.147 212.797 124.504C213.689 122.954 214.626 121.617 215.609 120.49H207.875V118.723H217.602ZM223.686 118.488C225.495 118.488 226.804 119.234 227.611 120.725C228.236 121.877 228.549 123.456 228.549 125.461C228.549 127.362 228.266 128.934 227.699 130.178C226.879 131.962 225.538 132.854 223.676 132.854C221.996 132.854 220.746 132.124 219.926 130.666C219.242 129.449 218.9 127.814 218.9 125.764C218.9 124.175 219.105 122.811 219.516 121.672C220.284 119.549 221.674 118.488 223.686 118.488ZM223.666 131.252C224.577 131.252 225.303 130.848 225.844 130.041C226.384 129.234 226.654 127.73 226.654 125.529C226.654 123.941 226.459 122.635 226.068 121.613C225.678 120.585 224.919 120.07 223.793 120.07C222.758 120.07 221.999 120.559 221.518 121.535C221.042 122.505 220.805 123.938 220.805 125.832C220.805 127.258 220.958 128.404 221.264 129.27C221.732 130.591 222.533 131.252 223.666 131.252ZM243.041 125.676C243.979 125.676 244.779 126.008 245.443 126.672C246.107 127.336 246.439 128.137 246.439 129.074C246.439 130.012 246.107 130.812 245.443 131.477C244.779 132.141 243.979 132.473 243.041 132.473C242.097 132.473 241.293 132.141 240.629 131.477C239.965 130.812 239.633 130.012 239.633 129.074C239.633 128.137 239.965 127.336 240.629 126.672C241.293 126.008 242.097 125.676 243.041 125.676ZM241.625 118.547H242.709L234.887 132.844H233.803L241.625 118.547ZM233.451 124.328C234.011 124.328 234.486 124.133 234.877 123.742C235.274 123.345 235.473 122.87 235.473 122.316C235.473 121.763 235.274 121.291 234.877 120.9C234.486 120.503 234.011 120.305 233.451 120.305C232.898 120.305 232.423 120.5 232.025 120.891C231.635 121.281 231.439 121.757 231.439 122.316C231.439 122.87 231.635 123.345 232.025 123.742C232.423 124.133 232.898 124.328 233.451 124.328ZM233.451 118.908C234.395 118.908 235.199 119.243 235.863 119.914C236.527 120.578 236.859 121.379 236.859 122.316C236.859 123.254 236.527 124.055 235.863 124.719C235.199 125.383 234.395 125.715 233.451 125.715C232.514 125.715 231.713 125.383 231.049 124.719C230.385 124.055 230.053 123.254 230.053 122.316C230.053 121.379 230.385 120.578 231.049 119.914C231.713 119.243 232.514 118.908 233.451 118.908ZM243.041 131.086C243.594 131.086 244.066 130.891 244.457 130.5C244.854 130.103 245.053 129.628 245.053 129.074C245.053 128.521 244.854 128.049 244.457 127.658C244.066 127.261 243.594 127.062 243.041 127.062C242.481 127.062 242.003 127.261 241.605 127.658C241.215 128.049 241.02 128.521 241.02 129.074C241.02 129.628 241.215 130.103 241.605 130.5C242.003 130.891 242.481 131.086 243.041 131.086Z" fill="black"/>
</svg>
