<svg width="380" height="101" viewBox="0 0 380 101" fill="none" xmlns="http://www.w3.org/2000/svg">
<path d="M0 0.75H380V100.75H0V0.75Z" fill="white"/>
<g filter="url(#filter0_d)">
<path d="M16.2214 36.4929C15.4934 36.4929 14.8307 36.3529 14.2334 36.0729C13.6454 35.7835 13.1367 35.4055 12.7074 34.9389C12.2874 34.4629 11.9607 33.9215 11.7274 33.3149C11.494 32.7082 11.3774 32.0875 11.3774 31.4529C11.3774 30.7902 11.4987 30.1555 11.7414 29.5489C11.9934 28.9422 12.334 28.4055 12.7634 27.9389C13.202 27.4722 13.72 27.1035 14.3174 26.8329C14.9147 26.5529 15.5634 26.4129 16.2634 26.4129C16.982 26.4129 17.6354 26.5622 18.2234 26.8609C18.8207 27.1502 19.3294 27.5329 19.7494 28.0089C20.1694 28.4849 20.496 29.0262 20.7294 29.6329C20.9627 30.2395 21.0794 30.8555 21.0794 31.4809C21.0794 32.1435 20.958 32.7782 20.7154 33.3849C20.4727 33.9822 20.1367 34.5142 19.7074 34.9809C19.278 35.4382 18.7647 35.8069 18.1674 36.0869C17.57 36.3575 16.9214 36.4929 16.2214 36.4929ZM13.3374 31.4529C13.3374 31.8822 13.4027 32.2975 13.5334 32.6989C13.664 33.1002 13.8507 33.4549 14.0934 33.7629C14.3454 34.0709 14.6487 34.3182 15.0034 34.5049C15.3674 34.6915 15.778 34.7849 16.2354 34.7849C16.702 34.7849 17.1127 34.6915 17.4674 34.5049C17.8314 34.3089 18.1347 34.0522 18.3774 33.7349C18.6294 33.4175 18.816 33.0629 18.9374 32.6709C19.068 32.2695 19.1334 31.8635 19.1334 31.4529C19.1334 31.0235 19.0634 30.6082 18.9234 30.2069C18.7927 29.8055 18.6014 29.4509 18.3494 29.1429C18.1067 28.8349 17.8034 28.5922 17.4394 28.4149C17.0847 28.2282 16.6834 28.1349 16.2354 28.1349C15.7687 28.1349 15.3534 28.2329 14.9894 28.4289C14.6254 28.6155 14.322 28.8675 14.0794 29.1849C13.8367 29.4929 13.65 29.8475 13.5194 30.2489C13.398 30.6409 13.3374 31.0422 13.3374 31.4529ZM24.6194 36.5629C23.8634 36.5629 23.2894 36.3202 22.8974 35.8349C22.5054 35.3495 22.3094 34.6309 22.3094 33.6789V29.0869H24.1854V33.2729C24.1854 34.4022 24.5914 34.9669 25.4034 34.9669C25.7674 34.9669 26.1174 34.8595 26.4534 34.6449C26.7987 34.4209 27.0787 34.0849 27.2934 33.6369V29.0869H29.1694V34.2669C29.1694 34.4629 29.2021 34.6029 29.2674 34.6869C29.3421 34.7709 29.4587 34.8175 29.6174 34.8269V36.4229C29.4307 36.4602 29.2721 36.4835 29.1414 36.4929C29.0201 36.5022 28.9081 36.5069 28.8054 36.5069C28.4694 36.5069 28.1941 36.4322 27.9794 36.2829C27.7741 36.1242 27.6527 35.9095 27.6154 35.6389L27.5734 35.0509C27.2467 35.5549 26.8267 35.9329 26.3134 36.1849C25.8001 36.4369 25.2354 36.5629 24.6194 36.5629ZM35.4297 36.0449C35.1777 36.1569 34.8697 36.2689 34.5057 36.3809C34.1417 36.4929 33.759 36.5489 33.3577 36.5489C33.0964 36.5489 32.849 36.5162 32.6157 36.4509C32.3917 36.3855 32.191 36.2829 32.0137 36.1429C31.8457 35.9935 31.7104 35.8069 31.6077 35.5829C31.505 35.3495 31.4537 35.0695 31.4537 34.7429V30.5289H30.4877V29.0869H31.4537V26.7069H33.3297V29.0869H34.8697V30.5289H33.3297V34.1129C33.3297 34.3742 33.395 34.5609 33.5257 34.6729C33.6657 34.7755 33.8337 34.8269 34.0297 34.8269C34.2257 34.8269 34.417 34.7942 34.6037 34.7289C34.7904 34.6635 34.9397 34.6075 35.0517 34.5609L35.4297 36.0449ZM43.158 36.5629C42.5607 36.5629 42.024 36.4602 41.548 36.2549C41.072 36.0495 40.666 35.7742 40.33 35.4289C40.0033 35.0742 39.7513 34.6682 39.574 34.2109C39.3967 33.7535 39.308 33.2729 39.308 32.7689C39.308 32.2555 39.3967 31.7702 39.574 31.3129C39.7513 30.8555 40.0033 30.4542 40.33 30.1089C40.666 29.7542 41.072 29.4742 41.548 29.2689C42.024 29.0635 42.5607 28.9609 43.158 28.9609C43.7553 28.9609 44.2873 29.0635 44.754 29.2689C45.23 29.4742 45.6313 29.7542 45.958 30.1089C46.294 30.4542 46.5507 30.8555 46.728 31.3129C46.9053 31.7702 46.994 32.2555 46.994 32.7689C46.994 33.2729 46.9053 33.7535 46.728 34.2109C46.5507 34.6682 46.2987 35.0742 45.972 35.4289C45.6453 35.7742 45.244 36.0495 44.768 36.2549C44.292 36.4602 43.7553 36.5629 43.158 36.5629ZM41.24 32.7689C41.24 33.0955 41.2867 33.3942 41.38 33.6649C41.4827 33.9262 41.618 34.1549 41.786 34.3509C41.9633 34.5469 42.1687 34.7009 42.402 34.8129C42.6353 34.9155 42.8873 34.9669 43.158 34.9669C43.4287 34.9669 43.6807 34.9155 43.914 34.8129C44.1473 34.7009 44.348 34.5469 44.516 34.3509C44.6933 34.1549 44.8287 33.9215 44.922 33.6509C45.0247 33.3802 45.076 33.0815 45.076 32.7549C45.076 32.4375 45.0247 32.1435 44.922 31.8729C44.8287 31.6022 44.6933 31.3689 44.516 31.1729C44.348 30.9769 44.1473 30.8275 43.914 30.7249C43.6807 30.6129 43.4287 30.5569 43.158 30.5569C42.8873 30.5569 42.6353 30.6129 42.402 30.7249C42.1687 30.8369 41.9633 30.9909 41.786 31.1869C41.618 31.3829 41.4827 31.6162 41.38 31.8869C41.2867 32.1575 41.24 32.4515 41.24 32.7689ZM48.5989 36.4229V30.9069H47.6329V29.4789H48.5989V29.0309C48.5989 28.1162 48.8182 27.3929 49.2569 26.8609C49.6955 26.3289 50.2929 26.0629 51.0489 26.0629C51.6462 26.0629 52.2482 26.2075 52.8549 26.4969L52.4769 27.9109C52.3369 27.8362 52.1689 27.7755 51.9729 27.7289C51.7862 27.6729 51.6135 27.6449 51.4549 27.6449C50.8015 27.6449 50.4749 28.0835 50.4749 28.9609V29.4789H52.2669V30.9069H50.4749V36.4229H48.5989ZM60.791 36.0449C60.539 36.1569 60.231 36.2689 59.867 36.3809C59.503 36.4929 59.1203 36.5489 58.719 36.5489C58.4577 36.5489 58.2103 36.5162 57.977 36.4509C57.753 36.3855 57.5523 36.2829 57.375 36.1429C57.207 35.9935 57.0717 35.8069 56.969 35.5829C56.8663 35.3495 56.815 35.0695 56.815 34.7429V30.5289H55.849V29.0869H56.815V26.7069H58.691V29.0869H60.231V30.5289H58.691V34.1129C58.691 34.3742 58.7563 34.5609 58.887 34.6729C59.027 34.7755 59.195 34.8269 59.391 34.8269C59.587 34.8269 59.7783 34.7942 59.965 34.7289C60.1517 34.6635 60.301 34.6075 60.413 34.5609L60.791 36.0449ZM68.5861 36.4229H66.7101V32.3069C66.7101 31.7282 66.6027 31.3035 66.3881 31.0329C66.1734 30.7529 65.8701 30.6129 65.4781 30.6129C65.3101 30.6129 65.1327 30.6502 64.9461 30.7249C64.7594 30.7995 64.5821 30.9069 64.4141 31.0469C64.2461 31.1775 64.0921 31.3362 63.9521 31.5229C63.8121 31.7095 63.7094 31.9149 63.6441 32.1389V36.4229H61.7681V26.2029H63.6441V30.4449C63.9147 29.9689 64.2787 29.6049 64.7361 29.3529C65.2027 29.0915 65.7161 28.9609 66.2761 28.9609C66.7521 28.9609 67.1394 29.0449 67.4381 29.2129C67.7367 29.3715 67.9701 29.5862 68.1381 29.8569C68.3061 30.1275 68.4227 30.4355 68.4881 30.7809C68.5534 31.1262 68.5861 31.4809 68.5861 31.8449V36.4229ZM73.6193 36.5629C73.0313 36.5629 72.4993 36.4649 72.0233 36.2689C71.5473 36.0635 71.1413 35.7882 70.8053 35.4429C70.4693 35.0975 70.2079 34.6962 70.0213 34.2389C69.8439 33.7815 69.7553 33.3009 69.7553 32.7969C69.7553 32.2742 69.8439 31.7842 70.0213 31.3269C70.1986 30.8602 70.4553 30.4542 70.7913 30.1089C71.1273 29.7542 71.5333 29.4742 72.0093 29.2689C72.4946 29.0635 73.0359 28.9609 73.6333 28.9609C74.2306 28.9609 74.7626 29.0635 75.2293 29.2689C75.7053 29.4742 76.1066 29.7495 76.4333 30.0949C76.7693 30.4402 77.0213 30.8415 77.1893 31.2989C77.3666 31.7562 77.4553 32.2322 77.4553 32.7269C77.4553 32.8482 77.4506 32.9649 77.4413 33.0769C77.4413 33.1889 77.4319 33.2822 77.4133 33.3569H71.7433C71.7713 33.6462 71.8413 33.9029 71.9533 34.1269C72.0653 34.3509 72.2099 34.5422 72.3873 34.7009C72.5646 34.8595 72.7653 34.9809 72.9893 35.0649C73.2133 35.1489 73.4466 35.1909 73.6893 35.1909C74.0626 35.1909 74.4126 35.1022 74.7393 34.9249C75.0753 34.7382 75.3039 34.4955 75.4253 34.1969L77.0353 34.6449C76.7646 35.2049 76.3306 35.6669 75.7333 36.0309C75.1453 36.3855 74.4406 36.5629 73.6193 36.5629ZM75.5233 32.1389C75.4766 31.5882 75.2713 31.1495 74.9073 30.8229C74.5526 30.4869 74.1186 30.3189 73.6053 30.3189C73.3533 30.3189 73.1153 30.3655 72.8913 30.4589C72.6766 30.5429 72.4853 30.6642 72.3173 30.8229C72.1493 30.9815 72.0093 31.1729 71.8973 31.3969C71.7946 31.6209 71.7339 31.8682 71.7153 32.1389H75.5233ZM81.5414 31.3829C81.5414 30.7762 81.6488 30.1789 81.8634 29.5909C82.0874 28.9935 82.4094 28.4615 82.8294 27.9949C83.2494 27.5282 83.7628 27.1502 84.3694 26.8609C84.9761 26.5715 85.6668 26.4269 86.4414 26.4269C87.3561 26.4269 88.1448 26.6275 88.8074 27.0289C89.4794 27.4302 89.9788 27.9529 90.3054 28.5969L88.8214 29.6189C88.6908 29.3389 88.5321 29.1055 88.3454 28.9189C88.1588 28.7229 87.9581 28.5689 87.7434 28.4569C87.5288 28.3449 87.3048 28.2655 87.0714 28.2189C86.8381 28.1629 86.6094 28.1349 86.3854 28.1349C85.9001 28.1349 85.4754 28.2329 85.1114 28.4289C84.7568 28.6249 84.4581 28.8815 84.2154 29.1989C83.9821 29.5069 83.8048 29.8615 83.6834 30.2629C83.5621 30.6549 83.5014 31.0469 83.5014 31.4389C83.5014 31.8775 83.5714 32.3022 83.7114 32.7129C83.8514 33.1142 84.0474 33.4689 84.2994 33.7769C84.5608 34.0849 84.8688 34.3322 85.2234 34.5189C85.5874 34.7055 85.9841 34.7989 86.4134 34.7989C86.6374 34.7989 86.8708 34.7709 87.1134 34.7149C87.3561 34.6589 87.5848 34.5702 87.7994 34.4489C88.0234 34.3275 88.2288 34.1735 88.4154 33.9869C88.6021 33.7909 88.7514 33.5575 88.8634 33.2869L90.4454 34.1969C90.2868 34.5702 90.0581 34.9015 89.7594 35.1909C89.4701 35.4709 89.1388 35.7089 88.7654 35.9049C88.4014 36.1009 88.0094 36.2502 87.5894 36.3529C87.1694 36.4555 86.7588 36.5069 86.3574 36.5069C85.6481 36.5069 84.9994 36.3575 84.4114 36.0589C83.8234 35.7602 83.3148 35.3729 82.8854 34.8969C82.4654 34.4115 82.1341 33.8655 81.8914 33.2589C81.6581 32.6429 81.5414 32.0175 81.5414 31.3829ZM91.5451 26.2029H93.4211V34.0709C93.4211 34.3415 93.4864 34.5515 93.6171 34.7009C93.7477 34.8502 93.9344 34.9249 94.1771 34.9249C94.2891 34.9249 94.4104 34.9062 94.5411 34.8689C94.6811 34.8315 94.8117 34.7849 94.9331 34.7289L95.1851 36.1569C94.9331 36.2782 94.6391 36.3715 94.3031 36.4369C93.9671 36.5022 93.6637 36.5349 93.3931 36.5349C92.8051 36.5349 92.3477 36.3809 92.0211 36.0729C91.7037 35.7555 91.5451 35.3075 91.5451 34.7289V26.2029ZM99.3904 36.5629C98.7931 36.5629 98.2564 36.4602 97.7804 36.2549C97.3044 36.0495 96.8984 35.7742 96.5624 35.4289C96.2358 35.0742 95.9838 34.6682 95.8064 34.2109C95.6291 33.7535 95.5404 33.2729 95.5404 32.7689C95.5404 32.2555 95.6291 31.7702 95.8064 31.3129C95.9838 30.8555 96.2358 30.4542 96.5624 30.1089C96.8984 29.7542 97.3044 29.4742 97.7804 29.2689C98.2564 29.0635 98.7931 28.9609 99.3904 28.9609C99.9878 28.9609 100.52 29.0635 100.986 29.2689C101.462 29.4742 101.864 29.7542 102.19 30.1089C102.526 30.4542 102.783 30.8555 102.96 31.3129C103.138 31.7702 103.226 32.2555 103.226 32.7689C103.226 33.2729 103.138 33.7535 102.96 34.2109C102.783 34.6682 102.531 35.0742 102.204 35.4289C101.878 35.7742 101.476 36.0495 101 36.2549C100.524 36.4602 99.9878 36.5629 99.3904 36.5629ZM97.4724 32.7689C97.4724 33.0955 97.5191 33.3942 97.6124 33.6649C97.7151 33.9262 97.8504 34.1549 98.0184 34.3509C98.1958 34.5469 98.4011 34.7009 98.6344 34.8129C98.8678 34.9155 99.1198 34.9669 99.3904 34.9669C99.6611 34.9669 99.9131 34.9155 100.146 34.8129C100.38 34.7009 100.58 34.5469 100.748 34.3509C100.926 34.1549 101.061 33.9215 101.154 33.6509C101.257 33.3802 101.308 33.0815 101.308 32.7549C101.308 32.4375 101.257 32.1435 101.154 31.8729C101.061 31.6022 100.926 31.3689 100.748 31.1729C100.58 30.9769 100.38 30.8275 100.146 30.7249C99.9131 30.6129 99.6611 30.5569 99.3904 30.5569C99.1198 30.5569 98.8678 30.6129 98.6344 30.7249C98.4011 30.8369 98.1958 30.9909 98.0184 31.1869C97.8504 31.3829 97.7151 31.6162 97.6124 31.8869C97.5191 32.1575 97.4724 32.4515 97.4724 32.7689ZM107.265 36.5629C106.649 36.5629 106.047 36.4649 105.459 36.2689C104.871 36.0729 104.367 35.7929 103.947 35.4289L104.647 34.2529C105.095 34.5702 105.529 34.8129 105.949 34.9809C106.378 35.1395 106.803 35.2189 107.223 35.2189C107.596 35.2189 107.89 35.1489 108.105 35.0089C108.319 34.8689 108.427 34.6682 108.427 34.4069C108.427 34.1455 108.301 33.9542 108.049 33.8329C107.797 33.7115 107.386 33.5715 106.817 33.4129C106.341 33.2822 105.935 33.1562 105.599 33.0349C105.263 32.9135 104.992 32.7782 104.787 32.6289C104.581 32.4702 104.432 32.2929 104.339 32.0969C104.245 31.8915 104.199 31.6489 104.199 31.3689C104.199 30.9955 104.269 30.6595 104.409 30.3609C104.558 30.0622 104.763 29.8102 105.025 29.6049C105.286 29.3902 105.589 29.2269 105.935 29.1149C106.289 29.0029 106.672 28.9469 107.083 28.9469C107.633 28.9469 108.147 29.0262 108.623 29.1849C109.108 29.3435 109.551 29.6002 109.953 29.9549L109.197 31.0889C108.823 30.8089 108.459 30.6035 108.105 30.4729C107.759 30.3422 107.414 30.2769 107.069 30.2769C106.751 30.2769 106.485 30.3422 106.271 30.4729C106.056 30.6035 105.949 30.8135 105.949 31.1029C105.949 31.2335 105.972 31.3409 106.019 31.4249C106.075 31.5089 106.159 31.5835 106.271 31.6489C106.383 31.7142 106.527 31.7795 106.705 31.8449C106.891 31.9009 107.12 31.9615 107.391 32.0269C107.895 32.1575 108.324 32.2882 108.679 32.4189C109.043 32.5495 109.337 32.6989 109.561 32.8669C109.794 33.0349 109.962 33.2309 110.065 33.4549C110.177 33.6695 110.233 33.9309 110.233 34.2389C110.233 34.9575 109.967 35.5269 109.435 35.9469C108.903 36.3575 108.179 36.5629 107.265 36.5629ZM114.854 36.5629C114.266 36.5629 113.734 36.4649 113.258 36.2689C112.782 36.0635 112.376 35.7882 112.04 35.4429C111.704 35.0975 111.442 34.6962 111.256 34.2389C111.078 33.7815 110.99 33.3009 110.99 32.7969C110.99 32.2742 111.078 31.7842 111.256 31.3269C111.433 30.8602 111.69 30.4542 112.026 30.1089C112.362 29.7542 112.768 29.4742 113.244 29.2689C113.729 29.0635 114.27 28.9609 114.868 28.9609C115.465 28.9609 115.997 29.0635 116.464 29.2689C116.94 29.4742 117.341 29.7495 117.668 30.0949C118.004 30.4402 118.256 30.8415 118.424 31.2989C118.601 31.7562 118.69 32.2322 118.69 32.7269C118.69 32.8482 118.685 32.9649 118.676 33.0769C118.676 33.1889 118.666 33.2822 118.648 33.3569H112.978C113.006 33.6462 113.076 33.9029 113.188 34.1269C113.3 34.3509 113.444 34.5422 113.622 34.7009C113.799 34.8595 114 34.9809 114.224 35.0649C114.448 35.1489 114.681 35.1909 114.924 35.1909C115.297 35.1909 115.647 35.1022 115.974 34.9249C116.31 34.7382 116.538 34.4955 116.66 34.1969L118.27 34.6449C117.999 35.2049 117.565 35.6669 116.968 36.0309C116.38 36.3855 115.675 36.5629 114.854 36.5629ZM116.758 32.1389C116.711 31.5882 116.506 31.1495 116.142 30.8229C115.787 30.4869 115.353 30.3189 114.84 30.3189C114.588 30.3189 114.35 30.3655 114.126 30.4589C113.911 30.5429 113.72 30.6642 113.552 30.8229C113.384 30.9815 113.244 31.1729 113.132 31.3969C113.029 31.6209 112.968 31.8682 112.95 32.1389H116.758ZM124.174 36.0449C123.922 36.1569 123.614 36.2689 123.25 36.3809C122.886 36.4929 122.503 36.5489 122.102 36.5489C121.84 36.5489 121.593 36.5162 121.36 36.4509C121.136 36.3855 120.935 36.2829 120.758 36.1429C120.59 35.9935 120.454 35.8069 120.352 35.5829C120.249 35.3495 120.198 35.0695 120.198 34.7429V30.5289H119.232V29.0869H120.198V26.7069H122.074V29.0869H123.614V30.5289H122.074V34.1129C122.074 34.3742 122.139 34.5609 122.27 34.6729C122.41 34.7755 122.578 34.8269 122.774 34.8269C122.97 34.8269 123.161 34.7942 123.348 34.7289C123.534 34.6635 123.684 34.6075 123.796 34.5609L124.174 36.0449Z" fill="#5C5C5C"/>
</g>
<g filter="url(#filter1_d)">
<path d="M240 51.75C240 47.3317 243.582 43.75 248 43.75H362C366.418 43.75 370 47.3317 370 51.75V57.75C370 62.1683 366.418 65.75 362 65.75H248C243.582 65.75 240 62.1683 240 57.75V51.75Z" fill="#246B6D"/>
<path d="M350.713 47.75L349 49.395L354.563 54.75L349 60.105L350.713 61.75L358 54.75L350.713 47.75Z" fill="white"/>
<path d="M270.293 51.6465V57.2832H271.957C272.808 57.2832 273.402 56.8633 273.738 56.0234C273.921 55.5625 274.013 55.0137 274.013 54.377C274.013 53.498 273.875 52.8242 273.597 52.3555C273.324 51.8828 272.777 51.6465 271.957 51.6465H270.293ZM272.261 50.1465C272.796 50.1543 273.242 50.2168 273.597 50.334C274.203 50.5332 274.693 50.8984 275.068 51.4297C275.369 51.8594 275.574 52.3242 275.683 52.8242C275.793 53.3242 275.847 53.8008 275.847 54.2539C275.847 55.4023 275.617 56.375 275.156 57.1719C274.531 58.2461 273.566 58.7832 272.261 58.7832H268.541V50.1465H272.261ZM278.794 51.6348H277.101V50.0938H278.794V51.6348ZM277.101 52.3965H278.794V58.7832H277.101V52.3965ZM283.886 52.2441C283.918 52.2441 283.943 52.2461 283.962 52.25C283.986 52.25 284.035 52.252 284.109 52.2559V53.9668C284.003 53.9551 283.91 53.9473 283.828 53.9434C283.746 53.9395 283.679 53.9375 283.628 53.9375C282.957 53.9375 282.505 54.1562 282.275 54.5938C282.146 54.8398 282.082 55.2188 282.082 55.7305V58.7832H280.4V52.3965H281.994V53.5098C282.252 53.084 282.476 52.793 282.668 52.6367C282.98 52.375 283.386 52.2441 283.886 52.2441ZM287.613 53.6035C287.226 53.6035 286.925 53.7246 286.711 53.9668C286.5 54.209 286.367 54.5371 286.312 54.9512H288.908C288.88 54.5098 288.746 54.1758 288.503 53.9492C288.265 53.7188 287.968 53.6035 287.613 53.6035ZM287.613 52.2266C288.144 52.2266 288.623 52.3262 289.048 52.5254C289.474 52.7246 289.826 53.0391 290.103 53.4688C290.353 53.8477 290.515 54.2871 290.589 54.7871C290.632 55.0801 290.65 55.502 290.642 56.0527H286.271C286.294 56.6934 286.496 57.1426 286.875 57.4004C287.105 57.5605 287.382 57.6406 287.707 57.6406C288.05 57.6406 288.33 57.543 288.544 57.3477C288.662 57.2422 288.765 57.0957 288.855 56.9082H290.56C290.517 57.2871 290.32 57.6719 289.968 58.0625C289.421 58.6836 288.656 58.9941 287.671 58.9941C286.859 58.9941 286.142 58.7324 285.521 58.209C284.9 57.6855 284.589 56.834 284.589 55.6543C284.589 54.5488 284.869 53.7012 285.427 53.1113C285.99 52.5215 286.718 52.2266 287.613 52.2266ZM295.587 54.6875C295.556 54.4492 295.476 54.2344 295.347 54.043C295.16 53.7852 294.869 53.6562 294.474 53.6562C293.912 53.6562 293.527 53.9355 293.32 54.4941C293.211 54.791 293.156 55.1855 293.156 55.6777C293.156 56.1465 293.211 56.5234 293.32 56.8086C293.519 57.3398 293.894 57.6055 294.445 57.6055C294.836 57.6055 295.113 57.5 295.277 57.2891C295.441 57.0781 295.541 56.8047 295.576 56.4688H297.281C297.242 56.9766 297.058 57.457 296.73 57.9102C296.207 58.6406 295.431 59.0059 294.404 59.0059C293.377 59.0059 292.621 58.7012 292.136 58.0918C291.652 57.4824 291.41 56.6914 291.41 55.7188C291.41 54.6211 291.677 53.7676 292.212 53.1582C292.748 52.5488 293.486 52.2441 294.427 52.2441C295.228 52.2441 295.882 52.4238 296.39 52.7832C296.902 53.1426 297.205 53.7773 297.298 54.6875H295.587ZM297.796 53.6445V52.4551H298.687V50.6738H300.339V52.4551H301.377V53.6445H300.339V57.0195C300.339 57.2812 300.373 57.4453 300.439 57.5117C300.505 57.5742 300.709 57.6055 301.048 57.6055C301.099 57.6055 301.152 57.6055 301.207 57.6055C301.265 57.6016 301.322 57.5977 301.377 57.5938V58.8418L300.586 58.8711C299.796 58.8984 299.257 58.7617 298.968 58.4609C298.781 58.2695 298.687 57.9746 298.687 57.5762V53.6445H297.796ZM304.166 51.6348H302.472V50.0938H304.166V51.6348ZM302.472 52.3965H304.166V58.7832H302.472V52.3965ZM308.654 57.6055C309.142 57.6055 309.517 57.4316 309.779 57.084C310.041 56.7363 310.171 56.2422 310.171 55.6016C310.171 54.9609 310.041 54.4688 309.779 54.125C309.517 53.7773 309.142 53.6035 308.654 53.6035C308.166 53.6035 307.789 53.7773 307.523 54.125C307.261 54.4688 307.13 54.9609 307.13 55.6016C307.13 56.2422 307.261 56.7363 307.523 57.084C307.789 57.4316 308.166 57.6055 308.654 57.6055ZM311.923 55.6016C311.923 56.5391 311.654 57.3418 311.115 58.0098C310.576 58.6738 309.757 59.0059 308.66 59.0059C307.562 59.0059 306.744 58.6738 306.205 58.0098C305.666 57.3418 305.396 56.5391 305.396 55.6016C305.396 54.6797 305.666 53.8809 306.205 53.2051C306.744 52.5293 307.562 52.1914 308.66 52.1914C309.757 52.1914 310.576 52.5293 311.115 53.2051C311.654 53.8809 311.923 54.6797 311.923 55.6016ZM316.664 52.2441C317.324 52.2441 317.863 52.418 318.281 52.7656C318.703 53.1094 318.914 53.6816 318.914 54.4824V58.7832H317.203V54.8984C317.203 54.5625 317.158 54.3047 317.068 54.125C316.904 53.7969 316.591 53.6328 316.13 53.6328C315.564 53.6328 315.175 53.873 314.964 54.3535C314.855 54.6074 314.8 54.9316 314.8 55.3262V58.7832H313.136V52.4082H314.748V53.3398C314.962 53.0117 315.166 52.7754 315.357 52.6309C315.701 52.373 316.136 52.2441 316.664 52.2441ZM321.761 56.7441C321.796 57.041 321.873 57.252 321.99 57.377C322.197 57.5996 322.58 57.7109 323.138 57.7109C323.466 57.7109 323.726 57.6621 323.918 57.5645C324.113 57.4668 324.211 57.3203 324.211 57.125C324.211 56.9375 324.132 56.7949 323.976 56.6973C323.82 56.5996 323.24 56.4316 322.236 56.1934C321.513 56.0137 321.003 55.7891 320.707 55.5195C320.41 55.2539 320.261 54.8711 320.261 54.3711C320.261 53.7812 320.492 53.2754 320.953 52.8535C321.418 52.4277 322.07 52.2148 322.91 52.2148C323.707 52.2148 324.355 52.375 324.855 52.6953C325.359 53.0117 325.648 53.5605 325.722 54.3418H324.052C324.029 54.127 323.968 53.957 323.871 53.832C323.687 53.6055 323.375 53.4922 322.933 53.4922C322.57 53.4922 322.31 53.5488 322.154 53.6621C322.002 53.7754 321.925 53.9082 321.925 54.0605C321.925 54.252 322.007 54.3906 322.171 54.4766C322.336 54.5664 322.916 54.7207 323.912 54.9395C324.576 55.0957 325.074 55.332 325.406 55.6484C325.734 55.9688 325.898 56.3691 325.898 56.8496C325.898 57.4824 325.662 58 325.189 58.4023C324.72 58.8008 323.994 59 323.009 59C322.005 59 321.263 58.7891 320.783 58.3672C320.306 57.9414 320.068 57.4004 320.068 56.7441H321.761Z" fill="white"/>
</g>
<g filter="url(#filter2_d)">
<path d="M240 80.0771C240 75.6589 243.582 72.0771 248 72.0771H362C366.418 72.0771 370 75.6589 370 80.0771V86.0771C370 90.4954 366.418 94.0771 362 94.0771H248C243.582 94.0771 240 90.4954 240 86.0771V80.0771Z" fill="white"/>
<path d="M286.517 82.8623C286.517 81.3545 286.921 80.1924 287.73 79.376C288.433 78.665 289.328 78.3096 290.414 78.3096C291.867 78.3096 292.929 78.7861 293.601 79.7393C293.972 80.2744 294.171 80.8115 294.199 81.3506H292.394C292.277 80.9365 292.127 80.624 291.943 80.4131C291.615 80.0381 291.128 79.8506 290.484 79.8506C289.828 79.8506 289.31 80.1162 288.931 80.6475C288.552 81.1748 288.363 81.9229 288.363 82.8916C288.363 83.8604 288.562 84.5869 288.961 85.0713C289.363 85.5518 289.873 85.792 290.49 85.792C291.123 85.792 291.605 85.585 291.937 85.1709C292.121 84.9482 292.273 84.6143 292.394 84.1689H294.181C294.025 85.1104 293.625 85.876 292.98 86.4658C292.339 87.0557 291.517 87.3506 290.513 87.3506C289.271 87.3506 288.294 86.9521 287.584 86.1553C286.873 85.3545 286.517 84.2568 286.517 82.8623ZM298.951 84.0049C298.845 84.0713 298.738 84.126 298.628 84.1689C298.523 84.208 298.377 84.2451 298.189 84.2803L297.814 84.3506C297.462 84.4131 297.211 84.4893 297.058 84.5791C296.8 84.7314 296.671 84.9678 296.671 85.2881C296.671 85.5732 296.75 85.7803 296.906 85.9092C297.066 86.0342 297.259 86.0967 297.486 86.0967C297.845 86.0967 298.175 85.9912 298.476 85.7803C298.781 85.5693 298.939 85.1846 298.951 84.626V84.0049ZM297.937 83.2256C298.246 83.1865 298.466 83.1377 298.599 83.0791C298.837 82.9775 298.957 82.8193 298.957 82.6045C298.957 82.3428 298.865 82.1631 298.681 82.0654C298.502 81.9639 298.236 81.9131 297.884 81.9131C297.49 81.9131 297.211 82.0107 297.046 82.2061C296.929 82.3506 296.851 82.5459 296.812 82.792H295.201C295.236 82.2334 295.392 81.7744 295.669 81.415C296.111 80.8525 296.869 80.5713 297.943 80.5713C298.642 80.5713 299.263 80.71 299.806 80.9873C300.349 81.2646 300.621 81.7881 300.621 82.5576V85.4873C300.621 85.6904 300.625 85.9365 300.632 86.2256C300.644 86.4443 300.677 86.5928 300.732 86.6709C300.787 86.749 300.869 86.8135 300.978 86.8643V87.1104H299.162C299.111 86.9814 299.076 86.8604 299.056 86.7471C299.037 86.6338 299.021 86.5049 299.009 86.3604C298.779 86.6104 298.513 86.8232 298.212 86.999C297.853 87.2061 297.447 87.3096 296.994 87.3096C296.416 87.3096 295.937 87.1455 295.558 86.8174C295.183 86.4854 294.996 86.0166 294.996 85.4111C294.996 84.626 295.298 84.0576 295.904 83.7061C296.236 83.5146 296.724 83.3779 297.369 83.2959L297.937 83.2256ZM303.814 87.1104H302.144V78.4736H303.814V87.1104ZM307.154 87.1104H305.484V78.4736H307.154V87.1104Z" fill="#246B6D"/>
<path d="M359.328 78.6313L357.647 76.9526C357.529 76.8336 357.388 76.7391 357.233 76.6747C357.078 76.6103 356.911 76.5771 356.743 76.5771C356.401 76.5771 356.079 76.7113 355.838 76.9526L354.03 78.7606C353.911 78.8792 353.816 79.02 353.752 79.1752C353.687 79.3303 353.654 79.4967 353.654 79.6646C353.654 80.007 353.788 80.3288 354.03 80.5702L355.352 81.8923C355.042 82.5744 354.612 83.195 354.082 83.724C353.553 84.2556 352.932 84.6874 352.25 84.9988L350.928 83.6767C350.81 83.5576 350.669 83.4632 350.514 83.3987C350.359 83.3343 350.192 83.3011 350.024 83.3012C349.682 83.3012 349.36 83.4353 349.119 83.6767L347.309 85.4831C347.19 85.6018 347.095 85.743 347.031 85.8984C346.966 86.0538 346.933 86.2204 346.934 86.3887C346.934 86.731 347.068 87.0529 347.309 87.2943L348.986 88.9713C349.371 89.3579 349.903 89.5771 350.449 89.5771C350.564 89.5771 350.674 89.5677 350.783 89.5488C352.91 89.1985 355.019 88.0673 356.721 86.3666C358.422 84.6674 359.552 82.5597 359.907 80.4267C360.014 79.7751 359.798 79.1046 359.328 78.6313V78.6313Z" fill="#246B6D" fill-opacity="0.5"/>
<path d="M248 73.0771H362V71.0771H248V73.0771ZM369 80.0771V86.0771H371V80.0771H369ZM362 93.0771H248V95.0771H362V93.0771ZM241 86.0771V80.0771H239V86.0771H241ZM248 93.0771C244.134 93.0771 241 89.9431 241 86.0771H239C239 91.0477 243.029 95.0771 248 95.0771V93.0771ZM369 86.0771C369 89.9431 365.866 93.0771 362 93.0771V95.0771C366.971 95.0771 371 91.0477 371 86.0771H369ZM362 73.0771C365.866 73.0771 369 76.2112 369 80.0771H371C371 75.1066 366.971 71.0771 362 71.0771V73.0771ZM248 71.0771C243.029 71.0771 239 75.1066 239 80.0771H241C241 76.2112 244.134 73.0771 248 73.0771V71.0771Z" fill="#246B6D"/>
</g>
<g filter="url(#filter3_d)">
<path d="M20.6018 68.7611H17.8778V75.8291H16.2338V68.7611H13.5098V67.3091H20.6018V68.7611ZM27.3475 75.8291H25.7395V72.3011C25.7395 71.8051 25.6475 71.4411 25.4635 71.2091C25.2795 70.9691 25.0195 70.8491 24.6835 70.8491C24.5395 70.8491 24.3875 70.8811 24.2275 70.9451C24.0675 71.0091 23.9155 71.1011 23.7715 71.2211C23.6275 71.3331 23.4955 71.4691 23.3755 71.6291C23.2555 71.7891 23.1675 71.9651 23.1115 72.1571V75.8291H21.5035V67.0691H23.1115V70.7051C23.3435 70.2971 23.6555 69.9851 24.0475 69.7691C24.4475 69.5451 24.8875 69.4331 25.3675 69.4331C25.7755 69.4331 26.1075 69.5051 26.3635 69.6491C26.6195 69.7851 26.8195 69.9691 26.9635 70.2011C27.1075 70.4331 27.2075 70.6971 27.2635 70.9931C27.3195 71.2891 27.3475 71.5931 27.3475 71.9051V75.8291ZM31.6617 75.9491C31.1577 75.9491 30.7017 75.8651 30.2937 75.6971C29.8857 75.5211 29.5377 75.2851 29.2497 74.9891C28.9617 74.6931 28.7377 74.3491 28.5777 73.9571C28.4257 73.5651 28.3497 73.1531 28.3497 72.7211C28.3497 72.2731 28.4257 71.8531 28.5777 71.4611C28.7297 71.0611 28.9497 70.7131 29.2377 70.4171C29.5257 70.1131 29.8737 69.8731 30.2817 69.6971C30.6977 69.5211 31.1617 69.4331 31.6737 69.4331C32.1857 69.4331 32.6417 69.5211 33.0417 69.6971C33.4497 69.8731 33.7937 70.1091 34.0737 70.4051C34.3617 70.7011 34.5777 71.0451 34.7217 71.4371C34.8737 71.8291 34.9497 72.2371 34.9497 72.6611C34.9497 72.7651 34.9457 72.8651 34.9377 72.9611C34.9377 73.0571 34.9297 73.1371 34.9137 73.2011H30.0537C30.0777 73.4491 30.1377 73.6691 30.2337 73.8611C30.3297 74.0531 30.4537 74.2171 30.6057 74.3531C30.7577 74.4891 30.9297 74.5931 31.1217 74.6651C31.3137 74.7371 31.5137 74.7731 31.7217 74.7731C32.0417 74.7731 32.3417 74.6971 32.6217 74.5451C32.9097 74.3851 33.1057 74.1771 33.2097 73.9211L34.5897 74.3051C34.3577 74.7851 33.9857 75.1811 33.4737 75.4931C32.9697 75.7971 32.3657 75.9491 31.6617 75.9491ZM33.2937 72.1571C33.2537 71.6851 33.0777 71.3091 32.7657 71.0291C32.4617 70.7411 32.0897 70.5971 31.6497 70.5971C31.4337 70.5971 31.2297 70.6371 31.0377 70.7171C30.8537 70.7891 30.6897 70.8931 30.5457 71.0291C30.4017 71.1651 30.2817 71.3291 30.1857 71.5211C30.0977 71.7131 30.0457 71.9251 30.0297 72.1571H33.2937ZM35.8972 77.0531C36.0332 77.0931 36.1652 77.1211 36.2932 77.1371C36.4212 77.1611 36.5292 77.1731 36.6172 77.1731C36.7212 77.1731 36.8172 77.1531 36.9052 77.1131C36.9932 77.0731 37.0732 77.0011 37.1452 76.8971C37.2172 76.8011 37.2892 76.6651 37.3612 76.4891C37.4332 76.3131 37.5092 76.0931 37.5892 75.8291L35.1052 69.5411H36.7612L38.4652 74.4371L39.9772 69.5411H41.4892L38.8492 77.0771C38.6972 77.5171 38.4372 77.8771 38.0692 78.1571C37.7012 78.4371 37.2452 78.5771 36.7012 78.5771C36.5732 78.5771 36.4412 78.5651 36.3052 78.5411C36.1772 78.5251 36.0412 78.4931 35.8972 78.4451V77.0531ZM19.9178 88.8291H18.3098V85.3011C18.3098 84.7971 18.2218 84.4291 18.0458 84.1971C17.8698 83.9651 17.6258 83.8491 17.3138 83.8491C17.1538 83.8491 16.9898 83.8811 16.8218 83.9451C16.6538 84.0091 16.4938 84.1011 16.3418 84.2211C16.1978 84.3331 16.0658 84.4691 15.9458 84.6291C15.8258 84.7891 15.7378 84.9651 15.6818 85.1571V88.8291H14.0738V82.5411H15.5258V83.7051C15.7578 83.3051 16.0938 82.9931 16.5338 82.7691C16.9738 82.5451 17.4698 82.4331 18.0218 82.4331C18.4138 82.4331 18.7338 82.5051 18.9818 82.6491C19.2298 82.7931 19.4218 82.9811 19.5578 83.2131C19.6938 83.4451 19.7858 83.7091 19.8338 84.0051C19.8898 84.3011 19.9178 84.6011 19.9178 84.9051V88.8291ZM24.232 88.9491C23.728 88.9491 23.272 88.8651 22.864 88.6971C22.456 88.5211 22.108 88.2851 21.82 87.9891C21.532 87.6931 21.308 87.3491 21.148 86.9571C20.996 86.5651 20.92 86.1531 20.92 85.7211C20.92 85.2731 20.996 84.8531 21.148 84.4611C21.3 84.0611 21.52 83.7131 21.808 83.4171C22.096 83.1131 22.444 82.8731 22.852 82.6971C23.268 82.5211 23.732 82.4331 24.244 82.4331C24.756 82.4331 25.212 82.5211 25.612 82.6971C26.02 82.8731 26.364 83.1091 26.644 83.4051C26.932 83.7011 27.148 84.0451 27.292 84.4371C27.444 84.8291 27.52 85.2371 27.52 85.6611C27.52 85.7651 27.516 85.8651 27.508 85.9611C27.508 86.0571 27.5 86.1371 27.484 86.2011H22.624C22.648 86.4491 22.708 86.6691 22.804 86.8611C22.9 87.0531 23.024 87.2171 23.176 87.3531C23.328 87.4891 23.5 87.5931 23.692 87.6651C23.884 87.7371 24.084 87.7731 24.292 87.7731C24.612 87.7731 24.912 87.6971 25.192 87.5451C25.48 87.3851 25.676 87.1771 25.78 86.9211L27.16 87.3051C26.928 87.7851 26.556 88.1811 26.044 88.4931C25.54 88.7971 24.936 88.9491 24.232 88.9491ZM25.864 85.1571C25.824 84.6851 25.648 84.3091 25.336 84.0291C25.032 83.7411 24.66 83.5971 24.22 83.5971C24.004 83.5971 23.8 83.6371 23.608 83.7171C23.424 83.7891 23.26 83.8931 23.116 84.0291C22.972 84.1651 22.852 84.3291 22.756 84.5211C22.668 84.7131 22.616 84.9251 22.6 85.1571H25.864ZM31.4156 88.9491C30.9116 88.9491 30.4556 88.8651 30.0476 88.6971C29.6396 88.5211 29.2916 88.2851 29.0036 87.9891C28.7156 87.6931 28.4916 87.3491 28.3316 86.9571C28.1796 86.5651 28.1036 86.1531 28.1036 85.7211C28.1036 85.2731 28.1796 84.8531 28.3316 84.4611C28.4836 84.0611 28.7036 83.7131 28.9916 83.4171C29.2796 83.1131 29.6276 82.8731 30.0356 82.6971C30.4516 82.5211 30.9156 82.4331 31.4276 82.4331C31.9396 82.4331 32.3956 82.5211 32.7956 82.6971C33.2036 82.8731 33.5476 83.1091 33.8276 83.4051C34.1156 83.7011 34.3316 84.0451 34.4756 84.4371C34.6276 84.8291 34.7036 85.2371 34.7036 85.6611C34.7036 85.7651 34.6996 85.8651 34.6916 85.9611C34.6916 86.0571 34.6836 86.1371 34.6676 86.2011H29.8076C29.8316 86.4491 29.8916 86.6691 29.9876 86.8611C30.0836 87.0531 30.2076 87.2171 30.3596 87.3531C30.5116 87.4891 30.6836 87.5931 30.8756 87.6651C31.0676 87.7371 31.2676 87.7731 31.4756 87.7731C31.7956 87.7731 32.0956 87.6971 32.3756 87.5451C32.6636 87.3851 32.8596 87.1771 32.9636 86.9211L34.3436 87.3051C34.1116 87.7851 33.7396 88.1811 33.2276 88.4931C32.7236 88.7971 32.1196 88.9491 31.4156 88.9491ZM33.0476 85.1571C33.0076 84.6851 32.8316 84.3091 32.5196 84.0291C32.2156 83.7411 31.8436 83.5971 31.4036 83.5971C31.1876 83.5971 30.9836 83.6371 30.7916 83.7171C30.6076 83.7891 30.4436 83.8931 30.2996 84.0291C30.1556 84.1651 30.0356 84.3291 29.9396 84.5211C29.8516 84.7131 29.7996 84.9251 29.7836 85.1571H33.0476ZM38.2872 88.9491C37.8552 88.9491 37.4552 88.8651 37.0872 88.6971C36.7192 88.5291 36.4032 88.2971 36.1392 88.0011C35.8752 87.7051 35.6672 87.3611 35.5152 86.9691C35.3712 86.5691 35.2992 86.1411 35.2992 85.6851C35.2992 85.2291 35.3672 84.8051 35.5032 84.4131C35.6472 84.0211 35.8432 83.6771 36.0912 83.3811C36.3392 83.0851 36.6352 82.8531 36.9792 82.6851C37.3232 82.5171 37.6992 82.4331 38.1072 82.4331C38.5712 82.4331 38.9872 82.5451 39.3552 82.7691C39.7312 82.9931 40.0232 83.2851 40.2312 83.6451V80.0691H41.8392V86.9811C41.8392 87.1491 41.8672 87.2691 41.9232 87.3411C41.9792 87.4131 42.0752 87.4531 42.2112 87.4611V88.8291C41.9312 88.8851 41.7032 88.9131 41.5272 88.9131C41.2392 88.9131 41.0032 88.8411 40.8192 88.6971C40.6352 88.5531 40.5312 88.3651 40.5072 88.1331L40.4712 87.7371C40.2392 88.1371 39.9232 88.4411 39.5232 88.6491C39.1312 88.8491 38.7192 88.9491 38.2872 88.9491ZM38.7072 87.5811C38.8592 87.5811 39.0152 87.5571 39.1752 87.5091C39.3352 87.4531 39.4832 87.3771 39.6192 87.2811C39.7552 87.1851 39.8752 87.0731 39.9792 86.9451C40.0912 86.8171 40.1752 86.6771 40.2312 86.5251V85.0251C40.1672 84.8491 40.0752 84.6891 39.9552 84.5451C39.8432 84.3931 39.7112 84.2651 39.5592 84.1611C39.4152 84.0491 39.2592 83.9611 39.0912 83.8971C38.9312 83.8331 38.7712 83.8011 38.6112 83.8011C38.3712 83.8011 38.1472 83.8531 37.9392 83.9571C37.7392 84.0611 37.5672 84.2051 37.4232 84.3891C37.2792 84.5651 37.1672 84.7691 37.0872 85.0011C37.0072 85.2331 36.9672 85.4731 36.9672 85.7211C36.9672 85.9851 37.0112 86.2291 37.0992 86.4531C37.1872 86.6771 37.3072 86.8731 37.4592 87.0411C37.6112 87.2091 37.7912 87.3411 37.9992 87.4371C38.2152 87.5331 38.4512 87.5811 38.7072 87.5811ZM43.5135 84.3411V82.6131H44.8215V84.3411H43.5135ZM43.5135 88.8291V87.1011H44.8215V88.8291H43.5135Z" fill="#246B6D"/>
</g>
<line x1="220.25" y1="9.27637" x2="220.25" y2="89.916" stroke="#DADADA" stroke-width="0.5"/>
<line x1="220" y1="61" x2="10.9434" y2="61" stroke="#DADADA" stroke-width="0.5"/>
<g filter="url(#filter4_d)">
<path d="M272.667 17.9704C272.667 18.3664 272.61 18.7324 272.496 19.0684C272.382 19.3984 272.223 19.6864 272.019 19.9324C271.815 20.1724 271.572 20.3614 271.29 20.4994C271.014 20.6314 270.714 20.6974 270.39 20.6974C270.06 20.6974 269.754 20.6314 269.472 20.4994C269.196 20.3614 268.956 20.1724 268.752 19.9324C268.554 19.6864 268.398 19.3984 268.284 19.0684C268.17 18.7324 268.113 18.3664 268.113 17.9704C268.113 17.5744 268.17 17.2114 268.284 16.8814C268.398 16.5454 268.554 16.2574 268.752 16.0174C268.956 15.7714 269.196 15.5794 269.472 15.4414C269.754 15.3034 270.06 15.2344 270.39 15.2344C270.714 15.2344 271.014 15.3034 271.29 15.4414C271.572 15.5794 271.815 15.7714 272.019 16.0174C272.223 16.2574 272.382 16.5454 272.496 16.8814C272.61 17.2114 272.667 17.5744 272.667 17.9704ZM271.866 17.9704C271.866 17.6764 271.83 17.4064 271.758 17.1604C271.686 16.9144 271.584 16.7044 271.452 16.5304C271.32 16.3504 271.164 16.2124 270.984 16.1164C270.804 16.0204 270.606 15.9724 270.39 15.9724C270.168 15.9724 269.964 16.0204 269.778 16.1164C269.598 16.2124 269.442 16.3504 269.31 16.5304C269.184 16.7044 269.085 16.9144 269.013 17.1604C268.941 17.4064 268.905 17.6764 268.905 17.9704C268.905 18.2704 268.941 18.5434 269.013 18.7894C269.085 19.0294 269.184 19.2364 269.31 19.4104C269.442 19.5844 269.598 19.7194 269.778 19.8154C269.964 19.9114 270.168 19.9594 270.39 19.9594C270.606 19.9594 270.804 19.9114 270.984 19.8154C271.164 19.7194 271.32 19.5844 271.452 19.4104C271.584 19.2364 271.686 19.0294 271.758 18.7894C271.83 18.5434 271.866 18.2704 271.866 17.9704ZM273.731 20.6074V19.5994H274.397V20.6074H273.731ZM275.299 17.6734C275.299 17.3674 275.356 17.0824 275.47 16.8184C275.59 16.5484 275.752 16.3144 275.956 16.1164C276.166 15.9124 276.409 15.7534 276.685 15.6394C276.961 15.5254 277.261 15.4684 277.585 15.4684C277.927 15.4684 278.239 15.5314 278.521 15.6574C278.809 15.7834 279.055 15.9664 279.259 16.2064C279.463 16.4404 279.619 16.7284 279.727 17.0704C279.841 17.4064 279.898 17.7904 279.898 18.2224C279.898 18.8524 279.841 19.4044 279.727 19.8784C279.613 20.3464 279.451 20.7364 279.241 21.0484C279.031 21.3664 278.779 21.6034 278.485 21.7594C278.191 21.9154 277.864 21.9934 277.504 21.9934C277.09 21.9934 276.712 21.8944 276.37 21.6964C276.034 21.4984 275.77 21.2194 275.578 20.8594L276.064 20.3824C276.196 20.6644 276.391 20.8864 276.649 21.0484C276.907 21.2164 277.195 21.3004 277.513 21.3004C278.005 21.3004 278.398 21.0814 278.692 20.6434C278.986 20.2054 279.139 19.5904 279.151 18.7984C279.019 19.1104 278.806 19.3594 278.512 19.5454C278.218 19.7314 277.882 19.8244 277.504 19.8244C277.198 19.8244 276.91 19.7704 276.64 19.6624C276.37 19.5484 276.136 19.3954 275.938 19.2034C275.74 19.0114 275.584 18.7834 275.47 18.5194C275.356 18.2554 275.299 17.9734 275.299 17.6734ZM277.576 16.1524C277.366 16.1524 277.168 16.1944 276.982 16.2784C276.802 16.3564 276.643 16.4644 276.505 16.6024C276.367 16.7404 276.256 16.9024 276.172 17.0884C276.094 17.2684 276.055 17.4634 276.055 17.6734C276.055 17.8834 276.094 18.0814 276.172 18.2674C276.256 18.4474 276.367 18.6064 276.505 18.7444C276.643 18.8764 276.802 18.9844 276.982 19.0684C277.168 19.1464 277.366 19.1854 277.576 19.1854C277.786 19.1854 277.981 19.1464 278.161 19.0684C278.347 18.9844 278.509 18.8764 278.647 18.7444C278.785 18.6064 278.893 18.4474 278.971 18.2674C279.055 18.0814 279.097 17.8834 279.097 17.6734C279.097 17.4694 279.055 17.2744 278.971 17.0884C278.893 16.9024 278.785 16.7404 278.647 16.6024C278.509 16.4644 278.347 16.3564 278.161 16.2784C277.975 16.1944 277.78 16.1524 277.576 16.1524ZM290.273 20.6074H289.481V17.9794C289.481 17.4874 289.4 17.1244 289.238 16.8904C289.082 16.6564 288.848 16.5394 288.536 16.5394C288.212 16.5394 287.921 16.6564 287.663 16.8904C287.411 17.1184 287.231 17.4154 287.123 17.7814V20.6074H286.331V17.9794C286.331 17.4754 286.253 17.1094 286.097 16.8814C285.941 16.6534 285.707 16.5394 285.395 16.5394C285.077 16.5394 284.789 16.6534 284.531 16.8814C284.273 17.1034 284.09 17.4004 283.982 17.7724V20.6074H283.19V15.9094H283.91V16.9174C284.102 16.5694 284.351 16.3024 284.657 16.1164C284.963 15.9244 285.308 15.8284 285.692 15.8284C286.088 15.8284 286.4 15.9364 286.628 16.1524C286.862 16.3624 287.006 16.6354 287.06 16.9714C287.48 16.2094 288.077 15.8284 288.851 15.8284C289.121 15.8284 289.346 15.8794 289.526 15.9814C289.712 16.0774 289.859 16.2154 289.967 16.3954C290.075 16.5694 290.153 16.7764 290.201 17.0164C290.249 17.2564 290.273 17.5174 290.273 17.7994V20.6074ZM291.504 20.6074V15.9094H292.296V20.6074H291.504ZM291.504 15.0274V14.0374H292.296V15.0274H291.504ZM293.596 14.0374H294.388V19.3924C294.388 19.5664 294.433 19.7044 294.523 19.8064C294.619 19.9024 294.751 19.9504 294.919 19.9504C294.985 19.9504 295.063 19.9414 295.153 19.9234C295.243 19.8994 295.327 19.8724 295.405 19.8424L295.531 20.4814C295.399 20.5354 295.243 20.5804 295.063 20.6164C294.883 20.6524 294.724 20.6704 294.586 20.6704C294.28 20.6704 294.037 20.5834 293.857 20.4094C293.683 20.2354 293.596 19.9924 293.596 19.6804V14.0374ZM298.233 20.6974C297.879 20.6974 297.555 20.6344 297.261 20.5084C296.967 20.3764 296.715 20.1994 296.505 19.9774C296.295 19.7554 296.13 19.4974 296.01 19.2034C295.896 18.9034 295.839 18.5884 295.839 18.2584C295.839 17.9284 295.896 17.6164 296.01 17.3224C296.13 17.0284 296.295 16.7704 296.505 16.5484C296.721 16.3264 296.976 16.1524 297.27 16.0264C297.564 15.8944 297.888 15.8284 298.242 15.8284C298.596 15.8284 298.917 15.8944 299.205 16.0264C299.499 16.1584 299.748 16.3354 299.952 16.5574C300.156 16.7734 300.312 17.0284 300.42 17.3224C300.534 17.6104 300.591 17.9104 300.591 18.2224C300.591 18.2884 300.588 18.3484 300.582 18.4024C300.582 18.4564 300.579 18.4984 300.573 18.5284H296.676C296.694 18.7624 296.748 18.9754 296.838 19.1674C296.928 19.3594 297.045 19.5244 297.189 19.6624C297.333 19.8004 297.495 19.9084 297.675 19.9864C297.861 20.0644 298.056 20.1034 298.26 20.1034C298.404 20.1034 298.545 20.0854 298.683 20.0494C298.821 20.0074 298.95 19.9534 299.07 19.8874C299.19 19.8214 299.295 19.7404 299.385 19.6444C299.481 19.5484 299.553 19.4404 299.601 19.3204L300.285 19.5094C300.207 19.6834 300.099 19.8424 299.961 19.9864C299.829 20.1304 299.673 20.2564 299.493 20.3644C299.319 20.4664 299.124 20.5474 298.908 20.6074C298.692 20.6674 298.467 20.6974 298.233 20.6974ZM299.844 17.9434C299.826 17.7214 299.769 17.5174 299.673 17.3314C299.583 17.1394 299.466 16.9774 299.322 16.8454C299.184 16.7134 299.022 16.6114 298.836 16.5394C298.65 16.4614 298.452 16.4224 298.242 16.4224C298.032 16.4224 297.834 16.4614 297.648 16.5394C297.462 16.6114 297.297 16.7164 297.153 16.8544C297.015 16.9864 296.901 17.1454 296.811 17.3314C296.727 17.5174 296.676 17.7214 296.658 17.9434H299.844ZM303.118 20.6974C302.74 20.6974 302.368 20.6404 302.002 20.5264C301.636 20.4064 301.321 20.2354 301.057 20.0134L301.399 19.4824C301.675 19.6924 301.951 19.8514 302.227 19.9594C302.503 20.0614 302.794 20.1124 303.1 20.1124C303.442 20.1124 303.712 20.0464 303.91 19.9144C304.114 19.7764 304.216 19.5844 304.216 19.3384C304.216 19.2244 304.189 19.1284 304.135 19.0504C304.081 18.9664 304 18.8944 303.892 18.8344C303.784 18.7744 303.646 18.7204 303.478 18.6724C303.31 18.6244 303.115 18.5734 302.893 18.5194C302.611 18.4474 302.368 18.3784 302.164 18.3124C301.96 18.2464 301.792 18.1684 301.66 18.0784C301.528 17.9884 301.432 17.8804 301.372 17.7544C301.312 17.6284 301.282 17.4724 301.282 17.2864C301.282 17.0524 301.327 16.8454 301.417 16.6654C301.513 16.4794 301.642 16.3264 301.804 16.2064C301.966 16.0804 302.155 15.9874 302.371 15.9274C302.593 15.8614 302.83 15.8284 303.082 15.8284C303.436 15.8284 303.766 15.8854 304.072 15.9994C304.378 16.1134 304.636 16.2634 304.846 16.4494L304.486 16.9264C304.288 16.7524 304.066 16.6234 303.82 16.5394C303.574 16.4494 303.322 16.4044 303.064 16.4044C302.776 16.4044 302.53 16.4674 302.326 16.5934C302.128 16.7134 302.029 16.9084 302.029 17.1784C302.029 17.2864 302.047 17.3764 302.083 17.4484C302.125 17.5204 302.191 17.5834 302.281 17.6374C302.371 17.6914 302.485 17.7394 302.623 17.7814C302.767 17.8234 302.938 17.8684 303.136 17.9164C303.448 17.9884 303.718 18.0634 303.946 18.1414C304.18 18.2134 304.372 18.3004 304.522 18.4024C304.678 18.5044 304.792 18.6244 304.864 18.7624C304.942 18.9004 304.981 19.0684 304.981 19.2664C304.981 19.7044 304.813 20.0524 304.477 20.3104C304.141 20.5684 303.688 20.6974 303.118 20.6974ZM268.392 31.6074V25.2174H270.606C271.116 25.2174 271.563 25.3014 271.947 25.4694C272.337 25.6374 272.661 25.8654 272.919 26.1534C273.177 26.4414 273.369 26.7804 273.495 27.1704C273.627 27.5544 273.693 27.9654 273.693 28.4034C273.693 28.8894 273.621 29.3304 273.477 29.7264C273.333 30.1164 273.126 30.4524 272.856 30.7344C272.586 31.0104 272.259 31.2264 271.875 31.3824C271.497 31.5324 271.074 31.6074 270.606 31.6074H268.392ZM272.874 28.4034C272.874 28.0434 272.823 27.7134 272.721 27.4134C272.625 27.1074 272.478 26.8464 272.28 26.6304C272.088 26.4144 271.851 26.2464 271.569 26.1264C271.287 26.0004 270.966 25.9374 270.606 25.9374H269.202V30.8874H270.606C270.972 30.8874 271.296 30.8244 271.578 30.6984C271.866 30.5724 272.103 30.3984 272.289 30.1764C272.481 29.9544 272.625 29.6934 272.721 29.3934C272.823 29.0874 272.874 28.7574 272.874 28.4034ZM276.76 31.6974C276.406 31.6974 276.082 31.6314 275.788 31.4994C275.5 31.3674 275.251 31.1904 275.041 30.9684C274.837 30.7464 274.678 30.4884 274.564 30.1944C274.45 29.9004 274.393 29.5914 274.393 29.2674C274.393 28.9374 274.45 28.6254 274.564 28.3314C274.684 28.0374 274.846 27.7794 275.05 27.5574C275.26 27.3354 275.509 27.1584 275.797 27.0264C276.091 26.8944 276.412 26.8284 276.76 26.8284C277.108 26.8284 277.429 26.8944 277.723 27.0264C278.017 27.1584 278.266 27.3354 278.47 27.5574C278.68 27.7794 278.842 28.0374 278.956 28.3314C279.076 28.6254 279.136 28.9374 279.136 29.2674C279.136 29.5914 279.079 29.9004 278.965 30.1944C278.851 30.4884 278.689 30.7464 278.479 30.9684C278.269 31.1904 278.017 31.3674 277.723 31.4994C277.435 31.6314 277.114 31.6974 276.76 31.6974ZM275.203 29.2764C275.203 29.5224 275.242 29.7504 275.32 29.9604C275.404 30.1704 275.515 30.3534 275.653 30.5094C275.797 30.6654 275.962 30.7884 276.148 30.8784C276.34 30.9684 276.544 31.0134 276.76 31.0134C276.976 31.0134 277.177 30.9684 277.363 30.8784C277.555 30.7884 277.723 30.6654 277.867 30.5094C278.011 30.3474 278.122 30.1614 278.2 29.9514C278.284 29.7354 278.326 29.5044 278.326 29.2584C278.326 29.0184 278.284 28.7934 278.2 28.5834C278.122 28.3674 278.011 28.1814 277.867 28.0254C277.723 27.8634 277.555 27.7374 277.363 27.6474C277.177 27.5574 276.976 27.5124 276.76 27.5124C276.544 27.5124 276.34 27.5604 276.148 27.6564C275.962 27.7464 275.797 27.8724 275.653 28.0344C275.515 28.1904 275.404 28.3764 275.32 28.5924C275.242 28.8024 275.203 29.0304 275.203 29.2764ZM285.824 26.9094H286.589L284.591 31.6074H283.934L282.989 29.3124L282.053 31.6074H281.396L279.398 26.9094H280.154L281.774 30.8244L282.566 28.8714L281.756 26.9184H282.413L282.989 28.4214L283.565 26.9184H284.222L283.421 28.8714L284.213 30.8244L285.824 26.9094ZM291.406 31.6074H290.614V28.9794C290.614 28.4754 290.536 28.1094 290.38 27.8814C290.23 27.6534 289.999 27.5394 289.687 27.5394C289.525 27.5394 289.363 27.5724 289.201 27.6384C289.039 27.6984 288.886 27.7824 288.742 27.8904C288.598 27.9984 288.472 28.1274 288.364 28.2774C288.256 28.4274 288.175 28.5924 288.121 28.7724V31.6074H287.329V26.9094H288.049V27.9174C288.235 27.5874 288.502 27.3234 288.85 27.1254C289.204 26.9274 289.588 26.8284 290.002 26.8284C290.272 26.8284 290.497 26.8794 290.677 26.9814C290.857 27.0774 291.001 27.2154 291.109 27.3954C291.217 27.5694 291.292 27.7764 291.334 28.0164C291.382 28.2564 291.406 28.5174 291.406 28.7994V31.6074ZM295.024 31.3734C294.976 31.3974 294.913 31.4274 294.835 31.4634C294.757 31.4934 294.667 31.5264 294.565 31.5624C294.469 31.5924 294.361 31.6164 294.241 31.6344C294.127 31.6584 294.007 31.6704 293.881 31.6704C293.593 31.6704 293.344 31.5924 293.134 31.4364C292.924 31.2744 292.819 31.0254 292.819 30.6894V27.5304H292.18V26.9094H292.819V25.3434H293.611V26.9094H294.664V27.5304H293.611V30.4464C293.623 30.6204 293.68 30.7464 293.782 30.8244C293.884 30.9024 294.004 30.9414 294.142 30.9414C294.298 30.9414 294.439 30.9174 294.565 30.8694C294.697 30.8154 294.787 30.7734 294.835 30.7434L295.024 31.3734ZM297.749 31.6974C297.395 31.6974 297.071 31.6314 296.777 31.4994C296.489 31.3674 296.24 31.1904 296.03 30.9684C295.826 30.7464 295.667 30.4884 295.553 30.1944C295.439 29.9004 295.382 29.5914 295.382 29.2674C295.382 28.9374 295.439 28.6254 295.553 28.3314C295.673 28.0374 295.835 27.7794 296.039 27.5574C296.249 27.3354 296.498 27.1584 296.786 27.0264C297.08 26.8944 297.401 26.8284 297.749 26.8284C298.097 26.8284 298.418 26.8944 298.712 27.0264C299.006 27.1584 299.255 27.3354 299.459 27.5574C299.669 27.7794 299.831 28.0374 299.945 28.3314C300.065 28.6254 300.125 28.9374 300.125 29.2674C300.125 29.5914 300.068 29.9004 299.954 30.1944C299.84 30.4884 299.678 30.7464 299.468 30.9684C299.258 31.1904 299.006 31.3674 298.712 31.4994C298.424 31.6314 298.103 31.6974 297.749 31.6974ZM296.192 29.2764C296.192 29.5224 296.231 29.7504 296.309 29.9604C296.393 30.1704 296.504 30.3534 296.642 30.5094C296.786 30.6654 296.951 30.7884 297.137 30.8784C297.329 30.9684 297.533 31.0134 297.749 31.0134C297.965 31.0134 298.166 30.9684 298.352 30.8784C298.544 30.7884 298.712 30.6654 298.856 30.5094C299 30.3474 299.111 30.1614 299.189 29.9514C299.273 29.7354 299.315 29.5044 299.315 29.2584C299.315 29.0184 299.273 28.7934 299.189 28.5834C299.111 28.3674 299 28.1814 298.856 28.0254C298.712 27.8634 298.544 27.7374 298.352 27.6474C298.166 27.5574 297.965 27.5124 297.749 27.5124C297.533 27.5124 297.329 27.5604 297.137 27.6564C296.951 27.7464 296.786 27.8724 296.642 28.0344C296.504 28.1904 296.393 28.3764 296.309 28.5924C296.231 28.8024 296.192 29.0304 296.192 29.2764ZM306.812 26.9094H307.577L305.579 31.6074H304.922L303.977 29.3124L303.041 31.6074H302.384L300.386 26.9094H301.142L302.762 30.8244L303.554 28.8714L302.744 26.9184H303.401L303.977 28.4214L304.553 26.9184H305.21L304.409 28.8714L305.201 30.8244L306.812 26.9094ZM312.395 31.6074H311.603V28.9794C311.603 28.4754 311.525 28.1094 311.369 27.8814C311.219 27.6534 310.988 27.5394 310.676 27.5394C310.514 27.5394 310.352 27.5724 310.19 27.6384C310.028 27.6984 309.875 27.7824 309.731 27.8904C309.587 27.9984 309.461 28.1274 309.353 28.2774C309.245 28.4274 309.164 28.5924 309.11 28.7724V31.6074H308.318V26.9094H309.038V27.9174C309.224 27.5874 309.491 27.3234 309.839 27.1254C310.193 26.9274 310.577 26.8284 310.991 26.8284C311.261 26.8284 311.486 26.8794 311.666 26.9814C311.846 27.0774 311.99 27.2154 312.098 27.3954C312.206 27.5694 312.281 27.7764 312.323 28.0164C312.371 28.2564 312.395 28.5174 312.395 28.7994V31.6074ZM320.934 29.9604C320.934 30.2064 320.883 30.4314 320.781 30.6354C320.685 30.8394 320.55 31.0134 320.376 31.1574C320.208 31.3014 320.01 31.4124 319.782 31.4904C319.56 31.5684 319.32 31.6074 319.062 31.6074H316.029V25.2174H319.206C319.428 25.2174 319.629 25.2654 319.809 25.3614C319.989 25.4574 320.142 25.5834 320.268 25.7394C320.394 25.8894 320.49 26.0634 320.556 26.2614C320.628 26.4534 320.664 26.6484 320.664 26.8464C320.664 27.1644 320.583 27.4584 320.421 27.7284C320.265 27.9984 320.04 28.1994 319.746 28.3314C320.112 28.4394 320.4 28.6404 320.61 28.9344C320.826 29.2224 320.934 29.5644 320.934 29.9604ZM320.115 29.8164C320.115 29.6724 320.088 29.5344 320.034 29.4024C319.986 29.2644 319.917 29.1444 319.827 29.0424C319.743 28.9404 319.641 28.8594 319.521 28.7994C319.401 28.7394 319.269 28.7094 319.125 28.7094H316.839V30.9054H319.062C319.212 30.9054 319.35 30.8754 319.476 30.8154C319.602 30.7554 319.713 30.6774 319.809 30.5814C319.905 30.4794 319.98 30.3624 320.034 30.2304C320.088 30.0984 320.115 29.9604 320.115 29.8164ZM316.839 25.9194V28.0524H318.873C319.017 28.0524 319.149 28.0254 319.269 27.9714C319.389 27.9114 319.491 27.8334 319.575 27.7374C319.665 27.6414 319.734 27.5304 319.782 27.4044C319.836 27.2724 319.863 27.1344 319.863 26.9904C319.863 26.8404 319.839 26.6994 319.791 26.5674C319.743 26.4354 319.677 26.3214 319.593 26.2254C319.515 26.1294 319.416 26.0544 319.296 26.0004C319.182 25.9464 319.059 25.9194 318.927 25.9194H316.839ZM324.425 27.6024C324.029 27.6144 323.678 27.7164 323.372 27.9084C323.072 28.1004 322.859 28.3674 322.733 28.7094V31.6074H321.941V26.9094H322.679V27.9984C322.841 27.6744 323.054 27.4134 323.318 27.2154C323.582 27.0114 323.864 26.8974 324.164 26.8734C324.224 26.8734 324.275 26.8734 324.317 26.8734C324.359 26.8734 324.395 26.8764 324.425 26.8824V27.6024ZM327.157 31.6974C326.803 31.6974 326.479 31.6314 326.185 31.4994C325.897 31.3674 325.648 31.1904 325.438 30.9684C325.234 30.7464 325.075 30.4884 324.961 30.1944C324.847 29.9004 324.79 29.5914 324.79 29.2674C324.79 28.9374 324.847 28.6254 324.961 28.3314C325.081 28.0374 325.243 27.7794 325.447 27.5574C325.657 27.3354 325.906 27.1584 326.194 27.0264C326.488 26.8944 326.809 26.8284 327.157 26.8284C327.505 26.8284 327.826 26.8944 328.12 27.0264C328.414 27.1584 328.663 27.3354 328.867 27.5574C329.077 27.7794 329.239 28.0374 329.353 28.3314C329.473 28.6254 329.533 28.9374 329.533 29.2674C329.533 29.5914 329.476 29.9004 329.362 30.1944C329.248 30.4884 329.086 30.7464 328.876 30.9684C328.666 31.1904 328.414 31.3674 328.12 31.4994C327.832 31.6314 327.511 31.6974 327.157 31.6974ZM325.6 29.2764C325.6 29.5224 325.639 29.7504 325.717 29.9604C325.801 30.1704 325.912 30.3534 326.05 30.5094C326.194 30.6654 326.359 30.7884 326.545 30.8784C326.737 30.9684 326.941 31.0134 327.157 31.0134C327.373 31.0134 327.574 30.9684 327.76 30.8784C327.952 30.7884 328.12 30.6654 328.264 30.5094C328.408 30.3474 328.519 30.1614 328.597 29.9514C328.681 29.7354 328.723 29.5044 328.723 29.2584C328.723 29.0184 328.681 28.7934 328.597 28.5834C328.519 28.3674 328.408 28.1814 328.264 28.0254C328.12 27.8634 327.952 27.7374 327.76 27.6474C327.574 27.5574 327.373 27.5124 327.157 27.5124C326.941 27.5124 326.737 27.5604 326.545 27.6564C326.359 27.7464 326.194 27.8724 326.05 28.0344C325.912 28.1904 325.801 28.3764 325.717 28.5924C325.639 28.8024 325.6 29.0304 325.6 29.2764ZM332.545 31.6974C332.191 31.6974 331.867 31.6314 331.573 31.4994C331.285 31.3674 331.036 31.1904 330.826 30.9684C330.622 30.7464 330.463 30.4884 330.349 30.1944C330.235 29.9004 330.178 29.5914 330.178 29.2674C330.178 28.9374 330.235 28.6254 330.349 28.3314C330.469 28.0374 330.631 27.7794 330.835 27.5574C331.045 27.3354 331.294 27.1584 331.582 27.0264C331.876 26.8944 332.197 26.8284 332.545 26.8284C332.893 26.8284 333.214 26.8944 333.508 27.0264C333.802 27.1584 334.051 27.3354 334.255 27.5574C334.465 27.7794 334.627 28.0374 334.741 28.3314C334.861 28.6254 334.921 28.9374 334.921 29.2674C334.921 29.5914 334.864 29.9004 334.75 30.1944C334.636 30.4884 334.474 30.7464 334.264 30.9684C334.054 31.1904 333.802 31.3674 333.508 31.4994C333.22 31.6314 332.899 31.6974 332.545 31.6974ZM330.988 29.2764C330.988 29.5224 331.027 29.7504 331.105 29.9604C331.189 30.1704 331.3 30.3534 331.438 30.5094C331.582 30.6654 331.747 30.7884 331.933 30.8784C332.125 30.9684 332.329 31.0134 332.545 31.0134C332.761 31.0134 332.962 30.9684 333.148 30.8784C333.34 30.7884 333.508 30.6654 333.652 30.5094C333.796 30.3474 333.907 30.1614 333.985 29.9514C334.069 29.7354 334.111 29.5044 334.111 29.2584C334.111 29.0184 334.069 28.7934 333.985 28.5834C333.907 28.3674 333.796 28.1814 333.652 28.0254C333.508 27.8634 333.34 27.7374 333.148 27.6474C332.962 27.5574 332.761 27.5124 332.545 27.5124C332.329 27.5124 332.125 27.5604 331.933 27.6564C331.747 27.7464 331.582 27.8724 331.438 28.0344C331.3 28.1904 331.189 28.3764 331.105 28.5924C331.027 28.8024 330.988 29.0304 330.988 29.2764ZM339.192 31.6074L337.572 29.3124L336.672 30.1584V31.6074H335.88V25.0374H336.672V29.3574L339.084 26.9184H339.957L338.085 28.8624L340.047 31.6074H339.192ZM340.75 25.0374H341.542V30.3924C341.542 30.5664 341.587 30.7044 341.677 30.8064C341.773 30.9024 341.905 30.9504 342.073 30.9504C342.139 30.9504 342.217 30.9414 342.307 30.9234C342.397 30.8994 342.481 30.8724 342.559 30.8424L342.685 31.4814C342.553 31.5354 342.397 31.5804 342.217 31.6164C342.037 31.6524 341.878 31.6704 341.74 31.6704C341.434 31.6704 341.191 31.5834 341.011 31.4094C340.837 31.2354 340.75 30.9924 340.75 30.6804V25.0374ZM343.356 32.8854C343.434 32.8974 343.512 32.9064 343.59 32.9124C343.668 32.9184 343.728 32.9214 343.77 32.9214C343.842 32.9214 343.905 32.9034 343.959 32.8674C344.019 32.8374 344.076 32.7744 344.13 32.6784C344.19 32.5824 344.256 32.4474 344.328 32.2734C344.4 32.1054 344.49 31.8834 344.598 31.6074L342.609 26.9094H343.428L345.03 30.8964L346.488 26.9094H347.244L344.958 32.8404C344.874 33.0504 344.733 33.2334 344.535 33.3894C344.343 33.5514 344.076 33.6324 343.734 33.6324C343.68 33.6324 343.623 33.6294 343.563 33.6234C343.509 33.6174 343.44 33.6054 343.356 33.5874V32.8854ZM352.121 31.6074H351.329V28.9794C351.329 28.4754 351.251 28.1094 351.095 27.8814C350.945 27.6534 350.714 27.5394 350.402 27.5394C350.24 27.5394 350.078 27.5724 349.916 27.6384C349.754 27.6984 349.601 27.7824 349.457 27.8904C349.313 27.9984 349.187 28.1274 349.079 28.2774C348.971 28.4274 348.89 28.5924 348.836 28.7724V31.6074H348.044V26.9094H348.764V27.9174C348.95 27.5874 349.217 27.3234 349.565 27.1254C349.919 26.9274 350.303 26.8284 350.717 26.8284C350.987 26.8284 351.212 26.8794 351.392 26.9814C351.572 27.0774 351.716 27.2154 351.824 27.3954C351.932 27.5694 352.007 27.7764 352.049 28.0164C352.097 28.2564 352.121 28.5174 352.121 28.7994V31.6074Z" fill="#5C5C5C"/>
</g>
<path d="M168.044 87.166H168.294V86.916V80.846V80.6201L168.069 80.5973C166.255 80.4136 164.556 79.8791 163.164 79.0593C161.771 78.2393 160.748 77.1716 160.194 75.9856C159.642 74.8028 159.574 73.541 159.995 72.336C160.41 71.1477 161.289 70.0485 162.552 69.166H176.394C177.657 70.0485 178.536 71.1477 178.951 72.336C179.371 73.541 179.303 74.8028 178.751 75.9856C178.197 77.1716 177.174 78.2393 175.781 79.0593C174.389 79.8791 172.69 80.4136 170.876 80.5973L170.651 80.6201V80.846V86.916V87.166H170.901H173.759C174.095 87.166 174.406 87.2601 174.626 87.4137C174.844 87.5668 174.937 87.7517 174.937 87.916C174.937 88.0803 174.844 88.2652 174.626 88.4183C174.406 88.572 174.095 88.666 173.759 88.666H165.187C164.851 88.666 164.539 88.572 164.32 88.4183C164.101 88.2652 164.008 88.0803 164.008 87.916C164.008 87.7517 164.101 87.5668 164.32 87.4137C164.539 87.2601 164.851 87.166 165.187 87.166H168.044ZM162.086 73.8582L162.013 74.166H162.329H176.616H176.933L176.859 73.8582C176.516 72.4122 176.025 71.3536 175.358 70.7329L175.286 70.666H175.187H163.758H163.66L163.588 70.7329C162.92 71.3536 162.43 72.4122 162.086 73.8582Z" fill="#246B6D" fill-opacity="0.7" stroke="#246B6D" stroke-width="0.5"/>
<path d="M82.8631 72.8845C83.1172 72.8845 83.3231 72.5976 83.3231 72.2437C83.3231 71.8898 83.1172 71.6029 82.8631 71.6029C82.6091 71.6029 82.4031 71.8898 82.4031 72.2437C82.4031 72.5976 82.6091 72.8845 82.8631 72.8845Z" fill="#246B6D" fill-opacity="0.7"/>
<path d="M97.9727 82.3249C97.589 81.6283 97.007 80.7018 96.5517 80.5564C96.3003 80.341 95.912 80.1679 95.496 79.9876L95.284 79.8945C95.2897 79.701 95.238 79.561 95.1234 79.4683C94.422 78.9033 93.7107 78.0679 93.0274 77.1283C93.0457 77.0729 93.0564 77.0129 93.0564 76.9483C93.0564 76.7056 92.9147 76.5091 92.7404 76.5091C92.69 76.5091 92.644 76.5141 92.5944 76.5149C92.395 76.223 92.2001 75.9272 92.0097 75.6276C92.0424 75.5587 92.066 75.4806 92.066 75.3922C92.066 75.1491 91.9244 74.9526 91.7504 74.9526C91.734 74.9526 91.677 74.9529 91.59 74.9568C91.3679 74.5929 91.1493 74.2261 90.9344 73.8564C90.9481 73.8076 90.9571 73.7556 90.9571 73.7006C90.9571 73.4576 90.8157 73.2606 90.6417 73.2606C90.6247 73.2606 90.6094 73.2622 90.5931 73.2622C90.3906 72.9055 90.1898 72.5475 89.9907 72.1883C90.0007 72.1449 90.0104 72.1002 90.0104 72.0526C90.0104 71.8099 89.8684 71.6133 89.6947 71.6133L89.6727 71.6141C88.8607 70.151 88.7131 69.9302 88.4881 69.9302C88.3394 69.9302 88.2014 69.9418 88.0671 69.9576C88.0164 69.8526 87.9647 69.7506 87.9144 69.6441C87.7574 69.3126 87.4221 68.916 86.7191 68.916C85.6541 68.916 84.1928 69.8287 83.3351 70.4383C82.5221 70.0402 81.8308 69.8341 81.2865 69.8341C80.7308 69.8341 80.4721 70.0429 80.3638 70.1695C80.3571 70.176 80.3491 70.1799 80.3428 70.1876C79.7435 70.9429 79.3578 72.3552 79.1101 73.7541C78.7155 75.2029 78.6725 76.3826 78.6788 76.9264C78.6544 76.9594 78.6333 76.9955 78.6162 77.0341C78.3858 77.586 78.4328 79.7279 78.7568 80.1929C79.5878 81.3902 80.4381 82.1664 81.3385 82.9883C82.3568 83.9179 83.4094 84.8791 84.6468 86.5926C85.7128 88.0695 87.9321 88.916 90.7364 88.916C94.4724 88.916 98.4727 87.3856 98.4727 85.1083C98.4727 82.6014 98.2383 82.3368 97.9727 82.3249ZM97.6057 82.7118C96.8833 84.0045 93.5297 84.7014 90.5771 84.7014C89.5914 84.7014 88.7214 84.6229 88.1264 84.4799C87.3024 84.2818 86.5261 83.9541 85.7981 83.5487C86.4818 82.5164 87.7191 82.356 88.9797 82.356C89.4694 82.356 89.9747 82.3814 90.5104 82.4091C91.0574 82.4368 91.623 82.4652 92.1824 82.4652C93.5324 82.4652 95.232 82.3106 96.5037 81.1302C96.7313 81.2887 97.1837 81.9399 97.6057 82.7118ZM93.641 79.186C93.834 79.4183 94.016 79.6387 94.1724 79.8352C94.386 80.1045 94.842 80.3026 95.324 80.5122C95.5733 80.6206 95.8243 80.7318 96.0227 80.8445C94.9014 81.7706 93.4624 81.9049 92.1824 81.9049C91.66 81.9049 91.128 81.8787 90.6101 81.8522C90.6091 81.2395 90.5317 80.6164 90.4007 80.2349C91.1564 79.7226 92.2427 79.2291 93.641 79.186ZM92.187 77.4091C92.4413 77.7293 92.6983 78.0467 92.958 78.361C91.6967 78.5252 90.7077 79.0172 90.0024 79.5191C89.7552 79.117 89.5061 78.7165 89.2551 78.3176C89.9227 77.8914 90.8777 77.4979 92.187 77.4091ZM91.556 76.5952C90.3504 76.7679 89.4554 77.1856 88.8151 77.6283C88.6137 77.3137 88.4161 77.0091 88.2234 76.7156C89.1974 76.176 90.3151 75.9652 91.0267 75.8837C91.2067 76.131 91.3824 76.366 91.556 76.5952ZM87.7677 76.031C87.5269 75.673 87.283 75.3177 87.0361 74.9652C87.7381 74.6152 88.6841 74.2856 89.8591 74.1791C90.0551 74.4818 90.2552 74.781 90.4594 75.0764C89.6771 75.2068 88.6637 75.4768 87.7677 76.031ZM90.5161 74.1445C90.6631 74.3983 90.8147 74.656 90.9714 74.9168C90.7947 74.6628 90.6211 74.4061 90.4504 74.1468C90.4724 74.146 90.4937 74.1445 90.5161 74.1445ZM89.5834 72.496C89.7221 72.7456 89.8681 73.0072 90.0227 73.2822C89.9821 73.2845 89.9434 73.2899 89.9031 73.2929C89.7409 73.0313 89.5817 72.7673 89.4254 72.501C89.4787 72.4995 89.5297 72.4968 89.5834 72.496ZM86.5418 74.2768C86.3111 73.9603 86.0763 73.6478 85.8374 73.3395C86.5574 72.9799 87.5581 72.6383 88.8564 72.5302C89.0184 72.8126 89.1807 73.0876 89.3427 73.3537C88.1611 73.5229 87.2257 73.9002 86.5418 74.2768ZM88.4204 70.4926C88.5384 70.6326 88.8054 71.0979 89.1044 71.6326C89.0484 71.6356 88.9921 71.6383 88.9371 71.6422C88.7295 71.2655 88.5281 70.8842 88.3331 70.4987C88.3627 70.4976 88.3897 70.4933 88.4204 70.4926ZM86.7191 69.4768C87.0958 69.4768 87.3467 69.6195 87.4861 69.9129C87.7723 70.5169 88.0737 71.1111 88.3897 71.6949C87.0378 71.8645 86.0184 72.2776 85.3021 72.6806C84.6008 71.8441 84.0081 71.2668 83.5291 70.9622C84.3324 70.3852 85.7501 69.4768 86.7191 69.4768ZM80.7298 70.5391C80.7811 70.4968 80.9395 70.3945 81.2861 70.3945C81.5548 70.3945 81.9848 70.4618 82.6151 70.7164C81.7691 70.8264 81.3011 71.5926 80.9238 72.2249C80.6811 72.6302 80.4531 73.0129 80.2398 73.026C80.1091 72.8337 80.3425 71.6579 80.7298 70.5391ZM79.7448 73.0626C79.7621 73.1702 79.7915 73.2641 79.8348 73.3387C79.9241 73.4906 80.0628 73.5733 80.2255 73.5733C80.7101 73.5733 81.0091 73.0726 81.3258 72.5418C81.7045 71.9087 82.0955 71.2541 82.8195 71.2541C83.2241 71.2541 83.9241 71.8526 84.8511 72.9537C84.6194 73.1083 84.4411 73.2495 84.3064 73.3645C84.2691 73.35 84.2301 73.3422 84.1908 73.3414C83.9364 73.3414 83.7304 73.6283 83.7304 73.9822C83.7304 74.336 83.9364 74.6229 84.1908 74.6229C84.4134 74.6229 84.5991 74.4026 84.6418 74.1095C84.8731 73.916 85.1169 73.7432 85.3711 73.5926C85.6158 73.9051 85.8557 74.2226 86.0908 74.5449C85.8769 74.682 85.67 74.8329 85.4708 74.9968C85.4313 74.9804 85.3897 74.9717 85.3478 74.971C85.0938 74.971 84.8878 75.2576 84.8878 75.6118C84.8878 75.966 85.0938 76.2526 85.3478 76.2526C85.5668 76.2526 85.7491 76.0387 85.7958 75.7529C86.0434 75.552 86.3031 75.3718 86.5731 75.2137C86.8208 75.5633 87.0774 75.9329 87.3417 76.3245C87.0692 76.5321 86.8184 76.7753 86.5944 77.0495C86.5821 77.0479 86.5704 77.0445 86.5578 77.0445C86.3028 77.0445 86.0971 77.3314 86.0971 77.6852C86.0971 78.0387 86.3028 78.326 86.5578 78.326C86.8068 78.326 87.0091 78.0483 87.0158 77.7029C87.2432 77.4256 87.5024 77.1853 87.7861 76.9887C87.9877 77.2941 88.1941 77.6099 88.4051 77.9368C88.1614 78.1392 87.9357 78.3691 87.7314 78.6229C87.7211 78.6222 87.7111 78.6187 87.7007 78.6187C87.4471 78.6187 87.2407 78.906 87.2407 79.2599C87.2407 79.6133 87.4471 79.9006 87.7007 79.9006C87.9521 79.9006 88.1547 79.6199 88.1597 79.2718C88.3644 79.0249 88.5913 78.804 88.8367 78.6129C89.0925 79.0174 89.346 79.4238 89.5971 79.8322C89.3687 80.0204 89.152 80.2266 88.9484 80.4495C88.9271 80.4452 88.9061 80.4406 88.8844 80.4406C88.6297 80.4406 88.4241 80.7279 88.4241 81.0814C88.4241 81.4352 88.6297 81.7222 88.8844 81.7222C89.1224 81.7222 89.3167 81.4679 89.3394 81.1433C89.5428 80.9238 89.76 80.7219 89.9891 80.5391C90.0861 80.856 90.1274 81.3514 90.1254 81.8291C89.744 81.8087 89.3622 81.7973 88.9804 81.7949C87.5484 81.7949 86.1394 81.9937 85.3548 83.2906C83.2694 82.0033 81.6335 80.096 80.5618 78.6976C80.5858 77.4499 80.3185 76.6702 80.0508 75.9245C79.8275 75.3006 79.6168 74.7099 79.5941 73.8429C79.6391 73.581 79.6888 73.3187 79.7448 73.0626ZM79.5991 76.1379C79.8035 76.7076 79.9961 77.2629 80.0585 78.0272C79.9701 77.9068 79.8875 77.7933 79.8115 77.6887C79.4745 77.2264 79.2965 76.9864 79.1665 76.8679C79.1681 76.3136 79.2125 75.7605 79.2991 75.2152C79.3865 75.5456 79.4938 75.8445 79.5991 76.1379ZM90.7364 88.3552C88.0774 88.3552 85.9951 87.5822 85.0221 86.2349C83.7524 84.476 82.6311 83.4526 81.6418 82.5491C80.7638 81.7479 79.9348 80.9906 79.1378 79.8437C78.9751 79.5952 78.9088 78.0629 79.0048 77.4676C79.1201 77.6141 79.2805 77.8337 79.4371 78.0491C80.7355 79.8322 83.7761 84.0068 88.0271 85.0287C88.6534 85.1791 89.5594 85.2618 90.5771 85.2618C92.861 85.2618 96.7377 84.8137 97.902 83.2037C97.9437 83.5222 97.9847 84.0933 97.9847 85.1076C97.9847 86.8076 94.5297 88.3552 90.7364 88.3552Z" fill="#246B6D" fill-opacity="0.7"/>
<path d="M82.8631 72.8845C83.1172 72.8845 83.3231 72.5976 83.3231 72.2437C83.3231 71.8898 83.1172 71.6029 82.8631 71.6029C82.6091 71.6029 82.4031 71.8898 82.4031 72.2437C82.4031 72.5976 82.6091 72.8845 82.8631 72.8845Z" stroke="#246B6D" stroke-width="0.5"/>
<path d="M97.9727 82.3249C97.589 81.6283 97.007 80.7018 96.5517 80.5564C96.3003 80.341 95.912 80.1679 95.496 79.9876L95.284 79.8945C95.2897 79.701 95.238 79.561 95.1234 79.4683C94.422 78.9033 93.7107 78.0679 93.0274 77.1283C93.0457 77.0729 93.0564 77.0129 93.0564 76.9483C93.0564 76.7056 92.9147 76.5091 92.7404 76.5091C92.69 76.5091 92.644 76.5141 92.5944 76.5149C92.395 76.223 92.2001 75.9272 92.0097 75.6276C92.0424 75.5587 92.066 75.4806 92.066 75.3922C92.066 75.1491 91.9244 74.9526 91.7504 74.9526C91.734 74.9526 91.677 74.9529 91.59 74.9568C91.3679 74.5929 91.1493 74.2261 90.9344 73.8564C90.9481 73.8076 90.9571 73.7556 90.9571 73.7006C90.9571 73.4576 90.8157 73.2606 90.6417 73.2606C90.6247 73.2606 90.6094 73.2622 90.5931 73.2622C90.3906 72.9055 90.1898 72.5475 89.9907 72.1883C90.0007 72.1449 90.0104 72.1002 90.0104 72.0526C90.0104 71.8099 89.8684 71.6133 89.6947 71.6133L89.6727 71.6141C88.8607 70.151 88.7131 69.9302 88.4881 69.9302C88.3394 69.9302 88.2014 69.9418 88.0671 69.9576C88.0164 69.8526 87.9647 69.7506 87.9144 69.6441C87.7574 69.3126 87.4221 68.916 86.7191 68.916C85.6541 68.916 84.1928 69.8287 83.3351 70.4383C82.5221 70.0402 81.8308 69.8341 81.2865 69.8341C80.7308 69.8341 80.4721 70.0429 80.3638 70.1695C80.3571 70.176 80.3491 70.1799 80.3428 70.1876C79.7435 70.9429 79.3578 72.3552 79.1101 73.7541C78.7155 75.2029 78.6725 76.3826 78.6788 76.9264C78.6544 76.9594 78.6333 76.9955 78.6162 77.0341C78.3858 77.586 78.4328 79.7279 78.7568 80.1929C79.5878 81.3902 80.4381 82.1664 81.3385 82.9883C82.3568 83.9179 83.4094 84.8791 84.6468 86.5926C85.7128 88.0695 87.9321 88.916 90.7364 88.916C94.4724 88.916 98.4727 87.3856 98.4727 85.1083C98.4727 82.6014 98.2383 82.3368 97.9727 82.3249ZM97.6057 82.7118C96.8833 84.0045 93.5297 84.7014 90.5771 84.7014C89.5914 84.7014 88.7214 84.6229 88.1264 84.4799C87.3024 84.2818 86.5261 83.9541 85.7981 83.5487C86.4818 82.5164 87.7191 82.356 88.9797 82.356C89.4694 82.356 89.9747 82.3814 90.5104 82.4091C91.0574 82.4368 91.623 82.4652 92.1824 82.4652C93.5324 82.4652 95.232 82.3106 96.5037 81.1302C96.7313 81.2887 97.1837 81.9399 97.6057 82.7118ZM93.641 79.186C93.834 79.4183 94.016 79.6387 94.1724 79.8352C94.386 80.1045 94.842 80.3026 95.324 80.5122C95.5733 80.6206 95.8243 80.7318 96.0227 80.8445C94.9014 81.7706 93.4624 81.9049 92.1824 81.9049C91.66 81.9049 91.128 81.8787 90.6101 81.8522C90.6091 81.2395 90.5317 80.6164 90.4007 80.2349C91.1564 79.7226 92.2427 79.2291 93.641 79.186ZM92.187 77.4091C92.4413 77.7293 92.6983 78.0467 92.958 78.361C91.6967 78.5252 90.7077 79.0172 90.0024 79.5191C89.7552 79.117 89.5061 78.7165 89.2551 78.3176C89.9227 77.8914 90.8777 77.4979 92.187 77.4091ZM91.556 76.5952C90.3504 76.7679 89.4554 77.1856 88.8151 77.6283C88.6137 77.3137 88.4161 77.0091 88.2234 76.7156C89.1974 76.176 90.3151 75.9652 91.0267 75.8837C91.2067 76.131 91.3824 76.366 91.556 76.5952ZM87.7677 76.031C87.5269 75.673 87.283 75.3177 87.0361 74.9652C87.7381 74.6152 88.6841 74.2856 89.8591 74.1791C90.0551 74.4818 90.2552 74.781 90.4594 75.0764C89.6771 75.2068 88.6637 75.4768 87.7677 76.031ZM90.5161 74.1445C90.6631 74.3983 90.8147 74.656 90.9714 74.9168C90.7947 74.6628 90.6211 74.4061 90.4504 74.1468C90.4724 74.146 90.4937 74.1445 90.5161 74.1445ZM89.5834 72.496C89.7221 72.7456 89.8681 73.0072 90.0227 73.2822C89.9821 73.2845 89.9434 73.2899 89.9031 73.2929C89.7409 73.0313 89.5817 72.7673 89.4254 72.501C89.4787 72.4995 89.5297 72.4968 89.5834 72.496ZM86.5418 74.2768C86.3111 73.9603 86.0763 73.6478 85.8374 73.3395C86.5574 72.9799 87.5581 72.6383 88.8564 72.5302C89.0184 72.8126 89.1807 73.0876 89.3427 73.3537C88.1611 73.5229 87.2257 73.9002 86.5418 74.2768ZM88.4204 70.4926C88.5384 70.6326 88.8054 71.0979 89.1044 71.6326C89.0484 71.6356 88.9921 71.6383 88.9371 71.6422C88.7295 71.2655 88.5281 70.8842 88.3331 70.4987C88.3627 70.4976 88.3897 70.4933 88.4204 70.4926ZM86.7191 69.4768C87.0958 69.4768 87.3467 69.6195 87.4861 69.9129C87.7723 70.5169 88.0737 71.1111 88.3897 71.6949C87.0378 71.8645 86.0184 72.2776 85.3021 72.6806C84.6008 71.8441 84.0081 71.2668 83.5291 70.9622C84.3324 70.3852 85.7501 69.4768 86.7191 69.4768ZM80.7298 70.5391C80.7811 70.4968 80.9395 70.3945 81.2861 70.3945C81.5548 70.3945 81.9848 70.4618 82.6151 70.7164C81.7691 70.8264 81.3011 71.5926 80.9238 72.2249C80.6811 72.6302 80.4531 73.0129 80.2398 73.026C80.1091 72.8337 80.3425 71.6579 80.7298 70.5391ZM79.7448 73.0626C79.7621 73.1702 79.7915 73.2641 79.8348 73.3387C79.9241 73.4906 80.0628 73.5733 80.2255 73.5733C80.7101 73.5733 81.0091 73.0726 81.3258 72.5418C81.7045 71.9087 82.0955 71.2541 82.8195 71.2541C83.2241 71.2541 83.9241 71.8526 84.8511 72.9537C84.6194 73.1083 84.4411 73.2495 84.3064 73.3645C84.2691 73.35 84.2301 73.3422 84.1908 73.3414C83.9364 73.3414 83.7304 73.6283 83.7304 73.9822C83.7304 74.336 83.9364 74.6229 84.1908 74.6229C84.4134 74.6229 84.5991 74.4026 84.6418 74.1095C84.8731 73.916 85.1169 73.7432 85.3711 73.5926C85.6158 73.9051 85.8557 74.2226 86.0908 74.5449C85.8769 74.682 85.67 74.8329 85.4708 74.9968C85.4313 74.9804 85.3897 74.9717 85.3478 74.971C85.0938 74.971 84.8878 75.2576 84.8878 75.6118C84.8878 75.966 85.0938 76.2526 85.3478 76.2526C85.5668 76.2526 85.7491 76.0387 85.7958 75.7529C86.0434 75.552 86.3031 75.3718 86.5731 75.2137C86.8208 75.5633 87.0774 75.9329 87.3417 76.3245C87.0692 76.5321 86.8184 76.7753 86.5944 77.0495C86.5821 77.0479 86.5704 77.0445 86.5578 77.0445C86.3028 77.0445 86.0971 77.3314 86.0971 77.6852C86.0971 78.0387 86.3028 78.326 86.5578 78.326C86.8068 78.326 87.0091 78.0483 87.0158 77.7029C87.2432 77.4256 87.5024 77.1853 87.7861 76.9887C87.9877 77.2941 88.1941 77.6099 88.4051 77.9368C88.1614 78.1392 87.9357 78.3691 87.7314 78.6229C87.7211 78.6222 87.7111 78.6187 87.7007 78.6187C87.4471 78.6187 87.2407 78.906 87.2407 79.2599C87.2407 79.6133 87.4471 79.9006 87.7007 79.9006C87.9521 79.9006 88.1547 79.6199 88.1597 79.2718C88.3644 79.0249 88.5913 78.804 88.8367 78.6129C89.0925 79.0174 89.346 79.4238 89.5971 79.8322C89.3687 80.0204 89.152 80.2266 88.9484 80.4495C88.9271 80.4452 88.9061 80.4406 88.8844 80.4406C88.6297 80.4406 88.4241 80.7279 88.4241 81.0814C88.4241 81.4352 88.6297 81.7222 88.8844 81.7222C89.1224 81.7222 89.3167 81.4679 89.3394 81.1433C89.5428 80.9238 89.76 80.7219 89.9891 80.5391C90.0861 80.856 90.1274 81.3514 90.1254 81.8291C89.744 81.8087 89.3622 81.7973 88.9804 81.7949C87.5484 81.7949 86.1394 81.9937 85.3548 83.2906C83.2694 82.0033 81.6335 80.096 80.5618 78.6976C80.5858 77.4499 80.3185 76.6702 80.0508 75.9245C79.8275 75.3006 79.6168 74.7099 79.5941 73.8429C79.6391 73.581 79.6888 73.3187 79.7448 73.0626ZM79.5991 76.1379C79.8035 76.7076 79.9961 77.2629 80.0585 78.0272C79.9701 77.9068 79.8875 77.7933 79.8115 77.6887C79.4745 77.2264 79.2965 76.9864 79.1665 76.8679C79.1681 76.3136 79.2125 75.7605 79.2991 75.2152C79.3865 75.5456 79.4938 75.8445 79.5991 76.1379ZM90.7364 88.3552C88.0774 88.3552 85.9951 87.5822 85.0221 86.2349C83.7524 84.476 82.6311 83.4526 81.6418 82.5491C80.7638 81.7479 79.9348 80.9906 79.1378 79.8437C78.9751 79.5952 78.9088 78.0629 79.0048 77.4676C79.1201 77.6141 79.2805 77.8337 79.4371 78.0491C80.7355 79.8322 83.7761 84.0068 88.0271 85.0287C88.6534 85.1791 89.5594 85.2618 90.5771 85.2618C92.861 85.2618 96.7377 84.8137 97.902 83.2037C97.9437 83.5222 97.9847 84.0933 97.9847 85.1076C97.9847 86.8076 94.5297 88.3552 90.7364 88.3552Z" stroke="#246B6D" stroke-width="0.5"/>
<path d="M148.62 81.2159H148.87V80.9659V76.8661V76.6161H148.62H144.772V72.7689V72.5189H144.522H140.426H140.176V72.7689V76.6161H136.327H136.077V76.8661V80.9659V81.2159H136.327H140.176V85.0632V85.3132H140.426H144.522H144.772V85.0632V81.2159H148.62ZM135.095 69.166H149.851C151.158 69.166 152.223 70.2304 152.223 71.5385V86.2929C152.223 87.6016 151.158 88.666 149.851 88.666H135.095C133.787 88.666 132.723 87.6013 132.723 86.2929V71.5385C132.723 70.2305 133.787 69.166 135.095 69.166Z" fill="#246B6D" fill-opacity="0.7" stroke="#246B6D" stroke-width="0.5"/>
<path d="M121.473 82.4993H121.723V82.2493V77.2493C121.723 76.8258 121.826 76.4552 121.98 76.1989C122.136 75.9379 122.318 75.8327 122.473 75.8327H123.473C123.902 75.8327 124.334 76.1248 124.672 76.6885C125.007 77.2471 125.223 78.0344 125.223 78.916C125.223 80.0993 124.83 81.0888 124.298 81.6067L124.223 81.6803V81.7858V88.0827C124.223 88.2739 124.175 88.4363 124.111 88.5426C124.044 88.6544 123.987 88.666 123.973 88.666H121.973C121.958 88.666 121.901 88.6544 121.834 88.5426C121.77 88.4363 121.723 88.2739 121.723 88.0827V87.2493V86.9993H121.473H109.473H109.223V87.2493V88.0827C109.223 88.2739 109.175 88.4363 109.111 88.5426C109.044 88.6544 108.987 88.666 108.973 88.666H106.973C106.958 88.666 106.901 88.6544 106.834 88.5426C106.77 88.4363 106.723 88.2739 106.723 88.0827V81.7858V81.6803L106.647 81.6067C106.115 81.0888 105.723 80.0993 105.723 78.916C105.723 78.0344 105.938 77.2471 106.273 76.6885C106.612 76.1248 107.044 75.8327 107.473 75.8327H108.473C108.627 75.8327 108.809 75.9379 108.966 76.1989C109.119 76.4552 109.223 76.8258 109.223 77.2493V82.2493V82.4993H109.473H121.473ZM120.223 80.3327H110.723V77.2493C110.723 76.2924 110.49 75.4131 110.101 74.7646C109.715 74.1213 109.147 73.666 108.473 73.666H107.726C107.764 72.4243 108.082 71.3157 108.566 70.5095C109.085 69.6445 109.767 69.166 110.473 69.166H120.473C121.178 69.166 121.86 69.6445 122.379 70.5095C122.863 71.3157 123.181 72.4243 123.219 73.666H122.473C121.799 73.666 121.231 74.1213 120.845 74.7646C120.456 75.4131 120.223 76.2924 120.223 77.2493V80.3327Z" fill="#246B6D" fill-opacity="0.7" stroke="#246B6D" stroke-width="0.5"/>
<g clip-path="url(#clip0)">
<path d="M60.6713 70.6345H62.3004C62.4748 70.6345 62.6161 70.4931 62.6161 70.3187C62.6161 70.1443 62.4748 70.0029 62.3004 70.0029H60.6713C60.4968 70.0029 60.3555 70.1443 60.3555 70.3187C60.3555 70.4931 60.4968 70.6345 60.6713 70.6345Z" fill="#246B6D"/>
<path d="M70.8772 76.4431L69.7906 71.9663C69.7798 71.922 69.5155 70.8761 68.4764 70.4345C67.7243 70.1149 65.3457 69.2119 64.7502 68.9864C64.6959 68.9425 64.6269 68.916 64.5516 68.916H64.5063H58.4424C58.4322 68.916 58.4222 68.9166 58.4121 68.9175C58.4078 68.918 58.4035 68.9187 58.3992 68.9193C58.3937 68.92 58.3882 68.9208 58.3827 68.9218C58.3776 68.9228 58.3726 68.9241 58.3675 68.9253C58.363 68.9264 58.3585 68.9275 58.354 68.9287C58.3488 68.9303 58.3437 68.932 58.3385 68.9338C58.3359 68.9347 58.3333 68.9354 58.3306 68.9364C58.208 68.9827 55.3161 70.0759 54.4722 70.4345C53.4732 70.8591 53.1906 71.8418 53.1607 71.9563V71.9563C53.1601 71.9584 53.1592 71.9617 53.1592 71.9617C53.1587 71.9638 53.1581 71.9662 53.1581 71.9662L52.3859 75.1477L52.0715 76.4432C52.0343 76.5961 52.1155 76.753 52.2618 76.8111L55.3661 78.0443V87.3164V88.6002C55.3661 88.7747 55.5074 88.916 55.6819 88.916H67.2667C67.4412 88.916 67.5825 88.7747 67.5825 88.6002V87.3164V81.3038C67.5825 81.1294 67.4412 80.988 67.2667 80.988C67.0923 80.988 66.951 81.1295 66.951 81.3038V87.0006H59.1899C59.0155 87.0006 58.8742 87.142 58.8742 87.3164C58.8742 87.4908 59.0155 87.6322 59.1899 87.6322H66.951V88.2844H55.9977V87.6322H58.1373C58.3118 87.6322 58.4531 87.4908 58.4531 87.3164C58.4531 87.142 58.3118 87.0006 58.1373 87.0006H55.9977V77.8299V76.4758V74.0287C55.9977 73.9711 55.982 73.9146 55.9522 73.8654L54.3596 71.2316C54.4624 71.1489 54.5816 71.0744 54.7194 71.0158C55.3659 70.7411 57.3046 70.0014 58.1511 69.68C58.3542 71.5463 59.8037 73.0472 61.497 73.0472C63.1853 73.0472 64.6314 71.5551 64.8412 69.6964C65.709 70.0261 67.5937 70.7456 68.2294 71.0158C68.3672 71.0743 68.4863 71.1489 68.5892 71.2315L66.9967 73.8653C66.9669 73.9146 66.9511 73.9711 66.9511 74.0287V76.4757V77.8299V80.2512C66.9511 80.4256 67.0925 80.567 67.2669 80.567C67.4413 80.567 67.5827 80.4256 67.5827 80.2512V78.0442L70.687 76.811C70.8331 76.753 70.9143 76.5961 70.8772 76.4431ZM55.3662 77.3647L52.75 76.3254L52.9124 75.6566L55.3661 76.6857L55.3662 77.3647ZM55.3662 74.1168V76.0009L53.0633 75.035L53.7716 72.1166C53.7725 72.1131 53.8155 71.9502 53.9315 71.7442L55.3662 74.1168ZM61.497 72.4156C60.2488 72.4156 58.9174 71.2763 58.7714 69.5476H64.2226C64.0765 71.2764 62.7451 72.4156 61.497 72.4156ZM67.5826 74.1168L69.0172 71.7441C69.0932 71.879 69.1379 71.9954 69.1598 72.0602V72.0602C69.1619 72.0663 69.1639 72.0725 69.1656 72.0777L69.1665 72.0806C69.1678 72.0847 69.169 72.0884 69.17 72.0918L69.1712 72.0957C69.1721 72.0985 69.1728 72.1009 69.1734 72.1031L69.1743 72.1062L69.1755 72.1106L69.1762 72.113L69.1767 72.1152L69.8855 75.0351L67.5826 76.0009L67.5826 74.1168ZM67.5826 77.3647V76.6857L70.0363 75.6566L70.1987 76.3254L67.5826 77.3647Z" fill="#246B6D"/>
<path d="M67.1914 77.7598V88.6348H61.5352H55.8789H55.7227L55.5664 77.7598L52.4414 76.4785L53.2227 72.9785L53.6602 71.5723L54.1914 71.0098L58.5352 69.166L64.8164 69.3535L68.8164 71.0098L69.2539 71.5723L70.5352 76.4785L67.1914 77.7598Z" fill="#246B6D" fill-opacity="0.5"/>
</g>
<path d="M244.627 19.6222L244.734 19.191L244.31 19.3239L242.233 19.975L242.058 20.03V20.2136V23.1264H240.25V19.1832L246.043 17.2074C246.217 17.2039 246.365 17.1801 246.496 17.1589L246.501 17.1581C246.646 17.1347 246.772 17.1148 246.923 17.1148C247.649 17.1148 248.272 17.4476 248.69 17.9514L249.838 19.4324C250.781 20.7596 252.604 21.6943 254.75 21.762V23.1233C252.369 23.0646 250.225 22.1711 248.824 20.8678L248.513 20.5787L248.411 20.9906L247.719 23.7813L247.679 23.9401L247.809 24.0398L250.135 25.8252V32.4287H248.327V27.0973V26.9741L248.229 26.899L245.806 25.0386L245.513 24.8132L245.413 25.1696L243.387 32.4287H241.473L244.627 19.6222ZM250.712 14.5392C250.712 15.3768 249.838 16.1496 248.654 16.1496C247.47 16.1496 246.596 15.3768 246.596 14.5392C246.596 13.7016 247.47 12.9287 248.654 12.9287C249.838 12.9287 250.712 13.7016 250.712 14.5392Z" fill="#246B6D" fill-opacity="0.5" stroke="#246B6D" stroke-width="0.5"/>
<defs>
<filter id="filter0_d" x="5" y="0.75" width="202" height="62" filterUnits="userSpaceOnUse" color-interpolation-filters="sRGB">
<feFlood flood-opacity="0" result="BackgroundImageFix"/>
<feColorMatrix in="SourceAlpha" type="matrix" values="0 0 0 0 0 0 0 0 0 0 0 0 0 0 0 0 0 0 127 0"/>
<feOffset dy="1"/>
<feGaussianBlur stdDeviation="0.5"/>
<feColorMatrix type="matrix" values="0 0 0 0 0 0 0 0 0 0 0 0 0 0 0 0 0 0 0.25 0"/>
<feBlend mode="normal" in2="BackgroundImageFix" result="effect1_dropShadow"/>
<feBlend mode="normal" in="SourceGraphic" in2="effect1_dropShadow" result="shape"/>
</filter>
<filter id="filter1_d" x="239" y="43.75" width="132" height="24" filterUnits="userSpaceOnUse" color-interpolation-filters="sRGB">
<feFlood flood-opacity="0" result="BackgroundImageFix"/>
<feColorMatrix in="SourceAlpha" type="matrix" values="0 0 0 0 0 0 0 0 0 0 0 0 0 0 0 0 0 0 127 0"/>
<feOffset dy="1"/>
<feGaussianBlur stdDeviation="0.5"/>
<feColorMatrix type="matrix" values="0 0 0 0 0 0 0 0 0 0 0 0 0 0 0 0 0 0 0.25 0"/>
<feBlend mode="normal" in2="BackgroundImageFix" result="effect1_dropShadow"/>
<feBlend mode="normal" in="SourceGraphic" in2="effect1_dropShadow" result="shape"/>
</filter>
<filter id="filter2_d" x="239" y="72.0771" width="132" height="24" filterUnits="userSpaceOnUse" color-interpolation-filters="sRGB">
<feFlood flood-opacity="0" result="BackgroundImageFix"/>
<feColorMatrix in="SourceAlpha" type="matrix" values="0 0 0 0 0 0 0 0 0 0 0 0 0 0 0 0 0 0 127 0"/>
<feOffset dy="1"/>
<feGaussianBlur stdDeviation="0.5"/>
<feColorMatrix type="matrix" values="0 0 0 0 0 0 0 0 0 0 0 0 0 0 0 0 0 0 0.25 0"/>
<feBlend mode="normal" in2="BackgroundImageFix" result="effect1_dropShadow"/>
<feBlend mode="normal" in="SourceGraphic" in2="effect1_dropShadow" result="shape"/>
</filter>
<filter id="filter3_d" x="12.5098" y="67.0693" width="33.3118" height="23.88" filterUnits="userSpaceOnUse" color-interpolation-filters="sRGB">
<feFlood flood-opacity="0" result="BackgroundImageFix"/>
<feColorMatrix in="SourceAlpha" type="matrix" values="0 0 0 0 0 0 0 0 0 0 0 0 0 0 0 0 0 0 127 0"/>
<feOffset dy="1"/>
<feGaussianBlur stdDeviation="0.5"/>
<feColorMatrix type="matrix" values="0 0 0 0 0 0 0 0 0 0 0 0 0 0 0 0 0 0 0.25 0"/>
<feBlend mode="normal" in2="BackgroundImageFix" result="effect1_dropShadow"/>
<feBlend mode="normal" in="SourceGraphic" in2="effect1_dropShadow" result="shape"/>
</filter>
<filter id="filter4_d" x="267.113" y="14.0371" width="86.0083" height="21.595" filterUnits="userSpaceOnUse" color-interpolation-filters="sRGB">
<feFlood flood-opacity="0" result="BackgroundImageFix"/>
<feColorMatrix in="SourceAlpha" type="matrix" values="0 0 0 0 0 0 0 0 0 0 0 0 0 0 0 0 0 0 127 0"/>
<feOffset dy="1"/>
<feGaussianBlur stdDeviation="0.5"/>
<feColorMatrix type="matrix" values="0 0 0 0 0 0 0 0 0 0 0 0 0 0 0 0 0 0 0.25 0"/>
<feBlend mode="normal" in2="BackgroundImageFix" result="effect1_dropShadow"/>
<feBlend mode="normal" in="SourceGraphic" in2="effect1_dropShadow" result="shape"/>
</filter>
<clipPath id="clip0">
<path d="M51.4727 68.916H71.4727V88.916H51.4727V68.916Z" fill="white"/>
</clipPath>
</defs>
</svg>
