<svg width="380" height="100" viewBox="0 0 380 100" fill="none" xmlns="http://www.w3.org/2000/svg">
<path d="M0 0H380V100H0V0Z" fill="white"/>
<g filter="url(#filter0_d)">
<path d="M19.4134 18.4269H16.2354V26.6729H14.3174V18.4269H11.1394V16.7329H19.4134V18.4269ZM27.2833 26.6729H25.4073V22.5569C25.4073 21.9782 25.3 21.5535 25.0853 21.2829C24.8707 21.0029 24.5673 20.8629 24.1753 20.8629C24.0073 20.8629 23.83 20.9002 23.6433 20.9749C23.4567 21.0495 23.2793 21.1569 23.1113 21.2969C22.9433 21.4275 22.7893 21.5862 22.6493 21.7729C22.5093 21.9595 22.4067 22.1649 22.3413 22.3889V26.6729H20.4653V16.4529H22.3413V20.6949C22.612 20.2189 22.976 19.8549 23.4333 19.6029C23.9 19.3415 24.4133 19.2109 24.9733 19.2109C25.4493 19.2109 25.8367 19.2949 26.1353 19.4629C26.434 19.6215 26.6673 19.8362 26.8353 20.1069C27.0033 20.3775 27.12 20.6855 27.1853 21.0309C27.2507 21.3762 27.2833 21.7309 27.2833 22.0949V26.6729ZM32.3165 26.8129C31.7285 26.8129 31.1965 26.7149 30.7205 26.5189C30.2445 26.3135 29.8385 26.0382 29.5025 25.6929C29.1665 25.3475 28.9052 24.9462 28.7185 24.4889C28.5412 24.0315 28.4525 23.5509 28.4525 23.0469C28.4525 22.5242 28.5412 22.0342 28.7185 21.5769C28.8959 21.1102 29.1525 20.7042 29.4885 20.3589C29.8245 20.0042 30.2305 19.7242 30.7065 19.5189C31.1919 19.3135 31.7332 19.2109 32.3305 19.2109C32.9279 19.2109 33.4599 19.3135 33.9265 19.5189C34.4025 19.7242 34.8039 19.9995 35.1305 20.3449C35.4665 20.6902 35.7185 21.0915 35.8865 21.5489C36.0639 22.0062 36.1525 22.4822 36.1525 22.9769C36.1525 23.0982 36.1479 23.2149 36.1385 23.3269C36.1385 23.4389 36.1292 23.5322 36.1105 23.6069H30.4405C30.4685 23.8962 30.5385 24.1529 30.6505 24.3769C30.7625 24.6009 30.9072 24.7922 31.0845 24.9509C31.2619 25.1095 31.4625 25.2309 31.6865 25.3149C31.9105 25.3989 32.1439 25.4409 32.3865 25.4409C32.7599 25.4409 33.1099 25.3522 33.4365 25.1749C33.7725 24.9882 34.0012 24.7455 34.1225 24.4469L35.7325 24.8949C35.4619 25.4549 35.0279 25.9169 34.4305 26.2809C33.8425 26.6355 33.1379 26.8129 32.3165 26.8129ZM34.2205 22.3889C34.1739 21.8382 33.9685 21.3995 33.6045 21.0729C33.2499 20.7369 32.8159 20.5689 32.3025 20.5689C32.0505 20.5689 31.8125 20.6155 31.5885 20.7089C31.3739 20.7929 31.1825 20.9142 31.0145 21.0729C30.8465 21.2315 30.7065 21.4229 30.5945 21.6469C30.4919 21.8709 30.4312 22.1182 30.4125 22.3889H34.2205ZM47.7427 25.5529C46.9494 26.3462 46.0254 26.7429 44.9707 26.7429C44.3174 26.7429 43.7014 26.6122 43.1227 26.3509C42.5534 26.0895 42.054 25.7302 41.6247 25.2729C41.2047 24.8155 40.8687 24.2789 40.6167 23.6629C40.374 23.0375 40.2527 22.3655 40.2527 21.6469C40.2527 20.9655 40.374 20.3262 40.6167 19.7289C40.8687 19.1222 41.2094 18.5949 41.6387 18.1469C42.0774 17.6895 42.5907 17.3302 43.1787 17.0689C43.7667 16.7982 44.406 16.6629 45.0967 16.6629C46.03 16.6629 46.828 16.8589 47.4907 17.2509C48.1627 17.6429 48.6667 18.1702 49.0027 18.8329L47.5607 19.8969C47.3087 19.4022 46.954 19.0242 46.4967 18.7629C46.0487 18.5015 45.5587 18.3709 45.0267 18.3709C44.6067 18.3709 44.2194 18.4595 43.8647 18.6369C43.5194 18.8142 43.2207 19.0569 42.9687 19.3649C42.726 19.6729 42.5347 20.0275 42.3947 20.4289C42.264 20.8302 42.1987 21.2549 42.1987 21.7029C42.1987 22.1695 42.2734 22.6082 42.4227 23.0189C42.572 23.4202 42.7774 23.7702 43.0387 24.0689C43.3 24.3675 43.608 24.6055 43.9627 24.7829C44.3267 24.9509 44.7187 25.0349 45.1387 25.0349C46.1 25.0349 46.968 24.5822 47.7427 23.6769V22.9769H45.7407V21.5629H49.3387V26.6729H47.7427V25.5529ZM54.1912 26.8129C53.5939 26.8129 53.0572 26.7102 52.5812 26.5049C52.1052 26.2995 51.6992 26.0242 51.3632 25.6789C51.0366 25.3242 50.7846 24.9182 50.6072 24.4609C50.4299 24.0035 50.3412 23.5229 50.3412 23.0189C50.3412 22.5055 50.4299 22.0202 50.6072 21.5629C50.7846 21.1055 51.0366 20.7042 51.3632 20.3589C51.6992 20.0042 52.1052 19.7242 52.5812 19.5189C53.0572 19.3135 53.5939 19.2109 54.1912 19.2109C54.7886 19.2109 55.3206 19.3135 55.7872 19.5189C56.2632 19.7242 56.6646 20.0042 56.9912 20.3589C57.3272 20.7042 57.5839 21.1055 57.7612 21.5629C57.9386 22.0202 58.0272 22.5055 58.0272 23.0189C58.0272 23.5229 57.9386 24.0035 57.7612 24.4609C57.5839 24.9182 57.3319 25.3242 57.0052 25.6789C56.6786 26.0242 56.2772 26.2995 55.8012 26.5049C55.3252 26.7102 54.7886 26.8129 54.1912 26.8129ZM52.2732 23.0189C52.2732 23.3455 52.3199 23.6442 52.4132 23.9149C52.5159 24.1762 52.6512 24.4049 52.8192 24.6009C52.9966 24.7969 53.2019 24.9509 53.4352 25.0629C53.6686 25.1655 53.9206 25.2169 54.1912 25.2169C54.4619 25.2169 54.7139 25.1655 54.9472 25.0629C55.1806 24.9509 55.3812 24.7969 55.5492 24.6009C55.7266 24.4049 55.8619 24.1715 55.9552 23.9009C56.0579 23.6302 56.1092 23.3315 56.1092 23.0049C56.1092 22.6875 56.0579 22.3935 55.9552 22.1229C55.8619 21.8522 55.7266 21.6189 55.5492 21.4229C55.3812 21.2269 55.1806 21.0775 54.9472 20.9749C54.7139 20.8629 54.4619 20.8069 54.1912 20.8069C53.9206 20.8069 53.6686 20.8629 53.4352 20.9749C53.2019 21.0869 52.9966 21.2409 52.8192 21.4369C52.6512 21.6329 52.5159 21.8662 52.4132 22.1369C52.3199 22.4075 52.2732 22.7015 52.2732 23.0189ZM68.1337 19.3369H69.9117L66.8457 26.6729H65.3057L64.0457 23.4529L62.7997 26.6729H61.2597L58.2077 19.3369H59.9717L62.1557 24.9089L63.0517 22.5289L61.7637 19.3509H63.2757L64.0457 21.6049L64.8297 19.3509H66.3417L65.0677 22.5289L65.9497 24.9089L68.1337 19.3369ZM72.6021 26.8129C72.2474 26.8129 71.9161 26.7569 71.6081 26.6449C71.3001 26.5235 71.0341 26.3602 70.8101 26.1549C70.5861 25.9402 70.4088 25.6929 70.2781 25.4129C70.1568 25.1329 70.0961 24.8249 70.0961 24.4889C70.0961 24.1435 70.1708 23.8262 70.3201 23.5369C70.4788 23.2382 70.6934 22.9862 70.9641 22.7809C71.2441 22.5755 71.5754 22.4169 71.9581 22.3049C72.3408 22.1835 72.7608 22.1229 73.2181 22.1229C73.5448 22.1229 73.8621 22.1509 74.1701 22.2069C74.4874 22.2629 74.7674 22.3422 75.0101 22.4449V22.0249C75.0101 21.5395 74.8701 21.1662 74.5901 20.9049C74.3194 20.6435 73.9134 20.5129 73.3721 20.5129C72.9801 20.5129 72.5974 20.5829 72.2241 20.7229C71.8508 20.8629 71.4681 21.0682 71.0761 21.3389L70.5021 20.1489C71.4448 19.5235 72.4621 19.2109 73.5541 19.2109C74.6088 19.2109 75.4254 19.4722 76.0041 19.9949C76.5921 20.5082 76.8861 21.2549 76.8861 22.2349V24.5169C76.8861 24.7129 76.9188 24.8529 76.9841 24.9369C77.0588 25.0209 77.1754 25.0675 77.3341 25.0769V26.6729C77.0168 26.7382 76.7414 26.7709 76.5081 26.7709C76.1534 26.7709 75.8781 26.6915 75.6821 26.5329C75.4954 26.3742 75.3788 26.1642 75.3321 25.9029L75.2901 25.4969C74.9634 25.9262 74.5668 26.2529 74.1001 26.4769C73.6334 26.7009 73.1341 26.8129 72.6021 26.8129ZM73.1341 25.4409C73.4514 25.4409 73.7501 25.3849 74.0301 25.2729C74.3194 25.1609 74.5434 25.0115 74.7021 24.8249C74.9074 24.6662 75.0101 24.4889 75.0101 24.2929V23.4529C74.7861 23.3689 74.5434 23.3035 74.2821 23.2569C74.0208 23.2009 73.7688 23.1729 73.5261 23.1729C73.0408 23.1729 72.6441 23.2849 72.3361 23.5089C72.0281 23.7235 71.8741 23.9989 71.8741 24.3349C71.8741 24.6522 71.9954 24.9182 72.2381 25.1329C72.4808 25.3382 72.7794 25.4409 73.1341 25.4409ZM85.4572 26.6729H83.5812V22.5569C83.5812 21.9689 83.4785 21.5395 83.2732 21.2689C83.0678 20.9982 82.7832 20.8629 82.4192 20.8629C82.2325 20.8629 82.0412 20.9002 81.8452 20.9749C81.6492 21.0495 81.4625 21.1569 81.2852 21.2969C81.1172 21.4275 80.9632 21.5862 80.8232 21.7729C80.6832 21.9595 80.5805 22.1649 80.5152 22.3889V26.6729H78.6392V19.3369H80.3332V20.6949C80.6038 20.2282 80.9958 19.8642 81.5092 19.6029C82.0225 19.3415 82.6012 19.2109 83.2452 19.2109C83.7025 19.2109 84.0758 19.2949 84.3652 19.4629C84.6545 19.6309 84.8785 19.8502 85.0372 20.1209C85.1958 20.3915 85.3032 20.6995 85.3592 21.0449C85.4245 21.3902 85.4572 21.7402 85.4572 22.0949V26.6729ZM89.3284 26.8129C88.5724 26.8129 87.9984 26.5702 87.6064 26.0849C87.2144 25.5995 87.0184 24.8809 87.0184 23.9289V19.3369H88.8944V23.5229C88.8944 24.6522 89.3004 25.2169 90.1124 25.2169C90.4764 25.2169 90.8264 25.1095 91.1624 24.8949C91.5077 24.6709 91.7877 24.3349 92.0024 23.8869V19.3369H93.8784V24.5169C93.8784 24.7129 93.911 24.8529 93.9764 24.9369C94.051 25.0209 94.1677 25.0675 94.3264 25.0769V26.6729C94.1397 26.7102 93.981 26.7335 93.8504 26.7429C93.729 26.7522 93.617 26.7569 93.5144 26.7569C93.1784 26.7569 92.903 26.6822 92.6884 26.5329C92.483 26.3742 92.3617 26.1595 92.3244 25.8889L92.2824 25.3009C91.9557 25.8049 91.5357 26.1829 91.0224 26.4349C90.509 26.6869 89.9444 26.8129 89.3284 26.8129ZM98.5147 26.8129C97.8987 26.8129 97.2967 26.7149 96.7087 26.5189C96.1207 26.3229 95.6167 26.0429 95.1967 25.6789L95.8967 24.5029C96.3447 24.8202 96.7787 25.0629 97.1987 25.2309C97.628 25.3895 98.0527 25.4689 98.4727 25.4689C98.846 25.4689 99.14 25.3989 99.3547 25.2589C99.5693 25.1189 99.6767 24.9182 99.6767 24.6569C99.6767 24.3955 99.5507 24.2042 99.2987 24.0829C99.0467 23.9615 98.636 23.8215 98.0667 23.6629C97.5907 23.5322 97.1847 23.4062 96.8487 23.2849C96.5127 23.1635 96.242 23.0282 96.0367 22.8789C95.8313 22.7202 95.682 22.5429 95.5887 22.3469C95.4953 22.1415 95.4487 21.8989 95.4487 21.6189C95.4487 21.2455 95.5187 20.9095 95.6587 20.6109C95.808 20.3122 96.0133 20.0602 96.2747 19.8549C96.536 19.6402 96.8393 19.4769 97.1847 19.3649C97.5393 19.2529 97.922 19.1969 98.3327 19.1969C98.8833 19.1969 99.3967 19.2762 99.8727 19.4349C100.358 19.5935 100.801 19.8502 101.203 20.2049L100.447 21.3389C100.073 21.0589 99.7093 20.8535 99.3547 20.7229C99.0093 20.5922 98.664 20.5269 98.3187 20.5269C98.0013 20.5269 97.7353 20.5922 97.5207 20.7229C97.306 20.8535 97.1987 21.0635 97.1987 21.3529C97.1987 21.4835 97.222 21.5909 97.2687 21.6749C97.3247 21.7589 97.4087 21.8335 97.5207 21.8989C97.6327 21.9642 97.7773 22.0295 97.9547 22.0949C98.1413 22.1509 98.37 22.2115 98.6407 22.2769C99.1447 22.4075 99.574 22.5382 99.9287 22.6689C100.293 22.7995 100.587 22.9489 100.811 23.1169C101.044 23.2849 101.212 23.4809 101.315 23.7049C101.427 23.9195 101.483 24.1809 101.483 24.4889C101.483 25.2075 101.217 25.7769 100.685 26.1969C100.153 26.6075 99.4293 26.8129 98.5147 26.8129ZM113.149 24.9789V26.6729H106.247V16.7329H113.023V18.4269H108.179V20.8209H112.365V22.3889H108.179V24.9789H113.149ZM114.185 23.6769V21.9829H118.427V23.6769H114.185ZM128.946 19.3369H130.724L127.658 26.6729H126.118L124.858 23.4529L123.612 26.6729H122.072L119.02 19.3369H120.784L122.968 24.9089L123.864 22.5289L122.576 19.3509H124.088L124.858 21.6049L125.642 19.3509H127.154L125.88 22.5289L126.762 24.9089L128.946 19.3369ZM133.415 26.8129C133.06 26.8129 132.729 26.7569 132.421 26.6449C132.113 26.5235 131.847 26.3602 131.623 26.1549C131.399 25.9402 131.221 25.6929 131.091 25.4129C130.969 25.1329 130.909 24.8249 130.909 24.4889C130.909 24.1435 130.983 23.8262 131.133 23.5369C131.291 23.2382 131.506 22.9862 131.777 22.7809C132.057 22.5755 132.388 22.4169 132.771 22.3049C133.153 22.1835 133.573 22.1229 134.031 22.1229C134.357 22.1229 134.675 22.1509 134.983 22.2069C135.3 22.2629 135.58 22.3422 135.823 22.4449V22.0249C135.823 21.5395 135.683 21.1662 135.403 20.9049C135.132 20.6435 134.726 20.5129 134.185 20.5129C133.793 20.5129 133.41 20.5829 133.037 20.7229C132.663 20.8629 132.281 21.0682 131.889 21.3389L131.315 20.1489C132.257 19.5235 133.275 19.2109 134.367 19.2109C135.421 19.2109 136.238 19.4722 136.817 19.9949C137.405 20.5082 137.699 21.2549 137.699 22.2349V24.5169C137.699 24.7129 137.731 24.8529 137.797 24.9369C137.871 25.0209 137.988 25.0675 138.147 25.0769V26.6729C137.829 26.7382 137.554 26.7709 137.321 26.7709C136.966 26.7709 136.691 26.6915 136.495 26.5329C136.308 26.3742 136.191 26.1642 136.145 25.9029L136.103 25.4969C135.776 25.9262 135.379 26.2529 134.913 26.4769C134.446 26.7009 133.947 26.8129 133.415 26.8129ZM133.947 25.4409C134.264 25.4409 134.563 25.3849 134.843 25.2729C135.132 25.1609 135.356 25.0115 135.515 24.8249C135.72 24.6662 135.823 24.4889 135.823 24.2929V23.4529C135.599 23.3689 135.356 23.3035 135.095 23.2569C134.833 23.2009 134.581 23.1729 134.339 23.1729C133.853 23.1729 133.457 23.2849 133.149 23.5089C132.841 23.7235 132.687 23.9989 132.687 24.3349C132.687 24.6522 132.808 24.9182 133.051 25.1329C133.293 25.3382 133.592 25.4409 133.947 25.4409ZM142.224 26.8129C141.608 26.8129 141.006 26.7149 140.418 26.5189C139.83 26.3229 139.326 26.0429 138.906 25.6789L139.606 24.5029C140.054 24.8202 140.488 25.0629 140.908 25.2309C141.337 25.3895 141.762 25.4689 142.182 25.4689C142.555 25.4689 142.849 25.3989 143.064 25.2589C143.278 25.1189 143.386 24.9182 143.386 24.6569C143.386 24.3955 143.26 24.2042 143.008 24.0829C142.756 23.9615 142.345 23.8215 141.776 23.6629C141.3 23.5322 140.894 23.4062 140.558 23.2849C140.222 23.1635 139.951 23.0282 139.746 22.8789C139.54 22.7202 139.391 22.5429 139.298 22.3469C139.204 22.1415 139.158 21.8989 139.158 21.6189C139.158 21.2455 139.228 20.9095 139.368 20.6109C139.517 20.3122 139.722 20.0602 139.984 19.8549C140.245 19.6402 140.548 19.4769 140.894 19.3649C141.248 19.2529 141.631 19.1969 142.042 19.1969C142.592 19.1969 143.106 19.2762 143.582 19.4349C144.067 19.5935 144.51 19.8502 144.912 20.2049L144.156 21.3389C143.782 21.0589 143.418 20.8535 143.064 20.7229C142.718 20.5922 142.373 20.5269 142.028 20.5269C141.71 20.5269 141.444 20.5922 141.23 20.7229C141.015 20.8535 140.908 21.0635 140.908 21.3529C140.908 21.4835 140.931 21.5909 140.978 21.6749C141.034 21.7589 141.118 21.8335 141.23 21.8989C141.342 21.9642 141.486 22.0295 141.664 22.0949C141.85 22.1509 142.079 22.2115 142.35 22.2769C142.854 22.4075 143.283 22.5382 143.638 22.6689C144.002 22.7995 144.296 22.9489 144.52 23.1169C144.753 23.2849 144.921 23.4809 145.024 23.7049C145.136 23.9195 145.192 24.1809 145.192 24.4889C145.192 25.2075 144.926 25.7769 144.394 26.1969C143.862 26.6075 143.138 26.8129 142.224 26.8129ZM150.807 26.2949C150.555 26.4069 150.247 26.5189 149.883 26.6309C149.519 26.7429 149.136 26.7989 148.735 26.7989C148.473 26.7989 148.226 26.7662 147.993 26.7009C147.769 26.6355 147.568 26.5329 147.391 26.3929C147.223 26.2435 147.087 26.0569 146.985 25.8329C146.882 25.5995 146.831 25.3195 146.831 24.9929V20.7789H145.865V19.3369H146.831V16.9569H148.707V19.3369H150.247V20.7789H148.707V24.3629C148.707 24.6242 148.772 24.8109 148.903 24.9229C149.043 25.0255 149.211 25.0769 149.407 25.0769C149.603 25.0769 149.794 25.0442 149.981 24.9789C150.167 24.9135 150.317 24.8575 150.429 24.8109L150.807 26.2949ZM155.008 26.8129C154.42 26.8129 153.888 26.7149 153.412 26.5189C152.936 26.3135 152.53 26.0382 152.194 25.6929C151.858 25.3475 151.597 24.9462 151.41 24.4889C151.233 24.0315 151.144 23.5509 151.144 23.0469C151.144 22.5242 151.233 22.0342 151.41 21.5769C151.587 21.1102 151.844 20.7042 152.18 20.3589C152.516 20.0042 152.922 19.7242 153.398 19.5189C153.883 19.3135 154.425 19.2109 155.022 19.2109C155.619 19.2109 156.151 19.3135 156.618 19.5189C157.094 19.7242 157.495 19.9995 157.822 20.3449C158.158 20.6902 158.41 21.0915 158.578 21.5489C158.755 22.0062 158.844 22.4822 158.844 22.9769C158.844 23.0982 158.839 23.2149 158.83 23.3269C158.83 23.4389 158.821 23.5322 158.802 23.6069H153.132C153.16 23.8962 153.23 24.1529 153.342 24.3769C153.454 24.6009 153.599 24.7922 153.776 24.9509C153.953 25.1095 154.154 25.2309 154.378 25.3149C154.602 25.3989 154.835 25.4409 155.078 25.4409C155.451 25.4409 155.801 25.3522 156.128 25.1749C156.464 24.9882 156.693 24.7455 156.814 24.4469L158.424 24.8949C158.153 25.4549 157.719 25.9169 157.122 26.2809C156.534 26.6355 155.829 26.8129 155.008 26.8129ZM156.912 22.3889C156.865 21.8382 156.66 21.3995 156.296 21.0729C155.941 20.7369 155.507 20.5689 154.994 20.5689C154.742 20.5689 154.504 20.6155 154.28 20.7089C154.065 20.7929 153.874 20.9142 153.706 21.0729C153.538 21.2315 153.398 21.4229 153.286 21.6469C153.183 21.8709 153.123 22.1182 153.104 22.3889H156.912ZM15.4094 34.7609H17.1874L18.3074 38.0509L19.4274 34.7609H21.2194L19.5254 39.2829L20.7854 42.4609L23.5994 34.7329H25.6994L21.6534 44.6729H20.0294L18.3074 40.5009L16.5854 44.6729H14.9614L10.9434 34.7329H13.0154L15.8434 42.4609L17.0754 39.2829L15.4094 34.7609ZM27.8404 44.8129C27.4857 44.8129 27.1544 44.7569 26.8464 44.6449C26.5384 44.5235 26.2724 44.3602 26.0484 44.1549C25.8244 43.9402 25.647 43.6929 25.5164 43.4129C25.395 43.1329 25.3344 42.8249 25.3344 42.4889C25.3344 42.1435 25.409 41.8262 25.5584 41.5369C25.717 41.2382 25.9317 40.9862 26.2024 40.7809C26.4824 40.5755 26.8137 40.4169 27.1964 40.3049C27.579 40.1835 27.999 40.1229 28.4564 40.1229C28.783 40.1229 29.1004 40.1509 29.4084 40.2069C29.7257 40.2629 30.0057 40.3422 30.2484 40.4449V40.0249C30.2484 39.5395 30.1084 39.1662 29.8284 38.9049C29.5577 38.6435 29.1517 38.5129 28.6104 38.5129C28.2184 38.5129 27.8357 38.5829 27.4624 38.7229C27.089 38.8629 26.7064 39.0682 26.3144 39.3389L25.7404 38.1489C26.683 37.5235 27.7004 37.2109 28.7924 37.2109C29.847 37.2109 30.6637 37.4722 31.2424 37.9949C31.8304 38.5082 32.1244 39.2549 32.1244 40.2349V42.5169C32.1244 42.7129 32.157 42.8529 32.2224 42.9369C32.297 43.0209 32.4137 43.0675 32.5724 43.0769V44.6729C32.255 44.7382 31.9797 44.7709 31.7464 44.7709C31.3917 44.7709 31.1164 44.6915 30.9204 44.5329C30.7337 44.3742 30.617 44.1642 30.5704 43.9029L30.5284 43.4969C30.2017 43.9262 29.805 44.2529 29.3384 44.4769C28.8717 44.7009 28.3724 44.8129 27.8404 44.8129ZM28.3724 43.4409C28.6897 43.4409 28.9884 43.3849 29.2684 43.2729C29.5577 43.1609 29.7817 43.0115 29.9404 42.8249C30.1457 42.6662 30.2484 42.4889 30.2484 42.2929V41.4529C30.0244 41.3689 29.7817 41.3035 29.5204 41.2569C29.259 41.2009 29.007 41.1729 28.7644 41.1729C28.279 41.1729 27.8824 41.2849 27.5744 41.5089C27.2664 41.7235 27.1124 41.9989 27.1124 42.3349C27.1124 42.6522 27.2337 42.9182 27.4764 43.1329C27.719 43.3382 28.0177 43.4409 28.3724 43.4409ZM38.2454 38.9609C37.6761 38.9702 37.1674 39.0822 36.7194 39.2969C36.2714 39.5022 35.9494 39.8149 35.7534 40.2349V44.6729H33.8774V37.3369H35.5994V38.9049C35.7301 38.6529 35.8841 38.4289 36.0614 38.2329C36.2388 38.0275 36.4301 37.8502 36.6354 37.7009C36.8408 37.5515 37.0461 37.4395 37.2514 37.3649C37.4661 37.2809 37.6714 37.2389 37.8674 37.2389C37.9701 37.2389 38.0448 37.2389 38.0914 37.2389C38.1474 37.2389 38.1988 37.2435 38.2454 37.2529V38.9609ZM42.3244 44.8129C41.7364 44.8129 41.2044 44.7149 40.7284 44.5189C40.2524 44.3135 39.8464 44.0382 39.5104 43.6929C39.1744 43.3475 38.913 42.9462 38.7264 42.4889C38.549 42.0315 38.4604 41.5509 38.4604 41.0469C38.4604 40.5242 38.549 40.0342 38.7264 39.5769C38.9037 39.1102 39.1604 38.7042 39.4964 38.3589C39.8324 38.0042 40.2384 37.7242 40.7144 37.5189C41.1997 37.3135 41.741 37.2109 42.3384 37.2109C42.9357 37.2109 43.4677 37.3135 43.9344 37.5189C44.4104 37.7242 44.8117 37.9995 45.1384 38.3449C45.4744 38.6902 45.7264 39.0915 45.8944 39.5489C46.0717 40.0062 46.1604 40.4822 46.1604 40.9769C46.1604 41.0982 46.1557 41.2149 46.1464 41.3269C46.1464 41.4389 46.137 41.5322 46.1184 41.6069H40.4484C40.4764 41.8962 40.5464 42.1529 40.6584 42.3769C40.7704 42.6009 40.915 42.7922 41.0924 42.9509C41.2697 43.1095 41.4704 43.2309 41.6944 43.3149C41.9184 43.3989 42.1517 43.4409 42.3944 43.4409C42.7677 43.4409 43.1177 43.3522 43.4444 43.1749C43.7804 42.9882 44.009 42.7455 44.1304 42.4469L45.7404 42.8949C45.4697 43.4549 45.0357 43.9169 44.4384 44.2809C43.8504 44.6355 43.1457 44.8129 42.3244 44.8129ZM44.2284 40.3889C44.1817 39.8382 43.9764 39.3995 43.6124 39.0729C43.2577 38.7369 42.8237 38.5689 42.3104 38.5689C42.0584 38.5689 41.8204 38.6155 41.5964 38.7089C41.3817 38.7929 41.1904 38.9142 41.0224 39.0729C40.8544 39.2315 40.7144 39.4229 40.6024 39.6469C40.4997 39.8709 40.439 40.1182 40.4204 40.3889H44.2284ZM54.1212 44.6729H52.2452V40.5569C52.2452 39.9782 52.1379 39.5535 51.9232 39.2829C51.7086 39.0029 51.4052 38.8629 51.0132 38.8629C50.8452 38.8629 50.6679 38.9002 50.4812 38.9749C50.2946 39.0495 50.1172 39.1569 49.9492 39.2969C49.7812 39.4275 49.6272 39.5862 49.4872 39.7729C49.3472 39.9595 49.2446 40.1649 49.1792 40.3889V44.6729H47.3032V34.4529H49.1792V38.6949C49.4499 38.2189 49.8139 37.8549 50.2712 37.6029C50.7379 37.3415 51.2512 37.2109 51.8112 37.2109C52.2872 37.2109 52.6746 37.2949 52.9732 37.4629C53.2719 37.6215 53.5052 37.8362 53.6732 38.1069C53.8412 38.3775 53.9579 38.6855 54.0232 39.0309C54.0886 39.3762 54.1212 39.7309 54.1212 40.0949V44.6729ZM59.1404 44.8129C58.5431 44.8129 58.0064 44.7102 57.5304 44.5049C57.0544 44.2995 56.6484 44.0242 56.3124 43.6789C55.9858 43.3242 55.7338 42.9182 55.5564 42.4609C55.3791 42.0035 55.2904 41.5229 55.2904 41.0189C55.2904 40.5055 55.3791 40.0202 55.5564 39.5629C55.7338 39.1055 55.9858 38.7042 56.3124 38.3589C56.6484 38.0042 57.0544 37.7242 57.5304 37.5189C58.0064 37.3135 58.5431 37.2109 59.1404 37.2109C59.7378 37.2109 60.2698 37.3135 60.7364 37.5189C61.2124 37.7242 61.6138 38.0042 61.9404 38.3589C62.2764 38.7042 62.5331 39.1055 62.7104 39.5629C62.8878 40.0202 62.9764 40.5055 62.9764 41.0189C62.9764 41.5229 62.8878 42.0035 62.7104 42.4609C62.5331 42.9182 62.2811 43.3242 61.9544 43.6789C61.6278 44.0242 61.2264 44.2995 60.7504 44.5049C60.2744 44.7102 59.7378 44.8129 59.1404 44.8129ZM57.2224 41.0189C57.2224 41.3455 57.2691 41.6442 57.3624 41.9149C57.4651 42.1762 57.6004 42.4049 57.7684 42.6009C57.9458 42.7969 58.1511 42.9509 58.3844 43.0629C58.6178 43.1655 58.8698 43.2169 59.1404 43.2169C59.4111 43.2169 59.6631 43.1655 59.8964 43.0629C60.1298 42.9509 60.3304 42.7969 60.4984 42.6009C60.6758 42.4049 60.8111 42.1715 60.9044 41.9009C61.0071 41.6302 61.0584 41.3315 61.0584 41.0049C61.0584 40.6875 61.0071 40.3935 60.9044 40.1229C60.8111 39.8522 60.6758 39.6189 60.4984 39.4229C60.3304 39.2269 60.1298 39.0775 59.8964 38.9749C59.6631 38.8629 59.4111 38.8069 59.1404 38.8069C58.8698 38.8069 58.6178 38.8629 58.3844 38.9749C58.1511 39.0869 57.9458 39.2409 57.7684 39.4369C57.6004 39.6329 57.4651 39.8662 57.3624 40.1369C57.2691 40.4075 57.2224 40.7015 57.2224 41.0189ZM66.4827 44.8129C65.7267 44.8129 65.1527 44.5702 64.7607 44.0849C64.3687 43.5995 64.1727 42.8809 64.1727 41.9289V37.3369H66.0487V41.5229C66.0487 42.6522 66.4547 43.2169 67.2667 43.2169C67.6307 43.2169 67.9807 43.1095 68.3167 42.8949C68.662 42.6709 68.942 42.3349 69.1567 41.8869V37.3369H71.0327V42.5169C71.0327 42.7129 71.0653 42.8529 71.1307 42.9369C71.2053 43.0209 71.322 43.0675 71.4807 43.0769V44.6729C71.294 44.7102 71.1353 44.7335 71.0047 44.7429C70.8833 44.7522 70.7713 44.7569 70.6687 44.7569C70.3327 44.7569 70.0573 44.6822 69.8427 44.5329C69.6373 44.3742 69.516 44.1595 69.4787 43.8889L69.4367 43.3009C69.11 43.8049 68.69 44.1829 68.1767 44.4349C67.6633 44.6869 67.0987 44.8129 66.4827 44.8129ZM75.669 44.8129C75.053 44.8129 74.451 44.7149 73.863 44.5189C73.275 44.3229 72.771 44.0429 72.351 43.6789L73.051 42.5029C73.499 42.8202 73.933 43.0629 74.353 43.2309C74.7823 43.3895 75.207 43.4689 75.627 43.4689C76.0003 43.4689 76.2943 43.3989 76.509 43.2589C76.7236 43.1189 76.831 42.9182 76.831 42.6569C76.831 42.3955 76.705 42.2042 76.453 42.0829C76.201 41.9615 75.7903 41.8215 75.221 41.6629C74.745 41.5322 74.339 41.4062 74.003 41.2849C73.667 41.1635 73.3963 41.0282 73.191 40.8789C72.9856 40.7202 72.8363 40.5429 72.743 40.3469C72.6496 40.1415 72.603 39.8989 72.603 39.6189C72.603 39.2455 72.673 38.9095 72.813 38.6109C72.9623 38.3122 73.1676 38.0602 73.429 37.8549C73.6903 37.6402 73.9936 37.4769 74.339 37.3649C74.6936 37.2529 75.0763 37.1969 75.487 37.1969C76.0376 37.1969 76.551 37.2762 77.027 37.4349C77.5123 37.5935 77.9556 37.8502 78.357 38.2049L77.601 39.3389C77.2276 39.0589 76.8636 38.8535 76.509 38.7229C76.1636 38.5922 75.8183 38.5269 75.473 38.5269C75.1556 38.5269 74.8896 38.5922 74.675 38.7229C74.4603 38.8535 74.353 39.0635 74.353 39.3529C74.353 39.4835 74.3763 39.5909 74.423 39.6749C74.479 39.7589 74.563 39.8335 74.675 39.8989C74.787 39.9642 74.9316 40.0295 75.109 40.0949C75.2956 40.1509 75.5243 40.2115 75.795 40.2769C76.299 40.4075 76.7283 40.5382 77.083 40.6689C77.447 40.7995 77.741 40.9489 77.965 41.1169C78.1983 41.2849 78.3663 41.4809 78.469 41.7049C78.581 41.9195 78.637 42.1809 78.637 42.4889C78.637 43.2075 78.371 43.7769 77.839 44.1969C77.307 44.6075 76.5836 44.8129 75.669 44.8129ZM83.258 44.8129C82.67 44.8129 82.138 44.7149 81.662 44.5189C81.186 44.3135 80.78 44.0382 80.444 43.6929C80.108 43.3475 79.8466 42.9462 79.66 42.4889C79.4826 42.0315 79.394 41.5509 79.394 41.0469C79.394 40.5242 79.4826 40.0342 79.66 39.5769C79.8373 39.1102 80.094 38.7042 80.43 38.3589C80.766 38.0042 81.172 37.7242 81.648 37.5189C82.1333 37.3135 82.6746 37.2109 83.272 37.2109C83.8693 37.2109 84.4013 37.3135 84.868 37.5189C85.344 37.7242 85.7453 37.9995 86.072 38.3449C86.408 38.6902 86.66 39.0915 86.828 39.5489C87.0053 40.0062 87.094 40.4822 87.094 40.9769C87.094 41.0982 87.0893 41.2149 87.08 41.3269C87.08 41.4389 87.0706 41.5322 87.052 41.6069H81.382C81.41 41.8962 81.48 42.1529 81.592 42.3769C81.704 42.6009 81.8486 42.7922 82.026 42.9509C82.2033 43.1095 82.404 43.2309 82.628 43.3149C82.852 43.3989 83.0853 43.4409 83.328 43.4409C83.7013 43.4409 84.0513 43.3522 84.378 43.1749C84.714 42.9882 84.9426 42.7455 85.064 42.4469L86.674 42.8949C86.4033 43.4549 85.9693 43.9169 85.372 44.2809C84.784 44.6355 84.0793 44.8129 83.258 44.8129ZM85.162 40.3889C85.1153 39.8382 84.91 39.3995 84.546 39.0729C84.1913 38.7369 83.7573 38.5689 83.244 38.5689C82.992 38.5689 82.754 38.6155 82.53 38.7089C82.3153 38.7929 82.124 38.9142 81.956 39.0729C81.788 39.2315 81.648 39.4229 81.536 39.6469C81.4333 39.8709 81.3726 40.1182 81.354 40.3889H85.162Z" fill="#5C5C5C"/>
</g>
<g filter="url(#filter1_d)">
<path d="M240 51C240 46.5817 243.582 43 248 43H362C366.418 43 370 46.5817 370 51V57C370 61.4183 366.418 65 362 65H248C243.582 65 240 61.4183 240 57V51Z" fill="#246B6D"/>
<path d="M350.713 47L349 48.645L354.563 54L349 59.355L350.713 61L358 54L350.713 47Z" fill="white"/>
<path d="M270.293 50.8965V56.5332H271.957C272.808 56.5332 273.402 56.1133 273.738 55.2734C273.921 54.8125 274.013 54.2637 274.013 53.627C274.013 52.748 273.875 52.0742 273.597 51.6055C273.324 51.1328 272.777 50.8965 271.957 50.8965H270.293ZM272.261 49.3965C272.796 49.4043 273.242 49.4668 273.597 49.584C274.203 49.7832 274.693 50.1484 275.068 50.6797C275.369 51.1094 275.574 51.5742 275.683 52.0742C275.793 52.5742 275.847 53.0508 275.847 53.5039C275.847 54.6523 275.617 55.625 275.156 56.4219C274.531 57.4961 273.566 58.0332 272.261 58.0332H268.541V49.3965H272.261ZM278.794 50.8848H277.101V49.3438H278.794V50.8848ZM277.101 51.6465H278.794V58.0332H277.101V51.6465ZM283.886 51.4941C283.918 51.4941 283.943 51.4961 283.962 51.5C283.986 51.5 284.035 51.502 284.109 51.5059V53.2168C284.003 53.2051 283.91 53.1973 283.828 53.1934C283.746 53.1895 283.679 53.1875 283.628 53.1875C282.957 53.1875 282.505 53.4062 282.275 53.8438C282.146 54.0898 282.082 54.4688 282.082 54.9805V58.0332H280.4V51.6465H281.994V52.7598C282.252 52.334 282.476 52.043 282.668 51.8867C282.98 51.625 283.386 51.4941 283.886 51.4941ZM287.613 52.8535C287.226 52.8535 286.925 52.9746 286.711 53.2168C286.5 53.459 286.367 53.7871 286.312 54.2012H288.908C288.88 53.7598 288.746 53.4258 288.503 53.1992C288.265 52.9688 287.968 52.8535 287.613 52.8535ZM287.613 51.4766C288.144 51.4766 288.623 51.5762 289.048 51.7754C289.474 51.9746 289.826 52.2891 290.103 52.7188C290.353 53.0977 290.515 53.5371 290.589 54.0371C290.632 54.3301 290.65 54.752 290.642 55.3027H286.271C286.294 55.9434 286.496 56.3926 286.875 56.6504C287.105 56.8105 287.382 56.8906 287.707 56.8906C288.05 56.8906 288.33 56.793 288.544 56.5977C288.662 56.4922 288.765 56.3457 288.855 56.1582H290.56C290.517 56.5371 290.32 56.9219 289.968 57.3125C289.421 57.9336 288.656 58.2441 287.671 58.2441C286.859 58.2441 286.142 57.9824 285.521 57.459C284.9 56.9355 284.589 56.084 284.589 54.9043C284.589 53.7988 284.869 52.9512 285.427 52.3613C285.99 51.7715 286.718 51.4766 287.613 51.4766ZM295.587 53.9375C295.556 53.6992 295.476 53.4844 295.347 53.293C295.16 53.0352 294.869 52.9062 294.474 52.9062C293.912 52.9062 293.527 53.1855 293.32 53.7441C293.211 54.041 293.156 54.4355 293.156 54.9277C293.156 55.3965 293.211 55.7734 293.32 56.0586C293.519 56.5898 293.894 56.8555 294.445 56.8555C294.836 56.8555 295.113 56.75 295.277 56.5391C295.441 56.3281 295.541 56.0547 295.576 55.7188H297.281C297.242 56.2266 297.058 56.707 296.73 57.1602C296.207 57.8906 295.431 58.2559 294.404 58.2559C293.377 58.2559 292.621 57.9512 292.136 57.3418C291.652 56.7324 291.41 55.9414 291.41 54.9688C291.41 53.8711 291.677 53.0176 292.212 52.4082C292.748 51.7988 293.486 51.4941 294.427 51.4941C295.228 51.4941 295.882 51.6738 296.39 52.0332C296.902 52.3926 297.205 53.0273 297.298 53.9375H295.587ZM297.796 52.8945V51.7051H298.687V49.9238H300.339V51.7051H301.377V52.8945H300.339V56.2695C300.339 56.5312 300.373 56.6953 300.439 56.7617C300.505 56.8242 300.709 56.8555 301.048 56.8555C301.099 56.8555 301.152 56.8555 301.207 56.8555C301.265 56.8516 301.322 56.8477 301.377 56.8438V58.0918L300.586 58.1211C299.796 58.1484 299.257 58.0117 298.968 57.7109C298.781 57.5195 298.687 57.2246 298.687 56.8262V52.8945H297.796ZM304.166 50.8848H302.472V49.3438H304.166V50.8848ZM302.472 51.6465H304.166V58.0332H302.472V51.6465ZM308.654 56.8555C309.142 56.8555 309.517 56.6816 309.779 56.334C310.041 55.9863 310.171 55.4922 310.171 54.8516C310.171 54.2109 310.041 53.7188 309.779 53.375C309.517 53.0273 309.142 52.8535 308.654 52.8535C308.166 52.8535 307.789 53.0273 307.523 53.375C307.261 53.7188 307.13 54.2109 307.13 54.8516C307.13 55.4922 307.261 55.9863 307.523 56.334C307.789 56.6816 308.166 56.8555 308.654 56.8555ZM311.923 54.8516C311.923 55.7891 311.654 56.5918 311.115 57.2598C310.576 57.9238 309.757 58.2559 308.66 58.2559C307.562 58.2559 306.744 57.9238 306.205 57.2598C305.666 56.5918 305.396 55.7891 305.396 54.8516C305.396 53.9297 305.666 53.1309 306.205 52.4551C306.744 51.7793 307.562 51.4414 308.66 51.4414C309.757 51.4414 310.576 51.7793 311.115 52.4551C311.654 53.1309 311.923 53.9297 311.923 54.8516ZM316.664 51.4941C317.324 51.4941 317.863 51.668 318.281 52.0156C318.703 52.3594 318.914 52.9316 318.914 53.7324V58.0332H317.203V54.1484C317.203 53.8125 317.158 53.5547 317.068 53.375C316.904 53.0469 316.591 52.8828 316.13 52.8828C315.564 52.8828 315.175 53.123 314.964 53.6035C314.855 53.8574 314.8 54.1816 314.8 54.5762V58.0332H313.136V51.6582H314.748V52.5898C314.962 52.2617 315.166 52.0254 315.357 51.8809C315.701 51.623 316.136 51.4941 316.664 51.4941ZM321.761 55.9941C321.796 56.291 321.873 56.502 321.99 56.627C322.197 56.8496 322.58 56.9609 323.138 56.9609C323.466 56.9609 323.726 56.9121 323.918 56.8145C324.113 56.7168 324.211 56.5703 324.211 56.375C324.211 56.1875 324.132 56.0449 323.976 55.9473C323.82 55.8496 323.24 55.6816 322.236 55.4434C321.513 55.2637 321.003 55.0391 320.707 54.7695C320.41 54.5039 320.261 54.1211 320.261 53.6211C320.261 53.0312 320.492 52.5254 320.953 52.1035C321.418 51.6777 322.07 51.4648 322.91 51.4648C323.707 51.4648 324.355 51.625 324.855 51.9453C325.359 52.2617 325.648 52.8105 325.722 53.5918H324.052C324.029 53.377 323.968 53.207 323.871 53.082C323.687 52.8555 323.375 52.7422 322.933 52.7422C322.57 52.7422 322.31 52.7988 322.154 52.9121C322.002 53.0254 321.925 53.1582 321.925 53.3105C321.925 53.502 322.007 53.6406 322.171 53.7266C322.336 53.8164 322.916 53.9707 323.912 54.1895C324.576 54.3457 325.074 54.582 325.406 54.8984C325.734 55.2188 325.898 55.6191 325.898 56.0996C325.898 56.7324 325.662 57.25 325.189 57.6523C324.72 58.0508 323.994 58.25 323.009 58.25C322.005 58.25 321.263 58.0391 320.783 57.6172C320.306 57.1914 320.068 56.6504 320.068 55.9941H321.761Z" fill="white"/>
</g>
<g filter="url(#filter2_d)">
<path d="M240 79.3271C240 74.9089 243.582 71.3271 248 71.3271H362C366.418 71.3271 370 74.9089 370 79.3271V85.3271C370 89.7454 366.418 93.3271 362 93.3271H248C243.582 93.3271 240 89.7454 240 85.3271V79.3271Z" fill="white"/>
<path d="M286.517 82.1123C286.517 80.6045 286.921 79.4424 287.73 78.626C288.433 77.915 289.328 77.5596 290.414 77.5596C291.867 77.5596 292.929 78.0361 293.601 78.9893C293.972 79.5244 294.171 80.0615 294.199 80.6006H292.394C292.277 80.1865 292.127 79.874 291.943 79.6631C291.615 79.2881 291.128 79.1006 290.484 79.1006C289.828 79.1006 289.31 79.3662 288.931 79.8975C288.552 80.4248 288.363 81.1729 288.363 82.1416C288.363 83.1104 288.562 83.8369 288.961 84.3213C289.363 84.8018 289.873 85.042 290.49 85.042C291.123 85.042 291.605 84.835 291.937 84.4209C292.121 84.1982 292.273 83.8643 292.394 83.4189H294.181C294.025 84.3604 293.625 85.126 292.98 85.7158C292.339 86.3057 291.517 86.6006 290.513 86.6006C289.271 86.6006 288.294 86.2021 287.584 85.4053C286.873 84.6045 286.517 83.5068 286.517 82.1123ZM298.951 83.2549C298.845 83.3213 298.738 83.376 298.628 83.4189C298.523 83.458 298.377 83.4951 298.189 83.5303L297.814 83.6006C297.462 83.6631 297.211 83.7393 297.058 83.8291C296.8 83.9814 296.671 84.2178 296.671 84.5381C296.671 84.8232 296.75 85.0303 296.906 85.1592C297.066 85.2842 297.259 85.3467 297.486 85.3467C297.845 85.3467 298.175 85.2412 298.476 85.0303C298.781 84.8193 298.939 84.4346 298.951 83.876V83.2549ZM297.937 82.4756C298.246 82.4365 298.466 82.3877 298.599 82.3291C298.837 82.2275 298.957 82.0693 298.957 81.8545C298.957 81.5928 298.865 81.4131 298.681 81.3154C298.502 81.2139 298.236 81.1631 297.884 81.1631C297.49 81.1631 297.211 81.2607 297.046 81.4561C296.929 81.6006 296.851 81.7959 296.812 82.042H295.201C295.236 81.4834 295.392 81.0244 295.669 80.665C296.111 80.1025 296.869 79.8213 297.943 79.8213C298.642 79.8213 299.263 79.96 299.806 80.2373C300.349 80.5146 300.621 81.0381 300.621 81.8076V84.7373C300.621 84.9404 300.625 85.1865 300.632 85.4756C300.644 85.6943 300.677 85.8428 300.732 85.9209C300.787 85.999 300.869 86.0635 300.978 86.1143V86.3604H299.162C299.111 86.2314 299.076 86.1104 299.056 85.9971C299.037 85.8838 299.021 85.7549 299.009 85.6104C298.779 85.8604 298.513 86.0732 298.212 86.249C297.853 86.4561 297.447 86.5596 296.994 86.5596C296.416 86.5596 295.937 86.3955 295.558 86.0674C295.183 85.7354 294.996 85.2666 294.996 84.6611C294.996 83.876 295.298 83.3076 295.904 82.9561C296.236 82.7646 296.724 82.6279 297.369 82.5459L297.937 82.4756ZM303.814 86.3604H302.144V77.7236H303.814V86.3604ZM307.154 86.3604H305.484V77.7236H307.154V86.3604Z" fill="#246B6D"/>
<path d="M359.328 77.8813L357.647 76.2026C357.529 76.0836 357.388 75.9891 357.233 75.9247C357.078 75.8603 356.911 75.8271 356.743 75.8271C356.401 75.8271 356.079 75.9613 355.838 76.2026L354.03 78.0106C353.911 78.1292 353.816 78.27 353.752 78.4252C353.687 78.5803 353.654 78.7467 353.654 78.9146C353.654 79.257 353.788 79.5788 354.03 79.8202L355.352 81.1423C355.042 81.8244 354.612 82.445 354.082 82.974C353.553 83.5056 352.932 83.9374 352.25 84.2488L350.928 82.9267C350.81 82.8076 350.669 82.7132 350.514 82.6487C350.359 82.5843 350.192 82.5511 350.024 82.5512C349.682 82.5512 349.36 82.6853 349.119 82.9267L347.309 84.7331C347.19 84.8518 347.095 84.993 347.031 85.1484C346.966 85.3038 346.933 85.4704 346.934 85.6387C346.934 85.981 347.068 86.3029 347.309 86.5443L348.986 88.2213C349.371 88.6079 349.903 88.8271 350.449 88.8271C350.564 88.8271 350.674 88.8177 350.783 88.7988C352.91 88.4485 355.019 87.3173 356.721 85.6166C358.422 83.9174 359.552 81.8097 359.907 79.6767C360.014 79.0251 359.798 78.3546 359.328 77.8813V77.8813Z" fill="#246B6D" fill-opacity="0.5"/>
<path d="M248 72.3271H362V70.3271H248V72.3271ZM369 79.3271V85.3271H371V79.3271H369ZM362 92.3271H248V94.3271H362V92.3271ZM241 85.3271V79.3271H239V85.3271H241ZM248 92.3271C244.134 92.3271 241 89.1931 241 85.3271H239C239 90.2977 243.029 94.3271 248 94.3271V92.3271ZM369 85.3271C369 89.1931 365.866 92.3271 362 92.3271V94.3271C366.971 94.3271 371 90.2977 371 85.3271H369ZM362 72.3271C365.866 72.3271 369 75.4612 369 79.3271H371C371 74.3566 366.971 70.3271 362 70.3271V72.3271ZM248 70.3271C243.029 70.3271 239 74.3566 239 79.3271H241C241 75.4612 244.134 72.3271 248 72.3271V70.3271Z" fill="#246B6D"/>
</g>
<line x1="4.37114e-08" y1="99.5" x2="380" y2="99.5" stroke="#DADADA"/>
<g filter="url(#filter3_d)">
<path d="M20.6018 68.0111H17.8778V75.0791H16.2338V68.0111H13.5098V66.5591H20.6018V68.0111ZM27.3475 75.0791H25.7395V71.5511C25.7395 71.0551 25.6475 70.6911 25.4635 70.4591C25.2795 70.2191 25.0195 70.0991 24.6835 70.0991C24.5395 70.0991 24.3875 70.1311 24.2275 70.1951C24.0675 70.2591 23.9155 70.3511 23.7715 70.4711C23.6275 70.5831 23.4955 70.7191 23.3755 70.8791C23.2555 71.0391 23.1675 71.2151 23.1115 71.4071V75.0791H21.5035V66.3191H23.1115V69.9551C23.3435 69.5471 23.6555 69.2351 24.0475 69.0191C24.4475 68.7951 24.8875 68.6831 25.3675 68.6831C25.7755 68.6831 26.1075 68.7551 26.3635 68.8991C26.6195 69.0351 26.8195 69.2191 26.9635 69.4511C27.1075 69.6831 27.2075 69.9471 27.2635 70.2431C27.3195 70.5391 27.3475 70.8431 27.3475 71.1551V75.0791ZM31.6617 75.1991C31.1577 75.1991 30.7017 75.1151 30.2937 74.9471C29.8857 74.7711 29.5377 74.5351 29.2497 74.2391C28.9617 73.9431 28.7377 73.5991 28.5777 73.2071C28.4257 72.8151 28.3497 72.4031 28.3497 71.9711C28.3497 71.5231 28.4257 71.1031 28.5777 70.7111C28.7297 70.3111 28.9497 69.9631 29.2377 69.6671C29.5257 69.3631 29.8737 69.1231 30.2817 68.9471C30.6977 68.7711 31.1617 68.6831 31.6737 68.6831C32.1857 68.6831 32.6417 68.7711 33.0417 68.9471C33.4497 69.1231 33.7937 69.3591 34.0737 69.6551C34.3617 69.9511 34.5777 70.2951 34.7217 70.6871C34.8737 71.0791 34.9497 71.4871 34.9497 71.9111C34.9497 72.0151 34.9457 72.1151 34.9377 72.2111C34.9377 72.3071 34.9297 72.3871 34.9137 72.4511H30.0537C30.0777 72.6991 30.1377 72.9191 30.2337 73.1111C30.3297 73.3031 30.4537 73.4671 30.6057 73.6031C30.7577 73.7391 30.9297 73.8431 31.1217 73.9151C31.3137 73.9871 31.5137 74.0231 31.7217 74.0231C32.0417 74.0231 32.3417 73.9471 32.6217 73.7951C32.9097 73.6351 33.1057 73.4271 33.2097 73.1711L34.5897 73.5551C34.3577 74.0351 33.9857 74.4311 33.4737 74.7431C32.9697 75.0471 32.3657 75.1991 31.6617 75.1991ZM33.2937 71.4071C33.2537 70.9351 33.0777 70.5591 32.7657 70.2791C32.4617 69.9911 32.0897 69.8471 31.6497 69.8471C31.4337 69.8471 31.2297 69.8871 31.0377 69.9671C30.8537 70.0391 30.6897 70.1431 30.5457 70.2791C30.4017 70.4151 30.2817 70.5791 30.1857 70.7711C30.0977 70.9631 30.0457 71.1751 30.0297 71.4071H33.2937ZM35.8972 76.3031C36.0332 76.3431 36.1652 76.3711 36.2932 76.3871C36.4212 76.4111 36.5292 76.4231 36.6172 76.4231C36.7212 76.4231 36.8172 76.4031 36.9052 76.3631C36.9932 76.3231 37.0732 76.2511 37.1452 76.1471C37.2172 76.0511 37.2892 75.9151 37.3612 75.7391C37.4332 75.5631 37.5092 75.3431 37.5892 75.0791L35.1052 68.7911H36.7612L38.4652 73.6871L39.9772 68.7911H41.4892L38.8492 76.3271C38.6972 76.7671 38.4372 77.1271 38.0692 77.4071C37.7012 77.6871 37.2452 77.8271 36.7012 77.8271C36.5732 77.8271 36.4412 77.8151 36.3052 77.7911C36.1772 77.7751 36.0412 77.7431 35.8972 77.6951V76.3031ZM19.9178 88.0791H18.3098V84.5511C18.3098 84.0471 18.2218 83.6791 18.0458 83.4471C17.8698 83.2151 17.6258 83.0991 17.3138 83.0991C17.1538 83.0991 16.9898 83.1311 16.8218 83.1951C16.6538 83.2591 16.4938 83.3511 16.3418 83.4711C16.1978 83.5831 16.0658 83.7191 15.9458 83.8791C15.8258 84.0391 15.7378 84.2151 15.6818 84.4071V88.0791H14.0738V81.7911H15.5258V82.9551C15.7578 82.5551 16.0938 82.2431 16.5338 82.0191C16.9738 81.7951 17.4698 81.6831 18.0218 81.6831C18.4138 81.6831 18.7338 81.7551 18.9818 81.8991C19.2298 82.0431 19.4218 82.2311 19.5578 82.4631C19.6938 82.6951 19.7858 82.9591 19.8338 83.2551C19.8898 83.5511 19.9178 83.8511 19.9178 84.1551V88.0791ZM24.232 88.1991C23.728 88.1991 23.272 88.1151 22.864 87.9471C22.456 87.7711 22.108 87.5351 21.82 87.2391C21.532 86.9431 21.308 86.5991 21.148 86.2071C20.996 85.8151 20.92 85.4031 20.92 84.9711C20.92 84.5231 20.996 84.1031 21.148 83.7111C21.3 83.3111 21.52 82.9631 21.808 82.6671C22.096 82.3631 22.444 82.1231 22.852 81.9471C23.268 81.7711 23.732 81.6831 24.244 81.6831C24.756 81.6831 25.212 81.7711 25.612 81.9471C26.02 82.1231 26.364 82.3591 26.644 82.6551C26.932 82.9511 27.148 83.2951 27.292 83.6871C27.444 84.0791 27.52 84.4871 27.52 84.9111C27.52 85.0151 27.516 85.1151 27.508 85.2111C27.508 85.3071 27.5 85.3871 27.484 85.4511H22.624C22.648 85.6991 22.708 85.9191 22.804 86.1111C22.9 86.3031 23.024 86.4671 23.176 86.6031C23.328 86.7391 23.5 86.8431 23.692 86.9151C23.884 86.9871 24.084 87.0231 24.292 87.0231C24.612 87.0231 24.912 86.9471 25.192 86.7951C25.48 86.6351 25.676 86.4271 25.78 86.1711L27.16 86.5551C26.928 87.0351 26.556 87.4311 26.044 87.7431C25.54 88.0471 24.936 88.1991 24.232 88.1991ZM25.864 84.4071C25.824 83.9351 25.648 83.5591 25.336 83.2791C25.032 82.9911 24.66 82.8471 24.22 82.8471C24.004 82.8471 23.8 82.8871 23.608 82.9671C23.424 83.0391 23.26 83.1431 23.116 83.2791C22.972 83.4151 22.852 83.5791 22.756 83.7711C22.668 83.9631 22.616 84.1751 22.6 84.4071H25.864ZM31.4156 88.1991C30.9116 88.1991 30.4556 88.1151 30.0476 87.9471C29.6396 87.7711 29.2916 87.5351 29.0036 87.2391C28.7156 86.9431 28.4916 86.5991 28.3316 86.2071C28.1796 85.8151 28.1036 85.4031 28.1036 84.9711C28.1036 84.5231 28.1796 84.1031 28.3316 83.7111C28.4836 83.3111 28.7036 82.9631 28.9916 82.6671C29.2796 82.3631 29.6276 82.1231 30.0356 81.9471C30.4516 81.7711 30.9156 81.6831 31.4276 81.6831C31.9396 81.6831 32.3956 81.7711 32.7956 81.9471C33.2036 82.1231 33.5476 82.3591 33.8276 82.6551C34.1156 82.9511 34.3316 83.2951 34.4756 83.6871C34.6276 84.0791 34.7036 84.4871 34.7036 84.9111C34.7036 85.0151 34.6996 85.1151 34.6916 85.2111C34.6916 85.3071 34.6836 85.3871 34.6676 85.4511H29.8076C29.8316 85.6991 29.8916 85.9191 29.9876 86.1111C30.0836 86.3031 30.2076 86.4671 30.3596 86.6031C30.5116 86.7391 30.6836 86.8431 30.8756 86.9151C31.0676 86.9871 31.2676 87.0231 31.4756 87.0231C31.7956 87.0231 32.0956 86.9471 32.3756 86.7951C32.6636 86.6351 32.8596 86.4271 32.9636 86.1711L34.3436 86.5551C34.1116 87.0351 33.7396 87.4311 33.2276 87.7431C32.7236 88.0471 32.1196 88.1991 31.4156 88.1991ZM33.0476 84.4071C33.0076 83.9351 32.8316 83.5591 32.5196 83.2791C32.2156 82.9911 31.8436 82.8471 31.4036 82.8471C31.1876 82.8471 30.9836 82.8871 30.7916 82.9671C30.6076 83.0391 30.4436 83.1431 30.2996 83.2791C30.1556 83.4151 30.0356 83.5791 29.9396 83.7711C29.8516 83.9631 29.7996 84.1751 29.7836 84.4071H33.0476ZM38.2872 88.1991C37.8552 88.1991 37.4552 88.1151 37.0872 87.9471C36.7192 87.7791 36.4032 87.5471 36.1392 87.2511C35.8752 86.9551 35.6672 86.6111 35.5152 86.2191C35.3712 85.8191 35.2992 85.3911 35.2992 84.9351C35.2992 84.4791 35.3672 84.0551 35.5032 83.6631C35.6472 83.2711 35.8432 82.9271 36.0912 82.6311C36.3392 82.3351 36.6352 82.1031 36.9792 81.9351C37.3232 81.7671 37.6992 81.6831 38.1072 81.6831C38.5712 81.6831 38.9872 81.7951 39.3552 82.0191C39.7312 82.2431 40.0232 82.5351 40.2312 82.8951V79.3191H41.8392V86.2311C41.8392 86.3991 41.8672 86.5191 41.9232 86.5911C41.9792 86.6631 42.0752 86.7031 42.2112 86.7111V88.0791C41.9312 88.1351 41.7032 88.1631 41.5272 88.1631C41.2392 88.1631 41.0032 88.0911 40.8192 87.9471C40.6352 87.8031 40.5312 87.6151 40.5072 87.3831L40.4712 86.9871C40.2392 87.3871 39.9232 87.6911 39.5232 87.8991C39.1312 88.0991 38.7192 88.1991 38.2872 88.1991ZM38.7072 86.8311C38.8592 86.8311 39.0152 86.8071 39.1752 86.7591C39.3352 86.7031 39.4832 86.6271 39.6192 86.5311C39.7552 86.4351 39.8752 86.3231 39.9792 86.1951C40.0912 86.0671 40.1752 85.9271 40.2312 85.7751V84.2751C40.1672 84.0991 40.0752 83.9391 39.9552 83.7951C39.8432 83.6431 39.7112 83.5151 39.5592 83.4111C39.4152 83.2991 39.2592 83.2111 39.0912 83.1471C38.9312 83.0831 38.7712 83.0511 38.6112 83.0511C38.3712 83.0511 38.1472 83.1031 37.9392 83.2071C37.7392 83.3111 37.5672 83.4551 37.4232 83.6391C37.2792 83.8151 37.1672 84.0191 37.0872 84.2511C37.0072 84.4831 36.9672 84.7231 36.9672 84.9711C36.9672 85.2351 37.0112 85.4791 37.0992 85.7031C37.1872 85.9271 37.3072 86.1231 37.4592 86.2911C37.6112 86.4591 37.7912 86.5911 37.9992 86.6871C38.2152 86.7831 38.4512 86.8311 38.7072 86.8311ZM43.5135 83.5911V81.8631H44.8215V83.5911H43.5135ZM43.5135 88.0791V86.3511H44.8215V88.0791H43.5135Z" fill="#246B6D"/>
</g>
<line x1="220.25" y1="8.52637" x2="220.25" y2="89.166" stroke="#DADADA" stroke-width="0.5"/>
<line x1="220" y1="60.25" x2="10.9434" y2="60.25" stroke="#DADADA" stroke-width="0.5"/>
<g filter="url(#filter4_d)">
<path d="M272.667 17.2204C272.667 17.6164 272.61 17.9824 272.496 18.3184C272.382 18.6484 272.223 18.9364 272.019 19.1824C271.815 19.4224 271.572 19.6114 271.29 19.7494C271.014 19.8814 270.714 19.9474 270.39 19.9474C270.06 19.9474 269.754 19.8814 269.472 19.7494C269.196 19.6114 268.956 19.4224 268.752 19.1824C268.554 18.9364 268.398 18.6484 268.284 18.3184C268.17 17.9824 268.113 17.6164 268.113 17.2204C268.113 16.8244 268.17 16.4614 268.284 16.1314C268.398 15.7954 268.554 15.5074 268.752 15.2674C268.956 15.0214 269.196 14.8294 269.472 14.6914C269.754 14.5534 270.06 14.4844 270.39 14.4844C270.714 14.4844 271.014 14.5534 271.29 14.6914C271.572 14.8294 271.815 15.0214 272.019 15.2674C272.223 15.5074 272.382 15.7954 272.496 16.1314C272.61 16.4614 272.667 16.8244 272.667 17.2204ZM271.866 17.2204C271.866 16.9264 271.83 16.6564 271.758 16.4104C271.686 16.1644 271.584 15.9544 271.452 15.7804C271.32 15.6004 271.164 15.4624 270.984 15.3664C270.804 15.2704 270.606 15.2224 270.39 15.2224C270.168 15.2224 269.964 15.2704 269.778 15.3664C269.598 15.4624 269.442 15.6004 269.31 15.7804C269.184 15.9544 269.085 16.1644 269.013 16.4104C268.941 16.6564 268.905 16.9264 268.905 17.2204C268.905 17.5204 268.941 17.7934 269.013 18.0394C269.085 18.2794 269.184 18.4864 269.31 18.6604C269.442 18.8344 269.598 18.9694 269.778 19.0654C269.964 19.1614 270.168 19.2094 270.39 19.2094C270.606 19.2094 270.804 19.1614 270.984 19.0654C271.164 18.9694 271.32 18.8344 271.452 18.6604C271.584 18.4864 271.686 18.2794 271.758 18.0394C271.83 17.7934 271.866 17.5204 271.866 17.2204ZM276.26 21.0004V19.4794H273.371V18.7774L276.512 14.7184H277.052V18.7594H277.844V19.4794H277.052V21.0004H276.26ZM274.19 18.7594H276.341V15.9424L274.19 18.7594ZM288.172 19.8574H287.38V17.2294C287.38 16.7374 287.299 16.3744 287.137 16.1404C286.981 15.9064 286.747 15.7894 286.435 15.7894C286.111 15.7894 285.82 15.9064 285.562 16.1404C285.31 16.3684 285.13 16.6654 285.022 17.0314V19.8574H284.23V17.2294C284.23 16.7254 284.152 16.3594 283.996 16.1314C283.84 15.9034 283.606 15.7894 283.294 15.7894C282.976 15.7894 282.688 15.9034 282.43 16.1314C282.172 16.3534 281.989 16.6504 281.881 17.0224V19.8574H281.089V15.1594H281.809V16.1674C282.001 15.8194 282.25 15.5524 282.556 15.3664C282.862 15.1744 283.207 15.0784 283.591 15.0784C283.987 15.0784 284.299 15.1864 284.527 15.4024C284.761 15.6124 284.905 15.8854 284.959 16.2214C285.379 15.4594 285.976 15.0784 286.75 15.0784C287.02 15.0784 287.245 15.1294 287.425 15.2314C287.611 15.3274 287.758 15.4654 287.866 15.6454C287.974 15.8194 288.052 16.0264 288.1 16.2664C288.148 16.5064 288.172 16.7674 288.172 17.0494V19.8574ZM289.404 19.8574V15.1594H290.196V19.8574H289.404ZM289.404 14.2774V13.2874H290.196V14.2774H289.404ZM291.496 13.2874H292.288V18.6424C292.288 18.8164 292.333 18.9544 292.423 19.0564C292.519 19.1524 292.651 19.2004 292.819 19.2004C292.885 19.2004 292.963 19.1914 293.053 19.1734C293.143 19.1494 293.227 19.1224 293.305 19.0924L293.431 19.7314C293.299 19.7854 293.143 19.8304 292.963 19.8664C292.783 19.9024 292.624 19.9204 292.486 19.9204C292.18 19.9204 291.937 19.8334 291.757 19.6594C291.583 19.4854 291.496 19.2424 291.496 18.9304V13.2874ZM296.132 19.9474C295.778 19.9474 295.454 19.8844 295.16 19.7584C294.866 19.6264 294.614 19.4494 294.404 19.2274C294.194 19.0054 294.029 18.7474 293.909 18.4534C293.795 18.1534 293.738 17.8384 293.738 17.5084C293.738 17.1784 293.795 16.8664 293.909 16.5724C294.029 16.2784 294.194 16.0204 294.404 15.7984C294.62 15.5764 294.875 15.4024 295.169 15.2764C295.463 15.1444 295.787 15.0784 296.141 15.0784C296.495 15.0784 296.816 15.1444 297.104 15.2764C297.398 15.4084 297.647 15.5854 297.851 15.8074C298.055 16.0234 298.211 16.2784 298.319 16.5724C298.433 16.8604 298.49 17.1604 298.49 17.4724C298.49 17.5384 298.487 17.5984 298.481 17.6524C298.481 17.7064 298.478 17.7484 298.472 17.7784H294.575C294.593 18.0124 294.647 18.2254 294.737 18.4174C294.827 18.6094 294.944 18.7744 295.088 18.9124C295.232 19.0504 295.394 19.1584 295.574 19.2364C295.76 19.3144 295.955 19.3534 296.159 19.3534C296.303 19.3534 296.444 19.3354 296.582 19.2994C296.72 19.2574 296.849 19.2034 296.969 19.1374C297.089 19.0714 297.194 18.9904 297.284 18.8944C297.38 18.7984 297.452 18.6904 297.5 18.5704L298.184 18.7594C298.106 18.9334 297.998 19.0924 297.86 19.2364C297.728 19.3804 297.572 19.5064 297.392 19.6144C297.218 19.7164 297.023 19.7974 296.807 19.8574C296.591 19.9174 296.366 19.9474 296.132 19.9474ZM297.743 17.1934C297.725 16.9714 297.668 16.7674 297.572 16.5814C297.482 16.3894 297.365 16.2274 297.221 16.0954C297.083 15.9634 296.921 15.8614 296.735 15.7894C296.549 15.7114 296.351 15.6724 296.141 15.6724C295.931 15.6724 295.733 15.7114 295.547 15.7894C295.361 15.8614 295.196 15.9664 295.052 16.1044C294.914 16.2364 294.8 16.3954 294.71 16.5814C294.626 16.7674 294.575 16.9714 294.557 17.1934H297.743ZM301.017 19.9474C300.639 19.9474 300.267 19.8904 299.901 19.7764C299.535 19.6564 299.22 19.4854 298.956 19.2634L299.298 18.7324C299.574 18.9424 299.85 19.1014 300.126 19.2094C300.402 19.3114 300.693 19.3624 300.999 19.3624C301.341 19.3624 301.611 19.2964 301.809 19.1644C302.013 19.0264 302.115 18.8344 302.115 18.5884C302.115 18.4744 302.088 18.3784 302.034 18.3004C301.98 18.2164 301.899 18.1444 301.791 18.0844C301.683 18.0244 301.545 17.9704 301.377 17.9224C301.209 17.8744 301.014 17.8234 300.792 17.7694C300.51 17.6974 300.267 17.6284 300.063 17.5624C299.859 17.4964 299.691 17.4184 299.559 17.3284C299.427 17.2384 299.331 17.1304 299.271 17.0044C299.211 16.8784 299.181 16.7224 299.181 16.5364C299.181 16.3024 299.226 16.0954 299.316 15.9154C299.412 15.7294 299.541 15.5764 299.703 15.4564C299.865 15.3304 300.054 15.2374 300.27 15.1774C300.492 15.1114 300.729 15.0784 300.981 15.0784C301.335 15.0784 301.665 15.1354 301.971 15.2494C302.277 15.3634 302.535 15.5134 302.745 15.6994L302.385 16.1764C302.187 16.0024 301.965 15.8734 301.719 15.7894C301.473 15.6994 301.221 15.6544 300.963 15.6544C300.675 15.6544 300.429 15.7174 300.225 15.8434C300.027 15.9634 299.928 16.1584 299.928 16.4284C299.928 16.5364 299.946 16.6264 299.982 16.6984C300.024 16.7704 300.09 16.8334 300.18 16.8874C300.27 16.9414 300.384 16.9894 300.522 17.0314C300.666 17.0734 300.837 17.1184 301.035 17.1664C301.347 17.2384 301.617 17.3134 301.845 17.3914C302.079 17.4634 302.271 17.5504 302.421 17.6524C302.577 17.7544 302.691 17.8744 302.763 18.0124C302.841 18.1504 302.88 18.3184 302.88 18.5164C302.88 18.9544 302.712 19.3024 302.376 19.5604C302.04 19.8184 301.587 19.9474 301.017 19.9474ZM272.901 29.9934C272.337 30.5994 271.689 30.9024 270.957 30.9024C270.531 30.9024 270.135 30.8094 269.769 30.6234C269.409 30.4374 269.097 30.1944 268.833 29.8944C268.569 29.5884 268.359 29.2404 268.203 28.8504C268.053 28.4604 267.978 28.0584 267.978 27.6444C267.978 27.2124 268.053 26.8044 268.203 26.4204C268.353 26.0304 268.56 25.6884 268.824 25.3944C269.088 25.0944 269.403 24.8574 269.769 24.6834C270.135 24.5094 270.531 24.4224 270.957 24.4224C271.575 24.4224 272.082 24.5514 272.478 24.8094C272.88 25.0674 273.186 25.4034 273.396 25.8174L272.775 26.2494C272.583 25.8774 272.328 25.6014 272.01 25.4214C271.692 25.2414 271.335 25.1514 270.939 25.1514C270.615 25.1514 270.321 25.2234 270.057 25.3674C269.793 25.5054 269.568 25.6914 269.382 25.9254C269.196 26.1534 269.052 26.4204 268.95 26.7264C268.848 27.0264 268.797 27.3384 268.797 27.6624C268.797 28.0044 268.854 28.3284 268.968 28.6344C269.082 28.9344 269.238 29.2014 269.436 29.4354C269.634 29.6634 269.868 29.8434 270.138 29.9754C270.408 30.1074 270.702 30.1734 271.02 30.1734C271.716 30.1734 272.343 29.8374 272.901 29.1654V28.2834H271.524V27.6714H273.585V30.8574H272.901V29.9934ZM276.743 30.9474C276.389 30.9474 276.065 30.8814 275.771 30.7494C275.483 30.6174 275.234 30.4404 275.024 30.2184C274.82 29.9964 274.661 29.7384 274.547 29.4444C274.433 29.1504 274.376 28.8414 274.376 28.5174C274.376 28.1874 274.433 27.8754 274.547 27.5814C274.667 27.2874 274.829 27.0294 275.033 26.8074C275.243 26.5854 275.492 26.4084 275.78 26.2764C276.074 26.1444 276.395 26.0784 276.743 26.0784C277.091 26.0784 277.412 26.1444 277.706 26.2764C278 26.4084 278.249 26.5854 278.453 26.8074C278.663 27.0294 278.825 27.2874 278.939 27.5814C279.059 27.8754 279.119 28.1874 279.119 28.5174C279.119 28.8414 279.062 29.1504 278.948 29.4444C278.834 29.7384 278.672 29.9964 278.462 30.2184C278.252 30.4404 278 30.6174 277.706 30.7494C277.418 30.8814 277.097 30.9474 276.743 30.9474ZM275.186 28.5264C275.186 28.7724 275.225 29.0004 275.303 29.2104C275.387 29.4204 275.498 29.6034 275.636 29.7594C275.78 29.9154 275.945 30.0384 276.131 30.1284C276.323 30.2184 276.527 30.2634 276.743 30.2634C276.959 30.2634 277.16 30.2184 277.346 30.1284C277.538 30.0384 277.706 29.9154 277.85 29.7594C277.994 29.5974 278.105 29.4114 278.183 29.2014C278.267 28.9854 278.309 28.7544 278.309 28.5084C278.309 28.2684 278.267 28.0434 278.183 27.8334C278.105 27.6174 277.994 27.4314 277.85 27.2754C277.706 27.1134 277.538 26.9874 277.346 26.8974C277.16 26.8074 276.959 26.7624 276.743 26.7624C276.527 26.7624 276.323 26.8104 276.131 26.9064C275.945 26.9964 275.78 27.1224 275.636 27.2844C275.498 27.4404 275.387 27.6264 275.303 27.8424C275.225 28.0524 275.186 28.2804 275.186 28.5264ZM285.806 26.1594H286.571L284.573 30.8574H283.916L282.971 28.5624L282.035 30.8574H281.378L279.38 26.1594H280.136L281.756 30.0744L282.548 28.1214L281.738 26.1684H282.395L282.971 27.6714L283.547 26.1684H284.204L283.403 28.1214L284.195 30.0744L285.806 26.1594ZM288.404 30.9474C288.182 30.9474 287.975 30.9114 287.783 30.8394C287.591 30.7614 287.423 30.6564 287.279 30.5244C287.141 30.3924 287.03 30.2394 286.946 30.0654C286.868 29.8854 286.829 29.6904 286.829 29.4804C286.829 29.2644 286.877 29.0694 286.973 28.8954C287.069 28.7154 287.204 28.5624 287.378 28.4364C287.558 28.3104 287.768 28.2114 288.008 28.1394C288.254 28.0674 288.521 28.0314 288.809 28.0314C289.037 28.0314 289.268 28.0524 289.502 28.0944C289.736 28.1364 289.943 28.1934 290.123 28.2654V27.8874C290.123 27.5034 290.015 27.2034 289.799 26.9874C289.583 26.7654 289.277 26.6544 288.881 26.6544C288.407 26.6544 287.909 26.8374 287.387 27.2034L287.126 26.6904C287.732 26.2824 288.341 26.0784 288.953 26.0784C289.571 26.0784 290.051 26.2434 290.393 26.5734C290.741 26.9034 290.915 27.3684 290.915 27.9684V29.8854C290.915 30.0714 290.999 30.1674 291.167 30.1734V30.8574C291.083 30.8694 291.014 30.8784 290.96 30.8844C290.906 30.8904 290.849 30.8934 290.789 30.8934C290.633 30.8934 290.507 30.8484 290.411 30.7584C290.321 30.6624 290.267 30.5484 290.249 30.4164L290.231 30.0834C290.021 30.3654 289.754 30.5814 289.43 30.7314C289.112 30.8754 288.77 30.9474 288.404 30.9474ZM288.611 30.3534C288.893 30.3534 289.154 30.3024 289.394 30.2004C289.64 30.0924 289.826 29.9514 289.952 29.7774C290.066 29.6634 290.123 29.5464 290.123 29.4264V28.7334C289.739 28.5834 289.34 28.5084 288.926 28.5084C288.53 28.5084 288.206 28.5924 287.954 28.7604C287.708 28.9284 287.585 29.1474 287.585 29.4174C287.585 29.5494 287.609 29.6724 287.657 29.7864C287.711 29.9004 287.783 29.9994 287.873 30.0834C287.969 30.1674 288.08 30.2334 288.206 30.2814C288.332 30.3294 288.467 30.3534 288.611 30.3534ZM296.258 30.8574H295.466V28.2294C295.466 27.7254 295.388 27.3594 295.232 27.1314C295.082 26.9034 294.851 26.7894 294.539 26.7894C294.377 26.7894 294.215 26.8224 294.053 26.8884C293.891 26.9484 293.738 27.0324 293.594 27.1404C293.45 27.2484 293.324 27.3774 293.216 27.5274C293.108 27.6774 293.027 27.8424 292.973 28.0224V30.8574H292.181V26.1594H292.901V27.1674C293.087 26.8374 293.354 26.5734 293.702 26.3754C294.056 26.1774 294.44 26.0784 294.854 26.0784C295.124 26.0784 295.349 26.1294 295.529 26.2314C295.709 26.3274 295.853 26.4654 295.961 26.6454C296.069 26.8194 296.144 27.0264 296.186 27.2664C296.234 27.5064 296.258 27.7674 296.258 28.0494V30.8574ZM298.939 30.9474C298.447 30.9474 298.075 30.7824 297.823 30.4524C297.571 30.1224 297.445 29.6304 297.445 28.9764V26.1594H298.237V28.8234C298.237 29.7834 298.57 30.2634 299.236 30.2634C299.56 30.2634 299.863 30.1614 300.145 29.9574C300.433 29.7474 300.646 29.4624 300.784 29.1024V26.1594H301.576V29.8854C301.576 30.0714 301.66 30.1674 301.828 30.1734V30.8574C301.738 30.8694 301.666 30.8754 301.612 30.8754C301.564 30.8814 301.516 30.8844 301.468 30.8844C301.312 30.8844 301.18 30.8394 301.072 30.7494C300.97 30.6534 300.916 30.5364 300.91 30.3984L300.892 29.8494C300.682 30.2034 300.406 30.4764 300.064 30.6684C299.722 30.8544 299.347 30.9474 298.939 30.9474ZM304.542 30.9474C304.164 30.9474 303.792 30.8904 303.426 30.7764C303.06 30.6564 302.745 30.4854 302.481 30.2634L302.823 29.7324C303.099 29.9424 303.375 30.1014 303.651 30.2094C303.927 30.3114 304.218 30.3624 304.524 30.3624C304.866 30.3624 305.136 30.2964 305.334 30.1644C305.538 30.0264 305.64 29.8344 305.64 29.5884C305.64 29.4744 305.613 29.3784 305.559 29.3004C305.505 29.2164 305.424 29.1444 305.316 29.0844C305.208 29.0244 305.07 28.9704 304.902 28.9224C304.734 28.8744 304.539 28.8234 304.317 28.7694C304.035 28.6974 303.792 28.6284 303.588 28.5624C303.384 28.4964 303.216 28.4184 303.084 28.3284C302.952 28.2384 302.856 28.1304 302.796 28.0044C302.736 27.8784 302.706 27.7224 302.706 27.5364C302.706 27.3024 302.751 27.0954 302.841 26.9154C302.937 26.7294 303.066 26.5764 303.228 26.4564C303.39 26.3304 303.579 26.2374 303.795 26.1774C304.017 26.1114 304.254 26.0784 304.506 26.0784C304.86 26.0784 305.19 26.1354 305.496 26.2494C305.802 26.3634 306.06 26.5134 306.27 26.6994L305.91 27.1764C305.712 27.0024 305.49 26.8734 305.244 26.7894C304.998 26.6994 304.746 26.6544 304.488 26.6544C304.2 26.6544 303.954 26.7174 303.75 26.8434C303.552 26.9634 303.453 27.1584 303.453 27.4284C303.453 27.5364 303.471 27.6264 303.507 27.6984C303.549 27.7704 303.615 27.8334 303.705 27.8874C303.795 27.9414 303.909 27.9894 304.047 28.0314C304.191 28.0734 304.362 28.1184 304.56 28.1664C304.872 28.2384 305.142 28.3134 305.37 28.3914C305.604 28.4634 305.796 28.5504 305.946 28.6524C306.102 28.7544 306.216 28.8744 306.288 29.0124C306.366 29.1504 306.405 29.3184 306.405 29.5164C306.405 29.9544 306.237 30.3024 305.901 30.5604C305.565 30.8184 305.112 30.9474 304.542 30.9474Z" fill="#5C5C5C"/>
</g>
<path d="M244.627 18.8722L244.734 18.441L244.31 18.5739L242.233 19.225L242.058 19.28V19.4636V22.3764H240.25V18.4332L246.043 16.4574C246.217 16.4539 246.365 16.4301 246.496 16.4089L246.501 16.4081C246.646 16.3847 246.772 16.3648 246.923 16.3648C247.649 16.3648 248.272 16.6976 248.69 17.2014L249.838 18.6824C250.781 20.0096 252.604 20.9443 254.75 21.012V22.3733C252.369 22.3146 250.225 21.4211 248.824 20.1178L248.513 19.8287L248.411 20.2406L247.719 23.0313L247.679 23.1901L247.809 23.2898L250.135 25.0752V31.6787H248.327V26.3473V26.2241L248.229 26.149L245.806 24.2886L245.513 24.0632L245.413 24.4196L243.387 31.6787H241.473L244.627 18.8722ZM250.712 13.7892C250.712 14.6268 249.838 15.3996 248.654 15.3996C247.47 15.3996 246.596 14.6268 246.596 13.7892C246.596 12.9516 247.47 12.1787 248.654 12.1787C249.838 12.1787 250.712 12.9516 250.712 13.7892Z" fill="#246B6D" fill-opacity="0.5" stroke="#246B6D" stroke-width="0.5"/>
<path d="M65.2969 74.3604H65.8983L65.4741 73.934L61.646 70.0864L61.5276 69.9674L61.3726 70.0319C61.2443 70.0854 61.1206 70.1104 61 70.1104C60.7302 70.1104 60.5001 70.0147 60.2979 69.8125C60.0966 69.6112 60 69.3783 60 69.1006C60 68.823 60.0964 68.5947 60.2955 68.4008C60.4963 68.2053 60.7299 68.1104 61.0098 68.1104C61.2895 68.1104 61.5186 68.2051 61.7119 68.3985C61.9042 68.5908 62 68.8227 62 69.1104C62 69.2309 61.9751 69.3546 61.9216 69.4829L61.857 69.6379L61.976 69.7563L65.8237 73.5845L66 73.7599L66.1763 73.5845L70.024 69.7563L70.143 69.6379L70.0784 69.4829C70.0249 69.3546 70 69.2309 70 69.1104C70 68.8249 70.0974 68.5937 70.2955 68.4008C70.4963 68.2053 70.7299 68.1104 71.0098 68.1104C71.2895 68.1104 71.5186 68.2051 71.7119 68.3985C71.9052 68.5918 72 68.8209 72 69.1006C72 69.3804 71.905 69.6141 71.7096 69.8149C71.5167 70.0129 71.2855 70.1104 71 70.1104C70.8794 70.1104 70.7557 70.0854 70.6274 70.0319L70.4724 69.9674L70.354 70.0864L66.5259 73.934L66.1017 74.3604H66.7031H73.5C74.1238 74.3604 74.6494 74.5781 75.0908 75.0196C75.5322 75.461 75.75 75.9866 75.75 76.6104V85.3604C75.75 85.9841 75.5322 86.5097 75.0908 86.9512C74.6494 87.3926 74.1238 87.6104 73.5 87.6104H58.5C57.8762 87.6104 57.3506 87.3926 56.9092 86.9512C56.4678 86.5097 56.25 85.9841 56.25 85.3604V76.6104C56.25 75.9866 56.4678 75.461 56.9092 75.0196C57.3506 74.5781 57.8762 74.3604 58.5 74.3604H65.2969ZM68.531 76.3623L68.5156 76.3604H68.5H58.5H58.4804L58.461 76.3634C58.1587 76.4111 57.8995 76.5486 57.6918 76.7723C57.5042 76.9743 57.3619 77.1929 57.2708 77.4283C57.1829 77.6553 57.1176 77.9433 57.0707 78.2853C57.0247 78.6205 57 78.8879 57 79.0811V81.9814C57 82.3009 57.0133 82.6172 57.04 82.9304C57.067 83.2482 57.1208 83.603 57.2003 83.9942C57.2834 84.4028 57.4209 84.7575 57.619 85.051C57.8282 85.3611 58.1113 85.5574 58.4646 85.6078L58.4822 85.6104H58.5H68.5H68.5166L68.533 85.6082C68.7735 85.5761 68.9914 85.4831 69.1825 85.3318C69.3818 85.174 69.526 84.9568 69.623 84.6954C69.7099 84.4616 69.7808 84.2424 69.8353 84.038C69.8931 83.8214 69.9305 83.5564 69.9506 83.2477C69.9702 82.948 69.9833 82.7246 69.99 82.5787C69.9967 82.43 70 82.2303 70 81.9814V79.9893C70 78.905 69.8957 78.0512 69.672 77.4465C69.447 76.8383 69.078 76.4307 68.531 76.3623ZM74.125 76.3604H71.625C71.387 76.3604 71.1776 76.4503 71.0088 76.6191C70.8399 76.788 70.75 76.9973 70.75 77.2354C70.75 77.4734 70.8399 77.6828 71.0088 77.8516C71.1776 78.0204 71.387 78.1104 71.625 78.1104H74.125C74.363 78.1104 74.5724 78.0204 74.7412 77.8516C74.9101 77.6828 75 77.4734 75 77.2354C75 76.9973 74.9101 76.788 74.7412 76.6191C74.5724 76.4503 74.363 76.3604 74.125 76.3604ZM74.125 78.8604H71.625C71.387 78.8604 71.1776 78.9503 71.0088 79.1191C70.8399 79.288 70.75 79.4973 70.75 79.7354C70.75 79.9734 70.8399 80.1828 71.0088 80.3516C71.1776 80.5204 71.387 80.6104 71.625 80.6104H74.125C74.363 80.6104 74.5724 80.5204 74.7412 80.3516C74.9101 80.1828 75 79.9734 75 79.7354C75 79.4973 74.9101 79.288 74.7412 79.1191C74.5724 78.9503 74.363 78.8604 74.125 78.8604ZM74.125 81.3604H71.625C71.387 81.3604 71.1776 81.4503 71.0088 81.6191C70.8399 81.788 70.75 81.9973 70.75 82.2354C70.75 82.4734 70.8399 82.6828 71.0088 82.8516C71.1776 83.0204 71.387 83.1104 71.625 83.1104H74.125C74.363 83.1104 74.5724 83.0204 74.7412 82.8516C74.9101 82.6828 75 82.4734 75 82.2354C75 81.9973 74.9101 81.788 74.7412 81.6191C74.5724 81.4503 74.363 81.3604 74.125 81.3604ZM74.125 83.8604H71.625C71.387 83.8604 71.1776 83.9503 71.0088 84.1191C70.8399 84.288 70.75 84.4973 70.75 84.7354C70.75 84.9734 70.8399 85.1828 71.0088 85.3516C71.1776 85.5204 71.387 85.6104 71.625 85.6104H74.125C74.363 85.6104 74.5724 85.5204 74.7412 85.3516C74.9101 85.1828 75 84.9734 75 84.7354C75 84.4973 74.9101 84.288 74.7412 84.1191C74.5724 83.9503 74.363 83.8604 74.125 83.8604Z" fill="#246B6D" fill-opacity="0.7" stroke="#246B6D" stroke-width="0.5"/>
<path d="M101 82.3354L100.75 82.3354L100.75 82.5854L100.75 85.226C100.75 85.7627 100.61 86.2407 100.397 86.5768C100.182 86.9168 99.9182 87.0791 99.67 87.0791L84.33 87.0791C84.082 87.0791 83.8178 86.917 83.6029 86.5753C83.3903 86.2374 83.25 85.7553 83.25 85.2102L83.25 73.6197C83.25 73.083 83.39 72.6052 83.6035 72.2694C83.819 71.9303 84.0857 71.7666 84.34 71.7666L99.67 71.7666C99.9182 71.7666 100.182 71.9289 100.397 72.2689C100.61 72.605 100.75 73.083 100.75 73.6197L100.75 76.2604L100.75 76.5104L101 76.5104L102.75 76.5104L102.75 82.3354L101 82.3354Z" fill="#246B6D" fill-opacity="0.7" stroke="#246B6D" stroke-width="0.5"/>
<defs>
<filter id="filter0_d" x="5" y="0" width="202" height="62" filterUnits="userSpaceOnUse" color-interpolation-filters="sRGB">
<feFlood flood-opacity="0" result="BackgroundImageFix"/>
<feColorMatrix in="SourceAlpha" type="matrix" values="0 0 0 0 0 0 0 0 0 0 0 0 0 0 0 0 0 0 127 0"/>
<feOffset dy="1"/>
<feGaussianBlur stdDeviation="0.5"/>
<feColorMatrix type="matrix" values="0 0 0 0 0 0 0 0 0 0 0 0 0 0 0 0 0 0 0.25 0"/>
<feBlend mode="normal" in2="BackgroundImageFix" result="effect1_dropShadow"/>
<feBlend mode="normal" in="SourceGraphic" in2="effect1_dropShadow" result="shape"/>
</filter>
<filter id="filter1_d" x="239" y="43" width="132" height="24" filterUnits="userSpaceOnUse" color-interpolation-filters="sRGB">
<feFlood flood-opacity="0" result="BackgroundImageFix"/>
<feColorMatrix in="SourceAlpha" type="matrix" values="0 0 0 0 0 0 0 0 0 0 0 0 0 0 0 0 0 0 127 0"/>
<feOffset dy="1"/>
<feGaussianBlur stdDeviation="0.5"/>
<feColorMatrix type="matrix" values="0 0 0 0 0 0 0 0 0 0 0 0 0 0 0 0 0 0 0.25 0"/>
<feBlend mode="normal" in2="BackgroundImageFix" result="effect1_dropShadow"/>
<feBlend mode="normal" in="SourceGraphic" in2="effect1_dropShadow" result="shape"/>
</filter>
<filter id="filter2_d" x="239" y="71.3271" width="132" height="24" filterUnits="userSpaceOnUse" color-interpolation-filters="sRGB">
<feFlood flood-opacity="0" result="BackgroundImageFix"/>
<feColorMatrix in="SourceAlpha" type="matrix" values="0 0 0 0 0 0 0 0 0 0 0 0 0 0 0 0 0 0 127 0"/>
<feOffset dy="1"/>
<feGaussianBlur stdDeviation="0.5"/>
<feColorMatrix type="matrix" values="0 0 0 0 0 0 0 0 0 0 0 0 0 0 0 0 0 0 0.25 0"/>
<feBlend mode="normal" in2="BackgroundImageFix" result="effect1_dropShadow"/>
<feBlend mode="normal" in="SourceGraphic" in2="effect1_dropShadow" result="shape"/>
</filter>
<filter id="filter3_d" x="12.5098" y="66.3193" width="33.3118" height="23.88" filterUnits="userSpaceOnUse" color-interpolation-filters="sRGB">
<feFlood flood-opacity="0" result="BackgroundImageFix"/>
<feColorMatrix in="SourceAlpha" type="matrix" values="0 0 0 0 0 0 0 0 0 0 0 0 0 0 0 0 0 0 127 0"/>
<feOffset dy="1"/>
<feGaussianBlur stdDeviation="0.5"/>
<feColorMatrix type="matrix" values="0 0 0 0 0 0 0 0 0 0 0 0 0 0 0 0 0 0 0.25 0"/>
<feBlend mode="normal" in2="BackgroundImageFix" result="effect1_dropShadow"/>
<feBlend mode="normal" in="SourceGraphic" in2="effect1_dropShadow" result="shape"/>
</filter>
<filter id="filter4_d" x="266.979" y="13.2871" width="40.4269" height="19.66" filterUnits="userSpaceOnUse" color-interpolation-filters="sRGB">
<feFlood flood-opacity="0" result="BackgroundImageFix"/>
<feColorMatrix in="SourceAlpha" type="matrix" values="0 0 0 0 0 0 0 0 0 0 0 0 0 0 0 0 0 0 127 0"/>
<feOffset dy="1"/>
<feGaussianBlur stdDeviation="0.5"/>
<feColorMatrix type="matrix" values="0 0 0 0 0 0 0 0 0 0 0 0 0 0 0 0 0 0 0.25 0"/>
<feBlend mode="normal" in2="BackgroundImageFix" result="effect1_dropShadow"/>
<feBlend mode="normal" in="SourceGraphic" in2="effect1_dropShadow" result="shape"/>
</filter>
</defs>
</svg>
