<svg width="380" height="101" viewBox="0 0 380 101" fill="none" xmlns="http://www.w3.org/2000/svg">
<path d="M0 0.5H380V100.5H0V0.5Z" fill="white"/>
<g filter="url(#filter0_d)">
<path d="M19.9874 33.6109C19.9874 34.0309 19.9034 34.3995 19.7354 34.7169C19.5674 35.0342 19.334 35.3002 19.0354 35.5149C18.746 35.7295 18.4054 35.8929 18.0134 36.0049C17.6307 36.1169 17.22 36.1729 16.7814 36.1729H11.9794V26.2329H17.2994C17.6447 26.2329 17.9574 26.3075 18.2374 26.4569C18.5174 26.6062 18.7554 26.8022 18.9514 27.0449C19.1474 27.2782 19.2967 27.5489 19.3994 27.8569C19.5114 28.1555 19.5674 28.4589 19.5674 28.7669C19.5674 29.2522 19.446 29.7095 19.2034 30.1389C18.9607 30.5589 18.606 30.8715 18.1394 31.0769C18.7087 31.2449 19.1567 31.5482 19.4834 31.9869C19.8194 32.4162 19.9874 32.9575 19.9874 33.6109ZM18.0414 33.2469C18.0414 33.0695 18.0087 32.9015 17.9434 32.7429C17.8874 32.5749 17.808 32.4302 17.7054 32.3089C17.6027 32.1875 17.4814 32.0942 17.3414 32.0289C17.2014 31.9542 17.0474 31.9169 16.8794 31.9169H13.9114V34.5349H16.7814C16.9587 34.5349 17.122 34.5022 17.2714 34.4369C17.43 34.3715 17.5654 34.2829 17.6774 34.1709C17.7894 34.0495 17.878 33.9095 17.9434 33.7509C18.0087 33.5922 18.0414 33.4242 18.0414 33.2469ZM13.9114 27.8849V30.3909H16.4874C16.814 30.3909 17.0894 30.2789 17.3134 30.0549C17.5467 29.8309 17.6634 29.5229 17.6634 29.1309C17.6634 28.7482 17.556 28.4449 17.3414 28.2209C17.136 27.9969 16.8794 27.8849 16.5714 27.8849H13.9114ZM21.313 36.1729V28.8369H23.189V36.1729H21.313ZM21.313 27.8149V25.9529H23.189V27.8149H21.313ZM27.7513 36.2149C27.2567 36.2149 26.8087 36.1169 26.4073 35.9209C26.006 35.7249 25.656 35.4589 25.3573 35.1229C25.068 34.7775 24.844 34.3809 24.6853 33.9329C24.5267 33.4849 24.4473 33.0089 24.4473 32.5049C24.4473 31.9729 24.5313 31.4782 24.6993 31.0209C24.8673 30.5635 25.1007 30.1622 25.3993 29.8169C25.698 29.4715 26.0573 29.2009 26.4773 29.0049C26.8973 28.8089 27.3593 28.7109 27.8633 28.7109C28.4327 28.7109 28.932 28.8415 29.3613 29.1029C29.7907 29.3549 30.1453 29.6955 30.4253 30.1249V28.8369H32.0633V35.8229C32.0633 36.3642 31.9607 36.8495 31.7553 37.2789C31.55 37.7082 31.2653 38.0722 30.9013 38.3709C30.5467 38.6695 30.1173 38.8982 29.6133 39.0569C29.1187 39.2155 28.5773 39.2949 27.9893 39.2949C27.1867 39.2949 26.51 39.1595 25.9593 38.8889C25.418 38.6275 24.9513 38.2542 24.5593 37.7689L25.5813 36.7749C25.8613 37.1202 26.2113 37.3909 26.6313 37.5869C27.0607 37.7829 27.5133 37.8809 27.9893 37.8809C28.2787 37.8809 28.554 37.8389 28.8153 37.7549C29.086 37.6802 29.324 37.5589 29.5293 37.3909C29.7347 37.2229 29.8933 37.0082 30.0053 36.7469C30.1267 36.4855 30.1873 36.1775 30.1873 35.8229V34.8989C29.9447 35.3189 29.604 35.6455 29.1653 35.8789C28.7267 36.1029 28.2553 36.2149 27.7513 36.2149ZM28.3813 34.7169C28.5867 34.7169 28.7827 34.6842 28.9693 34.6189C29.156 34.5535 29.3287 34.4649 29.4873 34.3529C29.646 34.2409 29.786 34.1102 29.9073 33.9609C30.0287 33.8115 30.122 33.6529 30.1873 33.4849V31.7349C30.0193 31.3055 29.7533 30.9602 29.3893 30.6989C29.0347 30.4375 28.6613 30.3069 28.2693 30.3069C27.98 30.3069 27.7187 30.3722 27.4853 30.5029C27.252 30.6242 27.0513 30.7922 26.8833 31.0069C26.7153 31.2122 26.5847 31.4502 26.4913 31.7209C26.4073 31.9915 26.3653 32.2715 26.3653 32.5609C26.3653 32.8595 26.4167 33.1395 26.5193 33.4009C26.622 33.6622 26.762 33.8909 26.9393 34.0869C27.126 34.2829 27.3407 34.4369 27.5833 34.5489C27.826 34.6609 28.092 34.7169 28.3813 34.7169ZM37.2997 36.1729V26.2329H41.6957C42.153 26.2329 42.573 26.3309 42.9557 26.5269C43.3477 26.7135 43.6837 26.9655 43.9637 27.2829C44.2437 27.5909 44.463 27.9455 44.6217 28.3469C44.7803 28.7389 44.8597 29.1355 44.8597 29.5369C44.8597 30.1809 44.6963 30.7689 44.3697 31.3009C44.0523 31.8235 43.6183 32.2015 43.0677 32.4349L45.3357 36.1729H43.1657L41.1357 32.8409H39.2317V36.1729H37.2997ZM39.2317 31.1469H41.6537C41.831 31.1469 41.9943 31.1049 42.1437 31.0209C42.3023 30.9369 42.4377 30.8249 42.5497 30.6849C42.6617 30.5355 42.7503 30.3629 42.8157 30.1669C42.881 29.9709 42.9137 29.7609 42.9137 29.5369C42.9137 29.3035 42.8763 29.0889 42.8017 28.8929C42.727 28.6969 42.6243 28.5289 42.4937 28.3889C42.3723 28.2395 42.2277 28.1275 42.0597 28.0529C41.901 27.9689 41.7377 27.9269 41.5697 27.9269H39.2317V31.1469ZM49.6251 36.3129C49.0371 36.3129 48.5051 36.2149 48.0291 36.0189C47.5531 35.8135 47.1471 35.5382 46.8111 35.1929C46.4751 34.8475 46.2138 34.4462 46.0271 33.9889C45.8498 33.5315 45.7611 33.0509 45.7611 32.5469C45.7611 32.0242 45.8498 31.5342 46.0271 31.0769C46.2045 30.6102 46.4611 30.2042 46.7971 29.8589C47.1331 29.5042 47.5391 29.2242 48.0151 29.0189C48.5005 28.8135 49.0418 28.7109 49.6391 28.7109C50.2365 28.7109 50.7685 28.8135 51.2351 29.0189C51.7111 29.2242 52.1125 29.4995 52.4391 29.8449C52.7751 30.1902 53.0271 30.5915 53.1951 31.0489C53.3725 31.5062 53.4611 31.9822 53.4611 32.4769C53.4611 32.5982 53.4565 32.7149 53.4471 32.8269C53.4471 32.9389 53.4378 33.0322 53.4191 33.1069H47.7491C47.7771 33.3962 47.8471 33.6529 47.9591 33.8769C48.0711 34.1009 48.2158 34.2922 48.3931 34.4509C48.5705 34.6095 48.7711 34.7309 48.9951 34.8149C49.2191 34.8989 49.4525 34.9409 49.6951 34.9409C50.0685 34.9409 50.4185 34.8522 50.7451 34.6749C51.0811 34.4882 51.3098 34.2455 51.4311 33.9469L53.0411 34.3949C52.7705 34.9549 52.3365 35.4169 51.7391 35.7809C51.1511 36.1355 50.4465 36.3129 49.6251 36.3129ZM51.5291 31.8889C51.4825 31.3382 51.2771 30.8995 50.9131 30.5729C50.5585 30.2369 50.1245 30.0689 49.6111 30.0689C49.3591 30.0689 49.1211 30.1155 48.8971 30.2089C48.6825 30.2929 48.4911 30.4142 48.3231 30.5729C48.1551 30.7315 48.0151 30.9229 47.9031 31.1469C47.8005 31.3709 47.7398 31.6182 47.7211 31.8889H51.5291ZM56.844 36.3129C56.088 36.3129 55.514 36.0702 55.122 35.5849C54.73 35.0995 54.534 34.3809 54.534 33.4289V28.8369H56.41V33.0229C56.41 34.1522 56.816 34.7169 57.628 34.7169C57.992 34.7169 58.342 34.6095 58.678 34.3949C59.0233 34.1709 59.3033 33.8349 59.518 33.3869V28.8369H61.394V34.0169C61.394 34.2129 61.4267 34.3529 61.492 34.4369C61.5667 34.5209 61.6833 34.5675 61.842 34.5769V36.1729C61.6553 36.2102 61.4967 36.2335 61.366 36.2429C61.2447 36.2522 61.1327 36.2569 61.03 36.2569C60.694 36.2569 60.4187 36.1822 60.204 36.0329C59.9987 35.8742 59.8773 35.6595 59.84 35.3889L59.798 34.8009C59.4713 35.3049 59.0513 35.6829 58.538 35.9349C58.0247 36.1869 57.46 36.3129 56.844 36.3129ZM66.0303 36.3129C65.4143 36.3129 64.8123 36.2149 64.2243 36.0189C63.6363 35.8229 63.1323 35.5429 62.7123 35.1789L63.4123 34.0029C63.8603 34.3202 64.2943 34.5629 64.7143 34.7309C65.1436 34.8895 65.5683 34.9689 65.9883 34.9689C66.3616 34.9689 66.6556 34.8989 66.8703 34.7589C67.085 34.6189 67.1923 34.4182 67.1923 34.1569C67.1923 33.8955 67.0663 33.7042 66.8143 33.5829C66.5623 33.4615 66.1516 33.3215 65.5823 33.1629C65.1063 33.0322 64.7003 32.9062 64.3643 32.7849C64.0283 32.6635 63.7576 32.5282 63.5523 32.3789C63.347 32.2202 63.1976 32.0429 63.1043 31.8469C63.011 31.6415 62.9643 31.3989 62.9643 31.1189C62.9643 30.7455 63.0343 30.4095 63.1743 30.1109C63.3236 29.8122 63.529 29.5602 63.7903 29.3549C64.0516 29.1402 64.355 28.9769 64.7003 28.8649C65.055 28.7529 65.4376 28.6969 65.8483 28.6969C66.399 28.6969 66.9123 28.7762 67.3883 28.9349C67.8736 29.0935 68.317 29.3502 68.7183 29.7049L67.9623 30.8389C67.589 30.5589 67.225 30.3535 66.8703 30.2229C66.525 30.0922 66.1796 30.0269 65.8343 30.0269C65.517 30.0269 65.251 30.0922 65.0363 30.2229C64.8216 30.3535 64.7143 30.5635 64.7143 30.8529C64.7143 30.9835 64.7376 31.0909 64.7843 31.1749C64.8403 31.2589 64.9243 31.3335 65.0363 31.3989C65.1483 31.4642 65.293 31.5295 65.4703 31.5949C65.657 31.6509 65.8856 31.7115 66.1563 31.7769C66.6603 31.9075 67.0896 32.0382 67.4443 32.1689C67.8083 32.2995 68.1023 32.4489 68.3263 32.6169C68.5596 32.7849 68.7276 32.9809 68.8303 33.2049C68.9423 33.4195 68.9983 33.6809 68.9983 33.9889C68.9983 34.7075 68.7323 35.2769 68.2003 35.6969C67.6683 36.1075 66.945 36.3129 66.0303 36.3129ZM73.6193 36.3129C73.0313 36.3129 72.4993 36.2149 72.0233 36.0189C71.5473 35.8135 71.1413 35.5382 70.8053 35.1929C70.4693 34.8475 70.2079 34.4462 70.0213 33.9889C69.8439 33.5315 69.7553 33.0509 69.7553 32.5469C69.7553 32.0242 69.8439 31.5342 70.0213 31.0769C70.1986 30.6102 70.4553 30.2042 70.7913 29.8589C71.1273 29.5042 71.5333 29.2242 72.0093 29.0189C72.4946 28.8135 73.0359 28.7109 73.6333 28.7109C74.2306 28.7109 74.7626 28.8135 75.2293 29.0189C75.7053 29.2242 76.1066 29.4995 76.4333 29.8449C76.7693 30.1902 77.0213 30.5915 77.1893 31.0489C77.3666 31.5062 77.4553 31.9822 77.4553 32.4769C77.4553 32.5982 77.4506 32.7149 77.4413 32.8269C77.4413 32.9389 77.4319 33.0322 77.4133 33.1069H71.7433C71.7713 33.3962 71.8413 33.6529 71.9533 33.8769C72.0653 34.1009 72.2099 34.2922 72.3873 34.4509C72.5646 34.6095 72.7653 34.7309 72.9893 34.8149C73.2133 34.8989 73.4466 34.9409 73.6893 34.9409C74.0626 34.9409 74.4126 34.8522 74.7393 34.6749C75.0753 34.4882 75.3039 34.2455 75.4253 33.9469L77.0353 34.3949C76.7646 34.9549 76.3306 35.4169 75.7333 35.7809C75.1453 36.1355 74.4406 36.3129 73.6193 36.3129ZM75.5233 31.8889C75.4766 31.3382 75.2713 30.8995 74.9073 30.5729C74.5526 30.2369 74.1186 30.0689 73.6053 30.0689C73.3533 30.0689 73.1153 30.1155 72.8913 30.2089C72.6766 30.2929 72.4853 30.4142 72.3173 30.5729C72.1493 30.7315 72.0093 30.9229 71.8973 31.1469C71.7946 31.3709 71.7339 31.6182 71.7153 31.8889H75.5233Z" fill="#5C5C5C"/>
</g>
<g filter="url(#filter1_d)">
<path d="M240 51.5C240 47.0817 243.582 43.5 248 43.5H362C366.418 43.5 370 47.0817 370 51.5V57.5C370 61.9183 366.418 65.5 362 65.5H248C243.582 65.5 240 61.9183 240 57.5V51.5Z" fill="#246B6D"/>
<path d="M350.713 47.5L349 49.145L354.563 54.5L349 59.855L350.713 61.5L358 54.5L350.713 47.5Z" fill="white"/>
<path d="M270.293 51.3965V57.0332H271.957C272.808 57.0332 273.402 56.6133 273.738 55.7734C273.921 55.3125 274.013 54.7637 274.013 54.127C274.013 53.248 273.875 52.5742 273.597 52.1055C273.324 51.6328 272.777 51.3965 271.957 51.3965H270.293ZM272.261 49.8965C272.796 49.9043 273.242 49.9668 273.597 50.084C274.203 50.2832 274.693 50.6484 275.068 51.1797C275.369 51.6094 275.574 52.0742 275.683 52.5742C275.793 53.0742 275.847 53.5508 275.847 54.0039C275.847 55.1523 275.617 56.125 275.156 56.9219C274.531 57.9961 273.566 58.5332 272.261 58.5332H268.541V49.8965H272.261ZM278.794 51.3848H277.101V49.8438H278.794V51.3848ZM277.101 52.1465H278.794V58.5332H277.101V52.1465ZM283.886 51.9941C283.918 51.9941 283.943 51.9961 283.962 52C283.986 52 284.035 52.002 284.109 52.0059V53.7168C284.003 53.7051 283.91 53.6973 283.828 53.6934C283.746 53.6895 283.679 53.6875 283.628 53.6875C282.957 53.6875 282.505 53.9062 282.275 54.3438C282.146 54.5898 282.082 54.9688 282.082 55.4805V58.5332H280.4V52.1465H281.994V53.2598C282.252 52.834 282.476 52.543 282.668 52.3867C282.98 52.125 283.386 51.9941 283.886 51.9941ZM287.613 53.3535C287.226 53.3535 286.925 53.4746 286.711 53.7168C286.5 53.959 286.367 54.2871 286.312 54.7012H288.908C288.88 54.2598 288.746 53.9258 288.503 53.6992C288.265 53.4688 287.968 53.3535 287.613 53.3535ZM287.613 51.9766C288.144 51.9766 288.623 52.0762 289.048 52.2754C289.474 52.4746 289.826 52.7891 290.103 53.2188C290.353 53.5977 290.515 54.0371 290.589 54.5371C290.632 54.8301 290.65 55.252 290.642 55.8027H286.271C286.294 56.4434 286.496 56.8926 286.875 57.1504C287.105 57.3105 287.382 57.3906 287.707 57.3906C288.05 57.3906 288.33 57.293 288.544 57.0977C288.662 56.9922 288.765 56.8457 288.855 56.6582H290.56C290.517 57.0371 290.32 57.4219 289.968 57.8125C289.421 58.4336 288.656 58.7441 287.671 58.7441C286.859 58.7441 286.142 58.4824 285.521 57.959C284.9 57.4355 284.589 56.584 284.589 55.4043C284.589 54.2988 284.869 53.4512 285.427 52.8613C285.99 52.2715 286.718 51.9766 287.613 51.9766ZM295.587 54.4375C295.556 54.1992 295.476 53.9844 295.347 53.793C295.16 53.5352 294.869 53.4062 294.474 53.4062C293.912 53.4062 293.527 53.6855 293.32 54.2441C293.211 54.541 293.156 54.9355 293.156 55.4277C293.156 55.8965 293.211 56.2734 293.32 56.5586C293.519 57.0898 293.894 57.3555 294.445 57.3555C294.836 57.3555 295.113 57.25 295.277 57.0391C295.441 56.8281 295.541 56.5547 295.576 56.2188H297.281C297.242 56.7266 297.058 57.207 296.73 57.6602C296.207 58.3906 295.431 58.7559 294.404 58.7559C293.377 58.7559 292.621 58.4512 292.136 57.8418C291.652 57.2324 291.41 56.4414 291.41 55.4688C291.41 54.3711 291.677 53.5176 292.212 52.9082C292.748 52.2988 293.486 51.9941 294.427 51.9941C295.228 51.9941 295.882 52.1738 296.39 52.5332C296.902 52.8926 297.205 53.5273 297.298 54.4375H295.587ZM297.796 53.3945V52.2051H298.687V50.4238H300.339V52.2051H301.377V53.3945H300.339V56.7695C300.339 57.0312 300.373 57.1953 300.439 57.2617C300.505 57.3242 300.709 57.3555 301.048 57.3555C301.099 57.3555 301.152 57.3555 301.207 57.3555C301.265 57.3516 301.322 57.3477 301.377 57.3438V58.5918L300.586 58.6211C299.796 58.6484 299.257 58.5117 298.968 58.2109C298.781 58.0195 298.687 57.7246 298.687 57.3262V53.3945H297.796ZM304.166 51.3848H302.472V49.8438H304.166V51.3848ZM302.472 52.1465H304.166V58.5332H302.472V52.1465ZM308.654 57.3555C309.142 57.3555 309.517 57.1816 309.779 56.834C310.041 56.4863 310.171 55.9922 310.171 55.3516C310.171 54.7109 310.041 54.2188 309.779 53.875C309.517 53.5273 309.142 53.3535 308.654 53.3535C308.166 53.3535 307.789 53.5273 307.523 53.875C307.261 54.2188 307.13 54.7109 307.13 55.3516C307.13 55.9922 307.261 56.4863 307.523 56.834C307.789 57.1816 308.166 57.3555 308.654 57.3555ZM311.923 55.3516C311.923 56.2891 311.654 57.0918 311.115 57.7598C310.576 58.4238 309.757 58.7559 308.66 58.7559C307.562 58.7559 306.744 58.4238 306.205 57.7598C305.666 57.0918 305.396 56.2891 305.396 55.3516C305.396 54.4297 305.666 53.6309 306.205 52.9551C306.744 52.2793 307.562 51.9414 308.66 51.9414C309.757 51.9414 310.576 52.2793 311.115 52.9551C311.654 53.6309 311.923 54.4297 311.923 55.3516ZM316.664 51.9941C317.324 51.9941 317.863 52.168 318.281 52.5156C318.703 52.8594 318.914 53.4316 318.914 54.2324V58.5332H317.203V54.6484C317.203 54.3125 317.158 54.0547 317.068 53.875C316.904 53.5469 316.591 53.3828 316.13 53.3828C315.564 53.3828 315.175 53.623 314.964 54.1035C314.855 54.3574 314.8 54.6816 314.8 55.0762V58.5332H313.136V52.1582H314.748V53.0898C314.962 52.7617 315.166 52.5254 315.357 52.3809C315.701 52.123 316.136 51.9941 316.664 51.9941ZM321.761 56.4941C321.796 56.791 321.873 57.002 321.99 57.127C322.197 57.3496 322.58 57.4609 323.138 57.4609C323.466 57.4609 323.726 57.4121 323.918 57.3145C324.113 57.2168 324.211 57.0703 324.211 56.875C324.211 56.6875 324.132 56.5449 323.976 56.4473C323.82 56.3496 323.24 56.1816 322.236 55.9434C321.513 55.7637 321.003 55.5391 320.707 55.2695C320.41 55.0039 320.261 54.6211 320.261 54.1211C320.261 53.5312 320.492 53.0254 320.953 52.6035C321.418 52.1777 322.07 51.9648 322.91 51.9648C323.707 51.9648 324.355 52.125 324.855 52.4453C325.359 52.7617 325.648 53.3105 325.722 54.0918H324.052C324.029 53.877 323.968 53.707 323.871 53.582C323.687 53.3555 323.375 53.2422 322.933 53.2422C322.57 53.2422 322.31 53.2988 322.154 53.4121C322.002 53.5254 321.925 53.6582 321.925 53.8105C321.925 54.002 322.007 54.1406 322.171 54.2266C322.336 54.3164 322.916 54.4707 323.912 54.6895C324.576 54.8457 325.074 55.082 325.406 55.3984C325.734 55.7188 325.898 56.1191 325.898 56.5996C325.898 57.2324 325.662 57.75 325.189 58.1523C324.72 58.5508 323.994 58.75 323.009 58.75C322.005 58.75 321.263 58.5391 320.783 58.1172C320.306 57.6914 320.068 57.1504 320.068 56.4941H321.761Z" fill="white"/>
</g>
<g filter="url(#filter2_d)">
<path d="M240 79.8271C240 75.4089 243.582 71.8271 248 71.8271H362C366.418 71.8271 370 75.4089 370 79.8271V85.8271C370 90.2454 366.418 93.8271 362 93.8271H248C243.582 93.8271 240 90.2454 240 85.8271V79.8271Z" fill="white"/>
<path d="M286.517 82.6123C286.517 81.1045 286.921 79.9424 287.73 79.126C288.433 78.415 289.328 78.0596 290.414 78.0596C291.867 78.0596 292.929 78.5361 293.601 79.4893C293.972 80.0244 294.171 80.5615 294.199 81.1006H292.394C292.277 80.6865 292.127 80.374 291.943 80.1631C291.615 79.7881 291.128 79.6006 290.484 79.6006C289.828 79.6006 289.31 79.8662 288.931 80.3975C288.552 80.9248 288.363 81.6729 288.363 82.6416C288.363 83.6104 288.562 84.3369 288.961 84.8213C289.363 85.3018 289.873 85.542 290.49 85.542C291.123 85.542 291.605 85.335 291.937 84.9209C292.121 84.6982 292.273 84.3643 292.394 83.9189H294.181C294.025 84.8604 293.625 85.626 292.98 86.2158C292.339 86.8057 291.517 87.1006 290.513 87.1006C289.271 87.1006 288.294 86.7021 287.584 85.9053C286.873 85.1045 286.517 84.0068 286.517 82.6123ZM298.951 83.7549C298.845 83.8213 298.738 83.876 298.628 83.9189C298.523 83.958 298.377 83.9951 298.189 84.0303L297.814 84.1006C297.462 84.1631 297.211 84.2393 297.058 84.3291C296.8 84.4814 296.671 84.7178 296.671 85.0381C296.671 85.3232 296.75 85.5303 296.906 85.6592C297.066 85.7842 297.259 85.8467 297.486 85.8467C297.845 85.8467 298.175 85.7412 298.476 85.5303C298.781 85.3193 298.939 84.9346 298.951 84.376V83.7549ZM297.937 82.9756C298.246 82.9365 298.466 82.8877 298.599 82.8291C298.837 82.7275 298.957 82.5693 298.957 82.3545C298.957 82.0928 298.865 81.9131 298.681 81.8154C298.502 81.7139 298.236 81.6631 297.884 81.6631C297.49 81.6631 297.211 81.7607 297.046 81.9561C296.929 82.1006 296.851 82.2959 296.812 82.542H295.201C295.236 81.9834 295.392 81.5244 295.669 81.165C296.111 80.6025 296.869 80.3213 297.943 80.3213C298.642 80.3213 299.263 80.46 299.806 80.7373C300.349 81.0146 300.621 81.5381 300.621 82.3076V85.2373C300.621 85.4404 300.625 85.6865 300.632 85.9756C300.644 86.1943 300.677 86.3428 300.732 86.4209C300.787 86.499 300.869 86.5635 300.978 86.6143V86.8604H299.162C299.111 86.7314 299.076 86.6104 299.056 86.4971C299.037 86.3838 299.021 86.2549 299.009 86.1104C298.779 86.3604 298.513 86.5732 298.212 86.749C297.853 86.9561 297.447 87.0596 296.994 87.0596C296.416 87.0596 295.937 86.8955 295.558 86.5674C295.183 86.2354 294.996 85.7666 294.996 85.1611C294.996 84.376 295.298 83.8076 295.904 83.4561C296.236 83.2646 296.724 83.1279 297.369 83.0459L297.937 82.9756ZM303.814 86.8604H302.144V78.2236H303.814V86.8604ZM307.154 86.8604H305.484V78.2236H307.154V86.8604Z" fill="#246B6D"/>
<path d="M359.328 78.3813L357.647 76.7026C357.529 76.5836 357.388 76.4891 357.233 76.4247C357.078 76.3603 356.911 76.3271 356.743 76.3271C356.401 76.3271 356.079 76.4613 355.838 76.7026L354.03 78.5106C353.911 78.6292 353.816 78.77 353.752 78.9252C353.687 79.0803 353.654 79.2467 353.654 79.4146C353.654 79.757 353.788 80.0788 354.03 80.3202L355.352 81.6423C355.042 82.3244 354.612 82.945 354.082 83.474C353.553 84.0056 352.932 84.4374 352.25 84.7488L350.928 83.4267C350.81 83.3076 350.669 83.2132 350.514 83.1487C350.359 83.0843 350.192 83.0511 350.024 83.0512C349.682 83.0512 349.36 83.1853 349.119 83.4267L347.309 85.2331C347.19 85.3518 347.095 85.493 347.031 85.6484C346.966 85.8038 346.933 85.9704 346.934 86.1387C346.934 86.481 347.068 86.8029 347.309 87.0443L348.986 88.7213C349.371 89.1079 349.903 89.3271 350.449 89.3271C350.564 89.3271 350.674 89.3177 350.783 89.2988C352.91 88.9485 355.019 87.8173 356.721 86.1166C358.422 84.4174 359.552 82.3097 359.907 80.1767C360.014 79.5251 359.798 78.8546 359.328 78.3813V78.3813Z" fill="#246B6D" fill-opacity="0.5"/>
<path d="M248 72.8271H362V70.8271H248V72.8271ZM369 79.8271V85.8271H371V79.8271H369ZM362 92.8271H248V94.8271H362V92.8271ZM241 85.8271V79.8271H239V85.8271H241ZM248 92.8271C244.134 92.8271 241 89.6931 241 85.8271H239C239 90.7977 243.029 94.8271 248 94.8271V92.8271ZM369 85.8271C369 89.6931 365.866 92.8271 362 92.8271V94.8271C366.971 94.8271 371 90.7977 371 85.8271H369ZM362 72.8271C365.866 72.8271 369 75.9612 369 79.8271H371C371 74.8566 366.971 70.8271 362 70.8271V72.8271ZM248 70.8271C243.029 70.8271 239 74.8566 239 79.8271H241C241 75.9612 244.134 72.8271 248 72.8271V70.8271Z" fill="#246B6D"/>
</g>
<line x1="4.37114e-08" y1="100" x2="380" y2="100" stroke="#DADADA"/>
<g filter="url(#filter3_d)">
<path d="M20.6018 68.5111H17.8778V75.5791H16.2338V68.5111H13.5098V67.0591H20.6018V68.5111ZM27.3475 75.5791H25.7395V72.0511C25.7395 71.5551 25.6475 71.1911 25.4635 70.9591C25.2795 70.7191 25.0195 70.5991 24.6835 70.5991C24.5395 70.5991 24.3875 70.6311 24.2275 70.6951C24.0675 70.7591 23.9155 70.8511 23.7715 70.9711C23.6275 71.0831 23.4955 71.2191 23.3755 71.3791C23.2555 71.5391 23.1675 71.7151 23.1115 71.9071V75.5791H21.5035V66.8191H23.1115V70.4551C23.3435 70.0471 23.6555 69.7351 24.0475 69.5191C24.4475 69.2951 24.8875 69.1831 25.3675 69.1831C25.7755 69.1831 26.1075 69.2551 26.3635 69.3991C26.6195 69.5351 26.8195 69.7191 26.9635 69.9511C27.1075 70.1831 27.2075 70.4471 27.2635 70.7431C27.3195 71.0391 27.3475 71.3431 27.3475 71.6551V75.5791ZM31.6617 75.6991C31.1577 75.6991 30.7017 75.6151 30.2937 75.4471C29.8857 75.2711 29.5377 75.0351 29.2497 74.7391C28.9617 74.4431 28.7377 74.0991 28.5777 73.7071C28.4257 73.3151 28.3497 72.9031 28.3497 72.4711C28.3497 72.0231 28.4257 71.6031 28.5777 71.2111C28.7297 70.8111 28.9497 70.4631 29.2377 70.1671C29.5257 69.8631 29.8737 69.6231 30.2817 69.4471C30.6977 69.2711 31.1617 69.1831 31.6737 69.1831C32.1857 69.1831 32.6417 69.2711 33.0417 69.4471C33.4497 69.6231 33.7937 69.8591 34.0737 70.1551C34.3617 70.4511 34.5777 70.7951 34.7217 71.1871C34.8737 71.5791 34.9497 71.9871 34.9497 72.4111C34.9497 72.5151 34.9457 72.6151 34.9377 72.7111C34.9377 72.8071 34.9297 72.8871 34.9137 72.9511H30.0537C30.0777 73.1991 30.1377 73.4191 30.2337 73.6111C30.3297 73.8031 30.4537 73.9671 30.6057 74.1031C30.7577 74.2391 30.9297 74.3431 31.1217 74.4151C31.3137 74.4871 31.5137 74.5231 31.7217 74.5231C32.0417 74.5231 32.3417 74.4471 32.6217 74.2951C32.9097 74.1351 33.1057 73.9271 33.2097 73.6711L34.5897 74.0551C34.3577 74.5351 33.9857 74.9311 33.4737 75.2431C32.9697 75.5471 32.3657 75.6991 31.6617 75.6991ZM33.2937 71.9071C33.2537 71.4351 33.0777 71.0591 32.7657 70.7791C32.4617 70.4911 32.0897 70.3471 31.6497 70.3471C31.4337 70.3471 31.2297 70.3871 31.0377 70.4671C30.8537 70.5391 30.6897 70.6431 30.5457 70.7791C30.4017 70.9151 30.2817 71.0791 30.1857 71.2711C30.0977 71.4631 30.0457 71.6751 30.0297 71.9071H33.2937ZM35.8972 76.8031C36.0332 76.8431 36.1652 76.8711 36.2932 76.8871C36.4212 76.9111 36.5292 76.9231 36.6172 76.9231C36.7212 76.9231 36.8172 76.9031 36.9052 76.8631C36.9932 76.8231 37.0732 76.7511 37.1452 76.6471C37.2172 76.5511 37.2892 76.4151 37.3612 76.2391C37.4332 76.0631 37.5092 75.8431 37.5892 75.5791L35.1052 69.2911H36.7612L38.4652 74.1871L39.9772 69.2911H41.4892L38.8492 76.8271C38.6972 77.2671 38.4372 77.6271 38.0692 77.9071C37.7012 78.1871 37.2452 78.3271 36.7012 78.3271C36.5732 78.3271 36.4412 78.3151 36.3052 78.2911C36.1772 78.2751 36.0412 78.2431 35.8972 78.1951V76.8031ZM19.9178 88.5791H18.3098V85.0511C18.3098 84.5471 18.2218 84.1791 18.0458 83.9471C17.8698 83.7151 17.6258 83.5991 17.3138 83.5991C17.1538 83.5991 16.9898 83.6311 16.8218 83.6951C16.6538 83.7591 16.4938 83.8511 16.3418 83.9711C16.1978 84.0831 16.0658 84.2191 15.9458 84.3791C15.8258 84.5391 15.7378 84.7151 15.6818 84.9071V88.5791H14.0738V82.2911H15.5258V83.4551C15.7578 83.0551 16.0938 82.7431 16.5338 82.5191C16.9738 82.2951 17.4698 82.1831 18.0218 82.1831C18.4138 82.1831 18.7338 82.2551 18.9818 82.3991C19.2298 82.5431 19.4218 82.7311 19.5578 82.9631C19.6938 83.1951 19.7858 83.4591 19.8338 83.7551C19.8898 84.0511 19.9178 84.3511 19.9178 84.6551V88.5791ZM24.232 88.6991C23.728 88.6991 23.272 88.6151 22.864 88.4471C22.456 88.2711 22.108 88.0351 21.82 87.7391C21.532 87.4431 21.308 87.0991 21.148 86.7071C20.996 86.3151 20.92 85.9031 20.92 85.4711C20.92 85.0231 20.996 84.6031 21.148 84.2111C21.3 83.8111 21.52 83.4631 21.808 83.1671C22.096 82.8631 22.444 82.6231 22.852 82.4471C23.268 82.2711 23.732 82.1831 24.244 82.1831C24.756 82.1831 25.212 82.2711 25.612 82.4471C26.02 82.6231 26.364 82.8591 26.644 83.1551C26.932 83.4511 27.148 83.7951 27.292 84.1871C27.444 84.5791 27.52 84.9871 27.52 85.4111C27.52 85.5151 27.516 85.6151 27.508 85.7111C27.508 85.8071 27.5 85.8871 27.484 85.9511H22.624C22.648 86.1991 22.708 86.4191 22.804 86.6111C22.9 86.8031 23.024 86.9671 23.176 87.1031C23.328 87.2391 23.5 87.3431 23.692 87.4151C23.884 87.4871 24.084 87.5231 24.292 87.5231C24.612 87.5231 24.912 87.4471 25.192 87.2951C25.48 87.1351 25.676 86.9271 25.78 86.6711L27.16 87.0551C26.928 87.5351 26.556 87.9311 26.044 88.2431C25.54 88.5471 24.936 88.6991 24.232 88.6991ZM25.864 84.9071C25.824 84.4351 25.648 84.0591 25.336 83.7791C25.032 83.4911 24.66 83.3471 24.22 83.3471C24.004 83.3471 23.8 83.3871 23.608 83.4671C23.424 83.5391 23.26 83.6431 23.116 83.7791C22.972 83.9151 22.852 84.0791 22.756 84.2711C22.668 84.4631 22.616 84.6751 22.6 84.9071H25.864ZM31.4156 88.6991C30.9116 88.6991 30.4556 88.6151 30.0476 88.4471C29.6396 88.2711 29.2916 88.0351 29.0036 87.7391C28.7156 87.4431 28.4916 87.0991 28.3316 86.7071C28.1796 86.3151 28.1036 85.9031 28.1036 85.4711C28.1036 85.0231 28.1796 84.6031 28.3316 84.2111C28.4836 83.8111 28.7036 83.4631 28.9916 83.1671C29.2796 82.8631 29.6276 82.6231 30.0356 82.4471C30.4516 82.2711 30.9156 82.1831 31.4276 82.1831C31.9396 82.1831 32.3956 82.2711 32.7956 82.4471C33.2036 82.6231 33.5476 82.8591 33.8276 83.1551C34.1156 83.4511 34.3316 83.7951 34.4756 84.1871C34.6276 84.5791 34.7036 84.9871 34.7036 85.4111C34.7036 85.5151 34.6996 85.6151 34.6916 85.7111C34.6916 85.8071 34.6836 85.8871 34.6676 85.9511H29.8076C29.8316 86.1991 29.8916 86.4191 29.9876 86.6111C30.0836 86.8031 30.2076 86.9671 30.3596 87.1031C30.5116 87.2391 30.6836 87.3431 30.8756 87.4151C31.0676 87.4871 31.2676 87.5231 31.4756 87.5231C31.7956 87.5231 32.0956 87.4471 32.3756 87.2951C32.6636 87.1351 32.8596 86.9271 32.9636 86.6711L34.3436 87.0551C34.1116 87.5351 33.7396 87.9311 33.2276 88.2431C32.7236 88.5471 32.1196 88.6991 31.4156 88.6991ZM33.0476 84.9071C33.0076 84.4351 32.8316 84.0591 32.5196 83.7791C32.2156 83.4911 31.8436 83.3471 31.4036 83.3471C31.1876 83.3471 30.9836 83.3871 30.7916 83.4671C30.6076 83.5391 30.4436 83.6431 30.2996 83.7791C30.1556 83.9151 30.0356 84.0791 29.9396 84.2711C29.8516 84.4631 29.7996 84.6751 29.7836 84.9071H33.0476ZM38.2872 88.6991C37.8552 88.6991 37.4552 88.6151 37.0872 88.4471C36.7192 88.2791 36.4032 88.0471 36.1392 87.7511C35.8752 87.4551 35.6672 87.1111 35.5152 86.7191C35.3712 86.3191 35.2992 85.8911 35.2992 85.4351C35.2992 84.9791 35.3672 84.5551 35.5032 84.1631C35.6472 83.7711 35.8432 83.4271 36.0912 83.1311C36.3392 82.8351 36.6352 82.6031 36.9792 82.4351C37.3232 82.2671 37.6992 82.1831 38.1072 82.1831C38.5712 82.1831 38.9872 82.2951 39.3552 82.5191C39.7312 82.7431 40.0232 83.0351 40.2312 83.3951V79.8191H41.8392V86.7311C41.8392 86.8991 41.8672 87.0191 41.9232 87.0911C41.9792 87.1631 42.0752 87.2031 42.2112 87.2111V88.5791C41.9312 88.6351 41.7032 88.6631 41.5272 88.6631C41.2392 88.6631 41.0032 88.5911 40.8192 88.4471C40.6352 88.3031 40.5312 88.1151 40.5072 87.8831L40.4712 87.4871C40.2392 87.8871 39.9232 88.1911 39.5232 88.3991C39.1312 88.5991 38.7192 88.6991 38.2872 88.6991ZM38.7072 87.3311C38.8592 87.3311 39.0152 87.3071 39.1752 87.2591C39.3352 87.2031 39.4832 87.1271 39.6192 87.0311C39.7552 86.9351 39.8752 86.8231 39.9792 86.6951C40.0912 86.5671 40.1752 86.4271 40.2312 86.2751V84.7751C40.1672 84.5991 40.0752 84.4391 39.9552 84.2951C39.8432 84.1431 39.7112 84.0151 39.5592 83.9111C39.4152 83.7991 39.2592 83.7111 39.0912 83.6471C38.9312 83.5831 38.7712 83.5511 38.6112 83.5511C38.3712 83.5511 38.1472 83.6031 37.9392 83.7071C37.7392 83.8111 37.5672 83.9551 37.4232 84.1391C37.2792 84.3151 37.1672 84.5191 37.0872 84.7511C37.0072 84.9831 36.9672 85.2231 36.9672 85.4711C36.9672 85.7351 37.0112 85.9791 37.0992 86.2031C37.1872 86.4271 37.3072 86.6231 37.4592 86.7911C37.6112 86.9591 37.7912 87.0911 37.9992 87.1871C38.2152 87.2831 38.4512 87.3311 38.7072 87.3311ZM43.5135 84.0911V82.3631H44.8215V84.0911H43.5135ZM43.5135 88.5791V86.8511H44.8215V88.5791H43.5135Z" fill="#246B6D"/>
</g>
<line x1="220.25" y1="9.02637" x2="220.25" y2="89.666" stroke="#DADADA" stroke-width="0.5"/>
<line x1="220" y1="60.75" x2="10.9434" y2="60.75" stroke="#DADADA" stroke-width="0.5"/>
<g filter="url(#filter4_d)">
<path d="M271.461 19.6374V20.3574H268.23V19.6374H269.508V16.1274C269.454 16.1994 269.37 16.2774 269.256 16.3614C269.142 16.4394 269.013 16.5144 268.869 16.5864C268.731 16.6524 268.587 16.7094 268.437 16.7574C268.287 16.8054 268.155 16.8294 268.041 16.8294V16.0734C268.173 16.0734 268.32 16.0374 268.482 15.9654C268.644 15.8874 268.797 15.8004 268.941 15.7044C269.091 15.6024 269.217 15.5064 269.319 15.4164C269.427 15.3204 269.49 15.2544 269.508 15.2184H270.318V19.6374H271.461ZM272.255 20.3574V19.3494H272.921V20.3574H272.255ZM276.72 18.2334C277.104 18.2994 277.407 18.4764 277.629 18.7644C277.857 19.0524 277.971 19.4094 277.971 19.8354C277.971 20.1114 277.92 20.3634 277.818 20.5914C277.716 20.8194 277.569 21.0144 277.377 21.1764C277.191 21.3384 276.966 21.4614 276.702 21.5454C276.438 21.6354 276.144 21.6804 275.82 21.6804C275.364 21.6804 274.962 21.5934 274.614 21.4194C274.272 21.2514 274.005 21.0114 273.813 20.6994L274.344 20.1684C274.482 20.4144 274.668 20.6064 274.902 20.7444C275.136 20.8884 275.442 20.9604 275.82 20.9604C276.234 20.9604 276.558 20.8674 276.792 20.6814C277.032 20.4954 277.152 20.2134 277.152 19.8354C277.152 19.4574 277.023 19.1574 276.765 18.9354C276.513 18.7074 276.144 18.5934 275.658 18.5934H275.424V17.9274H275.676C276.108 17.9274 276.438 17.8254 276.666 17.6214C276.9 17.4114 277.017 17.1474 277.017 16.8294C277.017 16.5114 276.906 16.2744 276.684 16.1184C276.462 15.9624 276.183 15.8844 275.847 15.8844C275.517 15.8844 275.226 15.9564 274.974 16.1004C274.728 16.2384 274.536 16.4334 274.398 16.6854L273.912 16.1814C273.99 16.0314 274.095 15.8964 274.227 15.7764C274.365 15.6504 274.521 15.5424 274.695 15.4524C274.875 15.3624 275.067 15.2934 275.271 15.2454C275.481 15.1974 275.7 15.1734 275.928 15.1734C276.21 15.1734 276.468 15.2124 276.702 15.2904C276.942 15.3684 277.146 15.4764 277.314 15.6144C277.488 15.7524 277.62 15.9204 277.71 16.1184C277.806 16.3164 277.854 16.5354 277.854 16.7754C277.854 16.9554 277.827 17.1264 277.773 17.2884C277.725 17.4504 277.65 17.5974 277.548 17.7294C277.452 17.8614 277.332 17.9724 277.188 18.0624C277.05 18.1464 276.894 18.2034 276.72 18.2334ZM288.357 20.3574H287.565V17.7294C287.565 17.2374 287.484 16.8744 287.322 16.6404C287.166 16.4064 286.932 16.2894 286.62 16.2894C286.296 16.2894 286.005 16.4064 285.747 16.6404C285.495 16.8684 285.315 17.1654 285.207 17.5314V20.3574H284.415V17.7294C284.415 17.2254 284.337 16.8594 284.181 16.6314C284.025 16.4034 283.791 16.2894 283.479 16.2894C283.161 16.2894 282.873 16.4034 282.615 16.6314C282.357 16.8534 282.174 17.1504 282.066 17.5224V20.3574H281.274V15.6594H281.994V16.6674C282.186 16.3194 282.435 16.0524 282.741 15.8664C283.047 15.6744 283.392 15.5784 283.776 15.5784C284.172 15.5784 284.484 15.6864 284.712 15.9024C284.946 16.1124 285.09 16.3854 285.144 16.7214C285.564 15.9594 286.161 15.5784 286.935 15.5784C287.205 15.5784 287.43 15.6294 287.61 15.7314C287.796 15.8274 287.943 15.9654 288.051 16.1454C288.159 16.3194 288.237 16.5264 288.285 16.7664C288.333 17.0064 288.357 17.2674 288.357 17.5494V20.3574ZM289.588 20.3574V15.6594H290.38V20.3574H289.588ZM289.588 14.7774V13.7874H290.38V14.7774H289.588ZM291.68 13.7874H292.472V19.1424C292.472 19.3164 292.517 19.4544 292.607 19.5564C292.703 19.6524 292.835 19.7004 293.003 19.7004C293.069 19.7004 293.147 19.6914 293.237 19.6734C293.327 19.6494 293.411 19.6224 293.489 19.5924L293.615 20.2314C293.483 20.2854 293.327 20.3304 293.147 20.3664C292.967 20.4024 292.808 20.4204 292.67 20.4204C292.364 20.4204 292.121 20.3334 291.941 20.1594C291.767 19.9854 291.68 19.7424 291.68 19.4304V13.7874ZM296.317 20.4474C295.963 20.4474 295.639 20.3844 295.345 20.2584C295.051 20.1264 294.799 19.9494 294.589 19.7274C294.379 19.5054 294.214 19.2474 294.094 18.9534C293.98 18.6534 293.923 18.3384 293.923 18.0084C293.923 17.6784 293.98 17.3664 294.094 17.0724C294.214 16.7784 294.379 16.5204 294.589 16.2984C294.805 16.0764 295.06 15.9024 295.354 15.7764C295.648 15.6444 295.972 15.5784 296.326 15.5784C296.68 15.5784 297.001 15.6444 297.289 15.7764C297.583 15.9084 297.832 16.0854 298.036 16.3074C298.24 16.5234 298.396 16.7784 298.504 17.0724C298.618 17.3604 298.675 17.6604 298.675 17.9724C298.675 18.0384 298.672 18.0984 298.666 18.1524C298.666 18.2064 298.663 18.2484 298.657 18.2784H294.76C294.778 18.5124 294.832 18.7254 294.922 18.9174C295.012 19.1094 295.129 19.2744 295.273 19.4124C295.417 19.5504 295.579 19.6584 295.759 19.7364C295.945 19.8144 296.14 19.8534 296.344 19.8534C296.488 19.8534 296.629 19.8354 296.767 19.7994C296.905 19.7574 297.034 19.7034 297.154 19.6374C297.274 19.5714 297.379 19.4904 297.469 19.3944C297.565 19.2984 297.637 19.1904 297.685 19.0704L298.369 19.2594C298.291 19.4334 298.183 19.5924 298.045 19.7364C297.913 19.8804 297.757 20.0064 297.577 20.1144C297.403 20.2164 297.208 20.2974 296.992 20.3574C296.776 20.4174 296.551 20.4474 296.317 20.4474ZM297.928 17.6934C297.91 17.4714 297.853 17.2674 297.757 17.0814C297.667 16.8894 297.55 16.7274 297.406 16.5954C297.268 16.4634 297.106 16.3614 296.92 16.2894C296.734 16.2114 296.536 16.1724 296.326 16.1724C296.116 16.1724 295.918 16.2114 295.732 16.2894C295.546 16.3614 295.381 16.4664 295.237 16.6044C295.099 16.7364 294.985 16.8954 294.895 17.0814C294.811 17.2674 294.76 17.4714 294.742 17.6934H297.928ZM301.202 20.4474C300.824 20.4474 300.452 20.3904 300.086 20.2764C299.72 20.1564 299.405 19.9854 299.141 19.7634L299.483 19.2324C299.759 19.4424 300.035 19.6014 300.311 19.7094C300.587 19.8114 300.878 19.8624 301.184 19.8624C301.526 19.8624 301.796 19.7964 301.994 19.6644C302.198 19.5264 302.3 19.3344 302.3 19.0884C302.3 18.9744 302.273 18.8784 302.219 18.8004C302.165 18.7164 302.084 18.6444 301.976 18.5844C301.868 18.5244 301.73 18.4704 301.562 18.4224C301.394 18.3744 301.199 18.3234 300.977 18.2694C300.695 18.1974 300.452 18.1284 300.248 18.0624C300.044 17.9964 299.876 17.9184 299.744 17.8284C299.612 17.7384 299.516 17.6304 299.456 17.5044C299.396 17.3784 299.366 17.2224 299.366 17.0364C299.366 16.8024 299.411 16.5954 299.501 16.4154C299.597 16.2294 299.726 16.0764 299.888 15.9564C300.05 15.8304 300.239 15.7374 300.455 15.6774C300.677 15.6114 300.914 15.5784 301.166 15.5784C301.52 15.5784 301.85 15.6354 302.156 15.7494C302.462 15.8634 302.72 16.0134 302.93 16.1994L302.57 16.6764C302.372 16.5024 302.15 16.3734 301.904 16.2894C301.658 16.1994 301.406 16.1544 301.148 16.1544C300.86 16.1544 300.614 16.2174 300.41 16.3434C300.212 16.4634 300.113 16.6584 300.113 16.9284C300.113 17.0364 300.131 17.1264 300.167 17.1984C300.209 17.2704 300.275 17.3334 300.365 17.3874C300.455 17.4414 300.569 17.4894 300.707 17.5314C300.851 17.5734 301.022 17.6184 301.22 17.6664C301.532 17.7384 301.802 17.8134 302.03 17.8914C302.264 17.9634 302.456 18.0504 302.606 18.1524C302.762 18.2544 302.876 18.3744 302.948 18.5124C303.026 18.6504 303.065 18.8184 303.065 19.0164C303.065 19.4544 302.897 19.8024 302.561 20.0604C302.225 20.3184 301.772 20.4474 301.202 20.4474ZM272.901 30.4934C272.337 31.0994 271.689 31.4024 270.957 31.4024C270.531 31.4024 270.135 31.3094 269.769 31.1234C269.409 30.9374 269.097 30.6944 268.833 30.3944C268.569 30.0884 268.359 29.7404 268.203 29.3504C268.053 28.9604 267.978 28.5584 267.978 28.1444C267.978 27.7124 268.053 27.3044 268.203 26.9204C268.353 26.5304 268.56 26.1884 268.824 25.8944C269.088 25.5944 269.403 25.3574 269.769 25.1834C270.135 25.0094 270.531 24.9224 270.957 24.9224C271.575 24.9224 272.082 25.0514 272.478 25.3094C272.88 25.5674 273.186 25.9034 273.396 26.3174L272.775 26.7494C272.583 26.3774 272.328 26.1014 272.01 25.9214C271.692 25.7414 271.335 25.6514 270.939 25.6514C270.615 25.6514 270.321 25.7234 270.057 25.8674C269.793 26.0054 269.568 26.1914 269.382 26.4254C269.196 26.6534 269.052 26.9204 268.95 27.2264C268.848 27.5264 268.797 27.8384 268.797 28.1624C268.797 28.5044 268.854 28.8284 268.968 29.1344C269.082 29.4344 269.238 29.7014 269.436 29.9354C269.634 30.1634 269.868 30.3434 270.138 30.4754C270.408 30.6074 270.702 30.6734 271.02 30.6734C271.716 30.6734 272.343 30.3374 272.901 29.6654V28.7834H271.524V28.1714H273.585V31.3574H272.901V30.4934ZM276.743 31.4474C276.389 31.4474 276.065 31.3814 275.771 31.2494C275.483 31.1174 275.234 30.9404 275.024 30.7184C274.82 30.4964 274.661 30.2384 274.547 29.9444C274.433 29.6504 274.376 29.3414 274.376 29.0174C274.376 28.6874 274.433 28.3754 274.547 28.0814C274.667 27.7874 274.829 27.5294 275.033 27.3074C275.243 27.0854 275.492 26.9084 275.78 26.7764C276.074 26.6444 276.395 26.5784 276.743 26.5784C277.091 26.5784 277.412 26.6444 277.706 26.7764C278 26.9084 278.249 27.0854 278.453 27.3074C278.663 27.5294 278.825 27.7874 278.939 28.0814C279.059 28.3754 279.119 28.6874 279.119 29.0174C279.119 29.3414 279.062 29.6504 278.948 29.9444C278.834 30.2384 278.672 30.4964 278.462 30.7184C278.252 30.9404 278 31.1174 277.706 31.2494C277.418 31.3814 277.097 31.4474 276.743 31.4474ZM275.186 29.0264C275.186 29.2724 275.225 29.5004 275.303 29.7104C275.387 29.9204 275.498 30.1034 275.636 30.2594C275.78 30.4154 275.945 30.5384 276.131 30.6284C276.323 30.7184 276.527 30.7634 276.743 30.7634C276.959 30.7634 277.16 30.7184 277.346 30.6284C277.538 30.5384 277.706 30.4154 277.85 30.2594C277.994 30.0974 278.105 29.9114 278.183 29.7014C278.267 29.4854 278.309 29.2544 278.309 29.0084C278.309 28.7684 278.267 28.5434 278.183 28.3334C278.105 28.1174 277.994 27.9314 277.85 27.7754C277.706 27.6134 277.538 27.4874 277.346 27.3974C277.16 27.3074 276.959 27.2624 276.743 27.2624C276.527 27.2624 276.323 27.3104 276.131 27.4064C275.945 27.4964 275.78 27.6224 275.636 27.7844C275.498 27.9404 275.387 28.1264 275.303 28.3424C275.225 28.5524 275.186 28.7804 275.186 29.0264ZM285.806 26.6594H286.571L284.573 31.3574H283.916L282.971 29.0624L282.035 31.3574H281.378L279.38 26.6594H280.136L281.756 30.5744L282.548 28.6214L281.738 26.6684H282.395L282.971 28.1714L283.547 26.6684H284.204L283.403 28.6214L284.195 30.5744L285.806 26.6594ZM288.404 31.4474C288.182 31.4474 287.975 31.4114 287.783 31.3394C287.591 31.2614 287.423 31.1564 287.279 31.0244C287.141 30.8924 287.03 30.7394 286.946 30.5654C286.868 30.3854 286.829 30.1904 286.829 29.9804C286.829 29.7644 286.877 29.5694 286.973 29.3954C287.069 29.2154 287.204 29.0624 287.378 28.9364C287.558 28.8104 287.768 28.7114 288.008 28.6394C288.254 28.5674 288.521 28.5314 288.809 28.5314C289.037 28.5314 289.268 28.5524 289.502 28.5944C289.736 28.6364 289.943 28.6934 290.123 28.7654V28.3874C290.123 28.0034 290.015 27.7034 289.799 27.4874C289.583 27.2654 289.277 27.1544 288.881 27.1544C288.407 27.1544 287.909 27.3374 287.387 27.7034L287.126 27.1904C287.732 26.7824 288.341 26.5784 288.953 26.5784C289.571 26.5784 290.051 26.7434 290.393 27.0734C290.741 27.4034 290.915 27.8684 290.915 28.4684V30.3854C290.915 30.5714 290.999 30.6674 291.167 30.6734V31.3574C291.083 31.3694 291.014 31.3784 290.96 31.3844C290.906 31.3904 290.849 31.3934 290.789 31.3934C290.633 31.3934 290.507 31.3484 290.411 31.2584C290.321 31.1624 290.267 31.0484 290.249 30.9164L290.231 30.5834C290.021 30.8654 289.754 31.0814 289.43 31.2314C289.112 31.3754 288.77 31.4474 288.404 31.4474ZM288.611 30.8534C288.893 30.8534 289.154 30.8024 289.394 30.7004C289.64 30.5924 289.826 30.4514 289.952 30.2774C290.066 30.1634 290.123 30.0464 290.123 29.9264V29.2334C289.739 29.0834 289.34 29.0084 288.926 29.0084C288.53 29.0084 288.206 29.0924 287.954 29.2604C287.708 29.4284 287.585 29.6474 287.585 29.9174C287.585 30.0494 287.609 30.1724 287.657 30.2864C287.711 30.4004 287.783 30.4994 287.873 30.5834C287.969 30.6674 288.08 30.7334 288.206 30.7814C288.332 30.8294 288.467 30.8534 288.611 30.8534ZM296.258 31.3574H295.466V28.7294C295.466 28.2254 295.388 27.8594 295.232 27.6314C295.082 27.4034 294.851 27.2894 294.539 27.2894C294.377 27.2894 294.215 27.3224 294.053 27.3884C293.891 27.4484 293.738 27.5324 293.594 27.6404C293.45 27.7484 293.324 27.8774 293.216 28.0274C293.108 28.1774 293.027 28.3424 292.973 28.5224V31.3574H292.181V26.6594H292.901V27.6674C293.087 27.3374 293.354 27.0734 293.702 26.8754C294.056 26.6774 294.44 26.5784 294.854 26.5784C295.124 26.5784 295.349 26.6294 295.529 26.7314C295.709 26.8274 295.853 26.9654 295.961 27.1454C296.069 27.3194 296.144 27.5264 296.186 27.7664C296.234 28.0064 296.258 28.2674 296.258 28.5494V31.3574ZM298.939 31.4474C298.447 31.4474 298.075 31.2824 297.823 30.9524C297.571 30.6224 297.445 30.1304 297.445 29.4764V26.6594H298.237V29.3234C298.237 30.2834 298.57 30.7634 299.236 30.7634C299.56 30.7634 299.863 30.6614 300.145 30.4574C300.433 30.2474 300.646 29.9624 300.784 29.6024V26.6594H301.576V30.3854C301.576 30.5714 301.66 30.6674 301.828 30.6734V31.3574C301.738 31.3694 301.666 31.3754 301.612 31.3754C301.564 31.3814 301.516 31.3844 301.468 31.3844C301.312 31.3844 301.18 31.3394 301.072 31.2494C300.97 31.1534 300.916 31.0364 300.91 30.8984L300.892 30.3494C300.682 30.7034 300.406 30.9764 300.064 31.1684C299.722 31.3544 299.347 31.4474 298.939 31.4474ZM304.542 31.4474C304.164 31.4474 303.792 31.3904 303.426 31.2764C303.06 31.1564 302.745 30.9854 302.481 30.7634L302.823 30.2324C303.099 30.4424 303.375 30.6014 303.651 30.7094C303.927 30.8114 304.218 30.8624 304.524 30.8624C304.866 30.8624 305.136 30.7964 305.334 30.6644C305.538 30.5264 305.64 30.3344 305.64 30.0884C305.64 29.9744 305.613 29.8784 305.559 29.8004C305.505 29.7164 305.424 29.6444 305.316 29.5844C305.208 29.5244 305.07 29.4704 304.902 29.4224C304.734 29.3744 304.539 29.3234 304.317 29.2694C304.035 29.1974 303.792 29.1284 303.588 29.0624C303.384 28.9964 303.216 28.9184 303.084 28.8284C302.952 28.7384 302.856 28.6304 302.796 28.5044C302.736 28.3784 302.706 28.2224 302.706 28.0364C302.706 27.8024 302.751 27.5954 302.841 27.4154C302.937 27.2294 303.066 27.0764 303.228 26.9564C303.39 26.8304 303.579 26.7374 303.795 26.6774C304.017 26.6114 304.254 26.5784 304.506 26.5784C304.86 26.5784 305.19 26.6354 305.496 26.7494C305.802 26.8634 306.06 27.0134 306.27 27.1994L305.91 27.6764C305.712 27.5024 305.49 27.3734 305.244 27.2894C304.998 27.1994 304.746 27.1544 304.488 27.1544C304.2 27.1544 303.954 27.2174 303.75 27.3434C303.552 27.4634 303.453 27.6584 303.453 27.9284C303.453 28.0364 303.471 28.1264 303.507 28.1984C303.549 28.2704 303.615 28.3334 303.705 28.3874C303.795 28.4414 303.909 28.4894 304.047 28.5314C304.191 28.5734 304.362 28.6184 304.56 28.6664C304.872 28.7384 305.142 28.8134 305.37 28.8914C305.604 28.9634 305.796 29.0504 305.946 29.1524C306.102 29.2544 306.216 29.3744 306.288 29.5124C306.366 29.6504 306.405 29.8184 306.405 30.0164C306.405 30.4544 306.237 30.8024 305.901 31.0604C305.565 31.3184 305.112 31.4474 304.542 31.4474Z" fill="#5C5C5C"/>
</g>
<path d="M243.211 19.3722L243.318 18.941L242.894 19.0739L240.817 19.725L240.642 19.78V19.9636V22.8764H238.834V18.9332L244.627 16.9574C244.801 16.9539 244.949 16.9301 245.08 16.9089L245.085 16.9081C245.23 16.8847 245.356 16.8648 245.507 16.8648C246.233 16.8648 246.856 17.1976 247.273 17.7014L248.422 19.1824C249.365 20.5096 251.187 21.4443 253.334 21.512V22.8733C250.953 22.8146 248.809 21.9211 247.408 20.6178L247.097 20.3287L246.995 20.7406L246.303 23.5313L246.263 23.6901L246.393 23.7898L248.719 25.5752V32.1787H246.911V26.8473V26.7241L246.813 26.649L244.39 24.7886L244.097 24.5632L243.997 24.9196L241.971 32.1787H240.057L243.211 19.3722ZM249.296 14.2892C249.296 15.1268 248.422 15.8996 247.238 15.8996C246.054 15.8996 245.18 15.1268 245.18 14.2892C245.18 13.4516 246.054 12.6787 247.238 12.6787C248.422 12.6787 249.296 13.4516 249.296 14.2892Z" fill="#246B6D" fill-opacity="0.5" stroke="#246B6D" stroke-width="0.5"/>
<path d="M178.571 87.1104H178.821V86.8604V80.7904V80.5644L178.596 80.5416C176.782 80.3579 175.084 79.8234 173.691 79.0036C172.299 78.1837 171.275 77.1159 170.721 75.9299C170.169 74.7471 170.101 73.4853 170.522 72.2804C170.937 71.092 171.816 69.9929 173.079 69.1104H186.921C188.184 69.9929 189.063 71.092 189.478 72.2804C189.899 73.4853 189.831 74.7471 189.279 75.9299C188.725 77.1159 187.701 78.1837 186.309 79.0036C184.916 79.8234 183.218 80.3579 181.404 80.5416L181.179 80.5644V80.7904V86.8604V87.1104H181.429H184.286C184.622 87.1104 184.933 87.2044 185.153 87.3581C185.372 87.5111 185.465 87.6961 185.465 87.8604C185.465 88.0247 185.372 88.2096 185.153 88.3626C184.933 88.5163 184.622 88.6104 184.286 88.6104H175.714C175.378 88.6104 175.067 88.5163 174.847 88.3626C174.628 88.2096 174.535 88.0247 174.535 87.8604C174.535 87.6961 174.628 87.5111 174.847 87.3581C175.067 87.2044 175.378 87.1104 175.714 87.1104H178.571ZM172.613 73.8025L172.54 74.1104H172.856H187.144H187.46L187.387 73.8025C187.043 72.3565 186.552 71.2979 185.885 70.6773L185.813 70.6104H185.715H174.285H174.187L174.115 70.6773C173.448 71.2979 172.957 72.3565 172.613 73.8025Z" fill="#246B6D" fill-opacity="0.7" stroke="#246B6D" stroke-width="0.5"/>
<path d="M98.2969 75.3604H98.8983L98.4741 74.934L94.646 71.0864L94.5276 70.9674L94.3726 71.0319C94.2443 71.0854 94.1206 71.1104 94 71.1104C93.7302 71.1104 93.5001 71.0147 93.2979 70.8125C93.0966 70.6112 93 70.3783 93 70.1006C93 69.823 93.0964 69.5947 93.2955 69.4008C93.4963 69.2053 93.7299 69.1104 94.0098 69.1104C94.2895 69.1104 94.5186 69.2051 94.7119 69.3985C94.9042 69.5908 95 69.8227 95 70.1104C95 70.2309 94.9751 70.3546 94.9216 70.4829L94.857 70.6379L94.976 70.7563L98.8237 74.5845L99 74.7599L99.1763 74.5845L103.024 70.7563L103.143 70.6379L103.078 70.4829C103.025 70.3546 103 70.2309 103 70.1104C103 69.8249 103.097 69.5937 103.295 69.4008C103.496 69.2053 103.73 69.1104 104.01 69.1104C104.289 69.1104 104.519 69.2051 104.712 69.3985C104.905 69.5918 105 69.8209 105 70.1006C105 70.3804 104.905 70.6141 104.71 70.8149C104.517 71.0129 104.285 71.1104 104 71.1104C103.879 71.1104 103.756 71.0854 103.627 71.0319L103.472 70.9674L103.354 71.0864L99.5259 74.934L99.1017 75.3604H99.7031H106.5C107.124 75.3604 107.649 75.5781 108.091 76.0196C108.532 76.461 108.75 76.9866 108.75 77.6104V86.3604C108.75 86.9841 108.532 87.5097 108.091 87.9512C107.649 88.3926 107.124 88.6104 106.5 88.6104H91.5C90.8762 88.6104 90.3506 88.3926 89.9092 87.9512C89.4678 87.5097 89.25 86.9841 89.25 86.3604V77.6104C89.25 76.9866 89.4678 76.461 89.9092 76.0196C90.3506 75.5781 90.8762 75.3604 91.5 75.3604H98.2969ZM101.531 77.3623L101.516 77.3604H101.5H91.5H91.4804L91.461 77.3634C91.1587 77.4111 90.8995 77.5486 90.6918 77.7723C90.5042 77.9743 90.3619 78.1929 90.2708 78.4283C90.1829 78.6553 90.1176 78.9433 90.0707 79.2853C90.0247 79.6205 90 79.8879 90 80.0811V82.9814C90 83.3009 90.0133 83.6172 90.04 83.9304C90.067 84.2482 90.1208 84.603 90.2003 84.9942C90.2834 85.4028 90.4209 85.7575 90.619 86.051C90.8282 86.3611 91.1113 86.5574 91.4646 86.6078L91.4822 86.6104H91.5H101.5H101.517L101.533 86.6082C101.774 86.5761 101.991 86.4831 102.183 86.3318C102.382 86.174 102.526 85.9568 102.623 85.6954C102.71 85.4616 102.781 85.2424 102.835 85.038C102.893 84.8214 102.931 84.5564 102.951 84.2477C102.97 83.948 102.983 83.7246 102.99 83.5787C102.997 83.43 103 83.2303 103 82.9814V80.9893C103 79.905 102.896 79.0512 102.672 78.4465C102.447 77.8383 102.078 77.4307 101.531 77.3623ZM107.125 77.3604H104.625C104.387 77.3604 104.178 77.4503 104.009 77.6191C103.84 77.788 103.75 77.9973 103.75 78.2354C103.75 78.4734 103.84 78.6828 104.009 78.8516C104.178 79.0204 104.387 79.1104 104.625 79.1104H107.125C107.363 79.1104 107.572 79.0204 107.741 78.8516C107.91 78.6828 108 78.4734 108 78.2354C108 77.9973 107.91 77.788 107.741 77.6191C107.572 77.4503 107.363 77.3604 107.125 77.3604ZM107.125 79.8604H104.625C104.387 79.8604 104.178 79.9503 104.009 80.1191C103.84 80.288 103.75 80.4973 103.75 80.7354C103.75 80.9734 103.84 81.1828 104.009 81.3516C104.178 81.5204 104.387 81.6104 104.625 81.6104H107.125C107.363 81.6104 107.572 81.5204 107.741 81.3516C107.91 81.1828 108 80.9734 108 80.7354C108 80.4973 107.91 80.288 107.741 80.1191C107.572 79.9503 107.363 79.8604 107.125 79.8604ZM107.125 82.3604H104.625C104.387 82.3604 104.178 82.4503 104.009 82.6191C103.84 82.788 103.75 82.9973 103.75 83.2354C103.75 83.4734 103.84 83.6828 104.009 83.8516C104.178 84.0204 104.387 84.1104 104.625 84.1104H107.125C107.363 84.1104 107.572 84.0204 107.741 83.8516C107.91 83.6828 108 83.4734 108 83.2354C108 82.9973 107.91 82.788 107.741 82.6191C107.572 82.4503 107.363 82.3604 107.125 82.3604ZM107.125 84.8604H104.625C104.387 84.8604 104.178 84.9503 104.009 85.1191C103.84 85.288 103.75 85.4973 103.75 85.7354C103.75 85.9734 103.84 86.1828 104.009 86.3516C104.178 86.5204 104.387 86.6104 104.625 86.6104H107.125C107.363 86.6104 107.572 86.5204 107.741 86.3516C107.91 86.1828 108 85.9734 108 85.7354C108 85.4973 107.91 85.288 107.741 85.1191C107.572 84.9503 107.363 84.8604 107.125 84.8604Z" fill="#246B6D" fill-opacity="0.7" stroke="#246B6D" stroke-width="0.5"/>
<mask id="path-27-inside-1" fill="white">
<path d="M161.354 74.9331L161.697 74.3671C161.697 74.3671 161.999 73.8664 161.999 73.194C161.999 71.5654 160.445 71.6084 160.445 71.6084L157.06 70.6867L155.213 68.8604L152.782 69.522L151.985 69.305L151.38 69.904L147.881 70.8567C147.881 70.8567 146.534 70.8197 146.534 72.231C146.534 72.8137 146.796 73.2477 146.796 73.2477L147.246 73.9911L146.851 74.3817L144.897 74.9137C144.897 74.9137 143.343 74.8707 143.343 76.4994C143.346 76.8789 143.435 77.2527 143.603 77.5931L143 78.1894L143.316 78.3147C143.323 78.3317 143.326 78.3507 143.34 78.3644C143.951 78.9774 143.901 79.8008 143.814 80.2454L143.444 80.6158L146.244 81.9621L150.09 88.3105C150.707 89.2792 152.015 88.6732 152.015 88.6732L161.898 83.9211L161.528 83.5508C161.441 83.1061 161.391 82.2828 162.002 81.6694C162.016 81.6558 162.019 81.6368 162.026 81.6201L162.342 81.4944L160.504 79.6778L162.614 78.6634L162.294 78.3424C162.218 77.9571 162.175 77.2434 162.705 76.7121C162.717 76.7001 162.719 76.6841 162.725 76.6691L163 76.5601L161.354 74.9331ZM159.459 71.988L159.043 72.6474L157.965 71.5814L159.459 71.988ZM155.392 70.575L156.94 72.2294L151.343 74.2517L150.022 72.1997L155.392 70.575ZM147.581 74.5444L151.4 80.8481L144.125 77.9621L147.581 74.5444ZM145.99 75.2334L145.541 75.6767L145.362 75.4017L145.99 75.2334ZM144.574 75.5781L144.991 76.2204L144.087 77.1144C144.016 76.9171 143.979 76.7092 143.977 76.4994C143.977 75.8907 144.279 75.6591 144.574 75.5781ZM144.051 80.5358L144.056 80.5164L152.439 84.1855L144.122 80.2208C144.13 80.1758 144.136 80.1261 144.142 80.0761L150.653 82.8028L144.165 79.7641C144.166 79.6252 144.157 79.4864 144.136 79.3491L150.162 81.8308L144.055 78.9938C144.016 78.8624 143.963 78.7354 143.898 78.6148L152.193 82.1564L152.381 82.4678C152.77 83.0791 153.476 82.9661 153.832 82.8601C154.323 83.1028 155.205 83.6641 154.979 84.4911C154.86 84.9285 154.598 85.1405 154.179 85.1405C153.755 85.1405 153.331 84.9185 153.327 84.9155L144.051 80.5358ZM152.4 84.9221L151.745 85.1935L151.188 84.3391L152.4 84.9221ZM149.862 86.7158L147.286 82.4628L149.846 83.6938L151.057 85.5578C150.569 85.7665 150.023 86.2428 149.862 86.7158ZM161.206 82.6544C161.186 82.7918 161.176 82.9306 161.178 83.0694L154.689 86.1081L161.2 83.3815C161.207 83.4311 161.212 83.4811 161.22 83.5261L152.904 87.4911L161.286 83.8221C161.288 83.8285 161.29 83.835 161.291 83.8415L152.015 88.2205C152.011 88.2235 151.588 88.4455 151.163 88.4455C150.744 88.4455 150.482 88.2331 150.363 87.7961C150.057 86.6738 151.797 86.0375 151.823 86.0278L153.348 85.3771C153.512 85.4468 154.68 85.9051 155.252 85.0055L155.613 84.4101L161.444 81.9201C161.379 82.0408 161.327 82.1678 161.287 82.2991L155.18 85.1361L161.206 82.6544ZM161.218 81.2674L156.276 83.3155L157.647 81.0518L159.903 79.9674L161.218 81.2674ZM162.015 77.5651C161.998 77.6841 161.989 77.8044 161.99 77.9247L156.368 80.5581L162.01 78.1951C162.016 78.2381 162.021 78.2817 162.028 78.3204L154.82 81.7564L162.084 78.5768C162.086 78.5822 162.088 78.5878 162.089 78.5934L154.05 82.3891C154.046 82.3914 153.679 82.5841 153.311 82.5841C152.947 82.5841 152.721 82.3998 152.618 82.0211C152.353 81.0484 153.861 80.4971 153.883 80.4888L162.221 76.9287C162.165 77.0334 162.12 77.1435 162.086 77.2574L156.792 79.7161L162.015 77.5651Z"/>
</mask>
<path d="M161.354 74.9331L161.697 74.3671C161.697 74.3671 161.999 73.8664 161.999 73.194C161.999 71.5654 160.445 71.6084 160.445 71.6084L157.06 70.6867L155.213 68.8604L152.782 69.522L151.985 69.305L151.38 69.904L147.881 70.8567C147.881 70.8567 146.534 70.8197 146.534 72.231C146.534 72.8137 146.796 73.2477 146.796 73.2477L147.246 73.9911L146.851 74.3817L144.897 74.9137C144.897 74.9137 143.343 74.8707 143.343 76.4994C143.346 76.8789 143.435 77.2527 143.603 77.5931L143 78.1894L143.316 78.3147C143.323 78.3317 143.326 78.3507 143.34 78.3644C143.951 78.9774 143.901 79.8008 143.814 80.2454L143.444 80.6158L146.244 81.9621L150.09 88.3105C150.707 89.2792 152.015 88.6732 152.015 88.6732L161.898 83.9211L161.528 83.5508C161.441 83.1061 161.391 82.2828 162.002 81.6694C162.016 81.6558 162.019 81.6368 162.026 81.6201L162.342 81.4944L160.504 79.6778L162.614 78.6634L162.294 78.3424C162.218 77.9571 162.175 77.2434 162.705 76.7121C162.717 76.7001 162.719 76.6841 162.725 76.6691L163 76.5601L161.354 74.9331ZM159.459 71.988L159.043 72.6474L157.965 71.5814L159.459 71.988ZM155.392 70.575L156.94 72.2294L151.343 74.2517L150.022 72.1997L155.392 70.575ZM147.581 74.5444L151.4 80.8481L144.125 77.9621L147.581 74.5444ZM145.99 75.2334L145.541 75.6767L145.362 75.4017L145.99 75.2334ZM144.574 75.5781L144.991 76.2204L144.087 77.1144C144.016 76.9171 143.979 76.7092 143.977 76.4994C143.977 75.8907 144.279 75.6591 144.574 75.5781ZM144.051 80.5358L144.056 80.5164L152.439 84.1855L144.122 80.2208C144.13 80.1758 144.136 80.1261 144.142 80.0761L150.653 82.8028L144.165 79.7641C144.166 79.6252 144.157 79.4864 144.136 79.3491L150.162 81.8308L144.055 78.9938C144.016 78.8624 143.963 78.7354 143.898 78.6148L152.193 82.1564L152.381 82.4678C152.77 83.0791 153.476 82.9661 153.832 82.8601C154.323 83.1028 155.205 83.6641 154.979 84.4911C154.86 84.9285 154.598 85.1405 154.179 85.1405C153.755 85.1405 153.331 84.9185 153.327 84.9155L144.051 80.5358ZM152.4 84.9221L151.745 85.1935L151.188 84.3391L152.4 84.9221ZM149.862 86.7158L147.286 82.4628L149.846 83.6938L151.057 85.5578C150.569 85.7665 150.023 86.2428 149.862 86.7158ZM161.206 82.6544C161.186 82.7918 161.176 82.9306 161.178 83.0694L154.689 86.1081L161.2 83.3815C161.207 83.4311 161.212 83.4811 161.22 83.5261L152.904 87.4911L161.286 83.8221C161.288 83.8285 161.29 83.835 161.291 83.8415L152.015 88.2205C152.011 88.2235 151.588 88.4455 151.163 88.4455C150.744 88.4455 150.482 88.2331 150.363 87.7961C150.057 86.6738 151.797 86.0375 151.823 86.0278L153.348 85.3771C153.512 85.4468 154.68 85.9051 155.252 85.0055L155.613 84.4101L161.444 81.9201C161.379 82.0408 161.327 82.1678 161.287 82.2991L155.18 85.1361L161.206 82.6544ZM161.218 81.2674L156.276 83.3155L157.647 81.0518L159.903 79.9674L161.218 81.2674ZM162.015 77.5651C161.998 77.6841 161.989 77.8044 161.99 77.9247L156.368 80.5581L162.01 78.1951C162.016 78.2381 162.021 78.2817 162.028 78.3204L154.82 81.7564L162.084 78.5768C162.086 78.5822 162.088 78.5878 162.089 78.5934L154.05 82.3891C154.046 82.3914 153.679 82.5841 153.311 82.5841C152.947 82.5841 152.721 82.3998 152.618 82.0211C152.353 81.0484 153.861 80.4971 153.883 80.4888L162.221 76.9287C162.165 77.0334 162.12 77.1435 162.086 77.2574L156.792 79.7161L162.015 77.5651Z" fill="#246B6D" fill-opacity="0.7" stroke="#246B6D" mask="url(#path-27-inside-1)"/>
<path d="M120.921 71.0942C120.66 70.772 120.512 70.4752 120.456 70.202H122.68C123.022 70.202 123.337 70.3702 123.629 70.7742C123.876 71.1155 124.02 71.5013 124.059 71.9372H122.68H122.43V72.1872V73.2788V73.5288H122.68H130.18H130.43V73.2788V72.1872C130.43 71.7418 130.133 71.414 129.689 71.1852C129.265 70.9667 128.866 70.8456 128.5 70.8456C128.292 70.8456 128.169 70.7776 128.088 70.664C127.995 70.535 127.93 70.3108 127.93 69.952C127.93 69.6122 127.995 69.403 128.085 69.2834C128.164 69.1773 128.287 69.1104 128.5 69.1104C129.113 69.1104 129.635 69.3839 130.077 69.9722C130.521 70.5631 130.75 71.2963 130.75 72.1872V77.7492V77.9992H131C132.495 77.9992 133.614 78.5253 134.394 79.5628L134.394 79.563L134.4 79.5712C135.303 80.672 135.75 81.8988 135.75 83.2593C135.75 84.9378 135.247 86.3135 134.253 87.4055C133.754 87.9533 133.235 88.3055 132.7 88.4797C132.168 88.6528 131.602 88.6554 130.995 88.4784C130.298 88.2537 129.675 87.7949 129.128 87.0835C128.58 86.3713 128.232 85.5692 128.083 84.6736L128.083 84.6736L128.082 84.671C127.853 83.3857 127.907 82.2502 128.23 81.2574L127.781 81.0464L126.531 83.0217L126.524 83.0322L126.519 83.0434C126.326 83.4283 126.089 83.7027 125.815 83.8816C125.541 84.0597 125.216 84.1529 124.828 84.1529H124.242H124.03L123.995 84.3628C123.794 85.6049 123.33 86.6152 122.612 87.4057C121.897 88.1931 121.089 88.5714 120.18 88.5714C119.099 88.5714 118.179 88.0817 117.411 87.0597C116.641 86.0355 116.25 84.7736 116.25 83.2593C116.25 82.4795 116.481 81.6027 116.961 80.6249C117.627 79.5371 118.288 78.8009 118.937 78.3892C119.578 77.9824 120.208 77.8909 120.847 78.0917L121.097 78.1704L121.164 77.9165L122.062 74.4857L122.07 74.4546V74.4224V72.1872V72.0292L121.928 71.9614C121.608 71.8096 121.271 71.5274 120.921 71.0942ZM120.657 79.9919L120.733 79.6825H120.414H120.18C119.363 79.6825 118.692 80.0478 118.181 80.7466C117.676 81.4378 117.43 82.2803 117.43 83.2593C117.43 84.2704 117.674 85.124 118.183 85.8007C118.695 86.4822 119.366 86.8361 120.18 86.8361C120.772 86.8361 121.306 86.6073 121.775 86.1717C122.247 85.7345 122.562 85.1596 122.728 84.4606L122.801 84.1529H122.484H119.639L120.657 79.9919ZM121.57 82.1677V82.4177H121.82H122.68H123.027L122.917 82.0885C122.791 81.7121 122.463 81.312 121.986 80.8891L121.57 80.5201V81.0761V82.1677ZM122.167 78.5595L122.068 78.8829H122.307C122.346 78.9248 122.4 78.9863 122.47 79.0687C122.625 79.2486 122.852 79.5199 123.151 79.8834L123.586 79.6612L123 77.4259L122.777 76.5764L122.519 77.4159L122.167 78.5595ZM131.635 82.9879L131.621 83.003L131.61 83.02C131.494 83.201 131.372 83.2536 131.232 83.2438C131.091 83.234 130.943 83.1544 130.792 82.9331C130.513 82.2557 130.298 81.649 130.147 81.1122L129.997 80.5808L129.697 81.0439C129.161 81.869 128.989 82.8864 129.151 84.0729L129.151 84.0729L129.152 84.0781C129.261 84.7731 129.511 85.3769 129.904 85.8821C130.301 86.3906 130.793 86.7132 131.378 86.8308C132.254 87.0243 133.02 86.7527 133.647 86.051C134.269 85.3549 134.57 84.4509 134.57 83.3633C134.57 82.6205 134.36 81.9167 133.947 81.2558C133.558 80.6324 133.146 80.1719 132.703 79.9011C132.25 79.6248 131.771 79.55 131.282 79.6924L131.053 79.759L131.108 79.9906C131.292 80.7575 131.478 81.3625 131.669 81.7982C131.91 82.3774 131.854 82.7442 131.635 82.9879ZM125.249 82.3306L125.422 83.0435L125.721 82.3733L128.728 75.6157L128.885 75.264H128.5H123.852H123.534L123.609 75.573L125.249 82.3306ZM128.266 79.8445L128.718 80.0552C128.942 79.6576 129.202 79.3123 129.497 79.0178L129.57 78.9446V78.8409V77.7492L129.086 77.6613L128.266 79.8445Z" fill="#246B6D" fill-opacity="0.7" stroke="#246B6D" stroke-width="0.5"/>
<path d="M78 82.4437H78.25V82.1937V77.1937C78.25 76.7701 78.3532 76.3996 78.507 76.1433C78.6636 75.8822 78.8455 75.777 79 75.777H80C80.429 75.777 80.8611 76.0691 81.1993 76.6329C81.5344 77.1914 81.75 77.9787 81.75 78.8604C81.75 80.0436 81.3575 81.0331 80.8256 81.551L80.75 81.6246V81.7301V88.027C80.75 88.2183 80.7025 88.3806 80.6388 88.4869C80.5717 88.5987 80.5145 88.6104 80.5 88.6104H78.5C78.4855 88.6104 78.4283 88.5987 78.3612 88.4869C78.2975 88.3806 78.25 88.2183 78.25 88.027V87.1937V86.9437H78H66H65.75V87.1937V88.027C65.75 88.2183 65.7025 88.3806 65.6388 88.4869C65.5717 88.5987 65.5145 88.6104 65.5 88.6104H63.5C63.4855 88.6104 63.4283 88.5987 63.3612 88.4869C63.2975 88.3806 63.25 88.2183 63.25 88.027V81.7301V81.6246L63.1744 81.551C62.6425 81.0331 62.25 80.0436 62.25 78.8604C62.25 77.9787 62.4656 77.1914 62.8007 76.6329C63.1389 76.0691 63.571 75.777 64 75.777H65C65.1545 75.777 65.3364 75.8822 65.493 76.1433C65.6468 76.3996 65.75 76.7701 65.75 77.1937V82.1937V82.4437H66H78ZM76.75 80.277H67.25V77.1937C67.25 76.2368 67.0171 75.3574 66.628 74.7089C66.2421 74.0656 65.6741 73.6104 65 73.6104H64.2538C64.2916 72.3686 64.6096 71.26 65.0933 70.4538C65.6123 69.5889 66.2942 69.1104 67 69.1104H77C77.7058 69.1104 78.3877 69.5889 78.9067 70.4538C79.3904 71.26 79.7084 72.3686 79.7462 73.6104H79C78.3259 73.6104 77.7579 74.0656 77.372 74.7089C76.9829 75.3574 76.75 76.2368 76.75 77.1937V80.277Z" fill="#246B6D" fill-opacity="0.7" stroke="#246B6D" stroke-width="0.5"/>
<defs>
<filter id="filter0_d" x="5" y="0.5" width="202" height="62" filterUnits="userSpaceOnUse" color-interpolation-filters="sRGB">
<feFlood flood-opacity="0" result="BackgroundImageFix"/>
<feColorMatrix in="SourceAlpha" type="matrix" values="0 0 0 0 0 0 0 0 0 0 0 0 0 0 0 0 0 0 127 0"/>
<feOffset dy="1"/>
<feGaussianBlur stdDeviation="0.5"/>
<feColorMatrix type="matrix" values="0 0 0 0 0 0 0 0 0 0 0 0 0 0 0 0 0 0 0.25 0"/>
<feBlend mode="normal" in2="BackgroundImageFix" result="effect1_dropShadow"/>
<feBlend mode="normal" in="SourceGraphic" in2="effect1_dropShadow" result="shape"/>
</filter>
<filter id="filter1_d" x="239" y="43.5" width="132" height="24" filterUnits="userSpaceOnUse" color-interpolation-filters="sRGB">
<feFlood flood-opacity="0" result="BackgroundImageFix"/>
<feColorMatrix in="SourceAlpha" type="matrix" values="0 0 0 0 0 0 0 0 0 0 0 0 0 0 0 0 0 0 127 0"/>
<feOffset dy="1"/>
<feGaussianBlur stdDeviation="0.5"/>
<feColorMatrix type="matrix" values="0 0 0 0 0 0 0 0 0 0 0 0 0 0 0 0 0 0 0.25 0"/>
<feBlend mode="normal" in2="BackgroundImageFix" result="effect1_dropShadow"/>
<feBlend mode="normal" in="SourceGraphic" in2="effect1_dropShadow" result="shape"/>
</filter>
<filter id="filter2_d" x="239" y="71.8271" width="132" height="24" filterUnits="userSpaceOnUse" color-interpolation-filters="sRGB">
<feFlood flood-opacity="0" result="BackgroundImageFix"/>
<feColorMatrix in="SourceAlpha" type="matrix" values="0 0 0 0 0 0 0 0 0 0 0 0 0 0 0 0 0 0 127 0"/>
<feOffset dy="1"/>
<feGaussianBlur stdDeviation="0.5"/>
<feColorMatrix type="matrix" values="0 0 0 0 0 0 0 0 0 0 0 0 0 0 0 0 0 0 0.25 0"/>
<feBlend mode="normal" in2="BackgroundImageFix" result="effect1_dropShadow"/>
<feBlend mode="normal" in="SourceGraphic" in2="effect1_dropShadow" result="shape"/>
</filter>
<filter id="filter3_d" x="12.5098" y="66.8193" width="33.3118" height="23.88" filterUnits="userSpaceOnUse" color-interpolation-filters="sRGB">
<feFlood flood-opacity="0" result="BackgroundImageFix"/>
<feColorMatrix in="SourceAlpha" type="matrix" values="0 0 0 0 0 0 0 0 0 0 0 0 0 0 0 0 0 0 127 0"/>
<feOffset dy="1"/>
<feGaussianBlur stdDeviation="0.5"/>
<feColorMatrix type="matrix" values="0 0 0 0 0 0 0 0 0 0 0 0 0 0 0 0 0 0 0.25 0"/>
<feBlend mode="normal" in2="BackgroundImageFix" result="effect1_dropShadow"/>
<feBlend mode="normal" in="SourceGraphic" in2="effect1_dropShadow" result="shape"/>
</filter>
<filter id="filter4_d" x="266.979" y="13.7871" width="40.4269" height="19.66" filterUnits="userSpaceOnUse" color-interpolation-filters="sRGB">
<feFlood flood-opacity="0" result="BackgroundImageFix"/>
<feColorMatrix in="SourceAlpha" type="matrix" values="0 0 0 0 0 0 0 0 0 0 0 0 0 0 0 0 0 0 127 0"/>
<feOffset dy="1"/>
<feGaussianBlur stdDeviation="0.5"/>
<feColorMatrix type="matrix" values="0 0 0 0 0 0 0 0 0 0 0 0 0 0 0 0 0 0 0.25 0"/>
<feBlend mode="normal" in2="BackgroundImageFix" result="effect1_dropShadow"/>
<feBlend mode="normal" in="SourceGraphic" in2="effect1_dropShadow" result="shape"/>
</filter>
</defs>
</svg>
