<?xml version="1.0" standalone="no"?><!DOCTYPE svg PUBLIC "-//W3C//DTD SVG 1.1//EN" "http://www.w3.org/Graphics/SVG/1.1/DTD/svg11.dtd"><svg xmlns:xlink="http://www.w3.org/1999/xlink" version="1.1" style="font-family:'lucida grande', 'lucida sans unicode', arial, helvetica, sans-serif;font-size:12px;" xmlns="http://www.w3.org/2000/svg" width="600" height="450"><desc>Created with Highcharts 4.2.7</desc><defs><clipPath id="highcharts-7"><rect x="0" y="0" width="471" height="283"></rect></clipPath></defs><rect x="0" y="0" width="600" height="450" fill="#FFFFFF" class=" highcharts-background"></rect><g class="highcharts-grid"></g><g class="highcharts-grid"><path fill="none" d="M 119 329.5 L 590 329.5" stroke="#D8D8D8" stroke-width="1" opacity="1"></path><path fill="none" d="M 119 258.5 L 590 258.5" stroke="#D8D8D8" stroke-width="1" opacity="1"></path><path fill="none" d="M 119 188.5 L 590 188.5" stroke="#D8D8D8" stroke-width="1" opacity="1"></path><path fill="none" d="M 119 117.5 L 590 117.5" stroke="#D8D8D8" stroke-width="1" opacity="1"></path><path fill="none" d="M 119 45.5 L 590 45.5" stroke="#D8D8D8" stroke-width="1" opacity="1"></path></g><rect x="118.5" y="45.5" width="472" height="284" stroke="#C0C0C0" stroke-width="1" fill="none"></rect><g class="highcharts-axis"><path fill="none" d="M 165.5 329 L 165.5 339" stroke="#C0D0E0" stroke-width="1" opacity="1"></path><path fill="none" d="M 212.5 329 L 212.5 339" stroke="#C0D0E0" stroke-width="1" opacity="1"></path><path fill="none" d="M 259.5 329 L 259.5 339" stroke="#C0D0E0" stroke-width="1" opacity="1"></path><path fill="none" d="M 306.5 329 L 306.5 339" stroke="#C0D0E0" stroke-width="1" opacity="1"></path><path fill="none" d="M 354.5 329 L 354.5 339" stroke="#C0D0E0" stroke-width="1" opacity="1"></path><path fill="none" d="M 401.5 329 L 401.5 339" stroke="#C0D0E0" stroke-width="1" opacity="1"></path><path fill="none" d="M 448.5 329 L 448.5 339" stroke="#C0D0E0" stroke-width="1" opacity="1"></path><path fill="none" d="M 495.5 329 L 495.5 339" stroke="#C0D0E0" stroke-width="1" opacity="1"></path><path fill="none" d="M 542.5 329 L 542.5 339" stroke="#C0D0E0" stroke-width="1" opacity="1"></path><path fill="none" d="M 590.5 329 L 590.5 339" stroke="#C0D0E0" stroke-width="1" opacity="1"></path><path fill="none" d="M 118.5 329 L 118.5 339" stroke="#C0D0E0" stroke-width="1" opacity="1"></path><text x="354.5" text-anchor="middle" transform="translate(0,0)" class=" highcharts-xaxis-title" style="color:#000000;font-weight:bold;font-size:18px;fill:#000000;" y="373">Year</text><path fill="none" d="M 119 329.5 L 590 329.5" stroke="#C0D0E0" stroke-width="1"></path></g><g class="highcharts-axis"><text x="31.390625" text-anchor="middle" transform="translate(0,0) rotate(270 31.390625 187.5)" class=" highcharts-yaxis-title" style="color:#000000;font-weight:bold;font-size:18px;fill:#000000;" y="187.5">Tons</text></g><g class="highcharts-series-group"><g class="highcharts-series highcharts-series-0" transform="translate(119,46) scale(1 1)" clip-path="url(#highcharts-7)"><path fill="RGB(0,32,96)" d="M 23.55 258.096 L 70.65 254.13400000000001 L 117.75 247.2005 L 164.85 200.7885 L 211.95 148.858 L 259.05 120.1335 L 306.15 95.93700000000001 L 353.25 55.751000000000005 L 400.35 44.147999999999996 L 447.45 44.00649999999999 L 447.45 80.37199999999999 L 400.35 79.6645 L 353.25 90.56 L 306.15 124.9445 L 259.05 146.028 L 211.95 167.536 L 164.85 210.1275 L 117.75 249.4645 L 70.65 254.983 L 23.55 258.8035" fill-opacity="0.75"></path><path fill="none" d="M 23.55 258.096 L 70.65 254.13400000000001 L 117.75 247.2005 L 164.85 200.7885 L 211.95 148.858 L 259.05 120.1335 L 306.15 95.93700000000001 L 353.25 55.751000000000005 L 400.35 44.147999999999996 L 447.45 44.00649999999999" stroke="RGB(0,32,96)" stroke-width="2" stroke-linejoin="round" stroke-linecap="round"></path></g><g class="highcharts-markers highcharts-series-0" transform="translate(119,46) scale(1 1)" clip-path="none"><path fill="RGB(0,32,96)" d="M 447 40.00649999999999 C 452.328 40.00649999999999 452.328 48.00649999999999 447 48.00649999999999 C 441.672 48.00649999999999 441.672 40.00649999999999 447 40.00649999999999 Z"></path><path fill="RGB(0,32,96)" d="M 400 40.147999999999996 C 405.328 40.147999999999996 405.328 48.147999999999996 400 48.147999999999996 C 394.672 48.147999999999996 394.672 40.147999999999996 400 40.147999999999996 Z"></path><path fill="RGB(0,32,96)" d="M 353 51.751000000000005 C 358.328 51.751000000000005 358.328 59.751000000000005 353 59.751000000000005 C 347.672 59.751000000000005 347.672 51.751000000000005 353 51.751000000000005 Z"></path><path fill="RGB(0,32,96)" d="M 306 91.93700000000001 C 311.328 91.93700000000001 311.328 99.93700000000001 306 99.93700000000001 C 300.672 99.93700000000001 300.672 91.93700000000001 306 91.93700000000001 Z"></path><path fill="RGB(0,32,96)" d="M 259 116.1335 C 264.328 116.1335 264.328 124.1335 259 124.1335 C 253.672 124.1335 253.672 116.1335 259 116.1335 Z"></path><path fill="RGB(0,32,96)" d="M 211 144.858 C 216.328 144.858 216.328 152.858 211 152.858 C 205.672 152.858 205.672 144.858 211 144.858 Z"></path><path fill="RGB(0,32,96)" d="M 164 196.7885 C 169.328 196.7885 169.328 204.7885 164 204.7885 C 158.672 204.7885 158.672 196.7885 164 196.7885 Z"></path><path fill="RGB(0,32,96)" d="M 117 243.2005 C 122.328 243.2005 122.328 251.2005 117 251.2005 C 111.672 251.2005 111.672 243.2005 117 243.2005 Z"></path><path fill="RGB(0,32,96)" d="M 70 250.13400000000001 C 75.328 250.13400000000001 75.328 258.134 70 258.134 C 64.672 258.134 64.672 250.13400000000001 70 250.13400000000001 Z"></path><path fill="RGB(0,32,96)" d="M 23 254.096 C 28.328 254.096 28.328 262.096 23 262.096 C 17.672 262.096 17.672 254.096 23 254.096 Z"></path></g><g class="highcharts-series highcharts-series-1" transform="translate(119,46) scale(1 1)" clip-path="url(#highcharts-7)"><path fill="RGB(255,192,0)" d="M 23.55 258.8035 L 70.65 254.983 L 117.75 249.4645 L 164.85 210.1275 L 211.95 167.536 L 259.05 146.028 L 306.15 124.9445 L 353.25 90.56 L 400.35 79.6645 L 447.45 80.37199999999999 L 447.45 80.37199999999999 L 400.35 79.6645 L 353.25 90.56 L 306.15 124.9445 L 259.05 146.028 L 211.95 167.536 L 164.85 210.1275 L 117.75 249.4645 L 70.65 254.983 L 23.55 258.8035" fill-opacity="0.75"></path><path fill="none" d="M 23.55 258.8035 L 70.65 254.983 L 117.75 249.4645 L 164.85 210.1275 L 211.95 167.536 L 259.05 146.028 L 306.15 124.9445 L 353.25 90.56 L 400.35 79.6645 L 447.45 80.37199999999999" stroke="RGB(255,192,0)" stroke-width="2" stroke-linejoin="round" stroke-linecap="round"></path></g><g class="highcharts-markers highcharts-series-1" transform="translate(119,46) scale(1 1)" clip-path="none"><path fill="RGB(255,192,0)" d="M 447 76.37199999999999 L 451 80.37199999999999 447 84.37199999999999 443 80.37199999999999 Z"></path><path fill="RGB(255,192,0)" d="M 400 75.6645 L 404 79.6645 400 83.6645 396 79.6645 Z"></path><path fill="RGB(255,192,0)" d="M 353 86.56 L 357 90.56 353 94.56 349 90.56 Z"></path><path fill="RGB(255,192,0)" d="M 306 120.9445 L 310 124.9445 306 128.9445 302 124.9445 Z"></path><path fill="RGB(255,192,0)" d="M 259 142.028 L 263 146.028 259 150.028 255 146.028 Z"></path><path fill="RGB(255,192,0)" d="M 211 163.536 L 215 167.536 211 171.536 207 167.536 Z"></path><path fill="RGB(255,192,0)" d="M 164 206.1275 L 168 210.1275 164 214.1275 160 210.1275 Z"></path><path fill="RGB(255,192,0)" d="M 117 245.4645 L 121 249.4645 117 253.4645 113 249.4645 Z"></path><path fill="RGB(255,192,0)" d="M 70 250.983 L 74 254.983 70 258.983 66 254.983 Z"></path><path fill="RGB(255,192,0)" d="M 23 254.80349999999999 L 27 258.8035 23 262.8035 19 258.8035 Z"></path></g><g class="highcharts-series highcharts-series-2" transform="translate(119,46) scale(1 1)" clip-path="url(#highcharts-7)"><path fill="RGB(0,176,240)" d="M 23.55 258.8035 L 70.65 254.983 L 117.75 249.4645 L 164.85 210.1275 L 211.95 167.536 L 259.05 146.028 L 306.15 124.9445 L 353.25 90.56 L 400.35 79.6645 L 447.45 80.37199999999999 L 447.45 125.22749999999999 L 400.35 125.51050000000001 L 353.25 133.859 L 306.15 157.065 L 259.05 175.8845 L 211.95 194.138 L 164.85 222.5795 L 117.75 250.172 L 70.65 255.1245 L 23.55 258.8035" fill-opacity="0.75"></path><path fill="none" d="M 23.55 258.8035 L 70.65 254.983 L 117.75 249.4645 L 164.85 210.1275 L 211.95 167.536 L 259.05 146.028 L 306.15 124.9445 L 353.25 90.56 L 400.35 79.6645 L 447.45 80.37199999999999" stroke="RGB(0,176,240)" stroke-width="2" stroke-linejoin="round" stroke-linecap="round"></path></g><g class="highcharts-markers highcharts-series-2" transform="translate(119,46) scale(1 1)" clip-path="none"><path fill="RGB(0,176,240)" d="M 443 76.37199999999999 L 451 76.37199999999999 451 84.37199999999999 443 84.37199999999999 Z"></path><path fill="RGB(0,176,240)" d="M 396 75.6645 L 404 75.6645 404 83.6645 396 83.6645 Z"></path><path fill="RGB(0,176,240)" d="M 349 86.56 L 357 86.56 357 94.56 349 94.56 Z"></path><path fill="RGB(0,176,240)" d="M 302 120.9445 L 310 120.9445 310 128.9445 302 128.9445 Z"></path><path fill="RGB(0,176,240)" d="M 255 142.028 L 263 142.028 263 150.028 255 150.028 Z"></path><path fill="RGB(0,176,240)" d="M 207 163.536 L 215 163.536 215 171.536 207 171.536 Z"></path><path fill="RGB(0,176,240)" d="M 160 206.1275 L 168 206.1275 168 214.1275 160 214.1275 Z"></path><path fill="RGB(0,176,240)" d="M 113 245.4645 L 121 245.4645 121 253.4645 113 253.4645 Z"></path><path fill="RGB(0,176,240)" d="M 66 250.983 L 74 250.983 74 258.983 66 258.983 Z"></path><path fill="RGB(0,176,240)" d="M 19 254.80349999999999 L 27 254.80349999999999 27 262.8035 19 262.8035 Z"></path></g><g class="highcharts-series highcharts-series-3" transform="translate(119,46) scale(1 1)" clip-path="url(#highcharts-7)"><path fill="RGB(201,201,201)" d="M 23.55 258.8035 L 70.65 255.1245 L 117.75 250.172 L 164.85 222.5795 L 211.95 194.138 L 259.05 175.8845 L 306.15 157.065 L 353.25 133.859 L 400.35 125.51050000000001 L 447.45 125.22749999999999 L 447.45 283 L 400.35 283 L 353.25 283 L 306.15 283 L 259.05 283 L 211.95 283 L 164.85 283 L 117.75 283 L 70.65 283 L 23.55 283" fill-opacity="0.75"></path><path fill="none" d="M 23.55 258.8035 L 70.65 255.1245 L 117.75 250.172 L 164.85 222.5795 L 211.95 194.138 L 259.05 175.8845 L 306.15 157.065 L 353.25 133.859 L 400.35 125.51050000000001 L 447.45 125.22749999999999" stroke="RGB(201,201,201)" stroke-width="2" stroke-linejoin="round" stroke-linecap="round"></path></g><g class="highcharts-markers highcharts-series-3" transform="translate(119,46) scale(1 1)" clip-path="none"><path fill="RGB(201,201,201)" d="M 447 121.22749999999999 L 451 129.2275 443 129.2275 Z"></path><path fill="RGB(201,201,201)" d="M 400 121.51050000000001 L 404 129.5105 396 129.5105 Z"></path><path fill="RGB(201,201,201)" d="M 353 129.859 L 357 137.859 349 137.859 Z"></path><path fill="RGB(201,201,201)" d="M 306 153.065 L 310 161.065 302 161.065 Z"></path><path fill="RGB(201,201,201)" d="M 259 171.8845 L 263 179.8845 255 179.8845 Z"></path><path fill="RGB(201,201,201)" d="M 211 190.138 L 215 198.138 207 198.138 Z"></path><path fill="RGB(201,201,201)" d="M 164 218.5795 L 168 226.5795 160 226.5795 Z"></path><path fill="RGB(201,201,201)" d="M 117 246.172 L 121 254.172 113 254.172 Z"></path><path fill="RGB(201,201,201)" d="M 70 251.1245 L 74 259.1245 66 259.1245 Z"></path><path fill="RGB(201,201,201)" d="M 23 254.80349999999999 L 27 262.8035 19 262.8035 Z"></path></g></g><text x="300" text-anchor="middle" class="highcharts-title" style="color:#000000;font-size:18px;font-weight:bold;fill:#000000;width:536px;" y="24"><tspan>Textiles Waste Management: 1960-2017</tspan></text><g class="highcharts-legend" transform="translate(22,388)"><rect x="0.5" y="0.5" width="555" height="46" stroke="#909090" stroke-width="1" fill="none" visibility="visible"></rect><g transform="translate(0,21)"><g><g class="highcharts-legend-item" transform="translate(8,3)"><text x="21" style="color:#333333;font-size:12px;font-weight:bold;cursor:pointer;fill:#333333;" text-anchor="start" y="15">Recycled</text><rect x="0" y="4" width="16" height="12" fill="RGB(0,32,96)"></rect></g><g class="highcharts-legend-item" transform="translate(102.96875,3)"><text x="21" y="15" style="color:#333333;font-size:12px;font-weight:bold;cursor:pointer;fill:#333333;" text-anchor="start">Composted</text><rect x="0" y="4" width="16" height="12" fill="RGB(255,192,0)"></rect></g><g class="highcharts-legend-item" transform="translate(214.078125,3)"><text x="21" y="15" style="color:#333333;font-size:12px;font-weight:bold;cursor:pointer;fill:#333333;" text-anchor="start"><tspan>Combustion with Energy Recovery</tspan></text><rect x="0" y="4" width="16" height="12" fill="RGB(0,176,240)"></rect></g><g class="highcharts-legend-item" transform="translate(467.171875,3)"><text x="21" y="15" style="color:#333333;font-size:12px;font-weight:bold;cursor:pointer;fill:#333333;" text-anchor="start">Landfilled</text><rect x="0" y="4" width="16" height="12" fill="RGB(201,201,201)"></rect></g></g></g><g class="highcharts-legend-title" style="" transform="translate(5,4)"><text x="3" style="font-weight:bold;font-style:italic;" y="15"><tspan style="font-size: 12px; fill: #666; font-weight: normal;">Click on legend items below to customize items displayed in the chart</tspan></text></g></g><g class="highcharts-axis-labels highcharts-xaxis-labels"><text x="142.54999999999998" style="color:#606060;cursor:default;font-size:11px;fill:#606060;" text-anchor="middle" transform="translate(0,0)" y="348" opacity="1">1960</text><text x="189.64999999999998" style="color:#606060;cursor:default;font-size:11px;fill:#606060;" text-anchor="middle" transform="translate(0,0)" y="348" opacity="1">1970</text><text x="236.75" style="color:#606060;cursor:default;font-size:11px;fill:#606060;" text-anchor="middle" transform="translate(0,0)" y="348" opacity="1">1980</text><text x="283.84999999999997" style="color:#606060;cursor:default;font-size:11px;fill:#606060;" text-anchor="middle" transform="translate(0,0)" y="348" opacity="1">1990</text><text x="330.95" style="color:#606060;cursor:default;font-size:11px;fill:#606060;" text-anchor="middle" transform="translate(0,0)" y="348" opacity="1">2000</text><text x="378.05" style="color:#606060;cursor:default;font-size:11px;fill:#606060;" text-anchor="middle" transform="translate(0,0)" y="348" opacity="1">2005</text><text x="425.15000000000003" style="color:#606060;cursor:default;font-size:11px;fill:#606060;" text-anchor="middle" transform="translate(0,0)" y="348" opacity="1">2010</text><text x="472.25" style="color:#606060;cursor:default;font-size:11px;fill:#606060;" text-anchor="middle" transform="translate(0,0)" y="348" opacity="1">2015</text><text x="519.3500000000001" style="color:#606060;cursor:default;font-size:11px;fill:#606060;" text-anchor="middle" transform="translate(0,0)" y="348" opacity="1">2016</text><text x="566.45" style="color:#606060;cursor:default;font-size:11px;fill:#606060;" text-anchor="middle" transform="translate(0,0)" y="348" opacity="1">2017</text></g><g class="highcharts-axis-labels highcharts-yaxis-labels"><text x="104" style="color:#000000;cursor:default;font-size:11px;fill:#000000;width:188px;text-overflow:clip;" text-anchor="end" transform="translate(0,0)" y="334" opacity="1"><tspan>0</tspan></text><text x="104" style="color:#000000;cursor:default;font-size:11px;fill:#000000;width:188px;text-overflow:clip;" text-anchor="end" transform="translate(0,0)" y="263" opacity="1"><tspan>5,000,000</tspan></text><text x="104" style="color:#000000;cursor:default;font-size:11px;fill:#000000;width:188px;text-overflow:clip;" text-anchor="end" transform="translate(0,0)" y="192" opacity="1"><tspan>10,000,000</tspan></text><text x="104" style="color:#000000;cursor:default;font-size:11px;fill:#000000;width:188px;text-overflow:clip;" text-anchor="end" transform="translate(0,0)" y="121" opacity="1"><tspan>15,000,000</tspan></text><text x="104" style="color:#000000;cursor:default;font-size:11px;fill:#000000;width:188px;text-overflow:clip;" text-anchor="end" transform="translate(0,0)" y="51" opacity="1"><tspan>20,000,000</tspan></text></g><g class="highcharts-tooltip" display="none" style="cursor:default;padding:0;pointer-events:none;white-space:nowrap;" transform="translate(0,0)"><path fill="none" d="M 3.5 0.5 L 13.5 0.5 C 16.5 0.5 16.5 0.5 16.5 3.5 L 16.5 13.5 C 16.5 16.5 16.5 16.5 13.5 16.5 L 3.5 16.5 C 0.5 16.5 0.5 16.5 0.5 13.5 L 0.5 3.5 C 0.5 0.5 0.5 0.5 3.5 0.5"  stroke="black" stroke-opacity="0.049999999999999996" stroke-width="5" transform="translate(1, 1)"></path><path fill="none" d="M 3.5 0.5 L 13.5 0.5 C 16.5 0.5 16.5 0.5 16.5 3.5 L 16.5 13.5 C 16.5 16.5 16.5 16.5 13.5 16.5 L 3.5 16.5 C 0.5 16.5 0.5 16.5 0.5 13.5 L 0.5 3.5 C 0.5 0.5 0.5 0.5 3.5 0.5"  stroke="black" stroke-opacity="0.09999999999999999" stroke-width="3" transform="translate(1, 1)"></path><path fill="none" d="M 3.5 0.5 L 13.5 0.5 C 16.5 0.5 16.5 0.5 16.5 3.5 L 16.5 13.5 C 16.5 16.5 16.5 16.5 13.5 16.5 L 3.5 16.5 C 0.5 16.5 0.5 16.5 0.5 13.5 L 0.5 3.5 C 0.5 0.5 0.5 0.5 3.5 0.5"  stroke="black" stroke-opacity="0.15" stroke-width="1" transform="translate(1, 1)"></path><path fill="rgb(249, 249, 249)" fill-opacity=" .85" d="M 3.5 0.5 L 13.5 0.5 C 16.5 0.5 16.5 0.5 16.5 3.5 L 16.5 13.5 C 16.5 16.5 16.5 16.5 13.5 16.5 L 3.5 16.5 C 0.5 16.5 0.5 16.5 0.5 13.5 L 0.5 3.5 C 0.5 0.5 0.5 0.5 3.5 0.5"></path><text x="8" style="font-size:12px;color:#333333;fill:#333333;" y="20"></text></g></svg>