<svg width="221" height="309" viewBox="0 0 221 309" fill="none" xmlns="http://www.w3.org/2000/svg">
<rect width="221" height="309" fill="white"/>
<ellipse cx="104.658" cy="71.1504" rx="26" ry="25.5" fill="#246B6D"/>
<path d="M106.609 67.2502V64.9102C106.609 63.8962 106.843 63.3502 108.481 63.3502H110.509V59.4502H107.389C103.489 59.4502 101.929 62.0242 101.929 64.9102V67.2502H98.8086V71.1502H101.929V82.8502H106.609V71.1502H110.041L110.509 67.2502H106.609Z" fill="white"/>
<ellipse cx="44.8418" cy="71.1504" rx="26" ry="25.5" fill="#246B6D"/>
<path d="M57.5079 68.6203H56.4674V68.5667H44.8424V73.7334H52.1423C51.0773 76.741 48.2156 78.9001 44.8424 78.9001C40.5625 78.9001 37.0924 75.43 37.0924 71.1501C37.0924 66.8701 40.5625 63.4001 44.8424 63.4001C46.8181 63.4001 48.6154 64.1454 49.9839 65.3628L53.6374 61.7093C51.3305 59.5593 48.2447 58.2334 44.8424 58.2334C37.7092 58.2334 31.9258 64.0168 31.9258 71.1501C31.9258 78.2833 37.7092 84.0667 44.8424 84.0667C51.9757 84.0667 57.7591 78.2833 57.7591 71.1501C57.7591 70.284 57.67 69.4386 57.5079 68.6203Z" fill="white"/>
<path d="M33.4141 65.138L37.6578 68.2503C38.8061 65.4073 41.5871 63.4001 44.8414 63.4001C46.817 63.4001 48.6144 64.1454 49.9829 65.3628L53.6364 61.7093C51.3295 59.5593 48.2437 58.2334 44.8414 58.2334C39.8801 58.2334 35.5776 61.0344 33.4141 65.138Z" fill="white"/>
<path d="M44.8428 84.067C48.1792 84.067 51.2107 82.7902 53.5028 80.7138L49.5051 77.331C48.1647 78.3503 46.5268 78.9017 44.8428 78.9003C41.4832 78.9003 38.6305 76.7581 37.5559 73.7686L33.3438 77.0139C35.4815 81.1969 39.8228 84.067 44.8428 84.067Z" fill="white"/>
<path d="M57.5072 68.621H56.4668V68.5674H44.8418V73.734H52.1417C51.6322 75.1655 50.7146 76.4163 49.5021 77.332L49.5041 77.3307L53.5018 80.7136C53.2189 80.9706 57.7585 77.609 57.7585 71.1507C57.7585 70.2847 57.6693 69.4393 57.5072 68.621Z" fill="white"/>
<ellipse cx="166.826" cy="71.1504" rx="26" ry="25.5" fill="#246B6D"/>
<path d="M180.206 62.8635C179.222 63.288 178.151 63.5935 177.048 63.7125C178.193 63.0322 179.051 61.9573 179.46 60.6897C178.385 61.3289 177.208 61.7772 175.98 62.0146C175.467 61.466 174.847 61.0291 174.157 60.7309C173.468 60.4326 172.724 60.2796 171.973 60.2813C168.934 60.2813 166.49 62.7446 166.49 65.7674C166.49 66.1919 166.542 66.6164 166.626 67.0248C162.075 66.7868 158.017 64.6129 155.319 61.2846C154.827 62.1243 154.57 63.0804 154.573 64.0534C154.573 65.9571 155.541 67.6358 157.017 68.623C156.147 68.5888 155.297 68.3497 154.537 67.9252V67.9927C154.537 70.6586 156.422 72.8678 158.933 73.3759C158.462 73.4984 157.977 73.5611 157.49 73.5625C157.133 73.5625 156.795 73.5271 156.454 73.4788C157.149 75.6527 159.171 77.2317 161.58 77.2831C159.696 78.7592 157.335 79.6274 154.772 79.6274C154.312 79.6274 153.888 79.6113 153.447 79.5599C155.878 81.1195 158.763 82.02 161.869 82.02C171.954 82.02 177.472 73.6654 177.472 66.4138C177.472 66.1758 177.472 65.9378 177.456 65.6999C178.524 64.9184 179.46 63.9505 180.206 62.8635Z" fill="white"/>
<path d="M25.7188 19.188C25.6581 19.1273 25.5455 19.045 25.3808 18.941C25.2248 18.837 25.0298 18.7373 24.7958 18.642C24.5705 18.538 24.3235 18.4513 24.0548 18.382C23.7861 18.3127 23.5131 18.278 23.2358 18.278C22.7418 18.278 22.3735 18.369 22.1308 18.551C21.8881 18.733 21.7668 18.9887 21.7668 19.318C21.7668 19.5087 21.8101 19.669 21.8968 19.799C21.9921 19.9203 22.1265 20.0287 22.2998 20.124C22.4731 20.2193 22.6898 20.306 22.9498 20.384C23.2185 20.462 23.5261 20.5443 23.8728 20.631C24.3235 20.7523 24.7308 20.8823 25.0948 21.021C25.4675 21.1597 25.7795 21.333 26.0308 21.541C26.2908 21.749 26.4901 22.0003 26.6288 22.295C26.7675 22.581 26.8368 22.9363 26.8368 23.361C26.8368 23.855 26.7415 24.2797 26.5508 24.635C26.3688 24.9817 26.1175 25.2633 25.7968 25.48C25.4848 25.6967 25.1208 25.857 24.7048 25.961C24.2975 26.0563 23.8685 26.104 23.4178 26.104C22.7245 26.104 22.0398 26 21.3638 25.792C20.6878 25.584 20.0811 25.2893 19.5438 24.908L20.3368 23.361C20.4148 23.439 20.5535 23.543 20.7528 23.673C20.9608 23.7943 21.2035 23.92 21.4808 24.05C21.7581 24.1713 22.0658 24.2753 22.4038 24.362C22.7418 24.4487 23.0885 24.492 23.4438 24.492C24.4318 24.492 24.9258 24.1757 24.9258 23.543C24.9258 23.3437 24.8695 23.1747 24.7568 23.036C24.6441 22.8973 24.4838 22.776 24.2758 22.672C24.0678 22.568 23.8165 22.4727 23.5218 22.386C23.2271 22.2993 22.8978 22.204 22.5338 22.1C22.0918 21.9787 21.7061 21.8487 21.3768 21.71C21.0561 21.5627 20.7875 21.3937 20.5708 21.203C20.3541 21.0037 20.1895 20.7783 20.0768 20.527C19.9728 20.267 19.9208 19.9593 19.9208 19.604C19.9208 19.136 20.0075 18.72 20.1808 18.356C20.3541 17.992 20.5925 17.6887 20.8958 17.446C21.2078 17.2033 21.5675 17.0213 21.9748 16.9C22.3821 16.77 22.8198 16.705 23.2878 16.705C23.9378 16.705 24.5358 16.809 25.0818 17.017C25.6278 17.2163 26.1045 17.4547 26.5118 17.732L25.7188 19.188ZM31.1695 26.13C30.6148 26.13 30.1165 26.0347 29.6745 25.844C29.2325 25.6533 28.8555 25.3977 28.5435 25.077C28.2401 24.7477 28.0061 24.3707 27.8415 23.946C27.6768 23.5213 27.5945 23.075 27.5945 22.607C27.5945 22.1303 27.6768 21.6797 27.8415 21.255C28.0061 20.8303 28.2401 20.4577 28.5435 20.137C28.8555 19.8077 29.2325 19.5477 29.6745 19.357C30.1165 19.1663 30.6148 19.071 31.1695 19.071C31.7241 19.071 32.2181 19.1663 32.6515 19.357C33.0935 19.5477 33.4661 19.8077 33.7695 20.137C34.0815 20.4577 34.3198 20.8303 34.4845 21.255C34.6491 21.6797 34.7315 22.1303 34.7315 22.607C34.7315 23.075 34.6491 23.5213 34.4845 23.946C34.3198 24.3707 34.0858 24.7477 33.7825 25.077C33.4791 25.3977 33.1065 25.6533 32.6645 25.844C32.2225 26.0347 31.7241 26.13 31.1695 26.13ZM29.3885 22.607C29.3885 22.9103 29.4318 23.1877 29.5185 23.439C29.6138 23.6817 29.7395 23.894 29.8955 24.076C30.0601 24.258 30.2508 24.401 30.4675 24.505C30.6841 24.6003 30.9181 24.648 31.1695 24.648C31.4208 24.648 31.6548 24.6003 31.8715 24.505C32.0881 24.401 32.2745 24.258 32.4305 24.076C32.5951 23.894 32.7208 23.6773 32.8075 23.426C32.9028 23.1747 32.9505 22.8973 32.9505 22.594C32.9505 22.2993 32.9028 22.0263 32.8075 21.775C32.7208 21.5237 32.5951 21.307 32.4305 21.125C32.2745 20.943 32.0881 20.8043 31.8715 20.709C31.6548 20.605 31.4208 20.553 31.1695 20.553C30.9181 20.553 30.6841 20.605 30.4675 20.709C30.2508 20.813 30.0601 20.956 29.8955 21.138C29.7395 21.32 29.6138 21.5367 29.5185 21.788C29.4318 22.0393 29.3885 22.3123 29.3885 22.607ZM35.4783 22.594C35.4783 22.1173 35.5606 21.6667 35.7253 21.242C35.8899 20.8173 36.1283 20.4447 36.4403 20.124C36.7523 19.8033 37.1293 19.5477 37.5713 19.357C38.0133 19.1663 38.5116 19.071 39.0663 19.071C39.8116 19.071 40.4443 19.2313 40.9643 19.552C41.4929 19.8727 41.8873 20.293 42.1473 20.813L40.4443 21.333C40.2969 21.0817 40.1019 20.891 39.8593 20.761C39.6166 20.6223 39.3479 20.553 39.0533 20.553C38.8019 20.553 38.5679 20.605 38.3513 20.709C38.1346 20.8043 37.9439 20.943 37.7793 21.125C37.6233 21.2983 37.4976 21.5107 37.4023 21.762C37.3156 22.0133 37.2723 22.2907 37.2723 22.594C37.2723 22.8973 37.3199 23.1747 37.4153 23.426C37.5106 23.6773 37.6363 23.894 37.7923 24.076C37.9569 24.258 38.1476 24.401 38.3643 24.505C38.5809 24.6003 38.8106 24.648 39.0533 24.648C39.3653 24.648 39.6513 24.57 39.9113 24.414C40.1799 24.258 40.3663 24.0673 40.4703 23.842L42.1733 24.362C41.9393 24.882 41.5536 25.3067 41.0163 25.636C40.4789 25.9653 39.8333 26.13 39.0793 26.13C38.5246 26.13 38.0263 26.0347 37.5843 25.844C37.1423 25.6533 36.7653 25.3977 36.4533 25.077C36.1413 24.7477 35.8986 24.3707 35.7253 23.946C35.5606 23.5127 35.4783 23.062 35.4783 22.594ZM43.2451 26V19.188H44.9871V26H43.2451ZM43.2451 18.239V16.51H44.9871V18.239H43.2451ZM48.4176 26.13C48.0883 26.13 47.7806 26.078 47.4946 25.974C47.2086 25.8613 46.9616 25.7097 46.7536 25.519C46.5456 25.3197 46.381 25.09 46.2596 24.83C46.147 24.57 46.0906 24.284 46.0906 23.972C46.0906 23.6513 46.16 23.3567 46.2986 23.088C46.446 22.8107 46.6453 22.5767 46.8966 22.386C47.1566 22.1953 47.4643 22.048 47.8196 21.944C48.175 21.8313 48.565 21.775 48.9896 21.775C49.293 21.775 49.5876 21.801 49.8736 21.853C50.1683 21.905 50.4283 21.9787 50.6536 22.074V21.684C50.6536 21.2333 50.5236 20.8867 50.2636 20.644C50.0123 20.4013 49.6353 20.28 49.1326 20.28C48.7686 20.28 48.4133 20.345 48.0666 20.475C47.72 20.605 47.3646 20.7957 47.0006 21.047L46.4676 19.942C47.343 19.3613 48.2876 19.071 49.3016 19.071C50.281 19.071 51.0393 19.3137 51.5766 19.799C52.1226 20.2757 52.3956 20.969 52.3956 21.879V23.998C52.3956 24.18 52.426 24.31 52.4866 24.388C52.556 24.466 52.6643 24.5093 52.8116 24.518V26C52.517 26.0607 52.2613 26.091 52.0446 26.091C51.7153 26.091 51.4596 26.0173 51.2776 25.87C51.1043 25.7227 50.996 25.5277 50.9526 25.285L50.9136 24.908C50.6103 25.3067 50.242 25.61 49.8086 25.818C49.3753 26.026 48.9116 26.13 48.4176 26.13ZM48.9116 24.856C49.2063 24.856 49.4836 24.804 49.7436 24.7C50.0123 24.596 50.2203 24.4573 50.3676 24.284C50.5583 24.1367 50.6536 23.972 50.6536 23.79V23.01C50.4456 22.932 50.2203 22.8713 49.9776 22.828C49.735 22.776 49.501 22.75 49.2756 22.75C48.825 22.75 48.4566 22.854 48.1706 23.062C47.8846 23.2613 47.7416 23.517 47.7416 23.829C47.7416 24.1237 47.8543 24.3707 48.0796 24.57C48.305 24.7607 48.5823 24.856 48.9116 24.856ZM54.0105 16.51H55.7525V23.816C55.7525 24.0673 55.8131 24.2623 55.9345 24.401C56.0558 24.5397 56.2291 24.609 56.4545 24.609C56.5585 24.609 56.6711 24.5917 56.7925 24.557C56.9225 24.5223 57.0438 24.479 57.1565 24.427L57.3905 25.753C57.1565 25.8657 56.8835 25.9523 56.5715 26.013C56.2595 26.0737 55.9778 26.104 55.7265 26.104C55.1805 26.104 54.7558 25.961 54.4525 25.675C54.1578 25.3803 54.0105 24.9643 54.0105 24.427V16.51ZM60.8272 23.218V21.645H64.7662V23.218H60.8272ZM75.0909 19.188C75.0302 19.1273 74.9175 19.045 74.7529 18.941C74.5969 18.837 74.4019 18.7373 74.1679 18.642C73.9425 18.538 73.6955 18.4513 73.4269 18.382C73.1582 18.3127 72.8852 18.278 72.6079 18.278C72.1139 18.278 71.7455 18.369 71.5029 18.551C71.2602 18.733 71.1389 18.9887 71.1389 19.318C71.1389 19.5087 71.1822 19.669 71.2689 19.799C71.3642 19.9203 71.4985 20.0287 71.6719 20.124C71.8452 20.2193 72.0619 20.306 72.3219 20.384C72.5905 20.462 72.8982 20.5443 73.2449 20.631C73.6955 20.7523 74.1029 20.8823 74.4669 21.021C74.8395 21.1597 75.1515 21.333 75.4029 21.541C75.6629 21.749 75.8622 22.0003 76.0009 22.295C76.1395 22.581 76.2089 22.9363 76.2089 23.361C76.2089 23.855 76.1135 24.2797 75.9229 24.635C75.7409 24.9817 75.4895 25.2633 75.1689 25.48C74.8569 25.6967 74.4929 25.857 74.0769 25.961C73.6695 26.0563 73.2405 26.104 72.7899 26.104C72.0965 26.104 71.4119 26 70.7359 25.792C70.0599 25.584 69.4532 25.2893 68.9159 24.908L69.7089 23.361C69.7869 23.439 69.9255 23.543 70.1249 23.673C70.3329 23.7943 70.5755 23.92 70.8529 24.05C71.1302 24.1713 71.4379 24.2753 71.7759 24.362C72.1139 24.4487 72.4605 24.492 72.8159 24.492C73.8039 24.492 74.2979 24.1757 74.2979 23.543C74.2979 23.3437 74.2415 23.1747 74.1289 23.036C74.0162 22.8973 73.8559 22.776 73.6479 22.672C73.4399 22.568 73.1885 22.4727 72.8939 22.386C72.5992 22.2993 72.2699 22.204 71.9059 22.1C71.4639 21.9787 71.0782 21.8487 70.7489 21.71C70.4282 21.5627 70.1595 21.3937 69.9429 21.203C69.7262 21.0037 69.5615 20.7783 69.4489 20.527C69.3449 20.267 69.2929 19.9593 69.2929 19.604C69.2929 19.136 69.3795 18.72 69.5529 18.356C69.7262 17.992 69.9645 17.6887 70.2679 17.446C70.5799 17.2033 70.9395 17.0213 71.3469 16.9C71.7542 16.77 72.1919 16.705 72.6599 16.705C73.3099 16.705 73.9079 16.809 74.4539 17.017C74.9999 17.2163 75.4765 17.4547 75.8839 17.732L75.0909 19.188ZM81.4014 25.649C81.1674 25.753 80.8814 25.857 80.5434 25.961C80.2054 26.065 79.85 26.117 79.4774 26.117C79.2347 26.117 79.005 26.0867 78.7884 26.026C78.5804 25.9653 78.394 25.87 78.2294 25.74C78.0734 25.6013 77.9477 25.428 77.8524 25.22C77.757 25.0033 77.7094 24.7433 77.7094 24.44V20.527H76.8124V19.188H77.7094V16.978H79.4514V19.188H80.8814V20.527H79.4514V23.855C79.4514 24.0977 79.512 24.271 79.6334 24.375C79.7634 24.4703 79.9194 24.518 80.1014 24.518C80.2834 24.518 80.461 24.4877 80.6344 24.427C80.8077 24.3663 80.9464 24.3143 81.0504 24.271L81.4014 25.649ZM84.1676 26.13C83.8383 26.13 83.5306 26.078 83.2446 25.974C82.9586 25.8613 82.7116 25.7097 82.5036 25.519C82.2956 25.3197 82.131 25.09 82.0096 24.83C81.897 24.57 81.8406 24.284 81.8406 23.972C81.8406 23.6513 81.91 23.3567 82.0486 23.088C82.196 22.8107 82.3953 22.5767 82.6466 22.386C82.9066 22.1953 83.2143 22.048 83.5696 21.944C83.925 21.8313 84.315 21.775 84.7396 21.775C85.043 21.775 85.3376 21.801 85.6236 21.853C85.9183 21.905 86.1783 21.9787 86.4036 22.074V21.684C86.4036 21.2333 86.2736 20.8867 86.0136 20.644C85.7623 20.4013 85.3853 20.28 84.8826 20.28C84.5186 20.28 84.1633 20.345 83.8166 20.475C83.47 20.605 83.1146 20.7957 82.7506 21.047L82.2176 19.942C83.093 19.3613 84.0376 19.071 85.0516 19.071C86.031 19.071 86.7893 19.3137 87.3266 19.799C87.8726 20.2757 88.1456 20.969 88.1456 21.879V23.998C88.1456 24.18 88.176 24.31 88.2366 24.388C88.306 24.466 88.4143 24.5093 88.5616 24.518V26C88.267 26.0607 88.0113 26.091 87.7946 26.091C87.4653 26.091 87.2096 26.0173 87.0276 25.87C86.8543 25.7227 86.746 25.5277 86.7026 25.285L86.6636 24.908C86.3603 25.3067 85.992 25.61 85.5586 25.818C85.1253 26.026 84.6616 26.13 84.1676 26.13ZM84.6616 24.856C84.9563 24.856 85.2336 24.804 85.4936 24.7C85.7623 24.596 85.9703 24.4573 86.1176 24.284C86.3083 24.1367 86.4036 23.972 86.4036 23.79V23.01C86.1956 22.932 85.9703 22.8713 85.7276 22.828C85.485 22.776 85.251 22.75 85.0256 22.75C84.575 22.75 84.2066 22.854 83.9206 23.062C83.6346 23.2613 83.4916 23.517 83.4916 23.829C83.4916 24.1237 83.6043 24.3707 83.8296 24.57C84.055 24.7607 84.3323 24.856 84.6616 24.856ZM96.1045 26H94.3625V22.178C94.3625 21.632 94.2671 21.2333 94.0765 20.982C93.8858 20.7307 93.6215 20.605 93.2835 20.605C93.1101 20.605 92.9325 20.6397 92.7505 20.709C92.5685 20.7783 92.3951 20.878 92.2305 21.008C92.0745 21.1293 91.9315 21.2767 91.8015 21.45C91.6715 21.6233 91.5761 21.814 91.5155 22.022V26H89.7735V19.188H91.3465V20.449C91.5978 20.0157 91.9618 19.6777 92.4385 19.435C92.9151 19.1923 93.4525 19.071 94.0505 19.071C94.4751 19.071 94.8218 19.149 95.0905 19.305C95.3591 19.461 95.5671 19.6647 95.7145 19.916C95.8618 20.1673 95.9615 20.4533 96.0135 20.774C96.0741 21.0947 96.1045 21.4197 96.1045 21.749V26ZM100.44 26.13C99.9722 26.13 99.5388 26.039 99.1402 25.857C98.7415 25.675 98.3992 25.4237 98.1132 25.103C97.8272 24.7823 97.6018 24.4097 97.4372 23.985C97.2812 23.5517 97.2032 23.088 97.2032 22.594C97.2032 22.1 97.2768 21.6407 97.4242 21.216C97.5802 20.7913 97.7925 20.4187 98.0612 20.098C98.3298 19.7773 98.6505 19.526 99.0232 19.344C99.3958 19.162 99.8032 19.071 100.245 19.071C100.748 19.071 101.199 19.1923 101.597 19.435C102.005 19.6777 102.321 19.994 102.546 20.384V16.51H104.288V23.998C104.288 24.18 104.319 24.31 104.379 24.388C104.44 24.466 104.544 24.5093 104.691 24.518V26C104.388 26.0607 104.141 26.091 103.95 26.091C103.638 26.091 103.383 26.013 103.183 25.857C102.984 25.701 102.871 25.4973 102.845 25.246L102.806 24.817C102.555 25.2503 102.213 25.5797 101.779 25.805C101.355 26.0217 100.908 26.13 100.44 26.13ZM100.895 24.648C101.06 24.648 101.229 24.622 101.402 24.57C101.576 24.5093 101.736 24.427 101.883 24.323C102.031 24.219 102.161 24.0977 102.273 23.959C102.395 23.8203 102.486 23.6687 102.546 23.504V21.879C102.477 21.6883 102.377 21.515 102.247 21.359C102.126 21.1943 101.983 21.0557 101.818 20.943C101.662 20.8217 101.493 20.7263 101.311 20.657C101.138 20.5877 100.965 20.553 100.791 20.553C100.531 20.553 100.289 20.6093 100.063 20.722C99.8465 20.8347 99.6602 20.9907 99.5042 21.19C99.3482 21.3807 99.2268 21.6017 99.1402 21.853C99.0535 22.1043 99.0102 22.3643 99.0102 22.633C99.0102 22.919 99.0578 23.1833 99.1532 23.426C99.2485 23.6687 99.3785 23.881 99.5432 24.063C99.7078 24.245 99.9028 24.388 100.128 24.492C100.362 24.596 100.618 24.648 100.895 24.648ZM107.857 26.13C107.528 26.13 107.22 26.078 106.934 25.974C106.648 25.8613 106.401 25.7097 106.193 25.519C105.985 25.3197 105.82 25.09 105.699 24.83C105.586 24.57 105.53 24.284 105.53 23.972C105.53 23.6513 105.599 23.3567 105.738 23.088C105.885 22.8107 106.085 22.5767 106.336 22.386C106.596 22.1953 106.904 22.048 107.259 21.944C107.614 21.8313 108.004 21.775 108.429 21.775C108.732 21.775 109.027 21.801 109.313 21.853C109.608 21.905 109.868 21.9787 110.093 22.074V21.684C110.093 21.2333 109.963 20.8867 109.703 20.644C109.452 20.4013 109.075 20.28 108.572 20.28C108.208 20.28 107.853 20.345 107.506 20.475C107.159 20.605 106.804 20.7957 106.44 21.047L105.907 19.942C106.782 19.3613 107.727 19.071 108.741 19.071C109.72 19.071 110.479 19.3137 111.016 19.799C111.562 20.2757 111.835 20.969 111.835 21.879V23.998C111.835 24.18 111.865 24.31 111.926 24.388C111.995 24.466 112.104 24.5093 112.251 24.518V26C111.956 26.0607 111.701 26.091 111.484 26.091C111.155 26.091 110.899 26.0173 110.717 25.87C110.544 25.7227 110.435 25.5277 110.392 25.285L110.353 24.908C110.05 25.3067 109.681 25.61 109.248 25.818C108.815 26.026 108.351 26.13 107.857 26.13ZM108.351 24.856C108.646 24.856 108.923 24.804 109.183 24.7C109.452 24.596 109.66 24.4573 109.807 24.284C109.998 24.1367 110.093 23.972 110.093 23.79V23.01C109.885 22.932 109.66 22.8713 109.417 22.828C109.174 22.776 108.94 22.75 108.715 22.75C108.264 22.75 107.896 22.854 107.61 23.062C107.324 23.2613 107.181 23.517 107.181 23.829C107.181 24.1237 107.294 24.3707 107.519 24.57C107.744 24.7607 108.022 24.856 108.351 24.856ZM117.519 20.696C116.99 20.7047 116.518 20.8087 116.102 21.008C115.686 21.1987 115.387 21.489 115.205 21.879V26H113.463V19.188H115.062V20.644C115.183 20.41 115.326 20.202 115.491 20.02C115.656 19.8293 115.833 19.6647 116.024 19.526C116.215 19.3873 116.405 19.2833 116.596 19.214C116.795 19.136 116.986 19.097 117.168 19.097C117.263 19.097 117.333 19.097 117.376 19.097C117.428 19.097 117.476 19.1013 117.519 19.11V20.696ZM120.968 26.13C120.5 26.13 120.067 26.039 119.668 25.857C119.27 25.675 118.927 25.4237 118.641 25.103C118.355 24.7823 118.13 24.4097 117.965 23.985C117.809 23.5517 117.731 23.088 117.731 22.594C117.731 22.1 117.805 21.6407 117.952 21.216C118.108 20.7913 118.321 20.4187 118.589 20.098C118.858 19.7773 119.179 19.526 119.551 19.344C119.924 19.162 120.331 19.071 120.773 19.071C121.276 19.071 121.727 19.1923 122.125 19.435C122.533 19.6777 122.849 19.994 123.074 20.384V16.51H124.816V23.998C124.816 24.18 124.847 24.31 124.907 24.388C124.968 24.466 125.072 24.5093 125.219 24.518V26C124.916 26.0607 124.669 26.091 124.478 26.091C124.166 26.091 123.911 26.013 123.711 25.857C123.512 25.701 123.399 25.4973 123.373 25.246L123.334 24.817C123.083 25.2503 122.741 25.5797 122.307 25.805C121.883 26.0217 121.436 26.13 120.968 26.13ZM121.423 24.648C121.588 24.648 121.757 24.622 121.93 24.57C122.104 24.5093 122.264 24.427 122.411 24.323C122.559 24.219 122.689 24.0977 122.801 23.959C122.923 23.8203 123.014 23.6687 123.074 23.504V21.879C123.005 21.6883 122.905 21.515 122.775 21.359C122.654 21.1943 122.511 21.0557 122.346 20.943C122.19 20.8217 122.021 20.7263 121.839 20.657C121.666 20.5877 121.493 20.553 121.319 20.553C121.059 20.553 120.817 20.6093 120.591 20.722C120.375 20.8347 120.188 20.9907 120.032 21.19C119.876 21.3807 119.755 21.6017 119.668 21.853C119.582 22.1043 119.538 22.3643 119.538 22.633C119.538 22.919 119.586 23.1833 119.681 23.426C119.777 23.6687 119.907 23.881 120.071 24.063C120.236 24.245 120.431 24.388 120.656 24.492C120.89 24.596 121.146 24.648 121.423 24.648Z" fill="black"/>
<path d="M134.832 166.723C134.832 180.521 123.424 191.723 109.332 191.723C95.2396 191.723 83.832 180.521 83.832 166.723C83.832 152.925 95.2396 141.723 109.332 141.723C123.424 141.723 134.832 152.925 134.832 166.723Z" fill="white" stroke="#246B6D"/>
<path d="M111.282 162.822V160.482C111.282 159.468 111.516 158.922 113.154 158.922H115.182V155.022H112.062C108.162 155.022 106.602 157.596 106.602 160.482V162.822H103.482V166.722H106.602V178.422H111.282V166.722H114.714L115.182 162.822H111.282Z" fill="#246B6D"/>
<path d="M75.0156 166.723C75.0156 180.521 63.6081 191.723 49.5156 191.723C35.4232 191.723 24.0156 180.521 24.0156 166.723C24.0156 152.925 35.4232 141.723 49.5156 141.723C63.6081 141.723 75.0156 152.925 75.0156 166.723Z" fill="white" stroke="#246B6D"/>
<path d="M62.1817 164.193H61.1413V164.139H49.5163V169.306H56.8161C55.7512 172.313 52.8895 174.472 49.5163 174.472C45.2363 174.472 41.7663 171.002 41.7663 166.722C41.7663 162.442 45.2363 158.972 49.5163 158.972C51.4919 158.972 53.2892 159.718 54.6578 160.935L58.3112 157.282C56.0043 155.132 52.9185 153.806 49.5163 153.806C42.383 153.806 36.5996 159.589 36.5996 166.722C36.5996 173.856 42.383 179.639 49.5163 179.639C56.6495 179.639 62.4329 173.856 62.4329 166.722C62.4329 165.856 62.3438 165.011 62.1817 164.193Z" fill="#246B6D"/>
<path d="M38.0879 160.71L42.3317 163.823C43.48 160.98 46.2609 158.972 49.5153 158.972C51.4909 158.972 53.2882 159.718 54.6567 160.935L58.3102 157.282C56.0033 155.132 52.9175 153.806 49.5153 153.806C44.554 153.806 40.2514 156.607 38.0879 160.71Z" fill="#246B6D"/>
<path d="M49.5166 179.639C52.853 179.639 55.8846 178.362 58.1766 176.286L54.1789 172.903C52.8385 173.923 51.2006 174.474 49.5166 174.473C46.157 174.473 43.3044 172.33 42.2297 169.341L38.0176 172.586C40.1553 176.769 44.4966 179.639 49.5166 179.639Z" fill="#246B6D"/>
<path d="M62.1811 164.193H61.1406V164.14H49.5156V169.306H56.8155C56.3061 170.738 55.3884 171.989 54.176 172.904L54.1779 172.903L58.1756 176.286C57.8927 176.543 62.4323 173.181 62.4323 166.723C62.4323 165.857 62.3432 165.012 62.1811 164.193Z" fill="#246B6D"/>
<path d="M197 166.723C197 180.521 185.592 191.723 171.5 191.723C157.408 191.723 146 180.521 146 166.723C146 152.925 157.408 141.723 171.5 141.723C185.592 141.723 197 152.925 197 166.723Z" fill="white" stroke="#246B6D"/>
<path d="M184.88 158.436C183.896 158.86 182.825 159.166 181.722 159.285C182.867 158.604 183.724 157.53 184.134 156.262C183.059 156.901 181.882 157.349 180.654 157.587C180.141 157.038 179.52 156.601 178.831 156.303C178.142 156.005 177.398 155.852 176.647 155.854C173.608 155.854 171.164 158.317 171.164 161.34C171.164 161.764 171.216 162.189 171.299 162.597C166.749 162.359 162.691 160.185 159.993 156.857C159.501 157.697 159.243 158.653 159.247 159.626C159.247 161.529 160.215 163.208 161.691 164.195C160.821 164.161 159.971 163.922 159.211 163.497V163.565C159.211 166.231 161.096 168.44 163.607 168.948C163.136 169.071 162.651 169.133 162.163 169.135C161.806 169.135 161.469 169.099 161.128 169.051C161.822 171.225 163.845 172.804 166.254 172.855C164.369 174.331 162.009 175.2 159.446 175.2C158.986 175.2 158.562 175.184 158.121 175.132C160.552 176.692 163.437 177.592 166.543 177.592C176.628 177.592 182.146 169.238 182.146 161.986C182.146 161.748 182.146 161.51 182.13 161.272C183.198 160.491 184.134 159.523 184.88 158.436Z" fill="#246B6D"/>
<path d="M25.3028 116.917C25.2421 116.856 25.1295 116.774 24.9648 116.67C24.8088 116.566 24.6138 116.466 24.3798 116.371C24.1545 116.267 23.9075 116.18 23.6388 116.111C23.3701 116.041 23.0971 116.007 22.8198 116.007C22.3258 116.007 21.9575 116.098 21.7148 116.28C21.4721 116.462 21.3508 116.717 21.3508 117.047C21.3508 117.237 21.3941 117.398 21.4808 117.528C21.5761 117.649 21.7105 117.757 21.8838 117.853C22.0571 117.948 22.2738 118.035 22.5338 118.113C22.8025 118.191 23.1101 118.273 23.4568 118.36C23.9075 118.481 24.3148 118.611 24.6788 118.75C25.0515 118.888 25.3635 119.062 25.6148 119.27C25.8748 119.478 26.0741 119.729 26.2128 120.024C26.3515 120.31 26.4208 120.665 26.4208 121.09C26.4208 121.584 26.3255 122.008 26.1348 122.364C25.9528 122.71 25.7015 122.992 25.3808 123.209C25.0688 123.425 24.7048 123.586 24.2888 123.69C23.8815 123.785 23.4525 123.833 23.0018 123.833C22.3085 123.833 21.6238 123.729 20.9478 123.521C20.2718 123.313 19.6651 123.018 19.1278 122.637L19.9208 121.09C19.9988 121.168 20.1375 121.272 20.3368 121.402C20.5448 121.523 20.7875 121.649 21.0648 121.779C21.3421 121.9 21.6498 122.004 21.9878 122.091C22.3258 122.177 22.6725 122.221 23.0278 122.221C24.0158 122.221 24.5098 121.904 24.5098 121.272C24.5098 121.072 24.4535 120.903 24.3408 120.765C24.2281 120.626 24.0678 120.505 23.8598 120.401C23.6518 120.297 23.4005 120.201 23.1058 120.115C22.8111 120.028 22.4818 119.933 22.1178 119.829C21.6758 119.707 21.2901 119.577 20.9608 119.439C20.6401 119.291 20.3715 119.122 20.1548 118.932C19.9381 118.732 19.7735 118.507 19.6608 118.256C19.5568 117.996 19.5048 117.688 19.5048 117.333C19.5048 116.865 19.5915 116.449 19.7648 116.085C19.9381 115.721 20.1765 115.417 20.4798 115.175C20.7918 114.932 21.1515 114.75 21.5588 114.629C21.9661 114.499 22.4038 114.434 22.8718 114.434C23.5218 114.434 24.1198 114.538 24.6658 114.746C25.2118 114.945 25.6885 115.183 26.0958 115.461L25.3028 116.917ZM30.7535 123.859C30.1988 123.859 29.7005 123.763 29.2585 123.573C28.8165 123.382 28.4395 123.126 28.1275 122.806C27.8241 122.476 27.5901 122.099 27.4255 121.675C27.2608 121.25 27.1785 120.804 27.1785 120.336C27.1785 119.859 27.2608 119.408 27.4255 118.984C27.5901 118.559 27.8241 118.186 28.1275 117.866C28.4395 117.536 28.8165 117.276 29.2585 117.086C29.7005 116.895 30.1988 116.8 30.7535 116.8C31.3081 116.8 31.8021 116.895 32.2355 117.086C32.6775 117.276 33.0501 117.536 33.3535 117.866C33.6655 118.186 33.9038 118.559 34.0685 118.984C34.2331 119.408 34.3155 119.859 34.3155 120.336C34.3155 120.804 34.2331 121.25 34.0685 121.675C33.9038 122.099 33.6698 122.476 33.3665 122.806C33.0631 123.126 32.6905 123.382 32.2485 123.573C31.8065 123.763 31.3081 123.859 30.7535 123.859ZM28.9725 120.336C28.9725 120.639 29.0158 120.916 29.1025 121.168C29.1978 121.41 29.3235 121.623 29.4795 121.805C29.6441 121.987 29.8348 122.13 30.0515 122.234C30.2681 122.329 30.5021 122.377 30.7535 122.377C31.0048 122.377 31.2388 122.329 31.4555 122.234C31.6721 122.13 31.8585 121.987 32.0145 121.805C32.1791 121.623 32.3048 121.406 32.3915 121.155C32.4868 120.903 32.5345 120.626 32.5345 120.323C32.5345 120.028 32.4868 119.755 32.3915 119.504C32.3048 119.252 32.1791 119.036 32.0145 118.854C31.8585 118.672 31.6721 118.533 31.4555 118.438C31.2388 118.334 31.0048 118.282 30.7535 118.282C30.5021 118.282 30.2681 118.334 30.0515 118.438C29.8348 118.542 29.6441 118.685 29.4795 118.867C29.3235 119.049 29.1978 119.265 29.1025 119.517C29.0158 119.768 28.9725 120.041 28.9725 120.336ZM35.0622 120.323C35.0622 119.846 35.1446 119.395 35.3092 118.971C35.4739 118.546 35.7122 118.173 36.0242 117.853C36.3362 117.532 36.7132 117.276 37.1552 117.086C37.5972 116.895 38.0956 116.8 38.6502 116.8C39.3956 116.8 40.0282 116.96 40.5482 117.281C41.0769 117.601 41.4712 118.022 41.7312 118.542L40.0282 119.062C39.8809 118.81 39.6859 118.62 39.4432 118.49C39.2006 118.351 38.9319 118.282 38.6372 118.282C38.3859 118.282 38.1519 118.334 37.9352 118.438C37.7186 118.533 37.5279 118.672 37.3632 118.854C37.2072 119.027 37.0816 119.239 36.9862 119.491C36.8996 119.742 36.8562 120.019 36.8562 120.323C36.8562 120.626 36.9039 120.903 36.9992 121.155C37.0946 121.406 37.2202 121.623 37.3762 121.805C37.5409 121.987 37.7316 122.13 37.9482 122.234C38.1649 122.329 38.3946 122.377 38.6372 122.377C38.9492 122.377 39.2352 122.299 39.4952 122.143C39.7639 121.987 39.9502 121.796 40.0542 121.571L41.7572 122.091C41.5232 122.611 41.1376 123.035 40.6002 123.365C40.0629 123.694 39.4172 123.859 38.6632 123.859C38.1086 123.859 37.6102 123.763 37.1682 123.573C36.7262 123.382 36.3492 123.126 36.0372 122.806C35.7252 122.476 35.4826 122.099 35.3092 121.675C35.1446 121.241 35.0622 120.791 35.0622 120.323ZM42.8291 123.729V116.917H44.5711V123.729H42.8291ZM42.8291 115.968V114.239H44.5711V115.968H42.8291ZM48.0016 123.859C47.6723 123.859 47.3646 123.807 47.0786 123.703C46.7926 123.59 46.5456 123.438 46.3376 123.248C46.1296 123.048 45.9649 122.819 45.8436 122.559C45.7309 122.299 45.6746 122.013 45.6746 121.701C45.6746 121.38 45.7439 121.085 45.8826 120.817C46.0299 120.539 46.2293 120.305 46.4806 120.115C46.7406 119.924 47.0483 119.777 47.4036 119.673C47.7589 119.56 48.1489 119.504 48.5736 119.504C48.8769 119.504 49.1716 119.53 49.4576 119.582C49.7523 119.634 50.0123 119.707 50.2376 119.803V119.413C50.2376 118.962 50.1076 118.615 49.8476 118.373C49.5963 118.13 49.2193 118.009 48.7166 118.009C48.3526 118.009 47.9973 118.074 47.6506 118.204C47.3039 118.334 46.9486 118.524 46.5846 118.776L46.0516 117.671C46.9269 117.09 47.8716 116.8 48.8856 116.8C49.8649 116.8 50.6233 117.042 51.1606 117.528C51.7066 118.004 51.9796 118.698 51.9796 119.608V121.727C51.9796 121.909 52.0099 122.039 52.0706 122.117C52.1399 122.195 52.2483 122.238 52.3956 122.247V123.729C52.1009 123.789 51.8453 123.82 51.6286 123.82C51.2993 123.82 51.0436 123.746 50.8616 123.599C50.6883 123.451 50.5799 123.256 50.5366 123.014L50.4976 122.637C50.1943 123.035 49.8259 123.339 49.3926 123.547C48.9593 123.755 48.4956 123.859 48.0016 123.859ZM48.4956 122.585C48.7903 122.585 49.0676 122.533 49.3276 122.429C49.5963 122.325 49.8043 122.186 49.9516 122.013C50.1423 121.865 50.2376 121.701 50.2376 121.519V120.739C50.0296 120.661 49.8043 120.6 49.5616 120.557C49.3189 120.505 49.0849 120.479 48.8596 120.479C48.4089 120.479 48.0406 120.583 47.7546 120.791C47.4686 120.99 47.3256 121.246 47.3256 121.558C47.3256 121.852 47.4383 122.099 47.6636 122.299C47.8889 122.489 48.1663 122.585 48.4956 122.585ZM53.5945 114.239H55.3365V121.545C55.3365 121.796 55.3971 121.991 55.5185 122.13C55.6398 122.268 55.8131 122.338 56.0385 122.338C56.1425 122.338 56.2551 122.32 56.3765 122.286C56.5065 122.251 56.6278 122.208 56.7405 122.156L56.9745 123.482C56.7405 123.594 56.4675 123.681 56.1555 123.742C55.8435 123.802 55.5618 123.833 55.3105 123.833C54.7645 123.833 54.3398 123.69 54.0365 123.404C53.7418 123.109 53.5945 122.693 53.5945 122.156V114.239ZM60.4112 120.947V119.374H64.3502V120.947H60.4112ZM71.9165 114.525H73.5675L74.6075 117.58L75.6475 114.525H77.3115L75.7385 118.724L76.9085 121.675L79.5215 114.499H81.4715L77.7145 123.729H76.2065L74.6075 119.855L73.0085 123.729H71.5005L67.7695 114.499H69.6935L72.3195 121.675L73.4635 118.724L71.9165 114.525ZM88.5791 123.729H86.8371V119.907C86.8371 119.369 86.7374 118.975 86.5381 118.724C86.3387 118.464 86.0571 118.334 85.6931 118.334C85.5371 118.334 85.3724 118.368 85.1991 118.438C85.0257 118.507 84.8611 118.607 84.7051 118.737C84.5491 118.858 84.4061 119.005 84.2761 119.179C84.1461 119.352 84.0507 119.543 83.9901 119.751V123.729H82.2481V114.239H83.9901V118.178C84.2414 117.736 84.5794 117.398 85.0041 117.164C85.4374 116.921 85.9141 116.8 86.4341 116.8C86.8761 116.8 87.2357 116.878 87.5131 117.034C87.7904 117.181 88.0071 117.38 88.1631 117.632C88.3191 117.883 88.4274 118.169 88.4881 118.49C88.5487 118.81 88.5791 119.14 88.5791 119.478V123.729ZM90.0938 123.729V116.917H91.8358V123.729H90.0938ZM90.0938 115.968V114.239H91.8358V115.968H90.0938ZM97.4893 123.378C97.2553 123.482 96.9693 123.586 96.6313 123.69C96.2933 123.794 95.9379 123.846 95.5653 123.846C95.3226 123.846 95.0929 123.815 94.8763 123.755C94.6683 123.694 94.4819 123.599 94.3173 123.469C94.1613 123.33 94.0356 123.157 93.9403 122.949C93.8449 122.732 93.7973 122.472 93.7973 122.169V118.256H92.9003V116.917H93.7973V114.707H95.5393V116.917H96.9693V118.256H95.5393V121.584C95.5393 121.826 95.5999 122 95.7213 122.104C95.8513 122.199 96.0073 122.247 96.1893 122.247C96.3713 122.247 96.5489 122.216 96.7223 122.156C96.8956 122.095 97.0343 122.043 97.1383 122L97.4893 123.378ZM101.39 123.859C100.844 123.859 100.35 123.768 99.9085 123.586C99.4665 123.395 99.0895 123.139 98.7775 122.819C98.4655 122.498 98.2228 122.125 98.0495 121.701C97.8848 121.276 97.8025 120.83 97.8025 120.362C97.8025 119.876 97.8848 119.421 98.0495 118.997C98.2141 118.563 98.4525 118.186 98.7645 117.866C99.0765 117.536 99.4535 117.276 99.8955 117.086C100.346 116.895 100.849 116.8 101.403 116.8C101.958 116.8 102.452 116.895 102.885 117.086C103.327 117.276 103.7 117.532 104.003 117.853C104.315 118.173 104.549 118.546 104.705 118.971C104.87 119.395 104.952 119.837 104.952 120.297C104.952 120.409 104.948 120.518 104.939 120.622C104.939 120.726 104.931 120.812 104.913 120.882H99.6485C99.6745 121.15 99.7395 121.389 99.8435 121.597C99.9475 121.805 100.082 121.982 100.246 122.13C100.411 122.277 100.597 122.39 100.805 122.468C101.013 122.546 101.23 122.585 101.455 122.585C101.802 122.585 102.127 122.502 102.43 122.338C102.742 122.164 102.955 121.939 103.067 121.662L104.562 122.078C104.311 122.598 103.908 123.027 103.353 123.365C102.807 123.694 102.153 123.859 101.39 123.859ZM103.158 119.751C103.115 119.239 102.924 118.832 102.586 118.529C102.257 118.217 101.854 118.061 101.377 118.061C101.143 118.061 100.922 118.104 100.714 118.191C100.515 118.269 100.337 118.381 100.181 118.529C100.025 118.676 99.8955 118.854 99.7915 119.062C99.6961 119.27 99.6398 119.499 99.6225 119.751H103.158Z" fill="black"/>
<path d="M130.158 262.438C130.158 276.236 118.751 287.438 104.658 287.438C90.5657 287.438 79.1582 276.236 79.1582 262.438C79.1582 248.639 90.5657 237.438 104.658 237.438C118.751 237.438 130.158 248.639 130.158 262.438Z" fill="white" stroke="#246B6D"/>
<path d="M106.609 258.537V256.197C106.609 255.183 106.843 254.637 108.481 254.637H110.509V250.737H107.389C103.489 250.737 101.929 253.311 101.929 256.197V258.537H98.8086V262.437H101.929V274.137H106.609V262.437H110.041L110.509 258.537H106.609Z" fill="#3B5998"/>
<path d="M70.3418 262.438C70.3418 276.236 58.9343 287.438 44.8418 287.438C30.7493 287.438 19.3418 276.236 19.3418 262.438C19.3418 248.639 30.7493 237.438 44.8418 237.438C58.9343 237.438 70.3418 248.639 70.3418 262.438Z" fill="white" stroke="#246B6D"/>
<path d="M57.5079 259.907H56.4674V259.854H44.8424V265.021H52.1423C51.0773 268.028 48.2156 270.187 44.8424 270.187C40.5625 270.187 37.0924 266.717 37.0924 262.437C37.0924 258.157 40.5625 254.687 44.8424 254.687C46.8181 254.687 48.6154 255.432 49.9839 256.65L53.6374 252.996C51.3305 250.846 48.2447 249.521 44.8424 249.521C37.7092 249.521 31.9258 255.304 31.9258 262.437C31.9258 269.57 37.7092 275.354 44.8424 275.354C51.9757 275.354 57.7591 269.57 57.7591 262.437C57.7591 261.571 57.67 260.726 57.5079 259.907Z" fill="#FFC107"/>
<path d="M33.4141 256.425L37.6578 259.537C38.8061 256.694 41.5871 254.687 44.8414 254.687C46.817 254.687 48.6144 255.432 49.9829 256.65L53.6364 252.996C51.3295 250.846 48.2437 249.521 44.8414 249.521C39.8801 249.521 35.5776 252.321 33.4141 256.425Z" fill="#FF3D00"/>
<path d="M44.8428 275.354C48.1792 275.354 51.2107 274.077 53.5028 272.001L49.5051 268.618C48.1647 269.637 46.5268 270.189 44.8428 270.187C41.4832 270.187 38.6305 268.045 37.5559 265.056L33.3438 268.301C35.4815 272.484 39.8228 275.354 44.8428 275.354Z" fill="#4CAF50"/>
<path d="M57.5072 259.908H56.4668V259.854H44.8418V265.021H52.1417C51.6322 266.453 50.7146 267.703 49.5021 268.619L49.5041 268.618L53.5018 272.001C53.2189 272.258 57.7585 268.896 57.7585 262.438C57.7585 261.572 57.6693 260.726 57.5072 259.908Z" fill="#1976D2"/>
<path d="M192.326 262.438C192.326 276.236 180.919 287.438 166.826 287.438C152.734 287.438 141.326 276.236 141.326 262.438C141.326 248.639 152.734 237.438 166.826 237.438C180.919 237.438 192.326 248.639 192.326 262.438Z" fill="white" stroke="#246B6D"/>
<path d="M180.206 254.151C179.222 254.575 178.151 254.881 177.048 255C178.193 254.319 179.051 253.244 179.46 251.977C178.385 252.616 177.208 253.064 175.98 253.302C175.467 252.753 174.847 252.316 174.157 252.018C173.468 251.72 172.724 251.567 171.973 251.568C168.934 251.568 166.49 254.032 166.49 257.055C166.49 257.479 166.542 257.903 166.626 258.312C162.075 258.074 158.017 255.9 155.319 252.572C154.827 253.411 154.57 254.367 154.573 255.34C154.573 257.244 155.541 258.923 157.017 259.91C156.147 259.876 155.297 259.637 154.537 259.212V259.28C154.537 261.946 156.422 264.155 158.933 264.663C158.462 264.786 157.977 264.848 157.49 264.85C157.133 264.85 156.795 264.814 156.454 264.766C157.149 266.94 159.171 268.519 161.58 268.57C159.696 270.046 157.335 270.915 154.772 270.915C154.312 270.915 153.888 270.898 153.447 270.847C155.878 272.407 158.763 273.307 161.869 273.307C171.954 273.307 177.472 264.952 177.472 257.701C177.472 257.463 177.472 257.225 177.456 256.987C178.524 256.206 179.46 255.238 180.206 254.151Z" fill="#1DA1F2"/>
<path d="M25.3028 213.567C25.2421 213.506 25.1295 213.424 24.9648 213.32C24.8088 213.216 24.6138 213.116 24.3798 213.021C24.1545 212.917 23.9075 212.83 23.6388 212.761C23.3701 212.692 23.0971 212.657 22.8198 212.657C22.3258 212.657 21.9575 212.748 21.7148 212.93C21.4721 213.112 21.3508 213.368 21.3508 213.697C21.3508 213.888 21.3941 214.048 21.4808 214.178C21.5761 214.299 21.7105 214.408 21.8838 214.503C22.0571 214.598 22.2738 214.685 22.5338 214.763C22.8025 214.841 23.1101 214.923 23.4568 215.01C23.9075 215.131 24.3148 215.261 24.6788 215.4C25.0515 215.539 25.3635 215.712 25.6148 215.92C25.8748 216.128 26.0741 216.379 26.2128 216.674C26.3515 216.96 26.4208 217.315 26.4208 217.74C26.4208 218.234 26.3255 218.659 26.1348 219.014C25.9528 219.361 25.7015 219.642 25.3808 219.859C25.0688 220.076 24.7048 220.236 24.2888 220.34C23.8815 220.435 23.4525 220.483 23.0018 220.483C22.3085 220.483 21.6238 220.379 20.9478 220.171C20.2718 219.963 19.6651 219.668 19.1278 219.287L19.9208 217.74C19.9988 217.818 20.1375 217.922 20.3368 218.052C20.5448 218.173 20.7875 218.299 21.0648 218.429C21.3421 218.55 21.6498 218.654 21.9878 218.741C22.3258 218.828 22.6725 218.871 23.0278 218.871C24.0158 218.871 24.5098 218.555 24.5098 217.922C24.5098 217.723 24.4535 217.554 24.3408 217.415C24.2281 217.276 24.0678 217.155 23.8598 217.051C23.6518 216.947 23.4005 216.852 23.1058 216.765C22.8111 216.678 22.4818 216.583 22.1178 216.479C21.6758 216.358 21.2901 216.228 20.9608 216.089C20.6401 215.942 20.3715 215.773 20.1548 215.582C19.9381 215.383 19.7735 215.157 19.6608 214.906C19.5568 214.646 19.5048 214.338 19.5048 213.983C19.5048 213.515 19.5915 213.099 19.7648 212.735C19.9381 212.371 20.1765 212.068 20.4798 211.825C20.7918 211.582 21.1515 211.4 21.5588 211.279C21.9661 211.149 22.4038 211.084 22.8718 211.084C23.5218 211.084 24.1198 211.188 24.6658 211.396C25.2118 211.595 25.6885 211.834 26.0958 212.111L25.3028 213.567ZM30.7535 220.509C30.1988 220.509 29.7005 220.414 29.2585 220.223C28.8165 220.032 28.4395 219.777 28.1275 219.456C27.8241 219.127 27.5901 218.75 27.4255 218.325C27.2608 217.9 27.1785 217.454 27.1785 216.986C27.1785 216.509 27.2608 216.059 27.4255 215.634C27.5901 215.209 27.8241 214.837 28.1275 214.516C28.4395 214.187 28.8165 213.927 29.2585 213.736C29.7005 213.545 30.1988 213.45 30.7535 213.45C31.3081 213.45 31.8021 213.545 32.2355 213.736C32.6775 213.927 33.0501 214.187 33.3535 214.516C33.6655 214.837 33.9038 215.209 34.0685 215.634C34.2331 216.059 34.3155 216.509 34.3155 216.986C34.3155 217.454 34.2331 217.9 34.0685 218.325C33.9038 218.75 33.6698 219.127 33.3665 219.456C33.0631 219.777 32.6905 220.032 32.2485 220.223C31.8065 220.414 31.3081 220.509 30.7535 220.509ZM28.9725 216.986C28.9725 217.289 29.0158 217.567 29.1025 217.818C29.1978 218.061 29.3235 218.273 29.4795 218.455C29.6441 218.637 29.8348 218.78 30.0515 218.884C30.2681 218.979 30.5021 219.027 30.7535 219.027C31.0048 219.027 31.2388 218.979 31.4555 218.884C31.6721 218.78 31.8585 218.637 32.0145 218.455C32.1791 218.273 32.3048 218.056 32.3915 217.805C32.4868 217.554 32.5345 217.276 32.5345 216.973C32.5345 216.678 32.4868 216.405 32.3915 216.154C32.3048 215.903 32.1791 215.686 32.0145 215.504C31.8585 215.322 31.6721 215.183 31.4555 215.088C31.2388 214.984 31.0048 214.932 30.7535 214.932C30.5021 214.932 30.2681 214.984 30.0515 215.088C29.8348 215.192 29.6441 215.335 29.4795 215.517C29.3235 215.699 29.1978 215.916 29.1025 216.167C29.0158 216.418 28.9725 216.691 28.9725 216.986ZM35.0622 216.973C35.0622 216.496 35.1446 216.046 35.3092 215.621C35.4739 215.196 35.7122 214.824 36.0242 214.503C36.3362 214.182 36.7132 213.927 37.1552 213.736C37.5972 213.545 38.0956 213.45 38.6502 213.45C39.3956 213.45 40.0282 213.61 40.5482 213.931C41.0769 214.252 41.4712 214.672 41.7312 215.192L40.0282 215.712C39.8809 215.461 39.6859 215.27 39.4432 215.14C39.2006 215.001 38.9319 214.932 38.6372 214.932C38.3859 214.932 38.1519 214.984 37.9352 215.088C37.7186 215.183 37.5279 215.322 37.3632 215.504C37.2072 215.677 37.0816 215.89 36.9862 216.141C36.8996 216.392 36.8562 216.67 36.8562 216.973C36.8562 217.276 36.9039 217.554 36.9992 217.805C37.0946 218.056 37.2202 218.273 37.3762 218.455C37.5409 218.637 37.7316 218.78 37.9482 218.884C38.1649 218.979 38.3946 219.027 38.6372 219.027C38.9492 219.027 39.2352 218.949 39.4952 218.793C39.7639 218.637 39.9502 218.446 40.0542 218.221L41.7572 218.741C41.5232 219.261 41.1376 219.686 40.6002 220.015C40.0629 220.344 39.4172 220.509 38.6632 220.509C38.1086 220.509 37.6102 220.414 37.1682 220.223C36.7262 220.032 36.3492 219.777 36.0372 219.456C35.7252 219.127 35.4826 218.75 35.3092 218.325C35.1446 217.892 35.0622 217.441 35.0622 216.973ZM42.8291 220.379V213.567H44.5711V220.379H42.8291ZM42.8291 212.618V210.889H44.5711V212.618H42.8291ZM48.0016 220.509C47.6723 220.509 47.3646 220.457 47.0786 220.353C46.7926 220.24 46.5456 220.089 46.3376 219.898C46.1296 219.699 45.9649 219.469 45.8436 219.209C45.7309 218.949 45.6746 218.663 45.6746 218.351C45.6746 218.03 45.7439 217.736 45.8826 217.467C46.0299 217.19 46.2293 216.956 46.4806 216.765C46.7406 216.574 47.0483 216.427 47.4036 216.323C47.7589 216.21 48.1489 216.154 48.5736 216.154C48.8769 216.154 49.1716 216.18 49.4576 216.232C49.7523 216.284 50.0123 216.358 50.2376 216.453V216.063C50.2376 215.612 50.1076 215.266 49.8476 215.023C49.5963 214.78 49.2193 214.659 48.7166 214.659C48.3526 214.659 47.9973 214.724 47.6506 214.854C47.3039 214.984 46.9486 215.175 46.5846 215.426L46.0516 214.321C46.9269 213.74 47.8716 213.45 48.8856 213.45C49.8649 213.45 50.6233 213.693 51.1606 214.178C51.7066 214.655 51.9796 215.348 51.9796 216.258V218.377C51.9796 218.559 52.0099 218.689 52.0706 218.767C52.1399 218.845 52.2483 218.888 52.3956 218.897V220.379C52.1009 220.44 51.8453 220.47 51.6286 220.47C51.2993 220.47 51.0436 220.396 50.8616 220.249C50.6883 220.102 50.5799 219.907 50.5366 219.664L50.4976 219.287C50.1943 219.686 49.8259 219.989 49.3926 220.197C48.9593 220.405 48.4956 220.509 48.0016 220.509ZM48.4956 219.235C48.7903 219.235 49.0676 219.183 49.3276 219.079C49.5963 218.975 49.8043 218.836 49.9516 218.663C50.1423 218.516 50.2376 218.351 50.2376 218.169V217.389C50.0296 217.311 49.8043 217.25 49.5616 217.207C49.3189 217.155 49.0849 217.129 48.8596 217.129C48.4089 217.129 48.0406 217.233 47.7546 217.441C47.4686 217.64 47.3256 217.896 47.3256 218.208C47.3256 218.503 47.4383 218.75 47.6636 218.949C47.8889 219.14 48.1663 219.235 48.4956 219.235ZM53.5945 210.889H55.3365V218.195C55.3365 218.446 55.3971 218.641 55.5185 218.78C55.6398 218.919 55.8131 218.988 56.0385 218.988C56.1425 218.988 56.2551 218.971 56.3765 218.936C56.5065 218.901 56.6278 218.858 56.7405 218.806L56.9745 220.132C56.7405 220.245 56.4675 220.331 56.1555 220.392C55.8435 220.453 55.5618 220.483 55.3105 220.483C54.7645 220.483 54.3398 220.34 54.0365 220.054C53.7418 219.759 53.5945 219.343 53.5945 218.806V210.889ZM60.4112 217.597V216.024H64.3502V217.597H60.4112ZM76.6119 218C76.6119 218.39 76.5339 218.732 76.3779 219.027C76.2219 219.322 76.0052 219.569 75.7279 219.768C75.4592 219.967 75.1429 220.119 74.7789 220.223C74.4235 220.327 74.0422 220.379 73.6349 220.379H69.1759V211.149H74.1159C74.4365 211.149 74.7269 211.218 74.9869 211.357C75.2469 211.496 75.4679 211.678 75.6499 211.903C75.8319 212.12 75.9705 212.371 76.0659 212.657C76.1699 212.934 76.2219 213.216 76.2219 213.502C76.2219 213.953 76.1092 214.377 75.8839 214.776C75.6585 215.166 75.3292 215.456 74.8959 215.647C75.4245 215.803 75.8405 216.085 76.1439 216.492C76.4559 216.891 76.6119 217.393 76.6119 218ZM74.8049 217.662C74.8049 217.497 74.7745 217.341 74.7139 217.194C74.6619 217.038 74.5882 216.904 74.4929 216.791C74.3975 216.678 74.2849 216.592 74.1549 216.531C74.0249 216.462 73.8819 216.427 73.7259 216.427H70.9699V218.858H73.6349C73.7995 218.858 73.9512 218.828 74.0899 218.767C74.2372 218.706 74.3629 218.624 74.4669 218.52C74.5709 218.407 74.6532 218.277 74.7139 218.13C74.7745 217.983 74.8049 217.827 74.8049 217.662ZM70.9699 212.683V215.01H73.3619C73.6652 215.01 73.9209 214.906 74.1289 214.698C74.3455 214.49 74.4539 214.204 74.4539 213.84C74.4539 213.485 74.3542 213.203 74.1549 212.995C73.9642 212.787 73.7259 212.683 73.4399 212.683H70.9699ZM81.8988 215.075C81.3701 215.084 80.8978 215.188 80.4818 215.387C80.0658 215.578 79.7668 215.868 79.5848 216.258V220.379H77.8428V213.567H79.4418V215.023C79.5631 214.789 79.7061 214.581 79.8708 214.399C80.0355 214.208 80.2131 214.044 80.4038 213.905C80.5945 213.766 80.7851 213.662 80.9758 213.593C81.1751 213.515 81.3658 213.476 81.5478 213.476C81.6431 213.476 81.7125 213.476 81.7558 213.476C81.8078 213.476 81.8555 213.48 81.8988 213.489V215.075ZM84.6403 220.509C84.3109 220.509 84.0033 220.457 83.7173 220.353C83.4313 220.24 83.1843 220.089 82.9763 219.898C82.7683 219.699 82.6036 219.469 82.4823 219.209C82.3696 218.949 82.3133 218.663 82.3133 218.351C82.3133 218.03 82.3826 217.736 82.5213 217.467C82.6686 217.19 82.8679 216.956 83.1193 216.765C83.3793 216.574 83.6869 216.427 84.0423 216.323C84.3976 216.21 84.7876 216.154 85.2123 216.154C85.5156 216.154 85.8103 216.18 86.0963 216.232C86.3909 216.284 86.6509 216.358 86.8763 216.453V216.063C86.8763 215.612 86.7463 215.266 86.4863 215.023C86.2349 214.78 85.8579 214.659 85.3553 214.659C84.9913 214.659 84.6359 214.724 84.2893 214.854C83.9426 214.984 83.5873 215.175 83.2233 215.426L82.6903 214.321C83.5656 213.74 84.5103 213.45 85.5243 213.45C86.5036 213.45 87.2619 213.693 87.7993 214.178C88.3453 214.655 88.6183 215.348 88.6183 216.258V218.377C88.6183 218.559 88.6486 218.689 88.7093 218.767C88.7786 218.845 88.8869 218.888 89.0343 218.897V220.379C88.7396 220.44 88.4839 220.47 88.2673 220.47C87.9379 220.47 87.6823 220.396 87.5003 220.249C87.3269 220.102 87.2186 219.907 87.1753 219.664L87.1363 219.287C86.8329 219.686 86.4646 219.989 86.0313 220.197C85.5979 220.405 85.1343 220.509 84.6403 220.509ZM85.1343 219.235C85.4289 219.235 85.7063 219.183 85.9663 219.079C86.2349 218.975 86.4429 218.836 86.5903 218.663C86.7809 218.516 86.8763 218.351 86.8763 218.169V217.389C86.6683 217.311 86.4429 217.25 86.2003 217.207C85.9576 217.155 85.7236 217.129 85.4983 217.129C85.0476 217.129 84.6793 217.233 84.3933 217.441C84.1073 217.64 83.9643 217.896 83.9643 218.208C83.9643 218.503 84.0769 218.75 84.3023 218.949C84.5276 219.14 84.8049 219.235 85.1343 219.235ZM96.5771 220.379H94.8351V216.557C94.8351 216.011 94.7398 215.612 94.5491 215.361C94.3585 215.11 94.0941 214.984 93.7561 214.984C93.5828 214.984 93.4051 215.019 93.2231 215.088C93.0411 215.157 92.8678 215.257 92.7031 215.387C92.5471 215.508 92.4041 215.656 92.2741 215.829C92.1441 216.002 92.0488 216.193 91.9881 216.401V220.379H90.2461V213.567H91.8191V214.828C92.0705 214.395 92.4345 214.057 92.9111 213.814C93.3878 213.571 93.9251 213.45 94.5231 213.45C94.9478 213.45 95.2945 213.528 95.5631 213.684C95.8318 213.84 96.0398 214.044 96.1871 214.295C96.3345 214.546 96.4341 214.832 96.4861 215.153C96.5468 215.474 96.5771 215.799 96.5771 216.128V220.379ZM100.913 220.509C100.445 220.509 100.011 220.418 99.6128 220.236C99.2142 220.054 98.8718 219.803 98.5858 219.482C98.2998 219.161 98.0745 218.789 97.9098 218.364C97.7538 217.931 97.6758 217.467 97.6758 216.973C97.6758 216.479 97.7495 216.02 97.8968 215.595C98.0528 215.17 98.2652 214.798 98.5338 214.477C98.8025 214.156 99.1232 213.905 99.4958 213.723C99.8685 213.541 100.276 213.45 100.718 213.45C101.22 213.45 101.671 213.571 102.07 213.814C102.477 214.057 102.793 214.373 103.019 214.763V210.889H104.761V218.377C104.761 218.559 104.791 218.689 104.852 218.767C104.912 218.845 105.016 218.888 105.164 218.897V220.379C104.86 220.44 104.613 220.47 104.423 220.47C104.111 220.47 103.855 220.392 103.656 220.236C103.456 220.08 103.344 219.876 103.318 219.625L103.279 219.196C103.027 219.629 102.685 219.959 102.252 220.184C101.827 220.401 101.381 220.509 100.913 220.509ZM101.368 219.027C101.532 219.027 101.701 219.001 101.875 218.949C102.048 218.888 102.208 218.806 102.356 218.702C102.503 218.598 102.633 218.477 102.746 218.338C102.867 218.199 102.958 218.048 103.019 217.883V216.258C102.949 216.067 102.85 215.894 102.72 215.738C102.598 215.573 102.455 215.435 102.291 215.322C102.135 215.201 101.966 215.105 101.784 215.036C101.61 214.967 101.437 214.932 101.264 214.932C101.004 214.932 100.761 214.988 100.536 215.101C100.319 215.214 100.133 215.37 99.9768 215.569C99.8208 215.76 99.6995 215.981 99.6128 216.232C99.5262 216.483 99.4828 216.743 99.4828 217.012C99.4828 217.298 99.5305 217.562 99.6258 217.805C99.7212 218.048 99.8512 218.26 100.016 218.442C100.18 218.624 100.375 218.767 100.601 218.871C100.835 218.975 101.09 219.027 101.368 219.027ZM109.165 216.973C109.165 216.496 109.247 216.046 109.412 215.621C109.576 215.196 109.815 214.824 110.127 214.503C110.439 214.182 110.816 213.927 111.258 213.736C111.7 213.545 112.198 213.45 112.753 213.45C113.498 213.45 114.131 213.61 114.651 213.931C115.179 214.252 115.574 214.672 115.834 215.192L114.131 215.712C113.983 215.461 113.788 215.27 113.546 215.14C113.303 215.001 113.034 214.932 112.74 214.932C112.488 214.932 112.254 214.984 112.038 215.088C111.821 215.183 111.63 215.322 111.466 215.504C111.31 215.677 111.184 215.89 111.089 216.141C111.002 216.392 110.959 216.67 110.959 216.973C110.959 217.276 111.006 217.554 111.102 217.805C111.197 218.056 111.323 218.273 111.479 218.455C111.643 218.637 111.834 218.78 112.051 218.884C112.267 218.979 112.497 219.027 112.74 219.027C113.052 219.027 113.338 218.949 113.598 218.793C113.866 218.637 114.053 218.446 114.157 218.221L115.86 218.741C115.626 219.261 115.24 219.686 114.703 220.015C114.165 220.344 113.52 220.509 112.766 220.509C112.211 220.509 111.713 220.414 111.271 220.223C110.829 220.032 110.452 219.777 110.14 219.456C109.828 219.127 109.585 218.75 109.412 218.325C109.247 217.892 109.165 217.441 109.165 216.973ZM120.014 220.509C119.46 220.509 118.961 220.414 118.519 220.223C118.077 220.032 117.7 219.777 117.388 219.456C117.085 219.127 116.851 218.75 116.686 218.325C116.522 217.9 116.439 217.454 116.439 216.986C116.439 216.509 116.522 216.059 116.686 215.634C116.851 215.209 117.085 214.837 117.388 214.516C117.7 214.187 118.077 213.927 118.519 213.736C118.961 213.545 119.46 213.45 120.014 213.45C120.569 213.45 121.063 213.545 121.496 213.736C121.938 213.927 122.311 214.187 122.614 214.516C122.926 214.837 123.165 215.209 123.329 215.634C123.494 216.059 123.576 216.509 123.576 216.986C123.576 217.454 123.494 217.9 123.329 218.325C123.165 218.75 122.931 219.127 122.627 219.456C122.324 219.777 121.951 220.032 121.509 220.223C121.067 220.414 120.569 220.509 120.014 220.509ZM118.233 216.986C118.233 217.289 118.277 217.567 118.363 217.818C118.459 218.061 118.584 218.273 118.74 218.455C118.905 218.637 119.096 218.78 119.312 218.884C119.529 218.979 119.763 219.027 120.014 219.027C120.266 219.027 120.5 218.979 120.716 218.884C120.933 218.78 121.119 218.637 121.275 218.455C121.44 218.273 121.566 218.056 121.652 217.805C121.748 217.554 121.795 217.276 121.795 216.973C121.795 216.678 121.748 216.405 121.652 216.154C121.566 215.903 121.44 215.686 121.275 215.504C121.119 215.322 120.933 215.183 120.716 215.088C120.5 214.984 120.266 214.932 120.014 214.932C119.763 214.932 119.529 214.984 119.312 215.088C119.096 215.192 118.905 215.335 118.74 215.517C118.584 215.699 118.459 215.916 118.363 216.167C118.277 216.418 118.233 216.691 118.233 216.986ZM124.739 210.889H126.481V218.195C126.481 218.446 126.542 218.641 126.663 218.78C126.784 218.919 126.958 218.988 127.183 218.988C127.287 218.988 127.4 218.971 127.521 218.936C127.651 218.901 127.772 218.858 127.885 218.806L128.119 220.132C127.885 220.245 127.612 220.331 127.3 220.392C126.988 220.453 126.706 220.483 126.455 220.483C125.909 220.483 125.484 220.34 125.181 220.054C124.886 219.759 124.739 219.343 124.739 218.806V210.889ZM132.024 220.509C131.469 220.509 130.971 220.414 130.529 220.223C130.087 220.032 129.71 219.777 129.398 219.456C129.095 219.127 128.861 218.75 128.696 218.325C128.531 217.9 128.449 217.454 128.449 216.986C128.449 216.509 128.531 216.059 128.696 215.634C128.861 215.209 129.095 214.837 129.398 214.516C129.71 214.187 130.087 213.927 130.529 213.736C130.971 213.545 131.469 213.45 132.024 213.45C132.579 213.45 133.073 213.545 133.506 213.736C133.948 213.927 134.321 214.187 134.624 214.516C134.936 214.837 135.174 215.209 135.339 215.634C135.504 216.059 135.586 216.509 135.586 216.986C135.586 217.454 135.504 217.9 135.339 218.325C135.174 218.75 134.94 219.127 134.637 219.456C134.334 219.777 133.961 220.032 133.519 220.223C133.077 220.414 132.579 220.509 132.024 220.509ZM130.243 216.986C130.243 217.289 130.286 217.567 130.373 217.818C130.468 218.061 130.594 218.273 130.75 218.455C130.915 218.637 131.105 218.78 131.322 218.884C131.539 218.979 131.773 219.027 132.024 219.027C132.275 219.027 132.509 218.979 132.726 218.884C132.943 218.78 133.129 218.637 133.285 218.455C133.45 218.273 133.575 218.056 133.662 217.805C133.757 217.554 133.805 217.276 133.805 216.973C133.805 216.678 133.757 216.405 133.662 216.154C133.575 215.903 133.45 215.686 133.285 215.504C133.129 215.322 132.943 215.183 132.726 215.088C132.509 214.984 132.275 214.932 132.024 214.932C131.773 214.932 131.539 214.984 131.322 215.088C131.105 215.192 130.915 215.335 130.75 215.517C130.594 215.699 130.468 215.916 130.373 216.167C130.286 216.418 130.243 216.691 130.243 216.986ZM140.818 215.075C140.289 215.084 139.817 215.188 139.401 215.387C138.985 215.578 138.686 215.868 138.504 216.258V220.379H136.762V213.567H138.361V215.023C138.482 214.789 138.625 214.581 138.79 214.399C138.954 214.208 139.132 214.044 139.323 213.905C139.513 213.766 139.704 213.662 139.895 213.593C140.094 213.515 140.285 213.476 140.467 213.476C140.562 213.476 140.631 213.476 140.675 213.476C140.727 213.476 140.774 213.48 140.818 213.489V215.075ZM144.363 220.509C143.791 220.509 143.232 220.418 142.686 220.236C142.14 220.054 141.672 219.794 141.282 219.456L141.932 218.364C142.348 218.659 142.751 218.884 143.141 219.04C143.54 219.187 143.934 219.261 144.324 219.261C144.671 219.261 144.944 219.196 145.143 219.066C145.342 218.936 145.442 218.75 145.442 218.507C145.442 218.264 145.325 218.087 145.091 217.974C144.857 217.861 144.476 217.731 143.947 217.584C143.505 217.463 143.128 217.346 142.816 217.233C142.504 217.12 142.253 216.995 142.062 216.856C141.871 216.709 141.733 216.544 141.646 216.362C141.559 216.171 141.516 215.946 141.516 215.686C141.516 215.339 141.581 215.027 141.711 214.75C141.85 214.473 142.04 214.239 142.283 214.048C142.526 213.849 142.807 213.697 143.128 213.593C143.457 213.489 143.813 213.437 144.194 213.437C144.705 213.437 145.182 213.511 145.624 213.658C146.075 213.805 146.486 214.044 146.859 214.373L146.157 215.426C145.81 215.166 145.472 214.975 145.143 214.854C144.822 214.733 144.502 214.672 144.181 214.672C143.886 214.672 143.639 214.733 143.44 214.854C143.241 214.975 143.141 215.17 143.141 215.439C143.141 215.56 143.163 215.66 143.206 215.738C143.258 215.816 143.336 215.885 143.44 215.946C143.544 216.007 143.678 216.067 143.843 216.128C144.016 216.18 144.229 216.236 144.48 216.297C144.948 216.418 145.347 216.54 145.676 216.661C146.014 216.782 146.287 216.921 146.495 217.077C146.712 217.233 146.868 217.415 146.963 217.623C147.067 217.822 147.119 218.065 147.119 218.351C147.119 219.018 146.872 219.547 146.378 219.937C145.884 220.318 145.212 220.509 144.363 220.509Z" fill="black"/>
</svg>
