<svg width="29" height="28" viewBox="0 0 29 28" fill="none" xmlns="http://www.w3.org/2000/svg">
<g id="Dribble active mobile">
<g clip-path="url(#clip0)">
<g id="Dribble">
<g clip-path="url(#clip1)">
<g id="Group">
<path id="Vector" d="M23.585 3.10645C23.6575 3.16403 23.7258 3.22949 23.7978 3.28877L23.7982 3.28686C23.7326 3.22129 23.6669 3.15566 23.585 3.10645Z" fill="#FF7CB9"/>
<path id="Vector_2" d="M28.8892 14.2957C28.8728 14.8699 28.8236 15.4277 28.7415 15.9855L24.6837 20.1691L20.5658 26.7316C20.0572 26.9613 19.5158 27.1746 18.958 27.3387L14.8892 23.4996L14.0033 22.6628L7.67045 25.9277C7.07983 25.5668 6.50561 25.173 5.98061 24.73L4.42202 17.298L0.938477 12.7042C1.00405 12.1465 1.08608 11.605 1.20092 11.0636L7.06337 7.02773L8.31024 1.71211C8.81884 1.43315 9.36024 1.18711 9.9017 0.990234L14.8892 2.49961L16.858 3.10664L23.7977 3.28711C24.2735 3.68086 24.7494 4.10742 25.1595 4.58326L25.0938 10.4566L28.8892 14.2957Z" fill="#FA5E97"/>
<path id="Vector_3" d="M28.8896 14.2952C28.8732 14.8693 28.8241 15.4272 28.7419 15.985L24.6841 20.1686L20.5663 26.7311C20.0577 26.9607 19.5163 27.174 18.9584 27.3381L14.8896 23.499V2.49902L16.8584 3.10605L23.7982 3.28652C24.2739 3.68027 24.7498 4.10684 25.16 4.58267L25.0943 10.4561L28.8896 14.2952Z" fill="#D94F88"/>
<path id="Vector_4" d="M10.5254 10.8174C11.8706 10.5548 13.1833 10.1939 14.43 9.80019C12.7731 6.76498 10.7223 4.02514 8.31055 1.71191C4.76685 3.61498 2.07065 7.01113 1.20117 11.0634C3.80982 11.5884 7.03091 11.5229 10.5254 10.8174Z" fill="#FF7CB9"/>
<path id="Vector_5" d="M23.7984 3.28666L23.5687 4.18901C23.2078 5.63276 20.1563 7.69995 16.1531 9.19297L15.9726 9.25854C15.6281 8.6187 15.2671 7.9788 14.8898 7.37177C13.4789 5.04213 11.789 2.89291 9.90234 0.989844C11.4445 0.382813 13.1343 0 14.8898 0C18.0233 0 20.9437 1.10469 23.2734 2.8601C23.4538 2.99135 23.6344 3.12266 23.7984 3.28666Z" fill="#FF7CB9"/>
<path id="Vector_6" d="M16.6123 14.6724C16.0217 14.8857 15.4475 15.1154 14.8896 15.3779C10.1318 17.5107 6.58809 21.0545 6.03022 24.4342C6.01392 24.5326 5.99746 24.6311 5.98105 24.7295C2.91309 22.1701 0.889648 18.3146 0.889648 13.9998C0.889648 13.5568 0.906055 13.1302 0.938922 12.7037C2.23496 12.9498 3.60215 13.0482 4.88189 13.0482C7.11314 13.0482 9.22949 12.7529 10.8537 12.4248C12.2483 12.146 13.5936 11.785 14.8897 11.3748C14.9881 11.342 15.0866 11.3092 15.185 11.2764C15.71 12.3756 16.1857 13.5076 16.6123 14.6724Z" fill="#FF7CB9"/>
<path id="Vector_7" d="M18.9587 27.3383C17.679 27.7321 16.3009 28.0001 14.89 28.0001C12.2486 28.0001 9.77121 27.2071 7.67115 25.9273C7.58912 25.5336 7.58912 25.1234 7.65485 24.6969C8.08131 22.0883 11.0345 19.1352 14.89 17.1993C15.6118 16.8383 16.3666 16.4937 17.154 16.2148C18.2696 19.7258 18.8931 23.4828 18.9587 27.3383Z" fill="#FF7CB9"/>
<path id="Vector_8" d="M28.7423 15.9849C28.0533 20.792 24.8651 24.8114 20.5667 26.731C20.4518 22.9248 19.7955 19.217 18.6963 15.7224C22.3713 14.7052 25.8549 14.8201 28.7423 15.9849Z" fill="#FF637B"/>
<path id="Vector_9" d="M28.89 14.0001V14.2955C25.7565 13.1306 22.0432 13.0814 18.1713 14.1806C17.7447 12.9994 17.2525 11.851 16.7275 10.7354C19.4182 9.71816 24.4549 7.38842 25.1603 4.58301C27.4409 7.06024 28.89 10.3743 28.89 14.0001Z" fill="#FF637B"/>
<path id="Vector_10" d="M16.6123 14.6725C16.0217 14.8857 15.4475 15.1155 14.8896 15.3779V11.3748C14.9881 11.342 15.0865 11.3092 15.185 11.2764C15.71 12.3756 16.1857 13.5077 16.6123 14.6725Z" fill="#FA5E97"/>
<path id="Vector_11" d="M17.1537 16.2148C18.2693 19.7258 18.8928 23.4828 18.9583 27.3383C17.6787 27.7321 16.3006 28.0001 14.8896 28.0001V17.1993C15.6115 16.8383 16.3663 16.4938 17.1537 16.2148Z" fill="#FA5E97"/>
<path id="Vector_12" d="M15.9724 9.25859C15.6279 8.61875 15.2669 7.97885 14.8896 7.37182V0C18.0232 0 20.9436 1.10469 23.2732 2.8601C23.4537 2.99141 23.6342 3.12266 23.7982 3.28666L23.5686 4.18901C23.2077 5.63276 20.1561 7.69994 16.153 9.19297L15.9724 9.25859Z" fill="#FA5E97"/>
<path id="Vector_13" d="M28.7423 15.9849C28.0533 20.792 24.8651 24.8114 20.5667 26.731C20.4518 22.9248 19.7955 19.217 18.6963 15.7224C22.3713 14.7052 25.8549 14.8201 28.7423 15.9849Z" fill="#FA5E97"/>
<path id="Vector_14" d="M28.89 14.0001V14.2955C25.7565 13.1306 22.0432 13.0814 18.1713 14.1806C17.7447 12.9994 17.2525 11.851 16.7275 10.7354C19.4182 9.71816 24.4549 7.38842 25.1603 4.58301C27.4409 7.06024 28.89 10.3743 28.89 14.0001Z" fill="#FA5E97"/>
</g>
</g>
</g>
</g>
</g>
<defs>
<clipPath id="clip0">
<rect x="0.889648" width="28" height="28" fill="white"/>
</clipPath>
<clipPath id="clip1">
<path d="M0.889648 0H28.8896V28H0.889648V0Z" fill="white"/>
</clipPath>
</defs>
</svg>
