<svg width="29" height="28" viewBox="0 0 29 28" fill="none" xmlns="http://www.w3.org/2000/svg">
<g clip-path="url(#clip0)">
<path d="M14.8896 28C22.6216 28 28.8896 21.732 28.8896 14C28.8896 6.26801 22.6216 0 14.8896 0C7.15766 0 0.889648 6.26801 0.889648 14C0.889648 21.732 7.15766 28 14.8896 28Z" fill="#F94877"/>
<path d="M18.2148 9.0125L17.8648 10.675C17.8648 10.85 17.6023 11.025 17.4273 11.025C17.2523 11.025 14.5398 11.025 14.5398 11.025C14.1898 11.025 14.0148 11.2875 14.0148 11.55V11.9C14.0148 12.25 14.2773 12.425 14.5398 12.425C14.5398 12.425 16.8148 12.425 16.9898 12.425C17.2523 12.425 17.4273 12.6875 17.4273 12.95C17.4273 13.2125 17.1648 14.4375 17.0773 14.525C16.9898 14.6125 16.9023 14.875 16.6398 14.875C16.3773 14.875 14.6273 14.875 14.6273 14.875C14.2773 14.875 14.1898 14.9625 13.9273 15.225C13.6648 15.4875 11.4773 18.2 11.4773 18.2V9.0125C11.4773 8.8375 11.6523 8.575 11.9148 8.575C11.9148 8.575 17.6898 8.575 17.8648 8.575C18.1273 8.575 18.3023 8.75 18.2148 9.0125ZM18.4773 15.4C18.5648 15.05 19.5273 10.2375 19.7898 8.75L18.4773 15.4ZM18.6523 7C18.6523 7 12.1773 7 11.2148 7C10.2523 7 9.90234 7.7875 9.90234 8.225C9.90234 8.75 9.90234 20.125 9.90234 20.125C9.90234 20.65 10.1648 20.9125 10.3398 20.9125C10.5148 21 10.9523 21 11.2148 20.7375C11.2148 20.7375 14.7148 16.625 14.8023 16.625C14.8898 16.5375 14.8898 16.5375 14.9773 16.5375C15.1523 16.5375 16.5523 16.5375 17.2523 16.5375C18.2148 16.5375 18.3898 15.8375 18.4773 15.4875C18.5648 15.1375 19.5273 10.325 19.7898 8.8375C20.0523 7.6125 19.7898 7 18.6523 7Z" fill="#F4F4F4"/>
</g>
<defs>
<clipPath id="clip0">
<rect x="0.889648" width="28" height="28" fill="white"/>
</clipPath>
</defs>
</svg>
