<svg width="29" height="29" viewBox="0 0 29 29" fill="none" xmlns="http://www.w3.org/2000/svg">
<path d="M14.6086 0.675781C6.87885 0.675781 0.610352 7.10257 0.610352 15.0306C0.610352 21.3716 4.62135 26.7511 10.1864 28.6509C10.8864 28.7831 11.1419 28.3399 11.1419 27.9592C11.1419 27.6179 11.1296 26.7153 11.1226 25.5179C7.22885 26.3847 6.40635 23.5931 6.40635 23.5931C5.7711 21.9346 4.85235 21.4931 4.85235 21.4931C3.5801 20.6031 4.94685 20.621 4.94685 20.621C6.3521 20.7228 7.0906 22.1008 7.0906 22.1008C8.3401 24.2937 10.3684 23.661 11.1664 23.2928C11.2924 22.3653 11.6546 21.7326 12.0554 21.3734C8.94735 21.0106 5.67835 19.7792 5.67835 14.28C5.67835 12.7126 6.22435 11.4312 7.12035 10.4268C6.9751 10.064 6.4956 8.60382 7.25685 6.62896C7.25685 6.62896 8.43285 6.24292 11.1069 8.09983C12.2234 7.78171 13.4204 7.62264 14.6121 7.61728C15.8004 7.62443 16.9991 7.78171 18.1174 8.10161C20.7896 6.24471 21.9639 6.63075 21.9639 6.63075C22.7269 8.60739 22.2474 10.0658 22.1039 10.4286C23.0016 11.433 23.5424 12.7144 23.5424 14.2818C23.5424 19.7953 20.2699 21.0088 17.1514 21.3645C17.6536 21.8077 18.1016 22.6834 18.1016 24.022C18.1016 25.9415 18.0841 27.4892 18.0841 27.9592C18.0841 28.3435 18.3361 28.7903 19.0466 28.6491C24.6029 26.7475 28.6104 21.3698 28.6104 15.0306C28.6104 7.10257 22.3419 0.675781 14.6086 0.675781Z" fill="#5C6BC0"/>
</svg>
