<svg width="29" height="28" viewBox="0 0 29 28" fill="none" xmlns="http://www.w3.org/2000/svg">
<g clip-path="url(#clip0)">
<g clip-path="url(#clip1)">
<path d="M28.8896 13.9999C28.8896 21.7322 22.6221 28.0002 14.8898 28.0002C7.15749 28 0.889648 21.7322 0.889648 13.9999C0.889648 6.26834 7.15749 0 14.89 0C22.6221 0 28.8896 6.26834 28.8896 13.9999Z" fill="#D31F27"/>
<path d="M20.9765 13.0127C19.4284 12.5512 18.8771 12.2954 18.8771 11.7843C18.8771 10.9318 20.1092 10.6109 20.249 10.5889C21.0324 10.4729 22.0139 10.8817 22.3304 11.8342L24.4367 11.1971C23.7754 9.1045 21.8195 8.17761 19.9198 8.45812C17.9762 8.74413 16.7299 10.1517 16.7299 11.7841C16.7299 13.9803 18.7873 14.6122 20.3311 15.0736C21.9555 15.5588 22.4277 15.7317 22.4277 16.3272C22.4277 16.8303 22.1292 17.2992 21.3361 17.5089C19.7589 17.9241 17.6959 17.3412 17.1217 16.3801C16.7845 15.8158 16.4396 15.0816 16.1232 14.2513C15.1833 11.7891 13.8956 8.41869 10.1925 8.41869C8.26312 8.41869 4.73926 9.35282 4.73926 14.6249C4.73926 16.8071 6.60626 19.5196 10.1244 19.5196C13.0765 19.5196 13.5903 18.4415 13.7076 18.2506L12.7441 16.3651C12.7196 16.3995 11.8227 17.597 10.1244 17.597C7.35246 17.597 6.94617 14.6581 6.94617 14.6249C6.94617 11.8879 8.11588 10.5724 10.1925 10.5724C12.2125 10.5724 13.0331 12.3294 14.0558 15.0045C14.4044 15.9236 14.785 16.7429 15.2163 17.4664C16.1289 18.9928 18.0987 19.4857 20.0761 19.4857C20.6795 19.4857 21.3738 19.5199 21.9106 19.3779C23.6808 18.9092 24.6321 17.836 24.6321 16.3272C24.6326 14.0302 22.565 13.4876 20.9765 13.0127Z" fill="white"/>
</g>
</g>
<defs>
<clipPath id="clip0">
<rect x="0.889648" width="28" height="28" fill="white"/>
</clipPath>
<clipPath id="clip1">
<path d="M0.889648 0H28.8896V28H0.889648V0Z" fill="white"/>
</clipPath>
</defs>
</svg>
