<svg width="29" height="28" viewBox="0 0 29 28" fill="none" xmlns="http://www.w3.org/2000/svg">
<g id="Linkedin active mobile">
<g clip-path="url(#clip0)">
<g id="Linkedin">
<g clip-path="url(#clip1)">
<g id="Group">
<path id="Vector" d="M14.8896 27.999C22.6216 27.999 28.8896 21.731 28.8896 13.999C28.8896 6.26704 22.6216 -0.000976562 14.8896 -0.000976562C7.15766 -0.000976562 0.889648 6.26704 0.889648 13.999C0.889648 21.731 7.15766 27.999 14.8896 27.999Z" fill="#007AB9"/>
<g id="Group_2">
<path id="Vector_2" d="M23.2542 15.1259V20.8978H19.9078V15.5128C19.9078 14.1606 19.4247 13.2372 18.213 13.2372C17.2884 13.2372 16.7391 13.8589 16.4965 14.4609C16.4084 14.676 16.3857 14.9747 16.3857 15.2764V20.8976H13.0391C13.0391 20.8976 13.084 11.7771 13.0391 10.833H16.386V12.2592C16.3792 12.2704 16.3698 12.2814 16.3638 12.2922H16.386V12.2592C16.8307 11.5749 17.6238 10.5966 19.402 10.5966C21.6036 10.5966 23.2542 12.0351 23.2542 15.1259ZM9.53822 5.98145C8.39347 5.98145 7.64453 6.73288 7.64453 7.72015C7.64453 8.68646 8.37176 9.45961 9.49429 9.45961H9.51601C10.6832 9.45961 11.4089 8.68646 11.4089 7.72015C11.3867 6.73288 10.6832 5.98145 9.53822 5.98145ZM7.84343 20.8978H11.1888V10.833H7.84343V20.8978Z" fill="#F1F2F2"/>
</g>
</g>
</g>
</g>
</g>
</g>
<defs>
<clipPath id="clip0">
<rect x="0.889648" width="28" height="28" fill="white"/>
</clipPath>
<clipPath id="clip1">
<path d="M0.889648 0H28.8896V28H0.889648V0Z" fill="white"/>
</clipPath>
</defs>
</svg>
