<svg width="29" height="28" viewBox="0 0 29 28" fill="none" xmlns="http://www.w3.org/2000/svg">
<g clip-path="url(#clip0)">
<g clip-path="url(#clip1)">
<path d="M14.8896 0C7.15765 0 0.889648 6.268 0.889648 14C0.889648 21.732 7.15765 28 14.8896 28C22.6216 28 28.8896 21.732 28.8896 14C28.8896 6.268 22.6216 0 14.8896 0ZM20.9826 20.3178C20.8046 20.6224 20.4843 20.7922 20.1552 20.7923C19.9911 20.7923 19.8249 20.7501 19.673 20.6614C17.1572 19.1911 14.2508 18.9548 12.2552 19.0155C10.0446 19.0827 8.42346 19.5191 8.40735 19.5236C7.89777 19.6628 7.37116 19.3629 7.23137 18.8534C7.09165 18.3439 7.39048 17.8176 7.8998 17.6773C7.97287 17.6572 9.71735 17.1834 12.1432 17.1034C13.5721 17.0563 14.9477 17.1558 16.2313 17.3993C17.857 17.7077 19.34 18.2491 20.6391 19.0083C21.0956 19.275 21.2494 19.8614 20.9826 20.3178ZM22.7625 16.6212C22.5517 16.9821 22.1722 17.1832 21.7823 17.1833C21.588 17.1833 21.3911 17.1333 21.2112 17.0282C18.2312 15.2866 14.7884 15.0068 12.4246 15.0786C9.80607 15.1583 7.88579 15.6752 7.86673 15.6805C7.26326 15.8451 6.63936 15.4902 6.47378 14.8866C6.30826 14.2831 6.66228 13.6598 7.26555 13.4936C7.35211 13.4697 9.41846 12.9084 12.292 12.8137C13.9847 12.7579 15.614 12.8758 17.1344 13.1642C19.0601 13.5296 20.8167 14.1708 22.3556 15.07C22.8964 15.386 23.0785 16.0806 22.7625 16.6212ZM23.8566 13.2601C23.6182 13.2601 23.3768 13.1989 23.156 13.0699C16.0713 8.92945 6.88109 11.3909 6.7891 11.4163C6.04839 11.6204 5.28268 11.1854 5.07866 10.4448C4.87458 9.70413 5.30959 8.93835 6.05023 8.73433C6.15636 8.70507 8.69098 8.01661 12.2156 7.9004C14.292 7.83204 16.2905 7.97661 18.1554 8.33036C20.5175 8.77846 22.6723 9.56494 24.5597 10.668C25.223 11.0556 25.4464 11.9075 25.0588 12.5708C24.8002 13.0134 24.3348 13.2601 23.8566 13.2601Z" fill="#00D95F"/>
</g>
</g>
<defs>
<clipPath id="clip0">
<rect x="0.889648" width="28" height="28" fill="white"/>
</clipPath>
<clipPath id="clip1">
<path d="M0.889648 0H28.8896V28H0.889648V0Z" fill="white"/>
</clipPath>
</defs>
</svg>
