<svg width="29" height="28" viewBox="0 0 29 28" fill="none" xmlns="http://www.w3.org/2000/svg">
<g clip-path="url(#clip0)">
<circle cx="14.8896" cy="14" r="14" fill="#FFA633"/>
<path d="M18.4986 3.9796C18.36 3.98046 18.2234 3.99571 18.1121 4.02439C17.416 4.20414 16.7506 4.79219 16.3457 5.58571C15.7435 6.76584 15.7222 8.25432 16.2844 9.86297C16.3755 10.1239 16.4204 10.2201 16.4492 10.2201C16.4592 10.2201 16.6285 10.1357 16.8264 10.0324C18.7488 9.02902 19.8876 7.47083 19.8859 5.84572C19.8859 5.16408 19.7021 4.60983 19.3657 4.2735C19.2221 4.12981 19.1605 4.09113 18.9949 4.03998C18.8587 3.9979 18.6767 3.97785 18.4986 3.9796ZM8.00547 5.5601C7.80646 5.56269 7.62339 5.57256 7.49452 5.59033C6.11678 5.7795 5.05838 6.56883 4.79315 7.6058C4.6804 8.0466 4.73015 8.68685 4.91766 9.21836C5.51199 10.9027 7.11592 12.1267 9.08869 12.4013C9.58631 12.4706 9.60714 12.4717 10.2462 12.46C10.636 12.453 10.9857 12.4288 11.2424 12.3912C12.3714 12.226 13.5488 11.858 14.7213 11.3034L15.0802 11.1331L14.9612 10.8492C14.8962 10.6929 14.7634 10.4055 14.6654 10.21C13.3746 7.63333 11.2804 5.94662 8.94772 5.60584C8.71193 5.57142 8.33709 5.55574 8.00547 5.5601ZM20.8217 11.4554C20.1334 11.4646 19.5031 12.0171 19.3465 12.7758C19.2922 13.0389 19.2827 14.0421 19.33 14.4983C19.5173 16.3047 20.2927 18.2267 21.3748 19.5668C21.6628 19.9235 22.1632 20.4286 22.3995 20.6015C22.7717 20.8739 23.2363 20.9429 23.7099 20.7965C24.0488 20.6918 24.3682 20.4244 24.5386 20.1024C24.6435 19.9041 24.8109 19.3866 24.8939 19.0036C25.0968 18.0669 25.0966 16.9389 24.893 15.9946C24.7396 15.2833 24.3553 14.3662 23.959 13.7657C23.3097 12.7819 22.4584 12.0558 21.4151 11.5955C21.236 11.5164 21.0898 11.473 20.96 11.4609C20.9137 11.4566 20.8676 11.4548 20.8217 11.4557L20.8217 11.4554ZM17.7532 11.4563C17.6589 11.4528 17.1223 11.6561 16.7368 11.8455C16.0865 12.1648 15.4434 12.6204 15.0885 13.0121C14.57 13.584 14.0709 14.5928 13.9338 15.348C13.8738 15.6784 13.8827 16.9855 13.9484 17.4551C14.1582 18.956 14.7053 20.3713 15.506 21.487C15.9828 22.1514 16.6861 22.8743 17.0966 23.1225C17.5072 23.3705 18.0619 23.5648 18.6176 23.6554C19.0061 23.7187 19.6175 23.6948 19.9893 23.6013C20.3972 23.4988 20.9285 23.3109 21.2768 23.1462C21.5529 23.0156 22.0072 22.7472 22.1715 22.6179C22.2416 22.5626 22.2422 22.5597 22.1861 22.5401C21.5546 22.3192 21.2483 22.1198 20.6422 21.5355C19.4281 20.3651 18.4791 18.7643 17.9033 16.9157C17.5679 15.8387 17.4286 14.9898 17.4043 13.8793C17.3805 12.7935 17.4386 12.3363 17.6781 11.7347C17.7347 11.5923 17.7745 11.4685 17.766 11.4599C17.7642 11.4582 17.7599 11.4564 17.7532 11.4564V11.4563ZM12.1838 16.7838C12.1174 16.7838 11.231 18.5034 10.8469 19.3771C10.604 19.9294 10.2783 20.739 10.0695 21.3111C9.89781 21.7813 9.88875 21.8215 9.90095 22.0153C9.91576 22.2518 10.0096 22.4332 10.1656 22.5281C10.3939 22.6669 11.7598 23.1727 12.6197 23.4374C13.4133 23.6817 14.7737 24.0145 15.0014 24.0198C15.0799 24.0216 15.0742 24.0111 14.8687 23.7799C13.5982 22.3474 12.7102 20.4704 12.3715 18.5027C12.2837 17.9923 12.2094 17.3044 12.2094 17.0045C12.2094 16.8832 12.1977 16.7838 12.1838 16.7838Z" fill="white"/>
</g>
<defs>
<clipPath id="clip0">
<rect x="0.889648" width="28" height="28" fill="white"/>
</clipPath>
</defs>
</svg>
