<svg width="29" height="28" viewBox="0 0 29 28" fill="none" xmlns="http://www.w3.org/2000/svg">
<g clip-path="url(#clip0)">
<g clip-path="url(#clip1)">
<path d="M14.8905 27.9998C22.6224 27.9998 28.8904 21.7318 28.8904 13.9999C28.8904 6.26796 22.6224 0 14.8905 0C7.15858 0 0.890625 6.26796 0.890625 13.9999C0.890625 21.7318 7.15858 27.9998 14.8905 27.9998Z" fill="#55ACEE"/>
<path d="M23.4651 10.0614C22.8652 10.3275 22.2198 10.5074 21.543 10.5878C22.234 10.1737 22.7643 9.51863 23.0147 8.73676C22.368 9.12033 21.6515 9.39859 20.8896 9.54858C20.2792 8.89847 19.4095 8.49219 18.4464 8.49219C16.5987 8.49219 15.1001 9.9908 15.1001 11.8386C15.1001 12.1008 15.1298 12.3561 15.1872 12.6012C12.4061 12.4617 9.94015 11.1295 8.28955 9.10436C8.00156 9.59849 7.83635 10.1737 7.83635 10.7869C7.83635 11.9476 8.42756 12.9723 9.32498 13.5723C8.77669 13.555 8.26035 13.4045 7.80939 13.1532C7.80915 13.1675 7.80914 13.1817 7.80914 13.1957C7.80914 14.8171 8.96312 16.1694 10.4937 16.4766C10.2132 16.5535 9.91694 16.5942 9.61222 16.5942C9.3961 16.5942 9.18672 16.5735 8.98258 16.5345C9.40833 17.8637 10.6439 18.8313 12.1086 18.8585C10.9631 19.7561 9.52038 20.2909 7.95214 20.2909C7.68262 20.2909 7.41559 20.2752 7.1543 20.244C8.63444 21.1938 10.3938 21.7476 12.2835 21.7476C18.4387 21.7476 21.8048 16.6486 21.8048 12.2261C21.8048 12.0811 21.8015 11.9366 21.795 11.7934C22.4494 11.3217 23.0166 10.7325 23.4651 10.0614Z" fill="#F1F2F2"/>
</g>
</g>
<defs>
<clipPath id="clip0">
<rect x="0.889648" width="28" height="28" fill="white"/>
</clipPath>
<clipPath id="clip1">
<path d="M0.889648 0H28.8896V28H0.889648V0Z" fill="white"/>
</clipPath>
</defs>
</svg>
