<svg width="29" height="28" viewBox="0 0 29 28" fill="none" xmlns="http://www.w3.org/2000/svg">
  <g id="VSCO active">
    <g clip-path="url(#clip0)">
      <g id="Group">
        <g id="Group_2">
          <path
            id="Vector"
            d="M4.60052 4.10052C7.24477 1.45622 10.7605 0 14.5 0C18.2395 0 21.7552 1.45622 24.3994 4.10052C27.0438 6.74477 28.5 10.2605 28.5 14C28.5 17.7395 27.0438 21.2552 24.3994 23.8995C21.7552 26.5438 18.2395 28 14.5 28C10.7605 28 7.24477 26.5438 4.60052 23.8995C1.95627 21.2552 0.5 17.7395 0.5 14C0.5 10.2605 1.95622 6.74477 4.60052 4.10052ZM14.5 27.1158C21.7321 27.1158 27.6158 21.2321 27.6158 14C27.6158 6.76791 21.7321 0.884187 14.5 0.884187C7.26791 0.884187 1.38419 6.76791 1.38419 14C1.38419 21.2321 7.26791 27.1158 14.5 27.1158Z"
            fill="black"/>
        </g>
      </g>
      <g id="Group_3">
        <g id="Group_4">
          <path
            id="Vector_2"
            d="M14.655 2.94833C20.6386 3.03069 25.5009 7.91937 25.5523 13.9033C25.5764 16.7063 24.5512 19.274 22.8468 21.237C22.6782 21.4313 22.3807 21.4432 22.1988 21.2613C22.0355 21.098 22.0242 20.8354 22.1758 20.6612C22.3439 20.4682 22.5049 20.2688 22.658 20.0633L20.4599 18.5734C19.8951 19.3076 19.1983 19.9352 18.4047 20.4196L19.6486 22.7653C20.0036 22.5561 20.3445 22.3255 20.6701 22.076C20.8472 21.9403 21.0967 21.9542 21.2544 22.1119L21.2544 22.1119C21.4434 22.3009 21.4229 22.6132 21.2108 22.7758C19.3488 24.203 17.022 25.0525 14.5001 25.0525C8.44694 25.0525 3.51265 20.1727 3.44807 14.1197C3.38201 7.91893 8.44984 2.86291 14.655 2.94833ZM4.44748 12.4644L7.08862 12.751C7.24546 11.8173 7.57495 10.9416 8.04313 10.1577L5.84535 8.66799C5.14234 9.80494 4.65661 11.0897 4.44748 12.4644ZM6.34218 7.93654L8.54035 9.42645C9.10511 8.69222 9.80193 8.06462 10.5955 7.5802L9.35164 5.23449C8.17739 5.92683 7.15347 6.84788 6.34218 7.93654ZM11.3761 7.1649C12.2011 6.7863 13.106 6.55295 14.0579 6.4975V3.84171C12.658 3.90192 11.3306 4.24623 10.132 4.8187L11.3761 7.1649ZM14.058 7.38343H14.058C12.1308 7.51091 10.4261 8.46499 9.29624 9.89392L11.4918 11.4001C12.1311 10.6614 13.0365 10.1596 14.058 10.0461V7.38343ZM14.9422 3.84171V6.4975C15.1481 6.50953 15.3517 6.53015 15.5529 6.55869C15.7714 6.5897 15.9342 6.77613 15.9342 6.99679C15.9342 7.26367 15.6991 7.47252 15.4349 7.43484C15.2725 7.41165 15.1082 7.39448 14.9422 7.38343V10.0462C15.9637 10.1596 16.8691 10.6615 17.5084 11.4002L19.704 9.89403C19.0994 9.12944 18.33 8.50108 17.4502 8.06238C17.2996 7.98729 17.2035 7.83466 17.2035 7.66639V7.66573C17.2035 7.33952 17.5463 7.1229 17.8384 7.26799C18.004 7.35029 18.1661 7.43845 18.3245 7.53251L19.8082 5.33041C18.38 4.45262 16.7195 3.91816 14.9422 3.84171ZM20.5408 5.8255L19.057 8.02754C19.8481 8.63266 20.5163 9.39068 21.0162 10.2577L23.3925 9.07317C22.683 7.79769 21.7074 6.68983 20.5408 5.8255ZM24.6685 13.9999C24.6685 12.5279 24.3537 11.1281 23.7885 9.86379L21.4118 11.0485C21.8003 11.9551 22.0158 12.9528 22.0158 13.9999C22.0158 14.1239 22.0127 14.2472 22.0067 14.3698L24.6467 14.6563C24.6606 14.4391 24.6685 14.2204 24.6685 13.9999ZM23.1548 19.3318C23.8578 18.1949 24.3436 16.9101 24.5527 15.5354L21.9116 15.2488C21.7547 16.1825 21.4252 17.0583 20.957 17.8421L23.1548 19.3318ZM21.1317 13.9999C21.1317 12.7673 20.7932 11.6124 20.2049 10.6225L18.01 12.1282C18.309 12.6865 18.479 13.3236 18.479 13.9999C18.479 14.6145 18.3389 15.1969 18.089 15.717L20.3475 17.1254C20.8476 16.1936 21.1317 15.1293 21.1317 13.9999ZM17.6241 20.8349C16.799 21.2135 15.8942 21.4469 14.9422 21.5023V24.1581C16.3421 24.0979 17.6696 23.7536 18.8682 23.1811L17.6241 20.8349ZM14.9422 20.6164C16.9714 20.4822 18.7538 19.4313 19.8784 17.8748L17.6192 16.466C16.9761 17.2777 16.0242 17.8335 14.9422 17.9537V20.6164H14.9422ZM17.5856 13.7576C17.4691 12.2357 16.234 11.0138 14.7111 10.9123C13.2513 10.8149 11.9874 11.7366 11.5602 13.0348C11.501 13.2148 11.3355 13.3382 11.146 13.3382H11.1307C10.8353 13.3382 10.6251 13.0497 10.7167 12.7687C10.7894 12.546 10.8811 12.3318 10.9902 12.1281L8.7953 10.6224C8.20697 11.6123 7.86851 12.7672 7.86851 13.9999C7.86851 15.1293 8.15261 16.1935 8.65268 17.1253L10.9112 15.7169C10.827 15.5416 10.7556 15.3592 10.6978 15.171C10.612 14.891 10.8209 14.6074 11.1137 14.6074H11.1281C11.3211 14.6074 11.4878 14.7357 11.5453 14.92C11.938 16.1785 13.114 17.0946 14.5 17.0946C16.2866 17.0946 17.7245 15.573 17.5856 13.7576ZM9.12179 17.8749C10.2463 19.4314 12.0288 20.4821 14.058 20.6164V17.9537C12.9759 17.8335 12.0241 17.2777 11.381 16.466L9.12179 17.8749ZM14.058 24.1581V21.5023C12.8285 21.4306 11.6775 21.062 10.6756 20.4674L9.1919 22.6695C10.6202 23.5472 12.2806 24.0817 14.058 24.1581ZM8.45941 22.1743L9.94314 19.9723C9.15203 19.3672 8.48386 18.6091 7.98396 17.7421L5.60768 18.9266C6.31714 20.2021 7.29276 21.31 8.45941 22.1743ZM7.58846 16.9513C7.19979 16.0447 6.98433 15.0471 6.98433 13.9999C6.98433 13.8759 6.9875 13.7526 6.99351 13.6301L4.35342 13.3436C4.33953 13.5607 4.33165 13.7794 4.33165 13.9999C4.33165 15.4719 4.64649 16.8717 5.21169 18.136L7.58846 16.9513Z"
            fill="black"/>
        </g>
      </g>
    </g>
  </g>
  <defs>
    <clipPath id="clip0">
      <rect width="28" height="28" transform="matrix(-1 0 0 1 28.5 0)" fill="white"/>
    </clipPath>
  </defs>
</svg>
