<svg width="380" height="101" viewBox="0 0 380 101" fill="none" xmlns="http://www.w3.org/2000/svg">
<path d="M0 0.75H380V100.75H0V0.75Z" fill="white"/>
<g filter="url(#filter0_d)">
<path d="M19.9874 33.8609C19.9874 34.2809 19.9034 34.6495 19.7354 34.9669C19.5674 35.2842 19.334 35.5502 19.0354 35.7649C18.746 35.9795 18.4054 36.1429 18.0134 36.2549C17.6307 36.3669 17.22 36.4229 16.7814 36.4229H11.9794V26.4829H17.2994C17.6447 26.4829 17.9574 26.5575 18.2374 26.7069C18.5174 26.8562 18.7554 27.0522 18.9514 27.2949C19.1474 27.5282 19.2967 27.7989 19.3994 28.1069C19.5114 28.4055 19.5674 28.7089 19.5674 29.0169C19.5674 29.5022 19.446 29.9595 19.2034 30.3889C18.9607 30.8089 18.606 31.1215 18.1394 31.3269C18.7087 31.4949 19.1567 31.7982 19.4834 32.2369C19.8194 32.6662 19.9874 33.2075 19.9874 33.8609ZM18.0414 33.4969C18.0414 33.3195 18.0087 33.1515 17.9434 32.9929C17.8874 32.8249 17.808 32.6802 17.7054 32.5589C17.6027 32.4375 17.4814 32.3442 17.3414 32.2789C17.2014 32.2042 17.0474 32.1669 16.8794 32.1669H13.9114V34.7849H16.7814C16.9587 34.7849 17.122 34.7522 17.2714 34.6869C17.43 34.6215 17.5654 34.5329 17.6774 34.4209C17.7894 34.2995 17.878 34.1595 17.9434 34.0009C18.0087 33.8422 18.0414 33.6742 18.0414 33.4969ZM13.9114 28.1349V30.6409H16.4874C16.814 30.6409 17.0894 30.5289 17.3134 30.3049C17.5467 30.0809 17.6634 29.7729 17.6634 29.3809C17.6634 28.9982 17.556 28.6949 17.3414 28.4709C17.136 28.2469 16.8794 28.1349 16.5714 28.1349H13.9114ZM21.299 26.2029H23.175V34.0709C23.175 34.3415 23.2403 34.5515 23.371 34.7009C23.5017 34.8502 23.6883 34.9249 23.931 34.9249C24.043 34.9249 24.1643 34.9062 24.295 34.8689C24.435 34.8315 24.5657 34.7849 24.687 34.7289L24.939 36.1569C24.687 36.2782 24.393 36.3715 24.057 36.4369C23.721 36.5022 23.4177 36.5349 23.147 36.5349C22.559 36.5349 22.1017 36.3809 21.775 36.0729C21.4577 35.7555 21.299 35.3075 21.299 34.7289V26.2029ZM27.7583 36.5629C27.4037 36.5629 27.0723 36.5069 26.7643 36.3949C26.4563 36.2735 26.1903 36.1102 25.9663 35.9049C25.7423 35.6902 25.565 35.4429 25.4343 35.1629C25.313 34.8829 25.2523 34.5749 25.2523 34.2389C25.2523 33.8935 25.327 33.5762 25.4763 33.2869C25.635 32.9882 25.8497 32.7362 26.1203 32.5309C26.4003 32.3255 26.7317 32.1669 27.1143 32.0549C27.497 31.9335 27.917 31.8729 28.3743 31.8729C28.701 31.8729 29.0183 31.9009 29.3263 31.9569C29.6437 32.0129 29.9237 32.0922 30.1663 32.1949V31.7749C30.1663 31.2895 30.0263 30.9162 29.7463 30.6549C29.4757 30.3935 29.0697 30.2629 28.5283 30.2629C28.1363 30.2629 27.7537 30.3329 27.3803 30.4729C27.007 30.6129 26.6243 30.8182 26.2323 31.0889L25.6583 29.8989C26.601 29.2735 27.6183 28.9609 28.7103 28.9609C29.765 28.9609 30.5817 29.2222 31.1603 29.7449C31.7483 30.2582 32.0423 31.0049 32.0423 31.9849V34.2669C32.0423 34.4629 32.075 34.6029 32.1403 34.6869C32.215 34.7709 32.3317 34.8175 32.4903 34.8269V36.4229C32.173 36.4882 31.8977 36.5209 31.6643 36.5209C31.3097 36.5209 31.0343 36.4415 30.8383 36.2829C30.6517 36.1242 30.535 35.9142 30.4883 35.6529L30.4463 35.2469C30.1197 35.6762 29.723 36.0029 29.2563 36.2269C28.7897 36.4509 28.2903 36.5629 27.7583 36.5629ZM28.2903 35.1909C28.6077 35.1909 28.9063 35.1349 29.1863 35.0229C29.4757 34.9109 29.6997 34.7615 29.8583 34.5749C30.0637 34.4162 30.1663 34.2389 30.1663 34.0429V33.2029C29.9423 33.1189 29.6997 33.0535 29.4383 33.0069C29.177 32.9509 28.925 32.9229 28.6823 32.9229C28.197 32.9229 27.8003 33.0349 27.4923 33.2589C27.1843 33.4735 27.0303 33.7489 27.0303 34.0849C27.0303 34.4022 27.1517 34.6682 27.3943 34.8829C27.637 35.0882 27.9357 35.1909 28.2903 35.1909ZM33.3334 32.7549C33.3334 32.2415 33.4221 31.7562 33.5994 31.2989C33.7767 30.8415 34.0334 30.4402 34.3694 30.0949C34.7054 29.7495 35.1114 29.4742 35.5874 29.2689C36.0634 29.0635 36.6001 28.9609 37.1974 28.9609C38.0001 28.9609 38.6814 29.1335 39.2414 29.4789C39.8107 29.8242 40.2354 30.2769 40.5154 30.8369L38.6814 31.3969C38.5227 31.1262 38.3127 30.9209 38.0514 30.7809C37.7901 30.6315 37.5007 30.5569 37.1834 30.5569C36.9127 30.5569 36.6607 30.6129 36.4274 30.7249C36.1941 30.8275 35.9887 30.9769 35.8114 31.1729C35.6434 31.3595 35.5081 31.5882 35.4054 31.8589C35.3121 32.1295 35.2654 32.4282 35.2654 32.7549C35.2654 33.0815 35.3167 33.3802 35.4194 33.6509C35.5221 33.9215 35.6574 34.1549 35.8254 34.3509C36.0027 34.5469 36.2081 34.7009 36.4414 34.8129C36.6747 34.9155 36.9221 34.9669 37.1834 34.9669C37.5194 34.9669 37.8274 34.8829 38.1074 34.7149C38.3967 34.5469 38.5974 34.3415 38.7094 34.0989L40.5434 34.6589C40.2914 35.2189 39.8761 35.6762 39.2974 36.0309C38.7187 36.3855 38.0234 36.5629 37.2114 36.5629C36.6141 36.5629 36.0774 36.4602 35.6014 36.2549C35.1254 36.0495 34.7194 35.7742 34.3834 35.4289C34.0474 35.0742 33.7861 34.6682 33.5994 34.2109C33.4221 33.7442 33.3334 33.2589 33.3334 32.7549ZM46.7098 36.4229L44.5818 33.2449L43.5738 34.2389V36.4229H41.6978V26.2029H43.5738V32.4049L46.5138 29.1009H48.5158L45.7858 32.2089L48.7118 36.4229H46.7098ZM56.0012 26.5109H57.7792L58.8992 29.8009L60.0192 26.5109H61.8112L60.1172 31.0329L61.3772 34.2109L64.1912 26.4829H66.2912L62.2452 36.4229H60.6212L58.8992 32.2509L57.1772 36.4229H55.5532L51.5352 26.4829H53.6072L56.4352 34.2109L57.6672 31.0329L56.0012 26.5109ZM69.6131 36.5629C69.0158 36.5629 68.4791 36.4602 68.0031 36.2549C67.5271 36.0495 67.1211 35.7742 66.7851 35.4289C66.4584 35.0742 66.2064 34.6682 66.0291 34.2109C65.8518 33.7535 65.7631 33.2729 65.7631 32.7689C65.7631 32.2555 65.8518 31.7702 66.0291 31.3129C66.2064 30.8555 66.4584 30.4542 66.7851 30.1089C67.1211 29.7542 67.5271 29.4742 68.0031 29.2689C68.4791 29.0635 69.0158 28.9609 69.6131 28.9609C70.2104 28.9609 70.7424 29.0635 71.2091 29.2689C71.6851 29.4742 72.0864 29.7542 72.4131 30.1089C72.7491 30.4542 73.0058 30.8555 73.1831 31.3129C73.3604 31.7702 73.4491 32.2555 73.4491 32.7689C73.4491 33.2729 73.3604 33.7535 73.1831 34.2109C73.0058 34.6682 72.7538 35.0742 72.4271 35.4289C72.1004 35.7742 71.6991 36.0495 71.2231 36.2549C70.7471 36.4602 70.2104 36.5629 69.6131 36.5629ZM67.6951 32.7689C67.6951 33.0955 67.7418 33.3942 67.8351 33.6649C67.9378 33.9262 68.0731 34.1549 68.2411 34.3509C68.4184 34.5469 68.6238 34.7009 68.8571 34.8129C69.0904 34.9155 69.3424 34.9669 69.6131 34.9669C69.8838 34.9669 70.1358 34.9155 70.3691 34.8129C70.6024 34.7009 70.8031 34.5469 70.9711 34.3509C71.1484 34.1549 71.2838 33.9215 71.3771 33.6509C71.4798 33.3802 71.5311 33.0815 71.5311 32.7549C71.5311 32.4375 71.4798 32.1435 71.3771 31.8729C71.2838 31.6022 71.1484 31.3689 70.9711 31.1729C70.8031 30.9769 70.6024 30.8275 70.3691 30.7249C70.1358 30.6129 69.8838 30.5569 69.6131 30.5569C69.3424 30.5569 69.0904 30.6129 68.8571 30.7249C68.6238 30.8369 68.4184 30.9909 68.2411 31.1869C68.0731 31.3829 67.9378 31.6162 67.8351 31.8869C67.7418 32.1575 67.6951 32.4515 67.6951 32.7689ZM86.1113 36.4229H84.2353V32.3069C84.2353 31.7189 84.1327 31.2895 83.9273 31.0189C83.7313 30.7482 83.456 30.6129 83.1013 30.6129C82.728 30.6129 82.378 30.7575 82.0513 31.0469C81.7247 31.3269 81.4913 31.6955 81.3513 32.1529V36.4229H79.4753V32.3069C79.4753 31.7189 79.3727 31.2895 79.1673 31.0189C78.9713 30.7482 78.696 30.6129 78.3413 30.6129C77.9773 30.6129 77.6273 30.7529 77.2913 31.0329C76.9647 31.3129 76.7313 31.6815 76.5913 32.1389V36.4229H74.7153V29.0869H76.4093V30.4449C76.68 29.9689 77.0487 29.6049 77.5153 29.3529C77.9913 29.0915 78.5327 28.9609 79.1393 28.9609C79.7553 28.9609 80.2313 29.1102 80.5673 29.4089C80.9033 29.7075 81.118 30.0762 81.2113 30.5149C81.51 30.0109 81.888 29.6282 82.3453 29.3669C82.8027 29.0962 83.3253 28.9609 83.9133 28.9609C84.3613 28.9609 84.73 29.0449 85.0193 29.2129C85.3087 29.3809 85.5327 29.6002 85.6913 29.8709C85.85 30.1415 85.9573 30.4495 86.0133 30.7949C86.0787 31.1402 86.1113 31.4902 86.1113 31.8449V36.4229ZM91.1466 36.5629C90.5586 36.5629 90.0266 36.4649 89.5506 36.2689C89.0746 36.0635 88.6686 35.7882 88.3326 35.4429C87.9966 35.0975 87.7353 34.6962 87.5486 34.2389C87.3713 33.7815 87.2826 33.3009 87.2826 32.7969C87.2826 32.2742 87.3713 31.7842 87.5486 31.3269C87.726 30.8602 87.9826 30.4542 88.3186 30.1089C88.6546 29.7542 89.0606 29.4742 89.5366 29.2689C90.022 29.0635 90.5633 28.9609 91.1606 28.9609C91.758 28.9609 92.29 29.0635 92.7566 29.2689C93.2326 29.4742 93.634 29.7495 93.9606 30.0949C94.2966 30.4402 94.5486 30.8415 94.7166 31.2989C94.894 31.7562 94.9826 32.2322 94.9826 32.7269C94.9826 32.8482 94.978 32.9649 94.9686 33.0769C94.9686 33.1889 94.9593 33.2822 94.9406 33.3569H89.2706C89.2986 33.6462 89.3686 33.9029 89.4806 34.1269C89.5926 34.3509 89.7373 34.5422 89.9146 34.7009C90.092 34.8595 90.2926 34.9809 90.5166 35.0649C90.7406 35.1489 90.974 35.1909 91.2166 35.1909C91.59 35.1909 91.94 35.1022 92.2666 34.9249C92.6026 34.7382 92.8313 34.4955 92.9526 34.1969L94.5626 34.6449C94.292 35.2049 93.858 35.6669 93.2606 36.0309C92.6726 36.3855 91.968 36.5629 91.1466 36.5629ZM93.0506 32.1389C93.004 31.5882 92.7986 31.1495 92.4346 30.8229C92.08 30.4869 91.646 30.3189 91.1326 30.3189C90.8806 30.3189 90.6426 30.3655 90.4186 30.4589C90.204 30.5429 90.0126 30.6642 89.8446 30.8229C89.6766 30.9815 89.5366 31.1729 89.4246 31.3969C89.322 31.6209 89.2613 31.8682 89.2426 32.1389H93.0506ZM102.943 36.4229H101.067V32.3069C101.067 31.7189 100.965 31.2895 100.759 31.0189C100.554 30.7482 100.269 30.6129 99.9055 30.6129C99.7188 30.6129 99.5275 30.6502 99.3315 30.7249C99.1355 30.7995 98.9488 30.9069 98.7715 31.0469C98.6035 31.1775 98.4495 31.3362 98.3095 31.5229C98.1695 31.7095 98.0668 31.9149 98.0015 32.1389V36.4229H96.1255V29.0869H97.8195V30.4449C98.0902 29.9782 98.4822 29.6142 98.9955 29.3529C99.5088 29.0915 100.087 28.9609 100.731 28.9609C101.189 28.9609 101.562 29.0449 101.851 29.2129C102.141 29.3809 102.365 29.6002 102.523 29.8709C102.682 30.1415 102.789 30.4495 102.845 30.7949C102.911 31.1402 102.943 31.4902 102.943 31.8449V36.4229ZM104.55 29.7169L104.858 28.0089H104.298V26.1189H106.188V28.0369L105.684 29.7169H104.55ZM110.355 36.5629C109.739 36.5629 109.137 36.4649 108.549 36.2689C107.961 36.0729 107.457 35.7929 107.037 35.4289L107.737 34.2529C108.185 34.5702 108.619 34.8129 109.039 34.9809C109.468 35.1395 109.893 35.2189 110.313 35.2189C110.686 35.2189 110.98 35.1489 111.195 35.0089C111.409 34.8689 111.517 34.6682 111.517 34.4069C111.517 34.1455 111.391 33.9542 111.139 33.8329C110.887 33.7115 110.476 33.5715 109.907 33.4129C109.431 33.2822 109.025 33.1562 108.689 33.0349C108.353 32.9135 108.082 32.7782 107.877 32.6289C107.671 32.4702 107.522 32.2929 107.429 32.0969C107.335 31.8915 107.289 31.6489 107.289 31.3689C107.289 30.9955 107.359 30.6595 107.499 30.3609C107.648 30.0622 107.853 29.8102 108.115 29.6049C108.376 29.3902 108.679 29.2269 109.025 29.1149C109.379 29.0029 109.762 28.9469 110.173 28.9469C110.723 28.9469 111.237 29.0262 111.713 29.1849C112.198 29.3435 112.641 29.6002 113.043 29.9549L112.287 31.0889C111.913 30.8089 111.549 30.6035 111.195 30.4729C110.849 30.3422 110.504 30.2769 110.159 30.2769C109.841 30.2769 109.575 30.3422 109.361 30.4729C109.146 30.6035 109.039 30.8135 109.039 31.1029C109.039 31.2335 109.062 31.3409 109.109 31.4249C109.165 31.5089 109.249 31.5835 109.361 31.6489C109.473 31.7142 109.617 31.7795 109.795 31.8449C109.981 31.9009 110.21 31.9615 110.481 32.0269C110.985 32.1575 111.414 32.2882 111.769 32.4189C112.133 32.5495 112.427 32.6989 112.651 32.8669C112.884 33.0349 113.052 33.2309 113.155 33.4549C113.267 33.6695 113.323 33.9309 113.323 34.2389C113.323 34.9575 113.057 35.5269 112.525 35.9469C111.993 36.3575 111.269 36.5629 110.355 36.5629ZM126.095 33.8609C126.095 34.2809 126.011 34.6495 125.843 34.9669C125.675 35.2842 125.441 35.5502 125.143 35.7649C124.853 35.9795 124.513 36.1429 124.121 36.2549C123.738 36.3669 123.327 36.4229 122.889 36.4229H118.087V26.4829H123.407C123.752 26.4829 124.065 26.5575 124.345 26.7069C124.625 26.8562 124.863 27.0522 125.059 27.2949C125.255 27.5282 125.404 27.7989 125.507 28.1069C125.619 28.4055 125.675 28.7089 125.675 29.0169C125.675 29.5022 125.553 29.9595 125.311 30.3889C125.068 30.8089 124.713 31.1215 124.247 31.3269C124.816 31.4949 125.264 31.7982 125.591 32.2369C125.927 32.6662 126.095 33.2075 126.095 33.8609ZM124.149 33.4969C124.149 33.3195 124.116 33.1515 124.051 32.9929C123.995 32.8249 123.915 32.6802 123.813 32.5589C123.71 32.4375 123.589 32.3442 123.449 32.2789C123.309 32.2042 123.155 32.1669 122.987 32.1669H120.019V34.7849H122.889C123.066 34.7849 123.229 34.7522 123.379 34.6869C123.537 34.6215 123.673 34.5329 123.785 34.4209C123.897 34.2995 123.985 34.1595 124.051 34.0009C124.116 33.8422 124.149 33.6742 124.149 33.4969ZM120.019 28.1349V30.6409H122.595C122.921 30.6409 123.197 30.5289 123.421 30.3049C123.654 30.0809 123.771 29.7729 123.771 29.3809C123.771 28.9982 123.663 28.6949 123.449 28.4709C123.243 28.2469 122.987 28.1349 122.679 28.1349H120.019ZM127.406 26.2029H129.282V34.0709C129.282 34.3415 129.348 34.5515 129.478 34.7009C129.609 34.8502 129.796 34.9249 130.038 34.9249C130.15 34.9249 130.272 34.9062 130.402 34.8689C130.542 34.8315 130.673 34.7849 130.794 34.7289L131.046 36.1569C130.794 36.2782 130.5 36.3715 130.164 36.4369C129.828 36.5022 129.525 36.5349 129.254 36.5349C128.666 36.5349 128.209 36.3809 127.882 36.0729C127.565 35.7555 127.406 35.3075 127.406 34.7289V26.2029ZM134.104 36.5629C133.348 36.5629 132.774 36.3202 132.382 35.8349C131.99 35.3495 131.794 34.6309 131.794 33.6789V29.0869H133.67V33.2729C133.67 34.4022 134.076 34.9669 134.888 34.9669C135.252 34.9669 135.602 34.8595 135.938 34.6449C136.283 34.4209 136.563 34.0849 136.778 33.6369V29.0869H138.654V34.2669C138.654 34.4629 138.686 34.6029 138.752 34.6869C138.826 34.7709 138.943 34.8175 139.102 34.8269V36.4229C138.915 36.4602 138.756 36.4835 138.626 36.4929C138.504 36.5022 138.392 36.5069 138.29 36.5069C137.954 36.5069 137.678 36.4322 137.464 36.2829C137.258 36.1242 137.137 35.9095 137.1 35.6389L137.058 35.0509C136.731 35.5549 136.311 35.9329 135.798 36.1849C135.284 36.4369 134.72 36.5629 134.104 36.5629ZM143.92 36.5629C143.332 36.5629 142.8 36.4649 142.324 36.2689C141.848 36.0635 141.442 35.7882 141.106 35.4429C140.77 35.0975 140.509 34.6962 140.322 34.2389C140.145 33.7815 140.056 33.3009 140.056 32.7969C140.056 32.2742 140.145 31.7842 140.322 31.3269C140.499 30.8602 140.756 30.4542 141.092 30.1089C141.428 29.7542 141.834 29.4742 142.31 29.2689C142.795 29.0635 143.337 28.9609 143.934 28.9609C144.531 28.9609 145.063 29.0635 145.53 29.2689C146.006 29.4742 146.407 29.7495 146.734 30.0949C147.07 30.4402 147.322 30.8415 147.49 31.2989C147.667 31.7562 147.756 32.2322 147.756 32.7269C147.756 32.8482 147.751 32.9649 147.742 33.0769C147.742 33.1889 147.733 33.2822 147.714 33.3569H142.044C142.072 33.6462 142.142 33.9029 142.254 34.1269C142.366 34.3509 142.511 34.5422 142.688 34.7009C142.865 34.8595 143.066 34.9809 143.29 35.0649C143.514 35.1489 143.747 35.1909 143.99 35.1909C144.363 35.1909 144.713 35.1022 145.04 34.9249C145.376 34.7382 145.605 34.4955 145.726 34.1969L147.336 34.6449C147.065 35.2049 146.631 35.6669 146.034 36.0309C145.446 36.3855 144.741 36.5629 143.92 36.5629ZM145.824 32.1389C145.777 31.5882 145.572 31.1495 145.208 30.8229C144.853 30.4869 144.419 30.3189 143.906 30.3189C143.654 30.3189 143.416 30.3655 143.192 30.4589C142.977 30.5429 142.786 30.6642 142.618 30.8229C142.45 30.9815 142.31 31.1729 142.198 31.3969C142.095 31.6209 142.035 31.8682 142.016 32.1389H145.824ZM153.295 36.5629C152.716 36.5629 152.212 36.4369 151.783 36.1849C151.354 35.9235 151.018 35.5735 150.775 35.1349V39.4049H148.899V29.0869H150.537V30.3469C150.808 29.9175 151.158 29.5815 151.587 29.3389C152.016 29.0869 152.511 28.9609 153.071 28.9609C153.566 28.9609 154.023 29.0635 154.443 29.2689C154.863 29.4649 155.222 29.7355 155.521 30.0809C155.829 30.4169 156.067 30.8182 156.235 31.2849C156.412 31.7422 156.501 32.2275 156.501 32.7409C156.501 33.2729 156.422 33.7722 156.263 34.2389C156.104 34.7055 155.88 35.1115 155.591 35.4569C155.311 35.8022 154.975 36.0729 154.583 36.2689C154.191 36.4649 153.762 36.5629 153.295 36.5629ZM152.665 34.9669C152.945 34.9669 153.202 34.9062 153.435 34.7849C153.678 34.6635 153.883 34.5002 154.051 34.2949C154.219 34.0895 154.35 33.8515 154.443 33.5809C154.536 33.3102 154.583 33.0302 154.583 32.7409C154.583 32.4329 154.532 32.1482 154.429 31.8869C154.326 31.6162 154.182 31.3829 153.995 31.1869C153.818 30.9909 153.603 30.8369 153.351 30.7249C153.108 30.6129 152.842 30.5569 152.553 30.5569C152.376 30.5569 152.194 30.5895 152.007 30.6549C151.82 30.7109 151.648 30.7949 151.489 30.9069C151.33 31.0189 151.186 31.1495 151.055 31.2989C150.934 31.4482 150.84 31.6115 150.775 31.7889V33.5109C150.943 33.9309 151.2 34.2809 151.545 34.5609C151.89 34.8315 152.264 34.9669 152.665 34.9669ZM162.14 30.7109C161.571 30.7202 161.062 30.8322 160.614 31.0469C160.166 31.2522 159.844 31.5649 159.648 31.9849V36.4229H157.772V29.0869H159.494V30.6549C159.625 30.4029 159.779 30.1789 159.956 29.9829C160.133 29.7775 160.325 29.6002 160.53 29.4509C160.735 29.3015 160.941 29.1895 161.146 29.1149C161.361 29.0309 161.566 28.9889 161.762 28.9889C161.865 28.9889 161.939 28.9889 161.986 28.9889C162.042 28.9889 162.093 28.9935 162.14 29.0029V30.7109ZM163.186 36.4229V29.0869H165.062V36.4229H163.186ZM163.186 28.0649V26.2029H165.062V28.0649H163.186ZM173.572 36.4229H171.696V32.3069C171.696 31.7189 171.594 31.2895 171.388 31.0189C171.183 30.7482 170.898 30.6129 170.534 30.6129C170.348 30.6129 170.156 30.6502 169.96 30.7249C169.764 30.7995 169.578 30.9069 169.4 31.0469C169.232 31.1775 169.078 31.3362 168.938 31.5229C168.798 31.7095 168.696 31.9149 168.63 32.1389V36.4229H166.754V29.0869H168.448V30.4449C168.719 29.9782 169.111 29.6142 169.624 29.3529C170.138 29.0915 170.716 28.9609 171.36 28.9609C171.818 28.9609 172.191 29.0449 172.48 29.2129C172.77 29.3809 172.994 29.6002 173.152 29.8709C173.311 30.1415 173.418 30.4495 173.474 30.7949C173.54 31.1402 173.572 31.4902 173.572 31.8449V36.4229ZM179.531 36.0449C179.279 36.1569 178.971 36.2689 178.607 36.3809C178.243 36.4929 177.861 36.5489 177.459 36.5489C177.198 36.5489 176.951 36.5162 176.717 36.4509C176.493 36.3855 176.293 36.2829 176.115 36.1429C175.947 35.9935 175.812 35.8069 175.709 35.5829C175.607 35.3495 175.555 35.0695 175.555 34.7429V30.5289H174.589V29.0869H175.555V26.7069H177.431V29.0869H178.971V30.5289H177.431V34.1129C177.431 34.3742 177.497 34.5609 177.627 34.6729C177.767 34.7755 177.935 34.8269 178.131 34.8269C178.327 34.8269 178.519 34.7942 178.705 34.7289C178.892 34.6635 179.041 34.6075 179.153 34.5609L179.531 36.0449Z" fill="#5C5C5C"/>
</g>
<g filter="url(#filter1_d)">
<path d="M240 51.75C240 47.3317 243.582 43.75 248 43.75H362C366.418 43.75 370 47.3317 370 51.75V57.75C370 62.1683 366.418 65.75 362 65.75H248C243.582 65.75 240 62.1683 240 57.75V51.75Z" fill="#246B6D"/>
<path d="M350.713 47.75L349 49.395L354.563 54.75L349 60.105L350.713 61.75L358 54.75L350.713 47.75Z" fill="white"/>
<path d="M270.293 51.6465V57.2832H271.957C272.808 57.2832 273.402 56.8633 273.738 56.0234C273.921 55.5625 274.013 55.0137 274.013 54.377C274.013 53.498 273.875 52.8242 273.597 52.3555C273.324 51.8828 272.777 51.6465 271.957 51.6465H270.293ZM272.261 50.1465C272.796 50.1543 273.242 50.2168 273.597 50.334C274.203 50.5332 274.693 50.8984 275.068 51.4297C275.369 51.8594 275.574 52.3242 275.683 52.8242C275.793 53.3242 275.847 53.8008 275.847 54.2539C275.847 55.4023 275.617 56.375 275.156 57.1719C274.531 58.2461 273.566 58.7832 272.261 58.7832H268.541V50.1465H272.261ZM278.794 51.6348H277.101V50.0938H278.794V51.6348ZM277.101 52.3965H278.794V58.7832H277.101V52.3965ZM283.886 52.2441C283.918 52.2441 283.943 52.2461 283.962 52.25C283.986 52.25 284.035 52.252 284.109 52.2559V53.9668C284.003 53.9551 283.91 53.9473 283.828 53.9434C283.746 53.9395 283.679 53.9375 283.628 53.9375C282.957 53.9375 282.505 54.1562 282.275 54.5938C282.146 54.8398 282.082 55.2188 282.082 55.7305V58.7832H280.4V52.3965H281.994V53.5098C282.252 53.084 282.476 52.793 282.668 52.6367C282.98 52.375 283.386 52.2441 283.886 52.2441ZM287.613 53.6035C287.226 53.6035 286.925 53.7246 286.711 53.9668C286.5 54.209 286.367 54.5371 286.312 54.9512H288.908C288.88 54.5098 288.746 54.1758 288.503 53.9492C288.265 53.7188 287.968 53.6035 287.613 53.6035ZM287.613 52.2266C288.144 52.2266 288.623 52.3262 289.048 52.5254C289.474 52.7246 289.826 53.0391 290.103 53.4688C290.353 53.8477 290.515 54.2871 290.589 54.7871C290.632 55.0801 290.65 55.502 290.642 56.0527H286.271C286.294 56.6934 286.496 57.1426 286.875 57.4004C287.105 57.5605 287.382 57.6406 287.707 57.6406C288.05 57.6406 288.33 57.543 288.544 57.3477C288.662 57.2422 288.765 57.0957 288.855 56.9082H290.56C290.517 57.2871 290.32 57.6719 289.968 58.0625C289.421 58.6836 288.656 58.9941 287.671 58.9941C286.859 58.9941 286.142 58.7324 285.521 58.209C284.9 57.6855 284.589 56.834 284.589 55.6543C284.589 54.5488 284.869 53.7012 285.427 53.1113C285.99 52.5215 286.718 52.2266 287.613 52.2266ZM295.587 54.6875C295.556 54.4492 295.476 54.2344 295.347 54.043C295.16 53.7852 294.869 53.6562 294.474 53.6562C293.912 53.6562 293.527 53.9355 293.32 54.4941C293.211 54.791 293.156 55.1855 293.156 55.6777C293.156 56.1465 293.211 56.5234 293.32 56.8086C293.519 57.3398 293.894 57.6055 294.445 57.6055C294.836 57.6055 295.113 57.5 295.277 57.2891C295.441 57.0781 295.541 56.8047 295.576 56.4688H297.281C297.242 56.9766 297.058 57.457 296.73 57.9102C296.207 58.6406 295.431 59.0059 294.404 59.0059C293.377 59.0059 292.621 58.7012 292.136 58.0918C291.652 57.4824 291.41 56.6914 291.41 55.7188C291.41 54.6211 291.677 53.7676 292.212 53.1582C292.748 52.5488 293.486 52.2441 294.427 52.2441C295.228 52.2441 295.882 52.4238 296.39 52.7832C296.902 53.1426 297.205 53.7773 297.298 54.6875H295.587ZM297.796 53.6445V52.4551H298.687V50.6738H300.339V52.4551H301.377V53.6445H300.339V57.0195C300.339 57.2812 300.373 57.4453 300.439 57.5117C300.505 57.5742 300.709 57.6055 301.048 57.6055C301.099 57.6055 301.152 57.6055 301.207 57.6055C301.265 57.6016 301.322 57.5977 301.377 57.5938V58.8418L300.586 58.8711C299.796 58.8984 299.257 58.7617 298.968 58.4609C298.781 58.2695 298.687 57.9746 298.687 57.5762V53.6445H297.796ZM304.166 51.6348H302.472V50.0938H304.166V51.6348ZM302.472 52.3965H304.166V58.7832H302.472V52.3965ZM308.654 57.6055C309.142 57.6055 309.517 57.4316 309.779 57.084C310.041 56.7363 310.171 56.2422 310.171 55.6016C310.171 54.9609 310.041 54.4688 309.779 54.125C309.517 53.7773 309.142 53.6035 308.654 53.6035C308.166 53.6035 307.789 53.7773 307.523 54.125C307.261 54.4688 307.13 54.9609 307.13 55.6016C307.13 56.2422 307.261 56.7363 307.523 57.084C307.789 57.4316 308.166 57.6055 308.654 57.6055ZM311.923 55.6016C311.923 56.5391 311.654 57.3418 311.115 58.0098C310.576 58.6738 309.757 59.0059 308.66 59.0059C307.562 59.0059 306.744 58.6738 306.205 58.0098C305.666 57.3418 305.396 56.5391 305.396 55.6016C305.396 54.6797 305.666 53.8809 306.205 53.2051C306.744 52.5293 307.562 52.1914 308.66 52.1914C309.757 52.1914 310.576 52.5293 311.115 53.2051C311.654 53.8809 311.923 54.6797 311.923 55.6016ZM316.664 52.2441C317.324 52.2441 317.863 52.418 318.281 52.7656C318.703 53.1094 318.914 53.6816 318.914 54.4824V58.7832H317.203V54.8984C317.203 54.5625 317.158 54.3047 317.068 54.125C316.904 53.7969 316.591 53.6328 316.13 53.6328C315.564 53.6328 315.175 53.873 314.964 54.3535C314.855 54.6074 314.8 54.9316 314.8 55.3262V58.7832H313.136V52.4082H314.748V53.3398C314.962 53.0117 315.166 52.7754 315.357 52.6309C315.701 52.373 316.136 52.2441 316.664 52.2441ZM321.761 56.7441C321.796 57.041 321.873 57.252 321.99 57.377C322.197 57.5996 322.58 57.7109 323.138 57.7109C323.466 57.7109 323.726 57.6621 323.918 57.5645C324.113 57.4668 324.211 57.3203 324.211 57.125C324.211 56.9375 324.132 56.7949 323.976 56.6973C323.82 56.5996 323.24 56.4316 322.236 56.1934C321.513 56.0137 321.003 55.7891 320.707 55.5195C320.41 55.2539 320.261 54.8711 320.261 54.3711C320.261 53.7812 320.492 53.2754 320.953 52.8535C321.418 52.4277 322.07 52.2148 322.91 52.2148C323.707 52.2148 324.355 52.375 324.855 52.6953C325.359 53.0117 325.648 53.5605 325.722 54.3418H324.052C324.029 54.127 323.968 53.957 323.871 53.832C323.687 53.6055 323.375 53.4922 322.933 53.4922C322.57 53.4922 322.31 53.5488 322.154 53.6621C322.002 53.7754 321.925 53.9082 321.925 54.0605C321.925 54.252 322.007 54.3906 322.171 54.4766C322.336 54.5664 322.916 54.7207 323.912 54.9395C324.576 55.0957 325.074 55.332 325.406 55.6484C325.734 55.9688 325.898 56.3691 325.898 56.8496C325.898 57.4824 325.662 58 325.189 58.4023C324.72 58.8008 323.994 59 323.009 59C322.005 59 321.263 58.7891 320.783 58.3672C320.306 57.9414 320.068 57.4004 320.068 56.7441H321.761Z" fill="white"/>
</g>
<g filter="url(#filter2_d)">
<path d="M240 80.0771C240 75.6589 243.582 72.0771 248 72.0771H362C366.418 72.0771 370 75.6589 370 80.0771V86.0771C370 90.4954 366.418 94.0771 362 94.0771H248C243.582 94.0771 240 90.4954 240 86.0771V80.0771Z" fill="white"/>
<path d="M286.517 82.8623C286.517 81.3545 286.921 80.1924 287.73 79.376C288.433 78.665 289.328 78.3096 290.414 78.3096C291.867 78.3096 292.929 78.7861 293.601 79.7393C293.972 80.2744 294.171 80.8115 294.199 81.3506H292.394C292.277 80.9365 292.127 80.624 291.943 80.4131C291.615 80.0381 291.128 79.8506 290.484 79.8506C289.828 79.8506 289.31 80.1162 288.931 80.6475C288.552 81.1748 288.363 81.9229 288.363 82.8916C288.363 83.8604 288.562 84.5869 288.961 85.0713C289.363 85.5518 289.873 85.792 290.49 85.792C291.123 85.792 291.605 85.585 291.937 85.1709C292.121 84.9482 292.273 84.6143 292.394 84.1689H294.181C294.025 85.1104 293.625 85.876 292.98 86.4658C292.339 87.0557 291.517 87.3506 290.513 87.3506C289.271 87.3506 288.294 86.9521 287.584 86.1553C286.873 85.3545 286.517 84.2568 286.517 82.8623ZM298.951 84.0049C298.845 84.0713 298.738 84.126 298.628 84.1689C298.523 84.208 298.377 84.2451 298.189 84.2803L297.814 84.3506C297.462 84.4131 297.211 84.4893 297.058 84.5791C296.8 84.7314 296.671 84.9678 296.671 85.2881C296.671 85.5732 296.75 85.7803 296.906 85.9092C297.066 86.0342 297.259 86.0967 297.486 86.0967C297.845 86.0967 298.175 85.9912 298.476 85.7803C298.781 85.5693 298.939 85.1846 298.951 84.626V84.0049ZM297.937 83.2256C298.246 83.1865 298.466 83.1377 298.599 83.0791C298.837 82.9775 298.957 82.8193 298.957 82.6045C298.957 82.3428 298.865 82.1631 298.681 82.0654C298.502 81.9639 298.236 81.9131 297.884 81.9131C297.49 81.9131 297.211 82.0107 297.046 82.2061C296.929 82.3506 296.851 82.5459 296.812 82.792H295.201C295.236 82.2334 295.392 81.7744 295.669 81.415C296.111 80.8525 296.869 80.5713 297.943 80.5713C298.642 80.5713 299.263 80.71 299.806 80.9873C300.349 81.2646 300.621 81.7881 300.621 82.5576V85.4873C300.621 85.6904 300.625 85.9365 300.632 86.2256C300.644 86.4443 300.677 86.5928 300.732 86.6709C300.787 86.749 300.869 86.8135 300.978 86.8643V87.1104H299.162C299.111 86.9814 299.076 86.8604 299.056 86.7471C299.037 86.6338 299.021 86.5049 299.009 86.3604C298.779 86.6104 298.513 86.8232 298.212 86.999C297.853 87.2061 297.447 87.3096 296.994 87.3096C296.416 87.3096 295.937 87.1455 295.558 86.8174C295.183 86.4854 294.996 86.0166 294.996 85.4111C294.996 84.626 295.298 84.0576 295.904 83.7061C296.236 83.5146 296.724 83.3779 297.369 83.2959L297.937 83.2256ZM303.814 87.1104H302.144V78.4736H303.814V87.1104ZM307.154 87.1104H305.484V78.4736H307.154V87.1104Z" fill="#246B6D"/>
<path d="M359.328 78.6313L357.647 76.9526C357.529 76.8336 357.388 76.7391 357.233 76.6747C357.078 76.6103 356.911 76.5771 356.743 76.5771C356.401 76.5771 356.079 76.7113 355.838 76.9526L354.03 78.7606C353.911 78.8792 353.816 79.02 353.752 79.1752C353.687 79.3303 353.654 79.4967 353.654 79.6646C353.654 80.007 353.788 80.3288 354.03 80.5702L355.352 81.8923C355.042 82.5744 354.612 83.195 354.082 83.724C353.553 84.2556 352.932 84.6874 352.25 84.9988L350.928 83.6767C350.81 83.5576 350.669 83.4632 350.514 83.3987C350.359 83.3343 350.192 83.3011 350.024 83.3012C349.682 83.3012 349.36 83.4353 349.119 83.6767L347.309 85.4831C347.19 85.6018 347.095 85.743 347.031 85.8984C346.966 86.0538 346.933 86.2204 346.934 86.3887C346.934 86.731 347.068 87.0529 347.309 87.2943L348.986 88.9713C349.371 89.3579 349.903 89.5771 350.449 89.5771C350.564 89.5771 350.674 89.5677 350.783 89.5488C352.91 89.1985 355.019 88.0673 356.721 86.3666C358.422 84.6674 359.552 82.5597 359.907 80.4267C360.014 79.7751 359.798 79.1046 359.328 78.6313V78.6313Z" fill="#246B6D" fill-opacity="0.5"/>
<path d="M248 73.0771H362V71.0771H248V73.0771ZM369 80.0771V86.0771H371V80.0771H369ZM362 93.0771H248V95.0771H362V93.0771ZM241 86.0771V80.0771H239V86.0771H241ZM248 93.0771C244.134 93.0771 241 89.9431 241 86.0771H239C239 91.0477 243.029 95.0771 248 95.0771V93.0771ZM369 86.0771C369 89.9431 365.866 93.0771 362 93.0771V95.0771C366.971 95.0771 371 91.0477 371 86.0771H369ZM362 73.0771C365.866 73.0771 369 76.2112 369 80.0771H371C371 75.1066 366.971 71.0771 362 71.0771V73.0771ZM248 71.0771C243.029 71.0771 239 75.1066 239 80.0771H241C241 76.2112 244.134 73.0771 248 73.0771V71.0771Z" fill="#246B6D"/>
</g>
<line x1="4.37114e-08" y1="100.25" x2="380" y2="100.25" stroke="#DADADA"/>
<g filter="url(#filter3_d)">
<path d="M20.6018 68.7611H17.8778V75.8291H16.2338V68.7611H13.5098V67.3091H20.6018V68.7611ZM27.3475 75.8291H25.7395V72.3011C25.7395 71.8051 25.6475 71.4411 25.4635 71.2091C25.2795 70.9691 25.0195 70.8491 24.6835 70.8491C24.5395 70.8491 24.3875 70.8811 24.2275 70.9451C24.0675 71.0091 23.9155 71.1011 23.7715 71.2211C23.6275 71.3331 23.4955 71.4691 23.3755 71.6291C23.2555 71.7891 23.1675 71.9651 23.1115 72.1571V75.8291H21.5035V67.0691H23.1115V70.7051C23.3435 70.2971 23.6555 69.9851 24.0475 69.7691C24.4475 69.5451 24.8875 69.4331 25.3675 69.4331C25.7755 69.4331 26.1075 69.5051 26.3635 69.6491C26.6195 69.7851 26.8195 69.9691 26.9635 70.2011C27.1075 70.4331 27.2075 70.6971 27.2635 70.9931C27.3195 71.2891 27.3475 71.5931 27.3475 71.9051V75.8291ZM31.6617 75.9491C31.1577 75.9491 30.7017 75.8651 30.2937 75.6971C29.8857 75.5211 29.5377 75.2851 29.2497 74.9891C28.9617 74.6931 28.7377 74.3491 28.5777 73.9571C28.4257 73.5651 28.3497 73.1531 28.3497 72.7211C28.3497 72.2731 28.4257 71.8531 28.5777 71.4611C28.7297 71.0611 28.9497 70.7131 29.2377 70.4171C29.5257 70.1131 29.8737 69.8731 30.2817 69.6971C30.6977 69.5211 31.1617 69.4331 31.6737 69.4331C32.1857 69.4331 32.6417 69.5211 33.0417 69.6971C33.4497 69.8731 33.7937 70.1091 34.0737 70.4051C34.3617 70.7011 34.5777 71.0451 34.7217 71.4371C34.8737 71.8291 34.9497 72.2371 34.9497 72.6611C34.9497 72.7651 34.9457 72.8651 34.9377 72.9611C34.9377 73.0571 34.9297 73.1371 34.9137 73.2011H30.0537C30.0777 73.4491 30.1377 73.6691 30.2337 73.8611C30.3297 74.0531 30.4537 74.2171 30.6057 74.3531C30.7577 74.4891 30.9297 74.5931 31.1217 74.6651C31.3137 74.7371 31.5137 74.7731 31.7217 74.7731C32.0417 74.7731 32.3417 74.6971 32.6217 74.5451C32.9097 74.3851 33.1057 74.1771 33.2097 73.9211L34.5897 74.3051C34.3577 74.7851 33.9857 75.1811 33.4737 75.4931C32.9697 75.7971 32.3657 75.9491 31.6617 75.9491ZM33.2937 72.1571C33.2537 71.6851 33.0777 71.3091 32.7657 71.0291C32.4617 70.7411 32.0897 70.5971 31.6497 70.5971C31.4337 70.5971 31.2297 70.6371 31.0377 70.7171C30.8537 70.7891 30.6897 70.8931 30.5457 71.0291C30.4017 71.1651 30.2817 71.3291 30.1857 71.5211C30.0977 71.7131 30.0457 71.9251 30.0297 72.1571H33.2937ZM35.8972 77.0531C36.0332 77.0931 36.1652 77.1211 36.2932 77.1371C36.4212 77.1611 36.5292 77.1731 36.6172 77.1731C36.7212 77.1731 36.8172 77.1531 36.9052 77.1131C36.9932 77.0731 37.0732 77.0011 37.1452 76.8971C37.2172 76.8011 37.2892 76.6651 37.3612 76.4891C37.4332 76.3131 37.5092 76.0931 37.5892 75.8291L35.1052 69.5411H36.7612L38.4652 74.4371L39.9772 69.5411H41.4892L38.8492 77.0771C38.6972 77.5171 38.4372 77.8771 38.0692 78.1571C37.7012 78.4371 37.2452 78.5771 36.7012 78.5771C36.5732 78.5771 36.4412 78.5651 36.3052 78.5411C36.1772 78.5251 36.0412 78.4931 35.8972 78.4451V77.0531ZM19.9178 88.8291H18.3098V85.3011C18.3098 84.7971 18.2218 84.4291 18.0458 84.1971C17.8698 83.9651 17.6258 83.8491 17.3138 83.8491C17.1538 83.8491 16.9898 83.8811 16.8218 83.9451C16.6538 84.0091 16.4938 84.1011 16.3418 84.2211C16.1978 84.3331 16.0658 84.4691 15.9458 84.6291C15.8258 84.7891 15.7378 84.9651 15.6818 85.1571V88.8291H14.0738V82.5411H15.5258V83.7051C15.7578 83.3051 16.0938 82.9931 16.5338 82.7691C16.9738 82.5451 17.4698 82.4331 18.0218 82.4331C18.4138 82.4331 18.7338 82.5051 18.9818 82.6491C19.2298 82.7931 19.4218 82.9811 19.5578 83.2131C19.6938 83.4451 19.7858 83.7091 19.8338 84.0051C19.8898 84.3011 19.9178 84.6011 19.9178 84.9051V88.8291ZM24.232 88.9491C23.728 88.9491 23.272 88.8651 22.864 88.6971C22.456 88.5211 22.108 88.2851 21.82 87.9891C21.532 87.6931 21.308 87.3491 21.148 86.9571C20.996 86.5651 20.92 86.1531 20.92 85.7211C20.92 85.2731 20.996 84.8531 21.148 84.4611C21.3 84.0611 21.52 83.7131 21.808 83.4171C22.096 83.1131 22.444 82.8731 22.852 82.6971C23.268 82.5211 23.732 82.4331 24.244 82.4331C24.756 82.4331 25.212 82.5211 25.612 82.6971C26.02 82.8731 26.364 83.1091 26.644 83.4051C26.932 83.7011 27.148 84.0451 27.292 84.4371C27.444 84.8291 27.52 85.2371 27.52 85.6611C27.52 85.7651 27.516 85.8651 27.508 85.9611C27.508 86.0571 27.5 86.1371 27.484 86.2011H22.624C22.648 86.4491 22.708 86.6691 22.804 86.8611C22.9 87.0531 23.024 87.2171 23.176 87.3531C23.328 87.4891 23.5 87.5931 23.692 87.6651C23.884 87.7371 24.084 87.7731 24.292 87.7731C24.612 87.7731 24.912 87.6971 25.192 87.5451C25.48 87.3851 25.676 87.1771 25.78 86.9211L27.16 87.3051C26.928 87.7851 26.556 88.1811 26.044 88.4931C25.54 88.7971 24.936 88.9491 24.232 88.9491ZM25.864 85.1571C25.824 84.6851 25.648 84.3091 25.336 84.0291C25.032 83.7411 24.66 83.5971 24.22 83.5971C24.004 83.5971 23.8 83.6371 23.608 83.7171C23.424 83.7891 23.26 83.8931 23.116 84.0291C22.972 84.1651 22.852 84.3291 22.756 84.5211C22.668 84.7131 22.616 84.9251 22.6 85.1571H25.864ZM31.4156 88.9491C30.9116 88.9491 30.4556 88.8651 30.0476 88.6971C29.6396 88.5211 29.2916 88.2851 29.0036 87.9891C28.7156 87.6931 28.4916 87.3491 28.3316 86.9571C28.1796 86.5651 28.1036 86.1531 28.1036 85.7211C28.1036 85.2731 28.1796 84.8531 28.3316 84.4611C28.4836 84.0611 28.7036 83.7131 28.9916 83.4171C29.2796 83.1131 29.6276 82.8731 30.0356 82.6971C30.4516 82.5211 30.9156 82.4331 31.4276 82.4331C31.9396 82.4331 32.3956 82.5211 32.7956 82.6971C33.2036 82.8731 33.5476 83.1091 33.8276 83.4051C34.1156 83.7011 34.3316 84.0451 34.4756 84.4371C34.6276 84.8291 34.7036 85.2371 34.7036 85.6611C34.7036 85.7651 34.6996 85.8651 34.6916 85.9611C34.6916 86.0571 34.6836 86.1371 34.6676 86.2011H29.8076C29.8316 86.4491 29.8916 86.6691 29.9876 86.8611C30.0836 87.0531 30.2076 87.2171 30.3596 87.3531C30.5116 87.4891 30.6836 87.5931 30.8756 87.6651C31.0676 87.7371 31.2676 87.7731 31.4756 87.7731C31.7956 87.7731 32.0956 87.6971 32.3756 87.5451C32.6636 87.3851 32.8596 87.1771 32.9636 86.9211L34.3436 87.3051C34.1116 87.7851 33.7396 88.1811 33.2276 88.4931C32.7236 88.7971 32.1196 88.9491 31.4156 88.9491ZM33.0476 85.1571C33.0076 84.6851 32.8316 84.3091 32.5196 84.0291C32.2156 83.7411 31.8436 83.5971 31.4036 83.5971C31.1876 83.5971 30.9836 83.6371 30.7916 83.7171C30.6076 83.7891 30.4436 83.8931 30.2996 84.0291C30.1556 84.1651 30.0356 84.3291 29.9396 84.5211C29.8516 84.7131 29.7996 84.9251 29.7836 85.1571H33.0476ZM38.2872 88.9491C37.8552 88.9491 37.4552 88.8651 37.0872 88.6971C36.7192 88.5291 36.4032 88.2971 36.1392 88.0011C35.8752 87.7051 35.6672 87.3611 35.5152 86.9691C35.3712 86.5691 35.2992 86.1411 35.2992 85.6851C35.2992 85.2291 35.3672 84.8051 35.5032 84.4131C35.6472 84.0211 35.8432 83.6771 36.0912 83.3811C36.3392 83.0851 36.6352 82.8531 36.9792 82.6851C37.3232 82.5171 37.6992 82.4331 38.1072 82.4331C38.5712 82.4331 38.9872 82.5451 39.3552 82.7691C39.7312 82.9931 40.0232 83.2851 40.2312 83.6451V80.0691H41.8392V86.9811C41.8392 87.1491 41.8672 87.2691 41.9232 87.3411C41.9792 87.4131 42.0752 87.4531 42.2112 87.4611V88.8291C41.9312 88.8851 41.7032 88.9131 41.5272 88.9131C41.2392 88.9131 41.0032 88.8411 40.8192 88.6971C40.6352 88.5531 40.5312 88.3651 40.5072 88.1331L40.4712 87.7371C40.2392 88.1371 39.9232 88.4411 39.5232 88.6491C39.1312 88.8491 38.7192 88.9491 38.2872 88.9491ZM38.7072 87.5811C38.8592 87.5811 39.0152 87.5571 39.1752 87.5091C39.3352 87.4531 39.4832 87.3771 39.6192 87.2811C39.7552 87.1851 39.8752 87.0731 39.9792 86.9451C40.0912 86.8171 40.1752 86.6771 40.2312 86.5251V85.0251C40.1672 84.8491 40.0752 84.6891 39.9552 84.5451C39.8432 84.3931 39.7112 84.2651 39.5592 84.1611C39.4152 84.0491 39.2592 83.9611 39.0912 83.8971C38.9312 83.8331 38.7712 83.8011 38.6112 83.8011C38.3712 83.8011 38.1472 83.8531 37.9392 83.9571C37.7392 84.0611 37.5672 84.2051 37.4232 84.3891C37.2792 84.5651 37.1672 84.7691 37.0872 85.0011C37.0072 85.2331 36.9672 85.4731 36.9672 85.7211C36.9672 85.9851 37.0112 86.2291 37.0992 86.4531C37.1872 86.6771 37.3072 86.8731 37.4592 87.0411C37.6112 87.2091 37.7912 87.3411 37.9992 87.4371C38.2152 87.5331 38.4512 87.5811 38.7072 87.5811ZM43.5135 84.3411V82.6131H44.8215V84.3411H43.5135ZM43.5135 88.8291V87.1011H44.8215V88.8291H43.5135Z" fill="#246B6D"/>
</g>
<line x1="220.25" y1="9.27637" x2="220.25" y2="89.916" stroke="#DADADA" stroke-width="0.5"/>
<line x1="220" y1="61" x2="10.9434" y2="61" stroke="#DADADA" stroke-width="0.5"/>
<g filter="url(#filter4_d)">
<path d="M268.014 20.6074C268.014 20.3674 268.032 20.1424 268.068 19.9324C268.11 19.7224 268.185 19.5214 268.293 19.3294C268.401 19.1374 268.548 18.9544 268.734 18.7804C268.926 18.6064 269.175 18.4324 269.481 18.2584C269.661 18.1624 269.844 18.0694 270.03 17.9794C270.216 17.8834 270.384 17.7844 270.534 17.6824C270.69 17.5744 270.816 17.4604 270.912 17.3404C271.014 17.2204 271.065 17.0794 271.065 16.9174C271.065 16.8154 271.041 16.7134 270.993 16.6114C270.945 16.5094 270.876 16.4194 270.786 16.3414C270.696 16.2634 270.582 16.2004 270.444 16.1524C270.312 16.1044 270.159 16.0804 269.985 16.0804C269.805 16.0804 269.64 16.1074 269.49 16.1614C269.346 16.2094 269.217 16.2724 269.103 16.3504C268.989 16.4224 268.89 16.5004 268.806 16.5844C268.722 16.6684 268.653 16.7434 268.599 16.8094L268.086 16.2334C268.134 16.1794 268.215 16.1074 268.329 16.0174C268.443 15.9214 268.587 15.8254 268.761 15.7294C268.935 15.6334 269.136 15.5524 269.364 15.4864C269.592 15.4144 269.847 15.3784 270.129 15.3784C270.405 15.3784 270.654 15.4174 270.876 15.4954C271.098 15.5674 271.284 15.6694 271.434 15.8014C271.59 15.9334 271.71 16.0894 271.794 16.2694C271.878 16.4434 271.92 16.6294 271.92 16.8274C271.92 17.0614 271.869 17.2654 271.767 17.4394C271.665 17.6134 271.539 17.7664 271.389 17.8984C271.245 18.0304 271.089 18.1444 270.921 18.2404C270.753 18.3304 270.603 18.4084 270.471 18.4744C270.339 18.5404 270.189 18.6214 270.021 18.7174C269.859 18.8074 269.703 18.9124 269.553 19.0324C269.403 19.1464 269.271 19.2754 269.157 19.4194C269.049 19.5634 268.98 19.7194 268.95 19.8874H272.019V20.6074H268.014ZM273.019 20.6074V19.5994H273.685V20.6074H273.019ZM274.65 20.6074C274.65 20.3674 274.668 20.1424 274.704 19.9324C274.746 19.7224 274.821 19.5214 274.929 19.3294C275.037 19.1374 275.184 18.9544 275.37 18.7804C275.562 18.6064 275.811 18.4324 276.117 18.2584C276.297 18.1624 276.48 18.0694 276.666 17.9794C276.852 17.8834 277.02 17.7844 277.17 17.6824C277.326 17.5744 277.452 17.4604 277.548 17.3404C277.65 17.2204 277.701 17.0794 277.701 16.9174C277.701 16.8154 277.677 16.7134 277.629 16.6114C277.581 16.5094 277.512 16.4194 277.422 16.3414C277.332 16.2634 277.218 16.2004 277.08 16.1524C276.948 16.1044 276.795 16.0804 276.621 16.0804C276.441 16.0804 276.276 16.1074 276.126 16.1614C275.982 16.2094 275.853 16.2724 275.739 16.3504C275.625 16.4224 275.526 16.5004 275.442 16.5844C275.358 16.6684 275.289 16.7434 275.235 16.8094L274.722 16.2334C274.77 16.1794 274.851 16.1074 274.965 16.0174C275.079 15.9214 275.223 15.8254 275.397 15.7294C275.571 15.6334 275.772 15.5524 276 15.4864C276.228 15.4144 276.483 15.3784 276.765 15.3784C277.041 15.3784 277.29 15.4174 277.512 15.4954C277.734 15.5674 277.92 15.6694 278.07 15.8014C278.226 15.9334 278.346 16.0894 278.43 16.2694C278.514 16.4434 278.556 16.6294 278.556 16.8274C278.556 17.0614 278.505 17.2654 278.403 17.4394C278.301 17.6134 278.175 17.7664 278.025 17.8984C277.881 18.0304 277.725 18.1444 277.557 18.2404C277.389 18.3304 277.239 18.4084 277.107 18.4744C276.975 18.5404 276.825 18.6214 276.657 18.7174C276.495 18.8074 276.339 18.9124 276.189 19.0324C276.039 19.1464 275.907 19.2754 275.793 19.4194C275.685 19.5634 275.616 19.7194 275.586 19.8874H278.655V20.6074H274.65ZM289.077 20.6074H288.285V17.9794C288.285 17.4874 288.204 17.1244 288.042 16.8904C287.886 16.6564 287.652 16.5394 287.34 16.5394C287.016 16.5394 286.725 16.6564 286.467 16.8904C286.215 17.1184 286.035 17.4154 285.927 17.7814V20.6074H285.135V17.9794C285.135 17.4754 285.057 17.1094 284.901 16.8814C284.745 16.6534 284.511 16.5394 284.199 16.5394C283.881 16.5394 283.593 16.6534 283.335 16.8814C283.077 17.1034 282.894 17.4004 282.786 17.7724V20.6074H281.994V15.9094H282.714V16.9174C282.906 16.5694 283.155 16.3024 283.461 16.1164C283.767 15.9244 284.112 15.8284 284.496 15.8284C284.892 15.8284 285.204 15.9364 285.432 16.1524C285.666 16.3624 285.81 16.6354 285.864 16.9714C286.284 16.2094 286.881 15.8284 287.655 15.8284C287.925 15.8284 288.15 15.8794 288.33 15.9814C288.516 16.0774 288.663 16.2154 288.771 16.3954C288.879 16.5694 288.957 16.7764 289.005 17.0164C289.053 17.2564 289.077 17.5174 289.077 17.7994V20.6074ZM290.309 20.6074V15.9094H291.101V20.6074H290.309ZM290.309 15.0274V14.0374H291.101V15.0274H290.309ZM292.401 14.0374H293.193V19.3924C293.193 19.5664 293.238 19.7044 293.328 19.8064C293.424 19.9024 293.556 19.9504 293.724 19.9504C293.79 19.9504 293.868 19.9414 293.958 19.9234C294.048 19.8994 294.132 19.8724 294.21 19.8424L294.336 20.4814C294.204 20.5354 294.048 20.5804 293.868 20.6164C293.688 20.6524 293.529 20.6704 293.391 20.6704C293.085 20.6704 292.842 20.5834 292.662 20.4094C292.488 20.2354 292.401 19.9924 292.401 19.6804V14.0374ZM297.037 20.6974C296.683 20.6974 296.359 20.6344 296.065 20.5084C295.771 20.3764 295.519 20.1994 295.309 19.9774C295.099 19.7554 294.934 19.4974 294.814 19.2034C294.7 18.9034 294.643 18.5884 294.643 18.2584C294.643 17.9284 294.7 17.6164 294.814 17.3224C294.934 17.0284 295.099 16.7704 295.309 16.5484C295.525 16.3264 295.78 16.1524 296.074 16.0264C296.368 15.8944 296.692 15.8284 297.046 15.8284C297.4 15.8284 297.721 15.8944 298.009 16.0264C298.303 16.1584 298.552 16.3354 298.756 16.5574C298.96 16.7734 299.116 17.0284 299.224 17.3224C299.338 17.6104 299.395 17.9104 299.395 18.2224C299.395 18.2884 299.392 18.3484 299.386 18.4024C299.386 18.4564 299.383 18.4984 299.377 18.5284H295.48C295.498 18.7624 295.552 18.9754 295.642 19.1674C295.732 19.3594 295.849 19.5244 295.993 19.6624C296.137 19.8004 296.299 19.9084 296.479 19.9864C296.665 20.0644 296.86 20.1034 297.064 20.1034C297.208 20.1034 297.349 20.0854 297.487 20.0494C297.625 20.0074 297.754 19.9534 297.874 19.8874C297.994 19.8214 298.099 19.7404 298.189 19.6444C298.285 19.5484 298.357 19.4404 298.405 19.3204L299.089 19.5094C299.011 19.6834 298.903 19.8424 298.765 19.9864C298.633 20.1304 298.477 20.2564 298.297 20.3644C298.123 20.4664 297.928 20.5474 297.712 20.6074C297.496 20.6674 297.271 20.6974 297.037 20.6974ZM298.648 17.9434C298.63 17.7214 298.573 17.5174 298.477 17.3314C298.387 17.1394 298.27 16.9774 298.126 16.8454C297.988 16.7134 297.826 16.6114 297.64 16.5394C297.454 16.4614 297.256 16.4224 297.046 16.4224C296.836 16.4224 296.638 16.4614 296.452 16.5394C296.266 16.6114 296.101 16.7164 295.957 16.8544C295.819 16.9864 295.705 17.1454 295.615 17.3314C295.531 17.5174 295.48 17.7214 295.462 17.9434H298.648ZM301.923 20.6974C301.545 20.6974 301.173 20.6404 300.807 20.5264C300.441 20.4064 300.126 20.2354 299.862 20.0134L300.204 19.4824C300.48 19.6924 300.756 19.8514 301.032 19.9594C301.308 20.0614 301.599 20.1124 301.905 20.1124C302.247 20.1124 302.517 20.0464 302.715 19.9144C302.919 19.7764 303.021 19.5844 303.021 19.3384C303.021 19.2244 302.994 19.1284 302.94 19.0504C302.886 18.9664 302.805 18.8944 302.697 18.8344C302.589 18.7744 302.451 18.7204 302.283 18.6724C302.115 18.6244 301.92 18.5734 301.698 18.5194C301.416 18.4474 301.173 18.3784 300.969 18.3124C300.765 18.2464 300.597 18.1684 300.465 18.0784C300.333 17.9884 300.237 17.8804 300.177 17.7544C300.117 17.6284 300.087 17.4724 300.087 17.2864C300.087 17.0524 300.132 16.8454 300.222 16.6654C300.318 16.4794 300.447 16.3264 300.609 16.2064C300.771 16.0804 300.96 15.9874 301.176 15.9274C301.398 15.8614 301.635 15.8284 301.887 15.8284C302.241 15.8284 302.571 15.8854 302.877 15.9994C303.183 16.1134 303.441 16.2634 303.651 16.4494L303.291 16.9264C303.093 16.7524 302.871 16.6234 302.625 16.5394C302.379 16.4494 302.127 16.4044 301.869 16.4044C301.581 16.4044 301.335 16.4674 301.131 16.5934C300.933 16.7134 300.834 16.9084 300.834 17.1784C300.834 17.2864 300.852 17.3764 300.888 17.4484C300.93 17.5204 300.996 17.5834 301.086 17.6374C301.176 17.6914 301.29 17.7394 301.428 17.7814C301.572 17.8234 301.743 17.8684 301.941 17.9164C302.253 17.9884 302.523 18.0634 302.751 18.1414C302.985 18.2134 303.177 18.3004 303.327 18.4024C303.483 18.5044 303.597 18.6244 303.669 18.7624C303.747 18.9004 303.786 19.0684 303.786 19.2664C303.786 19.7044 303.618 20.0524 303.282 20.3104C302.946 20.5684 302.493 20.6974 301.923 20.6974ZM267.978 28.3674C267.978 27.9834 268.044 27.6024 268.176 27.2244C268.314 26.8404 268.512 26.4984 268.77 26.1984C269.034 25.8924 269.355 25.6464 269.733 25.4604C270.111 25.2744 270.54 25.1814 271.02 25.1814C271.59 25.1814 272.079 25.3104 272.487 25.5684C272.895 25.8264 273.198 26.1624 273.396 26.5764L272.757 26.9904C272.661 26.7864 272.544 26.6154 272.406 26.4774C272.274 26.3394 272.127 26.2284 271.965 26.1444C271.809 26.0604 271.647 26.0004 271.479 25.9644C271.311 25.9284 271.146 25.9104 270.984 25.9104C270.63 25.9104 270.315 25.9854 270.039 26.1354C269.769 26.2794 269.541 26.4714 269.355 26.7114C269.169 26.9454 269.028 27.2124 268.932 27.5124C268.842 27.8064 268.797 28.1034 268.797 28.4034C268.797 28.7394 268.851 29.0604 268.959 29.3664C269.073 29.6664 269.229 29.9334 269.427 30.1674C269.625 30.4014 269.859 30.5874 270.129 30.7254C270.399 30.8634 270.693 30.9324 271.011 30.9324C271.179 30.9324 271.35 30.9114 271.524 30.8694C271.704 30.8274 271.875 30.7614 272.037 30.6714C272.199 30.5754 272.349 30.4584 272.487 30.3204C272.631 30.1764 272.748 30.0054 272.838 29.8074L273.513 30.1764C273.411 30.4164 273.267 30.6294 273.081 30.8154C272.901 30.9954 272.694 31.1484 272.46 31.2744C272.232 31.4004 271.989 31.4964 271.731 31.5624C271.473 31.6284 271.221 31.6614 270.975 31.6614C270.537 31.6614 270.135 31.5654 269.769 31.3734C269.403 31.1814 269.085 30.9324 268.815 30.6264C268.551 30.3144 268.344 29.9634 268.194 29.5734C268.05 29.1774 267.978 28.7754 267.978 28.3674ZM276.885 27.6024C276.489 27.6144 276.138 27.7164 275.832 27.9084C275.532 28.1004 275.319 28.3674 275.193 28.7094V31.6074H274.401V26.9094H275.139V27.9984C275.301 27.6744 275.514 27.4134 275.778 27.2154C276.042 27.0114 276.324 26.8974 276.624 26.8734C276.684 26.8734 276.735 26.8734 276.777 26.8734C276.819 26.8734 276.855 26.8764 276.885 26.8824V27.6024ZM279.617 31.6974C279.263 31.6974 278.939 31.6314 278.645 31.4994C278.357 31.3674 278.108 31.1904 277.898 30.9684C277.694 30.7464 277.535 30.4884 277.421 30.1944C277.307 29.9004 277.25 29.5914 277.25 29.2674C277.25 28.9374 277.307 28.6254 277.421 28.3314C277.541 28.0374 277.703 27.7794 277.907 27.5574C278.117 27.3354 278.366 27.1584 278.654 27.0264C278.948 26.8944 279.269 26.8284 279.617 26.8284C279.965 26.8284 280.286 26.8944 280.58 27.0264C280.874 27.1584 281.123 27.3354 281.327 27.5574C281.537 27.7794 281.699 28.0374 281.813 28.3314C281.933 28.6254 281.993 28.9374 281.993 29.2674C281.993 29.5914 281.936 29.9004 281.822 30.1944C281.708 30.4884 281.546 30.7464 281.336 30.9684C281.126 31.1904 280.874 31.3674 280.58 31.4994C280.292 31.6314 279.971 31.6974 279.617 31.6974ZM278.06 29.2764C278.06 29.5224 278.099 29.7504 278.177 29.9604C278.261 30.1704 278.372 30.3534 278.51 30.5094C278.654 30.6654 278.819 30.7884 279.005 30.8784C279.197 30.9684 279.401 31.0134 279.617 31.0134C279.833 31.0134 280.034 30.9684 280.22 30.8784C280.412 30.7884 280.58 30.6654 280.724 30.5094C280.868 30.3474 280.979 30.1614 281.057 29.9514C281.141 29.7354 281.183 29.5044 281.183 29.2584C281.183 29.0184 281.141 28.7934 281.057 28.5834C280.979 28.3674 280.868 28.1814 280.724 28.0254C280.58 27.8634 280.412 27.7374 280.22 27.6474C280.034 27.5574 279.833 27.5124 279.617 27.5124C279.401 27.5124 279.197 27.5604 279.005 27.6564C278.819 27.7464 278.654 27.8724 278.51 28.0344C278.372 28.1904 278.261 28.3764 278.177 28.5924C278.099 28.8024 278.06 29.0304 278.06 29.2764ZM288.68 26.9094H289.445L287.447 31.6074H286.79L285.845 29.3124L284.909 31.6074H284.252L282.254 26.9094H283.01L284.63 30.8244L285.422 28.8714L284.612 26.9184H285.269L285.845 28.4214L286.421 26.9184H287.078L286.277 28.8714L287.069 30.8244L288.68 26.9094ZM294.263 31.6074H293.471V28.9794C293.471 28.4754 293.393 28.1094 293.237 27.8814C293.087 27.6534 292.856 27.5394 292.544 27.5394C292.382 27.5394 292.22 27.5724 292.058 27.6384C291.896 27.6984 291.743 27.7824 291.599 27.8904C291.455 27.9984 291.329 28.1274 291.221 28.2774C291.113 28.4274 291.032 28.5924 290.978 28.7724V31.6074H290.186V26.9094H290.906V27.9174C291.092 27.5874 291.359 27.3234 291.707 27.1254C292.061 26.9274 292.445 26.8284 292.859 26.8284C293.129 26.8284 293.354 26.8794 293.534 26.9814C293.714 27.0774 293.858 27.2154 293.966 27.3954C294.074 27.5694 294.149 27.7764 294.191 28.0164C294.239 28.2564 294.263 28.5174 294.263 28.7994V31.6074ZM303.036 25.2174V31.6074H302.226V28.7004H298.707V31.6074H297.897V25.2174H298.707V27.9804H302.226V25.2174H303.036ZM306.442 31.6974C306.088 31.6974 305.764 31.6344 305.47 31.5084C305.176 31.3764 304.924 31.1994 304.714 30.9774C304.504 30.7554 304.339 30.4974 304.219 30.2034C304.105 29.9034 304.048 29.5884 304.048 29.2584C304.048 28.9284 304.105 28.6164 304.219 28.3224C304.339 28.0284 304.504 27.7704 304.714 27.5484C304.93 27.3264 305.185 27.1524 305.479 27.0264C305.773 26.8944 306.097 26.8284 306.451 26.8284C306.805 26.8284 307.126 26.8944 307.414 27.0264C307.708 27.1584 307.957 27.3354 308.161 27.5574C308.365 27.7734 308.521 28.0284 308.629 28.3224C308.743 28.6104 308.8 28.9104 308.8 29.2224C308.8 29.2884 308.797 29.3484 308.791 29.4024C308.791 29.4564 308.788 29.4984 308.782 29.5284H304.885C304.903 29.7624 304.957 29.9754 305.047 30.1674C305.137 30.3594 305.254 30.5244 305.398 30.6624C305.542 30.8004 305.704 30.9084 305.884 30.9864C306.07 31.0644 306.265 31.1034 306.469 31.1034C306.613 31.1034 306.754 31.0854 306.892 31.0494C307.03 31.0074 307.159 30.9534 307.279 30.8874C307.399 30.8214 307.504 30.7404 307.594 30.6444C307.69 30.5484 307.762 30.4404 307.81 30.3204L308.494 30.5094C308.416 30.6834 308.308 30.8424 308.17 30.9864C308.038 31.1304 307.882 31.2564 307.702 31.3644C307.528 31.4664 307.333 31.5474 307.117 31.6074C306.901 31.6674 306.676 31.6974 306.442 31.6974ZM308.053 28.9434C308.035 28.7214 307.978 28.5174 307.882 28.3314C307.792 28.1394 307.675 27.9774 307.531 27.8454C307.393 27.7134 307.231 27.6114 307.045 27.5394C306.859 27.4614 306.661 27.4224 306.451 27.4224C306.241 27.4224 306.043 27.4614 305.857 27.5394C305.671 27.6114 305.506 27.7164 305.362 27.8544C305.224 27.9864 305.11 28.1454 305.02 28.3314C304.936 28.5174 304.885 28.7214 304.867 28.9434H308.053ZM309.68 31.6074V26.9094H310.472V31.6074H309.68ZM309.68 26.0274V25.0374H310.472V26.0274H309.68ZM313.626 31.6614C313.308 31.6614 313.014 31.5954 312.744 31.4634C312.48 31.3314 312.252 31.1544 312.06 30.9324C311.868 30.7104 311.718 30.4554 311.61 30.1674C311.508 29.8794 311.457 29.5794 311.457 29.2674C311.457 28.9374 311.508 28.6254 311.61 28.3314C311.718 28.0314 311.868 27.7704 312.06 27.5484C312.252 27.3264 312.48 27.1524 312.744 27.0264C313.014 26.8944 313.311 26.8284 313.635 26.8284C314.031 26.8284 314.373 26.9244 314.661 27.1164C314.949 27.3084 315.192 27.5514 315.39 27.8454V26.9094H316.092V31.5534C316.092 31.8894 316.029 32.1834 315.903 32.4354C315.777 32.6934 315.606 32.9094 315.39 33.0834C315.174 33.2574 314.919 33.3894 314.625 33.4794C314.337 33.5694 314.028 33.6144 313.698 33.6144C313.164 33.6144 312.729 33.5214 312.393 33.3354C312.063 33.1554 311.787 32.9034 311.565 32.5794L312.024 32.1744C312.21 32.4504 312.45 32.6574 312.744 32.7954C313.038 32.9334 313.356 33.0024 313.698 33.0024C313.914 33.0024 314.118 32.9724 314.31 32.9124C314.508 32.8524 314.679 32.7624 314.823 32.6424C314.967 32.5224 315.081 32.3724 315.165 32.1924C315.255 32.0124 315.3 31.7994 315.3 31.5534V30.7254C315.21 30.8694 315.102 31.0014 314.976 31.1214C314.856 31.2354 314.724 31.3344 314.58 31.4184C314.436 31.4964 314.283 31.5564 314.121 31.5984C313.959 31.6404 313.794 31.6614 313.626 31.6614ZM313.869 31.0134C314.037 31.0134 314.199 30.9834 314.355 30.9234C314.511 30.8634 314.655 30.7854 314.787 30.6894C314.919 30.5874 315.03 30.4734 315.12 30.3474C315.21 30.2214 315.27 30.0924 315.3 29.9604V28.6104C315.234 28.4484 315.147 28.3014 315.039 28.1694C314.937 28.0374 314.82 27.9234 314.688 27.8274C314.556 27.7254 314.412 27.6474 314.256 27.5934C314.106 27.5394 313.953 27.5124 313.797 27.5124C313.557 27.5124 313.341 27.5634 313.149 27.6654C312.963 27.7674 312.804 27.9024 312.672 28.0704C312.54 28.2384 312.438 28.4304 312.366 28.6464C312.294 28.8564 312.258 29.0694 312.258 29.2854C312.258 29.5194 312.3 29.7414 312.384 29.9514C312.468 30.1614 312.582 30.3444 312.726 30.5004C312.87 30.6564 313.038 30.7824 313.23 30.8784C313.428 30.9684 313.641 31.0134 313.869 31.0134ZM321.447 31.6074H320.655V28.9794C320.655 28.4934 320.571 28.1334 320.403 27.8994C320.235 27.6594 319.989 27.5394 319.665 27.5394C319.509 27.5394 319.353 27.5724 319.197 27.6384C319.041 27.6984 318.894 27.7824 318.756 27.8904C318.624 27.9984 318.504 28.1274 318.396 28.2774C318.294 28.4274 318.216 28.5924 318.162 28.7724V31.6074H317.37V25.0374H318.162V27.9174C318.348 27.5754 318.6 27.3084 318.918 27.1164C319.236 26.9244 319.584 26.8284 319.962 26.8284C320.238 26.8284 320.472 26.8794 320.664 26.9814C320.856 27.0834 321.009 27.2214 321.123 27.3954C321.237 27.5694 321.318 27.7794 321.366 28.0254C321.42 28.2654 321.447 28.5234 321.447 28.7994V31.6074ZM325.065 31.3734C325.017 31.3974 324.954 31.4274 324.876 31.4634C324.798 31.4934 324.708 31.5264 324.606 31.5624C324.51 31.5924 324.402 31.6164 324.282 31.6344C324.168 31.6584 324.048 31.6704 323.922 31.6704C323.634 31.6704 323.385 31.5924 323.175 31.4364C322.965 31.2744 322.86 31.0254 322.86 30.6894V27.5304H322.221V26.9094H322.86V25.3434H323.652V26.9094H324.705V27.5304H323.652V30.4464C323.664 30.6204 323.721 30.7464 323.823 30.8244C323.925 30.9024 324.045 30.9414 324.183 30.9414C324.339 30.9414 324.48 30.9174 324.606 30.8694C324.738 30.8154 324.828 30.7734 324.876 30.7434L325.065 31.3734ZM327.446 31.6974C327.068 31.6974 326.696 31.6404 326.33 31.5264C325.964 31.4064 325.649 31.2354 325.385 31.0134L325.727 30.4824C326.003 30.6924 326.279 30.8514 326.555 30.9594C326.831 31.0614 327.122 31.1124 327.428 31.1124C327.77 31.1124 328.04 31.0464 328.238 30.9144C328.442 30.7764 328.544 30.5844 328.544 30.3384C328.544 30.2244 328.517 30.1284 328.463 30.0504C328.409 29.9664 328.328 29.8944 328.22 29.8344C328.112 29.7744 327.974 29.7204 327.806 29.6724C327.638 29.6244 327.443 29.5734 327.221 29.5194C326.939 29.4474 326.696 29.3784 326.492 29.3124C326.288 29.2464 326.12 29.1684 325.988 29.0784C325.856 28.9884 325.76 28.8804 325.7 28.7544C325.64 28.6284 325.61 28.4724 325.61 28.2864C325.61 28.0524 325.655 27.8454 325.745 27.6654C325.841 27.4794 325.97 27.3264 326.132 27.2064C326.294 27.0804 326.483 26.9874 326.699 26.9274C326.921 26.8614 327.158 26.8284 327.41 26.8284C327.764 26.8284 328.094 26.8854 328.4 26.9994C328.706 27.1134 328.964 27.2634 329.174 27.4494L328.814 27.9264C328.616 27.7524 328.394 27.6234 328.148 27.5394C327.902 27.4494 327.65 27.4044 327.392 27.4044C327.104 27.4044 326.858 27.4674 326.654 27.5934C326.456 27.7134 326.357 27.9084 326.357 28.1784C326.357 28.2864 326.375 28.3764 326.411 28.4484C326.453 28.5204 326.519 28.5834 326.609 28.6374C326.699 28.6914 326.813 28.7394 326.951 28.7814C327.095 28.8234 327.266 28.8684 327.464 28.9164C327.776 28.9884 328.046 29.0634 328.274 29.1414C328.508 29.2134 328.7 29.3004 328.85 29.4024C329.006 29.5044 329.12 29.6244 329.192 29.7624C329.27 29.9004 329.309 30.0684 329.309 30.2664C329.309 30.7044 329.141 31.0524 328.805 31.3104C328.469 31.5684 328.016 31.6974 327.446 31.6974Z" fill="#5C5C5C"/>
</g>
<path d="M257.45 12.7575L257.45 12.7591L259.638 19.8439C259.638 19.8443 259.638 19.8448 259.638 19.8452C259.71 20.0858 259.75 20.3489 259.75 20.5979V29.5479C259.75 30.4746 259.081 31.1729 258.333 31.1729C257.577 31.1729 256.917 30.4644 256.917 29.5479V28.9229V28.6729H256.667H243.333H243.083V28.9229V29.5479C243.083 30.4758 242.424 31.1729 241.667 31.1729C240.909 31.1729 240.25 30.4758 240.25 29.5479V20.5979C240.25 20.337 240.29 20.0863 240.362 19.8452L242.549 12.7608C242.55 12.7605 242.55 12.7602 242.55 12.76C242.757 12.1054 243.286 11.6729 243.889 11.6729H256.111C256.717 11.6729 257.254 12.1079 257.45 12.7575ZM241.982 18.852L241.888 19.1729H242.222H257.778H258.112L258.018 18.852L256.606 14.077L256.606 14.077L256.605 14.0736C256.423 13.4884 255.917 13.0479 255.311 13.0479H244.689C244.083 13.0479 243.577 13.4884 243.395 14.0736L243.395 14.0736L243.394 14.077L241.982 18.852ZM241.972 23.2979C241.972 24.4449 242.802 25.4229 243.889 25.4229C244.976 25.4229 245.806 24.4449 245.806 23.2979C245.806 22.1508 244.976 21.1729 243.889 21.1729C242.802 21.1729 241.972 22.1508 241.972 23.2979ZM254.194 23.2979C254.194 24.4449 255.024 25.4229 256.111 25.4229C257.198 25.4229 258.028 24.4449 258.028 23.2979C258.028 22.1508 257.198 21.1729 256.111 21.1729C255.024 21.1729 254.194 22.1508 254.194 23.2979Z" fill="#246B6D" fill-opacity="0.5" stroke="#246B6D" stroke-width="0.5"/>
<path d="M90.5713 87.166H90.8213V86.916V80.846V80.6201L90.5965 80.5973C88.7825 80.4136 87.0838 79.8791 85.6913 79.0593C84.2985 78.2393 83.2753 77.1716 82.7215 75.9856C82.1692 74.8028 82.1013 73.541 82.5221 72.336C82.9371 71.1477 83.816 70.0485 85.0789 69.166H98.9211C100.184 70.0485 101.063 71.1477 101.478 72.336C101.899 73.541 101.831 74.8028 101.279 75.9856C100.725 77.1716 99.7015 78.2393 98.3087 79.0593C96.9162 79.8791 95.2175 80.4136 93.4035 80.5973L93.1787 80.6201V80.846V86.916V87.166H93.4287H96.2861C96.6221 87.166 96.9335 87.2601 97.153 87.4137C97.3717 87.5668 97.4648 87.7517 97.4648 87.916C97.4648 88.0803 97.3717 88.2652 97.153 88.4183C96.9335 88.572 96.6221 88.666 96.2861 88.666H87.7139C87.3779 88.666 87.0665 88.572 86.847 88.4183C86.6283 88.2652 86.5352 88.0803 86.5352 87.916C86.5352 87.7517 86.6283 87.5668 86.847 87.4137C87.0665 87.2601 87.3779 87.166 87.7139 87.166H90.5713ZM84.6132 73.8582L84.54 74.166H84.8565H99.1435H99.46L99.3868 73.8582C99.0429 72.4122 98.5524 71.3536 97.8851 70.7329L97.8131 70.666H97.7148H86.2852H86.1869L86.1149 70.7329C85.4476 71.3536 84.9571 72.4122 84.6132 73.8582Z" fill="#246B6D" fill-opacity="0.7" stroke="#246B6D" stroke-width="0.5"/>
<mask id="path-24-inside-1" fill="white">
<path d="M154.354 74.9887L154.697 74.4227C154.697 74.4227 154.999 73.922 154.999 73.2497C154.999 71.621 153.445 71.664 153.445 71.664L150.06 70.7424L148.213 68.916L145.782 69.5777L144.985 69.3607L144.38 69.9597L140.881 70.9124C140.881 70.9124 139.534 70.8754 139.534 72.2867C139.534 72.8694 139.796 73.3034 139.796 73.3034L140.246 74.0467L139.851 74.4374L137.897 74.9694C137.897 74.9694 136.343 74.9264 136.343 76.5551C136.346 76.9345 136.435 77.3084 136.603 77.6487L136 78.2451L136.316 78.3704C136.323 78.3874 136.326 78.4064 136.34 78.4201C136.951 79.0331 136.901 79.8564 136.814 80.3011L136.444 80.6714L139.244 82.0178L143.09 88.3661C143.707 89.3348 145.015 88.7288 145.015 88.7288L154.898 83.9768L154.528 83.6064C154.441 83.1618 154.391 82.3384 155.002 81.7251C155.016 81.7114 155.019 81.6924 155.026 81.6758L155.342 81.5501L153.504 79.7334L155.614 78.7191L155.294 78.3981C155.218 78.0127 155.175 77.2991 155.705 76.7677C155.717 76.7557 155.719 76.7397 155.725 76.7247L156 76.6157L154.354 74.9887ZM152.459 72.0437L152.043 72.703L150.965 71.637L152.459 72.0437ZM148.392 70.6307L149.94 72.285L144.343 74.3074L143.022 72.2554L148.392 70.6307ZM140.581 74.6001L144.4 80.9038L137.125 78.0177L140.581 74.6001ZM138.99 75.2891L138.541 75.7324L138.362 75.4574L138.99 75.2891ZM137.574 75.6337L137.991 76.2761L137.087 77.1701C137.016 76.9727 136.979 76.7648 136.977 76.5551C136.977 75.9464 137.279 75.7147 137.574 75.6337ZM137.051 80.5914L137.056 80.5721L145.439 84.2411L137.122 80.2764C137.13 80.2314 137.136 80.1818 137.142 80.1318L143.653 82.8584L137.165 79.8198C137.166 79.6809 137.157 79.5421 137.136 79.4048L143.162 81.8864L137.055 79.0494C137.016 78.9181 136.963 78.7911 136.898 78.6704L145.193 82.2121L145.381 82.5234C145.77 83.1348 146.476 83.0218 146.832 82.9158C147.323 83.1584 148.205 83.7198 147.979 84.5468C147.86 84.9841 147.598 85.1961 147.179 85.1961C146.755 85.1961 146.331 84.9741 146.327 84.9711L137.051 80.5914ZM145.4 84.9778L144.745 85.2491L144.188 84.3948L145.4 84.9778ZM142.862 86.7715L140.286 82.5184L142.846 83.7495L144.057 85.6135C143.569 85.8221 143.023 86.2985 142.862 86.7715ZM154.206 82.7101C154.186 82.8474 154.176 82.9862 154.178 83.1251L147.689 86.1638L154.2 83.4371C154.207 83.4868 154.212 83.5368 154.22 83.5818L145.904 87.5468L154.286 83.8778C154.288 83.8842 154.29 83.8906 154.291 83.8971L145.015 88.2761C145.011 88.2791 144.588 88.5011 144.163 88.5011C143.744 88.5011 143.482 88.2888 143.363 87.8518C143.057 86.7295 144.797 86.0931 144.823 86.0835L146.348 85.4328C146.512 85.5025 147.68 85.9608 148.252 85.0611L148.613 84.4658L154.444 81.9758C154.379 82.0965 154.327 82.2235 154.287 82.3548L148.18 85.1918L154.206 82.7101ZM154.218 81.3231L149.276 83.3711L150.647 81.1074L152.903 80.0231L154.218 81.3231ZM155.015 77.6207C154.998 77.7398 154.989 77.8601 154.99 77.9804L149.368 80.6138L155.01 78.2507C155.016 78.2937 155.021 78.3374 155.028 78.3761L147.82 81.8121L155.084 78.6324C155.086 78.6379 155.088 78.6434 155.089 78.6491L147.05 82.4448C147.046 82.4471 146.679 82.6398 146.311 82.6398C145.947 82.6398 145.721 82.4554 145.618 82.0768C145.353 81.1041 146.861 80.5528 146.883 80.5444L155.221 76.9844C155.165 77.0891 155.12 77.1992 155.086 77.3131L149.792 79.7718L155.015 77.6207Z"/>
</mask>
<path d="M154.354 74.9887L154.697 74.4227C154.697 74.4227 154.999 73.922 154.999 73.2497C154.999 71.621 153.445 71.664 153.445 71.664L150.06 70.7424L148.213 68.916L145.782 69.5777L144.985 69.3607L144.38 69.9597L140.881 70.9124C140.881 70.9124 139.534 70.8754 139.534 72.2867C139.534 72.8694 139.796 73.3034 139.796 73.3034L140.246 74.0467L139.851 74.4374L137.897 74.9694C137.897 74.9694 136.343 74.9264 136.343 76.5551C136.346 76.9345 136.435 77.3084 136.603 77.6487L136 78.2451L136.316 78.3704C136.323 78.3874 136.326 78.4064 136.34 78.4201C136.951 79.0331 136.901 79.8564 136.814 80.3011L136.444 80.6714L139.244 82.0178L143.09 88.3661C143.707 89.3348 145.015 88.7288 145.015 88.7288L154.898 83.9768L154.528 83.6064C154.441 83.1618 154.391 82.3384 155.002 81.7251C155.016 81.7114 155.019 81.6924 155.026 81.6758L155.342 81.5501L153.504 79.7334L155.614 78.7191L155.294 78.3981C155.218 78.0127 155.175 77.2991 155.705 76.7677C155.717 76.7557 155.719 76.7397 155.725 76.7247L156 76.6157L154.354 74.9887ZM152.459 72.0437L152.043 72.703L150.965 71.637L152.459 72.0437ZM148.392 70.6307L149.94 72.285L144.343 74.3074L143.022 72.2554L148.392 70.6307ZM140.581 74.6001L144.4 80.9038L137.125 78.0177L140.581 74.6001ZM138.99 75.2891L138.541 75.7324L138.362 75.4574L138.99 75.2891ZM137.574 75.6337L137.991 76.2761L137.087 77.1701C137.016 76.9727 136.979 76.7648 136.977 76.5551C136.977 75.9464 137.279 75.7147 137.574 75.6337ZM137.051 80.5914L137.056 80.5721L145.439 84.2411L137.122 80.2764C137.13 80.2314 137.136 80.1818 137.142 80.1318L143.653 82.8584L137.165 79.8198C137.166 79.6809 137.157 79.5421 137.136 79.4048L143.162 81.8864L137.055 79.0494C137.016 78.9181 136.963 78.7911 136.898 78.6704L145.193 82.2121L145.381 82.5234C145.77 83.1348 146.476 83.0218 146.832 82.9158C147.323 83.1584 148.205 83.7198 147.979 84.5468C147.86 84.9841 147.598 85.1961 147.179 85.1961C146.755 85.1961 146.331 84.9741 146.327 84.9711L137.051 80.5914ZM145.4 84.9778L144.745 85.2491L144.188 84.3948L145.4 84.9778ZM142.862 86.7715L140.286 82.5184L142.846 83.7495L144.057 85.6135C143.569 85.8221 143.023 86.2985 142.862 86.7715ZM154.206 82.7101C154.186 82.8474 154.176 82.9862 154.178 83.1251L147.689 86.1638L154.2 83.4371C154.207 83.4868 154.212 83.5368 154.22 83.5818L145.904 87.5468L154.286 83.8778C154.288 83.8842 154.29 83.8906 154.291 83.8971L145.015 88.2761C145.011 88.2791 144.588 88.5011 144.163 88.5011C143.744 88.5011 143.482 88.2888 143.363 87.8518C143.057 86.7295 144.797 86.0931 144.823 86.0835L146.348 85.4328C146.512 85.5025 147.68 85.9608 148.252 85.0611L148.613 84.4658L154.444 81.9758C154.379 82.0965 154.327 82.2235 154.287 82.3548L148.18 85.1918L154.206 82.7101ZM154.218 81.3231L149.276 83.3711L150.647 81.1074L152.903 80.0231L154.218 81.3231ZM155.015 77.6207C154.998 77.7398 154.989 77.8601 154.99 77.9804L149.368 80.6138L155.01 78.2507C155.016 78.2937 155.021 78.3374 155.028 78.3761L147.82 81.8121L155.084 78.6324C155.086 78.6379 155.088 78.6434 155.089 78.6491L147.05 82.4448C147.046 82.4471 146.679 82.6398 146.311 82.6398C145.947 82.6398 145.721 82.4554 145.618 82.0768C145.353 81.1041 146.861 80.5528 146.883 80.5444L155.221 76.9844C155.165 77.0891 155.12 77.1992 155.086 77.3131L149.792 79.7718L155.015 77.6207Z" fill="#246B6D" fill-opacity="0.7" stroke="#246B6D" mask="url(#path-24-inside-1)"/>
<path d="M59.3905 72.8845C59.6445 72.8845 59.8504 72.5976 59.8504 72.2437C59.8504 71.8898 59.6445 71.6029 59.3905 71.6029C59.1364 71.6029 58.9305 71.8898 58.9305 72.2437C58.9305 72.5976 59.1364 72.8845 59.3905 72.8845Z" fill="#246B6D" fill-opacity="0.7"/>
<path d="M74.5 82.3249C74.1163 81.6283 73.5343 80.7018 73.079 80.5564C72.8277 80.341 72.4394 80.1679 72.0234 79.9876L71.8114 79.8945C71.817 79.701 71.7654 79.561 71.6507 79.4683C70.9494 78.9033 70.238 78.0679 69.5547 77.1283C69.573 77.0729 69.5837 77.0129 69.5837 76.9483C69.5837 76.7056 69.442 76.5091 69.2677 76.5091C69.2174 76.5091 69.1714 76.5141 69.1217 76.5149C68.9224 76.223 68.7275 75.9272 68.5371 75.6276C68.5697 75.5587 68.5934 75.4806 68.5934 75.3922C68.5934 75.1491 68.4517 74.9526 68.2777 74.9526C68.2614 74.9526 68.2044 74.9529 68.1174 74.9568C67.8952 74.5929 67.6766 74.2261 67.4617 73.8564C67.4754 73.8076 67.4844 73.7556 67.4844 73.7006C67.4844 73.4576 67.3431 73.2606 67.1691 73.2606C67.1521 73.2606 67.1367 73.2622 67.1204 73.2622C66.9179 72.9055 66.7171 72.5475 66.5181 72.1883C66.5281 72.1449 66.5377 72.1002 66.5377 72.0526C66.5377 71.8099 66.3957 71.6133 66.2221 71.6133L66.2001 71.6141C65.3881 70.151 65.2404 69.9302 65.0154 69.9302C64.8668 69.9302 64.7288 69.9418 64.5944 69.9576C64.5438 69.8526 64.4921 69.7506 64.4418 69.6441C64.2848 69.3126 63.9494 68.916 63.2464 68.916C62.1814 68.916 60.7201 69.8287 59.8625 70.4383C59.0495 70.0402 58.3581 69.8341 57.8138 69.8341C57.2581 69.8341 56.9995 70.0429 56.8911 70.1695C56.8845 70.176 56.8765 70.1799 56.8701 70.1876C56.2708 70.9429 55.8852 72.3552 55.6375 73.7541C55.2428 75.2029 55.1998 76.3826 55.2062 76.9264C55.1817 76.9594 55.1607 76.9955 55.1435 77.0341C54.9132 77.586 54.9602 79.7279 55.2842 80.1929C56.1152 81.3902 56.9655 82.1664 57.8658 82.9883C58.8841 83.9179 59.9368 84.8791 61.1741 86.5926C62.2401 88.0695 64.4594 88.916 67.2637 88.916C70.9997 88.916 75 87.3856 75 85.1083C75 82.6014 74.7657 82.3368 74.5 82.3249ZM74.133 82.7118C73.4107 84.0045 70.057 84.7014 67.1044 84.7014C66.1187 84.7014 65.2487 84.6229 64.6538 84.4799C63.8298 84.2818 63.0534 83.9541 62.3254 83.5487C63.0091 82.5164 64.2464 82.356 65.5071 82.356C65.9967 82.356 66.5021 82.3814 67.0377 82.4091C67.5847 82.4368 68.1504 82.4652 68.7097 82.4652C70.0597 82.4652 71.7594 82.3106 73.031 81.1302C73.2587 81.2887 73.711 81.9399 74.133 82.7118ZM70.1684 79.186C70.3614 79.4183 70.5434 79.6387 70.6997 79.8352C70.9134 80.1045 71.3694 80.3026 71.8514 80.5122C72.1007 80.6206 72.3517 80.7318 72.55 80.8445C71.4287 81.7706 69.9897 81.9049 68.7097 81.9049C68.1874 81.9049 67.6554 81.8787 67.1374 81.8522C67.1364 81.2395 67.0591 80.6164 66.9281 80.2349C67.6837 79.7226 68.7701 79.2291 70.1684 79.186ZM68.7144 77.4091C68.9686 77.7293 69.2257 78.0467 69.4854 78.361C68.2241 78.5252 67.2351 79.0172 66.5297 79.5191C66.2826 79.117 66.0334 78.7165 65.7824 78.3176C66.4501 77.8914 67.4051 77.4979 68.7144 77.4091ZM68.0834 76.5952C66.8777 76.7679 65.9827 77.1856 65.3424 77.6283C65.1411 77.3137 64.9434 77.0091 64.7508 76.7156C65.7247 76.176 66.8424 75.9652 67.5541 75.8837C67.7341 76.131 67.9097 76.366 68.0834 76.5952ZM64.2951 76.031C64.0543 75.673 63.8104 75.3177 63.5634 74.9652C64.2654 74.6152 65.2114 74.2856 66.3864 74.1791C66.5824 74.4818 66.7826 74.781 66.9867 75.0764C66.2044 75.2068 65.1911 75.4768 64.2951 76.031ZM67.0434 74.1445C67.1904 74.3983 67.3421 74.656 67.4987 74.9168C67.3221 74.6628 67.1484 74.4061 66.9777 74.1468C66.9997 74.146 67.0211 74.1445 67.0434 74.1445ZM66.1107 72.496C66.2494 72.7456 66.3954 73.0072 66.5501 73.2822C66.5094 73.2845 66.4707 73.2899 66.4304 73.2929C66.2683 73.0313 66.1091 72.7673 65.9527 72.501C66.0061 72.4995 66.0571 72.4968 66.1107 72.496ZM63.0691 74.2768C62.8384 73.9603 62.6036 73.6478 62.3648 73.3395C63.0848 72.9799 64.0854 72.6383 65.3837 72.5302C65.5457 72.8126 65.7081 73.0876 65.8701 73.3537C64.6884 73.5229 63.7531 73.9002 63.0691 74.2768ZM64.9477 70.4926C65.0657 70.6326 65.3327 71.0979 65.6317 71.6326C65.5757 71.6356 65.5194 71.6383 65.4644 71.6422C65.2568 71.2655 65.0555 70.8842 64.8604 70.4987C64.8901 70.4976 64.9171 70.4933 64.9477 70.4926ZM63.2464 69.4768C63.6231 69.4768 63.8741 69.6195 64.0134 69.9129C64.2997 70.5169 64.601 71.1111 64.9171 71.6949C63.5651 71.8645 62.5458 72.2776 61.8294 72.6806C61.1281 71.8441 60.5355 71.2668 60.0565 70.9622C60.8598 70.3852 62.2774 69.4768 63.2464 69.4768ZM57.2571 70.5391C57.3085 70.4968 57.4668 70.3945 57.8135 70.3945C58.0821 70.3945 58.5121 70.4618 59.1425 70.7164C58.2965 70.8264 57.8285 71.5926 57.4511 72.2249C57.2085 72.6302 56.9805 73.0129 56.7671 73.026C56.6365 72.8337 56.8698 71.6579 57.2571 70.5391ZM56.2722 73.0626C56.2895 73.1702 56.3188 73.2641 56.3622 73.3387C56.4515 73.4906 56.5902 73.5733 56.7528 73.5733C57.2375 73.5733 57.5365 73.0726 57.8531 72.5418C58.2318 71.9087 58.6228 71.2541 59.3468 71.2541C59.7515 71.2541 60.4515 71.8526 61.3784 72.9537C61.1468 73.1083 60.9684 73.2495 60.8338 73.3645C60.7965 73.35 60.7575 73.3422 60.7181 73.3414C60.4638 73.3414 60.2578 73.6283 60.2578 73.9822C60.2578 74.336 60.4638 74.6229 60.7181 74.6229C60.9408 74.6229 61.1264 74.4026 61.1691 74.1095C61.4005 73.916 61.6443 73.7432 61.8984 73.5926C62.1432 73.9051 62.3831 74.2226 62.6181 74.5449C62.4043 74.682 62.1973 74.8329 61.9981 74.9968C61.9586 74.9804 61.9171 74.9717 61.8751 74.971C61.6211 74.971 61.4151 75.2576 61.4151 75.6118C61.4151 75.966 61.6211 76.2526 61.8751 76.2526C62.0941 76.2526 62.2764 76.0387 62.3231 75.7529C62.5707 75.552 62.8305 75.3718 63.1004 75.2137C63.3481 75.5633 63.6048 75.9329 63.8691 76.3245C63.5966 76.5321 63.3458 76.7753 63.1218 77.0495C63.1094 77.0479 63.0978 77.0445 63.0851 77.0445C62.8301 77.0445 62.6244 77.3314 62.6244 77.6852C62.6244 78.0387 62.8301 78.326 63.0851 78.326C63.3341 78.326 63.5364 78.0483 63.5431 77.7029C63.7705 77.4256 64.0297 77.1853 64.3134 76.9887C64.5151 77.2941 64.7214 77.6099 64.9324 77.9368C64.6888 78.1392 64.4631 78.3691 64.2588 78.6229C64.2484 78.6222 64.2384 78.6187 64.2281 78.6187C63.9744 78.6187 63.7681 78.906 63.7681 79.2599C63.7681 79.6133 63.9744 79.9006 64.2281 79.9006C64.4794 79.9006 64.6821 79.6199 64.6871 79.2718C64.8917 79.0249 65.1187 78.804 65.3641 78.6129C65.6199 79.0174 65.8733 79.4238 66.1244 79.8322C65.8961 80.0204 65.6793 80.2266 65.4757 80.4495C65.4544 80.4452 65.4334 80.4406 65.4117 80.4406C65.1571 80.4406 64.9514 80.7279 64.9514 81.0814C64.9514 81.4352 65.1571 81.7222 65.4117 81.7222C65.6497 81.7222 65.8441 81.4679 65.8667 81.1433C66.0702 80.9238 66.2873 80.7219 66.5164 80.5391C66.6134 80.856 66.6547 81.3514 66.6527 81.8291C66.2713 81.8087 65.8896 81.7973 65.5077 81.7949C64.0758 81.7949 62.6668 81.9937 61.8821 83.2906C59.7968 82.0033 58.1608 80.096 57.0891 78.6976C57.1131 77.4499 56.8458 76.6702 56.5782 75.9245C56.3548 75.3006 56.1442 74.7099 56.1215 73.8429C56.1665 73.581 56.2162 73.3187 56.2722 73.0626ZM56.1265 76.1379C56.3308 76.7076 56.5235 77.2629 56.5858 78.0272C56.4975 77.9068 56.4148 77.7933 56.3388 77.6887C56.0018 77.2264 55.8238 76.9864 55.6938 76.8679C55.6954 76.3136 55.7398 75.7605 55.8265 75.2152C55.9138 75.5456 56.0212 75.8445 56.1265 76.1379ZM67.2637 88.3552C64.6048 88.3552 62.5224 87.5822 61.5494 86.2349C60.2798 84.476 59.1585 83.4526 58.1691 82.5491C57.2911 81.7479 56.4622 80.9906 55.6652 79.8437C55.5025 79.5952 55.4362 78.0629 55.5322 77.4676C55.6475 77.6141 55.8078 77.8337 55.9645 78.0491C57.2628 79.8322 60.3035 84.0068 64.5544 85.0287C65.1807 85.1791 66.0867 85.2618 67.1044 85.2618C69.3884 85.2618 73.265 84.8137 74.4293 83.2037C74.471 83.5222 74.512 84.0933 74.512 85.1076C74.512 86.8076 71.057 88.3552 67.2637 88.3552Z" fill="#246B6D" fill-opacity="0.7"/>
<path d="M59.3905 72.8845C59.6445 72.8845 59.8504 72.5976 59.8504 72.2437C59.8504 71.8898 59.6445 71.6029 59.3905 71.6029C59.1364 71.6029 58.9305 71.8898 58.9305 72.2437C58.9305 72.5976 59.1364 72.8845 59.3905 72.8845Z" stroke="#246B6D" stroke-width="0.5"/>
<path d="M74.5 82.3249C74.1163 81.6283 73.5343 80.7018 73.079 80.5564C72.8277 80.341 72.4394 80.1679 72.0234 79.9876L71.8114 79.8945C71.817 79.701 71.7654 79.561 71.6507 79.4683C70.9494 78.9033 70.238 78.0679 69.5547 77.1283C69.573 77.0729 69.5837 77.0129 69.5837 76.9483C69.5837 76.7056 69.442 76.5091 69.2677 76.5091C69.2174 76.5091 69.1714 76.5141 69.1217 76.5149C68.9224 76.223 68.7275 75.9272 68.5371 75.6276C68.5697 75.5587 68.5934 75.4806 68.5934 75.3922C68.5934 75.1491 68.4517 74.9526 68.2777 74.9526C68.2614 74.9526 68.2044 74.9529 68.1174 74.9568C67.8952 74.5929 67.6766 74.2261 67.4617 73.8564C67.4754 73.8076 67.4844 73.7556 67.4844 73.7006C67.4844 73.4576 67.3431 73.2606 67.1691 73.2606C67.1521 73.2606 67.1367 73.2622 67.1204 73.2622C66.9179 72.9055 66.7171 72.5475 66.5181 72.1883C66.5281 72.1449 66.5377 72.1002 66.5377 72.0526C66.5377 71.8099 66.3957 71.6133 66.2221 71.6133L66.2001 71.6141C65.3881 70.151 65.2404 69.9302 65.0154 69.9302C64.8668 69.9302 64.7288 69.9418 64.5944 69.9576C64.5438 69.8526 64.4921 69.7506 64.4418 69.6441C64.2848 69.3126 63.9494 68.916 63.2464 68.916C62.1814 68.916 60.7201 69.8287 59.8625 70.4383C59.0495 70.0402 58.3581 69.8341 57.8138 69.8341C57.2581 69.8341 56.9995 70.0429 56.8911 70.1695C56.8845 70.176 56.8765 70.1799 56.8701 70.1876C56.2708 70.9429 55.8852 72.3552 55.6375 73.7541C55.2428 75.2029 55.1998 76.3826 55.2062 76.9264C55.1817 76.9594 55.1607 76.9955 55.1435 77.0341C54.9132 77.586 54.9602 79.7279 55.2842 80.1929C56.1152 81.3902 56.9655 82.1664 57.8658 82.9883C58.8841 83.9179 59.9368 84.8791 61.1741 86.5926C62.2401 88.0695 64.4594 88.916 67.2637 88.916C70.9997 88.916 75 87.3856 75 85.1083C75 82.6014 74.7657 82.3368 74.5 82.3249ZM74.133 82.7118C73.4107 84.0045 70.057 84.7014 67.1044 84.7014C66.1187 84.7014 65.2487 84.6229 64.6538 84.4799C63.8298 84.2818 63.0534 83.9541 62.3254 83.5487C63.0091 82.5164 64.2464 82.356 65.5071 82.356C65.9967 82.356 66.5021 82.3814 67.0377 82.4091C67.5847 82.4368 68.1504 82.4652 68.7097 82.4652C70.0597 82.4652 71.7594 82.3106 73.031 81.1302C73.2587 81.2887 73.711 81.9399 74.133 82.7118ZM70.1684 79.186C70.3614 79.4183 70.5434 79.6387 70.6997 79.8352C70.9134 80.1045 71.3694 80.3026 71.8514 80.5122C72.1007 80.6206 72.3517 80.7318 72.55 80.8445C71.4287 81.7706 69.9897 81.9049 68.7097 81.9049C68.1874 81.9049 67.6554 81.8787 67.1374 81.8522C67.1364 81.2395 67.0591 80.6164 66.9281 80.2349C67.6837 79.7226 68.7701 79.2291 70.1684 79.186ZM68.7144 77.4091C68.9686 77.7293 69.2257 78.0467 69.4854 78.361C68.2241 78.5252 67.2351 79.0172 66.5297 79.5191C66.2826 79.117 66.0334 78.7165 65.7824 78.3176C66.4501 77.8914 67.4051 77.4979 68.7144 77.4091ZM68.0834 76.5952C66.8777 76.7679 65.9827 77.1856 65.3424 77.6283C65.1411 77.3137 64.9434 77.0091 64.7508 76.7156C65.7247 76.176 66.8424 75.9652 67.5541 75.8837C67.7341 76.131 67.9097 76.366 68.0834 76.5952ZM64.2951 76.031C64.0543 75.673 63.8104 75.3177 63.5634 74.9652C64.2654 74.6152 65.2114 74.2856 66.3864 74.1791C66.5824 74.4818 66.7826 74.781 66.9867 75.0764C66.2044 75.2068 65.1911 75.4768 64.2951 76.031ZM67.0434 74.1445C67.1904 74.3983 67.3421 74.656 67.4987 74.9168C67.3221 74.6628 67.1484 74.4061 66.9777 74.1468C66.9997 74.146 67.0211 74.1445 67.0434 74.1445ZM66.1107 72.496C66.2494 72.7456 66.3954 73.0072 66.5501 73.2822C66.5094 73.2845 66.4707 73.2899 66.4304 73.2929C66.2683 73.0313 66.1091 72.7673 65.9527 72.501C66.0061 72.4995 66.0571 72.4968 66.1107 72.496ZM63.0691 74.2768C62.8384 73.9603 62.6036 73.6478 62.3648 73.3395C63.0848 72.9799 64.0854 72.6383 65.3837 72.5302C65.5457 72.8126 65.7081 73.0876 65.8701 73.3537C64.6884 73.5229 63.7531 73.9002 63.0691 74.2768ZM64.9477 70.4926C65.0657 70.6326 65.3327 71.0979 65.6317 71.6326C65.5757 71.6356 65.5194 71.6383 65.4644 71.6422C65.2568 71.2655 65.0555 70.8842 64.8604 70.4987C64.8901 70.4976 64.9171 70.4933 64.9477 70.4926ZM63.2464 69.4768C63.6231 69.4768 63.8741 69.6195 64.0134 69.9129C64.2997 70.5169 64.601 71.1111 64.9171 71.6949C63.5651 71.8645 62.5458 72.2776 61.8294 72.6806C61.1281 71.8441 60.5355 71.2668 60.0565 70.9622C60.8598 70.3852 62.2774 69.4768 63.2464 69.4768ZM57.2571 70.5391C57.3085 70.4968 57.4668 70.3945 57.8135 70.3945C58.0821 70.3945 58.5121 70.4618 59.1425 70.7164C58.2965 70.8264 57.8285 71.5926 57.4511 72.2249C57.2085 72.6302 56.9805 73.0129 56.7671 73.026C56.6365 72.8337 56.8698 71.6579 57.2571 70.5391ZM56.2722 73.0626C56.2895 73.1702 56.3188 73.2641 56.3622 73.3387C56.4515 73.4906 56.5902 73.5733 56.7528 73.5733C57.2375 73.5733 57.5365 73.0726 57.8531 72.5418C58.2318 71.9087 58.6228 71.2541 59.3468 71.2541C59.7515 71.2541 60.4515 71.8526 61.3784 72.9537C61.1468 73.1083 60.9684 73.2495 60.8338 73.3645C60.7965 73.35 60.7575 73.3422 60.7181 73.3414C60.4638 73.3414 60.2578 73.6283 60.2578 73.9822C60.2578 74.336 60.4638 74.6229 60.7181 74.6229C60.9408 74.6229 61.1264 74.4026 61.1691 74.1095C61.4005 73.916 61.6443 73.7432 61.8984 73.5926C62.1432 73.9051 62.3831 74.2226 62.6181 74.5449C62.4043 74.682 62.1973 74.8329 61.9981 74.9968C61.9586 74.9804 61.9171 74.9717 61.8751 74.971C61.6211 74.971 61.4151 75.2576 61.4151 75.6118C61.4151 75.966 61.6211 76.2526 61.8751 76.2526C62.0941 76.2526 62.2764 76.0387 62.3231 75.7529C62.5707 75.552 62.8305 75.3718 63.1004 75.2137C63.3481 75.5633 63.6048 75.9329 63.8691 76.3245C63.5966 76.5321 63.3458 76.7753 63.1218 77.0495C63.1094 77.0479 63.0978 77.0445 63.0851 77.0445C62.8301 77.0445 62.6244 77.3314 62.6244 77.6852C62.6244 78.0387 62.8301 78.326 63.0851 78.326C63.3341 78.326 63.5364 78.0483 63.5431 77.7029C63.7705 77.4256 64.0297 77.1853 64.3134 76.9887C64.5151 77.2941 64.7214 77.6099 64.9324 77.9368C64.6888 78.1392 64.4631 78.3691 64.2588 78.6229C64.2484 78.6222 64.2384 78.6187 64.2281 78.6187C63.9744 78.6187 63.7681 78.906 63.7681 79.2599C63.7681 79.6133 63.9744 79.9006 64.2281 79.9006C64.4794 79.9006 64.6821 79.6199 64.6871 79.2718C64.8917 79.0249 65.1187 78.804 65.3641 78.6129C65.6199 79.0174 65.8733 79.4238 66.1244 79.8322C65.8961 80.0204 65.6793 80.2266 65.4757 80.4495C65.4544 80.4452 65.4334 80.4406 65.4117 80.4406C65.1571 80.4406 64.9514 80.7279 64.9514 81.0814C64.9514 81.4352 65.1571 81.7222 65.4117 81.7222C65.6497 81.7222 65.8441 81.4679 65.8667 81.1433C66.0702 80.9238 66.2873 80.7219 66.5164 80.5391C66.6134 80.856 66.6547 81.3514 66.6527 81.8291C66.2713 81.8087 65.8896 81.7973 65.5077 81.7949C64.0758 81.7949 62.6668 81.9937 61.8821 83.2906C59.7968 82.0033 58.1608 80.096 57.0891 78.6976C57.1131 77.4499 56.8458 76.6702 56.5782 75.9245C56.3548 75.3006 56.1442 74.7099 56.1215 73.8429C56.1665 73.581 56.2162 73.3187 56.2722 73.0626ZM56.1265 76.1379C56.3308 76.7076 56.5235 77.2629 56.5858 78.0272C56.4975 77.9068 56.4148 77.7933 56.3388 77.6887C56.0018 77.2264 55.8238 76.9864 55.6938 76.8679C55.6954 76.3136 55.7398 75.7605 55.8265 75.2152C55.9138 75.5456 56.0212 75.8445 56.1265 76.1379ZM67.2637 88.3552C64.6048 88.3552 62.5224 87.5822 61.5494 86.2349C60.2798 84.476 59.1585 83.4526 58.1691 82.5491C57.2911 81.7479 56.4622 80.9906 55.6652 79.8437C55.5025 79.5952 55.4362 78.0629 55.5322 77.4676C55.6475 77.6141 55.8078 77.8337 55.9645 78.0491C57.2628 79.8322 60.3035 84.0068 64.5544 85.0287C65.1807 85.1791 66.0867 85.2618 67.1044 85.2618C69.3884 85.2618 73.265 84.8137 74.4293 83.2037C74.471 83.5222 74.512 84.0933 74.512 85.1076C74.512 86.8076 71.057 88.3552 67.2637 88.3552Z" stroke="#246B6D" stroke-width="0.5"/>
<path d="M125 82.4993H125.25V82.2493V77.2493C125.25 76.8258 125.353 76.4552 125.507 76.1989C125.664 75.9379 125.846 75.8327 126 75.8327H127C127.429 75.8327 127.861 76.1248 128.199 76.6885C128.534 77.2471 128.75 78.0344 128.75 78.916C128.75 80.0993 128.357 81.0888 127.826 81.6067L127.75 81.6803V81.7858V88.0827C127.75 88.2739 127.703 88.4363 127.639 88.5426C127.572 88.6544 127.515 88.666 127.5 88.666H125.5C125.485 88.666 125.428 88.6544 125.361 88.5426C125.297 88.4363 125.25 88.2739 125.25 88.0827V87.2493V86.9993H125H113H112.75V87.2493V88.0827C112.75 88.2739 112.703 88.4363 112.639 88.5426C112.572 88.6544 112.515 88.666 112.5 88.666H110.5C110.485 88.666 110.428 88.6544 110.361 88.5426C110.297 88.4363 110.25 88.2739 110.25 88.0827V81.7858V81.6803L110.174 81.6067C109.643 81.0888 109.25 80.0993 109.25 78.916C109.25 78.0344 109.466 77.2471 109.801 76.6885C110.139 76.1248 110.571 75.8327 111 75.8327H112C112.154 75.8327 112.336 75.9379 112.493 76.1989C112.647 76.4552 112.75 76.8258 112.75 77.2493V82.2493V82.4993H113H125ZM123.75 80.3327H114.25V77.2493C114.25 76.2924 114.017 75.4131 113.628 74.7646C113.242 74.1213 112.674 73.666 112 73.666H111.254C111.292 72.4243 111.61 71.3157 112.093 70.5095C112.612 69.6445 113.294 69.166 114 69.166H124C124.706 69.166 125.388 69.6445 125.907 70.5095C126.39 71.3157 126.708 72.4243 126.746 73.666H126C125.326 73.666 124.758 74.1213 124.372 74.7646C123.983 75.4131 123.75 76.2924 123.75 77.2493V80.3327Z" fill="#246B6D" fill-opacity="0.7" stroke="#246B6D" stroke-width="0.5"/>
<path d="M179.41 71.3288L179.576 71.516C178.951 72.0687 178.685 72.8027 178.82 73.4787L178.839 73.5768L178.786 73.6614L178.769 73.6875L178.545 74.0423L178.34 73.6759C178.061 73.1782 177.759 72.7194 177.442 72.311C175.955 70.3988 173.888 69.263 171.78 69.1721C171.687 69.168 171.593 69.166 171.499 69.166C169.149 69.166 166.879 70.4607 165.28 72.7568C163.689 75.0413 162.98 78.0221 163.343 80.9328C163.373 81.1761 163.411 81.4219 163.456 81.6636L163.456 81.6637C164.05 84.8849 165.557 87.2815 167.54 88.2979L167.54 88.2979C168.022 88.5449 168.5 88.666 168.962 88.666C170.094 88.666 171.12 87.9222 171.75 86.5367C171.99 86.0086 172.144 85.4643 172.209 84.9189C172.246 84.61 172.221 84.2974 172.194 83.9664L172.193 83.9545C172.167 83.6262 172.139 83.2856 172.184 82.9391C172.236 82.534 172.38 82.1866 172.617 81.9373C172.857 81.684 173.178 81.5484 173.545 81.5484C173.751 81.5484 173.957 81.5901 174.158 81.6691L174.4 81.7644L174.295 82.0029C174.091 82.4631 173.907 82.9019 173.746 83.3081L173.529 83.2222L173.746 83.3081C173.403 84.1706 173.171 84.8758 173.051 85.4072C173.012 85.5777 172.949 85.862 172.95 86.1506C172.952 86.4454 173.02 86.6846 173.186 86.826C173.281 86.9076 173.399 86.9376 173.533 86.907L173.533 86.907C173.535 86.9064 173.538 86.9059 173.541 86.9052C173.652 86.8816 174.19 86.7668 175.764 84.5581L175.764 84.5581C176.195 83.9528 176.661 83.2509 177.149 82.4713L177.192 82.4037L177.265 82.3731C178.434 81.888 179.364 80.6668 179.61 79.2471L179.611 79.247C179.672 78.8917 179.698 78.5091 179.687 78.1093L179.685 78.044L179.716 77.9862C180.185 77.093 180.596 76.26 181.01 75.3645C181.016 75.3514 181.022 75.3364 181.029 75.3192L181.072 75.2138L181.18 75.1773C181.69 75.0054 182.166 74.5001 182.454 73.7347L182.454 73.7346C182.874 72.621 182.851 71.1637 182.358 69.626C182.352 69.607 182.344 69.5949 182.338 69.5883C182.335 69.5913 182.331 69.5957 182.328 69.6019C182.328 69.6019 182.328 69.6019 182.328 69.6019L179.41 71.3288ZM179.41 71.3288L179.576 71.516C180.025 71.1187 180.438 70.9364 180.867 70.7483L179.41 71.3288ZM176.019 75.2551L176.019 75.2551C175.767 75.7485 175.315 76.0734 174.793 76.0734C174.51 76.0734 174.239 75.9745 174.009 75.7962L174.009 75.7962C173.686 75.5455 173.472 75.1638 173.393 74.7323C173.313 74.3006 173.374 73.8533 173.569 73.472L176.019 75.2551ZM176.019 75.2551C176.213 74.8739 176.274 74.4266 176.195 73.9948L176.195 73.9948M176.019 75.2551L176.195 73.9948M176.195 73.9948C176.115 73.5633 175.901 73.1816 175.578 72.931C175.349 72.7526 175.078 72.6538 174.795 72.6538C174.273 72.6538 173.821 72.9786 173.569 73.472L176.195 73.9948ZM168.046 77.2083L168.046 77.2084C167.794 77.7018 167.342 78.0267 166.82 78.0267C166.537 78.0267 166.266 77.9278 166.037 77.7495C165.714 77.4988 165.5 77.1172 165.42 76.6856C165.341 76.2538 165.401 75.8065 165.596 75.4253L168.046 77.2083ZM168.046 77.2083C168.441 76.435 168.265 75.3964 167.605 74.8842C167.376 74.7059 167.105 74.607 166.822 74.607C166.3 74.607 165.848 74.9319 165.596 75.4252L168.046 77.2083ZM179.353 74.4895L179.131 74.2426L178.955 74.5239C178.351 75.4896 177.715 76.5744 177.114 77.6654C176.024 79.6445 175.054 81.625 174.382 83.2431C174.007 84.1468 173.734 84.9183 173.59 85.4881L173.367 86.3652L174.008 85.7268C174.387 85.3501 174.868 84.7526 175.409 83.9922C176.381 82.6277 177.516 80.7867 178.605 78.8086C179.268 77.6048 179.817 76.54 180.327 75.4646L180.439 75.229L180.199 75.1272C180.016 75.0498 179.833 74.9349 179.654 74.7821L179.517 74.9424L179.654 74.7821C179.544 74.6878 179.443 74.5894 179.353 74.4895ZM165.356 80.8771L165.356 80.8771C165.161 81.2582 165.1 81.7055 165.18 82.1372L165.18 82.1372C165.259 82.5688 165.473 82.9504 165.796 83.2011L165.796 83.2011C166.026 83.3794 166.297 83.4783 166.579 83.4783C167.101 83.4783 167.553 83.1534 167.805 82.6601C168 82.2788 168.061 81.8316 167.981 81.3998C167.902 80.9683 167.688 80.5866 167.365 80.3359L167.365 80.3359C167.135 80.1577 166.864 80.0588 166.582 80.0588C166.06 80.0588 165.608 80.3836 165.356 80.8771ZM169.149 72.2079L169.149 72.208C168.954 72.5892 168.893 73.0365 168.973 73.4683C169.053 73.8998 169.266 74.2814 169.589 74.532C169.819 74.7104 170.09 74.8093 170.373 74.8093C170.894 74.8093 171.346 74.4844 171.599 73.9909L171.599 73.9909C171.994 73.2175 171.818 72.1788 171.158 71.6668C170.928 71.4885 170.657 71.3896 170.375 71.3896C169.853 71.3896 169.401 71.7145 169.149 72.2079Z" fill="#246B6D" fill-opacity="0.7" stroke="#246B6D" stroke-width="0.5"/>
<g clip-path="url(#clip0)">
<path d="M199.199 70.6345H200.828C201.002 70.6345 201.143 70.4931 201.143 70.3187C201.143 70.1443 201.002 70.0029 200.828 70.0029H199.199C199.024 70.0029 198.883 70.1443 198.883 70.3187C198.883 70.4931 199.024 70.6345 199.199 70.6345Z" fill="#246B6D"/>
<path d="M209.405 76.4431L208.318 71.9663C208.307 71.922 208.043 70.8761 207.004 70.4345C206.252 70.1149 203.873 69.2119 203.278 68.9864C203.223 68.9425 203.154 68.916 203.079 68.916H203.034H196.97C196.96 68.916 196.95 68.9166 196.939 68.9175C196.935 68.918 196.931 68.9187 196.927 68.9193C196.921 68.92 196.916 68.9208 196.91 68.9218C196.905 68.9228 196.9 68.9241 196.895 68.9253C196.89 68.9264 196.886 68.9275 196.881 68.9287C196.876 68.9303 196.871 68.932 196.866 68.9338C196.863 68.9347 196.861 68.9354 196.858 68.9364C196.735 68.9827 193.843 70.0759 193 70.4345C192.001 70.8591 191.718 71.8418 191.688 71.9563V71.9563C191.687 71.9584 191.687 71.9617 191.687 71.9617C191.686 71.9638 191.685 71.9662 191.685 71.9662L190.913 75.1477L190.599 76.4432C190.562 76.5961 190.643 76.753 190.789 76.8111L193.893 78.0443V87.3164V88.6002C193.893 88.7747 194.035 88.916 194.209 88.916H205.794C205.969 88.916 206.11 88.7747 206.11 88.6002V87.3164V81.3038C206.11 81.1294 205.969 80.988 205.794 80.988C205.62 80.988 205.478 81.1295 205.478 81.3038V87.0006H197.717C197.543 87.0006 197.402 87.142 197.402 87.3164C197.402 87.4908 197.543 87.6322 197.717 87.6322H205.478V88.2844H194.525V87.6322H196.665C196.839 87.6322 196.98 87.4908 196.98 87.3164C196.98 87.142 196.839 87.0006 196.665 87.0006H194.525V77.8299V76.4758V74.0287C194.525 73.9711 194.509 73.9146 194.48 73.8654L192.887 71.2316C192.99 71.1489 193.109 71.0744 193.247 71.0158C193.893 70.7411 195.832 70.0014 196.678 69.68C196.882 71.5463 198.331 73.0472 200.024 73.0472C201.713 73.0472 203.159 71.5551 203.369 69.6964C204.236 70.0261 206.121 70.7456 206.757 71.0158C206.895 71.0743 207.014 71.1489 207.117 71.2315L205.524 73.8653C205.494 73.9146 205.478 73.9711 205.478 74.0287V76.4757V77.8299V80.2512C205.478 80.4256 205.62 80.567 205.794 80.567C205.969 80.567 206.11 80.4256 206.11 80.2512V78.0442L209.214 76.811C209.36 76.753 209.442 76.5961 209.405 76.4431ZM193.893 77.3647L191.277 76.3254L191.44 75.6566L193.893 76.6857L193.893 77.3647ZM193.893 74.1168V76.0009L191.591 75.035L192.299 72.1166C192.3 72.1131 192.343 71.9502 192.459 71.7442L193.893 74.1168ZM200.024 72.4156C198.776 72.4156 197.445 71.2763 197.299 69.5476H202.75C202.604 71.2764 201.272 72.4156 200.024 72.4156ZM206.11 74.1168L207.545 71.7441C207.621 71.879 207.665 71.9954 207.687 72.0602V72.0602C207.689 72.0663 207.691 72.0725 207.693 72.0777L207.694 72.0806C207.695 72.0847 207.696 72.0884 207.697 72.0918L207.699 72.0957C207.699 72.0985 207.7 72.1009 207.701 72.1031L207.702 72.1062L207.703 72.1106L207.703 72.113L207.704 72.1152L208.413 75.0351L206.11 76.0009L206.11 74.1168ZM206.11 77.3647V76.6857L208.564 75.6566L208.726 76.3254L206.11 77.3647Z" fill="#246B6D"/>
<path d="M205.719 77.7598V88.6348H200.062H194.406H194.25L194.094 77.7598L190.969 76.4785L191.75 72.9785L192.188 71.5723L192.719 71.0098L197.062 69.166L203.344 69.3535L207.344 71.0098L207.781 71.5723L209.062 76.4785L205.719 77.7598Z" fill="#246B6D" fill-opacity="0.5"/>
</g>
<defs>
<filter id="filter0_d" x="5" y="0.75" width="202" height="62" filterUnits="userSpaceOnUse" color-interpolation-filters="sRGB">
<feFlood flood-opacity="0" result="BackgroundImageFix"/>
<feColorMatrix in="SourceAlpha" type="matrix" values="0 0 0 0 0 0 0 0 0 0 0 0 0 0 0 0 0 0 127 0"/>
<feOffset dy="1"/>
<feGaussianBlur stdDeviation="0.5"/>
<feColorMatrix type="matrix" values="0 0 0 0 0 0 0 0 0 0 0 0 0 0 0 0 0 0 0.25 0"/>
<feBlend mode="normal" in2="BackgroundImageFix" result="effect1_dropShadow"/>
<feBlend mode="normal" in="SourceGraphic" in2="effect1_dropShadow" result="shape"/>
</filter>
<filter id="filter1_d" x="239" y="43.75" width="132" height="24" filterUnits="userSpaceOnUse" color-interpolation-filters="sRGB">
<feFlood flood-opacity="0" result="BackgroundImageFix"/>
<feColorMatrix in="SourceAlpha" type="matrix" values="0 0 0 0 0 0 0 0 0 0 0 0 0 0 0 0 0 0 127 0"/>
<feOffset dy="1"/>
<feGaussianBlur stdDeviation="0.5"/>
<feColorMatrix type="matrix" values="0 0 0 0 0 0 0 0 0 0 0 0 0 0 0 0 0 0 0.25 0"/>
<feBlend mode="normal" in2="BackgroundImageFix" result="effect1_dropShadow"/>
<feBlend mode="normal" in="SourceGraphic" in2="effect1_dropShadow" result="shape"/>
</filter>
<filter id="filter2_d" x="239" y="72.0771" width="132" height="24" filterUnits="userSpaceOnUse" color-interpolation-filters="sRGB">
<feFlood flood-opacity="0" result="BackgroundImageFix"/>
<feColorMatrix in="SourceAlpha" type="matrix" values="0 0 0 0 0 0 0 0 0 0 0 0 0 0 0 0 0 0 127 0"/>
<feOffset dy="1"/>
<feGaussianBlur stdDeviation="0.5"/>
<feColorMatrix type="matrix" values="0 0 0 0 0 0 0 0 0 0 0 0 0 0 0 0 0 0 0.25 0"/>
<feBlend mode="normal" in2="BackgroundImageFix" result="effect1_dropShadow"/>
<feBlend mode="normal" in="SourceGraphic" in2="effect1_dropShadow" result="shape"/>
</filter>
<filter id="filter3_d" x="12.5098" y="67.0693" width="33.3118" height="23.88" filterUnits="userSpaceOnUse" color-interpolation-filters="sRGB">
<feFlood flood-opacity="0" result="BackgroundImageFix"/>
<feColorMatrix in="SourceAlpha" type="matrix" values="0 0 0 0 0 0 0 0 0 0 0 0 0 0 0 0 0 0 127 0"/>
<feOffset dy="1"/>
<feGaussianBlur stdDeviation="0.5"/>
<feColorMatrix type="matrix" values="0 0 0 0 0 0 0 0 0 0 0 0 0 0 0 0 0 0 0.25 0"/>
<feBlend mode="normal" in2="BackgroundImageFix" result="effect1_dropShadow"/>
<feBlend mode="normal" in="SourceGraphic" in2="effect1_dropShadow" result="shape"/>
</filter>
<filter id="filter4_d" x="266.979" y="14.0371" width="63.3312" height="21.577" filterUnits="userSpaceOnUse" color-interpolation-filters="sRGB">
<feFlood flood-opacity="0" result="BackgroundImageFix"/>
<feColorMatrix in="SourceAlpha" type="matrix" values="0 0 0 0 0 0 0 0 0 0 0 0 0 0 0 0 0 0 127 0"/>
<feOffset dy="1"/>
<feGaussianBlur stdDeviation="0.5"/>
<feColorMatrix type="matrix" values="0 0 0 0 0 0 0 0 0 0 0 0 0 0 0 0 0 0 0.25 0"/>
<feBlend mode="normal" in2="BackgroundImageFix" result="effect1_dropShadow"/>
<feBlend mode="normal" in="SourceGraphic" in2="effect1_dropShadow" result="shape"/>
</filter>
<clipPath id="clip0">
<path d="M190 68.916H210V88.916H190V68.916Z" fill="white"/>
</clipPath>
</defs>
</svg>
