<svg width="380" height="100" viewBox="0 0 380 100" fill="none" xmlns="http://www.w3.org/2000/svg">
<path d="M0 0H380V100H0V0Z" fill="white"/>
<g filter="url(#filter0_d)">
<path d="M20.3374 25.7329V35.6729H18.4194V31.4309H13.9114V35.6729H11.9794V25.7329H13.9114V29.7509H18.4194V25.7329H20.3374ZM25.5213 35.8129C24.924 35.8129 24.3873 35.7102 23.9113 35.5049C23.4353 35.2995 23.0293 35.0242 22.6933 34.6789C22.3666 34.3242 22.1146 33.9182 21.9373 33.4609C21.76 33.0035 21.6713 32.5229 21.6713 32.0189C21.6713 31.5055 21.76 31.0202 21.9373 30.5629C22.1146 30.1055 22.3666 29.7042 22.6933 29.3589C23.0293 29.0042 23.4353 28.7242 23.9113 28.5189C24.3873 28.3135 24.924 28.2109 25.5213 28.2109C26.1186 28.2109 26.6506 28.3135 27.1173 28.5189C27.5933 28.7242 27.9946 29.0042 28.3213 29.3589C28.6573 29.7042 28.914 30.1055 29.0913 30.5629C29.2686 31.0202 29.3573 31.5055 29.3573 32.0189C29.3573 32.5229 29.2686 33.0035 29.0913 33.4609C28.914 33.9182 28.662 34.3242 28.3353 34.6789C28.0086 35.0242 27.6073 35.2995 27.1313 35.5049C26.6553 35.7102 26.1186 35.8129 25.5213 35.8129ZM23.6033 32.0189C23.6033 32.3455 23.65 32.6442 23.7433 32.9149C23.846 33.1762 23.9813 33.4049 24.1493 33.6009C24.3266 33.7969 24.532 33.9509 24.7653 34.0629C24.9986 34.1655 25.2506 34.2169 25.5213 34.2169C25.792 34.2169 26.044 34.1655 26.2773 34.0629C26.5106 33.9509 26.7113 33.7969 26.8793 33.6009C27.0566 33.4049 27.192 33.1715 27.2853 32.9009C27.388 32.6302 27.4393 32.3315 27.4393 32.0049C27.4393 31.6875 27.388 31.3935 27.2853 31.1229C27.192 30.8522 27.0566 30.6189 26.8793 30.4229C26.7113 30.2269 26.5106 30.0775 26.2773 29.9749C26.044 29.8629 25.792 29.8069 25.5213 29.8069C25.2506 29.8069 24.9986 29.8629 24.7653 29.9749C24.532 30.0869 24.3266 30.2409 24.1493 30.4369C23.9813 30.6329 23.846 30.8662 23.7433 31.1369C23.65 31.4075 23.6033 31.7015 23.6033 32.0189ZM32.8635 35.8129C32.1075 35.8129 31.5335 35.5702 31.1415 35.0849C30.7495 34.5995 30.5535 33.8809 30.5535 32.9289V28.3369H32.4295V32.5229C32.4295 33.6522 32.8355 34.2169 33.6475 34.2169C34.0115 34.2169 34.3615 34.1095 34.6975 33.8949C35.0429 33.6709 35.3229 33.3349 35.5375 32.8869V28.3369H37.4135V33.5169C37.4135 33.7129 37.4462 33.8529 37.5115 33.9369C37.5862 34.0209 37.7029 34.0675 37.8615 34.0769V35.6729C37.6749 35.7102 37.5162 35.7335 37.3855 35.7429C37.2642 35.7522 37.1522 35.7569 37.0495 35.7569C36.7135 35.7569 36.4382 35.6822 36.2235 35.5329C36.0182 35.3742 35.8969 35.1595 35.8595 34.8889L35.8175 34.3009C35.4909 34.8049 35.0709 35.1829 34.5575 35.4349C34.0442 35.6869 33.4795 35.8129 32.8635 35.8129ZM42.0498 35.8129C41.4338 35.8129 40.8318 35.7149 40.2438 35.5189C39.6558 35.3229 39.1518 35.0429 38.7318 34.6789L39.4318 33.5029C39.8798 33.8202 40.3138 34.0629 40.7338 34.2309C41.1632 34.3895 41.5878 34.4689 42.0078 34.4689C42.3812 34.4689 42.6752 34.3989 42.8898 34.2589C43.1045 34.1189 43.2118 33.9182 43.2118 33.6569C43.2118 33.3955 43.0858 33.2042 42.8338 33.0829C42.5818 32.9615 42.1712 32.8215 41.6018 32.6629C41.1258 32.5322 40.7198 32.4062 40.3838 32.2849C40.0478 32.1635 39.7772 32.0282 39.5718 31.8789C39.3665 31.7202 39.2172 31.5429 39.1238 31.3469C39.0305 31.1415 38.9838 30.8989 38.9838 30.6189C38.9838 30.2455 39.0538 29.9095 39.1938 29.6109C39.3432 29.3122 39.5485 29.0602 39.8098 28.8549C40.0712 28.6402 40.3745 28.4769 40.7198 28.3649C41.0745 28.2529 41.4572 28.1969 41.8678 28.1969C42.4185 28.1969 42.9318 28.2762 43.4078 28.4349C43.8932 28.5935 44.3365 28.8502 44.7378 29.2049L43.9818 30.3389C43.6085 30.0589 43.2445 29.8535 42.8898 29.7229C42.5445 29.5922 42.1992 29.5269 41.8538 29.5269C41.5365 29.5269 41.2705 29.5922 41.0558 29.7229C40.8412 29.8535 40.7338 30.0635 40.7338 30.3529C40.7338 30.4835 40.7572 30.5909 40.8038 30.6749C40.8598 30.7589 40.9438 30.8335 41.0558 30.8989C41.1678 30.9642 41.3125 31.0295 41.4898 31.0949C41.6765 31.1509 41.9052 31.2115 42.1758 31.2769C42.6798 31.4075 43.1092 31.5382 43.4638 31.6689C43.8278 31.7995 44.1218 31.9489 44.3458 32.1169C44.5792 32.2849 44.7472 32.4809 44.8498 32.7049C44.9618 32.9195 45.0178 33.1809 45.0178 33.4889C45.0178 34.2075 44.7518 34.7769 44.2198 35.1969C43.6878 35.6075 42.9645 35.8129 42.0498 35.8129ZM46.2368 35.6729V28.3369H48.1128V35.6729H46.2368ZM46.2368 27.3149V25.4529H48.1128V27.3149H46.2368ZM56.6232 35.6729H54.7472V31.5569C54.7472 30.9689 54.6445 30.5395 54.4392 30.2689C54.2338 29.9982 53.9492 29.8629 53.5852 29.8629C53.3985 29.8629 53.2072 29.9002 53.0112 29.9749C52.8152 30.0495 52.6285 30.1569 52.4512 30.2969C52.2832 30.4275 52.1292 30.5862 51.9892 30.7729C51.8492 30.9595 51.7465 31.1649 51.6812 31.3889V35.6729H49.8052V28.3369H51.4992V29.6949C51.7698 29.2282 52.1618 28.8642 52.6752 28.6029C53.1885 28.3415 53.7672 28.2109 54.4112 28.2109C54.8685 28.2109 55.2418 28.2949 55.5312 28.4629C55.8205 28.6309 56.0445 28.8502 56.2032 29.1209C56.3618 29.3915 56.4692 29.6995 56.5252 30.0449C56.5905 30.3902 56.6232 30.7402 56.6232 31.0949V35.6729ZM61.1244 35.7149C60.6297 35.7149 60.1817 35.6169 59.7804 35.4209C59.3791 35.2249 59.0291 34.9589 58.7304 34.6229C58.4411 34.2775 58.2171 33.8809 58.0584 33.4329C57.8997 32.9849 57.8204 32.5089 57.8204 32.0049C57.8204 31.4729 57.9044 30.9782 58.0724 30.5209C58.2404 30.0635 58.4737 29.6622 58.7724 29.3169C59.0711 28.9715 59.4304 28.7009 59.8504 28.5049C60.2704 28.3089 60.7324 28.2109 61.2364 28.2109C61.8057 28.2109 62.3051 28.3415 62.7344 28.6029C63.1637 28.8549 63.5184 29.1955 63.7984 29.6249V28.3369H65.4364V35.3229C65.4364 35.8642 65.3337 36.3495 65.1284 36.7789C64.9231 37.2082 64.6384 37.5722 64.2744 37.8709C63.9197 38.1695 63.4904 38.3982 62.9864 38.5569C62.4917 38.7155 61.9504 38.7949 61.3624 38.7949C60.5597 38.7949 59.8831 38.6595 59.3324 38.3889C58.7911 38.1275 58.3244 37.7542 57.9324 37.2689L58.9544 36.2749C59.2344 36.6202 59.5844 36.8909 60.0044 37.0869C60.4337 37.2829 60.8864 37.3809 61.3624 37.3809C61.6517 37.3809 61.9271 37.3389 62.1884 37.2549C62.4591 37.1802 62.6971 37.0589 62.9024 36.8909C63.1077 36.7229 63.2664 36.5082 63.3784 36.2469C63.4997 35.9855 63.5604 35.6775 63.5604 35.3229V34.3989C63.3177 34.8189 62.9771 35.1455 62.5384 35.3789C62.0997 35.6029 61.6284 35.7149 61.1244 35.7149ZM61.7544 34.2169C61.9597 34.2169 62.1557 34.1842 62.3424 34.1189C62.5291 34.0535 62.7017 33.9649 62.8604 33.8529C63.0191 33.7409 63.1591 33.6102 63.2804 33.4609C63.4017 33.3115 63.4951 33.1529 63.5604 32.9849V31.2349C63.3924 30.8055 63.1264 30.4602 62.7624 30.1989C62.4077 29.9375 62.0344 29.8069 61.6424 29.8069C61.3531 29.8069 61.0917 29.8722 60.8584 30.0029C60.6251 30.1242 60.4244 30.2922 60.2564 30.5069C60.0884 30.7122 59.9577 30.9502 59.8644 31.2209C59.7804 31.4915 59.7384 31.7715 59.7384 32.0609C59.7384 32.3595 59.7897 32.6395 59.8924 32.9009C59.9951 33.1622 60.1351 33.3909 60.3124 33.5869C60.4991 33.7829 60.7137 33.9369 60.9564 34.0489C61.1991 34.1609 61.4651 34.2169 61.7544 34.2169ZM73.6242 25.7609H75.4022L76.5222 29.0509L77.6422 25.7609H79.4342L77.7402 30.2829L79.0002 33.4609L81.8142 25.7329H83.9142L79.8682 35.6729H78.2442L76.5222 31.5009L74.8002 35.6729H73.1762L69.1582 25.7329H71.2302L74.0582 33.4609L75.2902 30.2829L73.6242 25.7609ZM87.2361 35.8129C86.6388 35.8129 86.1021 35.7102 85.6261 35.5049C85.1501 35.2995 84.7441 35.0242 84.4081 34.6789C84.0815 34.3242 83.8295 33.9182 83.6521 33.4609C83.4748 33.0035 83.3861 32.5229 83.3861 32.0189C83.3861 31.5055 83.4748 31.0202 83.6521 30.5629C83.8295 30.1055 84.0815 29.7042 84.4081 29.3589C84.7441 29.0042 85.1501 28.7242 85.6261 28.5189C86.1021 28.3135 86.6388 28.2109 87.2361 28.2109C87.8335 28.2109 88.3655 28.3135 88.8321 28.5189C89.3081 28.7242 89.7095 29.0042 90.0361 29.3589C90.3721 29.7042 90.6288 30.1055 90.8061 30.5629C90.9835 31.0202 91.0721 31.5055 91.0721 32.0189C91.0721 32.5229 90.9835 33.0035 90.8061 33.4609C90.6288 33.9182 90.3768 34.3242 90.0501 34.6789C89.7235 35.0242 89.3221 35.2995 88.8461 35.5049C88.3701 35.7102 87.8335 35.8129 87.2361 35.8129ZM85.3181 32.0189C85.3181 32.3455 85.3648 32.6442 85.4581 32.9149C85.5608 33.1762 85.6961 33.4049 85.8641 33.6009C86.0415 33.7969 86.2468 33.9509 86.4801 34.0629C86.7135 34.1655 86.9655 34.2169 87.2361 34.2169C87.5068 34.2169 87.7588 34.1655 87.9921 34.0629C88.2255 33.9509 88.4261 33.7969 88.5941 33.6009C88.7715 33.4049 88.9068 33.1715 89.0001 32.9009C89.1028 32.6302 89.1541 32.3315 89.1541 32.0049C89.1541 31.6875 89.1028 31.3935 89.0001 31.1229C88.9068 30.8522 88.7715 30.6189 88.5941 30.4229C88.4261 30.2269 88.2255 30.0775 87.9921 29.9749C87.7588 29.8629 87.5068 29.8069 87.2361 29.8069C86.9655 29.8069 86.7135 29.8629 86.4801 29.9749C86.2468 30.0869 86.0415 30.2409 85.8641 30.4369C85.6961 30.6329 85.5608 30.8662 85.4581 31.1369C85.3648 31.4075 85.3181 31.7015 85.3181 32.0189ZM96.7064 29.9609C96.137 29.9702 95.6284 30.0822 95.1804 30.2969C94.7324 30.5022 94.4104 30.8149 94.2144 31.2349V35.6729H92.3384V28.3369H94.0604V29.9049C94.191 29.6529 94.345 29.4289 94.5224 29.2329C94.6997 29.0275 94.891 28.8502 95.0964 28.7009C95.3017 28.5515 95.507 28.4395 95.7124 28.3649C95.927 28.2809 96.1324 28.2389 96.3284 28.2389C96.431 28.2389 96.5057 28.2389 96.5524 28.2389C96.6084 28.2389 96.6597 28.2435 96.7064 28.2529V29.9609ZM102.764 35.6729L100.636 32.4949L99.6284 33.4889V35.6729H97.7524V25.4529H99.6284V31.6549L102.568 28.3509H104.57L101.84 31.4589L104.766 35.6729H102.764ZM108.331 35.8129C107.715 35.8129 107.113 35.7149 106.525 35.5189C105.937 35.3229 105.433 35.0429 105.013 34.6789L105.713 33.5029C106.161 33.8202 106.595 34.0629 107.015 34.2309C107.444 34.3895 107.869 34.4689 108.289 34.4689C108.662 34.4689 108.956 34.3989 109.171 34.2589C109.386 34.1189 109.493 33.9182 109.493 33.6569C109.493 33.3955 109.367 33.2042 109.115 33.0829C108.863 32.9615 108.452 32.8215 107.883 32.6629C107.407 32.5322 107.001 32.4062 106.665 32.2849C106.329 32.1635 106.058 32.0282 105.853 31.8789C105.648 31.7202 105.498 31.5429 105.405 31.3469C105.312 31.1415 105.265 30.8989 105.265 30.6189C105.265 30.2455 105.335 29.9095 105.475 29.6109C105.624 29.3122 105.83 29.0602 106.091 28.8549C106.352 28.6402 106.656 28.4769 107.001 28.3649C107.356 28.2529 107.738 28.1969 108.149 28.1969C108.7 28.1969 109.213 28.2762 109.689 28.4349C110.174 28.5935 110.618 28.8502 111.019 29.2049L110.263 30.3389C109.89 30.0589 109.526 29.8535 109.171 29.7229C108.826 29.5922 108.48 29.5269 108.135 29.5269C107.818 29.5269 107.552 29.5922 107.337 29.7229C107.122 29.8535 107.015 30.0635 107.015 30.3529C107.015 30.4835 107.038 30.5909 107.085 30.6749C107.141 30.7589 107.225 30.8335 107.337 30.8989C107.449 30.9642 107.594 31.0295 107.771 31.0949C107.958 31.1509 108.186 31.2115 108.457 31.2769C108.961 31.4075 109.39 31.5382 109.745 31.6689C110.109 31.7995 110.403 31.9489 110.627 32.1169C110.86 32.2849 111.028 32.4809 111.131 32.7049C111.243 32.9195 111.299 33.1809 111.299 33.4889C111.299 34.2075 111.033 34.7769 110.501 35.1969C109.969 35.6075 109.246 35.8129 108.331 35.8129Z" fill="#5C5C5C"/>
</g>
<g filter="url(#filter1_d)">
<path d="M240 51C240 46.5817 243.582 43 248 43H362C366.418 43 370 46.5817 370 51V57C370 61.4183 366.418 65 362 65H248C243.582 65 240 61.4183 240 57V51Z" fill="#246B6D"/>
<path d="M350.713 47L349 48.645L354.563 54L349 59.355L350.713 61L358 54L350.713 47Z" fill="white"/>
<path d="M270.293 50.8965V56.5332H271.957C272.808 56.5332 273.402 56.1133 273.738 55.2734C273.921 54.8125 274.013 54.2637 274.013 53.627C274.013 52.748 273.875 52.0742 273.597 51.6055C273.324 51.1328 272.777 50.8965 271.957 50.8965H270.293ZM272.261 49.3965C272.796 49.4043 273.242 49.4668 273.597 49.584C274.203 49.7832 274.693 50.1484 275.068 50.6797C275.369 51.1094 275.574 51.5742 275.683 52.0742C275.793 52.5742 275.847 53.0508 275.847 53.5039C275.847 54.6523 275.617 55.625 275.156 56.4219C274.531 57.4961 273.566 58.0332 272.261 58.0332H268.541V49.3965H272.261ZM278.794 50.8848H277.101V49.3438H278.794V50.8848ZM277.101 51.6465H278.794V58.0332H277.101V51.6465ZM283.886 51.4941C283.918 51.4941 283.943 51.4961 283.962 51.5C283.986 51.5 284.035 51.502 284.109 51.5059V53.2168C284.003 53.2051 283.91 53.1973 283.828 53.1934C283.746 53.1895 283.679 53.1875 283.628 53.1875C282.957 53.1875 282.505 53.4062 282.275 53.8438C282.146 54.0898 282.082 54.4688 282.082 54.9805V58.0332H280.4V51.6465H281.994V52.7598C282.252 52.334 282.476 52.043 282.668 51.8867C282.98 51.625 283.386 51.4941 283.886 51.4941ZM287.613 52.8535C287.226 52.8535 286.925 52.9746 286.711 53.2168C286.5 53.459 286.367 53.7871 286.312 54.2012H288.908C288.88 53.7598 288.746 53.4258 288.503 53.1992C288.265 52.9688 287.968 52.8535 287.613 52.8535ZM287.613 51.4766C288.144 51.4766 288.623 51.5762 289.048 51.7754C289.474 51.9746 289.826 52.2891 290.103 52.7188C290.353 53.0977 290.515 53.5371 290.589 54.0371C290.632 54.3301 290.65 54.752 290.642 55.3027H286.271C286.294 55.9434 286.496 56.3926 286.875 56.6504C287.105 56.8105 287.382 56.8906 287.707 56.8906C288.05 56.8906 288.33 56.793 288.544 56.5977C288.662 56.4922 288.765 56.3457 288.855 56.1582H290.56C290.517 56.5371 290.32 56.9219 289.968 57.3125C289.421 57.9336 288.656 58.2441 287.671 58.2441C286.859 58.2441 286.142 57.9824 285.521 57.459C284.9 56.9355 284.589 56.084 284.589 54.9043C284.589 53.7988 284.869 52.9512 285.427 52.3613C285.99 51.7715 286.718 51.4766 287.613 51.4766ZM295.587 53.9375C295.556 53.6992 295.476 53.4844 295.347 53.293C295.16 53.0352 294.869 52.9062 294.474 52.9062C293.912 52.9062 293.527 53.1855 293.32 53.7441C293.211 54.041 293.156 54.4355 293.156 54.9277C293.156 55.3965 293.211 55.7734 293.32 56.0586C293.519 56.5898 293.894 56.8555 294.445 56.8555C294.836 56.8555 295.113 56.75 295.277 56.5391C295.441 56.3281 295.541 56.0547 295.576 55.7188H297.281C297.242 56.2266 297.058 56.707 296.73 57.1602C296.207 57.8906 295.431 58.2559 294.404 58.2559C293.377 58.2559 292.621 57.9512 292.136 57.3418C291.652 56.7324 291.41 55.9414 291.41 54.9688C291.41 53.8711 291.677 53.0176 292.212 52.4082C292.748 51.7988 293.486 51.4941 294.427 51.4941C295.228 51.4941 295.882 51.6738 296.39 52.0332C296.902 52.3926 297.205 53.0273 297.298 53.9375H295.587ZM297.796 52.8945V51.7051H298.687V49.9238H300.339V51.7051H301.377V52.8945H300.339V56.2695C300.339 56.5312 300.373 56.6953 300.439 56.7617C300.505 56.8242 300.709 56.8555 301.048 56.8555C301.099 56.8555 301.152 56.8555 301.207 56.8555C301.265 56.8516 301.322 56.8477 301.377 56.8438V58.0918L300.586 58.1211C299.796 58.1484 299.257 58.0117 298.968 57.7109C298.781 57.5195 298.687 57.2246 298.687 56.8262V52.8945H297.796ZM304.166 50.8848H302.472V49.3438H304.166V50.8848ZM302.472 51.6465H304.166V58.0332H302.472V51.6465ZM308.654 56.8555C309.142 56.8555 309.517 56.6816 309.779 56.334C310.041 55.9863 310.171 55.4922 310.171 54.8516C310.171 54.2109 310.041 53.7188 309.779 53.375C309.517 53.0273 309.142 52.8535 308.654 52.8535C308.166 52.8535 307.789 53.0273 307.523 53.375C307.261 53.7188 307.13 54.2109 307.13 54.8516C307.13 55.4922 307.261 55.9863 307.523 56.334C307.789 56.6816 308.166 56.8555 308.654 56.8555ZM311.923 54.8516C311.923 55.7891 311.654 56.5918 311.115 57.2598C310.576 57.9238 309.757 58.2559 308.66 58.2559C307.562 58.2559 306.744 57.9238 306.205 57.2598C305.666 56.5918 305.396 55.7891 305.396 54.8516C305.396 53.9297 305.666 53.1309 306.205 52.4551C306.744 51.7793 307.562 51.4414 308.66 51.4414C309.757 51.4414 310.576 51.7793 311.115 52.4551C311.654 53.1309 311.923 53.9297 311.923 54.8516ZM316.664 51.4941C317.324 51.4941 317.863 51.668 318.281 52.0156C318.703 52.3594 318.914 52.9316 318.914 53.7324V58.0332H317.203V54.1484C317.203 53.8125 317.158 53.5547 317.068 53.375C316.904 53.0469 316.591 52.8828 316.13 52.8828C315.564 52.8828 315.175 53.123 314.964 53.6035C314.855 53.8574 314.8 54.1816 314.8 54.5762V58.0332H313.136V51.6582H314.748V52.5898C314.962 52.2617 315.166 52.0254 315.357 51.8809C315.701 51.623 316.136 51.4941 316.664 51.4941ZM321.761 55.9941C321.796 56.291 321.873 56.502 321.99 56.627C322.197 56.8496 322.58 56.9609 323.138 56.9609C323.466 56.9609 323.726 56.9121 323.918 56.8145C324.113 56.7168 324.211 56.5703 324.211 56.375C324.211 56.1875 324.132 56.0449 323.976 55.9473C323.82 55.8496 323.24 55.6816 322.236 55.4434C321.513 55.2637 321.003 55.0391 320.707 54.7695C320.41 54.5039 320.261 54.1211 320.261 53.6211C320.261 53.0312 320.492 52.5254 320.953 52.1035C321.418 51.6777 322.07 51.4648 322.91 51.4648C323.707 51.4648 324.355 51.625 324.855 51.9453C325.359 52.2617 325.648 52.8105 325.722 53.5918H324.052C324.029 53.377 323.968 53.207 323.871 53.082C323.687 52.8555 323.375 52.7422 322.933 52.7422C322.57 52.7422 322.31 52.7988 322.154 52.9121C322.002 53.0254 321.925 53.1582 321.925 53.3105C321.925 53.502 322.007 53.6406 322.171 53.7266C322.336 53.8164 322.916 53.9707 323.912 54.1895C324.576 54.3457 325.074 54.582 325.406 54.8984C325.734 55.2188 325.898 55.6191 325.898 56.0996C325.898 56.7324 325.662 57.25 325.189 57.6523C324.72 58.0508 323.994 58.25 323.009 58.25C322.005 58.25 321.263 58.0391 320.783 57.6172C320.306 57.1914 320.068 56.6504 320.068 55.9941H321.761Z" fill="white"/>
</g>
<g filter="url(#filter2_d)">
<path d="M240 79.3271C240 74.9089 243.582 71.3271 248 71.3271H362C366.418 71.3271 370 74.9089 370 79.3271V85.3271C370 89.7454 366.418 93.3271 362 93.3271H248C243.582 93.3271 240 89.7454 240 85.3271V79.3271Z" fill="white"/>
<path d="M286.517 82.1123C286.517 80.6045 286.921 79.4424 287.73 78.626C288.433 77.915 289.328 77.5596 290.414 77.5596C291.867 77.5596 292.929 78.0361 293.601 78.9893C293.972 79.5244 294.171 80.0615 294.199 80.6006H292.394C292.277 80.1865 292.127 79.874 291.943 79.6631C291.615 79.2881 291.128 79.1006 290.484 79.1006C289.828 79.1006 289.31 79.3662 288.931 79.8975C288.552 80.4248 288.363 81.1729 288.363 82.1416C288.363 83.1104 288.562 83.8369 288.961 84.3213C289.363 84.8018 289.873 85.042 290.49 85.042C291.123 85.042 291.605 84.835 291.937 84.4209C292.121 84.1982 292.273 83.8643 292.394 83.4189H294.181C294.025 84.3604 293.625 85.126 292.98 85.7158C292.339 86.3057 291.517 86.6006 290.513 86.6006C289.271 86.6006 288.294 86.2021 287.584 85.4053C286.873 84.6045 286.517 83.5068 286.517 82.1123ZM298.951 83.2549C298.845 83.3213 298.738 83.376 298.628 83.4189C298.523 83.458 298.377 83.4951 298.189 83.5303L297.814 83.6006C297.462 83.6631 297.211 83.7393 297.058 83.8291C296.8 83.9814 296.671 84.2178 296.671 84.5381C296.671 84.8232 296.75 85.0303 296.906 85.1592C297.066 85.2842 297.259 85.3467 297.486 85.3467C297.845 85.3467 298.175 85.2412 298.476 85.0303C298.781 84.8193 298.939 84.4346 298.951 83.876V83.2549ZM297.937 82.4756C298.246 82.4365 298.466 82.3877 298.599 82.3291C298.837 82.2275 298.957 82.0693 298.957 81.8545C298.957 81.5928 298.865 81.4131 298.681 81.3154C298.502 81.2139 298.236 81.1631 297.884 81.1631C297.49 81.1631 297.211 81.2607 297.046 81.4561C296.929 81.6006 296.851 81.7959 296.812 82.042H295.201C295.236 81.4834 295.392 81.0244 295.669 80.665C296.111 80.1025 296.869 79.8213 297.943 79.8213C298.642 79.8213 299.263 79.96 299.806 80.2373C300.349 80.5146 300.621 81.0381 300.621 81.8076V84.7373C300.621 84.9404 300.625 85.1865 300.632 85.4756C300.644 85.6943 300.677 85.8428 300.732 85.9209C300.787 85.999 300.869 86.0635 300.978 86.1143V86.3604H299.162C299.111 86.2314 299.076 86.1104 299.056 85.9971C299.037 85.8838 299.021 85.7549 299.009 85.6104C298.779 85.8604 298.513 86.0732 298.212 86.249C297.853 86.4561 297.447 86.5596 296.994 86.5596C296.416 86.5596 295.937 86.3955 295.558 86.0674C295.183 85.7354 294.996 85.2666 294.996 84.6611C294.996 83.876 295.298 83.3076 295.904 82.9561C296.236 82.7646 296.724 82.6279 297.369 82.5459L297.937 82.4756ZM303.814 86.3604H302.144V77.7236H303.814V86.3604ZM307.154 86.3604H305.484V77.7236H307.154V86.3604Z" fill="#246B6D"/>
<path d="M359.328 77.8813L357.647 76.2026C357.529 76.0836 357.388 75.9891 357.233 75.9247C357.078 75.8603 356.911 75.8271 356.743 75.8271C356.401 75.8271 356.079 75.9613 355.838 76.2026L354.03 78.0106C353.911 78.1292 353.816 78.27 353.752 78.4252C353.687 78.5803 353.654 78.7467 353.654 78.9146C353.654 79.257 353.788 79.5788 354.03 79.8202L355.352 81.1423C355.042 81.8244 354.612 82.445 354.082 82.974C353.553 83.5056 352.932 83.9374 352.25 84.2488L350.928 82.9267C350.81 82.8076 350.669 82.7132 350.514 82.6487C350.359 82.5843 350.192 82.5511 350.024 82.5512C349.682 82.5512 349.36 82.6853 349.119 82.9267L347.309 84.7331C347.19 84.8518 347.095 84.993 347.031 85.1484C346.966 85.3038 346.933 85.4704 346.934 85.6387C346.934 85.981 347.068 86.3029 347.309 86.5443L348.986 88.2213C349.371 88.6079 349.903 88.8271 350.449 88.8271C350.564 88.8271 350.674 88.8177 350.783 88.7988C352.91 88.4485 355.019 87.3173 356.721 85.6166C358.422 83.9174 359.552 81.8097 359.907 79.6767C360.014 79.0251 359.798 78.3546 359.328 77.8813V77.8813Z" fill="#246B6D" fill-opacity="0.5"/>
<path d="M248 72.3271H362V70.3271H248V72.3271ZM369 79.3271V85.3271H371V79.3271H369ZM362 92.3271H248V94.3271H362V92.3271ZM241 85.3271V79.3271H239V85.3271H241ZM248 92.3271C244.134 92.3271 241 89.1931 241 85.3271H239C239 90.2977 243.029 94.3271 248 94.3271V92.3271ZM369 85.3271C369 89.1931 365.866 92.3271 362 92.3271V94.3271C366.971 94.3271 371 90.2977 371 85.3271H369ZM362 72.3271C365.866 72.3271 369 75.4612 369 79.3271H371C371 74.3566 366.971 70.3271 362 70.3271V72.3271ZM248 70.3271C243.029 70.3271 239 74.3566 239 79.3271H241C241 75.4612 244.134 72.3271 248 72.3271V70.3271Z" fill="#246B6D"/>
</g>
<line x1="4.37114e-08" y1="99.5" x2="380" y2="99.5" stroke="#DADADA"/>
<g filter="url(#filter3_d)">
<path d="M20.6018 68.0111H17.8778V75.0791H16.2338V68.0111H13.5098V66.5591H20.6018V68.0111ZM27.3475 75.0791H25.7395V71.5511C25.7395 71.0551 25.6475 70.6911 25.4635 70.4591C25.2795 70.2191 25.0195 70.0991 24.6835 70.0991C24.5395 70.0991 24.3875 70.1311 24.2275 70.1951C24.0675 70.2591 23.9155 70.3511 23.7715 70.4711C23.6275 70.5831 23.4955 70.7191 23.3755 70.8791C23.2555 71.0391 23.1675 71.2151 23.1115 71.4071V75.0791H21.5035V66.3191H23.1115V69.9551C23.3435 69.5471 23.6555 69.2351 24.0475 69.0191C24.4475 68.7951 24.8875 68.6831 25.3675 68.6831C25.7755 68.6831 26.1075 68.7551 26.3635 68.8991C26.6195 69.0351 26.8195 69.2191 26.9635 69.4511C27.1075 69.6831 27.2075 69.9471 27.2635 70.2431C27.3195 70.5391 27.3475 70.8431 27.3475 71.1551V75.0791ZM31.6617 75.1991C31.1577 75.1991 30.7017 75.1151 30.2937 74.9471C29.8857 74.7711 29.5377 74.5351 29.2497 74.2391C28.9617 73.9431 28.7377 73.5991 28.5777 73.2071C28.4257 72.8151 28.3497 72.4031 28.3497 71.9711C28.3497 71.5231 28.4257 71.1031 28.5777 70.7111C28.7297 70.3111 28.9497 69.9631 29.2377 69.6671C29.5257 69.3631 29.8737 69.1231 30.2817 68.9471C30.6977 68.7711 31.1617 68.6831 31.6737 68.6831C32.1857 68.6831 32.6417 68.7711 33.0417 68.9471C33.4497 69.1231 33.7937 69.3591 34.0737 69.6551C34.3617 69.9511 34.5777 70.2951 34.7217 70.6871C34.8737 71.0791 34.9497 71.4871 34.9497 71.9111C34.9497 72.0151 34.9457 72.1151 34.9377 72.2111C34.9377 72.3071 34.9297 72.3871 34.9137 72.4511H30.0537C30.0777 72.6991 30.1377 72.9191 30.2337 73.1111C30.3297 73.3031 30.4537 73.4671 30.6057 73.6031C30.7577 73.7391 30.9297 73.8431 31.1217 73.9151C31.3137 73.9871 31.5137 74.0231 31.7217 74.0231C32.0417 74.0231 32.3417 73.9471 32.6217 73.7951C32.9097 73.6351 33.1057 73.4271 33.2097 73.1711L34.5897 73.5551C34.3577 74.0351 33.9857 74.4311 33.4737 74.7431C32.9697 75.0471 32.3657 75.1991 31.6617 75.1991ZM33.2937 71.4071C33.2537 70.9351 33.0777 70.5591 32.7657 70.2791C32.4617 69.9911 32.0897 69.8471 31.6497 69.8471C31.4337 69.8471 31.2297 69.8871 31.0377 69.9671C30.8537 70.0391 30.6897 70.1431 30.5457 70.2791C30.4017 70.4151 30.2817 70.5791 30.1857 70.7711C30.0977 70.9631 30.0457 71.1751 30.0297 71.4071H33.2937ZM35.8972 76.3031C36.0332 76.3431 36.1652 76.3711 36.2932 76.3871C36.4212 76.4111 36.5292 76.4231 36.6172 76.4231C36.7212 76.4231 36.8172 76.4031 36.9052 76.3631C36.9932 76.3231 37.0732 76.2511 37.1452 76.1471C37.2172 76.0511 37.2892 75.9151 37.3612 75.7391C37.4332 75.5631 37.5092 75.3431 37.5892 75.0791L35.1052 68.7911H36.7612L38.4652 73.6871L39.9772 68.7911H41.4892L38.8492 76.3271C38.6972 76.7671 38.4372 77.1271 38.0692 77.4071C37.7012 77.6871 37.2452 77.8271 36.7012 77.8271C36.5732 77.8271 36.4412 77.8151 36.3052 77.7911C36.1772 77.7751 36.0412 77.7431 35.8972 77.6951V76.3031ZM19.9178 88.0791H18.3098V84.5511C18.3098 84.0471 18.2218 83.6791 18.0458 83.4471C17.8698 83.2151 17.6258 83.0991 17.3138 83.0991C17.1538 83.0991 16.9898 83.1311 16.8218 83.1951C16.6538 83.2591 16.4938 83.3511 16.3418 83.4711C16.1978 83.5831 16.0658 83.7191 15.9458 83.8791C15.8258 84.0391 15.7378 84.2151 15.6818 84.4071V88.0791H14.0738V81.7911H15.5258V82.9551C15.7578 82.5551 16.0938 82.2431 16.5338 82.0191C16.9738 81.7951 17.4698 81.6831 18.0218 81.6831C18.4138 81.6831 18.7338 81.7551 18.9818 81.8991C19.2298 82.0431 19.4218 82.2311 19.5578 82.4631C19.6938 82.6951 19.7858 82.9591 19.8338 83.2551C19.8898 83.5511 19.9178 83.8511 19.9178 84.1551V88.0791ZM24.232 88.1991C23.728 88.1991 23.272 88.1151 22.864 87.9471C22.456 87.7711 22.108 87.5351 21.82 87.2391C21.532 86.9431 21.308 86.5991 21.148 86.2071C20.996 85.8151 20.92 85.4031 20.92 84.9711C20.92 84.5231 20.996 84.1031 21.148 83.7111C21.3 83.3111 21.52 82.9631 21.808 82.6671C22.096 82.3631 22.444 82.1231 22.852 81.9471C23.268 81.7711 23.732 81.6831 24.244 81.6831C24.756 81.6831 25.212 81.7711 25.612 81.9471C26.02 82.1231 26.364 82.3591 26.644 82.6551C26.932 82.9511 27.148 83.2951 27.292 83.6871C27.444 84.0791 27.52 84.4871 27.52 84.9111C27.52 85.0151 27.516 85.1151 27.508 85.2111C27.508 85.3071 27.5 85.3871 27.484 85.4511H22.624C22.648 85.6991 22.708 85.9191 22.804 86.1111C22.9 86.3031 23.024 86.4671 23.176 86.6031C23.328 86.7391 23.5 86.8431 23.692 86.9151C23.884 86.9871 24.084 87.0231 24.292 87.0231C24.612 87.0231 24.912 86.9471 25.192 86.7951C25.48 86.6351 25.676 86.4271 25.78 86.1711L27.16 86.5551C26.928 87.0351 26.556 87.4311 26.044 87.7431C25.54 88.0471 24.936 88.1991 24.232 88.1991ZM25.864 84.4071C25.824 83.9351 25.648 83.5591 25.336 83.2791C25.032 82.9911 24.66 82.8471 24.22 82.8471C24.004 82.8471 23.8 82.8871 23.608 82.9671C23.424 83.0391 23.26 83.1431 23.116 83.2791C22.972 83.4151 22.852 83.5791 22.756 83.7711C22.668 83.9631 22.616 84.1751 22.6 84.4071H25.864ZM31.4156 88.1991C30.9116 88.1991 30.4556 88.1151 30.0476 87.9471C29.6396 87.7711 29.2916 87.5351 29.0036 87.2391C28.7156 86.9431 28.4916 86.5991 28.3316 86.2071C28.1796 85.8151 28.1036 85.4031 28.1036 84.9711C28.1036 84.5231 28.1796 84.1031 28.3316 83.7111C28.4836 83.3111 28.7036 82.9631 28.9916 82.6671C29.2796 82.3631 29.6276 82.1231 30.0356 81.9471C30.4516 81.7711 30.9156 81.6831 31.4276 81.6831C31.9396 81.6831 32.3956 81.7711 32.7956 81.9471C33.2036 82.1231 33.5476 82.3591 33.8276 82.6551C34.1156 82.9511 34.3316 83.2951 34.4756 83.6871C34.6276 84.0791 34.7036 84.4871 34.7036 84.9111C34.7036 85.0151 34.6996 85.1151 34.6916 85.2111C34.6916 85.3071 34.6836 85.3871 34.6676 85.4511H29.8076C29.8316 85.6991 29.8916 85.9191 29.9876 86.1111C30.0836 86.3031 30.2076 86.4671 30.3596 86.6031C30.5116 86.7391 30.6836 86.8431 30.8756 86.9151C31.0676 86.9871 31.2676 87.0231 31.4756 87.0231C31.7956 87.0231 32.0956 86.9471 32.3756 86.7951C32.6636 86.6351 32.8596 86.4271 32.9636 86.1711L34.3436 86.5551C34.1116 87.0351 33.7396 87.4311 33.2276 87.7431C32.7236 88.0471 32.1196 88.1991 31.4156 88.1991ZM33.0476 84.4071C33.0076 83.9351 32.8316 83.5591 32.5196 83.2791C32.2156 82.9911 31.8436 82.8471 31.4036 82.8471C31.1876 82.8471 30.9836 82.8871 30.7916 82.9671C30.6076 83.0391 30.4436 83.1431 30.2996 83.2791C30.1556 83.4151 30.0356 83.5791 29.9396 83.7711C29.8516 83.9631 29.7996 84.1751 29.7836 84.4071H33.0476ZM38.2872 88.1991C37.8552 88.1991 37.4552 88.1151 37.0872 87.9471C36.7192 87.7791 36.4032 87.5471 36.1392 87.2511C35.8752 86.9551 35.6672 86.6111 35.5152 86.2191C35.3712 85.8191 35.2992 85.3911 35.2992 84.9351C35.2992 84.4791 35.3672 84.0551 35.5032 83.6631C35.6472 83.2711 35.8432 82.9271 36.0912 82.6311C36.3392 82.3351 36.6352 82.1031 36.9792 81.9351C37.3232 81.7671 37.6992 81.6831 38.1072 81.6831C38.5712 81.6831 38.9872 81.7951 39.3552 82.0191C39.7312 82.2431 40.0232 82.5351 40.2312 82.8951V79.3191H41.8392V86.2311C41.8392 86.3991 41.8672 86.5191 41.9232 86.5911C41.9792 86.6631 42.0752 86.7031 42.2112 86.7111V88.0791C41.9312 88.1351 41.7032 88.1631 41.5272 88.1631C41.2392 88.1631 41.0032 88.0911 40.8192 87.9471C40.6352 87.8031 40.5312 87.6151 40.5072 87.3831L40.4712 86.9871C40.2392 87.3871 39.9232 87.6911 39.5232 87.8991C39.1312 88.0991 38.7192 88.1991 38.2872 88.1991ZM38.7072 86.8311C38.8592 86.8311 39.0152 86.8071 39.1752 86.7591C39.3352 86.7031 39.4832 86.6271 39.6192 86.5311C39.7552 86.4351 39.8752 86.3231 39.9792 86.1951C40.0912 86.0671 40.1752 85.9271 40.2312 85.7751V84.2751C40.1672 84.0991 40.0752 83.9391 39.9552 83.7951C39.8432 83.6431 39.7112 83.5151 39.5592 83.4111C39.4152 83.2991 39.2592 83.2111 39.0912 83.1471C38.9312 83.0831 38.7712 83.0511 38.6112 83.0511C38.3712 83.0511 38.1472 83.1031 37.9392 83.2071C37.7392 83.3111 37.5672 83.4551 37.4232 83.6391C37.2792 83.8151 37.1672 84.0191 37.0872 84.2511C37.0072 84.4831 36.9672 84.7231 36.9672 84.9711C36.9672 85.2351 37.0112 85.4791 37.0992 85.7031C37.1872 85.9271 37.3072 86.1231 37.4592 86.2911C37.6112 86.4591 37.7912 86.5911 37.9992 86.6871C38.2152 86.7831 38.4512 86.8311 38.7072 86.8311ZM43.5135 83.5911V81.8631H44.8215V83.5911H43.5135ZM43.5135 88.0791V86.3511H44.8215V88.0791H43.5135Z" fill="#246B6D"/>
</g>
<line x1="220.25" y1="8.52637" x2="220.25" y2="89.166" stroke="#DADADA" stroke-width="0.5"/>
<line x1="220" y1="60.25" x2="10.9434" y2="60.25" stroke="#DADADA" stroke-width="0.5"/>
<g filter="url(#filter4_d)">
<path d="M272.667 17.2204C272.667 17.6164 272.61 17.9824 272.496 18.3184C272.382 18.6484 272.223 18.9364 272.019 19.1824C271.815 19.4224 271.572 19.6114 271.29 19.7494C271.014 19.8814 270.714 19.9474 270.39 19.9474C270.06 19.9474 269.754 19.8814 269.472 19.7494C269.196 19.6114 268.956 19.4224 268.752 19.1824C268.554 18.9364 268.398 18.6484 268.284 18.3184C268.17 17.9824 268.113 17.6164 268.113 17.2204C268.113 16.8244 268.17 16.4614 268.284 16.1314C268.398 15.7954 268.554 15.5074 268.752 15.2674C268.956 15.0214 269.196 14.8294 269.472 14.6914C269.754 14.5534 270.06 14.4844 270.39 14.4844C270.714 14.4844 271.014 14.5534 271.29 14.6914C271.572 14.8294 271.815 15.0214 272.019 15.2674C272.223 15.5074 272.382 15.7954 272.496 16.1314C272.61 16.4614 272.667 16.8244 272.667 17.2204ZM271.866 17.2204C271.866 16.9264 271.83 16.6564 271.758 16.4104C271.686 16.1644 271.584 15.9544 271.452 15.7804C271.32 15.6004 271.164 15.4624 270.984 15.3664C270.804 15.2704 270.606 15.2224 270.39 15.2224C270.168 15.2224 269.964 15.2704 269.778 15.3664C269.598 15.4624 269.442 15.6004 269.31 15.7804C269.184 15.9544 269.085 16.1644 269.013 16.4104C268.941 16.6564 268.905 16.9264 268.905 17.2204C268.905 17.5204 268.941 17.7934 269.013 18.0394C269.085 18.2794 269.184 18.4864 269.31 18.6604C269.442 18.8344 269.598 18.9694 269.778 19.0654C269.964 19.1614 270.168 19.2094 270.39 19.2094C270.606 19.2094 270.804 19.1614 270.984 19.0654C271.164 18.9694 271.32 18.8344 271.452 18.6604C271.584 18.4864 271.686 18.2794 271.758 18.0394C271.83 17.7934 271.866 17.5204 271.866 17.2204ZM273.731 19.8574V18.8494H274.397V19.8574H273.731ZM275.362 19.8574C275.362 19.6174 275.38 19.3924 275.416 19.1824C275.458 18.9724 275.533 18.7714 275.641 18.5794C275.749 18.3874 275.896 18.2044 276.082 18.0304C276.274 17.8564 276.523 17.6824 276.829 17.5084C277.009 17.4124 277.192 17.3194 277.378 17.2294C277.564 17.1334 277.732 17.0344 277.882 16.9324C278.038 16.8244 278.164 16.7104 278.26 16.5904C278.362 16.4704 278.413 16.3294 278.413 16.1674C278.413 16.0654 278.389 15.9634 278.341 15.8614C278.293 15.7594 278.224 15.6694 278.134 15.5914C278.044 15.5134 277.93 15.4504 277.792 15.4024C277.66 15.3544 277.507 15.3304 277.333 15.3304C277.153 15.3304 276.988 15.3574 276.838 15.4114C276.694 15.4594 276.565 15.5224 276.451 15.6004C276.337 15.6724 276.238 15.7504 276.154 15.8344C276.07 15.9184 276.001 15.9934 275.947 16.0594L275.434 15.4834C275.482 15.4294 275.563 15.3574 275.677 15.2674C275.791 15.1714 275.935 15.0754 276.109 14.9794C276.283 14.8834 276.484 14.8024 276.712 14.7364C276.94 14.6644 277.195 14.6284 277.477 14.6284C277.753 14.6284 278.002 14.6674 278.224 14.7454C278.446 14.8174 278.632 14.9194 278.782 15.0514C278.938 15.1834 279.058 15.3394 279.142 15.5194C279.226 15.6934 279.268 15.8794 279.268 16.0774C279.268 16.3114 279.217 16.5154 279.115 16.6894C279.013 16.8634 278.887 17.0164 278.737 17.1484C278.593 17.2804 278.437 17.3944 278.269 17.4904C278.101 17.5804 277.951 17.6584 277.819 17.7244C277.687 17.7904 277.537 17.8714 277.369 17.9674C277.207 18.0574 277.051 18.1624 276.901 18.2824C276.751 18.3964 276.619 18.5254 276.505 18.6694C276.397 18.8134 276.328 18.9694 276.298 19.1374H279.367V19.8574H275.362ZM289.789 19.8574H288.997V17.2294C288.997 16.7374 288.916 16.3744 288.754 16.1404C288.598 15.9064 288.364 15.7894 288.052 15.7894C287.728 15.7894 287.437 15.9064 287.179 16.1404C286.927 16.3684 286.747 16.6654 286.639 17.0314V19.8574H285.847V17.2294C285.847 16.7254 285.769 16.3594 285.613 16.1314C285.457 15.9034 285.223 15.7894 284.911 15.7894C284.593 15.7894 284.305 15.9034 284.047 16.1314C283.789 16.3534 283.606 16.6504 283.498 17.0224V19.8574H282.706V15.1594H283.426V16.1674C283.618 15.8194 283.867 15.5524 284.173 15.3664C284.479 15.1744 284.824 15.0784 285.208 15.0784C285.604 15.0784 285.916 15.1864 286.144 15.4024C286.378 15.6124 286.522 15.8854 286.576 16.2214C286.996 15.4594 287.593 15.0784 288.367 15.0784C288.637 15.0784 288.862 15.1294 289.042 15.2314C289.228 15.3274 289.375 15.4654 289.483 15.6454C289.591 15.8194 289.669 16.0264 289.717 16.2664C289.765 16.5064 289.789 16.7674 289.789 17.0494V19.8574ZM291.021 19.8574V15.1594H291.813V19.8574H291.021ZM291.021 14.2774V13.2874H291.813V14.2774H291.021ZM293.113 13.2874H293.905V18.6424C293.905 18.8164 293.95 18.9544 294.04 19.0564C294.136 19.1524 294.268 19.2004 294.436 19.2004C294.502 19.2004 294.58 19.1914 294.67 19.1734C294.76 19.1494 294.844 19.1224 294.922 19.0924L295.048 19.7314C294.916 19.7854 294.76 19.8304 294.58 19.8664C294.4 19.9024 294.241 19.9204 294.103 19.9204C293.797 19.9204 293.554 19.8334 293.374 19.6594C293.2 19.4854 293.113 19.2424 293.113 18.9304V13.2874ZM297.749 19.9474C297.395 19.9474 297.071 19.8844 296.777 19.7584C296.483 19.6264 296.231 19.4494 296.021 19.2274C295.811 19.0054 295.646 18.7474 295.526 18.4534C295.412 18.1534 295.355 17.8384 295.355 17.5084C295.355 17.1784 295.412 16.8664 295.526 16.5724C295.646 16.2784 295.811 16.0204 296.021 15.7984C296.237 15.5764 296.492 15.4024 296.786 15.2764C297.08 15.1444 297.404 15.0784 297.758 15.0784C298.112 15.0784 298.433 15.1444 298.721 15.2764C299.015 15.4084 299.264 15.5854 299.468 15.8074C299.672 16.0234 299.828 16.2784 299.936 16.5724C300.05 16.8604 300.107 17.1604 300.107 17.4724C300.107 17.5384 300.104 17.5984 300.098 17.6524C300.098 17.7064 300.095 17.7484 300.089 17.7784H296.192C296.21 18.0124 296.264 18.2254 296.354 18.4174C296.444 18.6094 296.561 18.7744 296.705 18.9124C296.849 19.0504 297.011 19.1584 297.191 19.2364C297.377 19.3144 297.572 19.3534 297.776 19.3534C297.92 19.3534 298.061 19.3354 298.199 19.2994C298.337 19.2574 298.466 19.2034 298.586 19.1374C298.706 19.0714 298.811 18.9904 298.901 18.8944C298.997 18.7984 299.069 18.6904 299.117 18.5704L299.801 18.7594C299.723 18.9334 299.615 19.0924 299.477 19.2364C299.345 19.3804 299.189 19.5064 299.009 19.6144C298.835 19.7164 298.64 19.7974 298.424 19.8574C298.208 19.9174 297.983 19.9474 297.749 19.9474ZM299.36 17.1934C299.342 16.9714 299.285 16.7674 299.189 16.5814C299.099 16.3894 298.982 16.2274 298.838 16.0954C298.7 15.9634 298.538 15.8614 298.352 15.7894C298.166 15.7114 297.968 15.6724 297.758 15.6724C297.548 15.6724 297.35 15.7114 297.164 15.7894C296.978 15.8614 296.813 15.9664 296.669 16.1044C296.531 16.2364 296.417 16.3954 296.327 16.5814C296.243 16.7674 296.192 16.9714 296.174 17.1934H299.36ZM302.635 19.9474C302.257 19.9474 301.885 19.8904 301.519 19.7764C301.153 19.6564 300.838 19.4854 300.574 19.2634L300.916 18.7324C301.192 18.9424 301.468 19.1014 301.744 19.2094C302.02 19.3114 302.311 19.3624 302.617 19.3624C302.959 19.3624 303.229 19.2964 303.427 19.1644C303.631 19.0264 303.733 18.8344 303.733 18.5884C303.733 18.4744 303.706 18.3784 303.652 18.3004C303.598 18.2164 303.517 18.1444 303.409 18.0844C303.301 18.0244 303.163 17.9704 302.995 17.9224C302.827 17.8744 302.632 17.8234 302.41 17.7694C302.128 17.6974 301.885 17.6284 301.681 17.5624C301.477 17.4964 301.309 17.4184 301.177 17.3284C301.045 17.2384 300.949 17.1304 300.889 17.0044C300.829 16.8784 300.799 16.7224 300.799 16.5364C300.799 16.3024 300.844 16.0954 300.934 15.9154C301.03 15.7294 301.159 15.5764 301.321 15.4564C301.483 15.3304 301.672 15.2374 301.888 15.1774C302.11 15.1114 302.347 15.0784 302.599 15.0784C302.953 15.0784 303.283 15.1354 303.589 15.2494C303.895 15.3634 304.153 15.5134 304.363 15.6994L304.003 16.1764C303.805 16.0024 303.583 15.8734 303.337 15.7894C303.091 15.6994 302.839 15.6544 302.581 15.6544C302.293 15.6544 302.047 15.7174 301.843 15.8434C301.645 15.9634 301.546 16.1584 301.546 16.4284C301.546 16.5364 301.564 16.6264 301.6 16.6984C301.642 16.7704 301.708 16.8334 301.798 16.8874C301.888 16.9414 302.002 16.9894 302.14 17.0314C302.284 17.0734 302.455 17.1184 302.653 17.1664C302.965 17.2384 303.235 17.3134 303.463 17.3914C303.697 17.4634 303.889 17.5504 304.039 17.6524C304.195 17.7544 304.309 17.8744 304.381 18.0124C304.459 18.1504 304.498 18.3184 304.498 18.5164C304.498 18.9544 304.33 19.3024 303.994 19.5604C303.658 19.8184 303.205 19.9474 302.635 19.9474ZM269.202 25.9794V30.8574H268.392V24.4674H269.022L272.982 29.4444V24.4764H273.792V30.8574H273.108L269.202 25.9794ZM277.165 30.9474C276.811 30.9474 276.487 30.8814 276.193 30.7494C275.905 30.6174 275.656 30.4404 275.446 30.2184C275.242 29.9964 275.083 29.7384 274.969 29.4444C274.855 29.1504 274.798 28.8414 274.798 28.5174C274.798 28.1874 274.855 27.8754 274.969 27.5814C275.089 27.2874 275.251 27.0294 275.455 26.8074C275.665 26.5854 275.914 26.4084 276.202 26.2764C276.496 26.1444 276.817 26.0784 277.165 26.0784C277.513 26.0784 277.834 26.1444 278.128 26.2764C278.422 26.4084 278.671 26.5854 278.875 26.8074C279.085 27.0294 279.247 27.2874 279.361 27.5814C279.481 27.8754 279.541 28.1874 279.541 28.5174C279.541 28.8414 279.484 29.1504 279.37 29.4444C279.256 29.7384 279.094 29.9964 278.884 30.2184C278.674 30.4404 278.422 30.6174 278.128 30.7494C277.84 30.8814 277.519 30.9474 277.165 30.9474ZM275.608 28.5264C275.608 28.7724 275.647 29.0004 275.725 29.2104C275.809 29.4204 275.92 29.6034 276.058 29.7594C276.202 29.9154 276.367 30.0384 276.553 30.1284C276.745 30.2184 276.949 30.2634 277.165 30.2634C277.381 30.2634 277.582 30.2184 277.768 30.1284C277.96 30.0384 278.128 29.9154 278.272 29.7594C278.416 29.5974 278.527 29.4114 278.605 29.2014C278.689 28.9854 278.731 28.7544 278.731 28.5084C278.731 28.2684 278.689 28.0434 278.605 27.8334C278.527 27.6174 278.416 27.4314 278.272 27.2754C278.128 27.1134 277.96 26.9874 277.768 26.8974C277.582 26.8074 277.381 26.7624 277.165 26.7624C276.949 26.7624 276.745 26.8104 276.553 26.9064C276.367 26.9964 276.202 27.1224 276.058 27.2844C275.92 27.4404 275.809 27.6264 275.725 27.8424C275.647 28.0524 275.608 28.2804 275.608 28.5264ZM282.984 26.8524C282.588 26.8644 282.237 26.9664 281.931 27.1584C281.631 27.3504 281.418 27.6174 281.292 27.9594V30.8574H280.5V26.1594H281.238V27.2484C281.4 26.9244 281.613 26.6634 281.877 26.4654C282.141 26.2614 282.423 26.1474 282.723 26.1234C282.783 26.1234 282.834 26.1234 282.876 26.1234C282.918 26.1234 282.954 26.1264 282.984 26.1324V26.8524ZM286.2 30.6234C286.152 30.6474 286.089 30.6774 286.011 30.7134C285.933 30.7434 285.843 30.7764 285.741 30.8124C285.645 30.8424 285.537 30.8664 285.417 30.8844C285.303 30.9084 285.183 30.9204 285.057 30.9204C284.769 30.9204 284.52 30.8424 284.31 30.6864C284.1 30.5244 283.995 30.2754 283.995 29.9394V26.7804H283.356V26.1594H283.995V24.5934H284.787V26.1594H285.84V26.7804H284.787V29.6964C284.799 29.8704 284.856 29.9964 284.958 30.0744C285.06 30.1524 285.18 30.1914 285.318 30.1914C285.474 30.1914 285.615 30.1674 285.741 30.1194C285.873 30.0654 285.963 30.0234 286.011 29.9934L286.2 30.6234ZM291.011 30.8574H290.219V28.2294C290.219 27.7434 290.135 27.3834 289.967 27.1494C289.799 26.9094 289.553 26.7894 289.229 26.7894C289.073 26.7894 288.917 26.8224 288.761 26.8884C288.605 26.9484 288.458 27.0324 288.32 27.1404C288.188 27.2484 288.068 27.3774 287.96 27.5274C287.858 27.6774 287.78 27.8424 287.726 28.0224V30.8574H286.934V24.2874H287.726V27.1674C287.912 26.8254 288.164 26.5584 288.482 26.3664C288.8 26.1744 289.148 26.0784 289.526 26.0784C289.802 26.0784 290.036 26.1294 290.228 26.2314C290.42 26.3334 290.573 26.4714 290.687 26.6454C290.801 26.8194 290.882 27.0294 290.93 27.2754C290.984 27.5154 291.011 27.7734 291.011 28.0494V30.8574ZM298.398 25.8084C298.326 25.7244 298.23 25.6434 298.11 25.5654C297.99 25.4874 297.855 25.4184 297.705 25.3584C297.555 25.2924 297.39 25.2414 297.21 25.2054C297.036 25.1634 296.853 25.1424 296.661 25.1424C296.163 25.1424 295.797 25.2354 295.563 25.4214C295.335 25.6074 295.221 25.8624 295.221 26.1864C295.221 26.3604 295.254 26.5044 295.32 26.6184C295.386 26.7324 295.488 26.8314 295.626 26.9154C295.77 26.9934 295.947 27.0624 296.157 27.1224C296.367 27.1824 296.616 27.2454 296.904 27.3114C297.234 27.3834 297.531 27.4674 297.795 27.5634C298.065 27.6534 298.293 27.7674 298.479 27.9054C298.671 28.0434 298.815 28.2114 298.911 28.4094C299.013 28.6074 299.064 28.8504 299.064 29.1384C299.064 29.4444 299.004 29.7114 298.884 29.9394C298.764 30.1614 298.599 30.3474 298.389 30.4974C298.185 30.6414 297.942 30.7494 297.66 30.8214C297.378 30.8874 297.072 30.9204 296.742 30.9204C296.25 30.9204 295.782 30.8454 295.338 30.6954C294.9 30.5394 294.501 30.3144 294.141 30.0204L294.528 29.3364C294.624 29.4384 294.747 29.5404 294.897 29.6424C295.053 29.7444 295.227 29.8374 295.419 29.9214C295.617 29.9994 295.827 30.0654 296.049 30.1194C296.277 30.1674 296.514 30.1914 296.76 30.1914C297.216 30.1914 297.57 30.1104 297.822 29.9484C298.074 29.7864 298.2 29.5434 298.2 29.2194C298.2 29.0394 298.158 28.8894 298.074 28.7694C297.996 28.6434 297.879 28.5354 297.723 28.4454C297.567 28.3554 297.372 28.2774 297.138 28.2114C296.91 28.1394 296.649 28.0674 296.355 27.9954C296.031 27.9174 295.746 27.8334 295.5 27.7434C295.254 27.6534 295.047 27.5454 294.879 27.4194C294.717 27.2934 294.594 27.1404 294.51 26.9604C294.426 26.7804 294.384 26.5644 294.384 26.3124C294.384 26.0064 294.441 25.7364 294.555 25.5024C294.669 25.2684 294.828 25.0704 295.032 24.9084C295.236 24.7464 295.479 24.6264 295.761 24.5484C296.043 24.4644 296.349 24.4224 296.679 24.4224C297.111 24.4224 297.501 24.4884 297.849 24.6204C298.197 24.7524 298.506 24.9294 298.776 25.1514L298.398 25.8084ZM300.021 24.2874H300.813V29.6424C300.813 29.8164 300.858 29.9544 300.948 30.0564C301.044 30.1524 301.176 30.2004 301.344 30.2004C301.41 30.2004 301.488 30.1914 301.578 30.1734C301.668 30.1494 301.752 30.1224 301.83 30.0924L301.956 30.7314C301.824 30.7854 301.668 30.8304 301.488 30.8664C301.308 30.9024 301.149 30.9204 301.011 30.9204C300.705 30.9204 300.462 30.8334 300.282 30.6594C300.108 30.4854 300.021 30.2424 300.021 29.9304V24.2874ZM304.63 30.9474C304.276 30.9474 303.952 30.8814 303.658 30.7494C303.37 30.6174 303.121 30.4404 302.911 30.2184C302.707 29.9964 302.548 29.7384 302.434 29.4444C302.32 29.1504 302.263 28.8414 302.263 28.5174C302.263 28.1874 302.32 27.8754 302.434 27.5814C302.554 27.2874 302.716 27.0294 302.92 26.8074C303.13 26.5854 303.379 26.4084 303.667 26.2764C303.961 26.1444 304.282 26.0784 304.63 26.0784C304.978 26.0784 305.299 26.1444 305.593 26.2764C305.887 26.4084 306.136 26.5854 306.34 26.8074C306.55 27.0294 306.712 27.2874 306.826 27.5814C306.946 27.8754 307.006 28.1874 307.006 28.5174C307.006 28.8414 306.949 29.1504 306.835 29.4444C306.721 29.7384 306.559 29.9964 306.349 30.2184C306.139 30.4404 305.887 30.6174 305.593 30.7494C305.305 30.8814 304.984 30.9474 304.63 30.9474ZM303.073 28.5264C303.073 28.7724 303.112 29.0004 303.19 29.2104C303.274 29.4204 303.385 29.6034 303.523 29.7594C303.667 29.9154 303.832 30.0384 304.018 30.1284C304.21 30.2184 304.414 30.2634 304.63 30.2634C304.846 30.2634 305.047 30.2184 305.233 30.1284C305.425 30.0384 305.593 29.9154 305.737 29.7594C305.881 29.5974 305.992 29.4114 306.07 29.2014C306.154 28.9854 306.196 28.7544 306.196 28.5084C306.196 28.2684 306.154 28.0434 306.07 27.8334C305.992 27.6174 305.881 27.4314 305.737 27.2754C305.593 27.1134 305.425 26.9874 305.233 26.8974C305.047 26.8074 304.846 26.7624 304.63 26.7624C304.414 26.7624 304.21 26.8104 304.018 26.9064C303.832 26.9964 303.667 27.1224 303.523 27.2844C303.385 27.4404 303.274 27.6264 303.19 27.8424C303.112 28.0524 303.073 28.2804 303.073 28.5264ZM310.495 30.9474C310.105 30.9474 309.76 30.8514 309.46 30.6594C309.166 30.4674 308.932 30.2244 308.758 29.9304V32.7744H307.966V26.1594H308.668V27.0414C308.854 26.7534 309.094 26.5224 309.388 26.3484C309.688 26.1684 310.018 26.0784 310.378 26.0784C310.702 26.0784 310.999 26.1444 311.269 26.2764C311.539 26.4084 311.773 26.5884 311.971 26.8164C312.169 27.0384 312.322 27.2964 312.43 27.5904C312.544 27.8844 312.601 28.1904 312.601 28.5084C312.601 28.8444 312.55 29.1624 312.448 29.4624C312.346 29.7564 312.202 30.0144 312.016 30.2364C311.83 30.4524 311.608 30.6264 311.35 30.7584C311.092 30.8844 310.807 30.9474 310.495 30.9474ZM310.252 30.2634C310.486 30.2634 310.696 30.2154 310.882 30.1194C311.074 30.0174 311.236 29.8854 311.368 29.7234C311.506 29.5554 311.611 29.3664 311.683 29.1564C311.755 28.9464 311.791 28.7304 311.791 28.5084C311.791 28.2744 311.749 28.0524 311.665 27.8424C311.581 27.6264 311.467 27.4404 311.323 27.2844C311.179 27.1224 311.008 26.9964 310.81 26.9064C310.618 26.8104 310.408 26.7624 310.18 26.7624C310.036 26.7624 309.886 26.7924 309.73 26.8524C309.58 26.9064 309.436 26.9814 309.298 27.0774C309.166 27.1674 309.049 27.2784 308.947 27.4104C308.851 27.5364 308.788 27.6714 308.758 27.8154V29.1564C308.824 29.3124 308.908 29.4594 309.01 29.5974C309.112 29.7294 309.229 29.8464 309.361 29.9484C309.493 30.0444 309.634 30.1224 309.784 30.1824C309.934 30.2364 310.09 30.2634 310.252 30.2634ZM315.653 30.9474C315.299 30.9474 314.975 30.8844 314.681 30.7584C314.387 30.6264 314.135 30.4494 313.925 30.2274C313.715 30.0054 313.55 29.7474 313.43 29.4534C313.316 29.1534 313.259 28.8384 313.259 28.5084C313.259 28.1784 313.316 27.8664 313.43 27.5724C313.55 27.2784 313.715 27.0204 313.925 26.7984C314.141 26.5764 314.396 26.4024 314.69 26.2764C314.984 26.1444 315.308 26.0784 315.662 26.0784C316.016 26.0784 316.337 26.1444 316.625 26.2764C316.919 26.4084 317.168 26.5854 317.372 26.8074C317.576 27.0234 317.732 27.2784 317.84 27.5724C317.954 27.8604 318.011 28.1604 318.011 28.4724C318.011 28.5384 318.008 28.5984 318.002 28.6524C318.002 28.7064 317.999 28.7484 317.993 28.7784H314.096C314.114 29.0124 314.168 29.2254 314.258 29.4174C314.348 29.6094 314.465 29.7744 314.609 29.9124C314.753 30.0504 314.915 30.1584 315.095 30.2364C315.281 30.3144 315.476 30.3534 315.68 30.3534C315.824 30.3534 315.965 30.3354 316.103 30.2994C316.241 30.2574 316.37 30.2034 316.49 30.1374C316.61 30.0714 316.715 29.9904 316.805 29.8944C316.901 29.7984 316.973 29.6904 317.021 29.5704L317.705 29.7594C317.627 29.9334 317.519 30.0924 317.381 30.2364C317.249 30.3804 317.093 30.5064 316.913 30.6144C316.739 30.7164 316.544 30.7974 316.328 30.8574C316.112 30.9174 315.887 30.9474 315.653 30.9474ZM317.264 28.1934C317.246 27.9714 317.189 27.7674 317.093 27.5814C317.003 27.3894 316.886 27.2274 316.742 27.0954C316.604 26.9634 316.442 26.8614 316.256 26.7894C316.07 26.7114 315.872 26.6724 315.662 26.6724C315.452 26.6724 315.254 26.7114 315.068 26.7894C314.882 26.8614 314.717 26.9664 314.573 27.1044C314.435 27.2364 314.321 27.3954 314.231 27.5814C314.147 27.7674 314.096 27.9714 314.078 28.1934H317.264Z" fill="#5C5C5C"/>
</g>
<path d="M59.5713 85.3291H59.8213V85.0791V79.0091V78.7831L59.5965 78.7604C57.7825 78.5767 56.0838 78.0421 54.6913 77.2224C53.2985 76.4024 52.2753 75.3347 51.7215 74.1487C51.1692 72.9659 51.1013 71.7041 51.5221 70.4991C51.9371 69.3108 52.816 68.2116 54.0789 67.3291H67.9211C69.184 68.2116 70.0629 69.3108 70.4779 70.4991C70.8987 71.7041 70.8308 72.9659 70.2785 74.1487C69.7247 75.3347 68.7015 76.4024 67.3087 77.2224C65.9162 78.0421 64.2175 78.5767 62.4035 78.7604L62.1787 78.7831V79.0091V85.0791V85.3291H62.4287H65.2861C65.6221 85.3291 65.9335 85.4232 66.153 85.5768C66.3717 85.7299 66.4648 85.9148 66.4648 86.0791C66.4648 86.2434 66.3717 86.4283 66.153 86.5814C65.9335 86.7351 65.6221 86.8291 65.2861 86.8291H56.7139C56.3779 86.8291 56.0665 86.7351 55.847 86.5814C55.6283 86.4283 55.5352 86.2434 55.5352 86.0791C55.5352 85.9148 55.6283 85.7299 55.847 85.5768C56.0665 85.4232 56.3779 85.3291 56.7139 85.3291H59.5713ZM53.6132 72.0213L53.54 72.3291H53.8565H68.1435H68.46L68.3868 72.0213C68.0429 70.5753 67.5524 69.5167 66.8851 68.896L66.8131 68.8291H66.7148H55.2852H55.1869L55.1149 68.896C54.4476 69.5167 53.9571 70.5753 53.6132 72.0213Z" fill="#246B6D" fill-opacity="0.7" stroke="#246B6D" stroke-width="0.5"/>
<path d="M114.297 73.5791H114.898L114.474 73.1528L110.646 69.3051L110.528 69.1861L110.373 69.2507C110.244 69.3042 110.121 69.3291 110 69.3291C109.73 69.3291 109.5 69.2335 109.298 69.0312C109.097 68.83 109 68.5971 109 68.3193C109 68.0418 109.096 67.8134 109.295 67.6195C109.496 67.4241 109.73 67.3291 110.01 67.3291C110.289 67.3291 110.519 67.4239 110.712 67.6172C110.904 67.8096 111 68.0415 111 68.3291C111 68.4497 110.975 68.5734 110.922 68.7017L110.857 68.8567L110.976 68.9751L114.824 72.8032L115 72.9786L115.176 72.8032L119.024 68.9751L119.143 68.8567L119.078 68.7017C119.025 68.5734 119 68.4497 119 68.3291C119 68.0436 119.097 67.8124 119.295 67.6195C119.496 67.4241 119.73 67.3291 120.01 67.3291C120.289 67.3291 120.519 67.4239 120.712 67.6172C120.905 67.8105 121 68.0396 121 68.3193C121 68.5992 120.905 68.8328 120.71 69.0336C120.517 69.2317 120.285 69.3291 120 69.3291C119.879 69.3291 119.756 69.3042 119.627 69.2507L119.472 69.1861L119.354 69.3051L115.526 73.1528L115.102 73.5791H115.703H122.5C123.124 73.5791 123.649 73.7969 124.091 74.2383C124.532 74.6797 124.75 75.2053 124.75 75.8291V84.5791C124.75 85.2029 124.532 85.7285 124.091 86.1699C123.649 86.6113 123.124 86.8291 122.5 86.8291H107.5C106.876 86.8291 106.351 86.6113 105.909 86.1699C105.468 85.7285 105.25 85.2029 105.25 84.5791V75.8291C105.25 75.2053 105.468 74.6797 105.909 74.2383C106.351 73.7969 106.876 73.5791 107.5 73.5791H114.297ZM117.531 75.581L117.516 75.5791H117.5H107.5H107.48L107.461 75.5822C107.159 75.6299 106.899 75.7674 106.692 75.991C106.504 76.1931 106.362 76.4116 106.271 76.6471C106.183 76.874 106.118 77.1621 106.071 77.5041C106.025 77.8392 106 78.1066 106 78.2998V81.2002C106 81.5196 106.013 81.836 106.04 82.1491C106.067 82.4669 106.121 82.8218 106.2 83.2129C106.283 83.6215 106.421 83.9763 106.619 84.2698C106.828 84.5798 107.111 84.7761 107.465 84.8266L107.482 84.8291H107.5H117.5H117.517L117.533 84.8269C117.774 84.7948 117.991 84.7018 118.183 84.5505C118.382 84.3928 118.526 84.1755 118.623 83.9142C118.71 83.6803 118.781 83.4611 118.835 83.2568C118.893 83.0401 118.931 82.7752 118.951 82.4665C118.97 82.1667 118.983 81.9433 118.99 81.7975C118.997 81.6487 119 81.4491 119 81.2002V79.208C119 78.1237 118.896 77.2699 118.672 76.6652C118.447 76.0571 118.078 75.6494 117.531 75.581ZM123.125 75.5791H120.625C120.387 75.5791 120.178 75.669 120.009 75.8379C119.84 76.0067 119.75 76.2161 119.75 76.4541C119.75 76.6921 119.84 76.9015 120.009 77.0703C120.178 77.2392 120.387 77.3291 120.625 77.3291H123.125C123.363 77.3291 123.572 77.2392 123.741 77.0703C123.91 76.9015 124 76.6921 124 76.4541C124 76.2161 123.91 76.0067 123.741 75.8379C123.572 75.669 123.363 75.5791 123.125 75.5791ZM123.125 78.0791H120.625C120.387 78.0791 120.178 78.169 120.009 78.3379C119.84 78.5067 119.75 78.7161 119.75 78.9541C119.75 79.1921 119.84 79.4015 120.009 79.5703C120.178 79.7392 120.387 79.8291 120.625 79.8291H123.125C123.363 79.8291 123.572 79.7392 123.741 79.5703C123.91 79.4015 124 79.1921 124 78.9541C124 78.7161 123.91 78.5067 123.741 78.3379C123.572 78.169 123.363 78.0791 123.125 78.0791ZM123.125 80.5791H120.625C120.387 80.5791 120.178 80.669 120.009 80.8379C119.84 81.0067 119.75 81.2161 119.75 81.4541C119.75 81.6921 119.84 81.9015 120.009 82.0703C120.178 82.2392 120.387 82.3291 120.625 82.3291H123.125C123.363 82.3291 123.572 82.2392 123.741 82.0703C123.91 81.9015 124 81.6921 124 81.4541C124 81.2161 123.91 81.0067 123.741 80.8379C123.572 80.669 123.363 80.5791 123.125 80.5791ZM123.125 83.0791H120.625C120.387 83.0791 120.178 83.169 120.009 83.3379C119.84 83.5067 119.75 83.7161 119.75 83.9541C119.75 84.1921 119.84 84.4015 120.009 84.5703C120.178 84.7392 120.387 84.8291 120.625 84.8291H123.125C123.363 84.8291 123.572 84.7392 123.741 84.5703C123.91 84.4015 124 84.1921 124 83.9541C124 83.7161 123.91 83.5067 123.741 83.3379C123.572 83.169 123.363 83.0791 123.125 83.0791Z" fill="#246B6D" fill-opacity="0.7" stroke="#246B6D" stroke-width="0.5"/>
<path d="M151.423 77.8354L151.426 77.8274C151.49 77.6053 151.545 77.3803 151.59 77.1531C151.591 77.1509 151.591 77.1476 151.592 77.1386C151.594 77.1289 151.596 77.1129 151.6 77.0943C151.611 77.0371 151.617 76.9896 151.623 76.9352C151.628 76.8942 151.634 76.8493 151.642 76.7933C151.642 76.7931 151.642 76.7929 151.643 76.7927L151.89 76.8307C151.896 76.789 151.903 76.7474 151.909 76.7059C151.929 76.5825 151.948 76.4593 151.96 76.3349L151.423 77.8354ZM151.423 77.8354L151.421 77.8435L151.42 77.85C151.356 78.0775 151.279 78.3005 151.194 78.525L151.194 78.525L151.193 78.5288L151.177 78.5709C151.167 78.5979 151.159 78.6248 151.153 78.6416C151.147 78.6619 151.143 78.673 151.139 78.682L151.139 78.6838C150.945 79.1667 150.704 79.6328 150.424 80.0725C150.144 80.507 149.825 80.9134 149.476 81.2817C149.462 81.2967 149.446 81.3118 149.423 81.3326L149.419 81.3366C149.399 81.3551 149.373 81.3789 149.348 81.4047L149.219 81.5365L149.307 81.6982C149.582 82.2051 149.75 82.7782 149.75 83.3949C149.75 85.3006 148.28 86.8291 146.5 86.8291C144.879 86.8291 143.528 85.5569 143.298 83.8871L143.269 83.6712H143.051H140.949H140.731L140.701 83.8871C140.471 85.5569 139.121 86.8291 137.5 86.8291C135.72 86.8291 134.25 85.3008 134.25 83.3951C134.251 82.7122 134.445 82.046 134.805 81.4808C135.165 80.9156 135.675 80.4776 136.268 80.22L136.493 80.1228L136.4 79.8964L134.573 75.4059L134.509 75.2502H134.341H132.25V73.6449H135.491L136.285 75.5945L136.349 75.7502H136.517H144H144.25V75.5002V67.3331L151.423 77.8354ZM135.75 83.3949C135.75 84.3912 136.523 85.2238 137.5 85.2238C138.477 85.2238 139.25 84.3912 139.25 83.3949C139.25 82.3985 138.477 81.5659 137.5 81.5659C136.523 81.5659 135.75 82.3985 135.75 83.3949ZM144.75 83.3949C144.75 84.3912 145.523 85.2238 146.5 85.2238C147.477 85.2238 148.25 84.3912 148.25 83.3949C148.25 82.3985 147.477 81.5659 146.5 81.5659C145.523 81.5659 144.75 82.3985 144.75 83.3949Z" fill="#246B6D" fill-opacity="0.7" stroke="#246B6D" stroke-width="0.5"/>
<path d="M190.39 71.0476C190.645 71.0476 190.85 70.7607 190.85 70.4068C190.85 70.0529 190.645 69.766 190.39 69.766C190.136 69.766 189.93 70.0529 189.93 70.4068C189.93 70.7607 190.136 71.0476 190.39 71.0476Z" fill="#246B6D" fill-opacity="0.7"/>
<path d="M205.5 80.4879C205.116 79.7914 204.534 78.8649 204.079 78.7195C203.828 78.5041 203.439 78.331 203.023 78.1506L202.811 78.0576C202.817 77.8641 202.765 77.7241 202.651 77.6314C201.949 77.0664 201.238 76.231 200.555 75.2914C200.573 75.236 200.584 75.176 200.584 75.1114C200.584 74.8687 200.442 74.6722 200.268 74.6722C200.217 74.6722 200.171 74.6772 200.122 74.6779C199.922 74.3861 199.727 74.0903 199.537 73.7906C199.57 73.7218 199.593 73.6437 199.593 73.5553C199.593 73.3122 199.452 73.1156 199.278 73.1156C199.261 73.1156 199.204 73.116 199.117 73.1199C198.895 72.756 198.677 72.3891 198.462 72.0195C198.475 71.9706 198.484 71.9187 198.484 71.8637C198.484 71.6206 198.343 71.4237 198.169 71.4237C198.152 71.4237 198.137 71.4253 198.12 71.4253C197.918 71.0686 197.717 70.7106 197.518 70.3514C197.528 70.3079 197.538 70.2633 197.538 70.2156C197.538 69.9729 197.396 69.7764 197.222 69.7764L197.2 69.7772C196.388 68.3141 196.24 68.0933 196.015 68.0933C195.867 68.0933 195.729 68.1049 195.594 68.1206C195.544 68.0156 195.492 67.9137 195.442 67.8072C195.285 67.4756 194.949 67.0791 194.246 67.0791C193.181 67.0791 191.72 67.9918 190.862 68.6014C190.049 68.2033 189.358 67.9972 188.814 67.9972C188.258 67.9972 187.999 68.206 187.891 68.3326C187.884 68.3391 187.876 68.3429 187.87 68.3506C187.271 69.106 186.885 70.5183 186.637 71.9172C186.243 73.366 186.2 74.5456 186.206 75.0895C186.182 75.1224 186.161 75.1586 186.143 75.1972C185.913 75.7491 185.96 77.891 186.284 78.356C187.115 79.5533 187.965 80.3295 188.866 81.1514C189.884 82.081 190.937 83.0422 192.174 84.7556C193.24 86.2326 195.459 87.0791 198.264 87.0791C202 87.0791 206 85.5487 206 83.2714C206 80.7645 205.766 80.4999 205.5 80.4879ZM205.133 80.8749C204.411 82.1676 201.057 82.8645 198.104 82.8645C197.119 82.8645 196.249 82.786 195.654 82.6429C194.83 82.4449 194.053 82.1172 193.325 81.7118C194.009 80.6795 195.246 80.5191 196.507 80.5191C196.997 80.5191 197.502 80.5445 198.038 80.5722C198.585 80.5999 199.15 80.6283 199.71 80.6283C201.06 80.6283 202.759 80.4737 204.031 79.2933C204.259 79.4518 204.711 80.1029 205.133 80.8749ZM201.168 77.3491C201.361 77.5814 201.543 77.8018 201.7 77.9983C201.913 78.2676 202.369 78.4656 202.851 78.6753C203.101 78.7837 203.352 78.8949 203.55 79.0076C202.429 79.9337 200.99 80.0679 199.71 80.0679C199.187 80.0679 198.655 80.0418 198.137 80.0153C198.136 79.4026 198.059 78.7795 197.928 78.3979C198.684 77.8856 199.77 77.3922 201.168 77.3491ZM199.714 75.5722C199.969 75.8924 200.226 76.2097 200.485 76.5241C199.224 76.6883 198.235 77.1803 197.53 77.6822C197.283 77.2801 197.033 76.8796 196.782 76.4806C197.45 76.0545 198.405 75.661 199.714 75.5722ZM199.083 74.7583C197.878 74.931 196.983 75.3487 196.342 75.7914C196.141 75.4768 195.943 75.1722 195.751 74.8787C196.725 74.3391 197.842 74.1283 198.554 74.0468C198.734 74.2941 198.91 74.5291 199.083 74.7583ZM195.295 74.1941C195.054 73.836 194.81 73.4808 194.563 73.1283C195.265 72.7783 196.211 72.4487 197.386 72.3422C197.582 72.6449 197.783 72.944 197.987 73.2395C197.204 73.3699 196.191 73.6399 195.295 74.1941ZM198.043 72.3076C198.19 72.5614 198.342 72.8191 198.499 73.0799C198.322 72.8259 198.148 72.5692 197.978 72.3099C198 72.3091 198.021 72.3076 198.043 72.3076ZM197.111 70.6591C197.249 70.9087 197.395 71.1703 197.55 71.4453C197.509 71.4476 197.471 71.4529 197.43 71.456C197.268 71.1944 197.109 70.9304 196.953 70.6641C197.006 70.6626 197.057 70.6599 197.111 70.6591ZM194.069 72.4399C193.838 72.1233 193.604 71.8109 193.365 71.5026C194.085 71.1429 195.085 70.8014 196.384 70.6933C196.546 70.9756 196.708 71.2506 196.87 71.5168C195.688 71.686 194.753 72.0633 194.069 72.4399ZM195.948 68.6556C196.066 68.7956 196.333 69.261 196.632 69.7956C196.576 69.7987 196.519 69.8014 196.464 69.8053C196.257 69.4286 196.055 69.0473 195.86 68.6618C195.89 68.6606 195.917 68.6564 195.948 68.6556ZM194.246 67.6399C194.623 67.6399 194.874 67.7826 195.013 68.076C195.3 68.6799 195.601 69.2742 195.917 69.8579C194.565 70.0276 193.546 70.4406 192.829 70.8437C192.128 70.0072 191.535 69.4299 191.056 69.1253C191.86 68.5483 193.277 67.6399 194.246 67.6399ZM188.257 68.7022C188.308 68.6599 188.467 68.5576 188.813 68.5576C189.082 68.5576 189.512 68.6249 190.142 68.8795C189.296 68.9895 188.828 69.7556 188.451 70.3879C188.208 70.7933 187.98 71.176 187.767 71.1891C187.636 70.9968 187.87 69.821 188.257 68.7022ZM187.272 71.2256C187.289 71.3333 187.319 71.4272 187.362 71.5018C187.451 71.6537 187.59 71.7364 187.753 71.7364C188.237 71.7364 188.536 71.2356 188.853 70.7049C189.232 70.0718 189.623 69.4172 190.347 69.4172C190.751 69.4172 191.451 70.0156 192.378 71.1168C192.147 71.2714 191.968 71.4126 191.834 71.5276C191.796 71.5131 191.757 71.5053 191.718 71.5045C191.464 71.5045 191.258 71.7914 191.258 72.1453C191.258 72.4991 191.464 72.786 191.718 72.786C191.941 72.786 192.126 72.5656 192.169 72.2726C192.4 72.0791 192.644 71.9063 192.898 71.7556C193.143 72.0682 193.383 72.3857 193.618 72.7079C193.404 72.8451 193.197 72.996 192.998 73.1599C192.959 73.1435 192.917 73.1348 192.875 73.1341C192.621 73.1341 192.415 73.4206 192.415 73.7749C192.415 74.1291 192.621 74.4156 192.875 74.4156C193.094 74.4156 193.276 74.2018 193.323 73.916C193.571 73.715 193.83 73.5348 194.1 73.3768C194.348 73.7264 194.605 74.096 194.869 74.4876C194.597 74.6951 194.346 74.9384 194.122 75.2126C194.109 75.211 194.098 75.2076 194.085 75.2076C193.83 75.2076 193.624 75.4945 193.624 75.8483C193.624 76.2018 193.83 76.4891 194.085 76.4891C194.334 76.4891 194.536 76.2114 194.543 75.866C194.771 75.5886 195.03 75.3483 195.313 75.1518C195.515 75.4572 195.721 75.7729 195.932 76.0999C195.689 76.3023 195.463 76.5322 195.259 76.786C195.248 76.7853 195.238 76.7818 195.228 76.7818C194.974 76.7818 194.768 77.0691 194.768 77.4229C194.768 77.7764 194.974 78.0637 195.228 78.0637C195.479 78.0637 195.682 77.7829 195.687 77.4349C195.892 77.188 196.119 76.9671 196.364 76.776C196.62 77.1805 196.873 77.5869 197.124 77.9953C196.896 78.1835 196.679 78.3897 196.476 78.6126C196.454 78.6083 196.433 78.6037 196.412 78.6037C196.157 78.6037 195.951 78.891 195.951 79.2445C195.951 79.5983 196.157 79.8853 196.412 79.8853C196.65 79.8853 196.844 79.631 196.867 79.3064C197.07 79.0869 197.287 78.885 197.516 78.7022C197.613 79.0191 197.655 79.5145 197.653 79.9922C197.271 79.9718 196.89 79.9604 196.508 79.9579C195.076 79.9579 193.667 80.1568 192.882 81.4537C190.797 80.1664 189.161 78.2591 188.089 76.8606C188.113 75.6129 187.846 74.8333 187.578 74.0876C187.355 73.4637 187.144 72.8729 187.121 72.006C187.166 71.7441 187.216 71.4818 187.272 71.2256ZM187.126 74.301C187.331 74.8706 187.523 75.426 187.586 76.1903C187.497 76.0699 187.415 75.9564 187.339 75.8518C187.002 75.3895 186.824 75.1495 186.694 75.031C186.695 74.4767 186.74 73.9236 186.826 73.3783C186.914 73.7087 187.021 74.0076 187.126 74.301ZM198.264 86.5183C195.605 86.5183 193.522 85.7453 192.549 84.3979C191.28 82.6391 190.158 81.6156 189.169 80.7122C188.291 79.911 187.462 79.1537 186.665 78.0068C186.502 77.7583 186.436 76.226 186.532 75.6306C186.647 75.7772 186.808 75.9968 186.964 76.2122C188.263 77.9953 191.303 82.1699 195.554 83.1918C196.181 83.3422 197.087 83.4249 198.104 83.4249C200.388 83.4249 204.265 82.9768 205.429 81.3668C205.471 81.6853 205.512 82.2564 205.512 83.2706C205.512 84.9706 202.057 86.5183 198.264 86.5183Z" fill="#246B6D" fill-opacity="0.7"/>
<path d="M190.39 71.0476C190.645 71.0476 190.85 70.7607 190.85 70.4068C190.85 70.0529 190.645 69.766 190.39 69.766C190.136 69.766 189.93 70.0529 189.93 70.4068C189.93 70.7607 190.136 71.0476 190.39 71.0476Z" stroke="#246B6D" stroke-width="0.5"/>
<path d="M205.5 80.4879C205.116 79.7914 204.534 78.8649 204.079 78.7195C203.828 78.5041 203.439 78.331 203.023 78.1506L202.811 78.0576C202.817 77.8641 202.765 77.7241 202.651 77.6314C201.949 77.0664 201.238 76.231 200.555 75.2914C200.573 75.236 200.584 75.176 200.584 75.1114C200.584 74.8687 200.442 74.6722 200.268 74.6722C200.217 74.6722 200.171 74.6772 200.122 74.6779C199.922 74.3861 199.727 74.0903 199.537 73.7906C199.57 73.7218 199.593 73.6437 199.593 73.5553C199.593 73.3122 199.452 73.1156 199.278 73.1156C199.261 73.1156 199.204 73.116 199.117 73.1199C198.895 72.756 198.677 72.3891 198.462 72.0195C198.475 71.9706 198.484 71.9187 198.484 71.8637C198.484 71.6206 198.343 71.4237 198.169 71.4237C198.152 71.4237 198.137 71.4253 198.12 71.4253C197.918 71.0686 197.717 70.7106 197.518 70.3514C197.528 70.3079 197.538 70.2633 197.538 70.2156C197.538 69.9729 197.396 69.7764 197.222 69.7764L197.2 69.7772C196.388 68.3141 196.24 68.0933 196.015 68.0933C195.867 68.0933 195.729 68.1049 195.594 68.1206C195.544 68.0156 195.492 67.9137 195.442 67.8072C195.285 67.4756 194.949 67.0791 194.246 67.0791C193.181 67.0791 191.72 67.9918 190.862 68.6014C190.049 68.2033 189.358 67.9972 188.814 67.9972C188.258 67.9972 187.999 68.206 187.891 68.3326C187.884 68.3391 187.876 68.3429 187.87 68.3506C187.271 69.106 186.885 70.5183 186.637 71.9172C186.243 73.366 186.2 74.5456 186.206 75.0895C186.182 75.1224 186.161 75.1586 186.143 75.1972C185.913 75.7491 185.96 77.891 186.284 78.356C187.115 79.5533 187.965 80.3295 188.866 81.1514C189.884 82.081 190.937 83.0422 192.174 84.7556C193.24 86.2326 195.459 87.0791 198.264 87.0791C202 87.0791 206 85.5487 206 83.2714C206 80.7645 205.766 80.4999 205.5 80.4879ZM205.133 80.8749C204.411 82.1676 201.057 82.8645 198.104 82.8645C197.119 82.8645 196.249 82.786 195.654 82.6429C194.83 82.4449 194.053 82.1172 193.325 81.7118C194.009 80.6795 195.246 80.5191 196.507 80.5191C196.997 80.5191 197.502 80.5445 198.038 80.5722C198.585 80.5999 199.15 80.6283 199.71 80.6283C201.06 80.6283 202.759 80.4737 204.031 79.2933C204.259 79.4518 204.711 80.1029 205.133 80.8749ZM201.168 77.3491C201.361 77.5814 201.543 77.8018 201.7 77.9983C201.913 78.2676 202.369 78.4656 202.851 78.6753C203.101 78.7837 203.352 78.8949 203.55 79.0076C202.429 79.9337 200.99 80.0679 199.71 80.0679C199.187 80.0679 198.655 80.0418 198.137 80.0153C198.136 79.4026 198.059 78.7795 197.928 78.3979C198.684 77.8856 199.77 77.3922 201.168 77.3491ZM199.714 75.5722C199.969 75.8924 200.226 76.2097 200.485 76.5241C199.224 76.6883 198.235 77.1803 197.53 77.6822C197.283 77.2801 197.033 76.8796 196.782 76.4806C197.45 76.0545 198.405 75.661 199.714 75.5722ZM199.083 74.7583C197.878 74.931 196.983 75.3487 196.342 75.7914C196.141 75.4768 195.943 75.1722 195.751 74.8787C196.725 74.3391 197.842 74.1283 198.554 74.0468C198.734 74.2941 198.91 74.5291 199.083 74.7583ZM195.295 74.1941C195.054 73.836 194.81 73.4808 194.563 73.1283C195.265 72.7783 196.211 72.4487 197.386 72.3422C197.582 72.6449 197.783 72.944 197.987 73.2395C197.204 73.3699 196.191 73.6399 195.295 74.1941ZM198.043 72.3076C198.19 72.5614 198.342 72.8191 198.499 73.0799C198.322 72.8259 198.148 72.5692 197.978 72.3099C198 72.3091 198.021 72.3076 198.043 72.3076ZM197.111 70.6591C197.249 70.9087 197.395 71.1703 197.55 71.4453C197.509 71.4476 197.471 71.4529 197.43 71.456C197.268 71.1944 197.109 70.9304 196.953 70.6641C197.006 70.6626 197.057 70.6599 197.111 70.6591ZM194.069 72.4399C193.838 72.1233 193.604 71.8109 193.365 71.5026C194.085 71.1429 195.085 70.8014 196.384 70.6933C196.546 70.9756 196.708 71.2506 196.87 71.5168C195.688 71.686 194.753 72.0633 194.069 72.4399ZM195.948 68.6556C196.066 68.7956 196.333 69.261 196.632 69.7956C196.576 69.7987 196.519 69.8014 196.464 69.8053C196.257 69.4286 196.055 69.0473 195.86 68.6618C195.89 68.6606 195.917 68.6564 195.948 68.6556ZM194.246 67.6399C194.623 67.6399 194.874 67.7826 195.013 68.076C195.3 68.6799 195.601 69.2742 195.917 69.8579C194.565 70.0276 193.546 70.4406 192.829 70.8437C192.128 70.0072 191.535 69.4299 191.056 69.1253C191.86 68.5483 193.277 67.6399 194.246 67.6399ZM188.257 68.7022C188.308 68.6599 188.467 68.5576 188.813 68.5576C189.082 68.5576 189.512 68.6249 190.142 68.8795C189.296 68.9895 188.828 69.7556 188.451 70.3879C188.208 70.7933 187.98 71.176 187.767 71.1891C187.636 70.9968 187.87 69.821 188.257 68.7022ZM187.272 71.2256C187.289 71.3333 187.319 71.4272 187.362 71.5018C187.451 71.6537 187.59 71.7364 187.753 71.7364C188.237 71.7364 188.536 71.2356 188.853 70.7049C189.232 70.0718 189.623 69.4172 190.347 69.4172C190.751 69.4172 191.451 70.0156 192.378 71.1168C192.147 71.2714 191.968 71.4126 191.834 71.5276C191.796 71.5131 191.757 71.5053 191.718 71.5045C191.464 71.5045 191.258 71.7914 191.258 72.1453C191.258 72.4991 191.464 72.786 191.718 72.786C191.941 72.786 192.126 72.5656 192.169 72.2726C192.4 72.0791 192.644 71.9063 192.898 71.7556C193.143 72.0682 193.383 72.3857 193.618 72.7079C193.404 72.8451 193.197 72.996 192.998 73.1599C192.959 73.1435 192.917 73.1348 192.875 73.1341C192.621 73.1341 192.415 73.4206 192.415 73.7749C192.415 74.1291 192.621 74.4156 192.875 74.4156C193.094 74.4156 193.276 74.2018 193.323 73.916C193.571 73.715 193.83 73.5348 194.1 73.3768C194.348 73.7264 194.605 74.096 194.869 74.4876C194.597 74.6951 194.346 74.9384 194.122 75.2126C194.109 75.211 194.098 75.2076 194.085 75.2076C193.83 75.2076 193.624 75.4945 193.624 75.8483C193.624 76.2018 193.83 76.4891 194.085 76.4891C194.334 76.4891 194.536 76.2114 194.543 75.866C194.771 75.5886 195.03 75.3483 195.313 75.1518C195.515 75.4572 195.721 75.7729 195.932 76.0999C195.689 76.3023 195.463 76.5322 195.259 76.786C195.248 76.7853 195.238 76.7818 195.228 76.7818C194.974 76.7818 194.768 77.0691 194.768 77.4229C194.768 77.7764 194.974 78.0637 195.228 78.0637C195.479 78.0637 195.682 77.7829 195.687 77.4349C195.892 77.188 196.119 76.9671 196.364 76.776C196.62 77.1805 196.873 77.5869 197.124 77.9953C196.896 78.1835 196.679 78.3897 196.476 78.6126C196.454 78.6083 196.433 78.6037 196.412 78.6037C196.157 78.6037 195.951 78.891 195.951 79.2445C195.951 79.5983 196.157 79.8853 196.412 79.8853C196.65 79.8853 196.844 79.631 196.867 79.3064C197.07 79.0869 197.287 78.885 197.516 78.7022C197.613 79.0191 197.655 79.5145 197.653 79.9922C197.271 79.9718 196.89 79.9604 196.508 79.9579C195.076 79.9579 193.667 80.1568 192.882 81.4537C190.797 80.1664 189.161 78.2591 188.089 76.8606C188.113 75.6129 187.846 74.8333 187.578 74.0876C187.355 73.4637 187.144 72.8729 187.121 72.006C187.166 71.7441 187.216 71.4818 187.272 71.2256ZM187.126 74.301C187.331 74.8706 187.523 75.426 187.586 76.1903C187.497 76.0699 187.415 75.9564 187.339 75.8518C187.002 75.3895 186.824 75.1495 186.694 75.031C186.695 74.4767 186.74 73.9236 186.826 73.3783C186.914 73.7087 187.021 74.0076 187.126 74.301ZM198.264 86.5183C195.605 86.5183 193.522 85.7453 192.549 84.3979C191.28 82.6391 190.158 81.6156 189.169 80.7122C188.291 79.911 187.462 79.1537 186.665 78.0068C186.502 77.7583 186.436 76.226 186.532 75.6306C186.647 75.7772 186.808 75.9968 186.964 76.2122C188.263 77.9953 191.303 82.1699 195.554 83.1918C196.181 83.3422 197.087 83.4249 198.104 83.4249C200.388 83.4249 204.265 82.9768 205.429 81.3668C205.471 81.6853 205.512 82.2564 205.512 83.2706C205.512 84.9706 202.057 86.5183 198.264 86.5183Z" stroke="#246B6D" stroke-width="0.5"/>
<path d="M177.202 82.8492L177.202 82.8493C177.935 83.1439 178.442 83.6216 178.647 84.1508C178.848 84.6707 178.755 85.2297 178.363 85.7161L178.363 85.7163C177.948 86.2314 177.262 86.5951 176.469 86.7485C175.679 86.9016 174.807 86.8403 174.045 86.5331L174.045 86.533L170 84.9043L169.943 84.8816L169.883 84.8874C169.594 84.9149 169.3 84.9294 169.001 84.9294C168.702 84.9294 168.407 84.9145 168.118 84.8873L168.058 84.8816L168.001 84.9043L163.956 86.533L163.956 86.5331C163.195 86.8403 162.323 86.9016 161.533 86.7485C160.74 86.5951 160.053 86.2314 159.638 85.7162L159.638 85.7161C159.245 85.2294 159.151 84.6705 159.353 84.151L159.353 84.1507C159.558 83.6221 160.064 83.1448 160.798 82.8492L160.798 82.8492L162.567 82.1359L162.826 82.0314L162.694 81.7854C162.389 81.2198 162.222 80.6067 162.222 79.9673C162.222 79.5204 162.303 79.0886 162.455 78.6766L162.557 78.4002L162.268 78.3445L161.474 78.1915C160.882 78.0774 160.4 77.8057 160.118 77.4584C159.843 77.1176 159.781 76.7319 159.918 76.374C160.066 75.9906 160.431 75.6604 160.94 75.4547C161.446 75.2503 162.068 75.1805 162.682 75.2987L164.829 75.7118L164.989 75.2435C163.52 74.4955 162.645 73.3801 162.645 72.1849C162.645 72.1647 162.646 72.1444 162.646 72.1198L162.652 71.9132L162.45 71.8692C161.016 71.5565 160.076 70.6381 160.076 69.6533C160.076 69.0467 160.425 68.4716 161.038 68.038C161.651 67.605 162.509 67.3291 163.468 67.3291C164.708 67.3291 165.773 67.7904 166.362 68.4491L166.463 68.5622L166.61 68.5249C167.347 68.3375 168.154 68.2337 169 68.2337C169.845 68.2337 170.651 68.3375 171.39 68.5253L171.537 68.5627L171.638 68.4496C172.226 67.7909 173.291 67.3295 174.532 67.3295C175.49 67.3295 176.349 67.6055 176.961 68.0384C177.574 68.472 177.923 69.047 177.923 69.6538C177.923 70.6381 176.983 71.5569 175.549 71.8696L175.347 71.9136L175.352 72.1203C175.353 72.1449 175.354 72.1651 175.354 72.1853C175.354 73.3806 174.479 74.496 173.01 75.2439L173.171 75.7122L175.318 75.2992L175.318 75.2991C175.932 75.1809 176.554 75.2506 177.06 75.455C177.569 75.6606 177.935 75.9908 178.083 76.3743C178.22 76.7324 178.155 77.1184 177.881 77.4596C177.6 77.8067 177.117 78.0779 176.526 78.192L175.732 78.3449L175.444 78.4004L175.544 78.6761C175.695 79.0896 175.777 79.5217 175.777 79.9673C175.777 80.6068 175.611 81.2199 175.306 81.7854L175.173 82.0314L175.432 82.1359L177.202 82.8492ZM165.57 81.2929L165.571 81.2939C165.59 81.3071 166.003 81.5975 166.53 81.9683C167.223 82.456 168.114 83.0828 168.566 83.4005C168.696 83.492 168.853 83.5306 169 83.5306C169.146 83.5306 169.303 83.4919 169.434 83.4006L169.434 83.4004L171.212 82.149L172.054 81.557L172.32 81.3699L172.397 81.3161L172.418 81.3008L172.425 81.2964C172.426 81.2952 172.427 81.2948 172.427 81.2948L172.427 81.2949L172.43 81.293C172.937 80.9343 173.218 80.4429 173.218 79.9251C173.218 79.4072 172.937 78.9159 172.43 78.5574L172.429 78.5574C171.926 78.2018 171.279 78.0305 170.644 78.0297C170.067 78.029 169.481 78.1686 169 78.4591C168.519 78.1686 167.933 78.029 167.356 78.0297C166.721 78.0305 166.074 78.2018 165.57 78.5574L165.57 78.5575C165.063 78.9159 164.782 79.4073 164.782 79.9251C164.782 80.4428 165.063 80.9343 165.57 81.2929ZM175.029 70.9407L175.126 71.1214L175.322 71.0608C176.011 70.8482 176.584 70.332 176.584 69.6533C176.584 69.1989 176.322 68.8118 175.949 68.5485C175.576 68.2847 175.073 68.1289 174.531 68.1289C173.891 68.1289 173.304 68.3459 172.921 68.7056L172.66 68.9506L172.98 69.1111C173.932 69.5896 174.643 70.2273 175.029 70.9407ZM165.02 69.1107L165.339 68.9499L165.078 68.7051C164.696 68.3459 164.108 68.1289 163.469 68.1289C162.926 68.1289 162.423 68.2847 162.05 68.5486C161.678 68.8119 161.415 69.1989 161.415 69.6533C161.415 70.3319 161.987 70.8483 162.678 71.0601L162.874 71.1202L162.971 70.9398C163.356 70.2274 164.068 69.5896 165.02 69.1107ZM167.216 71.9979C167.216 71.7588 167.078 71.5671 166.905 71.4454C166.732 71.3231 166.506 71.2551 166.268 71.2551C166.03 71.2551 165.803 71.3229 165.63 71.4452C165.458 71.5671 165.32 71.7588 165.32 71.9979C165.32 72.237 165.457 72.4289 165.63 72.5508C165.803 72.6733 166.03 72.7412 166.268 72.7412C166.506 72.7412 166.732 72.6731 166.905 72.5507C167.078 72.4288 167.216 72.2371 167.216 71.9979ZM172.68 72.0345C172.68 71.7955 172.542 71.6036 172.369 71.4817C172.196 71.3592 171.97 71.2913 171.732 71.2913C171.494 71.2913 171.267 71.3592 171.094 71.4817C170.922 71.6036 170.784 71.7955 170.784 72.0345C170.784 72.2737 170.922 72.4654 171.094 72.5873C171.267 72.7096 171.494 72.7773 171.732 72.7773C171.97 72.7773 172.196 72.7096 172.369 72.5873C172.542 72.4654 172.68 72.2737 172.68 72.0345ZM171.447 73.9382C171.447 73.4373 171.128 73.0193 170.688 72.739C170.244 72.4568 169.647 72.2904 169 72.2904C168.352 72.2904 167.755 72.4568 167.312 72.739C166.871 73.0194 166.553 73.4373 166.553 73.9382C166.553 74.4394 166.872 74.8573 167.312 75.1376C167.756 75.4197 168.353 75.586 169 75.586C169.646 75.586 170.244 75.4196 170.687 75.1374C171.128 74.8572 171.447 74.4393 171.447 73.9382Z" fill="#246B6D" fill-opacity="0.7" stroke="#246B6D" stroke-width="0.5"/>
<g clip-path="url(#clip0)">
<path d="M87.1986 68.7976H88.8277C89.0022 68.7976 89.1435 68.6562 89.1435 68.4818C89.1435 68.3074 89.0022 68.166 88.8277 68.166H87.1986C87.0241 68.166 86.8828 68.3074 86.8828 68.4818C86.8828 68.6562 87.0241 68.7976 87.1986 68.7976Z" fill="#246B6D"/>
<path d="M97.4045 74.6062L96.3179 70.1294C96.3071 70.0851 96.0428 69.0392 95.0038 68.5976C94.2517 68.278 91.8731 67.375 91.2775 67.1495C91.2233 67.1055 91.1542 67.0791 91.0789 67.0791H91.0337H84.9697C84.9596 67.0791 84.9496 67.0796 84.9395 67.0806C84.9351 67.0811 84.9309 67.0818 84.9266 67.0824C84.9211 67.0831 84.9156 67.0839 84.9101 67.0849C84.9049 67.0859 84.8999 67.0872 84.8949 67.0884C84.8904 67.0895 84.8858 67.0906 84.8813 67.0918C84.8761 67.0934 84.871 67.0951 84.8659 67.0969C84.8633 67.0978 84.8606 67.0985 84.858 67.0995C84.7353 67.1458 81.8435 68.2389 80.9996 68.5976C80.0006 69.0222 79.7179 70.0049 79.688 70.1193V70.1193C79.6875 70.1215 79.6866 70.1248 79.6866 70.1248C79.686 70.1269 79.6854 70.1293 79.6854 70.1293L78.9133 73.3107L78.5988 74.6063C78.5617 74.7592 78.6428 74.9161 78.7891 74.9742L81.8934 76.2074V85.4795V86.7633C81.8934 86.9378 82.0348 87.0791 82.2092 87.0791H93.7941C93.9685 87.0791 94.1099 86.9378 94.1099 86.7633V85.4795V79.4669C94.1099 79.2925 93.9685 79.1511 93.7941 79.1511C93.6196 79.1511 93.4783 79.2925 93.4783 79.4669V85.1637H85.7173C85.5428 85.1637 85.4015 85.3051 85.4015 85.4795C85.4015 85.6539 85.5428 85.7953 85.7173 85.7953H93.4783V86.4475H82.5251V85.7953H84.6647C84.8391 85.7953 84.9804 85.6539 84.9804 85.4795C84.9804 85.305 84.8391 85.1637 84.6647 85.1637H82.5251V75.993V74.6389V72.1918C82.5251 72.1342 82.5093 72.0777 82.4795 72.0284L80.8869 69.3946C80.9897 69.312 81.1089 69.2375 81.2467 69.1789C81.8932 68.9041 83.8319 68.1645 84.6785 67.843C84.8815 69.7093 86.331 71.2103 88.0244 71.2103C89.7126 71.2103 91.1587 69.7182 91.3685 67.8595C92.2363 68.1892 94.1211 68.9087 94.7568 69.1789C94.8946 69.2374 95.0137 69.312 95.1165 69.3946L93.524 72.0284C93.4942 72.0777 93.4785 72.1342 93.4785 72.1918V74.6388V75.993V78.4143C93.4785 78.5887 93.6198 78.73 93.7942 78.73C93.9687 78.73 94.11 78.5887 94.11 78.4143V76.2073L97.2143 74.9741C97.3604 74.9161 97.4416 74.7591 97.4045 74.6062ZM81.8935 75.5278L79.2774 74.4885L79.4397 73.8197L81.8935 74.8488L81.8935 75.5278ZM81.8935 72.2798V74.1639L79.5906 73.1981L80.299 70.2797C80.2999 70.2762 80.3429 70.1133 80.4589 69.9073L81.8935 72.2798ZM88.0243 70.5787C86.7762 70.5787 85.4447 69.4394 85.2987 67.7107H90.75C90.6039 69.4395 89.2725 70.5787 88.0243 70.5787ZM94.1099 72.2798L95.5446 69.9072C95.6206 70.0421 95.6653 70.1584 95.6872 70.2233V70.2233C95.6892 70.2294 95.6912 70.2356 95.6929 70.2407L95.6938 70.2437C95.6951 70.2478 95.6963 70.2514 95.6973 70.2548L95.6985 70.2588C95.6994 70.2616 95.7001 70.264 95.7007 70.2662L95.7016 70.2693L95.7028 70.2737L95.7035 70.2761L95.7041 70.2783L96.4128 73.1982L94.1099 74.164L94.1099 72.2798ZM94.1099 75.5278V74.8488L96.5637 73.8197L96.726 74.4885L94.1099 75.5278Z" fill="#246B6D"/>
<path d="M93.7188 75.9229V86.7979H88.0625H82.4062H82.25L82.0938 75.9229L78.9688 74.6416L79.75 71.1416L80.1875 69.7354L80.7188 69.1729L85.0625 67.3291L91.3438 67.5166L95.3438 69.1729L95.7812 69.7354L97.0625 74.6416L93.7188 75.9229Z" fill="#246B6D" fill-opacity="0.5"/>
</g>
<path d="M244.627 18.8722L244.734 18.441L244.31 18.5739L242.233 19.225L242.058 19.28V19.4636V22.3764H240.25V18.4332L246.043 16.4574C246.217 16.4539 246.365 16.4301 246.496 16.4089L246.501 16.4081C246.646 16.3847 246.772 16.3648 246.923 16.3648C247.649 16.3648 248.272 16.6976 248.69 17.2014L249.838 18.6824C250.781 20.0096 252.604 20.9443 254.75 21.012V22.3733C252.369 22.3146 250.225 21.4211 248.824 20.1178L248.513 19.8287L248.411 20.2406L247.719 23.0313L247.679 23.1901L247.809 23.2898L250.135 25.0752V31.6787H248.327V26.3473V26.2241L248.229 26.149L245.806 24.2886L245.513 24.0632L245.413 24.4196L243.387 31.6787H241.473L244.627 18.8722ZM250.712 13.7892C250.712 14.6268 249.838 15.3996 248.654 15.3996C247.47 15.3996 246.596 14.6268 246.596 13.7892C246.596 12.9516 247.47 12.1787 248.654 12.1787C249.838 12.1787 250.712 12.9516 250.712 13.7892Z" fill="#246B6D" fill-opacity="0.5" stroke="#246B6D" stroke-width="0.5"/>
<defs>
<filter id="filter0_d" x="5" y="0" width="202" height="62" filterUnits="userSpaceOnUse" color-interpolation-filters="sRGB">
<feFlood flood-opacity="0" result="BackgroundImageFix"/>
<feColorMatrix in="SourceAlpha" type="matrix" values="0 0 0 0 0 0 0 0 0 0 0 0 0 0 0 0 0 0 127 0"/>
<feOffset dy="1"/>
<feGaussianBlur stdDeviation="0.5"/>
<feColorMatrix type="matrix" values="0 0 0 0 0 0 0 0 0 0 0 0 0 0 0 0 0 0 0.25 0"/>
<feBlend mode="normal" in2="BackgroundImageFix" result="effect1_dropShadow"/>
<feBlend mode="normal" in="SourceGraphic" in2="effect1_dropShadow" result="shape"/>
</filter>
<filter id="filter1_d" x="239" y="43" width="132" height="24" filterUnits="userSpaceOnUse" color-interpolation-filters="sRGB">
<feFlood flood-opacity="0" result="BackgroundImageFix"/>
<feColorMatrix in="SourceAlpha" type="matrix" values="0 0 0 0 0 0 0 0 0 0 0 0 0 0 0 0 0 0 127 0"/>
<feOffset dy="1"/>
<feGaussianBlur stdDeviation="0.5"/>
<feColorMatrix type="matrix" values="0 0 0 0 0 0 0 0 0 0 0 0 0 0 0 0 0 0 0.25 0"/>
<feBlend mode="normal" in2="BackgroundImageFix" result="effect1_dropShadow"/>
<feBlend mode="normal" in="SourceGraphic" in2="effect1_dropShadow" result="shape"/>
</filter>
<filter id="filter2_d" x="239" y="71.3271" width="132" height="24" filterUnits="userSpaceOnUse" color-interpolation-filters="sRGB">
<feFlood flood-opacity="0" result="BackgroundImageFix"/>
<feColorMatrix in="SourceAlpha" type="matrix" values="0 0 0 0 0 0 0 0 0 0 0 0 0 0 0 0 0 0 127 0"/>
<feOffset dy="1"/>
<feGaussianBlur stdDeviation="0.5"/>
<feColorMatrix type="matrix" values="0 0 0 0 0 0 0 0 0 0 0 0 0 0 0 0 0 0 0.25 0"/>
<feBlend mode="normal" in2="BackgroundImageFix" result="effect1_dropShadow"/>
<feBlend mode="normal" in="SourceGraphic" in2="effect1_dropShadow" result="shape"/>
</filter>
<filter id="filter3_d" x="12.5098" y="66.3193" width="33.3118" height="23.88" filterUnits="userSpaceOnUse" color-interpolation-filters="sRGB">
<feFlood flood-opacity="0" result="BackgroundImageFix"/>
<feColorMatrix in="SourceAlpha" type="matrix" values="0 0 0 0 0 0 0 0 0 0 0 0 0 0 0 0 0 0 127 0"/>
<feOffset dy="1"/>
<feGaussianBlur stdDeviation="0.5"/>
<feColorMatrix type="matrix" values="0 0 0 0 0 0 0 0 0 0 0 0 0 0 0 0 0 0 0.25 0"/>
<feBlend mode="normal" in2="BackgroundImageFix" result="effect1_dropShadow"/>
<feBlend mode="normal" in="SourceGraphic" in2="effect1_dropShadow" result="shape"/>
</filter>
<filter id="filter4_d" x="267.113" y="13.2871" width="51.8976" height="21.487" filterUnits="userSpaceOnUse" color-interpolation-filters="sRGB">
<feFlood flood-opacity="0" result="BackgroundImageFix"/>
<feColorMatrix in="SourceAlpha" type="matrix" values="0 0 0 0 0 0 0 0 0 0 0 0 0 0 0 0 0 0 127 0"/>
<feOffset dy="1"/>
<feGaussianBlur stdDeviation="0.5"/>
<feColorMatrix type="matrix" values="0 0 0 0 0 0 0 0 0 0 0 0 0 0 0 0 0 0 0.25 0"/>
<feBlend mode="normal" in2="BackgroundImageFix" result="effect1_dropShadow"/>
<feBlend mode="normal" in="SourceGraphic" in2="effect1_dropShadow" result="shape"/>
</filter>
<clipPath id="clip0">
<path d="M78 67.0791H98V87.0791H78V67.0791Z" fill="white"/>
</clipPath>
</defs>
</svg>
