<svg width="163" height="95" viewBox="0 0 163 95" fill="none" xmlns="http://www.w3.org/2000/svg">
<path d="M0 0H163V95H0V0Z" fill="white"/>
<path d="M21.1016 14.25C18.8399 14.25 17 16.0899 17 18.3516V28.4532C17.7445 27.6918 18.7828 27.2188 19.9297 27.2188H33.4844V14.25H21.1016Z" fill="#246B6D" fill-opacity="0.7"/>
<path d="M35.2422 17.1797H34.6562V28.3906H19.9297C18.3116 28.3906 17 29.7023 17 31.3203C17 32.9384 18.3116 34.25 19.9297 34.25H35.2422C36.213 34.25 37 33.463 37 32.4922C37 31.5214 36.213 30.7344 35.2422 30.7344H19.9469C19.6317 30.7344 19.3602 30.9762 19.3445 31.2906C19.3277 31.6273 19.5969 31.9063 19.9297 31.9063H35.2422C35.5658 31.9063 35.8281 32.1685 35.8281 32.4922C35.8281 32.8158 35.5658 33.0781 35.2422 33.0781H19.961C18.9774 33.0781 18.1554 32.2731 18.1723 31.2898C18.1887 30.3344 18.9707 29.5625 19.9297 29.5625H35.2422C35.9012 29.5625 36.5102 29.7813 37 30.15C37 29.6472 37 19.2997 37 18.9375C37 17.9649 36.2075 17.1797 35.2422 17.1797Z" fill="#246B6D" fill-opacity="0.7"/>
<path d="M80.5 34.25H65.5C64.8099 34.25 64.2207 34.0059 63.7324 33.5176C63.2441 33.0293 63 32.4401 63 31.75V23C63 22.3099 63.2441 21.7207 63.7324 21.2324C64.2207 20.7441 64.8099 20.5 65.5 20.5H72.2969L68.4688 16.6523C68.3125 16.7174 68.1563 16.75 68 16.75C67.6615 16.75 67.3685 16.6263 67.1211 16.3789C66.8737 16.1315 66.75 15.8353 66.75 15.4902C66.75 15.1452 66.8737 14.8522 67.1211 14.6113C67.3685 14.3704 67.6647 14.25 68.0098 14.25C68.3548 14.25 68.6478 14.3704 68.8887 14.6113C69.1296 14.8522 69.25 15.1484 69.25 15.5C69.25 15.6562 69.2174 15.8125 69.1523 15.9687L73 19.7969L76.8477 15.9687C76.7826 15.8125 76.75 15.6562 76.75 15.5C76.75 15.1484 76.8737 14.8522 77.1211 14.6113C77.3685 14.3704 77.6647 14.25 78.0098 14.25C78.3548 14.25 78.6478 14.3704 78.8887 14.6113C79.1296 14.8522 79.25 15.1452 79.25 15.4902C79.25 15.8353 79.1296 16.1315 78.8887 16.3789C78.6478 16.6263 78.3516 16.75 78 16.75C77.8438 16.75 77.6875 16.7174 77.5313 16.6523L73.7031 20.5H80.5C81.1901 20.5 81.7793 20.7441 82.2676 21.2324C82.7559 21.7207 83 22.3099 83 23V31.75C83 32.4401 82.7559 33.0293 82.2676 33.5176C81.7793 34.0059 81.1901 34.25 80.5 34.25ZM76.75 26.3789C76.75 24.2305 76.3333 23.1042 75.5 23H65.5C65.2526 23.0391 65.0443 23.1497 64.875 23.332C64.7057 23.5143 64.582 23.7064 64.5039 23.9082C64.4258 24.11 64.3639 24.377 64.3184 24.709C64.2728 25.041 64.25 25.2949 64.25 25.4707V28.3711C64.25 28.6836 64.263 28.9928 64.2891 29.2988C64.3151 29.6048 64.3672 29.9499 64.4453 30.334C64.5234 30.7181 64.6504 31.0404 64.8262 31.3008C65.002 31.5612 65.2266 31.7109 65.5 31.75H75.5C75.6953 31.724 75.8711 31.6491 76.0273 31.5254C76.1836 31.4017 76.304 31.2259 76.3887 30.998C76.4733 30.7702 76.5417 30.5586 76.5938 30.3633C76.6458 30.168 76.6816 29.9206 76.7012 29.6211C76.7207 29.3216 76.7337 29.1003 76.7402 28.957C76.7467 28.8138 76.75 28.6185 76.75 28.3711V26.3789ZM81.125 23H78.625C78.4557 23 78.3092 23.0618 78.1855 23.1855C78.0618 23.3092 78 23.4557 78 23.625C78 23.7943 78.0618 23.9408 78.1855 24.0645C78.3092 24.1882 78.4557 24.25 78.625 24.25H81.125C81.2943 24.25 81.4408 24.1882 81.5645 24.0645C81.6882 23.9408 81.75 23.7943 81.75 23.625C81.75 23.4557 81.6882 23.3092 81.5645 23.1855C81.4408 23.0618 81.2943 23 81.125 23ZM81.125 25.5H78.625C78.4557 25.5 78.3092 25.5618 78.1855 25.6855C78.0618 25.8092 78 25.9557 78 26.125C78 26.2943 78.0618 26.4408 78.1855 26.5645C78.3092 26.6882 78.4557 26.75 78.625 26.75H81.125C81.2943 26.75 81.4408 26.6882 81.5645 26.5645C81.6882 26.4408 81.75 26.2943 81.75 26.125C81.75 25.9557 81.6882 25.8092 81.5645 25.6855C81.4408 25.5618 81.2943 25.5 81.125 25.5ZM81.125 28H78.625C78.4557 28 78.3092 28.0618 78.1855 28.1855C78.0618 28.3092 78 28.4557 78 28.625C78 28.7943 78.0618 28.9408 78.1855 29.0645C78.3092 29.1882 78.4557 29.25 78.625 29.25H81.125C81.2943 29.25 81.4408 29.1882 81.5645 29.0645C81.6882 28.9408 81.75 28.7943 81.75 28.625C81.75 28.4557 81.6882 28.3092 81.5645 28.1855C81.4408 28.0618 81.2943 28 81.125 28ZM81.125 30.5H78.625C78.4557 30.5 78.3092 30.5618 78.1855 30.6855C78.0618 30.8092 78 30.9557 78 31.125C78 31.2943 78.0618 31.4408 78.1855 31.5645C78.3092 31.6882 78.4557 31.75 78.625 31.75H81.125C81.2943 31.75 81.4408 31.6882 81.5645 31.5645C81.6882 31.4408 81.75 31.2943 81.75 31.125C81.75 30.9557 81.6882 30.8092 81.5645 30.6855C81.4408 30.5618 81.2943 30.5 81.125 30.5Z" fill="#246B6D" fill-opacity="0.7"/>
<path d="M104 31.59L104 28.25L106 28.25L106 20.25L104 20.25L104 16.91C104 15.45 103.4 14.25 102.67 14.25L87.34 14.25C86.6 14.25 86 15.45 86 16.91L86 31.57C86 33.05 86.6 34.25 87.33 34.25L102.67 34.25C103.4 34.25 104 33.05 104 31.59Z" fill="#246B6D" fill-opacity="0.7"/>
<path d="M99.9568 26.5097L98.7466 29.4566C98.5094 30.0419 98.0688 30.3482 97.6235 30.3073H96.6552V31.6685L95.445 28.6059L96.6552 25.5432V26.9044H98.0204L96.9457 24.2842L99.0419 22.5827L99.9133 24.7061C100.165 25.2302 100.199 25.9312 99.9568 26.5097ZM93.8523 18.0977H96.2728C96.7472 18.0977 97.1587 18.4856 97.3572 19.0437L97.8413 20.2279L98.6788 19.5473L97.4008 22.5487L94.9076 22.6099L95.7451 21.9293L95.0626 20.2619L93.9927 22.8822L91.8917 21.1807L92.7631 19.0573C92.9616 18.4924 93.373 18.0977 93.8523 18.0977ZM91.8384 29.4634L90.6282 26.5165C90.391 25.938 90.4249 25.2438 90.6718 24.7197L91.1559 23.5423L90.3184 22.8617L92.8066 22.9162L94.0895 25.9244L93.252 25.2438L92.5694 26.9044H94.7188V30.3073H92.9761C92.7493 30.3304 92.5224 30.2635 92.3213 30.1144C92.1202 29.9652 91.9529 29.7396 91.8384 29.4634Z" fill="white"/>
<path d="M128.666 25.0679C128.732 24.8373 128.79 24.6038 128.837 24.3679C128.84 24.35 128.841 24.3332 128.845 24.3153C128.865 24.2121 128.874 24.1058 128.89 24.0016C128.915 23.8363 128.945 23.6721 128.96 23.5058C129.079 22.2651 128.934 21.0121 128.535 19.8377C128.137 18.6633 127.495 17.5971 126.657 16.7163C125.914 15.9334 125.033 15.3125 124.062 14.8892C123.091 14.466 122.051 14.2488 121 14.25V22.6711H113.517L112.659 20.5658H109V22.6711H111.341L113.169 27.1616C112.528 27.4396 111.98 27.9114 111.594 28.5173C111.208 29.1233 111.001 29.8362 111 30.5658C111 32.5974 112.57 34.25 114.5 34.25C116.259 34.25 117.704 32.8721 117.949 31.0921H120.051C120.296 32.8721 121.741 34.25 123.5 34.25C125.43 34.25 127 32.5974 127 30.5658C127 29.9026 126.819 29.2889 126.527 28.75C126.569 28.7068 126.616 28.6689 126.658 28.6247C127.018 28.2447 127.346 27.8258 127.635 27.3784C127.923 26.9258 128.171 26.4458 128.371 25.9479C128.387 25.9089 128.397 25.8679 128.412 25.8289L128.428 25.7847C128.516 25.5532 128.596 25.3205 128.663 25.0816L128.666 25.0679ZM114.5 32.1447C113.673 32.1447 113 31.4363 113 30.5658C113 29.6953 113.673 28.9868 114.5 28.9868C115.327 28.9868 116 29.6953 116 30.5658C116 31.4363 115.327 32.1447 114.5 32.1447ZM123.5 32.1447C122.673 32.1447 122 31.4363 122 30.5658C122 29.6953 122.673 28.9868 123.5 28.9868C124.327 28.9868 125 29.6953 125 30.5658C125 31.4363 124.327 32.1447 123.5 32.1447Z" fill="#246B6D" fill-opacity="0.7"/>
<path d="M132.246 30.9844L134.698 33.6777L134.646 33.4468C134.511 32.8531 134.216 32.3087 133.792 31.874C133.368 31.4393 132.833 31.1313 132.246 30.9844V30.9844Z" fill="#246B6D" fill-opacity="0.7"/>
<path d="M136.688 29.7793H135.185L134.238 31.9567C134.569 32.3749 134.802 32.8628 134.919 33.3841L135.064 34.0253H136.808L136.953 33.3841C137.07 32.8628 137.303 32.375 137.634 31.9567L136.688 29.7793Z" fill="#246B6D" fill-opacity="0.7"/>
<path d="M132 28.9297V30.646C132.778 30.7669 133.493 31.1447 134.034 31.7199L134.878 29.7789H132.281V29.4958H139.873V28.9297H132Z" fill="#246B6D" fill-opacity="0.7"/>
<path d="M137.226 33.4468L137.174 33.6777L139.626 30.9844C139.039 31.1313 138.504 31.4393 138.08 31.874C137.657 32.3087 137.361 32.8531 137.226 33.4468V33.4468Z" fill="#246B6D" fill-opacity="0.7"/>
<path d="M137.838 31.7203C138.379 31.1451 139.094 30.7673 139.872 30.6464V29.7793H136.994L137.838 31.7203Z" fill="#246B6D" fill-opacity="0.7"/>
<path d="M151.507 30.6104L150.969 30.4781C150.486 30.3594 150.057 29.7827 149.887 29.3124C149.419 28.0167 150.076 26.6712 150.324 26.2328C150.347 26.1935 150.352 26.1468 150.34 26.1033C150.328 26.0597 150.298 26.0231 150.259 26.0016L148.071 24.8178C148.024 24.7922 147.967 24.7912 147.919 24.8151C147.87 24.839 147.837 24.8849 147.828 24.9383C147.712 25.6446 147.221 26.4842 146.887 26.9423L147.972 27.5246C148.142 27.6165 148.27 27.7762 148.323 27.9628C148.376 28.1494 148.352 28.3532 148.256 28.5219C148.114 28.773 147.749 29.4916 147.729 30.2883L147.764 30.3105C148.149 30.5547 148.442 30.9218 148.595 31.3531C148.717 31.6974 148.975 31.976 149.307 32.1235C149.639 32.2711 150.001 32.2271 150.352 32.1332C150.687 32.0435 151.604 31.843 151.604 31.843C151.809 31.7976 151.932 31.6043 151.982 31.3971C152.067 31.0478 151.854 30.6956 151.507 30.6104Z" fill="#246B6D" fill-opacity="0.7"/>
<path d="M148.957 32.624L148.419 32.4917C147.936 32.3731 147.507 31.7963 147.337 31.3261C146.869 30.0303 147.526 28.6847 147.774 28.2464C147.797 28.207 147.802 28.1603 147.79 28.1168C147.777 28.0733 147.748 28.0367 147.709 28.0153L145.521 26.8315C145.496 26.8182 145.469 26.8115 145.442 26.8115C145.417 26.8115 145.392 26.8172 145.369 26.8287C145.32 26.8527 145.286 26.8985 145.278 26.952C145.153 27.7112 144.807 28.3164 144.477 28.7443C145 29.1625 145.336 29.8077 145.336 30.5309C145.336 31.1094 145.121 31.6379 144.767 32.0404L145.214 32.324C145.599 32.5683 145.892 32.9354 146.045 33.3667C146.167 33.711 146.425 33.9896 146.757 34.1371C146.927 34.2125 147.109 34.2503 147.291 34.2503C147.622 34.2503 147.988 34.1721 149.054 33.8566C149.293 33.7826 149.382 33.6179 149.432 33.4106C149.517 33.0614 149.304 32.7093 148.957 32.624Z" fill="#246B6D" fill-opacity="0.7"/>
<path d="M144.114 29.1611C143.999 29.2766 143.902 29.3619 143.839 29.4149C143.811 29.4355 143.783 29.4571 143.756 29.4803C143.457 29.7401 143.298 30.1273 143.328 30.5238C143.357 30.9204 143.572 31.2793 143.906 31.4913L144.294 31.7378C144.598 31.4264 144.786 31 144.786 30.5299C144.786 29.9727 144.522 29.4767 144.114 29.1611Z" fill="#246B6D" fill-opacity="0.7"/>
<path d="M142.41 14.9492L142.235 15.1252V14.9492H141.376C140.989 15.552 140.171 15.9686 139.221 15.9686C138.272 15.9686 137.454 15.552 137.066 14.9492H136.207V15.1252L136.032 14.9492L132.941 18.0624L134.632 19.7658L136.207 18.1796V26.1111H142.235V18.18L143.81 19.7661L145.5 18.0624L142.41 14.9492Z" fill="#246B6D" fill-opacity="0.7"/>
<path d="M142.235 26.8113H136.207C135.823 26.8113 135.512 26.4978 135.512 26.1116V19.8698L135.123 20.2609C134.993 20.3924 134.816 20.4659 134.632 20.4659C134.447 20.4659 134.27 20.3921 134.14 20.2609L132.449 18.5575C132.178 18.2843 132.178 17.8418 132.449 17.5682L135.541 14.455C135.691 14.3028 135.909 14.229 136.119 14.2556C136.148 14.2521 136.177 14.25 136.207 14.25H137.066C137.302 14.25 137.522 14.3703 137.65 14.5694C137.923 14.9948 138.54 15.2694 139.221 15.2694C139.902 15.2694 140.519 14.9948 140.793 14.5694C140.92 14.3703 141.14 14.25 141.376 14.25H142.235C142.265 14.25 142.294 14.2517 142.323 14.2556C142.351 14.2521 142.38 14.25 142.409 14.25C142.41 14.25 142.41 14.25 142.41 14.25C142.594 14.25 142.771 14.3238 142.902 14.455L145.992 17.5679C146.263 17.8411 146.263 18.2836 145.992 18.5572L144.302 20.2609C144.172 20.3921 143.995 20.4659 143.811 20.4659C143.81 20.4659 143.81 20.4659 143.81 20.4659C143.626 20.4663 143.449 20.3924 143.319 20.2613L142.93 19.8694V26.1116C142.93 26.4981 142.619 26.8113 142.235 26.8113ZM136.902 25.4119H141.54V18.1804C141.54 17.8974 141.709 17.6424 141.969 17.5339C142.228 17.4251 142.527 17.4853 142.726 17.6858L143.81 18.7765L144.518 18.0629L142.294 15.8229C142.183 15.833 142.074 15.8155 141.97 15.7721C141.897 15.7421 141.831 15.7001 141.774 15.6493H141.714C141.141 16.2861 140.221 16.6688 139.221 16.6688C138.22 16.6688 137.301 16.2861 136.727 15.6493H136.668C136.611 15.7001 136.545 15.7417 136.473 15.7721C136.367 15.8159 136.255 15.8313 136.147 15.8229L133.923 18.0632L134.632 18.7769L135.715 17.6858C135.914 17.4853 136.212 17.4255 136.472 17.5339C136.732 17.6424 136.901 17.8974 136.901 18.1804V25.4119H136.902Z" fill="#246B6D" fill-opacity="0.7"/>
<path d="M135.91 21.5801L138.454 21.5801" stroke="white"/>
<line x1="135.91" y1="23.9219" x2="138.454" y2="23.9219" stroke="white"/>
<ellipse cx="138.438" cy="24.2216" rx="0.198143" ry="0.196814" transform="rotate(90 138.438 24.2216)" fill="white"/>
<ellipse cx="138.435" cy="21.58" rx="0.196814" ry="0.198143" fill="white"/>
<line y1="-0.5" x2="1.47531" y2="-0.5" transform="matrix(0.706959 0.707175 -0.702479 0.711784 136.631 17.5361)" stroke="white"/>
<circle r="0.196555" transform="matrix(0.701029 0.713132 -0.708395 0.705816 137.811 18.4381)" fill="white"/>
<circle r="0.198218" transform="matrix(0.701035 0.713127 -0.708401 0.70581 136.788 17.4141)" fill="white"/>
<line y1="-0.5" x2="1.4752" y2="-0.5" transform="matrix(0.702479 -0.711784 0.706959 0.707174 136.91 18.5986)" stroke="white"/>
<ellipse rx="0.196555" ry="0.196555" transform="matrix(0.708396 -0.705815 0.701031 0.713131 137.806 17.4096)" fill="white"/>
<circle r="0.198218" transform="matrix(0.708397 -0.705814 0.701031 0.713131 136.791 18.4399)" fill="white"/>
<line x1="140.303" y1="26.415" x2="140.303" y2="23.8538" stroke="white"/>
<ellipse cx="140.603" cy="23.8524" rx="0.196814" ry="0.198143" fill="white"/>
<line y1="-0.5" x2="1.47041" y2="-0.5" transform="matrix(0.999964 -0.00846248 0.00834671 0.999965 139.867 24.4336)" stroke="white"/>
<ellipse cx="141.338" cy="24.2246" rx="0.195893" ry="0.197216" fill="white"/>
<ellipse cx="139.895" cy="24.235" rx="0.19755" ry="0.198884" fill="white"/>
<line y1="-0.5" x2="1.47041" y2="-0.5" transform="matrix(0.999964 -0.00846053 0.00834863 0.999965 139.867 25.3379)" stroke="white"/>
<ellipse cx="141.338" cy="25.1289" rx="0.195893" ry="0.197216" fill="white"/>
<ellipse cx="139.895" cy="25.1393" rx="0.197549" ry="0.198884" fill="white"/>
<path d="M137.754 22.4492H138.435H139.116" stroke="#246B6D" stroke-opacity="0.7"/>
<path d="M137.754 22.4492H138.435H139.116" stroke="white"/>
<ellipse cx="139.117" cy="22.4489" rx="0.197549" ry="0.198884" fill="white"/>
<ellipse cx="139.117" cy="23.3044" rx="0.197549" ry="0.198884" fill="white"/>
<ellipse cx="137.731" cy="23.3044" rx="0.19755" ry="0.198884" fill="white"/>
<ellipse cx="137.729" cy="22.4489" rx="0.197549" ry="0.198884" fill="white"/>
<path d="M137.754 23.3047H138.435H139.116" stroke="white"/>
<path d="M150.354 66.8227L150.697 66.2567C150.697 66.2567 150.999 65.756 150.999 65.0837C150.999 63.455 149.445 63.498 149.445 63.498L146.06 62.5763L144.213 60.75L141.782 61.4117L140.985 61.1947L140.38 61.7937L136.881 62.7463C136.881 62.7463 135.534 62.7093 135.534 64.1207C135.534 64.7034 135.796 65.1374 135.796 65.1374L136.246 65.8807L135.851 66.2714L133.897 66.8034C133.897 66.8034 132.343 66.7604 132.343 68.3891C132.346 68.7685 132.435 69.1424 132.603 69.4827L132 70.0791L132.316 70.2044C132.323 70.2214 132.326 70.2404 132.34 70.2541C132.951 70.8671 132.901 71.6904 132.814 72.1351L132.444 72.5054L135.244 73.8518L139.09 80.2001C139.707 81.1688 141.015 80.5628 141.015 80.5628L150.898 75.8108L150.528 75.4404C150.441 74.9958 150.391 74.1724 151.002 73.5591C151.016 73.5454 151.019 73.5264 151.026 73.5098L151.342 73.3841L149.504 71.5674L151.614 70.5531L151.294 70.2321C151.218 69.8467 151.175 69.1331 151.705 68.6017C151.717 68.5897 151.719 68.5737 151.725 68.5587L152 68.4497L150.354 66.8227ZM148.459 63.8777L148.043 64.537L146.965 63.471L148.459 63.8777ZM144.392 62.4647L145.94 64.119L140.343 66.1414L139.022 64.0894L144.392 62.4647ZM136.581 66.434L140.4 72.7377L133.125 69.8517L136.581 66.434ZM134.99 67.123L134.541 67.5664L134.362 67.2914L134.99 67.123ZM133.574 67.4677L133.991 68.11L133.087 69.0041C133.016 68.8067 132.979 68.5988 132.977 68.3891C132.977 67.7804 133.279 67.5487 133.574 67.4677ZM133.051 72.4254L133.056 72.4061L141.439 76.0751L133.122 72.1104C133.13 72.0654 133.136 72.0157 133.142 71.9657L139.653 74.6924L133.165 71.6537C133.166 71.5149 133.157 71.3761 133.136 71.2387L139.162 73.7204L133.055 70.8834C133.016 70.7521 132.963 70.6251 132.898 70.5044L141.193 74.0461L141.381 74.3574C141.77 74.9688 142.476 74.8558 142.832 74.7498C143.323 74.9924 144.205 75.5538 143.979 76.3808C143.86 76.8181 143.598 77.0301 143.179 77.0301C142.755 77.0301 142.331 76.8081 142.327 76.8051L133.051 72.4254ZM141.4 76.8118L140.745 77.0831L140.188 76.2288L141.4 76.8118ZM138.862 78.6055L136.286 74.3524L138.846 75.5834L140.057 77.4474C139.569 77.6561 139.023 78.1325 138.862 78.6055ZM150.206 74.5441C150.186 74.6814 150.176 74.8202 150.178 74.9591L143.689 77.9978L150.2 75.2711C150.207 75.3208 150.212 75.3708 150.22 75.4158L141.904 79.3808L150.286 75.7118C150.288 75.7182 150.29 75.7246 150.291 75.7311L141.015 80.1101C141.011 80.1131 140.588 80.3351 140.163 80.3351C139.744 80.3351 139.482 80.1228 139.363 79.6858C139.057 78.5635 140.797 77.9271 140.823 77.9175L142.348 77.2668C142.512 77.3364 143.68 77.7948 144.252 76.8951L144.613 76.2998L150.444 73.8098C150.379 73.9305 150.327 74.0575 150.287 74.1888L144.18 77.0258L150.206 74.5441ZM150.218 73.1571L145.276 75.2051L146.647 72.9414L148.903 71.8571L150.218 73.1571ZM151.015 69.4547C150.998 69.5738 150.989 69.694 150.99 69.8144L145.368 72.4477L151.01 70.0847C151.016 70.1277 151.021 70.1714 151.028 70.2101L143.82 73.6461L151.084 70.4664C151.086 70.4719 151.088 70.4774 151.089 70.4831L143.05 74.2788C143.046 74.2811 142.679 74.4738 142.311 74.4738C141.947 74.4738 141.721 74.2894 141.618 73.9108C141.353 72.9381 142.861 72.3867 142.883 72.3784L151.221 68.8184C151.165 68.9231 151.12 69.0332 151.086 69.1471L145.792 71.6057L151.015 69.4547Z" fill="#246B6D" fill-opacity="0.7"/>
<path d="M35.75 80.75H30.75C30.3984 80.75 30.1022 80.6264 29.8613 80.3791C29.6204 80.1318 29.5 79.8389 29.5 79.5006V74.5027C29.5 74.1513 29.3763 73.8552 29.1289 73.6145C28.8815 73.3737 28.5885 73.2533 28.25 73.2533H25.75C25.3984 73.2533 25.1022 73.3737 24.8613 73.6145C24.6204 73.8552 24.5 74.1513 24.5 74.5027V79.5006C24.5 79.8389 24.3763 80.1318 24.1289 80.3791C23.8815 80.6264 23.5885 80.75 23.25 80.75H18.2305C17.931 80.75 17.651 80.6231 17.3906 80.3693C17.1302 80.1155 17 79.8324 17 79.5201C17 79.2858 17.0586 79.0711 17.1758 78.8758L25.4766 67.2403L22.1758 62.633C21.9935 62.3336 21.9479 62.018 22.0391 61.6861C22.1302 61.3542 22.3255 61.1037 22.625 60.9345C22.9245 60.7653 23.2402 60.723 23.5723 60.8076C23.9043 60.8922 24.1549 61.0842 24.3242 61.3835L27 65.1123L29.6563 61.364C29.8255 61.0777 30.0794 60.8889 30.418 60.7978C30.7565 60.7067 31.0723 60.7458 31.3652 60.915C31.6582 61.0842 31.8503 61.3347 31.9414 61.6666C32.0326 61.9985 31.9935 62.3141 31.8242 62.6134L28.5234 67.2403L36.8242 78.8953C36.9414 79.1036 37 79.3053 37 79.5006C37 79.8129 36.873 80.0992 36.6191 80.3595C36.3652 80.6198 36.0755 80.75 35.75 80.75Z" fill="#246B6D" fill-opacity="0.7"/>
<path d="M44.3905 18.2185C44.6445 18.2185 44.8504 17.9316 44.8504 17.5777C44.8504 17.2238 44.6445 16.9369 44.3905 16.9369C44.1364 16.9369 43.9305 17.2238 43.9305 17.5777C43.9305 17.9316 44.1364 18.2185 44.3905 18.2185Z" fill="#246B6D" fill-opacity="0.7"/>
<path d="M59.5 27.6588C59.1163 26.9623 58.5343 26.0358 58.079 25.8904C57.8277 25.675 57.4394 25.5019 57.0234 25.3215L56.8114 25.2285C56.817 25.035 56.7654 24.895 56.6507 24.8023C55.9494 24.2373 55.238 23.4019 54.5547 22.4623C54.573 22.4069 54.5837 22.3469 54.5837 22.2823C54.5837 22.0396 54.442 21.8431 54.2677 21.8431C54.2174 21.8431 54.1714 21.8481 54.1217 21.8488C53.9224 21.557 53.7275 21.2612 53.5371 20.9615C53.5697 20.8927 53.5934 20.8146 53.5934 20.7262C53.5934 20.4831 53.4517 20.2865 53.2777 20.2865C53.2614 20.2865 53.2044 20.2869 53.1174 20.2908C52.8952 19.9269 52.6766 19.56 52.4617 19.1904C52.4754 19.1415 52.4844 19.0896 52.4844 19.0346C52.4844 18.7915 52.3431 18.5946 52.1691 18.5946C52.1521 18.5946 52.1367 18.5962 52.1204 18.5962C51.9179 18.2395 51.7171 17.8815 51.5181 17.5223C51.5281 17.4788 51.5377 17.4342 51.5377 17.3865C51.5377 17.1438 51.3957 16.9473 51.2221 16.9473L51.2001 16.9481C50.3881 15.485 50.2404 15.2642 50.0154 15.2642C49.8668 15.2642 49.7288 15.2758 49.5944 15.2915C49.5438 15.1865 49.4921 15.0846 49.4418 14.9781C49.2848 14.6465 48.9494 14.25 48.2464 14.25C47.1814 14.25 45.7201 15.1627 44.8625 15.7723C44.0495 15.3742 43.3581 15.1681 42.8138 15.1681C42.2581 15.1681 41.9995 15.3769 41.8911 15.5035C41.8845 15.51 41.8765 15.5138 41.8701 15.5215C41.2708 16.2769 40.8852 17.6892 40.6375 19.0881C40.2428 20.5369 40.1998 21.7165 40.2062 22.2604C40.1817 22.2933 40.1607 22.3295 40.1435 22.3681C39.9132 22.92 39.9602 25.0619 40.2842 25.5269C41.1152 26.7242 41.9655 27.5004 42.8658 28.3223C43.8841 29.2519 44.9368 30.2131 46.1741 31.9265C47.2401 33.4035 49.4594 34.25 52.2637 34.25C55.9997 34.25 60 32.7196 60 30.4423C60 27.9354 59.7657 27.6708 59.5 27.6588ZM59.133 28.0458C58.4107 29.3385 55.057 30.0354 52.1044 30.0354C51.1187 30.0354 50.2487 29.9569 49.6538 29.8138C48.8298 29.6158 48.0534 29.2881 47.3254 28.8827C48.0091 27.8504 49.2464 27.69 50.5071 27.69C50.9967 27.69 51.5021 27.7154 52.0377 27.7431C52.5847 27.7708 53.1504 27.7992 53.7097 27.7992C55.0597 27.7992 56.7594 27.6446 58.031 26.4642C58.2587 26.6227 58.711 27.2738 59.133 28.0458ZM55.1684 24.52C55.3614 24.7523 55.5434 24.9727 55.6997 25.1692C55.9134 25.4385 56.3694 25.6365 56.8514 25.8462C57.1007 25.9546 57.3517 26.0658 57.55 26.1785C56.4287 27.1046 54.9897 27.2388 53.7097 27.2388C53.1874 27.2388 52.6554 27.2127 52.1374 27.1862C52.1364 26.5735 52.0591 25.9504 51.9281 25.5688C52.6837 25.0565 53.7701 24.5631 55.1684 24.52ZM53.7144 22.7431C53.9686 23.0633 54.2257 23.3806 54.4854 23.695C53.2241 23.8592 52.2351 24.3512 51.5297 24.8531C51.2826 24.451 51.0334 24.0504 50.7824 23.6515C51.4501 23.2254 52.4051 22.8319 53.7144 22.7431ZM53.0834 21.9292C51.8777 22.1019 50.9827 22.5196 50.3424 22.9623C50.1411 22.6477 49.9434 22.3431 49.7508 22.0496C50.7247 21.51 51.8424 21.2992 52.5541 21.2177C52.7341 21.465 52.9097 21.7 53.0834 21.9292ZM49.2951 21.365C49.0543 21.0069 48.8104 20.6517 48.5634 20.2992C49.2654 19.9492 50.2114 19.6196 51.3864 19.5131C51.5824 19.8158 51.7826 20.1149 51.9867 20.4104C51.2044 20.5408 50.1911 20.8108 49.2951 21.365ZM52.0434 19.4785C52.1904 19.7323 52.3421 19.99 52.4987 20.2508C52.3221 19.9968 52.1484 19.7401 51.9777 19.4808C51.9997 19.48 52.0211 19.4785 52.0434 19.4785ZM51.1107 17.83C51.2494 18.0796 51.3954 18.3412 51.5501 18.6162C51.5094 18.6185 51.4707 18.6238 51.4304 18.6269C51.2683 18.3653 51.1091 18.1013 50.9527 17.835C51.0061 17.8335 51.0571 17.8308 51.1107 17.83ZM48.0691 19.6108C47.8384 19.2942 47.6036 18.9818 47.3648 18.6735C48.0848 18.3138 49.0854 17.9723 50.3837 17.8642C50.5457 18.1465 50.7081 18.4215 50.8701 18.6877C49.6884 18.8569 48.7531 19.2342 48.0691 19.6108ZM49.9477 15.8265C50.0657 15.9665 50.3327 16.4319 50.6317 16.9665C50.5757 16.9696 50.5194 16.9723 50.4644 16.9762C50.2568 16.5994 50.0555 16.2182 49.8604 15.8327C49.8901 15.8315 49.9171 15.8273 49.9477 15.8265ZM48.2464 14.8108C48.6231 14.8108 48.8741 14.9535 49.0134 15.2469C49.2997 15.8508 49.601 16.4451 49.9171 17.0288C48.5651 17.1985 47.5458 17.6115 46.8294 18.0146C46.1281 17.1781 45.5355 16.6008 45.0565 16.2962C45.8598 15.7192 47.2774 14.8108 48.2464 14.8108ZM42.2571 15.8731C42.3085 15.8308 42.4668 15.7285 42.8135 15.7285C43.0821 15.7285 43.5121 15.7958 44.1425 16.0504C43.2965 16.1604 42.8285 16.9265 42.4511 17.5588C42.2085 17.9642 41.9805 18.3469 41.7671 18.36C41.6365 18.1677 41.8698 16.9919 42.2571 15.8731ZM41.2722 18.3965C41.2895 18.5042 41.3188 18.5981 41.3622 18.6727C41.4515 18.8246 41.5902 18.9073 41.7528 18.9073C42.2375 18.9073 42.5365 18.4065 42.8531 17.8758C43.2318 17.2427 43.6228 16.5881 44.3468 16.5881C44.7515 16.5881 45.4515 17.1865 46.3784 18.2877C46.1468 18.4423 45.9684 18.5835 45.8338 18.6985C45.7965 18.684 45.7575 18.6762 45.7181 18.6754C45.4638 18.6754 45.2578 18.9623 45.2578 19.3162C45.2578 19.67 45.4638 19.9569 45.7181 19.9569C45.9408 19.9569 46.1264 19.7365 46.1691 19.4435C46.4005 19.25 46.6443 19.0772 46.8984 18.9265C47.1432 19.2391 47.3831 19.5566 47.6181 19.8788C47.4043 20.016 47.1973 20.1669 46.9981 20.3308C46.9586 20.3144 46.9171 20.3057 46.8751 20.305C46.6211 20.305 46.4151 20.5915 46.4151 20.9458C46.4151 21.3 46.6211 21.5865 46.8751 21.5865C47.0941 21.5865 47.2764 21.3727 47.3231 21.0869C47.5707 20.8859 47.8305 20.7057 48.1004 20.5477C48.3481 20.8973 48.6048 21.2669 48.8691 21.6585C48.5966 21.866 48.3458 22.1093 48.1218 22.3835C48.1094 22.3819 48.0978 22.3785 48.0851 22.3785C47.8301 22.3785 47.6244 22.6654 47.6244 23.0192C47.6244 23.3727 47.8301 23.66 48.0851 23.66C48.3341 23.66 48.5364 23.3823 48.5431 23.0369C48.7705 22.7595 49.0297 22.5192 49.3134 22.3227C49.5151 22.6281 49.7214 22.9438 49.9324 23.2708C49.6888 23.4732 49.4631 23.7031 49.2588 23.9569C49.2484 23.9562 49.2384 23.9527 49.2281 23.9527C48.9744 23.9527 48.7681 24.24 48.7681 24.5938C48.7681 24.9473 48.9744 25.2346 49.2281 25.2346C49.4794 25.2346 49.6821 24.9538 49.6871 24.6058C49.8917 24.3589 50.1187 24.138 50.3641 23.9469C50.6199 24.3514 50.8733 24.7578 51.1244 25.1662C50.8961 25.3544 50.6793 25.5606 50.4757 25.7835C50.4544 25.7792 50.4334 25.7746 50.4117 25.7746C50.1571 25.7746 49.9514 26.0619 49.9514 26.4154C49.9514 26.7692 50.1571 27.0562 50.4117 27.0562C50.6497 27.0562 50.8441 26.8019 50.8667 26.4773C51.0702 26.2578 51.2873 26.0559 51.5164 25.8731C51.6134 26.19 51.6547 26.6854 51.6527 27.1631C51.2713 27.1427 50.8896 27.1313 50.5077 27.1288C49.0758 27.1288 47.6668 27.3277 46.8821 28.6246C44.7968 27.3373 43.1608 25.43 42.0891 24.0315C42.1131 22.7838 41.8458 22.0042 41.5782 21.2585C41.3548 20.6346 41.1442 20.0438 41.1215 19.1769C41.1665 18.915 41.2162 18.6527 41.2722 18.3965ZM41.1265 21.4719C41.3308 22.0415 41.5235 22.5969 41.5858 23.3612C41.4975 23.2408 41.4148 23.1273 41.3388 23.0227C41.0018 22.5604 40.8238 22.3204 40.6938 22.2019C40.6954 21.6476 40.7398 21.0945 40.8265 20.5492C40.9138 20.8796 41.0212 21.1785 41.1265 21.4719ZM52.2637 33.6892C49.6048 33.6892 47.5224 32.9162 46.5494 31.5688C45.2798 29.81 44.1585 28.7865 43.1691 27.8831C42.2911 27.0819 41.4622 26.3246 40.6652 25.1777C40.5025 24.9292 40.4362 23.3969 40.5322 22.8015C40.6475 22.9481 40.8078 23.1677 40.9645 23.3831C42.2628 25.1662 45.3035 29.3408 49.5544 30.3627C50.1807 30.5131 51.0867 30.5958 52.1044 30.5958C54.3884 30.5958 58.265 30.1477 59.4293 28.5377C59.471 28.8562 59.512 29.4273 59.512 30.4415C59.512 32.1415 56.057 33.6892 52.2637 33.6892Z" fill="#246B6D" fill-opacity="0.7"/>
<path d="M44.3905 18.2185C44.6445 18.2185 44.8504 17.9316 44.8504 17.5777C44.8504 17.2238 44.6445 16.9369 44.3905 16.9369C44.1364 16.9369 43.9305 17.2238 43.9305 17.5777C43.9305 17.9316 44.1364 18.2185 44.3905 18.2185Z" stroke="#246B6D" stroke-opacity="0.7" stroke-width="1.25"/>
<path d="M59.5 27.6588C59.1163 26.9623 58.5343 26.0358 58.079 25.8904C57.8277 25.675 57.4394 25.5019 57.0234 25.3215L56.8114 25.2285C56.817 25.035 56.7654 24.895 56.6507 24.8023C55.9494 24.2373 55.238 23.4019 54.5547 22.4623C54.573 22.4069 54.5837 22.3469 54.5837 22.2823C54.5837 22.0396 54.442 21.8431 54.2677 21.8431C54.2174 21.8431 54.1714 21.8481 54.1217 21.8488C53.9224 21.557 53.7275 21.2612 53.5371 20.9615C53.5697 20.8927 53.5934 20.8146 53.5934 20.7262C53.5934 20.4831 53.4517 20.2865 53.2777 20.2865C53.2614 20.2865 53.2044 20.2869 53.1174 20.2908C52.8952 19.9269 52.6766 19.56 52.4617 19.1904C52.4754 19.1415 52.4844 19.0896 52.4844 19.0346C52.4844 18.7915 52.3431 18.5946 52.1691 18.5946C52.1521 18.5946 52.1367 18.5962 52.1204 18.5962C51.9179 18.2395 51.7171 17.8815 51.5181 17.5223C51.5281 17.4788 51.5377 17.4342 51.5377 17.3865C51.5377 17.1438 51.3957 16.9473 51.2221 16.9473L51.2001 16.9481C50.3881 15.485 50.2404 15.2642 50.0154 15.2642C49.8668 15.2642 49.7288 15.2758 49.5944 15.2915C49.5438 15.1865 49.4921 15.0846 49.4418 14.9781C49.2848 14.6465 48.9494 14.25 48.2464 14.25C47.1814 14.25 45.7201 15.1627 44.8625 15.7723C44.0495 15.3742 43.3581 15.1681 42.8138 15.1681C42.2581 15.1681 41.9995 15.3769 41.8911 15.5035C41.8845 15.51 41.8765 15.5138 41.8701 15.5215C41.2708 16.2769 40.8852 17.6892 40.6375 19.0881C40.2428 20.5369 40.1998 21.7165 40.2062 22.2604C40.1817 22.2933 40.1607 22.3295 40.1435 22.3681C39.9132 22.92 39.9602 25.0619 40.2842 25.5269C41.1152 26.7242 41.9655 27.5004 42.8658 28.3223C43.8841 29.2519 44.9368 30.2131 46.1741 31.9265C47.2401 33.4035 49.4594 34.25 52.2637 34.25C55.9997 34.25 60 32.7196 60 30.4423C60 27.9354 59.7657 27.6708 59.5 27.6588ZM59.133 28.0458C58.4107 29.3385 55.057 30.0354 52.1044 30.0354C51.1187 30.0354 50.2487 29.9569 49.6538 29.8138C48.8298 29.6158 48.0534 29.2881 47.3254 28.8827C48.0091 27.8504 49.2464 27.69 50.5071 27.69C50.9967 27.69 51.5021 27.7154 52.0377 27.7431C52.5847 27.7708 53.1504 27.7992 53.7097 27.7992C55.0597 27.7992 56.7594 27.6446 58.031 26.4642C58.2587 26.6227 58.711 27.2738 59.133 28.0458ZM55.1684 24.52C55.3614 24.7523 55.5434 24.9727 55.6997 25.1692C55.9134 25.4385 56.3694 25.6365 56.8514 25.8462C57.1007 25.9546 57.3517 26.0658 57.55 26.1785C56.4287 27.1046 54.9897 27.2388 53.7097 27.2388C53.1874 27.2388 52.6554 27.2127 52.1374 27.1862C52.1364 26.5735 52.0591 25.9504 51.9281 25.5688C52.6837 25.0565 53.7701 24.5631 55.1684 24.52ZM53.7144 22.7431C53.9686 23.0633 54.2257 23.3806 54.4854 23.695C53.2241 23.8592 52.2351 24.3512 51.5297 24.8531C51.2826 24.451 51.0334 24.0504 50.7824 23.6515C51.4501 23.2254 52.4051 22.8319 53.7144 22.7431ZM53.0834 21.9292C51.8777 22.1019 50.9827 22.5196 50.3424 22.9623C50.1411 22.6477 49.9434 22.3431 49.7508 22.0496C50.7247 21.51 51.8424 21.2992 52.5541 21.2177C52.7341 21.465 52.9097 21.7 53.0834 21.9292ZM49.2951 21.365C49.0543 21.0069 48.8104 20.6517 48.5634 20.2992C49.2654 19.9492 50.2114 19.6196 51.3864 19.5131C51.5824 19.8158 51.7826 20.1149 51.9867 20.4104C51.2044 20.5408 50.1911 20.8108 49.2951 21.365ZM52.0434 19.4785C52.1904 19.7323 52.3421 19.99 52.4987 20.2508C52.3221 19.9968 52.1484 19.7401 51.9777 19.4808C51.9997 19.48 52.0211 19.4785 52.0434 19.4785ZM51.1107 17.83C51.2494 18.0796 51.3954 18.3412 51.5501 18.6162C51.5094 18.6185 51.4707 18.6238 51.4304 18.6269C51.2683 18.3653 51.1091 18.1013 50.9527 17.835C51.0061 17.8335 51.0571 17.8308 51.1107 17.83ZM48.0691 19.6108C47.8384 19.2942 47.6036 18.9818 47.3648 18.6735C48.0848 18.3138 49.0854 17.9723 50.3837 17.8642C50.5457 18.1465 50.7081 18.4215 50.8701 18.6877C49.6884 18.8569 48.7531 19.2342 48.0691 19.6108ZM49.9477 15.8265C50.0657 15.9665 50.3327 16.4319 50.6317 16.9665C50.5757 16.9696 50.5194 16.9723 50.4644 16.9762C50.2568 16.5994 50.0555 16.2182 49.8604 15.8327C49.8901 15.8315 49.9171 15.8273 49.9477 15.8265ZM48.2464 14.8108C48.6231 14.8108 48.8741 14.9535 49.0134 15.2469C49.2997 15.8508 49.601 16.4451 49.9171 17.0288C48.5651 17.1985 47.5458 17.6115 46.8294 18.0146C46.1281 17.1781 45.5355 16.6008 45.0565 16.2962C45.8598 15.7192 47.2774 14.8108 48.2464 14.8108ZM42.2571 15.8731C42.3085 15.8308 42.4668 15.7285 42.8135 15.7285C43.0821 15.7285 43.5121 15.7958 44.1425 16.0504C43.2965 16.1604 42.8285 16.9265 42.4511 17.5588C42.2085 17.9642 41.9805 18.3469 41.7671 18.36C41.6365 18.1677 41.8698 16.9919 42.2571 15.8731ZM41.2722 18.3965C41.2895 18.5042 41.3188 18.5981 41.3622 18.6727C41.4515 18.8246 41.5902 18.9073 41.7528 18.9073C42.2375 18.9073 42.5365 18.4065 42.8531 17.8758C43.2318 17.2427 43.6228 16.5881 44.3468 16.5881C44.7515 16.5881 45.4515 17.1865 46.3784 18.2877C46.1468 18.4423 45.9684 18.5835 45.8338 18.6985C45.7965 18.684 45.7575 18.6762 45.7181 18.6754C45.4638 18.6754 45.2578 18.9623 45.2578 19.3162C45.2578 19.67 45.4638 19.9569 45.7181 19.9569C45.9408 19.9569 46.1264 19.7365 46.1691 19.4435C46.4005 19.25 46.6443 19.0772 46.8984 18.9265C47.1432 19.2391 47.3831 19.5566 47.6181 19.8788C47.4043 20.016 47.1973 20.1669 46.9981 20.3308C46.9586 20.3144 46.9171 20.3057 46.8751 20.305C46.6211 20.305 46.4151 20.5915 46.4151 20.9458C46.4151 21.3 46.6211 21.5865 46.8751 21.5865C47.0941 21.5865 47.2764 21.3727 47.3231 21.0869C47.5707 20.8859 47.8305 20.7057 48.1004 20.5477C48.3481 20.8973 48.6048 21.2669 48.8691 21.6585C48.5966 21.866 48.3458 22.1093 48.1218 22.3835C48.1094 22.3819 48.0978 22.3785 48.0851 22.3785C47.8301 22.3785 47.6244 22.6654 47.6244 23.0192C47.6244 23.3727 47.8301 23.66 48.0851 23.66C48.3341 23.66 48.5364 23.3823 48.5431 23.0369C48.7705 22.7595 49.0297 22.5192 49.3134 22.3227C49.5151 22.6281 49.7214 22.9438 49.9324 23.2708C49.6888 23.4732 49.4631 23.7031 49.2588 23.9569C49.2484 23.9562 49.2384 23.9527 49.2281 23.9527C48.9744 23.9527 48.7681 24.24 48.7681 24.5938C48.7681 24.9473 48.9744 25.2346 49.2281 25.2346C49.4794 25.2346 49.6821 24.9538 49.6871 24.6058C49.8917 24.3589 50.1187 24.138 50.3641 23.9469C50.6199 24.3514 50.8733 24.7578 51.1244 25.1662C50.8961 25.3544 50.6793 25.5606 50.4757 25.7835C50.4544 25.7792 50.4334 25.7746 50.4117 25.7746C50.1571 25.7746 49.9514 26.0619 49.9514 26.4154C49.9514 26.7692 50.1571 27.0562 50.4117 27.0562C50.6497 27.0562 50.8441 26.8019 50.8667 26.4773C51.0702 26.2578 51.2873 26.0559 51.5164 25.8731C51.6134 26.19 51.6547 26.6854 51.6527 27.1631C51.2713 27.1427 50.8896 27.1313 50.5077 27.1288C49.0758 27.1288 47.6668 27.3277 46.8821 28.6246C44.7968 27.3373 43.1608 25.43 42.0891 24.0315C42.1131 22.7838 41.8458 22.0042 41.5782 21.2585C41.3548 20.6346 41.1442 20.0438 41.1215 19.1769C41.1665 18.915 41.2162 18.6527 41.2722 18.3965ZM41.1265 21.4719C41.3308 22.0415 41.5235 22.5969 41.5858 23.3612C41.4975 23.2408 41.4148 23.1273 41.3388 23.0227C41.0018 22.5604 40.8238 22.3204 40.6938 22.2019C40.6954 21.6476 40.7398 21.0945 40.8265 20.5492C40.9138 20.8796 41.0212 21.1785 41.1265 21.4719ZM52.2637 33.6892C49.6048 33.6892 47.5224 32.9162 46.5494 31.5688C45.2798 29.81 44.1585 28.7865 43.1691 27.8831C42.2911 27.0819 41.4622 26.3246 40.6652 25.1777C40.5025 24.9292 40.4362 23.3969 40.5322 22.8015C40.6475 22.9481 40.8078 23.1677 40.9645 23.3831C42.2628 25.1662 45.3035 29.3408 49.5544 30.3627C50.1807 30.5131 51.0867 30.5958 52.1044 30.5958C54.3884 30.5958 58.265 30.1477 59.4293 28.5377C59.471 28.8562 59.512 29.4273 59.512 30.4415C59.512 32.1415 56.057 33.6892 52.2637 33.6892Z" stroke="#246B6D" stroke-opacity="0.7" stroke-width="1.25"/>
<path d="M19.8571 55.3214H22.7143V38.8929H21.6429V54.6071H20.9286V38.8929H19.8571V55.3214Z" fill="#246B6D" fill-opacity="0.7"/>
<path d="M17.3571 56.75H36.6429C36.8401 56.75 37 56.5901 37 56.3929V44.9643H34.5C33.9083 44.9643 33.4286 44.4845 33.4286 43.8929V42.4643H34.1429V43.8929C34.1429 44.0901 34.3028 44.25 34.5 44.25H36.4943L34.0939 41.8529C34.0255 41.7871 33.9343 41.7503 33.8393 41.75H30.2143V55.6786C30.2143 55.8758 30.0544 56.0357 29.8571 56.0357H25.2143C25.0171 56.0357 24.8571 55.8758 24.8571 55.6786V41.75H23.4286V55.6786C23.4286 55.8758 23.2687 56.0357 23.0714 56.0357H19.5C19.3028 56.0357 19.1429 55.8758 19.1429 55.6786V41.75H17.3571C17.1599 41.75 17 41.9099 17 42.1071V56.3929C17 56.5901 17.1599 56.75 17.3571 56.75Z" fill="#246B6D" fill-opacity="0.7"/>
<path d="M21.2857 36.9511L20.2624 38.1786H22.309L21.2857 36.9511Z" fill="#246B6D" fill-opacity="0.7"/>
<path d="M25.5714 53.8929V55.3214H29.5V36.75H25.5714V38.1786H26.2857V38.8929H25.5714V40.3214H26.2857V41.0357H25.5714V42.4643H26.2857V43.1786H25.5714V44.6071H26.2857V45.3214H25.5714V46.75H26.2857V47.4643H25.5714V48.8929H26.2857V49.6071H25.5714V51.0357H26.2857V51.75H25.5714V53.1786H26.2857V53.8929H25.5714Z" fill="#246B6D" fill-opacity="0.7"/>
<path d="M54.5724 37.864L54.3222 38.1442V37.864H53.0902C52.5346 38.8237 51.3618 39.4871 50.0002 39.4871C48.6391 39.4871 47.4663 38.8237 46.9107 37.864H45.6786V38.1442L45.428 37.864L40.9969 42.8209L43.4207 45.5329L45.6786 43.0075V55.636H54.3213V43.008L56.5797 45.5335L59.003 42.8209L54.5724 37.864Z" fill="#246B6D" fill-opacity="0.7"/>
<path d="M54.3213 56.75H45.6787C45.1287 56.75 44.6823 56.2509 44.6823 55.636V45.6978L44.1253 46.3205C43.9384 46.53 43.6848 46.647 43.4203 46.647C43.1562 46.647 42.9021 46.5294 42.7153 46.3205L40.2915 43.6085C39.9028 43.1734 39.9028 42.4688 40.2915 42.0332L44.7236 37.0764C44.9398 36.8341 45.2522 36.7166 45.5531 36.7589C45.5945 36.7533 45.6364 36.75 45.6787 36.75H46.9108C47.2486 36.75 47.564 36.9416 47.7473 37.2586C48.1394 37.9359 49.0237 38.3731 50.0002 38.3731C50.9768 38.3731 51.8616 37.9359 52.2537 37.2586C52.437 36.9416 52.7519 36.75 53.0902 36.75H54.3223C54.3646 36.75 54.4065 36.7528 54.4479 36.7589C54.4887 36.7533 54.5301 36.75 54.5719 36.75C54.836 36.75 55.0901 36.8675 55.2774 37.0764L59.7085 42.0327C60.0972 42.4677 60.0972 43.1723 59.7085 43.6079L57.2852 46.3205C57.0984 46.5294 56.8448 46.647 56.5807 46.647C56.3167 46.6475 56.0626 46.53 55.8757 46.3211L55.3182 45.6973V55.636C55.3177 56.2515 54.8718 56.75 54.3213 56.75ZM53.3249 54.522V43.008C53.3249 42.5574 53.5675 42.1513 53.9397 41.9787C54.3123 41.8054 54.7403 41.9012 55.0258 42.2204L56.5792 43.9572L57.5946 42.8209L54.4065 39.2543C54.2476 39.2705 54.0911 39.2426 53.9412 39.1736C53.837 39.1256 53.7429 39.0588 53.6612 38.978H53.5755C52.7529 39.9918 51.4346 40.6012 50.0002 40.6012C48.5659 40.6012 47.2481 39.9918 46.425 38.978H46.3393C46.2581 39.0588 46.164 39.1251 46.0598 39.1736C45.9089 39.2432 45.7484 39.2677 45.5935 39.2543L42.4049 42.8214L43.4203 43.9577L44.9732 42.2204C45.2582 41.9012 45.6867 41.806 46.0593 41.9787C46.432 42.1513 46.6746 42.5574 46.6746 43.008V54.522H53.3249Z" fill="#246B6D" fill-opacity="0.7"/>
<path d="M71.1855 45.5719L64.492 52.4312C63.623 53.4736 62.236 54.3222 63.5227 56.0984C64.5922 57.5754 66.0034 56.2113 66.8064 55.2536L73.4824 48.2823L71.1855 45.5719ZM81.252 42.7043L79.3554 44.5473L77.7595 42.694L78.4872 40.6713L76.6992 38.1481C76.6992 38.1481 73.2233 35.034 68.8785 38.101C70.8345 37.9985 72.7053 39.2121 74.0589 41.8839L72.2299 43.8794L74.5276 46.3527L76.0308 44.8296L77.8698 46.6453L76.3984 48.2258L78.1865 50.258L83 45.0083L81.252 42.7043Z" fill="#246B6D" fill-opacity="0.7"/>
<path d="M103.378 36.75H88.6222C87.1764 36.75 86 37.9264 86 39.3725V54.1269C86 55.5733 87.1761 56.75 88.6222 56.75H103.378C104.824 56.75 106 55.5736 106 54.1269V39.3725C106 37.9264 104.824 36.75 103.378 36.75ZM102.147 48.7999H98.0496V52.8972H93.9529V48.7999H89.8541V44.7001H93.9529V40.6028H98.0496V44.7001H102.147V48.7999Z" fill="#246B6D" fill-opacity="0.7"/>
<path d="M123.922 56.6071C125.224 56.9883 126.396 56.6071 127.437 55.4635C128.479 54.3199 129 52.8817 129 51.149C129 49.7281 128.531 48.4459 127.594 47.3023C126.76 46.1934 125.563 45.6389 124 45.6389V40.0768C124 39.1412 123.759 38.3528 123.277 37.7117C122.796 37.0706 122.203 36.75 121.5 36.75C120.953 36.75 120.68 37.1139 120.68 37.8416C120.68 38.604 120.953 38.9852 121.5 38.9852C121.813 38.9852 122.171 39.0892 122.574 39.2971C122.978 39.505 123.18 39.7649 123.18 40.0768V41.1685H115.68V40.0768H117.32C117.32 39.4877 117.158 38.9679 116.832 38.5174C116.507 38.0669 116.122 37.8416 115.68 37.8416H113.18C113.18 38.2575 113.362 38.6907 113.727 39.1412C114.091 39.5917 114.456 39.9036 114.82 40.0768V42.3121L113.922 45.7429C112.49 45.2923 111.096 46.176 109.742 48.3939C109.247 49.3989 109 50.3173 109 51.149C109 52.7084 109.404 54.0253 110.211 55.0996C111.018 56.1739 112.008 56.711 113.18 56.711C114.169 56.711 115.042 56.2952 115.797 55.4635C116.552 54.6317 117.034 53.5748 117.242 52.2926H117.828C118.688 52.2926 119.326 51.8767 119.742 51.045L120.992 49.0697C120.654 50.1093 120.602 51.2876 120.836 52.6045C120.992 53.5401 121.357 54.3805 121.93 55.1256C122.503 55.8706 123.167 56.3645 123.922 56.6071ZM113.18 54.4758C112.451 54.4758 111.852 54.1639 111.383 53.5401C110.914 52.9163 110.68 52.1193 110.68 51.149C110.68 50.2133 110.914 49.4249 111.383 48.7838C111.852 48.1427 112.451 47.8221 113.18 47.8221H113.414L112.32 52.2926H115.484C115.328 52.951 115.035 53.4795 114.605 53.878C114.176 54.2765 113.701 54.4758 113.18 54.4758ZM114.82 50.0573V48.9657C115.289 49.3816 115.576 49.7455 115.68 50.0573H114.82ZM115.406 46.5226L115.758 45.379L116.344 47.6142C115.745 46.8865 115.432 46.5226 115.406 46.5226ZM123.57 50.941C123.753 51.2183 123.967 51.3656 124.215 51.3829C124.462 51.4002 124.664 51.2876 124.82 51.045C125.133 50.6985 125.159 50.2133 124.898 49.5895C124.716 49.1737 124.534 48.5845 124.352 47.8221C125.185 47.5795 125.979 48.0647 126.734 49.2776C127.125 49.9014 127.32 50.5598 127.32 51.2529C127.32 52.2926 127.034 53.1329 126.461 53.774C125.888 54.4152 125.211 54.6491 124.43 54.4758C123.909 54.3718 123.466 54.0859 123.102 53.6181C122.737 53.1503 122.503 52.5871 122.398 51.9287C122.242 50.7851 122.411 49.8321 122.906 49.0697C123.062 49.6242 123.284 50.2479 123.57 50.941ZM118.492 50.1613L116.852 43.4037H121.5L118.492 50.1613ZM121.5 47.8221L122.32 45.6389V46.7305C122.008 47.0424 121.734 47.4063 121.5 47.8221Z" fill="#246B6D" fill-opacity="0.7"/>
<path d="M142.586 42.7077V42.0234C142.586 41.0541 141.797 40.2656 140.828 40.2656H136.141C135.171 40.2656 134.383 41.0541 134.383 42.0234V42.7077C133.047 42.98 132 44.1634 132 45.5781V54.9922C132 55.9615 132.828 56.75 133.797 56.75H137.967C137.204 56.0047 136.727 54.9684 136.727 53.8203V50.3047C136.727 48.0433 138.567 46.2031 140.828 46.2031H144.93V45.5781C144.93 44.1634 143.922 42.98 142.586 42.7077Z" fill="#246B6D" fill-opacity="0.7"/>
<path d="M141.414 50.3047C141.091 50.3047 140.828 50.5673 140.828 50.8906C140.828 51.2139 141.091 51.4766 141.414 51.4766C141.737 51.4766 142 51.2139 142 50.8906C142 50.5673 141.737 50.3047 141.414 50.3047Z" fill="#246B6D" fill-opacity="0.7"/>
<path d="M151.414 52.0625C151.738 52.0625 152 51.8004 152 51.4766V50.3047C152 48.6893 150.686 47.375 149.07 47.375H140.828C139.213 47.375 137.898 48.6893 137.898 50.3047V53.8203C137.898 55.4357 139.213 56.75 140.828 56.75H144.344C144.668 56.75 144.93 56.4879 144.93 56.1641C144.93 55.8408 145.192 55.5781 145.516 55.5781C145.839 55.5781 146.102 55.8408 146.102 56.1641C146.102 56.4879 146.403 56.75 146.727 56.75H149.07C150.686 56.75 152 55.4357 152 53.8203C152 53.4964 151.738 53.2344 151.414 53.2344C151.091 53.2344 150.828 52.9717 150.828 52.6484C150.828 52.3252 151.091 52.0625 151.414 52.0625ZM142.586 54.9922C142.262 54.9922 142 54.7298 142 54.4063C142 54.0826 142.262 53.8203 142.586 53.8203C142.91 53.8203 143.172 54.0826 143.172 54.4063C143.172 54.7298 142.91 54.9922 142.586 54.9922ZM141.414 52.6484C140.445 52.6484 139.656 51.8599 139.656 50.8906C139.656 49.9213 140.445 49.1328 141.414 49.1328C142.383 49.1328 143.172 49.9213 143.172 50.8906C143.172 51.8599 142.383 52.6484 141.414 52.6484ZM144.93 52.6484C144.606 52.6484 144.344 52.3861 144.344 52.0625C144.344 51.7388 144.606 51.4766 144.93 51.4766C145.253 51.4766 145.516 51.7388 145.516 52.0625C145.516 52.3861 145.253 52.6484 144.93 52.6484ZM147.898 53.8203C147.252 53.8203 146.727 53.2945 146.727 52.6484C146.727 52.0024 147.252 51.4766 147.898 51.4766C148.544 51.4766 149.07 52.0024 149.07 52.6484C149.07 53.2945 148.544 53.8203 147.898 53.8203ZM148.484 50.3047C148.161 50.3047 147.898 50.0423 147.898 49.7188C147.898 49.3951 148.161 49.1328 148.484 49.1328C148.808 49.1328 149.07 49.3951 149.07 49.7188C149.07 50.0423 148.808 50.3047 148.484 50.3047Z" fill="#246B6D" fill-opacity="0.7"/>
<path d="M142 36.75C140.04 36.75 138.087 36.75 136.141 36.75C135.817 36.75 135.555 37.0121 135.555 37.3359C135.555 37.6598 135.817 37.9219 136.141 37.9219H136.727V39.0937H140.242V37.9219H142C142.969 37.9219 143.758 38.7104 143.758 39.6797C143.758 40.0036 144.02 40.2656 144.344 40.2656C144.668 40.2656 144.93 40.0036 144.93 39.6797C144.93 38.0643 143.615 36.75 142 36.75Z" fill="#246B6D" fill-opacity="0.7"/>
<path d="M105.88 77.7313C105.643 77.1209 105.074 76.6011 104.295 76.2882L102.526 75.575C102.849 74.9758 103.027 74.3223 103.027 73.6382C103.027 73.1615 102.939 72.7005 102.779 72.2613L103.573 72.1084C104.208 71.9859 104.749 71.6909 105.076 71.2875C105.4 70.884 105.488 70.4051 105.316 69.9555C104.955 69.0208 103.592 68.4701 102.271 68.7246L100.124 69.1376C101.636 68.3677 102.604 67.1838 102.604 65.8562C102.604 65.8322 102.603 65.8087 102.602 65.7847C104.089 65.4606 105.173 64.4802 105.173 63.3247C105.173 61.9051 103.54 60.7504 101.532 60.7504C100.235 60.7504 99.0967 61.2315 98.4513 61.9539C97.6925 61.7609 96.8652 61.6546 95.9997 61.6546C95.1337 61.6546 94.3064 61.7609 93.5482 61.9535C92.9028 61.231 91.763 60.75 90.4679 60.75C88.4596 60.75 86.8261 61.9047 86.8261 63.3242C86.8261 64.4802 87.9098 65.4601 89.3966 65.7843C89.396 65.8083 89.3953 65.8318 89.3953 65.8558C89.3953 67.1834 90.3638 68.3673 91.8758 69.1372L89.7294 68.7241C88.4072 68.4697 87.0449 69.0208 86.6843 69.955C86.5123 70.4038 86.598 70.8827 86.9241 71.2866C87.2508 71.6901 87.7914 71.9855 88.4263 72.1079L89.2203 72.2609C89.0582 72.6996 88.9719 73.1606 88.9719 73.6382C88.9719 74.3223 89.1506 74.9758 89.4736 75.575L87.7045 76.2882C86.9259 76.6019 86.3564 77.1213 86.1203 77.7313C85.8829 78.3422 86.0001 78.9945 86.4433 79.5439C87.3667 80.6903 89.4292 81.0894 91.0498 80.4358L95.0948 78.8071C95.3913 78.835 95.694 78.8503 96.001 78.8503C96.308 78.8503 96.61 78.8354 96.9065 78.8071L100.952 80.4358C102.573 81.0894 104.635 80.6903 105.557 79.5439C106.001 78.9945 106.117 78.3422 105.88 77.7313ZM93.2677 65.176C93.6524 65.176 93.9655 65.397 93.9655 65.6688C93.9655 65.9407 93.6524 66.1621 93.2677 66.1621C92.8825 66.1621 92.5699 65.9412 92.5699 65.6688C92.5699 65.3965 92.8825 65.176 93.2677 65.176ZM98.7318 65.2122C99.117 65.2122 99.4295 65.4331 99.4295 65.7054C99.4295 65.9778 99.117 66.1982 98.7318 66.1982C98.3465 66.1982 98.034 65.9778 98.034 65.7054C98.034 65.4331 98.3465 65.2122 98.7318 65.2122ZM95.7094 76.8669C94.9148 76.3083 92.7586 74.7907 92.7142 74.7597C91.805 74.1166 91.805 73.0752 92.7142 72.4325C93.6222 71.7916 95.0899 71.7898 95.9997 72.4282C96.9096 71.7898 98.3773 71.7916 99.2853 72.4325C100.195 73.0752 100.195 74.1166 99.2853 74.7597C99.2403 74.7907 97.084 76.3083 96.2901 76.8669C96.1292 76.9797 95.8697 76.9797 95.7094 76.8669ZM101.531 62.0498C102.524 62.0498 103.334 62.6219 103.334 63.3242C103.334 63.8467 102.885 64.2963 102.248 64.4928C101.832 63.7225 101.076 63.0532 100.092 62.5587C100.421 62.2497 100.943 62.0498 101.531 62.0498ZM95.9997 66.2113C97.2135 66.2113 98.1967 66.8374 98.1967 67.6091C98.1967 68.3808 97.2123 69.0069 95.9997 69.0069C94.7866 69.0069 93.8028 68.3812 93.8028 67.6091C93.8028 66.8374 94.7854 66.2113 95.9997 66.2113ZM88.6655 63.3242C88.6655 62.6219 89.4749 62.0498 90.4685 62.0498C91.056 62.0498 91.5787 62.2497 91.9073 62.5582C90.9235 63.0532 90.1665 63.7225 89.751 64.492C89.113 64.2963 88.6655 63.8467 88.6655 63.3242Z" fill="#246B6D" fill-opacity="0.7"/>
<path d="M68 69.0833V72.4167H78V69.0833C78 67.2448 78.8969 65.75 80 65.75H81C81 62.9896 79.6563 60.75 78 60.75H68C66.3438 60.75 65 62.9896 65 65.75H66C67.1031 65.75 68 67.2448 68 69.0833ZM81 67.4167H80C79.4469 67.4167 79 68.1615 79 69.0833V74.0833H67V69.0833C67 68.1615 66.5531 67.4167 66 67.4167H65C63.8969 67.4167 63 68.9115 63 70.75C63 71.9792 63.4062 73.0417 64 73.6198V79.9167C64 80.375 64.225 80.75 64.5 80.75H66.5C66.775 80.75 67 80.375 67 79.9167V79.0833H79V79.9167C79 80.375 79.225 80.75 79.5 80.75H81.5C81.775 80.75 82 80.375 82 79.9167V73.6198C82.5937 73.0417 83 71.9792 83 70.75C83 68.9115 82.1031 67.4167 81 67.4167Z" fill="#246B6D" fill-opacity="0.7"/>
<path d="M48.5713 78.75V72.68C46.7258 72.4931 44.9916 71.9489 43.5645 71.1087C42.1374 70.2686 41.0742 69.166 40.495 67.9254C39.9157 66.6847 39.8433 65.3555 40.2861 64.0876C40.7289 62.8197 41.6691 61.6637 43.0008 60.75H56.9992C58.3309 61.6637 59.2711 62.8197 59.7139 64.0876C60.1567 65.3555 60.0843 66.6847 59.505 67.9254C58.9258 69.166 57.8626 70.2686 56.4355 71.1087C55.0084 71.9489 53.2742 72.4931 51.4287 72.68V78.75H54.2861C54.665 78.75 55.0284 78.8554 55.2964 79.0429C55.5643 79.2304 55.7148 79.4848 55.7148 79.75C55.7148 80.0152 55.5643 80.2696 55.2964 80.4571C55.0284 80.6446 54.665 80.75 54.2861 80.75H45.7139C45.335 80.75 44.9716 80.6446 44.7036 80.4571C44.4357 80.2696 44.2852 80.0152 44.2852 79.75C44.2852 79.4848 44.4357 79.2304 44.7036 79.0429C44.9716 78.8554 45.335 78.75 45.7139 78.75H48.5713ZM42.8565 65.75H57.1435C56.8035 64.32 56.3278 63.32 55.7148 62.75H44.2852C43.6723 63.32 43.1965 64.32 42.8565 65.75Z" fill="#246B6D" fill-opacity="0.7"/>
<path d="M128.596 61.3837C128.558 61.267 128.472 61.1849 128.371 61.1696C128.27 61.1545 128.171 61.2086 128.111 61.3107C127.76 61.9171 127.3 62.1193 126.766 62.3534C126.336 62.5422 125.891 62.7373 125.41 63.1627C124.73 63.7643 124.419 64.5844 124.575 65.3616L124.558 65.3878C124.274 64.8802 123.965 64.4107 123.639 63.9915C122.114 62.03 119.982 60.8508 117.791 60.7563C117.695 60.7521 117.596 60.75 117.499 60.75C115.053 60.75 112.711 62.0979 111.075 64.4479C109.447 66.7858 108.725 69.8292 109.095 72.7977C109.126 73.0458 109.165 73.2965 109.21 73.543C109.812 76.8066 111.349 79.2894 113.426 80.3544C113.939 80.6169 114.455 80.75 114.962 80.75C116.22 80.75 117.32 79.9205 117.978 78.4741C118.228 77.9238 118.389 77.3547 118.457 76.7824C118.497 76.4446 118.47 76.1072 118.444 75.7801C118.416 75.4435 118.39 75.1253 118.432 74.805C118.526 74.0708 118.943 73.6324 119.545 73.6324C119.716 73.6324 119.891 73.6671 120.066 73.7358C119.862 74.1985 119.676 74.6403 119.513 75.0499C119.169 75.9178 118.931 76.6366 118.807 77.186C118.73 77.5249 118.527 78.4254 119.023 78.85C119.181 78.9848 119.381 79.0324 119.589 78.9847C119.776 78.9418 120.347 78.8112 121.967 76.5372C122.402 75.927 122.871 75.2209 123.361 74.438C124.619 73.9159 125.598 72.6167 125.857 71.1238C125.922 70.7506 125.949 70.3512 125.937 69.9364C126.408 69.0395 126.821 68.2026 127.237 67.3029C127.245 67.2856 127.253 67.2671 127.26 67.2482C127.864 67.0445 128.383 66.4659 128.688 65.6568C129.134 64.476 129.101 62.9583 128.596 61.3837ZM121.796 66.9753C121.578 67.4024 121.203 67.6574 120.793 67.6574C120.57 67.6574 120.352 67.5797 120.163 67.4327C119.895 67.2249 119.709 66.9012 119.639 66.521C119.569 66.1408 119.623 65.7497 119.792 65.4198C120.01 64.9927 120.385 64.7377 120.795 64.7377C121.018 64.7377 121.236 64.8154 121.425 64.9624C121.693 65.1701 121.879 65.4939 121.949 65.8741C122.019 66.2543 121.965 66.6454 121.796 66.9753ZM123.333 69.62C123.932 68.5327 124.566 67.4519 125.167 66.4905C125.265 66.599 125.374 66.7051 125.492 66.806C125.687 66.9734 125.892 67.1028 126.101 67.1914C125.593 68.2616 125.047 69.3219 124.386 70.522C123.3 72.4944 122.17 74.3266 121.206 75.6811C120.667 76.4377 120.195 77.0218 119.832 77.3836C119.972 76.8307 120.24 76.0719 120.613 75.1729C121.28 73.5653 122.246 71.5932 123.333 69.62ZM112.82 69.6106C112.597 69.6106 112.379 69.533 112.19 69.386C111.922 69.1782 111.736 68.8545 111.666 68.4743C111.596 68.0941 111.65 67.7029 111.819 67.373C112.037 66.946 112.412 66.691 112.822 66.691C113.045 66.691 113.263 66.7687 113.452 66.9157C114.005 67.3446 114.171 68.2477 113.823 68.9285C113.605 69.3557 113.23 69.6106 112.82 69.6106ZM111.578 72.8248C111.796 72.3977 112.171 72.1427 112.582 72.1427C112.804 72.1427 113.022 72.2204 113.212 72.3674C113.479 72.5752 113.665 72.8989 113.735 73.2791C113.806 73.6592 113.751 74.0503 113.583 74.3803C113.364 74.8073 112.989 75.0623 112.579 75.0623C112.357 75.0623 112.139 74.9846 111.949 74.8376C111.682 74.6298 111.495 74.3062 111.425 73.9259C111.355 73.5458 111.41 73.1547 111.578 72.8248ZM115.372 64.1557C115.59 63.7286 115.965 63.4736 116.375 63.4736C116.598 63.4736 116.815 63.5513 117.005 63.6983C117.557 64.1271 117.724 65.0302 117.376 65.7112C117.158 66.1383 116.783 66.3933 116.373 66.3933C116.15 66.3933 115.932 66.3156 115.743 66.1686C115.475 65.9609 115.289 65.6372 115.219 65.2569C115.149 64.8767 115.203 64.4857 115.372 64.1557Z" fill="#246B6D" fill-opacity="0.7"/>
</svg>
