<svg width="380" height="100" viewBox="0 0 380 100" fill="none" xmlns="http://www.w3.org/2000/svg">
<path d="M0 0H380V100H0V0Z" fill="white"/>
<g filter="url(#filter0_d)">
<path d="M11.3774 21.6329C11.3774 21.0262 11.4847 20.4289 11.6994 19.8409C11.9234 19.2435 12.2454 18.7115 12.6654 18.2449C13.0854 17.7782 13.5987 17.4002 14.2054 17.1109C14.812 16.8215 15.5027 16.6769 16.2774 16.6769C17.192 16.6769 17.9807 16.8775 18.6434 17.2789C19.3154 17.6802 19.8147 18.2029 20.1414 18.8469L18.6574 19.8689C18.5267 19.5889 18.368 19.3555 18.1814 19.1689C17.9947 18.9729 17.794 18.8189 17.5794 18.7069C17.3647 18.5949 17.1407 18.5155 16.9074 18.4689C16.674 18.4129 16.4454 18.3849 16.2214 18.3849C15.736 18.3849 15.3114 18.4829 14.9474 18.6789C14.5927 18.8749 14.294 19.1315 14.0514 19.4489C13.818 19.7569 13.6407 20.1115 13.5194 20.5129C13.398 20.9049 13.3374 21.2969 13.3374 21.6889C13.3374 22.1275 13.4074 22.5522 13.5474 22.9629C13.6874 23.3642 13.8834 23.7189 14.1354 24.0269C14.3967 24.3349 14.7047 24.5822 15.0594 24.7689C15.4234 24.9555 15.82 25.0489 16.2494 25.0489C16.4734 25.0489 16.7067 25.0209 16.9494 24.9649C17.192 24.9089 17.4207 24.8202 17.6354 24.6989C17.8594 24.5775 18.0647 24.4235 18.2514 24.2369C18.438 24.0409 18.5874 23.8075 18.6994 23.5369L20.2814 24.4469C20.1227 24.8202 19.894 25.1515 19.5954 25.4409C19.306 25.7209 18.9747 25.9589 18.6014 26.1549C18.2374 26.3509 17.8454 26.5002 17.4254 26.6029C17.0054 26.7055 16.5947 26.7569 16.1934 26.7569C15.484 26.7569 14.8354 26.6075 14.2474 26.3089C13.6594 26.0102 13.1507 25.6229 12.7214 25.1469C12.3014 24.6615 11.97 24.1155 11.7274 23.5089C11.494 22.8929 11.3774 22.2675 11.3774 21.6329ZM24.2683 16.7329H25.9763L29.7563 26.6729H27.7683L26.8443 24.1949H23.3723L22.4623 26.6729H20.4743L24.2683 16.7329ZM26.4943 22.8369L25.1223 18.9309L23.6943 22.8369H26.4943ZM38.9525 26.6729V20.0929L36.3905 24.9929H35.3405L32.7785 20.0929V26.6729H30.8465V16.7329H32.9185L35.8585 22.3889L38.8265 16.7329H40.8845V26.6729H38.9525ZM50.9678 24.1109C50.9678 24.5309 50.8838 24.8995 50.7158 25.2169C50.5478 25.5342 50.3145 25.8002 50.0158 26.0149C49.7265 26.2295 49.3858 26.3929 48.9938 26.5049C48.6112 26.6169 48.2005 26.6729 47.7618 26.6729H42.9598V16.7329H48.2798C48.6252 16.7329 48.9378 16.8075 49.2178 16.9569C49.4978 17.1062 49.7358 17.3022 49.9318 17.5449C50.1278 17.7782 50.2772 18.0489 50.3798 18.3569C50.4918 18.6555 50.5478 18.9589 50.5478 19.2669C50.5478 19.7522 50.4265 20.2095 50.1838 20.6389C49.9412 21.0589 49.5865 21.3715 49.1198 21.5769C49.6892 21.7449 50.1372 22.0482 50.4638 22.4869C50.7998 22.9162 50.9678 23.4575 50.9678 24.1109ZM49.0218 23.7469C49.0218 23.5695 48.9892 23.4015 48.9238 23.2429C48.8678 23.0749 48.7885 22.9302 48.6858 22.8089C48.5832 22.6875 48.4618 22.5942 48.3218 22.5289C48.1818 22.4542 48.0278 22.4169 47.8598 22.4169H44.8918V25.0349H47.7618C47.9392 25.0349 48.1025 25.0022 48.2518 24.9369C48.4105 24.8715 48.5458 24.7829 48.6578 24.6709C48.7698 24.5495 48.8585 24.4095 48.9238 24.2509C48.9892 24.0922 49.0218 23.9242 49.0218 23.7469ZM44.8918 18.3849V20.8909H47.4678C47.7945 20.8909 48.0698 20.7789 48.2938 20.5549C48.5272 20.3309 48.6438 20.0229 48.6438 19.6309C48.6438 19.2482 48.5365 18.9449 48.3218 18.7209C48.1165 18.4969 47.8598 18.3849 47.5518 18.3849H44.8918ZM55.0984 16.7329H56.8064L60.5864 26.6729H58.5984L57.6744 24.1949H54.2024L53.2924 26.6729H51.3044L55.0984 16.7329ZM57.3244 22.8369L55.9524 18.9309L54.5244 22.8369H57.3244ZM64.6024 26.6729V16.7329H68.8164C69.2737 16.7329 69.6937 16.8309 70.0764 17.0269C70.4684 17.2135 70.8044 17.4655 71.0844 17.7829C71.3644 18.0909 71.5837 18.4455 71.7424 18.8469C71.9011 19.2389 71.9804 19.6355 71.9804 20.0369C71.9804 20.4569 71.9057 20.8675 71.7564 21.2689C71.6071 21.6609 71.3971 22.0109 71.1264 22.3189C70.8557 22.6269 70.5291 22.8742 70.1464 23.0609C69.7637 23.2475 69.3437 23.3409 68.8864 23.3409H66.5344V26.6729H64.6024ZM66.5344 21.6469H68.7744C69.1291 21.6469 69.4231 21.5022 69.6564 21.2129C69.8991 20.9235 70.0204 20.5315 70.0204 20.0369C70.0204 19.7849 69.9831 19.5609 69.9084 19.3649C69.8337 19.1595 69.7357 18.9869 69.6144 18.8469C69.4931 18.7069 69.3484 18.6042 69.1804 18.5389C69.0217 18.4642 68.8584 18.4269 68.6904 18.4269H66.5344V21.6469ZM75.0767 26.8129C74.722 26.8129 74.3907 26.7569 74.0827 26.6449C73.7747 26.5235 73.5087 26.3602 73.2847 26.1549C73.0607 25.9402 72.8834 25.6929 72.7527 25.4129C72.6314 25.1329 72.5707 24.8249 72.5707 24.4889C72.5707 24.1435 72.6454 23.8262 72.7947 23.5369C72.9534 23.2382 73.168 22.9862 73.4387 22.7809C73.7187 22.5755 74.05 22.4169 74.4327 22.3049C74.8154 22.1835 75.2354 22.1229 75.6927 22.1229C76.0194 22.1229 76.3367 22.1509 76.6447 22.2069C76.962 22.2629 77.242 22.3422 77.4847 22.4449V22.0249C77.4847 21.5395 77.3447 21.1662 77.0647 20.9049C76.794 20.6435 76.388 20.5129 75.8467 20.5129C75.4547 20.5129 75.072 20.5829 74.6987 20.7229C74.3254 20.8629 73.9427 21.0682 73.5507 21.3389L72.9767 20.1489C73.9194 19.5235 74.9367 19.2109 76.0287 19.2109C77.0834 19.2109 77.9 19.4722 78.4787 19.9949C79.0667 20.5082 79.3607 21.2549 79.3607 22.2349V24.5169C79.3607 24.7129 79.3934 24.8529 79.4587 24.9369C79.5334 25.0209 79.65 25.0675 79.8087 25.0769V26.6729C79.4914 26.7382 79.216 26.7709 78.9827 26.7709C78.628 26.7709 78.3527 26.6915 78.1567 26.5329C77.97 26.3742 77.8534 26.1642 77.8067 25.9029L77.7647 25.4969C77.438 25.9262 77.0414 26.2529 76.5747 26.4769C76.108 26.7009 75.6087 26.8129 75.0767 26.8129ZM75.6087 25.4409C75.926 25.4409 76.2247 25.3849 76.5047 25.2729C76.794 25.1609 77.018 25.0115 77.1767 24.8249C77.382 24.6662 77.4847 24.4889 77.4847 24.2929V23.4529C77.2607 23.3689 77.018 23.3035 76.7567 23.2569C76.4954 23.2009 76.2434 23.1729 76.0007 23.1729C75.5154 23.1729 75.1187 23.2849 74.8107 23.5089C74.5027 23.7235 74.3487 23.9989 74.3487 24.3349C74.3487 24.6522 74.47 24.9182 74.7127 25.1329C74.9554 25.3382 75.254 25.4409 75.6087 25.4409ZM85.4818 20.9609C84.9124 20.9702 84.4038 21.0822 83.9558 21.2969C83.5078 21.5022 83.1858 21.8149 82.9898 22.2349V26.6729H81.1138V19.3369H82.8358V20.9049C82.9664 20.6529 83.1204 20.4289 83.2978 20.2329C83.4751 20.0275 83.6664 19.8502 83.8718 19.7009C84.0771 19.5515 84.2824 19.4395 84.4878 19.3649C84.7024 19.2809 84.9078 19.2389 85.1038 19.2389C85.2064 19.2389 85.2811 19.2389 85.3278 19.2389C85.3838 19.2389 85.4351 19.2435 85.4818 19.2529V20.9609ZM91.5398 26.6729L89.4118 23.4949L88.4038 24.4889V26.6729H86.5278V16.4529H88.4038V22.6549L91.3438 19.3509H93.3458L90.6158 22.4589L93.5418 26.6729H91.5398ZM103.802 19.3369C103.736 19.2715 103.615 19.1829 103.438 19.0709C103.27 18.9589 103.06 18.8515 102.808 18.7489C102.565 18.6369 102.299 18.5435 102.01 18.4689C101.72 18.3942 101.426 18.3569 101.128 18.3569C100.596 18.3569 100.199 18.4549 99.9378 18.6509C99.6764 18.8469 99.5458 19.1222 99.5458 19.4769C99.5458 19.6822 99.5924 19.8549 99.6858 19.9949C99.7884 20.1255 99.9331 20.2422 100.12 20.3449C100.306 20.4475 100.54 20.5409 100.82 20.6249C101.109 20.7089 101.44 20.7975 101.814 20.8909C102.299 21.0215 102.738 21.1615 103.13 21.3109C103.531 21.4602 103.867 21.6469 104.138 21.8709C104.418 22.0949 104.632 22.3655 104.782 22.6829C104.931 22.9909 105.006 23.3735 105.006 23.8309C105.006 24.3629 104.903 24.8202 104.698 25.2029C104.502 25.5762 104.231 25.8795 103.886 26.1129C103.55 26.3462 103.158 26.5189 102.71 26.6309C102.271 26.7335 101.809 26.7849 101.324 26.7849C100.577 26.7849 99.8398 26.6729 99.1118 26.4489C98.3838 26.2249 97.7304 25.9075 97.1518 25.4969L98.0058 23.8309C98.0898 23.9149 98.2391 24.0269 98.4538 24.1669C98.6778 24.2975 98.9391 24.4329 99.2378 24.5729C99.5364 24.7035 99.8678 24.8155 100.232 24.9089C100.596 25.0022 100.969 25.0489 101.352 25.0489C102.416 25.0489 102.948 24.7082 102.948 24.0269C102.948 23.8122 102.887 23.6302 102.766 23.4809C102.644 23.3315 102.472 23.2009 102.248 23.0889C102.024 22.9769 101.753 22.8742 101.436 22.7809C101.118 22.6875 100.764 22.5849 100.372 22.4729C99.8958 22.3422 99.4804 22.2022 99.1258 22.0529C98.7804 21.8942 98.4911 21.7122 98.2578 21.5069C98.0244 21.2922 97.8471 21.0495 97.7258 20.7789C97.6138 20.4989 97.5578 20.1675 97.5578 19.7849C97.5578 19.2809 97.6511 18.8329 97.8378 18.4409C98.0244 18.0489 98.2811 17.7222 98.6078 17.4609C98.9438 17.1995 99.3311 17.0035 99.7698 16.8729C100.208 16.7329 100.68 16.6629 101.184 16.6629C101.884 16.6629 102.528 16.7749 103.116 16.9989C103.704 17.2135 104.217 17.4702 104.656 17.7689L103.802 19.3369ZM106.27 16.4529H108.146V24.3209C108.146 24.5915 108.211 24.8015 108.342 24.9509C108.472 25.1002 108.659 25.1749 108.902 25.1749C109.014 25.1749 109.135 25.1562 109.266 25.1189C109.406 25.0815 109.536 25.0349 109.658 24.9789L109.91 26.4069C109.658 26.5282 109.364 26.6215 109.028 26.6869C108.692 26.7522 108.388 26.7849 108.118 26.7849C107.53 26.7849 107.072 26.6309 106.746 26.3229C106.428 26.0055 106.27 25.5575 106.27 24.9789V16.4529ZM114.115 26.8129C113.518 26.8129 112.981 26.7102 112.505 26.5049C112.029 26.2995 111.623 26.0242 111.287 25.6789C110.96 25.3242 110.708 24.9182 110.531 24.4609C110.354 24.0035 110.265 23.5229 110.265 23.0189C110.265 22.5055 110.354 22.0202 110.531 21.5629C110.708 21.1055 110.96 20.7042 111.287 20.3589C111.623 20.0042 112.029 19.7242 112.505 19.5189C112.981 19.3135 113.518 19.2109 114.115 19.2109C114.712 19.2109 115.244 19.3135 115.711 19.5189C116.187 19.7242 116.588 20.0042 116.915 20.3589C117.251 20.7042 117.508 21.1055 117.685 21.5629C117.862 22.0202 117.951 22.5055 117.951 23.0189C117.951 23.5229 117.862 24.0035 117.685 24.4609C117.508 24.9182 117.256 25.3242 116.929 25.6789C116.602 26.0242 116.201 26.2995 115.725 26.5049C115.249 26.7102 114.712 26.8129 114.115 26.8129ZM112.197 23.0189C112.197 23.3455 112.244 23.6442 112.337 23.9149C112.44 24.1762 112.575 24.4049 112.743 24.6009C112.92 24.7969 113.126 24.9509 113.359 25.0629C113.592 25.1655 113.844 25.2169 114.115 25.2169C114.386 25.2169 114.638 25.1655 114.871 25.0629C115.104 24.9509 115.305 24.7969 115.473 24.6009C115.65 24.4049 115.786 24.1715 115.879 23.9009C115.982 23.6302 116.033 23.3315 116.033 23.0049C116.033 22.6875 115.982 22.3935 115.879 22.1229C115.786 21.8522 115.65 21.6189 115.473 21.4229C115.305 21.2269 115.104 21.0775 114.871 20.9749C114.638 20.8629 114.386 20.8069 114.115 20.8069C113.844 20.8069 113.592 20.8629 113.359 20.9749C113.126 21.0869 112.92 21.2409 112.743 21.4369C112.575 21.6329 112.44 21.8662 112.337 22.1369C112.244 22.4075 112.197 22.7015 112.197 23.0189ZM123.613 26.8129C123.035 26.8129 122.531 26.6869 122.101 26.4349C121.672 26.1735 121.336 25.8235 121.093 25.3849V29.6549H119.217V19.3369H120.855V20.5969C121.126 20.1675 121.476 19.8315 121.905 19.5889C122.335 19.3369 122.829 19.2109 123.389 19.2109C123.884 19.2109 124.341 19.3135 124.761 19.5189C125.181 19.7149 125.541 19.9855 125.839 20.3309C126.147 20.6669 126.385 21.0682 126.553 21.5349C126.731 21.9922 126.819 22.4775 126.819 22.9909C126.819 23.5229 126.74 24.0222 126.581 24.4889C126.423 24.9555 126.199 25.3615 125.909 25.7069C125.629 26.0522 125.293 26.3229 124.901 26.5189C124.509 26.7149 124.08 26.8129 123.613 26.8129ZM122.983 25.2169C123.263 25.2169 123.52 25.1562 123.753 25.0349C123.996 24.9135 124.201 24.7502 124.369 24.5449C124.537 24.3395 124.668 24.1015 124.761 23.8309C124.855 23.5602 124.901 23.2802 124.901 22.9909C124.901 22.6829 124.85 22.3982 124.747 22.1369C124.645 21.8662 124.5 21.6329 124.313 21.4369C124.136 21.2409 123.921 21.0869 123.669 20.9749C123.427 20.8629 123.161 20.8069 122.871 20.8069C122.694 20.8069 122.512 20.8395 122.325 20.9049C122.139 20.9609 121.966 21.0449 121.807 21.1569C121.649 21.2689 121.504 21.3995 121.373 21.5489C121.252 21.6982 121.159 21.8615 121.093 22.0389V23.7609C121.261 24.1809 121.518 24.5309 121.863 24.8109C122.209 25.0815 122.582 25.2169 122.983 25.2169ZM131.492 26.8129C130.904 26.8129 130.372 26.7149 129.896 26.5189C129.42 26.3135 129.014 26.0382 128.678 25.6929C128.342 25.3475 128.081 24.9462 127.894 24.4889C127.717 24.0315 127.628 23.5509 127.628 23.0469C127.628 22.5242 127.717 22.0342 127.894 21.5769C128.072 21.1102 128.328 20.7042 128.664 20.3589C129 20.0042 129.406 19.7242 129.882 19.5189C130.368 19.3135 130.909 19.2109 131.506 19.2109C132.104 19.2109 132.636 19.3135 133.102 19.5189C133.578 19.7242 133.98 19.9995 134.306 20.3449C134.642 20.6902 134.894 21.0915 135.062 21.5489C135.24 22.0062 135.328 22.4822 135.328 22.9769C135.328 23.0982 135.324 23.2149 135.314 23.3269C135.314 23.4389 135.305 23.5322 135.286 23.6069H129.616C129.644 23.8962 129.714 24.1529 129.826 24.3769C129.938 24.6009 130.083 24.7922 130.26 24.9509C130.438 25.1095 130.638 25.2309 130.862 25.3149C131.086 25.3989 131.32 25.4409 131.562 25.4409C131.936 25.4409 132.286 25.3522 132.612 25.1749C132.948 24.9882 133.177 24.7455 133.298 24.4469L134.908 24.8949C134.638 25.4549 134.204 25.9169 133.606 26.2809C133.018 26.6355 132.314 26.8129 131.492 26.8129ZM133.396 22.3889C133.35 21.8382 133.144 21.3995 132.78 21.0729C132.426 20.7369 131.992 20.5689 131.478 20.5689C131.226 20.5689 130.988 20.6155 130.764 20.7089C130.55 20.7929 130.358 20.9142 130.19 21.0729C130.022 21.2315 129.882 21.4229 129.77 21.6469C129.668 21.8709 129.607 22.1182 129.588 22.3889H133.396ZM142.968 16.7609H144.746L145.866 20.0509L146.986 16.7609H148.778L147.084 21.2829L148.344 24.4609L151.158 16.7329H153.258L149.212 26.6729H147.588L145.866 22.5009L144.144 26.6729H142.52L138.502 16.7329H140.574L143.402 24.4609L144.634 21.2829L142.968 16.7609ZM156.58 26.8129C155.983 26.8129 155.446 26.7102 154.97 26.5049C154.494 26.2995 154.088 26.0242 153.752 25.6789C153.425 25.3242 153.173 24.9182 152.996 24.4609C152.819 24.0035 152.73 23.5229 152.73 23.0189C152.73 22.5055 152.819 22.0202 152.996 21.5629C153.173 21.1055 153.425 20.7042 153.752 20.3589C154.088 20.0042 154.494 19.7242 154.97 19.5189C155.446 19.3135 155.983 19.2109 156.58 19.2109C157.177 19.2109 157.709 19.3135 158.176 19.5189C158.652 19.7242 159.053 20.0042 159.38 20.3589C159.716 20.7042 159.973 21.1055 160.15 21.5629C160.327 22.0202 160.416 22.5055 160.416 23.0189C160.416 23.5229 160.327 24.0035 160.15 24.4609C159.973 24.9182 159.721 25.3242 159.394 25.6789C159.067 26.0242 158.666 26.2995 158.19 26.5049C157.714 26.7102 157.177 26.8129 156.58 26.8129ZM154.662 23.0189C154.662 23.3455 154.709 23.6442 154.802 23.9149C154.905 24.1762 155.04 24.4049 155.208 24.6009C155.385 24.7969 155.591 24.9509 155.824 25.0629C156.057 25.1655 156.309 25.2169 156.58 25.2169C156.851 25.2169 157.103 25.1655 157.336 25.0629C157.569 24.9509 157.77 24.7969 157.938 24.6009C158.115 24.4049 158.251 24.1715 158.344 23.9009C158.447 23.6302 158.498 23.3315 158.498 23.0049C158.498 22.6875 158.447 22.3935 158.344 22.1229C158.251 21.8522 158.115 21.6189 157.938 21.4229C157.77 21.2269 157.569 21.0775 157.336 20.9749C157.103 20.8629 156.851 20.8069 156.58 20.8069C156.309 20.8069 156.057 20.8629 155.824 20.9749C155.591 21.0869 155.385 21.2409 155.208 21.4369C155.04 21.6329 154.905 21.8662 154.802 22.1369C154.709 22.4075 154.662 22.7015 154.662 23.0189ZM173.078 26.6729H171.202V22.5569C171.202 21.9689 171.099 21.5395 170.894 21.2689C170.698 20.9982 170.423 20.8629 170.068 20.8629C169.695 20.8629 169.345 21.0075 169.018 21.2969C168.691 21.5769 168.458 21.9455 168.318 22.4029V26.6729H166.442V22.5569C166.442 21.9689 166.339 21.5395 166.134 21.2689C165.938 20.9982 165.663 20.8629 165.308 20.8629C164.944 20.8629 164.594 21.0029 164.258 21.2829C163.931 21.5629 163.698 21.9315 163.558 22.3889V26.6729H161.682V19.3369H163.376V20.6949C163.647 20.2189 164.015 19.8549 164.482 19.6029C164.958 19.3415 165.499 19.2109 166.106 19.2109C166.722 19.2109 167.198 19.3602 167.534 19.6589C167.87 19.9575 168.085 20.3262 168.178 20.7649C168.477 20.2609 168.855 19.8782 169.312 19.6169C169.769 19.3462 170.292 19.2109 170.88 19.2109C171.328 19.2109 171.697 19.2949 171.986 19.4629C172.275 19.6309 172.499 19.8502 172.658 20.1209C172.817 20.3915 172.924 20.6995 172.98 21.0449C173.045 21.3902 173.078 21.7402 173.078 22.0949V26.6729ZM178.113 26.8129C177.525 26.8129 176.993 26.7149 176.517 26.5189C176.041 26.3135 175.635 26.0382 175.299 25.6929C174.963 25.3475 174.702 24.9462 174.515 24.4889C174.338 24.0315 174.249 23.5509 174.249 23.0469C174.249 22.5242 174.338 22.0342 174.515 21.5769C174.693 21.1102 174.949 20.7042 175.285 20.3589C175.621 20.0042 176.027 19.7242 176.503 19.5189C176.989 19.3135 177.53 19.2109 178.127 19.2109C178.725 19.2109 179.257 19.3135 179.723 19.5189C180.199 19.7242 180.601 19.9995 180.927 20.3449C181.263 20.6902 181.515 21.0915 181.683 21.5489C181.861 22.0062 181.949 22.4822 181.949 22.9769C181.949 23.0982 181.945 23.2149 181.935 23.3269C181.935 23.4389 181.926 23.5322 181.907 23.6069H176.237C176.265 23.8962 176.335 24.1529 176.447 24.3769C176.559 24.6009 176.704 24.7922 176.881 24.9509C177.059 25.1095 177.259 25.2309 177.483 25.3149C177.707 25.3989 177.941 25.4409 178.183 25.4409C178.557 25.4409 178.907 25.3522 179.233 25.1749C179.569 24.9882 179.798 24.7455 179.919 24.4469L181.529 24.8949C181.259 25.4549 180.825 25.9169 180.227 26.2809C179.639 26.6355 178.935 26.8129 178.113 26.8129ZM180.017 22.3889C179.971 21.8382 179.765 21.3995 179.401 21.0729C179.047 20.7369 178.613 20.5689 178.099 20.5689C177.847 20.5689 177.609 20.6155 177.385 20.7089C177.171 20.7929 176.979 20.9142 176.811 21.0729C176.643 21.2315 176.503 21.4229 176.391 21.6469C176.289 21.8709 176.228 22.1182 176.209 22.3889H180.017ZM189.91 26.6729H188.034V22.5569C188.034 21.9689 187.932 21.5395 187.726 21.2689C187.521 20.9982 187.236 20.8629 186.872 20.8629C186.686 20.8629 186.494 20.9002 186.298 20.9749C186.102 21.0495 185.916 21.1569 185.738 21.2969C185.57 21.4275 185.416 21.5862 185.276 21.7729C185.136 21.9595 185.034 22.1649 184.968 22.3889V26.6729H183.092V19.3369H184.786V20.6949C185.057 20.2282 185.449 19.8642 185.962 19.6029C186.476 19.3415 187.054 19.2109 187.698 19.2109C188.156 19.2109 188.529 19.2949 188.818 19.4629C189.108 19.6309 189.332 19.8502 189.49 20.1209C189.649 20.3915 189.756 20.6995 189.812 21.0449C189.878 21.3902 189.91 21.7402 189.91 22.0949V26.6729ZM191.405 19.6869V16.5509H193.001V19.6869H191.405ZM197.321 26.8129C196.705 26.8129 196.103 26.7149 195.515 26.5189C194.927 26.3229 194.423 26.0429 194.003 25.6789L194.703 24.5029C195.151 24.8202 195.585 25.0629 196.005 25.2309C196.435 25.3895 196.859 25.4689 197.279 25.4689C197.653 25.4689 197.947 25.3989 198.161 25.2589C198.376 25.1189 198.483 24.9182 198.483 24.6569C198.483 24.3955 198.357 24.2042 198.105 24.0829C197.853 23.9615 197.443 23.8215 196.873 23.6629C196.397 23.5322 195.991 23.4062 195.655 23.2849C195.319 23.1635 195.049 23.0282 194.843 22.8789C194.638 22.7202 194.489 22.5429 194.395 22.3469C194.302 22.1415 194.255 21.8989 194.255 21.6189C194.255 21.2455 194.325 20.9095 194.465 20.6109C194.615 20.3122 194.82 20.0602 195.081 19.8549C195.343 19.6402 195.646 19.4769 195.991 19.3649C196.346 19.2529 196.729 19.1969 197.139 19.1969C197.69 19.1969 198.203 19.2762 198.679 19.4349C199.165 19.5935 199.608 19.8502 200.009 20.2049L199.253 21.3389C198.88 21.0589 198.516 20.8535 198.161 20.7229C197.816 20.5922 197.471 20.5269 197.125 20.5269C196.808 20.5269 196.542 20.5922 196.327 20.7229C196.113 20.8535 196.005 21.0635 196.005 21.3529C196.005 21.4835 196.029 21.5909 196.075 21.6749C196.131 21.7589 196.215 21.8335 196.327 21.8989C196.439 21.9642 196.584 22.0295 196.761 22.0949C196.948 22.1509 197.177 22.2115 197.447 22.2769C197.951 22.4075 198.381 22.5382 198.735 22.6689C199.099 22.7995 199.393 22.9489 199.617 23.1169C199.851 23.2849 200.019 23.4809 200.121 23.7049C200.233 23.9195 200.289 24.1809 200.289 24.4889C200.289 25.2075 200.023 25.7769 199.491 26.1969C198.959 26.6075 198.236 26.8129 197.321 26.8129ZM17.9014 37.3369C17.836 37.2715 17.7147 37.1829 17.5374 37.0709C17.3694 36.9589 17.1594 36.8515 16.9074 36.7489C16.6647 36.6369 16.3987 36.5435 16.1094 36.4689C15.82 36.3942 15.526 36.3569 15.2274 36.3569C14.6954 36.3569 14.2987 36.4549 14.0374 36.6509C13.776 36.8469 13.6454 37.1222 13.6454 37.4769C13.6454 37.6822 13.692 37.8549 13.7854 37.9949C13.888 38.1255 14.0327 38.2422 14.2194 38.3449C14.406 38.4475 14.6394 38.5409 14.9194 38.6249C15.2087 38.7089 15.54 38.7975 15.9134 38.8909C16.3987 39.0215 16.8374 39.1615 17.2294 39.3109C17.6307 39.4602 17.9667 39.6469 18.2374 39.8709C18.5174 40.0949 18.732 40.3655 18.8814 40.6829C19.0307 40.9909 19.1054 41.3735 19.1054 41.8309C19.1054 42.3629 19.0027 42.8202 18.7974 43.2029C18.6014 43.5762 18.3307 43.8795 17.9854 44.1129C17.6494 44.3462 17.2574 44.5189 16.8094 44.6309C16.3707 44.7335 15.9087 44.7849 15.4234 44.7849C14.6767 44.7849 13.9394 44.6729 13.2114 44.4489C12.4834 44.2249 11.83 43.9075 11.2514 43.4969L12.1054 41.8309C12.1894 41.9149 12.3387 42.0269 12.5534 42.1669C12.7774 42.2975 13.0387 42.4329 13.3374 42.5729C13.636 42.7035 13.9674 42.8155 14.3314 42.9089C14.6954 43.0022 15.0687 43.0489 15.4514 43.0489C16.5154 43.0489 17.0474 42.7082 17.0474 42.0269C17.0474 41.8122 16.9867 41.6302 16.8654 41.4809C16.744 41.3315 16.5714 41.2009 16.3474 41.0889C16.1234 40.9769 15.8527 40.8742 15.5354 40.7809C15.218 40.6875 14.8634 40.5849 14.4714 40.4729C13.9954 40.3422 13.58 40.2022 13.2254 40.0529C12.88 39.8942 12.5907 39.7122 12.3574 39.5069C12.124 39.2922 11.9467 39.0495 11.8254 38.7789C11.7134 38.4989 11.6574 38.1675 11.6574 37.7849C11.6574 37.2809 11.7507 36.8329 11.9374 36.4409C12.124 36.0489 12.3807 35.7222 12.7074 35.4609C13.0434 35.1995 13.4307 35.0035 13.8694 34.8729C14.308 34.7329 14.7794 34.6629 15.2834 34.6629C15.9834 34.6629 16.6274 34.7749 17.2154 34.9989C17.8034 35.2135 18.3167 35.4702 18.7554 35.7689L17.9014 37.3369ZM27.2013 44.6729H25.3253V40.5569C25.3253 39.9782 25.218 39.5535 25.0033 39.2829C24.7886 39.0029 24.4853 38.8629 24.0933 38.8629C23.9253 38.8629 23.748 38.9002 23.5613 38.9749C23.3746 39.0495 23.1973 39.1569 23.0293 39.2969C22.8613 39.4275 22.7073 39.5862 22.5673 39.7729C22.4273 39.9595 22.3246 40.1649 22.2593 40.3889V44.6729H20.3833V34.4529H22.2593V38.6949C22.53 38.2189 22.894 37.8549 23.3513 37.6029C23.818 37.3415 24.3313 37.2109 24.8913 37.2109C25.3673 37.2109 25.7546 37.2949 26.0533 37.4629C26.352 37.6215 26.5853 37.8362 26.7533 38.1069C26.9213 38.3775 27.038 38.6855 27.1033 39.0309C27.1686 39.3762 27.2013 39.7309 27.2013 40.0949V44.6729ZM32.2345 44.8129C31.6465 44.8129 31.1145 44.7149 30.6385 44.5189C30.1625 44.3135 29.7565 44.0382 29.4205 43.6929C29.0845 43.3475 28.8232 42.9462 28.6365 42.4889C28.4592 42.0315 28.3705 41.5509 28.3705 41.0469C28.3705 40.5242 28.4592 40.0342 28.6365 39.5769C28.8138 39.1102 29.0705 38.7042 29.4065 38.3589C29.7425 38.0042 30.1485 37.7242 30.6245 37.5189C31.1098 37.3135 31.6512 37.2109 32.2485 37.2109C32.8458 37.2109 33.3778 37.3135 33.8445 37.5189C34.3205 37.7242 34.7218 37.9995 35.0485 38.3449C35.3845 38.6902 35.6365 39.0915 35.8045 39.5489C35.9818 40.0062 36.0705 40.4822 36.0705 40.9769C36.0705 41.0982 36.0658 41.2149 36.0565 41.3269C36.0565 41.4389 36.0472 41.5322 36.0285 41.6069H30.3585C30.3865 41.8962 30.4565 42.1529 30.5685 42.3769C30.6805 42.6009 30.8252 42.7922 31.0025 42.9509C31.1798 43.1095 31.3805 43.2309 31.6045 43.3149C31.8285 43.3989 32.0618 43.4409 32.3045 43.4409C32.6778 43.4409 33.0278 43.3522 33.3545 43.1749C33.6905 42.9882 33.9192 42.7455 34.0405 42.4469L35.6505 42.8949C35.3798 43.4549 34.9458 43.9169 34.3485 44.2809C33.7605 44.6355 33.0558 44.8129 32.2345 44.8129ZM34.1385 40.3889C34.0918 39.8382 33.8865 39.3995 33.5225 39.0729C33.1678 38.7369 32.7338 38.5689 32.2205 38.5689C31.9685 38.5689 31.7305 38.6155 31.5065 38.7089C31.2918 38.7929 31.1005 38.9142 30.9325 39.0729C30.7645 39.2315 30.6245 39.4229 30.5125 39.6469C30.4098 39.8709 30.3492 40.1182 30.3305 40.3889H34.1385ZM37.1994 34.4529H39.0754V42.3209C39.0754 42.5915 39.1407 42.8015 39.2714 42.9509C39.402 43.1002 39.5887 43.1749 39.8314 43.1749C39.9434 43.1749 40.0647 43.1562 40.1954 43.1189C40.3354 43.0815 40.466 43.0349 40.5874 42.9789L40.8394 44.4069C40.5874 44.5282 40.2934 44.6215 39.9574 44.6869C39.6214 44.7522 39.318 44.7849 39.0474 44.7849C38.4594 44.7849 38.002 44.6309 37.6754 44.3229C37.358 44.0055 37.1994 43.5575 37.1994 42.9789V34.4529ZM46.0527 44.2949C45.8007 44.4069 45.4927 44.5189 45.1287 44.6309C44.7647 44.7429 44.3821 44.7989 43.9807 44.7989C43.7194 44.7989 43.4721 44.7662 43.2387 44.7009C43.0147 44.6355 42.8141 44.5329 42.6367 44.3929C42.4687 44.2435 42.3334 44.0569 42.2307 43.8329C42.1281 43.5995 42.0767 43.3195 42.0767 42.9929V38.7789H41.1107V37.3369H42.0767V34.9569H43.9527V37.3369H45.4927V38.7789H43.9527V42.3629C43.9527 42.6242 44.0181 42.8109 44.1487 42.9229C44.2887 43.0255 44.4567 43.0769 44.6527 43.0769C44.8487 43.0769 45.0401 43.0442 45.2267 42.9789C45.4134 42.9135 45.5627 42.8575 45.6747 42.8109L46.0527 44.2949ZM50.254 44.8129C49.666 44.8129 49.134 44.7149 48.658 44.5189C48.182 44.3135 47.776 44.0382 47.44 43.6929C47.104 43.3475 46.8427 42.9462 46.656 42.4889C46.4787 42.0315 46.39 41.5509 46.39 41.0469C46.39 40.5242 46.4787 40.0342 46.656 39.5769C46.8334 39.1102 47.09 38.7042 47.426 38.3589C47.762 38.0042 48.168 37.7242 48.644 37.5189C49.1294 37.3135 49.6707 37.2109 50.268 37.2109C50.8654 37.2109 51.3974 37.3135 51.864 37.5189C52.34 37.7242 52.7414 37.9995 53.068 38.3449C53.404 38.6902 53.656 39.0915 53.824 39.5489C54.0014 40.0062 54.09 40.4822 54.09 40.9769C54.09 41.0982 54.0854 41.2149 54.076 41.3269C54.076 41.4389 54.0667 41.5322 54.048 41.6069H48.378C48.406 41.8962 48.476 42.1529 48.588 42.3769C48.7 42.6009 48.8447 42.7922 49.022 42.9509C49.1994 43.1095 49.4 43.2309 49.624 43.3149C49.848 43.3989 50.0814 43.4409 50.324 43.4409C50.6974 43.4409 51.0474 43.3522 51.374 43.1749C51.71 42.9882 51.9387 42.7455 52.06 42.4469L53.67 42.8949C53.3994 43.4549 52.9654 43.9169 52.368 44.2809C51.78 44.6355 51.0754 44.8129 50.254 44.8129ZM52.158 40.3889C52.1114 39.8382 51.906 39.3995 51.542 39.0729C51.1874 38.7369 50.7534 38.5689 50.24 38.5689C49.988 38.5689 49.75 38.6155 49.526 38.7089C49.3114 38.7929 49.12 38.9142 48.952 39.0729C48.784 39.2315 48.644 39.4229 48.532 39.6469C48.4294 39.8709 48.3687 40.1182 48.35 40.3889H52.158ZM59.6009 38.9609C59.0316 38.9702 58.5229 39.0822 58.0749 39.2969C57.6269 39.5022 57.3049 39.8149 57.1089 40.2349V44.6729H55.2329V37.3369H56.9549V38.9049C57.0856 38.6529 57.2396 38.4289 57.4169 38.2329C57.5942 38.0275 57.7856 37.8502 57.9909 37.7009C58.1962 37.5515 58.4016 37.4395 58.6069 37.3649C58.8216 37.2809 59.0269 37.2389 59.2229 37.2389C59.3256 37.2389 59.4002 37.2389 59.4469 37.2389C59.5029 37.2389 59.5542 37.2435 59.6009 37.2529V38.9609Z" fill="#5C5C5C"/>
</g>
<g filter="url(#filter1_d)">
<path d="M240 51C240 46.5817 243.582 43 248 43H362C366.418 43 370 46.5817 370 51V57C370 61.4183 366.418 65 362 65H248C243.582 65 240 61.4183 240 57V51Z" fill="#246B6D"/>
<path d="M350.713 47L349 48.645L354.563 54L349 59.355L350.713 61L358 54L350.713 47Z" fill="white"/>
<path d="M270.293 50.8965V56.5332H271.957C272.808 56.5332 273.402 56.1133 273.738 55.2734C273.921 54.8125 274.013 54.2637 274.013 53.627C274.013 52.748 273.875 52.0742 273.597 51.6055C273.324 51.1328 272.777 50.8965 271.957 50.8965H270.293ZM272.261 49.3965C272.796 49.4043 273.242 49.4668 273.597 49.584C274.203 49.7832 274.693 50.1484 275.068 50.6797C275.369 51.1094 275.574 51.5742 275.683 52.0742C275.793 52.5742 275.847 53.0508 275.847 53.5039C275.847 54.6523 275.617 55.625 275.156 56.4219C274.531 57.4961 273.566 58.0332 272.261 58.0332H268.541V49.3965H272.261ZM278.794 50.8848H277.101V49.3438H278.794V50.8848ZM277.101 51.6465H278.794V58.0332H277.101V51.6465ZM283.886 51.4941C283.918 51.4941 283.943 51.4961 283.962 51.5C283.986 51.5 284.035 51.502 284.109 51.5059V53.2168C284.003 53.2051 283.91 53.1973 283.828 53.1934C283.746 53.1895 283.679 53.1875 283.628 53.1875C282.957 53.1875 282.505 53.4062 282.275 53.8438C282.146 54.0898 282.082 54.4688 282.082 54.9805V58.0332H280.4V51.6465H281.994V52.7598C282.252 52.334 282.476 52.043 282.668 51.8867C282.98 51.625 283.386 51.4941 283.886 51.4941ZM287.613 52.8535C287.226 52.8535 286.925 52.9746 286.711 53.2168C286.5 53.459 286.367 53.7871 286.312 54.2012H288.908C288.88 53.7598 288.746 53.4258 288.503 53.1992C288.265 52.9688 287.968 52.8535 287.613 52.8535ZM287.613 51.4766C288.144 51.4766 288.623 51.5762 289.048 51.7754C289.474 51.9746 289.826 52.2891 290.103 52.7188C290.353 53.0977 290.515 53.5371 290.589 54.0371C290.632 54.3301 290.65 54.752 290.642 55.3027H286.271C286.294 55.9434 286.496 56.3926 286.875 56.6504C287.105 56.8105 287.382 56.8906 287.707 56.8906C288.05 56.8906 288.33 56.793 288.544 56.5977C288.662 56.4922 288.765 56.3457 288.855 56.1582H290.56C290.517 56.5371 290.32 56.9219 289.968 57.3125C289.421 57.9336 288.656 58.2441 287.671 58.2441C286.859 58.2441 286.142 57.9824 285.521 57.459C284.9 56.9355 284.589 56.084 284.589 54.9043C284.589 53.7988 284.869 52.9512 285.427 52.3613C285.99 51.7715 286.718 51.4766 287.613 51.4766ZM295.587 53.9375C295.556 53.6992 295.476 53.4844 295.347 53.293C295.16 53.0352 294.869 52.9062 294.474 52.9062C293.912 52.9062 293.527 53.1855 293.32 53.7441C293.211 54.041 293.156 54.4355 293.156 54.9277C293.156 55.3965 293.211 55.7734 293.32 56.0586C293.519 56.5898 293.894 56.8555 294.445 56.8555C294.836 56.8555 295.113 56.75 295.277 56.5391C295.441 56.3281 295.541 56.0547 295.576 55.7188H297.281C297.242 56.2266 297.058 56.707 296.73 57.1602C296.207 57.8906 295.431 58.2559 294.404 58.2559C293.377 58.2559 292.621 57.9512 292.136 57.3418C291.652 56.7324 291.41 55.9414 291.41 54.9688C291.41 53.8711 291.677 53.0176 292.212 52.4082C292.748 51.7988 293.486 51.4941 294.427 51.4941C295.228 51.4941 295.882 51.6738 296.39 52.0332C296.902 52.3926 297.205 53.0273 297.298 53.9375H295.587ZM297.796 52.8945V51.7051H298.687V49.9238H300.339V51.7051H301.377V52.8945H300.339V56.2695C300.339 56.5312 300.373 56.6953 300.439 56.7617C300.505 56.8242 300.709 56.8555 301.048 56.8555C301.099 56.8555 301.152 56.8555 301.207 56.8555C301.265 56.8516 301.322 56.8477 301.377 56.8438V58.0918L300.586 58.1211C299.796 58.1484 299.257 58.0117 298.968 57.7109C298.781 57.5195 298.687 57.2246 298.687 56.8262V52.8945H297.796ZM304.166 50.8848H302.472V49.3438H304.166V50.8848ZM302.472 51.6465H304.166V58.0332H302.472V51.6465ZM308.654 56.8555C309.142 56.8555 309.517 56.6816 309.779 56.334C310.041 55.9863 310.171 55.4922 310.171 54.8516C310.171 54.2109 310.041 53.7188 309.779 53.375C309.517 53.0273 309.142 52.8535 308.654 52.8535C308.166 52.8535 307.789 53.0273 307.523 53.375C307.261 53.7188 307.13 54.2109 307.13 54.8516C307.13 55.4922 307.261 55.9863 307.523 56.334C307.789 56.6816 308.166 56.8555 308.654 56.8555ZM311.923 54.8516C311.923 55.7891 311.654 56.5918 311.115 57.2598C310.576 57.9238 309.757 58.2559 308.66 58.2559C307.562 58.2559 306.744 57.9238 306.205 57.2598C305.666 56.5918 305.396 55.7891 305.396 54.8516C305.396 53.9297 305.666 53.1309 306.205 52.4551C306.744 51.7793 307.562 51.4414 308.66 51.4414C309.757 51.4414 310.576 51.7793 311.115 52.4551C311.654 53.1309 311.923 53.9297 311.923 54.8516ZM316.664 51.4941C317.324 51.4941 317.863 51.668 318.281 52.0156C318.703 52.3594 318.914 52.9316 318.914 53.7324V58.0332H317.203V54.1484C317.203 53.8125 317.158 53.5547 317.068 53.375C316.904 53.0469 316.591 52.8828 316.13 52.8828C315.564 52.8828 315.175 53.123 314.964 53.6035C314.855 53.8574 314.8 54.1816 314.8 54.5762V58.0332H313.136V51.6582H314.748V52.5898C314.962 52.2617 315.166 52.0254 315.357 51.8809C315.701 51.623 316.136 51.4941 316.664 51.4941ZM321.761 55.9941C321.796 56.291 321.873 56.502 321.99 56.627C322.197 56.8496 322.58 56.9609 323.138 56.9609C323.466 56.9609 323.726 56.9121 323.918 56.8145C324.113 56.7168 324.211 56.5703 324.211 56.375C324.211 56.1875 324.132 56.0449 323.976 55.9473C323.82 55.8496 323.24 55.6816 322.236 55.4434C321.513 55.2637 321.003 55.0391 320.707 54.7695C320.41 54.5039 320.261 54.1211 320.261 53.6211C320.261 53.0312 320.492 52.5254 320.953 52.1035C321.418 51.6777 322.07 51.4648 322.91 51.4648C323.707 51.4648 324.355 51.625 324.855 51.9453C325.359 52.2617 325.648 52.8105 325.722 53.5918H324.052C324.029 53.377 323.968 53.207 323.871 53.082C323.687 52.8555 323.375 52.7422 322.933 52.7422C322.57 52.7422 322.31 52.7988 322.154 52.9121C322.002 53.0254 321.925 53.1582 321.925 53.3105C321.925 53.502 322.007 53.6406 322.171 53.7266C322.336 53.8164 322.916 53.9707 323.912 54.1895C324.576 54.3457 325.074 54.582 325.406 54.8984C325.734 55.2188 325.898 55.6191 325.898 56.0996C325.898 56.7324 325.662 57.25 325.189 57.6523C324.72 58.0508 323.994 58.25 323.009 58.25C322.005 58.25 321.263 58.0391 320.783 57.6172C320.306 57.1914 320.068 56.6504 320.068 55.9941H321.761Z" fill="white"/>
</g>
<g filter="url(#filter2_d)">
<path d="M240 79.3271C240 74.9089 243.582 71.3271 248 71.3271H362C366.418 71.3271 370 74.9089 370 79.3271V85.3271C370 89.7454 366.418 93.3271 362 93.3271H248C243.582 93.3271 240 89.7454 240 85.3271V79.3271Z" fill="white"/>
<path d="M286.517 82.1123C286.517 80.6045 286.921 79.4424 287.73 78.626C288.433 77.915 289.328 77.5596 290.414 77.5596C291.867 77.5596 292.929 78.0361 293.601 78.9893C293.972 79.5244 294.171 80.0615 294.199 80.6006H292.394C292.277 80.1865 292.127 79.874 291.943 79.6631C291.615 79.2881 291.128 79.1006 290.484 79.1006C289.828 79.1006 289.31 79.3662 288.931 79.8975C288.552 80.4248 288.363 81.1729 288.363 82.1416C288.363 83.1104 288.562 83.8369 288.961 84.3213C289.363 84.8018 289.873 85.042 290.49 85.042C291.123 85.042 291.605 84.835 291.937 84.4209C292.121 84.1982 292.273 83.8643 292.394 83.4189H294.181C294.025 84.3604 293.625 85.126 292.98 85.7158C292.339 86.3057 291.517 86.6006 290.513 86.6006C289.271 86.6006 288.294 86.2021 287.584 85.4053C286.873 84.6045 286.517 83.5068 286.517 82.1123ZM298.951 83.2549C298.845 83.3213 298.738 83.376 298.628 83.4189C298.523 83.458 298.377 83.4951 298.189 83.5303L297.814 83.6006C297.462 83.6631 297.211 83.7393 297.058 83.8291C296.8 83.9814 296.671 84.2178 296.671 84.5381C296.671 84.8232 296.75 85.0303 296.906 85.1592C297.066 85.2842 297.259 85.3467 297.486 85.3467C297.845 85.3467 298.175 85.2412 298.476 85.0303C298.781 84.8193 298.939 84.4346 298.951 83.876V83.2549ZM297.937 82.4756C298.246 82.4365 298.466 82.3877 298.599 82.3291C298.837 82.2275 298.957 82.0693 298.957 81.8545C298.957 81.5928 298.865 81.4131 298.681 81.3154C298.502 81.2139 298.236 81.1631 297.884 81.1631C297.49 81.1631 297.211 81.2607 297.046 81.4561C296.929 81.6006 296.851 81.7959 296.812 82.042H295.201C295.236 81.4834 295.392 81.0244 295.669 80.665C296.111 80.1025 296.869 79.8213 297.943 79.8213C298.642 79.8213 299.263 79.96 299.806 80.2373C300.349 80.5146 300.621 81.0381 300.621 81.8076V84.7373C300.621 84.9404 300.625 85.1865 300.632 85.4756C300.644 85.6943 300.677 85.8428 300.732 85.9209C300.787 85.999 300.869 86.0635 300.978 86.1143V86.3604H299.162C299.111 86.2314 299.076 86.1104 299.056 85.9971C299.037 85.8838 299.021 85.7549 299.009 85.6104C298.779 85.8604 298.513 86.0732 298.212 86.249C297.853 86.4561 297.447 86.5596 296.994 86.5596C296.416 86.5596 295.937 86.3955 295.558 86.0674C295.183 85.7354 294.996 85.2666 294.996 84.6611C294.996 83.876 295.298 83.3076 295.904 82.9561C296.236 82.7646 296.724 82.6279 297.369 82.5459L297.937 82.4756ZM303.814 86.3604H302.144V77.7236H303.814V86.3604ZM307.154 86.3604H305.484V77.7236H307.154V86.3604Z" fill="#246B6D"/>
<path d="M359.328 77.8813L357.647 76.2026C357.529 76.0836 357.388 75.9891 357.233 75.9247C357.078 75.8603 356.911 75.8271 356.743 75.8271C356.401 75.8271 356.079 75.9613 355.838 76.2026L354.03 78.0106C353.911 78.1292 353.816 78.27 353.752 78.4252C353.687 78.5803 353.654 78.7467 353.654 78.9146C353.654 79.257 353.788 79.5788 354.03 79.8202L355.352 81.1423C355.042 81.8244 354.612 82.445 354.082 82.974C353.553 83.5056 352.932 83.9374 352.25 84.2488L350.928 82.9267C350.81 82.8076 350.669 82.7132 350.514 82.6487C350.359 82.5843 350.192 82.5511 350.024 82.5512C349.682 82.5512 349.36 82.6853 349.119 82.9267L347.309 84.7331C347.19 84.8518 347.095 84.993 347.031 85.1484C346.966 85.3038 346.933 85.4704 346.934 85.6387C346.934 85.981 347.068 86.3029 347.309 86.5443L348.986 88.2213C349.371 88.6079 349.903 88.8271 350.449 88.8271C350.564 88.8271 350.674 88.8177 350.783 88.7988C352.91 88.4485 355.019 87.3173 356.721 85.6166C358.422 83.9174 359.552 81.8097 359.907 79.6767C360.014 79.0251 359.798 78.3546 359.328 77.8813V77.8813Z" fill="#246B6D" fill-opacity="0.5"/>
<path d="M248 72.3271H362V70.3271H248V72.3271ZM369 79.3271V85.3271H371V79.3271H369ZM362 92.3271H248V94.3271H362V92.3271ZM241 85.3271V79.3271H239V85.3271H241ZM248 92.3271C244.134 92.3271 241 89.1931 241 85.3271H239C239 90.2977 243.029 94.3271 248 94.3271V92.3271ZM369 85.3271C369 89.1931 365.866 92.3271 362 92.3271V94.3271C366.971 94.3271 371 90.2977 371 85.3271H369ZM362 72.3271C365.866 72.3271 369 75.4612 369 79.3271H371C371 74.3566 366.971 70.3271 362 70.3271V72.3271ZM248 70.3271C243.029 70.3271 239 74.3566 239 79.3271H241C241 75.4612 244.134 72.3271 248 72.3271V70.3271Z" fill="#246B6D"/>
</g>
<line x1="4.37114e-08" y1="99.5" x2="380" y2="99.5" stroke="#DADADA"/>
<path d="M87.369 72.0476C87.623 72.0476 87.829 71.7607 87.829 71.4068C87.829 71.0529 87.623 70.766 87.369 70.766C87.1149 70.766 86.909 71.0529 86.909 71.4068C86.909 71.7607 87.1149 72.0476 87.369 72.0476Z" fill="#246B6D" fill-opacity="0.7"/>
<path d="M102.479 81.4879C102.095 80.7914 101.513 79.8649 101.058 79.7195C100.806 79.5041 100.418 79.331 100.002 79.1506L99.7899 79.0576C99.7955 78.8641 99.7439 78.7241 99.6292 78.6314C98.9279 78.0664 98.2166 77.231 97.5332 76.2914C97.5516 76.236 97.5622 76.176 97.5622 76.1114C97.5622 75.8687 97.4206 75.6722 97.2462 75.6722C97.1959 75.6722 97.1499 75.6772 97.1002 75.6779C96.9009 75.3861 96.706 75.0903 96.5156 74.7906C96.5482 74.7218 96.5719 74.6437 96.5719 74.5553C96.5719 74.3122 96.4302 74.1156 96.2562 74.1156C96.2399 74.1156 96.1829 74.116 96.0959 74.1199C95.8737 73.756 95.6552 73.3891 95.4402 73.0195C95.4539 72.9706 95.4629 72.9187 95.4629 72.8637C95.4629 72.6206 95.3216 72.4237 95.1476 72.4237C95.1306 72.4237 95.1152 72.4253 95.0989 72.4253C94.8964 72.0686 94.6957 71.7106 94.4966 71.3514C94.5066 71.3079 94.5163 71.2633 94.5163 71.2156C94.5163 70.9729 94.3743 70.7764 94.2006 70.7764L94.1786 70.7772C93.3666 69.3141 93.2189 69.0933 92.9939 69.0933C92.8453 69.0933 92.7073 69.1049 92.5729 69.1206C92.5223 69.0156 92.4706 68.9137 92.4203 68.8072C92.2633 68.4756 91.9279 68.0791 91.2249 68.0791C90.16 68.0791 88.6986 68.9918 87.841 69.6014C87.028 69.2033 86.3367 68.9972 85.7923 68.9972C85.2367 68.9972 84.978 69.206 84.8697 69.3326C84.863 69.3391 84.855 69.3429 84.8487 69.3506C84.2493 70.106 83.8637 71.5183 83.616 72.9172C83.2213 74.366 83.1783 75.5456 83.1847 76.0895C83.1602 76.1224 83.1392 76.1586 83.122 76.1972C82.8917 76.7491 82.9387 78.891 83.2627 79.356C84.0937 80.5533 84.944 81.3295 85.8443 82.1514C86.8626 83.081 87.9153 84.0422 89.1526 85.7556C90.2186 87.2326 92.4379 88.0791 95.2422 88.0791C98.9782 88.0791 102.979 86.5487 102.979 84.2714C102.979 81.7645 102.744 81.4999 102.479 81.4879ZM102.112 81.8749C101.389 83.1676 98.0356 83.8645 95.0829 83.8645C94.0973 83.8645 93.2273 83.786 92.6323 83.6429C91.8083 83.4449 91.0319 83.1172 90.304 82.7118C90.9876 81.6795 92.2249 81.5191 93.4856 81.5191C93.9753 81.5191 94.4806 81.5445 95.0162 81.5722C95.5632 81.5999 96.1289 81.6283 96.6882 81.6283C98.0382 81.6283 99.7379 81.4737 101.01 80.2933C101.237 80.4518 101.69 81.1029 102.112 81.8749ZM98.1469 78.3491C98.3399 78.5814 98.5219 78.8018 98.6782 78.9983C98.8919 79.2676 99.3479 79.4656 99.8299 79.6753C100.079 79.7837 100.33 79.8949 100.529 80.0076C99.4072 80.9337 97.9682 81.0679 96.6882 81.0679C96.1659 81.0679 95.6339 81.0418 95.1159 81.0153C95.1149 80.4026 95.0376 79.7795 94.9066 79.3979C95.6622 78.8856 96.7486 78.3922 98.1469 78.3491ZM96.6929 76.5722C96.9472 76.8924 97.2042 77.2097 97.4639 77.5241C96.2026 77.6883 95.2136 78.1803 94.5083 78.6822C94.2611 78.2801 94.012 77.8796 93.7609 77.4806C94.4286 77.0545 95.3836 76.661 96.6929 76.5722ZM96.0619 75.7583C94.8562 75.931 93.9613 76.3487 93.3209 76.7914C93.1196 76.4768 92.9219 76.1722 92.7293 75.8787C93.7033 75.3391 94.8209 75.1283 95.5326 75.0468C95.7126 75.2941 95.8882 75.5291 96.0619 75.7583ZM92.2736 75.1941C92.0328 74.836 91.7889 74.4808 91.5419 74.1283C92.2439 73.7783 93.1899 73.4487 94.3649 73.3422C94.5609 73.6449 94.7611 73.944 94.9652 74.2395C94.1829 74.3699 93.1696 74.6399 92.2736 75.1941ZM95.0219 73.3076C95.1689 73.5614 95.3206 73.8191 95.4772 74.0799C95.3006 73.8259 95.1269 73.5692 94.9562 73.3099C94.9782 73.3091 94.9996 73.3076 95.0219 73.3076ZM94.0893 71.6591C94.2279 71.9087 94.3739 72.1703 94.5286 72.4453C94.4879 72.4476 94.4493 72.4529 94.4089 72.456C94.2468 72.1944 94.0876 71.9304 93.9313 71.6641C93.9846 71.6626 94.0356 71.6599 94.0893 71.6591ZM91.0476 73.4399C90.817 73.1233 90.5822 72.8109 90.3433 72.5026C91.0633 72.1429 92.0639 71.8014 93.3623 71.6933C93.5243 71.9756 93.6866 72.2506 93.8486 72.5168C92.6669 72.686 91.7316 73.0633 91.0476 73.4399ZM92.9263 69.6556C93.0443 69.7956 93.3113 70.261 93.6103 70.7956C93.5543 70.7987 93.4979 70.8014 93.4429 70.8053C93.2353 70.4286 93.034 70.0473 92.8389 69.6618C92.8686 69.6606 92.8956 69.6564 92.9263 69.6556ZM91.2249 68.6399C91.6016 68.6399 91.8526 68.7826 91.9919 69.076C92.2782 69.6799 92.5795 70.2742 92.8956 70.8579C91.5436 71.0276 90.5243 71.4406 89.808 71.8437C89.1066 71.0072 88.514 70.4299 88.035 70.1253C88.8383 69.5483 90.256 68.6399 91.2249 68.6399ZM85.2357 69.7022C85.287 69.6599 85.4453 69.5576 85.792 69.5576C86.0607 69.5576 86.4907 69.6249 87.121 69.8795C86.275 69.9895 85.807 70.7556 85.4297 71.3879C85.187 71.7933 84.959 72.176 84.7457 72.1891C84.615 71.9968 84.8483 70.821 85.2357 69.7022ZM84.2507 72.2256C84.268 72.3333 84.2973 72.4272 84.3407 72.5018C84.43 72.6537 84.5687 72.7364 84.7313 72.7364C85.216 72.7364 85.515 72.2356 85.8317 71.7049C86.2103 71.0718 86.6013 70.4172 87.3253 70.4172C87.73 70.4172 88.43 71.0156 89.357 72.1168C89.1253 72.2714 88.947 72.4126 88.8123 72.5276C88.775 72.5131 88.736 72.5053 88.6966 72.5045C88.4423 72.5045 88.2363 72.7914 88.2363 73.1453C88.2363 73.4991 88.4423 73.786 88.6966 73.786C88.9193 73.786 89.105 73.5656 89.1476 73.2726C89.379 73.0791 89.6228 72.9063 89.877 72.7556C90.1217 73.0682 90.3616 73.3857 90.5966 73.7079C90.3828 73.8451 90.1758 73.996 89.9766 74.1599C89.9371 74.1435 89.8956 74.1348 89.8536 74.1341C89.5996 74.1341 89.3936 74.4206 89.3936 74.7749C89.3936 75.1291 89.5996 75.4156 89.8536 75.4156C90.0726 75.4156 90.255 75.2018 90.3016 74.916C90.5492 74.715 90.809 74.5348 91.0789 74.3768C91.3266 74.7264 91.5833 75.096 91.8476 75.4876C91.5751 75.6951 91.3243 75.9384 91.1003 76.2126C91.0879 76.211 91.0763 76.2076 91.0636 76.2076C90.8086 76.2076 90.603 76.4945 90.603 76.8483C90.603 77.2018 90.8086 77.4891 91.0636 77.4891C91.3126 77.4891 91.5149 77.2114 91.5216 76.866C91.749 76.5886 92.0082 76.3483 92.2919 76.1518C92.4936 76.4572 92.6999 76.7729 92.9109 77.0999C92.6673 77.3023 92.4416 77.5322 92.2373 77.786C92.2269 77.7853 92.2169 77.7818 92.2066 77.7818C91.9529 77.7818 91.7466 78.0691 91.7466 78.4229C91.7466 78.7764 91.9529 79.0637 92.2066 79.0637C92.4579 79.0637 92.6606 78.7829 92.6656 78.4349C92.8702 78.188 93.0972 77.9671 93.3426 77.776C93.5984 78.1805 93.8518 78.5869 94.1029 78.9953C93.8746 79.1835 93.6578 79.3897 93.4543 79.6126C93.4329 79.6083 93.4119 79.6037 93.3903 79.6037C93.1356 79.6037 92.9299 79.891 92.9299 80.2445C92.9299 80.5983 93.1356 80.8853 93.3903 80.8853C93.6283 80.8853 93.8226 80.631 93.8453 80.3064C94.0487 80.0869 94.2658 79.885 94.4949 79.7022C94.5919 80.0191 94.6333 80.5145 94.6313 80.9922C94.2498 80.9718 93.8681 80.9604 93.4863 80.9579C92.0543 80.9579 90.6453 81.1568 89.8606 82.4537C87.7753 81.1664 86.1393 79.2591 85.0677 77.8606C85.0917 76.6129 84.8243 75.8333 84.5567 75.0876C84.3333 74.4637 84.1227 73.8729 84.1 73.006C84.145 72.7441 84.1947 72.4818 84.2507 72.2256ZM84.105 75.301C84.3093 75.8706 84.502 76.426 84.5643 77.1903C84.476 77.0699 84.3933 76.9564 84.3173 76.8518C83.9803 76.3895 83.8023 76.1495 83.6723 76.031C83.674 75.4767 83.7184 74.9236 83.805 74.3783C83.8923 74.7087 83.9997 75.0076 84.105 75.301ZM95.2422 87.5183C92.5833 87.5183 90.501 86.7453 89.528 85.3979C88.2583 83.6391 87.137 82.6156 86.1477 81.7122C85.2697 80.911 84.4407 80.1537 83.6437 79.0068C83.481 78.7583 83.4147 77.226 83.5107 76.6306C83.626 76.7772 83.7863 76.9968 83.943 77.2122C85.2413 78.9953 88.282 83.1699 92.5329 84.1918C93.1593 84.3422 94.0653 84.4249 95.0829 84.4249C97.3669 84.4249 101.244 83.9768 102.408 82.3668C102.45 82.6853 102.491 83.2564 102.491 84.2706C102.491 85.9706 99.0355 87.5183 95.2422 87.5183Z" fill="#246B6D" fill-opacity="0.7"/>
<path d="M87.369 72.0476C87.623 72.0476 87.829 71.7607 87.829 71.4068C87.829 71.0529 87.623 70.766 87.369 70.766C87.1149 70.766 86.909 71.0529 86.909 71.4068C86.909 71.7607 87.1149 72.0476 87.369 72.0476Z" stroke="#246B6D" stroke-width="0.5"/>
<path d="M102.479 81.4879C102.095 80.7914 101.513 79.8649 101.058 79.7195C100.806 79.5041 100.418 79.331 100.002 79.1506L99.7899 79.0576C99.7955 78.8641 99.7439 78.7241 99.6292 78.6314C98.9279 78.0664 98.2166 77.231 97.5332 76.2914C97.5516 76.236 97.5622 76.176 97.5622 76.1114C97.5622 75.8687 97.4206 75.6722 97.2462 75.6722C97.1959 75.6722 97.1499 75.6772 97.1002 75.6779C96.9009 75.3861 96.706 75.0903 96.5156 74.7906C96.5482 74.7218 96.5719 74.6437 96.5719 74.5553C96.5719 74.3122 96.4302 74.1156 96.2562 74.1156C96.2399 74.1156 96.1829 74.116 96.0959 74.1199C95.8737 73.756 95.6552 73.3891 95.4402 73.0195C95.4539 72.9706 95.4629 72.9187 95.4629 72.8637C95.4629 72.6206 95.3216 72.4237 95.1476 72.4237C95.1306 72.4237 95.1152 72.4253 95.0989 72.4253C94.8964 72.0686 94.6957 71.7106 94.4966 71.3514C94.5066 71.3079 94.5163 71.2633 94.5163 71.2156C94.5163 70.9729 94.3743 70.7764 94.2006 70.7764L94.1786 70.7772C93.3666 69.3141 93.2189 69.0933 92.9939 69.0933C92.8453 69.0933 92.7073 69.1049 92.5729 69.1206C92.5223 69.0156 92.4706 68.9137 92.4203 68.8072C92.2633 68.4756 91.9279 68.0791 91.2249 68.0791C90.16 68.0791 88.6986 68.9918 87.841 69.6014C87.028 69.2033 86.3367 68.9972 85.7923 68.9972C85.2367 68.9972 84.978 69.206 84.8697 69.3326C84.863 69.3391 84.855 69.3429 84.8487 69.3506C84.2493 70.106 83.8637 71.5183 83.616 72.9172C83.2213 74.366 83.1783 75.5456 83.1847 76.0895C83.1602 76.1224 83.1392 76.1586 83.122 76.1972C82.8917 76.7491 82.9387 78.891 83.2627 79.356C84.0937 80.5533 84.944 81.3295 85.8443 82.1514C86.8626 83.081 87.9153 84.0422 89.1526 85.7556C90.2186 87.2326 92.4379 88.0791 95.2422 88.0791C98.9782 88.0791 102.979 86.5487 102.979 84.2714C102.979 81.7645 102.744 81.4999 102.479 81.4879ZM102.112 81.8749C101.389 83.1676 98.0356 83.8645 95.0829 83.8645C94.0973 83.8645 93.2273 83.786 92.6323 83.6429C91.8083 83.4449 91.0319 83.1172 90.304 82.7118C90.9876 81.6795 92.2249 81.5191 93.4856 81.5191C93.9753 81.5191 94.4806 81.5445 95.0162 81.5722C95.5632 81.5999 96.1289 81.6283 96.6882 81.6283C98.0382 81.6283 99.7379 81.4737 101.01 80.2933C101.237 80.4518 101.69 81.1029 102.112 81.8749ZM98.1469 78.3491C98.3399 78.5814 98.5219 78.8018 98.6782 78.9983C98.8919 79.2676 99.3479 79.4656 99.8299 79.6753C100.079 79.7837 100.33 79.8949 100.529 80.0076C99.4072 80.9337 97.9682 81.0679 96.6882 81.0679C96.1659 81.0679 95.6339 81.0418 95.1159 81.0153C95.1149 80.4026 95.0376 79.7795 94.9066 79.3979C95.6622 78.8856 96.7486 78.3922 98.1469 78.3491ZM96.6929 76.5722C96.9472 76.8924 97.2042 77.2097 97.4639 77.5241C96.2026 77.6883 95.2136 78.1803 94.5083 78.6822C94.2611 78.2801 94.012 77.8796 93.7609 77.4806C94.4286 77.0545 95.3836 76.661 96.6929 76.5722ZM96.0619 75.7583C94.8562 75.931 93.9613 76.3487 93.3209 76.7914C93.1196 76.4768 92.9219 76.1722 92.7293 75.8787C93.7033 75.3391 94.8209 75.1283 95.5326 75.0468C95.7126 75.2941 95.8882 75.5291 96.0619 75.7583ZM92.2736 75.1941C92.0328 74.836 91.7889 74.4808 91.5419 74.1283C92.2439 73.7783 93.1899 73.4487 94.3649 73.3422C94.5609 73.6449 94.7611 73.944 94.9652 74.2395C94.1829 74.3699 93.1696 74.6399 92.2736 75.1941ZM95.0219 73.3076C95.1689 73.5614 95.3206 73.8191 95.4772 74.0799C95.3006 73.8259 95.1269 73.5692 94.9562 73.3099C94.9782 73.3091 94.9996 73.3076 95.0219 73.3076ZM94.0893 71.6591C94.2279 71.9087 94.3739 72.1703 94.5286 72.4453C94.4879 72.4476 94.4493 72.4529 94.4089 72.456C94.2468 72.1944 94.0876 71.9304 93.9313 71.6641C93.9846 71.6626 94.0356 71.6599 94.0893 71.6591ZM91.0476 73.4399C90.817 73.1233 90.5822 72.8109 90.3433 72.5026C91.0633 72.1429 92.0639 71.8014 93.3623 71.6933C93.5243 71.9756 93.6866 72.2506 93.8486 72.5168C92.6669 72.686 91.7316 73.0633 91.0476 73.4399ZM92.9263 69.6556C93.0443 69.7956 93.3113 70.261 93.6103 70.7956C93.5543 70.7987 93.4979 70.8014 93.4429 70.8053C93.2353 70.4286 93.034 70.0473 92.8389 69.6618C92.8686 69.6606 92.8956 69.6564 92.9263 69.6556ZM91.2249 68.6399C91.6016 68.6399 91.8526 68.7826 91.9919 69.076C92.2782 69.6799 92.5795 70.2742 92.8956 70.8579C91.5436 71.0276 90.5243 71.4406 89.808 71.8437C89.1066 71.0072 88.514 70.4299 88.035 70.1253C88.8383 69.5483 90.256 68.6399 91.2249 68.6399ZM85.2357 69.7022C85.287 69.6599 85.4453 69.5576 85.792 69.5576C86.0607 69.5576 86.4907 69.6249 87.121 69.8795C86.275 69.9895 85.807 70.7556 85.4297 71.3879C85.187 71.7933 84.959 72.176 84.7457 72.1891C84.615 71.9968 84.8483 70.821 85.2357 69.7022ZM84.2507 72.2256C84.268 72.3333 84.2973 72.4272 84.3407 72.5018C84.43 72.6537 84.5687 72.7364 84.7313 72.7364C85.216 72.7364 85.515 72.2356 85.8317 71.7049C86.2103 71.0718 86.6013 70.4172 87.3253 70.4172C87.73 70.4172 88.43 71.0156 89.357 72.1168C89.1253 72.2714 88.947 72.4126 88.8123 72.5276C88.775 72.5131 88.736 72.5053 88.6966 72.5045C88.4423 72.5045 88.2363 72.7914 88.2363 73.1453C88.2363 73.4991 88.4423 73.786 88.6966 73.786C88.9193 73.786 89.105 73.5656 89.1476 73.2726C89.379 73.0791 89.6228 72.9063 89.877 72.7556C90.1217 73.0682 90.3616 73.3857 90.5966 73.7079C90.3828 73.8451 90.1758 73.996 89.9766 74.1599C89.9371 74.1435 89.8956 74.1348 89.8536 74.1341C89.5996 74.1341 89.3936 74.4206 89.3936 74.7749C89.3936 75.1291 89.5996 75.4156 89.8536 75.4156C90.0726 75.4156 90.255 75.2018 90.3016 74.916C90.5492 74.715 90.809 74.5348 91.0789 74.3768C91.3266 74.7264 91.5833 75.096 91.8476 75.4876C91.5751 75.6951 91.3243 75.9384 91.1003 76.2126C91.0879 76.211 91.0763 76.2076 91.0636 76.2076C90.8086 76.2076 90.603 76.4945 90.603 76.8483C90.603 77.2018 90.8086 77.4891 91.0636 77.4891C91.3126 77.4891 91.5149 77.2114 91.5216 76.866C91.749 76.5886 92.0082 76.3483 92.2919 76.1518C92.4936 76.4572 92.6999 76.7729 92.9109 77.0999C92.6673 77.3023 92.4416 77.5322 92.2373 77.786C92.2269 77.7853 92.2169 77.7818 92.2066 77.7818C91.9529 77.7818 91.7466 78.0691 91.7466 78.4229C91.7466 78.7764 91.9529 79.0637 92.2066 79.0637C92.4579 79.0637 92.6606 78.7829 92.6656 78.4349C92.8702 78.188 93.0972 77.9671 93.3426 77.776C93.5984 78.1805 93.8518 78.5869 94.1029 78.9953C93.8746 79.1835 93.6578 79.3897 93.4543 79.6126C93.4329 79.6083 93.4119 79.6037 93.3903 79.6037C93.1356 79.6037 92.9299 79.891 92.9299 80.2445C92.9299 80.5983 93.1356 80.8853 93.3903 80.8853C93.6283 80.8853 93.8226 80.631 93.8453 80.3064C94.0487 80.0869 94.2658 79.885 94.4949 79.7022C94.5919 80.0191 94.6333 80.5145 94.6313 80.9922C94.2498 80.9718 93.8681 80.9604 93.4863 80.9579C92.0543 80.9579 90.6453 81.1568 89.8606 82.4537C87.7753 81.1664 86.1393 79.2591 85.0677 77.8606C85.0917 76.6129 84.8243 75.8333 84.5567 75.0876C84.3333 74.4637 84.1227 73.8729 84.1 73.006C84.145 72.7441 84.1947 72.4818 84.2507 72.2256ZM84.105 75.301C84.3093 75.8706 84.502 76.426 84.5643 77.1903C84.476 77.0699 84.3933 76.9564 84.3173 76.8518C83.9803 76.3895 83.8023 76.1495 83.6723 76.031C83.674 75.4767 83.7184 74.9236 83.805 74.3783C83.8923 74.7087 83.9997 75.0076 84.105 75.301ZM95.2422 87.5183C92.5833 87.5183 90.501 86.7453 89.528 85.3979C88.2583 83.6391 87.137 82.6156 86.1477 81.7122C85.2697 80.911 84.4407 80.1537 83.6437 79.0068C83.481 78.7583 83.4147 77.226 83.5107 76.6306C83.626 76.7772 83.7863 76.9968 83.943 77.2122C85.2413 78.9953 88.282 83.1699 92.5329 84.1918C93.1593 84.3422 94.0653 84.4249 95.0829 84.4249C97.3669 84.4249 101.244 83.9768 102.408 82.3668C102.45 82.6853 102.491 83.2564 102.491 84.2706C102.491 85.9706 99.0355 87.5183 95.2422 87.5183Z" stroke="#246B6D" stroke-width="0.5"/>
<g clip-path="url(#clip0)">
<path d="M65.1771 68.7107H66.8062C66.9807 68.7107 67.122 68.5693 67.122 68.3949C67.122 68.2205 66.9807 68.0791 66.8062 68.0791H65.1771C65.0027 68.0791 64.8613 68.2205 64.8613 68.3949C64.8613 68.5693 65.0027 68.7107 65.1771 68.7107Z" fill="#246B6D"/>
<path d="M75.383 74.5193L74.2964 70.0425C74.2856 69.9982 74.0213 68.9523 72.9823 68.5107C72.2302 68.1911 69.8516 67.2881 69.256 67.0626C69.2018 67.0186 69.1327 66.9922 69.0574 66.9922H69.0122H62.9482C62.9381 66.9922 62.9281 66.9927 62.918 66.9937C62.9137 66.9941 62.9094 66.9949 62.9051 66.9955C62.8996 66.9962 62.8941 66.997 62.8886 66.998C62.8835 66.999 62.8784 67.0003 62.8734 67.0015C62.8689 67.0026 62.8644 67.0037 62.8599 67.0049C62.8546 67.0064 62.8496 67.0082 62.8444 67.01C62.8418 67.0109 62.8391 67.0116 62.8365 67.0125C62.7138 67.0589 59.822 68.152 58.9781 68.5107C57.9791 68.9353 57.6964 69.918 57.6665 70.0324V70.0324C57.666 70.0346 57.6651 70.0379 57.6651 70.0379C57.6646 70.04 57.664 70.0424 57.664 70.0424L56.8918 73.2238L56.5773 74.5193C56.5402 74.6723 56.6213 74.8292 56.7676 74.8873L59.8719 76.1205V85.3926V86.6764C59.8719 86.8509 60.0133 86.9922 60.1877 86.9922H71.7726C71.9471 86.9922 72.0884 86.8509 72.0884 86.6764V85.3926V79.38C72.0884 79.2056 71.9471 79.0642 71.7726 79.0642C71.5981 79.0642 71.4568 79.2056 71.4568 79.38V85.0768H63.6958C63.5213 85.0768 63.38 85.2182 63.38 85.3926C63.38 85.567 63.5213 85.7084 63.6958 85.7084H71.4569V86.3606H60.5036V85.7084H62.6432C62.8176 85.7084 62.959 85.567 62.959 85.3926C62.959 85.2181 62.8176 85.0768 62.6432 85.0768H60.5036V75.9061V74.552V72.1049C60.5036 72.0473 60.4878 71.9908 60.458 71.9415L58.8654 69.3077C58.9683 69.2251 59.0874 69.1505 59.2252 69.092C59.8717 68.8172 61.8104 68.0776 62.657 67.7561C62.8601 69.6224 64.3096 71.1234 66.0029 71.1234C67.6912 71.1234 69.1372 69.6313 69.3471 67.7726C70.2148 68.1023 72.0996 68.8218 72.7353 69.092C72.8731 69.1505 72.9922 69.2251 73.0951 69.3077L71.5025 71.9414C71.4727 71.9907 71.457 72.0473 71.457 72.1048V74.5519V75.9061V78.3273C71.457 78.5018 71.5983 78.6431 71.7728 78.6431C71.9472 78.6431 72.0885 78.5018 72.0885 78.3273V76.1204L75.1928 74.8872C75.339 74.8291 75.4201 74.6722 75.383 74.5193ZM59.872 75.4409L57.2559 74.4016L57.4182 73.7328L59.872 74.7619L59.872 75.4409ZM59.872 72.1929V74.077L57.5691 73.1112L58.2775 70.1928C58.2784 70.1893 58.3214 70.0264 58.4374 69.8204L59.872 72.1929ZM66.0028 70.4918C64.7547 70.4918 63.4233 69.3525 63.2772 67.6237H68.7285C68.5824 69.3525 67.251 70.4918 66.0028 70.4918ZM72.0885 72.1929L73.5231 69.8203C73.5991 69.9552 73.6438 70.0715 73.6657 70.1364V70.1364C73.6678 70.1425 73.6697 70.1487 73.6714 70.1538L73.6724 70.1568C73.6737 70.1609 73.6748 70.1645 73.6758 70.1679L73.6771 70.1719C73.6779 70.1746 73.6786 70.1771 73.6792 70.1793L73.6801 70.1824L73.6813 70.1868L73.682 70.1891L73.6826 70.1914L74.3913 73.1112L72.0884 74.0771L72.0885 72.1929ZM72.0885 75.4409V74.7619L74.5422 73.7328L74.7045 74.4016L72.0885 75.4409Z" fill="#246B6D"/>
<path d="M71.6973 75.8359V86.7109H66.041H60.3848H60.2285L60.0723 75.8359L56.9473 74.5547L57.7285 71.0547L58.166 69.6484L58.6973 69.0859L63.041 67.2422L69.3223 67.4297L73.3223 69.0859L73.7598 69.6484L75.041 74.5547L71.6973 75.8359Z" fill="#246B6D" fill-opacity="0.5"/>
</g>
<path d="M118.55 86.3291H118.8V86.0791V80.0091V79.7831L118.575 79.7604C116.761 79.5767 115.062 79.0421 113.67 78.2224C112.277 77.4024 111.254 76.3347 110.7 75.1487C110.148 73.9659 110.08 72.7041 110.501 71.4991C110.916 70.3108 111.794 69.2116 113.057 68.3291H126.9C128.163 69.2116 129.041 70.3108 129.456 71.4991C129.877 72.7041 129.809 73.9659 129.257 75.1487C128.703 76.3347 127.68 77.4024 126.287 78.2224C124.895 79.0421 123.196 79.5767 121.382 79.7604L121.157 79.7831V80.0091V86.0791V86.3291H121.407H124.265C124.601 86.3291 124.912 86.4232 125.132 86.5768C125.35 86.7299 125.443 86.9148 125.443 87.0791C125.443 87.2434 125.35 87.4283 125.132 87.5814C124.912 87.7351 124.601 87.8291 124.265 87.8291H115.692C115.356 87.8291 115.045 87.7351 114.825 87.5814C114.607 87.4283 114.514 87.2434 114.514 87.0791C114.514 86.9148 114.607 86.7299 114.825 86.5768C115.045 86.4232 115.356 86.3291 115.692 86.3291H118.55ZM112.592 73.0213L112.519 73.3291H112.835H127.122H127.438L127.365 73.0213C127.021 71.5753 126.531 70.5167 125.864 69.896L125.792 69.8291H125.693H114.264H114.165L114.093 69.896C113.426 70.5167 112.936 71.5753 112.592 73.0213Z" fill="#246B6D" fill-opacity="0.7" stroke="#246B6D" stroke-width="0.5"/>
<mask id="path-25-inside-1" fill="white">
<path d="M155.333 74.1518L155.676 73.5858C155.676 73.5858 155.978 73.0851 155.978 72.4128C155.978 70.7841 154.424 70.8271 154.424 70.8271L151.038 69.9054L149.191 68.0791L146.761 68.7408L145.964 68.5238L145.358 69.1228L141.859 70.0754C141.859 70.0754 140.513 70.0384 140.513 71.4498C140.513 72.0325 140.775 72.4665 140.775 72.4665L141.225 73.2098L140.829 73.6005L138.876 74.1325C138.876 74.1325 137.322 74.0895 137.322 75.7182C137.325 76.0976 137.414 76.4715 137.582 76.8118L136.979 77.4082L137.295 77.5335C137.302 77.5505 137.305 77.5695 137.318 77.5832C137.93 78.1962 137.88 79.0195 137.792 79.4642L137.423 79.8345L140.223 81.1809L144.069 87.5292C144.685 88.4979 145.994 87.8919 145.994 87.8919L155.877 83.1399L155.507 82.7695C155.42 82.3249 155.369 81.5015 155.981 80.8882C155.995 80.8745 155.997 80.8555 156.004 80.8389L156.321 80.7132L154.483 78.8965L156.593 77.8822L156.273 77.5612C156.197 77.1758 156.153 76.4622 156.684 75.9308C156.695 75.9188 156.697 75.9028 156.704 75.8878L156.979 75.7788L155.333 74.1518ZM153.438 71.2068L153.021 71.8661L151.943 70.8001L153.438 71.2068ZM149.371 69.7938L150.918 71.4481L145.322 73.4705L144 71.4185L149.371 69.7938ZM141.56 73.7631L145.379 80.0669L138.103 77.1808L141.56 73.7631ZM139.968 74.4521L139.52 74.8955L139.341 74.6205L139.968 74.4521ZM138.553 74.7968L138.97 75.4392L138.066 76.3332C137.994 76.1358 137.957 75.9279 137.955 75.7182C137.955 75.1095 138.257 74.8778 138.553 74.7968ZM138.03 79.7545L138.035 79.7352L146.417 83.4042L138.101 79.4395C138.108 79.3945 138.114 79.3448 138.121 79.2948L144.632 82.0215L138.143 78.9828C138.145 78.844 138.135 78.7052 138.115 78.5678L144.141 81.0495L138.034 78.2125C137.994 78.0812 137.942 77.9542 137.877 77.8335L146.171 81.3752L146.36 81.6865C146.749 82.2979 147.455 82.1849 147.81 82.0789C148.302 82.3215 149.183 82.8829 148.958 83.7099C148.839 84.1472 148.577 84.3592 148.158 84.3592C147.734 84.3592 147.31 84.1372 147.306 84.1342L138.03 79.7545ZM146.379 84.1409L145.723 84.4122L145.167 83.5579L146.379 84.1409ZM143.841 85.9346L141.264 81.6815L143.825 82.9125L145.036 84.7765C144.548 84.9852 144.002 85.4616 143.841 85.9346ZM155.185 81.8732C155.164 82.0105 155.155 82.1493 155.156 82.2882L148.668 85.3269L155.179 82.6002C155.185 82.6499 155.191 82.6999 155.199 82.7449L146.882 86.7099L155.265 83.0409C155.266 83.0473 155.268 83.0537 155.27 83.0602L145.994 87.4392C145.99 87.4422 145.567 87.6642 145.142 87.6642C144.722 87.6642 144.461 87.4519 144.342 87.0149C144.036 85.8926 145.776 85.2562 145.802 85.2466L147.327 84.5959C147.491 84.6655 148.658 85.1239 149.231 84.2242L149.592 83.6289L155.423 81.1389C155.358 81.2596 155.305 81.3866 155.266 81.5179L149.159 84.3549L155.185 81.8732ZM155.196 80.4862L150.255 82.5342L151.626 80.2705L153.882 79.1862L155.196 80.4862ZM155.994 76.7838C155.976 76.9029 155.968 77.0231 155.969 77.1435L150.346 79.7768L155.989 77.4138C155.995 77.4568 155.999 77.5005 156.006 77.5392L148.798 80.9752L156.063 77.7955C156.065 77.801 156.066 77.8065 156.067 77.8122L148.028 81.6079C148.025 81.6102 147.658 81.8029 147.29 81.8029C146.926 81.8029 146.7 81.6185 146.597 81.2399C146.331 80.2672 147.839 79.7158 147.862 79.7075L156.2 76.1475C156.144 76.2522 156.098 76.3623 156.064 76.4762L150.771 78.9348L155.994 76.7838Z"/>
</mask>
<path d="M155.333 74.1518L155.676 73.5858C155.676 73.5858 155.978 73.0851 155.978 72.4128C155.978 70.7841 154.424 70.8271 154.424 70.8271L151.038 69.9054L149.191 68.0791L146.761 68.7408L145.964 68.5238L145.358 69.1228L141.859 70.0754C141.859 70.0754 140.513 70.0384 140.513 71.4498C140.513 72.0325 140.775 72.4665 140.775 72.4665L141.225 73.2098L140.829 73.6005L138.876 74.1325C138.876 74.1325 137.322 74.0895 137.322 75.7182C137.325 76.0976 137.414 76.4715 137.582 76.8118L136.979 77.4082L137.295 77.5335C137.302 77.5505 137.305 77.5695 137.318 77.5832C137.93 78.1962 137.88 79.0195 137.792 79.4642L137.423 79.8345L140.223 81.1809L144.069 87.5292C144.685 88.4979 145.994 87.8919 145.994 87.8919L155.877 83.1399L155.507 82.7695C155.42 82.3249 155.369 81.5015 155.981 80.8882C155.995 80.8745 155.997 80.8555 156.004 80.8389L156.321 80.7132L154.483 78.8965L156.593 77.8822L156.273 77.5612C156.197 77.1758 156.153 76.4622 156.684 75.9308C156.695 75.9188 156.697 75.9028 156.704 75.8878L156.979 75.7788L155.333 74.1518ZM153.438 71.2068L153.021 71.8661L151.943 70.8001L153.438 71.2068ZM149.371 69.7938L150.918 71.4481L145.322 73.4705L144 71.4185L149.371 69.7938ZM141.56 73.7631L145.379 80.0669L138.103 77.1808L141.56 73.7631ZM139.968 74.4521L139.52 74.8955L139.341 74.6205L139.968 74.4521ZM138.553 74.7968L138.97 75.4392L138.066 76.3332C137.994 76.1358 137.957 75.9279 137.955 75.7182C137.955 75.1095 138.257 74.8778 138.553 74.7968ZM138.03 79.7545L138.035 79.7352L146.417 83.4042L138.101 79.4395C138.108 79.3945 138.114 79.3448 138.121 79.2948L144.632 82.0215L138.143 78.9828C138.145 78.844 138.135 78.7052 138.115 78.5678L144.141 81.0495L138.034 78.2125C137.994 78.0812 137.942 77.9542 137.877 77.8335L146.171 81.3752L146.36 81.6865C146.749 82.2979 147.455 82.1849 147.81 82.0789C148.302 82.3215 149.183 82.8829 148.958 83.7099C148.839 84.1472 148.577 84.3592 148.158 84.3592C147.734 84.3592 147.31 84.1372 147.306 84.1342L138.03 79.7545ZM146.379 84.1409L145.723 84.4122L145.167 83.5579L146.379 84.1409ZM143.841 85.9346L141.264 81.6815L143.825 82.9125L145.036 84.7765C144.548 84.9852 144.002 85.4616 143.841 85.9346ZM155.185 81.8732C155.164 82.0105 155.155 82.1493 155.156 82.2882L148.668 85.3269L155.179 82.6002C155.185 82.6499 155.191 82.6999 155.199 82.7449L146.882 86.7099L155.265 83.0409C155.266 83.0473 155.268 83.0537 155.27 83.0602L145.994 87.4392C145.99 87.4422 145.567 87.6642 145.142 87.6642C144.722 87.6642 144.461 87.4519 144.342 87.0149C144.036 85.8926 145.776 85.2562 145.802 85.2466L147.327 84.5959C147.491 84.6655 148.658 85.1239 149.231 84.2242L149.592 83.6289L155.423 81.1389C155.358 81.2596 155.305 81.3866 155.266 81.5179L149.159 84.3549L155.185 81.8732ZM155.196 80.4862L150.255 82.5342L151.626 80.2705L153.882 79.1862L155.196 80.4862ZM155.994 76.7838C155.976 76.9029 155.968 77.0231 155.969 77.1435L150.346 79.7768L155.989 77.4138C155.995 77.4568 155.999 77.5005 156.006 77.5392L148.798 80.9752L156.063 77.7955C156.065 77.801 156.066 77.8065 156.067 77.8122L148.028 81.6079C148.025 81.6102 147.658 81.8029 147.29 81.8029C146.926 81.8029 146.7 81.6185 146.597 81.2399C146.331 80.2672 147.839 79.7158 147.862 79.7075L156.2 76.1475C156.144 76.2522 156.098 76.3623 156.064 76.4762L150.771 78.9348L155.994 76.7838Z" fill="#246B6D" fill-opacity="0.7" stroke="#246B6D" mask="url(#path-25-inside-1)"/>
<g filter="url(#filter3_d)">
<path d="M20.6018 68.0111H17.8778V75.0791H16.2338V68.0111H13.5098V66.5591H20.6018V68.0111ZM27.3475 75.0791H25.7395V71.5511C25.7395 71.0551 25.6475 70.6911 25.4635 70.4591C25.2795 70.2191 25.0195 70.0991 24.6835 70.0991C24.5395 70.0991 24.3875 70.1311 24.2275 70.1951C24.0675 70.2591 23.9155 70.3511 23.7715 70.4711C23.6275 70.5831 23.4955 70.7191 23.3755 70.8791C23.2555 71.0391 23.1675 71.2151 23.1115 71.4071V75.0791H21.5035V66.3191H23.1115V69.9551C23.3435 69.5471 23.6555 69.2351 24.0475 69.0191C24.4475 68.7951 24.8875 68.6831 25.3675 68.6831C25.7755 68.6831 26.1075 68.7551 26.3635 68.8991C26.6195 69.0351 26.8195 69.2191 26.9635 69.4511C27.1075 69.6831 27.2075 69.9471 27.2635 70.2431C27.3195 70.5391 27.3475 70.8431 27.3475 71.1551V75.0791ZM31.6617 75.1991C31.1577 75.1991 30.7017 75.1151 30.2937 74.9471C29.8857 74.7711 29.5377 74.5351 29.2497 74.2391C28.9617 73.9431 28.7377 73.5991 28.5777 73.2071C28.4257 72.8151 28.3497 72.4031 28.3497 71.9711C28.3497 71.5231 28.4257 71.1031 28.5777 70.7111C28.7297 70.3111 28.9497 69.9631 29.2377 69.6671C29.5257 69.3631 29.8737 69.1231 30.2817 68.9471C30.6977 68.7711 31.1617 68.6831 31.6737 68.6831C32.1857 68.6831 32.6417 68.7711 33.0417 68.9471C33.4497 69.1231 33.7937 69.3591 34.0737 69.6551C34.3617 69.9511 34.5777 70.2951 34.7217 70.6871C34.8737 71.0791 34.9497 71.4871 34.9497 71.9111C34.9497 72.0151 34.9457 72.1151 34.9377 72.2111C34.9377 72.3071 34.9297 72.3871 34.9137 72.4511H30.0537C30.0777 72.6991 30.1377 72.9191 30.2337 73.1111C30.3297 73.3031 30.4537 73.4671 30.6057 73.6031C30.7577 73.7391 30.9297 73.8431 31.1217 73.9151C31.3137 73.9871 31.5137 74.0231 31.7217 74.0231C32.0417 74.0231 32.3417 73.9471 32.6217 73.7951C32.9097 73.6351 33.1057 73.4271 33.2097 73.1711L34.5897 73.5551C34.3577 74.0351 33.9857 74.4311 33.4737 74.7431C32.9697 75.0471 32.3657 75.1991 31.6617 75.1991ZM33.2937 71.4071C33.2537 70.9351 33.0777 70.5591 32.7657 70.2791C32.4617 69.9911 32.0897 69.8471 31.6497 69.8471C31.4337 69.8471 31.2297 69.8871 31.0377 69.9671C30.8537 70.0391 30.6897 70.1431 30.5457 70.2791C30.4017 70.4151 30.2817 70.5791 30.1857 70.7711C30.0977 70.9631 30.0457 71.1751 30.0297 71.4071H33.2937ZM35.8972 76.3031C36.0332 76.3431 36.1652 76.3711 36.2932 76.3871C36.4212 76.4111 36.5292 76.4231 36.6172 76.4231C36.7212 76.4231 36.8172 76.4031 36.9052 76.3631C36.9932 76.3231 37.0732 76.2511 37.1452 76.1471C37.2172 76.0511 37.2892 75.9151 37.3612 75.7391C37.4332 75.5631 37.5092 75.3431 37.5892 75.0791L35.1052 68.7911H36.7612L38.4652 73.6871L39.9772 68.7911H41.4892L38.8492 76.3271C38.6972 76.7671 38.4372 77.1271 38.0692 77.4071C37.7012 77.6871 37.2452 77.8271 36.7012 77.8271C36.5732 77.8271 36.4412 77.8151 36.3052 77.7911C36.1772 77.7751 36.0412 77.7431 35.8972 77.6951V76.3031ZM19.9178 88.0791H18.3098V84.5511C18.3098 84.0471 18.2218 83.6791 18.0458 83.4471C17.8698 83.2151 17.6258 83.0991 17.3138 83.0991C17.1538 83.0991 16.9898 83.1311 16.8218 83.1951C16.6538 83.2591 16.4938 83.3511 16.3418 83.4711C16.1978 83.5831 16.0658 83.7191 15.9458 83.8791C15.8258 84.0391 15.7378 84.2151 15.6818 84.4071V88.0791H14.0738V81.7911H15.5258V82.9551C15.7578 82.5551 16.0938 82.2431 16.5338 82.0191C16.9738 81.7951 17.4698 81.6831 18.0218 81.6831C18.4138 81.6831 18.7338 81.7551 18.9818 81.8991C19.2298 82.0431 19.4218 82.2311 19.5578 82.4631C19.6938 82.6951 19.7858 82.9591 19.8338 83.2551C19.8898 83.5511 19.9178 83.8511 19.9178 84.1551V88.0791ZM24.232 88.1991C23.728 88.1991 23.272 88.1151 22.864 87.9471C22.456 87.7711 22.108 87.5351 21.82 87.2391C21.532 86.9431 21.308 86.5991 21.148 86.2071C20.996 85.8151 20.92 85.4031 20.92 84.9711C20.92 84.5231 20.996 84.1031 21.148 83.7111C21.3 83.3111 21.52 82.9631 21.808 82.6671C22.096 82.3631 22.444 82.1231 22.852 81.9471C23.268 81.7711 23.732 81.6831 24.244 81.6831C24.756 81.6831 25.212 81.7711 25.612 81.9471C26.02 82.1231 26.364 82.3591 26.644 82.6551C26.932 82.9511 27.148 83.2951 27.292 83.6871C27.444 84.0791 27.52 84.4871 27.52 84.9111C27.52 85.0151 27.516 85.1151 27.508 85.2111C27.508 85.3071 27.5 85.3871 27.484 85.4511H22.624C22.648 85.6991 22.708 85.9191 22.804 86.1111C22.9 86.3031 23.024 86.4671 23.176 86.6031C23.328 86.7391 23.5 86.8431 23.692 86.9151C23.884 86.9871 24.084 87.0231 24.292 87.0231C24.612 87.0231 24.912 86.9471 25.192 86.7951C25.48 86.6351 25.676 86.4271 25.78 86.1711L27.16 86.5551C26.928 87.0351 26.556 87.4311 26.044 87.7431C25.54 88.0471 24.936 88.1991 24.232 88.1991ZM25.864 84.4071C25.824 83.9351 25.648 83.5591 25.336 83.2791C25.032 82.9911 24.66 82.8471 24.22 82.8471C24.004 82.8471 23.8 82.8871 23.608 82.9671C23.424 83.0391 23.26 83.1431 23.116 83.2791C22.972 83.4151 22.852 83.5791 22.756 83.7711C22.668 83.9631 22.616 84.1751 22.6 84.4071H25.864ZM31.4156 88.1991C30.9116 88.1991 30.4556 88.1151 30.0476 87.9471C29.6396 87.7711 29.2916 87.5351 29.0036 87.2391C28.7156 86.9431 28.4916 86.5991 28.3316 86.2071C28.1796 85.8151 28.1036 85.4031 28.1036 84.9711C28.1036 84.5231 28.1796 84.1031 28.3316 83.7111C28.4836 83.3111 28.7036 82.9631 28.9916 82.6671C29.2796 82.3631 29.6276 82.1231 30.0356 81.9471C30.4516 81.7711 30.9156 81.6831 31.4276 81.6831C31.9396 81.6831 32.3956 81.7711 32.7956 81.9471C33.2036 82.1231 33.5476 82.3591 33.8276 82.6551C34.1156 82.9511 34.3316 83.2951 34.4756 83.6871C34.6276 84.0791 34.7036 84.4871 34.7036 84.9111C34.7036 85.0151 34.6996 85.1151 34.6916 85.2111C34.6916 85.3071 34.6836 85.3871 34.6676 85.4511H29.8076C29.8316 85.6991 29.8916 85.9191 29.9876 86.1111C30.0836 86.3031 30.2076 86.4671 30.3596 86.6031C30.5116 86.7391 30.6836 86.8431 30.8756 86.9151C31.0676 86.9871 31.2676 87.0231 31.4756 87.0231C31.7956 87.0231 32.0956 86.9471 32.3756 86.7951C32.6636 86.6351 32.8596 86.4271 32.9636 86.1711L34.3436 86.5551C34.1116 87.0351 33.7396 87.4311 33.2276 87.7431C32.7236 88.0471 32.1196 88.1991 31.4156 88.1991ZM33.0476 84.4071C33.0076 83.9351 32.8316 83.5591 32.5196 83.2791C32.2156 82.9911 31.8436 82.8471 31.4036 82.8471C31.1876 82.8471 30.9836 82.8871 30.7916 82.9671C30.6076 83.0391 30.4436 83.1431 30.2996 83.2791C30.1556 83.4151 30.0356 83.5791 29.9396 83.7711C29.8516 83.9631 29.7996 84.1751 29.7836 84.4071H33.0476ZM38.2872 88.1991C37.8552 88.1991 37.4552 88.1151 37.0872 87.9471C36.7192 87.7791 36.4032 87.5471 36.1392 87.2511C35.8752 86.9551 35.6672 86.6111 35.5152 86.2191C35.3712 85.8191 35.2992 85.3911 35.2992 84.9351C35.2992 84.4791 35.3672 84.0551 35.5032 83.6631C35.6472 83.2711 35.8432 82.9271 36.0912 82.6311C36.3392 82.3351 36.6352 82.1031 36.9792 81.9351C37.3232 81.7671 37.6992 81.6831 38.1072 81.6831C38.5712 81.6831 38.9872 81.7951 39.3552 82.0191C39.7312 82.2431 40.0232 82.5351 40.2312 82.8951V79.3191H41.8392V86.2311C41.8392 86.3991 41.8672 86.5191 41.9232 86.5911C41.9792 86.6631 42.0752 86.7031 42.2112 86.7111V88.0791C41.9312 88.1351 41.7032 88.1631 41.5272 88.1631C41.2392 88.1631 41.0032 88.0911 40.8192 87.9471C40.6352 87.8031 40.5312 87.6151 40.5072 87.3831L40.4712 86.9871C40.2392 87.3871 39.9232 87.6911 39.5232 87.8991C39.1312 88.0991 38.7192 88.1991 38.2872 88.1991ZM38.7072 86.8311C38.8592 86.8311 39.0152 86.8071 39.1752 86.7591C39.3352 86.7031 39.4832 86.6271 39.6192 86.5311C39.7552 86.4351 39.8752 86.3231 39.9792 86.1951C40.0912 86.0671 40.1752 85.9271 40.2312 85.7751V84.2751C40.1672 84.0991 40.0752 83.9391 39.9552 83.7951C39.8432 83.6431 39.7112 83.5151 39.5592 83.4111C39.4152 83.2991 39.2592 83.2111 39.0912 83.1471C38.9312 83.0831 38.7712 83.0511 38.6112 83.0511C38.3712 83.0511 38.1472 83.1031 37.9392 83.2071C37.7392 83.3111 37.5672 83.4551 37.4232 83.6391C37.2792 83.8151 37.1672 84.0191 37.0872 84.2511C37.0072 84.4831 36.9672 84.7231 36.9672 84.9711C36.9672 85.2351 37.0112 85.4791 37.0992 85.7031C37.1872 85.9271 37.3072 86.1231 37.4592 86.2911C37.6112 86.4591 37.7912 86.5911 37.9992 86.6871C38.2152 86.7831 38.4512 86.8311 38.7072 86.8311ZM43.5135 83.5911V81.8631H44.8215V83.5911H43.5135ZM43.5135 88.0791V86.3511H44.8215V88.0791H43.5135Z" fill="#246B6D"/>
</g>
<line x1="220.25" y1="8.52637" x2="220.25" y2="89.166" stroke="#DADADA" stroke-width="0.5"/>
<line x1="220" y1="60.25" x2="10.9434" y2="60.25" stroke="#DADADA" stroke-width="0.5"/>
<g filter="url(#filter4_d)">
<path d="M268.014 19.8574C268.014 19.6174 268.032 19.3924 268.068 19.1824C268.11 18.9724 268.185 18.7714 268.293 18.5794C268.401 18.3874 268.548 18.2044 268.734 18.0304C268.926 17.8564 269.175 17.6824 269.481 17.5084C269.661 17.4124 269.844 17.3194 270.03 17.2294C270.216 17.1334 270.384 17.0344 270.534 16.9324C270.69 16.8244 270.816 16.7104 270.912 16.5904C271.014 16.4704 271.065 16.3294 271.065 16.1674C271.065 16.0654 271.041 15.9634 270.993 15.8614C270.945 15.7594 270.876 15.6694 270.786 15.5914C270.696 15.5134 270.582 15.4504 270.444 15.4024C270.312 15.3544 270.159 15.3304 269.985 15.3304C269.805 15.3304 269.64 15.3574 269.49 15.4114C269.346 15.4594 269.217 15.5224 269.103 15.6004C268.989 15.6724 268.89 15.7504 268.806 15.8344C268.722 15.9184 268.653 15.9934 268.599 16.0594L268.086 15.4834C268.134 15.4294 268.215 15.3574 268.329 15.2674C268.443 15.1714 268.587 15.0754 268.761 14.9794C268.935 14.8834 269.136 14.8024 269.364 14.7364C269.592 14.6644 269.847 14.6284 270.129 14.6284C270.405 14.6284 270.654 14.6674 270.876 14.7454C271.098 14.8174 271.284 14.9194 271.434 15.0514C271.59 15.1834 271.71 15.3394 271.794 15.5194C271.878 15.6934 271.92 15.8794 271.92 16.0774C271.92 16.3114 271.869 16.5154 271.767 16.6894C271.665 16.8634 271.539 17.0164 271.389 17.1484C271.245 17.2804 271.089 17.3944 270.921 17.4904C270.753 17.5804 270.603 17.6584 270.471 17.7244C270.339 17.7904 270.189 17.8714 270.021 17.9674C269.859 18.0574 269.703 18.1624 269.553 18.2824C269.403 18.3964 269.271 18.5254 269.157 18.6694C269.049 18.8134 268.98 18.9694 268.95 19.1374H272.019V19.8574H268.014ZM273.019 19.8574V18.8494H273.685V19.8574H273.019ZM274.65 19.8574C274.65 19.6174 274.668 19.3924 274.704 19.1824C274.746 18.9724 274.821 18.7714 274.929 18.5794C275.037 18.3874 275.184 18.2044 275.37 18.0304C275.562 17.8564 275.811 17.6824 276.117 17.5084C276.297 17.4124 276.48 17.3194 276.666 17.2294C276.852 17.1334 277.02 17.0344 277.17 16.9324C277.326 16.8244 277.452 16.7104 277.548 16.5904C277.65 16.4704 277.701 16.3294 277.701 16.1674C277.701 16.0654 277.677 15.9634 277.629 15.8614C277.581 15.7594 277.512 15.6694 277.422 15.5914C277.332 15.5134 277.218 15.4504 277.08 15.4024C276.948 15.3544 276.795 15.3304 276.621 15.3304C276.441 15.3304 276.276 15.3574 276.126 15.4114C275.982 15.4594 275.853 15.5224 275.739 15.6004C275.625 15.6724 275.526 15.7504 275.442 15.8344C275.358 15.9184 275.289 15.9934 275.235 16.0594L274.722 15.4834C274.77 15.4294 274.851 15.3574 274.965 15.2674C275.079 15.1714 275.223 15.0754 275.397 14.9794C275.571 14.8834 275.772 14.8024 276 14.7364C276.228 14.6644 276.483 14.6284 276.765 14.6284C277.041 14.6284 277.29 14.6674 277.512 14.7454C277.734 14.8174 277.92 14.9194 278.07 15.0514C278.226 15.1834 278.346 15.3394 278.43 15.5194C278.514 15.6934 278.556 15.8794 278.556 16.0774C278.556 16.3114 278.505 16.5154 278.403 16.6894C278.301 16.8634 278.175 17.0164 278.025 17.1484C277.881 17.2804 277.725 17.3944 277.557 17.4904C277.389 17.5804 277.239 17.6584 277.107 17.7244C276.975 17.7904 276.825 17.8714 276.657 17.9674C276.495 18.0574 276.339 18.1624 276.189 18.2824C276.039 18.3964 275.907 18.5254 275.793 18.6694C275.685 18.8134 275.616 18.9694 275.586 19.1374H278.655V19.8574H274.65ZM289.077 19.8574H288.285V17.2294C288.285 16.7374 288.204 16.3744 288.042 16.1404C287.886 15.9064 287.652 15.7894 287.34 15.7894C287.016 15.7894 286.725 15.9064 286.467 16.1404C286.215 16.3684 286.035 16.6654 285.927 17.0314V19.8574H285.135V17.2294C285.135 16.7254 285.057 16.3594 284.901 16.1314C284.745 15.9034 284.511 15.7894 284.199 15.7894C283.881 15.7894 283.593 15.9034 283.335 16.1314C283.077 16.3534 282.894 16.6504 282.786 17.0224V19.8574H281.994V15.1594H282.714V16.1674C282.906 15.8194 283.155 15.5524 283.461 15.3664C283.767 15.1744 284.112 15.0784 284.496 15.0784C284.892 15.0784 285.204 15.1864 285.432 15.4024C285.666 15.6124 285.81 15.8854 285.864 16.2214C286.284 15.4594 286.881 15.0784 287.655 15.0784C287.925 15.0784 288.15 15.1294 288.33 15.2314C288.516 15.3274 288.663 15.4654 288.771 15.6454C288.879 15.8194 288.957 16.0264 289.005 16.2664C289.053 16.5064 289.077 16.7674 289.077 17.0494V19.8574ZM290.309 19.8574V15.1594H291.101V19.8574H290.309ZM290.309 14.2774V13.2874H291.101V14.2774H290.309ZM292.401 13.2874H293.193V18.6424C293.193 18.8164 293.238 18.9544 293.328 19.0564C293.424 19.1524 293.556 19.2004 293.724 19.2004C293.79 19.2004 293.868 19.1914 293.958 19.1734C294.048 19.1494 294.132 19.1224 294.21 19.0924L294.336 19.7314C294.204 19.7854 294.048 19.8304 293.868 19.8664C293.688 19.9024 293.529 19.9204 293.391 19.9204C293.085 19.9204 292.842 19.8334 292.662 19.6594C292.488 19.4854 292.401 19.2424 292.401 18.9304V13.2874ZM297.037 19.9474C296.683 19.9474 296.359 19.8844 296.065 19.7584C295.771 19.6264 295.519 19.4494 295.309 19.2274C295.099 19.0054 294.934 18.7474 294.814 18.4534C294.7 18.1534 294.643 17.8384 294.643 17.5084C294.643 17.1784 294.7 16.8664 294.814 16.5724C294.934 16.2784 295.099 16.0204 295.309 15.7984C295.525 15.5764 295.78 15.4024 296.074 15.2764C296.368 15.1444 296.692 15.0784 297.046 15.0784C297.4 15.0784 297.721 15.1444 298.009 15.2764C298.303 15.4084 298.552 15.5854 298.756 15.8074C298.96 16.0234 299.116 16.2784 299.224 16.5724C299.338 16.8604 299.395 17.1604 299.395 17.4724C299.395 17.5384 299.392 17.5984 299.386 17.6524C299.386 17.7064 299.383 17.7484 299.377 17.7784H295.48C295.498 18.0124 295.552 18.2254 295.642 18.4174C295.732 18.6094 295.849 18.7744 295.993 18.9124C296.137 19.0504 296.299 19.1584 296.479 19.2364C296.665 19.3144 296.86 19.3534 297.064 19.3534C297.208 19.3534 297.349 19.3354 297.487 19.2994C297.625 19.2574 297.754 19.2034 297.874 19.1374C297.994 19.0714 298.099 18.9904 298.189 18.8944C298.285 18.7984 298.357 18.6904 298.405 18.5704L299.089 18.7594C299.011 18.9334 298.903 19.0924 298.765 19.2364C298.633 19.3804 298.477 19.5064 298.297 19.6144C298.123 19.7164 297.928 19.7974 297.712 19.8574C297.496 19.9174 297.271 19.9474 297.037 19.9474ZM298.648 17.1934C298.63 16.9714 298.573 16.7674 298.477 16.5814C298.387 16.3894 298.27 16.2274 298.126 16.0954C297.988 15.9634 297.826 15.8614 297.64 15.7894C297.454 15.7114 297.256 15.6724 297.046 15.6724C296.836 15.6724 296.638 15.7114 296.452 15.7894C296.266 15.8614 296.101 15.9664 295.957 16.1044C295.819 16.2364 295.705 16.3954 295.615 16.5814C295.531 16.7674 295.48 16.9714 295.462 17.1934H298.648ZM301.923 19.9474C301.545 19.9474 301.173 19.8904 300.807 19.7764C300.441 19.6564 300.126 19.4854 299.862 19.2634L300.204 18.7324C300.48 18.9424 300.756 19.1014 301.032 19.2094C301.308 19.3114 301.599 19.3624 301.905 19.3624C302.247 19.3624 302.517 19.2964 302.715 19.1644C302.919 19.0264 303.021 18.8344 303.021 18.5884C303.021 18.4744 302.994 18.3784 302.94 18.3004C302.886 18.2164 302.805 18.1444 302.697 18.0844C302.589 18.0244 302.451 17.9704 302.283 17.9224C302.115 17.8744 301.92 17.8234 301.698 17.7694C301.416 17.6974 301.173 17.6284 300.969 17.5624C300.765 17.4964 300.597 17.4184 300.465 17.3284C300.333 17.2384 300.237 17.1304 300.177 17.0044C300.117 16.8784 300.087 16.7224 300.087 16.5364C300.087 16.3024 300.132 16.0954 300.222 15.9154C300.318 15.7294 300.447 15.5764 300.609 15.4564C300.771 15.3304 300.96 15.2374 301.176 15.1774C301.398 15.1114 301.635 15.0784 301.887 15.0784C302.241 15.0784 302.571 15.1354 302.877 15.2494C303.183 15.3634 303.441 15.5134 303.651 15.6994L303.291 16.1764C303.093 16.0024 302.871 15.8734 302.625 15.7894C302.379 15.6994 302.127 15.6544 301.869 15.6544C301.581 15.6544 301.335 15.7174 301.131 15.8434C300.933 15.9634 300.834 16.1584 300.834 16.4284C300.834 16.5364 300.852 16.6264 300.888 16.6984C300.93 16.7704 300.996 16.8334 301.086 16.8874C301.176 16.9414 301.29 16.9894 301.428 17.0314C301.572 17.0734 301.743 17.1184 301.941 17.1664C302.253 17.2384 302.523 17.3134 302.751 17.3914C302.985 17.4634 303.177 17.5504 303.327 17.6524C303.483 17.7544 303.597 17.8744 303.669 18.0124C303.747 18.1504 303.786 18.3184 303.786 18.5164C303.786 18.9544 303.618 19.3024 303.282 19.5604C302.946 19.8184 302.493 19.9474 301.923 19.9474ZM268.392 30.8574V24.4674H271.056C271.338 24.4674 271.596 24.5274 271.83 24.6474C272.07 24.7614 272.274 24.9174 272.442 25.1154C272.616 25.3074 272.751 25.5264 272.847 25.7724C272.943 26.0124 272.991 26.2584 272.991 26.5104C272.991 26.7744 272.946 27.0294 272.856 27.2754C272.766 27.5214 272.637 27.7404 272.469 27.9324C272.307 28.1244 272.109 28.2774 271.875 28.3914C271.647 28.5054 271.392 28.5624 271.11 28.5624H269.202V30.8574H268.392ZM269.202 27.8424H271.065C271.233 27.8424 271.383 27.8094 271.515 27.7434C271.653 27.6714 271.77 27.5754 271.866 27.4554C271.962 27.3294 272.037 27.1854 272.091 27.0234C272.145 26.8614 272.172 26.6904 272.172 26.5104C272.172 26.3244 272.139 26.1504 272.073 25.9884C272.013 25.8264 271.929 25.6854 271.821 25.5654C271.719 25.4454 271.596 25.3524 271.452 25.2864C271.314 25.2204 271.167 25.1874 271.011 25.1874H269.202V27.8424ZM275.027 30.9474C274.805 30.9474 274.598 30.9114 274.406 30.8394C274.214 30.7614 274.046 30.6564 273.902 30.5244C273.764 30.3924 273.653 30.2394 273.569 30.0654C273.491 29.8854 273.452 29.6904 273.452 29.4804C273.452 29.2644 273.5 29.0694 273.596 28.8954C273.692 28.7154 273.827 28.5624 274.001 28.4364C274.181 28.3104 274.391 28.2114 274.631 28.1394C274.877 28.0674 275.144 28.0314 275.432 28.0314C275.66 28.0314 275.891 28.0524 276.125 28.0944C276.359 28.1364 276.566 28.1934 276.746 28.2654V27.8874C276.746 27.5034 276.638 27.2034 276.422 26.9874C276.206 26.7654 275.9 26.6544 275.504 26.6544C275.03 26.6544 274.532 26.8374 274.01 27.2034L273.749 26.6904C274.355 26.2824 274.964 26.0784 275.576 26.0784C276.194 26.0784 276.674 26.2434 277.016 26.5734C277.364 26.9034 277.538 27.3684 277.538 27.9684V29.8854C277.538 30.0714 277.622 30.1674 277.79 30.1734V30.8574C277.706 30.8694 277.637 30.8784 277.583 30.8844C277.529 30.8904 277.472 30.8934 277.412 30.8934C277.256 30.8934 277.13 30.8484 277.034 30.7584C276.944 30.6624 276.89 30.5484 276.872 30.4164L276.854 30.0834C276.644 30.3654 276.377 30.5814 276.053 30.7314C275.735 30.8754 275.393 30.9474 275.027 30.9474ZM275.234 30.3534C275.516 30.3534 275.777 30.3024 276.017 30.2004C276.263 30.0924 276.449 29.9514 276.575 29.7774C276.689 29.6634 276.746 29.5464 276.746 29.4264V28.7334C276.362 28.5834 275.963 28.5084 275.549 28.5084C275.153 28.5084 274.829 28.5924 274.577 28.7604C274.331 28.9284 274.208 29.1474 274.208 29.4174C274.208 29.5494 274.232 29.6724 274.28 29.7864C274.334 29.9004 274.406 29.9994 274.496 30.0834C274.592 30.1674 274.703 30.2334 274.829 30.2814C274.955 30.3294 275.09 30.3534 275.234 30.3534ZM281.288 26.8524C280.892 26.8644 280.541 26.9664 280.235 27.1584C279.935 27.3504 279.722 27.6174 279.596 27.9594V30.8574H278.804V26.1594H279.542V27.2484C279.704 26.9244 279.917 26.6634 280.181 26.4654C280.445 26.2614 280.727 26.1474 281.027 26.1234C281.087 26.1234 281.138 26.1234 281.18 26.1234C281.222 26.1234 281.258 26.1264 281.288 26.1324V26.8524ZM285.386 30.8574L283.766 28.5624L282.866 29.4084V30.8574H282.074V24.2874H282.866V28.6074L285.278 26.1684H286.151L284.279 28.1124L286.241 30.8574H285.386ZM293.081 25.8084C293.009 25.7244 292.913 25.6434 292.793 25.5654C292.673 25.4874 292.538 25.4184 292.388 25.3584C292.238 25.2924 292.073 25.2414 291.893 25.2054C291.719 25.1634 291.536 25.1424 291.344 25.1424C290.846 25.1424 290.48 25.2354 290.246 25.4214C290.018 25.6074 289.904 25.8624 289.904 26.1864C289.904 26.3604 289.937 26.5044 290.003 26.6184C290.069 26.7324 290.171 26.8314 290.309 26.9154C290.453 26.9934 290.63 27.0624 290.84 27.1224C291.05 27.1824 291.299 27.2454 291.587 27.3114C291.917 27.3834 292.214 27.4674 292.478 27.5634C292.748 27.6534 292.976 27.7674 293.162 27.9054C293.354 28.0434 293.498 28.2114 293.594 28.4094C293.696 28.6074 293.747 28.8504 293.747 29.1384C293.747 29.4444 293.687 29.7114 293.567 29.9394C293.447 30.1614 293.282 30.3474 293.072 30.4974C292.868 30.6414 292.625 30.7494 292.343 30.8214C292.061 30.8874 291.755 30.9204 291.425 30.9204C290.933 30.9204 290.465 30.8454 290.021 30.6954C289.583 30.5394 289.184 30.3144 288.824 30.0204L289.211 29.3364C289.307 29.4384 289.43 29.5404 289.58 29.6424C289.736 29.7444 289.91 29.8374 290.102 29.9214C290.3 29.9994 290.51 30.0654 290.732 30.1194C290.96 30.1674 291.197 30.1914 291.443 30.1914C291.899 30.1914 292.253 30.1104 292.505 29.9484C292.757 29.7864 292.883 29.5434 292.883 29.2194C292.883 29.0394 292.841 28.8894 292.757 28.7694C292.679 28.6434 292.562 28.5354 292.406 28.4454C292.25 28.3554 292.055 28.2774 291.821 28.2114C291.593 28.1394 291.332 28.0674 291.038 27.9954C290.714 27.9174 290.429 27.8334 290.183 27.7434C289.937 27.6534 289.73 27.5454 289.562 27.4194C289.4 27.2934 289.277 27.1404 289.193 26.9604C289.109 26.7804 289.067 26.5644 289.067 26.3124C289.067 26.0064 289.124 25.7364 289.238 25.5024C289.352 25.2684 289.511 25.0704 289.715 24.9084C289.919 24.7464 290.162 24.6264 290.444 24.5484C290.726 24.4644 291.032 24.4224 291.362 24.4224C291.794 24.4224 292.184 24.4884 292.532 24.6204C292.88 24.7524 293.189 24.9294 293.459 25.1514L293.081 25.8084ZM294.704 24.2874H295.496V29.6424C295.496 29.8164 295.541 29.9544 295.631 30.0564C295.727 30.1524 295.859 30.2004 296.027 30.2004C296.093 30.2004 296.171 30.1914 296.261 30.1734C296.351 30.1494 296.435 30.1224 296.513 30.0924L296.639 30.7314C296.507 30.7854 296.351 30.8304 296.171 30.8664C295.991 30.9024 295.832 30.9204 295.694 30.9204C295.388 30.9204 295.145 30.8334 294.965 30.6594C294.791 30.4854 294.704 30.2424 294.704 29.9304V24.2874ZM299.313 30.9474C298.959 30.9474 298.635 30.8814 298.341 30.7494C298.053 30.6174 297.804 30.4404 297.594 30.2184C297.39 29.9964 297.231 29.7384 297.117 29.4444C297.003 29.1504 296.946 28.8414 296.946 28.5174C296.946 28.1874 297.003 27.8754 297.117 27.5814C297.237 27.2874 297.399 27.0294 297.603 26.8074C297.813 26.5854 298.062 26.4084 298.35 26.2764C298.644 26.1444 298.965 26.0784 299.313 26.0784C299.661 26.0784 299.982 26.1444 300.276 26.2764C300.57 26.4084 300.819 26.5854 301.023 26.8074C301.233 27.0294 301.395 27.2874 301.509 27.5814C301.629 27.8754 301.689 28.1874 301.689 28.5174C301.689 28.8414 301.632 29.1504 301.518 29.4444C301.404 29.7384 301.242 29.9964 301.032 30.2184C300.822 30.4404 300.57 30.6174 300.276 30.7494C299.988 30.8814 299.667 30.9474 299.313 30.9474ZM297.756 28.5264C297.756 28.7724 297.795 29.0004 297.873 29.2104C297.957 29.4204 298.068 29.6034 298.206 29.7594C298.35 29.9154 298.515 30.0384 298.701 30.1284C298.893 30.2184 299.097 30.2634 299.313 30.2634C299.529 30.2634 299.73 30.2184 299.916 30.1284C300.108 30.0384 300.276 29.9154 300.42 29.7594C300.564 29.5974 300.675 29.4114 300.753 29.2014C300.837 28.9854 300.879 28.7544 300.879 28.5084C300.879 28.2684 300.837 28.0434 300.753 27.8334C300.675 27.6174 300.564 27.4314 300.42 27.2754C300.276 27.1134 300.108 26.9874 299.916 26.8974C299.73 26.8074 299.529 26.7624 299.313 26.7624C299.097 26.7624 298.893 26.8104 298.701 26.9064C298.515 26.9964 298.35 27.1224 298.206 27.2844C298.068 27.4404 297.957 27.6264 297.873 27.8424C297.795 28.0524 297.756 28.2804 297.756 28.5264ZM305.178 30.9474C304.788 30.9474 304.443 30.8514 304.143 30.6594C303.849 30.4674 303.615 30.2244 303.441 29.9304V32.7744H302.649V26.1594H303.351V27.0414C303.537 26.7534 303.777 26.5224 304.071 26.3484C304.371 26.1684 304.701 26.0784 305.061 26.0784C305.385 26.0784 305.682 26.1444 305.952 26.2764C306.222 26.4084 306.456 26.5884 306.654 26.8164C306.852 27.0384 307.005 27.2964 307.113 27.5904C307.227 27.8844 307.284 28.1904 307.284 28.5084C307.284 28.8444 307.233 29.1624 307.131 29.4624C307.029 29.7564 306.885 30.0144 306.699 30.2364C306.513 30.4524 306.291 30.6264 306.033 30.7584C305.775 30.8844 305.49 30.9474 305.178 30.9474ZM304.935 30.2634C305.169 30.2634 305.379 30.2154 305.565 30.1194C305.757 30.0174 305.919 29.8854 306.051 29.7234C306.189 29.5554 306.294 29.3664 306.366 29.1564C306.438 28.9464 306.474 28.7304 306.474 28.5084C306.474 28.2744 306.432 28.0524 306.348 27.8424C306.264 27.6264 306.15 27.4404 306.006 27.2844C305.862 27.1224 305.691 26.9964 305.493 26.9064C305.301 26.8104 305.091 26.7624 304.863 26.7624C304.719 26.7624 304.569 26.7924 304.413 26.8524C304.263 26.9064 304.119 26.9814 303.981 27.0774C303.849 27.1674 303.732 27.2784 303.63 27.4104C303.534 27.5364 303.471 27.6714 303.441 27.8154V29.1564C303.507 29.3124 303.591 29.4594 303.693 29.5974C303.795 29.7294 303.912 29.8464 304.044 29.9484C304.176 30.0444 304.317 30.1224 304.467 30.1824C304.617 30.2364 304.773 30.2634 304.935 30.2634ZM310.335 30.9474C309.981 30.9474 309.657 30.8844 309.363 30.7584C309.069 30.6264 308.817 30.4494 308.607 30.2274C308.397 30.0054 308.232 29.7474 308.112 29.4534C307.998 29.1534 307.941 28.8384 307.941 28.5084C307.941 28.1784 307.998 27.8664 308.112 27.5724C308.232 27.2784 308.397 27.0204 308.607 26.7984C308.823 26.5764 309.078 26.4024 309.372 26.2764C309.666 26.1444 309.99 26.0784 310.344 26.0784C310.698 26.0784 311.019 26.1444 311.307 26.2764C311.601 26.4084 311.85 26.5854 312.054 26.8074C312.258 27.0234 312.414 27.2784 312.522 27.5724C312.636 27.8604 312.693 28.1604 312.693 28.4724C312.693 28.5384 312.69 28.5984 312.684 28.6524C312.684 28.7064 312.681 28.7484 312.675 28.7784H308.778C308.796 29.0124 308.85 29.2254 308.94 29.4174C309.03 29.6094 309.147 29.7744 309.291 29.9124C309.435 30.0504 309.597 30.1584 309.777 30.2364C309.963 30.3144 310.158 30.3534 310.362 30.3534C310.506 30.3534 310.647 30.3354 310.785 30.2994C310.923 30.2574 311.052 30.2034 311.172 30.1374C311.292 30.0714 311.397 29.9904 311.487 29.8944C311.583 29.7984 311.655 29.6904 311.703 29.5704L312.387 29.7594C312.309 29.9334 312.201 30.0924 312.063 30.2364C311.931 30.3804 311.775 30.5064 311.595 30.6144C311.421 30.7164 311.226 30.7974 311.01 30.8574C310.794 30.9174 310.569 30.9474 310.335 30.9474ZM311.946 28.1934C311.928 27.9714 311.871 27.7674 311.775 27.5814C311.685 27.3894 311.568 27.2274 311.424 27.0954C311.286 26.9634 311.124 26.8614 310.938 26.7894C310.752 26.7114 310.554 26.6724 310.344 26.6724C310.134 26.6724 309.936 26.7114 309.75 26.7894C309.564 26.8614 309.399 26.9664 309.255 27.1044C309.117 27.2364 309.003 27.3954 308.913 27.5814C308.829 27.7674 308.778 27.9714 308.76 28.1934H311.946Z" fill="#5C5C5C"/>
</g>
<path d="M257.45 12.0075L257.45 12.0091L259.638 19.0939C259.638 19.0943 259.638 19.0948 259.638 19.0952C259.71 19.3358 259.75 19.5989 259.75 19.8479V28.7979C259.75 29.7246 259.081 30.4229 258.333 30.4229C257.577 30.4229 256.917 29.7144 256.917 28.7979V28.1729V27.9229H256.667H243.333H243.083V28.1729V28.7979C243.083 29.7258 242.424 30.4229 241.667 30.4229C240.909 30.4229 240.25 29.7258 240.25 28.7979V19.8479C240.25 19.587 240.29 19.3363 240.362 19.0952L242.549 12.0108C242.55 12.0105 242.55 12.0102 242.55 12.01C242.757 11.3554 243.286 10.9229 243.889 10.9229H256.111C256.717 10.9229 257.254 11.3579 257.45 12.0075ZM241.982 18.102L241.888 18.4229H242.222H257.778H258.112L258.018 18.102L256.606 13.327L256.606 13.327L256.605 13.3236C256.423 12.7384 255.917 12.2979 255.311 12.2979H244.689C244.083 12.2979 243.577 12.7384 243.395 13.3236L243.395 13.3236L243.394 13.327L241.982 18.102ZM241.972 22.5479C241.972 23.6949 242.802 24.6729 243.889 24.6729C244.976 24.6729 245.806 23.6949 245.806 22.5479C245.806 21.4008 244.976 20.4229 243.889 20.4229C242.802 20.4229 241.972 21.4008 241.972 22.5479ZM254.194 22.5479C254.194 23.6949 255.024 24.6729 256.111 24.6729C257.198 24.6729 258.028 23.6949 258.028 22.5479C258.028 21.4008 257.198 20.4229 256.111 20.4229C255.024 20.4229 254.194 21.4008 254.194 22.5479Z" fill="#246B6D" fill-opacity="0.5" stroke="#246B6D" stroke-width="0.5"/>
<defs>
<filter id="filter0_d" x="5" y="0" width="202" height="62" filterUnits="userSpaceOnUse" color-interpolation-filters="sRGB">
<feFlood flood-opacity="0" result="BackgroundImageFix"/>
<feColorMatrix in="SourceAlpha" type="matrix" values="0 0 0 0 0 0 0 0 0 0 0 0 0 0 0 0 0 0 127 0"/>
<feOffset dy="1"/>
<feGaussianBlur stdDeviation="0.5"/>
<feColorMatrix type="matrix" values="0 0 0 0 0 0 0 0 0 0 0 0 0 0 0 0 0 0 0.25 0"/>
<feBlend mode="normal" in2="BackgroundImageFix" result="effect1_dropShadow"/>
<feBlend mode="normal" in="SourceGraphic" in2="effect1_dropShadow" result="shape"/>
</filter>
<filter id="filter1_d" x="239" y="43" width="132" height="24" filterUnits="userSpaceOnUse" color-interpolation-filters="sRGB">
<feFlood flood-opacity="0" result="BackgroundImageFix"/>
<feColorMatrix in="SourceAlpha" type="matrix" values="0 0 0 0 0 0 0 0 0 0 0 0 0 0 0 0 0 0 127 0"/>
<feOffset dy="1"/>
<feGaussianBlur stdDeviation="0.5"/>
<feColorMatrix type="matrix" values="0 0 0 0 0 0 0 0 0 0 0 0 0 0 0 0 0 0 0.25 0"/>
<feBlend mode="normal" in2="BackgroundImageFix" result="effect1_dropShadow"/>
<feBlend mode="normal" in="SourceGraphic" in2="effect1_dropShadow" result="shape"/>
</filter>
<filter id="filter2_d" x="239" y="71.3271" width="132" height="24" filterUnits="userSpaceOnUse" color-interpolation-filters="sRGB">
<feFlood flood-opacity="0" result="BackgroundImageFix"/>
<feColorMatrix in="SourceAlpha" type="matrix" values="0 0 0 0 0 0 0 0 0 0 0 0 0 0 0 0 0 0 127 0"/>
<feOffset dy="1"/>
<feGaussianBlur stdDeviation="0.5"/>
<feColorMatrix type="matrix" values="0 0 0 0 0 0 0 0 0 0 0 0 0 0 0 0 0 0 0.25 0"/>
<feBlend mode="normal" in2="BackgroundImageFix" result="effect1_dropShadow"/>
<feBlend mode="normal" in="SourceGraphic" in2="effect1_dropShadow" result="shape"/>
</filter>
<filter id="filter3_d" x="12.5098" y="66.3193" width="33.3118" height="23.88" filterUnits="userSpaceOnUse" color-interpolation-filters="sRGB">
<feFlood flood-opacity="0" result="BackgroundImageFix"/>
<feColorMatrix in="SourceAlpha" type="matrix" values="0 0 0 0 0 0 0 0 0 0 0 0 0 0 0 0 0 0 127 0"/>
<feOffset dy="1"/>
<feGaussianBlur stdDeviation="0.5"/>
<feColorMatrix type="matrix" values="0 0 0 0 0 0 0 0 0 0 0 0 0 0 0 0 0 0 0.25 0"/>
<feBlend mode="normal" in2="BackgroundImageFix" result="effect1_dropShadow"/>
<feBlend mode="normal" in="SourceGraphic" in2="effect1_dropShadow" result="shape"/>
</filter>
<filter id="filter4_d" x="267.014" y="13.2871" width="46.6792" height="21.487" filterUnits="userSpaceOnUse" color-interpolation-filters="sRGB">
<feFlood flood-opacity="0" result="BackgroundImageFix"/>
<feColorMatrix in="SourceAlpha" type="matrix" values="0 0 0 0 0 0 0 0 0 0 0 0 0 0 0 0 0 0 127 0"/>
<feOffset dy="1"/>
<feGaussianBlur stdDeviation="0.5"/>
<feColorMatrix type="matrix" values="0 0 0 0 0 0 0 0 0 0 0 0 0 0 0 0 0 0 0.25 0"/>
<feBlend mode="normal" in2="BackgroundImageFix" result="effect1_dropShadow"/>
<feBlend mode="normal" in="SourceGraphic" in2="effect1_dropShadow" result="shape"/>
</filter>
<clipPath id="clip0">
<path d="M55.9785 66.9922H75.9785V86.9922H55.9785V66.9922Z" fill="white"/>
</clipPath>
</defs>
</svg>
