<svg width="380" height="100" viewBox="0 0 380 100" fill="none" xmlns="http://www.w3.org/2000/svg">
<path d="M0 0H380V100H0V0Z" fill="white"/>
<g filter="url(#filter0_d)">
<path d="M17.9014 28.3369C17.836 28.2715 17.7147 28.1829 17.5374 28.0709C17.3694 27.9589 17.1594 27.8515 16.9074 27.7489C16.6647 27.6369 16.3987 27.5435 16.1094 27.4689C15.82 27.3942 15.526 27.3569 15.2274 27.3569C14.6954 27.3569 14.2987 27.4549 14.0374 27.6509C13.776 27.8469 13.6454 28.1222 13.6454 28.4769C13.6454 28.6822 13.692 28.8549 13.7854 28.9949C13.888 29.1255 14.0327 29.2422 14.2194 29.3449C14.406 29.4475 14.6394 29.5409 14.9194 29.6249C15.2087 29.7089 15.54 29.7975 15.9134 29.8909C16.3987 30.0215 16.8374 30.1615 17.2294 30.3109C17.6307 30.4602 17.9667 30.6469 18.2374 30.8709C18.5174 31.0949 18.732 31.3655 18.8814 31.6829C19.0307 31.9909 19.1054 32.3735 19.1054 32.8309C19.1054 33.3629 19.0027 33.8202 18.7974 34.2029C18.6014 34.5762 18.3307 34.8795 17.9854 35.1129C17.6494 35.3462 17.2574 35.5189 16.8094 35.6309C16.3707 35.7335 15.9087 35.7849 15.4234 35.7849C14.6767 35.7849 13.9394 35.6729 13.2114 35.4489C12.4834 35.2249 11.83 34.9075 11.2514 34.4969L12.1054 32.8309C12.1894 32.9149 12.3387 33.0269 12.5534 33.1669C12.7774 33.2975 13.0387 33.4329 13.3374 33.5729C13.636 33.7035 13.9674 33.8155 14.3314 33.9089C14.6954 34.0022 15.0687 34.0489 15.4514 34.0489C16.5154 34.0489 17.0474 33.7082 17.0474 33.0269C17.0474 32.8122 16.9867 32.6302 16.8654 32.4809C16.744 32.3315 16.5714 32.2009 16.3474 32.0889C16.1234 31.9769 15.8527 31.8742 15.5354 31.7809C15.218 31.6875 14.8634 31.5849 14.4714 31.4729C13.9954 31.3422 13.58 31.2022 13.2254 31.0529C12.88 30.8942 12.5907 30.7122 12.3574 30.5069C12.124 30.2922 11.9467 30.0495 11.8254 29.7789C11.7134 29.4989 11.6574 29.1675 11.6574 28.7849C11.6574 28.2809 11.7507 27.8329 11.9374 27.4409C12.124 27.0489 12.3807 26.7222 12.7074 26.4609C13.0434 26.1995 13.4307 26.0035 13.8694 25.8729C14.308 25.7329 14.7794 25.6629 15.2834 25.6629C15.9834 25.6629 16.6274 25.7749 17.2154 25.9989C17.8034 26.2135 18.3167 26.4702 18.7554 26.7689L17.9014 28.3369ZM23.7853 35.8129C23.1973 35.8129 22.6653 35.7149 22.1893 35.5189C21.7133 35.3135 21.3073 35.0382 20.9713 34.6929C20.6353 34.3475 20.374 33.9462 20.1873 33.4889C20.01 33.0315 19.9213 32.5509 19.9213 32.0469C19.9213 31.5242 20.01 31.0342 20.1873 30.5769C20.3646 30.1102 20.6213 29.7042 20.9573 29.3589C21.2933 29.0042 21.6993 28.7242 22.1753 28.5189C22.6606 28.3135 23.202 28.2109 23.7993 28.2109C24.3966 28.2109 24.9286 28.3135 25.3953 28.5189C25.8713 28.7242 26.2726 28.9995 26.5993 29.3449C26.9353 29.6902 27.1873 30.0915 27.3553 30.5489C27.5326 31.0062 27.6213 31.4822 27.6213 31.9769C27.6213 32.0982 27.6166 32.2149 27.6073 32.3269C27.6073 32.4389 27.598 32.5322 27.5793 32.6069H21.9093C21.9373 32.8962 22.0073 33.1529 22.1193 33.3769C22.2313 33.6009 22.376 33.7922 22.5533 33.9509C22.7306 34.1095 22.9313 34.2309 23.1553 34.3149C23.3793 34.3989 23.6126 34.4409 23.8553 34.4409C24.2286 34.4409 24.5786 34.3522 24.9053 34.1749C25.2413 33.9882 25.47 33.7455 25.5913 33.4469L27.2013 33.8949C26.9306 34.4549 26.4966 34.9169 25.8993 35.2809C25.3113 35.6355 24.6066 35.8129 23.7853 35.8129ZM25.6893 31.3889C25.6426 30.8382 25.4373 30.3995 25.0733 30.0729C24.7186 29.7369 24.2846 29.5689 23.7713 29.5689C23.5193 29.5689 23.2813 29.6155 23.0573 29.7089C22.8426 29.7929 22.6513 29.9142 22.4833 30.0729C22.3153 30.2315 22.1753 30.4229 22.0633 30.6469C21.9606 30.8709 21.9 31.1182 21.8813 31.3889H25.6893ZM30.7662 35.8129C30.4115 35.8129 30.0802 35.7569 29.7722 35.6449C29.4642 35.5235 29.1982 35.3602 28.9742 35.1549C28.7502 34.9402 28.5728 34.6929 28.4422 34.4129C28.3208 34.1329 28.2602 33.8249 28.2602 33.4889C28.2602 33.1435 28.3348 32.8262 28.4842 32.5369C28.6428 32.2382 28.8575 31.9862 29.1282 31.7809C29.4082 31.5755 29.7395 31.4169 30.1222 31.3049C30.5048 31.1835 30.9248 31.1229 31.3822 31.1229C31.7088 31.1229 32.0262 31.1509 32.3342 31.2069C32.6515 31.2629 32.9315 31.3422 33.1742 31.4449V31.0249C33.1742 30.5395 33.0342 30.1662 32.7542 29.9049C32.4835 29.6435 32.0775 29.5129 31.5362 29.5129C31.1442 29.5129 30.7615 29.5829 30.3882 29.7229C30.0148 29.8629 29.6322 30.0682 29.2402 30.3389L28.6662 29.1489C29.6088 28.5235 30.6262 28.2109 31.7182 28.2109C32.7728 28.2109 33.5895 28.4722 34.1682 28.9949C34.7562 29.5082 35.0502 30.2549 35.0502 31.2349V33.5169C35.0502 33.7129 35.0828 33.8529 35.1482 33.9369C35.2228 34.0209 35.3395 34.0675 35.4982 34.0769V35.6729C35.1808 35.7382 34.9055 35.7709 34.6722 35.7709C34.3175 35.7709 34.0422 35.6915 33.8462 35.5329C33.6595 35.3742 33.5428 35.1642 33.4962 34.9029L33.4542 34.4969C33.1275 34.9262 32.7308 35.2529 32.2642 35.4769C31.7975 35.7009 31.2982 35.8129 30.7662 35.8129ZM31.2982 34.4409C31.6155 34.4409 31.9142 34.3849 32.1942 34.2729C32.4835 34.1609 32.7075 34.0115 32.8662 33.8249C33.0715 33.6662 33.1742 33.4889 33.1742 33.2929V32.4529C32.9502 32.3689 32.7075 32.3035 32.4462 32.2569C32.1848 32.2009 31.9328 32.1729 31.6902 32.1729C31.2048 32.1729 30.8082 32.2849 30.5002 32.5089C30.1922 32.7235 30.0382 32.9989 30.0382 33.3349C30.0382 33.6522 30.1595 33.9182 30.4022 34.1329C30.6448 34.3382 30.9435 34.4409 31.2982 34.4409ZM43.6212 35.6729H41.7452V31.5569C41.7452 30.9689 41.6426 30.5395 41.4372 30.2689C41.2319 29.9982 40.9472 29.8629 40.5832 29.8629C40.3966 29.8629 40.2052 29.9002 40.0092 29.9749C39.8132 30.0495 39.6266 30.1569 39.4492 30.2969C39.2812 30.4275 39.1272 30.5862 38.9872 30.7729C38.8472 30.9595 38.7446 31.1649 38.6792 31.3889V35.6729H36.8032V28.3369H38.4972V29.6949C38.7679 29.2282 39.1599 28.8642 39.6732 28.6029C40.1866 28.3415 40.7652 28.2109 41.4092 28.2109C41.8666 28.2109 42.2399 28.2949 42.5292 28.4629C42.8186 28.6309 43.0426 28.8502 43.2012 29.1209C43.3599 29.3915 43.4672 29.6995 43.5232 30.0449C43.5886 30.3902 43.6212 30.7402 43.6212 31.0949V35.6729ZM48.1957 30.6329C48.1957 30.0262 48.3031 29.4289 48.5177 28.8409C48.7417 28.2435 49.0637 27.7115 49.4837 27.2449C49.9037 26.7782 50.4171 26.4002 51.0237 26.1109C51.6304 25.8215 52.3211 25.6769 53.0957 25.6769C54.0104 25.6769 54.7991 25.8775 55.4617 26.2789C56.1337 26.6802 56.6331 27.2029 56.9597 27.8469L55.4757 28.8689C55.3451 28.5889 55.1864 28.3555 54.9997 28.1689C54.8131 27.9729 54.6124 27.8189 54.3977 27.7069C54.1831 27.5949 53.9591 27.5155 53.7257 27.4689C53.4924 27.4129 53.2637 27.3849 53.0397 27.3849C52.5544 27.3849 52.1297 27.4829 51.7657 27.6789C51.4111 27.8749 51.1124 28.1315 50.8697 28.4489C50.6364 28.7569 50.4591 29.1115 50.3377 29.5129C50.2164 29.9049 50.1557 30.2969 50.1557 30.6889C50.1557 31.1275 50.2257 31.5522 50.3657 31.9629C50.5057 32.3642 50.7017 32.7189 50.9537 33.0269C51.2151 33.3349 51.5231 33.5822 51.8777 33.7689C52.2417 33.9555 52.6384 34.0489 53.0677 34.0489C53.2917 34.0489 53.5251 34.0209 53.7677 33.9649C54.0104 33.9089 54.2391 33.8202 54.4537 33.6989C54.6777 33.5775 54.8831 33.4235 55.0697 33.2369C55.2564 33.0409 55.4057 32.8075 55.5177 32.5369L57.0997 33.4469C56.9411 33.8202 56.7124 34.1515 56.4137 34.4409C56.1244 34.7209 55.7931 34.9589 55.4197 35.1549C55.0557 35.3509 54.6637 35.5002 54.2437 35.6029C53.8237 35.7055 53.4131 35.7569 53.0117 35.7569C52.3024 35.7569 51.6537 35.6075 51.0657 35.3089C50.4777 35.0102 49.9691 34.6229 49.5397 34.1469C49.1197 33.6615 48.7884 33.1155 48.5457 32.5089C48.3124 31.8929 48.1957 31.2675 48.1957 30.6329ZM60.2154 35.8129C59.8607 35.8129 59.5294 35.7569 59.2214 35.6449C58.9134 35.5235 58.6474 35.3602 58.4234 35.1549C58.1994 34.9402 58.022 34.6929 57.8914 34.4129C57.77 34.1329 57.7094 33.8249 57.7094 33.4889C57.7094 33.1435 57.784 32.8262 57.9334 32.5369C58.092 32.2382 58.3067 31.9862 58.5774 31.7809C58.8574 31.5755 59.1887 31.4169 59.5714 31.3049C59.954 31.1835 60.374 31.1229 60.8314 31.1229C61.158 31.1229 61.4754 31.1509 61.7834 31.2069C62.1007 31.2629 62.3807 31.3422 62.6234 31.4449V31.0249C62.6234 30.5395 62.4834 30.1662 62.2034 29.9049C61.9327 29.6435 61.5267 29.5129 60.9854 29.5129C60.5934 29.5129 60.2107 29.5829 59.8374 29.7229C59.464 29.8629 59.0814 30.0682 58.6894 30.3389L58.1154 29.1489C59.058 28.5235 60.0754 28.2109 61.1674 28.2109C62.222 28.2109 63.0387 28.4722 63.6174 28.9949C64.2054 29.5082 64.4994 30.2549 64.4994 31.2349V33.5169C64.4994 33.7129 64.532 33.8529 64.5974 33.9369C64.672 34.0209 64.7887 34.0675 64.9474 34.0769V35.6729C64.63 35.7382 64.3547 35.7709 64.1214 35.7709C63.7667 35.7709 63.4914 35.6915 63.2954 35.5329C63.1087 35.3742 62.992 35.1642 62.9454 34.9029L62.9034 34.4969C62.5767 34.9262 62.18 35.2529 61.7134 35.4769C61.2467 35.7009 60.7474 35.8129 60.2154 35.8129ZM60.7474 34.4409C61.0647 34.4409 61.3634 34.3849 61.6434 34.2729C61.9327 34.1609 62.1567 34.0115 62.3154 33.8249C62.5207 33.6662 62.6234 33.4889 62.6234 33.2929V32.4529C62.3994 32.3689 62.1567 32.3035 61.8954 32.2569C61.634 32.2009 61.382 32.1729 61.1394 32.1729C60.654 32.1729 60.2574 32.2849 59.9494 32.5089C59.6414 32.7235 59.4874 32.9989 59.4874 33.3349C59.4874 33.6522 59.6087 33.9182 59.8514 34.1329C60.094 34.3382 60.3927 34.4409 60.7474 34.4409ZM69.0244 35.8129C68.4084 35.8129 67.8064 35.7149 67.2184 35.5189C66.6304 35.3229 66.1264 35.0429 65.7064 34.6789L66.4064 33.5029C66.8544 33.8202 67.2884 34.0629 67.7084 34.2309C68.1378 34.3895 68.5624 34.4689 68.9824 34.4689C69.3558 34.4689 69.6498 34.3989 69.8644 34.2589C70.0791 34.1189 70.1864 33.9182 70.1864 33.6569C70.1864 33.3955 70.0604 33.2042 69.8084 33.0829C69.5564 32.9615 69.1458 32.8215 68.5764 32.6629C68.1004 32.5322 67.6944 32.4062 67.3584 32.2849C67.0224 32.1635 66.7518 32.0282 66.5464 31.8789C66.3411 31.7202 66.1918 31.5429 66.0984 31.3469C66.0051 31.1415 65.9584 30.8989 65.9584 30.6189C65.9584 30.2455 66.0284 29.9095 66.1684 29.6109C66.3178 29.3122 66.5231 29.0602 66.7844 28.8549C67.0458 28.6402 67.3491 28.4769 67.6944 28.3649C68.0491 28.2529 68.4318 28.1969 68.8424 28.1969C69.3931 28.1969 69.9064 28.2762 70.3824 28.4349C70.8678 28.5935 71.3111 28.8502 71.7124 29.2049L70.9564 30.3389C70.5831 30.0589 70.2191 29.8535 69.8644 29.7229C69.5191 29.5922 69.1738 29.5269 68.8284 29.5269C68.5111 29.5269 68.2451 29.5922 68.0304 29.7229C67.8158 29.8535 67.7084 30.0635 67.7084 30.3529C67.7084 30.4835 67.7318 30.5909 67.7784 30.6749C67.8344 30.7589 67.9184 30.8335 68.0304 30.8989C68.1424 30.9642 68.2871 31.0295 68.4644 31.0949C68.6511 31.1509 68.8798 31.2115 69.1504 31.2769C69.6544 31.4075 70.0838 31.5382 70.4384 31.6689C70.8024 31.7995 71.0964 31.9489 71.3204 32.1169C71.5538 32.2849 71.7218 32.4809 71.8244 32.7049C71.9364 32.9195 71.9924 33.1809 71.9924 33.4889C71.9924 34.2075 71.7264 34.7769 71.1944 35.1969C70.6624 35.6075 69.9391 35.8129 69.0244 35.8129ZM76.6134 35.8129C76.0254 35.8129 75.4934 35.7149 75.0174 35.5189C74.5414 35.3135 74.1354 35.0382 73.7994 34.6929C73.4634 34.3475 73.2021 33.9462 73.0154 33.4889C72.8381 33.0315 72.7494 32.5509 72.7494 32.0469C72.7494 31.5242 72.8381 31.0342 73.0154 30.5769C73.1928 30.1102 73.4494 29.7042 73.7854 29.3589C74.1214 29.0042 74.5274 28.7242 75.0034 28.5189C75.4888 28.3135 76.0301 28.2109 76.6274 28.2109C77.2248 28.2109 77.7568 28.3135 78.2234 28.5189C78.6994 28.7242 79.1008 28.9995 79.4274 29.3449C79.7634 29.6902 80.0154 30.0915 80.1834 30.5489C80.3608 31.0062 80.4494 31.4822 80.4494 31.9769C80.4494 32.0982 80.4448 32.2149 80.4354 32.3269C80.4354 32.4389 80.4261 32.5322 80.4074 32.6069H74.7374C74.7654 32.8962 74.8354 33.1529 74.9474 33.3769C75.0594 33.6009 75.2041 33.7922 75.3814 33.9509C75.5588 34.1095 75.7594 34.2309 75.9834 34.3149C76.2074 34.3989 76.4408 34.4409 76.6834 34.4409C77.0568 34.4409 77.4068 34.3522 77.7334 34.1749C78.0694 33.9882 78.2981 33.7455 78.4194 33.4469L80.0294 33.8949C79.7588 34.4549 79.3248 34.9169 78.7274 35.2809C78.1394 35.6355 77.4348 35.8129 76.6134 35.8129ZM78.5174 31.3889C78.4708 30.8382 78.2654 30.3995 77.9014 30.0729C77.5468 29.7369 77.1128 29.5689 76.5994 29.5689C76.3474 29.5689 76.1094 29.6155 75.8854 29.7089C75.6708 29.7929 75.4794 29.9142 75.3114 30.0729C75.1434 30.2315 75.0034 30.4229 74.8914 30.6469C74.7888 30.8709 74.7281 31.1182 74.7094 31.3889H78.5174ZM81.5549 37.1009C81.7135 37.1475 81.8675 37.1802 82.0169 37.1989C82.1662 37.2269 82.2922 37.2409 82.3949 37.2409C82.5162 37.2409 82.6282 37.2175 82.7309 37.1709C82.8335 37.1242 82.9269 37.0402 83.0109 36.9189C83.0949 36.8069 83.1789 36.6482 83.2629 36.4429C83.3469 36.2375 83.4355 35.9809 83.5289 35.6729L80.6309 28.3369H82.5629L84.5509 34.0489L86.3149 28.3369H88.0789L84.9989 37.1289C84.8215 37.6422 84.5182 38.0622 84.0889 38.3889C83.6595 38.7155 83.1275 38.8789 82.4929 38.8789C82.3435 38.8789 82.1895 38.8649 82.0309 38.8369C81.8815 38.8182 81.7229 38.7809 81.5549 38.7249V37.1009ZM94.6511 25.7329H96.3591L100.139 35.6729H98.1511L97.2271 33.1949H93.7551L92.8451 35.6729H90.8571L94.6511 25.7329ZM96.8771 31.8369L95.5051 27.9309L94.0771 31.8369H96.8771ZM107.865 35.6729H105.989V31.5569C105.989 30.9689 105.887 30.5395 105.681 30.2689C105.476 29.9982 105.191 29.8629 104.827 29.8629C104.641 29.8629 104.449 29.9002 104.253 29.9749C104.057 30.0495 103.871 30.1569 103.693 30.2969C103.525 30.4275 103.371 30.5862 103.231 30.7729C103.091 30.9595 102.989 31.1649 102.923 31.3889V35.6729H101.047V28.3369H102.741V29.6949C103.012 29.2282 103.404 28.8642 103.917 28.6029C104.431 28.3415 105.009 28.2109 105.653 28.2109C106.111 28.2109 106.484 28.2949 106.773 28.4629C107.063 28.6309 107.287 28.8502 107.445 29.1209C107.604 29.3915 107.711 29.6995 107.767 30.0449C107.833 30.3902 107.865 30.7402 107.865 31.0949V35.6729ZM109.497 35.6729V28.3369H111.373V35.6729H109.497ZM109.497 27.3149V25.4529H111.373V27.3149H109.497ZM124.461 35.6729H122.585V31.5569C122.585 30.9689 122.482 30.5395 122.277 30.2689C122.081 29.9982 121.806 29.8629 121.451 29.8629C121.078 29.8629 120.728 30.0075 120.401 30.2969C120.074 30.5769 119.841 30.9455 119.701 31.4029V35.6729H117.825V31.5569C117.825 30.9689 117.722 30.5395 117.517 30.2689C117.321 29.9982 117.046 29.8629 116.691 29.8629C116.327 29.8629 115.977 30.0029 115.641 30.2829C115.314 30.5629 115.081 30.9315 114.941 31.3889V35.6729H113.065V28.3369H114.759V29.6949C115.03 29.2189 115.398 28.8549 115.865 28.6029C116.341 28.3415 116.882 28.2109 117.489 28.2109C118.105 28.2109 118.581 28.3602 118.917 28.6589C119.253 28.9575 119.468 29.3262 119.561 29.7649C119.86 29.2609 120.238 28.8782 120.695 28.6169C121.152 28.3462 121.675 28.2109 122.263 28.2109C122.711 28.2109 123.08 28.2949 123.369 28.4629C123.658 28.6309 123.882 28.8502 124.041 29.1209C124.2 29.3915 124.307 29.6995 124.363 30.0449C124.428 30.3902 124.461 30.7402 124.461 31.0949V35.6729ZM128.096 35.8129C127.742 35.8129 127.41 35.7569 127.102 35.6449C126.794 35.5235 126.528 35.3602 126.304 35.1549C126.08 34.9402 125.903 34.6929 125.772 34.4129C125.651 34.1329 125.59 33.8249 125.59 33.4889C125.59 33.1435 125.665 32.8262 125.814 32.5369C125.973 32.2382 126.188 31.9862 126.458 31.7809C126.738 31.5755 127.07 31.4169 127.452 31.3049C127.835 31.1835 128.255 31.1229 128.712 31.1229C129.039 31.1229 129.356 31.1509 129.664 31.2069C129.982 31.2629 130.262 31.3422 130.504 31.4449V31.0249C130.504 30.5395 130.364 30.1662 130.084 29.9049C129.814 29.6435 129.408 29.5129 128.866 29.5129C128.474 29.5129 128.092 29.5829 127.718 29.7229C127.345 29.8629 126.962 30.0682 126.57 30.3389L125.996 29.1489C126.939 28.5235 127.956 28.2109 129.048 28.2109C130.103 28.2109 130.92 28.4722 131.498 28.9949C132.086 29.5082 132.38 30.2549 132.38 31.2349V33.5169C132.38 33.7129 132.413 33.8529 132.478 33.9369C132.553 34.0209 132.67 34.0675 132.828 34.0769V35.6729C132.511 35.7382 132.236 35.7709 132.002 35.7709C131.648 35.7709 131.372 35.6915 131.176 35.5329C130.99 35.3742 130.873 35.1642 130.826 34.9029L130.784 34.4969C130.458 34.9262 130.061 35.2529 129.594 35.4769C129.128 35.7009 128.628 35.8129 128.096 35.8129ZM128.628 34.4409C128.946 34.4409 129.244 34.3849 129.524 34.2729C129.814 34.1609 130.038 34.0115 130.196 33.8249C130.402 33.6662 130.504 33.4889 130.504 33.2929V32.4529C130.28 32.3689 130.038 32.3035 129.776 32.2569C129.515 32.2009 129.263 32.1729 129.02 32.1729C128.535 32.1729 128.138 32.2849 127.83 32.5089C127.522 32.7235 127.368 32.9989 127.368 33.3349C127.368 33.6522 127.49 33.9182 127.732 34.1329C127.975 34.3382 128.274 34.4409 128.628 34.4409ZM134.119 25.4529H135.995V33.3209C135.995 33.5915 136.061 33.8015 136.191 33.9509C136.322 34.1002 136.509 34.1749 136.751 34.1749C136.863 34.1749 136.985 34.1562 137.115 34.1189C137.255 34.0815 137.386 34.0349 137.507 33.9789L137.759 35.4069C137.507 35.5282 137.213 35.6215 136.877 35.6869C136.541 35.7522 136.238 35.7849 135.967 35.7849C135.379 35.7849 134.922 35.6309 134.595 35.3229C134.278 35.0055 134.119 34.5575 134.119 33.9789V25.4529ZM141.684 35.6729V25.7329H146.08C146.538 25.7329 146.958 25.8309 147.34 26.0269C147.732 26.2135 148.068 26.4655 148.348 26.7829C148.628 27.0909 148.848 27.4455 149.006 27.8469C149.165 28.2389 149.244 28.6355 149.244 29.0369C149.244 29.6809 149.081 30.2689 148.754 30.8009C148.437 31.3235 148.003 31.7015 147.452 31.9349L149.72 35.6729H147.55L145.52 32.3409H143.616V35.6729H141.684ZM143.616 30.6469H146.038C146.216 30.6469 146.379 30.6049 146.528 30.5209C146.687 30.4369 146.822 30.3249 146.934 30.1849C147.046 30.0355 147.135 29.8629 147.2 29.6669C147.266 29.4709 147.298 29.2609 147.298 29.0369C147.298 28.8035 147.261 28.5889 147.186 28.3929C147.112 28.1969 147.009 28.0289 146.878 27.8889C146.757 27.7395 146.612 27.6275 146.444 27.5529C146.286 27.4689 146.122 27.4269 145.954 27.4269H143.616V30.6469ZM154.01 35.8129C153.422 35.8129 152.89 35.7149 152.414 35.5189C151.938 35.3135 151.532 35.0382 151.196 34.6929C150.86 34.3475 150.599 33.9462 150.412 33.4889C150.235 33.0315 150.146 32.5509 150.146 32.0469C150.146 31.5242 150.235 31.0342 150.412 30.5769C150.589 30.1102 150.846 29.7042 151.182 29.3589C151.518 29.0042 151.924 28.7242 152.4 28.5189C152.885 28.3135 153.427 28.2109 154.024 28.2109C154.621 28.2109 155.153 28.3135 155.62 28.5189C156.096 28.7242 156.497 28.9995 156.824 29.3449C157.16 29.6902 157.412 30.0915 157.58 30.5489C157.757 31.0062 157.846 31.4822 157.846 31.9769C157.846 32.0982 157.841 32.2149 157.832 32.3269C157.832 32.4389 157.823 32.5322 157.804 32.6069H152.134C152.162 32.8962 152.232 33.1529 152.344 33.3769C152.456 33.6009 152.601 33.7922 152.778 33.9509C152.955 34.1095 153.156 34.2309 153.38 34.3149C153.604 34.3989 153.837 34.4409 154.08 34.4409C154.453 34.4409 154.803 34.3522 155.13 34.1749C155.466 33.9882 155.695 33.7455 155.816 33.4469L157.426 33.8949C157.155 34.4549 156.721 34.9169 156.124 35.2809C155.536 35.6355 154.831 35.8129 154.01 35.8129ZM155.914 31.3889C155.867 30.8382 155.662 30.3995 155.298 30.0729C154.943 29.7369 154.509 29.5689 153.996 29.5689C153.744 29.5689 153.506 29.6155 153.282 29.7089C153.067 29.7929 152.876 29.9142 152.708 30.0729C152.54 30.2315 152.4 30.4229 152.288 30.6469C152.185 30.8709 152.125 31.1182 152.106 31.3889H155.914ZM161.761 35.8129C161.145 35.8129 160.543 35.7149 159.955 35.5189C159.367 35.3229 158.863 35.0429 158.443 34.6789L159.143 33.5029C159.591 33.8202 160.025 34.0629 160.445 34.2309C160.874 34.3895 161.299 34.4689 161.719 34.4689C162.092 34.4689 162.386 34.3989 162.601 34.2589C162.815 34.1189 162.923 33.9182 162.923 33.6569C162.923 33.3955 162.797 33.2042 162.545 33.0829C162.293 32.9615 161.882 32.8215 161.313 32.6629C160.837 32.5322 160.431 32.4062 160.095 32.2849C159.759 32.1635 159.488 32.0282 159.283 31.8789C159.077 31.7202 158.928 31.5429 158.835 31.3469C158.741 31.1415 158.695 30.8989 158.695 30.6189C158.695 30.2455 158.765 29.9095 158.905 29.6109C159.054 29.3122 159.259 29.0602 159.521 28.8549C159.782 28.6402 160.085 28.4769 160.431 28.3649C160.785 28.2529 161.168 28.1969 161.579 28.1969C162.129 28.1969 162.643 28.2762 163.119 28.4349C163.604 28.5935 164.047 28.8502 164.449 29.2049L163.693 30.3389C163.319 30.0589 162.955 29.8535 162.601 29.7229C162.255 29.5922 161.91 29.5269 161.565 29.5269C161.247 29.5269 160.981 29.5922 160.767 29.7229C160.552 29.8535 160.445 30.0635 160.445 30.3529C160.445 30.4835 160.468 30.5909 160.515 30.6749C160.571 30.7589 160.655 30.8335 160.767 30.8989C160.879 30.9642 161.023 31.0295 161.201 31.0949C161.387 31.1509 161.616 31.2115 161.887 31.2769C162.391 31.4075 162.82 31.5382 163.175 31.6689C163.539 31.7995 163.833 31.9489 164.057 32.1169C164.29 32.2849 164.458 32.4809 164.561 32.7049C164.673 32.9195 164.729 33.1809 164.729 33.4889C164.729 34.2075 164.463 34.7769 163.931 35.1969C163.399 35.6075 162.675 35.8129 161.761 35.8129ZM165.486 32.0049C165.486 31.4915 165.574 31.0062 165.752 30.5489C165.929 30.0915 166.186 29.6902 166.522 29.3449C166.858 28.9995 167.264 28.7242 167.74 28.5189C168.216 28.3135 168.752 28.2109 169.35 28.2109C170.152 28.2109 170.834 28.3835 171.394 28.7289C171.963 29.0742 172.388 29.5269 172.668 30.0869L170.834 30.6469C170.675 30.3762 170.465 30.1709 170.204 30.0309C169.942 29.8815 169.653 29.8069 169.336 29.8069C169.065 29.8069 168.813 29.8629 168.58 29.9749C168.346 30.0775 168.141 30.2269 167.964 30.4229C167.796 30.6095 167.66 30.8382 167.558 31.1089C167.464 31.3795 167.418 31.6782 167.418 32.0049C167.418 32.3315 167.469 32.6302 167.572 32.9009C167.674 33.1715 167.81 33.4049 167.978 33.6009C168.155 33.7969 168.36 33.9509 168.594 34.0629C168.827 34.1655 169.074 34.2169 169.336 34.2169C169.672 34.2169 169.98 34.1329 170.26 33.9649C170.549 33.7969 170.75 33.5915 170.862 33.3489L172.696 33.9089C172.444 34.4689 172.028 34.9262 171.45 35.2809C170.871 35.6355 170.176 35.8129 169.364 35.8129C168.766 35.8129 168.23 35.7102 167.754 35.5049C167.278 35.2995 166.872 35.0242 166.536 34.6789C166.2 34.3242 165.938 33.9182 165.752 33.4609C165.574 32.9942 165.486 32.5089 165.486 32.0049ZM176.09 35.8129C175.334 35.8129 174.76 35.5702 174.368 35.0849C173.976 34.5995 173.78 33.8809 173.78 32.9289V28.3369H175.656V32.5229C175.656 33.6522 176.062 34.2169 176.874 34.2169C177.238 34.2169 177.588 34.1095 177.924 33.8949C178.269 33.6709 178.549 33.3349 178.764 32.8869V28.3369H180.64V33.5169C180.64 33.7129 180.673 33.8529 180.738 33.9369C180.813 34.0209 180.929 34.0675 181.088 34.0769V35.6729C180.901 35.7102 180.743 35.7335 180.612 35.7429C180.491 35.7522 180.379 35.7569 180.276 35.7569C179.94 35.7569 179.665 35.6822 179.45 35.5329C179.245 35.3742 179.123 35.1595 179.086 34.8889L179.044 34.3009C178.717 34.8049 178.297 35.1829 177.784 35.4349C177.271 35.6869 176.706 35.8129 176.09 35.8129ZM185.906 35.8129C185.318 35.8129 184.786 35.7149 184.31 35.5189C183.834 35.3135 183.428 35.0382 183.092 34.6929C182.756 34.3475 182.495 33.9462 182.308 33.4889C182.131 33.0315 182.042 32.5509 182.042 32.0469C182.042 31.5242 182.131 31.0342 182.308 30.5769C182.486 30.1102 182.742 29.7042 183.078 29.3589C183.414 29.0042 183.82 28.7242 184.296 28.5189C184.782 28.3135 185.323 28.2109 185.92 28.2109C186.518 28.2109 187.05 28.3135 187.516 28.5189C187.992 28.7242 188.394 28.9995 188.72 29.3449C189.056 29.6902 189.308 30.0915 189.476 30.5489C189.654 31.0062 189.742 31.4822 189.742 31.9769C189.742 32.0982 189.738 32.2149 189.728 32.3269C189.728 32.4389 189.719 32.5322 189.7 32.6069H184.03C184.058 32.8962 184.128 33.1529 184.24 33.3769C184.352 33.6009 184.497 33.7922 184.674 33.9509C184.852 34.1095 185.052 34.2309 185.276 34.3149C185.5 34.3989 185.734 34.4409 185.976 34.4409C186.35 34.4409 186.7 34.3522 187.026 34.1749C187.362 33.9882 187.591 33.7455 187.712 33.4469L189.322 33.8949C189.052 34.4549 188.618 34.9169 188.02 35.2809C187.432 35.6355 186.728 35.8129 185.906 35.8129ZM187.81 31.3889C187.764 30.8382 187.558 30.3995 187.194 30.0729C186.84 29.7369 186.406 29.5689 185.892 29.5689C185.64 29.5689 185.402 29.6155 185.178 29.7089C184.964 29.7929 184.772 29.9142 184.604 30.0729C184.436 30.2315 184.296 30.4229 184.184 30.6469C184.082 30.8709 184.021 31.1182 184.002 31.3889H187.81Z" fill="#5C5C5C"/>
</g>
<g filter="url(#filter1_d)">
<path d="M240 51C240 46.5817 243.582 43 248 43H362C366.418 43 370 46.5817 370 51V57C370 61.4183 366.418 65 362 65H248C243.582 65 240 61.4183 240 57V51Z" fill="#246B6D"/>
<path d="M350.713 47L349 48.645L354.563 54L349 59.355L350.713 61L358 54L350.713 47Z" fill="white"/>
<path d="M270.293 50.8965V56.5332H271.957C272.808 56.5332 273.402 56.1133 273.738 55.2734C273.921 54.8125 274.013 54.2637 274.013 53.627C274.013 52.748 273.875 52.0742 273.597 51.6055C273.324 51.1328 272.777 50.8965 271.957 50.8965H270.293ZM272.261 49.3965C272.796 49.4043 273.242 49.4668 273.597 49.584C274.203 49.7832 274.693 50.1484 275.068 50.6797C275.369 51.1094 275.574 51.5742 275.683 52.0742C275.793 52.5742 275.847 53.0508 275.847 53.5039C275.847 54.6523 275.617 55.625 275.156 56.4219C274.531 57.4961 273.566 58.0332 272.261 58.0332H268.541V49.3965H272.261ZM278.794 50.8848H277.101V49.3438H278.794V50.8848ZM277.101 51.6465H278.794V58.0332H277.101V51.6465ZM283.886 51.4941C283.918 51.4941 283.943 51.4961 283.962 51.5C283.986 51.5 284.035 51.502 284.109 51.5059V53.2168C284.003 53.2051 283.91 53.1973 283.828 53.1934C283.746 53.1895 283.679 53.1875 283.628 53.1875C282.957 53.1875 282.505 53.4062 282.275 53.8438C282.146 54.0898 282.082 54.4688 282.082 54.9805V58.0332H280.4V51.6465H281.994V52.7598C282.252 52.334 282.476 52.043 282.668 51.8867C282.98 51.625 283.386 51.4941 283.886 51.4941ZM287.613 52.8535C287.226 52.8535 286.925 52.9746 286.711 53.2168C286.5 53.459 286.367 53.7871 286.312 54.2012H288.908C288.88 53.7598 288.746 53.4258 288.503 53.1992C288.265 52.9688 287.968 52.8535 287.613 52.8535ZM287.613 51.4766C288.144 51.4766 288.623 51.5762 289.048 51.7754C289.474 51.9746 289.826 52.2891 290.103 52.7188C290.353 53.0977 290.515 53.5371 290.589 54.0371C290.632 54.3301 290.65 54.752 290.642 55.3027H286.271C286.294 55.9434 286.496 56.3926 286.875 56.6504C287.105 56.8105 287.382 56.8906 287.707 56.8906C288.05 56.8906 288.33 56.793 288.544 56.5977C288.662 56.4922 288.765 56.3457 288.855 56.1582H290.56C290.517 56.5371 290.32 56.9219 289.968 57.3125C289.421 57.9336 288.656 58.2441 287.671 58.2441C286.859 58.2441 286.142 57.9824 285.521 57.459C284.9 56.9355 284.589 56.084 284.589 54.9043C284.589 53.7988 284.869 52.9512 285.427 52.3613C285.99 51.7715 286.718 51.4766 287.613 51.4766ZM295.587 53.9375C295.556 53.6992 295.476 53.4844 295.347 53.293C295.16 53.0352 294.869 52.9062 294.474 52.9062C293.912 52.9062 293.527 53.1855 293.32 53.7441C293.211 54.041 293.156 54.4355 293.156 54.9277C293.156 55.3965 293.211 55.7734 293.32 56.0586C293.519 56.5898 293.894 56.8555 294.445 56.8555C294.836 56.8555 295.113 56.75 295.277 56.5391C295.441 56.3281 295.541 56.0547 295.576 55.7188H297.281C297.242 56.2266 297.058 56.707 296.73 57.1602C296.207 57.8906 295.431 58.2559 294.404 58.2559C293.377 58.2559 292.621 57.9512 292.136 57.3418C291.652 56.7324 291.41 55.9414 291.41 54.9688C291.41 53.8711 291.677 53.0176 292.212 52.4082C292.748 51.7988 293.486 51.4941 294.427 51.4941C295.228 51.4941 295.882 51.6738 296.39 52.0332C296.902 52.3926 297.205 53.0273 297.298 53.9375H295.587ZM297.796 52.8945V51.7051H298.687V49.9238H300.339V51.7051H301.377V52.8945H300.339V56.2695C300.339 56.5312 300.373 56.6953 300.439 56.7617C300.505 56.8242 300.709 56.8555 301.048 56.8555C301.099 56.8555 301.152 56.8555 301.207 56.8555C301.265 56.8516 301.322 56.8477 301.377 56.8438V58.0918L300.586 58.1211C299.796 58.1484 299.257 58.0117 298.968 57.7109C298.781 57.5195 298.687 57.2246 298.687 56.8262V52.8945H297.796ZM304.166 50.8848H302.472V49.3438H304.166V50.8848ZM302.472 51.6465H304.166V58.0332H302.472V51.6465ZM308.654 56.8555C309.142 56.8555 309.517 56.6816 309.779 56.334C310.041 55.9863 310.171 55.4922 310.171 54.8516C310.171 54.2109 310.041 53.7188 309.779 53.375C309.517 53.0273 309.142 52.8535 308.654 52.8535C308.166 52.8535 307.789 53.0273 307.523 53.375C307.261 53.7188 307.13 54.2109 307.13 54.8516C307.13 55.4922 307.261 55.9863 307.523 56.334C307.789 56.6816 308.166 56.8555 308.654 56.8555ZM311.923 54.8516C311.923 55.7891 311.654 56.5918 311.115 57.2598C310.576 57.9238 309.757 58.2559 308.66 58.2559C307.562 58.2559 306.744 57.9238 306.205 57.2598C305.666 56.5918 305.396 55.7891 305.396 54.8516C305.396 53.9297 305.666 53.1309 306.205 52.4551C306.744 51.7793 307.562 51.4414 308.66 51.4414C309.757 51.4414 310.576 51.7793 311.115 52.4551C311.654 53.1309 311.923 53.9297 311.923 54.8516ZM316.664 51.4941C317.324 51.4941 317.863 51.668 318.281 52.0156C318.703 52.3594 318.914 52.9316 318.914 53.7324V58.0332H317.203V54.1484C317.203 53.8125 317.158 53.5547 317.068 53.375C316.904 53.0469 316.591 52.8828 316.13 52.8828C315.564 52.8828 315.175 53.123 314.964 53.6035C314.855 53.8574 314.8 54.1816 314.8 54.5762V58.0332H313.136V51.6582H314.748V52.5898C314.962 52.2617 315.166 52.0254 315.357 51.8809C315.701 51.623 316.136 51.4941 316.664 51.4941ZM321.761 55.9941C321.796 56.291 321.873 56.502 321.99 56.627C322.197 56.8496 322.58 56.9609 323.138 56.9609C323.466 56.9609 323.726 56.9121 323.918 56.8145C324.113 56.7168 324.211 56.5703 324.211 56.375C324.211 56.1875 324.132 56.0449 323.976 55.9473C323.82 55.8496 323.24 55.6816 322.236 55.4434C321.513 55.2637 321.003 55.0391 320.707 54.7695C320.41 54.5039 320.261 54.1211 320.261 53.6211C320.261 53.0312 320.492 52.5254 320.953 52.1035C321.418 51.6777 322.07 51.4648 322.91 51.4648C323.707 51.4648 324.355 51.625 324.855 51.9453C325.359 52.2617 325.648 52.8105 325.722 53.5918H324.052C324.029 53.377 323.968 53.207 323.871 53.082C323.687 52.8555 323.375 52.7422 322.933 52.7422C322.57 52.7422 322.31 52.7988 322.154 52.9121C322.002 53.0254 321.925 53.1582 321.925 53.3105C321.925 53.502 322.007 53.6406 322.171 53.7266C322.336 53.8164 322.916 53.9707 323.912 54.1895C324.576 54.3457 325.074 54.582 325.406 54.8984C325.734 55.2188 325.898 55.6191 325.898 56.0996C325.898 56.7324 325.662 57.25 325.189 57.6523C324.72 58.0508 323.994 58.25 323.009 58.25C322.005 58.25 321.263 58.0391 320.783 57.6172C320.306 57.1914 320.068 56.6504 320.068 55.9941H321.761Z" fill="white"/>
</g>
<g filter="url(#filter2_d)">
<path d="M270.849 17.7334C271.233 17.7994 271.536 17.9764 271.758 18.2644C271.986 18.5524 272.1 18.9094 272.1 19.3354C272.1 19.6114 272.049 19.8634 271.947 20.0914C271.845 20.3194 271.698 20.5144 271.506 20.6764C271.32 20.8384 271.095 20.9614 270.831 21.0454C270.567 21.1354 270.273 21.1804 269.949 21.1804C269.493 21.1804 269.091 21.0934 268.743 20.9194C268.401 20.7514 268.134 20.5114 267.942 20.1994L268.473 19.6684C268.611 19.9144 268.797 20.1064 269.031 20.2444C269.265 20.3884 269.571 20.4604 269.949 20.4604C270.363 20.4604 270.687 20.3674 270.921 20.1814C271.161 19.9954 271.281 19.7134 271.281 19.3354C271.281 18.9574 271.152 18.6574 270.894 18.4354C270.642 18.2074 270.273 18.0934 269.787 18.0934H269.553V17.4274H269.805C270.237 17.4274 270.567 17.3254 270.795 17.1214C271.029 16.9114 271.146 16.6474 271.146 16.3294C271.146 16.0114 271.035 15.7744 270.813 15.6184C270.591 15.4624 270.312 15.3844 269.976 15.3844C269.646 15.3844 269.355 15.4564 269.103 15.6004C268.857 15.7384 268.665 15.9334 268.527 16.1854L268.041 15.6814C268.119 15.5314 268.224 15.3964 268.356 15.2764C268.494 15.1504 268.65 15.0424 268.824 14.9524C269.004 14.8624 269.196 14.7934 269.4 14.7454C269.61 14.6974 269.829 14.6734 270.057 14.6734C270.339 14.6734 270.597 14.7124 270.831 14.7904C271.071 14.8684 271.275 14.9764 271.443 15.1144C271.617 15.2524 271.749 15.4204 271.839 15.6184C271.935 15.8164 271.983 16.0354 271.983 16.2754C271.983 16.4554 271.956 16.6264 271.902 16.7884C271.854 16.9504 271.779 17.0974 271.677 17.2294C271.581 17.3614 271.461 17.4724 271.317 17.5624C271.179 17.6464 271.023 17.7034 270.849 17.7334ZM273.063 19.8574V18.8494H273.729V19.8574H273.063ZM277.412 21.0004V19.4794H274.523V18.7774L277.664 14.7184H278.204V18.7594H278.996V19.4794H278.204V21.0004H277.412ZM275.342 18.7594H277.493V15.9424L275.342 18.7594ZM289.324 19.8574H288.532V17.2294C288.532 16.7374 288.451 16.3744 288.289 16.1404C288.133 15.9064 287.899 15.7894 287.587 15.7894C287.263 15.7894 286.972 15.9064 286.714 16.1404C286.462 16.3684 286.282 16.6654 286.174 17.0314V19.8574H285.382V17.2294C285.382 16.7254 285.304 16.3594 285.148 16.1314C284.992 15.9034 284.758 15.7894 284.446 15.7894C284.128 15.7894 283.84 15.9034 283.582 16.1314C283.324 16.3534 283.141 16.6504 283.033 17.0224V19.8574H282.241V15.1594H282.961V16.1674C283.153 15.8194 283.402 15.5524 283.708 15.3664C284.014 15.1744 284.359 15.0784 284.743 15.0784C285.139 15.0784 285.451 15.1864 285.679 15.4024C285.913 15.6124 286.057 15.8854 286.111 16.2214C286.531 15.4594 287.128 15.0784 287.902 15.0784C288.172 15.0784 288.397 15.1294 288.577 15.2314C288.763 15.3274 288.91 15.4654 289.018 15.6454C289.126 15.8194 289.204 16.0264 289.252 16.2664C289.3 16.5064 289.324 16.7674 289.324 17.0494V19.8574ZM290.555 19.8574V15.1594H291.347V19.8574H290.555ZM290.555 14.2774V13.2874H291.347V14.2774H290.555ZM292.647 13.2874H293.439V18.6424C293.439 18.8164 293.484 18.9544 293.574 19.0564C293.67 19.1524 293.802 19.2004 293.97 19.2004C294.036 19.2004 294.114 19.1914 294.204 19.1734C294.294 19.1494 294.378 19.1224 294.456 19.0924L294.582 19.7314C294.45 19.7854 294.294 19.8304 294.114 19.8664C293.934 19.9024 293.775 19.9204 293.637 19.9204C293.331 19.9204 293.088 19.8334 292.908 19.6594C292.734 19.4854 292.647 19.2424 292.647 18.9304V13.2874ZM297.283 19.9474C296.929 19.9474 296.605 19.8844 296.311 19.7584C296.017 19.6264 295.765 19.4494 295.555 19.2274C295.345 19.0054 295.18 18.7474 295.06 18.4534C294.946 18.1534 294.889 17.8384 294.889 17.5084C294.889 17.1784 294.946 16.8664 295.06 16.5724C295.18 16.2784 295.345 16.0204 295.555 15.7984C295.771 15.5764 296.026 15.4024 296.32 15.2764C296.614 15.1444 296.938 15.0784 297.292 15.0784C297.646 15.0784 297.967 15.1444 298.255 15.2764C298.549 15.4084 298.798 15.5854 299.002 15.8074C299.206 16.0234 299.362 16.2784 299.47 16.5724C299.584 16.8604 299.641 17.1604 299.641 17.4724C299.641 17.5384 299.638 17.5984 299.632 17.6524C299.632 17.7064 299.629 17.7484 299.623 17.7784H295.726C295.744 18.0124 295.798 18.2254 295.888 18.4174C295.978 18.6094 296.095 18.7744 296.239 18.9124C296.383 19.0504 296.545 19.1584 296.725 19.2364C296.911 19.3144 297.106 19.3534 297.31 19.3534C297.454 19.3534 297.595 19.3354 297.733 19.2994C297.871 19.2574 298 19.2034 298.12 19.1374C298.24 19.0714 298.345 18.9904 298.435 18.8944C298.531 18.7984 298.603 18.6904 298.651 18.5704L299.335 18.7594C299.257 18.9334 299.149 19.0924 299.011 19.2364C298.879 19.3804 298.723 19.5064 298.543 19.6144C298.369 19.7164 298.174 19.7974 297.958 19.8574C297.742 19.9174 297.517 19.9474 297.283 19.9474ZM298.894 17.1934C298.876 16.9714 298.819 16.7674 298.723 16.5814C298.633 16.3894 298.516 16.2274 298.372 16.0954C298.234 15.9634 298.072 15.8614 297.886 15.7894C297.7 15.7114 297.502 15.6724 297.292 15.6724C297.082 15.6724 296.884 15.7114 296.698 15.7894C296.512 15.8614 296.347 15.9664 296.203 16.1044C296.065 16.2364 295.951 16.3954 295.861 16.5814C295.777 16.7674 295.726 16.9714 295.708 17.1934H298.894ZM302.169 19.9474C301.791 19.9474 301.419 19.8904 301.053 19.7764C300.687 19.6564 300.372 19.4854 300.108 19.2634L300.45 18.7324C300.726 18.9424 301.002 19.1014 301.278 19.2094C301.554 19.3114 301.845 19.3624 302.151 19.3624C302.493 19.3624 302.763 19.2964 302.961 19.1644C303.165 19.0264 303.267 18.8344 303.267 18.5884C303.267 18.4744 303.24 18.3784 303.186 18.3004C303.132 18.2164 303.051 18.1444 302.943 18.0844C302.835 18.0244 302.697 17.9704 302.529 17.9224C302.361 17.8744 302.166 17.8234 301.944 17.7694C301.662 17.6974 301.419 17.6284 301.215 17.5624C301.011 17.4964 300.843 17.4184 300.711 17.3284C300.579 17.2384 300.483 17.1304 300.423 17.0044C300.363 16.8784 300.333 16.7224 300.333 16.5364C300.333 16.3024 300.378 16.0954 300.468 15.9154C300.564 15.7294 300.693 15.5764 300.855 15.4564C301.017 15.3304 301.206 15.2374 301.422 15.1774C301.644 15.1114 301.881 15.0784 302.133 15.0784C302.487 15.0784 302.817 15.1354 303.123 15.2494C303.429 15.3634 303.687 15.5134 303.897 15.6994L303.537 16.1764C303.339 16.0024 303.117 15.8734 302.871 15.7894C302.625 15.6994 302.373 15.6544 302.115 15.6544C301.827 15.6544 301.581 15.7174 301.377 15.8434C301.179 15.9634 301.08 16.1584 301.08 16.4284C301.08 16.5364 301.098 16.6264 301.134 16.6984C301.176 16.7704 301.242 16.8334 301.332 16.8874C301.422 16.9414 301.536 16.9894 301.674 17.0314C301.818 17.0734 301.989 17.1184 302.187 17.1664C302.499 17.2384 302.769 17.3134 302.997 17.3914C303.231 17.4634 303.423 17.5504 303.573 17.6524C303.729 17.7544 303.843 17.8744 303.915 18.0124C303.993 18.1504 304.032 18.3184 304.032 18.5164C304.032 18.9544 303.864 19.3024 303.528 19.5604C303.192 19.8184 302.739 19.9474 302.169 19.9474ZM270.732 24.5034H271.497L272.343 26.7264L273.198 24.5034H273.963L272.856 27.2844L273.954 29.9214L276.114 24.4674H276.996L274.323 30.8574H273.621L272.352 27.8424L271.074 30.8574H270.372L267.708 24.4674H268.581L270.75 29.9214L271.839 27.2844L270.732 24.5034ZM277.705 30.8574V26.1594H278.497V30.8574H277.705ZM277.705 25.2774V24.2874H278.497V25.2774H277.705ZM283.857 30.8574H283.065V28.2294C283.065 27.7254 282.987 27.3594 282.831 27.1314C282.681 26.9034 282.45 26.7894 282.138 26.7894C281.976 26.7894 281.814 26.8224 281.652 26.8884C281.49 26.9484 281.337 27.0324 281.193 27.1404C281.049 27.2484 280.923 27.3774 280.815 27.5274C280.707 27.6774 280.626 27.8424 280.572 28.0224V30.8574H279.78V26.1594H280.5V27.1674C280.686 26.8374 280.953 26.5734 281.301 26.3754C281.655 26.1774 282.039 26.0784 282.453 26.0784C282.723 26.0784 282.948 26.1294 283.128 26.2314C283.308 26.3274 283.452 26.4654 283.56 26.6454C283.668 26.8194 283.743 27.0264 283.785 27.2664C283.833 27.5064 283.857 27.7674 283.857 28.0494V30.8574ZM287.023 30.9474C286.699 30.9474 286.399 30.8814 286.123 30.7494C285.847 30.6174 285.61 30.4404 285.412 30.2184C285.214 29.9964 285.058 29.7384 284.944 29.4444C284.836 29.1504 284.782 28.8414 284.782 28.5174C284.782 28.1874 284.833 27.8754 284.935 27.5814C285.043 27.2814 285.19 27.0204 285.376 26.7984C285.568 26.5764 285.793 26.4024 286.051 26.2764C286.315 26.1444 286.603 26.0784 286.915 26.0784C287.293 26.0784 287.629 26.1774 287.923 26.3754C288.223 26.5734 288.46 26.8134 288.634 27.0954V24.2874H289.426V29.8854C289.426 30.0714 289.51 30.1674 289.678 30.1734V30.8574C289.594 30.8694 289.525 30.8784 289.471 30.8844C289.423 30.8904 289.375 30.8934 289.327 30.8934C289.171 30.8934 289.033 30.8424 288.913 30.7404C288.799 30.6324 288.742 30.5094 288.742 30.3714V29.9754C288.556 30.2814 288.307 30.5214 287.995 30.6954C287.689 30.8634 287.365 30.9474 287.023 30.9474ZM287.212 30.2634C287.356 30.2634 287.503 30.2364 287.653 30.1824C287.809 30.1284 287.953 30.0534 288.085 29.9574C288.223 29.8614 288.34 29.7504 288.436 29.6244C288.538 29.4924 288.604 29.3544 288.634 29.2104V27.8604C288.58 27.7104 288.499 27.5694 288.391 27.4374C288.283 27.2994 288.16 27.1824 288.022 27.0864C287.89 26.9844 287.746 26.9064 287.59 26.8524C287.44 26.7924 287.29 26.7624 287.14 26.7624C286.906 26.7624 286.693 26.8134 286.501 26.9154C286.315 27.0114 286.153 27.1434 286.015 27.3114C285.883 27.4734 285.781 27.6624 285.709 27.8784C285.637 28.0884 285.601 28.3044 285.601 28.5264C285.601 28.7604 285.643 28.9854 285.727 29.2014C285.811 29.4114 285.925 29.5944 286.069 29.7504C286.213 29.9064 286.381 30.0324 286.573 30.1284C286.771 30.2184 286.984 30.2634 287.212 30.2634ZM292.395 30.9474C292.017 30.9474 291.645 30.8904 291.279 30.7764C290.913 30.6564 290.598 30.4854 290.334 30.2634L290.676 29.7324C290.952 29.9424 291.228 30.1014 291.504 30.2094C291.78 30.3114 292.071 30.3624 292.377 30.3624C292.719 30.3624 292.989 30.2964 293.187 30.1644C293.391 30.0264 293.493 29.8344 293.493 29.5884C293.493 29.4744 293.466 29.3784 293.412 29.3004C293.358 29.2164 293.277 29.1444 293.169 29.0844C293.061 29.0244 292.923 28.9704 292.755 28.9224C292.587 28.8744 292.392 28.8234 292.17 28.7694C291.888 28.6974 291.645 28.6284 291.441 28.5624C291.237 28.4964 291.069 28.4184 290.937 28.3284C290.805 28.2384 290.709 28.1304 290.649 28.0044C290.589 27.8784 290.559 27.7224 290.559 27.5364C290.559 27.3024 290.604 27.0954 290.694 26.9154C290.79 26.7294 290.919 26.5764 291.081 26.4564C291.243 26.3304 291.432 26.2374 291.648 26.1774C291.87 26.1114 292.107 26.0784 292.359 26.0784C292.713 26.0784 293.043 26.1354 293.349 26.2494C293.655 26.3634 293.913 26.5134 294.123 26.6994L293.763 27.1764C293.565 27.0024 293.343 26.8734 293.097 26.7894C292.851 26.6994 292.599 26.6544 292.341 26.6544C292.053 26.6544 291.807 26.7174 291.603 26.8434C291.405 26.9634 291.306 27.1584 291.306 27.4284C291.306 27.5364 291.324 27.6264 291.36 27.6984C291.402 27.7704 291.468 27.8334 291.558 27.8874C291.648 27.9414 291.762 27.9894 291.9 28.0314C292.044 28.0734 292.215 28.1184 292.413 28.1664C292.725 28.2384 292.995 28.3134 293.223 28.3914C293.457 28.4634 293.649 28.5504 293.799 28.6524C293.955 28.7544 294.069 28.8744 294.141 29.0124C294.219 29.1504 294.258 29.3184 294.258 29.5164C294.258 29.9544 294.09 30.3024 293.754 30.5604C293.418 30.8184 292.965 30.9474 292.395 30.9474ZM297.248 30.9474C296.894 30.9474 296.57 30.8814 296.276 30.7494C295.988 30.6174 295.739 30.4404 295.529 30.2184C295.325 29.9964 295.166 29.7384 295.052 29.4444C294.938 29.1504 294.881 28.8414 294.881 28.5174C294.881 28.1874 294.938 27.8754 295.052 27.5814C295.172 27.2874 295.334 27.0294 295.538 26.8074C295.748 26.5854 295.997 26.4084 296.285 26.2764C296.579 26.1444 296.9 26.0784 297.248 26.0784C297.596 26.0784 297.917 26.1444 298.211 26.2764C298.505 26.4084 298.754 26.5854 298.958 26.8074C299.168 27.0294 299.33 27.2874 299.444 27.5814C299.564 27.8754 299.624 28.1874 299.624 28.5174C299.624 28.8414 299.567 29.1504 299.453 29.4444C299.339 29.7384 299.177 29.9964 298.967 30.2184C298.757 30.4404 298.505 30.6174 298.211 30.7494C297.923 30.8814 297.602 30.9474 297.248 30.9474ZM295.691 28.5264C295.691 28.7724 295.73 29.0004 295.808 29.2104C295.892 29.4204 296.003 29.6034 296.141 29.7594C296.285 29.9154 296.45 30.0384 296.636 30.1284C296.828 30.2184 297.032 30.2634 297.248 30.2634C297.464 30.2634 297.665 30.2184 297.851 30.1284C298.043 30.0384 298.211 29.9154 298.355 29.7594C298.499 29.5974 298.61 29.4114 298.688 29.2014C298.772 28.9854 298.814 28.7544 298.814 28.5084C298.814 28.2684 298.772 28.0434 298.688 27.8334C298.61 27.6174 298.499 27.4314 298.355 27.2754C298.211 27.1134 298.043 26.9874 297.851 26.8974C297.665 26.8074 297.464 26.7624 297.248 26.7624C297.032 26.7624 296.828 26.8104 296.636 26.9064C296.45 26.9964 296.285 27.1224 296.141 27.2844C296.003 27.4404 295.892 27.6264 295.808 27.8424C295.73 28.0524 295.691 28.2804 295.691 28.5264ZM303.067 26.8524C302.671 26.8644 302.32 26.9664 302.014 27.1584C301.714 27.3504 301.501 27.6174 301.375 27.9594V30.8574H300.583V26.1594H301.321V27.2484C301.483 26.9244 301.696 26.6634 301.96 26.4654C302.224 26.2614 302.506 26.1474 302.806 26.1234C302.866 26.1234 302.917 26.1234 302.959 26.1234C303.001 26.1234 303.037 26.1264 303.067 26.1324V26.8524ZM310.38 25.1874H308.175V30.8574H307.365V25.1874H305.16V24.4674H310.38V25.1874ZM312.251 30.9474C311.897 30.9474 311.573 30.8844 311.279 30.7584C310.985 30.6264 310.733 30.4494 310.523 30.2274C310.313 30.0054 310.148 29.7474 310.028 29.4534C309.914 29.1534 309.857 28.8384 309.857 28.5084C309.857 28.1784 309.914 27.8664 310.028 27.5724C310.148 27.2784 310.313 27.0204 310.523 26.7984C310.739 26.5764 310.994 26.4024 311.288 26.2764C311.582 26.1444 311.906 26.0784 312.26 26.0784C312.614 26.0784 312.935 26.1444 313.223 26.2764C313.517 26.4084 313.766 26.5854 313.97 26.8074C314.174 27.0234 314.33 27.2784 314.438 27.5724C314.552 27.8604 314.609 28.1604 314.609 28.4724C314.609 28.5384 314.606 28.5984 314.6 28.6524C314.6 28.7064 314.597 28.7484 314.591 28.7784H310.694C310.712 29.0124 310.766 29.2254 310.856 29.4174C310.946 29.6094 311.063 29.7744 311.207 29.9124C311.351 30.0504 311.513 30.1584 311.693 30.2364C311.879 30.3144 312.074 30.3534 312.278 30.3534C312.422 30.3534 312.563 30.3354 312.701 30.2994C312.839 30.2574 312.968 30.2034 313.088 30.1374C313.208 30.0714 313.313 29.9904 313.403 29.8944C313.499 29.7984 313.571 29.6904 313.619 29.5704L314.303 29.7594C314.225 29.9334 314.117 30.0924 313.979 30.2364C313.847 30.3804 313.691 30.5064 313.511 30.6144C313.337 30.7164 313.142 30.7974 312.926 30.8574C312.71 30.9174 312.485 30.9474 312.251 30.9474ZM313.862 28.1934C313.844 27.9714 313.787 27.7674 313.691 27.5814C313.601 27.3894 313.484 27.2274 313.34 27.0954C313.202 26.9634 313.04 26.8614 312.854 26.7894C312.668 26.7114 312.47 26.6724 312.26 26.6724C312.05 26.6724 311.852 26.7114 311.666 26.7894C311.48 26.8614 311.315 26.9664 311.171 27.1044C311.033 27.2364 310.919 27.3954 310.829 27.5814C310.745 27.7674 310.694 27.9714 310.676 28.1934H313.862ZM317.974 26.8524C317.578 26.8644 317.227 26.9664 316.921 27.1584C316.621 27.3504 316.408 27.6174 316.282 27.9594V30.8574H315.49V26.1594H316.228V27.2484C316.39 26.9244 316.603 26.6634 316.867 26.4654C317.131 26.2614 317.413 26.1474 317.713 26.1234C317.773 26.1234 317.824 26.1234 317.866 26.1234C317.908 26.1234 317.944 26.1264 317.974 26.1324V26.8524ZM321.243 26.8524C320.847 26.8644 320.496 26.9664 320.19 27.1584C319.89 27.3504 319.677 27.6174 319.551 27.9594V30.8574H318.759V26.1594H319.497V27.2484C319.659 26.9244 319.872 26.6634 320.136 26.4654C320.4 26.2614 320.682 26.1474 320.982 26.1234C321.042 26.1234 321.093 26.1234 321.135 26.1234C321.177 26.1234 321.213 26.1264 321.243 26.1324V26.8524ZM323.235 30.9474C323.013 30.9474 322.806 30.9114 322.614 30.8394C322.422 30.7614 322.254 30.6564 322.11 30.5244C321.972 30.3924 321.861 30.2394 321.777 30.0654C321.699 29.8854 321.66 29.6904 321.66 29.4804C321.66 29.2644 321.708 29.0694 321.804 28.8954C321.9 28.7154 322.035 28.5624 322.209 28.4364C322.389 28.3104 322.599 28.2114 322.839 28.1394C323.085 28.0674 323.352 28.0314 323.64 28.0314C323.868 28.0314 324.099 28.0524 324.333 28.0944C324.567 28.1364 324.774 28.1934 324.954 28.2654V27.8874C324.954 27.5034 324.846 27.2034 324.63 26.9874C324.414 26.7654 324.108 26.6544 323.712 26.6544C323.238 26.6544 322.74 26.8374 322.218 27.2034L321.957 26.6904C322.563 26.2824 323.172 26.0784 323.784 26.0784C324.402 26.0784 324.882 26.2434 325.224 26.5734C325.572 26.9034 325.746 27.3684 325.746 27.9684V29.8854C325.746 30.0714 325.83 30.1674 325.998 30.1734V30.8574C325.914 30.8694 325.845 30.8784 325.791 30.8844C325.737 30.8904 325.68 30.8934 325.62 30.8934C325.464 30.8934 325.338 30.8484 325.242 30.7584C325.152 30.6624 325.098 30.5484 325.08 30.4164L325.062 30.0834C324.852 30.3654 324.585 30.5814 324.261 30.7314C323.943 30.8754 323.601 30.9474 323.235 30.9474ZM323.442 30.3534C323.724 30.3534 323.985 30.3024 324.225 30.2004C324.471 30.0924 324.657 29.9514 324.783 29.7774C324.897 29.6634 324.954 29.5464 324.954 29.4264V28.7334C324.57 28.5834 324.171 28.5084 323.757 28.5084C323.361 28.5084 323.037 28.5924 322.785 28.7604C322.539 28.9284 322.416 29.1474 322.416 29.4174C322.416 29.5494 322.44 29.6724 322.488 29.7864C322.542 29.9004 322.614 29.9994 322.704 30.0834C322.8 30.1674 322.911 30.2334 323.037 30.2814C323.163 30.3294 323.298 30.3534 323.442 30.3534ZM326.697 28.4994C326.697 28.1694 326.754 27.8574 326.868 27.5634C326.982 27.2694 327.144 27.0144 327.354 26.7984C327.564 26.5764 327.813 26.4024 328.101 26.2764C328.395 26.1444 328.722 26.0784 329.082 26.0784C329.55 26.0784 329.952 26.1834 330.288 26.3934C330.63 26.5974 330.888 26.8734 331.062 27.2214L330.288 27.4644C330.168 27.2424 330 27.0714 329.784 26.9514C329.568 26.8254 329.328 26.7624 329.064 26.7624C328.848 26.7624 328.644 26.8074 328.452 26.8974C328.26 26.9814 328.095 27.1014 327.957 27.2574C327.819 27.4134 327.708 27.5964 327.624 27.8064C327.546 28.0164 327.507 28.2474 327.507 28.4994C327.507 28.7454 327.549 28.9764 327.633 29.1924C327.717 29.4084 327.828 29.5974 327.966 29.7594C328.11 29.9154 328.275 30.0384 328.461 30.1284C328.653 30.2184 328.857 30.2634 329.073 30.2634C329.211 30.2634 329.346 30.2454 329.478 30.2094C329.616 30.1674 329.739 30.1134 329.847 30.0474C329.961 29.9814 330.06 29.9064 330.144 29.8224C330.228 29.7324 330.288 29.6364 330.324 29.5344L331.098 29.7684C331.026 29.9424 330.924 30.1014 330.792 30.2454C330.666 30.3894 330.516 30.5124 330.342 30.6144C330.168 30.7164 329.973 30.7974 329.757 30.8574C329.547 30.9174 329.325 30.9474 329.091 30.9474C328.737 30.9474 328.413 30.8814 328.119 30.7494C327.825 30.6174 327.573 30.4404 327.363 30.2184C327.153 29.9964 326.988 29.7384 326.868 29.4444C326.754 29.1444 326.697 28.8294 326.697 28.4994ZM334.031 30.9474C333.677 30.9474 333.353 30.8844 333.059 30.7584C332.765 30.6264 332.513 30.4494 332.303 30.2274C332.093 30.0054 331.928 29.7474 331.808 29.4534C331.694 29.1534 331.637 28.8384 331.637 28.5084C331.637 28.1784 331.694 27.8664 331.808 27.5724C331.928 27.2784 332.093 27.0204 332.303 26.7984C332.519 26.5764 332.774 26.4024 333.068 26.2764C333.362 26.1444 333.686 26.0784 334.04 26.0784C334.394 26.0784 334.715 26.1444 335.003 26.2764C335.297 26.4084 335.546 26.5854 335.75 26.8074C335.954 27.0234 336.11 27.2784 336.218 27.5724C336.332 27.8604 336.389 28.1604 336.389 28.4724C336.389 28.5384 336.386 28.5984 336.38 28.6524C336.38 28.7064 336.377 28.7484 336.371 28.7784H332.474C332.492 29.0124 332.545 29.2254 332.635 29.4174C332.726 29.6094 332.843 29.7744 332.987 29.9124C333.131 30.0504 333.293 30.1584 333.473 30.2364C333.659 30.3144 333.854 30.3534 334.058 30.3534C334.202 30.3534 334.343 30.3354 334.481 30.2994C334.619 30.2574 334.748 30.2034 334.868 30.1374C334.988 30.0714 335.093 29.9904 335.183 29.8944C335.279 29.7984 335.351 29.6904 335.399 29.5704L336.083 29.7594C336.005 29.9334 335.897 30.0924 335.759 30.2364C335.627 30.3804 335.471 30.5064 335.291 30.6144C335.117 30.7164 334.922 30.7974 334.706 30.8574C334.49 30.9174 334.265 30.9474 334.031 30.9474ZM335.642 28.1934C335.624 27.9714 335.567 27.7674 335.471 27.5814C335.381 27.3894 335.264 27.2274 335.12 27.0954C334.982 26.9634 334.82 26.8614 334.634 26.7894C334.448 26.7114 334.25 26.6724 334.04 26.6724C333.83 26.6724 333.632 26.7114 333.446 26.7894C333.26 26.8614 333.095 26.9664 332.951 27.1044C332.813 27.2364 332.699 27.3954 332.609 27.5814C332.525 27.7674 332.474 27.9714 332.456 28.1934H335.642Z" fill="#5C5C5C"/>
</g>
<g filter="url(#filter3_d)">
<path d="M240 79.3271C240 74.9089 243.582 71.3271 248 71.3271H362C366.418 71.3271 370 74.9089 370 79.3271V85.3271C370 89.7454 366.418 93.3271 362 93.3271H248C243.582 93.3271 240 89.7454 240 85.3271V79.3271Z" fill="white"/>
<path d="M286.517 82.1123C286.517 80.6045 286.921 79.4424 287.73 78.626C288.433 77.915 289.328 77.5596 290.414 77.5596C291.867 77.5596 292.929 78.0361 293.601 78.9893C293.972 79.5244 294.171 80.0615 294.199 80.6006H292.394C292.277 80.1865 292.127 79.874 291.943 79.6631C291.615 79.2881 291.128 79.1006 290.484 79.1006C289.828 79.1006 289.31 79.3662 288.931 79.8975C288.552 80.4248 288.363 81.1729 288.363 82.1416C288.363 83.1104 288.562 83.8369 288.961 84.3213C289.363 84.8018 289.873 85.042 290.49 85.042C291.123 85.042 291.605 84.835 291.937 84.4209C292.121 84.1982 292.273 83.8643 292.394 83.4189H294.181C294.025 84.3604 293.625 85.126 292.98 85.7158C292.339 86.3057 291.517 86.6006 290.513 86.6006C289.271 86.6006 288.294 86.2021 287.584 85.4053C286.873 84.6045 286.517 83.5068 286.517 82.1123ZM298.951 83.2549C298.845 83.3213 298.738 83.376 298.628 83.4189C298.523 83.458 298.377 83.4951 298.189 83.5303L297.814 83.6006C297.462 83.6631 297.211 83.7393 297.058 83.8291C296.8 83.9814 296.671 84.2178 296.671 84.5381C296.671 84.8232 296.75 85.0303 296.906 85.1592C297.066 85.2842 297.259 85.3467 297.486 85.3467C297.845 85.3467 298.175 85.2412 298.476 85.0303C298.781 84.8193 298.939 84.4346 298.951 83.876V83.2549ZM297.937 82.4756C298.246 82.4365 298.466 82.3877 298.599 82.3291C298.837 82.2275 298.957 82.0693 298.957 81.8545C298.957 81.5928 298.865 81.4131 298.681 81.3154C298.502 81.2139 298.236 81.1631 297.884 81.1631C297.49 81.1631 297.211 81.2607 297.046 81.4561C296.929 81.6006 296.851 81.7959 296.812 82.042H295.201C295.236 81.4834 295.392 81.0244 295.669 80.665C296.111 80.1025 296.869 79.8213 297.943 79.8213C298.642 79.8213 299.263 79.96 299.806 80.2373C300.349 80.5146 300.621 81.0381 300.621 81.8076V84.7373C300.621 84.9404 300.625 85.1865 300.632 85.4756C300.644 85.6943 300.677 85.8428 300.732 85.9209C300.787 85.999 300.869 86.0635 300.978 86.1143V86.3604H299.162C299.111 86.2314 299.076 86.1104 299.056 85.9971C299.037 85.8838 299.021 85.7549 299.009 85.6104C298.779 85.8604 298.513 86.0732 298.212 86.249C297.853 86.4561 297.447 86.5596 296.994 86.5596C296.416 86.5596 295.937 86.3955 295.558 86.0674C295.183 85.7354 294.996 85.2666 294.996 84.6611C294.996 83.876 295.298 83.3076 295.904 82.9561C296.236 82.7646 296.724 82.6279 297.369 82.5459L297.937 82.4756ZM303.814 86.3604H302.144V77.7236H303.814V86.3604ZM307.154 86.3604H305.484V77.7236H307.154V86.3604Z" fill="#246B6D"/>
<path d="M359.328 77.8813L357.647 76.2026C357.529 76.0836 357.388 75.9891 357.233 75.9247C357.078 75.8603 356.911 75.8271 356.743 75.8271C356.401 75.8271 356.079 75.9613 355.838 76.2026L354.03 78.0106C353.911 78.1292 353.816 78.27 353.752 78.4252C353.687 78.5803 353.654 78.7467 353.654 78.9146C353.654 79.257 353.788 79.5788 354.03 79.8202L355.352 81.1423C355.042 81.8244 354.612 82.445 354.082 82.974C353.553 83.5056 352.932 83.9374 352.25 84.2488L350.928 82.9267C350.81 82.8076 350.669 82.7132 350.514 82.6487C350.359 82.5843 350.192 82.5511 350.024 82.5512C349.682 82.5512 349.36 82.6853 349.119 82.9267L347.309 84.7331C347.19 84.8518 347.095 84.993 347.031 85.1484C346.966 85.3038 346.933 85.4704 346.934 85.6387C346.934 85.981 347.068 86.3029 347.309 86.5443L348.986 88.2213C349.371 88.6079 349.903 88.8271 350.449 88.8271C350.564 88.8271 350.674 88.8177 350.783 88.7988C352.91 88.4485 355.019 87.3173 356.721 85.6166C358.422 83.9174 359.552 81.8097 359.907 79.6767C360.014 79.0251 359.798 78.3546 359.328 77.8813V77.8813Z" fill="#246B6D" fill-opacity="0.5"/>
<path d="M248 72.3271H362V70.3271H248V72.3271ZM369 79.3271V85.3271H371V79.3271H369ZM362 92.3271H248V94.3271H362V92.3271ZM241 85.3271V79.3271H239V85.3271H241ZM248 92.3271C244.134 92.3271 241 89.1931 241 85.3271H239C239 90.2977 243.029 94.3271 248 94.3271V92.3271ZM369 85.3271C369 89.1931 365.866 92.3271 362 92.3271V94.3271C366.971 94.3271 371 90.2977 371 85.3271H369ZM362 72.3271C365.866 72.3271 369 75.4612 369 79.3271H371C371 74.3566 366.971 70.3271 362 70.3271V72.3271ZM248 70.3271C243.029 70.3271 239 74.3566 239 79.3271H241C241 75.4612 244.134 72.3271 248 72.3271V70.3271Z" fill="#246B6D"/>
</g>
<line x1="4.37114e-08" y1="99.5" x2="380" y2="99.5" stroke="#DADADA"/>
<path d="M89.5713 88.25H89.8213V88V81.93V81.704L89.5965 81.6813C87.7825 81.4976 86.0838 80.963 84.6913 80.1433C83.2985 79.3233 82.2753 78.2556 81.7215 77.0696C81.1692 75.8868 81.1013 74.625 81.5221 73.42C81.9371 72.2317 82.816 71.1325 84.0789 70.25H97.9211C99.184 71.1325 100.063 72.2317 100.478 73.42C100.899 74.625 100.831 75.8868 100.279 77.0696C99.7247 78.2556 98.7015 79.3233 97.3087 80.1433C95.9162 80.963 94.2175 81.4976 92.4035 81.6813L92.1787 81.704V81.93V88V88.25H92.4287H95.2861C95.6221 88.25 95.9335 88.3441 96.153 88.4977C96.3717 88.6508 96.4648 88.8357 96.4648 89C96.4648 89.1643 96.3717 89.3492 96.153 89.5023C95.9335 89.6559 95.6221 89.75 95.2861 89.75H86.7139C86.3779 89.75 86.0665 89.6559 85.847 89.5023C85.6283 89.3492 85.5352 89.1643 85.5352 89C85.5352 88.8357 85.6283 88.6508 85.847 88.4977C86.0665 88.3441 86.3779 88.25 86.7139 88.25H89.5713ZM83.6132 74.9422L83.54 75.25H83.8565H98.1435H98.46L98.3868 74.9422C98.0429 73.4962 97.5524 72.4376 96.8851 71.8169L96.8131 71.75H96.7148H85.2852H85.1869L85.1149 71.8169C84.4476 72.4376 83.9571 73.4962 83.6132 74.9422Z" fill="#246B6D" fill-opacity="0.7" stroke="#246B6D" stroke-width="0.5"/>
<g filter="url(#filter4_d)">
<path d="M20.6018 68.0111H17.8778V75.0791H16.2338V68.0111H13.5098V66.5591H20.6018V68.0111ZM27.3475 75.0791H25.7395V71.5511C25.7395 71.0551 25.6475 70.6911 25.4635 70.4591C25.2795 70.2191 25.0195 70.0991 24.6835 70.0991C24.5395 70.0991 24.3875 70.1311 24.2275 70.1951C24.0675 70.2591 23.9155 70.3511 23.7715 70.4711C23.6275 70.5831 23.4955 70.7191 23.3755 70.8791C23.2555 71.0391 23.1675 71.2151 23.1115 71.4071V75.0791H21.5035V66.3191H23.1115V69.9551C23.3435 69.5471 23.6555 69.2351 24.0475 69.0191C24.4475 68.7951 24.8875 68.6831 25.3675 68.6831C25.7755 68.6831 26.1075 68.7551 26.3635 68.8991C26.6195 69.0351 26.8195 69.2191 26.9635 69.4511C27.1075 69.6831 27.2075 69.9471 27.2635 70.2431C27.3195 70.5391 27.3475 70.8431 27.3475 71.1551V75.0791ZM31.6617 75.1991C31.1577 75.1991 30.7017 75.1151 30.2937 74.9471C29.8857 74.7711 29.5377 74.5351 29.2497 74.2391C28.9617 73.9431 28.7377 73.5991 28.5777 73.2071C28.4257 72.8151 28.3497 72.4031 28.3497 71.9711C28.3497 71.5231 28.4257 71.1031 28.5777 70.7111C28.7297 70.3111 28.9497 69.9631 29.2377 69.6671C29.5257 69.3631 29.8737 69.1231 30.2817 68.9471C30.6977 68.7711 31.1617 68.6831 31.6737 68.6831C32.1857 68.6831 32.6417 68.7711 33.0417 68.9471C33.4497 69.1231 33.7937 69.3591 34.0737 69.6551C34.3617 69.9511 34.5777 70.2951 34.7217 70.6871C34.8737 71.0791 34.9497 71.4871 34.9497 71.9111C34.9497 72.0151 34.9457 72.1151 34.9377 72.2111C34.9377 72.3071 34.9297 72.3871 34.9137 72.4511H30.0537C30.0777 72.6991 30.1377 72.9191 30.2337 73.1111C30.3297 73.3031 30.4537 73.4671 30.6057 73.6031C30.7577 73.7391 30.9297 73.8431 31.1217 73.9151C31.3137 73.9871 31.5137 74.0231 31.7217 74.0231C32.0417 74.0231 32.3417 73.9471 32.6217 73.7951C32.9097 73.6351 33.1057 73.4271 33.2097 73.1711L34.5897 73.5551C34.3577 74.0351 33.9857 74.4311 33.4737 74.7431C32.9697 75.0471 32.3657 75.1991 31.6617 75.1991ZM33.2937 71.4071C33.2537 70.9351 33.0777 70.5591 32.7657 70.2791C32.4617 69.9911 32.0897 69.8471 31.6497 69.8471C31.4337 69.8471 31.2297 69.8871 31.0377 69.9671C30.8537 70.0391 30.6897 70.1431 30.5457 70.2791C30.4017 70.4151 30.2817 70.5791 30.1857 70.7711C30.0977 70.9631 30.0457 71.1751 30.0297 71.4071H33.2937ZM35.8972 76.3031C36.0332 76.3431 36.1652 76.3711 36.2932 76.3871C36.4212 76.4111 36.5292 76.4231 36.6172 76.4231C36.7212 76.4231 36.8172 76.4031 36.9052 76.3631C36.9932 76.3231 37.0732 76.2511 37.1452 76.1471C37.2172 76.0511 37.2892 75.9151 37.3612 75.7391C37.4332 75.5631 37.5092 75.3431 37.5892 75.0791L35.1052 68.7911H36.7612L38.4652 73.6871L39.9772 68.7911H41.4892L38.8492 76.3271C38.6972 76.7671 38.4372 77.1271 38.0692 77.4071C37.7012 77.6871 37.2452 77.8271 36.7012 77.8271C36.5732 77.8271 36.4412 77.8151 36.3052 77.7911C36.1772 77.7751 36.0412 77.7431 35.8972 77.6951V76.3031ZM19.9178 88.0791H18.3098V84.5511C18.3098 84.0471 18.2218 83.6791 18.0458 83.4471C17.8698 83.2151 17.6258 83.0991 17.3138 83.0991C17.1538 83.0991 16.9898 83.1311 16.8218 83.1951C16.6538 83.2591 16.4938 83.3511 16.3418 83.4711C16.1978 83.5831 16.0658 83.7191 15.9458 83.8791C15.8258 84.0391 15.7378 84.2151 15.6818 84.4071V88.0791H14.0738V81.7911H15.5258V82.9551C15.7578 82.5551 16.0938 82.2431 16.5338 82.0191C16.9738 81.7951 17.4698 81.6831 18.0218 81.6831C18.4138 81.6831 18.7338 81.7551 18.9818 81.8991C19.2298 82.0431 19.4218 82.2311 19.5578 82.4631C19.6938 82.6951 19.7858 82.9591 19.8338 83.2551C19.8898 83.5511 19.9178 83.8511 19.9178 84.1551V88.0791ZM24.232 88.1991C23.728 88.1991 23.272 88.1151 22.864 87.9471C22.456 87.7711 22.108 87.5351 21.82 87.2391C21.532 86.9431 21.308 86.5991 21.148 86.2071C20.996 85.8151 20.92 85.4031 20.92 84.9711C20.92 84.5231 20.996 84.1031 21.148 83.7111C21.3 83.3111 21.52 82.9631 21.808 82.6671C22.096 82.3631 22.444 82.1231 22.852 81.9471C23.268 81.7711 23.732 81.6831 24.244 81.6831C24.756 81.6831 25.212 81.7711 25.612 81.9471C26.02 82.1231 26.364 82.3591 26.644 82.6551C26.932 82.9511 27.148 83.2951 27.292 83.6871C27.444 84.0791 27.52 84.4871 27.52 84.9111C27.52 85.0151 27.516 85.1151 27.508 85.2111C27.508 85.3071 27.5 85.3871 27.484 85.4511H22.624C22.648 85.6991 22.708 85.9191 22.804 86.1111C22.9 86.3031 23.024 86.4671 23.176 86.6031C23.328 86.7391 23.5 86.8431 23.692 86.9151C23.884 86.9871 24.084 87.0231 24.292 87.0231C24.612 87.0231 24.912 86.9471 25.192 86.7951C25.48 86.6351 25.676 86.4271 25.78 86.1711L27.16 86.5551C26.928 87.0351 26.556 87.4311 26.044 87.7431C25.54 88.0471 24.936 88.1991 24.232 88.1991ZM25.864 84.4071C25.824 83.9351 25.648 83.5591 25.336 83.2791C25.032 82.9911 24.66 82.8471 24.22 82.8471C24.004 82.8471 23.8 82.8871 23.608 82.9671C23.424 83.0391 23.26 83.1431 23.116 83.2791C22.972 83.4151 22.852 83.5791 22.756 83.7711C22.668 83.9631 22.616 84.1751 22.6 84.4071H25.864ZM31.4156 88.1991C30.9116 88.1991 30.4556 88.1151 30.0476 87.9471C29.6396 87.7711 29.2916 87.5351 29.0036 87.2391C28.7156 86.9431 28.4916 86.5991 28.3316 86.2071C28.1796 85.8151 28.1036 85.4031 28.1036 84.9711C28.1036 84.5231 28.1796 84.1031 28.3316 83.7111C28.4836 83.3111 28.7036 82.9631 28.9916 82.6671C29.2796 82.3631 29.6276 82.1231 30.0356 81.9471C30.4516 81.7711 30.9156 81.6831 31.4276 81.6831C31.9396 81.6831 32.3956 81.7711 32.7956 81.9471C33.2036 82.1231 33.5476 82.3591 33.8276 82.6551C34.1156 82.9511 34.3316 83.2951 34.4756 83.6871C34.6276 84.0791 34.7036 84.4871 34.7036 84.9111C34.7036 85.0151 34.6996 85.1151 34.6916 85.2111C34.6916 85.3071 34.6836 85.3871 34.6676 85.4511H29.8076C29.8316 85.6991 29.8916 85.9191 29.9876 86.1111C30.0836 86.3031 30.2076 86.4671 30.3596 86.6031C30.5116 86.7391 30.6836 86.8431 30.8756 86.9151C31.0676 86.9871 31.2676 87.0231 31.4756 87.0231C31.7956 87.0231 32.0956 86.9471 32.3756 86.7951C32.6636 86.6351 32.8596 86.4271 32.9636 86.1711L34.3436 86.5551C34.1116 87.0351 33.7396 87.4311 33.2276 87.7431C32.7236 88.0471 32.1196 88.1991 31.4156 88.1991ZM33.0476 84.4071C33.0076 83.9351 32.8316 83.5591 32.5196 83.2791C32.2156 82.9911 31.8436 82.8471 31.4036 82.8471C31.1876 82.8471 30.9836 82.8871 30.7916 82.9671C30.6076 83.0391 30.4436 83.1431 30.2996 83.2791C30.1556 83.4151 30.0356 83.5791 29.9396 83.7711C29.8516 83.9631 29.7996 84.1751 29.7836 84.4071H33.0476ZM38.2872 88.1991C37.8552 88.1991 37.4552 88.1151 37.0872 87.9471C36.7192 87.7791 36.4032 87.5471 36.1392 87.2511C35.8752 86.9551 35.6672 86.6111 35.5152 86.2191C35.3712 85.8191 35.2992 85.3911 35.2992 84.9351C35.2992 84.4791 35.3672 84.0551 35.5032 83.6631C35.6472 83.2711 35.8432 82.9271 36.0912 82.6311C36.3392 82.3351 36.6352 82.1031 36.9792 81.9351C37.3232 81.7671 37.6992 81.6831 38.1072 81.6831C38.5712 81.6831 38.9872 81.7951 39.3552 82.0191C39.7312 82.2431 40.0232 82.5351 40.2312 82.8951V79.3191H41.8392V86.2311C41.8392 86.3991 41.8672 86.5191 41.9232 86.5911C41.9792 86.6631 42.0752 86.7031 42.2112 86.7111V88.0791C41.9312 88.1351 41.7032 88.1631 41.5272 88.1631C41.2392 88.1631 41.0032 88.0911 40.8192 87.9471C40.6352 87.8031 40.5312 87.6151 40.5072 87.3831L40.4712 86.9871C40.2392 87.3871 39.9232 87.6911 39.5232 87.8991C39.1312 88.0991 38.7192 88.1991 38.2872 88.1991ZM38.7072 86.8311C38.8592 86.8311 39.0152 86.8071 39.1752 86.7591C39.3352 86.7031 39.4832 86.6271 39.6192 86.5311C39.7552 86.4351 39.8752 86.3231 39.9792 86.1951C40.0912 86.0671 40.1752 85.9271 40.2312 85.7751V84.2751C40.1672 84.0991 40.0752 83.9391 39.9552 83.7951C39.8432 83.6431 39.7112 83.5151 39.5592 83.4111C39.4152 83.2991 39.2592 83.2111 39.0912 83.1471C38.9312 83.0831 38.7712 83.0511 38.6112 83.0511C38.3712 83.0511 38.1472 83.1031 37.9392 83.2071C37.7392 83.3111 37.5672 83.4551 37.4232 83.6391C37.2792 83.8151 37.1672 84.0191 37.0872 84.2511C37.0072 84.4831 36.9672 84.7231 36.9672 84.9711C36.9672 85.2351 37.0112 85.4791 37.0992 85.7031C37.1872 85.9271 37.3072 86.1231 37.4592 86.2911C37.6112 86.4591 37.7912 86.5911 37.9992 86.6871C38.2152 86.7831 38.4512 86.8311 38.7072 86.8311ZM43.5135 83.5911V81.8631H44.8215V83.5911H43.5135ZM43.5135 88.0791V86.3511H44.8215V88.0791H43.5135Z" fill="#246B6D"/>
</g>
<line x1="220.25" y1="8.52637" x2="220.25" y2="89.166" stroke="#DADADA" stroke-width="0.5"/>
<line x1="220" y1="60.25" x2="10.9434" y2="60.25" stroke="#DADADA" stroke-width="0.5"/>
<path d="M257.45 12.0075L257.45 12.0091L259.638 19.0939C259.638 19.0943 259.638 19.0948 259.638 19.0952C259.71 19.3358 259.75 19.5989 259.75 19.8479V28.7979C259.75 29.7246 259.081 30.4229 258.333 30.4229C257.577 30.4229 256.917 29.7144 256.917 28.7979V28.1729V27.9229H256.667H243.333H243.083V28.1729V28.7979C243.083 29.7258 242.424 30.4229 241.667 30.4229C240.909 30.4229 240.25 29.7258 240.25 28.7979V19.8479C240.25 19.587 240.29 19.3363 240.362 19.0952L242.549 12.0108C242.55 12.0105 242.55 12.0102 242.55 12.01C242.757 11.3554 243.286 10.9229 243.889 10.9229H256.111C256.717 10.9229 257.254 11.3579 257.45 12.0075ZM241.982 18.102L241.888 18.4229H242.222H257.778H258.112L258.018 18.102L256.606 13.327L256.606 13.327L256.605 13.3236C256.423 12.7384 255.917 12.2979 255.311 12.2979H244.689C244.083 12.2979 243.577 12.7384 243.395 13.3236L243.395 13.3236L243.394 13.327L241.982 18.102ZM241.972 22.5479C241.972 23.6949 242.802 24.6729 243.889 24.6729C244.976 24.6729 245.806 23.6949 245.806 22.5479C245.806 21.4008 244.976 20.4229 243.889 20.4229C242.802 20.4229 241.972 21.4008 241.972 22.5479ZM254.194 22.5479C254.194 23.6949 255.024 24.6729 256.111 24.6729C257.198 24.6729 258.028 23.6949 258.028 22.5479C258.028 21.4008 257.198 20.4229 256.111 20.4229C255.024 20.4229 254.194 21.4008 254.194 22.5479Z" fill="#246B6D" fill-opacity="0.5" stroke="#246B6D" stroke-width="0.5"/>
<path d="M71.9062 84.3906H71.6562H56.9297C55.4497 84.3906 54.25 85.5903 54.25 87.0703C54.25 88.5503 55.4497 89.75 56.9297 89.75H72.2422C73.0749 89.75 73.75 89.0749 73.75 88.2422C73.75 87.4095 73.0749 86.7344 72.2422 86.7344H56.9469C56.7555 86.7344 56.6028 86.881 56.5942 87.053L71.9062 84.3906ZM71.9062 84.3906V84.1406M71.9062 84.3906V84.1406M71.9062 84.1406V73.1797M71.9062 84.1406V73.1797M71.9062 73.1797H72.2422C73.0701 73.1797 73.75 73.8537 73.75 74.6875V74.6897V74.6922V74.6949V74.6978V74.701V74.7043V74.7079V74.7117V74.7158V74.72V74.7245V74.7292V74.7341V74.7392V74.7446V74.7501V74.7559V74.7619V74.7681V74.7745V74.7811V74.7879V74.795V74.8022V74.8097V74.8173V74.8252V74.8333V74.8416V74.85V74.8587V74.8676V74.8767V74.886V74.8954V74.9051V74.915V74.9251V74.9353V74.9458V74.9564V74.9673V74.9783V74.9895V75.001V75.0126V75.0243V75.0363V75.0485V75.0608V75.0734V75.0861V75.099V75.1121V75.1253V75.1388V75.1524V75.1662V75.1802V75.1943V75.2086V75.2231V75.2378V75.2527V75.2677V75.2829V75.2982V75.3138V75.3295V75.3453V75.3614V75.3776V75.3939V75.4104V75.4271V75.444V75.461V75.4782V75.4955V75.513V75.5306V75.5484V75.5664V75.5845V75.6028V75.6212V75.6398V75.6585V75.6774V75.6964V75.7156V75.7349V75.7544V75.774V75.7938V75.8137V75.8337V75.8539V75.8742V75.8947V75.9153V75.9361V75.957V75.978V75.9992V76.0205V76.0419V76.0635V76.0852V76.107V76.129V76.1511V76.1733V76.1957V76.2181V76.2407V76.2635V76.2863V76.3093V76.3324V76.3556V76.379V76.4025V76.426V76.4497V76.4736V76.4975V76.5216V76.5457V76.57V76.5944V76.6189V76.6436V76.6683V76.6931V76.7181V76.7431V76.7683V76.7936V76.819V76.8444V76.87V76.8957V76.9215V76.9474V76.9734V76.9995V77.0257V77.052V77.0784V77.1048V77.1314V77.1581V77.1848V77.2117V77.2386V77.2657V77.2928V77.32V77.3473V77.3747V77.4022V77.4297V77.4574V77.4851V77.5129V77.5408V77.5687V77.5968V77.6249V77.6531V77.6814V77.7098V77.7382V77.7667V77.7953V77.8239V77.8526V77.8814V77.9103V77.9392V77.9682V77.9973V78.0264V78.0557V78.0849V78.1142V78.1436V78.1731V78.2026V78.2322V78.2618V78.2915V78.3213V78.3511V78.3809V78.4108V78.4408V78.4708V78.5009V78.531V78.5612V78.5914V78.6217V78.652V78.6824V78.7128V78.7433V78.7738V78.8043V78.8349V78.8656V78.8962V78.927V78.9577V78.9885V79.0193V79.0502V79.0811V79.112V79.143V79.174V79.205V79.2361V79.2672V79.2983V79.3294V79.3606V79.3918V79.423V79.4543V79.4856V79.5169V79.5482V79.5795V79.6109V79.6423V79.6737V79.7051V79.7365V79.768V79.7994V79.8309V79.8624V79.8939V79.9254V79.957V79.9885V80.02V80.0516V80.0832V80.1147V80.1463V80.1779V80.2095V80.241V80.2726V80.3042V80.3358V80.3674V80.3989V80.4305V80.4621V80.4937V80.5252V80.5568V80.5883V80.6199V80.6514V80.6829V80.7144V80.7459V80.7774V80.8089V80.8404V80.8718V80.9032V80.9346V80.966V80.9974V81.0288V81.0601V81.0914V81.1227V81.154V81.1852V81.2164V81.2476V81.2788V81.3099V81.341V81.3721V81.4032V81.4342V81.4652V81.4961V81.5271V81.5579V81.5888V81.6196V81.6504V81.6811V81.7118V81.7425V81.7731V81.8037V81.8342V81.8647V81.8951V81.9255V81.9559V81.9862V82.0165V82.0467V82.0768V82.1069V82.137V82.167V82.1969V82.2268V82.2567V82.2865V82.3162V82.3459V82.3755V82.405V82.4345V82.464V82.4933V82.5226V82.5519V82.581V82.6102V82.6392V82.6682V82.6971V82.7259V82.7547V82.7834V82.812V82.8406V82.869V82.8975V82.9258V82.954V82.9822V83.0103V83.0383V83.0663V83.0941V83.1219V83.1496V83.1772V83.2047V83.2322V83.2595V83.2868V83.314V83.3411V83.3681V83.395V83.4218V83.4485V83.4751V83.5017V83.5281V83.5545V83.5807V83.6069V83.6329V83.6589V83.6847V83.7105V83.7361V83.7617V83.7871V83.8125V83.8377V83.8628V83.8879V83.9128V83.9376V83.9623V83.9868V84.0113V84.0357V84.0599V84.084V84.1081V84.132V84.1557V84.1794V84.2029V84.2264V84.2497V84.2728V84.2959V84.3188V84.3417V84.3643V84.3869V84.4093V84.4316V84.4538V84.4759V84.4978V84.5196V84.5412V84.5627V84.5841V84.6054V84.6265V84.6475V84.6683V84.689V84.7096V84.73V84.7503V84.7704V84.7904V84.8103V84.83V84.8495V84.8689V84.8882V84.9073V84.9263V84.9451V84.9638V84.9823V85.0007V85.0189V85.0369V85.0548V85.0726V85.0902V85.1076V85.1249V85.142V85.159V85.1757V85.1924V85.2088V85.2251V85.2413V85.2572V85.273V85.2887V85.3042V85.3194V85.3346V85.3495V85.3643V85.3789V85.3934V85.4076V85.4217V85.4356V85.4433C73.3011 85.2005 72.7873 85.0625 72.2422 85.0625H56.9297C55.834 85.0625 54.941 85.944 54.9224 87.0355L71.9062 73.1797ZM54.25 74.1016C54.25 71.978 55.978 70.25 58.1016 70.25H70.2344V82.7188H56.9297C55.9196 82.7188 54.9887 83.0647 54.25 83.644V74.1016ZM56.9297 87.4062C56.739 87.4062 56.5846 87.2461 56.5942 87.053L54.9224 87.0355C54.9029 88.1642 55.8433 89.0781 56.961 89.0781H72.2422C72.7039 89.0781 73.0781 88.7039 73.0781 88.2422C73.0781 87.7805 72.7039 87.4062 72.2422 87.4062H56.9297Z" fill="#246B6D" fill-opacity="0.7" stroke="#246B6D" stroke-width="0.5"/>
<defs>
<filter id="filter0_d" x="5" y="0" width="202" height="62" filterUnits="userSpaceOnUse" color-interpolation-filters="sRGB">
<feFlood flood-opacity="0" result="BackgroundImageFix"/>
<feColorMatrix in="SourceAlpha" type="matrix" values="0 0 0 0 0 0 0 0 0 0 0 0 0 0 0 0 0 0 127 0"/>
<feOffset dy="1"/>
<feGaussianBlur stdDeviation="0.5"/>
<feColorMatrix type="matrix" values="0 0 0 0 0 0 0 0 0 0 0 0 0 0 0 0 0 0 0.25 0"/>
<feBlend mode="normal" in2="BackgroundImageFix" result="effect1_dropShadow"/>
<feBlend mode="normal" in="SourceGraphic" in2="effect1_dropShadow" result="shape"/>
</filter>
<filter id="filter1_d" x="239" y="43" width="132" height="24" filterUnits="userSpaceOnUse" color-interpolation-filters="sRGB">
<feFlood flood-opacity="0" result="BackgroundImageFix"/>
<feColorMatrix in="SourceAlpha" type="matrix" values="0 0 0 0 0 0 0 0 0 0 0 0 0 0 0 0 0 0 127 0"/>
<feOffset dy="1"/>
<feGaussianBlur stdDeviation="0.5"/>
<feColorMatrix type="matrix" values="0 0 0 0 0 0 0 0 0 0 0 0 0 0 0 0 0 0 0.25 0"/>
<feBlend mode="normal" in2="BackgroundImageFix" result="effect1_dropShadow"/>
<feBlend mode="normal" in="SourceGraphic" in2="effect1_dropShadow" result="shape"/>
</filter>
<filter id="filter2_d" x="266.707" y="13.2871" width="70.6805" height="19.66" filterUnits="userSpaceOnUse" color-interpolation-filters="sRGB">
<feFlood flood-opacity="0" result="BackgroundImageFix"/>
<feColorMatrix in="SourceAlpha" type="matrix" values="0 0 0 0 0 0 0 0 0 0 0 0 0 0 0 0 0 0 127 0"/>
<feOffset dy="1"/>
<feGaussianBlur stdDeviation="0.5"/>
<feColorMatrix type="matrix" values="0 0 0 0 0 0 0 0 0 0 0 0 0 0 0 0 0 0 0.25 0"/>
<feBlend mode="normal" in2="BackgroundImageFix" result="effect1_dropShadow"/>
<feBlend mode="normal" in="SourceGraphic" in2="effect1_dropShadow" result="shape"/>
</filter>
<filter id="filter3_d" x="239" y="71.3271" width="132" height="24" filterUnits="userSpaceOnUse" color-interpolation-filters="sRGB">
<feFlood flood-opacity="0" result="BackgroundImageFix"/>
<feColorMatrix in="SourceAlpha" type="matrix" values="0 0 0 0 0 0 0 0 0 0 0 0 0 0 0 0 0 0 127 0"/>
<feOffset dy="1"/>
<feGaussianBlur stdDeviation="0.5"/>
<feColorMatrix type="matrix" values="0 0 0 0 0 0 0 0 0 0 0 0 0 0 0 0 0 0 0.25 0"/>
<feBlend mode="normal" in2="BackgroundImageFix" result="effect1_dropShadow"/>
<feBlend mode="normal" in="SourceGraphic" in2="effect1_dropShadow" result="shape"/>
</filter>
<filter id="filter4_d" x="12.5098" y="66.3193" width="33.3118" height="23.88" filterUnits="userSpaceOnUse" color-interpolation-filters="sRGB">
<feFlood flood-opacity="0" result="BackgroundImageFix"/>
<feColorMatrix in="SourceAlpha" type="matrix" values="0 0 0 0 0 0 0 0 0 0 0 0 0 0 0 0 0 0 127 0"/>
<feOffset dy="1"/>
<feGaussianBlur stdDeviation="0.5"/>
<feColorMatrix type="matrix" values="0 0 0 0 0 0 0 0 0 0 0 0 0 0 0 0 0 0 0.25 0"/>
<feBlend mode="normal" in2="BackgroundImageFix" result="effect1_dropShadow"/>
<feBlend mode="normal" in="SourceGraphic" in2="effect1_dropShadow" result="shape"/>
</filter>
</defs>
</svg>
