<svg width="380" height="101" viewBox="0 0 380 101" fill="none" xmlns="http://www.w3.org/2000/svg">
<path d="M0 0.5H380V100.5H0V0.5Z" fill="white"/>
<g filter="url(#filter0_d)">
<path d="M19.9874 33.6109C19.9874 34.0309 19.9034 34.3995 19.7354 34.7169C19.5674 35.0342 19.334 35.3002 19.0354 35.5149C18.746 35.7295 18.4054 35.8929 18.0134 36.0049C17.6307 36.1169 17.22 36.1729 16.7814 36.1729H11.9794V26.2329H17.2994C17.6447 26.2329 17.9574 26.3075 18.2374 26.4569C18.5174 26.6062 18.7554 26.8022 18.9514 27.0449C19.1474 27.2782 19.2967 27.5489 19.3994 27.8569C19.5114 28.1555 19.5674 28.4589 19.5674 28.7669C19.5674 29.2522 19.446 29.7095 19.2034 30.1389C18.9607 30.5589 18.606 30.8715 18.1394 31.0769C18.7087 31.2449 19.1567 31.5482 19.4834 31.9869C19.8194 32.4162 19.9874 32.9575 19.9874 33.6109ZM18.0414 33.2469C18.0414 33.0695 18.0087 32.9015 17.9434 32.7429C17.8874 32.5749 17.808 32.4302 17.7054 32.3089C17.6027 32.1875 17.4814 32.0942 17.3414 32.0289C17.2014 31.9542 17.0474 31.9169 16.8794 31.9169H13.9114V34.5349H16.7814C16.9587 34.5349 17.122 34.5022 17.2714 34.4369C17.43 34.3715 17.5654 34.2829 17.6774 34.1709C17.7894 34.0495 17.878 33.9095 17.9434 33.7509C18.0087 33.5922 18.0414 33.4242 18.0414 33.2469ZM13.9114 27.8849V30.3909H16.4874C16.814 30.3909 17.0894 30.2789 17.3134 30.0549C17.5467 29.8309 17.6634 29.5229 17.6634 29.1309C17.6634 28.7482 17.556 28.4449 17.3414 28.2209C17.136 27.9969 16.8794 27.8849 16.5714 27.8849H13.9114ZM24.715 36.3129C24.127 36.3129 23.595 36.2149 23.119 36.0189C22.643 35.8135 22.237 35.5382 21.901 35.1929C21.565 34.8475 21.3037 34.4462 21.117 33.9889C20.9397 33.5315 20.851 33.0509 20.851 32.5469C20.851 32.0242 20.9397 31.5342 21.117 31.0769C21.2943 30.6102 21.551 30.2042 21.887 29.8589C22.223 29.5042 22.629 29.2242 23.105 29.0189C23.5903 28.8135 24.1317 28.7109 24.729 28.7109C25.3263 28.7109 25.8583 28.8135 26.325 29.0189C26.801 29.2242 27.2023 29.4995 27.529 29.8449C27.865 30.1902 28.117 30.5915 28.285 31.0489C28.4623 31.5062 28.551 31.9822 28.551 32.4769C28.551 32.5982 28.5463 32.7149 28.537 32.8269C28.537 32.9389 28.5277 33.0322 28.509 33.1069H22.839C22.867 33.3962 22.937 33.6529 23.049 33.8769C23.161 34.1009 23.3057 34.2922 23.483 34.4509C23.6603 34.6095 23.861 34.7309 24.085 34.8149C24.309 34.8989 24.5423 34.9409 24.785 34.9409C25.1583 34.9409 25.5083 34.8522 25.835 34.6749C26.171 34.4882 26.3997 34.2455 26.521 33.9469L28.131 34.3949C27.8603 34.9549 27.4263 35.4169 26.829 35.7809C26.241 36.1355 25.5363 36.3129 24.715 36.3129ZM26.619 31.8889C26.5723 31.3382 26.367 30.8995 26.003 30.5729C25.6483 30.2369 25.2143 30.0689 24.701 30.0689C24.449 30.0689 24.211 30.1155 23.987 30.2089C23.7723 30.2929 23.581 30.4142 23.413 30.5729C23.245 30.7315 23.105 30.9229 22.993 31.1469C22.8903 31.3709 22.8297 31.6182 22.811 31.8889H26.619ZM31.6958 36.3129C31.3412 36.3129 31.0098 36.2569 30.7018 36.1449C30.3938 36.0235 30.1278 35.8602 29.9038 35.6549C29.6798 35.4402 29.5025 35.1929 29.3718 34.9129C29.2505 34.6329 29.1898 34.3249 29.1898 33.9889C29.1898 33.6435 29.2645 33.3262 29.4138 33.0369C29.5725 32.7382 29.7872 32.4862 30.0578 32.2809C30.3378 32.0755 30.6692 31.9169 31.0518 31.8049C31.4345 31.6835 31.8545 31.6229 32.3118 31.6229C32.6385 31.6229 32.9558 31.6509 33.2638 31.7069C33.5812 31.7629 33.8612 31.8422 34.1038 31.9449V31.5249C34.1038 31.0395 33.9638 30.6662 33.6838 30.4049C33.4132 30.1435 33.0072 30.0129 32.4658 30.0129C32.0738 30.0129 31.6912 30.0829 31.3178 30.2229C30.9445 30.3629 30.5618 30.5682 30.1698 30.8389L29.5958 29.6489C30.5385 29.0235 31.5558 28.7109 32.6478 28.7109C33.7025 28.7109 34.5192 28.9722 35.0978 29.4949C35.6858 30.0082 35.9798 30.7549 35.9798 31.7349V34.0169C35.9798 34.2129 36.0125 34.3529 36.0778 34.4369C36.1525 34.5209 36.2692 34.5675 36.4278 34.5769V36.1729C36.1105 36.2382 35.8352 36.2709 35.6018 36.2709C35.2472 36.2709 34.9718 36.1915 34.7758 36.0329C34.5892 35.8742 34.4725 35.6642 34.4258 35.4029L34.3838 34.9969C34.0572 35.4262 33.6605 35.7529 33.1938 35.9769C32.7272 36.2009 32.2278 36.3129 31.6958 36.3129ZM32.2278 34.9409C32.5452 34.9409 32.8438 34.8849 33.1238 34.7729C33.4132 34.6609 33.6372 34.5115 33.7958 34.3249C34.0012 34.1662 34.1038 33.9889 34.1038 33.7929V32.9529C33.8798 32.8689 33.6372 32.8035 33.3758 32.7569C33.1145 32.7009 32.8625 32.6729 32.6198 32.6729C32.1345 32.6729 31.7378 32.7849 31.4298 33.0089C31.1218 33.2235 30.9678 33.4989 30.9678 33.8349C30.9678 34.1522 31.0892 34.4182 31.3318 34.6329C31.5745 34.8382 31.8732 34.9409 32.2278 34.9409ZM37.2709 32.5049C37.2709 31.9915 37.3596 31.5062 37.5369 31.0489C37.7142 30.5915 37.9709 30.1902 38.3069 29.8449C38.6429 29.4995 39.0489 29.2242 39.5249 29.0189C40.0009 28.8135 40.5376 28.7109 41.1349 28.7109C41.9376 28.7109 42.6189 28.8835 43.1789 29.2289C43.7482 29.5742 44.1729 30.0269 44.4529 30.5869L42.6189 31.1469C42.4602 30.8762 42.2502 30.6709 41.9889 30.5309C41.7276 30.3815 41.4382 30.3069 41.1209 30.3069C40.8502 30.3069 40.5982 30.3629 40.3649 30.4749C40.1316 30.5775 39.9262 30.7269 39.7489 30.9229C39.5809 31.1095 39.4456 31.3382 39.3429 31.6089C39.2496 31.8795 39.2029 32.1782 39.2029 32.5049C39.2029 32.8315 39.2542 33.1302 39.3569 33.4009C39.4596 33.6715 39.5949 33.9049 39.7629 34.1009C39.9402 34.2969 40.1456 34.4509 40.3789 34.5629C40.6122 34.6655 40.8596 34.7169 41.1209 34.7169C41.4569 34.7169 41.7649 34.6329 42.0449 34.4649C42.3342 34.2969 42.5349 34.0915 42.6469 33.8489L44.4809 34.4089C44.2289 34.9689 43.8136 35.4262 43.2349 35.7809C42.6562 36.1355 41.9609 36.3129 41.1489 36.3129C40.5516 36.3129 40.0149 36.2102 39.5389 36.0049C39.0629 35.7995 38.6569 35.5242 38.3209 35.1789C37.9849 34.8242 37.7236 34.4182 37.5369 33.9609C37.3596 33.4942 37.2709 33.0089 37.2709 32.5049ZM48.9549 36.3129C48.3576 36.3129 47.8209 36.2102 47.3449 36.0049C46.8689 35.7995 46.4629 35.5242 46.1269 35.1789C45.8002 34.8242 45.5482 34.4182 45.3709 33.9609C45.1936 33.5035 45.1049 33.0229 45.1049 32.5189C45.1049 32.0055 45.1936 31.5202 45.3709 31.0629C45.5482 30.6055 45.8002 30.2042 46.1269 29.8589C46.4629 29.5042 46.8689 29.2242 47.3449 29.0189C47.8209 28.8135 48.3576 28.7109 48.9549 28.7109C49.5522 28.7109 50.0842 28.8135 50.5509 29.0189C51.0269 29.2242 51.4282 29.5042 51.7549 29.8589C52.0909 30.2042 52.3476 30.6055 52.5249 31.0629C52.7022 31.5202 52.7909 32.0055 52.7909 32.5189C52.7909 33.0229 52.7022 33.5035 52.5249 33.9609C52.3476 34.4182 52.0956 34.8242 51.7689 35.1789C51.4422 35.5242 51.0409 35.7995 50.5649 36.0049C50.0889 36.2102 49.5522 36.3129 48.9549 36.3129ZM47.0369 32.5189C47.0369 32.8455 47.0836 33.1442 47.1769 33.4149C47.2796 33.6762 47.4149 33.9049 47.5829 34.1009C47.7602 34.2969 47.9656 34.4509 48.1989 34.5629C48.4322 34.6655 48.6842 34.7169 48.9549 34.7169C49.2256 34.7169 49.4776 34.6655 49.7109 34.5629C49.9442 34.4509 50.1449 34.2969 50.3129 34.1009C50.4902 33.9049 50.6256 33.6715 50.7189 33.4009C50.8216 33.1302 50.8729 32.8315 50.8729 32.5049C50.8729 32.1875 50.8216 31.8935 50.7189 31.6229C50.6256 31.3522 50.4902 31.1189 50.3129 30.9229C50.1449 30.7269 49.9442 30.5775 49.7109 30.4749C49.4776 30.3629 49.2256 30.3069 48.9549 30.3069C48.6842 30.3069 48.4322 30.3629 48.1989 30.4749C47.9656 30.5869 47.7602 30.7409 47.5829 30.9369C47.4149 31.1329 47.2796 31.3662 47.1769 31.6369C47.0836 31.9075 47.0369 32.2015 47.0369 32.5189ZM60.8751 36.1729H58.9991V32.0569C58.9991 31.4689 58.8965 31.0395 58.6911 30.7689C58.4858 30.4982 58.2011 30.3629 57.8371 30.3629C57.6505 30.3629 57.4591 30.4002 57.2631 30.4749C57.0671 30.5495 56.8805 30.6569 56.7031 30.7969C56.5351 30.9275 56.3811 31.0862 56.2411 31.2729C56.1011 31.4595 55.9985 31.6649 55.9331 31.8889V36.1729H54.0571V28.8369H55.7511V30.1949C56.0218 29.7282 56.4138 29.3642 56.9271 29.1029C57.4405 28.8415 58.0191 28.7109 58.6631 28.7109C59.1205 28.7109 59.4938 28.7949 59.7831 28.9629C60.0725 29.1309 60.2965 29.3502 60.4551 29.6209C60.6138 29.8915 60.7211 30.1995 60.7771 30.5449C60.8425 30.8902 60.8751 31.2402 60.8751 31.5949V36.1729ZM62.482 29.4669L62.79 27.7589H62.23V25.8689H64.12V27.7869L63.616 29.4669H62.482ZM68.2862 36.3129C67.6702 36.3129 67.0682 36.2149 66.4802 36.0189C65.8922 35.8229 65.3882 35.5429 64.9682 35.1789L65.6682 34.0029C66.1162 34.3202 66.5502 34.5629 66.9702 34.7309C67.3995 34.8895 67.8242 34.9689 68.2442 34.9689C68.6175 34.9689 68.9115 34.8989 69.1262 34.7589C69.3408 34.6189 69.4482 34.4182 69.4482 34.1569C69.4482 33.8955 69.3222 33.7042 69.0702 33.5829C68.8182 33.4615 68.4075 33.3215 67.8382 33.1629C67.3622 33.0322 66.9562 32.9062 66.6202 32.7849C66.2842 32.6635 66.0135 32.5282 65.8082 32.3789C65.6028 32.2202 65.4535 32.0429 65.3602 31.8469C65.2668 31.6415 65.2202 31.3989 65.2202 31.1189C65.2202 30.7455 65.2902 30.4095 65.4302 30.1109C65.5795 29.8122 65.7848 29.5602 66.0462 29.3549C66.3075 29.1402 66.6108 28.9769 66.9562 28.8649C67.3108 28.7529 67.6935 28.6969 68.1042 28.6969C68.6548 28.6969 69.1682 28.7762 69.6442 28.9349C70.1295 29.0935 70.5728 29.3502 70.9742 29.7049L70.2182 30.8389C69.8448 30.5589 69.4808 30.3535 69.1262 30.2229C68.7808 30.0922 68.4355 30.0269 68.0902 30.0269C67.7728 30.0269 67.5068 30.0922 67.2922 30.2229C67.0775 30.3535 66.9702 30.5635 66.9702 30.8529C66.9702 30.9835 66.9935 31.0909 67.0402 31.1749C67.0962 31.2589 67.1802 31.3335 67.2922 31.3989C67.4042 31.4642 67.5488 31.5295 67.7262 31.5949C67.9128 31.6509 68.1415 31.7115 68.4122 31.7769C68.9162 31.9075 69.3455 32.0382 69.7002 32.1689C70.0642 32.2995 70.3582 32.4489 70.5822 32.6169C70.8155 32.7849 70.9835 32.9809 71.0862 33.2049C71.1982 33.4195 71.2542 33.6809 71.2542 33.9889C71.2542 34.7075 70.9882 35.2769 70.4562 35.6969C69.9242 36.1075 69.2008 36.3129 68.2862 36.3129ZM75.4164 31.1329C75.4164 30.5262 75.5238 29.9289 75.7384 29.3409C75.9624 28.7435 76.2844 28.2115 76.7044 27.7449C77.1244 27.2782 77.6378 26.9002 78.2444 26.6109C78.8511 26.3215 79.5418 26.1769 80.3164 26.1769C81.2311 26.1769 82.0198 26.3775 82.6824 26.7789C83.3544 27.1802 83.8538 27.7029 84.1804 28.3469L82.6964 29.3689C82.5658 29.0889 82.4071 28.8555 82.2204 28.6689C82.0338 28.4729 81.8331 28.3189 81.6184 28.2069C81.4038 28.0949 81.1798 28.0155 80.9464 27.9689C80.7131 27.9129 80.4844 27.8849 80.2604 27.8849C79.7751 27.8849 79.3504 27.9829 78.9864 28.1789C78.6318 28.3749 78.3331 28.6315 78.0904 28.9489C77.8571 29.2569 77.6798 29.6115 77.5584 30.0129C77.4371 30.4049 77.3764 30.7969 77.3764 31.1889C77.3764 31.6275 77.4464 32.0522 77.5864 32.4629C77.7264 32.8642 77.9224 33.2189 78.1744 33.5269C78.4358 33.8349 78.7438 34.0822 79.0984 34.2689C79.4624 34.4555 79.8591 34.5489 80.2884 34.5489C80.5124 34.5489 80.7458 34.5209 80.9884 34.4649C81.2311 34.4089 81.4598 34.3202 81.6744 34.1989C81.8984 34.0775 82.1038 33.9235 82.2904 33.7369C82.4771 33.5409 82.6264 33.3075 82.7384 33.0369L84.3204 33.9469C84.1618 34.3202 83.9331 34.6515 83.6344 34.9409C83.3451 35.2209 83.0138 35.4589 82.6404 35.6549C82.2764 35.8509 81.8844 36.0002 81.4644 36.1029C81.0444 36.2055 80.6338 36.2569 80.2324 36.2569C79.5231 36.2569 78.8744 36.1075 78.2864 35.8089C77.6984 35.5102 77.1898 35.1229 76.7604 34.6469C76.3404 34.1615 76.0091 33.6155 75.7664 33.0089C75.5331 32.3929 75.4164 31.7675 75.4164 31.1329ZM85.4201 25.9529H87.2961V33.8209C87.2961 34.0915 87.3614 34.3015 87.4921 34.4509C87.6227 34.6002 87.8094 34.6749 88.0521 34.6749C88.1641 34.6749 88.2854 34.6562 88.4161 34.6189C88.5561 34.5815 88.6867 34.5349 88.8081 34.4789L89.0601 35.9069C88.8081 36.0282 88.5141 36.1215 88.1781 36.1869C87.8421 36.2522 87.5387 36.2849 87.2681 36.2849C86.6801 36.2849 86.2227 36.1309 85.8961 35.8229C85.5787 35.5055 85.4201 35.0575 85.4201 34.4789V25.9529ZM93.2654 36.3129C92.6681 36.3129 92.1314 36.2102 91.6554 36.0049C91.1794 35.7995 90.7734 35.5242 90.4374 35.1789C90.1108 34.8242 89.8588 34.4182 89.6814 33.9609C89.5041 33.5035 89.4154 33.0229 89.4154 32.5189C89.4154 32.0055 89.5041 31.5202 89.6814 31.0629C89.8588 30.6055 90.1108 30.2042 90.4374 29.8589C90.7734 29.5042 91.1794 29.2242 91.6554 29.0189C92.1314 28.8135 92.6681 28.7109 93.2654 28.7109C93.8628 28.7109 94.3948 28.8135 94.8614 29.0189C95.3374 29.2242 95.7388 29.5042 96.0654 29.8589C96.4014 30.2042 96.6581 30.6055 96.8354 31.0629C97.0128 31.5202 97.1014 32.0055 97.1014 32.5189C97.1014 33.0229 97.0128 33.5035 96.8354 33.9609C96.6581 34.4182 96.4061 34.8242 96.0794 35.1789C95.7528 35.5242 95.3514 35.7995 94.8754 36.0049C94.3994 36.2102 93.8628 36.3129 93.2654 36.3129ZM91.3474 32.5189C91.3474 32.8455 91.3941 33.1442 91.4874 33.4149C91.5901 33.6762 91.7254 33.9049 91.8934 34.1009C92.0708 34.2969 92.2761 34.4509 92.5094 34.5629C92.7428 34.6655 92.9948 34.7169 93.2654 34.7169C93.5361 34.7169 93.7881 34.6655 94.0214 34.5629C94.2548 34.4509 94.4554 34.2969 94.6234 34.1009C94.8008 33.9049 94.9361 33.6715 95.0294 33.4009C95.1321 33.1302 95.1834 32.8315 95.1834 32.5049C95.1834 32.1875 95.1321 31.8935 95.0294 31.6229C94.9361 31.3522 94.8008 31.1189 94.6234 30.9229C94.4554 30.7269 94.2548 30.5775 94.0214 30.4749C93.7881 30.3629 93.5361 30.3069 93.2654 30.3069C92.9948 30.3069 92.7428 30.3629 92.5094 30.4749C92.2761 30.5869 92.0708 30.7409 91.8934 30.9369C91.7254 31.1329 91.5901 31.3662 91.4874 31.6369C91.3941 31.9075 91.3474 32.2015 91.3474 32.5189ZM101.14 36.3129C100.524 36.3129 99.9217 36.2149 99.3337 36.0189C98.7457 35.8229 98.2417 35.5429 97.8217 35.1789L98.5217 34.0029C98.9697 34.3202 99.4037 34.5629 99.8237 34.7309C100.253 34.8895 100.678 34.9689 101.098 34.9689C101.471 34.9689 101.765 34.8989 101.98 34.7589C102.194 34.6189 102.302 34.4182 102.302 34.1569C102.302 33.8955 102.176 33.7042 101.924 33.5829C101.672 33.4615 101.261 33.3215 100.692 33.1629C100.216 33.0322 99.8097 32.9062 99.4737 32.7849C99.1377 32.6635 98.867 32.5282 98.6617 32.3789C98.4563 32.2202 98.307 32.0429 98.2137 31.8469C98.1203 31.6415 98.0737 31.3989 98.0737 31.1189C98.0737 30.7455 98.1437 30.4095 98.2837 30.1109C98.433 29.8122 98.6383 29.5602 98.8997 29.3549C99.161 29.1402 99.4643 28.9769 99.8097 28.8649C100.164 28.7529 100.547 28.6969 100.958 28.6969C101.508 28.6969 102.022 28.7762 102.498 28.9349C102.983 29.0935 103.426 29.3502 103.828 29.7049L103.072 30.8389C102.698 30.5589 102.334 30.3535 101.98 30.2229C101.634 30.0922 101.289 30.0269 100.944 30.0269C100.626 30.0269 100.36 30.0922 100.146 30.2229C99.931 30.3535 99.8237 30.5635 99.8237 30.8529C99.8237 30.9835 99.847 31.0909 99.8937 31.1749C99.9497 31.2589 100.034 31.3335 100.146 31.3989C100.258 31.4642 100.402 31.5295 100.58 31.5949C100.766 31.6509 100.995 31.7115 101.266 31.7769C101.77 31.9075 102.199 32.0382 102.554 32.1689C102.918 32.2995 103.212 32.4489 103.436 32.6169C103.669 32.7849 103.837 32.9809 103.94 33.2049C104.052 33.4195 104.108 33.6809 104.108 33.9889C104.108 34.7075 103.842 35.2769 103.31 35.6969C102.778 36.1075 102.054 36.3129 101.14 36.3129ZM108.729 36.3129C108.141 36.3129 107.609 36.2149 107.133 36.0189C106.657 35.8135 106.251 35.5382 105.915 35.1929C105.579 34.8475 105.317 34.4462 105.131 33.9889C104.953 33.5315 104.865 33.0509 104.865 32.5469C104.865 32.0242 104.953 31.5342 105.131 31.0769C105.308 30.6102 105.565 30.2042 105.901 29.8589C106.237 29.5042 106.643 29.2242 107.119 29.0189C107.604 28.8135 108.145 28.7109 108.743 28.7109C109.34 28.7109 109.872 28.8135 110.339 29.0189C110.815 29.2242 111.216 29.4995 111.543 29.8449C111.879 30.1902 112.131 30.5915 112.299 31.0489C112.476 31.5062 112.565 31.9822 112.565 32.4769C112.565 32.5982 112.56 32.7149 112.551 32.8269C112.551 32.9389 112.541 33.0322 112.523 33.1069H106.853C106.881 33.3962 106.951 33.6529 107.063 33.8769C107.175 34.1009 107.319 34.2922 107.497 34.4509C107.674 34.6095 107.875 34.7309 108.099 34.8149C108.323 34.8989 108.556 34.9409 108.799 34.9409C109.172 34.9409 109.522 34.8522 109.849 34.6749C110.185 34.4882 110.413 34.2455 110.535 33.9469L112.145 34.3949C111.874 34.9549 111.44 35.4169 110.843 35.7809C110.255 36.1355 109.55 36.3129 108.729 36.3129ZM110.633 31.8889C110.586 31.3382 110.381 30.8995 110.017 30.5729C109.662 30.2369 109.228 30.0689 108.715 30.0689C108.463 30.0689 108.225 30.1155 108.001 30.2089C107.786 30.2929 107.595 30.4142 107.427 30.5729C107.259 30.7315 107.119 30.9229 107.007 31.1469C106.904 31.3709 106.843 31.6182 106.825 31.8889H110.633ZM118.049 35.7949C117.797 35.9069 117.489 36.0189 117.125 36.1309C116.761 36.2429 116.378 36.2989 115.977 36.2989C115.715 36.2989 115.468 36.2662 115.235 36.2009C115.011 36.1355 114.81 36.0329 114.633 35.8929C114.465 35.7435 114.329 35.5569 114.227 35.3329C114.124 35.0995 114.073 34.8195 114.073 34.4929V30.2789H113.107V28.8369H114.073V26.4569H115.949V28.8369H117.489V30.2789H115.949V33.8629C115.949 34.1242 116.014 34.3109 116.145 34.4229C116.285 34.5255 116.453 34.5769 116.649 34.5769C116.845 34.5769 117.036 34.5442 117.223 34.4789C117.409 34.4135 117.559 34.3575 117.671 34.3109L118.049 35.7949Z" fill="#5C5C5C"/>
</g>
<g filter="url(#filter1_d)">
<path d="M240 51.5C240 47.0817 243.582 43.5 248 43.5H362C366.418 43.5 370 47.0817 370 51.5V57.5C370 61.9183 366.418 65.5 362 65.5H248C243.582 65.5 240 61.9183 240 57.5V51.5Z" fill="#246B6D"/>
<path d="M350.713 47.5L349 49.145L354.563 54.5L349 59.855L350.713 61.5L358 54.5L350.713 47.5Z" fill="white"/>
<path d="M270.293 51.3965V57.0332H271.957C272.808 57.0332 273.402 56.6133 273.738 55.7734C273.921 55.3125 274.013 54.7637 274.013 54.127C274.013 53.248 273.875 52.5742 273.597 52.1055C273.324 51.6328 272.777 51.3965 271.957 51.3965H270.293ZM272.261 49.8965C272.796 49.9043 273.242 49.9668 273.597 50.084C274.203 50.2832 274.693 50.6484 275.068 51.1797C275.369 51.6094 275.574 52.0742 275.683 52.5742C275.793 53.0742 275.847 53.5508 275.847 54.0039C275.847 55.1523 275.617 56.125 275.156 56.9219C274.531 57.9961 273.566 58.5332 272.261 58.5332H268.541V49.8965H272.261ZM278.794 51.3848H277.101V49.8438H278.794V51.3848ZM277.101 52.1465H278.794V58.5332H277.101V52.1465ZM283.886 51.9941C283.918 51.9941 283.943 51.9961 283.962 52C283.986 52 284.035 52.002 284.109 52.0059V53.7168C284.003 53.7051 283.91 53.6973 283.828 53.6934C283.746 53.6895 283.679 53.6875 283.628 53.6875C282.957 53.6875 282.505 53.9062 282.275 54.3438C282.146 54.5898 282.082 54.9688 282.082 55.4805V58.5332H280.4V52.1465H281.994V53.2598C282.252 52.834 282.476 52.543 282.668 52.3867C282.98 52.125 283.386 51.9941 283.886 51.9941ZM287.613 53.3535C287.226 53.3535 286.925 53.4746 286.711 53.7168C286.5 53.959 286.367 54.2871 286.312 54.7012H288.908C288.88 54.2598 288.746 53.9258 288.503 53.6992C288.265 53.4688 287.968 53.3535 287.613 53.3535ZM287.613 51.9766C288.144 51.9766 288.623 52.0762 289.048 52.2754C289.474 52.4746 289.826 52.7891 290.103 53.2188C290.353 53.5977 290.515 54.0371 290.589 54.5371C290.632 54.8301 290.65 55.252 290.642 55.8027H286.271C286.294 56.4434 286.496 56.8926 286.875 57.1504C287.105 57.3105 287.382 57.3906 287.707 57.3906C288.05 57.3906 288.33 57.293 288.544 57.0977C288.662 56.9922 288.765 56.8457 288.855 56.6582H290.56C290.517 57.0371 290.32 57.4219 289.968 57.8125C289.421 58.4336 288.656 58.7441 287.671 58.7441C286.859 58.7441 286.142 58.4824 285.521 57.959C284.9 57.4355 284.589 56.584 284.589 55.4043C284.589 54.2988 284.869 53.4512 285.427 52.8613C285.99 52.2715 286.718 51.9766 287.613 51.9766ZM295.587 54.4375C295.556 54.1992 295.476 53.9844 295.347 53.793C295.16 53.5352 294.869 53.4062 294.474 53.4062C293.912 53.4062 293.527 53.6855 293.32 54.2441C293.211 54.541 293.156 54.9355 293.156 55.4277C293.156 55.8965 293.211 56.2734 293.32 56.5586C293.519 57.0898 293.894 57.3555 294.445 57.3555C294.836 57.3555 295.113 57.25 295.277 57.0391C295.441 56.8281 295.541 56.5547 295.576 56.2188H297.281C297.242 56.7266 297.058 57.207 296.73 57.6602C296.207 58.3906 295.431 58.7559 294.404 58.7559C293.377 58.7559 292.621 58.4512 292.136 57.8418C291.652 57.2324 291.41 56.4414 291.41 55.4688C291.41 54.3711 291.677 53.5176 292.212 52.9082C292.748 52.2988 293.486 51.9941 294.427 51.9941C295.228 51.9941 295.882 52.1738 296.39 52.5332C296.902 52.8926 297.205 53.5273 297.298 54.4375H295.587ZM297.796 53.3945V52.2051H298.687V50.4238H300.339V52.2051H301.377V53.3945H300.339V56.7695C300.339 57.0312 300.373 57.1953 300.439 57.2617C300.505 57.3242 300.709 57.3555 301.048 57.3555C301.099 57.3555 301.152 57.3555 301.207 57.3555C301.265 57.3516 301.322 57.3477 301.377 57.3438V58.5918L300.586 58.6211C299.796 58.6484 299.257 58.5117 298.968 58.2109C298.781 58.0195 298.687 57.7246 298.687 57.3262V53.3945H297.796ZM304.166 51.3848H302.472V49.8438H304.166V51.3848ZM302.472 52.1465H304.166V58.5332H302.472V52.1465ZM308.654 57.3555C309.142 57.3555 309.517 57.1816 309.779 56.834C310.041 56.4863 310.171 55.9922 310.171 55.3516C310.171 54.7109 310.041 54.2188 309.779 53.875C309.517 53.5273 309.142 53.3535 308.654 53.3535C308.166 53.3535 307.789 53.5273 307.523 53.875C307.261 54.2188 307.13 54.7109 307.13 55.3516C307.13 55.9922 307.261 56.4863 307.523 56.834C307.789 57.1816 308.166 57.3555 308.654 57.3555ZM311.923 55.3516C311.923 56.2891 311.654 57.0918 311.115 57.7598C310.576 58.4238 309.757 58.7559 308.66 58.7559C307.562 58.7559 306.744 58.4238 306.205 57.7598C305.666 57.0918 305.396 56.2891 305.396 55.3516C305.396 54.4297 305.666 53.6309 306.205 52.9551C306.744 52.2793 307.562 51.9414 308.66 51.9414C309.757 51.9414 310.576 52.2793 311.115 52.9551C311.654 53.6309 311.923 54.4297 311.923 55.3516ZM316.664 51.9941C317.324 51.9941 317.863 52.168 318.281 52.5156C318.703 52.8594 318.914 53.4316 318.914 54.2324V58.5332H317.203V54.6484C317.203 54.3125 317.158 54.0547 317.068 53.875C316.904 53.5469 316.591 53.3828 316.13 53.3828C315.564 53.3828 315.175 53.623 314.964 54.1035C314.855 54.3574 314.8 54.6816 314.8 55.0762V58.5332H313.136V52.1582H314.748V53.0898C314.962 52.7617 315.166 52.5254 315.357 52.3809C315.701 52.123 316.136 51.9941 316.664 51.9941ZM321.761 56.4941C321.796 56.791 321.873 57.002 321.99 57.127C322.197 57.3496 322.58 57.4609 323.138 57.4609C323.466 57.4609 323.726 57.4121 323.918 57.3145C324.113 57.2168 324.211 57.0703 324.211 56.875C324.211 56.6875 324.132 56.5449 323.976 56.4473C323.82 56.3496 323.24 56.1816 322.236 55.9434C321.513 55.7637 321.003 55.5391 320.707 55.2695C320.41 55.0039 320.261 54.6211 320.261 54.1211C320.261 53.5312 320.492 53.0254 320.953 52.6035C321.418 52.1777 322.07 51.9648 322.91 51.9648C323.707 51.9648 324.355 52.125 324.855 52.4453C325.359 52.7617 325.648 53.3105 325.722 54.0918H324.052C324.029 53.877 323.968 53.707 323.871 53.582C323.687 53.3555 323.375 53.2422 322.933 53.2422C322.57 53.2422 322.31 53.2988 322.154 53.4121C322.002 53.5254 321.925 53.6582 321.925 53.8105C321.925 54.002 322.007 54.1406 322.171 54.2266C322.336 54.3164 322.916 54.4707 323.912 54.6895C324.576 54.8457 325.074 55.082 325.406 55.3984C325.734 55.7188 325.898 56.1191 325.898 56.5996C325.898 57.2324 325.662 57.75 325.189 58.1523C324.72 58.5508 323.994 58.75 323.009 58.75C322.005 58.75 321.263 58.5391 320.783 58.1172C320.306 57.6914 320.068 57.1504 320.068 56.4941H321.761Z" fill="white"/>
</g>
<g filter="url(#filter2_d)">
<path d="M240 79.8271C240 75.4089 243.582 71.8271 248 71.8271H362C366.418 71.8271 370 75.4089 370 79.8271V85.8271C370 90.2454 366.418 93.8271 362 93.8271H248C243.582 93.8271 240 90.2454 240 85.8271V79.8271Z" fill="white"/>
<path d="M286.517 82.6123C286.517 81.1045 286.921 79.9424 287.73 79.126C288.433 78.415 289.328 78.0596 290.414 78.0596C291.867 78.0596 292.929 78.5361 293.601 79.4893C293.972 80.0244 294.171 80.5615 294.199 81.1006H292.394C292.277 80.6865 292.127 80.374 291.943 80.1631C291.615 79.7881 291.128 79.6006 290.484 79.6006C289.828 79.6006 289.31 79.8662 288.931 80.3975C288.552 80.9248 288.363 81.6729 288.363 82.6416C288.363 83.6104 288.562 84.3369 288.961 84.8213C289.363 85.3018 289.873 85.542 290.49 85.542C291.123 85.542 291.605 85.335 291.937 84.9209C292.121 84.6982 292.273 84.3643 292.394 83.9189H294.181C294.025 84.8604 293.625 85.626 292.98 86.2158C292.339 86.8057 291.517 87.1006 290.513 87.1006C289.271 87.1006 288.294 86.7021 287.584 85.9053C286.873 85.1045 286.517 84.0068 286.517 82.6123ZM298.951 83.7549C298.845 83.8213 298.738 83.876 298.628 83.9189C298.523 83.958 298.377 83.9951 298.189 84.0303L297.814 84.1006C297.462 84.1631 297.211 84.2393 297.058 84.3291C296.8 84.4814 296.671 84.7178 296.671 85.0381C296.671 85.3232 296.75 85.5303 296.906 85.6592C297.066 85.7842 297.259 85.8467 297.486 85.8467C297.845 85.8467 298.175 85.7412 298.476 85.5303C298.781 85.3193 298.939 84.9346 298.951 84.376V83.7549ZM297.937 82.9756C298.246 82.9365 298.466 82.8877 298.599 82.8291C298.837 82.7275 298.957 82.5693 298.957 82.3545C298.957 82.0928 298.865 81.9131 298.681 81.8154C298.502 81.7139 298.236 81.6631 297.884 81.6631C297.49 81.6631 297.211 81.7607 297.046 81.9561C296.929 82.1006 296.851 82.2959 296.812 82.542H295.201C295.236 81.9834 295.392 81.5244 295.669 81.165C296.111 80.6025 296.869 80.3213 297.943 80.3213C298.642 80.3213 299.263 80.46 299.806 80.7373C300.349 81.0146 300.621 81.5381 300.621 82.3076V85.2373C300.621 85.4404 300.625 85.6865 300.632 85.9756C300.644 86.1943 300.677 86.3428 300.732 86.4209C300.787 86.499 300.869 86.5635 300.978 86.6143V86.8604H299.162C299.111 86.7314 299.076 86.6104 299.056 86.4971C299.037 86.3838 299.021 86.2549 299.009 86.1104C298.779 86.3604 298.513 86.5732 298.212 86.749C297.853 86.9561 297.447 87.0596 296.994 87.0596C296.416 87.0596 295.937 86.8955 295.558 86.5674C295.183 86.2354 294.996 85.7666 294.996 85.1611C294.996 84.376 295.298 83.8076 295.904 83.4561C296.236 83.2646 296.724 83.1279 297.369 83.0459L297.937 82.9756ZM303.814 86.8604H302.144V78.2236H303.814V86.8604ZM307.154 86.8604H305.484V78.2236H307.154V86.8604Z" fill="#246B6D"/>
<path d="M359.328 78.3813L357.647 76.7026C357.529 76.5836 357.388 76.4891 357.233 76.4247C357.078 76.3603 356.911 76.3271 356.743 76.3271C356.401 76.3271 356.079 76.4613 355.838 76.7026L354.03 78.5106C353.911 78.6292 353.816 78.77 353.752 78.9252C353.687 79.0803 353.654 79.2467 353.654 79.4146C353.654 79.757 353.788 80.0788 354.03 80.3202L355.352 81.6423C355.042 82.3244 354.612 82.945 354.082 83.474C353.553 84.0056 352.932 84.4374 352.25 84.7488L350.928 83.4267C350.81 83.3076 350.669 83.2132 350.514 83.1487C350.359 83.0843 350.192 83.0511 350.024 83.0512C349.682 83.0512 349.36 83.1853 349.119 83.4267L347.309 85.2331C347.19 85.3518 347.095 85.493 347.031 85.6484C346.966 85.8038 346.933 85.9704 346.934 86.1387C346.934 86.481 347.068 86.8029 347.309 87.0443L348.986 88.7213C349.371 89.1079 349.903 89.3271 350.449 89.3271C350.564 89.3271 350.674 89.3177 350.783 89.2988C352.91 88.9485 355.019 87.8173 356.721 86.1166C358.422 84.4174 359.552 82.3097 359.907 80.1767C360.014 79.5251 359.798 78.8546 359.328 78.3813V78.3813Z" fill="#246B6D" fill-opacity="0.5"/>
<path d="M248 72.8271H362V70.8271H248V72.8271ZM369 79.8271V85.8271H371V79.8271H369ZM362 92.8271H248V94.8271H362V92.8271ZM241 85.8271V79.8271H239V85.8271H241ZM248 92.8271C244.134 92.8271 241 89.6931 241 85.8271H239C239 90.7977 243.029 94.8271 248 94.8271V92.8271ZM369 85.8271C369 89.6931 365.866 92.8271 362 92.8271V94.8271C366.971 94.8271 371 90.7977 371 85.8271H369ZM362 72.8271C365.866 72.8271 369 75.9612 369 79.8271H371C371 74.8566 366.971 70.8271 362 70.8271V72.8271ZM248 70.8271C243.029 70.8271 239 74.8566 239 79.8271H241C241 75.9612 244.134 72.8271 248 72.8271V70.8271Z" fill="#246B6D"/>
</g>
<line x1="4.37114e-08" y1="100" x2="380" y2="100" stroke="#DADADA"/>
<g filter="url(#filter3_d)">
<path d="M20.6018 68.5111H17.8778V75.5791H16.2338V68.5111H13.5098V67.0591H20.6018V68.5111ZM27.3475 75.5791H25.7395V72.0511C25.7395 71.5551 25.6475 71.1911 25.4635 70.9591C25.2795 70.7191 25.0195 70.5991 24.6835 70.5991C24.5395 70.5991 24.3875 70.6311 24.2275 70.6951C24.0675 70.7591 23.9155 70.8511 23.7715 70.9711C23.6275 71.0831 23.4955 71.2191 23.3755 71.3791C23.2555 71.5391 23.1675 71.7151 23.1115 71.9071V75.5791H21.5035V66.8191H23.1115V70.4551C23.3435 70.0471 23.6555 69.7351 24.0475 69.5191C24.4475 69.2951 24.8875 69.1831 25.3675 69.1831C25.7755 69.1831 26.1075 69.2551 26.3635 69.3991C26.6195 69.5351 26.8195 69.7191 26.9635 69.9511C27.1075 70.1831 27.2075 70.4471 27.2635 70.7431C27.3195 71.0391 27.3475 71.3431 27.3475 71.6551V75.5791ZM31.6617 75.6991C31.1577 75.6991 30.7017 75.6151 30.2937 75.4471C29.8857 75.2711 29.5377 75.0351 29.2497 74.7391C28.9617 74.4431 28.7377 74.0991 28.5777 73.7071C28.4257 73.3151 28.3497 72.9031 28.3497 72.4711C28.3497 72.0231 28.4257 71.6031 28.5777 71.2111C28.7297 70.8111 28.9497 70.4631 29.2377 70.1671C29.5257 69.8631 29.8737 69.6231 30.2817 69.4471C30.6977 69.2711 31.1617 69.1831 31.6737 69.1831C32.1857 69.1831 32.6417 69.2711 33.0417 69.4471C33.4497 69.6231 33.7937 69.8591 34.0737 70.1551C34.3617 70.4511 34.5777 70.7951 34.7217 71.1871C34.8737 71.5791 34.9497 71.9871 34.9497 72.4111C34.9497 72.5151 34.9457 72.6151 34.9377 72.7111C34.9377 72.8071 34.9297 72.8871 34.9137 72.9511H30.0537C30.0777 73.1991 30.1377 73.4191 30.2337 73.6111C30.3297 73.8031 30.4537 73.9671 30.6057 74.1031C30.7577 74.2391 30.9297 74.3431 31.1217 74.4151C31.3137 74.4871 31.5137 74.5231 31.7217 74.5231C32.0417 74.5231 32.3417 74.4471 32.6217 74.2951C32.9097 74.1351 33.1057 73.9271 33.2097 73.6711L34.5897 74.0551C34.3577 74.5351 33.9857 74.9311 33.4737 75.2431C32.9697 75.5471 32.3657 75.6991 31.6617 75.6991ZM33.2937 71.9071C33.2537 71.4351 33.0777 71.0591 32.7657 70.7791C32.4617 70.4911 32.0897 70.3471 31.6497 70.3471C31.4337 70.3471 31.2297 70.3871 31.0377 70.4671C30.8537 70.5391 30.6897 70.6431 30.5457 70.7791C30.4017 70.9151 30.2817 71.0791 30.1857 71.2711C30.0977 71.4631 30.0457 71.6751 30.0297 71.9071H33.2937ZM35.8972 76.8031C36.0332 76.8431 36.1652 76.8711 36.2932 76.8871C36.4212 76.9111 36.5292 76.9231 36.6172 76.9231C36.7212 76.9231 36.8172 76.9031 36.9052 76.8631C36.9932 76.8231 37.0732 76.7511 37.1452 76.6471C37.2172 76.5511 37.2892 76.4151 37.3612 76.2391C37.4332 76.0631 37.5092 75.8431 37.5892 75.5791L35.1052 69.2911H36.7612L38.4652 74.1871L39.9772 69.2911H41.4892L38.8492 76.8271C38.6972 77.2671 38.4372 77.6271 38.0692 77.9071C37.7012 78.1871 37.2452 78.3271 36.7012 78.3271C36.5732 78.3271 36.4412 78.3151 36.3052 78.2911C36.1772 78.2751 36.0412 78.2431 35.8972 78.1951V76.8031ZM19.9178 88.5791H18.3098V85.0511C18.3098 84.5471 18.2218 84.1791 18.0458 83.9471C17.8698 83.7151 17.6258 83.5991 17.3138 83.5991C17.1538 83.5991 16.9898 83.6311 16.8218 83.6951C16.6538 83.7591 16.4938 83.8511 16.3418 83.9711C16.1978 84.0831 16.0658 84.2191 15.9458 84.3791C15.8258 84.5391 15.7378 84.7151 15.6818 84.9071V88.5791H14.0738V82.2911H15.5258V83.4551C15.7578 83.0551 16.0938 82.7431 16.5338 82.5191C16.9738 82.2951 17.4698 82.1831 18.0218 82.1831C18.4138 82.1831 18.7338 82.2551 18.9818 82.3991C19.2298 82.5431 19.4218 82.7311 19.5578 82.9631C19.6938 83.1951 19.7858 83.4591 19.8338 83.7551C19.8898 84.0511 19.9178 84.3511 19.9178 84.6551V88.5791ZM24.232 88.6991C23.728 88.6991 23.272 88.6151 22.864 88.4471C22.456 88.2711 22.108 88.0351 21.82 87.7391C21.532 87.4431 21.308 87.0991 21.148 86.7071C20.996 86.3151 20.92 85.9031 20.92 85.4711C20.92 85.0231 20.996 84.6031 21.148 84.2111C21.3 83.8111 21.52 83.4631 21.808 83.1671C22.096 82.8631 22.444 82.6231 22.852 82.4471C23.268 82.2711 23.732 82.1831 24.244 82.1831C24.756 82.1831 25.212 82.2711 25.612 82.4471C26.02 82.6231 26.364 82.8591 26.644 83.1551C26.932 83.4511 27.148 83.7951 27.292 84.1871C27.444 84.5791 27.52 84.9871 27.52 85.4111C27.52 85.5151 27.516 85.6151 27.508 85.7111C27.508 85.8071 27.5 85.8871 27.484 85.9511H22.624C22.648 86.1991 22.708 86.4191 22.804 86.6111C22.9 86.8031 23.024 86.9671 23.176 87.1031C23.328 87.2391 23.5 87.3431 23.692 87.4151C23.884 87.4871 24.084 87.5231 24.292 87.5231C24.612 87.5231 24.912 87.4471 25.192 87.2951C25.48 87.1351 25.676 86.9271 25.78 86.6711L27.16 87.0551C26.928 87.5351 26.556 87.9311 26.044 88.2431C25.54 88.5471 24.936 88.6991 24.232 88.6991ZM25.864 84.9071C25.824 84.4351 25.648 84.0591 25.336 83.7791C25.032 83.4911 24.66 83.3471 24.22 83.3471C24.004 83.3471 23.8 83.3871 23.608 83.4671C23.424 83.5391 23.26 83.6431 23.116 83.7791C22.972 83.9151 22.852 84.0791 22.756 84.2711C22.668 84.4631 22.616 84.6751 22.6 84.9071H25.864ZM31.4156 88.6991C30.9116 88.6991 30.4556 88.6151 30.0476 88.4471C29.6396 88.2711 29.2916 88.0351 29.0036 87.7391C28.7156 87.4431 28.4916 87.0991 28.3316 86.7071C28.1796 86.3151 28.1036 85.9031 28.1036 85.4711C28.1036 85.0231 28.1796 84.6031 28.3316 84.2111C28.4836 83.8111 28.7036 83.4631 28.9916 83.1671C29.2796 82.8631 29.6276 82.6231 30.0356 82.4471C30.4516 82.2711 30.9156 82.1831 31.4276 82.1831C31.9396 82.1831 32.3956 82.2711 32.7956 82.4471C33.2036 82.6231 33.5476 82.8591 33.8276 83.1551C34.1156 83.4511 34.3316 83.7951 34.4756 84.1871C34.6276 84.5791 34.7036 84.9871 34.7036 85.4111C34.7036 85.5151 34.6996 85.6151 34.6916 85.7111C34.6916 85.8071 34.6836 85.8871 34.6676 85.9511H29.8076C29.8316 86.1991 29.8916 86.4191 29.9876 86.6111C30.0836 86.8031 30.2076 86.9671 30.3596 87.1031C30.5116 87.2391 30.6836 87.3431 30.8756 87.4151C31.0676 87.4871 31.2676 87.5231 31.4756 87.5231C31.7956 87.5231 32.0956 87.4471 32.3756 87.2951C32.6636 87.1351 32.8596 86.9271 32.9636 86.6711L34.3436 87.0551C34.1116 87.5351 33.7396 87.9311 33.2276 88.2431C32.7236 88.5471 32.1196 88.6991 31.4156 88.6991ZM33.0476 84.9071C33.0076 84.4351 32.8316 84.0591 32.5196 83.7791C32.2156 83.4911 31.8436 83.3471 31.4036 83.3471C31.1876 83.3471 30.9836 83.3871 30.7916 83.4671C30.6076 83.5391 30.4436 83.6431 30.2996 83.7791C30.1556 83.9151 30.0356 84.0791 29.9396 84.2711C29.8516 84.4631 29.7996 84.6751 29.7836 84.9071H33.0476ZM38.2872 88.6991C37.8552 88.6991 37.4552 88.6151 37.0872 88.4471C36.7192 88.2791 36.4032 88.0471 36.1392 87.7511C35.8752 87.4551 35.6672 87.1111 35.5152 86.7191C35.3712 86.3191 35.2992 85.8911 35.2992 85.4351C35.2992 84.9791 35.3672 84.5551 35.5032 84.1631C35.6472 83.7711 35.8432 83.4271 36.0912 83.1311C36.3392 82.8351 36.6352 82.6031 36.9792 82.4351C37.3232 82.2671 37.6992 82.1831 38.1072 82.1831C38.5712 82.1831 38.9872 82.2951 39.3552 82.5191C39.7312 82.7431 40.0232 83.0351 40.2312 83.3951V79.8191H41.8392V86.7311C41.8392 86.8991 41.8672 87.0191 41.9232 87.0911C41.9792 87.1631 42.0752 87.2031 42.2112 87.2111V88.5791C41.9312 88.6351 41.7032 88.6631 41.5272 88.6631C41.2392 88.6631 41.0032 88.5911 40.8192 88.4471C40.6352 88.3031 40.5312 88.1151 40.5072 87.8831L40.4712 87.4871C40.2392 87.8871 39.9232 88.1911 39.5232 88.3991C39.1312 88.5991 38.7192 88.6991 38.2872 88.6991ZM38.7072 87.3311C38.8592 87.3311 39.0152 87.3071 39.1752 87.2591C39.3352 87.2031 39.4832 87.1271 39.6192 87.0311C39.7552 86.9351 39.8752 86.8231 39.9792 86.6951C40.0912 86.5671 40.1752 86.4271 40.2312 86.2751V84.7751C40.1672 84.5991 40.0752 84.4391 39.9552 84.2951C39.8432 84.1431 39.7112 84.0151 39.5592 83.9111C39.4152 83.7991 39.2592 83.7111 39.0912 83.6471C38.9312 83.5831 38.7712 83.5511 38.6112 83.5511C38.3712 83.5511 38.1472 83.6031 37.9392 83.7071C37.7392 83.8111 37.5672 83.9551 37.4232 84.1391C37.2792 84.3151 37.1672 84.5191 37.0872 84.7511C37.0072 84.9831 36.9672 85.2231 36.9672 85.4711C36.9672 85.7351 37.0112 85.9791 37.0992 86.2031C37.1872 86.4271 37.3072 86.6231 37.4592 86.7911C37.6112 86.9591 37.7912 87.0911 37.9992 87.1871C38.2152 87.2831 38.4512 87.3311 38.7072 87.3311ZM43.5135 84.0911V82.3631H44.8215V84.0911H43.5135ZM43.5135 88.5791V86.8511H44.8215V88.5791H43.5135Z" fill="#246B6D"/>
</g>
<line x1="220.25" y1="9.02637" x2="220.25" y2="89.666" stroke="#DADADA" stroke-width="0.5"/>
<line x1="220" y1="60.75" x2="10.9434" y2="60.75" stroke="#DADADA" stroke-width="0.5"/>
<g filter="url(#filter4_d)">
<path d="M272.667 17.7204C272.667 18.1164 272.61 18.4824 272.496 18.8184C272.382 19.1484 272.223 19.4364 272.019 19.6824C271.815 19.9224 271.572 20.1114 271.29 20.2494C271.014 20.3814 270.714 20.4474 270.39 20.4474C270.06 20.4474 269.754 20.3814 269.472 20.2494C269.196 20.1114 268.956 19.9224 268.752 19.6824C268.554 19.4364 268.398 19.1484 268.284 18.8184C268.17 18.4824 268.113 18.1164 268.113 17.7204C268.113 17.3244 268.17 16.9614 268.284 16.6314C268.398 16.2954 268.554 16.0074 268.752 15.7674C268.956 15.5214 269.196 15.3294 269.472 15.1914C269.754 15.0534 270.06 14.9844 270.39 14.9844C270.714 14.9844 271.014 15.0534 271.29 15.1914C271.572 15.3294 271.815 15.5214 272.019 15.7674C272.223 16.0074 272.382 16.2954 272.496 16.6314C272.61 16.9614 272.667 17.3244 272.667 17.7204ZM271.866 17.7204C271.866 17.4264 271.83 17.1564 271.758 16.9104C271.686 16.6644 271.584 16.4544 271.452 16.2804C271.32 16.1004 271.164 15.9624 270.984 15.8664C270.804 15.7704 270.606 15.7224 270.39 15.7224C270.168 15.7224 269.964 15.7704 269.778 15.8664C269.598 15.9624 269.442 16.1004 269.31 16.2804C269.184 16.4544 269.085 16.6644 269.013 16.9104C268.941 17.1564 268.905 17.4264 268.905 17.7204C268.905 18.0204 268.941 18.2934 269.013 18.5394C269.085 18.7794 269.184 18.9864 269.31 19.1604C269.442 19.3344 269.598 19.4694 269.778 19.5654C269.964 19.6614 270.168 19.7094 270.39 19.7094C270.606 19.7094 270.804 19.6614 270.984 19.5654C271.164 19.4694 271.32 19.3344 271.452 19.1604C271.584 18.9864 271.686 18.7794 271.758 18.5394C271.83 18.2934 271.866 18.0204 271.866 17.7204ZM273.731 20.3574V19.3494H274.397V20.3574H273.731ZM278.197 18.2334C278.581 18.2994 278.884 18.4764 279.106 18.7644C279.334 19.0524 279.448 19.4094 279.448 19.8354C279.448 20.1114 279.397 20.3634 279.295 20.5914C279.193 20.8194 279.046 21.0144 278.854 21.1764C278.668 21.3384 278.443 21.4614 278.179 21.5454C277.915 21.6354 277.621 21.6804 277.297 21.6804C276.841 21.6804 276.439 21.5934 276.091 21.4194C275.749 21.2514 275.482 21.0114 275.29 20.6994L275.821 20.1684C275.959 20.4144 276.145 20.6064 276.379 20.7444C276.613 20.8884 276.919 20.9604 277.297 20.9604C277.711 20.9604 278.035 20.8674 278.269 20.6814C278.509 20.4954 278.629 20.2134 278.629 19.8354C278.629 19.4574 278.5 19.1574 278.242 18.9354C277.99 18.7074 277.621 18.5934 277.135 18.5934H276.901V17.9274H277.153C277.585 17.9274 277.915 17.8254 278.143 17.6214C278.377 17.4114 278.494 17.1474 278.494 16.8294C278.494 16.5114 278.383 16.2744 278.161 16.1184C277.939 15.9624 277.66 15.8844 277.324 15.8844C276.994 15.8844 276.703 15.9564 276.451 16.1004C276.205 16.2384 276.013 16.4334 275.875 16.6854L275.389 16.1814C275.467 16.0314 275.572 15.8964 275.704 15.7764C275.842 15.6504 275.998 15.5424 276.172 15.4524C276.352 15.3624 276.544 15.2934 276.748 15.2454C276.958 15.1974 277.177 15.1734 277.405 15.1734C277.687 15.1734 277.945 15.2124 278.179 15.2904C278.419 15.3684 278.623 15.4764 278.791 15.6144C278.965 15.7524 279.097 15.9204 279.187 16.1184C279.283 16.3164 279.331 16.5354 279.331 16.7754C279.331 16.9554 279.304 17.1264 279.25 17.2884C279.202 17.4504 279.127 17.5974 279.025 17.7294C278.929 17.8614 278.809 17.9724 278.665 18.0624C278.527 18.1464 278.371 18.2034 278.197 18.2334ZM289.833 20.3574H289.041V17.7294C289.041 17.2374 288.96 16.8744 288.798 16.6404C288.642 16.4064 288.408 16.2894 288.096 16.2894C287.772 16.2894 287.481 16.4064 287.223 16.6404C286.971 16.8684 286.791 17.1654 286.683 17.5314V20.3574H285.891V17.7294C285.891 17.2254 285.813 16.8594 285.657 16.6314C285.501 16.4034 285.267 16.2894 284.955 16.2894C284.637 16.2894 284.349 16.4034 284.091 16.6314C283.833 16.8534 283.65 17.1504 283.542 17.5224V20.3574H282.75V15.6594H283.47V16.6674C283.662 16.3194 283.911 16.0524 284.217 15.8664C284.523 15.6744 284.868 15.5784 285.252 15.5784C285.648 15.5784 285.96 15.6864 286.188 15.9024C286.422 16.1124 286.566 16.3854 286.62 16.7214C287.04 15.9594 287.637 15.5784 288.411 15.5784C288.681 15.5784 288.906 15.6294 289.086 15.7314C289.272 15.8274 289.419 15.9654 289.527 16.1454C289.635 16.3194 289.713 16.5264 289.761 16.7664C289.809 17.0064 289.833 17.2674 289.833 17.5494V20.3574ZM291.065 20.3574V15.6594H291.857V20.3574H291.065ZM291.065 14.7774V13.7874H291.857V14.7774H291.065ZM293.157 13.7874H293.949V19.1424C293.949 19.3164 293.994 19.4544 294.084 19.5564C294.18 19.6524 294.312 19.7004 294.48 19.7004C294.546 19.7004 294.624 19.6914 294.714 19.6734C294.804 19.6494 294.888 19.6224 294.966 19.5924L295.092 20.2314C294.96 20.2854 294.804 20.3304 294.624 20.3664C294.444 20.4024 294.285 20.4204 294.147 20.4204C293.841 20.4204 293.598 20.3334 293.418 20.1594C293.244 19.9854 293.157 19.7424 293.157 19.4304V13.7874ZM297.793 20.4474C297.439 20.4474 297.115 20.3844 296.821 20.2584C296.527 20.1264 296.275 19.9494 296.065 19.7274C295.855 19.5054 295.69 19.2474 295.57 18.9534C295.456 18.6534 295.399 18.3384 295.399 18.0084C295.399 17.6784 295.456 17.3664 295.57 17.0724C295.69 16.7784 295.855 16.5204 296.065 16.2984C296.281 16.0764 296.536 15.9024 296.83 15.7764C297.124 15.6444 297.448 15.5784 297.802 15.5784C298.156 15.5784 298.477 15.6444 298.765 15.7764C299.059 15.9084 299.308 16.0854 299.512 16.3074C299.716 16.5234 299.872 16.7784 299.98 17.0724C300.094 17.3604 300.151 17.6604 300.151 17.9724C300.151 18.0384 300.148 18.0984 300.142 18.1524C300.142 18.2064 300.139 18.2484 300.133 18.2784H296.236C296.254 18.5124 296.308 18.7254 296.398 18.9174C296.488 19.1094 296.605 19.2744 296.749 19.4124C296.893 19.5504 297.055 19.6584 297.235 19.7364C297.421 19.8144 297.616 19.8534 297.82 19.8534C297.964 19.8534 298.105 19.8354 298.243 19.7994C298.381 19.7574 298.51 19.7034 298.63 19.6374C298.75 19.5714 298.855 19.4904 298.945 19.3944C299.041 19.2984 299.113 19.1904 299.161 19.0704L299.845 19.2594C299.767 19.4334 299.659 19.5924 299.521 19.7364C299.389 19.8804 299.233 20.0064 299.053 20.1144C298.879 20.2164 298.684 20.2974 298.468 20.3574C298.252 20.4174 298.027 20.4474 297.793 20.4474ZM299.404 17.6934C299.386 17.4714 299.329 17.2674 299.233 17.0814C299.143 16.8894 299.026 16.7274 298.882 16.5954C298.744 16.4634 298.582 16.3614 298.396 16.2894C298.21 16.2114 298.012 16.1724 297.802 16.1724C297.592 16.1724 297.394 16.2114 297.208 16.2894C297.022 16.3614 296.857 16.4664 296.713 16.6044C296.575 16.7364 296.461 16.8954 296.371 17.0814C296.287 17.2674 296.236 17.4714 296.218 17.6934H299.404ZM302.679 20.4474C302.301 20.4474 301.929 20.3904 301.563 20.2764C301.197 20.1564 300.882 19.9854 300.618 19.7634L300.96 19.2324C301.236 19.4424 301.512 19.6014 301.788 19.7094C302.064 19.8114 302.355 19.8624 302.661 19.8624C303.003 19.8624 303.273 19.7964 303.471 19.6644C303.675 19.5264 303.777 19.3344 303.777 19.0884C303.777 18.9744 303.75 18.8784 303.696 18.8004C303.642 18.7164 303.561 18.6444 303.453 18.5844C303.345 18.5244 303.207 18.4704 303.039 18.4224C302.871 18.3744 302.676 18.3234 302.454 18.2694C302.172 18.1974 301.929 18.1284 301.725 18.0624C301.521 17.9964 301.353 17.9184 301.221 17.8284C301.089 17.7384 300.993 17.6304 300.933 17.5044C300.873 17.3784 300.843 17.2224 300.843 17.0364C300.843 16.8024 300.888 16.5954 300.978 16.4154C301.074 16.2294 301.203 16.0764 301.365 15.9564C301.527 15.8304 301.716 15.7374 301.932 15.6774C302.154 15.6114 302.391 15.5784 302.643 15.5784C302.997 15.5784 303.327 15.6354 303.633 15.7494C303.939 15.8634 304.197 16.0134 304.407 16.1994L304.047 16.6764C303.849 16.5024 303.627 16.3734 303.381 16.2894C303.135 16.1994 302.883 16.1544 302.625 16.1544C302.337 16.1544 302.091 16.2174 301.887 16.3434C301.689 16.4634 301.59 16.6584 301.59 16.9284C301.59 17.0364 301.608 17.1264 301.644 17.1984C301.686 17.2704 301.752 17.3334 301.842 17.3874C301.932 17.4414 302.046 17.4894 302.184 17.5314C302.328 17.5734 302.499 17.6184 302.697 17.6664C303.009 17.7384 303.279 17.8134 303.507 17.8914C303.741 17.9634 303.933 18.0504 304.083 18.1524C304.239 18.2544 304.353 18.3744 304.425 18.5124C304.503 18.6504 304.542 18.8184 304.542 19.0164C304.542 19.4544 304.374 19.8024 304.038 20.0604C303.702 20.3184 303.249 20.4474 302.679 20.4474ZM269.202 26.4794V31.3574H268.392V24.9674H269.022L272.982 29.9444V24.9764H273.792V31.3574H273.108L269.202 26.4794ZM277.165 31.4474C276.811 31.4474 276.487 31.3814 276.193 31.2494C275.905 31.1174 275.656 30.9404 275.446 30.7184C275.242 30.4964 275.083 30.2384 274.969 29.9444C274.855 29.6504 274.798 29.3414 274.798 29.0174C274.798 28.6874 274.855 28.3754 274.969 28.0814C275.089 27.7874 275.251 27.5294 275.455 27.3074C275.665 27.0854 275.914 26.9084 276.202 26.7764C276.496 26.6444 276.817 26.5784 277.165 26.5784C277.513 26.5784 277.834 26.6444 278.128 26.7764C278.422 26.9084 278.671 27.0854 278.875 27.3074C279.085 27.5294 279.247 27.7874 279.361 28.0814C279.481 28.3754 279.541 28.6874 279.541 29.0174C279.541 29.3414 279.484 29.6504 279.37 29.9444C279.256 30.2384 279.094 30.4964 278.884 30.7184C278.674 30.9404 278.422 31.1174 278.128 31.2494C277.84 31.3814 277.519 31.4474 277.165 31.4474ZM275.608 29.0264C275.608 29.2724 275.647 29.5004 275.725 29.7104C275.809 29.9204 275.92 30.1034 276.058 30.2594C276.202 30.4154 276.367 30.5384 276.553 30.6284C276.745 30.7184 276.949 30.7634 277.165 30.7634C277.381 30.7634 277.582 30.7184 277.768 30.6284C277.96 30.5384 278.128 30.4154 278.272 30.2594C278.416 30.0974 278.527 29.9114 278.605 29.7014C278.689 29.4854 278.731 29.2544 278.731 29.0084C278.731 28.7684 278.689 28.5434 278.605 28.3334C278.527 28.1174 278.416 27.9314 278.272 27.7754C278.128 27.6134 277.96 27.4874 277.768 27.3974C277.582 27.3074 277.381 27.2624 277.165 27.2624C276.949 27.2624 276.745 27.3104 276.553 27.4064C276.367 27.4964 276.202 27.6224 276.058 27.7844C275.92 27.9404 275.809 28.1264 275.725 28.3424C275.647 28.5524 275.608 28.7804 275.608 29.0264ZM282.984 27.3524C282.588 27.3644 282.237 27.4664 281.931 27.6584C281.631 27.8504 281.418 28.1174 281.292 28.4594V31.3574H280.5V26.6594H281.238V27.7484C281.4 27.4244 281.613 27.1634 281.877 26.9654C282.141 26.7614 282.423 26.6474 282.723 26.6234C282.783 26.6234 282.834 26.6234 282.876 26.6234C282.918 26.6234 282.954 26.6264 282.984 26.6324V27.3524ZM286.2 31.1234C286.152 31.1474 286.089 31.1774 286.011 31.2134C285.933 31.2434 285.843 31.2764 285.741 31.3124C285.645 31.3424 285.537 31.3664 285.417 31.3844C285.303 31.4084 285.183 31.4204 285.057 31.4204C284.769 31.4204 284.52 31.3424 284.31 31.1864C284.1 31.0244 283.995 30.7754 283.995 30.4394V27.2804H283.356V26.6594H283.995V25.0934H284.787V26.6594H285.84V27.2804H284.787V30.1964C284.799 30.3704 284.856 30.4964 284.958 30.5744C285.06 30.6524 285.18 30.6914 285.318 30.6914C285.474 30.6914 285.615 30.6674 285.741 30.6194C285.873 30.5654 285.963 30.5234 286.011 30.4934L286.2 31.1234ZM291.011 31.3574H290.219V28.7294C290.219 28.2434 290.135 27.8834 289.967 27.6494C289.799 27.4094 289.553 27.2894 289.229 27.2894C289.073 27.2894 288.917 27.3224 288.761 27.3884C288.605 27.4484 288.458 27.5324 288.32 27.6404C288.188 27.7484 288.068 27.8774 287.96 28.0274C287.858 28.1774 287.78 28.3424 287.726 28.5224V31.3574H286.934V24.7874H287.726V27.6674C287.912 27.3254 288.164 27.0584 288.482 26.8664C288.8 26.6744 289.148 26.5784 289.526 26.5784C289.802 26.5784 290.036 26.6294 290.228 26.7314C290.42 26.8334 290.573 26.9714 290.687 27.1454C290.801 27.3194 290.882 27.5294 290.93 27.7754C290.984 28.0154 291.011 28.2734 291.011 28.5494V31.3574ZM298.398 26.3084C298.326 26.2244 298.23 26.1434 298.11 26.0654C297.99 25.9874 297.855 25.9184 297.705 25.8584C297.555 25.7924 297.39 25.7414 297.21 25.7054C297.036 25.6634 296.853 25.6424 296.661 25.6424C296.163 25.6424 295.797 25.7354 295.563 25.9214C295.335 26.1074 295.221 26.3624 295.221 26.6864C295.221 26.8604 295.254 27.0044 295.32 27.1184C295.386 27.2324 295.488 27.3314 295.626 27.4154C295.77 27.4934 295.947 27.5624 296.157 27.6224C296.367 27.6824 296.616 27.7454 296.904 27.8114C297.234 27.8834 297.531 27.9674 297.795 28.0634C298.065 28.1534 298.293 28.2674 298.479 28.4054C298.671 28.5434 298.815 28.7114 298.911 28.9094C299.013 29.1074 299.064 29.3504 299.064 29.6384C299.064 29.9444 299.004 30.2114 298.884 30.4394C298.764 30.6614 298.599 30.8474 298.389 30.9974C298.185 31.1414 297.942 31.2494 297.66 31.3214C297.378 31.3874 297.072 31.4204 296.742 31.4204C296.25 31.4204 295.782 31.3454 295.338 31.1954C294.9 31.0394 294.501 30.8144 294.141 30.5204L294.528 29.8364C294.624 29.9384 294.747 30.0404 294.897 30.1424C295.053 30.2444 295.227 30.3374 295.419 30.4214C295.617 30.4994 295.827 30.5654 296.049 30.6194C296.277 30.6674 296.514 30.6914 296.76 30.6914C297.216 30.6914 297.57 30.6104 297.822 30.4484C298.074 30.2864 298.2 30.0434 298.2 29.7194C298.2 29.5394 298.158 29.3894 298.074 29.2694C297.996 29.1434 297.879 29.0354 297.723 28.9454C297.567 28.8554 297.372 28.7774 297.138 28.7114C296.91 28.6394 296.649 28.5674 296.355 28.4954C296.031 28.4174 295.746 28.3334 295.5 28.2434C295.254 28.1534 295.047 28.0454 294.879 27.9194C294.717 27.7934 294.594 27.6404 294.51 27.4604C294.426 27.2804 294.384 27.0644 294.384 26.8124C294.384 26.5064 294.441 26.2364 294.555 26.0024C294.669 25.7684 294.828 25.5704 295.032 25.4084C295.236 25.2464 295.479 25.1264 295.761 25.0484C296.043 24.9644 296.349 24.9224 296.679 24.9224C297.111 24.9224 297.501 24.9884 297.849 25.1204C298.197 25.2524 298.506 25.4294 298.776 25.6514L298.398 26.3084ZM300.021 24.7874H300.813V30.1424C300.813 30.3164 300.858 30.4544 300.948 30.5564C301.044 30.6524 301.176 30.7004 301.344 30.7004C301.41 30.7004 301.488 30.6914 301.578 30.6734C301.668 30.6494 301.752 30.6224 301.83 30.5924L301.956 31.2314C301.824 31.2854 301.668 31.3304 301.488 31.3664C301.308 31.4024 301.149 31.4204 301.011 31.4204C300.705 31.4204 300.462 31.3334 300.282 31.1594C300.108 30.9854 300.021 30.7424 300.021 30.4304V24.7874ZM304.63 31.4474C304.276 31.4474 303.952 31.3814 303.658 31.2494C303.37 31.1174 303.121 30.9404 302.911 30.7184C302.707 30.4964 302.548 30.2384 302.434 29.9444C302.32 29.6504 302.263 29.3414 302.263 29.0174C302.263 28.6874 302.32 28.3754 302.434 28.0814C302.554 27.7874 302.716 27.5294 302.92 27.3074C303.13 27.0854 303.379 26.9084 303.667 26.7764C303.961 26.6444 304.282 26.5784 304.63 26.5784C304.978 26.5784 305.299 26.6444 305.593 26.7764C305.887 26.9084 306.136 27.0854 306.34 27.3074C306.55 27.5294 306.712 27.7874 306.826 28.0814C306.946 28.3754 307.006 28.6874 307.006 29.0174C307.006 29.3414 306.949 29.6504 306.835 29.9444C306.721 30.2384 306.559 30.4964 306.349 30.7184C306.139 30.9404 305.887 31.1174 305.593 31.2494C305.305 31.3814 304.984 31.4474 304.63 31.4474ZM303.073 29.0264C303.073 29.2724 303.112 29.5004 303.19 29.7104C303.274 29.9204 303.385 30.1034 303.523 30.2594C303.667 30.4154 303.832 30.5384 304.018 30.6284C304.21 30.7184 304.414 30.7634 304.63 30.7634C304.846 30.7634 305.047 30.7184 305.233 30.6284C305.425 30.5384 305.593 30.4154 305.737 30.2594C305.881 30.0974 305.992 29.9114 306.07 29.7014C306.154 29.4854 306.196 29.2544 306.196 29.0084C306.196 28.7684 306.154 28.5434 306.07 28.3334C305.992 28.1174 305.881 27.9314 305.737 27.7754C305.593 27.6134 305.425 27.4874 305.233 27.3974C305.047 27.3074 304.846 27.2624 304.63 27.2624C304.414 27.2624 304.21 27.3104 304.018 27.4064C303.832 27.4964 303.667 27.6224 303.523 27.7844C303.385 27.9404 303.274 28.1264 303.19 28.3424C303.112 28.5524 303.073 28.7804 303.073 29.0264ZM310.495 31.4474C310.105 31.4474 309.76 31.3514 309.46 31.1594C309.166 30.9674 308.932 30.7244 308.758 30.4304V33.2744H307.966V26.6594H308.668V27.5414C308.854 27.2534 309.094 27.0224 309.388 26.8484C309.688 26.6684 310.018 26.5784 310.378 26.5784C310.702 26.5784 310.999 26.6444 311.269 26.7764C311.539 26.9084 311.773 27.0884 311.971 27.3164C312.169 27.5384 312.322 27.7964 312.43 28.0904C312.544 28.3844 312.601 28.6904 312.601 29.0084C312.601 29.3444 312.55 29.6624 312.448 29.9624C312.346 30.2564 312.202 30.5144 312.016 30.7364C311.83 30.9524 311.608 31.1264 311.35 31.2584C311.092 31.3844 310.807 31.4474 310.495 31.4474ZM310.252 30.7634C310.486 30.7634 310.696 30.7154 310.882 30.6194C311.074 30.5174 311.236 30.3854 311.368 30.2234C311.506 30.0554 311.611 29.8664 311.683 29.6564C311.755 29.4464 311.791 29.2304 311.791 29.0084C311.791 28.7744 311.749 28.5524 311.665 28.3424C311.581 28.1264 311.467 27.9404 311.323 27.7844C311.179 27.6224 311.008 27.4964 310.81 27.4064C310.618 27.3104 310.408 27.2624 310.18 27.2624C310.036 27.2624 309.886 27.2924 309.73 27.3524C309.58 27.4064 309.436 27.4814 309.298 27.5774C309.166 27.6674 309.049 27.7784 308.947 27.9104C308.851 28.0364 308.788 28.1714 308.758 28.3154V29.6564C308.824 29.8124 308.908 29.9594 309.01 30.0974C309.112 30.2294 309.229 30.3464 309.361 30.4484C309.493 30.5444 309.634 30.6224 309.784 30.6824C309.934 30.7364 310.09 30.7634 310.252 30.7634ZM315.653 31.4474C315.299 31.4474 314.975 31.3844 314.681 31.2584C314.387 31.1264 314.135 30.9494 313.925 30.7274C313.715 30.5054 313.55 30.2474 313.43 29.9534C313.316 29.6534 313.259 29.3384 313.259 29.0084C313.259 28.6784 313.316 28.3664 313.43 28.0724C313.55 27.7784 313.715 27.5204 313.925 27.2984C314.141 27.0764 314.396 26.9024 314.69 26.7764C314.984 26.6444 315.308 26.5784 315.662 26.5784C316.016 26.5784 316.337 26.6444 316.625 26.7764C316.919 26.9084 317.168 27.0854 317.372 27.3074C317.576 27.5234 317.732 27.7784 317.84 28.0724C317.954 28.3604 318.011 28.6604 318.011 28.9724C318.011 29.0384 318.008 29.0984 318.002 29.1524C318.002 29.2064 317.999 29.2484 317.993 29.2784H314.096C314.114 29.5124 314.168 29.7254 314.258 29.9174C314.348 30.1094 314.465 30.2744 314.609 30.4124C314.753 30.5504 314.915 30.6584 315.095 30.7364C315.281 30.8144 315.476 30.8534 315.68 30.8534C315.824 30.8534 315.965 30.8354 316.103 30.7994C316.241 30.7574 316.37 30.7034 316.49 30.6374C316.61 30.5714 316.715 30.4904 316.805 30.3944C316.901 30.2984 316.973 30.1904 317.021 30.0704L317.705 30.2594C317.627 30.4334 317.519 30.5924 317.381 30.7364C317.249 30.8804 317.093 31.0064 316.913 31.1144C316.739 31.2164 316.544 31.2974 316.328 31.3574C316.112 31.4174 315.887 31.4474 315.653 31.4474ZM317.264 28.6934C317.246 28.4714 317.189 28.2674 317.093 28.0814C317.003 27.8894 316.886 27.7274 316.742 27.5954C316.604 27.4634 316.442 27.3614 316.256 27.2894C316.07 27.2114 315.872 27.1724 315.662 27.1724C315.452 27.1724 315.254 27.2114 315.068 27.2894C314.882 27.3614 314.717 27.4664 314.573 27.6044C314.435 27.7364 314.321 27.8954 314.231 28.0814C314.147 28.2674 314.096 28.4714 314.078 28.6934H317.264Z" fill="#5C5C5C"/>
</g>
<path d="M85.3905 72.8288C85.6445 72.8288 85.8504 72.5419 85.8504 72.188C85.8504 71.8341 85.6445 71.5473 85.3905 71.5473C85.1364 71.5473 84.9305 71.8341 84.9305 72.188C84.9305 72.5419 85.1364 72.8288 85.3905 72.8288Z" fill="#246B6D" fill-opacity="0.7"/>
<path d="M100.5 82.2692C100.116 81.5727 99.5343 80.6461 99.079 80.5007C98.8277 80.2854 98.4394 80.1123 98.0234 79.9319L97.8114 79.8388C97.817 79.6454 97.7654 79.5054 97.6507 79.4127C96.9494 78.8477 96.238 78.0123 95.5547 77.0727C95.573 77.0173 95.5837 76.9573 95.5837 76.8927C95.5837 76.65 95.442 76.4534 95.2677 76.4534C95.2174 76.4534 95.1714 76.4584 95.1217 76.4592C94.9224 76.1674 94.7275 75.8716 94.5371 75.5719C94.5697 75.503 94.5934 75.425 94.5934 75.3365C94.5934 75.0934 94.4517 74.8969 94.2777 74.8969C94.2614 74.8969 94.2044 74.8973 94.1174 74.9011C93.8952 74.5372 93.6766 74.1704 93.4617 73.8007C93.4754 73.7519 93.4844 73.7 93.4844 73.645C93.4844 73.4019 93.3431 73.205 93.1691 73.205C93.1521 73.205 93.1367 73.2065 93.1204 73.2065C92.9179 72.8498 92.7171 72.4919 92.5181 72.1327C92.5281 72.0892 92.5377 72.0446 92.5377 71.9969C92.5377 71.7542 92.3957 71.5577 92.2221 71.5577L92.2001 71.5584C91.3881 70.0954 91.2404 69.8746 91.0154 69.8746C90.8668 69.8746 90.7288 69.8861 90.5944 69.9019C90.5438 69.7969 90.4921 69.695 90.4418 69.5884C90.2848 69.2569 89.9494 68.8604 89.2464 68.8604C88.1814 68.8604 86.7201 69.773 85.8625 70.3827C85.0495 69.9846 84.3581 69.7784 83.8138 69.7784C83.2581 69.7784 82.9995 69.9873 82.8911 70.1138C82.8845 70.1204 82.8765 70.1242 82.8701 70.1319C82.2708 70.8873 81.8852 72.2996 81.6375 73.6984C81.2428 75.1473 81.1998 76.3269 81.2062 76.8707C81.1817 76.9037 81.1607 76.9398 81.1435 76.9784C80.9132 77.5304 80.9602 79.6723 81.2842 80.1373C82.1152 81.3346 82.9655 82.1107 83.8658 82.9327C84.8841 83.8623 85.9368 84.8234 87.1741 86.5369C88.2401 88.0138 90.4594 88.8604 93.2637 88.8604C96.9997 88.8604 101 87.33 101 85.0527C101 82.5457 100.766 82.2811 100.5 82.2692ZM100.133 82.6561C99.4107 83.9488 96.057 84.6457 93.1044 84.6457C92.1187 84.6457 91.2487 84.5673 90.6538 84.4242C89.8298 84.2261 89.0534 83.8984 88.3254 83.493C89.0091 82.4607 90.2464 82.3004 91.5071 82.3004C91.9967 82.3004 92.5021 82.3257 93.0377 82.3534C93.5847 82.3811 94.1504 82.4096 94.7097 82.4096C96.0597 82.4096 97.7594 82.255 99.031 81.0746C99.2587 81.233 99.711 81.8842 100.133 82.6561ZM96.1684 79.1304C96.3614 79.3627 96.5434 79.583 96.6997 79.7796C96.9134 80.0488 97.3694 80.2469 97.8514 80.4565C98.1007 80.565 98.3517 80.6761 98.55 80.7888C97.4287 81.715 95.9897 81.8492 94.7097 81.8492C94.1874 81.8492 93.6554 81.823 93.1374 81.7965C93.1364 81.1838 93.0591 80.5607 92.9281 80.1792C93.6837 79.6669 94.7701 79.1734 96.1684 79.1304ZM94.7144 77.3534C94.9686 77.6737 95.2257 77.991 95.4854 78.3054C94.2241 78.4696 93.2351 78.9615 92.5297 79.4634C92.2826 79.0613 92.0334 78.6608 91.7824 78.2619C92.4501 77.8357 93.4051 77.4423 94.7144 77.3534ZM94.0834 76.5396C92.8777 76.7123 91.9827 77.13 91.3424 77.5727C91.1411 77.258 90.9434 76.9534 90.7508 76.66C91.7247 76.1204 92.8424 75.9096 93.5541 75.828C93.7341 76.0754 93.9097 76.3104 94.0834 76.5396ZM90.2951 75.9754C90.0543 75.6173 89.8104 75.262 89.5634 74.9096C90.2654 74.5596 91.2114 74.23 92.3864 74.1234C92.5824 74.4261 92.7826 74.7253 92.9867 75.0207C92.2044 75.1511 91.1911 75.4211 90.2951 75.9754ZM93.0434 74.0888C93.1904 74.3427 93.3421 74.6004 93.4987 74.8611C93.3221 74.6072 93.1484 74.3505 92.9777 74.0911C92.9997 74.0904 93.0211 74.0888 93.0434 74.0888ZM92.1107 72.4404C92.2494 72.69 92.3954 72.9515 92.5501 73.2265C92.5094 73.2288 92.4707 73.2342 92.4304 73.2373C92.2683 72.9756 92.1091 72.7116 91.9527 72.4454C92.0061 72.4438 92.0571 72.4411 92.1107 72.4404ZM89.0691 74.2211C88.8384 73.9046 88.6036 73.5921 88.3648 73.2838C89.0848 72.9242 90.0854 72.5827 91.3837 72.4746C91.5457 72.7569 91.7081 73.0319 91.8701 73.298C90.6884 73.4673 89.7531 73.8446 89.0691 74.2211ZM90.9477 70.4369C91.0657 70.5769 91.3327 71.0423 91.6317 71.5769C91.5757 71.58 91.5194 71.5827 91.4644 71.5865C91.2568 71.2098 91.0555 70.8286 90.8604 70.443C90.8901 70.4419 90.9171 70.4377 90.9477 70.4369ZM89.2464 69.4211C89.6231 69.4211 89.8741 69.5638 90.0134 69.8573C90.2997 70.4612 90.601 71.0554 90.9171 71.6392C89.5651 71.8088 88.5458 72.2219 87.8294 72.625C87.1281 71.7884 86.5355 71.2111 86.0565 70.9065C86.8598 70.3296 88.2774 69.4211 89.2464 69.4211ZM83.2571 70.4834C83.3085 70.4411 83.4668 70.3388 83.8135 70.3388C84.0821 70.3388 84.5121 70.4061 85.1425 70.6607C84.2965 70.7707 83.8285 71.5369 83.4511 72.1692C83.2085 72.5746 82.9805 72.9573 82.7671 72.9704C82.6365 72.778 82.8698 71.6023 83.2571 70.4834ZM82.2722 73.0069C82.2895 73.1146 82.3188 73.2084 82.3622 73.283C82.4515 73.435 82.5902 73.5177 82.7528 73.5177C83.2375 73.5177 83.5365 73.0169 83.8531 72.4861C84.2318 71.853 84.6228 71.1984 85.3468 71.1984C85.7515 71.1984 86.4515 71.7969 87.3784 72.898C87.1468 73.0527 86.9684 73.1938 86.8338 73.3088C86.7965 73.2943 86.7575 73.2866 86.7181 73.2857C86.4638 73.2857 86.2578 73.5727 86.2578 73.9265C86.2578 74.2804 86.4638 74.5673 86.7181 74.5673C86.9408 74.5673 87.1264 74.3469 87.1691 74.0538C87.4005 73.8603 87.6443 73.6875 87.8984 73.5369C88.1432 73.8494 88.3831 74.1669 88.6181 74.4892C88.4043 74.6264 88.1973 74.7773 87.9981 74.9411C87.9586 74.9248 87.9171 74.9161 87.8751 74.9154C87.6211 74.9154 87.4151 75.2019 87.4151 75.5561C87.4151 75.9104 87.6211 76.1969 87.8751 76.1969C88.0941 76.1969 88.2764 75.983 88.3231 75.6973C88.5707 75.4963 88.8305 75.3161 89.1004 75.158C89.3481 75.5077 89.6048 75.8773 89.8691 76.2688C89.5966 76.4764 89.3458 76.7197 89.1218 76.9938C89.1094 76.9923 89.0978 76.9888 89.0851 76.9888C88.8301 76.9888 88.6244 77.2757 88.6244 77.6296C88.6244 77.983 88.8301 78.2704 89.0851 78.2704C89.3341 78.2704 89.5364 77.9927 89.5431 77.6473C89.7705 77.3699 90.0297 77.1296 90.3134 76.933C90.5151 77.2384 90.7214 77.5542 90.9324 77.8811C90.6888 78.0836 90.4631 78.3134 90.2588 78.5673C90.2484 78.5665 90.2384 78.563 90.2281 78.563C89.9744 78.563 89.7681 78.8504 89.7681 79.2042C89.7681 79.5577 89.9744 79.845 90.2281 79.845C90.4794 79.845 90.6821 79.5642 90.6871 79.2161C90.8917 78.9692 91.1187 78.7483 91.3641 78.5573C91.6199 78.9617 91.8733 79.3682 92.1244 79.7765C91.8961 79.9647 91.6793 80.171 91.4757 80.3938C91.4544 80.3896 91.4334 80.385 91.4117 80.385C91.1571 80.385 90.9514 80.6723 90.9514 81.0257C90.9514 81.3796 91.1571 81.6665 91.4117 81.6665C91.6497 81.6665 91.8441 81.4123 91.8667 81.0877C92.0702 80.8682 92.2873 80.6662 92.5164 80.4834C92.6134 80.8004 92.6547 81.2957 92.6527 81.7734C92.2713 81.7531 91.8896 81.7417 91.5077 81.7392C90.0758 81.7392 88.6668 81.938 87.8821 83.235C85.7968 81.9477 84.1608 80.0404 83.0891 78.6419C83.1131 77.3942 82.8458 76.6146 82.5782 75.8688C82.3548 75.245 82.1442 74.6542 82.1215 73.7873C82.1665 73.5254 82.2162 73.263 82.2722 73.0069ZM82.1265 76.0823C82.3308 76.6519 82.5235 77.2073 82.5858 77.9715C82.4975 77.8511 82.4148 77.7377 82.3388 77.633C82.0018 77.1707 81.8238 76.9307 81.6938 76.8123C81.6954 76.2579 81.7398 75.7048 81.8265 75.1596C81.9138 75.49 82.0212 75.7888 82.1265 76.0823ZM93.2637 88.2996C90.6048 88.2996 88.5224 87.5265 87.5494 86.1792C86.2798 84.4204 85.1585 83.3969 84.1691 82.4934C83.2911 81.6923 82.4622 80.935 81.6652 79.788C81.5025 79.5396 81.4362 78.0073 81.5322 77.4119C81.6475 77.5584 81.8078 77.778 81.9645 77.9934C83.2628 79.7765 86.3035 83.9511 90.5544 84.973C91.1807 85.1234 92.0867 85.2061 93.1044 85.2061C95.3884 85.2061 99.265 84.758 100.429 83.148C100.471 83.4665 100.512 84.0377 100.512 85.0519C100.512 86.7519 97.057 88.2996 93.2637 88.2996Z" fill="#246B6D" fill-opacity="0.7"/>
<path d="M85.3905 72.8288C85.6445 72.8288 85.8504 72.5419 85.8504 72.188C85.8504 71.8341 85.6445 71.5473 85.3905 71.5473C85.1364 71.5473 84.9305 71.8341 84.9305 72.188C84.9305 72.5419 85.1364 72.8288 85.3905 72.8288Z" stroke="#246B6D" stroke-width="0.5"/>
<path d="M100.5 82.2692C100.116 81.5727 99.5343 80.6461 99.079 80.5007C98.8277 80.2854 98.4394 80.1123 98.0234 79.9319L97.8114 79.8388C97.817 79.6454 97.7654 79.5054 97.6507 79.4127C96.9494 78.8477 96.238 78.0123 95.5547 77.0727C95.573 77.0173 95.5837 76.9573 95.5837 76.8927C95.5837 76.65 95.442 76.4534 95.2677 76.4534C95.2174 76.4534 95.1714 76.4584 95.1217 76.4592C94.9224 76.1674 94.7275 75.8716 94.5371 75.5719C94.5697 75.503 94.5934 75.425 94.5934 75.3365C94.5934 75.0934 94.4517 74.8969 94.2777 74.8969C94.2614 74.8969 94.2044 74.8973 94.1174 74.9011C93.8952 74.5372 93.6766 74.1704 93.4617 73.8007C93.4754 73.7519 93.4844 73.7 93.4844 73.645C93.4844 73.4019 93.3431 73.205 93.1691 73.205C93.1521 73.205 93.1367 73.2065 93.1204 73.2065C92.9179 72.8498 92.7171 72.4919 92.5181 72.1327C92.5281 72.0892 92.5377 72.0446 92.5377 71.9969C92.5377 71.7542 92.3957 71.5577 92.2221 71.5577L92.2001 71.5584C91.3881 70.0954 91.2404 69.8746 91.0154 69.8746C90.8668 69.8746 90.7288 69.8861 90.5944 69.9019C90.5438 69.7969 90.4921 69.695 90.4418 69.5884C90.2848 69.2569 89.9494 68.8604 89.2464 68.8604C88.1814 68.8604 86.7201 69.773 85.8625 70.3827C85.0495 69.9846 84.3581 69.7784 83.8138 69.7784C83.2581 69.7784 82.9995 69.9873 82.8911 70.1138C82.8845 70.1204 82.8765 70.1242 82.8701 70.1319C82.2708 70.8873 81.8852 72.2996 81.6375 73.6984C81.2428 75.1473 81.1998 76.3269 81.2062 76.8707C81.1817 76.9037 81.1607 76.9398 81.1435 76.9784C80.9132 77.5304 80.9602 79.6723 81.2842 80.1373C82.1152 81.3346 82.9655 82.1107 83.8658 82.9327C84.8841 83.8623 85.9368 84.8234 87.1741 86.5369C88.2401 88.0138 90.4594 88.8604 93.2637 88.8604C96.9997 88.8604 101 87.33 101 85.0527C101 82.5457 100.766 82.2811 100.5 82.2692ZM100.133 82.6561C99.4107 83.9488 96.057 84.6457 93.1044 84.6457C92.1187 84.6457 91.2487 84.5673 90.6538 84.4242C89.8298 84.2261 89.0534 83.8984 88.3254 83.493C89.0091 82.4607 90.2464 82.3004 91.5071 82.3004C91.9967 82.3004 92.5021 82.3257 93.0377 82.3534C93.5847 82.3811 94.1504 82.4096 94.7097 82.4096C96.0597 82.4096 97.7594 82.255 99.031 81.0746C99.2587 81.233 99.711 81.8842 100.133 82.6561ZM96.1684 79.1304C96.3614 79.3627 96.5434 79.583 96.6997 79.7796C96.9134 80.0488 97.3694 80.2469 97.8514 80.4565C98.1007 80.565 98.3517 80.6761 98.55 80.7888C97.4287 81.715 95.9897 81.8492 94.7097 81.8492C94.1874 81.8492 93.6554 81.823 93.1374 81.7965C93.1364 81.1838 93.0591 80.5607 92.9281 80.1792C93.6837 79.6669 94.7701 79.1734 96.1684 79.1304ZM94.7144 77.3534C94.9686 77.6737 95.2257 77.991 95.4854 78.3054C94.2241 78.4696 93.2351 78.9615 92.5297 79.4634C92.2826 79.0613 92.0334 78.6608 91.7824 78.2619C92.4501 77.8357 93.4051 77.4423 94.7144 77.3534ZM94.0834 76.5396C92.8777 76.7123 91.9827 77.13 91.3424 77.5727C91.1411 77.258 90.9434 76.9534 90.7508 76.66C91.7247 76.1204 92.8424 75.9096 93.5541 75.828C93.7341 76.0754 93.9097 76.3104 94.0834 76.5396ZM90.2951 75.9754C90.0543 75.6173 89.8104 75.262 89.5634 74.9096C90.2654 74.5596 91.2114 74.23 92.3864 74.1234C92.5824 74.4261 92.7826 74.7253 92.9867 75.0207C92.2044 75.1511 91.1911 75.4211 90.2951 75.9754ZM93.0434 74.0888C93.1904 74.3427 93.3421 74.6004 93.4987 74.8611C93.3221 74.6072 93.1484 74.3505 92.9777 74.0911C92.9997 74.0904 93.0211 74.0888 93.0434 74.0888ZM92.1107 72.4404C92.2494 72.69 92.3954 72.9515 92.5501 73.2265C92.5094 73.2288 92.4707 73.2342 92.4304 73.2373C92.2683 72.9756 92.1091 72.7116 91.9527 72.4454C92.0061 72.4438 92.0571 72.4411 92.1107 72.4404ZM89.0691 74.2211C88.8384 73.9046 88.6036 73.5921 88.3648 73.2838C89.0848 72.9242 90.0854 72.5827 91.3837 72.4746C91.5457 72.7569 91.7081 73.0319 91.8701 73.298C90.6884 73.4673 89.7531 73.8446 89.0691 74.2211ZM90.9477 70.4369C91.0657 70.5769 91.3327 71.0423 91.6317 71.5769C91.5757 71.58 91.5194 71.5827 91.4644 71.5865C91.2568 71.2098 91.0555 70.8286 90.8604 70.443C90.8901 70.4419 90.9171 70.4377 90.9477 70.4369ZM89.2464 69.4211C89.6231 69.4211 89.8741 69.5638 90.0134 69.8573C90.2997 70.4612 90.601 71.0554 90.9171 71.6392C89.5651 71.8088 88.5458 72.2219 87.8294 72.625C87.1281 71.7884 86.5355 71.2111 86.0565 70.9065C86.8598 70.3296 88.2774 69.4211 89.2464 69.4211ZM83.2571 70.4834C83.3085 70.4411 83.4668 70.3388 83.8135 70.3388C84.0821 70.3388 84.5121 70.4061 85.1425 70.6607C84.2965 70.7707 83.8285 71.5369 83.4511 72.1692C83.2085 72.5746 82.9805 72.9573 82.7671 72.9704C82.6365 72.778 82.8698 71.6023 83.2571 70.4834ZM82.2722 73.0069C82.2895 73.1146 82.3188 73.2084 82.3622 73.283C82.4515 73.435 82.5902 73.5177 82.7528 73.5177C83.2375 73.5177 83.5365 73.0169 83.8531 72.4861C84.2318 71.853 84.6228 71.1984 85.3468 71.1984C85.7515 71.1984 86.4515 71.7969 87.3784 72.898C87.1468 73.0527 86.9684 73.1938 86.8338 73.3088C86.7965 73.2943 86.7575 73.2866 86.7181 73.2857C86.4638 73.2857 86.2578 73.5727 86.2578 73.9265C86.2578 74.2804 86.4638 74.5673 86.7181 74.5673C86.9408 74.5673 87.1264 74.3469 87.1691 74.0538C87.4005 73.8603 87.6443 73.6875 87.8984 73.5369C88.1432 73.8494 88.3831 74.1669 88.6181 74.4892C88.4043 74.6264 88.1973 74.7773 87.9981 74.9411C87.9586 74.9248 87.9171 74.9161 87.8751 74.9154C87.6211 74.9154 87.4151 75.2019 87.4151 75.5561C87.4151 75.9104 87.6211 76.1969 87.8751 76.1969C88.0941 76.1969 88.2764 75.983 88.3231 75.6973C88.5707 75.4963 88.8305 75.3161 89.1004 75.158C89.3481 75.5077 89.6048 75.8773 89.8691 76.2688C89.5966 76.4764 89.3458 76.7197 89.1218 76.9938C89.1094 76.9923 89.0978 76.9888 89.0851 76.9888C88.8301 76.9888 88.6244 77.2757 88.6244 77.6296C88.6244 77.983 88.8301 78.2704 89.0851 78.2704C89.3341 78.2704 89.5364 77.9927 89.5431 77.6473C89.7705 77.3699 90.0297 77.1296 90.3134 76.933C90.5151 77.2384 90.7214 77.5542 90.9324 77.8811C90.6888 78.0836 90.4631 78.3134 90.2588 78.5673C90.2484 78.5665 90.2384 78.563 90.2281 78.563C89.9744 78.563 89.7681 78.8504 89.7681 79.2042C89.7681 79.5577 89.9744 79.845 90.2281 79.845C90.4794 79.845 90.6821 79.5642 90.6871 79.2161C90.8917 78.9692 91.1187 78.7483 91.3641 78.5573C91.6199 78.9617 91.8733 79.3682 92.1244 79.7765C91.8961 79.9647 91.6793 80.171 91.4757 80.3938C91.4544 80.3896 91.4334 80.385 91.4117 80.385C91.1571 80.385 90.9514 80.6723 90.9514 81.0257C90.9514 81.3796 91.1571 81.6665 91.4117 81.6665C91.6497 81.6665 91.8441 81.4123 91.8667 81.0877C92.0702 80.8682 92.2873 80.6662 92.5164 80.4834C92.6134 80.8004 92.6547 81.2957 92.6527 81.7734C92.2713 81.7531 91.8896 81.7417 91.5077 81.7392C90.0758 81.7392 88.6668 81.938 87.8821 83.235C85.7968 81.9477 84.1608 80.0404 83.0891 78.6419C83.1131 77.3942 82.8458 76.6146 82.5782 75.8688C82.3548 75.245 82.1442 74.6542 82.1215 73.7873C82.1665 73.5254 82.2162 73.263 82.2722 73.0069ZM82.1265 76.0823C82.3308 76.6519 82.5235 77.2073 82.5858 77.9715C82.4975 77.8511 82.4148 77.7377 82.3388 77.633C82.0018 77.1707 81.8238 76.9307 81.6938 76.8123C81.6954 76.2579 81.7398 75.7048 81.8265 75.1596C81.9138 75.49 82.0212 75.7888 82.1265 76.0823ZM93.2637 88.2996C90.6048 88.2996 88.5224 87.5265 87.5494 86.1792C86.2798 84.4204 85.1585 83.3969 84.1691 82.4934C83.2911 81.6923 82.4622 80.935 81.6652 79.788C81.5025 79.5396 81.4362 78.0073 81.5322 77.4119C81.6475 77.5584 81.8078 77.778 81.9645 77.9934C83.2628 79.7765 86.3035 83.9511 90.5544 84.973C91.1807 85.1234 92.0867 85.2061 93.1044 85.2061C95.3884 85.2061 99.265 84.758 100.429 83.148C100.471 83.4665 100.512 84.0377 100.512 85.0519C100.512 86.7519 97.057 88.2996 93.2637 88.2996Z" stroke="#246B6D" stroke-width="0.5"/>
<g clip-path="url(#clip0)">
<path d="M63.1986 70.5788H64.8277C65.0022 70.5788 65.1435 70.4374 65.1435 70.263C65.1435 70.0886 65.0022 69.9473 64.8277 69.9473H63.1986C63.0241 69.9473 62.8828 70.0887 62.8828 70.263C62.8828 70.4374 63.0241 70.5788 63.1986 70.5788Z" fill="#246B6D"/>
<path d="M73.4045 76.3875L72.3179 71.9106C72.3071 71.8663 72.0428 70.8205 71.0038 70.3789C70.2517 70.0593 67.8731 69.1562 67.2775 68.9307C67.2233 68.8868 67.1542 68.8604 67.0789 68.8604H67.0337H60.9697C60.9596 68.8604 60.9496 68.8609 60.9395 68.8619C60.9351 68.8623 60.9309 68.863 60.9266 68.8636C60.9211 68.8644 60.9156 68.8651 60.9101 68.8662C60.9049 68.8671 60.8999 68.8684 60.8949 68.8696C60.8904 68.8707 60.8858 68.8718 60.8813 68.8731C60.8761 68.8746 60.871 68.8764 60.8659 68.8781C60.8633 68.8791 60.8606 68.8797 60.858 68.8807C60.7353 68.9271 57.8435 70.0202 56.9996 70.3789C56.0006 70.8035 55.7179 71.7861 55.688 71.9006V71.9006C55.6875 71.9027 55.6866 71.9061 55.6866 71.9061C55.686 71.9081 55.6854 71.9105 55.6854 71.9105L54.9133 75.092L54.5988 76.3875C54.5617 76.5404 54.6428 76.6973 54.7891 76.7555L57.8934 77.9887V87.2608V88.5446C57.8934 88.719 58.0348 88.8604 58.2092 88.8604H69.7941C69.9685 88.8604 70.1099 88.719 70.1099 88.5446V87.2608V81.2482C70.1099 81.0737 69.9685 80.9324 69.7941 80.9324C69.6196 80.9324 69.4783 81.0738 69.4783 81.2482V86.945H61.7173C61.5428 86.945 61.4015 87.0863 61.4015 87.2607C61.4015 87.4352 61.5428 87.5765 61.7173 87.5765H69.4783V88.2288H58.5251V87.5765H60.6647C60.8391 87.5765 60.9804 87.4351 60.9804 87.2607C60.9804 87.0863 60.8391 86.945 60.6647 86.945H58.5251V77.7743V76.4201V73.9731C58.5251 73.9155 58.5093 73.859 58.4795 73.8097L56.8869 71.1759C56.9897 71.0933 57.1089 71.0187 57.2467 70.9602C57.8932 70.6854 59.8319 69.9458 60.6785 69.6243C60.8815 71.4906 62.331 72.9915 64.0244 72.9915C65.7126 72.9915 67.1587 71.4994 67.3685 69.6408C68.2363 69.9705 70.1211 70.69 70.7568 70.9601C70.8946 71.0187 71.0137 71.0932 71.1165 71.1759L69.524 73.8096C69.4942 73.8589 69.4785 73.9154 69.4785 73.973V76.42V77.7742V80.1955C69.4785 80.37 69.6198 80.5113 69.7942 80.5113C69.9687 80.5113 70.11 80.37 70.11 80.1955V77.9886L73.2143 76.7554C73.3604 76.6973 73.4416 76.5404 73.4045 76.3875ZM57.8935 77.309L55.2774 76.2697L55.4397 75.601L57.8935 76.6301L57.8935 77.309ZM57.8935 74.0611V75.9452L55.5906 74.9794L56.299 72.061C56.2999 72.0574 56.3429 71.8946 56.4589 71.6886L57.8935 74.0611ZM64.0243 72.3599C62.7762 72.3599 61.4447 71.2207 61.2987 69.4919H66.75C66.6039 71.2207 65.2725 72.3599 64.0243 72.3599ZM70.1099 74.0611L71.5446 71.6885C71.6206 71.8234 71.6653 71.9397 71.6872 72.0045V72.0045C71.6892 72.0107 71.6912 72.0168 71.6929 72.022L71.6938 72.0249C71.6951 72.029 71.6963 72.0327 71.6973 72.0361L71.6985 72.04C71.6994 72.0428 71.7001 72.0453 71.7007 72.0475L71.7016 72.0506L71.7028 72.055L71.7035 72.0573L71.7041 72.0596L72.4128 74.9794L70.1099 75.9452L70.1099 74.0611ZM70.1099 77.309V76.6301L72.5637 75.601L72.726 76.2698L70.1099 77.309Z" fill="#246B6D"/>
<path d="M69.7188 77.7041V88.5791H64.0625H58.4062H58.25L58.0938 77.7041L54.9688 76.4229L55.75 72.9229L56.1875 71.5166L56.7188 70.9541L61.0625 69.1104L67.3438 69.2979L71.3438 70.9541L71.7812 71.5166L73.0625 76.4229L69.7188 77.7041Z" fill="#246B6D" fill-opacity="0.5"/>
</g>
<path d="M250.711 19.3722L250.818 18.941L250.394 19.0739L248.317 19.725L248.142 19.78V19.9636V22.8764H246.334V18.9332L252.127 16.9574C252.301 16.9539 252.449 16.9301 252.58 16.9089L252.585 16.9081C252.73 16.8847 252.856 16.8648 253.007 16.8648C253.733 16.8648 254.356 17.1976 254.773 17.7014L255.922 19.1824C256.865 20.5096 258.687 21.4443 260.834 21.512V22.8733C258.453 22.8146 256.309 21.9211 254.908 20.6178L254.597 20.3287L254.495 20.7406L253.803 23.5313L253.763 23.6901L253.893 23.7898L256.219 25.5752V32.1787H254.411V26.8473V26.7241L254.313 26.649L251.89 24.7886L251.597 24.5632L251.497 24.9196L249.471 32.1787H247.557L250.711 19.3722ZM256.796 14.2892C256.796 15.1268 255.922 15.8996 254.738 15.8996C253.554 15.8996 252.68 15.1268 252.68 14.2892C252.68 13.4516 253.554 12.6787 254.738 12.6787C255.922 12.6787 256.796 13.4516 256.796 14.2892Z" fill="#246B6D" fill-opacity="0.5" stroke="#246B6D" stroke-width="0.5"/>
<defs>
<filter id="filter0_d" x="5" y="0.5" width="202" height="62" filterUnits="userSpaceOnUse" color-interpolation-filters="sRGB">
<feFlood flood-opacity="0" result="BackgroundImageFix"/>
<feColorMatrix in="SourceAlpha" type="matrix" values="0 0 0 0 0 0 0 0 0 0 0 0 0 0 0 0 0 0 127 0"/>
<feOffset dy="1"/>
<feGaussianBlur stdDeviation="0.5"/>
<feColorMatrix type="matrix" values="0 0 0 0 0 0 0 0 0 0 0 0 0 0 0 0 0 0 0.25 0"/>
<feBlend mode="normal" in2="BackgroundImageFix" result="effect1_dropShadow"/>
<feBlend mode="normal" in="SourceGraphic" in2="effect1_dropShadow" result="shape"/>
</filter>
<filter id="filter1_d" x="239" y="43.5" width="132" height="24" filterUnits="userSpaceOnUse" color-interpolation-filters="sRGB">
<feFlood flood-opacity="0" result="BackgroundImageFix"/>
<feColorMatrix in="SourceAlpha" type="matrix" values="0 0 0 0 0 0 0 0 0 0 0 0 0 0 0 0 0 0 127 0"/>
<feOffset dy="1"/>
<feGaussianBlur stdDeviation="0.5"/>
<feColorMatrix type="matrix" values="0 0 0 0 0 0 0 0 0 0 0 0 0 0 0 0 0 0 0.25 0"/>
<feBlend mode="normal" in2="BackgroundImageFix" result="effect1_dropShadow"/>
<feBlend mode="normal" in="SourceGraphic" in2="effect1_dropShadow" result="shape"/>
</filter>
<filter id="filter2_d" x="239" y="71.8271" width="132" height="24" filterUnits="userSpaceOnUse" color-interpolation-filters="sRGB">
<feFlood flood-opacity="0" result="BackgroundImageFix"/>
<feColorMatrix in="SourceAlpha" type="matrix" values="0 0 0 0 0 0 0 0 0 0 0 0 0 0 0 0 0 0 127 0"/>
<feOffset dy="1"/>
<feGaussianBlur stdDeviation="0.5"/>
<feColorMatrix type="matrix" values="0 0 0 0 0 0 0 0 0 0 0 0 0 0 0 0 0 0 0.25 0"/>
<feBlend mode="normal" in2="BackgroundImageFix" result="effect1_dropShadow"/>
<feBlend mode="normal" in="SourceGraphic" in2="effect1_dropShadow" result="shape"/>
</filter>
<filter id="filter3_d" x="12.5098" y="66.8193" width="33.3118" height="23.88" filterUnits="userSpaceOnUse" color-interpolation-filters="sRGB">
<feFlood flood-opacity="0" result="BackgroundImageFix"/>
<feColorMatrix in="SourceAlpha" type="matrix" values="0 0 0 0 0 0 0 0 0 0 0 0 0 0 0 0 0 0 127 0"/>
<feOffset dy="1"/>
<feGaussianBlur stdDeviation="0.5"/>
<feColorMatrix type="matrix" values="0 0 0 0 0 0 0 0 0 0 0 0 0 0 0 0 0 0 0.25 0"/>
<feBlend mode="normal" in2="BackgroundImageFix" result="effect1_dropShadow"/>
<feBlend mode="normal" in="SourceGraphic" in2="effect1_dropShadow" result="shape"/>
</filter>
<filter id="filter4_d" x="267.113" y="13.7871" width="51.8976" height="21.487" filterUnits="userSpaceOnUse" color-interpolation-filters="sRGB">
<feFlood flood-opacity="0" result="BackgroundImageFix"/>
<feColorMatrix in="SourceAlpha" type="matrix" values="0 0 0 0 0 0 0 0 0 0 0 0 0 0 0 0 0 0 127 0"/>
<feOffset dy="1"/>
<feGaussianBlur stdDeviation="0.5"/>
<feColorMatrix type="matrix" values="0 0 0 0 0 0 0 0 0 0 0 0 0 0 0 0 0 0 0.25 0"/>
<feBlend mode="normal" in2="BackgroundImageFix" result="effect1_dropShadow"/>
<feBlend mode="normal" in="SourceGraphic" in2="effect1_dropShadow" result="shape"/>
</filter>
<clipPath id="clip0">
<path d="M54 68.8604H74V88.8604H54V68.8604Z" fill="white"/>
</clipPath>
</defs>
</svg>
