<svg width="685" height="392" viewBox="0 0 685 392" fill="none" xmlns="http://www.w3.org/2000/svg">
<rect width="685" height="392" fill="white"/>
<rect x="22.0146" y="284.5" width="87" height="87" rx="4.5" fill="white" stroke="#246B6D"/>
<path d="M54.7178 308C50.1945 308 46.5146 311.68 46.5146 316.203V336.406C48.0036 334.884 50.0803 333.938 52.374 333.938H79.4834V308H54.7178Z" fill="#246B6D"/>
<path d="M82.999 313.859H81.8271V336.281H52.374C49.1379 336.281 46.5146 338.905 46.5146 342.141C46.5146 345.377 49.1379 348 52.374 348H82.999C84.9406 348 86.5146 346.426 86.5146 344.484C86.5146 342.543 84.9406 340.969 82.999 340.969H52.4085C51.778 340.969 51.2351 341.452 51.2037 342.081C51.1701 342.755 51.7084 343.313 52.374 343.313H82.999C83.6463 343.313 84.1709 343.837 84.1709 344.484C84.1709 345.132 83.6463 345.656 82.999 345.656H52.4366C50.4694 345.656 48.8254 344.046 48.8593 342.08C48.892 340.169 50.456 338.625 52.374 338.625H82.999C84.3171 338.625 85.535 339.063 86.5146 339.8C86.5146 338.794 86.5146 318.099 86.5146 317.375C86.5146 315.43 84.9296 313.859 82.999 313.859Z" fill="#246B6D"/>
<rect x="132.489" y="151.5" width="87" height="87" rx="4.5" fill="white" stroke="#246B6D"/>
<path d="M166.709 184.937C167.217 184.937 167.629 184.363 167.629 183.655C167.629 182.948 167.217 182.374 166.709 182.374C166.201 182.374 165.789 182.948 165.789 183.655C165.789 184.363 166.201 184.937 166.709 184.937Z" fill="#246B6D"/>
<path d="M196.928 203.818C196.16 202.425 194.996 200.572 194.086 200.281C193.583 199.85 192.806 199.504 191.974 199.143L191.55 198.957C191.562 198.57 191.458 198.29 191.229 198.105C189.826 196.975 188.404 195.304 187.037 193.425C187.074 193.314 187.095 193.194 187.095 193.065C187.095 192.579 186.812 192.186 186.463 192.186C186.362 192.186 186.27 192.196 186.171 192.198C185.772 191.614 185.383 191.022 185.002 190.423C185.067 190.285 185.115 190.129 185.115 189.952C185.115 189.466 184.831 189.073 184.483 189.073C184.451 189.073 184.337 189.074 184.163 189.082C183.718 188.354 183.281 187.62 182.851 186.881C182.879 186.783 182.897 186.679 182.897 186.569C182.897 186.083 182.614 185.689 182.266 185.689C182.232 185.689 182.201 185.692 182.169 185.692C181.764 184.979 181.362 184.263 180.964 183.545C180.984 183.458 181.003 183.368 181.003 183.273C181.003 182.788 180.719 182.395 180.372 182.395L180.328 182.396C178.704 179.47 178.409 179.028 177.959 179.028C177.661 179.028 177.385 179.052 177.117 179.083C177.015 178.873 176.912 178.669 176.811 178.456C176.497 177.793 175.827 177 174.421 177C172.291 177 169.368 178.825 167.653 180.045C166.027 179.248 164.644 178.836 163.555 178.836C162.444 178.836 161.927 179.254 161.71 179.507C161.697 179.52 161.681 179.528 161.668 179.543C160.469 181.054 159.698 183.878 159.203 186.676C158.413 189.574 158.327 191.933 158.34 193.021C158.291 193.087 158.249 193.159 158.215 193.236C157.754 194.34 157.848 198.624 158.496 199.554C160.158 201.948 161.859 203.501 163.659 205.145C165.696 207.004 167.801 208.926 170.276 212.353C172.408 215.307 176.847 217 182.455 217C189.927 217 197.928 213.939 197.928 209.385C197.928 204.371 197.459 203.842 196.928 203.818ZM196.194 204.592C194.749 207.177 188.042 208.571 182.137 208.571C180.165 208.571 178.425 208.414 177.235 208.128C175.587 207.732 174.035 207.076 172.579 206.265C173.946 204.201 176.421 203.88 178.942 203.88C179.921 203.88 180.932 203.931 182.003 203.986C183.097 204.042 184.229 204.098 185.347 204.098C188.047 204.098 191.446 203.789 193.99 201.428C194.445 201.745 195.35 203.048 196.194 204.592ZM188.264 197.54C188.65 198.005 189.014 198.445 189.327 198.838C189.754 199.377 190.666 199.773 191.63 200.192C192.129 200.409 192.631 200.632 193.028 200.857C190.785 202.709 187.907 202.978 185.347 202.978C184.303 202.978 183.239 202.925 182.203 202.872C182.201 201.647 182.046 200.401 181.784 199.638C183.295 198.613 185.468 197.626 188.264 197.54ZM185.357 193.986C185.865 194.627 186.379 195.261 186.898 195.89C184.376 196.218 182.398 197.202 180.987 198.206C180.493 197.402 179.995 196.601 179.493 195.803C180.828 194.951 182.738 194.164 185.357 193.986ZM184.095 192.358C181.683 192.704 179.893 193.539 178.613 194.425C178.21 193.795 177.815 193.186 177.429 192.599C179.377 191.52 181.613 191.098 183.036 190.935C183.396 191.43 183.747 191.9 184.095 192.358ZM176.518 191.23C176.036 190.514 175.549 189.803 175.055 189.098C176.459 188.398 178.351 187.739 180.701 187.526C181.093 188.132 181.493 188.73 181.901 189.321C180.337 189.582 178.31 190.122 176.518 191.23ZM182.015 187.457C182.309 187.965 182.612 188.48 182.925 189.002C182.572 188.494 182.225 187.98 181.883 187.462C181.927 187.46 181.97 187.457 182.015 187.457ZM180.149 184.16C180.427 184.659 180.719 185.182 181.028 185.732C180.947 185.737 180.869 185.748 180.789 185.754C180.464 185.231 180.146 184.703 179.833 184.17C179.94 184.167 180.042 184.162 180.149 184.16ZM174.066 187.722C173.605 187.088 173.135 186.464 172.657 185.847C174.097 185.128 176.099 184.445 178.695 184.228C179.019 184.793 179.344 185.343 179.668 185.875C177.305 186.214 175.434 186.968 174.066 187.722ZM177.823 180.153C178.059 180.433 178.593 181.364 179.191 182.433C179.079 182.439 178.967 182.445 178.857 182.452C178.441 181.699 178.039 180.936 177.649 180.165C177.708 180.163 177.762 180.155 177.823 180.153ZM174.421 178.122C175.174 178.122 175.676 178.407 175.955 178.994C176.527 180.202 177.13 181.39 177.762 182.558C175.058 182.897 173.019 183.723 171.587 184.529C170.184 182.856 168.999 181.702 168.041 181.092C169.647 179.938 172.483 178.122 174.421 178.122ZM162.442 180.246C162.545 180.162 162.861 179.957 163.555 179.957C164.092 179.957 164.952 180.092 166.213 180.601C164.521 180.821 163.585 182.353 162.83 183.618C162.345 184.428 161.889 185.194 161.462 185.22C161.201 184.835 161.667 182.484 162.442 180.246ZM160.472 185.293C160.507 185.508 160.565 185.696 160.652 185.845C160.831 186.149 161.108 186.315 161.433 186.315C162.403 186.315 163.001 185.313 163.634 184.252C164.391 182.985 165.173 181.676 166.621 181.676C167.431 181.676 168.831 182.873 170.685 185.075C170.221 185.385 169.865 185.667 169.595 185.897C169.521 185.868 169.443 185.852 169.364 185.851C168.855 185.851 168.443 186.425 168.443 187.132C168.443 187.84 168.855 188.414 169.364 188.414C169.809 188.414 170.181 187.973 170.266 187.387C170.729 187 171.216 186.654 171.725 186.353C172.214 186.978 172.694 187.613 173.164 188.258C172.736 188.532 172.322 188.834 171.924 189.162C171.845 189.129 171.762 189.111 171.678 189.11C171.17 189.11 170.758 189.683 170.758 190.392C170.758 191.1 171.17 191.673 171.678 191.673C172.116 191.673 172.481 191.245 172.574 190.674C173.069 190.272 173.589 189.911 174.129 189.595C174.624 190.295 175.137 191.034 175.666 191.817C175.121 192.232 174.619 192.719 174.171 193.267C174.147 193.264 174.123 193.257 174.098 193.257C173.588 193.257 173.177 193.831 173.177 194.538C173.177 195.245 173.588 195.82 174.098 195.82C174.596 195.82 175.001 195.265 175.014 194.574C175.469 194.019 175.987 193.538 176.555 193.145C176.958 193.756 177.371 194.388 177.793 195.042C177.305 195.446 176.854 195.906 176.445 196.414C176.425 196.412 176.405 196.405 176.384 196.405C175.877 196.405 175.464 196.98 175.464 197.688C175.464 198.395 175.877 198.969 176.384 198.969C176.887 198.969 177.292 198.408 177.302 197.712C177.711 197.218 178.165 196.776 178.656 196.394C179.167 197.203 179.674 198.016 180.177 198.832C179.72 199.209 179.286 199.621 178.879 200.067C178.837 200.058 178.795 200.049 178.751 200.049C178.242 200.049 177.831 200.624 177.831 201.331C177.831 202.038 178.242 202.612 178.751 202.612C179.227 202.612 179.616 202.104 179.661 201.455C180.068 201.016 180.502 200.612 180.961 200.246C181.155 200.88 181.237 201.871 181.233 202.826C180.47 202.785 179.707 202.763 178.943 202.758C176.079 202.758 173.261 203.155 171.692 205.749C167.521 203.175 164.249 199.36 162.106 196.563C162.154 194.068 161.619 192.508 161.084 191.017C160.637 189.769 160.216 188.588 160.171 186.854C160.261 186.33 160.36 185.805 160.472 185.293ZM160.181 191.444C160.589 192.583 160.975 193.694 161.099 195.222C160.923 194.982 160.757 194.755 160.605 194.545C159.931 193.621 159.575 193.141 159.315 192.904C159.319 191.795 159.407 190.689 159.581 189.598C159.755 190.259 159.97 190.857 160.181 191.444ZM182.455 215.878C177.137 215.878 172.973 214.332 171.027 211.638C168.487 208.12 166.245 206.073 164.266 204.266C162.51 202.664 160.852 201.149 159.258 198.855C158.933 198.358 158.8 195.294 158.992 194.103C159.223 194.396 159.543 194.835 159.857 195.266C162.453 198.832 168.535 207.182 177.037 209.225C178.289 209.526 180.101 209.692 182.137 209.692C186.704 209.692 194.458 208.795 196.786 205.575C196.87 206.212 196.952 207.355 196.952 209.383C196.952 212.783 190.042 215.878 182.455 215.878Z" fill="#246B6D"/>
<path d="M166.709 184.937C167.217 184.937 167.629 184.363 167.629 183.655C167.629 182.948 167.217 182.374 166.709 182.374C166.201 182.374 165.789 182.948 165.789 183.655C165.789 184.363 166.201 184.937 166.709 184.937Z" stroke="#246B6D" stroke-width="1.25"/>
<path d="M196.928 203.818C196.16 202.425 194.996 200.572 194.086 200.281C193.583 199.85 192.806 199.504 191.974 199.143L191.55 198.957C191.562 198.57 191.458 198.29 191.229 198.105C189.826 196.975 188.404 195.304 187.037 193.425C187.074 193.314 187.095 193.194 187.095 193.065C187.095 192.579 186.812 192.186 186.463 192.186C186.362 192.186 186.27 192.196 186.171 192.198C185.772 191.614 185.383 191.022 185.002 190.423C185.067 190.285 185.115 190.129 185.115 189.952C185.115 189.466 184.831 189.073 184.483 189.073C184.451 189.073 184.337 189.074 184.163 189.082C183.718 188.354 183.281 187.62 182.851 186.881C182.879 186.783 182.897 186.679 182.897 186.569C182.897 186.083 182.614 185.689 182.266 185.689C182.232 185.689 182.201 185.692 182.169 185.692C181.764 184.979 181.362 184.263 180.964 183.545C180.984 183.458 181.003 183.368 181.003 183.273C181.003 182.788 180.719 182.395 180.372 182.395L180.328 182.396C178.704 179.47 178.409 179.028 177.959 179.028C177.661 179.028 177.385 179.052 177.117 179.083C177.015 178.873 176.912 178.669 176.811 178.456C176.497 177.793 175.827 177 174.421 177C172.291 177 169.368 178.825 167.653 180.045C166.027 179.248 164.644 178.836 163.555 178.836C162.444 178.836 161.927 179.254 161.71 179.507C161.697 179.52 161.681 179.528 161.668 179.543C160.469 181.054 159.698 183.878 159.203 186.676C158.413 189.574 158.327 191.933 158.34 193.021C158.291 193.087 158.249 193.159 158.215 193.236C157.754 194.34 157.848 198.624 158.496 199.554C160.158 201.948 161.859 203.501 163.659 205.145C165.696 207.004 167.801 208.926 170.276 212.353C172.408 215.307 176.847 217 182.455 217C189.927 217 197.928 213.939 197.928 209.385C197.928 204.371 197.459 203.842 196.928 203.818ZM196.194 204.592C194.749 207.177 188.042 208.571 182.137 208.571C180.165 208.571 178.425 208.414 177.235 208.128C175.587 207.732 174.035 207.076 172.579 206.265C173.946 204.201 176.421 203.88 178.942 203.88C179.921 203.88 180.932 203.931 182.003 203.986C183.097 204.042 184.229 204.098 185.347 204.098C188.047 204.098 191.446 203.789 193.99 201.428C194.445 201.745 195.35 203.048 196.194 204.592ZM188.264 197.54C188.65 198.005 189.014 198.445 189.327 198.838C189.754 199.377 190.666 199.773 191.63 200.192C192.129 200.409 192.631 200.632 193.028 200.857C190.785 202.709 187.907 202.978 185.347 202.978C184.303 202.978 183.239 202.925 182.203 202.872C182.201 201.647 182.046 200.401 181.784 199.638C183.295 198.613 185.468 197.626 188.264 197.54ZM185.357 193.986C185.865 194.627 186.379 195.261 186.898 195.89C184.376 196.218 182.398 197.202 180.987 198.206C180.493 197.402 179.995 196.601 179.493 195.803C180.828 194.951 182.738 194.164 185.357 193.986ZM184.095 192.358C181.683 192.704 179.893 193.539 178.613 194.425C178.21 193.795 177.815 193.186 177.429 192.599C179.377 191.52 181.613 191.098 183.036 190.935C183.396 191.43 183.747 191.9 184.095 192.358ZM176.518 191.23C176.036 190.514 175.549 189.803 175.055 189.098C176.459 188.398 178.351 187.739 180.701 187.526C181.093 188.132 181.493 188.73 181.901 189.321C180.337 189.582 178.31 190.122 176.518 191.23ZM182.015 187.457C182.309 187.965 182.612 188.48 182.925 189.002C182.572 188.494 182.225 187.98 181.883 187.462C181.927 187.46 181.97 187.457 182.015 187.457ZM180.149 184.16C180.427 184.659 180.719 185.182 181.028 185.732C180.947 185.737 180.869 185.748 180.789 185.754C180.464 185.231 180.146 184.703 179.833 184.17C179.94 184.167 180.042 184.162 180.149 184.16ZM174.066 187.722C173.605 187.088 173.135 186.464 172.657 185.847C174.097 185.128 176.099 184.445 178.695 184.228C179.019 184.793 179.344 185.343 179.668 185.875C177.305 186.214 175.434 186.968 174.066 187.722ZM177.823 180.153C178.059 180.433 178.593 181.364 179.191 182.433C179.079 182.439 178.967 182.445 178.857 182.452C178.441 181.699 178.039 180.936 177.649 180.165C177.708 180.163 177.762 180.155 177.823 180.153ZM174.421 178.122C175.174 178.122 175.676 178.407 175.955 178.994C176.527 180.202 177.13 181.39 177.762 182.558C175.058 182.897 173.019 183.723 171.587 184.529C170.184 182.856 168.999 181.702 168.041 181.092C169.647 179.938 172.483 178.122 174.421 178.122ZM162.442 180.246C162.545 180.162 162.861 179.957 163.555 179.957C164.092 179.957 164.952 180.092 166.213 180.601C164.521 180.821 163.585 182.353 162.83 183.618C162.345 184.428 161.889 185.194 161.462 185.22C161.201 184.835 161.667 182.484 162.442 180.246ZM160.472 185.293C160.507 185.508 160.565 185.696 160.652 185.845C160.831 186.149 161.108 186.315 161.433 186.315C162.403 186.315 163.001 185.313 163.634 184.252C164.391 182.985 165.173 181.676 166.621 181.676C167.431 181.676 168.831 182.873 170.685 185.075C170.221 185.385 169.865 185.667 169.595 185.897C169.521 185.868 169.443 185.852 169.364 185.851C168.855 185.851 168.443 186.425 168.443 187.132C168.443 187.84 168.855 188.414 169.364 188.414C169.809 188.414 170.181 187.973 170.266 187.387C170.729 187 171.216 186.654 171.725 186.353C172.214 186.978 172.694 187.613 173.164 188.258C172.736 188.532 172.322 188.834 171.924 189.162C171.845 189.129 171.762 189.111 171.678 189.11C171.17 189.11 170.758 189.683 170.758 190.392C170.758 191.1 171.17 191.673 171.678 191.673C172.116 191.673 172.481 191.245 172.574 190.674C173.069 190.272 173.589 189.911 174.129 189.595C174.624 190.295 175.137 191.034 175.666 191.817C175.121 192.232 174.619 192.719 174.171 193.267C174.147 193.264 174.123 193.257 174.098 193.257C173.588 193.257 173.177 193.831 173.177 194.538C173.177 195.245 173.588 195.82 174.098 195.82C174.596 195.82 175.001 195.265 175.014 194.574C175.469 194.019 175.987 193.538 176.555 193.145C176.958 193.756 177.371 194.388 177.793 195.042C177.305 195.446 176.854 195.906 176.445 196.414C176.425 196.412 176.405 196.405 176.384 196.405C175.877 196.405 175.464 196.98 175.464 197.688C175.464 198.395 175.877 198.969 176.384 198.969C176.887 198.969 177.292 198.408 177.302 197.712C177.711 197.218 178.165 196.776 178.656 196.394C179.167 197.203 179.674 198.016 180.177 198.832C179.72 199.209 179.286 199.621 178.879 200.067C178.837 200.058 178.795 200.049 178.751 200.049C178.242 200.049 177.831 200.624 177.831 201.331C177.831 202.038 178.242 202.612 178.751 202.612C179.227 202.612 179.616 202.104 179.661 201.455C180.068 201.016 180.502 200.612 180.961 200.246C181.155 200.88 181.237 201.871 181.233 202.826C180.47 202.785 179.707 202.763 178.943 202.758C176.079 202.758 173.261 203.155 171.692 205.749C167.521 203.175 164.249 199.36 162.106 196.563C162.154 194.068 161.619 192.508 161.084 191.017C160.637 189.769 160.216 188.588 160.171 186.854C160.261 186.33 160.36 185.805 160.472 185.293ZM160.181 191.444C160.589 192.583 160.975 193.694 161.099 195.222C160.923 194.982 160.757 194.755 160.605 194.545C159.931 193.621 159.575 193.141 159.315 192.904C159.319 191.795 159.407 190.689 159.581 189.598C159.755 190.259 159.97 190.857 160.181 191.444ZM182.455 215.878C177.137 215.878 172.973 214.332 171.027 211.638C168.487 208.12 166.245 206.073 164.266 204.266C162.51 202.664 160.852 201.149 159.258 198.855C158.933 198.358 158.8 195.294 158.992 194.103C159.223 194.396 159.543 194.835 159.857 195.266C162.453 198.832 168.535 207.182 177.037 209.225C178.289 209.526 180.101 209.692 182.137 209.692C186.704 209.692 194.458 208.795 196.786 205.575C196.87 206.212 196.952 207.355 196.952 209.383C196.952 212.783 190.042 215.878 182.455 215.878Z" stroke="#246B6D" stroke-width="1.25"/>
<rect x="22.0146" y="18.5" width="87" height="87" rx="4.5" fill="white" stroke="#246B6D"/>
<path d="M75.9396 44.271L75.4394 44.8314V44.271H72.9752C71.8642 46.1905 69.5186 47.5173 66.7953 47.5173C64.073 47.5173 61.7274 46.1905 60.6164 44.271H58.1522V44.8314L57.651 44.271L48.7887 54.1847L53.6364 59.6088L58.1522 54.5579V79.8149H75.4374V54.559L79.9543 59.61L84.8009 54.1847L75.9396 44.271Z" fill="#246B6D"/>
<path d="M75.4375 82.043H58.1523C57.0523 82.043 56.1594 81.0448 56.1594 79.8149V59.9386L55.0454 61.1841C54.6718 61.6029 54.1646 61.8369 53.6355 61.8369C53.1074 61.8369 52.5992 61.6018 52.2255 61.1841L47.3778 55.7599C46.6006 54.8898 46.6006 53.4806 47.3778 52.6094L56.2421 42.6958C56.6746 42.2112 57.2994 41.9761 57.9012 42.0608C57.9839 42.0497 58.0676 42.043 58.1523 42.043H60.6165C61.2921 42.043 61.9228 42.4262 62.2895 43.0601C63.0737 44.4147 64.8424 45.2892 66.7954 45.2892C68.7484 45.2892 70.5181 44.4147 71.3023 43.0601C71.669 42.4262 72.2987 42.043 72.9753 42.043H75.4395C75.5242 42.043 75.6079 42.0485 75.6906 42.0608C75.7723 42.0497 75.855 42.043 75.9387 42.043H75.9397C76.4678 42.043 76.975 42.278 77.3497 42.6958L86.212 52.6083C86.9892 53.4784 86.9892 54.8876 86.212 55.7588L81.3653 61.1841C80.9917 61.6018 80.4845 61.8369 79.9564 61.8369H79.9554C79.4273 61.838 78.9201 61.6029 78.5464 61.1852L77.4314 59.9375V79.8149C77.4304 81.0459 76.5386 82.043 75.4375 82.043ZM73.4446 77.5869V54.559C73.4446 53.6577 73.9299 52.8456 74.6743 52.5003C75.4196 52.1538 76.2755 52.3454 76.8465 52.9838L79.9534 56.4573L81.9841 54.1847L75.6079 47.0516C75.2901 47.0839 74.9772 47.0282 74.6772 46.8901C74.469 46.7943 74.2807 46.6606 74.1172 46.499H73.9459C72.3007 48.5266 69.6642 49.7453 66.7954 49.7453C63.9267 49.7453 61.2911 48.5266 59.645 46.499H59.4736C59.3112 46.6606 59.1228 46.7931 58.9146 46.8901C58.6127 47.0293 58.2918 47.0783 57.9819 47.0516L51.6047 54.1858L53.6355 56.4584L56.7414 52.9838C57.3113 52.3454 58.1683 52.1549 58.9136 52.5003C59.6589 52.8456 60.1442 53.6577 60.1442 54.559V77.5869H73.4446Z" fill="#246B6D"/>
<rect x="133.038" y="18.5" width="87" height="87" rx="4.5" fill="white" stroke="#246B6D"/>
<path d="M166.288 59.6667V66.3333H186.288V59.6667C186.288 55.9896 188.082 53 190.288 53H192.288C192.288 47.4792 189.601 43 186.288 43H166.288C162.976 43 160.288 47.4792 160.288 53H162.288C164.494 53 166.288 55.9896 166.288 59.6667ZM192.288 56.3333H190.288C189.182 56.3333 188.288 57.8229 188.288 59.6667V69.6667H164.288V59.6667C164.288 57.8229 163.394 56.3333 162.288 56.3333H160.288C158.082 56.3333 156.288 59.3229 156.288 63C156.288 65.4583 157.101 67.5833 158.288 68.7396V81.3333C158.288 82.25 158.738 83 159.288 83H163.288C163.838 83 164.288 82.25 164.288 81.3333V79.6667H188.288V81.3333C188.288 82.25 188.738 83 189.288 83H193.288C193.838 83 194.288 82.25 194.288 81.3333V68.7396C195.476 67.5833 196.288 65.4583 196.288 63C196.288 59.3229 194.494 56.3333 192.288 56.3333Z" fill="#246B6D"/>
<rect x="243.513" y="18.5" width="87" height="87" rx="4.5" fill="white" stroke="#246B6D"/>
<path d="M284.655 79V66.86C280.964 66.4862 277.496 65.3977 274.642 63.7174C271.788 62.0372 269.661 59.832 268.503 57.3507C267.344 54.8695 267.199 52.2109 268.085 49.6752C268.97 47.1394 270.851 44.8274 273.514 43H301.511C304.174 44.8274 306.055 47.1394 306.941 49.6752C307.826 52.2109 307.681 54.8695 306.523 57.3507C305.364 59.832 303.238 62.0372 300.384 63.7174C297.53 65.3977 294.061 66.4862 290.37 66.86V79H296.085C296.843 79 297.57 79.2107 298.105 79.5858C298.641 79.9609 298.942 80.4696 298.942 81C298.942 81.5304 298.641 82.0391 298.105 82.4142C297.57 82.7893 296.843 83 296.085 83H278.94C278.183 83 277.456 82.7893 276.92 82.4142C276.384 82.0391 276.083 81.5304 276.083 81C276.083 80.4696 276.384 79.9609 276.92 79.5858C277.456 79.2107 278.183 79 278.94 79H284.655ZM273.226 53H301.8C301.12 50.14 300.168 48.14 298.942 47H276.083C274.857 48.14 273.906 50.14 273.226 53Z" fill="#246B6D"/>
<rect x="243.513" y="151.5" width="87" height="87" rx="4.5" fill="white" stroke="#246B6D"/>
<path d="M301.033 187.145L301.719 186.013C301.719 186.013 302.323 185.012 302.323 183.667C302.323 180.41 299.215 180.496 299.215 180.496L292.444 178.653L288.75 175L283.889 176.323L282.295 175.889L281.084 177.087L274.086 178.993C274.086 178.993 271.392 178.919 271.392 181.741C271.392 182.907 271.916 183.775 271.916 183.775L272.817 185.261L272.026 186.043L268.119 187.107C268.119 187.107 265.011 187.021 265.011 190.278C265.017 191.037 265.195 191.785 265.53 192.465L264.324 193.658L264.957 193.909C264.971 193.943 264.976 193.981 265.004 194.008C266.227 195.234 266.126 196.881 265.952 197.77L265.212 198.511L270.813 201.204L278.505 213.9C279.738 215.838 282.354 214.626 282.354 214.626L302.12 205.122L301.381 204.381C301.206 203.492 301.106 201.845 302.329 200.618C302.356 200.591 302.362 200.553 302.376 200.52L303.008 200.268L299.333 196.635L303.553 194.606L302.912 193.964C302.761 193.193 302.674 191.766 303.734 190.703C303.758 190.679 303.762 190.647 303.774 190.617L304.324 190.399L301.033 187.145ZM297.243 181.255L296.41 182.574L294.254 180.442L297.243 181.255ZM289.108 178.429L292.204 181.738L281.011 185.783L278.368 181.679L289.108 178.429ZM273.487 186.368L281.125 198.975L266.574 193.203L273.487 186.368ZM270.304 187.746L269.407 188.633L269.048 188.083L270.304 187.746ZM267.472 188.435L268.307 189.72L266.498 191.508C266.356 191.113 266.281 190.698 266.278 190.278C266.278 189.061 266.882 188.597 267.472 188.435ZM266.427 198.351L266.437 198.312L283.202 205.65L266.568 197.721C266.584 197.631 266.596 197.531 266.608 197.431L279.63 202.885L266.654 196.807C266.657 196.53 266.638 196.252 266.596 195.977L278.649 200.941L266.434 195.267C266.356 195.004 266.251 194.75 266.121 194.509L282.71 201.592L283.087 202.215C283.865 203.438 285.276 203.212 285.988 203C286.971 203.485 288.734 204.608 288.282 206.262C288.044 207.136 287.521 207.56 286.683 207.56C285.834 207.56 284.987 207.116 284.978 207.11L266.427 198.351ZM283.124 207.124L281.814 207.666L280.7 205.958L283.124 207.124ZM278.048 210.711L272.896 202.205L278.017 204.667L280.439 208.395C279.462 208.812 278.371 209.765 278.048 210.711ZM300.737 202.588C300.695 202.863 300.676 203.14 300.68 203.418L287.703 209.496L300.725 204.042C300.738 204.142 300.749 204.242 300.765 204.332L284.132 212.262L300.896 204.924C300.9 204.936 300.903 204.949 300.906 204.962L282.355 213.72C282.346 213.726 281.5 214.17 280.65 214.17C279.812 214.17 279.289 213.746 279.051 212.872C278.439 210.627 281.919 209.354 281.971 209.335L285.021 208.034C285.348 208.173 287.684 209.09 288.828 207.29L289.55 206.1L301.213 201.12C301.083 201.361 300.978 201.615 300.899 201.878L288.684 207.552L300.737 202.588ZM300.76 199.814L290.876 203.91L293.619 199.383L298.13 197.214L300.76 199.814ZM302.355 192.409C302.319 192.648 302.303 192.888 302.305 193.129L291.06 198.395L302.345 193.669C302.356 193.755 302.366 193.843 302.38 193.92L287.964 200.792L302.493 194.433C302.496 194.444 302.499 194.455 302.502 194.466L286.424 202.058C286.416 202.062 285.682 202.448 284.946 202.448C284.219 202.448 283.766 202.079 283.56 201.322C283.03 199.376 286.046 198.273 286.091 198.257L302.767 191.137C302.654 191.346 302.564 191.566 302.496 191.794L291.909 196.711L302.355 192.409Z" fill="#246B6D"/>
<rect x="242.548" y="284.027" width="87" height="87" rx="4.5" fill="white" stroke="#246B6D"/>
<path d="M303.61 336.702L303.61 332.527L307.61 332.527L307.61 322.527L303.61 322.527L303.61 318.352C303.61 316.527 302.41 315.027 300.95 315.027L270.29 315.027C268.81 315.027 267.61 316.527 267.61 318.352L267.61 336.677C267.61 338.527 268.81 340.027 270.27 340.027L300.95 340.027C302.41 340.027 303.61 338.527 303.61 336.702Z" fill="#246B6D"/>
<path d="M295.522 330.352L293.102 334.036C292.627 334.767 291.746 335.15 290.855 335.099H288.919V336.8L286.498 332.972L288.919 329.144V330.845H291.649L289.5 327.57L293.692 325.443L295.435 328.098C295.938 328.753 296.006 329.629 295.522 330.352ZM283.313 319.837H288.154C289.103 319.837 289.926 320.322 290.323 321.019L291.291 322.5L292.966 321.649L290.41 325.401L285.424 325.477L287.099 324.627L285.734 322.542L283.594 325.818L279.392 323.691L281.135 321.036C281.532 320.33 282.354 319.837 283.313 319.837ZM279.285 334.044L276.865 330.36C276.39 329.637 276.458 328.77 276.952 328.115L277.92 326.643L276.245 325.792L281.222 325.86L283.787 329.62L282.112 328.77L280.747 330.845H285.046V335.099H281.561C281.107 335.128 280.653 335.044 280.251 334.858C279.849 334.671 279.514 334.389 279.285 334.044Z" fill="white"/>
<rect x="575.985" y="284.5" width="87" height="87" rx="4.5" fill="white" stroke="#246B6D"/>
<path d="M622.34 312.498C622.34 309.965 621.898 309.209 619.318 309.209H603.197C600.618 309.209 600.175 309.965 600.175 312.498V344.287C600.175 347.027 600.799 347.575 603.197 347.575H613.273V345.383L622.34 336.613V312.498ZM605.212 314.69H617.303V340.998H605.212V314.69ZM625.928 336.185L617.857 344.177C616.809 345.391 615.137 346.38 616.688 348.45C617.978 350.171 619.68 348.581 620.648 347.465L628.698 339.343L625.928 336.185ZM638.067 332.844L635.78 334.991L633.856 332.832L634.733 330.475L632.577 327.535C632.577 327.535 628.386 323.906 623.147 327.48C625.505 327.361 627.761 328.775 629.393 331.888L627.188 334.213L629.958 337.095L631.771 335.32L633.989 337.435L632.214 339.277L634.37 341.645L640.175 335.528L638.067 332.844Z" fill="#246B6D"/>
<rect x="464.962" y="18.5" width="87" height="87" rx="4.5" fill="white" stroke="#246B6D"/>
<path d="M504.693 55.5309L500.976 53.5568C499.447 52.745 499.674 51.221 500.85 50.7072C502.785 49.8541 503.086 47.13 500.791 45.7846C498.41 44.6511 496.732 46.6311 497.369 48.8459C497.756 50.1941 496.842 51.3659 495.32 50.5575L491.681 48.6251C490.59 48.0457 489.311 48.5092 488.826 49.6598L487.187 53.5458C486.507 55.1581 485.074 54.8312 484.536 53.5378C483.651 51.4067 481.094 50.9384 479.956 53.353C479.011 55.8786 480.955 57.8007 482.984 57.2171C484.217 56.8638 485.352 57.9056 484.677 59.5161L483.043 63.3832C482.557 64.5338 483.049 65.9376 484.14 66.5169L487.779 68.4494C489.306 69.2561 489.091 70.7525 487.916 71.2715C485.981 72.1245 485.683 74.8418 487.978 76.1872C490.361 77.3259 492.036 75.3527 491.397 73.1327C491.01 71.7845 491.908 70.6421 493.435 71.4487L497.106 73.3985C498.217 73.9883 499.529 73.5128 500.025 72.3467L501.66 68.4676C502.284 66.8931 501.169 65.879 499.951 66.2271C497.921 66.8108 495.982 64.8869 496.924 62.3682C498.062 59.9536 500.619 60.4219 501.504 62.553C502.036 63.8309 503.436 64.1525 504.125 62.6127L505.767 58.7198C505.77 58.7129 505.77 58.7129 505.773 58.706L505.79 58.6647C506.275 57.514 505.784 56.1103 504.693 55.5309Z" fill="#246B6D"/>
<path d="M538.423 76.198C538.087 74.9771 537.278 73.9375 536.174 73.3118L533.663 71.8852C534.122 70.687 534.374 69.3799 534.374 68.0117C534.374 67.0583 534.25 66.1364 534.023 65.2579L535.149 64.9521C536.05 64.7072 536.817 64.1172 537.282 63.3103C537.742 62.5033 537.867 61.5456 537.623 60.6463C537.111 58.777 535.176 57.6755 533.301 58.1845L530.255 59.0106C532.4 57.4707 533.773 55.103 533.773 52.4478C533.773 52.3998 533.773 52.3528 533.772 52.3048C535.882 51.6565 537.419 49.6958 537.419 47.3847C537.419 44.5455 535.102 42.2362 532.252 42.2362C530.413 42.2362 528.797 43.1983 527.881 44.6431C526.805 44.2571 525.631 44.0445 524.403 44.0445C523.174 44.0445 522 44.2571 520.924 44.6423C520.008 43.1974 518.391 42.2354 516.553 42.2354C513.703 42.2354 511.385 44.5447 511.385 47.3838C511.385 49.6958 512.923 51.6556 515.033 52.304C515.032 52.3519 515.031 52.399 515.031 52.4469C515.031 55.1022 516.405 57.4699 518.551 59.0097L515.505 58.1836C513.629 57.6747 511.696 58.777 511.184 60.6454C510.94 61.543 511.062 62.5007 511.524 63.3085C511.988 64.1155 512.755 64.7063 513.656 64.9512L514.783 65.2571C514.553 66.1346 514.43 67.0566 514.43 68.0117C514.43 69.3799 514.684 70.687 515.142 71.8852L512.632 73.3118C511.527 73.9392 510.719 74.978 510.384 76.198C510.047 77.4198 510.213 78.7243 510.842 79.8232C512.153 82.116 515.079 82.9142 517.379 81.607L523.119 78.3496C523.539 78.4054 523.969 78.4359 524.405 78.4359C524.84 78.4359 525.269 78.4062 525.689 78.3496L531.429 81.607C533.731 82.9142 536.657 82.116 537.965 79.8232C538.594 78.7243 538.758 77.4198 538.423 76.198ZM520.526 51.0874C521.072 51.0874 521.516 51.5293 521.516 52.073C521.516 52.6168 521.072 53.0595 520.526 53.0595C519.979 53.0595 519.536 52.6177 519.536 52.073C519.536 51.5284 519.979 51.0874 520.526 51.0874ZM528.279 51.1598C528.826 51.1598 529.27 51.6016 529.27 52.1462C529.27 52.6909 528.826 53.1318 528.279 53.1318C527.733 53.1318 527.289 52.6909 527.289 52.1462C527.289 51.6016 527.733 51.1598 528.279 51.1598ZM523.991 74.4691C522.863 73.3519 519.804 70.3167 519.741 70.2548C518.45 68.9685 518.45 66.8858 519.741 65.6004C521.029 64.3185 523.112 64.315 524.403 65.5917C525.694 64.315 527.777 64.3185 529.065 65.6004C530.356 66.8858 530.356 68.9685 529.065 70.2548C529.001 70.3167 525.941 73.3519 524.815 74.4691C524.586 74.6948 524.218 74.6948 523.991 74.4691ZM532.252 44.8349C533.661 44.8349 534.81 45.9791 534.81 47.3838C534.81 48.4287 534.173 49.328 533.27 49.721C532.679 48.1803 531.606 46.8418 530.21 45.8527C530.676 45.2349 531.418 44.8349 532.252 44.8349ZM524.403 53.158C526.125 53.158 527.52 54.4102 527.52 55.9536C527.52 57.4969 526.123 58.7492 524.403 58.7492C522.681 58.7492 521.285 57.4978 521.285 55.9536C521.285 54.4102 522.68 53.158 524.403 53.158ZM513.996 47.3838C513.996 45.9791 515.144 44.8349 516.554 44.8349C517.388 44.8349 518.129 45.2349 518.596 45.8518C517.2 46.8418 516.125 48.1803 515.536 49.7193C514.631 49.328 513.996 48.4287 513.996 47.3838Z" fill="#246B6D"/>
<rect x="575.985" y="18.5" width="87" height="87" rx="4.5" fill="white" stroke="#246B6D"/>
<path d="M621.411 55.6752V54.3066C621.411 52.368 619.834 50.791 617.896 50.791H608.521C606.582 50.791 605.005 52.368 605.005 54.3066V55.6752C602.334 56.2197 600.239 58.5866 600.239 61.416V80.2441C600.239 82.1827 601.894 83.7598 603.833 83.7598H612.173C610.647 82.2691 609.692 80.1966 609.692 77.9004V70.8691C609.692 66.3464 613.373 62.666 617.896 62.666H626.099V61.416C626.099 58.5866 624.082 56.2197 621.411 55.6752Z" fill="#246B6D"/>
<path d="M619.067 70.8691C618.421 70.8691 617.896 71.3945 617.896 72.041C617.896 72.6876 618.421 73.2129 619.067 73.2129C619.714 73.2129 620.239 72.6876 620.239 72.041C620.239 71.3945 619.714 70.8691 619.067 70.8691Z" fill="#246B6D"/>
<path d="M639.067 74.3848C639.715 74.3848 640.239 73.8606 640.239 73.2129V70.8691C640.239 67.6384 637.611 65.0098 634.38 65.0098H617.896C614.665 65.0098 612.036 67.6384 612.036 70.8691V77.9004C612.036 81.1311 614.665 83.7598 617.896 83.7598H624.927C625.574 83.7598 626.099 83.2356 626.099 82.5879C626.099 81.9413 626.624 81.416 627.271 81.416C627.917 81.416 628.442 81.9413 628.442 82.5879C628.442 83.2356 629.045 83.7598 629.692 83.7598H634.38C637.611 83.7598 640.239 81.1311 640.239 77.9004C640.239 77.2527 639.715 76.7285 639.067 76.7285C638.421 76.7285 637.896 76.2032 637.896 75.5566C637.896 74.9101 638.421 74.3848 639.067 74.3848ZM621.411 80.2441C620.764 80.2441 620.239 79.7195 620.239 79.0723C620.239 78.4249 620.764 77.9004 621.411 77.9004C622.058 77.9004 622.583 78.4249 622.583 79.0723C622.583 79.7195 622.058 80.2441 621.411 80.2441ZM619.067 75.5566C617.129 75.5566 615.552 73.9796 615.552 72.041C615.552 70.1024 617.129 68.5254 619.067 68.5254C621.006 68.5254 622.583 70.1024 622.583 72.041C622.583 73.9796 621.006 75.5566 619.067 75.5566ZM626.099 75.5566C625.451 75.5566 624.927 75.032 624.927 74.3848C624.927 73.7374 625.451 73.2129 626.099 73.2129C626.746 73.2129 627.271 73.7374 627.271 74.3848C627.271 75.032 626.746 75.5566 626.099 75.5566ZM632.036 77.9004C630.744 77.9004 629.692 76.8487 629.692 75.5566C629.692 74.2646 630.744 73.2129 632.036 73.2129C633.328 73.2129 634.38 74.2646 634.38 75.5566C634.38 76.8487 633.328 77.9004 632.036 77.9004ZM633.208 70.8691C632.561 70.8691 632.036 70.3445 632.036 69.6973C632.036 69.0499 632.561 68.5254 633.208 68.5254C633.855 68.5254 634.38 69.0499 634.38 69.6973C634.38 70.3445 633.855 70.8691 633.208 70.8691Z" fill="#246B6D"/>
<path d="M620.239 43.7598C616.319 43.7598 612.414 43.7598 608.521 43.7598C607.873 43.7598 607.349 44.2839 607.349 44.9316C607.349 45.5794 607.873 46.1035 608.521 46.1035H609.692V48.4473H616.724V46.1035H620.239C622.178 46.1035 623.755 47.6805 623.755 49.6191C623.755 50.2669 624.279 50.791 624.927 50.791C625.574 50.791 626.099 50.2669 626.099 49.6191C626.099 46.3884 623.47 43.7598 620.239 43.7598Z" fill="#246B6D"/>
<rect x="464.962" y="151.5" width="87" height="87" rx="4.5" fill="white" stroke="#246B6D"/>
<path d="M523.218 175.433H493.706C490.815 175.433 488.462 177.785 488.462 180.678V210.186C488.462 213.079 490.814 215.433 493.706 215.433H523.218C526.11 215.433 528.462 213.08 528.462 210.186V180.678C528.462 177.785 526.11 175.433 523.218 175.433ZM520.756 199.532H512.561V207.727H504.368V199.532H496.17V191.333H504.368V183.138H512.561V191.333H520.756V199.532Z" fill="#246B6D"/>
<rect x="575.985" y="151.5" width="87" height="87" rx="4.5" fill="white" stroke="#246B6D"/>
<path d="M630.665 213.769C633.269 214.531 635.613 213.769 637.696 211.482C639.78 209.194 640.821 206.318 640.821 202.853C640.821 200.011 639.884 197.447 638.009 195.159C636.342 192.941 633.946 191.832 630.821 191.832V180.708C630.821 178.837 630.34 177.26 629.376 175.978C628.412 174.696 627.228 174.055 625.821 174.055C624.728 174.055 624.181 174.782 624.181 176.238C624.181 177.763 624.728 178.525 625.821 178.525C626.446 178.525 627.162 178.733 627.97 179.149C628.777 179.565 629.181 180.085 629.181 180.708V182.892H614.181V180.708H617.462C617.462 179.53 617.136 178.49 616.485 177.589C615.834 176.688 615.066 176.238 614.181 176.238H609.181C609.181 177.07 609.545 177.936 610.274 178.837C611.004 179.738 611.733 180.362 612.462 180.708V185.179L610.665 192.04C607.8 191.139 605.014 192.907 602.306 197.343C601.316 199.353 600.821 201.189 600.821 202.853C600.821 205.972 601.629 208.605 603.243 210.754C604.858 212.902 606.837 213.977 609.181 213.977C611.16 213.977 612.905 213.145 614.415 211.482C615.925 209.818 616.889 207.704 617.306 205.14H618.478C620.196 205.14 621.472 204.308 622.306 202.645L624.806 198.694C624.129 200.773 624.024 203.13 624.493 205.764C624.806 207.635 625.535 209.316 626.681 210.806C627.826 212.296 629.155 213.284 630.665 213.769ZM609.181 209.506C607.722 209.506 606.524 208.882 605.587 207.635C604.649 206.387 604.181 204.793 604.181 202.853C604.181 200.981 604.649 199.404 605.587 198.122C606.524 196.84 607.722 196.199 609.181 196.199H609.649L607.462 205.14H613.79C613.478 206.457 612.892 207.514 612.032 208.311C611.173 209.108 610.222 209.506 609.181 209.506ZM612.462 200.669V198.486C613.399 199.318 613.972 200.046 614.181 200.669H612.462ZM613.634 193.6L614.337 191.313L615.509 195.783C614.311 194.328 613.686 193.6 613.634 193.6ZM629.962 202.437C630.326 202.991 630.756 203.286 631.251 203.32C631.746 203.355 632.149 203.13 632.462 202.645C633.087 201.952 633.139 200.981 632.618 199.734C632.254 198.902 631.889 197.724 631.524 196.199C633.191 195.714 634.78 196.684 636.29 199.11C637.071 200.357 637.462 201.674 637.462 203.061C637.462 205.14 636.889 206.821 635.743 208.103C634.597 209.385 633.243 209.853 631.681 209.506C630.639 209.298 629.754 208.727 629.024 207.791C628.295 206.855 627.826 205.729 627.618 204.412C627.306 202.125 627.644 200.219 628.634 198.694C628.946 199.803 629.389 201.051 629.962 202.437ZM619.806 200.877L616.524 187.362H625.821L619.806 200.877ZM625.821 196.199L627.462 191.832V194.016C626.837 194.639 626.29 195.367 625.821 196.199Z" fill="#246B6D"/>
<rect x="354.487" y="284.5" width="87" height="87" rx="4.5" fill="white" stroke="#246B6D"/>
<path d="M414.013 331.527C414.147 331.066 414.261 330.599 414.355 330.127C414.361 330.092 414.363 330.058 414.371 330.022C414.411 329.816 414.429 329.603 414.461 329.395C414.511 329.064 414.571 328.736 414.601 328.403C414.839 325.922 414.549 323.416 413.752 321.067C412.956 318.718 411.672 316.586 409.995 314.824C408.511 313.258 406.747 312.017 404.805 311.17C402.864 310.324 400.783 309.889 398.681 309.892V326.734H383.715L382 322.523H374.682V326.734H379.364L383.019 335.715C381.738 336.271 380.642 337.214 379.869 338.426C379.097 339.638 378.684 341.064 378.682 342.523C378.682 346.586 381.822 349.892 385.681 349.892C389.199 349.892 392.089 347.136 392.579 343.576H396.783C397.273 347.136 400.163 349.892 403.681 349.892C407.541 349.892 410.681 346.586 410.681 342.523C410.681 341.197 410.319 339.969 409.735 338.892C409.819 338.805 409.913 338.729 409.997 338.641C410.717 337.881 411.373 337.043 411.951 336.148C412.527 335.243 413.023 334.283 413.423 333.287C413.455 333.209 413.475 333.127 413.505 333.049L413.537 332.961C413.713 332.498 413.873 332.033 414.007 331.555L414.013 331.527ZM385.681 345.681C384.027 345.681 382.681 344.264 382.681 342.523C382.681 340.782 384.027 339.365 385.681 339.365C387.335 339.365 388.681 340.782 388.681 342.523C388.681 344.264 387.335 345.681 385.681 345.681ZM403.681 345.681C402.027 345.681 400.681 344.264 400.681 342.523C400.681 340.782 402.027 339.365 403.681 339.365C405.335 339.365 406.681 340.782 406.681 342.523C406.681 344.264 405.335 345.681 403.681 345.681Z" fill="#246B6D"/>
<rect x="464.962" y="284.5" width="87" height="87" rx="4.5" fill="white" stroke="#246B6D"/>
<path d="M526.462 346.469H516.462C515.759 346.469 515.166 346.221 514.685 345.727C514.203 345.232 513.962 344.647 513.962 343.97V333.974C513.962 333.271 513.715 332.679 513.22 332.198C512.725 331.716 512.139 331.475 511.462 331.475H506.462C505.759 331.475 505.166 331.716 504.685 332.198C504.203 332.679 503.962 333.271 503.962 333.974V343.97C503.962 344.647 503.715 345.232 503.22 345.727C502.725 346.221 502.139 346.469 501.462 346.469H491.423C490.824 346.469 490.264 346.215 489.743 345.707C489.222 345.2 488.962 344.634 488.962 344.009C488.962 343.54 489.079 343.111 489.313 342.72L505.915 319.449L499.313 310.235C498.949 309.636 498.858 309.005 499.04 308.341C499.222 307.677 499.613 307.176 500.212 306.838C500.811 306.499 501.442 306.415 502.106 306.584C502.771 306.753 503.272 307.137 503.61 307.736L508.962 315.193L514.274 307.697C514.613 307.124 515.121 306.747 515.798 306.564C516.475 306.382 517.106 306.46 517.692 306.799C518.278 307.137 518.662 307.638 518.845 308.302C519.027 308.966 518.949 309.597 518.61 310.196L512.009 319.449L528.61 342.759C528.845 343.176 528.962 343.579 528.962 343.97C528.962 344.595 528.708 345.167 528.2 345.688C527.692 346.208 527.113 346.469 526.462 346.469Z" fill="#246B6D"/>
<rect x="22.0146" y="151.5" width="87" height="87" rx="4.5" fill="white" stroke="#246B6D"/>
<path d="M46.0049 208.469L50.9096 213.855L50.8053 213.394C50.5356 212.206 49.9442 211.117 49.0967 210.248C48.2493 209.379 47.1791 208.763 46.0049 208.469V208.469Z" fill="#246B6D"/>
<path d="M54.8908 206.059H51.8846L49.9922 210.413C50.6536 211.25 51.1192 212.226 51.3545 213.268L51.644 214.551H55.1315L55.4209 213.268C55.6563 212.226 56.1219 211.25 56.7833 210.413L54.8908 206.059Z" fill="#246B6D"/>
<path d="M45.5146 204.36V207.793C47.0699 208.035 48.5013 208.79 49.5834 209.941L51.2704 206.059H46.077V205.493H61.2599V204.36H45.5146Z" fill="#246B6D"/>
<path d="M55.9685 213.394L55.8643 213.855L60.769 208.469C59.5948 208.763 58.5245 209.379 57.6771 210.248C56.8297 211.117 56.2382 212.206 55.9685 213.394V213.394Z" fill="#246B6D"/>
<path d="M57.1909 209.941C58.273 208.79 59.7043 208.035 61.2596 207.793V206.059H55.5039L57.1909 209.941Z" fill="#246B6D"/>
<path d="M84.5282 207.721L83.4512 207.457C82.4855 207.219 81.628 206.066 81.2882 205.125C80.3518 202.534 81.6648 199.843 82.1625 198.966C82.2071 198.887 82.2183 198.794 82.1935 198.707C82.1688 198.62 82.1102 198.547 82.031 198.504L77.656 196.136C77.5612 196.085 77.4476 196.083 77.351 196.131C77.2544 196.178 77.1867 196.27 77.1692 196.377C76.9373 197.79 75.9555 199.469 75.2871 200.385L77.4579 201.55C77.7976 201.734 78.0534 202.053 78.1598 202.426C78.2662 202.799 78.2175 203.207 78.026 203.544C77.7409 204.047 77.012 205.484 76.9721 207.077L77.042 207.121C77.8119 207.61 78.3968 208.344 78.7032 209.207C78.9479 209.895 79.4629 210.453 80.1277 210.748C80.7924 211.043 81.5163 210.955 82.2184 210.767C82.8885 210.587 84.7216 210.187 84.7216 210.187C85.1321 210.096 85.3774 209.709 85.4779 209.295C85.6472 208.596 85.222 207.892 84.5282 207.721Z" fill="#246B6D"/>
<path d="M79.4311 211.748L78.354 211.483C77.3882 211.246 76.5308 210.092 76.191 209.152C75.2546 206.56 76.5677 203.869 77.0654 202.992C77.11 202.914 77.1212 202.82 77.0964 202.733C77.0716 202.646 77.0129 202.573 76.9337 202.53L72.5588 200.163C72.5095 200.136 72.4553 200.123 72.4009 200.123C72.3506 200.123 72.3003 200.134 72.2538 200.157C72.1572 200.205 72.0895 200.297 72.072 200.404C71.8228 201.922 71.1312 203.132 70.4697 203.988C71.516 204.825 72.1888 206.115 72.1888 207.561C72.1888 208.718 71.7581 209.775 71.0507 210.58L71.9449 211.148C72.7147 211.636 73.2997 212.37 73.6061 213.233C73.8507 213.922 74.3657 214.479 75.0305 214.774C75.3704 214.925 75.7342 215 76.098 215C76.7604 215 77.4918 214.844 79.6244 214.213C80.1033 214.065 80.2803 213.735 80.3807 213.321C80.55 212.622 80.1248 211.918 79.4311 211.748Z" fill="#246B6D"/>
<path d="M69.7392 204.824C69.5105 205.055 69.3164 205.225 69.1888 205.331C69.1328 205.372 69.0776 205.416 69.0241 205.462C68.426 205.982 68.1081 206.756 68.1672 207.549C68.2262 208.342 68.6553 209.06 69.3236 209.484L70.1007 209.977C70.7084 209.354 71.0842 208.501 71.0842 207.561C71.0841 206.447 70.5561 205.455 69.7392 204.824Z" fill="#246B6D"/>
<path d="M66.3323 176.399L65.9834 176.751V176.399H64.2648C63.4899 177.605 61.8539 178.438 59.9545 178.438C58.0558 178.438 56.4198 177.605 55.6449 176.399H53.9262V176.751L53.5767 176.399L47.3955 182.626L50.7766 186.033L53.9262 182.86V198.723H65.982V182.861L69.1324 186.033L72.5128 182.626L66.3323 176.399Z" fill="#246B6D"/>
<path d="M65.9821 200.123H53.9263C53.159 200.123 52.5363 199.496 52.5363 198.723V186.24L51.7593 187.022C51.4987 187.285 51.145 187.432 50.7759 187.432C50.4076 187.432 50.0531 187.284 49.7925 187.022L46.4114 183.615C45.8694 183.069 45.8694 182.184 46.4114 181.636L52.594 175.41C52.8956 175.106 53.3314 174.958 53.7511 175.011C53.8088 175.004 53.8672 175 53.9263 175H55.6449C56.1161 175 56.5561 175.241 56.8118 175.639C57.3588 176.49 58.5924 177.039 59.9545 177.039C61.3167 177.039 62.551 176.49 63.0979 175.639C63.3537 175.241 63.7929 175 64.2648 175H65.9835C66.0425 175 66.1009 175.003 66.1586 175.011C66.2156 175.004 66.2733 175 66.3317 175C66.3323 175 66.3323 175 66.3323 175C66.7007 175 67.0544 175.148 67.3157 175.41L73.4969 181.636C74.039 182.182 74.039 183.067 73.4969 183.614L70.1165 187.022C69.8559 187.284 69.5022 187.432 69.1338 187.432C69.1331 187.432 69.1331 187.432 69.1331 187.432C68.7648 187.433 68.411 187.285 68.1504 187.023L67.3727 186.239V198.723C67.372 199.496 66.75 200.123 65.9821 200.123ZM55.3162 197.324H64.5921V182.861C64.5921 182.295 64.9306 181.785 65.4497 181.568C65.9696 181.35 66.5666 181.471 66.9648 181.872L69.1317 184.053L70.5481 182.626L66.1009 178.146C65.8792 178.166 65.661 178.131 65.4518 178.044C65.3066 177.984 65.1752 177.9 65.0612 177.799H64.9417C63.7943 179.072 61.9554 179.838 59.9545 179.838C57.9537 179.838 56.1155 179.072 54.9673 177.799H54.8478C54.7345 177.9 54.6032 177.983 54.4579 178.044C54.2473 178.132 54.0236 178.163 53.8074 178.146L49.3596 182.626L50.7759 184.054L52.9422 181.872C53.3397 181.471 53.9374 181.351 54.4572 181.568C54.9771 181.785 55.3155 182.295 55.3155 182.861V197.324H55.3162Z" fill="#246B6D"/>
<path d="M53.3349 189.66L58.4231 189.66" stroke="white"/>
<line x1="53.335" y1="194.843" x2="58.4231" y2="194.843" stroke="white"/>
<ellipse cx="58.3906" cy="194.942" rx="0.396285" ry="0.393628" transform="rotate(90 58.3906 194.942)" fill="white"/>
<ellipse cx="58.3848" cy="189.66" rx="0.393628" ry="0.396286" fill="white"/>
<line y1="-0.5" x2="2.95061" y2="-0.5" transform="matrix(0.706959 0.707175 -0.702479 0.711784 54.7764 181.57)" stroke="white"/>
<circle r="0.39311" transform="matrix(0.70103 0.713132 -0.708396 0.705816 57.1368 183.376)" fill="white"/>
<circle r="0.396435" transform="matrix(0.70103 0.713132 -0.708396 0.705815 55.0928 181.327)" fill="white"/>
<line y1="-0.5" x2="2.9504" y2="-0.5" transform="matrix(0.702479 -0.711784 0.706959 0.707175 55.3359 183.697)" stroke="white"/>
<circle r="0.39311" transform="matrix(0.708396 -0.705815 0.70103 0.713132 57.1293 181.32)" fill="white"/>
<circle r="0.396435" transform="matrix(0.708396 -0.705815 0.70103 0.713131 55.0939 183.378)" fill="white"/>
<line x1="62.6191" y1="199.33" x2="62.6191" y2="194.208" stroke="white"/>
<ellipse cx="62.7198" cy="194.205" rx="0.393628" ry="0.396286" fill="white"/>
<line y1="-0.5" x2="2.94056" y2="-0.5" transform="matrix(0.999964 -0.00846208 0.0083471 0.999965 61.25 195.368)" stroke="white"/>
<ellipse cx="64.1906" cy="194.949" rx="0.391786" ry="0.394431" fill="white"/>
<ellipse cx="61.3062" cy="194.97" rx="0.3951" ry="0.397768" fill="white"/>
<line y1="-0.5" x2="2.94056" y2="-0.5" transform="matrix(0.999964 -0.00846079 0.00834838 0.999965 61.25 197.176)" stroke="white"/>
<ellipse cx="64.1906" cy="196.756" rx="0.391786" ry="0.394431" fill="white"/>
<ellipse cx="61.3062" cy="196.778" rx="0.395098" ry="0.397767" fill="white"/>
<path d="M57.0225 191.397H58.3849H59.7473" stroke="#246B6D"/>
<path d="M57.0225 191.397H58.3849H59.7473" stroke="white"/>
<ellipse cx="59.7476" cy="191.397" rx="0.395099" ry="0.397768" fill="white"/>
<ellipse cx="59.7476" cy="193.108" rx="0.395099" ry="0.397768" fill="white"/>
<ellipse cx="56.9771" cy="193.108" rx="0.3951" ry="0.397768" fill="white"/>
<ellipse cx="56.9703" cy="191.397" rx="0.395098" ry="0.397768" fill="white"/>
<path d="M57.0225 193.108H58.3849H59.7473" stroke="white"/>
<rect x="354.487" y="151.5" width="87" height="87" rx="4.5" fill="white" stroke="#246B6D"/>
<path d="M383.702 212.143H389.416V179.286H387.273V210.714H385.844V179.286H383.702V212.143Z" fill="#246B6D"/>
<path d="M378.702 215H417.273C417.667 215 417.987 214.68 417.987 214.286V191.429H412.987C411.804 191.429 410.844 190.469 410.844 189.286V186.429H412.273V189.286C412.273 189.68 412.593 190 412.987 190H416.976L412.175 185.206C412.038 185.074 411.856 185.001 411.666 185H404.416V212.857C404.416 213.252 404.096 213.571 403.702 213.571H394.416C394.021 213.571 393.702 213.252 393.702 212.857V185H390.844V212.857C390.844 213.252 390.525 213.571 390.13 213.571H382.987C382.593 213.571 382.273 213.252 382.273 212.857V185H378.702C378.307 185 377.987 185.32 377.987 185.714V214.286C377.987 214.68 378.307 215 378.702 215Z" fill="#246B6D"/>
<path d="M386.559 175.402L384.512 177.857H388.605L386.559 175.402Z" fill="#246B6D"/>
<path d="M395.13 209.286V212.143H402.987V175H395.13V177.857H396.559V179.286H395.13V182.143H396.559V183.571H395.13V186.429H396.559V187.857H395.13V190.714H396.559V192.143H395.13V195H396.559V196.429H395.13V199.286H396.559V200.714H395.13V203.571H396.559V205H395.13V207.857H396.559V209.286H395.13Z" fill="#246B6D"/>
<rect x="132.489" y="284.5" width="87" height="87" rx="4.5" fill="white" stroke="#246B6D"/>
<path d="M190.989 348H160.989C159.609 348 158.431 347.512 157.454 346.535C156.478 345.559 155.989 344.38 155.989 343V325.5C155.989 324.12 156.478 322.941 157.454 321.965C158.431 320.988 159.609 320.5 160.989 320.5H174.583L166.927 312.805C166.614 312.935 166.302 313 165.989 313C165.312 313 164.726 312.753 164.231 312.258C163.737 311.763 163.489 311.171 163.489 310.48C163.489 309.79 163.737 309.204 164.231 308.723C164.726 308.241 165.319 308 166.009 308C166.699 308 167.285 308.241 167.767 308.723C168.248 309.204 168.489 309.797 168.489 310.5C168.489 310.812 168.424 311.125 168.294 311.437L175.989 319.094L183.685 311.437C183.554 311.125 183.489 310.812 183.489 310.5C183.489 309.797 183.737 309.204 184.231 308.723C184.726 308.241 185.319 308 186.009 308C186.699 308 187.285 308.241 187.767 308.723C188.248 309.204 188.489 309.79 188.489 310.48C188.489 311.171 188.248 311.763 187.767 312.258C187.285 312.753 186.692 313 185.989 313C185.677 313 185.364 312.935 185.052 312.805L177.396 320.5H190.989C192.369 320.5 193.548 320.988 194.524 321.965C195.501 322.941 195.989 324.12 195.989 325.5V343C195.989 344.38 195.501 345.559 194.524 346.535C193.548 347.512 192.369 348 190.989 348ZM183.489 332.258C183.489 327.961 182.656 325.708 180.989 325.5H160.989C160.494 325.578 160.078 325.799 159.739 326.164C159.401 326.529 159.153 326.913 158.997 327.316C158.841 327.72 158.717 328.254 158.626 328.918C158.535 329.582 158.489 330.09 158.489 330.441V336.242C158.489 336.867 158.515 337.486 158.567 338.098C158.619 338.71 158.724 339.4 158.88 340.168C159.036 340.936 159.29 341.581 159.642 342.102C159.993 342.622 160.442 342.922 160.989 343H180.989C181.38 342.948 181.731 342.798 182.044 342.551C182.356 342.303 182.597 341.952 182.767 341.496C182.936 341.04 183.073 340.617 183.177 340.227C183.281 339.836 183.353 339.341 183.392 338.742C183.431 338.143 183.457 337.701 183.47 337.414C183.483 337.128 183.489 336.737 183.489 336.242V332.258ZM192.239 325.5H187.239C186.901 325.5 186.608 325.624 186.36 325.871C186.113 326.118 185.989 326.411 185.989 326.75C185.989 327.089 186.113 327.382 186.36 327.629C186.608 327.876 186.901 328 187.239 328H192.239C192.578 328 192.871 327.876 193.118 327.629C193.366 327.382 193.489 327.089 193.489 326.75C193.489 326.411 193.366 326.118 193.118 325.871C192.871 325.624 192.578 325.5 192.239 325.5ZM192.239 330.5H187.239C186.901 330.5 186.608 330.624 186.36 330.871C186.113 331.118 185.989 331.411 185.989 331.75C185.989 332.089 186.113 332.382 186.36 332.629C186.608 332.876 186.901 333 187.239 333H192.239C192.578 333 192.871 332.876 193.118 332.629C193.366 332.382 193.489 332.089 193.489 331.75C193.489 331.411 193.366 331.118 193.118 330.871C192.871 330.624 192.578 330.5 192.239 330.5ZM192.239 335.5H187.239C186.901 335.5 186.608 335.624 186.36 335.871C186.113 336.118 185.989 336.411 185.989 336.75C185.989 337.089 186.113 337.382 186.36 337.629C186.608 337.876 186.901 338 187.239 338H192.239C192.578 338 192.871 337.876 193.118 337.629C193.366 337.382 193.489 337.089 193.489 336.75C193.489 336.411 193.366 336.118 193.118 335.871C192.871 335.624 192.578 335.5 192.239 335.5ZM192.239 340.5H187.239C186.901 340.5 186.608 340.624 186.36 340.871C186.113 341.118 185.989 341.411 185.989 341.75C185.989 342.089 186.113 342.382 186.36 342.629C186.608 342.876 186.901 343 187.239 343H192.239C192.578 343 192.871 342.876 193.118 342.629C193.366 342.382 193.489 342.089 193.489 341.75C193.489 341.411 193.366 341.118 193.118 340.871C192.871 340.624 192.578 340.5 192.239 340.5Z" fill="#246B6D"/>
<rect x="354.487" y="18.5" width="87" height="87" rx="4.5" fill="white" stroke="#246B6D"/>
<path d="M417.179 43.2673C417.104 43.034 416.932 42.8697 416.73 42.8393C416.528 42.8089 416.328 42.9171 416.21 43.1214C415.508 44.3342 414.587 44.7385 413.52 45.2067C412.659 45.5844 411.77 45.9747 410.808 46.8255C409.448 48.0287 408.826 49.6688 409.136 51.2233L409.103 51.2757C408.535 50.2604 407.917 49.3214 407.265 48.4829C404.215 44.5601 399.952 42.2016 395.569 42.0126C395.376 42.0042 395.18 42 394.986 42C390.093 42 385.409 44.6957 382.136 49.3958C378.88 54.0716 377.437 60.1583 378.177 66.0953C378.239 66.5916 378.316 67.093 378.407 67.586C379.611 74.1133 382.684 79.0788 386.84 81.2088C387.864 81.7339 388.898 82 389.911 82C392.428 82 394.626 80.341 395.943 77.4483C396.443 76.3476 396.766 75.2093 396.902 74.0648C396.982 73.3893 396.927 72.7143 396.874 72.0602C396.82 71.387 396.768 70.7507 396.851 70.1101C397.04 68.6416 397.873 67.7648 399.077 67.7648C399.42 67.7648 399.77 67.8343 400.12 67.9715C399.71 68.897 399.339 69.7806 399.014 70.5997C398.325 72.3356 397.85 73.7731 397.601 74.872C397.448 75.5497 397.041 77.3507 398.034 78.1999C398.349 78.4695 398.749 78.5647 399.165 78.4693C399.54 78.3835 400.681 78.1223 403.922 73.5745C404.792 72.3541 405.73 70.9417 406.71 69.3759C409.225 68.3318 411.183 65.7334 411.701 62.7476C411.831 62.0012 411.885 61.2024 411.862 60.3727C412.803 58.5789 413.63 56.9052 414.461 55.1059C414.477 55.0712 414.493 55.0342 414.508 54.9963C415.715 54.5891 416.754 53.4319 417.364 51.8137C418.255 49.452 418.189 46.4166 417.179 43.2673ZM403.579 54.4507C403.143 55.3048 402.393 55.8147 401.573 55.8147C401.127 55.8147 400.691 55.6594 400.313 55.3655C399.777 54.9499 399.405 54.3023 399.265 53.542C399.125 52.7817 399.233 51.9995 399.57 51.3396C400.007 50.4854 400.757 49.9755 401.577 49.9755C402.023 49.9755 402.458 50.1308 402.837 50.4249C403.372 50.8402 403.745 51.4878 403.885 52.2482C404.025 53.0086 403.917 53.7908 403.579 54.4507ZM406.654 59.74C407.852 57.5654 409.118 55.4038 410.321 53.4811C410.516 53.6981 410.734 53.9101 410.971 54.1121C411.362 54.4468 411.771 54.7056 412.19 54.8828C411.174 57.0233 410.082 59.1439 408.76 61.544C406.587 65.4889 404.328 69.1533 402.399 71.8622C401.321 73.3753 400.378 74.5436 399.651 75.2672C399.932 74.1614 400.468 72.6439 401.214 70.8459C402.548 67.6306 404.48 63.6865 406.654 59.74ZM385.627 59.7213C385.182 59.7213 384.746 59.566 384.367 59.2719C383.832 58.8564 383.46 58.2091 383.319 57.4486C383.179 56.6881 383.288 55.9059 383.625 55.246C384.061 54.392 384.811 53.882 385.632 53.882C386.077 53.882 386.513 54.0373 386.892 54.3314C387.997 55.1893 388.33 56.9953 387.634 58.3571C387.197 59.2113 386.447 59.7213 385.627 59.7213ZM383.144 66.1497C383.58 65.2954 384.33 64.7855 385.151 64.7855C385.596 64.7855 386.032 64.9409 386.41 65.2348C386.946 65.6503 387.318 66.2978 387.458 67.0582C387.598 67.8184 387.49 68.6005 387.153 69.2606C386.716 70.1145 385.966 70.6246 385.146 70.6246C384.7 70.6246 384.265 70.4693 383.886 70.1752C383.35 69.7596 382.978 69.1123 382.838 68.3519C382.698 67.5917 382.807 66.8095 383.144 66.1497ZM390.73 48.8113C391.167 47.9572 391.917 47.4473 392.737 47.4473C393.182 47.4473 393.618 47.6026 393.997 47.8965C395.102 48.7542 395.435 50.5603 394.739 51.9223C394.303 52.7765 393.553 53.2865 392.732 53.2865C392.287 53.2865 391.851 53.1312 391.473 52.8371C390.937 52.4218 390.565 51.7743 390.425 51.0138C390.285 50.2535 390.393 49.4714 390.73 48.8113Z" fill="#246B6D"/>
</svg>
