<svg width="513" height="513" viewBox="0 0 513 513" fill="none" xmlns="http://www.w3.org/2000/svg">
<g clip-path="url(#clip0)">
<path d="M354.757 62.6604L352.24 61.4454C341.835 30.3614 312.729 9.39544 279.953 9.37744H135.291L152.647 61.4454C132.471 71.5294 122.196 94.4304 128.088 116.203L143.969 165.581H161.325V122.191C161.325 122.191 213.393 122.191 239.427 113.513L317.529 87.4794L352.241 148.225V165.581H369.597L379.837 114.294C384.037 93.3974 373.779 72.2754 354.757 62.6604Z" fill="black"/>
<path d="M152.645 61.4453C132.512 71.5553 122.307 94.4733 128.26 116.203L143.967 165.581H161.323V122.191C161.323 122.191 181.716 122.191 203.324 120.108C181.126 105.85 163.528 85.4743 152.645 61.4453Z" fill="black"/>
<path d="M393.808 367.864L333.496 359.793L329.331 369.426C312.105 409.492 265.661 428.011 225.595 410.785C207.024 402.801 192.228 387.997 184.236 369.426L180.071 359.793L119.759 367.864C93.9069 371.3 74.5819 393.334 74.5469 419.411V512.699H439.022V419.411C438.986 393.334 419.66 371.3 393.808 367.864Z" fill="#FECB66"/>
<path d="M256.78 417.241C288.35 417.258 316.892 398.445 329.328 369.425L333.493 359.792L323.947 358.49C315.252 357.353 308.769 349.908 308.847 341.134V304.426H204.712V341.654C204.79 350.427 198.308 357.873 189.612 359.01L180.066 360.312L184.231 369.945C196.824 398.766 225.331 417.346 256.78 417.241Z" fill="#FFE6D8"/>
<path d="M309.89 347.037C309.196 345.206 308.84 343.262 308.849 341.31V304.429H204.713V341.657C204.722 343.61 204.366 345.553 203.672 347.384C237.117 364.193 276.558 364.063 309.89 347.037Z" fill="#F5C4B0"/>
<path d="M109.255 370.467C88.506 377.8 74.604 397.395 74.543 419.411V512.699H109.255V370.467Z" fill="#F5AD76"/>
<path d="M352.241 156.902H343.562V208.97H352.241C366.62 208.97 378.275 197.315 378.275 182.936C378.275 168.557 366.62 156.902 352.241 156.902Z" fill="#FEDAC6"/>
<path d="M135.289 182.936C135.289 197.315 146.944 208.97 161.323 208.97H170.001V156.902H161.323C146.944 156.902 135.289 168.557 135.289 182.936Z" fill="#F5C4B0"/>
<path d="M352.239 241.86C352.352 254.617 347.787 266.965 339.396 276.572L301.907 319.007C295.329 326.496 285.844 330.8 275.873 330.809H237.864C227.893 330.8 218.408 326.496 211.83 319.007L174.341 276.138C165.949 266.531 161.385 254.183 161.498 241.426V122.191C161.498 122.191 213.566 122.191 239.6 113.513L317.702 87.479L352.414 148.225L352.239 241.86Z" fill="#FFE6D8"/>
<path d="M196.034 120.715C177.376 122.19 161.322 122.19 161.322 122.19V241.859C161.209 254.616 165.774 266.964 174.165 276.571L196.033 301.043L196.034 120.715Z" fill="#FFE6D8"/>
<path d="M161.324 148.224H239.426V174.258C239.426 188.637 227.771 200.292 213.392 200.292H187.358C172.979 200.292 161.324 188.637 161.324 174.258V148.224Z" fill="#EBEBEB"/>
<path d="M274.137 148.224H352.239V174.258C352.239 188.637 340.584 200.292 326.205 200.292H300.171C285.792 200.292 274.137 188.637 274.137 174.258V148.224Z" fill="#EBEBEB"/>
<path d="M83.2232 512.699H65.8672V419.758C65.8412 389.151 88.7332 363.204 119.115 359.429L188.452 350.066C192.826 349.502 196.071 345.77 196.037 341.388V313.106H213.393V341.309C213.506 354.378 203.769 365.573 190.735 367.265L121.346 376.637C99.5472 379.353 83.1982 397.872 83.2152 419.749V512.699H83.2232Z" fill="black"/>
<path d="M447.695 512.699H430.339V419.758C430.356 397.881 414.007 379.353 392.303 376.646L322.784 367.265C309.793 365.573 300.056 354.378 300.169 341.231V313.106H317.525V341.309C317.482 345.769 320.727 349.492 325.075 350.065L394.533 359.437C424.828 363.212 447.72 389.15 447.694 419.766V512.699H447.695Z" fill="black"/>
<path d="M352.241 217.648H343.562V200.292H352.241C361.813 200.292 369.596 192.508 369.596 182.936C369.596 173.364 361.813 165.58 352.241 165.58H343.562V148.224H352.241C371.385 148.224 386.953 163.792 386.953 182.936C386.953 202.08 371.384 217.648 352.241 217.648Z" fill="black"/>
<path d="M169.999 217.648H161.321C142.177 217.648 126.609 202.08 126.609 182.936C126.609 163.792 142.177 148.224 161.321 148.224H169.999V165.58H161.321C151.749 165.58 143.965 173.364 143.965 182.936C143.965 192.508 151.749 200.292 161.321 200.292H169.999V217.648Z" fill="black"/>
<path d="M256.823 425.919C256.788 425.919 256.754 425.919 256.728 425.919C221.652 425.919 190.073 405.092 176.257 372.845L170.703 359.924L186.653 353.077L192.207 366.007C203.289 391.859 228.611 408.564 256.736 408.564C256.762 408.564 256.788 408.564 256.814 408.564C284.939 408.564 310.27 391.859 321.361 366.007L326.915 353.077L342.865 359.924L337.311 372.854C323.488 405.092 291.891 425.919 256.823 425.919Z" fill="black"/>
<path d="M265.458 226.326H230.746C228.073 226.326 225.548 225.094 223.899 222.985C222.259 220.876 221.677 218.125 222.328 215.539L239.684 146.462L256.511 150.688L241.871 208.969H265.458V226.326Z" fill="black"/>
<path d="M246.037 261.038H230.746V243.682H246.019C257.37 243.656 268.773 240.966 278.961 235.907L286.676 251.458C274.11 257.688 260.06 261.003 246.037 261.038Z" fill="black"/>
<path d="M275.889 339.487H237.862C225.383 339.47 213.529 334.089 205.311 324.734L167.814 281.856C158.017 270.627 152.697 256.247 152.827 241.356V122.191C152.827 117.401 156.715 113.513 161.505 113.513C162.008 113.513 212.479 113.409 236.864 105.278L314.966 79.244C318.897 77.951 323.193 79.582 325.249 83.175L359.961 143.921C360.716 145.231 361.107 146.724 361.107 148.243L360.916 241.826C361.046 256.7 355.718 271.062 345.92 282.274L308.405 324.753C300.205 334.089 288.342 339.469 275.889 339.487ZM170.174 130.738V241.425C170.079 252.142 173.879 262.417 180.874 270.435L218.354 313.287C223.274 318.893 230.39 322.121 237.871 322.13H275.872C283.326 322.121 290.451 318.893 295.389 313.27L332.886 270.817C339.854 262.833 343.655 252.559 343.551 241.928C343.551 241.893 343.551 241.867 343.551 241.833L343.725 150.515L313.682 97.953L242.34 121.739C221.6 128.656 186.454 130.33 170.174 130.738Z" fill="black"/>
<path d="M135.699 168.227L119.905 118.849C113.44 95.3402 122.76 70.8162 142.19 57.5392L127.047 12.1272C126.162 9.48024 126.613 6.57324 128.245 4.30824C129.885 2.03424 132.506 0.698242 135.292 0.698242H280.04C315.377 0.733242 346.765 22.5322 359.261 55.3002C381.303 66.6332 393.305 91.5042 388.35 116.011L378.11 167.28L361.093 163.878L371.333 112.591C374.787 95.5042 366.317 78.1832 350.723 70.4332L348.25 69.1492C346.254 68.1082 344.735 66.3372 344.024 64.1942C334.808 36.6242 309.095 18.0792 280.033 18.0532H147.328L160.883 58.7032C162.254 62.8082 160.388 67.2862 156.518 69.2122C140.082 77.4042 131.682 96.1922 136.55 113.904L152.24 162.935L135.699 168.227Z" fill="black"/>
<path d="M213.391 208.97H187.357C168.213 208.97 152.645 193.402 152.645 174.258V148.224C152.645 143.434 156.533 139.546 161.323 139.546H239.425C244.215 139.546 248.103 143.434 248.103 148.224V174.258C248.103 193.402 232.535 208.97 213.391 208.97ZM170.001 156.902V174.258C170.001 183.83 177.785 191.614 187.357 191.614H213.391C222.963 191.614 230.747 183.83 230.747 174.258V156.902H170.001Z" fill="black"/>
<path d="M326.207 208.97H300.173C281.029 208.97 265.461 193.402 265.461 174.258V148.224C265.461 143.434 269.349 139.546 274.139 139.546H352.241C357.04 139.546 360.919 143.434 360.919 148.224V174.258C360.919 193.402 345.35 208.97 326.207 208.97ZM282.817 156.902V174.258C282.817 183.83 290.601 191.614 300.173 191.614H326.207C335.779 191.614 343.563 183.83 343.563 174.258V156.902H282.817Z" fill="black"/>
<path d="M274.138 139.546H239.426V156.902H274.138V139.546Z" fill="black"/>
</g>
<defs>
<clipPath id="clip0">
<rect width="512" height="512" fill="white" transform="translate(0.78125 0.699219)"/>
</clipPath>
</defs>
</svg>
