<svg width="513" height="513" viewBox="0 0 513 513" fill="none" xmlns="http://www.w3.org/2000/svg">
<g clip-path="url(#clip0)">
<path d="M376.258 282.311V128.711C376.258 62.7311 322.771 9.24414 256.791 9.24414C190.811 9.24414 137.324 62.7311 137.324 128.711V282.311H376.258Z" fill="#FECB66"/>
<path d="M290.923 53.7881C231.19 87.0681 177.857 94.5781 145.857 92.5301C143.058 101.481 141.624 110.8 141.59 120.178V146.461L162.923 145.778L290.923 77.5111V53.7881Z" fill="#F5AD76"/>
<path d="M256.791 171.378H137.324V282.311H256.791V171.378Z" fill="#F5AD76"/>
<path d="M376.261 343.068L339.824 338.545L323.781 336.582L256.794 487.111L189.893 336.583L173.85 338.546L137.327 343.069C103.185 347.37 77.5848 376.409 77.5938 410.824V512.711H435.994V410.823C436.003 376.408 410.403 347.369 376.261 343.068Z" fill="#787D82"/>
<path d="M197.058 418.844L188.524 452.978L256.791 487.111L189.89 336.498L173.847 338.546L137.324 418.844H197.058Z" fill="#868C91"/>
<path d="M316.526 418.844H376.26L339.737 338.546L323.694 336.498L256.793 487.111L325.06 452.978L316.526 418.844Z" fill="#868C91"/>
<path d="M256.793 487.111L290.926 410.311H222.66L256.793 487.111Z" fill="#EBEBEB"/>
<path d="M314.395 335.388C305.81 334.304 299.393 326.974 299.462 318.321V282.311H214.129V318.407C214.197 327.06 207.78 334.39 199.196 335.474L189.895 336.669L222.663 410.312H290.93L323.698 336.584L314.395 335.388Z" fill="#FEDAC6"/>
<path d="M299.462 321.052V282.311H214.129V321.052C246.128 337.692 267.462 337.692 299.462 321.052Z" fill="#F5C4B0"/>
<path d="M77.5938 409.628V512.711H111.727V350.578C90.6237 362.763 77.6198 385.266 77.5938 409.628Z" fill="#717478"/>
<path d="M162.926 137.244L167.619 214.044C169.778 263.29 211.446 301.468 260.692 299.318C306.926 297.296 343.943 260.278 345.966 214.044L350.659 137.244L290.926 77.5107L162.926 137.244Z" fill="#FEDAC6"/>
<path d="M208.153 173.596L205.593 113.863C191.931 122.644 177.672 130.452 162.926 137.244L170.094 216.348C171.954 256.549 200.464 290.545 239.726 299.377L228.377 278.3C209.433 243.228 208.153 213.532 208.153 173.596Z" fill="#F5C4B0"/>
<path d="M205.594 196.977C224.445 196.977 239.727 181.695 239.727 162.844C239.727 143.993 224.445 128.711 205.594 128.711C186.743 128.711 171.461 143.993 171.461 162.844C171.461 181.695 186.743 196.977 205.594 196.977Z" fill="#EBEBEB"/>
<path d="M307.992 196.977C326.844 196.977 342.125 181.695 342.125 162.844C342.125 143.993 326.844 128.711 307.992 128.711C289.141 128.711 273.859 143.993 273.859 162.844C273.859 181.695 289.141 196.977 307.992 196.977Z" fill="#EBEBEB"/>
<path d="M359.193 145.778H350.66V196.978H359.193C373.333 196.978 384.793 185.518 384.793 171.378C384.793 157.238 373.333 145.778 359.193 145.778Z" fill="#FEDAC6"/>
<path d="M128.793 171.378C128.793 185.518 140.253 196.978 154.393 196.978H162.926V145.778H154.393C140.253 145.778 128.793 157.238 128.793 171.378Z" fill="#F5C4B0"/>
<path d="M254.095 213.609L228.495 205.076C224.024 203.583 221.609 198.753 223.102 194.281L240.169 143.081L256.357 148.483L241.987 191.585L259.489 197.422L254.095 213.609Z" fill="black"/>
<path d="M359.193 205.511H350.66V188.444H359.193C368.605 188.444 376.26 180.79 376.26 171.377C376.26 161.965 368.606 154.31 359.193 154.31H350.66V137.243H359.193C378.018 137.243 393.326 152.552 393.326 171.376C393.326 190.2 378.018 205.511 359.193 205.511Z" fill="black"/>
<path d="M256.793 307.911C204.322 307.911 161.407 266.84 159.095 214.42L154.41 137.765L171.443 136.724L176.136 213.524C178.047 256.942 213.478 290.845 256.793 290.845C300.108 290.845 335.539 256.942 337.442 213.67L342.144 136.725L359.177 137.766L354.484 214.566C352.187 266.849 309.264 307.911 256.793 307.911Z" fill="black"/>
<path d="M246.238 248.178C246.229 248.178 246.221 248.178 246.212 248.178H239.727V231.111H246.212C246.221 231.111 246.229 231.111 246.238 231.111C257.408 231.111 268.595 228.474 278.579 223.474L286.216 238.74C273.869 244.918 260.045 248.178 246.238 248.178Z" fill="black"/>
<path d="M166.944 153.304L158.914 138.243L286.914 69.9762C290.404 68.1242 294.748 68.9012 297.359 71.8872L357.092 140.154L344.241 151.392L288.971 88.2202L166.944 153.304Z" fill="black"/>
<path d="M162.928 205.511H154.395C135.57 205.511 120.262 190.202 120.262 171.378C120.262 152.554 135.571 137.245 154.395 137.245H162.928V154.311H154.395C144.983 154.311 137.328 161.965 137.328 171.378C137.328 180.79 144.982 188.445 154.395 188.445H162.928V205.511Z" fill="black"/>
<path d="M384.793 154.311H367.726V128.711C367.726 67.5439 317.96 17.7779 256.793 17.7779C195.626 17.7779 145.86 67.5439 145.86 128.711V154.311H128.793V128.711C128.793 58.1319 186.214 0.710938 256.793 0.710938C327.372 0.710938 384.793 58.1319 384.793 128.711V154.311Z" fill="black"/>
<path d="M299.462 17.7778H282.395V77.5108H299.462V17.7778Z" fill="black"/>
<path d="M205.593 290.844H137.326C132.616 290.844 128.793 287.03 128.793 282.311V188.444H145.86V273.777H205.593V290.844Z" fill="black"/>
<path d="M376.259 290.844H307.992V273.777H367.725V188.444H384.792V282.311C384.792 287.03 380.978 290.844 376.259 290.844Z" fill="black"/>
<path d="M205.593 205.511C182.067 205.511 162.926 186.371 162.926 162.844C162.926 139.317 182.066 120.177 205.593 120.177C229.12 120.177 248.26 139.317 248.26 162.844C248.26 186.371 229.119 205.511 205.593 205.511ZM205.593 137.244C191.479 137.244 179.993 148.73 179.993 162.844C179.993 176.958 191.479 188.444 205.593 188.444C219.707 188.444 231.193 176.958 231.193 162.844C231.193 148.73 219.707 137.244 205.593 137.244Z" fill="black"/>
<path d="M307.991 205.511C284.465 205.511 265.324 186.371 265.324 162.844C265.324 139.317 284.464 120.177 307.991 120.177C331.518 120.177 350.658 139.317 350.658 162.844C350.658 186.371 331.517 205.511 307.991 205.511ZM307.991 137.244C293.877 137.244 282.391 148.73 282.391 162.844C282.391 176.958 293.877 188.444 307.991 188.444C322.105 188.444 333.591 176.958 333.591 162.844C333.591 148.73 322.105 137.244 307.991 137.244Z" fill="black"/>
<path d="M273.858 137.244H231.191V154.311H273.858V137.244Z" fill="black"/>
<path d="M256.793 495.644C253.422 495.644 250.367 493.664 248.994 490.575L180.727 336.975L196.317 330.037L256.793 466.102L317.26 330.047L332.859 336.985L264.592 490.585C263.219 493.665 260.164 495.644 256.793 495.644Z" fill="black"/>
<path d="M86.1246 512.711H69.0586V410.823C69.0496 372.201 97.9356 339.433 136.259 334.603L198.057 326.923C202.332 326.385 205.541 322.716 205.515 318.39V290.844H222.582V318.321C222.684 331.24 213.05 342.248 200.182 343.853L138.392 351.533C108.585 355.288 86.1166 380.777 86.1246 410.823V512.711Z" fill="black"/>
<path d="M444.528 512.711H427.461V410.823C427.47 380.777 405.001 355.288 375.194 351.542L313.43 343.862C300.545 342.258 290.911 331.241 291.013 318.262V290.844H308.08V318.321C308.046 322.716 311.254 326.385 315.538 326.923L377.311 334.603C415.643 339.424 444.537 372.192 444.528 410.823V512.711Z" fill="black"/>
<path d="M252.978 494.748L184.711 460.615C181.136 458.823 179.275 454.787 180.248 450.913L186.127 427.378H137.325C134.441 427.378 131.744 425.919 130.174 423.495C128.604 421.072 128.356 418.017 129.534 415.38L163.667 338.58L179.257 345.518L150.457 410.312H197.058C199.686 410.312 202.169 411.524 203.782 413.597C205.395 415.662 205.975 418.367 205.335 420.91L198.457 448.404L260.605 479.482L252.978 494.748Z" fill="black"/>
<path d="M265.329 487.111H248.262V512.711H265.329V487.111Z" fill="black"/>
<path d="M260.606 494.748L252.969 479.482L315.109 448.404L308.24 420.91C307.6 418.359 308.172 415.662 309.793 413.597C311.414 411.523 313.898 410.312 316.526 410.312H363.127L334.327 345.51L349.926 338.572L384.059 415.372C385.237 418.017 384.989 421.064 383.419 423.487C381.849 425.91 379.152 427.378 376.26 427.378H327.458L333.329 450.913C334.302 454.787 332.442 458.823 328.875 460.615L260.606 494.748Z" fill="black"/>
<path d="M290.927 401.778H222.66V418.845H290.927V401.778Z" fill="black"/>
<path d="M384.793 154.311H367.726V128.711C367.726 67.5439 317.96 17.7779 256.793 17.7779C195.626 17.7779 145.86 67.5439 145.86 128.711V154.311H128.793V128.711C128.793 58.1319 186.214 0.710938 256.793 0.710938C327.372 0.710938 384.793 58.1319 384.793 128.711V154.311Z" fill="black"/>
<path d="M205.593 290.844H137.326C132.616 290.844 128.793 287.03 128.793 282.311V188.444H145.86V273.777H205.593V290.844Z" fill="black"/>
<path d="M376.259 290.844H307.992V273.777H367.725V188.444H384.792V282.311C384.792 287.03 380.978 290.844 376.259 290.844Z" fill="black"/>
</g>
<defs>
<clipPath id="clip0">
<rect width="512" height="512" fill="white" transform="translate(0.792969 0.710938)"/>
</clipPath>
</defs>
</svg>
