<svg width="513" height="513" viewBox="0 0 513 513" fill="none" xmlns="http://www.w3.org/2000/svg">
<g clip-path="url(#clip0)">
<path d="M359.151 188.444V247.495C359.16 277.438 380.817 302.987 410.351 307.911V77.511C410.351 49.232 387.43 26.311 359.151 26.311H316.484L359.151 111.644V188.444Z" fill="#5C3724"/>
<path d="M367.682 137.244V120.177C367.682 58.9081 318.018 9.24414 256.749 9.24414C195.48 9.24414 145.816 58.9081 145.816 120.177V162.844H367.683V137.244H367.682Z" fill="#70432C"/>
<path d="M216.301 16.9238C173.805 33.5638 145.833 74.5408 145.816 120.177V162.844H193.432C192.954 113.274 200.677 63.9688 216.301 16.9238Z" fill="#5C3724"/>
<path d="M145.817 444.444H111.684V512.711H145.817V444.444Z" fill="#FEDAC6"/>
<path d="M111.684 444.444H77.5508V512.711H111.684V444.444Z" fill="#F5C4B0"/>
<path d="M435.951 444.444H367.684V512.711H435.951V444.444Z" fill="#FEDAC6"/>
<path d="M435.951 404.338C436.147 378.354 416.853 356.338 391.066 353.138L331.845 345.714L328.09 354.247C311.151 393.645 265.481 411.856 226.083 394.917C207.822 387.066 193.272 372.508 185.413 354.247L181.658 345.714L122.437 353.138C96.6493 356.338 77.3553 378.354 77.5523 404.338V444.445H145.819L144.027 448.029C133.975 468.108 128.744 490.26 128.752 512.712H384.752C384.761 490.261 379.53 468.108 369.477 448.029L367.685 444.445H435.952V404.338H435.951Z" fill="#2E6AA3"/>
<path d="M111.684 356.124C91.2468 363.352 77.5758 382.663 77.5508 404.337V444.444H111.684V356.124Z" fill="#245E8F"/>
<path d="M256.748 401.778C287.792 401.795 315.858 383.295 328.087 354.759L331.842 346.226L314.775 344.093C306.19 343.009 299.773 335.679 299.842 327.026V282.311H214.082V326.94C214.15 335.593 207.733 342.923 199.149 344.007L181.656 346.14L185.411 354.673C197.612 383.243 225.687 401.778 256.748 401.778Z" fill="#FEDAC6"/>
<path d="M299.415 329.586V282.311H214.082V329.586C246.082 346.226 267.415 346.226 299.415 329.586Z" fill="#F5C4B0"/>
<path d="M137.286 463.303C131.483 479.124 128.591 495.858 128.753 512.711H185.756C163.082 504.229 145.333 486.138 137.286 463.303Z" fill="#245E8F"/>
<path d="M307.95 179.911C317.376 179.911 325.017 172.27 325.017 162.844C325.017 153.418 317.376 145.777 307.95 145.777C298.524 145.777 290.883 153.418 290.883 162.844C290.883 172.27 298.524 179.911 307.95 179.911Z" fill="black"/>
<path d="M254.054 222.142L228.454 213.609C226.107 212.824 224.213 211.066 223.274 208.779C222.327 206.492 222.421 203.906 223.521 201.696L249.121 150.496L264.387 158.133L243.19 200.535L259.455 205.954L254.054 222.142Z" fill="black"/>
<path d="M197.016 179.911C206.442 179.911 214.083 172.27 214.083 162.844C214.083 153.418 206.442 145.777 197.016 145.777C187.59 145.777 179.949 153.418 179.949 162.844C179.949 172.27 187.59 179.911 197.016 179.911Z" fill="black"/>
<path d="M350.618 137.244L348.997 203.633C349.244 239.482 328.858 272.284 296.602 287.942L279.535 296.475L295.663 288.368L279.535 296.475C265.139 303.66 248.192 303.66 233.796 296.475L216.729 287.942C184.473 272.283 164.087 239.481 164.334 203.633L162.883 145.777L184.046 96.369C186.743 90.097 192.921 86.035 199.747 86.044H314.435C320.912 86.044 326.825 89.713 329.71 95.516L350.618 137.244Z" fill="#FEDAC6"/>
<path d="M128.75 162.844C128.75 176.984 140.21 188.444 154.35 188.444H171.417V137.244H154.35C140.211 137.244 128.75 148.705 128.75 162.844Z" fill="#F5C4B0"/>
<path d="M359.149 137.244H342.082V188.444H359.149C373.289 188.444 384.749 176.984 384.749 162.844C384.749 148.705 373.289 137.244 359.149 137.244Z" fill="#FEDAC6"/>
<path d="M197.016 213.532C192.485 171.036 194.012 128.113 201.539 86.0438H199.747C192.775 85.9068 186.426 90.0288 183.704 96.4548L162.883 145.778L164.504 203.634C164.257 239.483 184.643 272.285 216.899 287.943L219.971 289.564L214.083 278.471C202.819 258.588 200.6 238.45 197.016 213.532Z" fill="#F5C4B0"/>
<path d="M307.95 179.911C317.376 179.911 325.017 172.27 325.017 162.844C325.017 153.418 317.376 145.777 307.95 145.777C298.524 145.777 290.883 153.418 290.883 162.844C290.883 172.27 298.524 179.911 307.95 179.911Z" fill="black"/>
<path d="M254.054 222.142L228.454 213.609C226.107 212.824 224.213 211.066 223.274 208.779C222.327 206.492 222.421 203.906 223.521 201.696L249.121 150.496L264.387 158.133L243.19 200.535L259.455 205.954L254.054 222.142Z" fill="black"/>
<path d="M197.016 179.911C206.442 179.911 214.083 172.27 214.083 162.844C214.083 153.418 206.442 145.777 197.016 145.777C187.59 145.777 179.949 153.418 179.949 162.844C179.949 172.27 187.59 179.911 197.016 179.911Z" fill="black"/>
<path d="M325.537 273.778H325.016V256.711L325.537 273.778Z" fill="black"/>
<path d="M154.348 145.778H137.281V120.178C137.282 54.2999 190.871 0.710938 256.748 0.710938C322.625 0.710938 376.215 54.2999 376.215 120.178V137.245H359.148V120.178C359.148 63.7129 313.213 17.7779 256.748 17.7779C200.283 17.7779 154.348 63.7129 154.348 120.178V145.778Z" fill="black"/>
<path d="M256.655 310.36C247.49 310.36 238.334 308.278 229.988 304.114L212.913 295.581C177.986 278.625 155.535 242.495 155.808 203.575L155.654 196.979H154.348C135.523 196.979 120.215 181.67 120.215 162.846C120.215 144.022 135.525 128.711 154.349 128.711H162.882C167.524 128.711 171.313 132.423 171.415 137.057L172.866 203.446C172.644 236.069 191.324 266.132 220.448 280.272L237.609 288.848C249.53 294.796 263.789 294.787 275.71 288.848L291.829 280.75C292.076 280.622 292.332 280.52 292.58 280.417L292.776 280.315C321.994 266.133 340.674 236.07 340.46 203.694L342.073 137.04C342.192 132.415 345.973 128.711 350.606 128.711H359.139C377.964 128.711 393.272 144.02 393.272 162.844C393.272 181.668 377.963 196.977 359.139 196.977H357.688L357.517 203.838C357.773 242.494 335.322 278.624 300.31 295.614L283.337 304.105C283.32 304.114 283.303 304.122 283.286 304.131C274.951 308.286 265.803 310.36 256.655 310.36ZM358.117 179.911H359.15C368.562 179.911 376.217 172.257 376.217 162.844C376.217 153.432 368.563 145.777 359.15 145.777H358.945L358.117 179.911ZM154.349 145.778C144.937 145.778 137.282 153.432 137.282 162.845C137.282 172.257 144.936 179.912 154.349 179.912H155.279L154.349 145.778Z" fill="black"/>
<path d="M248.216 86.044H231.149C231.149 75.036 220.627 62.023 216.574 57.935L228.657 45.877C230.654 47.875 248.216 66.017 248.216 86.044Z" fill="black"/>
<path d="M282.348 86.0439H265.281C265.281 66.0159 282.851 47.8739 284.848 45.8779L296.923 57.9359C292.878 62.0229 282.348 75.0359 282.348 86.0439Z" fill="black"/>
<path d="M322.789 91.7867L310.168 80.2927C316.039 73.8417 324.06 69.8307 332.739 69.0117L334.352 86.0017C329.914 86.4277 325.81 88.4847 322.789 91.7867Z" fill="black"/>
<path d="M199.238 91.787C196.226 88.485 192.13 86.428 187.684 86.01L189.288 69.02C197.975 69.839 205.988 73.85 211.867 80.31L199.238 91.787Z" fill="black"/>
<path d="M170.812 148.95L187.883 106.289L172.039 99.949L154.968 142.61L170.812 148.95Z" fill="black"/>
<path d="M342.982 141.056L358.246 133.424L341.181 99.2935L325.917 106.925L342.982 141.056Z" fill="black"/>
<path d="M410.351 316.444C409.882 316.444 409.421 316.401 408.952 316.325C375.16 310.693 350.627 281.739 350.618 247.495V188.444H367.685V247.495C367.694 269.869 381.56 289.257 401.818 296.835V77.5108C401.818 53.9848 382.678 34.8438 359.151 34.8438H316.484V17.7778H359.151C392.081 17.7778 418.884 44.5728 418.884 77.5108V307.911C418.884 310.42 417.783 312.801 415.863 314.422C414.319 315.736 412.357 316.444 410.351 316.444Z" fill="black"/>
<path d="M261.794 248.178H239.684V231.111H261.785C267.187 231.111 272.486 228.909 276.309 225.078L288.392 237.136C281.395 244.15 271.701 248.178 261.794 248.178Z" fill="black"/>
<path d="M86.0844 512.711H69.0174V404.338C68.7874 374.087 91.2984 348.411 121.386 344.673L198.186 335.116C202.461 334.578 205.67 330.909 205.644 326.583V290.845H222.711V326.514C222.813 339.433 213.179 350.441 200.311 352.046L123.502 361.603C102.007 364.274 85.9304 382.621 86.0924 404.27V512.711H86.0844Z" fill="black"/>
<path d="M444.57 512.711H427.503V404.764C427.674 383.047 411.588 364.709 390.101 362.029L313.301 352.48C300.416 350.859 290.782 339.851 290.884 326.88V290.844H307.951V326.94C307.917 331.335 311.125 334.995 315.418 335.542L392.201 345.091C422.29 348.829 444.8 374.514 444.57 404.824V512.711Z" fill="black"/>
<path d="M256.794 410.311C256.76 410.311 256.726 410.311 256.7 410.311C222.217 410.311 191.155 389.831 177.57 358.121L172.109 345.415L187.793 338.682L193.254 351.397C204.151 376.818 229.06 393.244 256.708 393.244C256.734 393.244 256.759 393.244 256.785 393.244C284.45 393.244 309.359 376.826 320.256 351.405L325.717 338.682L341.401 345.415L335.94 358.13C322.356 389.831 291.286 410.311 256.794 410.311Z" fill="black"/>
<path d="M120.219 512.711C120.219 489.057 125.808 465.368 136.398 444.214L137.285 442.431V418.845H154.352V444.445C154.352 445.768 154.045 447.082 153.456 448.259L151.664 451.843C142.252 470.642 137.285 491.694 137.285 512.711H120.219Z" fill="black"/>
<path d="M145.818 435.911H77.5508V452.978H145.818V435.911Z" fill="black"/>
<path d="M435.951 435.911H367.684V452.978H435.951V435.911Z" fill="black"/>
<path d="M393.282 512.711H376.215C376.224 491.693 371.257 470.65 361.836 451.843L360.044 448.259C359.455 447.073 359.148 445.767 359.148 444.445V418.845H376.215V442.431L377.102 444.214C387.701 465.377 393.29 489.065 393.282 512.711Z" fill="black"/>
</g>
<defs>
<clipPath id="clip0">
<rect width="512" height="512" fill="white" transform="translate(0.792969 0.710938)"/>
</clipPath>
</defs>
</svg>
