<svg width="513" height="513" viewBox="0 0 513 513" fill="none" xmlns="http://www.w3.org/2000/svg">
<g clip-path="url(#clip0)">
<path d="M333.591 401.778H179.991C154.28 391.376 137.418 366.45 137.324 338.717V128.711C137.324 62.7311 190.811 9.24414 256.791 9.24414C322.771 9.24414 376.258 62.7311 376.258 128.711V338.716C376.172 366.45 359.302 391.376 333.591 401.778Z" fill="#3E2518"/>
<path d="M145.856 444.444H111.723V512.711H145.856V444.444Z" fill="#A15D30"/>
<path d="M111.723 444.444H77.5898V512.711H111.723V444.444Z" fill="#8F4F24"/>
<path d="M435.99 444.444H367.723V512.711H435.99V444.444Z" fill="#A15D30"/>
<path d="M435.989 404.338C436.185 378.354 416.891 356.338 391.104 353.138L331.883 345.714L314.816 343.581C306.231 342.497 299.814 335.167 299.883 326.514V282.311H214.123V326.94C214.191 335.593 207.774 342.923 199.19 344.007L181.697 346.14L122.476 353.564C96.6883 356.764 77.3943 378.78 77.5913 404.764V444.444H145.858L144.066 448.028C134.022 468.107 128.791 490.259 128.791 512.711H384.791C384.8 490.26 379.569 468.107 369.516 448.028L367.724 444.444H435.991V404.338H435.989Z" fill="#3CACDE"/>
<path d="M299.458 329.586V282.311H214.125V329.586C246.124 346.226 267.458 346.226 299.458 329.586Z" fill="#A15D30"/>
<path d="M137.325 463.303C131.522 479.124 128.63 495.858 128.792 512.711H185.795C163.121 504.229 145.372 486.138 137.325 463.303Z" fill="#329AC7"/>
<path d="M299.458 307.911V282.311H214.125V324.978C235.372 326.343 256.791 324.978 299.458 307.911Z" fill="#8F4F24"/>
<path d="M111.723 356.124C91.2858 363.352 77.6148 382.663 77.5898 404.337V444.444H111.723V356.124Z" fill="#329AC7"/>
<path d="M333.591 401.778V128.711C317.25 124.342 302.47 115.476 290.924 103.111C278.397 89.8501 266.979 75.5741 256.791 60.4441C246.602 75.5741 235.185 89.8501 222.658 103.111C209.397 115.638 195.121 127.056 179.991 137.244V401.777C154.28 391.375 137.418 366.449 137.324 338.716V128.711C137.324 62.7311 190.811 9.24414 256.791 9.24414C322.771 9.24414 376.258 62.7311 376.258 128.711V338.716C376.172 366.45 359.302 391.376 333.591 401.778Z" fill="#5C3724"/>
<path d="M223.255 14.1079C172.345 28.9989 137.35 75.6679 137.324 128.711V338.716C137.418 366.449 154.28 391.375 179.991 401.777V137.244C192.62 128.677 204.704 119.324 216.172 109.255C213.698 77.3659 216.087 45.2809 223.255 14.1079Z" fill="#5C3724"/>
<path d="M333.589 255.346C324.33 269.255 311.59 280.494 296.64 287.943L279.573 296.476L295.701 288.369L279.573 296.476C265.177 303.661 248.23 303.661 233.834 296.476L216.767 287.943C203.105 279.299 190.732 268.786 179.988 256.711V137.244C195.118 127.055 209.394 115.638 222.655 103.111C235.182 89.8498 246.6 75.5738 256.788 60.4438C266.977 75.5738 278.394 89.8498 290.921 103.111C302.467 115.476 317.246 124.342 333.588 128.711V255.346H333.589Z" fill="#A15D30"/>
<path d="M214.121 111.047C203.267 120.442 191.866 129.189 179.988 137.244V256.711C190.783 268.803 203.216 279.316 216.937 287.943L229.566 294.343C220 265.671 214.786 235.728 214.121 205.511V111.047Z" fill="#8F4F24"/>
<path d="M307.989 179.911C317.415 179.911 325.056 172.27 325.056 162.844C325.056 153.418 317.415 145.777 307.989 145.777C298.563 145.777 290.922 153.418 290.922 162.844C290.922 172.27 298.563 179.911 307.989 179.911Z" fill="black"/>
<path d="M242.225 220.077L225.159 203.011C221.822 199.674 221.822 194.281 225.159 190.945L242.226 173.878L254.292 185.944L243.258 196.978L254.292 208.012L242.225 220.077Z" fill="black"/>
<path d="M181.049 354.776L178.941 337.846L198.141 335.457C202.425 334.919 205.633 331.25 205.599 326.924V290.845H222.666V326.856C222.768 339.775 213.143 350.783 200.257 352.388L181.049 354.776Z" fill="black"/>
<path d="M86.1224 512.711H69.0564V404.338C68.8264 374.087 91.3374 348.411 121.425 344.673L135.872 342.173L138.773 358.992L123.925 361.552C102.037 364.283 85.9604 382.629 86.1224 404.278V512.711Z" fill="black"/>
<path d="M444.523 512.711H427.456V404.679C427.627 382.962 411.541 364.624 390.054 361.944L374.617 358.949L377.885 342.198L392.733 345.099C422.241 348.751 444.752 374.437 444.513 404.738V512.711H444.523Z" fill="black"/>
<path d="M332.574 354.785L313.374 352.481C300.455 350.851 290.82 339.843 290.923 326.872V290.844H307.99V326.94C307.956 331.335 311.164 334.995 315.457 335.542L334.606 337.837L332.574 354.785Z" fill="black"/>
<path d="M246.234 248.178C246.225 248.178 246.217 248.178 246.208 248.178H239.723V231.111H246.208C246.217 231.111 246.225 231.111 246.234 231.111C257.404 231.111 268.583 228.474 278.575 223.474L286.212 238.74C273.865 244.918 260.041 248.178 246.234 248.178Z" fill="black"/>
<path d="M205.59 179.911C215.016 179.911 222.657 172.27 222.657 162.844C222.657 153.418 215.016 145.777 205.59 145.777C196.165 145.777 188.523 153.418 188.523 162.844C188.523 172.27 196.165 179.911 205.59 179.911Z" fill="black"/>
<path d="M325.579 273.778H325.059V256.711L325.579 273.778Z" fill="black"/>
<path d="M179.989 410.311C178.905 410.311 177.822 410.106 176.789 409.688C147.733 397.938 128.891 370.093 128.789 338.75V128.711C128.789 58.1319 186.21 0.710938 256.789 0.710938C327.368 0.710938 384.789 58.1319 384.789 128.711V338.716C384.687 370.093 365.845 397.929 336.789 409.679C334.152 410.737 331.174 410.438 328.819 408.843C326.464 407.273 325.056 404.61 325.056 401.777V135.034C309.679 129.803 295.821 120.86 284.685 108.931C274.718 98.3749 265.366 87.0939 256.79 75.3179C248.214 87.1109 238.844 98.3919 228.86 108.965C216.086 121.048 202.62 131.971 188.523 141.742V401.778C188.523 404.611 187.115 407.273 184.76 408.852C183.334 409.816 181.661 410.311 179.989 410.311ZM256.789 51.9109C259.631 51.9109 262.284 53.3279 263.872 55.6739C273.762 70.3599 284.949 84.3459 297.135 97.2479C307.622 108.486 320.986 116.508 335.791 120.459C339.52 121.466 342.123 124.845 342.123 128.711V387.536C357.935 376.588 367.655 358.54 367.723 338.691V128.711C367.723 67.5439 317.957 17.7779 256.79 17.7779C195.623 17.7779 145.856 67.5439 145.856 128.711V338.716C145.924 358.539 155.644 376.587 171.456 387.535V137.244C171.456 134.402 172.873 131.749 175.219 130.161C189.922 120.262 203.908 109.067 216.793 96.9069C228.612 84.3719 239.807 70.3849 249.706 55.6739C251.293 53.3279 253.947 51.9109 256.789 51.9109Z" fill="black"/>
<path d="M256.697 310.36C247.532 310.36 238.376 308.278 230.03 304.114L212.955 295.581C212.699 295.453 212.452 295.316 212.213 295.154C197.886 286.092 184.898 275.067 173.625 262.386L186.374 251.045C196.503 262.428 208.143 272.344 220.985 280.511L237.668 288.857C249.589 294.805 263.848 294.796 275.769 288.857L291.888 280.759C292.135 280.631 292.391 280.529 292.639 280.426L292.835 280.324C306.454 273.54 318.085 263.274 326.49 250.637L340.707 260.083C330.638 275.213 316.72 287.492 300.455 295.599L283.397 304.124C283.38 304.133 283.363 304.141 283.346 304.15C274.992 308.286 265.845 310.36 256.697 310.36Z" fill="black"/>
<path d="M120.258 512.711C120.258 489.057 125.847 465.368 136.437 444.214L137.324 442.431V418.845H154.391V444.445C154.391 445.768 154.084 447.082 153.495 448.259L151.703 451.843C142.291 470.642 137.324 491.694 137.324 512.711H120.258Z" fill="black"/>
<path d="M393.322 512.711H376.255C376.264 491.693 371.297 470.65 361.876 451.843L360.083 448.259C359.494 447.081 359.188 445.767 359.188 444.445V418.845H376.255V442.431L377.142 444.214C387.741 465.377 393.331 489.065 393.322 512.711Z" fill="black"/>
<path d="M256.788 349.665C239.926 349.665 223.064 344.366 208.984 333.767L219.25 320.131C241.351 336.78 272.216 336.78 294.318 320.131L304.584 333.767C290.52 344.357 273.658 349.665 256.788 349.665Z" fill="black"/>
<path d="M145.857 435.911H77.5898V452.978H145.857V435.911Z" fill="black"/>
<path d="M435.99 435.911H367.723V452.978H435.99V435.911Z" fill="black"/>
</g>
<defs>
<clipPath id="clip0">
<rect width="512" height="512" fill="white" transform="translate(0.789062 0.710938)"/>
</clipPath>
</defs>
</svg>
