<svg width="513" height="513" viewBox="0 0 513 513" fill="none" xmlns="http://www.w3.org/2000/svg">
<g clip-path="url(#clip0)">
<path d="M333.587 401.766H179.987C154.276 391.364 137.414 366.438 137.32 338.705V128.699C137.32 62.7194 190.807 9.23242 256.787 9.23242C322.767 9.23242 376.254 62.7194 376.254 128.699V338.704C376.168 366.438 359.298 391.364 333.587 401.766Z" fill="#3E2518"/>
<path d="M145.852 444.432H111.719V512.699H145.852V444.432Z" fill="#A15D30"/>
<path d="M111.719 444.432H77.5859V512.699H111.719V444.432Z" fill="#8F4F24"/>
<path d="M435.986 444.432H367.719V512.699H435.986V444.432Z" fill="#A15D30"/>
<path d="M435.985 404.326C436.181 378.342 416.887 356.326 391.1 353.126L331.879 345.702L314.812 343.569C306.227 342.485 299.81 335.155 299.879 326.502V282.299H214.119V326.928C214.187 335.581 207.77 342.911 199.186 343.995L181.693 346.128L122.472 353.552C96.6844 356.752 77.3904 378.768 77.5874 404.752V444.432H145.854L144.062 448.016C134.018 468.095 128.787 490.247 128.787 512.699H384.787C384.796 490.248 379.565 468.095 369.512 448.016L367.72 444.432H435.987V404.326H435.985Z" fill="#3CACDE"/>
<path d="M299.454 329.574V282.299H214.121V329.574C246.12 346.214 267.454 346.214 299.454 329.574Z" fill="#A15D30"/>
<path d="M137.321 463.291C131.518 479.112 128.626 495.846 128.788 512.699H185.791C163.117 504.217 145.368 486.126 137.321 463.291Z" fill="#329AC7"/>
<path d="M299.454 307.899V282.299H214.121V324.966C235.368 326.331 256.787 324.966 299.454 307.899Z" fill="#8F4F24"/>
<path d="M111.719 356.112C91.2819 363.34 77.6109 382.651 77.5859 404.325V444.432H111.719V356.112Z" fill="#329AC7"/>
<path d="M333.587 401.766V128.699C317.246 124.33 302.466 115.464 290.92 103.099C278.393 89.8384 266.975 75.5624 256.787 60.4324C246.598 75.5624 235.181 89.8384 222.654 103.099C209.393 115.626 195.117 127.044 179.987 137.232V401.765C154.276 391.363 137.414 366.437 137.32 338.704V128.699C137.32 62.7194 190.807 9.23242 256.787 9.23242C322.767 9.23242 376.254 62.7194 376.254 128.699V338.704C376.168 366.438 359.298 391.364 333.587 401.766Z" fill="#5C3724"/>
<path d="M223.251 14.0962C172.341 28.9872 137.346 75.6562 137.32 128.699V338.704C137.414 366.437 154.276 391.363 179.987 401.765V137.232C192.616 128.665 204.7 119.312 216.168 109.243C213.694 77.3542 216.083 45.2692 223.251 14.0962Z" fill="#5C3724"/>
<path d="M333.585 255.334C324.326 269.243 311.586 280.482 296.636 287.931L279.569 296.464L295.697 288.357L279.569 296.464C265.173 303.649 248.226 303.649 233.83 296.464L216.763 287.931C203.101 279.287 190.728 268.774 179.984 256.699V137.232C195.114 127.043 209.39 115.626 222.651 103.099C235.178 89.8381 246.596 75.5621 256.784 60.4321C266.973 75.5621 278.39 89.8381 290.917 103.099C302.463 115.464 317.242 124.33 333.584 128.699V255.334H333.585Z" fill="#A15D30"/>
<path d="M214.117 111.035C203.263 120.43 191.862 129.177 179.984 137.232V256.699C190.779 268.791 203.212 279.304 216.933 287.931L229.562 294.331C219.996 265.659 214.782 235.716 214.117 205.499V111.035Z" fill="#8F4F24"/>
<path d="M307.985 179.899C317.411 179.899 325.052 172.258 325.052 162.832C325.052 153.406 317.411 145.765 307.985 145.765C298.559 145.765 290.918 153.406 290.918 162.832C290.918 172.258 298.559 179.899 307.985 179.899Z" fill="black"/>
<path d="M242.221 220.065L225.155 202.999C221.818 199.662 221.818 194.269 225.155 190.933L242.222 173.866L254.288 185.932L243.254 196.966L254.288 208L242.221 220.065Z" fill="black"/>
<path d="M181.046 354.764L178.938 337.834L198.137 335.445C202.421 334.907 205.63 331.238 205.596 326.912V290.833H222.663V326.844C222.765 339.763 213.139 350.771 200.253 352.376L181.046 354.764Z" fill="black"/>
<path d="M86.1185 512.699H69.0525V404.326C68.8225 374.075 91.3335 348.399 121.422 344.661L135.869 342.161L138.77 358.98L123.922 361.54C102.034 364.271 85.9565 382.617 86.1185 404.266V512.699Z" fill="black"/>
<path d="M444.519 512.699H427.452V404.667C427.623 382.95 411.537 364.612 390.05 361.932L374.613 358.937L377.881 342.186L392.729 345.087C422.237 348.739 444.748 374.425 444.509 404.726V512.699H444.519Z" fill="black"/>
<path d="M332.57 354.773L313.37 352.469C300.451 350.839 290.816 339.831 290.919 326.86V290.832H307.986V326.928C307.952 331.323 311.16 334.983 315.453 335.53L334.602 337.825L332.57 354.773Z" fill="black"/>
<path d="M246.23 248.166C246.221 248.166 246.213 248.166 246.204 248.166H239.719V231.099H246.204C246.213 231.099 246.221 231.099 246.23 231.099C257.4 231.099 268.579 228.462 278.571 223.462L286.208 238.728C273.861 244.906 260.037 248.166 246.23 248.166Z" fill="black"/>
<path d="M205.587 179.899C215.012 179.899 222.654 172.258 222.654 162.832C222.654 153.406 215.012 145.765 205.587 145.765C196.161 145.765 188.52 153.406 188.52 162.832C188.52 172.258 196.161 179.899 205.587 179.899Z" fill="black"/>
<path d="M325.575 273.766H325.055V256.699L325.575 273.766Z" fill="black"/>
<path d="M179.985 410.299C178.901 410.299 177.818 410.094 176.785 409.676C147.729 397.926 128.887 370.081 128.785 338.738V128.699C128.785 58.1202 186.206 0.699219 256.785 0.699219C327.364 0.699219 384.785 58.1202 384.785 128.699V338.704C384.683 370.081 365.841 397.917 336.785 409.667C334.148 410.725 331.17 410.426 328.815 408.831C326.46 407.261 325.052 404.598 325.052 401.765V135.022C309.675 129.791 295.817 120.848 284.681 108.919C274.714 98.3632 265.362 87.0822 256.786 75.3062C248.21 87.0992 238.84 98.3802 228.856 108.953C216.082 121.036 202.616 131.959 188.519 141.73V401.766C188.519 404.599 187.111 407.261 184.756 408.84C183.33 409.804 181.657 410.299 179.985 410.299ZM256.785 51.8992C259.627 51.8992 262.28 53.3162 263.868 55.6622C273.758 70.3482 284.945 84.3342 297.131 97.2362C307.618 108.474 320.982 116.496 335.787 120.447C339.516 121.454 342.119 124.833 342.119 128.699V387.524C357.931 376.576 367.651 358.528 367.719 338.679V128.699C367.719 67.5322 317.953 17.7662 256.786 17.7662C195.619 17.7662 145.852 67.5322 145.852 128.699V338.704C145.92 358.527 155.64 376.575 171.452 387.523V137.232C171.452 134.39 172.869 131.737 175.215 130.149C189.918 120.25 203.904 109.055 216.789 96.8952C228.608 84.3602 239.803 70.3732 249.702 55.6622C251.289 53.3162 253.943 51.8992 256.785 51.8992Z" fill="black"/>
<path d="M256.693 310.348C247.528 310.348 238.372 308.266 230.026 304.102L212.951 295.569C212.695 295.441 212.448 295.304 212.209 295.142C197.882 286.08 184.894 275.055 173.621 262.374L186.37 251.033C196.499 262.416 208.139 272.332 220.981 280.499L237.664 288.845C249.585 294.793 263.844 294.784 275.765 288.845L291.884 280.747C292.131 280.619 292.387 280.517 292.635 280.414L292.831 280.312C306.45 273.528 318.081 263.262 326.486 250.625L340.703 260.071C330.634 275.201 316.716 287.48 300.451 295.587L283.393 304.112C283.376 304.121 283.359 304.129 283.342 304.138C274.988 308.274 265.841 310.348 256.693 310.348Z" fill="black"/>
<path d="M120.254 512.699C120.254 489.045 125.843 465.356 136.433 444.202L137.32 442.419V418.833H154.387V444.433C154.387 445.756 154.08 447.07 153.491 448.247L151.699 451.831C142.287 470.63 137.32 491.682 137.32 512.699H120.254Z" fill="black"/>
<path d="M393.318 512.699H376.251C376.26 491.681 371.293 470.638 361.872 451.831L360.08 448.247C359.491 447.069 359.184 445.755 359.184 444.433V418.833H376.251V442.419L377.138 444.202C387.737 465.365 393.327 489.053 393.318 512.699Z" fill="black"/>
<path d="M256.784 349.653C239.922 349.653 223.06 344.354 208.98 333.755L219.246 320.119C241.347 336.768 272.212 336.768 294.314 320.119L304.58 333.755C290.516 344.345 273.654 349.653 256.784 349.653Z" fill="black"/>
<path d="M145.853 435.899H77.5859V452.966H145.853V435.899Z" fill="black"/>
<path d="M435.986 435.899H367.719V452.966H435.986V435.899Z" fill="black"/>
</g>
<defs>
<clipPath id="clip0">
<rect width="512" height="512" fill="white" transform="translate(0.785156 0.699219)"/>
</clipPath>
</defs>
</svg>
