<svg width="513" height="513" viewBox="0 0 513 513" fill="none" xmlns="http://www.w3.org/2000/svg">
<g clip-path="url(#clip0)">
<path d="M342.085 376.178H162.885L154.352 350.578C137.285 299.378 137.285 128.711 137.285 128.711C137.285 62.7311 190.772 9.24414 256.752 9.24414C322.732 9.24414 376.219 62.7311 376.219 128.711C376.218 128.711 376.218 324.978 342.085 376.178Z" fill="#8F4F24"/>
<path d="M391.066 353.479L331.845 346.055L328.09 354.588C311.151 393.986 265.481 412.197 226.083 395.258C207.822 387.407 193.272 372.849 185.413 354.588L181.658 346.055L122.437 353.479C96.6493 356.679 77.3553 378.695 77.5523 404.679V512.711H435.952V404.338C435.977 378.482 416.726 356.671 391.066 353.479Z" fill="#787D82"/>
<path d="M256.748 401.778C287.792 401.795 315.858 383.295 328.087 354.759L331.842 346.226L314.775 344.093C306.19 343.009 299.773 335.679 299.842 327.026V282.311H214.082V326.94C214.15 335.593 207.733 342.923 199.149 344.007L181.656 346.14L185.411 354.673C197.612 383.243 225.687 401.778 256.748 401.778Z" fill="#FEDAC6"/>
<path d="M299.415 329.586V282.311H214.082V329.586C246.082 346.226 267.415 346.226 299.415 329.586Z" fill="#F5C4B0"/>
<path d="M359.153 145.778H342.086V196.978H359.153C373.293 196.978 384.753 185.518 384.753 171.378C384.753 157.238 373.293 145.778 359.153 145.778Z" fill="#FEDAC6"/>
<path d="M188.485 128.711C197.018 68.9777 256.752 77.5107 256.752 77.5107H313.157C320.299 77.4847 326.699 81.9137 329.2 88.6037L350.619 145.777L345.926 214.044C343.827 261.771 304.522 299.377 256.753 299.377C226.869 299.36 198.846 284.862 181.574 260.465C181.573 260.466 183.45 163.868 188.485 128.711Z" fill="#FEDAC6"/>
<path d="M208.11 173.596L205.55 77.5107C171.417 86.0437 162.883 103.111 162.883 103.111L170.051 216.348C171.911 256.549 200.421 290.545 239.683 299.377L228.334 278.3C209.39 243.228 208.11 213.532 208.11 173.596Z" fill="#F5C4B0"/>
<path d="M137.285 145.778C137.285 273.778 188.485 316.445 188.485 316.445C179.952 290.845 179.952 188.445 188.485 128.712C197.018 68.9791 256.752 77.5121 256.752 77.5121H313.157C320.299 77.4861 326.699 81.9151 329.2 88.6051L350.619 145.778C359.861 145.744 368.855 148.739 376.219 154.311V128.711C376.219 62.7311 322.732 9.24414 256.752 9.24414C190.772 9.24414 137.285 62.7311 137.285 128.711V154.311" fill="#A15D30"/>
<path d="M137.285 128.711V145.778C137.285 273.778 188.485 316.445 188.485 316.445C182.682 299.378 177.818 273.778 179.952 222.578C151.024 189.469 147.099 113.351 145.819 84.6787C140.177 98.6737 137.285 113.624 137.285 128.711Z" fill="#8F4F24"/>
<path d="M77.5508 409.628V512.711H111.684V359.111C86.0848 367.644 77.5508 384.711 77.5508 409.628Z" fill="#717478"/>
<path d="M307.95 179.911C317.376 179.911 325.017 172.27 325.017 162.844C325.017 153.418 317.376 145.777 307.95 145.777C298.524 145.777 290.883 153.418 290.883 162.844C290.883 172.27 298.524 179.911 307.95 179.911Z" fill="black"/>
<path d="M262.587 213.609L236.987 205.076C232.516 203.583 230.101 198.753 231.594 194.281L248.661 143.081L264.849 148.483L250.479 191.585L267.981 197.422L262.587 213.609Z" fill="black"/>
<path d="M86.0844 512.711H69.0174V404.338C68.7874 374.087 91.2984 348.411 121.386 344.673L198.186 335.116C202.461 334.578 205.67 330.909 205.644 326.583V290.845H222.711V326.514C222.813 339.433 213.179 350.441 200.311 352.046L123.502 361.603C102.007 364.274 85.9304 382.621 86.0924 404.27V512.711H86.0844Z" fill="black"/>
<path d="M444.57 512.711H427.503V404.764C427.674 383.047 411.588 364.709 390.101 362.029L313.301 352.48C300.416 350.859 290.782 339.851 290.884 326.88V290.844H307.951V326.94C307.917 331.335 311.125 334.995 315.418 335.542L392.201 345.091C422.29 348.829 444.8 374.514 444.57 404.824V512.711Z" fill="black"/>
<path d="M359.15 205.511H350.617V188.444H359.15C368.562 188.444 376.217 180.79 376.217 171.377C376.217 161.965 368.563 154.31 359.15 154.31H350.617V137.243H359.15C377.975 137.243 393.283 152.552 393.283 171.376C393.283 190.2 377.975 205.511 359.15 205.511Z" fill="black"/>
<path d="M256.794 410.311C256.76 410.311 256.726 410.311 256.7 410.311C222.217 410.311 191.155 389.831 177.57 358.121L172.109 345.415L187.793 338.682L193.254 351.397C204.151 376.818 229.06 393.244 256.708 393.244C256.734 393.244 256.759 393.244 256.785 393.244C284.45 393.244 309.359 376.826 320.256 351.405L325.717 338.682L341.401 345.415L335.94 358.13C322.356 389.831 291.286 410.311 256.794 410.311Z" fill="black"/>
<path d="M256.751 307.911C224.145 307.894 193.442 292.005 174.609 265.406L188.535 255.541C204.177 277.625 229.683 290.826 256.759 290.843C300.074 290.843 335.496 256.94 337.408 213.668L342.11 136.723L359.143 137.764L354.45 214.564C352.145 266.849 309.231 307.911 256.751 307.911Z" fill="black"/>
<path d="M246.195 248.178C246.186 248.178 246.178 248.178 246.169 248.178H239.684V231.111H246.169C246.178 231.111 246.186 231.111 246.195 231.111C257.365 231.111 268.544 228.474 278.536 223.474L286.173 238.74C273.826 244.918 260.002 248.178 246.195 248.178Z" fill="black"/>
<path d="M205.551 179.911C214.977 179.911 222.618 172.27 222.618 162.844C222.618 153.418 214.977 145.777 205.551 145.777C196.126 145.777 188.484 153.418 188.484 162.844C188.484 172.27 196.126 179.911 205.551 179.911Z" fill="black"/>
<path d="M384.75 154.311H367.683V128.711C367.683 67.5439 317.917 17.7779 256.75 17.7779C195.583 17.7779 145.817 67.5439 145.817 128.711V154.311H128.75V128.711C128.75 58.1319 186.171 0.710938 256.75 0.710938C327.329 0.710938 384.75 58.1319 384.75 128.711V154.311Z" fill="black"/>
<path d="M188.483 324.978C186.537 324.978 184.592 324.312 183.022 323.007C180.803 321.155 128.75 276.278 128.75 145.778H145.817C145.817 215.862 161.655 259.553 175.172 284.069C172.023 240.592 173.61 172.462 180.036 127.499C187.673 74.0458 233.523 65.8368 257.331 68.9768H313.156C323.746 68.9088 333.448 75.6158 337.186 85.6168L358.605 142.79L342.622 148.772L321.202 91.5998C319.956 88.2718 316.756 86.0528 313.206 86.0528C313.197 86.0528 313.189 86.0528 313.18 86.0528H256.741C256.34 86.0528 255.93 86.0268 255.529 85.9678C250.324 85.2598 203.996 80.3868 196.914 129.932C187.988 192.413 189.072 291.28 196.564 313.757C197.767 317.375 196.427 321.36 193.279 323.511C191.836 324.483 190.155 324.978 188.483 324.978Z" fill="black"/>
<path d="M357.94 354.972L343.305 346.191C367.395 306.033 367.685 189.613 367.685 188.444H384.752C384.751 193.419 384.444 310.787 357.94 354.972Z" fill="black"/>
<path d="M146.252 353.274C128.955 301.357 128.75 160.293 128.75 154.311H145.817C145.817 155.745 146.013 298.576 162.448 347.881L146.252 353.274Z" fill="black"/>
</g>
<defs>
<clipPath id="clip0">
<rect width="512" height="512" fill="white" transform="translate(0.792969 0.710938)"/>
</clipPath>
</defs>
</svg>
