<svg width="513" height="513" viewBox="0 0 513 513" fill="none" xmlns="http://www.w3.org/2000/svg">
<g clip-path="url(#clip0)">
<path d="M359.148 350.578C376.215 299.378 376.215 154.311 376.215 154.311C376.215 51.9111 342.082 9.24414 256.748 9.24414C211.351 9.24414 163.479 23.2391 145.815 77.5111C128.748 128.711 120.215 256.711 162.882 350.578C182.415 383.568 218.443 403.212 256.749 401.778C297.043 401.778 334.973 382.808 359.148 350.578Z" fill="#A15D30"/>
<path d="M197.015 20.4229C172.371 30.9789 153.632 51.8679 145.815 77.5109C128.748 128.711 120.215 256.711 162.882 350.578C181.997 382.808 216.898 402.341 254.359 401.778C201.623 306.631 197.015 96.5398 197.015 20.4229Z" fill="#8F4F24"/>
<path d="M145.817 444.444H111.684V512.711H145.817V444.444Z" fill="#FEDAC6"/>
<path d="M111.684 444.444H77.5508V512.711H111.684V444.444Z" fill="#F5C4B0"/>
<path d="M435.951 444.444H367.684V512.711H435.951V444.444Z" fill="#FEDAC6"/>
<path d="M435.951 404.338C436.147 378.354 416.853 356.338 391.066 353.138L331.845 345.714L328.09 354.247C311.151 393.645 265.481 411.856 226.083 394.917C207.822 387.066 193.272 372.508 185.413 354.247L181.658 345.714L122.437 353.138C96.6493 356.338 77.3553 378.354 77.5523 404.338V444.445H145.819L144.027 448.029C133.975 468.108 128.744 490.26 128.752 512.712H384.752C384.761 490.261 379.53 468.108 369.477 448.029L367.685 444.445H435.952V404.338H435.951Z" fill="#F288B7"/>
<path d="M111.684 356.124C91.2468 363.352 77.5758 382.663 77.5508 404.337V444.444H111.684V356.124Z" fill="#ED7BB2"/>
<path d="M256.748 401.778C287.792 401.795 315.858 383.295 328.087 354.759L331.842 346.226L314.775 344.093C306.19 343.009 299.773 335.679 299.842 327.026V282.311H214.082V326.94C214.15 335.593 207.733 342.923 199.149 344.007L181.656 346.14L185.411 354.673C197.612 383.243 225.687 401.778 256.748 401.778Z" fill="#FEDAC6"/>
<path d="M299.415 329.586V282.311H214.082V329.586C246.082 346.226 267.415 346.226 299.415 329.586Z" fill="#F5C4B0"/>
<path d="M359.149 145.778H342.082V196.978H359.149C373.289 196.978 384.749 185.518 384.749 171.378C384.749 157.238 373.289 145.778 359.149 145.778Z" fill="#FEDAC6"/>
<path d="M350.616 145.778C239.683 120.178 197.016 77.5107 197.016 77.5107L162.883 154.311L167.576 214.044C169.675 261.771 208.98 299.377 256.749 299.377C304.519 299.377 343.823 261.771 345.922 214.044L350.616 145.778Z" fill="#FEDAC6"/>
<path d="M197.016 77.5107L162.883 154.311L167.576 214.044C169.624 259.783 197.016 282.311 231.149 290.844C218.178 274.716 214.082 261.319 205.549 239.644C195.309 214.044 197.016 77.5107 197.016 77.5107Z" fill="#F5C4B0"/>
<path d="M139.929 466.29C132.616 480.669 128.784 496.575 128.75 512.711H185.753C156.057 500.252 144.366 481.138 139.929 466.29Z" fill="#ED7BB2"/>
<path d="M307.95 179.911C317.376 179.911 325.017 172.27 325.017 162.844C325.017 153.418 317.376 145.777 307.95 145.777C298.524 145.777 290.883 153.418 290.883 162.844C290.883 172.27 298.524 179.911 307.95 179.911Z" fill="black"/>
<path d="M254.053 222.142L228.453 213.609C225.936 212.764 223.947 210.793 223.086 208.284C222.224 205.767 222.583 202.993 224.059 200.783L241.126 175.183L255.325 184.646L244.454 200.953L259.456 205.954L254.053 222.142Z" fill="black"/>
<path d="M86.0844 512.711H69.0174V404.338C68.7874 374.087 91.2984 348.411 121.386 344.673L198.186 335.116C202.461 334.578 205.67 330.909 205.644 326.583V290.845H222.711V326.514C222.813 339.433 213.179 350.441 200.311 352.046L123.502 361.603C102.007 364.274 85.9304 382.621 86.0924 404.27V512.711H86.0844Z" fill="black"/>
<path d="M444.57 512.711H427.503V404.764C427.674 383.047 411.588 364.709 390.101 362.029L313.301 352.48C300.416 350.859 290.782 339.851 290.884 326.88V290.844H307.951V326.94C307.917 331.335 311.125 334.995 315.418 335.542L392.201 345.091C422.29 348.829 444.8 374.514 444.57 404.824V512.711Z" fill="black"/>
<path d="M359.15 205.511H350.617V188.444H359.15C368.562 188.444 376.217 180.79 376.217 171.377C376.217 161.965 368.563 154.31 359.15 154.31H350.617V137.243H359.15C377.975 137.243 393.283 152.552 393.283 171.376C393.283 190.2 377.975 205.511 359.15 205.511Z" fill="black"/>
<path d="M256.794 410.311C256.76 410.311 256.726 410.311 256.7 410.311C222.217 410.311 191.155 389.831 177.57 358.121L172.109 345.415L187.793 338.682L193.254 351.397C204.151 376.818 229.06 393.244 256.708 393.244C256.734 393.244 256.759 393.244 256.785 393.244C284.45 393.244 309.359 376.826 320.256 351.405L325.717 338.682L341.401 345.415L335.94 358.13C322.356 389.831 291.286 410.311 256.794 410.311Z" fill="black"/>
<path d="M246.195 248.178C246.186 248.178 246.178 248.178 246.169 248.178H239.684V231.111H246.169C246.178 231.111 246.186 231.111 246.195 231.111C257.365 231.111 268.544 228.474 278.536 223.474L286.173 238.74C273.826 244.918 260.002 248.178 246.195 248.178Z" fill="black"/>
<path d="M155.118 354.111C110.071 255.005 121.556 123.301 137.719 74.8149C153.497 26.3539 194.662 0.710938 256.75 0.710938C346.469 0.710938 384.75 46.6459 384.75 154.311H367.683C367.683 56.0579 336.579 17.7779 256.75 17.7779C201.992 17.7779 167.406 38.7609 153.932 80.1569C138.487 126.484 127.564 252.257 170.649 347.046L155.118 354.111Z" fill="black"/>
<path d="M256.751 307.911C204.28 307.911 161.365 266.84 159.053 214.42L154.377 154.985C154.266 153.568 154.514 152.143 155.085 150.846L189.218 74.0461C190.361 71.4771 192.691 69.6341 195.456 69.1221C198.229 68.6011 201.062 69.4891 203.051 71.4771C203.452 71.8701 245.863 112.847 352.538 137.457C356.625 138.404 359.424 142.176 359.134 146.357L354.441 214.624C352.145 266.849 309.231 307.911 256.751 307.911ZM171.563 155.796L176.094 213.37C178.014 256.941 213.436 290.844 256.751 290.844C300.066 290.844 335.497 256.941 337.4 213.669L341.607 152.408C261.428 132.901 217.746 104.869 200.201 91.3611L171.563 155.796Z" fill="black"/>
<path d="M205.551 179.911C214.977 179.911 222.618 172.27 222.618 162.844C222.618 153.418 214.977 145.777 205.551 145.777C196.126 145.777 188.484 153.418 188.484 162.844C188.484 172.27 196.126 179.911 205.551 179.911Z" fill="black"/>
<path d="M367.359 352.916L350.941 348.231C367.479 290.349 367.683 189.451 367.683 188.436H384.75C384.75 192.677 384.554 292.73 367.359 352.916Z" fill="black"/>
<path d="M120.219 512.711C120.219 489.057 125.808 465.368 136.398 444.214L137.285 442.431V418.845H154.352V444.445C154.352 445.768 154.045 447.082 153.456 448.259L151.664 451.843C142.252 470.642 137.285 491.694 137.285 512.711H120.219Z" fill="black"/>
<path d="M145.818 435.911H77.5508V452.978H145.818V435.911Z" fill="black"/>
<path d="M435.951 435.911H367.684V452.978H435.951V435.911Z" fill="black"/>
<path d="M393.282 512.711H376.215C376.224 491.693 371.257 470.65 361.836 451.843L360.044 448.259C359.455 447.073 359.148 445.767 359.148 444.445V418.845H376.215V442.431L377.102 444.214C387.701 465.377 393.29 489.065 393.282 512.711Z" fill="black"/>
</g>
<defs>
<clipPath id="clip0">
<rect width="512" height="512" fill="white" transform="translate(0.792969 0.710938)"/>
</clipPath>
</defs>
</svg>
