<svg width="513" height="513" viewBox="0 0 513 513" fill="none" xmlns="http://www.w3.org/2000/svg">
<g clip-path="url(#clip0)">
<path d="M137.274 188.432V239.632C137.274 265.232 103.141 307.899 111.674 359.099C206.385 386.918 307.096 386.918 401.807 359.099C410.34 307.899 388.922 265.232 384.74 239.632C379.091 197.196 376.241 154.444 376.207 111.632C376.207 55.0564 338.916 9.23242 282.34 9.23242H231.14C179.3 9.23242 137.273 51.2594 137.273 103.099L137.274 188.432Z" fill="#FECB66"/>
<path d="M227.809 9.23242C177.275 11.0244 137.236 52.5304 137.27 103.099V239.632C137.27 265.232 103.137 307.899 111.67 359.099C155.352 371.925 200.553 378.896 246.07 379.835C179.937 162.832 188.471 68.9664 227.809 9.23242Z" fill="#F5AD76"/>
<path d="M256.74 452.966C295.405 452.957 327.567 423.236 330.639 384.699L333.54 346.299L314.596 343.91C306.011 342.826 299.594 335.496 299.663 326.843V282.299H214.074V326.928C214.142 335.581 207.725 342.911 199.141 343.995L179.941 346.299L182.842 384.699C185.914 423.236 218.084 452.957 256.74 452.966Z" fill="#A15D30"/>
<path d="M145.807 444.432L138.042 351.504L122.426 353.467C96.6376 356.667 77.3436 378.683 77.5406 404.667V512.699H120.208C120.208 490.546 127.393 468.983 140.688 451.259L145.807 444.432Z" fill="#A15D30"/>
<path d="M391.053 353.467L375.437 351.504L367.672 444.432L372.792 451.259C386.087 468.983 393.272 490.546 393.272 512.699H435.939V404.326C435.964 378.47 416.713 356.659 391.053 353.467Z" fill="#A15D30"/>
<path d="M367.674 444.432L375.439 351.504L333.54 346.299L330.639 384.699C327.243 425.514 291.394 455.841 250.588 452.445C214.492 449.441 185.854 420.795 182.842 384.699L179.941 346.299L137.786 351.504L145.807 444.432L140.687 451.259C127.392 468.983 120.207 490.546 120.207 512.699H393.274C393.274 490.546 386.089 468.983 372.794 451.259L367.674 444.432Z" fill="#E56B2E"/>
<path d="M77.5391 403.216V511.589H103.139V359.099C87.3701 368.204 77.6251 385.006 77.5391 403.216Z" fill="#8F4F24"/>
<path d="M299.407 321.04V282.299H214.074V321.04C246.074 337.68 267.407 337.68 299.407 321.04Z" fill="#8F4F24"/>
<path d="M154.338 145.766C140.198 145.766 128.738 157.226 128.738 171.366C128.738 185.506 140.198 196.966 154.338 196.966H171.405V145.766H154.338Z" fill="#8F4F24"/>
<path d="M325.517 265.232C317.223 274.841 307.102 282.7 295.736 288.357L279.608 296.464C265.212 303.649 248.265 303.649 233.869 296.464L216.802 287.931C188.36 273.749 168.793 246.391 164.578 214.886L162.871 145.766V103.099L171.404 94.566C182.139 83.703 196.757 77.559 212.023 77.499H276.876C316.471 77.499 316.471 77.499 325.004 103.099C325.004 103.099 316.471 214.032 316.471 231.099C317.052 242.986 320.132 254.617 325.517 265.232Z" fill="#A15D30"/>
<path d="M197.004 120.166C197.004 106.026 198.958 91.955 202.807 78.353C190.894 80.316 179.904 85.99 171.404 94.566L162.871 103.099V145.766L164.663 214.886C168.221 241.007 182.353 264.516 203.746 279.91C192.396 223.931 197.004 158.054 197.004 120.166Z" fill="#8F4F24"/>
<path d="M131.386 466.278C124.073 480.657 120.241 496.563 120.207 512.699H177.21C147.514 500.24 135.823 481.126 131.386 466.278Z" fill="#D65B25"/>
<path d="M307.938 179.899C317.364 179.899 325.005 172.258 325.005 162.832C325.005 153.406 317.364 145.765 307.938 145.765C298.512 145.765 290.871 153.406 290.871 162.832C290.871 172.258 298.512 179.899 307.938 179.899Z" fill="black"/>
<path d="M254.043 222.13L228.443 213.597C226.096 212.812 224.202 211.054 223.263 208.767C222.316 206.48 222.41 203.894 223.51 201.684L249.11 150.484L264.376 158.121L243.179 200.523L259.444 205.942L254.043 222.13Z" fill="black"/>
<path d="M86.0727 512.699H69.0057V404.326C68.7757 374.075 91.2867 348.399 121.375 344.661L198.175 335.104C202.45 334.566 205.659 330.897 205.633 326.571V290.833H222.7V326.502C222.802 339.421 213.168 350.429 200.3 352.034L123.491 361.591C101.996 364.262 85.9187 382.609 86.0807 404.258V512.699H86.0727Z" fill="black"/>
<path d="M444.558 512.699H427.491V404.752C427.662 383.035 411.576 364.697 390.089 362.017L313.289 352.468C300.404 350.847 290.77 339.839 290.872 326.868V290.832H307.939V326.928C307.905 331.323 311.113 334.983 315.406 335.53L392.189 345.079C422.278 348.817 444.788 374.502 444.558 404.812V512.699Z" fill="black"/>
<path d="M246.183 248.166C246.174 248.166 246.166 248.166 246.157 248.166H239.672V231.099H246.157C246.166 231.099 246.174 231.099 246.183 231.099C257.353 231.099 268.532 228.462 278.524 223.462L286.161 238.728C273.814 244.906 259.99 248.166 246.183 248.166Z" fill="black"/>
<path d="M240.968 82.0224C234.278 71.3134 223.91 63.5304 211.758 60.1174L216.383 43.6904C232.63 48.2644 246.497 58.6664 255.44 72.9854L240.968 82.0224Z" fill="black"/>
<path d="M199.523 92.0741C195.436 88.0211 182.414 77.4991 171.406 77.4991V60.4321C191.434 60.4321 209.576 77.9941 211.572 79.9991L199.523 92.0741Z" fill="black"/>
<path d="M197.005 179.899C206.43 179.899 214.072 172.258 214.072 162.832C214.072 153.406 206.43 145.765 197.005 145.765C187.579 145.765 179.938 153.406 179.938 162.832C179.938 172.258 187.579 179.899 197.005 179.899Z" fill="black"/>
<path d="M326.13 303.598C302.715 262.621 309.234 201.915 314.456 153.138C316.99 129.543 319.38 107.254 316.734 96.63C315.198 90.52 312.297 86.4331 307.851 84.1541C298.021 79.0771 282.208 83.352 276.96 85.425L270.637 69.5701C273.291 68.5121 297.107 59.492 315.591 68.939C324.449 73.47 330.567 81.611 333.281 92.491C336.669 106.05 334.356 127.64 331.429 154.955C326.454 201.291 320.267 258.951 340.944 295.124L326.13 303.598Z" fill="black"/>
<path d="M325.525 273.766H325.004V256.699L325.525 273.766Z" fill="black"/>
<path d="M256.738 310.348C247.573 310.348 238.417 308.266 230.071 304.102L212.996 295.569C181.986 280.107 160.729 250.368 156.13 216.021C156.087 215.714 156.062 215.407 156.062 215.099L154.355 145.979V103.099H171.422V145.766L173.12 214.203C177.088 242.747 194.82 267.425 220.634 280.302L237.709 288.835C249.63 294.783 263.881 294.783 275.827 288.835L291.929 280.737C302.348 275.566 311.47 268.466 319.091 259.66L332.01 270.813C322.913 281.352 311.991 289.834 299.566 296.003L283.472 304.093C275.085 308.266 265.903 310.348 256.738 310.348Z" fill="black"/>
<path d="M103.258 360.498C97.5151 326.023 109.487 295.935 119.104 271.751C124.267 258.755 128.738 247.533 128.738 239.632V188.432H145.805V239.632C145.805 250.802 140.779 263.431 134.959 278.058C126.118 300.279 115.119 327.918 120.085 357.7L103.258 360.498Z" fill="black"/>
<path d="M410.218 360.498L393.382 357.699C399.253 322.431 390.173 291.523 382.886 266.7C380.019 256.946 377.544 248.533 376.307 241.006C370.615 198.109 367.714 154.666 367.671 111.641C367.671 57.2412 331.78 17.7662 282.338 17.7662H231.138C181.696 17.7662 145.805 57.2412 145.805 111.633V154.299H128.738V111.632C128.737 47.3512 171.805 0.699219 231.137 0.699219H282.337C341.669 0.699219 384.737 47.3512 384.737 111.632C384.78 153.915 387.621 196.598 393.194 238.506C394.218 244.735 396.556 252.68 399.253 261.879C406.642 286.992 416.746 321.373 410.218 360.498Z" fill="black"/>
<path d="M162.873 205.499H154.34C135.515 205.499 120.207 190.19 120.207 171.366C120.207 152.542 135.516 137.233 154.34 137.233H162.873V154.299H154.34C144.928 154.299 137.273 161.953 137.273 171.366C137.273 180.778 144.927 188.433 154.34 188.433H162.873V205.499Z" fill="black"/>
<path d="M256.737 461.499C213.925 461.49 177.727 428.048 174.331 385.373L171.43 351.291L188.437 349.84L191.338 383.973C194.035 417.893 222.758 444.423 256.729 444.432C290.7 444.423 319.432 417.893 322.12 384.025L325.03 349.84L342.028 351.291L339.127 385.424C335.747 428.048 299.558 461.491 256.737 461.499Z" fill="black"/>
<path d="M128.739 512.699H111.672C111.672 488.848 119.548 465.22 133.867 446.139L136.99 441.975L128.782 359.952L145.763 358.254L154.296 443.587C154.509 445.712 153.912 447.845 152.632 449.552L147.512 456.379C135.404 472.516 128.739 492.526 128.739 512.699Z" fill="black"/>
<path d="M401.804 512.699H384.737C384.737 492.518 378.072 472.516 365.972 456.371L360.843 449.553C359.563 447.838 358.966 445.713 359.179 443.58L367.712 358.247L384.693 359.945L376.492 441.959L379.615 446.123C393.928 465.22 401.804 488.848 401.804 512.699Z" fill="black"/>
</g>
<defs>
<clipPath id="clip0">
<rect width="512" height="512" fill="white" transform="translate(0.78125 0.699219)"/>
</clipPath>
</defs>
</svg>
