<svg width="513" height="513" viewBox="0 0 513 513" fill="none" xmlns="http://www.w3.org/2000/svg">
<g clip-path="url(#clip0)">
<path d="M376.248 359.115V154.315C376.248 60.4481 342.114 9.24805 256.781 9.24805C211.384 9.24805 171.448 26.3151 145.848 77.5151C126.221 115.744 137.315 333.515 137.315 359.115H376.248Z" fill="#70432C"/>
<path d="M251.917 9.24805C208.653 10.528 170.936 28.4481 145.848 77.5151C126.221 115.744 137.315 333.515 137.315 359.115H222.648C214.115 273.782 197.048 214.048 197.048 171.382C197.048 71.371 230.242 26.315 251.917 9.24805Z" fill="#5C3724"/>
<path d="M350.647 145.782C316.514 111.649 299.447 51.915 299.447 51.915C299.447 51.915 265.314 94.582 162.914 145.782V154.315L167.607 214.048C169.706 261.775 209.011 299.381 256.78 299.381C304.55 299.381 343.854 261.775 345.953 214.048L350.647 145.782Z" fill="#FEDAC6"/>
<path d="M162.914 144.331L167.607 212.598C168.964 245.639 188.514 275.207 218.38 289.398C194.657 236.918 189.452 180.427 188.513 137.249C180.834 142.001 171.951 144.459 162.914 144.331Z" fill="#F5C4B0"/>
<path d="M435.982 410.827C435.991 376.412 410.391 347.373 376.249 343.072L333.582 337.781V512.715H435.982V410.827Z" fill="#787D82"/>
<path d="M137.315 343.072C103.173 347.373 77.573 376.412 77.582 410.827V512.715H179.982V337.782L137.315 343.072Z" fill="#787D82"/>
<path d="M179.98 427.382V512.715H333.58V427.382C284.693 449.142 228.867 449.142 179.98 427.382Z" fill="#DBDBDB"/>
<path d="M314.379 335.392C305.794 334.308 299.377 326.978 299.446 318.325V282.315H214.113V318.411C214.181 327.064 207.764 334.394 199.18 335.478L179.98 337.782V427.382C228.867 449.142 284.693 449.142 333.58 427.382V337.782L314.379 335.392Z" fill="#FEDAC6"/>
<path d="M214.114 196.982H188.514C174.374 196.982 162.914 185.522 162.914 171.382V154.315C162.914 149.605 166.737 145.782 171.447 145.782H239.714V171.382C239.714 185.521 228.254 196.982 214.114 196.982Z" fill="#EBEBEB"/>
<path d="M316.513 196.982H290.913C276.773 196.982 265.312 185.522 265.312 171.382V145.782H333.579C338.289 145.782 342.113 149.605 342.113 154.315V171.382C342.113 185.521 330.653 196.982 316.513 196.982Z" fill="#EBEBEB"/>
<path d="M299.45 320.715V290.848H214.117V320.715C239.998 337.79 273.568 337.79 299.45 320.715Z" fill="#F5C4B0"/>
<path d="M111.715 351.776C90.612 363.962 77.608 386.464 77.582 410.827V512.715H111.715V351.776Z" fill="#717478"/>
<path d="M214.113 438.731C202.388 436.069 190.962 432.271 179.98 427.382V512.715H214.113V438.731Z" fill="#BFBFBF"/>
<path d="M359.181 145.782H350.648V196.982H359.181C373.321 196.982 384.781 185.522 384.781 171.382C384.781 157.242 373.321 145.782 359.181 145.782Z" fill="#FEDAC6"/>
<path d="M254.083 222.146L228.483 213.613C224.148 212.171 221.725 207.571 222.979 203.168L240.046 143.435L256.456 148.128L241.634 200.002L259.486 205.95L254.083 222.146Z" fill="black"/>
<path d="M359.181 205.515H350.648V188.448H359.181C368.593 188.448 376.248 180.794 376.248 171.381C376.248 161.969 368.594 154.314 359.181 154.314H350.648V137.247H359.181C378.006 137.247 393.314 152.556 393.314 171.38C393.314 190.204 378.006 205.515 359.181 205.515Z" fill="black"/>
<path d="M256.783 307.915C204.312 307.915 161.397 266.844 159.085 214.424L154.426 163.625L171.416 162.063L176.109 213.263C178.038 256.945 213.468 290.848 256.783 290.848C300.098 290.848 335.529 256.945 337.432 213.673L342.134 136.728L359.167 137.769L354.474 214.569C352.177 266.853 309.254 307.915 256.783 307.915Z" fill="black"/>
<path d="M246.226 248.182C246.217 248.182 246.209 248.182 246.2 248.182H239.715V231.115H246.2C246.209 231.115 246.217 231.115 246.226 231.115C257.396 231.115 268.583 228.478 278.567 223.478L286.204 238.744C273.857 244.922 260.033 248.182 246.226 248.182Z" fill="black"/>
<path d="M145.847 350.582H128.78C128.78 346.341 128.464 337.014 128.055 324.248C124.514 217.027 122.969 103.405 138.252 73.6148C163.272 24.5658 202.039 0.714844 256.78 0.714844C342.915 0.714844 384.78 50.9588 384.78 154.315H367.713C367.713 59.8939 333.494 17.7818 256.78 17.7818C209.079 17.7818 175.278 38.5858 153.45 81.3888C138.116 111.273 143.193 265.59 145.104 323.684C145.531 336.724 145.847 346.255 145.847 350.582Z" fill="black"/>
<path d="M175.262 153.419L167.625 138.153C265.801 89.0688 291.904 47.8958 292.16 47.4858C293.926 44.6018 297.212 43.0058 300.599 43.4838C303.953 43.9448 306.726 46.3168 307.648 49.5678C307.819 50.1398 324.553 107.62 356.681 139.748L344.615 151.815C319.817 127.017 303.877 90.1358 296.333 69.5278C280.913 86.5428 245.935 118.074 175.262 153.419Z" fill="black"/>
<path d="M384.782 188.448H367.715V342.048H384.782V188.448Z" fill="black"/>
<path d="M86.1129 512.715H69.0469V410.827C69.0379 372.205 97.9239 339.437 136.247 334.607L198.045 326.927C202.32 326.389 205.529 322.72 205.503 318.394V290.848H222.57V318.325C222.672 331.244 213.038 342.252 200.17 343.857L138.38 351.537C108.573 355.292 86.1049 380.781 86.1129 410.827V512.715Z" fill="black"/>
<path d="M444.516 512.715H427.449V410.827C427.458 380.781 404.989 355.292 375.182 351.546L313.418 343.866C300.533 342.262 290.899 331.245 291.001 318.266V290.848H308.068V318.325C308.034 322.72 311.242 326.389 315.526 326.927L377.299 334.607C415.631 339.428 444.525 372.196 444.516 410.827V512.715Z" fill="black"/>
<path d="M188.516 333.515H171.449V512.715H188.516V333.515Z" fill="black"/>
<path d="M342.114 333.515H325.047V512.715H342.114V333.515Z" fill="black"/>
<path d="M256.781 452.214C229.406 452.214 202.023 446.531 176.508 435.173L183.446 419.591C230.047 440.344 283.508 440.344 330.1 419.591L337.046 435.173C311.548 446.53 284.164 452.214 256.781 452.214Z" fill="black"/>
<path d="M214.116 205.515H188.516C169.691 205.515 154.383 190.206 154.383 171.382V154.315C154.383 144.903 162.037 137.248 171.45 137.248H239.717C244.427 137.248 248.25 141.071 248.25 145.781V171.381C248.25 190.206 232.941 205.515 214.116 205.515ZM171.45 154.315V171.382C171.45 180.794 179.104 188.449 188.517 188.449H214.117C223.529 188.449 231.184 180.795 231.184 171.382V154.315H171.45Z" fill="black"/>
<path d="M316.514 205.515H290.914C272.089 205.515 256.781 190.206 256.781 171.382V145.782C256.781 141.072 260.604 137.249 265.314 137.249H333.581C342.993 137.249 350.648 144.903 350.648 154.316V171.383C350.648 190.206 335.339 205.515 316.514 205.515ZM273.848 154.315V171.382C273.848 180.794 281.502 188.449 290.915 188.449H316.515C325.927 188.449 333.582 180.795 333.582 171.382V154.315H273.848Z" fill="black"/>
<path d="M265.315 137.248H239.715V154.315H265.315V137.248Z" fill="black"/>
<path d="M205.583 179.915C215.008 179.915 222.65 172.274 222.65 162.848C222.65 153.422 215.008 145.781 205.583 145.781C196.157 145.781 188.516 153.422 188.516 162.848C188.516 172.274 196.157 179.915 205.583 179.915Z" fill="black"/>
<path d="M307.981 179.915C317.407 179.915 325.048 172.274 325.048 162.848C325.048 153.422 317.407 145.781 307.981 145.781C298.555 145.781 290.914 153.422 290.914 162.848C290.914 172.274 298.555 179.915 307.981 179.915Z" fill="black"/>
</g>
<defs>
<clipPath id="clip0">
<rect width="512" height="512" fill="white" transform="translate(0.78125 0.714844)"/>
</clipPath>
</defs>
</svg>
