<svg width="513" height="513" viewBox="0 0 513 513" fill="none" xmlns="http://www.w3.org/2000/svg">
<g clip-path="url(#clip0)">
<path d="M257.164 9.24805C211.767 9.24805 180.364 17.781 154.764 68.981C137.697 103.114 146.231 214.048 146.231 214.048V384.715H367.671V137.248C365.537 61.814 342.071 9.24805 257.164 9.24805Z" fill="#FECB66"/>
<path d="M245.218 9.24805C207.159 11.211 179.341 22.901 156.471 68.981C139.404 103.114 147.938 214.048 147.938 214.048V384.715H247.01C217.997 227.702 236.514 69.835 245.218 9.24805Z" fill="#F5AD76"/>
<path d="M256.737 401.782C287.781 401.799 315.847 383.299 328.076 354.763L331.831 346.23L314.764 344.097C306.179 343.013 299.762 335.683 299.831 327.03V282.315H214.071V326.944C214.139 335.597 207.722 342.927 199.138 344.011L181.645 346.144L185.4 354.677C197.601 383.247 225.676 401.782 256.737 401.782Z" fill="#FEDAC6"/>
<path d="M299.403 321.056V282.315H214.07V321.056C246.07 337.696 267.403 337.696 299.403 321.056Z" fill="#F5C4B0"/>
<path d="M145.807 444.448V350.581L122.426 353.482C96.6376 356.682 77.3436 378.698 77.5406 404.682V512.715H128.741C128.732 490.264 133.963 468.111 144.016 448.032L145.807 444.448Z" fill="#FEDAC6"/>
<path d="M367.672 444.448V350.581L331.832 346.058L328.077 354.591C311.138 393.989 265.468 412.2 226.07 395.261C207.809 387.41 193.259 372.852 185.4 354.591L181.645 346.058L145.805 350.581V444.448L144.013 448.032C133.961 468.111 128.73 490.263 128.738 512.715H384.738C384.747 490.264 379.516 468.111 369.463 448.032L367.672 444.448Z" fill="#74A32E"/>
<path d="M391.053 353.483L367.672 350.582V444.449L369.464 448.033C379.516 468.112 384.747 490.264 384.739 512.716H435.939V404.342C435.964 378.486 416.713 356.675 391.053 353.483Z" fill="#FEDAC6"/>
<path d="M77.5391 404.342V512.715H103.139V360.224C87.3701 369.329 77.6251 386.132 77.5391 404.342Z" fill="#F5C4B0"/>
<path d="M350.605 145.782C329.058 123.467 311.719 97.449 299.405 68.982C262.532 130.55 209.378 180.752 145.805 214.049C145.805 214.049 137.272 103.116 154.338 68.982C179.938 17.782 211.767 9.24902 256.738 9.24902C342.071 9.24902 365.111 61.814 367.671 137.249V154.315" fill="#FECB66"/>
<path d="M145.807 214.048C220.986 176.416 273.807 120.181 299.407 68.981C233.444 128.714 197.007 162.848 143.844 168.053C144.271 193.824 145.807 214.048 145.807 214.048Z" fill="#F5AD76"/>
<path d="M350.606 145.782C329.059 123.467 311.719 97.4489 299.406 68.9819C266.962 123.092 221.975 168.6 168.249 201.675C166.713 202.614 167.31 203.382 167.31 203.382V214.134C169.46 261.921 208.901 299.519 256.739 299.382C304.509 299.382 343.813 261.776 345.912 214.049L350.606 145.782Z" fill="#FEDAC6"/>
<path d="M162.871 196.982L163.298 214.049C164.834 248.182 193.762 276.769 223.031 290.849C205.964 256.716 188.898 222.582 197.431 179.916C188.471 188.448 162.871 196.982 162.871 196.982Z" fill="#F5C4B0"/>
<path d="M359.137 145.782H342.07V196.982H359.137C373.277 196.982 384.737 185.522 384.737 171.382C384.737 157.242 373.277 145.782 359.137 145.782Z" fill="#FEDAC6"/>
<path d="M138.295 461.515C132.066 477.873 128.832 495.213 128.738 512.715H185.485C152.119 498.72 141.537 476.363 138.295 461.515Z" fill="#688E26"/>
<path d="M307.938 179.915C317.364 179.915 325.005 172.274 325.005 162.848C325.005 153.422 317.364 145.781 307.938 145.781C298.512 145.781 290.871 153.422 290.871 162.848C290.871 172.274 298.512 179.915 307.938 179.915Z" fill="black"/>
<path d="M254.041 222.146L228.441 213.613C225.838 212.743 223.816 210.678 222.997 208.066C222.178 205.446 222.673 202.596 224.32 200.403L249.92 166.27L263.573 176.51L245.081 201.171L259.451 205.958L254.041 222.146Z" fill="black"/>
<path d="M86.0727 512.715H69.0057V404.342C68.7757 374.091 91.2867 348.415 121.375 344.677L198.175 335.12C202.45 334.582 205.659 330.913 205.633 326.587V290.849H222.7V326.518C222.802 339.437 213.168 350.445 200.3 352.05L123.491 361.607C101.996 364.278 85.9187 382.625 86.0807 404.274V512.715H86.0727Z" fill="black"/>
<path d="M444.558 512.715H427.491V404.768C427.662 383.051 411.576 364.713 390.089 362.033L313.289 352.484C300.404 350.863 290.77 339.855 290.872 326.884V290.848H307.939V326.944C307.905 331.339 311.113 334.999 315.406 335.546L392.189 345.095C422.278 348.833 444.788 374.518 444.558 404.828V512.715Z" fill="black"/>
<path d="M359.138 205.515H350.605V188.448H359.138C368.55 188.448 376.205 180.794 376.205 171.381C376.205 161.969 368.551 154.314 359.138 154.314H350.605V137.247H359.138C377.963 137.247 393.271 152.556 393.271 171.38C393.271 190.204 377.963 205.515 359.138 205.515Z" fill="black"/>
<path d="M256.783 410.315C256.749 410.315 256.715 410.315 256.689 410.315C222.206 410.315 191.144 389.835 177.559 358.125L172.098 345.419L187.782 338.686L193.243 351.401C204.14 376.822 229.049 393.248 256.697 393.248C256.723 393.248 256.748 393.248 256.774 393.248C284.439 393.248 309.348 376.83 320.245 351.409L325.706 338.686L341.39 345.419L335.929 358.134C322.345 389.835 291.275 410.315 256.783 410.315Z" fill="black"/>
<path d="M256.738 307.915C204.267 307.915 161.352 266.844 159.04 214.424L158.605 197.195L175.663 196.768L176.09 213.835C178.001 256.945 213.423 290.848 256.739 290.848C300.055 290.848 335.485 256.945 337.388 213.673L342.09 136.728L359.123 137.769L354.43 214.569C352.132 266.853 309.218 307.915 256.738 307.915Z" fill="black"/>
<path d="M246.183 248.182C246.174 248.182 246.166 248.182 246.157 248.182H239.672V231.115H246.157C246.166 231.115 246.174 231.115 246.183 231.115C257.353 231.115 268.532 228.478 278.524 223.478L286.161 238.744C273.814 244.922 259.99 248.182 246.183 248.182Z" fill="black"/>
<path d="M145.805 222.582C144.38 222.582 142.955 222.224 141.675 221.515C139.166 220.124 137.519 217.564 137.297 214.705C136.939 210.08 128.789 101.007 146.709 65.1668C173.658 11.2618 207.458 0.714844 256.738 0.714844C358.532 0.714844 374.046 73.5298 376.196 136.958L376.205 154.315H359.138V137.248C356.254 52.4779 326.592 17.7808 256.738 17.7808C212.126 17.7808 185.229 26.2888 161.975 72.7948C150.438 95.8608 151.47 163.538 153.459 200.146C210.521 167.694 258.265 121.051 292.092 64.5938C293.722 61.8458 296.734 60.2418 299.968 60.4638C303.168 60.6768 305.975 62.6568 307.247 65.5928C319.185 93.2068 335.842 118.192 356.757 139.859L344.478 151.712C325.833 132.401 310.362 110.624 298.338 86.7988C261.167 143.614 210.086 190.035 149.781 221.617C148.519 222.257 147.162 222.582 145.805 222.582Z" fill="black"/>
<path d="M376.204 196.982H359.137V350.582H376.204V196.982Z" fill="black"/>
<path d="M154.34 205.515H137.273V350.582H154.34V205.515Z" fill="black"/>
<path d="M120.207 512.715C120.207 489.061 125.796 465.372 136.386 444.218L137.273 442.435V350.582H154.34V444.449C154.34 445.772 154.033 447.086 153.444 448.263L151.652 451.847C142.24 470.646 137.273 491.698 137.273 512.715H120.207Z" fill="black"/>
<path d="M393.271 512.715H376.204C376.213 491.697 371.246 470.654 361.825 451.847L360.033 448.263C359.444 447.077 359.137 445.771 359.137 444.449V350.582H376.204V442.435L377.091 444.218C387.69 465.381 393.279 489.069 393.271 512.715Z" fill="black"/>
</g>
<defs>
<clipPath id="clip0">
<rect width="512" height="512" fill="white" transform="translate(0.78125 0.714844)"/>
</clipPath>
</defs>
</svg>
