<svg width="513" height="513" viewBox="0 0 513 513" fill="none" xmlns="http://www.w3.org/2000/svg">
<g clip-path="url(#clip0)">
<path d="M410.38 367.648C425.313 332.747 421.473 280.779 398.177 250.827C384.31 232.958 376.613 211.07 376.246 188.448V128.715C376.247 62.735 322.76 9.24805 256.78 9.24805C190.8 9.24805 137.313 62.735 137.313 128.715V191.435C137.296 211.616 130.572 231.217 118.198 247.158L112.737 254.155C91.2329 281.803 87.5639 336.331 103.18 367.648H410.38Z" fill="#FECB66"/>
<path d="M179.98 103.115C180.338 75.7566 186.781 48.8256 198.839 24.2666C160.874 45.3186 137.322 85.3056 137.313 128.715V191.435C137.296 211.616 130.572 231.217 118.198 247.158L112.737 254.155C91.2329 281.803 87.5639 336.331 103.18 367.648H248.247L205.58 248.182C193.804 207.051 182.113 162.337 179.98 119.585C179.98 113.952 179.98 108.406 179.98 103.115Z" fill="#F5AD76"/>
<path d="M435.981 512.715V410.827C435.99 376.412 410.39 347.373 376.248 343.072L314.467 335.392C305.882 334.308 299.465 326.978 299.534 318.325V273.781H214.115V318.41C214.183 327.063 207.766 334.393 199.182 335.477L137.401 343.157C103.259 347.458 77.659 376.497 77.668 410.912V512.715H435.981Z" fill="#FEDAC6"/>
<path d="M179.982 337.782L137.315 343.073C103.173 347.374 77.573 376.413 77.582 410.828V512.715H179.982V337.782Z" fill="#3CACDE"/>
<path d="M376.249 343.072L333.582 337.781V512.715H435.982V410.827C435.991 376.412 410.391 347.373 376.249 343.072Z" fill="#3CACDE"/>
<path d="M111.715 351.776C90.612 363.962 77.608 386.464 77.582 410.827V512.715H111.715V351.776Z" fill="#329AC7"/>
<path d="M323.34 336.502L256.78 452.982L190.22 336.502L179.98 337.782V512.715H333.58V337.782L323.34 336.502Z" fill="#EBEBEB"/>
<path d="M214.113 376.182L190.22 336.502L179.98 337.782V512.715H214.113V376.182Z" fill="#DBDBDB"/>
<path d="M299.45 307.915V273.782H214.117V307.915C239.998 324.99 273.568 324.99 299.45 307.915Z" fill="#F5C4B0"/>
<path d="M359.18 145.782H342.113V196.982H359.18C373.32 196.982 384.78 185.522 384.78 171.382C384.78 157.242 373.32 145.782 359.18 145.782Z" fill="#FEDAC6"/>
<path d="M350.648 145.782L347.149 204.918C344.307 253.165 304.346 290.84 256.013 290.849C208.312 290.815 168.657 254.096 164.962 206.54L162.914 179.916C162.914 179.916 248.247 128.716 290.914 68.9829C290.914 68.9819 316.514 120.182 350.648 145.782Z" fill="#FEDAC6"/>
<path d="M194.829 158.667C176.141 171.979 162.914 179.915 162.914 179.915L164.962 206.539C167.428 239.068 187.132 267.791 216.589 281.803C199.454 243.13 191.987 200.873 194.829 158.667Z" fill="#F5C4B0"/>
<path d="M205.583 179.915C215.008 179.915 222.65 172.274 222.65 162.848C222.65 153.422 215.008 145.781 205.583 145.781C196.157 145.781 188.516 153.422 188.516 162.848C188.516 172.274 196.157 179.915 205.583 179.915Z" fill="black"/>
<path d="M307.981 179.915C317.407 179.915 325.048 172.274 325.048 162.848C325.048 153.422 317.407 145.781 307.981 145.781C298.555 145.781 290.914 153.422 290.914 162.848C290.914 172.274 298.555 179.915 307.981 179.915Z" fill="black"/>
<path d="M265.313 214.048H239.713C236.752 214.048 234.013 212.512 232.451 210.003C230.898 207.486 230.753 204.345 232.076 201.7L249.143 167.567L264.409 175.204L253.52 196.981H265.313V214.048Z" fill="black"/>
<path d="M256.014 299.382C204.2 299.348 160.475 258.857 156.456 207.205L154.408 180.572C154.161 177.355 155.756 174.266 158.521 172.602C159.357 172.099 242.856 121.581 283.97 64.0238C285.702 61.5918 288.544 60.2348 291.582 60.4738C294.569 60.7038 297.205 62.4788 298.545 65.1588C298.792 65.6538 323.693 114.891 355.77 138.955C358.065 140.67 359.345 143.426 359.166 146.285L355.667 205.421C352.569 258.097 308.793 299.373 256.014 299.382ZM171.824 184.446L173.471 205.882C176.799 248.711 213.057 282.281 256.014 282.315C299.756 282.306 336.048 248.088 338.625 204.423L341.859 149.75C318.17 130.516 299.167 100.973 289.737 84.6318C250.664 133.204 189.079 173.617 171.824 184.446Z" fill="black"/>
<path d="M95.4148 362.656C78.6208 325.869 82.5808 282.426 105.74 249.265L111.466 241.909C122.611 227.547 128.755 209.619 128.78 191.426V128.715C128.78 58.1358 186.201 0.714844 256.78 0.714844C327.359 0.714844 384.78 58.1358 384.78 128.715V154.315H367.713V128.715C367.713 67.5478 317.947 17.7818 256.78 17.7818C195.613 17.7818 145.847 67.5478 145.847 128.715V191.435C145.83 213.4 138.397 235.04 124.94 252.389L119.47 259.403C100.014 287.264 96.6518 324.256 110.945 355.574L95.4148 362.656Z" fill="black"/>
<path d="M418.215 362.503L402.548 355.719L403.913 352.562C417.609 320.562 412.839 283.57 391.446 256.059C376.53 236.842 368.107 212.88 367.715 188.577L384.781 188.303C385.114 208.937 392.265 229.28 404.92 245.587C430.119 277.988 435.734 321.568 419.589 359.311L418.215 362.503Z" fill="black"/>
<path d="M359.181 205.515H350.648V188.448H359.181C368.593 188.448 376.248 180.794 376.248 171.381C376.248 161.969 368.594 154.314 359.181 154.314H350.648V137.247H359.181C378.006 137.247 393.314 152.556 393.314 171.38C393.314 190.204 378.006 205.515 359.181 205.515Z" fill="black"/>
<path d="M246.226 248.182C246.217 248.182 246.209 248.182 246.2 248.182H239.715V231.115H246.2C246.209 231.115 246.217 231.115 246.226 231.115C257.396 231.115 268.583 228.478 278.567 223.478L286.204 238.744C273.857 244.922 260.033 248.182 246.226 248.182Z" fill="black"/>
<path d="M256.779 461.515C253.716 461.515 250.891 459.877 249.372 457.214L181.105 337.747L195.919 329.282L256.779 435.779L317.639 329.283L332.453 337.748L264.186 457.215C262.667 459.877 259.842 461.515 256.779 461.515Z" fill="black"/>
<path d="M86.1129 512.715H69.0469V410.827C69.0379 372.205 97.9239 339.437 136.247 334.607L198.045 326.927C202.32 326.389 205.529 322.72 205.503 318.394V282.315H222.57V318.326C222.672 331.245 213.038 342.253 200.17 343.858L138.38 351.538C108.573 355.293 86.1049 380.782 86.1129 410.828V512.715Z" fill="black"/>
<path d="M444.516 512.715H427.449V410.827C427.458 380.781 404.989 355.292 375.182 351.546L313.418 343.866C300.533 342.262 290.899 331.245 291.001 318.266V282.315H308.068V318.326C308.034 322.721 311.242 326.39 315.526 326.928L377.299 334.608C415.631 339.429 444.525 372.197 444.516 410.828V512.715Z" fill="black"/>
<path d="M188.516 333.515H171.449V512.715H188.516V333.515Z" fill="black"/>
<path d="M342.114 333.515H325.047V512.715H342.114V333.515Z" fill="black"/>
</g>
<defs>
<clipPath id="clip0">
<rect width="512" height="512" fill="white" transform="translate(0.78125 0.714844)"/>
</clipPath>
</defs>
</svg>
