<svg width="513" height="513" viewBox="0 0 513 513" fill="none" xmlns="http://www.w3.org/2000/svg">
<g clip-path="url(#clip0)">
<path d="M376.253 343.068L359.954 341.105L359.186 342.044C316.767 398.594 236.536 410.063 179.986 367.644C170.284 360.365 161.665 351.746 154.386 342.044L153.618 341.105L137.405 343.068C103.263 347.369 77.6629 376.408 77.6719 410.823V512.711H435.986V410.823C435.995 376.408 410.395 347.369 376.253 343.068Z" fill="#F288B7"/>
<path d="M128.786 344.775C98.6629 352.549 77.6119 379.711 77.5859 410.823V512.711H128.786V344.775Z" fill="#ED7BB2"/>
<path d="M435.986 495.644H77.5859V512.711H435.986V495.644Z" fill="#DB6EA2"/>
<path d="M435.986 452.978H77.5859V470.045H435.986V452.978Z" fill="#DB6EA2"/>
<path d="M435.986 410.311H77.5859V427.378H435.986V410.311Z" fill="#DB6EA2"/>
<path d="M427.452 367.644H82.5352V384.711H427.452V367.644Z" fill="#DB6EA2"/>
<path d="M359.185 86.0439V137.244L350.652 188.444V222.577C350.652 260.277 381.218 290.844 418.919 290.844V154.311C418.918 122.482 393.318 86.0439 359.185 86.0439Z" fill="#A15D30"/>
<path d="M401.852 265.756C385.366 243.339 376.406 216.271 376.252 188.444V89.2019C370.791 87.1539 365.014 86.0869 359.185 86.0449V137.245L350.652 188.445V222.578C350.652 260.278 381.218 290.845 418.919 290.845V289.821L401.852 265.756Z" fill="#8F4F24"/>
<path d="M359.184 342.044L359.867 341.105L314.384 335.388C305.799 334.304 299.382 326.974 299.451 318.321V282.311H214.118V318.407C214.186 327.06 207.769 334.39 199.185 335.474L153.617 341.191L154.385 342.044C196.804 398.594 277.035 410.063 333.585 367.644C343.286 360.365 351.905 351.747 359.184 342.044Z" fill="#FEDAC6"/>
<path d="M299.454 303.644V273.777H214.121V303.644C240.002 320.72 273.572 320.72 299.454 303.644Z" fill="#EEA97C"/>
<path d="M350.654 137.244L345.961 205.511C343.862 253.238 304.557 290.844 256.788 290.844C209.018 290.844 169.714 253.238 167.615 205.511L162.922 137.244C162.922 137.244 214.122 86.0438 222.655 60.4438C222.654 60.4438 299.454 128.711 350.654 137.244Z" fill="#FEDAC6"/>
<path d="M162.918 137.244L167.611 205.511C168.968 238.552 188.518 268.12 218.384 282.311C194.661 230.002 189.285 156.53 188.347 113.351C175.036 126.834 162.918 137.244 162.918 137.244Z" fill="#EEA97C"/>
<path d="M359.186 137.244L359.869 131.868C367.788 72.5871 326.154 18.1191 266.873 10.2001C262.111 9.56014 257.316 9.24414 252.52 9.24414C192.718 9.23514 144.223 57.7131 144.215 117.515C144.215 122.311 144.531 127.106 145.171 131.868L145.854 137.244H162.921C179.988 119.665 214.974 84.1671 222.654 60.4441C223.763 64.3691 301.929 137.244 350.654 137.244H359.186Z" fill="#A15D30"/>
<path d="M162.918 188.444H154.385C140.245 188.444 128.785 176.984 128.785 162.844C128.785 148.704 140.245 137.244 154.385 137.244H162.918" fill="#EEA97C"/>
<path d="M214.118 188.444H188.518C174.378 188.444 162.918 176.984 162.918 162.844V137.244H239.718V162.844C239.718 176.984 228.258 188.444 214.118 188.444Z" fill="#EBEBEB"/>
<path d="M316.516 188.444H290.916C276.776 188.444 265.316 176.984 265.316 162.844V137.244H342.116V162.844C342.116 176.984 330.656 188.444 316.516 188.444Z" fill="#EBEBEB"/>
<path d="M350.652 188.444H359.185C373.325 188.444 384.785 176.984 384.785 162.844C384.785 148.704 373.325 137.244 359.185 137.244H350.652" fill="#FEDAC6"/>
<path d="M199.358 23.2388C160.753 44.9308 139.283 87.9808 145.171 131.868L145.854 137.244H162.921C172.052 128.113 185.961 114.204 198.249 99.2708C195.432 73.9778 195.808 48.4378 199.358 23.2388Z" fill="#8F4F24"/>
<path d="M350.654 145.778C309.438 145.778 249.594 99.3049 225.274 75.5319C211.945 100.296 184.672 127.568 168.954 143.278L156.887 131.211C173.041 115.049 206.662 81.4359 214.555 57.7479C215.741 54.1979 219.035 51.6209 222.849 51.9109C225.904 51.9789 228.643 53.6769 230.094 56.2629C236.657 64.3609 308.311 128.711 350.654 128.711V145.778Z" fill="black"/>
<path d="M265.319 128.711H239.719V145.778H265.319V128.711Z" fill="black"/>
<path d="M367.652 138.32L350.722 136.17L351.405 130.794C351.994 126.374 352.292 121.928 352.292 117.516C352.275 62.5189 307.526 17.7779 252.537 17.7779C252.528 17.7779 252.528 17.7779 252.52 17.7779C248.1 17.7779 243.654 18.0769 239.302 18.6569C212.891 22.1809 189.433 35.7829 173.254 56.9549C157.075 78.1179 150.103 104.324 153.627 130.734L154.318 136.161L137.388 138.311L136.705 132.935C132.583 102.061 140.741 71.3759 159.694 46.5779C178.647 21.7799 206.115 5.85694 237.04 1.72694C242.135 1.06094 247.349 0.710938 252.52 0.710938C252.52 0.710938 252.529 0.710938 252.537 0.710938C283.735 0.710938 313.064 12.8539 335.131 34.9129C357.198 56.9719 369.35 86.3089 369.358 117.516C369.358 122.679 369.017 127.884 368.334 132.987L367.652 138.32Z" fill="black"/>
<path d="M254.086 213.609L228.486 205.076C224.151 203.634 221.728 199.034 222.982 194.631L240.049 134.898L256.459 139.591L241.637 191.465L259.489 197.413L254.086 213.609Z" fill="black"/>
<path d="M359.185 196.978H350.652V179.911H359.185C368.597 179.911 376.252 172.257 376.252 162.844C376.252 153.432 368.598 145.777 359.185 145.777H350.652V128.711H359.185C378.01 128.711 393.318 144.02 393.318 162.844C393.318 181.668 378.01 196.978 359.185 196.978Z" fill="black"/>
<path d="M256.784 299.378C204.313 299.378 161.398 258.307 159.086 205.887L154.41 137.825L171.434 136.656L176.127 204.923C178.038 248.408 213.469 282.311 256.784 282.311C300.099 282.311 335.53 248.408 337.433 205.136L342.135 128.191L359.168 129.232L354.475 206.032C352.178 258.315 309.255 299.378 256.784 299.378Z" fill="black"/>
<path d="M162.92 196.978H154.387C135.562 196.978 120.254 181.669 120.254 162.845C120.254 144.021 135.562 128.711 154.387 128.711H162.92V145.778H154.387C144.975 145.778 137.32 153.432 137.32 162.845C137.32 172.257 144.974 179.912 154.387 179.912H162.92V196.978Z" fill="black"/>
<path d="M246.23 239.644C246.221 239.644 246.213 239.644 246.204 239.644H239.719V222.577H246.204C246.213 222.577 246.221 222.577 246.23 222.577C257.4 222.577 268.587 219.94 278.571 214.94L286.208 230.206C273.861 236.385 260.037 239.644 246.23 239.644Z" fill="black"/>
<path d="M418.917 299.378C376.566 299.378 342.117 264.929 342.117 222.578V188.445H359.184V222.578C359.184 252.624 381.473 277.55 410.384 281.705V154.311C410.384 126.689 388.018 94.5777 359.184 94.5777V77.5107C398.258 77.5107 427.451 118.053 427.451 154.311V290.844C427.451 295.563 423.636 299.378 418.917 299.378Z" fill="black"/>
<path d="M214.12 196.978H188.52C169.695 196.978 154.387 181.669 154.387 162.845V137.245C154.387 132.535 158.21 128.712 162.92 128.712H239.72C244.43 128.712 248.253 132.535 248.253 137.245V162.845C248.254 181.669 232.945 196.978 214.12 196.978ZM171.454 145.778V162.845C171.454 172.257 179.108 179.912 188.521 179.912H214.121C223.533 179.912 231.188 172.258 231.188 162.845V145.778H171.454Z" fill="black"/>
<path d="M316.518 196.978H290.918C272.093 196.978 256.785 181.669 256.785 162.845V137.245C256.785 132.535 260.608 128.712 265.318 128.712H342.118C346.837 128.712 350.651 132.535 350.651 137.245V162.845C350.652 181.669 335.343 196.978 316.518 196.978ZM273.852 145.778V162.845C273.852 172.257 281.506 179.912 290.919 179.912H316.519C325.931 179.912 333.586 172.258 333.586 162.845V145.778H273.852Z" fill="black"/>
<path d="M256.956 401.726C215.407 401.726 174.353 382.884 147.559 347.155L161.212 336.923C180.361 362.446 208.307 378.992 239.898 383.506C271.463 388.003 302.942 379.965 328.474 360.816C337.536 354.015 345.566 345.985 352.367 336.923L366.02 347.155C358.255 357.514 349.073 366.696 338.713 374.462C314.206 392.852 285.457 401.726 256.956 401.726Z" fill="black"/>
<path d="M86.1168 512.711H69.0508V410.823C69.0418 372.201 97.9278 339.433 136.251 334.603L198.049 326.923C202.324 326.385 205.533 322.716 205.507 318.39V282.311H222.574V318.322C222.676 331.241 213.042 342.249 200.174 343.854L138.384 351.534C108.577 355.289 86.1088 380.778 86.1168 410.824V512.711Z" fill="black"/>
<path d="M444.52 512.711H427.453V410.823C427.462 380.777 404.993 355.288 375.186 351.542L313.422 343.862C300.537 342.258 290.903 331.241 291.005 318.262V282.311H308.072V318.322C308.038 322.717 311.246 326.386 315.53 326.924L377.303 334.604C415.635 339.425 444.529 372.193 444.52 410.824V512.711Z" fill="black"/>
<path d="M205.587 171.378C215.012 171.378 222.654 163.737 222.654 154.311C222.654 144.885 215.012 137.244 205.587 137.244C196.161 137.244 188.52 144.885 188.52 154.311C188.52 163.737 196.161 171.378 205.587 171.378Z" fill="black"/>
<path d="M307.985 171.378C317.411 171.378 325.052 163.737 325.052 154.311C325.052 144.885 317.411 137.244 307.985 137.244C298.559 137.244 290.918 144.885 290.918 154.311C290.918 163.737 298.559 171.378 307.985 171.378Z" fill="black"/>
</g>
<defs>
<clipPath id="clip0">
<rect width="512" height="512" fill="white" transform="translate(0.785156 0.710938)"/>
</clipPath>
</defs>
</svg>
