<svg width="513" height="513" viewBox="0 0 513 513" fill="none" xmlns="http://www.w3.org/2000/svg">
<g clip-path="url(#clip0)">
<path d="M391.047 353.469L331.826 346.045L328.071 354.578C311.132 393.976 265.462 412.187 226.064 395.248C207.803 387.397 193.253 372.839 185.394 354.578L181.639 346.045L122.418 353.469C96.6297 356.669 77.3357 378.685 77.5327 404.669V512.701H435.933V404.327C435.958 378.471 416.707 356.66 391.047 353.469Z" fill="#DBDBDB"/>
<path d="M77.5352 409.619V512.702H111.668V359.102C86.0682 367.635 77.5352 384.702 77.5352 409.619Z" fill="#BFBFBF"/>
<path d="M435.935 410.301H77.5352V427.368H435.935V410.301Z" fill="#8C8C8C"/>
<path d="M435.935 452.967H77.5352V470.034H435.935V452.967Z" fill="#8C8C8C"/>
<path d="M435.935 495.634H77.5352V512.701H435.935V495.634Z" fill="#8C8C8C"/>
<path d="M427.399 367.634H86.0664V384.701H427.399V367.634Z" fill="#8C8C8C"/>
<path d="M256.733 401.767C287.777 401.784 315.843 383.284 328.072 354.748L331.827 346.215L314.76 344.082C306.175 342.998 299.758 335.668 299.827 327.015V282.3H214.067V326.929C214.135 335.582 207.718 342.912 199.134 343.996L181.641 346.129L185.396 354.662C197.597 383.233 225.672 401.767 256.733 401.767Z" fill="#FEDAC6"/>
<path d="M299.399 329.575V282.3H214.066V329.575C246.065 346.215 267.399 346.215 299.399 329.575Z" fill="#F5C4B0"/>
<path d="M367.667 137.234V120.167C367.667 58.8984 318.003 9.23438 256.734 9.23438C195.465 9.23438 145.801 58.8984 145.801 120.167V162.834H367.668V137.234H367.667Z" fill="#70432C"/>
<path d="M350.602 137.234L348.981 203.623C349.228 239.472 328.842 272.274 296.586 287.932L279.519 296.465L295.647 288.358L279.519 296.465C265.123 303.65 248.176 303.65 233.78 296.465L216.713 287.932C184.457 272.273 164.071 239.471 164.318 203.623L162.867 145.767L184.03 96.3592C186.727 90.0872 192.905 86.0252 199.731 86.0342H314.419C320.896 86.0342 326.809 89.7032 329.694 95.5062L350.602 137.234Z" fill="#FEDAC6"/>
<path d="M197 214.034C192.426 171.367 193.954 128.274 201.523 86.0341H199.731C192.759 85.8971 186.41 90.0191 183.688 96.4451L162.867 145.768L164.488 203.709C164.309 239.54 184.669 272.317 216.883 288.018L219.955 289.554L214.067 278.461C202.802 258.663 200.584 238.439 197 214.034Z" fill="#F5C4B0"/>
<path d="M371.935 86.0344C393.143 86.0344 410.335 68.8421 410.335 47.6344C410.335 26.4266 393.143 9.23438 371.935 9.23438C350.727 9.23438 333.535 26.4266 333.535 47.6344C333.535 68.8421 350.727 86.0344 371.935 86.0344Z" fill="#5C3724"/>
<path d="M350.599 17.7671C350.599 17.1701 350.599 16.5721 350.599 15.9751C339.932 22.9721 333.515 34.8761 333.532 47.6341C333.43 68.7451 350.471 85.9401 371.582 86.0431C381.182 86.0861 390.441 82.5191 397.532 76.0501C370.149 70.0431 350.633 45.7991 350.599 17.7671Z" fill="#4F2E20"/>
<path d="M172.425 48.2314C155.23 68.2504 145.784 93.7735 145.801 120.167V162.834H190.686C178.04 125.97 171.862 87.2034 172.425 48.2314Z" fill="#5C3724"/>
<path d="M128.734 162.834C128.734 176.974 140.194 188.434 154.334 188.434H171.401V137.234H154.334C140.194 137.234 128.734 148.694 128.734 162.834Z" fill="#F5C4B0"/>
<path d="M359.133 137.234H342.066V188.434H359.133C373.273 188.434 384.733 176.974 384.733 162.834C384.733 148.694 373.273 137.234 359.133 137.234Z" fill="#FEDAC6"/>
<path d="M214.067 188.434H188.467C174.327 188.434 162.867 176.974 162.867 162.834V145.767C162.867 141.057 166.69 137.234 171.4 137.234H239.667V162.834C239.667 176.974 228.207 188.434 214.067 188.434Z" fill="#EBEBEB"/>
<path d="M325.001 188.434H299.401C285.261 188.434 273.801 176.974 273.801 162.834V137.234H342.068C346.778 137.234 350.601 141.057 350.601 145.767V162.834C350.601 176.974 339.141 188.434 325.001 188.434Z" fill="#EBEBEB"/>
<path d="M265.27 9.23438H248.203V86.0344H265.27V9.23438Z" fill="#5C3724"/>
<path d="M214.396 88.3819L230.805 83.6938L213.74 23.9645L197.331 28.6525L214.396 88.3819Z" fill="#5C3724"/>
<path d="M298.699 89.3982L324.312 29.6641L308.626 22.938L283.013 82.6721L298.699 89.3982Z" fill="#5C3724"/>
<path d="M242.167 220.067L225.1 203C221.763 199.663 221.763 194.27 225.1 190.934L242.167 173.867L254.233 185.933L243.199 196.967L254.233 208.001L242.167 220.067Z" fill="black"/>
<path d="M86.0677 512.701H69.0017V404.327C68.7717 374.076 91.2828 348.4 121.371 344.662L198.171 335.113C202.446 334.575 205.655 330.906 205.629 326.58V290.834H222.696V326.512C222.798 339.414 213.164 350.422 200.296 352.044L123.487 361.593C101.992 364.264 85.9148 382.611 86.0768 404.26V512.702H86.0677V512.701Z" fill="black"/>
<path d="M444.554 512.701H427.487V404.754C427.658 383.028 411.581 364.69 390.085 362.019L313.285 352.462C300.4 350.841 290.766 339.833 290.868 326.862V290.834H307.935V326.93C307.901 331.325 311.109 334.985 315.402 335.532L392.185 345.089C422.265 348.827 444.784 374.495 444.554 404.822V512.701Z" fill="black"/>
<path d="M256.775 410.301C256.741 410.301 256.707 410.301 256.681 410.301C222.198 410.301 191.136 389.821 177.551 358.111L172.09 345.405L187.774 338.672L193.235 351.387C204.132 376.808 229.041 393.234 256.689 393.234C256.715 393.234 256.74 393.234 256.766 393.234C284.431 393.234 309.34 376.816 320.228 351.395L325.689 338.672L341.373 345.405L335.912 358.12C322.336 389.812 291.267 410.301 256.775 410.301Z" fill="black"/>
<path d="M246.179 248.167C246.17 248.167 246.162 248.167 246.153 248.167H239.668V231.1H246.153C246.162 231.1 246.17 231.1 246.179 231.1C257.349 231.1 268.528 228.463 278.52 223.463L286.157 238.729C273.81 244.908 259.986 248.167 246.179 248.167Z" fill="black"/>
<path d="M325.52 273.767H325V256.701L325.52 273.767Z" fill="black"/>
<path d="M154.333 145.767H137.266V120.167C137.266 54.2902 190.855 0.700195 256.733 0.700195C322.611 0.700195 376.2 54.2892 376.2 120.167V137.234H359.133V120.167C359.133 63.7022 313.198 17.7672 256.733 17.7672C200.268 17.7672 154.333 63.7022 154.333 120.167V145.767Z" fill="black"/>
<path d="M256.647 310.358C247.482 310.358 238.326 308.276 229.972 304.103L212.905 295.57C178.558 278.887 156.269 243.679 155.791 205.501H154.332C135.507 205.501 120.199 190.192 120.199 171.368C120.199 152.544 135.508 137.235 154.332 137.235H162.865C167.49 137.235 171.279 140.93 171.398 145.555L172.849 203.411C172.636 236.06 191.307 266.114 220.439 280.254L237.6 288.83C249.521 294.795 263.763 294.795 275.693 288.839L291.821 280.732C292.068 280.604 292.324 280.502 292.572 280.399L292.768 280.297C321.986 266.115 340.666 236.052 340.452 203.676L342.065 137.022C342.184 132.397 345.965 128.693 350.598 128.693H359.131C377.956 128.693 393.264 144.002 393.264 162.826C393.264 181.65 377.955 196.959 359.131 196.959H357.68L357.509 203.82C357.765 242.467 335.314 278.606 300.302 295.596L283.329 304.087C283.32 304.087 283.312 304.096 283.312 304.096C274.959 308.276 265.803 310.358 256.647 310.358ZM154.332 154.301C144.92 154.301 137.265 161.955 137.265 171.368C137.265 180.78 144.919 188.435 154.332 188.435H155.407L154.332 154.301ZM358.1 179.901H359.133C368.545 179.901 376.2 172.247 376.2 162.834C376.2 153.421 368.546 145.767 359.133 145.767H358.928L358.1 179.901Z" fill="black"/>
<path d="M170.711 149.129L155.027 142.405L173.971 98.2025C179.364 85.6075 191.661 77.5005 205.348 77.5005C205.433 77.5005 205.519 77.5005 205.604 77.5005H309.224C322.237 77.5175 333.928 84.7535 339.722 96.3845L358.239 133.41L342.973 141.047L324.456 104.012C321.555 98.1925 315.718 94.5745 309.215 94.5665H205.535C205.492 94.5665 205.45 94.5665 205.407 94.5665C198.504 94.5665 192.36 98.6195 189.663 104.917L170.711 149.129Z" fill="black"/>
<path d="M369.833 94.6366C368.988 94.6366 368.084 94.6106 367.162 94.5596L368.16 77.5186C369.252 77.5866 370.353 77.5866 371.428 77.5186C384.569 77.5096 395.893 69.5056 400.109 57.5936C402.771 50.0676 402.345 41.9606 398.897 34.7586C395.458 27.5646 389.425 22.1376 381.907 19.4756C366.402 13.9886 349.284 22.1546 343.78 37.6776L327.695 31.9856C336.331 7.58055 363.219 -5.23644 387.59 3.38156C399.417 7.56256 408.898 16.0876 414.299 27.4026C419.701 38.7176 420.375 51.4576 416.193 63.2766C409.588 81.9986 391.805 94.5686 371.948 94.5686C371.939 94.5686 371.931 94.5686 371.922 94.5686C371.335 94.6106 370.618 94.6366 369.833 94.6366Z" fill="black"/>
<path d="M214.065 196.967H188.465C169.64 196.967 154.332 181.658 154.332 162.834V145.767C154.332 136.355 161.986 128.7 171.399 128.7H239.666C244.376 128.7 248.199 132.523 248.199 137.233V162.833C248.199 181.659 232.89 196.967 214.065 196.967ZM171.399 145.767V162.834C171.399 172.246 179.053 179.901 188.466 179.901H214.066C223.478 179.901 231.133 172.247 231.133 162.834V145.767H171.399Z" fill="black"/>
<path d="M324.999 196.967H299.399C280.574 196.967 265.266 181.658 265.266 162.834V137.234C265.266 132.524 269.089 128.701 273.799 128.701H342.066C351.478 128.701 359.133 136.355 359.133 145.768V162.835C359.132 181.659 343.823 196.967 324.999 196.967ZM282.332 145.767V162.834C282.332 172.246 289.986 179.901 299.399 179.901H324.999C334.411 179.901 342.066 172.247 342.066 162.834V145.767H282.332Z" fill="black"/>
<path d="M273.801 128.701H239.668V145.768H273.801V128.701Z" fill="black"/>
<path d="M205.532 171.368C214.958 171.368 222.599 163.727 222.599 154.301C222.599 144.876 214.958 137.234 205.532 137.234C196.106 137.234 188.465 144.876 188.465 154.301C188.465 163.727 196.106 171.368 205.532 171.368Z" fill="black"/>
<path d="M307.934 171.368C317.36 171.368 325.001 163.727 325.001 154.301C325.001 144.876 317.36 137.234 307.934 137.234C298.508 137.234 290.867 144.876 290.867 154.301C290.867 163.727 298.508 171.368 307.934 171.368Z" fill="black"/>
</g>
<defs>
<clipPath id="clip0">
<rect width="512.006" height="512.006" fill="white" transform="translate(0.773438 0.695312)"/>
</clipPath>
</defs>
</svg>
