<svg width="513" height="513" viewBox="0 0 513 513" fill="none" xmlns="http://www.w3.org/2000/svg">
<g clip-path="url(#clip0)">
<path d="M86.1321 381.115C64.5851 371.575 54.8491 346.376 64.3811 324.829C68.1271 316.355 74.5361 309.332 82.6341 304.827C65.5761 288.571 64.9191 261.563 81.1751 244.505C88.3091 237.013 97.9341 232.371 108.234 231.44C104.991 226.209 103.251 220.185 103.199 214.032C103.199 195.182 118.482 179.899 137.332 179.899V128.699C137.332 62.7194 190.819 9.23242 256.799 9.23242C322.779 9.23242 376.266 62.7194 376.266 128.699V179.899C395.116 179.899 410.399 195.182 410.399 214.032C410.314 220.065 408.598 225.953 405.45 231.099C428.917 233.215 446.231 253.951 444.115 277.426C443.185 287.734 438.543 297.351 431.05 304.485C451.726 315.783 459.329 341.707 448.031 362.384C443.457 370.747 436.221 377.343 427.466 381.115H86.1321Z" fill="#70432C"/>
<path d="M176.074 40.8062C151.43 63.3942 137.384 95.2742 137.333 128.699V179.899C118.483 179.899 103.2 195.182 103.2 214.032C103.285 220.065 105.001 225.953 108.149 231.099C84.6824 233.215 67.3684 253.951 69.4844 277.426C70.4144 287.734 75.0564 297.351 82.5494 304.485C61.8734 315.783 54.2704 341.707 65.5684 362.384C70.1424 370.747 77.3784 377.343 86.1334 381.115H308C302.283 376.848 296.565 372.582 290.933 367.632C177.524 276.923 171.892 115.558 176.074 40.8062Z" fill="#5C3724"/>
<path d="M359.2 145.766H342.133V196.966H359.2C373.34 196.966 384.8 185.506 384.8 171.366C384.8 157.226 373.34 145.766 359.2 145.766Z" fill="#FEDAC6"/>
<path d="M128.801 171.366C128.801 185.506 140.261 196.966 154.401 196.966H171.468V145.766H154.401C140.261 145.766 128.801 157.226 128.801 171.366Z" fill="#F5C4B0"/>
<path d="M391.113 353.467L331.892 346.043L328.137 354.576C311.198 393.974 265.528 412.185 226.13 395.246C207.869 387.395 193.319 372.837 185.46 354.576L181.705 346.043L122.484 353.467C96.6962 356.667 77.4022 378.683 77.5992 404.667V512.699H435.999V404.326C436.024 378.47 416.764 356.659 391.113 353.467Z" fill="#A15D30"/>
<path d="M256.799 401.766C287.843 401.783 315.909 383.283 328.138 354.747L331.893 346.214L314.826 344.081C306.241 342.997 299.824 335.667 299.893 327.014V282.299H214.133V326.928C214.201 335.581 207.784 342.911 199.2 343.995L181.707 346.128L185.462 354.661C197.663 383.231 225.729 401.766 256.799 401.766Z" fill="#FEDAC6"/>
<path d="M299.466 329.574V282.299H214.133V329.574C246.132 346.214 267.466 346.214 299.466 329.574Z" fill="#F5C4B0"/>
<path d="M77.5977 409.616V512.699H111.731V359.099C86.1307 367.632 77.5977 384.699 77.5977 409.616Z" fill="#8F4F24"/>
<path d="M350.666 145.766L345.973 214.033C343.874 261.76 304.569 299.366 256.8 299.366C209.03 299.366 169.726 261.76 167.627 214.033L162.934 145.766L256.801 68.9663L350.666 145.766Z" fill="#FEDAC6"/>
<path d="M197.067 117.606L162.934 145.766L167.627 214.033C169.044 246.016 187.518 274.782 216.011 289.382C211.932 278.69 208.459 267.776 205.6 256.699C199.968 234.171 198.091 162.832 197.067 117.606Z" fill="#F5C4B0"/>
<path d="M370.972 126.85L381.516 113.431L262.059 19.5731L251.515 32.9921L370.972 126.85Z" fill="#5C3724"/>
<path d="M151.075 118.405L261.992 33.0449L251.583 19.5193L140.666 104.88L151.075 118.405Z" fill="#5C3724"/>
<path d="M307.981 179.899C317.407 179.899 325.048 172.258 325.048 162.832C325.048 153.406 317.407 145.765 307.981 145.765C298.555 145.765 290.914 153.406 290.914 162.832C290.914 172.258 298.555 179.899 307.981 179.899Z" fill="black"/>
<path d="M262.626 213.597L237.026 205.064C232.555 203.571 230.14 198.741 231.633 194.269L248.7 143.069L264.888 148.471L250.518 191.573L268.02 197.41L262.626 213.597Z" fill="black"/>
<path d="M86.1341 512.699H69.0682V404.326C68.8382 374.084 91.3492 348.399 121.429 344.661L198.229 335.104C202.513 334.566 205.721 330.897 205.687 326.571V290.833H222.754V326.502C222.856 339.421 213.231 350.429 200.345 352.034L123.545 361.591C102.05 364.262 85.9732 382.609 86.1432 404.258V512.699H86.1341Z" fill="black"/>
<path d="M444.617 512.699H427.549V404.752C427.72 383.035 411.634 364.697 390.147 362.017L313.347 352.468C300.462 350.847 290.828 339.839 290.93 326.868V290.832H307.997V326.928C307.963 331.323 311.171 334.983 315.464 335.53L392.247 345.079C422.336 348.817 444.846 374.502 444.617 404.812V512.699Z" fill="black"/>
<path d="M359.201 205.499H350.668V188.432H359.201C368.613 188.432 376.268 180.778 376.268 171.365C376.268 161.953 368.614 154.298 359.201 154.298H350.668V137.231H359.201C378.026 137.231 393.334 152.54 393.334 171.364C393.334 190.188 378.026 205.499 359.201 205.499Z" fill="black"/>
<path d="M256.841 410.299C256.807 410.299 256.773 410.299 256.747 410.299C222.255 410.299 191.202 389.819 177.617 358.109L172.156 345.403L187.84 338.67L193.301 351.385C204.198 376.806 229.098 393.232 256.755 393.232C256.781 393.232 256.806 393.232 256.832 393.232C284.489 393.232 309.397 376.805 320.294 351.385L325.755 338.67L341.439 345.403L335.978 358.118C322.385 389.819 291.324 410.299 256.841 410.299Z" fill="black"/>
<path d="M256.801 307.899C204.33 307.899 161.415 266.828 159.103 214.408L154.418 137.753L171.451 136.712L176.144 213.512C178.055 256.93 213.486 290.833 256.801 290.833C300.116 290.833 335.547 256.93 337.45 213.658L342.152 136.713L359.185 137.754L354.492 214.554C352.187 266.837 309.273 307.899 256.801 307.899Z" fill="black"/>
<path d="M246.233 248.166C246.224 248.166 246.216 248.166 246.207 248.166H239.73V231.099H246.215C246.224 231.099 246.232 231.099 246.241 231.099C257.411 231.099 268.598 228.462 278.582 223.462L286.219 238.728C273.872 244.906 260.048 248.166 246.233 248.166Z" fill="black"/>
<path d="M205.583 179.899C215.008 179.899 222.65 172.258 222.65 162.832C222.65 153.406 215.008 145.765 205.583 145.765C196.157 145.765 188.516 153.406 188.516 162.832C188.516 172.258 196.157 179.899 205.583 179.899Z" fill="black"/>
<path d="M345.265 152.37L256.8 79.99L168.335 152.37L157.523 139.16L251.39 62.36C254.53 59.783 259.053 59.783 262.202 62.36L356.069 139.16L345.265 152.37Z" fill="black"/>
<path d="M162.932 205.499H154.399C135.574 205.499 120.266 190.19 120.266 171.366C120.266 152.542 135.575 137.233 154.399 137.233H162.932V154.299H154.399C144.987 154.299 137.332 161.953 137.332 171.366C137.332 180.778 144.986 188.433 154.399 188.433H162.932V205.499Z" fill="black"/>
<path d="M384.801 154.299H367.734V128.699C367.734 67.5322 317.968 17.7662 256.801 17.7662C195.634 17.7662 145.868 67.5322 145.868 128.699V154.299H128.801V128.699C128.801 58.1202 186.222 0.699219 256.801 0.699219C327.38 0.699219 384.801 58.1202 384.801 128.699V154.299Z" fill="black"/>
<path d="M265.317 9.23242H248.25V68.9654H265.317V9.23242Z" fill="black"/>
<path d="M82.7616 388.957C72.2996 384.46 63.5445 376.473 58.0746 366.472C51.5126 354.474 50.0276 340.642 53.8766 327.517C56.7436 317.738 62.3155 309.23 69.9366 302.813C64.9016 295.568 61.7876 287.095 60.9856 278.186C58.8096 253.943 73.9736 232.063 96.2196 224.87C95.2466 221.388 94.7266 217.787 94.6666 214.152C94.6666 190.506 113.807 171.357 137.334 171.357V188.424C123.22 188.424 111.734 199.91 111.734 214.024C111.794 218.393 113.074 222.796 115.429 226.636C116.974 229.153 117.102 232.294 115.779 234.922C114.456 237.559 111.862 239.325 108.918 239.59C90.1696 241.28 76.2946 257.903 77.9846 276.65C78.7266 284.902 82.4385 292.582 88.4375 298.291C90.4086 300.177 91.3726 302.882 91.0146 305.578C90.6566 308.275 89.0345 310.655 86.6455 311.961C78.6416 316.33 72.8216 323.549 70.2616 332.304C67.7016 341.059 68.6916 350.275 73.0606 358.279C76.7046 364.944 82.5416 370.268 89.5126 373.264L82.7616 388.957Z" fill="black"/>
<path d="M430.837 388.957L424.087 373.273C431.05 370.278 436.896 364.953 440.548 358.288C449.568 341.767 443.475 320.997 426.954 311.969C424.565 310.663 422.935 308.283 422.585 305.586C422.227 302.889 423.182 300.176 425.162 298.299C431.152 292.599 434.873 284.91 435.615 276.658C437.305 257.919 423.429 241.287 404.682 239.598C401.738 239.333 399.152 237.567 397.821 234.93C396.49 232.293 396.626 229.161 398.171 226.644C400.518 222.813 401.798 218.409 401.866 213.904C401.866 199.918 390.38 188.432 376.266 188.432V171.365C399.792 171.365 418.933 190.505 418.933 214.032C418.873 217.735 418.353 221.371 417.371 224.878C439.617 232.072 454.798 253.951 452.614 278.194C451.803 287.111 448.689 295.585 443.654 302.83C461.839 318.207 467.368 344.797 455.524 366.48C450.046 376.481 441.282 384.469 430.837 388.957Z" fill="black"/>
</g>
<defs>
<clipPath id="clip0">
<rect width="512" height="512" fill="white" transform="translate(0.78125 0.699219)"/>
</clipPath>
</defs>
</svg>
