<svg width="513" height="513" viewBox="0 0 513 513" fill="none" xmlns="http://www.w3.org/2000/svg">
<g clip-path="url(#clip0)">
<path d="M376.764 351.163L327.1 344.592C323.251 344.148 319.599 342.672 316.519 340.325L256.785 410.299L197.052 339.984C193.903 342.433 190.166 344.02 186.215 344.592L136.551 351.163C102.742 355.814 77.5689 384.707 77.5859 418.832V512.699H435.986V418.832C435.985 384.622 410.667 355.694 376.764 351.163Z" fill="#215280"/>
<path d="M316.517 340.326C311.09 336.119 307.932 329.617 307.984 322.747V282.299H205.584V322.747C205.447 329.429 202.307 335.692 197.051 339.814L256.784 410.299L316.517 340.326Z" fill="#A15D30"/>
<path d="M307.986 329.574V282.299H205.586V329.574C243.986 346.214 269.586 346.214 307.986 329.574Z" fill="#8F4F24"/>
<path d="M111.719 359.782C90.6159 371.967 77.6119 394.47 77.5859 418.832V512.699H111.719V359.782Z" fill="#1C496E"/>
<path d="M145.852 470.032H111.719V512.699H145.852V470.032Z" fill="#A15D30"/>
<path d="M111.719 470.032H77.5859V512.699H111.719V470.032Z" fill="#8F4F24"/>
<path d="M435.986 470.032H367.719V512.699H435.986V470.032Z" fill="#A15D30"/>
<path d="M171.451 253.2C165.819 240.912 162.909 227.549 162.918 214.032V103.099C162.918 84.2493 178.201 68.9663 197.051 68.9663H214.118L217.019 73.2333C225.885 86.5363 240.801 94.5413 256.784 94.5663C272.767 94.5403 287.683 86.5363 296.549 73.2333L299.45 68.9663H316.517C335.367 68.9663 350.65 84.2493 350.65 103.099V214.032C350.65 265.872 308.623 307.899 256.783 307.899C226.225 307.908 197.57 293.042 179.983 268.048" fill="#A15D30"/>
<path d="M197.051 185.446V68.9663C178.201 68.9663 162.918 84.2493 162.918 103.099V214.032C162.909 227.549 165.819 240.912 171.451 253.2L179.984 268.048C194.67 288.861 217.189 302.821 242.363 306.704L220.518 270.181C205.157 244.59 197.042 215.295 197.051 185.446Z" fill="#8F4F24"/>
<path d="M162.919 145.766V103.099C162.919 84.2494 178.202 68.9664 197.052 68.9664H214.119L217.02 73.2334C231.569 95.1984 261.171 101.205 283.128 86.6564C288.453 83.1234 293.018 78.5664 296.551 73.2334L299.452 68.9664H316.519C335.369 68.9664 350.652 84.2494 350.652 103.099V145.766H359.185C365.508 145.826 371.592 148.232 376.252 152.507L379.751 114.192C382.593 82.7474 363.504 53.4604 333.586 43.3654C317.467 21.8794 292.182 9.23242 265.319 9.23242H248.252C221.389 9.23242 196.105 21.8784 179.985 43.3654C149.999 53.3924 130.833 82.7044 133.649 114.192L137.318 152.507C141.977 148.232 148.061 145.825 154.385 145.766H162.919Z" fill="#DBDBDB"/>
<path d="M359.185 145.766H350.652V196.966H359.185C373.325 196.966 384.785 185.506 384.785 171.366C384.785 157.226 373.325 145.766 359.185 145.766Z" fill="#A15D30"/>
<path d="M128.785 171.366C128.785 185.506 140.245 196.966 154.385 196.966H162.918V145.766H154.385C140.245 145.766 128.785 157.226 128.785 171.366Z" fill="#8F4F24"/>
<path d="M171.453 265.232H205.586C229.147 265.232 248.253 246.126 248.253 222.565H214.12C190.559 222.566 171.453 241.672 171.453 265.232Z" fill="#DBDBDB"/>
<path d="M325.054 265.232H290.921C267.36 265.232 248.254 246.126 248.254 222.565H282.387C305.948 222.566 325.054 241.672 325.054 265.232Z" fill="#DBDBDB"/>
<path d="M179.985 43.3663C149.999 53.3933 130.833 82.7053 133.649 114.193L137.318 152.508C141.977 148.233 148.061 145.826 154.385 145.767H162.918V103.099C162.918 84.2493 178.201 68.9663 197.051 68.9663V26.2993C190.575 31.1373 184.823 36.8893 179.985 43.3663Z" fill="#BFBFBF"/>
<path d="M215.058 248.166H175.037C172.665 253.542 171.444 259.353 171.453 265.233H205.586C222.601 265.293 238.03 255.232 244.839 239.633C235.965 245.333 225.605 248.302 215.058 248.166Z" fill="#BFBFBF"/>
<path d="M281.445 248.166H321.466C323.838 253.542 325.059 259.353 325.05 265.233H290.917C273.902 265.293 258.473 255.232 251.664 239.633C260.539 245.333 270.898 248.302 281.445 248.166Z" fill="#BFBFBF"/>
<path d="M265.318 231.099H231.185C228.386 231.099 225.766 229.725 224.171 227.43C222.575 225.126 222.217 222.191 223.19 219.571L248.79 151.304L264.773 157.294L243.499 214.032H265.319V231.099H265.318Z" fill="black"/>
<path d="M359.185 205.499H350.652V188.432H359.185C368.597 188.432 376.252 180.778 376.252 171.365C376.252 161.953 368.598 154.298 359.185 154.298H350.652V137.231H359.185C378.01 137.231 393.318 152.54 393.318 171.364C393.318 190.188 378.01 205.499 359.185 205.499Z" fill="black"/>
<path d="M162.92 205.499H154.387C135.562 205.499 120.254 190.19 120.254 171.366C120.254 152.542 135.563 137.233 154.387 137.233H162.92V154.299H154.387C144.975 154.299 137.32 161.953 137.32 171.366C137.32 180.778 144.974 188.433 154.387 188.433H162.92V205.499Z" fill="black"/>
<path d="M205.584 273.766H171.451C166.741 273.766 162.918 269.952 162.918 265.233C162.918 236.996 185.881 214.033 214.118 214.033H248.251C252.961 214.033 256.784 217.856 256.784 222.566C256.784 250.802 233.821 273.766 205.584 273.766ZM181.059 256.699H205.584C221.456 256.699 234.836 245.802 238.642 231.099H214.117C198.245 231.099 184.865 241.996 181.059 256.699Z" fill="black"/>
<path d="M325.052 273.766H290.919C262.682 273.766 239.719 250.803 239.719 222.566C239.719 217.856 243.542 214.033 248.252 214.033H282.385C310.622 214.033 333.585 236.996 333.585 265.233C333.585 269.951 329.771 273.766 325.052 273.766ZM257.86 231.099C261.657 245.802 275.038 256.699 290.918 256.699H315.434C311.645 241.996 298.256 231.099 282.384 231.099H257.86Z" fill="black"/>
<path d="M205.587 188.433C215.012 188.433 222.654 180.792 222.654 171.366C222.654 161.94 215.012 154.299 205.587 154.299C196.161 154.299 188.52 161.94 188.52 171.366C188.52 180.792 196.161 188.433 205.587 188.433Z" fill="black"/>
<path d="M299.454 188.433C308.88 188.433 316.521 180.792 316.521 171.366C316.521 161.94 308.88 154.299 299.454 154.299C290.028 154.299 282.387 161.94 282.387 171.366C282.387 180.792 290.028 188.433 299.454 188.433Z" fill="black"/>
<path d="M256.758 316.432C223.469 316.432 192.169 300.185 173.012 272.955L186.973 263.142C202.922 285.824 229.017 299.366 256.759 299.366C256.768 299.366 256.768 299.366 256.776 299.366C303.829 299.366 342.109 261.085 342.109 214.033V103.099C342.109 88.9851 330.623 77.4991 316.509 77.4991H303.956L303.598 78.0281C293.17 93.6701 275.66 103.073 256.784 103.099C237.883 103.073 220.364 93.6781 209.902 77.9601L209.603 77.4991H197.05C182.936 77.4991 171.45 88.9851 171.45 103.099V214.032C171.441 226.243 174.121 238.557 179.207 249.642L163.693 256.75C157.592 243.447 154.375 228.675 154.383 214.032V103.099C154.383 79.5731 173.523 60.4321 197.05 60.4321H214.117C216.942 60.4321 219.587 61.8311 221.174 64.1701L224.075 68.4371C231.414 79.4621 243.633 86.0161 256.792 86.0331C269.933 86.0161 282.145 79.4541 289.449 68.4971L292.393 64.1711C293.98 61.8331 296.626 60.4331 299.45 60.4331H316.517C340.043 60.4331 359.184 79.5731 359.184 103.1V214.033C359.184 270.498 313.249 316.433 256.784 316.433C256.775 316.432 256.767 316.432 256.758 316.432Z" fill="black"/>
<path d="M128.817 155.076L125.148 114.969C122.042 80.2552 142.343 48.2382 174.761 36.1552C192.476 13.9092 219.74 0.699219 248.25 0.699219H265.317C293.827 0.699219 321.091 13.9092 338.798 36.1552C371.225 48.2382 391.525 80.2552 388.411 114.952L384.742 155.076L367.744 153.523L371.413 113.416C373.896 85.7592 357.222 60.2702 330.871 51.4552C329.233 50.9092 327.799 49.8682 326.758 48.4852C312.328 29.2512 289.356 17.7652 265.318 17.7652H248.251C224.204 17.7652 201.241 29.2512 186.811 48.4852C185.77 49.8672 184.336 50.9082 182.698 51.4552C156.347 60.2702 139.673 85.7592 142.156 113.433L145.825 153.523L128.817 155.076Z" fill="black"/>
<path d="M325.053 120.166H188.52V137.233H325.053V120.166Z" fill="black"/>
<path d="M86.1168 512.699H69.0508V418.832C69.0508 380.517 97.6888 347.792 135.679 342.706L185.352 336.127C191.991 335.222 197.043 329.462 197.06 322.73V290.832H214.127V322.747C214.093 337.97 202.701 350.992 187.631 353.049L137.933 359.628C108.391 363.57 86.1188 389.025 86.1188 418.832V512.699H86.1168Z" fill="black"/>
<path d="M444.519 512.699H427.452V418.832C427.452 389.025 405.18 363.57 375.629 359.628L325.991 353.049C310.878 350.992 299.495 337.971 299.461 322.764V290.832H316.528V322.747C316.545 329.463 321.588 335.223 328.261 336.127L377.882 342.706C415.881 347.783 444.519 380.517 444.519 418.832V512.699Z" fill="black"/>
<path d="M154.383 444.432H137.316V512.699H154.383V444.432Z" fill="black"/>
<path d="M376.251 444.432H359.184V512.699H376.251V444.432Z" fill="black"/>
<path d="M256.787 418.832C254.321 418.832 251.983 417.774 250.37 415.914L190.637 347.647L203.48 336.417L256.787 397.337L310.095 336.409L322.946 347.639L263.213 415.906C261.591 417.774 259.253 418.832 256.787 418.832Z" fill="black"/>
<path d="M205.584 427.366C202.256 427.366 199.175 425.412 197.793 422.297L163.66 345.497L179.25 338.559L210.704 409.326L255.385 401.876L258.192 418.712L206.992 427.245C206.514 427.323 206.045 427.366 205.584 427.366Z" fill="black"/>
<path d="M307.986 427.366C307.525 427.366 307.056 427.323 306.587 427.247L255.387 418.714L258.194 401.878L302.875 409.328L334.329 338.561L349.928 345.499L315.795 422.299C314.395 425.412 311.323 427.366 307.986 427.366Z" fill="black"/>
<path d="M265.321 410.299H248.254V512.699H265.321V410.299Z" fill="black"/>
<path d="M154.384 512.699H137.317V478.566H86.1168V512.699H69.0508V470.032C69.0508 465.313 72.8738 461.499 77.5838 461.499H145.851C150.561 461.499 154.384 465.313 154.384 470.032V512.699Z" fill="black"/>
<path d="M444.517 512.699H427.45V478.566H376.25V512.699H359.184V470.032C359.184 465.313 362.998 461.499 367.717 461.499H435.984C440.703 461.499 444.517 465.313 444.517 470.032V512.699Z" fill="black"/>
<path d="M226.917 461.499C219.86 461.499 214.117 455.756 214.117 448.699C214.117 441.642 219.86 435.899 226.917 435.899C233.974 435.899 239.717 441.642 239.717 448.699C239.717 455.756 233.974 461.499 226.917 461.499ZM226.917 444.432C224.562 444.432 222.65 446.352 222.65 448.699C222.65 451.046 224.561 452.966 226.917 452.966C229.273 452.966 231.184 451.046 231.184 448.699C231.184 446.352 229.273 444.432 226.917 444.432Z" fill="black"/>
</g>
<defs>
<clipPath id="clip0">
<rect width="512" height="512" fill="white" transform="translate(0.785156 0.699219)"/>
</clipPath>
</defs>
</svg>
