<svg width="513" height="513" viewBox="0 0 513 513" fill="none" xmlns="http://www.w3.org/2000/svg">
<g clip-path="url(#clip0)">
<path d="M307.906 330.272C367.549 311.271 401.632 253.588 401.632 253.588C385.681 242.946 376.087 225.045 376.07 205.874V128.509C376.07 72.2489 336.766 23.6399 281.75 11.8649C265.289 8.37187 248.282 8.37187 231.82 11.8649C176.804 23.6399 137.499 72.2489 137.499 128.509V205.874C137.482 225.045 127.887 242.946 111.938 253.588C111.938 253.588 137.499 321.751 205.663 330.272H307.906Z" fill="#DBDBDB"/>
<path d="M237.868 10.9268C235.823 10.9268 233.778 11.4378 231.819 11.8638C176.803 23.6388 137.498 72.2478 137.498 128.508V205.873C137.481 225.044 127.887 242.945 111.938 253.587C111.938 253.587 137.498 321.75 205.662 330.271H243.068C216.9 225.633 215.127 116.375 237.868 10.9268Z" fill="#BFBFBF"/>
<path d="M376.581 350.635L314.808 342.115L256.784 375.6L198.76 342.456L136.987 350.976C103.263 355.483 78.0265 384.171 77.8555 418.202V511.927H435.712V418.202C435.721 384.053 410.441 355.168 376.581 350.635Z" fill="#DBDBDB"/>
<path d="M314.806 342.456L307.904 341.519V281.876H205.659V341.519L198.758 342.456L256.782 375.6L314.806 342.456Z" fill="#CF9E76"/>
<path d="M205.661 409.682L256.784 375.6L205.661 341.519H188.621L205.661 409.682Z" fill="#EAEAEA"/>
<path d="M256.785 375.6L307.907 409.682L324.948 341.519H307.907L256.785 375.6Z" fill="#EAEAEA"/>
<path d="M231.223 511.927L239.743 418.202L231.223 392.641L256.784 375.6L282.345 392.641L273.825 418.202L282.345 511.927" fill="#2E6AA3"/>
<path d="M77.8555 418.202V511.927H111.937V359.241C90.8745 371.408 77.8815 393.877 77.8555 418.202Z" fill="#BFBFBF"/>
<path d="M205.66 281.876V315.958L213.158 323.456C224.729 335.027 240.423 341.519 256.782 341.519C273.141 341.519 288.836 335.026 300.406 323.456L307.904 315.958V281.876H205.66Z" fill="#B08765"/>
<path d="M350.506 105.333V225.897C350.617 238.422 346.135 250.547 337.896 259.979L301.088 301.644C294.63 308.997 285.317 313.223 275.527 313.232H238.208C228.418 313.223 219.105 308.997 212.647 301.644L175.839 259.553C167.6 250.121 163.118 237.996 163.229 225.471V105.333C163.238 91.2148 174.68 79.7718 188.799 79.7798C190.341 79.7798 191.875 79.9158 193.391 80.1978L208.217 82.8388C240.441 88.7178 273.466 88.7178 305.69 82.8388L320.516 80.1978C334.421 77.7528 347.671 87.0398 350.124 100.945C350.379 102.393 350.506 103.867 350.506 105.333Z" fill="#CF9E76"/>
<path d="M350.504 142.823H341.984V193.945H350.504C364.622 193.945 376.065 182.502 376.065 168.384C376.065 154.266 364.623 142.823 350.504 142.823Z" fill="#DFB28B"/>
<path d="M137.496 168.384C137.496 182.502 148.939 193.945 163.057 193.945H171.577V142.823H163.057C148.939 142.823 137.496 154.274 137.496 168.384Z" fill="#DFB28B"/>
<path d="M316.427 245.068H197.141V236.548C197.141 217.726 212.401 202.466 231.223 202.466H282.345C301.167 202.466 316.427 217.726 316.427 236.548V245.068Z" fill="#DBDBDB"/>
<path d="M197.142 80.8789L193.223 80.1969C179.335 77.6579 166.017 86.8509 163.478 100.74C163.197 102.257 163.061 103.79 163.061 105.332V225.896C162.95 238.421 167.432 250.546 175.671 259.978L197.142 284.006V80.8789Z" fill="#BD8F6A"/>
<path d="M350.508 202.474H341.988V185.433H350.508C359.906 185.433 367.549 177.79 367.549 168.392C367.549 158.994 359.906 151.351 350.508 151.351H341.988V134.31H350.508C369.304 134.31 384.59 149.596 384.59 168.392C384.59 187.188 369.304 202.474 350.508 202.474Z" fill="black"/>
<path d="M171.579 202.474H163.059C144.263 202.474 128.977 187.188 128.977 168.392C128.977 149.596 144.263 134.31 163.059 134.31H171.579V151.351H163.059C153.661 151.351 146.018 158.994 146.018 168.392C146.018 177.79 153.661 185.433 163.059 185.433H171.579V202.474Z" fill="black"/>
<path d="M265.304 210.994H239.743C237.298 210.994 234.972 209.946 233.353 208.114C231.734 206.282 230.984 203.845 231.283 201.417L239.803 133.254L256.707 135.367L249.388 193.953H265.296V210.994H265.304Z" fill="black"/>
<path d="M275.545 321.76H238.209C225.957 321.743 214.318 316.46 206.249 307.275L169.432 265.176C159.812 254.159 154.589 240.032 154.717 225.411V105.333C154.717 96.2251 158.27 87.6701 164.703 81.2371C171.136 74.8041 179.69 71.2681 188.79 71.2681C188.799 71.2681 188.799 71.2681 188.807 71.2681C190.86 71.2681 192.914 71.4471 194.942 71.8221L209.716 74.4551C241.08 80.1641 272.844 80.1811 304.165 74.4551L319.025 71.8051C337.599 68.5161 355.254 80.9471 358.517 99.4541C358.858 101.414 359.037 103.373 359.037 105.325V225.889C359.173 240.425 353.942 254.552 344.314 265.569L307.48 307.276C299.419 316.452 287.772 321.743 275.545 321.76ZM188.79 88.3091C184.232 88.3091 179.963 90.0811 176.742 93.2931C173.521 96.5051 171.749 100.791 171.749 105.341V225.479C171.655 236.002 175.387 246.09 182.255 253.963L219.055 296.045C223.886 301.549 230.873 304.719 238.217 304.727H275.528C282.847 304.718 289.842 301.549 294.69 296.028L331.507 254.346C338.349 246.507 342.081 236.419 341.979 225.982V105.333C341.979 104.345 341.885 103.365 341.723 102.393C340.096 93.1741 331.243 86.9711 321.998 88.5901L307.19 91.2311C273.867 97.3061 240.049 97.2981 206.683 91.2311L191.9 88.5901C190.843 88.3941 189.821 88.3091 188.79 88.3091C188.799 88.3091 188.79 88.3091 188.79 88.3091Z" fill="black"/>
<path d="M205.705 168.393C215.117 168.393 222.746 160.764 222.746 151.352C222.746 141.941 215.117 134.311 205.705 134.311C196.294 134.311 188.664 141.941 188.664 151.352C188.664 160.764 196.294 168.393 205.705 168.393Z" fill="black"/>
<path d="M299.428 168.393C308.839 168.393 316.469 160.764 316.469 151.352C316.469 141.941 308.839 134.311 299.428 134.311C290.016 134.311 282.387 141.941 282.387 151.352C282.387 160.764 290.016 168.393 299.428 168.393Z" fill="black"/>
<path d="M316.427 253.597H197.141C192.438 253.597 188.621 249.78 188.621 245.077V236.557C188.621 213.066 207.732 193.955 231.223 193.955H282.345C305.836 193.955 324.947 213.066 324.947 236.557V245.077C324.947 249.779 321.139 253.597 316.427 253.597ZM205.661 236.556H307.906C307.906 222.463 296.438 210.995 282.345 210.995H231.223C217.13 210.994 205.661 222.454 205.661 236.556Z" fill="black"/>
<path d="M273.867 270.637H239.785V287.678H273.867V270.637Z" fill="black"/>
<path d="M146.018 185.433H128.977V128.517C128.977 68.6358 171.477 16.0728 230.029 3.53983C247.786 -0.226168 265.772 -0.226168 283.512 3.53983C342.081 16.0738 384.581 68.6358 384.581 128.517V176.913H367.54V128.517C367.54 76.6188 330.706 31.0608 279.959 20.2058C264.58 16.9338 248.979 16.9428 233.582 20.2058C182.843 31.0608 146.018 76.6198 146.018 128.517V185.433Z" fill="black"/>
<path d="M265.346 40.5859H248.305V91.7079H265.346V40.5859Z" fill="black"/>
<path d="M231.264 49.1069H214.223V83.1889H231.264V49.1069Z" fill="black"/>
<path d="M299.428 49.1069H282.387V83.1889H299.428V49.1069Z" fill="black"/>
<path d="M310.496 338.4L305.324 322.16C349.715 308.016 379.656 270.475 390.153 255.522C375.881 243.099 367.574 225.087 367.557 205.891V176.913H384.598V205.882C384.615 222.233 392.752 237.425 406.368 246.507C410.134 249.021 411.276 254.031 408.984 257.933C407.509 260.396 372.516 318.624 310.496 338.4Z" fill="black"/>
<path d="M370.99 292.041C355.934 280.854 344.602 265.602 338.238 247.965L354.265 242.18C359.497 256.665 368.792 269.173 381.155 278.366L370.99 292.041Z" fill="black"/>
<path d="M345.302 319.988C332.641 310.207 322.851 297.162 317.023 282.268L332.879 276.048C337.599 288.079 345.489 298.602 355.722 306.491L345.302 319.988Z" fill="black"/>
<path d="M204.605 338.732C132.164 329.675 105.078 259.569 103.953 256.587C102.564 252.872 103.91 248.697 107.199 246.499C120.815 237.416 128.952 222.224 128.969 205.865V176.913H146.01V205.882C145.993 225.513 137.311 243.883 122.477 256.323C130.205 272.111 155.843 315.472 206.71 321.828L204.605 338.732Z" fill="black"/>
<path d="M142.583 292.041L132.418 278.366C144.781 269.181 154.077 256.665 159.308 242.18L175.335 247.965C168.962 265.61 157.638 280.853 142.583 292.041Z" fill="black"/>
<path d="M168.264 319.988L157.852 306.492C168.085 298.602 175.975 288.079 180.687 276.057L196.552 282.268C190.724 297.161 180.934 310.206 168.264 319.988Z" fill="black"/>
<path d="M86.3769 511.935H69.3359V418.21C69.3359 379.945 97.9299 347.269 135.863 342.191L197.142 334.063V290.405H214.183V341.527C214.183 345.796 211.013 349.417 206.779 349.971L138.104 359.079C108.615 363.024 86.3679 388.44 86.3769 418.202V511.935Z" fill="black"/>
<path d="M444.234 511.935H427.193V418.21C427.193 388.448 404.955 363.023 375.449 359.087L306.783 349.979C302.548 349.425 299.387 345.804 299.387 341.535V290.413H316.428V334.072L377.698 342.2C415.631 347.27 444.234 379.954 444.234 418.219V511.935Z" fill="black"/>
<path d="M154.58 443.772H137.539V511.935H154.58V443.772Z" fill="black"/>
<path d="M376.111 443.772H359.07V511.935H376.111V443.772Z" fill="black"/>
<path d="M205.661 418.211C204.622 418.211 203.582 418.024 202.585 417.64C200.003 416.643 198.069 414.445 197.396 411.761L180.355 343.598L196.885 339.474L210.995 395.905L252.055 368.529L261.504 382.707L210.382 416.789C208.976 417.725 207.323 418.211 205.661 418.211Z" fill="black"/>
<path d="M256.783 384.129C255.326 384.129 253.869 383.754 252.557 383.004L192.914 348.922L201.366 334.131L256.783 365.801L312.2 334.131L320.652 348.922L261.009 383.004C259.705 383.754 258.248 384.129 256.783 384.129Z" fill="black"/>
<path d="M307.906 418.211C306.253 418.211 304.6 417.725 303.177 416.78L252.055 382.698L261.504 368.52L302.564 395.896L316.674 339.465L333.195 343.589L316.154 411.752C315.489 414.436 313.547 416.634 310.965 417.631C309.985 418.015 308.946 418.211 307.906 418.211Z" fill="black"/>
<path d="M239.707 512.711L222.734 511.16L231.093 419.216L223.135 395.342L239.298 389.949L247.818 415.51C248.184 416.626 248.329 417.811 248.218 418.978L239.707 512.711Z" fill="black"/>
<path d="M273.857 512.711L265.337 418.986C265.235 417.81 265.371 416.634 265.746 415.518L274.266 389.957L290.421 395.35L282.463 419.224L290.822 511.168L273.857 512.711Z" fill="black"/>
<path d="M273.867 409.69H239.785V426.731H273.867V409.69Z" fill="black"/>
</g>
<defs>
<clipPath id="clip0">
<rect width="511.996" height="511.996" fill="white" transform="translate(0.785156 0.714844)"/>
</clipPath>
</defs>
</svg>
