<svg width="513" height="513" viewBox="0 0 513 513" fill="none" xmlns="http://www.w3.org/2000/svg">
<g clip-path="url(#clip0)">
<path d="M307.906 330.256C367.549 311.255 401.632 253.572 401.632 253.572C385.681 242.93 376.087 225.029 376.07 205.858V128.493C376.07 72.2332 336.766 23.6242 281.75 11.8492C265.289 8.35624 248.282 8.35624 231.82 11.8492C176.804 23.6242 137.499 72.2332 137.499 128.493V205.858C137.482 225.029 127.887 242.93 111.938 253.572C111.938 253.572 137.499 321.735 205.663 330.256H307.906Z" fill="#DBDBDB"/>
<path d="M237.868 10.9111C235.823 10.9111 233.778 11.4221 231.819 11.8481C176.803 23.6231 137.498 72.2321 137.498 128.492V205.857C137.481 225.028 127.887 242.929 111.938 253.571C111.938 253.571 137.498 321.734 205.662 330.255H243.068C216.9 225.617 215.127 116.359 237.868 10.9111Z" fill="#BFBFBF"/>
<path d="M376.581 350.619L314.808 342.099L256.784 375.584L198.76 342.44L136.987 350.96C103.263 355.467 78.0265 384.155 77.8555 418.186V511.911H435.712V418.186C435.721 384.037 410.441 355.152 376.581 350.619Z" fill="#F1F2F2"/>
<path d="M314.806 342.44L307.904 341.503V281.86H205.659V341.503L198.758 342.44L256.782 375.584L314.806 342.44Z" fill="#CF9E76"/>
<path d="M205.661 409.666L256.784 375.584L205.661 341.503H188.621L205.661 409.666Z" fill="#EAEAEA"/>
<path d="M256.785 375.584L307.907 409.666L324.948 341.503H307.907L256.785 375.584Z" fill="#EAEAEA"/>
<path d="M231.223 511.911L239.743 418.186L231.223 392.625L256.784 375.584L282.345 392.625L273.825 418.186L282.345 511.911" fill="#2E6AA3"/>
<path d="M77.8555 418.186V511.911H111.937V359.225C90.8745 371.392 77.8815 393.861 77.8555 418.186Z" fill="#BFBFBF"/>
<path d="M205.66 281.86V315.942L213.158 323.44C224.729 335.011 240.423 341.503 256.782 341.503C273.141 341.503 288.836 335.01 300.406 323.44L307.904 315.942V281.86H205.66Z" fill="#B08765"/>
<path d="M350.506 105.317V225.881C350.617 238.406 346.135 250.531 337.896 259.963L301.088 301.628C294.63 308.981 285.317 313.207 275.527 313.216H238.208C228.418 313.207 219.105 308.981 212.647 301.628L175.839 259.537C167.6 250.105 163.118 237.98 163.229 225.455V105.317C163.238 91.1992 174.68 79.7562 188.799 79.7642C190.341 79.7642 191.875 79.9002 193.391 80.1822L208.217 82.8232C240.441 88.7022 273.466 88.7022 305.69 82.8232L320.516 80.1822C334.421 77.7372 347.671 87.0242 350.124 100.929C350.379 102.377 350.506 103.851 350.506 105.317Z" fill="#CF9E76"/>
<path d="M350.504 142.807H341.984V193.929H350.504C364.622 193.929 376.065 182.486 376.065 168.368C376.065 154.25 364.623 142.807 350.504 142.807Z" fill="#DFB28B"/>
<path d="M137.496 168.368C137.496 182.486 148.939 193.929 163.057 193.929H171.577V142.807H163.057C148.939 142.807 137.496 154.258 137.496 168.368Z" fill="#DFB28B"/>
<path d="M316.427 245.052H197.141V236.532C197.141 217.71 212.401 202.45 231.223 202.45H282.345C301.167 202.45 316.427 217.71 316.427 236.532V245.052Z" fill="#DBDBDB"/>
<path d="M197.142 80.8633L193.223 80.1813C179.335 77.6423 166.017 86.8353 163.478 100.724C163.197 102.241 163.061 103.774 163.061 105.316V225.88C162.95 238.405 167.432 250.53 175.671 259.962L197.142 283.99V80.8633Z" fill="#BD8F6A"/>
<path d="M350.508 202.458H341.988V185.417H350.508C359.906 185.417 367.549 177.774 367.549 168.376C367.549 158.978 359.906 151.335 350.508 151.335H341.988V134.294H350.508C369.304 134.294 384.59 149.58 384.59 168.376C384.59 187.172 369.304 202.458 350.508 202.458Z" fill="black"/>
<path d="M171.579 202.458H163.059C144.263 202.458 128.977 187.172 128.977 168.376C128.977 149.58 144.263 134.294 163.059 134.294H171.579V151.335H163.059C153.661 151.335 146.018 158.978 146.018 168.376C146.018 177.774 153.661 185.417 163.059 185.417H171.579V202.458Z" fill="black"/>
<path d="M265.304 210.978H239.743C237.298 210.978 234.972 209.93 233.353 208.098C231.734 206.266 230.984 203.829 231.283 201.401L239.803 133.238L256.707 135.351L249.388 193.937H265.296V210.978H265.304Z" fill="black"/>
<path d="M275.545 321.744H238.209C225.957 321.727 214.318 316.444 206.249 307.259L169.432 265.16C159.812 254.143 154.589 240.016 154.717 225.395V105.317C154.717 96.2094 158.27 87.6544 164.703 81.2214C171.136 74.7884 179.69 71.2524 188.79 71.2524C188.799 71.2524 188.799 71.2524 188.807 71.2524C190.86 71.2524 192.914 71.4314 194.942 71.8064L209.716 74.4394C241.08 80.1484 272.844 80.1654 304.165 74.4394L319.025 71.7894C337.599 68.5004 355.254 80.9314 358.517 99.4384C358.858 101.398 359.037 103.357 359.037 105.309V225.873C359.173 240.409 353.942 254.536 344.314 265.553L307.48 307.26C299.419 316.436 287.772 321.727 275.545 321.744ZM188.79 88.2934C184.232 88.2934 179.963 90.0654 176.742 93.2774C173.521 96.4894 171.749 100.775 171.749 105.325V225.463C171.655 235.986 175.387 246.074 182.255 253.947L219.055 296.029C223.886 301.533 230.873 304.703 238.217 304.711H275.528C282.847 304.702 289.842 301.533 294.69 296.012L331.507 254.33C338.349 246.491 342.081 236.403 341.979 225.966V105.317C341.979 104.329 341.885 103.349 341.723 102.377C340.096 93.1584 331.243 86.9554 321.998 88.5744L307.19 91.2154C273.867 97.2904 240.049 97.2824 206.683 91.2154L191.9 88.5744C190.843 88.3784 189.821 88.2934 188.79 88.2934C188.799 88.2934 188.79 88.2934 188.79 88.2934Z" fill="black"/>
<path d="M205.705 168.377C215.117 168.377 222.746 160.748 222.746 151.336C222.746 141.925 215.117 134.295 205.705 134.295C196.294 134.295 188.664 141.925 188.664 151.336C188.664 160.748 196.294 168.377 205.705 168.377Z" fill="black"/>
<path d="M299.428 168.377C308.839 168.377 316.469 160.748 316.469 151.336C316.469 141.925 308.839 134.295 299.428 134.295C290.016 134.295 282.387 141.925 282.387 151.336C282.387 160.748 290.016 168.377 299.428 168.377Z" fill="black"/>
<path d="M316.427 253.581H197.141C192.438 253.581 188.621 249.764 188.621 245.061V236.541C188.621 213.05 207.732 193.939 231.223 193.939H282.345C305.836 193.939 324.947 213.05 324.947 236.541V245.061C324.947 249.763 321.139 253.581 316.427 253.581ZM205.661 236.54H307.906C307.906 222.447 296.438 210.979 282.345 210.979H231.223C217.13 210.978 205.661 222.438 205.661 236.54Z" fill="black"/>
<path d="M273.867 270.621H239.785V287.662H273.867V270.621Z" fill="black"/>
<path d="M146.018 185.417H128.977V128.501C128.977 68.6202 171.477 16.0572 230.029 3.52421C247.786 -0.241793 265.772 -0.241793 283.512 3.52421C342.081 16.0582 384.581 68.6202 384.581 128.501V176.897H367.54V128.501C367.54 76.6032 330.706 31.0452 279.959 20.1902C264.58 16.9182 248.979 16.9272 233.582 20.1902C182.843 31.0452 146.018 76.6042 146.018 128.501V185.417Z" fill="black"/>
<path d="M265.346 40.5703H248.305V91.6923H265.346V40.5703Z" fill="black"/>
<path d="M231.264 49.0913H214.223V83.1733H231.264V49.0913Z" fill="black"/>
<path d="M299.428 49.0913H282.387V83.1733H299.428V49.0913Z" fill="black"/>
<path d="M310.496 338.384L305.324 322.144C349.715 308 379.656 270.459 390.153 255.506C375.881 243.083 367.574 225.071 367.557 205.875V176.897H384.598V205.866C384.615 222.217 392.752 237.409 406.368 246.491C410.134 249.005 411.276 254.015 408.984 257.917C407.509 260.38 372.516 318.608 310.496 338.384Z" fill="black"/>
<path d="M370.99 292.025C355.934 280.838 344.602 265.586 338.238 247.949L354.265 242.164C359.497 256.649 368.792 269.157 381.155 278.35L370.99 292.025Z" fill="black"/>
<path d="M345.302 319.972C332.641 310.191 322.851 297.146 317.023 282.252L332.879 276.032C337.599 288.063 345.489 298.586 355.722 306.475L345.302 319.972Z" fill="black"/>
<path d="M204.605 338.716C132.164 329.659 105.078 259.553 103.953 256.571C102.564 252.856 103.91 248.681 107.199 246.483C120.815 237.4 128.952 222.208 128.969 205.849V176.897H146.01V205.866C145.993 225.497 137.311 243.867 122.477 256.307C130.205 272.095 155.843 315.456 206.71 321.812L204.605 338.716Z" fill="black"/>
<path d="M142.583 292.025L132.418 278.35C144.781 269.165 154.077 256.649 159.308 242.164L175.335 247.949C168.962 265.594 157.638 280.837 142.583 292.025Z" fill="black"/>
<path d="M168.264 319.972L157.852 306.476C168.085 298.586 175.975 288.063 180.687 276.041L196.552 282.252C190.724 297.145 180.934 310.19 168.264 319.972Z" fill="black"/>
<path d="M86.3769 511.919H69.3359V418.194C69.3359 379.929 97.9299 347.253 135.863 342.175L197.142 334.047V290.389H214.183V341.511C214.183 345.78 211.013 349.401 206.779 349.955L138.104 359.063C108.615 363.008 86.3679 388.424 86.3769 418.186V511.919Z" fill="black"/>
<path d="M444.234 511.919H427.193V418.194C427.193 388.432 404.955 363.007 375.449 359.071L306.783 349.963C302.548 349.409 299.387 345.788 299.387 341.519V290.397H316.428V334.056L377.698 342.184C415.631 347.254 444.234 379.938 444.234 418.203V511.919Z" fill="black"/>
<path d="M154.58 443.756H137.539V511.919H154.58V443.756Z" fill="black"/>
<path d="M376.111 443.756H359.07V511.919H376.111V443.756Z" fill="black"/>
<path d="M205.661 418.195C204.622 418.195 203.582 418.008 202.585 417.624C200.003 416.627 198.069 414.429 197.396 411.745L180.355 343.582L196.885 339.458L210.995 395.889L252.055 368.513L261.504 382.691L210.382 416.773C208.976 417.709 207.323 418.195 205.661 418.195Z" fill="black"/>
<path d="M256.783 384.113C255.326 384.113 253.869 383.738 252.557 382.988L192.914 348.906L201.366 334.115L256.783 365.785L312.2 334.115L320.652 348.906L261.009 382.988C259.705 383.738 258.248 384.113 256.783 384.113Z" fill="black"/>
<path d="M307.906 418.195C306.253 418.195 304.6 417.709 303.177 416.764L252.055 382.682L261.504 368.504L302.564 395.88L316.674 339.449L333.195 343.573L316.154 411.736C315.489 414.42 313.547 416.618 310.965 417.615C309.985 417.999 308.946 418.195 307.906 418.195Z" fill="black"/>
<path d="M239.707 512.695L222.734 511.144L231.093 419.2L223.135 395.326L239.298 389.933L247.818 415.494C248.184 416.61 248.329 417.795 248.218 418.962L239.707 512.695Z" fill="black"/>
<path d="M273.857 512.695L265.337 418.97C265.235 417.794 265.371 416.618 265.746 415.502L274.266 389.941L290.421 395.334L282.463 419.208L290.822 511.152L273.857 512.695Z" fill="black"/>
<path d="M273.867 409.674H239.785V426.715H273.867V409.674Z" fill="black"/>
</g>
<defs>
<clipPath id="clip0">
<rect width="511.996" height="511.996" fill="white" transform="translate(0.785156 0.699219)"/>
</clipPath>
</defs>
</svg>
