<svg width="513" height="513" viewBox="0 0 513 513" fill="none" xmlns="http://www.w3.org/2000/svg">
<g clip-path="url(#clip0)">
<path d="M256.782 401.828C287.81 401.845 315.861 383.355 328.083 354.834L332.177 345.367L322.795 344.088C314.249 342.971 307.878 335.653 307.955 327.03V282.425H205.609V327.201C205.686 335.824 199.315 343.141 190.769 344.259L181.387 345.538L185.481 355.005C197.754 383.465 225.788 401.879 256.782 401.828Z" fill="#FEDAC6"/>
<path d="M376.699 351.252L332.179 345.367L328.085 354.834C311.155 394.211 265.509 412.412 226.132 395.482C207.88 387.636 193.339 373.085 185.484 354.834L181.39 345.367L136.87 351.252C102.985 355.781 77.6797 384.693 77.6797 418.885V512.702H435.889V418.885C435.889 384.702 410.584 355.79 376.699 351.252Z" fill="#2E6AA3"/>
<path d="M307.954 329.674V287.03H205.609V329.674C243.988 346.306 269.575 346.306 307.954 329.674Z" fill="#F5C4B0"/>
<path d="M77.6797 418.885V512.702H111.795V359.866C90.7037 372.045 77.7057 394.536 77.6797 418.885Z" fill="#245E8F"/>
<path d="M145.943 470.05H111.828V512.694H145.943V470.05Z" fill="#FEDAC6"/>
<path d="M111.826 470.05H77.7109V512.694H111.826V470.05Z" fill="#F5C4B0"/>
<path d="M435.921 470.05H367.691V512.694H435.921V470.05Z" fill="#FEDAC6"/>
<path d="M350.601 229.461C350.712 241.998 346.226 254.135 337.978 263.576L301.134 305.282C294.669 312.642 285.347 316.873 275.548 316.881H238.192C228.392 316.872 219.07 312.642 212.606 305.282L175.762 263.15C167.515 253.709 163.029 241.572 163.139 229.035V154.493L316.486 69.2051L350.601 137.435V229.461Z" fill="#FEDAC6"/>
<path d="M350.599 145.964H342.07V197.137H350.599C364.731 197.137 376.185 185.683 376.185 171.551C376.186 157.419 364.731 145.964 350.599 145.964Z" fill="#FEDAC6"/>
<path d="M137.379 180.08C137.379 194.212 148.833 205.666 162.965 205.666H171.494V154.493H162.965C148.833 154.493 137.379 165.956 137.379 180.08Z" fill="#F5C4B0"/>
<path d="M200.406 214.195L197.08 103.321H166.291L162.965 224.771C163.008 244.379 171.494 263.023 186.249 275.944C186.249 275.944 220.961 313.982 225.993 316.541L207.23 263.066C201.626 247.423 199.298 230.783 200.406 214.195Z" fill="#F5C4B0"/>
<path d="M367.656 154.493L371.494 103.832C374.129 74.6978 353.865 48.4548 325.012 43.6188C299.383 12.8808 257.345 1.3158 219.596 14.6208L207.059 19.0558C166.01 33.5628 139.912 73.9218 143.52 117.308L145.908 163.022H162.966L316.483 69.2048L350.598 154.493H367.656Z" fill="#A15D30"/>
<path d="M223.605 13.7681L219.596 14.9621L207.059 19.3971C166.01 33.9041 139.912 74.2631 143.52 117.649L145.908 163.022H162.966L202.709 138.715C200.747 75.2611 211.92 36.5401 223.605 13.7681Z" fill="#8F4F24"/>
<path d="M350.599 205.666H342.07V188.608H350.599C360.006 188.608 367.657 180.958 367.657 171.55C367.657 162.143 360.007 154.492 350.599 154.492H342.07V137.434H350.599C369.414 137.434 384.714 152.735 384.714 171.549C384.714 190.363 369.414 205.666 350.599 205.666Z" fill="black"/>
<path d="M171.496 214.195H162.967C144.153 214.195 128.852 198.894 128.852 180.08C128.852 161.266 144.153 145.965 162.967 145.965H171.496V163.023H162.967C153.56 163.023 145.909 170.673 145.909 180.081C145.909 189.489 153.559 197.139 162.967 197.139H171.496V214.195Z" fill="black"/>
<path d="M265.311 214.536H239.725C237.277 214.536 234.949 213.487 233.328 211.653C231.708 209.819 230.957 207.38 231.256 204.949L239.785 136.719L256.706 138.834L249.38 197.478H265.303V214.536H265.311Z" fill="black"/>
<path d="M282.403 231.585H231.23V248.643H282.403V231.585Z" fill="black"/>
<path d="M275.562 325.419H238.189C225.925 325.402 214.274 320.114 206.198 310.92L169.345 268.771C159.716 257.743 154.488 243.611 154.616 228.967V154.502C154.616 151.406 156.296 148.557 159 147.048L312.338 61.7597C314.376 60.6337 316.799 60.3697 318.999 61.0607C321.225 61.7517 323.076 63.3127 324.116 65.3937L358.231 133.624C358.82 134.81 359.127 136.114 359.127 137.436V229.436C359.255 244.046 354.018 258.169 344.389 269.189L307.519 310.937C299.46 320.114 287.801 325.401 275.562 325.419ZM171.664 159.508V229.035C171.57 239.568 175.306 249.658 182.18 257.53L219.016 299.662C223.852 305.172 230.845 308.336 238.197 308.353H275.545C282.871 308.336 289.873 305.172 294.726 299.645L331.579 257.922C338.428 250.076 342.163 239.977 342.061 229.53C342.061 229.504 342.061 229.479 342.061 229.453V139.449L312.833 80.9927L171.664 159.508Z" fill="black"/>
<path d="M205.644 171.884C215.065 171.884 222.702 164.247 222.702 154.826C222.702 145.405 215.065 137.768 205.644 137.768C196.223 137.768 188.586 145.405 188.586 154.826C188.586 164.247 196.223 171.884 205.644 171.884Z" fill="black"/>
<path d="M299.46 171.884C308.881 171.884 316.518 164.247 316.518 154.826C316.518 145.405 308.881 137.768 299.46 137.768C290.039 137.768 282.402 145.405 282.402 154.826C282.402 164.247 290.039 171.884 299.46 171.884Z" fill="black"/>
<path d="M137.387 163.474L134.999 117.76C131.084 70.8006 159.545 26.8086 204.219 11.0216L216.756 6.58665C256.688 -7.46835 301.6 4.26665 329.549 35.8146C360.952 42.6886 382.914 72.2836 379.997 104.6L376.168 155.142L359.162 153.854L363 103.193C365.226 78.5186 347.921 56.1056 323.614 52.0366C321.601 51.6956 319.776 50.6546 318.463 49.0856C295.239 21.2216 256.638 10.6206 222.437 22.6716L209.908 27.1066C172.535 40.3096 148.74 77.1196 152.023 116.608L154.428 162.587L137.387 163.474Z" fill="black"/>
<path d="M248.288 282.758H231.23V316.873H248.288V282.758Z" fill="black"/>
<path d="M282.402 282.758H265.344V308.344H282.402V282.758Z" fill="black"/>
<path d="M213.21 295.113L221.738 278.057L206.482 270.429L197.954 287.485L213.21 295.113Z" fill="black"/>
<path d="M299.857 302.54L316.031 297.149L307.504 271.565L291.33 276.956L299.857 302.54Z" fill="black"/>
<path d="M86.2064 512.711H69.1484V418.894C69.1484 380.591 97.7714 347.883 135.741 342.8L189.643 335.636C193.924 335.082 197.114 331.414 197.08 327.107V299.491H214.138V327.03C214.249 339.874 204.68 350.876 191.869 352.54L137.993 359.704C108.475 363.653 86.2064 389.094 86.2064 418.885C86.2064 418.886 86.2064 512.711 86.2064 512.711Z" fill="black"/>
<path d="M444.416 512.711H427.358V418.894C427.281 389.205 405.021 363.824 375.563 359.883L321.678 352.719C308.885 351.039 299.324 340.037 299.435 327.133V299.491H316.493V327.21C316.45 331.585 319.649 335.244 323.922 335.816L377.824 342.98C415.7 348.046 444.331 380.669 444.425 418.878V512.712H444.416V512.711Z" fill="black"/>
<path d="M256.801 410.365C256.784 410.356 256.758 410.356 256.758 410.365C222.277 410.365 191.214 389.896 177.645 358.194L172.188 345.503L187.863 338.774L193.322 351.473C204.205 376.889 229.108 393.307 256.758 393.307C256.785 393.298 256.785 393.298 256.793 393.307C284.443 393.307 309.346 376.889 320.238 351.482L325.697 338.774L341.372 345.503L335.914 358.202C322.336 389.888 291.291 410.365 256.801 410.365Z" fill="black"/>
<path d="M154.472 444.463H137.414V512.693H154.472V444.463Z" fill="black"/>
<path d="M145.941 461.521H77.7109V478.579H145.941V461.521Z" fill="black"/>
<path d="M376.218 444.463H359.16V512.693H376.218V444.463Z" fill="black"/>
<path d="M435.921 461.521H367.691V478.579H435.921V461.521Z" fill="black"/>
</g>
<defs>
<clipPath id="clip0">
<rect width="511.996" height="511.996" fill="white" transform="translate(0.789062 0.714844)"/>
</clipPath>
</defs>
</svg>
