<svg width="513" height="513" viewBox="0 0 513 513" fill="none" xmlns="http://www.w3.org/2000/svg">
<g clip-path="url(#clip0)">
<path d="M376.757 368.246L322.826 361.078C293.966 397.558 240.991 403.728 204.52 374.868C199.409 370.823 194.783 366.198 190.73 361.078L136.799 368.246C102.896 372.777 77.5781 401.705 77.5781 435.915V512.715H435.978V435.915C435.979 401.705 410.66 372.777 376.757 368.246Z" fill="#E56B2E"/>
<path d="M322.826 361.078C314.276 359.96 307.901 352.639 307.978 344.011V299.382H205.578V344.182C205.655 352.809 199.28 360.131 190.73 361.249C219.641 397.686 272.616 403.796 309.062 374.885C314.164 370.831 318.789 366.198 322.826 361.078Z" fill="#FEDAC6"/>
<path d="M307.978 345.632V299.381H205.578V345.632C243.978 363.638 269.578 363.638 307.978 345.632Z" fill="#F5C4B0"/>
<path d="M350.642 154.314H342.109V205.514H350.642C364.782 205.514 376.242 194.054 376.242 179.914C376.242 165.774 364.782 154.314 350.642 154.314Z" fill="#FEDAC6"/>
<path d="M162.909 154.314C148.769 154.314 137.309 165.774 137.309 179.914C137.309 194.054 148.769 205.514 162.909 205.514H171.442V154.314H162.909Z" fill="#FEDAC6"/>
<path d="M342.108 120.182L350.641 154.315V246.048C350.752 258.592 346.263 270.735 338.012 280.181L301.148 321.824C294.697 329.222 285.361 333.481 275.548 333.515H238.172C228.359 333.481 219.023 329.223 212.572 321.824L175.537 279.755C167.285 270.309 162.797 258.166 162.908 245.622V154.315L171.441 120.182H342.108Z" fill="#FEDAC6"/>
<path d="M197.044 231.115L205.577 120.182H162.91L159.582 241.697C159.625 261.315 168.115 279.969 182.878 292.897C182.878 292.897 217.609 330.956 222.643 333.516L203.955 280.012C198.273 264.369 195.918 247.721 197.044 231.115Z" fill="#F5C4B0"/>
<path d="M162.91 154.315H239.71V188.448C239.71 202.588 228.25 214.048 214.11 214.048H188.51C174.37 214.048 162.91 202.588 162.91 188.448V154.315Z" fill="#EBEBEB"/>
<path d="M325.044 214.048H299.444C285.304 214.048 273.844 202.588 273.844 188.448V154.315H350.644V188.448C350.644 202.588 339.184 214.048 325.044 214.048Z" fill="#EBEBEB"/>
<path d="M367.709 162.848L376.242 111.648C376.242 55.098 330.392 9.24805 273.842 9.24805H239.709C183.159 9.24805 137.309 55.098 137.309 111.648V120.181L145.842 162.848L162.909 188.448L171.442 120.181H342.109L350.642 179.914L367.709 162.848Z" fill="#FECB66"/>
<path d="M216.328 12.064C170.077 22.91 137.361 64.143 137.309 111.648V120.181L145.842 162.848L162.909 188.448L171.442 120.181H188.509C178.354 72.054 188.509 43.382 216.328 12.064Z" fill="#F5AD76"/>
<path d="M77.5781 435.915V512.715H111.711V376.864C90.6081 389.05 77.6031 411.552 77.5781 435.915Z" fill="#D65B25"/>
<path d="M350.642 214.048H342.109V196.981H350.642C360.054 196.981 367.709 189.327 367.709 179.914C367.709 170.501 360.055 162.847 350.642 162.847H342.109V145.78H350.642C369.467 145.78 384.775 161.089 384.775 179.913C384.775 198.737 369.467 214.048 350.642 214.048Z" fill="black"/>
<path d="M171.443 214.048H162.91C144.085 214.048 128.777 198.739 128.777 179.915C128.777 161.091 144.086 145.782 162.91 145.782H171.443V162.849H162.91C153.498 162.849 145.843 170.503 145.843 179.916C145.843 189.329 153.497 196.983 162.91 196.983H171.443V214.048Z" fill="black"/>
<path d="M265.31 231.115H239.71C237.261 231.115 234.931 230.065 233.31 228.231C231.689 226.397 230.938 223.956 231.236 221.524L239.769 153.257L256.699 155.373L249.377 214.048H265.309V231.115H265.31Z" fill="black"/>
<path d="M214.112 222.582H188.512C169.687 222.582 154.379 207.273 154.379 188.449V154.315C154.379 149.605 158.202 145.782 162.912 145.782H239.712C244.422 145.782 248.245 149.605 248.245 154.315V188.448C248.245 207.273 232.937 222.582 214.112 222.582ZM171.445 162.848V188.448C171.445 197.86 179.099 205.515 188.512 205.515H214.112C223.524 205.515 231.179 197.861 231.179 188.448V162.848H171.445Z" fill="black"/>
<path d="M325.042 222.582H299.442C280.617 222.582 265.309 207.273 265.309 188.449V154.315C265.309 149.605 269.123 145.782 273.842 145.782H350.642C355.361 145.782 359.175 149.605 359.175 154.315V188.448C359.176 207.273 343.867 222.582 325.042 222.582ZM282.376 162.848V188.448C282.376 197.86 290.03 205.515 299.443 205.515H325.043C334.455 205.515 342.11 197.861 342.11 188.448V162.848H282.376Z" fill="black"/>
<path d="M273.843 145.782H231.176V162.849H273.843V145.782Z" fill="black"/>
<path d="M137.481 164.521L128.948 121.854C128.829 121.299 128.777 120.745 128.777 120.181V111.648C128.777 50.4808 178.543 0.714844 239.71 0.714844H273.843C335.01 0.714844 384.776 50.4808 384.776 111.648C384.776 112.117 384.733 112.587 384.657 113.056L376.124 164.256L359.288 161.449L367.71 110.957C367.335 59.5178 325.368 17.7818 273.843 17.7818H239.71C187.955 17.7818 145.843 59.8938 145.843 111.649V119.338L154.206 161.177L137.481 164.521Z" fill="black"/>
<path d="M238.174 342.048C225.877 342.005 214.212 336.681 206.148 327.43L169.139 285.395C159.479 274.327 154.248 260.188 154.385 245.544V154.315C154.385 153.615 154.47 152.924 154.641 152.241L163.174 118.108C164.113 114.319 167.526 111.648 171.443 111.648H342.11C346.027 111.648 349.432 114.319 350.387 118.108L358.92 152.241C359.091 152.924 359.176 153.615 359.176 154.315V246.048C359.313 260.606 354.073 274.746 344.43 285.788L307.54 327.482C299.51 336.681 287.845 342.006 275.574 342.048H238.174ZM171.443 155.365V245.622C171.349 256.152 175.087 266.256 181.965 274.149L218.974 316.184C223.838 321.756 230.844 324.956 238.2 324.982H275.55C282.88 324.956 289.877 321.756 294.724 316.218L331.614 274.524C338.466 266.682 342.204 256.578 342.101 246.125V155.365L335.446 128.715H178.108L171.443 155.365Z" fill="black"/>
<path d="M282.376 248.182H231.176V265.249H282.376V248.182Z" fill="black"/>
<path d="M186.016 126.215L173.941 114.157C183.328 104.753 188.507 92.2516 188.516 78.9656V77.5146H205.583V78.9656C205.566 96.8086 198.62 113.585 186.016 126.215Z" fill="black"/>
<path d="M228.684 126.215L216.609 114.157C225.996 104.753 231.175 92.2516 231.184 78.9656V77.5146H248.251V78.9656C248.234 96.8086 241.288 113.585 228.684 126.215Z" fill="black"/>
<path d="M271.345 126.215L259.27 114.157C268.657 104.753 273.836 92.2596 273.845 78.9656V77.5146H290.912V78.9656C290.904 96.8166 283.957 113.594 271.345 126.215Z" fill="black"/>
<path d="M314.011 126.215L301.945 114.157C311.332 104.753 316.503 92.2596 316.511 78.9656V77.5146H333.578V78.9656C333.569 96.8166 326.623 113.594 314.011 126.215Z" fill="black"/>
<path d="M86.11 512.715H69.043V435.915C69.043 397.6 97.681 364.875 135.671 359.789L189.602 352.621C193.886 352.058 197.077 348.388 197.043 344.088V316.449H214.11V344.012C214.221 356.846 204.647 367.854 191.838 369.535L137.924 376.703C108.382 380.654 86.11 406.109 86.11 435.916V512.715Z" fill="black"/>
<path d="M444.509 512.715H427.442V435.915C427.365 406.21 405.093 380.815 375.619 376.873L321.705 369.705C308.914 368.041 299.339 357.033 299.45 344.105V316.448H316.517V344.181C316.474 348.567 319.666 352.228 323.941 352.791L377.88 359.959C415.777 365.028 444.423 397.668 444.517 435.897V512.715H444.509Z" fill="black"/>
<path d="M154.376 444.448H137.309V512.715H154.376V444.448Z" fill="black"/>
<path d="M376.243 444.448H359.176V512.715H376.243V444.448Z" fill="black"/>
<path d="M256.871 401.534C229.47 401.534 202.317 389.485 184.039 366.377L197.419 355.796C223.309 388.521 271.019 394.051 303.744 368.178C308.326 364.543 312.499 360.379 316.143 355.788L329.506 366.386C325.06 372.009 319.949 377.112 314.334 381.558C297.327 395.006 277.026 401.534 256.871 401.534Z" fill="black"/>
</g>
<defs>
<clipPath id="clip0">
<rect width="512" height="512" fill="white" transform="translate(0.78125 0.714844)"/>
</clipPath>
</defs>
</svg>
