<svg width="513" height="513" viewBox="0 0 513 513" fill="none" xmlns="http://www.w3.org/2000/svg">
<g clip-path="url(#clip0)">
<path d="M256.502 401.512C287.546 401.529 315.612 383.029 327.841 354.493L331.681 345.96L314.188 343.912C305.569 342.871 299.11 335.524 299.169 326.845V282.045H213.836V326.589C213.896 335.267 207.436 342.615 198.817 343.656L181.75 345.704L185.59 354.237C197.673 382.73 225.551 401.308 256.502 401.512Z" fill="#DFB28B"/>
<path d="M376.483 350.91L331.683 345.619L327.843 354.152C310.904 393.55 265.234 411.761 225.836 394.822C207.575 386.971 193.025 372.413 185.166 354.152L181.326 345.619L136.526 350.91C102.615 355.441 77.3047 384.369 77.3047 418.579V512.446H435.705V418.579C435.704 384.369 410.385 355.441 376.483 350.91Z" fill="#DE4C3C"/>
<path d="M77.3008 418.579V512.446H111.434V359.528C90.3308 371.705 77.3258 394.208 77.3008 418.579Z" fill="#C94536"/>
<path d="M145.568 469.779H77.3008V512.446H145.568V469.779Z" fill="#DFB28B"/>
<path d="M111.434 469.779H77.3008V512.446H111.434V469.779Z" fill="#CF9E76"/>
<path d="M299.169 316.179V282.046H213.836V316.179C245.835 333.246 267.169 333.246 299.169 316.179Z" fill="#CF9E76"/>
<path d="M435.704 469.779H367.438V512.446H435.704V469.779Z" fill="#DFB28B"/>
<path d="M350.37 179.646C350.259 212.747 338.133 244.679 316.237 269.502L312.738 273.513C298.53 289.709 278.05 299.036 256.503 299.113C234.837 299.13 214.212 289.803 199.927 273.513L196.77 269.417C174.899 244.611 162.765 212.713 162.637 179.646V85.7788H350.37V179.646Z" fill="#DFB28B"/>
<path d="M201.122 85.7788H162.637V179.646C162.748 212.747 174.874 244.679 196.77 269.502L200.269 273.513C203.546 277.268 207.207 280.672 211.192 283.668C188.834 209 195.576 126.483 201.122 85.7788Z" fill="#CF9E76"/>
<path d="M358.903 145.512H341.836V196.712H358.903C373.043 196.712 384.503 185.252 384.503 171.112C384.503 156.973 373.043 145.512 358.903 145.512Z" fill="#DFB28B"/>
<path d="M128.504 171.112C128.504 185.252 139.964 196.712 154.104 196.712H171.171V145.512H154.104C139.964 145.512 128.504 156.973 128.504 171.112Z" fill="#CF9E76"/>
<path d="M299.17 26.046H203.767C192.059 26.055 181.358 19.45 176.119 8.979L156.578 18.792C139.119 27.598 132.104 48.898 140.911 66.357C145.331 75.129 153.199 81.666 162.637 84.414V145.513C162.637 145.513 185.165 113.428 205.304 85.78H316.237L350.37 136.98V77.246C350.369 48.966 327.449 26.046 299.17 26.046Z" fill="#5C5E6F"/>
<path d="M222.369 68.712C192.451 65.606 165.486 49.265 148.897 24.168C134.339 37.087 133.025 59.368 145.944 73.917C150.398 78.935 156.184 82.57 162.635 84.413V145.512C162.635 145.512 185.163 113.427 205.302 85.779H316.235L350.368 136.979V83.134C319.906 79.976 267.425 74.344 222.369 68.712Z" fill="#525463"/>
<path d="M205.301 179.646C214.727 179.646 222.368 172.005 222.368 162.579C222.368 153.153 214.727 145.512 205.301 145.512C195.876 145.512 188.234 153.153 188.234 162.579C188.234 172.005 195.876 179.646 205.301 179.646Z" fill="black"/>
<path d="M307.704 179.646C317.13 179.646 324.771 172.005 324.771 162.579C324.771 153.153 317.13 145.512 307.704 145.512C298.278 145.512 290.637 153.153 290.637 162.579C290.637 172.005 298.278 179.646 307.704 179.646Z" fill="black"/>
<path d="M265.035 213.779H239.435C236.696 213.779 234.119 212.465 232.514 210.229C230.91 208.002 230.475 205.143 231.336 202.54L248.403 151.34L264.591 156.742L251.27 196.712H265.034V213.779H265.035Z" fill="black"/>
<path d="M240.885 247.912H239.434V230.845H240.885C254.171 230.836 266.664 225.665 276.068 216.27L288.134 228.345C275.505 240.949 258.737 247.904 240.885 247.912Z" fill="black"/>
<path d="M358.9 205.246H350.367V188.179H358.9C368.312 188.179 375.967 180.525 375.967 171.112C375.967 161.699 368.313 154.045 358.9 154.045H350.367V136.978H358.9C377.725 136.978 393.033 152.287 393.033 171.111C393.033 189.935 377.724 205.246 358.9 205.246Z" fill="black"/>
<path d="M162.635 205.246H154.102C135.277 205.246 119.969 189.937 119.969 171.113C119.969 152.289 135.278 136.98 154.102 136.98H162.635V154.047H154.102C144.69 154.047 137.035 161.701 137.035 171.114C137.035 180.527 144.689 188.181 154.102 188.181H162.635V205.246Z" fill="black"/>
<path d="M350.369 145.512C347.57 145.512 344.874 144.13 343.269 141.715L311.671 94.3119H172.45C155.725 94.3119 140.663 85.0189 133.163 70.0599C122.317 48.2059 131.166 21.8809 152.781 11.1459L172.288 1.34991C174.31 0.334908 176.649 0.163908 178.807 0.871908C180.957 1.58891 182.732 3.12491 183.748 5.15591C187.562 12.7759 195.225 17.5119 203.742 17.5119C203.742 17.5119 203.751 17.5119 203.759 17.5119H299.17C332.1 17.5119 358.903 44.3069 358.903 77.2449V136.978C358.903 140.733 356.445 144.061 352.844 145.144C352.025 145.393 351.197 145.512 350.369 145.512ZM173.132 20.0209L160.4 26.4119C147.173 32.9829 141.772 49.0419 148.317 62.2349C153.002 71.5619 162.218 77.2449 172.449 77.2449H316.236C319.086 77.2449 321.749 78.6699 323.336 81.0419L341.836 108.792V77.2459C341.836 53.7199 322.696 34.5789 299.169 34.5789H203.766C203.757 34.5789 203.749 34.5789 203.74 34.5789C191.632 34.5789 180.513 29.1599 173.132 20.0209Z" fill="black"/>
<path d="M169.591 150.429L212.238 90.6855L198.347 80.7696L155.7 140.513L169.591 150.429Z" fill="black"/>
<path d="M256.467 307.646C232.343 307.646 209.406 297.261 193.517 279.136L190.01 274.622C167.115 248.698 154.238 214.829 154.102 179.68V85.7788H171.169V179.646C171.288 210.622 182.655 240.514 203.169 263.768L206.685 268.299C218.999 282.311 237.26 290.571 256.443 290.571C256.46 290.571 256.477 290.571 256.494 290.571C275.566 290.494 293.733 282.225 306.32 267.881L309.81 263.879C330.367 240.566 341.733 210.648 341.836 179.612V119.912H358.903V179.645C358.784 214.845 345.915 248.756 322.636 275.142L319.163 279.127C303.342 297.158 280.524 307.552 256.537 307.645C256.509 307.646 256.484 307.646 256.467 307.646Z" fill="black"/>
<path d="M85.8365 512.446H68.7695V418.579C68.7695 380.264 97.4075 347.539 135.398 342.453L197.819 335.097C202.103 334.576 205.337 330.916 205.303 326.564V290.579H222.37V326.504C222.464 339.475 212.779 350.483 199.842 352.044L137.523 359.383C108.109 363.317 85.8275 388.772 85.8365 418.579V512.446Z" fill="black"/>
<path d="M444.234 512.446H427.167V418.579C427.133 388.823 404.852 363.394 375.344 359.452L313.187 352.13C300.216 350.56 290.54 339.552 290.633 326.521V282.045H307.7V326.589C307.666 331.001 310.891 334.662 315.209 335.182L377.477 342.521C415.544 347.607 444.182 380.29 444.233 418.57V512.446H444.234Z" fill="black"/>
<path d="M256.544 410.046C256.51 410.046 256.476 410.046 256.45 410.046C221.958 410.046 190.905 389.566 177.32 357.856L171.859 345.15L187.543 338.417L193.004 351.132C203.901 376.553 228.801 392.979 256.458 392.979C256.484 392.979 256.509 392.979 256.535 392.979C284.192 392.979 309.1 376.552 320.006 351.132L325.467 338.417L341.151 345.15L335.69 357.865C322.089 389.557 291.028 410.046 256.544 410.046Z" fill="black"/>
<path d="M154.102 444.179H137.035V512.446H154.102V444.179Z" fill="black"/>
<path d="M145.568 461.246H77.3008V478.313H145.568V461.246Z" fill="black"/>
<path d="M375.969 444.179H358.902V512.446H375.969V444.179Z" fill="black"/>
<path d="M435.701 461.246H367.434V478.313H435.701V461.246Z" fill="black"/>
</g>
<defs>
<clipPath id="clip0">
<rect width="512.004" height="512.004" fill="white" transform="translate(0.5 0.441895)"/>
</clipPath>
</defs>
</svg>
