<svg width="513" height="513" viewBox="0 0 513 513" fill="none" xmlns="http://www.w3.org/2000/svg">
<g clip-path="url(#clip0)">
<path d="M359.187 111.644C333.587 103.111 316.52 60.4438 316.52 60.4438C281.022 101.831 200.552 102.258 154.387 98.5878V239.644C154.396 256.6 159.703 273.129 169.576 286.919L172.733 291.356C187.982 312.732 212.609 325.447 238.866 325.489H277.863C307.038 325.515 333.987 309.873 348.434 284.529C355.585 272.104 359.297 257.99 359.186 243.654V111.644H359.187Z" fill="#FEDAC6"/>
<path d="M188.52 204.914V99.9539C176.061 99.9539 164.371 99.4419 154.387 98.5889V239.645C154.396 256.601 159.703 273.13 169.576 286.92L172.733 291.357C184.799 307.843 202.617 319.201 222.653 323.186L219.24 317.298C199.221 283.224 188.623 244.432 188.52 204.914Z" fill="#F5C4B0"/>
<path d="M435.986 504.178V418.845C435.986 384.635 410.668 355.707 376.765 351.176L327.101 344.605C316.17 343.112 308.012 333.793 307.986 322.76V299.379H205.586V322.76C205.56 333.794 197.403 343.112 186.471 344.605L136.807 351.176C102.904 355.707 77.5859 384.635 77.5859 418.845V504.178H435.986Z" fill="#FEDAC6"/>
<path d="M315.238 338.972C310.63 334.842 307.993 328.945 307.985 322.759V299.378H205.585V322.759C205.576 328.946 202.94 334.842 198.332 338.972C235.025 357.805 278.545 357.805 315.238 338.972Z" fill="#F5C4B0"/>
<path d="M359.187 111.644V77.5111C359.187 53.9501 340.081 34.8441 316.52 34.8441C300.127 18.4601 277.907 9.26114 254.739 9.24414H231.187C180.584 9.24414 137.32 51.9111 120.254 94.5771C120.254 94.5771 265.321 120.177 316.521 60.4441C316.52 60.4441 333.587 103.111 359.187 111.644Z" fill="#A15D30"/>
<path d="M329.491 214.898C325.233 222.237 315.829 224.72 308.49 220.462C306.476 219.293 304.761 217.68 303.464 215.752C295.571 204.07 282.412 197.038 268.307 196.979H245.267C231.161 197.039 218.003 204.07 210.11 215.752C205.374 222.792 195.834 224.661 188.794 219.925C186.865 218.628 185.253 216.904 184.084 214.899L154.387 160.114V239.645C154.396 256.601 159.703 273.13 169.576 286.92L172.733 291.357C187.982 312.733 212.609 325.448 238.866 325.49H277.863C322.825 325.447 359.237 288.959 359.186 243.997C359.186 243.886 359.186 243.767 359.186 243.656V160.115L329.491 214.898Z" fill="#A15D30"/>
<path d="M359.185 111.644H350.652V162.844H359.185C373.325 162.844 384.785 151.384 384.785 137.244C384.785 123.104 373.325 111.644 359.185 111.644Z" fill="#FEDAC6"/>
<path d="M128.785 137.244C128.785 151.384 140.245 162.844 154.385 162.844H162.918V111.644H154.385C140.245 111.644 128.785 123.105 128.785 137.244Z" fill="#F5C4B0"/>
<path d="M376.764 351.175L327.1 344.604C324.293 344.263 321.57 343.392 319.079 342.044L256.785 427.378L194.492 342.045C192.026 343.487 189.295 344.443 186.471 344.861L136.807 351.432C102.998 355.955 77.7139 384.738 77.5859 418.845V512.711H435.986V418.844C435.985 384.634 410.667 355.706 376.764 351.175Z" fill="#2E6AA3"/>
<path d="M222.652 384.711L256.785 427.378L290.918 384.711H222.652Z" fill="#EBEBEB"/>
<path d="M145.853 478.578H60.5195V512.711H145.853V478.578Z" fill="#2E6AA3"/>
<path d="M453.052 478.578H367.719V512.711H453.052V478.578Z" fill="#2E6AA3"/>
<path d="M202.686 13.7671C164.798 26.3111 133.993 60.4441 120.254 94.5781C142.833 98.1621 165.66 99.9881 188.521 100.039V77.5111C188.367 55.4691 193.205 33.6751 202.686 13.7671Z" fill="#8F4F24"/>
<path d="M189.032 220.018C187.044 218.678 185.354 216.937 184.083 214.898L154.387 160.114V239.645C154.396 256.601 159.703 273.13 169.576 286.92L172.733 291.357C184.799 307.843 202.617 319.201 222.653 323.186L219.24 317.298C201.815 287.627 191.473 254.339 189.032 220.018Z" fill="#8F4F24"/>
<path d="M231.184 376.178H214.117V512.711H231.184V376.178Z" fill="#215280"/>
<path d="M188.52 350.578H171.453V512.711H188.52V350.578Z" fill="#215280"/>
<path d="M145.852 350.578H128.785V512.711H145.852V350.578Z" fill="#215280"/>
<path d="M103.184 376.178H86.1172V512.711H103.184V376.178Z" fill="#215280"/>
<path d="M222.65 384.711H86.1172V401.778H222.65V384.711Z" fill="#215280"/>
<path d="M256.786 427.378H77.5859V444.445H256.786V427.378Z" fill="#215280"/>
<path d="M265.319 470.044H94.6523V487.111H265.319V470.044Z" fill="#215280"/>
<path d="M299.454 376.178H282.387V512.711H299.454V376.178Z" fill="#215280"/>
<path d="M342.122 350.578H325.055V512.711H342.122V350.578Z" fill="#215280"/>
<path d="M384.786 350.578H367.719V512.711H384.786V350.578Z" fill="#215280"/>
<path d="M427.454 376.178H410.387V512.711H427.454V376.178Z" fill="#215280"/>
<path d="M427.451 384.711H290.918V401.778H427.451V384.711Z" fill="#215280"/>
<path d="M435.985 427.378H256.785V444.445H435.985V427.378Z" fill="#215280"/>
<path d="M418.921 470.044H248.254V487.111H418.921V470.044Z" fill="#215280"/>
<path d="M205.587 154.311C215.012 154.311 222.654 146.67 222.654 137.244C222.654 127.818 215.012 120.177 205.587 120.177C196.161 120.177 188.52 127.818 188.52 137.244C188.52 146.67 196.161 154.311 205.587 154.311Z" fill="black"/>
<path d="M307.985 154.311C317.411 154.311 325.052 146.67 325.052 137.244C325.052 127.818 317.411 120.177 307.985 120.177C298.559 120.177 290.918 127.818 290.918 137.244C290.918 146.67 298.559 154.311 307.985 154.311Z" fill="black"/>
<path d="M256.786 205.511H248.253C245.804 205.511 243.474 204.461 241.853 202.627C240.232 200.792 239.481 198.352 239.779 195.92L248.312 127.653L265.242 129.769L256.786 197.515V205.511Z" fill="black"/>
<path d="M359.185 171.378H350.652V154.311H359.185C368.597 154.311 376.252 146.657 376.252 137.244C376.252 127.831 368.598 120.177 359.185 120.177H350.652V103.111H359.185C378.01 103.111 393.318 118.42 393.318 137.244C393.318 156.068 378.01 171.378 359.185 171.378Z" fill="black"/>
<path d="M162.92 171.378H154.387C135.562 171.378 120.254 156.069 120.254 137.245C120.254 118.421 135.562 103.111 154.387 103.111H162.92V120.178H154.387C144.975 120.178 137.32 127.832 137.32 137.245C137.32 146.657 144.974 154.312 154.387 154.312H162.92V171.378Z" fill="black"/>
<path d="M277.931 334.023C277.905 334.023 277.88 334.023 277.854 334.023H238.865C209.903 333.972 182.596 319.883 165.786 296.314L162.62 291.868C151.663 276.559 145.852 258.494 145.852 239.644V94.5781H162.919V239.645C162.919 254.911 167.621 269.537 176.513 281.953L179.687 286.399C193.306 305.488 215.433 316.914 238.883 316.948H277.863C277.88 316.948 277.906 316.948 277.923 316.948C303.967 316.948 328.142 302.902 341.027 280.297C347.436 269.17 350.764 256.532 350.661 243.715V103.111H367.728V243.655C367.847 259.433 363.734 275.058 355.841 288.788C339.925 316.675 310.076 334.023 277.931 334.023Z" fill="black"/>
<path d="M359.184 120.178C358.279 120.178 357.366 120.033 356.487 119.743C336.323 113.019 321.424 89.4499 313.957 75.0539C254.667 126.228 124.577 104.008 118.774 102.984C116.248 102.54 114.047 100.979 112.801 98.7259C111.555 96.4819 111.376 93.7939 112.332 91.4039C130.354 46.3389 176.972 0.710938 231.184 0.710938H254.736C279.21 0.719937 302.275 9.83294 320.093 26.4389C346.657 28.2739 367.718 50.4859 367.718 77.5109V111.644C367.718 114.383 366.404 116.96 364.177 118.565C362.7 119.632 360.95 120.178 359.184 120.178ZM316.517 51.9109C316.978 51.9109 317.439 51.9449 317.908 52.0219C320.852 52.5079 323.327 54.4969 324.436 57.2609C327.849 65.7429 337.902 85.6089 350.65 96.7189V77.5109C350.65 58.6859 335.341 43.3779 316.517 43.3779C314.256 43.3779 312.08 42.4819 310.484 40.8859C295.585 25.9949 275.787 17.7859 254.727 17.7779H231.184C188.466 17.7779 150.902 51.5439 132.684 87.7599C166.672 92.1289 270.446 101.081 310.041 54.8899C311.679 52.9779 314.051 51.9109 316.517 51.9109Z" fill="black"/>
<path d="M315.938 231.12C308.13 231.12 300.766 227.161 296.337 220.453C290.074 211.177 279.56 205.562 268.262 205.52H245.265C233.873 205.247 223.223 211.092 216.84 220.539C212.479 227.135 205.081 231.112 197.085 231.112C197.068 231.112 197.051 231.112 197.025 231.112C188.56 230.933 180.837 226.35 176.682 219.165L146.969 167.078L161.791 158.621L191.487 210.674C192.648 212.688 194.858 214.002 197.23 214.053H197.239C199.321 214.053 201.395 212.935 202.641 211.058C212.241 196.859 228.087 188.445 245.111 188.445C245.171 188.445 245.23 188.445 245.29 188.445H268.296C285.269 188.522 301.047 196.944 310.527 210.982C311.85 212.987 313.727 214.003 316.304 214.054C318.958 214.054 321.211 212.748 322.431 210.641L351.752 158.656L366.617 167.036L337.262 219.089C332.97 226.53 325.042 231.112 316.526 231.112C316.501 231.111 316.134 231.12 315.938 231.12Z" fill="black"/>
<path d="M256.785 243.774C247.194 243.774 237.602 242.247 228.48 239.2L233.89 223.012C248.653 227.944 264.917 227.944 279.688 223.012L285.09 239.2C275.959 242.256 266.376 243.774 256.785 243.774Z" fill="black"/>
<path d="M86.1168 478.578H69.0508V418.845C69.0508 380.53 97.6888 347.805 135.679 342.719L185.352 336.14C191.991 335.235 197.043 329.475 197.06 322.743L214.127 322.777C214.093 337.983 202.701 351.005 187.631 353.062L137.933 359.641C108.391 363.583 86.1188 389.038 86.1188 418.845V478.578H86.1168Z" fill="black"/>
<path d="M444.519 478.578H427.452V418.845C427.452 389.038 405.18 363.583 375.629 359.641L325.991 353.062C310.878 351.005 299.495 337.984 299.461 322.777L316.528 322.743C316.545 329.476 321.588 335.236 328.261 336.14L377.882 342.719C415.881 347.796 444.519 380.53 444.519 418.845V478.578Z" fill="black"/>
<path d="M154.383 444.444H137.316V512.711H154.383V444.444Z" fill="black"/>
<path d="M376.251 444.444H359.184V512.711H376.251V444.444Z" fill="black"/>
<path d="M256.785 435.911C254.002 435.911 251.392 434.554 249.796 432.267L190.062 346.934L204.049 337.155L256.785 412.496L309.529 337.155L323.515 346.934L263.782 432.267C262.177 434.554 259.566 435.911 256.785 435.911Z" fill="black"/>
<path d="M188.519 444.444C187.393 444.444 186.258 444.222 185.182 443.77C182.537 442.644 180.634 440.263 180.122 437.438L163.055 343.571L179.849 340.525L194.595 421.617L234.992 394.686L244.455 408.885L193.255 443.018C191.83 443.958 190.175 444.444 188.519 444.444Z" fill="black"/>
<path d="M325.053 444.444C323.398 444.444 321.742 443.958 320.317 443.01L269.117 408.877L278.58 394.678L318.968 421.609L333.722 340.517L350.507 343.563L333.44 437.43C332.928 440.255 331.034 442.635 328.38 443.762C327.323 444.222 326.188 444.444 325.053 444.444Z" fill="black"/>
<path d="M265.321 427.378H248.254V512.711H265.321V427.378Z" fill="black"/>
<path d="M290.919 376.178H222.652V393.245H290.919V376.178Z" fill="black"/>
<path d="M154.384 512.711H137.317V487.111H69.0514V512.711H51.9844V478.578C51.9844 473.859 55.8074 470.045 60.5174 470.045H145.85C150.56 470.045 154.383 473.859 154.383 478.578V512.711H154.384Z" fill="black"/>
<path d="M461.584 512.711H444.517V487.111H376.25V512.711H359.184V478.578C359.184 473.859 362.998 470.045 367.717 470.045H453.05C457.769 470.045 461.583 473.859 461.583 478.578V512.711H461.584Z" fill="black"/>
<path d="M226.917 470.044C219.86 470.044 214.117 464.301 214.117 457.244C214.117 450.187 219.86 444.444 226.917 444.444C233.974 444.444 239.717 450.187 239.717 457.244C239.717 464.301 233.974 470.044 226.917 470.044ZM226.917 452.978C224.562 452.978 222.65 454.898 222.65 457.245C222.65 459.592 224.561 461.512 226.917 461.512C229.273 461.512 231.184 459.592 231.184 457.245C231.184 454.898 229.273 452.978 226.917 452.978Z" fill="black"/>
</g>
<defs>
<clipPath id="clip0">
<rect width="512" height="512" fill="white" transform="translate(0.785156 0.710938)"/>
</clipPath>
</defs>
</svg>
