<svg width="513" height="513" viewBox="0 0 513 513" fill="none" xmlns="http://www.w3.org/2000/svg">
<g clip-path="url(#clip0)">
<path d="M359.175 145.762V265.231C359.192 276.367 356.862 287.392 352.348 297.573C335.767 334.933 298.758 359.04 257.882 359.099C220.343 359.09 185.757 338.747 167.512 305.935L164.355 300.303C157.793 288.51 154.354 275.232 154.371 261.732V145.762L214.105 77.4941H299.44L359.175 145.762Z" fill="#A15D30"/>
<path d="M182.361 113.761L154.371 145.762V261.732C154.354 275.232 157.793 288.51 164.355 300.303L167.512 305.935C174.33 318.163 183.598 328.856 194.734 337.338C188.505 282.298 171.438 214.03 182.361 113.761Z" fill="#8F4F24"/>
<path d="M359.178 145.762H350.645V196.963H359.178C373.318 196.963 384.778 185.503 384.778 171.363C384.778 157.223 373.318 145.762 359.178 145.762Z" fill="#A15D30"/>
<path d="M128.773 171.362C128.773 185.502 140.233 196.962 154.373 196.962H162.906V145.761H154.373C140.234 145.762 128.773 157.231 128.773 171.362Z" fill="#8F4F24"/>
<path d="M256.776 416.614C287.821 416.631 315.887 398.131 328.116 369.595L331.017 362.854L311.39 360.55C303.633 359.611 296.422 356.096 290.91 350.566H222.642C217.129 356.096 209.919 359.612 202.162 360.55L182.535 362.854L185.436 369.595C197.665 398.139 225.723 416.631 256.776 416.614Z" fill="#A15D30"/>
<path d="M376.756 368.23L331.017 362.854L328.116 369.595C311.177 408.994 265.506 427.204 226.107 410.266C207.845 402.415 193.296 387.857 185.436 369.595L182.535 362.854L136.796 368.23C102.893 372.761 77.5742 401.69 77.5742 435.9V512.701H435.98V435.9C435.978 401.698 410.659 372.769 376.756 368.23Z" fill="#215280"/>
<path d="M326.408 77.4941H189.873C184.394 77.4851 178.984 76.2051 174.086 73.7391C156.72 64.9501 149.766 43.7441 158.555 26.3781C160.159 23.2121 162.233 20.3021 164.699 17.7591L172.806 9.22607L181.339 26.2931H289.458C315.997 26.2931 342.11 52.3201 333.576 77.4941H326.408Z" fill="#502F1F"/>
<path d="M333.575 77.4942C351.436 83.3222 362.956 100.671 361.394 119.393L359.175 145.761L299.441 77.4932C299.442 77.4942 333.575 77.4942 333.575 77.4942Z" fill="#502F1F"/>
<path d="M214.107 77.4941L154.373 145.762L152.154 119.394C150.618 100.62 165.21 85.2601 179.973 77.4951C179.973 77.4941 214.107 77.4941 214.107 77.4941Z" fill="#382114"/>
<path d="M325.042 259.428C322.525 263.413 317.251 264.599 313.266 262.073C311.704 261.083 310.51 259.615 309.853 257.892L303.794 242.105C301.26 235.415 294.817 231.029 287.666 231.097H225.883C218.792 231.097 212.443 235.475 209.925 242.105L203.866 257.892C202.193 262.295 197.27 264.514 192.858 262.841C191.134 262.184 189.658 260.989 188.677 259.428L154.543 202.595V261.732C154.526 275.232 157.965 288.51 164.527 300.303L167.684 305.935C195.546 355.796 258.557 373.631 308.418 345.769C327.968 334.846 343.439 317.873 352.519 297.401C356.956 287.255 359.226 276.298 359.175 265.23V206.349L325.042 259.428Z" fill="#502F1F"/>
<path d="M154.371 202.595V261.732C154.354 275.232 157.793 288.51 164.355 300.303L167.512 305.935C174.518 318.547 184.118 329.547 195.672 338.192C189.511 310.851 186.251 282.929 185.944 254.905L154.371 202.595Z" fill="#382114"/>
<path d="M159.237 24.2451C149.338 41.0561 154.945 62.7141 171.764 72.6131C177.174 75.7961 183.335 77.4861 189.616 77.4941H282.375C205.573 68.9611 168.197 43.3601 159.237 24.2451Z" fill="#382114"/>
<path d="M145.841 470.034H111.707V512.701H145.841V470.034Z" fill="#A15D30"/>
<path d="M111.704 470.034H77.5703V512.701H111.704V470.034Z" fill="#8F4F24"/>
<path d="M435.979 470.034H367.711V512.701H435.979V470.034Z" fill="#A15D30"/>
<path d="M290.91 350.565H222.642C217.129 356.095 209.919 359.611 202.162 360.549L182.535 362.853L185.436 369.594C190.923 382.428 199.764 393.539 211.036 401.765C233.479 398.522 275.122 390.757 307.635 359.098C301.884 356.607 296.303 353.757 290.91 350.565Z" fill="#8F4F24"/>
<path d="M111.704 381.712C91.2663 388.94 77.5963 408.251 77.5703 429.926V470.033H111.704V381.712Z" fill="#1C496E"/>
<path d="M205.575 188.429C215.001 188.429 222.642 180.788 222.642 171.362C222.642 161.937 215.001 154.295 205.575 154.295C196.149 154.295 188.508 161.937 188.508 171.362C188.508 180.788 196.149 188.429 205.575 188.429Z" fill="black"/>
<path d="M307.977 188.429C317.403 188.429 325.044 180.788 325.044 171.362C325.044 161.937 317.403 154.295 307.977 154.295C298.551 154.295 290.91 161.937 290.91 171.362C290.91 180.788 298.551 188.429 307.977 188.429Z" fill="black"/>
<path d="M256.774 239.63H248.241C245.792 239.63 243.462 238.58 241.841 236.746C240.22 234.911 239.469 232.471 239.767 230.039L248.3 161.771L265.23 163.887L256.773 231.634V239.63H256.774Z" fill="black"/>
<path d="M359.178 205.496H350.645V188.429H359.178C368.59 188.429 376.245 180.774 376.245 171.362C376.245 161.95 368.59 154.295 359.178 154.295H350.645V137.228H359.178C378.003 137.228 393.312 152.537 393.312 171.362C393.312 190.187 378.003 205.496 359.178 205.496Z" fill="black"/>
<path d="M162.905 205.496H154.372C135.547 205.496 120.238 190.187 120.238 171.362C120.238 152.537 135.547 137.228 154.372 137.228H162.905V154.295H154.372C144.96 154.295 137.305 161.95 137.305 171.362C137.305 180.774 144.96 188.429 154.372 188.429H162.905V205.496Z" fill="black"/>
<path d="M257.892 367.632C217.273 367.623 179.785 345.573 160.056 310.082L156.916 304.484C149.645 291.419 145.831 276.639 145.84 261.723V137.228H162.907V261.731C162.898 273.746 165.979 285.659 171.816 296.164L174.956 301.753C191.699 331.859 223.469 350.556 257.884 350.564C295.329 350.513 329.352 328.343 344.55 294.115C348.612 284.967 350.66 275.256 350.643 265.246V137.228H367.71V265.23C367.727 277.629 365.184 289.678 360.149 301.028C342.211 341.434 302.078 367.573 257.892 367.632Z" fill="black"/>
<path d="M256.775 282.255C247.183 282.255 237.592 280.728 228.469 277.681L233.879 261.502C248.642 266.434 264.907 266.434 279.678 261.502L285.08 277.681C275.95 280.727 266.367 282.255 256.775 282.255Z" fill="black"/>
<path d="M317.652 271.946C315.271 271.946 312.882 271.443 310.655 270.436C306.491 268.559 303.316 265.179 301.695 260.913L295.653 245.169C294.399 241.849 291.19 239.639 287.657 239.639H225.875C222.052 239.443 218.988 241.806 217.726 245.143L211.65 260.956C210.37 264.352 207.938 267.331 204.823 269.302C200.983 271.734 196.409 272.511 191.963 271.538C187.517 270.54 183.72 267.86 181.279 264.011L147.145 210.071L161.567 200.949L195.701 254.881L201.768 239.06C205.54 229.101 214.952 222.369 225.943 222.573H287.64C298.204 222.573 307.822 229.212 311.576 239.085L317.626 254.838L351.948 200.924L366.353 210.08L332.048 264.02C330.085 267.109 327.107 269.533 323.694 270.83C321.74 271.579 319.7 271.946 317.652 271.946Z" fill="black"/>
<path d="M333.577 86.028H189.874C183.081 86.019 176.306 84.407 170.256 81.369C148.7 70.455 140.039 44.061 150.945 22.531C152.933 18.597 155.502 14.987 158.574 11.821L166.621 3.34703C168.541 1.33303 171.314 0.394027 174.071 0.787027C176.819 1.19703 179.2 2.92003 180.446 5.41203L186.624 17.76H289.461C306.707 17.76 324.568 27.13 334.962 41.62C343.632 53.703 346.004 67.417 341.661 80.225C340.481 83.706 337.23 86.028 333.577 86.028ZM170.614 23.929C168.805 25.849 167.329 27.948 166.168 30.235C159.512 43.377 164.794 59.479 177.936 66.135C181.605 67.978 185.744 68.96 189.883 68.968H326.64C327.109 61.399 323.585 55.058 321.093 51.577C313.908 41.567 301.201 34.834 289.459 34.834H181.34C178.106 34.834 175.153 33.008 173.703 30.115L170.614 23.929Z" fill="black"/>
<path d="M359.176 154.295C356.761 154.295 354.397 153.262 352.75 151.385L293.016 83.1173L305.867 71.8783L352.357 125.016L352.895 118.684C354.235 103.332 345.087 88.9283 330.64 83.6373L336.52 67.6113C358.187 75.5563 371.908 97.1623 369.894 120.152L367.675 146.486C367.393 149.899 365.089 152.809 361.838 153.876C360.968 154.159 360.063 154.295 359.176 154.295Z" fill="black"/>
<path d="M154.371 154.295C153.484 154.295 152.588 154.158 151.709 153.868C148.458 152.801 146.154 149.891 145.864 146.478L143.645 120.11C141.819 99.0071 152.912 79.2691 171.908 69.8481L179.494 85.1401C166.83 91.4211 159.432 104.579 160.652 118.659L161.19 125.016L207.68 71.8781L220.523 83.1171L160.789 151.385C159.142 153.271 156.786 154.295 154.371 154.295Z" fill="black"/>
<path d="M86.1061 512.701H69.0391V435.9C69.0391 397.585 97.6771 364.859 135.668 359.773L201.171 352.076C206.974 351.376 212.461 348.697 216.6 344.541L228.692 356.59C221.857 363.451 212.803 367.863 203.185 369.023L137.793 376.703C108.378 380.645 86.0971 406.092 86.1061 435.9V512.701Z" fill="black"/>
<path d="M256.819 425.156C256.785 425.156 256.751 425.156 256.725 425.156C222.233 425.156 191.179 404.676 177.594 372.965L172.133 360.259L187.818 353.526L193.279 366.241C204.176 391.662 229.077 408.089 256.734 408.089C256.76 408.089 256.785 408.089 256.811 408.089C284.468 408.089 309.377 391.662 320.274 366.241L325.735 353.526L341.42 360.259L335.959 372.974C322.364 404.668 291.303 425.156 256.819 425.156Z" fill="black"/>
<path d="M154.371 512.701H137.304V478.567H77.5703V461.5H145.838C150.548 461.5 154.371 465.314 154.371 470.033V512.701Z" fill="black"/>
<path d="M444.512 512.701H427.445V435.9C427.445 406.093 405.173 380.637 375.621 376.695L310.391 369.032C300.765 367.871 291.711 363.46 284.867 356.599L296.95 344.55C301.097 348.706 306.593 351.385 312.413 352.085L377.754 359.765C415.865 364.851 444.511 397.585 444.511 435.901V512.701H444.512Z" fill="black"/>
<path d="M376.243 512.701H359.176V470.034C359.176 465.315 362.99 461.501 367.709 461.501H435.977V478.568H376.243V512.701Z" fill="black"/>
</g>
<defs>
<clipPath id="clip0">
<rect width="512.002" height="512.002" fill="white" transform="translate(0.773438 0.699219)"/>
</clipPath>
</defs>
</svg>
