<svg width="513" height="513" viewBox="0 0 513 513" fill="none" xmlns="http://www.w3.org/2000/svg">
<g clip-path="url(#clip0)">
<path d="M307.991 299.386H205.594V307.919V342.051V512.712H307.991V342.051V299.386Z" fill="#FFB788"/>
<path d="M136.817 351.181C102.915 355.712 77.5977 384.639 77.5977 418.848V512.711H205.594V342.051L136.817 351.181Z" fill="#DE4C3C"/>
<path d="M435.987 418.849C435.987 384.64 410.669 355.713 376.768 351.182L307.992 342.052V512.713H435.988V418.849H435.987Z" fill="#DE4C3C"/>
<path d="M205.594 382.498V512.712H307.991V382.498C278.705 408.233 234.88 408.233 205.594 382.498Z" fill="#EBEBEB"/>
<path d="M307.991 299.386H205.594V382.498C234.879 408.225 278.705 408.225 307.991 382.498V299.386Z" fill="#FFB788"/>
<path d="M239.726 399.82C227.106 397.072 215.373 391.202 205.594 382.754V512.712H239.726V399.82Z" fill="#DBDBDB"/>
<path d="M307.991 333.518V299.386H205.594V333.518C243.993 350.584 269.592 350.584 307.991 333.518Z" fill="#FFAF8E"/>
<path d="M259.351 17.7949C216.933 17.7859 179.499 45.4929 167.109 86.0589H351.423C339.076 45.5359 301.718 17.8379 259.351 17.7949Z" fill="#A15D30"/>
<path d="M167.108 86.0601C162.961 99.5591 161.877 113.818 163.951 127.787L165.231 137.259V222.589C165.231 274.427 207.256 316.453 259.095 316.453C310.934 316.453 352.959 274.428 352.959 222.589V137.259L353.642 134.358C357.089 118.341 356.321 101.702 351.423 86.0611C351.422 86.0601 167.108 86.0601 167.108 86.0601Z" fill="#FFB788"/>
<path d="M197.06 86.0598V94.5928H316.523H349.119C333.614 43.6928 279.788 15.0048 228.888 30.5098C198.186 39.8618 174.157 63.8908 164.805 94.5928H197.06V86.0598Z" fill="#A15D30"/>
<path d="M197.059 94.5928H164.804C160.665 108.092 159.556 122.342 161.561 136.32L162.926 145.792C162.927 145.791 197.059 128.725 197.059 94.5928Z" fill="#A15D30"/>
<path d="M349.119 94.5928H316.523C316.523 128.725 350.655 145.791 350.655 145.791L351.252 142.89C354.674 126.873 353.94 110.251 349.119 94.5928Z" fill="#A15D30"/>
<path d="M197.062 219.516V94.5933C197.062 128.725 162.93 145.791 162.93 145.791V231.121C162.921 272.711 190.287 309.352 230.17 321.145L208.923 274.299C201.098 257.096 197.054 238.417 197.062 219.516Z" fill="#FFAF8E"/>
<path d="M359.189 145.791H350.656V196.989H359.189C373.328 196.989 384.788 185.529 384.788 171.39C384.788 157.251 373.328 145.791 359.189 145.791Z" fill="#FFB788"/>
<path d="M128.797 171.39C128.797 185.529 140.257 196.989 154.396 196.989H162.929V145.791H154.396C140.257 145.791 128.797 157.251 128.797 171.39Z" fill="#FFAF8E"/>
<path d="M265.316 26.311H248.25V94.575H265.316V26.311Z" fill="#91542B"/>
<path d="M214.556 97.3103L230.746 91.9141L213.68 40.7108L197.49 46.1071L214.556 97.3103Z" fill="#91542B"/>
<path d="M298.552 98.4056L324.148 47.2119L308.885 39.58L283.288 90.7736L298.552 98.4056Z" fill="#91542B"/>
<path d="M321.814 220.54C319.706 224.755 314.578 226.462 310.363 224.346C309.476 223.902 308.673 223.305 307.991 222.588C296.915 211.615 281.94 205.479 266.35 205.522H247.663C231.664 205.539 216.321 211.888 204.998 223.185C201.679 226.53 196.277 226.556 192.932 223.245C192.377 222.699 191.899 222.076 191.516 221.393L162.93 169.768V231.121C162.93 282.959 204.955 324.985 256.794 324.985C308.633 324.985 350.658 282.96 350.658 231.121V162.857L321.814 220.54Z" fill="#A15D30"/>
<path d="M197.062 225.404C194.732 224.901 192.727 223.45 191.516 221.393L162.93 169.768V231.121C162.964 267.216 183.699 300.094 216.262 315.684C203.701 292.773 197.097 267.063 197.063 240.935V225.404H197.062Z" fill="#8F4F24"/>
<path d="M316.524 9.26222C304.339 9.27122 293.092 15.7812 287 26.3282L339.137 68.9932C353.276 56.5262 354.624 34.9552 342.158 20.8152C335.672 13.4602 326.337 9.25422 316.524 9.26222Z" fill="#8F4F24"/>
<path d="M205.585 350.567H154.387V512.695H205.585V350.567Z" fill="#AD3228"/>
<path d="M111.731 512.712H77.5977V393.249L111.731 359.117V512.712Z" fill="#AD3228"/>
<path d="M154.388 401.765H111.723V444.43H154.388V401.765Z" fill="#AD3228"/>
<path d="M197.052 401.765H154.387V444.43H197.052V401.765Z" fill="#7D241D"/>
<path d="M111.722 401.765H77.5898V444.43H111.722V401.765Z" fill="#7D241D"/>
<path d="M197.563 487.096H154.898V512.695H197.563V487.096Z" fill="#7D241D"/>
<path d="M359.178 350.567H307.98V512.695H359.178V350.567Z" fill="#AD3228"/>
<path d="M401.852 512.712H435.985V393.249L401.852 359.117V512.712Z" fill="#AD3228"/>
<path d="M401.845 401.765H359.18V444.43H401.845V401.765Z" fill="#AD3228"/>
<path d="M359.181 401.765H316.516V444.43H359.181V401.765Z" fill="#7D241D"/>
<path d="M435.98 401.765H401.848V444.43H435.98V401.765Z" fill="#7D241D"/>
<path d="M358.677 487.096H316.012V512.695H358.677V487.096Z" fill="#7D241D"/>
<path d="M111.722 487.096H77.5898V512.695H111.722V487.096Z" fill="#7D241D"/>
<path d="M154.388 487.096H111.723V512.695H154.388V487.096Z" fill="#AD3228"/>
<path d="M435.976 487.096H401.844V512.695H435.976V487.096Z" fill="#7D241D"/>
<path d="M401.845 487.096H359.18V512.695H401.845V487.096Z" fill="#AD3228"/>
<path d="M166.741 153.428L159.104 138.162L162.918 145.799L159.078 138.179C159.377 138.025 188.517 122.896 188.517 94.6011H205.583C205.592 133.555 168.328 152.634 166.741 153.428Z" fill="black"/>
<path d="M346.839 153.428C345.252 152.634 307.988 133.555 307.988 94.5933H325.054C325.054 122.889 354.194 138.018 354.493 138.171L346.839 153.428Z" fill="black"/>
<path d="M342.114 86.043H171.453V103.109H342.114V86.043Z" fill="black"/>
<path d="M344.792 75.3852L333.494 62.6022C335.576 60.7592 337.334 58.6002 338.725 56.1942C345.782 43.9752 341.584 28.2822 329.356 21.2262C317.128 14.1782 301.444 18.3672 294.388 30.5952L279.609 22.0622C285.309 12.1892 294.508 5.13215 305.515 2.18015C316.531 -0.771848 328.034 0.746151 337.889 6.44715C358.266 18.2142 365.263 44.3592 353.505 64.7362C351.192 68.7462 348.256 72.3302 344.792 75.3852Z" fill="black"/>
<path d="M205.586 179.906C215.011 179.906 222.652 172.265 222.652 162.84C222.652 153.415 215.011 145.774 205.586 145.774C196.16 145.774 188.52 153.415 188.52 162.84C188.52 172.265 196.16 179.906 205.586 179.906Z" fill="black"/>
<path d="M307.98 179.906C317.405 179.906 325.046 172.265 325.046 162.84C325.046 153.415 317.405 145.774 307.98 145.774C298.555 145.774 290.914 153.415 290.914 162.84C290.914 172.265 298.555 179.906 307.98 179.906Z" fill="black"/>
<path d="M265.326 214.055H239.727C236.988 214.055 234.411 212.741 232.807 210.505C231.203 208.278 230.768 205.419 231.629 202.817L248.695 151.619L264.882 157.02L251.553 196.989H265.317V214.055H265.326Z" fill="black"/>
<path d="M241.185 256.721H239.734V239.655H241.185C254.471 239.646 266.963 234.475 276.367 225.081L288.433 237.155C275.803 249.766 259.027 256.712 241.185 256.721Z" fill="black"/>
<path d="M359.189 205.522H350.656V188.456H359.189C368.601 188.456 376.255 180.802 376.255 171.39C376.255 161.978 368.601 154.324 359.189 154.324H350.656V137.258H359.189C378.013 137.258 393.321 152.566 393.321 171.39C393.321 190.214 378.013 205.522 359.189 205.522Z" fill="black"/>
<path d="M162.927 205.522H154.394C135.57 205.522 120.262 190.214 120.262 171.39C120.262 152.566 135.57 137.258 154.394 137.258H162.927V154.324H154.394C144.982 154.324 137.328 161.978 137.328 171.39C137.328 180.802 144.982 188.456 154.394 188.456H162.927V205.522Z" fill="black"/>
<path d="M198.954 234.262C197.435 234.262 195.908 234.057 194.397 233.639C190.002 232.427 186.342 229.569 184.089 225.609L155.512 175.631L170.325 167.166L198.911 217.17C211.975 204.174 229.263 197.015 247.643 196.998H266.501C284.412 196.998 301.265 203.935 313.979 216.539L343.017 159.026L358.248 166.714L329.236 224.227C328.425 225.84 327.359 227.325 326.07 228.613C322.862 231.83 318.578 233.613 314.021 233.622C314.012 233.622 314.004 233.622 313.995 233.622C309.447 233.622 305.163 231.856 301.946 228.647C292.474 219.261 279.871 214.073 266.5 214.073H247.65C233.818 214.082 220.805 219.474 211.009 229.245C209.951 230.312 208.714 231.259 207.365 232.035C204.756 233.502 201.872 234.262 198.954 234.262Z" fill="black"/>
<path d="M256.793 333.518C200.33 333.518 154.396 287.585 154.396 231.121V146.405L153.116 137.539C153.116 137.539 153.116 137.53 153.116 137.522C152.433 132.726 152.083 127.846 152.075 123.016C151.93 65.137 198.896 17.94 256.775 17.795C264.062 17.761 271.75 18.554 279.08 20.133C335.62 32.267 371.732 88.141 359.606 144.681L359.196 146.661V231.113C359.189 287.585 313.256 333.518 256.793 333.518ZM170.011 135.125L171.376 144.571C171.436 144.972 171.461 145.382 171.461 145.791V231.121C171.461 278.172 209.74 316.451 256.791 316.451C303.842 316.451 342.122 278.18 342.122 231.121V145.791C342.122 145.211 342.182 144.631 342.301 144.059L342.898 141.158C353.069 93.757 322.828 46.979 275.495 36.807C269.368 35.493 262.909 34.81 256.825 34.853C208.357 34.972 169.028 74.498 169.148 122.957C169.15 127.018 169.44 131.106 170.011 135.125Z" fill="black"/>
<path d="M86.1295 512.712H69.0625V418.849C69.0625 380.536 97.6995 347.811 135.688 342.726L197.058 334.577V307.92H214.125V342.052C214.125 346.327 210.958 349.945 206.717 350.508L137.942 359.638C108.409 363.589 86.1285 389.034 86.1285 418.84L86.1295 512.712Z" fill="black"/>
<path d="M444.519 512.712H427.453V418.849C427.453 389.043 405.182 363.589 375.632 359.647L306.864 350.517C302.623 349.954 299.457 346.336 299.457 342.061V307.927H316.523V334.584L377.884 342.733C415.873 347.81 444.519 380.543 444.519 418.856V512.712Z" fill="black"/>
<path d="M256.825 410.315C256.799 410.315 256.774 410.315 256.748 410.315C235.851 410.315 215.678 402.712 199.961 388.906L211.216 376.089C223.819 387.156 239.989 393.249 256.748 393.249C256.765 393.249 256.791 393.249 256.808 393.249C273.584 393.249 289.746 387.156 302.349 376.089L313.613 388.906C297.903 402.713 277.731 410.315 256.825 410.315Z" fill="black"/>
<path d="M214.117 342.034H197.051V512.695H214.117V342.034Z" fill="black"/>
<path d="M316.515 342.034H299.449V512.695H316.515V342.034Z" fill="black"/>
<path d="M205.593 444.448H154.395C151.733 444.448 149.233 443.202 147.611 441.095C145.998 438.979 145.461 436.231 146.16 433.671L171.759 339.807L188.228 344.287L165.564 427.373H205.593V444.448Z" fill="black"/>
<path d="M359.186 444.448H307.988V427.382H348.008L325.353 344.296L341.822 339.816L367.421 433.68C368.121 436.24 367.592 438.988 365.97 441.104C364.357 443.202 361.848 444.448 359.186 444.448Z" fill="black"/>
<path d="M175.73 487.113C168.673 487.113 162.93 481.37 162.93 474.313C162.93 467.256 168.673 461.513 175.73 461.513C182.787 461.513 188.53 467.256 188.53 474.313C188.529 481.37 182.786 487.113 175.73 487.113ZM175.73 470.047C173.375 470.047 171.463 471.967 171.463 474.314C171.463 476.661 173.374 478.581 175.73 478.581C178.085 478.581 179.997 476.661 179.997 474.314C179.996 471.967 178.085 470.047 175.73 470.047Z" fill="black"/>
</g>
<defs>
<clipPath id="clip0">
<rect width="512.005" height="512.005" fill="white" transform="translate(0.789062 0.707031)"/>
</clipPath>
</defs>
</svg>
