<svg width="513" height="513" viewBox="0 0 513 513" fill="none" xmlns="http://www.w3.org/2000/svg">
<g clip-path="url(#clip0)">
<path d="M136.803 351.163C102.9 355.694 77.582 384.622 77.582 418.832V512.699H205.582V342.032L136.803 351.163Z" fill="#2E6AA3"/>
<path d="M77.582 418.15V512.017H111.715V359.099C90.612 371.285 77.608 393.787 77.582 418.15Z" fill="#245E8F"/>
<path d="M435.98 418.832C435.98 384.622 410.662 355.694 376.759 351.163L307.98 342.032V512.699H435.98V418.832Z" fill="#2E6AA3"/>
<path d="M205.582 382.48V512.699H307.982V382.48C278.696 408.208 234.868 408.208 205.582 382.48Z" fill="#EBEBEB"/>
<path d="M307.982 299.366H205.582V382.481C234.868 408.209 278.696 408.209 307.982 382.481V299.366Z" fill="#A15D30"/>
<path d="M239.715 399.803C227.094 397.055 215.361 391.184 205.582 382.736V512.699H239.715V399.803Z" fill="#DBDBDB"/>
<path d="M307.982 346.64V299.365H205.582V346.64C236.49 367.632 277.074 367.632 307.982 346.64Z" fill="#8F4F24"/>
<path d="M145.848 470.032H111.715V512.699H145.848V470.032Z" fill="#A15D30"/>
<path d="M111.715 470.032H77.582V512.699H111.715V470.032Z" fill="#8F4F24"/>
<path d="M435.982 470.032H367.715V512.699H435.982V470.032Z" fill="#A15D30"/>
<path d="M359.18 145.766H342.113V196.966H359.18C373.32 196.966 384.78 185.506 384.78 171.366C384.78 157.226 373.32 145.766 359.18 145.766Z" fill="#8F4F24"/>
<path d="M154.381 145.766C140.241 145.766 128.781 157.226 128.781 171.366C128.781 185.506 140.241 196.966 154.381 196.966H171.448V145.766H154.381Z" fill="#A15D30"/>
<path d="M333.581 94.5664C319.458 108.706 296.555 108.723 282.415 94.6004C282.398 94.5834 282.389 94.5744 282.381 94.5664C268.258 108.706 245.355 108.723 231.215 94.6004C231.198 94.5834 231.189 94.5744 231.181 94.5664C217.058 108.706 194.155 108.723 180.015 94.6004C179.998 94.5834 179.989 94.5744 179.981 94.5664L162.914 145.766L170.253 248.166C171.038 259.302 175.441 269.883 182.797 278.289L214.114 314.214C224.875 326.519 240.44 333.559 256.781 333.499C273.122 333.559 288.687 326.519 299.448 314.214L330.936 278.203C338.215 269.798 342.558 259.259 343.309 248.166L350.648 145.766L333.581 94.5664Z" fill="#A15D30"/>
<path d="M214.114 228.966V104.038C201.86 107.101 188.907 103.5 179.981 94.5664L162.914 145.766L170.253 248.166C171.038 259.302 175.441 269.883 182.797 278.289L214.114 314.214C224.405 325.99 239.108 332.97 254.733 333.499L227.085 281.36C218.552 265.215 214.097 247.227 214.114 228.966Z" fill="#8F4F24"/>
<path d="M393.316 128.699C393.248 117.904 386.421 108.321 376.249 104.72C386.574 95.0604 387.112 78.8554 377.452 68.5394C372.707 63.4704 366.12 60.5524 359.182 60.4324H357.561C358.602 57.7104 359.148 54.8174 359.182 51.8994C359.165 37.7594 347.696 26.3084 333.556 26.3254C330.288 26.3254 327.054 26.9564 324.024 28.1774C321.029 17.0504 310.968 9.3014 299.448 9.2334C290.855 9.2504 282.842 13.5764 278.115 20.7534C270.298 8.9684 254.409 5.7514 242.633 13.5684C239.783 15.4624 237.342 17.9034 235.448 20.7534C230.721 13.5764 222.708 9.2504 214.115 9.2334C202.595 9.3014 192.534 17.0504 189.539 28.1774C176.423 22.8954 161.507 29.2524 156.233 42.3684C155.013 45.3974 154.381 48.6314 154.381 51.9004C154.415 54.8184 154.961 57.7114 156.002 60.4334H154.383C140.243 60.6724 128.979 72.3204 129.21 86.4514C129.329 93.3894 132.248 99.9764 137.317 104.721C124.073 109.67 117.349 124.424 122.307 137.668C124.901 144.606 130.38 150.084 137.317 152.678C141.951 148.335 148.035 145.877 154.384 145.766H162.917L179.984 94.5664C194.107 108.706 217.01 108.723 231.15 94.6004C231.167 94.5834 231.176 94.5744 231.184 94.5664C245.307 108.706 268.21 108.723 282.35 94.6004C282.367 94.5834 282.376 94.5744 282.384 94.5664C296.507 108.706 319.41 108.723 333.55 94.6004C333.567 94.5834 333.576 94.5744 333.584 94.5664L350.651 145.766H359.184C365.533 145.877 371.617 148.335 376.251 152.678C386.421 149.077 393.248 139.494 393.316 128.699Z" fill="black"/>
<path d="M214.116 9.23242C202.596 9.30042 192.535 17.0494 189.54 28.1764C176.424 22.8944 161.508 29.2514 156.234 42.3674C155.014 45.3964 154.382 48.6304 154.382 51.8994C154.416 54.8174 154.962 57.7104 156.003 60.4324H154.383C140.243 60.6714 128.979 72.3194 129.21 86.4504C129.329 93.3884 132.248 99.9754 137.317 104.72C124.073 109.669 117.349 124.423 122.307 137.667C124.901 144.605 130.38 150.083 137.317 152.677C141.951 148.334 148.035 145.876 154.384 145.765H162.917L179.984 94.5654C188.739 103.312 201.369 106.955 213.435 104.208C212.932 74.4784 220.014 45.1154 234 18.8754C229.169 12.8164 221.865 9.27542 214.116 9.23242Z" fill="black"/>
<path d="M265.314 222.566H239.714C237.239 222.566 234.893 221.491 233.271 219.622C231.65 217.753 230.924 215.27 231.274 212.821L239.807 153.088L256.694 155.503L249.552 205.5H265.313V222.566H265.314Z" fill="black"/>
<path d="M241.166 256.699H239.715V239.632H241.166C254.452 239.623 266.945 234.452 276.349 225.057L288.415 237.132C275.794 249.744 259.018 256.69 241.166 256.699Z" fill="black"/>
<path d="M359.181 205.499H350.648V188.432H359.181C368.593 188.432 376.248 180.778 376.248 171.365C376.248 161.953 368.594 154.298 359.181 154.298H350.648V137.231H359.181C378.006 137.231 393.314 152.54 393.314 171.364C393.314 190.188 378.006 205.499 359.181 205.499Z" fill="black"/>
<path d="M162.916 205.499H154.383C135.558 205.499 120.25 190.19 120.25 171.366C120.25 152.542 135.559 137.233 154.383 137.233H162.916V154.299H154.383C144.971 154.299 137.316 161.953 137.316 171.366C137.316 180.778 144.97 188.433 154.383 188.433H162.916V205.499Z" fill="black"/>
<path d="M134.404 160.87C124.881 157.414 117.431 149.964 113.967 140.433C108.847 126.336 113.626 111.019 124.728 102.127C122.194 97.3742 120.769 92.0412 120.675 86.5962C120.521 77.4822 123.935 68.8472 130.275 62.3022C134.627 57.8052 139.994 54.6562 145.882 53.0692C145.856 52.7112 145.848 52.3522 145.848 51.9942C145.848 47.5232 146.684 43.2472 148.314 39.1942C151.719 30.7292 158.213 24.0992 166.601 20.5232C172.335 18.0742 178.505 17.2722 184.521 18.0822C190.443 7.62022 201.647 0.767219 214.063 0.699219C222.008 0.716219 229.508 3.43022 235.473 8.23422C236.258 7.61122 237.069 7.01422 237.914 6.45922C245.517 1.41622 254.622 -0.367781 263.557 1.45022C268.959 2.54222 273.916 4.87222 278.106 8.22522C284.062 3.42122 291.546 0.716219 299.439 0.699219C311.915 0.767219 323.136 7.62022 329.058 18.0902C330.543 17.8942 332.045 17.7912 333.555 17.7912C333.564 17.7912 333.572 17.7912 333.581 17.7912C352.388 17.7912 367.697 33.0832 367.723 51.8902C367.714 52.3002 367.706 52.7012 367.689 53.1102C373.782 54.7652 379.346 58.0852 383.68 62.7102C389.909 69.3662 393.178 78.0532 392.879 87.1672C392.7 92.4922 391.317 97.5952 388.868 102.152C393.698 106.018 397.435 111.172 399.603 117.137C406.02 134.835 396.855 154.453 379.157 160.87L373.337 144.827C382.178 141.618 386.76 131.805 383.551 122.956C381.827 118.194 378.09 114.465 373.328 112.742C370.546 111.727 368.481 109.337 367.884 106.436C367.287 103.526 368.242 100.522 370.41 98.4912C373.747 95.3762 375.658 91.1522 375.812 86.5962C375.966 82.0392 374.327 77.6962 371.213 74.3682C368.073 71.0142 363.627 69.0432 359.036 68.9662H357.56C354.753 68.9662 352.124 67.5842 350.537 65.2712C348.933 62.9582 348.583 60.0062 349.598 57.3862C350.281 55.6032 350.631 53.7172 350.656 51.8052C350.647 42.5042 342.993 34.8582 333.589 34.8582C333.58 34.8582 333.58 34.8582 333.572 34.8582C331.387 34.8582 329.246 35.2762 327.215 36.0952C324.945 37.0082 322.411 36.9062 320.226 35.8132C318.041 34.7202 316.429 32.7502 315.789 30.3942C313.809 23.0042 307.068 17.8072 299.405 17.7652C293.722 17.7742 288.406 20.6492 285.248 25.4452C283.669 27.8342 281.007 29.2852 278.14 29.2852C278.131 29.2852 278.131 29.2852 278.123 29.2852C275.264 29.2852 272.593 27.8512 271.015 25.4712C268.489 21.6742 264.641 19.0802 260.169 18.1752C255.715 17.2882 251.149 18.1662 247.352 20.6752C245.441 21.9462 243.828 23.5592 242.556 25.4712C240.977 27.8522 238.306 29.2852 235.448 29.2852C235.448 29.2852 235.439 29.2852 235.431 29.2852C232.564 29.2852 229.893 27.8342 228.323 25.4452C225.166 20.6492 219.849 17.7822 214.098 17.7652C206.503 17.8082 199.771 23.0042 197.782 30.3942C197.142 32.7492 195.529 34.7202 193.345 35.8132C191.16 36.8972 188.618 36.9992 186.348 36.0952C182.115 34.3972 177.482 34.4402 173.283 36.2232C169.093 38.0062 165.842 41.3262 164.144 45.5582C163.333 47.5802 162.915 49.7222 162.915 51.9072C162.932 53.7252 163.29 55.6022 163.973 57.3852C164.98 60.0052 164.622 62.9572 163.034 65.2702C161.447 67.5832 158.81 68.9652 156.003 68.9652H154.381C149.961 69.0422 145.711 70.8852 142.537 74.1622C139.371 77.4392 137.664 81.7572 137.741 86.3132C137.818 90.9122 139.789 95.3502 143.143 98.4902C145.31 100.512 146.266 103.525 145.669 106.435C145.072 109.345 143.007 111.734 140.225 112.741C135.941 114.294 132.519 117.426 130.582 121.556C128.653 125.686 128.449 130.32 130.002 134.603C131.734 139.373 135.455 143.094 140.225 144.826L134.404 160.87Z" fill="black"/>
<path d="M205.583 188.433C215.008 188.433 222.65 180.792 222.65 171.366C222.65 161.94 215.008 154.299 205.583 154.299C196.157 154.299 188.516 161.94 188.516 171.366C188.516 180.792 196.157 188.433 205.583 188.433Z" fill="black"/>
<path d="M307.981 188.433C317.407 188.433 325.048 180.792 325.048 171.366C325.048 161.94 317.407 154.299 307.981 154.299C298.555 154.299 290.914 161.94 290.914 171.366C290.914 180.792 298.555 188.433 307.981 188.433Z" fill="black"/>
<path d="M256.976 342.032C256.822 342.032 256.66 342.032 256.515 342.032C237.836 342.032 220.026 333.951 207.687 319.828L176.361 283.894C167.845 274.157 162.648 261.673 161.735 248.762L154.396 146.371C154.319 145.253 154.456 144.127 154.814 143.06L171.881 91.8602C172.82 89.0532 175.141 86.9362 178.016 86.2542C180.883 85.5632 183.921 86.4332 186.012 88.5242C196.841 99.3362 214.377 99.3102 225.137 88.5242C226.741 86.9282 228.909 86.0322 231.179 86.0322C233.44 86.0322 235.616 86.9282 237.212 88.5322C248.024 99.3352 265.56 99.3272 276.346 88.5322C278.155 86.7312 280.63 85.8182 283.224 86.0742C285.212 86.2702 287.055 87.1582 288.438 88.5662C288.447 88.5662 288.447 88.5662 288.447 88.5662C299.233 99.3522 316.761 99.3182 327.547 88.5402C329.629 86.4492 332.658 85.5702 335.543 86.2702C338.427 86.9532 340.74 89.0692 341.678 91.8762L358.745 143.076C359.103 144.143 359.248 145.269 359.163 146.387L351.824 248.787C350.954 261.613 345.834 274.063 337.403 283.799L305.889 319.852C293.533 333.951 275.724 342.032 256.976 342.032ZM256.754 324.966C256.805 324.966 256.865 324.966 256.925 324.966C270.8 324.966 283.924 319.01 293.021 308.599L324.509 272.58C330.508 265.651 334.169 256.768 334.783 247.586L342.011 146.85L329.185 108.365C314.482 116.258 296.272 115.371 282.38 105.66C267.063 116.361 246.506 116.352 231.18 105.66C223.73 110.891 215.206 113.63 205.571 113.698C198.045 113.698 190.808 111.855 184.366 108.373L171.549 146.841L178.768 247.543C179.417 256.776 183.137 265.693 189.23 272.657L220.556 308.591C229.635 319.01 242.76 324.966 256.584 324.966C256.635 324.966 256.695 324.966 256.754 324.966Z" fill="black"/>
<path d="M86.1129 512.699H69.0469V418.832C69.0469 380.517 97.6849 347.792 135.675 342.706L197.047 334.557V307.899H214.114V342.032C214.114 346.307 210.948 349.925 206.707 350.489L137.928 359.62C108.386 363.571 86.1139 389.026 86.1139 418.833V512.699H86.1129Z" fill="black"/>
<path d="M444.512 512.699H427.445V418.832C427.445 389.025 405.173 363.57 375.622 359.628L306.852 350.497C302.611 349.925 299.445 346.307 299.445 342.032V307.899H316.512V334.557L377.875 342.706C415.874 347.783 444.512 380.517 444.512 418.832V512.699Z" fill="black"/>
<path d="M256.781 410.299C235.849 410.299 215.667 402.696 199.949 388.889L211.204 376.072C223.816 387.14 239.995 393.233 256.781 393.233C273.567 393.233 289.745 387.14 302.349 376.072L313.613 388.889C297.895 402.696 277.713 410.299 256.781 410.299Z" fill="black"/>
<path d="M154.38 444.432H137.312V512.699H154.38V444.432Z" fill="black"/>
<path d="M145.849 461.499H77.582V478.566H145.849V461.499Z" fill="black"/>
<path d="M376.247 444.432H359.18V512.699H376.247V444.432Z" fill="black"/>
<path d="M435.982 461.499H367.715V478.566H435.982V461.499Z" fill="black"/>
<path d="M214.114 342.032H197.047V512.699H214.114V342.032Z" fill="black"/>
<path d="M316.516 342.032H299.449V512.699H316.516V342.032Z" fill="black"/>
<path d="M205.58 427.366H154.38C151.641 427.366 149.064 426.052 147.459 423.825C145.855 421.598 145.42 418.731 146.281 416.136L171.881 339.336L188.069 344.738L166.216 410.299H205.58V427.366Z" fill="black"/>
<path d="M359.18 427.366H307.98V410.299H347.336L325.482 344.729L341.661 339.327L367.261 416.127C368.14 418.73 367.696 421.597 366.092 423.816C364.496 426.052 361.919 427.366 359.18 427.366Z" fill="black"/>
<path d="M175.714 470.032C168.657 470.032 162.914 464.289 162.914 457.232C162.914 450.175 168.657 444.432 175.714 444.432C182.771 444.432 188.514 450.175 188.514 457.232C188.514 464.289 182.771 470.032 175.714 470.032ZM175.714 452.966C173.359 452.966 171.447 454.886 171.447 457.233C171.447 459.58 173.358 461.5 175.714 461.5C178.069 461.5 179.981 459.58 179.981 457.233C179.981 454.886 178.07 452.966 175.714 452.966Z" fill="black"/>
</g>
<defs>
<clipPath id="clip0">
<rect width="512" height="512" fill="white" transform="translate(0.78125 0.699219)"/>
</clipPath>
</defs>
</svg>
