<svg width="513" height="513" viewBox="0 0 513 513" fill="none" xmlns="http://www.w3.org/2000/svg">
<g clip-path="url(#clip0)">
<path d="M359.187 171.378L376.254 111.645V103.111C376.254 88.9711 364.794 77.5111 350.654 77.5111C355.381 63.3881 347.77 48.1051 333.647 43.3781C328.092 41.5181 322.076 41.5181 316.521 43.3781L314.729 38.0021C310.667 25.9441 299.378 17.8121 286.654 17.7781C273.939 17.7781 261.054 22.7271 256.787 34.8451C256.787 34.8451 256.787 9.24512 226.92 9.24512C210.425 9.24512 197.053 22.6171 197.053 39.1121V43.3791C182.93 38.6521 167.647 46.2631 162.92 60.3861C161.06 65.9411 161.06 71.9571 162.92 77.5121C148.78 77.5121 137.32 88.9721 137.32 103.112V111.645L154.387 179.912H162.92L179.987 86.0451C205.194 91.7031 230.948 94.5611 256.787 94.5781C282.626 94.5611 308.38 91.7021 333.587 86.0451L350.654 171.378H359.187Z" fill="#70432C"/>
<path d="M162.92 77.5109C148.78 77.5109 137.32 88.9709 137.32 103.111V111.644L154.387 179.911H162.92L179.987 86.0439C190.099 88.3739 200.322 90.1999 210.622 91.5049C203.71 76.2389 199.128 60.0079 197.054 43.3769C182.855 38.7179 167.58 46.4579 162.921 60.6479C161.128 66.1279 161.128 72.0329 162.92 77.5109Z" fill="#5C3724"/>
<path d="M256.79 401.778C287.834 401.795 315.9 383.295 328.129 354.759L332.225 345.287L322.838 344.007C314.288 342.889 307.913 335.568 307.99 326.94V282.311H205.59V327.111C205.667 335.738 199.292 343.06 190.742 344.178L181.355 345.458L185.451 354.93C197.731 383.397 225.788 401.82 256.79 401.778Z" fill="#FEDAC6"/>
<path d="M376.768 351.175L332.224 345.287L328.128 354.759C311.189 394.157 265.519 412.368 226.121 395.429C207.86 387.578 193.31 373.02 185.451 354.759L181.355 345.287L136.811 351.175C102.908 355.706 77.5898 384.634 77.5898 418.844V512.711H435.99V418.844C435.99 384.634 410.671 355.706 376.768 351.175Z" fill="#DE4C3C"/>
<path d="M307.99 329.586V282.311H205.59V329.586C243.99 346.226 269.59 346.226 307.99 329.586Z" fill="#F5C4B0"/>
<path d="M77.5898 418.844V512.711H111.723V359.794C90.6198 371.979 77.6148 394.482 77.5898 418.844Z" fill="#C94536"/>
<path d="M145.856 470.044H111.723V512.711H145.856V470.044Z" fill="#FEDAC6"/>
<path d="M111.723 470.044H77.5898V512.711H111.723V470.044Z" fill="#F5C4B0"/>
<path d="M435.99 470.044H367.723V512.711H435.99V470.044Z" fill="#FEDAC6"/>
<path d="M350.654 145.778H342.121V196.978H350.654C364.794 196.978 376.254 185.518 376.254 171.378C376.254 157.238 364.794 145.778 350.654 145.778Z" fill="#FEDAC6"/>
<path d="M137.32 179.911C137.32 194.051 148.78 205.511 162.92 205.511H171.453V154.311H162.92C148.78 154.311 137.32 165.771 137.32 179.911Z" fill="#F5C4B0"/>
<path d="M350.654 154.311L343.23 234.268C342.488 243.279 338.904 251.83 332.99 258.673L290.068 307.911C285.161 313.398 278.138 316.504 270.783 316.444H242.794C235.438 316.504 228.415 313.398 223.509 307.911L180.842 258.844C174.928 252 171.344 243.45 170.602 234.439L162.922 154.311L179.989 86.0439C231.035 91.6759 282.543 91.6759 333.589 86.0439L350.654 154.311Z" fill="#FEDAC6"/>
<path d="M200.042 88.0069C193.301 87.4099 186.645 86.8119 179.989 86.0439L162.922 154.311L170.346 234.268C171.088 243.279 174.672 251.83 180.586 258.673L203.029 284.273C194.436 219.19 193.437 153.321 200.042 88.0069Z" fill="#F5C4B0"/>
<path d="M350.654 205.511H342.121V188.444H350.654C360.066 188.444 367.721 180.79 367.721 171.377C367.721 161.965 360.067 154.31 350.654 154.31H342.121V137.243H350.654C369.479 137.243 384.787 152.552 384.787 171.376C384.787 190.2 369.479 205.511 350.654 205.511Z" fill="black"/>
<path d="M171.455 214.044H162.922C144.097 214.044 128.789 198.735 128.789 179.911C128.789 161.087 144.098 145.778 162.922 145.778H171.455V162.845H162.922C153.51 162.845 145.855 170.499 145.855 179.912C145.855 189.325 153.509 196.979 162.922 196.979H171.455V214.044Z" fill="black"/>
<path d="M265.322 222.578H239.722C237.188 222.578 234.79 221.452 233.168 219.506C231.547 217.56 230.873 214.992 231.333 212.5L242.682 150.633L259.467 153.714L249.961 205.511H265.321V222.578H265.322Z" fill="black"/>
<path d="M282.388 239.644H231.188V256.711H282.388V239.644Z" fill="black"/>
<path d="M242.531 324.978C232.888 324.978 223.63 320.848 217.153 313.603L174.41 264.442C167.251 256.156 163.001 246.027 162.105 235.139L154.434 155.122C154.34 154.158 154.417 153.176 154.647 152.238L171.714 83.9709C172.747 79.8319 176.68 77.0929 180.93 77.5619C231.268 83.1169 282.306 83.1089 332.661 77.5619C336.8 77.0759 340.827 79.8229 341.868 83.9709L358.935 152.238C359.165 153.168 359.242 154.141 359.157 155.097L351.733 235.054C350.846 245.857 346.587 255.986 339.454 264.247L296.514 313.51C289.952 320.849 280.693 324.979 270.982 324.979C270.897 324.979 270.803 324.979 270.717 324.979H242.796C242.71 324.978 242.616 324.978 242.531 324.978ZM171.559 154.96L179.102 233.629C179.708 241.002 182.541 247.752 187.303 253.264L229.953 302.314C233.144 305.881 237.65 307.818 242.736 307.912H270.794C270.837 307.912 270.888 307.912 270.939 307.912C275.854 307.912 280.488 305.847 283.73 302.22L326.576 253.068C331.321 247.581 334.154 240.831 334.742 233.569L342.038 154.968L327.122 95.3029C280.419 99.9539 233.187 99.9539 186.484 95.3029L171.559 154.96Z" fill="black"/>
<path d="M205.59 179.911C215.016 179.911 222.657 172.27 222.657 162.844C222.657 153.418 215.016 145.777 205.59 145.777C196.165 145.777 188.523 153.418 188.523 162.844C188.523 172.27 196.165 179.911 205.59 179.911Z" fill="black"/>
<path d="M299.454 179.911C308.88 179.911 316.521 172.27 316.521 162.844C316.521 153.418 308.88 145.777 299.454 145.777C290.028 145.777 282.387 153.418 282.387 162.844C282.387 172.27 290.028 179.911 299.454 179.911Z" fill="black"/>
<path d="M207.666 247.914L241.797 239.375L237.655 222.819L203.524 231.358L207.666 247.914Z" fill="black"/>
<path d="M305.908 247.912L310.047 231.356L275.918 222.825L271.779 239.381L305.908 247.912Z" fill="black"/>
<path d="M137.441 164.252L128.908 113.052C128.823 112.583 128.789 112.113 128.789 111.644V103.111C128.789 87.7249 139.02 74.6859 153.032 70.4369C152.853 66.1279 153.45 61.7759 154.824 57.6709C157.836 48.6849 164.168 41.4059 172.659 37.1739C177.796 34.6139 183.377 33.3849 188.932 33.4359C191.695 14.9359 207.678 0.710938 226.921 0.710938C244.662 0.710938 254.603 8.52794 259.894 17.0519C266.763 12.0169 275.971 9.24394 286.655 9.24394C302.459 9.27794 316.513 18.9889 322.196 33.5729C326.958 33.2059 331.805 33.7609 336.353 35.2879C345.347 38.2999 352.626 44.6319 356.859 53.1139C359.573 58.5749 360.827 64.5059 360.571 70.4449C374.574 74.7029 384.789 87.7339 384.789 103.111V111.644C384.789 112.207 384.729 112.762 384.618 113.317L376.085 155.984L359.351 152.63L367.722 110.8V103.111C367.722 93.6989 360.068 86.0439 350.655 86.0439C347.916 86.0439 345.33 84.7209 343.726 82.4939C342.122 80.2669 341.687 77.3999 342.565 74.7969C344.135 70.1289 343.785 65.1369 341.592 60.7259C339.39 56.3139 335.61 53.0289 330.942 51.4669C327.17 50.2039 323.023 50.2039 319.234 51.4669C317.084 52.1749 314.745 52.0219 312.715 51.0149C310.693 49.9999 309.148 48.2249 308.431 46.0739L306.639 40.6979C303.746 32.1219 295.708 26.3279 286.637 26.3109C282.473 26.3109 268.555 27.1299 264.834 37.6769C263.452 41.5939 259.484 43.9659 255.345 43.2579C251.249 42.5579 248.254 38.9999 248.254 34.8439C248.169 30.9099 246.368 17.7769 226.921 17.7769C215.162 17.7769 205.588 27.3509 205.588 39.1099V43.3769C205.588 46.1249 204.265 48.7019 202.038 50.3059C199.811 51.9099 196.944 52.3369 194.349 51.4749C184.681 48.2319 174.244 53.4629 171.019 63.0969C169.756 66.8769 169.756 71.0329 171.019 74.8049C171.881 77.3989 171.454 80.2659 169.85 82.4939C168.246 84.7219 165.669 86.0439 162.921 86.0439C153.509 86.0439 145.854 93.6979 145.854 103.111V110.936L154.268 161.436L137.441 164.252Z" fill="black"/>
<path d="M265.321 290.844H248.254V307.911H265.321V290.844Z" fill="black"/>
<path d="M230.752 310.621L239.289 285.026L223.1 279.627L214.563 305.222L230.752 310.621Z" fill="black"/>
<path d="M282.817 310.62L299 305.226L290.468 279.627L274.285 285.021L282.817 310.62Z" fill="black"/>
<path d="M86.1217 512.711H69.0547V418.844C69.0547 380.529 97.6927 347.804 135.683 342.718L189.614 335.55C193.898 334.987 197.089 331.317 197.055 327.017V290.844H214.122V326.94C214.233 339.774 204.659 350.782 191.85 352.463L137.936 359.631C108.394 363.582 86.1217 389.037 86.1217 418.844V512.711Z" fill="black"/>
<path d="M444.521 512.711H427.454V418.844C427.377 389.139 405.105 363.744 375.631 359.802L321.717 352.634C308.926 350.97 299.351 339.962 299.462 327.034V290.844H316.529V327.111C316.486 331.497 319.678 335.158 323.953 335.721L377.892 342.889C415.789 347.958 444.435 380.598 444.529 418.827V512.711H444.521Z" fill="black"/>
<path d="M256.83 410.311C256.796 410.311 256.762 410.311 256.736 410.311C222.244 410.311 191.191 389.831 177.606 358.121L172.145 345.415L187.829 338.682L193.29 351.397C204.187 376.818 229.087 393.244 256.744 393.244C256.77 393.244 256.795 393.244 256.821 393.244C284.478 393.244 309.386 376.817 320.292 351.397L325.753 338.682L341.437 345.415L335.976 358.13C322.383 389.831 291.314 410.311 256.83 410.311Z" fill="black"/>
<path d="M154.387 444.444H137.32V512.711H154.387V444.444Z" fill="black"/>
<path d="M145.857 461.511H77.5898V478.578H145.857V461.511Z" fill="black"/>
<path d="M376.255 444.444H359.188V512.711H376.255V444.444Z" fill="black"/>
<path d="M435.99 461.511H367.723V478.578H435.99V461.511Z" fill="black"/>
</g>
<defs>
<clipPath id="clip0">
<rect width="512" height="512" fill="white" transform="translate(0.792969 0.710938)"/>
</clipPath>
</defs>
</svg>
