<svg width="513" height="513" viewBox="0 0 513 513" fill="none" xmlns="http://www.w3.org/2000/svg">
<g clip-path="url(#clip0)">
<path d="M256.779 418.832C287.823 418.849 315.889 400.349 328.118 371.813L331.958 363.28L314.465 361.232C305.846 360.191 299.387 352.844 299.446 344.165V307.899H214.113V343.91C214.173 352.588 207.713 359.936 199.094 360.977L182.027 363.025L185.867 371.558C197.959 400.059 225.829 418.636 256.779 418.832Z" fill="#FEDAC6"/>
<path d="M376.761 368.23L331.961 362.939L328.121 371.472C311.182 410.87 265.512 429.081 226.114 412.142C207.853 404.291 193.303 389.733 185.444 371.472L181.604 362.939L136.804 368.23C102.9 372.761 77.582 401.689 77.582 435.899V512.699H435.982V435.899C435.982 401.689 410.672 372.761 376.761 368.23Z" fill="#215280"/>
<path d="M77.582 435.899V512.699H111.715V376.848C90.612 389.034 77.608 411.536 77.582 435.899Z" fill="#1C496E"/>
<path d="M145.849 470.032H77.582V512.699H145.849V470.032Z" fill="#FEDAC6"/>
<path d="M111.715 470.032H77.582V512.699H111.715V470.032Z" fill="#F5C4B0"/>
<path d="M299.45 346.64V307.899H214.117V346.64C246.116 363.28 267.45 363.28 299.45 346.64Z" fill="#F5C4B0"/>
<path d="M435.978 470.032H367.711V512.699H435.978V470.032Z" fill="#FEDAC6"/>
<path d="M350.646 154.299H342.113V205.499H350.646C364.786 205.499 376.246 194.039 376.246 179.899C376.246 165.759 364.785 154.299 350.646 154.299Z" fill="#FEDAC6"/>
<path d="M137.312 179.899C137.312 194.039 148.772 205.499 162.912 205.499H171.445V154.299H162.912C148.773 154.299 137.312 165.759 137.312 179.899Z" fill="#FEDAC6"/>
<path d="M350.648 145.766L321.549 102.161C318.392 97.4254 313.075 94.5754 307.384 94.5664H206.178C200.486 94.5754 195.17 97.4254 192.013 102.161L162.914 145.766L170.338 248.166C171.055 259.464 175.492 270.208 182.967 278.715L214.114 314.214C224.875 326.519 240.44 333.559 256.781 333.499C273.122 333.559 288.687 326.519 299.448 314.214L330.851 278.289C338.121 269.85 342.456 259.277 343.224 248.166L350.648 145.766Z" fill="#FEDAC6"/>
<path d="M191.586 103.099L162.914 145.766L170.338 248.166C171.055 259.464 175.492 270.208 182.967 278.715L214.114 314.214C217.135 317.431 220.514 320.29 224.183 322.747C186.722 245.435 187.064 154.726 191.586 103.099Z" fill="#F5C4B0"/>
<path d="M325.645 35.4304L316.514 26.2994V51.8994L311.991 45.9264C298.364 27.7074 278.865 14.7454 256.781 9.23242C234.705 14.7454 215.198 27.6984 201.57 45.9254L197.047 51.8984V26.2994C175.56 42.4184 162.914 67.7034 162.914 94.5664V145.766L192.013 102.161C195.17 97.4254 200.487 94.5754 206.178 94.5664H307.383C313.075 94.5754 318.391 97.4254 321.548 102.161L350.647 145.766V95.7604C350.648 73.1304 341.654 51.4304 325.645 35.4304Z" fill="#A15D30"/>
<path d="M214.967 48.5712L227.255 22.1182C217.356 28.4502 208.686 36.5142 201.655 45.9262L197.047 51.8992V26.2992C175.56 42.4182 162.914 67.7032 162.914 94.5662V145.766L192.013 102.161C195.051 97.5962 200.103 94.7712 205.581 94.5662V91.4092C205.606 76.6202 208.806 62.0112 214.967 48.5712Z" fill="#8F4F24"/>
<path d="M304.568 225.211C301.325 228.949 296.632 231.099 291.683 231.099H221.966C216.974 231.099 212.238 228.914 208.995 225.126L164.707 170.854L170.339 247.654C171.056 258.952 175.493 269.696 182.968 278.203L214.115 314.214C234.561 337.775 270.239 340.3 293.808 319.855C295.822 318.106 297.708 316.22 299.449 314.214L330.852 278.289C338.122 269.85 342.457 259.277 343.225 248.166L348.857 171.366L304.568 225.211Z" fill="#A15D30"/>
<path d="M205.582 237.328V220.859L164.707 170.854L170.339 247.654C171.056 258.952 175.493 269.696 182.968 278.203L214.115 314.214C222.145 323.37 232.922 329.685 244.835 332.219L219.235 289.552C210.096 273.68 205.377 255.649 205.582 237.328Z" fill="#8F4F24"/>
<path d="M350.65 214.032H342.117V196.965H350.65C360.062 196.965 367.717 189.311 367.717 179.898C367.717 170.485 360.063 162.831 350.65 162.831H342.117V145.764H350.65C369.475 145.764 384.783 161.073 384.783 179.897C384.783 198.721 369.474 214.032 350.65 214.032Z" fill="black"/>
<path d="M171.447 214.032H162.914C144.089 214.032 128.781 198.723 128.781 179.899C128.781 161.075 144.09 145.766 162.914 145.766H171.447V162.833H162.914C153.502 162.833 145.847 170.487 145.847 179.9C145.847 189.313 153.501 196.967 162.914 196.967H171.447V214.032Z" fill="black"/>
<path d="M205.583 188.433C215.008 188.433 222.65 180.792 222.65 171.366C222.65 161.94 215.008 154.299 205.583 154.299C196.157 154.299 188.516 161.94 188.516 171.366C188.516 180.792 196.157 188.433 205.583 188.433Z" fill="black"/>
<path d="M299.45 188.433C308.876 188.433 316.517 180.792 316.517 171.366C316.517 161.94 308.876 154.299 299.45 154.299C290.024 154.299 282.383 161.94 282.383 171.366C282.383 180.792 290.024 188.433 299.45 188.433Z" fill="black"/>
<path d="M291.691 239.547H221.965C214.473 239.547 207.382 236.279 202.509 230.587L158.895 179.378L171.883 168.31L215.488 219.51C217.101 221.396 219.465 222.488 221.965 222.488H291.682C294.148 222.488 296.495 221.413 298.116 219.544L340.766 169.982L353.703 181.118L311.036 230.697C306.163 236.321 299.115 239.547 291.691 239.547Z" fill="black"/>
<path d="M254.785 273.766C254.768 273.766 254.742 273.766 254.725 273.766H239.715V256.699H254.734C254.751 256.699 254.768 256.699 254.777 256.699C265.939 256.699 277.117 254.062 287.101 249.062L294.738 264.328C282.391 270.506 268.575 273.766 254.785 273.766Z" fill="black"/>
<path d="M265.314 239.632H239.714C237.265 239.632 234.935 238.582 233.314 236.748C231.693 234.914 230.942 232.473 231.24 230.041L239.773 161.774L256.703 163.89L249.381 222.565H265.313V239.632H265.314Z" fill="black"/>
<path d="M343.546 150.502L314.447 106.897C312.86 104.525 310.214 103.1 307.364 103.1H206.176C203.343 103.1 200.689 104.525 199.11 106.897L170.003 150.502L155.812 141.03L184.911 97.4252C189.656 90.3172 197.592 86.0502 206.15 86.0332H307.381C315.957 86.0502 323.91 90.3082 328.646 97.4252L357.745 141.022L343.546 150.502Z" fill="black"/>
<path d="M256.988 342.032C256.834 342.032 256.672 342.032 256.527 342.032C237.848 342.032 220.038 333.951 207.699 319.828L176.569 284.338C167.899 274.473 162.668 261.81 161.832 248.703L154.408 129.228L154.383 94.5665C154.383 65.1775 168.42 37.1115 191.93 19.4735C194.507 17.5275 197.963 17.2125 200.864 18.6625C203.757 20.1135 205.583 23.0655 205.583 26.2995V28.4325C219.151 15.1545 236.149 5.58846 254.718 0.955457C256.075 0.614457 257.491 0.614457 258.848 0.955457C277.417 5.58946 294.406 15.1545 307.983 28.4415V26.2995C307.983 22.8525 310.057 19.7375 313.248 18.4145C316.439 17.1005 320.109 17.8255 322.549 20.2665L331.68 29.3975C349.412 47.1215 359.174 70.6905 359.183 95.7615V128.699C359.183 128.878 359.174 129.057 359.166 129.228L351.742 248.695C350.855 261.614 345.735 274.082 337.321 283.861L305.876 319.838C293.536 333.951 275.727 342.032 256.988 342.032ZM256.757 324.966C256.808 324.966 256.868 324.966 256.928 324.966C270.803 324.966 283.927 319.01 293.024 308.599L324.427 272.674C330.409 265.728 334.078 256.793 334.71 247.577L342.117 128.435V95.7605C342.108 77.9774 336.101 61.1065 325.05 47.4875V51.8995C325.05 55.5685 322.712 58.8205 319.23 59.9895C315.765 61.1585 311.925 59.9805 309.715 57.0545L305.192 51.0815C293.178 35.0125 276.06 23.3555 256.783 18.0565C237.515 23.3555 220.397 35.0035 208.408 51.0375L203.86 57.0535C201.65 59.9715 197.801 61.1405 194.337 59.9975C190.864 58.8285 188.517 55.5685 188.517 51.8995V46.3355C177.628 59.8695 171.45 76.9275 171.45 94.5655V128.699L178.857 247.637C179.446 256.99 183.192 266.035 189.379 273.083L220.526 308.59C229.64 319.009 242.772 324.965 256.588 324.965C256.638 324.966 256.698 324.966 256.757 324.966Z" fill="black"/>
<path d="M86.1129 512.699H69.0469V435.899C69.0469 397.584 97.6849 364.859 135.675 359.773L198.096 352.417C202.38 351.896 205.614 348.236 205.58 343.884V316.432H222.647V343.824C222.741 356.795 213.056 367.803 200.119 369.364L137.8 376.703C108.386 380.645 86.1139 406.092 86.1139 435.899V512.699H86.1129Z" fill="black"/>
<path d="M444.514 512.699H427.447V435.899C427.438 406.024 405.098 380.577 375.479 376.695L313.297 369.373C301.589 368.332 292.1 358.886 290.957 346.947L290.914 310.117H307.981V346.136C308.297 349.089 311.292 352.058 315.055 352.391L377.587 359.755C415.782 364.756 444.505 397.481 444.514 435.898V512.699Z" fill="black"/>
<path d="M256.826 427.366C256.792 427.366 256.758 427.366 256.732 427.366C222.24 427.366 191.187 406.886 177.602 375.176L172.141 362.47L187.825 355.737L193.286 368.452C204.183 393.873 229.092 410.299 256.74 410.299C256.766 410.299 256.791 410.299 256.817 410.299C284.474 410.299 309.382 393.872 320.288 368.452L325.749 355.737L341.433 362.47L335.972 375.185C322.379 406.886 291.309 427.366 256.826 427.366Z" fill="black"/>
<path d="M154.38 461.499H137.312V512.699H154.38V461.499Z" fill="black"/>
<path d="M145.849 461.499H77.582V478.566H145.849V461.499Z" fill="black"/>
<path d="M376.247 461.499H359.18V512.699H376.247V461.499Z" fill="black"/>
<path d="M435.982 461.499H367.715V478.566H435.982V461.499Z" fill="black"/>
</g>
<defs>
<clipPath id="clip0">
<rect width="512" height="512" fill="white" transform="translate(0.78125 0.699219)"/>
</clipPath>
</defs>
</svg>
