<svg width="513" height="513" viewBox="0 0 513 513" fill="none" xmlns="http://www.w3.org/2000/svg">
<g clip-path="url(#clip0)">
<path d="M256.787 401.778C287.831 401.795 315.897 383.295 328.126 354.759L332.222 345.287L322.835 344.007C314.285 342.889 307.91 335.568 307.987 326.94V282.311H205.587V327.111C205.664 335.738 199.289 343.06 190.739 344.178L181.352 345.458L185.448 354.93C197.728 383.397 225.785 401.82 256.787 401.778Z" fill="#A15D30"/>
<path d="M376.764 351.175L332.22 345.287L328.124 354.759C311.185 394.157 265.515 412.368 226.117 395.429C207.856 387.578 193.306 373.02 185.447 354.759L181.351 345.287L136.807 351.175C102.904 355.706 77.5859 384.634 77.5859 418.844V512.711H435.986V418.844C435.986 384.634 410.667 355.706 376.764 351.175Z" fill="#787D82"/>
<path d="M307.986 324.978V282.311H205.586V324.978C243.986 342.044 269.586 342.044 307.986 324.978Z" fill="#7B4520"/>
<path d="M77.5859 418.844V512.711H111.719V359.794C90.6159 371.979 77.6109 394.482 77.5859 418.844Z" fill="#717478"/>
<path d="M145.852 470.044H111.719V512.711H145.852V470.044Z" fill="#A15D30"/>
<path d="M111.719 470.044H77.5859V512.711H111.719V470.044Z" fill="#7B4520"/>
<path d="M435.986 470.044H367.719V512.711H435.986V470.044Z" fill="#A15D30"/>
<path d="M359.185 120.178H350.652V171.378H359.185C373.325 171.378 384.785 159.918 384.785 145.778C384.785 131.638 373.324 120.178 359.185 120.178Z" fill="#A15D30"/>
<path d="M128.785 145.778C128.785 159.918 140.245 171.378 154.385 171.378H162.918V120.178H154.385C140.245 120.178 128.785 131.638 128.785 145.778Z" fill="#7B4520"/>
<path d="M199.525 83.3991L205.584 68.9781C239.487 74.6101 274.081 74.6101 307.984 68.9781C313.548 85.6521 324.052 100.236 338.107 110.791L350.651 121.458V120.178C361.864 71.4011 331.417 22.7701 282.64 11.5491C276.01 10.0221 269.226 9.25412 262.416 9.24512H251.152C201.104 9.28812 160.562 49.9061 160.613 99.9541C160.622 106.764 161.39 113.548 162.917 120.178V128.711L179.984 111.644C188.329 103.64 194.977 94.0321 199.525 83.3991Z" fill="black"/>
<path d="M338.107 110.791C324.053 100.235 313.548 85.652 307.984 68.978C274.081 74.61 239.487 74.61 205.584 68.978L199.525 83.399C194.977 94.032 188.329 103.64 179.984 111.644L162.918 128.711V217.202C162.961 236.82 171.451 255.474 186.214 268.402L211.814 290.845C237.533 313.288 275.865 313.288 301.585 290.845L327.185 268.402C341.948 255.474 350.438 236.82 350.481 217.202V121.458L338.107 110.791Z" fill="#7B4520"/>
<path d="M197.05 88.6038V80.5828C197.033 61.6818 201.078 43.0018 208.911 25.7988L212.495 17.7778C173.907 35.9708 153.257 78.6288 162.916 120.178V128.711L179.983 111.644C186.93 104.98 192.698 97.1888 197.05 88.6038Z" fill="black"/>
<path d="M197.051 204.658V88.604C192.699 97.189 186.93 104.979 179.984 111.644L162.918 128.711V217.202C162.961 236.82 171.451 255.474 186.214 268.402L211.814 290.845C216.106 294.557 220.834 297.74 225.894 300.317L207.121 255.346C200.49 239.269 197.068 222.049 197.051 204.658Z" fill="#7B4520"/>
<path d="M307.985 68.978C274.082 74.61 239.488 74.61 205.585 68.978L199.526 83.399C198.843 85.191 197.905 86.898 197.051 88.604V204.657C197.025 222.227 200.481 239.627 207.206 255.857L225.979 300.828C250.888 313.235 280.831 309.285 301.67 290.844L327.27 268.401C342.033 255.473 350.523 236.819 350.566 217.201V121.457L338.107 110.79C324.053 100.235 313.548 85.652 307.985 68.978Z" fill="#7B4520"/>
<path d="M338.107 110.791C324.053 100.235 313.548 85.652 307.984 68.978C274.081 74.61 239.487 74.61 205.584 68.978L199.525 83.399C194.977 94.032 188.329 103.64 179.984 111.644L162.918 128.711V217.202C162.961 236.82 171.451 255.474 186.214 268.402L211.814 290.845C237.533 313.288 275.865 313.288 301.585 290.845L327.185 268.402C341.948 255.474 350.438 236.82 350.481 217.202V121.458L338.107 110.791Z" fill="#A15D30"/>
<path d="M338.107 110.791C324.053 100.235 313.548 85.652 307.984 68.978C274.081 74.61 239.487 74.61 205.584 68.978L199.525 83.399C194.977 94.032 188.329 103.64 179.984 111.644L162.918 128.711V217.202C162.961 236.82 171.451 255.474 186.214 268.402L211.814 290.845C237.533 313.288 275.865 313.288 301.585 290.845L327.185 268.402C341.948 255.474 350.438 236.82 350.481 217.202V121.458L338.107 110.791Z" fill="#A15D30"/>
<path d="M197.051 204.658V88.604C192.699 97.189 186.93 104.979 179.984 111.644L162.918 128.711V217.202C162.961 236.82 171.451 255.474 186.214 268.402L211.814 290.845C216.106 294.557 220.834 297.74 225.894 300.317L207.121 255.346C200.49 239.269 197.068 222.049 197.051 204.658Z" fill="#7B4520"/>
<path d="M273.852 205.511H239.719C220.869 205.511 205.586 220.794 205.586 239.644V285.553L211.901 291.014C237.62 313.457 275.952 313.457 301.672 291.014L307.987 285.553V239.644C307.986 220.794 292.703 205.511 273.852 205.511Z" fill="#A15D30"/>
<path d="M254.088 205.076L228.488 196.543C226.227 195.792 224.383 194.12 223.402 191.944C222.421 189.768 222.404 187.285 223.342 185.083L248.942 125.35L264.626 132.074L242.678 183.283L259.48 188.881L254.088 205.076Z" fill="black"/>
<path d="M359.185 179.911H350.652V162.844H359.185C368.597 162.844 376.252 155.19 376.252 145.777C376.252 136.365 368.598 128.71 359.185 128.71H350.652V111.643H359.185C378.01 111.643 393.318 126.952 393.318 145.776C393.318 164.6 378.009 179.911 359.185 179.911Z" fill="black"/>
<path d="M162.92 179.911H154.387C135.562 179.911 120.254 164.602 120.254 145.778C120.254 126.954 135.563 111.645 154.387 111.645H162.92V128.711H154.387C144.975 128.711 137.32 136.365 137.32 145.778C137.32 155.19 144.974 162.845 154.387 162.845H162.92V179.911Z" fill="black"/>
<path d="M205.587 162.845C215.012 162.845 222.654 155.204 222.654 145.778C222.654 136.352 215.012 128.711 205.587 128.711C196.161 128.711 188.52 136.352 188.52 145.778C188.52 155.204 196.161 162.845 205.587 162.845Z" fill="black"/>
<path d="M299.45 162.845C308.876 162.845 316.517 155.204 316.517 145.778C316.517 136.352 308.876 128.711 299.45 128.711C290.024 128.711 282.383 136.352 282.383 145.778C282.383 155.204 290.024 162.845 299.45 162.845Z" fill="black"/>
<path d="M237.695 248.178C237.686 248.178 237.678 248.178 237.669 248.178H231.184V231.111H237.669C237.678 231.111 237.686 231.111 237.695 231.111C248.865 231.111 260.052 228.474 270.036 223.474L277.673 238.74C265.326 244.918 251.502 248.178 237.695 248.178Z" fill="black"/>
<path d="M256.817 316.444C238.12 316.393 220.158 309.575 206.163 297.244L180.58 274.818C163.983 260.286 154.425 239.285 154.374 217.218V121.124C152.847 114.178 152.07 107.061 152.07 99.9609C152.028 45.2889 196.469 0.761937 251.142 0.710938H262.415C269.822 0.719937 277.237 1.57294 284.465 3.22794C337.431 15.4049 370.728 68.1579 359.098 121.116V217.201C359.038 239.294 349.489 260.294 332.884 274.827L307.293 297.261C293.348 309.549 275.428 316.368 256.817 316.444ZM251.151 17.7779C205.899 17.8209 169.103 54.6759 169.146 99.9449C169.146 106.098 169.854 112.259 171.237 118.266C171.382 118.897 171.45 119.537 171.45 120.177V217.201C171.493 234.344 178.917 250.677 191.836 261.984L217.436 284.427C228.333 294.036 242.311 299.343 256.8 299.377C271.213 299.317 285.165 294.018 296.019 284.444L321.636 261.984C334.555 250.677 341.988 234.345 342.031 217.184V120.177C342.031 119.537 342.108 118.897 342.244 118.266C352.382 74.1569 324.751 30.0139 280.642 19.8679C274.66 18.4859 268.525 17.7859 262.398 17.7769H251.151V17.7779Z" fill="black"/>
<path d="M168.953 134.744L156.887 122.678L173.954 105.611C181.523 98.221 187.36 89.611 191.396 79.943L197.787 65.522C199.366 61.972 203.129 59.941 206.986 60.564C240.036 66.059 273.546 66.059 306.587 60.564C310.743 59.873 314.753 62.296 316.076 66.281C321.111 81.385 330.497 94.407 343.238 103.973L355.773 113.351L345.533 127.013L332.989 117.626C319.412 107.429 308.959 93.997 302.44 78.475C271.976 82.853 241.188 82.836 210.732 78.415L207.063 86.684C202.216 98.306 195.091 108.819 185.943 117.745L168.953 134.744Z" fill="black"/>
<path d="M316.518 282.311H299.451V239.644C299.451 225.53 287.965 214.044 273.851 214.044H239.718C225.604 214.044 214.118 225.53 214.118 239.644V282.311H197.051V239.644C197.051 216.118 216.191 196.977 239.718 196.977H273.851C297.377 196.977 316.518 216.117 316.518 239.644V282.311Z" fill="black"/>
<path d="M265.317 265.244H248.25V307.911H265.317V265.244Z" fill="black"/>
<path d="M86.1178 512.711H69.0508V418.844C69.0508 380.529 97.6888 347.804 135.679 342.718L189.61 335.55C193.894 334.987 197.085 331.317 197.051 327.017V282.311H214.118V326.94C214.229 339.774 204.655 350.782 191.846 352.463L137.932 359.631C108.39 363.582 86.1178 389.037 86.1178 418.844V512.711Z" fill="black"/>
<path d="M444.517 512.711H427.45V418.844C427.373 389.139 405.101 363.744 375.627 359.802L321.713 352.634C308.922 350.97 299.347 339.962 299.458 327.034V282.311H316.525V327.111C316.482 331.497 319.674 335.158 323.949 335.721L377.888 342.889C415.785 347.958 444.431 380.598 444.525 418.827V512.711H444.517Z" fill="black"/>
<path d="M256.826 410.311C256.792 410.311 256.758 410.311 256.732 410.311C222.24 410.311 191.187 389.831 177.602 358.121L172.141 345.415L187.825 338.682L193.286 351.397C204.183 376.818 229.083 393.244 256.74 393.244C256.766 393.244 256.791 393.244 256.817 393.244C284.474 393.244 309.382 376.817 320.288 351.397L325.749 338.682L341.433 345.415L335.972 358.13C322.379 389.831 291.31 410.311 256.826 410.311Z" fill="black"/>
<path d="M154.383 444.444H137.316V512.711H154.383V444.444Z" fill="black"/>
<path d="M145.853 461.511H77.5859V478.578H145.853V461.511Z" fill="black"/>
<path d="M376.251 444.444H359.184V512.711H376.251V444.444Z" fill="black"/>
<path d="M435.986 461.511H367.719V478.578H435.986V461.511Z" fill="black"/>
</g>
<defs>
<clipPath id="clip0">
<rect width="512" height="512" fill="white" transform="translate(0.789062 0.710938)"/>
</clipPath>
</defs>
</svg>
