<svg width="513" height="513" viewBox="0 0 513 513" fill="none" xmlns="http://www.w3.org/2000/svg">
<g clip-path="url(#clip0)">
<path d="M350.512 154.076H341.992V205.198H350.512C364.63 205.198 376.073 193.755 376.073 179.637C376.073 165.519 364.621 154.076 350.512 154.076Z" fill="#8F4F24"/>
<path d="M137.5 179.638C137.5 193.756 148.943 205.199 163.061 205.199H171.581V154.077H163.061C148.943 154.076 137.5 165.519 137.5 179.638Z" fill="#8F4F24"/>
<path d="M350.512 154.076L360.566 102.357C363.863 82.726 350.614 64.143 330.983 60.846C328.989 60.514 326.97 60.352 324.951 60.352C319.856 45.1 305.584 34.808 289.506 34.791H188.624L171.583 9.229L163.063 17.749C139.538 41.274 139.53 79.411 163.046 102.936C163.055 102.945 163.055 102.953 163.063 102.953H316.43L350.512 154.076Z" fill="black"/>
<path d="M376.581 350.642L314.808 342.122L256.784 375.607L198.76 342.463L136.987 350.983C103.263 355.49 78.0265 384.179 77.8555 418.209V511.934H435.713V418.209C435.713 384.059 410.433 355.167 376.581 350.642Z" fill="#DBDBDB"/>
<path d="M314.81 342.463L307.908 341.525V281.883H205.664V341.525L198.762 342.463L256.786 375.607L314.81 342.463Z" fill="#A15D30"/>
<path d="M205.666 409.689L256.788 375.607L205.666 341.525H188.625L205.666 409.689Z" fill="#EAEAEA"/>
<path d="M256.789 375.607L307.911 409.689L324.952 341.525H307.911L256.789 375.607Z" fill="#EAEAEA"/>
<path d="M231.227 511.934L239.747 418.209L231.227 392.648L256.788 375.607L282.349 392.648L273.829 418.209L282.349 511.934" fill="#2E6AA3"/>
<path d="M307.908 329.086V281.883H205.664V329.086C244.005 345.7 269.567 345.7 307.908 329.086Z" fill="#8F4F24"/>
<path d="M77.8555 418.209V511.934H111.937V359.248C90.8665 371.415 77.8725 393.883 77.8555 418.209Z" fill="#BFBFBF"/>
<path d="M350.513 154.076V202.642C350.504 226.678 344.378 250.305 332.704 271.317C317.384 298.881 288.322 315.972 256.788 315.964C225.254 315.973 196.19 298.881 180.87 271.317C169.197 250.306 163.071 226.679 163.062 202.642V102.953H316.43L350.513 154.076Z" fill="#8F4F24"/>
<path d="M197.145 102.954H163.062V202.643C163.071 226.679 169.197 250.306 180.87 271.318C189.39 286.57 202.351 298.873 218.02 306.593C188.625 222.24 197.145 102.954 197.145 102.954Z" fill="#A15D30"/>
<path d="M147.215 46.0381C142.154 66.4781 148.169 88.0691 163.063 102.954H299.39C202.597 102.954 163.062 68.8721 147.215 46.0381Z" fill="black"/>
<path d="M350.512 213.719H341.992V196.678H350.512C359.91 196.678 367.553 189.035 367.553 179.637C367.553 170.239 359.91 162.596 350.512 162.596H341.992V145.555H350.512C369.308 145.555 384.594 160.841 384.594 179.637C384.594 198.433 369.308 213.719 350.512 213.719Z" fill="black"/>
<path d="M171.582 213.719H163.062C144.266 213.719 128.98 198.433 128.98 179.637C128.98 160.841 144.266 145.555 163.062 145.555H171.582V162.596H163.062C153.664 162.596 146.021 170.239 146.021 179.637C146.021 189.035 153.664 196.678 163.062 196.678H171.582V213.719Z" fill="black"/>
<path d="M265.307 230.76H239.746C237.071 230.76 234.557 229.507 232.947 227.369C231.337 225.23 230.817 222.47 231.558 219.897L248.599 160.254L264.984 164.94L251.036 213.719H265.299V230.76H265.307Z" fill="black"/>
<path d="M256.801 324.485C256.784 324.485 256.767 324.485 256.75 324.485C222.157 324.485 190.223 305.706 173.412 275.45C161.066 253.237 154.539 228.059 154.531 202.652V102.955C154.531 98.2521 158.348 94.4351 163.051 94.4351H316.418C319.264 94.4351 321.922 95.8581 323.507 98.2271L357.589 149.349C358.518 150.746 359.02 152.391 359.02 154.078V202.644C359.011 228.052 352.476 253.23 340.139 275.451C323.337 305.697 291.402 324.485 256.801 324.485ZM256.775 307.444C256.783 307.444 256.792 307.444 256.792 307.444C285.216 307.444 311.442 292.014 325.245 267.177C336.185 247.478 341.971 225.163 341.979 202.635V156.65L311.859 111.475H171.579V202.643C171.588 225.171 177.373 247.486 188.313 267.177C202.116 292.023 228.342 307.444 256.757 307.444C256.767 307.444 256.775 307.444 256.775 307.444Z" fill="black"/>
<path d="M249.715 264.842H239.746V247.801H249.715C262.981 247.792 275.455 242.629 284.845 233.248L296.893 245.304C284.282 257.898 267.531 264.833 249.715 264.842Z" fill="black"/>
<path d="M205.697 188.158C215.109 188.158 222.738 180.529 222.738 171.117C222.738 161.706 215.109 154.076 205.697 154.076C196.286 154.076 188.656 161.706 188.656 171.117C188.656 180.529 196.286 188.158 205.697 188.158Z" fill="black"/>
<path d="M307.943 188.158C317.355 188.158 324.984 180.529 324.984 171.117C324.984 161.706 317.355 154.076 307.943 154.076C298.532 154.076 290.902 161.706 290.902 171.117C290.902 180.529 298.532 188.158 307.943 188.158Z" fill="black"/>
<path d="M358.91 164.003L342.099 161.2L352.153 100.961C353.371 93.702 351.693 86.4081 347.424 80.4271C343.155 74.4461 336.816 70.4751 329.565 69.2571C328.048 69.0011 326.327 68.8141 324.955 68.8821C324.946 68.8821 324.946 68.8821 324.938 68.8821C321.274 68.8821 318.011 66.5391 316.861 63.0631C312.916 51.2621 301.916 43.3301 289.485 43.3131H188.621C185.775 43.3131 183.117 41.8901 181.532 39.5211L170.251 22.6081L169.075 23.7751C159.311 33.5391 153.926 46.5331 153.926 60.3451C153.926 74.1651 159.302 87.1501 169.067 96.9151L157.028 108.98C130.214 82.1581 130.214 38.5331 157.028 11.7281L165.548 3.20805C167.354 1.41005 169.876 0.490055 172.415 0.754055C174.954 1.00105 177.246 2.38105 178.66 4.50305L193.179 26.2731H289.502C307.301 26.2901 323.243 36.5061 330.826 52.2091C331.354 52.2771 331.865 52.3541 332.394 52.4391C344.144 54.4071 354.411 60.8321 361.321 70.5281C368.231 80.2241 370.949 92.0251 368.972 103.766L358.91 164.003Z" fill="black"/>
<path d="M86.3769 511.934H69.3359V418.209C69.3359 379.952 97.9299 347.277 135.863 342.198L197.142 334.061V298.923H214.183V341.525C214.183 345.794 211.022 349.406 206.787 349.969L138.113 359.086C108.624 363.031 86.3769 388.439 86.3769 418.201V511.934Z" fill="black"/>
<path d="M444.234 511.934H427.193V418.209C427.193 388.447 404.955 363.031 375.449 359.094L306.783 349.977C302.548 349.415 299.387 345.802 299.387 341.533V298.931H316.428V334.069L377.698 342.206C415.631 347.276 444.234 379.96 444.234 418.217V511.934Z" fill="black"/>
<path d="M154.576 443.77H137.535V511.933H154.576V443.77Z" fill="black"/>
<path d="M376.107 443.77H359.066V511.933H376.107V443.77Z" fill="black"/>
<path d="M205.665 418.209C204.626 418.209 203.586 418.022 202.589 417.638C200.007 416.641 198.073 414.443 197.4 411.759L180.359 343.596L196.889 339.472L210.999 395.903L252.059 368.527L261.508 382.705L210.386 416.787C208.97 417.732 207.317 418.209 205.665 418.209Z" fill="black"/>
<path d="M256.787 384.127C255.33 384.127 253.873 383.752 252.561 383.002L192.918 348.92L201.37 334.129L256.787 365.799L312.204 334.129L320.656 348.92L261.013 383.002C259.701 383.753 258.244 384.127 256.787 384.127Z" fill="black"/>
<path d="M307.91 418.209C306.257 418.209 304.604 417.723 303.181 416.778L252.059 382.696L261.508 368.518L302.568 395.894L316.678 339.463L333.199 343.587L316.158 411.75C315.493 414.434 313.551 416.632 310.969 417.629C309.989 418.022 308.95 418.209 307.91 418.209Z" fill="black"/>
<path d="M239.711 512.709L222.738 511.158L231.097 419.214L223.139 395.34L239.302 389.947L247.822 415.508C248.188 416.624 248.333 417.809 248.222 418.976L239.711 512.709Z" fill="black"/>
<path d="M273.854 512.709L265.334 418.984C265.232 417.808 265.368 416.632 265.743 415.516L274.263 389.955L290.418 395.348L282.46 419.222L290.819 511.166L273.854 512.709Z" fill="black"/>
<path d="M273.859 409.689H239.777V426.73H273.859V409.689Z" fill="black"/>
</g>
<defs>
<clipPath id="clip0">
<rect width="512.002" height="512.002" fill="white" transform="translate(0.785156 0.707031)"/>
</clipPath>
</defs>
</svg>
