<svg width="513" height="513" viewBox="0 0 513 513" fill="none" xmlns="http://www.w3.org/2000/svg">
<g clip-path="url(#clip0)">
<path d="M350.508 154.064H341.988V205.186H350.508C364.626 205.186 376.069 193.743 376.069 179.625C376.069 165.507 364.617 154.064 350.508 154.064Z" fill="#8F4F24"/>
<path d="M137.496 179.626C137.496 193.744 148.939 205.187 163.057 205.187H171.577V154.065H163.057C148.939 154.064 137.496 165.507 137.496 179.626Z" fill="#8F4F24"/>
<path d="M350.508 154.064L360.562 102.345C363.859 82.7143 350.61 64.1313 330.979 60.8343C328.985 60.5023 326.966 60.3403 324.947 60.3403C319.852 45.0883 305.58 34.7963 289.502 34.7793H188.62L171.579 9.21729L163.059 17.7373C139.534 41.2623 139.526 79.3993 163.042 102.924C163.051 102.933 163.051 102.941 163.059 102.941H316.426L350.508 154.064Z" fill="black"/>
<path d="M376.578 350.63L314.805 342.11L256.781 375.595L198.757 342.451L136.984 350.971C103.26 355.478 78.0226 384.167 77.8516 418.197V511.922H435.71V418.197C435.71 384.047 410.43 355.155 376.578 350.63Z" fill="#DBDBDB"/>
<path d="M314.806 342.451L307.904 341.513V281.871H205.66V341.513L198.758 342.451L256.782 375.595L314.806 342.451Z" fill="#A15D30"/>
<path d="M205.662 409.677L256.784 375.595L205.662 341.513H188.621L205.662 409.677Z" fill="#EAEAEA"/>
<path d="M256.785 375.595L307.907 409.677L324.948 341.513H307.907L256.785 375.595Z" fill="#EAEAEA"/>
<path d="M231.223 511.922L239.743 418.197L231.223 392.636L256.784 375.595L282.345 392.636L273.825 418.197L282.345 511.922" fill="#FF637B"/>
<path d="M307.904 329.074V281.871H205.66V329.074C244.001 345.688 269.563 345.688 307.904 329.074Z" fill="#8F4F24"/>
<path d="M77.8516 418.197V511.922H111.934V359.236C90.8626 371.403 77.8686 393.871 77.8516 418.197Z" fill="#BFBFBF"/>
<path d="M350.509 154.064V202.63C350.5 226.666 344.374 250.293 332.701 271.305C317.381 298.869 288.318 315.96 256.784 315.952C225.25 315.961 196.187 298.869 180.867 271.305C169.194 250.294 163.068 226.667 163.059 202.63V102.941H316.426L350.509 154.064Z" fill="#8F4F24"/>
<path d="M197.141 102.942H163.059V202.631C163.068 226.667 169.194 250.294 180.867 271.306C189.387 286.558 202.347 298.861 218.016 306.581C188.621 222.228 197.141 102.942 197.141 102.942Z" fill="#A15D30"/>
<path d="M147.211 46.0264C142.15 66.4664 148.165 88.0574 163.059 102.942H299.386C202.593 102.942 163.058 68.8604 147.211 46.0264Z" fill="black"/>
<path d="M350.508 213.707H341.988V196.666H350.508C359.906 196.666 367.549 189.023 367.549 179.625C367.549 170.227 359.906 162.584 350.508 162.584H341.988V145.543H350.508C369.304 145.543 384.59 160.829 384.59 179.625C384.59 198.421 369.304 213.707 350.508 213.707Z" fill="black"/>
<path d="M171.579 213.707H163.059C144.263 213.707 128.977 198.421 128.977 179.625C128.977 160.829 144.263 145.543 163.059 145.543H171.579V162.584H163.059C153.661 162.584 146.018 170.227 146.018 179.625C146.018 189.023 153.661 196.666 163.059 196.666H171.579V213.707Z" fill="black"/>
<path d="M265.303 230.748H239.742C237.067 230.748 234.553 229.495 232.943 227.357C231.333 225.218 230.813 222.458 231.554 219.885L248.595 160.242L264.98 164.928L251.032 213.707H265.295V230.748H265.303Z" fill="black"/>
<path d="M256.797 324.473C256.78 324.473 256.763 324.473 256.746 324.473C222.153 324.473 190.219 305.694 173.408 275.438C161.062 253.225 154.535 228.047 154.527 202.64V102.943C154.527 98.2403 158.344 94.4233 163.047 94.4233H316.414C319.26 94.4233 321.918 95.8463 323.503 98.2153L357.585 149.337C358.514 150.734 359.016 152.379 359.016 154.066V202.632C359.007 228.04 352.472 253.218 340.135 275.439C323.333 305.685 291.398 324.473 256.797 324.473ZM256.771 307.432C256.779 307.432 256.788 307.432 256.788 307.432C285.212 307.432 311.438 292.002 325.241 267.165C336.181 247.466 341.967 225.151 341.975 202.623V156.638L311.855 111.463H171.575V202.631C171.584 225.159 177.369 247.474 188.309 267.165C202.112 292.011 228.338 307.432 256.753 307.432C256.763 307.432 256.771 307.432 256.771 307.432Z" fill="black"/>
<path d="M249.711 264.83H239.742V247.789H249.711C262.977 247.78 275.451 242.617 284.841 233.236L296.889 245.292C284.278 257.886 267.527 264.821 249.711 264.83Z" fill="black"/>
<path d="M205.693 188.146C215.105 188.146 222.734 180.517 222.734 171.105C222.734 161.694 215.105 154.064 205.693 154.064C196.282 154.064 188.652 161.694 188.652 171.105C188.652 180.517 196.282 188.146 205.693 188.146Z" fill="black"/>
<path d="M307.939 188.146C317.351 188.146 324.98 180.517 324.98 171.105C324.98 161.694 317.351 154.064 307.939 154.064C298.528 154.064 290.898 161.694 290.898 171.105C290.898 180.517 298.528 188.146 307.939 188.146Z" fill="black"/>
<path d="M358.907 163.991L342.096 161.188L352.15 100.949C353.368 93.6903 351.69 86.3963 347.421 80.4153C343.152 74.4343 336.813 70.4633 329.562 69.2453C328.045 68.9893 326.324 68.8023 324.952 68.8703C324.943 68.8703 324.943 68.8703 324.935 68.8703C321.271 68.8703 318.008 66.5273 316.858 63.0513C312.913 51.2503 301.913 43.3183 289.482 43.3013H188.618C185.772 43.3013 183.114 41.8783 181.529 39.5093L170.248 22.5963L169.072 23.7633C159.308 33.5273 153.923 46.5213 153.923 60.3333C153.923 74.1533 159.299 87.1383 169.064 96.9033L157.025 108.968C130.211 82.1463 130.211 38.5213 157.025 11.7163L165.545 3.19634C167.351 1.39834 169.873 0.478336 172.412 0.742336C174.951 0.989336 177.243 2.36934 178.657 4.49134L193.176 26.2613H289.499C307.298 26.2783 323.24 36.4943 330.823 52.1973C331.351 52.2653 331.862 52.3423 332.391 52.4273C344.141 54.3953 354.408 60.8203 361.318 70.5163C368.228 80.2123 370.946 92.0133 368.969 103.754L358.907 163.991Z" fill="black"/>
<path d="M86.373 511.922H69.332V418.197C69.332 379.94 97.926 347.265 135.859 342.186L197.138 334.049V298.911H214.179V341.513C214.179 345.782 211.018 349.394 206.783 349.957L138.109 359.074C108.62 363.019 86.373 388.427 86.373 418.189V511.922Z" fill="black"/>
<path d="M444.23 511.922H427.189V418.197C427.189 388.435 404.951 363.019 375.445 359.082L306.779 349.965C302.544 349.403 299.383 345.79 299.383 341.521V298.919H316.424V334.057L377.694 342.194C415.627 347.264 444.23 379.948 444.23 418.205V511.922Z" fill="black"/>
<path d="M154.572 443.758H137.531V511.921H154.572V443.758Z" fill="black"/>
<path d="M376.104 443.758H359.062V511.921H376.104V443.758Z" fill="black"/>
<path d="M205.661 418.197C204.622 418.197 203.582 418.01 202.585 417.626C200.003 416.629 198.069 414.431 197.396 411.747L180.355 343.584L196.885 339.46L210.995 395.891L252.055 368.515L261.504 382.693L210.382 416.775C208.966 417.72 207.313 418.197 205.661 418.197Z" fill="black"/>
<path d="M256.783 384.115C255.326 384.115 253.869 383.74 252.557 382.99L192.914 348.908L201.366 334.117L256.783 365.787L312.2 334.117L320.652 348.908L261.009 382.99C259.697 383.741 258.24 384.115 256.783 384.115Z" fill="black"/>
<path d="M307.906 418.197C306.253 418.197 304.6 417.711 303.177 416.766L252.055 382.684L261.504 368.506L302.564 395.882L316.674 339.451L333.195 343.575L316.154 411.738C315.489 414.422 313.547 416.62 310.965 417.617C309.985 418.01 308.946 418.197 307.906 418.197Z" fill="black"/>
<path d="M239.707 512.698L222.734 511.147L231.093 419.203L223.135 395.329L239.298 389.936L247.818 415.497C248.184 416.613 248.329 417.798 248.218 418.965L239.707 512.698Z" fill="black"/>
<path d="M273.85 512.697L265.33 418.972C265.228 417.796 265.364 416.62 265.739 415.504L274.259 389.943L290.414 395.336L282.456 419.21L290.815 511.154L273.85 512.697Z" fill="black"/>
<path d="M273.855 409.677H239.773V426.718H273.855V409.677Z" fill="black"/>
</g>
<defs>
<clipPath id="clip0">
<rect width="512.002" height="512.002" fill="white" transform="translate(0.78125 0.695312)"/>
</clipPath>
</defs>
</svg>
