<svg width="513" height="513" viewBox="0 0 513 513" fill="none" xmlns="http://www.w3.org/2000/svg">
<g clip-path="url(#clip0)">
<path d="M376.764 351.163L367.719 350.566V333.499C367.719 319.359 356.259 307.899 342.119 307.899H171.452C157.312 307.899 145.852 319.359 145.852 333.499V350.566L136.807 351.59C103.058 356.104 77.7989 384.785 77.5859 418.833V512.699H435.986V418.832C435.985 384.622 410.667 355.694 376.764 351.163Z" fill="#E56B2E"/>
<path d="M256.784 401.766C233.684 401.766 211.788 391.475 197.051 373.691V512.699H316.518V373.691C301.78 391.474 279.884 401.766 256.784 401.766Z" fill="#EBEBEB"/>
<path d="M314.47 343.824C305.851 342.783 299.392 335.436 299.451 326.757V265.232H214.118V326.843C214.178 335.521 207.718 342.869 199.099 343.91H197.051V373.521C224.383 406.511 273.279 411.102 306.269 383.77C309.998 380.681 313.428 377.251 316.518 373.521V344.081L314.47 343.824Z" fill="#FEDAC6"/>
<path d="M231.184 397.414C217.838 392.797 206.028 384.588 197.051 373.691V512.699H231.184V397.414Z" fill="#DBDBDB"/>
<path d="M77.5859 418.832V512.699H111.719V359.867C90.6419 372.036 77.6369 394.495 77.5859 418.832Z" fill="#D65B25"/>
<path d="M342.117 196.966H359.184C373.324 196.966 384.784 185.506 384.784 171.366C384.784 157.226 373.324 145.766 359.184 145.766H350.651" fill="#FEDAC6"/>
<path d="M171.452 196.966H154.385C140.245 196.966 128.785 185.506 128.785 171.366C128.785 157.226 140.245 145.766 154.385 145.766H162.918" fill="#F5C4B0"/>
<path d="M350.652 94.5664H179.985C151.706 94.5664 128.785 71.6454 128.785 43.3664H162.918C148.778 43.3664 137.318 31.9064 137.318 17.7664V9.23242H265.318C312.448 9.23242 350.652 47.4364 350.652 94.5664Z" fill="#FECB66"/>
<path d="M162.918 94.5664V179.899L164.966 206.523C169.318 257.279 213.999 294.903 264.755 290.551C267.52 290.312 270.268 289.954 272.998 289.467C315.042 281.335 346.248 245.768 348.859 203.024L350.651 179.899V94.5664H162.918Z" fill="#FEDAC6"/>
<path d="M197.051 191.419V86.0322H162.918V179.899L164.966 206.523C167.97 242.892 192.273 274.005 226.833 285.712L210.961 250.469C201.812 232.132 197.051 211.916 197.051 191.419Z" fill="#F5C4B0"/>
<path d="M197.051 86.0322C197.384 110.668 184.311 133.546 162.918 145.765V86.0322H197.051Z" fill="#F5AD76"/>
<path d="M350.653 145.766C350.653 145.766 316.52 128.699 316.52 94.5664H350.653V145.766Z" fill="#FECB66"/>
<path d="M299.454 307.899V282.299H214.121V307.899C246.12 324.966 267.454 324.966 299.454 307.899Z" fill="#F5C4B0"/>
<path d="M128.785 43.3662C130.748 70.7842 152.567 92.6032 179.985 94.5662H342.118C269.576 84.1292 198.161 66.9942 128.785 43.3662Z" fill="#F5AD76"/>
<path d="M199.442 345.19C200.935 342.587 203.043 340.386 205.586 338.79C210.894 335.488 214.119 329.676 214.119 323.43V307.899H178.62C160.478 307.873 145.741 322.551 145.715 340.701C145.706 347.255 147.652 353.663 151.313 359.099L161.724 374.63C169.857 360.166 183.442 349.567 199.442 345.19Z" fill="#D65B25"/>
<path d="M350.654 103.099H179.987C147.048 103.099 120.254 76.3042 120.254 43.3662C120.254 38.6562 124.077 34.8332 128.787 34.8332H133.369C130.451 29.8062 128.787 23.9782 128.787 17.7662V9.23222C128.787 4.52222 132.61 0.699219 137.32 0.699219H265.32C317.075 0.699219 359.187 42.8112 359.187 94.5662C359.187 99.2762 355.373 103.099 350.654 103.099ZM138.182 51.8992C142.141 71.3462 159.387 86.0322 179.987 86.0322H341.642C337.384 47.6842 304.787 17.7662 265.32 17.7662H145.854C145.854 27.1782 153.508 34.8332 162.921 34.8332C167.631 34.8332 171.454 38.6562 171.454 43.3662C171.454 48.0762 167.631 51.8992 162.921 51.8992H138.182Z" fill="black"/>
<path d="M166.732 153.403L159.095 138.137L162.918 145.766L159.078 138.146C159.368 137.992 188.518 122.863 188.518 94.5664H205.584C205.584 133.52 168.319 152.601 166.732 153.403Z" fill="black"/>
<path d="M346.836 153.403C345.249 152.601 307.984 133.52 307.984 94.5664H325.051C325.051 122.863 354.192 137.992 354.491 138.146L346.836 153.403Z" fill="black"/>
<path d="M205.587 179.899C215.012 179.899 222.654 172.258 222.654 162.832C222.654 153.406 215.012 145.765 205.587 145.765C196.161 145.765 188.52 153.406 188.52 162.832C188.52 172.258 196.161 179.899 205.587 179.899Z" fill="black"/>
<path d="M307.985 179.899C317.411 179.899 325.052 172.258 325.052 162.832C325.052 153.406 317.411 145.765 307.985 145.765C298.559 145.765 290.918 153.406 290.918 162.832C290.918 172.258 298.559 179.899 307.985 179.899Z" fill="black"/>
<path d="M265.319 205.499H239.719C236.886 205.499 234.241 204.091 232.653 201.753C231.065 199.415 230.742 196.428 231.791 193.8L248.858 151.133L264.704 157.473L252.322 188.432H265.318V205.499H265.319Z" fill="black"/>
<path d="M241.17 239.632H239.719V222.565H241.17C254.456 222.556 266.949 217.385 276.353 207.99L288.419 220.065C275.798 232.678 259.022 239.624 241.17 239.632Z" fill="black"/>
<path d="M359.185 205.499H350.652V188.432H359.185C368.597 188.432 376.252 180.778 376.252 171.365C376.252 161.953 368.598 154.298 359.185 154.298H350.652V137.231H359.185C378.01 137.231 393.318 152.54 393.318 171.364C393.318 190.188 378.01 205.499 359.185 205.499Z" fill="black"/>
<path d="M162.92 205.499H154.387C135.562 205.499 120.254 190.19 120.254 171.366C120.254 152.542 135.563 137.233 154.387 137.233H162.92V154.299H154.387C144.975 154.299 137.32 161.953 137.32 171.366C137.32 180.778 144.974 188.433 154.387 188.433H162.92V205.499Z" fill="black"/>
<path d="M256.881 299.417C208.89 299.417 166.308 265.036 157.647 216.26C157.118 213.273 156.717 210.261 156.461 207.24L154.404 180.556L154.387 94.5664H171.454V179.899L173.476 205.866C173.681 208.307 174.014 210.798 174.449 213.273C182.522 258.722 226.007 289.109 271.507 281.062C309.608 273.689 337.965 241.373 340.337 202.496L342.138 179.234L342.121 94.5664H359.187V179.899L357.369 203.681C354.536 250.188 320.505 288.963 274.621 297.838C268.674 298.896 262.735 299.417 256.881 299.417Z" fill="black"/>
<path d="M205.587 512.699H188.52V343.91C188.52 339.191 192.343 335.377 197.053 335.377H198.504C202.6 334.677 205.612 331.102 205.587 326.903V282.299H222.654V326.843C222.731 337.911 215.691 347.553 205.587 351.112V512.699Z" fill="black"/>
<path d="M86.1168 512.699H69.0508V418.832C69.0508 380.517 97.6888 347.792 135.679 342.706L145.288 342.049L146.423 359.082L137.378 359.679C108.39 363.57 86.1178 389.025 86.1178 418.832V512.699H86.1168Z" fill="black"/>
<path d="M256.784 410.299C231.056 410.299 206.89 398.941 190.48 379.135L203.621 368.255C216.779 384.127 236.159 393.232 256.784 393.232C277.409 393.232 296.788 384.127 309.947 368.238L323.08 379.135C306.67 398.941 282.503 410.299 256.784 410.299Z" fill="black"/>
<path d="M189.961 432.119L144.222 363.852C139.614 356.914 137.233 348.885 137.31 340.582C137.31 317.892 155.836 299.366 178.611 299.366H214.118V316.433H178.619C165.256 316.433 154.384 327.304 154.384 340.668C154.333 345.617 155.732 350.336 158.42 354.373L204.142 422.614L189.961 432.119Z" fill="black"/>
<path d="M171.451 495.632C166.741 495.632 162.918 491.818 162.918 487.099V435.899C162.918 431.18 166.741 427.366 171.451 427.366C176.161 427.366 179.984 431.18 179.984 435.899V487.099C179.984 491.818 176.161 495.632 171.451 495.632Z" fill="black"/>
<path d="M325.053 512.699H307.986V351.103C297.874 347.545 290.834 337.893 290.919 326.766V282.299H307.986V326.843C307.952 331.101 310.973 334.677 315.069 335.376H316.52C321.239 335.376 325.053 339.19 325.053 343.909V512.699Z" fill="black"/>
<path d="M444.516 512.699H427.449V418.832C427.449 389.025 405.177 363.57 375.626 359.628L367.152 359.09L368.287 342.057L377.332 342.654C415.877 347.783 444.515 380.516 444.515 418.831V512.699H444.516Z" fill="black"/>
<path d="M323.611 432.119L309.429 422.621L355.168 354.354C357.839 350.335 359.238 345.624 359.187 340.752C359.187 327.312 348.316 316.432 334.952 316.432H299.453V299.365H334.952C357.727 299.365 376.253 317.891 376.253 340.666C376.338 348.875 373.949 356.913 369.367 363.825L323.611 432.119Z" fill="black"/>
<path d="M342.119 495.632C337.4 495.632 333.586 491.818 333.586 487.099V435.899C333.586 431.18 337.4 427.366 342.119 427.366C346.838 427.366 350.652 431.18 350.652 435.899V487.099C350.653 491.818 346.838 495.632 342.119 495.632Z" fill="black"/>
</g>
<defs>
<clipPath id="clip0">
<rect width="512" height="512" fill="white" transform="translate(0.785156 0.699219)"/>
</clipPath>
</defs>
</svg>
