<svg width="513" height="513" viewBox="0 0 513 513" fill="none" xmlns="http://www.w3.org/2000/svg">
<g clip-path="url(#clip0)">
<path d="M376.761 368.246L322.83 361.078C293.97 397.558 240.995 403.728 204.524 374.868C199.413 370.823 194.787 366.198 190.734 361.078L136.803 368.246C102.9 372.777 77.582 401.705 77.582 435.915V512.715H435.982V435.915C435.983 401.705 410.664 372.777 376.761 368.246Z" fill="#74A32E"/>
<path d="M322.83 361.078C314.28 359.96 307.905 352.639 307.982 344.011V299.382H205.582V344.182C205.659 352.809 199.284 360.131 190.734 361.249C219.645 397.686 272.62 403.796 309.066 374.885C314.168 370.831 318.793 366.198 322.83 361.078Z" fill="#FEDAC6"/>
<path d="M307.982 337.099V299.382H205.582V337.099C243.982 355.104 269.582 355.104 307.982 337.099Z" fill="#F5C4B0"/>
<path d="M350.646 154.314H342.113V205.514H350.646C364.786 205.514 376.246 194.054 376.246 179.914C376.246 165.774 364.786 154.314 350.646 154.314Z" fill="#FEDAC6"/>
<path d="M162.912 154.314C148.772 154.314 137.312 165.774 137.312 179.914C137.312 194.054 148.772 205.514 162.912 205.514H171.445V154.314H162.912Z" fill="#FEDAC6"/>
<path d="M350.645 137.248V231.115C350.756 243.659 346.267 255.802 338.016 265.248L301.152 306.976C294.684 314.34 285.357 318.573 275.552 318.581H238.176C228.371 318.572 219.044 314.34 212.576 306.976L175.541 265.248C167.289 255.802 162.801 243.659 162.912 231.115V120.182C188.811 115.949 214.453 110.249 239.712 103.115C260.098 95.7246 280.041 87.1826 299.445 77.5146C307.253 89.4186 315.803 100.82 325.045 111.648L350.645 137.248Z" fill="#FEDAC6"/>
<path d="M77.582 435.915V512.715H111.715V376.864C90.612 389.05 77.607 411.552 77.582 435.915Z" fill="#688E26"/>
<path d="M325.048 43.382C325.048 27.169 312.589 9.24902 256.781 9.24902C154.381 9.24902 128.781 111.649 128.781 111.649C206.69 124.62 274.701 93.217 302.776 77.516C309.261 92.449 325.219 131.02 350.648 137.249L355.683 86.646C357.697 66.601 344.624 48.135 325.048 43.382Z" fill="#A15D30"/>
<path d="M200.375 214.048L197.047 111.648L162.914 120.181V224.629C162.957 244.247 171.447 262.901 186.21 275.829C186.21 275.829 220.941 313.888 225.975 316.448L207.202 262.944C201.596 247.286 199.266 230.646 200.375 214.048Z" fill="#F5C4B0"/>
<path d="M145.25 74.1021C138.133 85.8441 132.595 98.465 128.781 111.649C201.997 123.852 268.642 93.9001 299.448 77.5161C222.647 94.5821 179.981 86.0481 145.25 74.1021Z" fill="#8F4F24"/>
<path d="M350.646 205.515H342.113V188.448H350.646C360.058 188.448 367.713 180.794 367.713 171.381C367.713 161.969 360.059 154.314 350.646 154.314H342.113V137.247H350.646C369.471 137.247 384.779 152.556 384.779 171.38C384.779 190.204 369.471 205.515 350.646 205.515Z" fill="black"/>
<path d="M171.447 214.048H162.914C144.089 214.048 128.781 198.739 128.781 179.915C128.781 161.091 144.09 145.782 162.914 145.782H171.447V162.849H162.914C153.502 162.849 145.847 170.503 145.847 179.916C145.847 189.329 153.501 196.983 162.914 196.983H171.447V214.048Z" fill="black"/>
<path d="M265.314 214.39H239.714C237.265 214.39 234.935 213.34 233.314 211.506C231.693 209.672 230.942 207.231 231.24 204.799L239.773 136.532L256.703 138.648L249.373 197.323H265.313V214.39H265.314Z" fill="black"/>
<path d="M275.573 325.323H238.18C225.909 325.306 214.253 320.015 206.171 310.816L169.298 268.653C159.664 257.611 154.433 243.471 154.561 228.828V111.648H171.628V228.896C171.534 239.435 175.272 249.538 182.15 257.423L219.005 299.561C223.843 305.074 230.841 308.248 238.196 308.256H275.555C282.885 308.247 289.891 305.073 294.746 299.543L331.619 257.798C338.471 249.956 342.209 239.852 342.106 229.391V128.715H359.173V229.323C359.31 243.889 354.07 258.029 344.427 269.071L307.537 310.833C299.484 320.015 287.818 325.306 275.573 325.323Z" fill="black"/>
<path d="M205.583 171.723C215.008 171.723 222.65 164.082 222.65 154.656C222.65 145.23 215.008 137.589 205.583 137.589C196.157 137.589 188.516 145.23 188.516 154.656C188.516 164.082 196.157 171.723 205.583 171.723Z" fill="black"/>
<path d="M299.446 171.723C308.872 171.723 316.513 164.082 316.513 154.656C316.513 145.23 308.872 137.589 299.446 137.589C290.02 137.589 282.379 145.23 282.379 154.656C282.379 164.082 290.02 171.723 299.446 171.723Z" fill="black"/>
<path d="M350.645 145.782C349.971 145.782 349.288 145.705 348.614 145.535C323.364 139.348 307.159 108.236 298.66 89.4028C267.155 105.65 201.346 132.411 127.379 120.063C125.032 119.67 122.95 118.314 121.645 116.325C120.339 114.337 119.93 111.888 120.502 109.575C120.774 108.491 148.96 0.714844 256.779 0.714844C313.389 0.714844 330.114 19.1728 333.058 36.9728C353.291 44.7718 366.381 65.4658 364.171 87.4988L359.136 138.093C358.897 140.551 357.591 142.786 355.569 144.211C354.119 145.244 352.395 145.782 350.645 145.782ZM302.773 68.9818C303.686 68.9818 304.616 69.1358 305.495 69.4258C307.79 70.1938 309.634 71.9008 310.598 74.1108L311.255 75.6298C316.068 86.7488 327.596 113.356 343.34 124.509L347.189 85.8018C348.776 70.0748 338.391 55.4058 323.031 51.6768C319.2 50.7468 316.512 47.3158 316.512 43.3828C316.512 22.2288 284.026 17.7828 256.779 17.7828C178.861 17.7828 148.662 80.5629 139.949 104.627C211.774 113.177 274.34 83.6438 298.609 70.0758C299.898 69.3488 301.331 68.9818 302.773 68.9818Z" fill="black"/>
<path d="M254.758 248.182C254.749 248.182 254.741 248.182 254.732 248.182H231.18V231.115H254.732C254.741 231.115 254.749 231.115 254.758 231.115C265.937 231.115 277.115 228.478 287.099 223.478L294.736 238.744C282.389 244.922 268.565 248.182 254.758 248.182Z" fill="black"/>
<path d="M86.1139 512.715H69.0469V435.915C69.0469 397.6 97.6849 364.875 135.675 359.789L189.606 352.621C193.89 352.058 197.081 348.388 197.047 344.088V299.382H214.114V344.011C214.225 356.845 204.651 367.853 191.842 369.534L137.928 376.702C108.386 380.653 86.1139 406.108 86.1139 435.915V512.715Z" fill="black"/>
<path d="M444.513 512.715H427.446V435.915C427.369 406.21 405.097 380.815 375.623 376.873L321.709 369.705C308.918 368.041 299.343 357.033 299.454 344.105V299.382H316.521V344.182C316.478 348.568 319.67 352.229 323.945 352.792L377.884 359.96C415.781 365.029 444.427 397.669 444.521 435.898V512.715H444.513Z" fill="black"/>
<path d="M154.379 444.448H137.312V512.715H154.379V444.448Z" fill="black"/>
<path d="M376.247 444.448H359.18V512.715H376.247V444.448Z" fill="black"/>
<path d="M256.875 401.534C229.474 401.534 202.321 389.485 184.043 366.377L197.423 355.796C223.313 388.521 271.023 394.051 303.748 368.178C308.33 364.543 312.503 360.379 316.147 355.788L329.51 366.386C325.064 372.009 319.953 377.112 314.338 381.558C297.331 395.006 277.03 401.534 256.875 401.534Z" fill="black"/>
</g>
<defs>
<clipPath id="clip0">
<rect width="512" height="512" fill="white" transform="translate(0.785156 0.714844)"/>
</clipPath>
</defs>
</svg>
