<svg width="513" height="513" viewBox="0 0 513 513" fill="none" xmlns="http://www.w3.org/2000/svg">
<g clip-path="url(#clip0)">
<path d="M376.898 333.444L308.119 324.313L256.919 401.113L205.719 324.313L136.94 333.444C103.037 337.975 77.7188 366.903 77.7188 401.113V512.047H436.119V401.114C436.119 366.904 410.801 337.976 376.898 333.444Z" fill="#2E6AA3"/>
<path d="M308.119 324.314V256.047H205.719V324.314L256.919 401.114L308.119 324.314Z" fill="#FEDAC6"/>
<path d="M77.7188 400.431V512.047H111.852V341.38C90.7487 353.566 77.7448 376.068 77.7188 400.431Z" fill="#245E8F"/>
<path d="M145.985 452.314H111.852V512.047H145.985V452.314Z" fill="#FEDAC6"/>
<path d="M111.852 452.314H77.7188V512.047H111.852V452.314Z" fill="#F5C4B0"/>
<path d="M436.119 452.314H367.852V512.047H436.119V452.314Z" fill="#FEDAC6"/>
<path d="M308.119 310.831V256.047H205.719V310.831C244.119 328.836 269.719 328.836 308.119 310.831Z" fill="#F5C4B0"/>
<path d="M350.787 128.047H342.254V179.247H350.787C364.927 179.247 376.387 167.787 376.387 153.647C376.387 139.507 364.926 128.047 350.787 128.047Z" fill="#FEDAC6"/>
<path d="M137.449 162.181C137.449 176.321 148.909 187.781 163.049 187.781H171.582V136.581H163.049C148.91 136.581 137.449 148.042 137.449 162.181Z" fill="#F5C4B0"/>
<path d="M326.209 59.7803H187.115L163.051 140.505L170.134 216.537C170.876 225.548 174.46 234.099 180.374 240.942L223.041 290.009C227.948 295.496 234.971 298.602 242.326 298.542H270.315C277.671 298.602 284.694 295.496 289.6 290.009L332.267 240.942C338.181 234.098 341.765 225.548 342.507 216.537L350.784 136.58L352.832 130.521L326.209 59.7803Z" fill="#FEDAC6"/>
<path d="M177.729 59.7808C161.661 59.8148 148.656 72.8708 148.699 88.9478C148.708 92.0288 149.202 95.0918 150.167 98.0098L163.052 136.581V140.506L187.116 59.7808H177.729Z" fill="#FECB66"/>
<path d="M363.668 98.0108C368.711 82.7528 360.425 66.2928 345.168 61.2488C342.25 60.2848 339.186 59.7898 336.106 59.7808H326.207L352.831 130.522L363.668 98.0108Z" fill="#FECB66"/>
<path d="M325.184 59.7806C325.184 31.5016 302.263 8.58057 273.984 8.58057H145.984C145.984 36.8596 168.905 59.7806 197.184 59.7806H325.184Z" fill="#FECB66"/>
<path d="M282.773 61.8804C278.08 43.3634 267.08 26.8594 251.797 15.4074L262.037 1.75439C280.426 15.5354 293.67 35.4014 299.328 57.6814L282.773 61.8804Z" fill="#F5B776"/>
<path d="M240.117 61.8804C235.424 43.3714 224.424 26.8684 209.141 15.4164L219.372 1.75439C237.77 15.5444 251.014 35.4094 256.663 57.6904L240.117 61.8804Z" fill="#F5B776"/>
<path d="M197.449 61.8804C192.756 43.3714 181.756 26.8684 166.473 15.4164L176.704 1.75439C195.102 15.5444 208.346 35.4094 213.995 57.6904L197.449 61.8804Z" fill="#F5B776"/>
<path d="M209.046 196.314L205.718 59.7803H188.651L163.051 136.58L171.584 206.895C171.627 226.513 180.117 245.167 194.88 258.095C194.88 258.095 229.611 296.154 234.645 298.714L215.872 245.21C210.266 229.551 207.937 212.911 209.046 196.314Z" fill="#F5C4B0"/>
<path d="M350.787 187.78H342.254V170.713H350.787C360.199 170.713 367.854 163.059 367.854 153.646C367.854 144.233 360.2 136.579 350.787 136.579H342.254V119.512H350.787C369.612 119.512 384.92 134.821 384.92 153.645C384.92 172.469 369.611 187.78 350.787 187.78Z" fill="black"/>
<path d="M171.584 196.314H163.051C144.226 196.314 128.918 181.005 128.918 162.181C128.918 143.357 144.226 128.047 163.05 128.047H171.583V145.114H163.05C153.638 145.114 145.983 152.768 145.983 162.181C145.983 171.593 153.637 179.248 163.05 179.248H171.583V196.314H171.584Z" fill="black"/>
<path d="M265.451 204.847H239.851C237.317 204.847 234.919 203.721 233.297 201.775C231.676 199.829 231.002 197.261 231.462 194.769L242.811 132.902L259.596 135.983L250.09 187.78H265.45V204.847H265.451Z" fill="black"/>
<path d="M270.493 238.98H231.316V221.913H270.484C275.894 221.913 281.193 219.711 285.008 215.88L297.091 227.938C289.983 235.055 280.545 238.98 270.493 238.98Z" fill="black"/>
<path d="M242.659 307.248C233.016 307.248 223.758 303.118 217.281 295.873L174.538 246.712C167.379 238.426 163.129 228.297 162.233 217.409L154.655 138.365L142.077 100.716C138.911 91.1416 139.662 80.9436 144.185 71.9666C148.699 62.9896 156.447 56.3076 165.988 53.1506C169.777 51.8966 173.719 51.2566 177.704 51.2476H336.108C356.878 51.2986 373.714 68.2116 373.672 88.9646C373.663 92.9496 373.023 96.8916 371.761 100.69L359.183 138.356L351.853 217.332C350.966 228.135 346.707 238.264 339.574 246.525L296.634 295.788C290.08 303.118 280.822 307.248 271.111 307.248C271.026 307.248 270.932 307.248 270.846 307.248H242.925C242.838 307.248 242.744 307.248 242.659 307.248ZM177.729 68.3146C175.57 68.3146 173.411 68.6726 171.338 69.3556C166.124 71.0796 161.892 74.7226 159.425 79.6386C156.95 84.5456 156.549 90.1176 158.264 95.3316L171.141 133.877C171.346 134.491 171.482 135.123 171.542 135.771L179.222 215.899C179.828 223.272 182.661 230.022 187.423 235.534L230.073 284.584C233.264 288.151 237.77 290.233 242.856 290.182H270.914C270.957 290.182 271.008 290.182 271.059 290.182C275.974 290.182 280.608 288.117 283.85 284.49L326.696 235.338C331.441 229.851 334.274 223.101 334.862 215.839L342.295 135.796C342.363 135.139 342.491 134.499 342.705 133.876L355.59 95.3046C356.264 93.2566 356.614 91.0976 356.623 88.9216C356.64 77.5896 347.424 68.3396 336.092 68.3136H177.729V68.3146Z" fill="black"/>
<path d="M205.719 162.181C215.145 162.181 222.786 154.54 222.786 145.114C222.786 135.689 215.145 128.047 205.719 128.047C196.294 128.047 188.652 135.689 188.652 145.114C188.652 154.54 196.294 162.181 205.719 162.181Z" fill="black"/>
<path d="M299.587 162.181C309.012 162.181 316.654 154.54 316.654 145.114C316.654 135.689 309.012 128.047 299.587 128.047C290.161 128.047 282.52 135.689 282.52 145.114C282.52 154.54 290.161 162.181 299.587 162.181Z" fill="black"/>
<path d="M171.144 139.281L196.758 62.4883L180.569 57.0886L154.955 133.882L171.144 139.281Z" fill="black"/>
<path d="M342.79 131.042L317.19 62.7754C316.832 61.8194 316.652 60.8044 316.652 59.7804C316.652 36.2544 297.512 17.1134 273.985 17.1134H155.381C159.34 36.5604 176.578 51.2464 197.186 51.2464H222.786V68.3134H197.186C164.247 68.3134 137.453 41.5184 137.453 8.58036C137.453 3.87036 141.276 0.0473633 145.986 0.0473633H273.986C306.387 0.0473633 332.84 25.9804 333.694 58.1764L358.773 125.052L342.79 131.042Z" fill="black"/>
<path d="M86.2496 512.047H69.1836V401.114C69.1836 362.799 97.8216 330.074 135.812 324.988L197.184 316.839V273.114H214.251V324.314C214.251 328.589 211.085 332.207 206.844 332.771L138.065 341.902C108.523 345.853 86.2506 371.308 86.2506 401.115V512.047H86.2496Z" fill="black"/>
<path d="M444.649 512.047H427.582V401.114C427.582 371.307 405.31 345.852 375.759 341.91L306.989 332.779C302.748 332.207 299.582 328.589 299.582 324.314V273.114H316.649V316.839L378.012 324.988C416.011 330.065 444.649 362.799 444.649 401.114V512.047Z" fill="black"/>
<path d="M154.516 426.714H137.449V512.047H154.516V426.714Z" fill="black"/>
<path d="M145.986 443.78H77.7188V460.847H145.986V443.78Z" fill="black"/>
<path d="M376.383 426.714H359.316V512.047H376.383V426.714Z" fill="black"/>
<path d="M436.119 443.78H367.852V460.847H436.119V443.78Z" fill="black"/>
<path d="M256.917 409.648C254.067 409.648 251.404 408.223 249.817 405.851L198.617 329.051L212.816 319.588L256.916 385.73L301.016 319.58L315.215 329.044L264.015 405.844C262.43 408.223 259.767 409.648 256.917 409.648Z" fill="black"/>
<path d="M205.717 426.714C204.207 426.714 202.696 426.313 201.374 425.519C199.241 424.265 197.764 422.14 197.321 419.699L180.254 325.832L197.048 322.786L212.357 406.967L254.222 393.015L259.624 409.194L208.424 426.261C207.535 426.569 206.622 426.714 205.717 426.714Z" fill="black"/>
<path d="M308.12 426.714C307.215 426.714 306.302 426.569 305.423 426.27L254.223 409.203L259.625 393.024L301.49 406.976L316.799 322.795L333.584 325.841L316.517 419.708C316.073 422.14 314.597 424.265 312.472 425.528C311.141 426.313 309.639 426.714 308.12 426.714Z" fill="black"/>
<path d="M265.454 401.114H248.387V469.381H265.454V401.114Z" fill="black"/>
<path d="M227.05 460.847C219.993 460.847 214.25 455.104 214.25 448.047C214.25 440.99 219.993 435.247 227.05 435.247C234.107 435.247 239.85 440.99 239.85 448.047C239.85 455.104 234.107 460.847 227.05 460.847ZM227.05 443.78C224.695 443.78 222.783 445.7 222.783 448.047C222.783 450.394 224.694 452.314 227.05 452.314C229.406 452.314 231.317 450.394 231.317 448.047C231.317 445.7 229.406 443.78 227.05 443.78Z" fill="black"/>
</g>
<defs>
<clipPath id="clip0">
<rect width="512" height="512" fill="white" transform="translate(0.917969 0.0473633)"/>
</clipPath>
</defs>
</svg>
