<svg width="513" height="513" viewBox="0 0 513 513" fill="none" xmlns="http://www.w3.org/2000/svg">
<g clip-path="url(#clip0)">
<path d="M350.648 196.966H359.181C373.321 196.966 384.781 185.506 384.781 171.366C384.781 157.226 373.321 145.766 359.181 145.766H350.648" fill="#8F4F24"/>
<path d="M162.914 196.966H154.381C140.241 196.966 128.781 185.506 128.781 171.366C128.781 157.226 140.241 145.766 154.381 145.766H162.914" fill="#8F4F24"/>
<path d="M162.914 111.632V179.899L164.962 206.523C169.314 257.279 213.995 294.903 264.751 290.551C267.516 290.312 270.264 289.954 272.994 289.467C315.038 281.335 346.244 245.768 348.855 203.024L350.647 179.899V111.632L307.98 86.0322L162.914 111.632Z" fill="#8F4F24"/>
<path d="M205.581 203.963V104.123L162.914 111.632V179.899L164.962 206.523C168.555 249.676 201.8 284.458 244.749 289.979L227.682 267.792C213.398 249.582 205.615 227.114 205.581 203.963Z" fill="#8F4F24"/>
<path d="M307.981 26.299C302.759 15.82 292.041 9.207 280.333 9.232H128.781C128.781 28.082 144.064 43.365 162.914 43.365H128.781C128.781 62.215 144.064 77.498 162.914 77.498H128.781C128.781 96.348 144.064 111.631 162.914 111.631H197.047C238.007 111.631 281.271 96.1 307.98 86.031C319.602 98.293 334.357 107.142 350.647 111.631V68.966C350.648 45.405 331.542 26.299 307.981 26.299Z" fill="black"/>
<path d="M129.207 81.3394C131.153 98.5174 145.625 111.53 162.914 111.632H197.047C225.548 111.632 283.575 93.9684 307.98 86.0324C246.711 87.4834 157.879 87.2274 129.207 81.3394Z" fill="black"/>
<path d="M201.314 205.499C180.151 205.55 162.965 188.432 162.914 167.27C162.914 167.21 162.914 167.159 162.914 167.099V145.766H239.714V167.099C239.765 188.262 222.647 205.448 201.485 205.499C201.425 205.499 201.374 205.499 201.314 205.499Z" fill="#EBEBEB"/>
<path d="M312.248 205.499C291.085 205.55 273.899 188.432 273.848 167.27C273.848 167.21 273.848 167.159 273.848 167.099V145.766H350.648V167.099C350.699 188.262 333.581 205.448 312.419 205.499C312.359 205.499 312.307 205.499 312.248 205.499Z" fill="#EBEBEB"/>
<path d="M256.779 401.766C287.823 401.783 315.889 383.283 328.118 354.747L331.958 346.214L314.465 344.166C305.846 343.125 299.387 335.778 299.446 327.099V282.299H214.113V326.843C214.173 335.521 207.713 342.869 199.094 343.91L182.027 345.958L185.867 354.491C197.959 382.984 225.829 401.569 256.779 401.766Z" fill="#8F4F24"/>
<path d="M376.76 351.163L331.96 345.872L328.12 354.405C311.181 393.803 265.511 412.014 226.113 395.075C207.852 387.224 193.302 372.666 185.443 354.405L181.603 345.872L136.803 351.163C102.9 355.694 77.582 384.622 77.582 418.832V512.699H435.982V418.832C435.981 384.622 410.663 355.694 376.76 351.163Z" fill="#3CACDE"/>
<path d="M77.582 418.832V512.699H111.715V359.782C90.612 371.967 77.608 394.47 77.582 418.832Z" fill="#329AC7"/>
<path d="M145.849 470.032H77.582V512.699H145.849V470.032Z" fill="#8F4F24"/>
<path d="M111.715 470.032H77.582V512.699H111.715V470.032Z" fill="#8F4F24"/>
<path d="M299.45 307.899V282.299H214.117V307.899C246.116 324.966 267.45 324.966 299.45 307.899Z" fill="#8F4F24"/>
<path d="M435.982 470.032H367.715V512.699H435.982V470.032Z" fill="#8F4F24"/>
<path d="M265.314 222.566H239.714C237.265 222.566 234.935 221.516 233.314 219.682C231.693 217.847 230.942 215.407 231.24 212.975L239.773 144.708L256.703 146.824L249.381 205.499H265.313V222.566H265.314Z" fill="black"/>
<path d="M241.166 256.699H239.715V239.632H241.166C254.452 239.623 266.945 234.452 276.349 225.057L288.415 237.132C275.794 249.744 259.018 256.69 241.166 256.699Z" fill="black"/>
<path d="M359.181 205.499H350.648V188.432H359.181C368.593 188.432 376.248 180.778 376.248 171.365C376.248 161.953 368.594 154.298 359.181 154.298H350.648V137.231H359.181C378.006 137.231 393.314 152.54 393.314 171.364C393.314 190.188 378.006 205.499 359.181 205.499Z" fill="black"/>
<path d="M162.916 205.499H154.383C135.558 205.499 120.25 190.19 120.25 171.366C120.25 152.542 135.559 137.233 154.383 137.233H162.916V154.299H154.383C144.971 154.299 137.316 161.953 137.316 171.366C137.316 180.778 144.97 188.433 154.383 188.433H162.916V205.499Z" fill="black"/>
<path d="M256.695 299.434C233.006 299.434 210.291 291.174 191.961 275.737C171.37 258.397 158.758 234.077 156.462 207.257L154.405 180.556L154.379 111.632H171.446V179.899L173.468 205.866C177.402 251.784 218.174 286.02 264.015 282.043C266.532 281.83 269.024 281.497 271.507 281.062C309.6 273.689 337.956 241.373 340.328 202.496L342.129 179.234L342.112 86.0332H359.18V179.899L357.362 203.681C354.529 250.188 320.498 288.963 274.614 297.838C271.499 298.393 268.487 298.794 265.475 299.05C262.531 299.306 259.613 299.434 256.695 299.434Z" fill="black"/>
<path d="M350.65 120.166C349.891 120.166 349.131 120.064 348.38 119.859C332.44 115.473 317.839 107.247 305.841 95.9402C272.698 108.228 234.391 120.166 197.05 120.166H162.917C139.391 120.166 120.25 101.026 120.25 77.4992C120.25 72.7892 124.073 68.9662 128.783 68.9662H128.8C123.441 61.8322 120.25 52.9662 120.25 43.3662C120.25 38.6562 124.073 34.8332 128.783 34.8332H128.8C123.441 27.6992 120.25 18.8332 120.25 9.23322C120.25 4.52222 124.073 0.699219 128.783 0.699219H280.335C280.369 0.699219 280.403 0.699219 280.437 0.699219C293.698 0.699219 305.764 7.21822 313.017 18.0132C338.89 20.5472 359.182 42.4352 359.182 68.9662V111.633C359.182 114.295 357.936 116.804 355.82 118.417C354.319 119.568 352.501 120.166 350.65 120.166ZM138.776 86.0322C142.3 95.9652 151.789 103.099 162.917 103.099H197.05C238.539 103.099 283.407 86.1772 304.971 78.0452C308.171 76.8252 311.815 77.6702 314.17 80.1612C322.097 88.5152 331.612 95.1282 342.108 99.6262V68.9662C342.108 50.1412 326.799 34.8332 307.975 34.8332C304.741 34.8332 301.78 33.0072 300.338 30.1062C296.541 22.4772 288.622 17.8692 280.361 17.7672H138.776C142.3 27.7002 151.789 34.8342 162.917 34.8342C167.627 34.8342 171.45 38.6572 171.45 43.3672C171.45 48.0772 167.627 51.9002 162.917 51.9002H138.776C142.3 61.8332 151.789 68.9672 162.917 68.9672C167.627 68.9672 171.45 72.7902 171.45 77.5002C171.45 82.2102 167.627 86.0332 162.917 86.0332H138.776V86.0322Z" fill="black"/>
<path d="M201.231 214.032C188.755 214.032 177.022 209.185 168.181 200.387C159.306 191.555 154.417 179.805 154.383 167.286V145.765C154.383 141.055 158.206 137.232 162.916 137.232H239.716C244.426 137.232 248.249 141.055 248.249 145.765V167.099C248.275 179.592 243.428 191.368 234.604 200.234C225.772 209.109 214.022 213.998 201.503 214.032H201.332C201.299 214.032 201.265 214.032 201.231 214.032ZM171.45 154.299V167.099C171.484 183.645 184.839 196.966 201.231 196.966C201.257 196.966 201.291 196.966 201.316 196.966H201.487C217.888 196.932 231.217 183.543 231.183 167.116V154.299H171.45Z" fill="black"/>
<path d="M312.161 214.032C286.382 214.032 265.372 193.083 265.312 167.286V145.765C265.312 141.055 269.127 137.232 273.846 137.232H350.646C355.365 137.232 359.178 141.055 359.178 145.765V167.099C359.212 179.592 354.366 191.368 345.534 200.234C336.702 209.109 324.952 213.998 312.433 214.032H312.254C312.23 214.032 312.195 214.032 312.161 214.032ZM282.38 154.299V167.099C282.423 183.645 295.769 196.966 312.161 196.966C312.195 196.966 312.212 196.966 312.246 196.966H312.424C320.361 196.949 327.836 193.834 333.443 188.202C339.058 182.561 342.138 175.078 342.121 167.125V154.299H282.38Z" fill="black"/>
<path d="M273.848 137.232H239.715V154.299H273.848V137.232Z" fill="black"/>
<path d="M205.583 179.899C215.008 179.899 222.65 172.258 222.65 162.832C222.65 153.406 215.008 145.765 205.583 145.765C196.157 145.765 188.516 153.406 188.516 162.832C188.516 172.258 196.157 179.899 205.583 179.899Z" fill="black"/>
<path d="M307.981 179.899C317.407 179.899 325.048 172.258 325.048 162.832C325.048 153.406 317.407 145.765 307.981 145.765C298.555 145.765 290.914 153.406 290.914 162.832C290.914 172.258 298.555 179.899 307.981 179.899Z" fill="black"/>
<path d="M86.1129 512.699H69.0469V418.832C69.0469 380.517 97.6849 347.792 135.675 342.706L198.096 335.35C202.38 334.829 205.614 331.169 205.58 326.817V282.299H222.647V326.758C222.741 339.729 213.056 350.737 200.119 352.298L137.8 359.637C108.386 363.571 86.1139 389.026 86.1139 418.833V512.699H86.1129Z" fill="black"/>
<path d="M444.516 512.699H427.449V418.832C427.415 389.076 405.134 363.647 375.626 359.705L313.469 352.383C300.498 350.813 290.822 339.805 290.915 326.774V282.299H307.983V326.843C307.949 331.255 311.174 334.916 315.492 335.436L377.76 342.775C415.827 347.861 444.465 380.544 444.516 418.824V512.699Z" fill="black"/>
<path d="M256.826 410.299C256.792 410.299 256.758 410.299 256.732 410.299C222.24 410.299 191.187 389.819 177.602 358.109L172.141 345.403L187.825 338.67L193.286 351.385C204.183 376.806 229.083 393.232 256.74 393.232C256.766 393.232 256.791 393.232 256.817 393.232C284.474 393.232 309.382 376.805 320.279 351.385L325.74 338.67L341.424 345.403L335.963 358.118C322.379 389.819 291.309 410.299 256.826 410.299Z" fill="black"/>
<path d="M154.38 444.432H137.312V512.699H154.38V444.432Z" fill="black"/>
<path d="M145.849 461.499H77.582V478.566H145.849V461.499Z" fill="black"/>
<path d="M376.247 444.432H359.18V512.699H376.247V444.432Z" fill="black"/>
<path d="M435.982 461.499H367.715V478.566H435.982V461.499Z" fill="black"/>
</g>
<defs>
<clipPath id="clip0">
<rect width="512" height="512" fill="white" transform="translate(0.78125 0.699219)"/>
</clipPath>
</defs>
</svg>
