<svg width="513" height="513" viewBox="0 0 513 513" fill="none" xmlns="http://www.w3.org/2000/svg">
<g clip-path="url(#clip0)">
<path d="M256.786 415.596C288.901 415.614 317.935 396.475 330.585 366.956L334.822 357.157L325.112 355.833C316.267 354.677 309.673 347.103 309.752 338.178V300.837H203.82V338.707C203.899 347.632 197.305 355.206 188.46 356.362L178.75 357.686L182.987 367.485C195.796 396.802 224.795 415.702 256.786 415.596Z" fill="#FEDAC6"/>
<path d="M310.812 344.975C310.106 343.112 309.744 341.135 309.753 339.149V300.837H203.821V338.707C203.83 340.693 203.468 342.671 202.762 344.533C236.651 361.88 276.781 362.047 310.812 344.975Z" fill="#F5C4B0"/>
<path d="M396.173 365.72L334.821 357.51L330.584 367.309C313.061 408.066 265.816 426.904 225.059 409.381C206.168 401.26 191.117 386.2 182.987 367.309L178.75 357.51L117.398 365.72C91.1012 369.216 71.4422 391.629 71.4062 418.156V512.699H442.165V418.156C442.129 391.629 422.47 369.215 396.173 365.72Z" fill="#E56B2E"/>
<path d="M106.716 368.368C85.6092 375.827 71.4673 395.76 71.4062 418.156V512.699H106.716V368.368Z" fill="#D65B25"/>
<path d="M353.887 150.768H345.059V203.734H353.887C368.514 203.734 380.37 191.879 380.37 177.251C380.37 162.623 368.515 150.768 353.887 150.768Z" fill="#FEDAC6"/>
<path d="M133.199 177.251C133.199 191.878 145.054 203.734 159.682 203.734H168.51V150.768H159.682C145.054 150.768 133.199 162.623 133.199 177.251Z" fill="#F5C4B0"/>
<path d="M309.751 80.1472H213.177C209.399 80.1212 205.621 79.8202 201.878 79.2642C192.168 109.984 159.682 124.285 159.682 124.285V237.19C159.567 250.167 164.211 262.728 172.747 272.5L210.882 316.108C217.573 323.726 227.222 328.105 237.365 328.114H275.853C285.996 328.105 295.644 323.727 302.336 316.108L340.471 272.5C349.007 262.728 353.651 250.166 353.536 237.19V124.285C320.785 115.458 309.751 80.1472 309.751 80.1472Z" fill="#FEDAC6"/>
<path d="M194.992 93.8301C186.138 106.939 173.947 117.453 159.682 124.285V237.19C159.567 250.167 164.211 262.728 172.747 272.5L194.993 297.394V93.8301H194.992Z" fill="#F5C4B0"/>
<path d="M353.888 80.1474C353.888 41.1474 322.268 9.52637 283.267 9.52637H133.199C138.231 49.8684 172.526 80.1474 213.177 80.1474H353.888Z" fill="#FECB66"/>
<path d="M201.876 79.2652C187.602 77.2882 174.122 71.4882 162.858 62.4932H161.887C160.43 68.2662 159.689 74.1982 159.68 80.1482V124.286C159.681 124.285 192.166 109.985 201.876 79.2652Z" fill="#F5AD76"/>
<path d="M309.75 80.1475C309.75 80.1475 320.784 115.457 353.888 124.285V80.1475H309.75Z" fill="#F5AD76"/>
<path d="M133.199 9.52734C138.231 49.8693 172.526 80.1483 213.177 80.1483H318.578C210.44 66.6413 159.682 27.1823 141.144 9.52734H133.199Z" fill="#F5AD76"/>
<path d="M80.2331 512.699H62.5781V418.156C62.5521 387.021 85.8391 360.627 116.744 356.787L187.276 347.262C191.725 346.688 195.027 342.892 194.991 338.434V309.665H212.646V338.355C212.761 351.649 202.856 363.037 189.597 364.758L119.012 374.292C96.8461 377.055 80.2151 395.902 80.2321 418.147V512.699H80.2331Z" fill="black"/>
<path d="M450.992 512.699H433.337V418.156C433.355 395.902 416.723 377.055 394.646 374.301L323.928 364.758C310.713 363.037 300.809 351.649 300.923 338.275V309.665H318.578V338.355C318.534 342.892 321.835 346.679 326.258 347.262L396.914 356.796C427.731 360.636 451.018 387.022 450.992 418.165V512.699Z" fill="black"/>
<path d="M353.887 212.561H345.059V194.906H353.887C363.624 194.906 371.542 186.988 371.542 177.251C371.542 167.514 363.624 159.596 353.887 159.596H345.059V141.941H353.887C373.361 141.941 389.197 157.778 389.197 177.251C389.197 196.724 373.361 212.561 353.887 212.561Z" fill="black"/>
<path d="M168.509 212.561H159.681C140.207 212.561 124.371 196.724 124.371 177.251C124.371 157.778 140.208 141.941 159.681 141.941H168.509V159.596H159.681C149.944 159.596 142.026 167.514 142.026 177.251C142.026 186.988 149.944 194.906 159.681 194.906H168.509V212.561Z" fill="black"/>
<path d="M256.828 424.423C256.793 424.423 256.757 424.423 256.731 424.423C221.05 424.423 188.926 403.237 174.873 370.433L169.223 357.289L185.448 350.324L191.098 363.477C202.371 389.774 228.13 406.767 256.74 406.767C256.766 406.767 256.793 406.767 256.819 406.767C285.429 406.767 311.197 389.774 322.479 363.477L328.129 350.324L344.354 357.289L338.704 370.442C324.642 403.237 292.5 424.423 256.828 424.423Z" fill="black"/>
<path d="M265.612 221.742H239.129C236.595 221.742 234.186 220.656 232.508 218.758C230.83 216.86 230.054 214.335 230.363 211.82L239.191 141.199L256.705 143.388L249.122 204.086H265.612V221.742Z" fill="black"/>
<path d="M257.905 256.699C257.746 256.699 257.587 256.699 257.428 256.699H230.301V239.044H257.49C271.817 238.982 284.75 233.765 294.725 223.931L307.119 236.501C293.913 249.531 276.452 256.699 257.905 256.699Z" fill="black"/>
<path d="M275.861 336.942H237.364C224.688 336.933 212.62 331.469 204.252 321.944L166.099 278.318C156.133 266.895 150.721 252.259 150.854 237.12V80.1471C150.863 73.4651 151.693 66.8001 153.326 60.3291L170.443 64.6461C169.172 69.7131 168.519 74.9391 168.51 80.1561V237.19C168.413 248.083 172.279 258.535 179.394 266.701L217.52 310.3C222.525 316.003 229.764 319.278 237.364 319.286H275.843C283.426 319.277 290.673 316.002 295.696 310.282L333.814 266.691C340.929 258.534 344.796 248.082 344.69 237.269V80.1471H362.345V237.19C362.486 252.25 357.075 266.877 347.109 278.3L308.965 321.917C300.587 331.469 288.52 336.933 275.861 336.942Z" fill="black"/>
<path d="M203.819 177.604C213.57 177.604 221.474 169.7 221.474 159.949C221.474 150.199 213.57 142.294 203.819 142.294C194.068 142.294 186.164 150.199 186.164 159.949C186.164 169.7 194.068 177.604 203.819 177.604Z" fill="black"/>
<path d="M300.925 177.604C310.675 177.604 318.58 169.7 318.58 159.949C318.58 150.199 310.675 142.294 300.925 142.294C291.174 142.294 283.27 150.199 283.27 159.949C283.27 169.7 291.174 177.604 300.925 177.604Z" fill="black"/>
<path d="M353.886 88.9752H213.175C168.154 88.9752 130.01 55.2892 124.44 10.6212C124.122 8.11422 124.908 5.58922 126.585 3.68322C128.253 1.78522 130.663 0.699219 133.197 0.699219H283.266C327.077 0.699219 362.714 36.3452 362.714 80.1472C362.714 85.0202 358.768 88.9752 353.886 88.9752ZM143.905 18.3542C152.265 49.1532 180.46 71.3202 213.175 71.3202H344.432C340.133 41.4122 314.348 18.3542 283.266 18.3542H143.905Z" fill="black"/>
<path d="M163.213 132.38L156.151 116.199L159.682 124.285L156.133 116.199C156.477 116.049 190.066 100.848 195.116 69.8984L212.542 72.7324C205.92 113.295 164.952 131.621 163.213 132.38Z" fill="black"/>
<path d="M351.61 132.813C314.243 122.847 301.831 84.4114 301.328 82.7785L318.162 77.4814C318.268 77.7904 328.314 108.325 356.165 115.749L351.61 132.813Z" fill="black"/>
</g>
<defs>
<clipPath id="clip0">
<rect width="512" height="512" fill="white" transform="translate(0.785156 0.699219)"/>
</clipPath>
</defs>
</svg>
