<svg width="513" height="513" viewBox="0 0 513 513" fill="none" xmlns="http://www.w3.org/2000/svg">
<g clip-path="url(#clip0)">
<path d="M256.787 401.778C287.831 401.795 315.897 383.295 328.126 354.759L331.966 346.226L314.473 344.178C305.854 343.137 299.395 335.79 299.454 327.111V282.311H214.121V326.855C214.181 335.533 207.721 342.881 199.102 343.922L182.035 345.97L185.875 354.503C197.967 382.996 225.837 401.581 256.787 401.778Z" fill="#FEDAC6"/>
<path d="M376.768 351.175L331.968 345.884L328.128 354.417C311.189 393.815 265.519 412.026 226.121 395.087C207.86 387.236 193.31 372.678 185.451 354.417L181.611 345.884L136.811 351.175C102.908 355.706 77.5898 384.634 77.5898 418.844V512.711H435.99V418.844C435.989 384.634 410.671 355.706 376.768 351.175Z" fill="#FECB66"/>
<path d="M77.5898 418.844V512.711H111.723V359.794C90.6198 371.979 77.6158 394.482 77.5898 418.844Z" fill="#F5AD76"/>
<path d="M145.857 470.044H77.5898V512.711H145.857V470.044Z" fill="#FEDAC6"/>
<path d="M111.723 470.044H77.5898V512.711H111.723V470.044Z" fill="#F5C4B0"/>
<path d="M299.458 316.444V282.311H214.125V316.444C246.124 333.511 267.458 333.511 299.458 316.444Z" fill="#F5C4B0"/>
<path d="M435.99 470.044H367.723V512.711H435.99V470.044Z" fill="#FEDAC6"/>
<path d="M359.189 145.778H350.656V196.978H359.189C373.329 196.978 384.789 185.518 384.789 171.378C384.789 157.238 373.329 145.778 359.189 145.778Z" fill="#F5C4B0"/>
<path d="M154.389 145.778C140.249 145.778 128.789 157.238 128.789 171.378C128.789 185.518 140.249 196.978 154.389 196.978H162.922V145.778H154.389Z" fill="#F5C4B0"/>
<path d="M162.922 86.0439V188.444L164.97 215.068C169.322 265.824 214.003 303.448 264.759 299.096C267.524 298.857 270.272 298.499 273.002 298.012C315.046 289.88 346.252 254.313 348.863 211.569L350.655 188.444V86.0439H162.922Z" fill="#FEDAC6"/>
<path d="M197.054 191.431V86.0439H162.921V205.511C162.315 243.868 186.405 278.283 222.654 290.844L205.587 248.178C196.371 229.831 197.054 211.996 197.054 191.431Z" fill="#F5C4B0"/>
<path d="M201.322 205.511C180.159 205.562 162.973 188.444 162.922 167.282C162.922 167.222 162.922 167.171 162.922 167.111V145.778H239.722V167.111C239.773 188.274 222.655 205.46 201.493 205.511C201.433 205.511 201.382 205.511 201.322 205.511Z" fill="#EBEBEB"/>
<path d="M312.255 205.511C291.092 205.562 273.906 188.444 273.855 167.282C273.855 167.222 273.855 167.171 273.855 167.111V145.778H350.655V167.111C350.706 188.274 333.588 205.46 312.426 205.511C312.366 205.511 312.314 205.511 312.255 205.511Z" fill="#EBEBEB"/>
<path d="M160.959 145.778L182.122 101.063C185.697 92.6661 195.246 88.5701 203.797 91.7621C237.964 104.562 275.614 104.562 309.781 91.7621C318.331 88.5711 327.88 92.6671 331.456 101.063L352.363 145.778H367.723V120.178C367.721 58.9081 318.057 9.24414 256.788 9.24414C195.519 9.24414 145.855 58.9081 145.855 120.178V145.778H160.959Z" fill="#A15D30"/>
<path d="M145.855 120.178V145.778H160.959L182.122 101.063C184.819 94.791 190.997 90.729 197.823 90.738C198.335 66.35 202.772 42.209 210.964 19.229C171.344 37.2 145.889 76.675 145.855 120.178Z" fill="#8F4F24"/>
<path d="M265.322 222.578H231.189C228.561 222.578 226.078 221.366 224.465 219.293C222.852 217.219 222.272 214.523 222.912 211.971L239.979 143.704L256.534 147.843L242.12 205.511H265.322V222.578Z" fill="black"/>
<path d="M241.174 256.711H239.723V239.644H241.174C254.46 239.635 266.953 234.464 276.357 225.069L288.423 237.144C275.802 249.756 259.026 256.702 241.174 256.711Z" fill="black"/>
<path d="M359.189 205.511H350.656V188.444H359.189C368.601 188.444 376.256 180.79 376.256 171.377C376.256 161.965 368.602 154.31 359.189 154.31H350.656V137.243H359.189C378.014 137.243 393.322 152.552 393.322 171.376C393.322 190.2 378.014 205.511 359.189 205.511Z" fill="black"/>
<path d="M162.924 205.511H154.391C135.566 205.511 120.258 190.202 120.258 171.378C120.258 152.554 135.567 137.245 154.391 137.245H162.924V154.311H154.391C144.979 154.311 137.324 161.965 137.324 171.378C137.324 180.79 144.978 188.445 154.391 188.445H162.924V205.511Z" fill="black"/>
<path d="M342.812 149.148L323.612 104.433C321.811 100.192 317.05 98.1441 312.766 99.7651C276.679 113.29 236.905 113.29 200.8 99.7651C196.55 98.1861 191.772 100.209 189.971 104.416L170.762 149.156L155.078 142.423L174.278 97.7081C179.645 85.1041 193.93 78.9941 206.781 83.7821C239.028 95.8741 274.527 95.8741 306.792 83.7821C319.635 78.9951 333.937 85.1051 339.313 97.7341L358.504 142.423L342.812 149.148Z" fill="black"/>
<path d="M201.239 214.044C188.763 214.044 177.03 209.197 168.189 200.399C159.314 191.567 154.425 179.817 154.391 167.298V145.777C154.391 141.067 158.214 137.244 162.924 137.244H239.724C244.434 137.244 248.257 141.067 248.257 145.777V167.111C248.283 179.604 243.436 191.38 234.612 200.246C225.78 209.121 214.03 214.01 201.511 214.044H201.34C201.307 214.044 201.273 214.044 201.239 214.044ZM171.458 154.311V167.111C171.492 183.657 184.847 196.978 201.239 196.978C201.265 196.978 201.299 196.978 201.324 196.978H201.495C217.896 196.944 231.225 183.555 231.191 167.128V154.311H171.458Z" fill="black"/>
<path d="M312.168 214.044C286.389 214.044 265.38 193.095 265.32 167.298V145.777C265.32 141.067 269.134 137.244 273.853 137.244H350.653C355.372 137.244 359.186 141.067 359.186 145.777V167.111C359.22 179.604 354.373 191.38 345.541 200.246C336.709 209.121 324.959 214.01 312.44 214.044H312.261C312.237 214.044 312.202 214.044 312.168 214.044ZM282.387 154.311V167.111C282.43 183.657 295.776 196.978 312.168 196.978C312.202 196.978 312.219 196.978 312.253 196.978H312.432C320.368 196.961 327.843 193.846 333.45 188.214C339.065 182.573 342.145 175.09 342.128 167.137V154.311H282.387Z" fill="black"/>
<path d="M273.856 137.244H239.723V154.311H273.856V137.244Z" fill="black"/>
<path d="M197.055 179.911C206.481 179.911 214.122 172.27 214.122 162.844C214.122 153.418 206.481 145.777 197.055 145.777C187.629 145.777 179.988 153.418 179.988 162.844C179.988 172.27 187.629 179.911 197.055 179.911Z" fill="black"/>
<path d="M307.989 179.911C317.415 179.911 325.056 172.27 325.056 162.844C325.056 153.418 317.415 145.777 307.989 145.777C298.563 145.777 290.922 153.418 290.922 162.844C290.922 172.27 298.563 179.911 307.989 179.911Z" fill="black"/>
<path d="M256.791 307.911C200.326 307.911 154.391 261.976 154.391 205.511V145.778H171.458V205.511C171.458 252.564 209.739 290.844 256.791 290.844C303.843 290.844 342.124 252.563 342.124 205.511V145.778H359.191V205.511C359.191 261.976 313.256 307.911 256.791 307.911Z" fill="black"/>
<path d="M376.254 145.778H359.187V120.178C359.187 63.7129 313.252 17.7779 256.787 17.7779C200.322 17.7779 154.387 63.7129 154.387 120.178V145.778H137.32V120.178C137.32 54.2999 190.91 0.710938 256.787 0.710938C322.664 0.710938 376.254 54.2999 376.254 120.178V145.778Z" fill="black"/>
<path d="M86.1207 512.711H69.0547V418.844C69.0547 380.529 97.6927 347.804 135.683 342.718L198.104 335.362C202.388 334.841 205.622 331.181 205.588 326.829V290.844H222.655V326.769C222.749 339.74 213.064 350.748 200.127 352.309L137.808 359.648C108.394 363.582 86.1217 389.037 86.1217 418.844V512.711H86.1207Z" fill="black"/>
<path d="M444.524 512.711H427.457V418.844C427.423 389.088 405.142 363.659 375.634 359.717L313.477 352.395C300.506 350.825 290.83 339.817 290.923 326.786V290.844H307.991V326.855C307.957 331.267 311.182 334.928 315.5 335.448L377.768 342.787C415.835 347.873 444.473 380.556 444.524 418.836V512.711Z" fill="black"/>
<path d="M256.833 410.311C256.799 410.311 256.765 410.311 256.739 410.311C222.247 410.311 191.194 389.831 177.609 358.121L172.148 345.415L187.832 338.682L193.293 351.397C204.19 376.818 229.09 393.244 256.747 393.244C256.773 393.244 256.798 393.244 256.824 393.244C284.481 393.244 309.389 376.817 320.295 351.397L325.756 338.682L341.44 345.415L335.979 358.13C322.386 389.831 291.316 410.311 256.833 410.311Z" fill="black"/>
<path d="M154.387 444.444H137.32V512.711H154.387V444.444Z" fill="black"/>
<path d="M145.857 461.511H77.5898V478.578H145.857V461.511Z" fill="black"/>
<path d="M376.255 444.444H359.188V512.711H376.255V444.444Z" fill="black"/>
<path d="M435.99 461.511H367.723V478.578H435.99V461.511Z" fill="black"/>
</g>
<defs>
<clipPath id="clip0">
<rect width="512" height="512" fill="white" transform="translate(0.789062 0.710938)"/>
</clipPath>
</defs>
</svg>
