<svg width="513" height="513" viewBox="0 0 513 513" fill="none" xmlns="http://www.w3.org/2000/svg">
<g clip-path="url(#clip0)">
<path d="M376.257 343.068L339.82 338.545L323.777 336.582L256.79 487.111L189.889 336.583L173.846 338.546L137.323 343.069C103.181 347.37 77.5808 376.409 77.5898 410.824V512.711H435.99V410.823C435.999 376.408 410.399 347.369 376.257 343.068Z" fill="#215280"/>
<path d="M197.054 418.844L188.52 452.978L256.787 487.111L189.886 336.498L173.843 338.546L137.32 418.844H197.054Z" fill="#3E76A3"/>
<path d="M316.522 418.844H376.256L339.733 338.546L323.69 336.498L256.789 487.111L325.056 452.978L316.522 418.844Z" fill="#3E76A3"/>
<path d="M256.789 487.111L290.922 410.311H222.656L256.789 487.111Z" fill="#EBEBEB"/>
<path d="M314.391 335.388C305.806 334.304 299.389 326.974 299.458 318.321V282.311H214.125V318.407C214.193 327.06 207.776 334.39 199.192 335.474L189.891 336.669L222.659 410.312H290.926L323.694 336.584L314.391 335.388Z" fill="#FFE2C2"/>
<path d="M299.458 321.052V282.311H214.125V321.052C246.124 337.692 267.458 337.692 299.458 321.052Z" fill="#FEDAC6"/>
<path d="M376.255 162.844V97.9061C376.161 70.1731 359.299 45.2471 333.588 34.8451C317.195 18.4611 294.975 9.26212 271.807 9.24512H257.215C202.26 9.24412 120.255 51.9111 128.788 171.378C131.886 220.974 149.712 268.513 179.988 307.911L188.521 265.244H325.054L333.588 307.911C384.788 256.711 376.255 162.844 376.255 162.844Z" fill="black"/>
<path d="M171.457 205.511H162.924C148.784 205.511 137.324 194.051 137.324 179.911C137.324 165.771 148.784 154.311 162.924 154.311H171.457V205.511Z" fill="#F2D2C1"/>
<path d="M359.192 145.778H342.125V196.978H359.192C373.332 196.978 384.792 185.518 384.792 171.378C384.792 157.238 373.332 145.778 359.192 145.778Z" fill="#FFE2C2"/>
<path d="M350.658 137.244L345.965 214.044C343.866 261.771 304.561 299.377 256.792 299.377C209.022 299.377 169.718 261.771 167.619 214.044L162.926 154.311L316.526 58.9941L350.658 137.244Z" fill="#FFDCBC"/>
<path d="M351.252 145.778C317.119 94.5782 317.119 60.4451 317.119 60.4451C317.119 60.4451 223.252 145.778 129.386 171.378C120.852 51.9112 202.857 9.24415 257.897 9.24415H272.404C295.581 9.23515 317.81 18.4511 334.185 34.8441C359.896 45.2461 376.758 70.1721 376.852 97.9051V154.311" fill="black"/>
<path d="M129.385 171.378C129.385 171.378 273.854 111.645 307.988 60.4448C307.988 60.4448 205.588 120.178 128.788 120.178C123.856 136.92 124.061 154.755 129.385 171.378Z" fill="black"/>
<path d="M77.5898 409.628V512.711H111.723V350.578C90.6198 362.763 77.6158 385.266 77.5898 409.628Z" fill="#1C496E"/>
<path d="M307.989 179.911C317.415 179.911 325.056 172.27 325.056 162.844C325.056 153.418 317.415 145.777 307.989 145.777C298.563 145.777 290.922 153.418 290.922 162.844C290.922 172.27 298.563 179.911 307.989 179.911Z" fill="black"/>
<path d="M252.052 221.144L226.452 204.077C224.319 202.66 222.945 200.356 222.697 197.822C222.45 195.279 223.346 192.753 225.155 190.944L250.755 165.344L262.821 177.41L244.585 195.654L261.524 206.944L252.052 221.144Z" fill="black"/>
<path d="M359.189 205.511H350.656V188.444H359.189C368.601 188.444 376.256 180.79 376.256 171.377C376.256 161.965 368.602 154.31 359.189 154.31H350.656V137.243H359.189C378.014 137.243 393.322 152.552 393.322 171.376C393.322 190.2 378.014 205.511 359.189 205.511Z" fill="black"/>
<path d="M256.788 307.911C204.317 307.911 161.402 266.84 159.09 214.42L154.414 154.977L171.429 153.646L176.122 213.379C178.051 256.942 213.472 290.845 256.788 290.845C300.104 290.845 335.534 256.942 337.437 213.67L342.139 136.725L359.172 137.766L354.479 214.566C352.182 266.849 309.259 307.911 256.788 307.911Z" fill="black"/>
<path d="M246.26 248.178C246.243 248.178 246.217 248.178 246.2 248.178H239.723V231.111H246.208C246.225 231.111 246.242 231.111 246.251 231.111C257.413 231.111 268.583 228.474 278.575 223.474L286.212 238.74C273.865 244.918 260.05 248.178 246.26 248.178Z" fill="black"/>
<path d="M128.788 179.911C127.039 179.911 125.306 179.373 123.856 178.341C121.774 176.865 120.46 174.535 120.281 171.984C116.518 119.291 129.804 75.0279 158.707 43.9839C183.93 16.8899 220.598 0.710938 256.788 0.710938H271.38C296.263 0.889938 320.532 10.3879 338.392 27.5999C366.543 39.7169 384.694 67.1089 384.796 97.8719V154.311H367.729V97.9059C367.644 73.5519 352.992 51.8939 330.396 42.7549C329.338 42.3279 328.374 41.6879 327.563 40.8779C312.792 26.1069 291.936 17.8379 271.422 17.7699H256.788C225.249 17.7699 193.257 31.9179 171.19 55.6069C147.527 81.0279 135.717 116.987 136.784 160.106C224.199 132.218 309.899 54.9399 310.778 54.1299C313.278 51.8519 316.879 51.2799 319.968 52.6369C323.066 54.0109 325.054 57.0659 325.054 60.4449C325.054 60.7179 325.762 93.0589 357.754 141.042L343.555 150.505C322.239 118.531 313.697 92.7769 310.275 77.1179C281.774 100.969 207.107 158.859 131.041 179.603C130.29 179.809 129.539 179.911 128.788 179.911Z" fill="black"/>
<path d="M205.59 179.911C215.016 179.911 222.657 172.27 222.657 162.844C222.657 153.418 215.016 145.777 205.59 145.777C196.165 145.777 188.523 153.418 188.523 162.844C188.523 172.27 196.165 179.911 205.59 179.911Z" fill="black"/>
<path d="M333.587 316.444C332.759 316.444 331.932 316.325 331.112 316.077C328.1 315.172 325.838 312.672 325.224 309.583L316.691 266.916L333.425 263.562L338.485 288.846C367.268 248.133 367.72 189.1 367.72 188.443H384.787C384.787 191.72 384.266 269.296 339.62 313.943C337.999 315.565 335.823 316.444 333.587 316.444Z" fill="black"/>
<path d="M179.989 316.444C177.369 316.444 174.86 315.241 173.222 313.107C141.794 272.207 123.481 223.379 120.273 171.906L137.306 170.839C139.9 212.405 153.033 252.11 175.51 286.79L180.152 263.562L196.886 266.916L188.353 309.583C187.696 312.868 185.179 315.454 181.927 316.213C181.278 316.368 180.629 316.444 179.989 316.444Z" fill="black"/>
<path d="M162.924 205.511H154.391C135.566 205.511 120.258 190.202 120.258 171.378H137.325C137.325 180.79 144.979 188.445 154.392 188.445H162.925V205.511H162.924Z" fill="black"/>
<path d="M256.789 495.644C253.418 495.644 250.363 493.664 248.99 490.575L180.723 336.975L196.313 330.037L256.789 466.102L317.256 330.047L332.855 336.985L264.588 490.585C263.215 493.665 260.16 495.644 256.789 495.644Z" fill="black"/>
<path d="M86.1207 512.711H69.0547V410.832C69.0457 372.21 97.9317 339.434 136.255 334.604L198.053 326.924C202.328 326.386 205.537 322.717 205.511 318.391V282.311H222.578V318.322C222.68 331.241 213.046 342.249 200.178 343.854L138.388 351.534C108.59 355.28 86.1207 380.778 86.1297 410.824V512.711H86.1207Z" fill="black"/>
<path d="M444.524 512.711H427.457V410.832C427.466 380.786 404.997 355.289 375.19 351.542L313.426 343.862C300.541 342.258 290.907 331.241 291.009 318.262V282.311H308.076V318.322C308.042 322.717 311.25 326.386 315.534 326.924L377.307 334.604C415.639 339.425 444.533 372.202 444.524 410.832V512.711Z" fill="black"/>
<path d="M252.974 494.748L184.707 460.615C181.132 458.823 179.271 454.787 180.244 450.913L186.123 427.378H137.321C134.437 427.378 131.74 425.919 130.17 423.495C128.6 421.072 128.352 418.017 129.53 415.38L163.663 338.58L179.253 345.518L150.453 410.312H197.054C199.682 410.312 202.165 411.524 203.778 413.597C205.391 415.662 205.971 418.367 205.331 420.91L198.453 448.404L260.601 479.482L252.974 494.748Z" fill="black"/>
<path d="M265.325 487.111H248.258V512.711H265.325V487.111Z" fill="black"/>
<path d="M260.602 494.748L252.965 479.482L315.105 448.404L308.236 420.91C307.596 418.359 308.168 415.662 309.789 413.597C311.41 411.523 313.894 410.312 316.522 410.312H363.123L334.323 345.51L349.922 338.572L384.055 415.372C385.233 418.017 384.985 421.064 383.415 423.487C381.845 425.91 379.148 427.378 376.256 427.378H327.454L333.325 450.913C334.298 454.787 332.438 458.823 328.871 460.615L260.602 494.748Z" fill="black"/>
<path d="M290.923 401.778H222.656V418.845H290.923V401.778Z" fill="black"/>
</g>
<defs>
<clipPath id="clip0">
<rect width="512" height="512" fill="white" transform="translate(0.789062 0.710938)"/>
</clipPath>
</defs>
</svg>
