<svg width="513" height="513" viewBox="0 0 513 513" fill="none" xmlns="http://www.w3.org/2000/svg">
<g clip-path="url(#clip0)">
<path d="M376.253 343.056L339.816 338.533L323.773 336.57L256.786 487.099L189.885 336.571L173.842 338.534L137.319 343.057C103.177 347.358 77.5769 376.397 77.5859 410.812V512.699H435.986V410.811C435.995 376.396 410.395 347.357 376.253 343.056Z" fill="#215280"/>
<path d="M197.05 418.832L188.516 452.966L256.783 487.099L189.882 336.486L173.839 338.534L137.316 418.832H197.05Z" fill="#3E76A3"/>
<path d="M316.518 418.832H376.252L339.729 338.534L323.686 336.486L256.785 487.099L325.052 452.966L316.518 418.832Z" fill="#3E76A3"/>
<path d="M256.785 487.099L290.918 410.299H222.652L256.785 487.099Z" fill="#EBEBEB"/>
<path d="M314.387 335.376C305.802 334.292 299.385 326.962 299.454 318.309V282.299H214.121V318.395C214.189 327.048 207.772 334.378 199.188 335.462L189.887 336.657L222.655 410.3H290.922L323.69 336.572L314.387 335.376Z" fill="#FFE2C2"/>
<path d="M299.454 321.04V282.299H214.121V321.04C246.12 337.68 267.454 337.68 299.454 321.04Z" fill="#FEDAC6"/>
<path d="M376.251 162.832V97.8944C376.157 70.1614 359.295 45.2354 333.584 34.8334C317.191 18.4494 294.971 9.2504 271.803 9.2334H257.211C202.256 9.2324 120.251 51.8994 128.784 171.366C131.882 220.962 149.708 268.501 179.984 307.899L188.517 265.232H325.05L333.584 307.899C384.784 256.699 376.251 162.832 376.251 162.832Z" fill="black"/>
<path d="M171.453 205.499H162.92C148.78 205.499 137.32 194.039 137.32 179.899C137.32 165.759 148.78 154.299 162.92 154.299H171.453V205.499Z" fill="#F2D2C1"/>
<path d="M359.188 145.767H342.121V196.967H359.188C373.328 196.967 384.788 185.507 384.788 171.367C384.788 157.227 373.328 145.767 359.188 145.767Z" fill="#FFE2C2"/>
<path d="M350.654 137.232L345.961 214.032C343.862 261.759 304.557 299.365 256.788 299.365C209.018 299.365 169.714 261.759 167.615 214.032L162.922 154.299L316.522 58.9824L350.654 137.232Z" fill="#FFDCBC"/>
<path d="M351.248 145.766C317.115 94.5664 317.115 60.4334 317.115 60.4334C317.115 60.4334 223.248 145.766 129.382 171.366C120.848 51.8994 202.853 9.23243 257.893 9.23243H272.4C295.577 9.22343 317.806 18.4394 334.181 34.8324C359.892 45.2344 376.754 70.1604 376.848 97.8934V154.299" fill="black"/>
<path d="M129.381 171.366C129.381 171.366 273.85 111.633 307.984 60.4331C307.984 60.4331 205.584 120.166 128.784 120.166C123.852 136.908 124.057 154.743 129.381 171.366Z" fill="black"/>
<path d="M77.5859 409.616V512.699H111.719V350.566C90.6159 362.751 77.6119 385.254 77.5859 409.616Z" fill="#1C496E"/>
<path d="M307.985 179.899C317.411 179.899 325.052 172.258 325.052 162.832C325.052 153.406 317.411 145.765 307.985 145.765C298.559 145.765 290.918 153.406 290.918 162.832C290.918 172.258 298.559 179.899 307.985 179.899Z" fill="black"/>
<path d="M252.048 221.132L226.448 204.065C224.315 202.648 222.941 200.344 222.693 197.81C222.446 195.267 223.342 192.741 225.151 190.932L250.751 165.332L262.817 177.398L244.581 195.642L261.52 206.932L252.048 221.132Z" fill="black"/>
<path d="M359.185 205.499H350.652V188.432H359.185C368.597 188.432 376.252 180.778 376.252 171.365C376.252 161.953 368.598 154.298 359.185 154.298H350.652V137.231H359.185C378.01 137.231 393.318 152.54 393.318 171.364C393.318 190.188 378.01 205.499 359.185 205.499Z" fill="black"/>
<path d="M256.784 307.899C204.313 307.899 161.398 266.828 159.086 214.408L154.41 154.965L171.425 153.634L176.118 213.367C178.047 256.93 213.468 290.833 256.784 290.833C300.1 290.833 335.53 256.93 337.433 213.658L342.135 136.713L359.168 137.754L354.475 214.554C352.178 266.837 309.255 307.899 256.784 307.899Z" fill="black"/>
<path d="M246.256 248.166C246.239 248.166 246.213 248.166 246.196 248.166H239.719V231.099H246.204C246.221 231.099 246.238 231.099 246.247 231.099C257.409 231.099 268.579 228.462 278.571 223.462L286.208 238.728C273.861 244.906 260.046 248.166 246.256 248.166Z" fill="black"/>
<path d="M128.784 179.899C127.035 179.899 125.302 179.361 123.852 178.329C121.77 176.853 120.456 174.523 120.277 171.972C116.514 119.279 129.8 75.0162 158.703 43.9722C183.926 16.8782 220.594 0.699219 256.784 0.699219H271.376C296.259 0.878219 320.528 10.3762 338.388 27.5882C366.539 39.7052 384.69 67.0972 384.792 97.8602V154.299H367.725V97.8942C367.64 73.5402 352.988 51.8822 330.392 42.7432C329.334 42.3162 328.37 41.6762 327.559 40.8662C312.788 26.0952 291.932 17.8262 271.418 17.7582H256.784C225.245 17.7582 193.253 31.9062 171.186 55.5952C147.523 81.0162 135.713 116.975 136.78 160.094C224.195 132.206 309.895 54.9282 310.774 54.1182C313.274 51.8402 316.875 51.2682 319.964 52.6252C323.062 53.9992 325.05 57.0542 325.05 60.4332C325.05 60.7062 325.758 93.0472 357.75 141.03L343.551 150.493C322.235 118.519 313.693 92.7652 310.271 77.1062C281.77 100.957 207.103 158.847 131.037 179.591C130.286 179.797 129.535 179.899 128.784 179.899Z" fill="black"/>
<path d="M205.587 179.899C215.012 179.899 222.654 172.258 222.654 162.832C222.654 153.406 215.012 145.765 205.587 145.765C196.161 145.765 188.52 153.406 188.52 162.832C188.52 172.258 196.161 179.899 205.587 179.899Z" fill="black"/>
<path d="M333.583 316.432C332.755 316.432 331.929 316.313 331.109 316.065C328.097 315.16 325.835 312.66 325.221 309.571L316.688 266.904L333.422 263.55L338.482 288.834C367.265 248.121 367.717 189.088 367.717 188.431H384.784C384.784 191.708 384.263 269.284 339.617 313.931C337.996 315.553 335.819 316.432 333.583 316.432Z" fill="black"/>
<path d="M179.986 316.432C177.366 316.432 174.857 315.229 173.219 313.095C141.791 272.195 123.478 223.367 120.27 171.894L137.303 170.827C139.897 212.393 153.03 252.098 175.507 286.778L180.149 263.55L196.883 266.904L188.35 309.571C187.693 312.856 185.176 315.442 181.924 316.201C181.275 316.356 180.626 316.432 179.986 316.432Z" fill="black"/>
<path d="M162.92 205.499H154.387C135.562 205.499 120.254 190.19 120.254 171.366H137.321C137.321 180.778 144.975 188.433 154.388 188.433H162.921V205.499H162.92Z" fill="black"/>
<path d="M256.785 495.632C253.414 495.632 250.359 493.652 248.986 490.563L180.719 336.963L196.309 330.025L256.785 466.09L317.252 330.035L332.851 336.973L264.584 490.573C263.211 493.653 260.156 495.632 256.785 495.632Z" fill="black"/>
<path d="M86.1168 512.699H69.0508V410.82C69.0418 372.198 97.9278 339.422 136.251 334.592L198.049 326.912C202.324 326.374 205.533 322.705 205.507 318.379V282.299H222.574V318.31C222.676 331.229 213.042 342.237 200.174 343.842L138.384 351.522C108.586 355.268 86.1168 380.766 86.1258 410.812V512.699H86.1168Z" fill="black"/>
<path d="M444.52 512.699H427.453V410.82C427.462 380.774 404.993 355.277 375.186 351.53L313.422 343.85C300.537 342.246 290.903 331.229 291.005 318.25V282.299H308.072V318.31C308.038 322.705 311.246 326.374 315.53 326.912L377.303 334.592C415.635 339.413 444.529 372.19 444.52 410.82V512.699Z" fill="black"/>
<path d="M252.97 494.736L184.703 460.603C181.128 458.811 179.267 454.775 180.24 450.901L186.119 427.366H137.317C134.433 427.366 131.736 425.907 130.166 423.483C128.596 421.06 128.348 418.005 129.526 415.368L163.659 338.568L179.249 345.506L150.449 410.3H197.05C199.678 410.3 202.161 411.512 203.774 413.585C205.387 415.65 205.967 418.355 205.327 420.898L198.449 448.392L260.597 479.47L252.97 494.736Z" fill="black"/>
<path d="M265.321 487.099H248.254V512.699H265.321V487.099Z" fill="black"/>
<path d="M260.598 494.736L252.961 479.47L315.101 448.392L308.232 420.898C307.592 418.347 308.164 415.65 309.785 413.585C311.406 411.511 313.89 410.3 316.518 410.3H363.119L334.319 345.498L349.918 338.56L384.051 415.36C385.229 418.005 384.981 421.052 383.411 423.475C381.841 425.898 379.144 427.366 376.252 427.366H327.45L333.321 450.901C334.294 454.775 332.434 458.811 328.867 460.603L260.598 494.736Z" fill="black"/>
<path d="M290.919 401.766H222.652V418.833H290.919V401.766Z" fill="black"/>
</g>
<defs>
<clipPath id="clip0">
<rect width="512" height="512" fill="white" transform="translate(0.785156 0.699219)"/>
</clipPath>
</defs>
</svg>
