<svg width="513" height="513" viewBox="0 0 513 513" fill="none" xmlns="http://www.w3.org/2000/svg">
<g clip-path="url(#clip0)">
<path d="M376.211 359.111V128.711C376.211 62.7311 322.724 9.24414 256.744 9.24414C190.764 9.24414 137.277 62.7311 137.277 128.711V359.111H376.211Z" fill="#DBDBDB"/>
<path d="M256.748 162.844H137.281V359.111H256.748V162.844Z" fill="#BFBFBF"/>
<path d="M188.48 444.444V512.711H325.013V444.444C291.528 482.144 233.817 485.566 196.108 452.073C193.42 449.684 190.878 447.132 188.48 444.444Z" fill="#EBEBEB"/>
<path d="M314.346 352.455C305.761 351.371 299.344 344.041 299.413 335.388V290.844H214.08V335.473C214.148 344.126 207.731 351.456 199.147 352.54L188.48 353.82V444.444C221.965 482.144 279.676 485.566 317.385 452.073C320.073 449.684 322.624 447.132 325.014 444.444V353.82L314.346 352.455Z" fill="#FEDAC6"/>
<path d="M222.613 468.423C209.54 463.166 197.858 454.957 188.48 444.444V512.711H222.613V468.423Z" fill="#DBDBDB"/>
<path d="M299.411 320.711V290.844H214.078V320.711C239.959 337.786 273.529 337.786 299.411 320.711Z" fill="#F5C4B0"/>
<path d="M122.433 362.012C96.6454 365.212 77.3514 387.228 77.5484 413.212V512.711H188.481V353.82L122.433 362.012Z" fill="#368A50"/>
<path d="M435.949 412.871C436.145 386.887 416.851 364.871 391.064 361.671L325.016 353.138V512.711H435.949V412.871Z" fill="#368A50"/>
<path d="M162.879 137.244L167.572 214.044C169.731 263.29 211.399 301.468 260.645 299.318C306.879 297.296 343.896 260.278 345.919 214.044L350.612 137.244L256.745 68.9771L162.879 137.244Z" fill="#FEDAC6"/>
<path d="M359.146 145.778H350.613V196.978H359.146C373.286 196.978 384.746 185.518 384.746 171.378C384.746 157.238 373.286 145.778 359.146 145.778Z" fill="#FEDAC6"/>
<path d="M128.746 171.378C128.746 185.518 140.206 196.978 154.346 196.978H162.879V145.778H154.346C140.207 145.778 128.746 157.238 128.746 171.378Z" fill="#F5C4B0"/>
<path d="M77.5469 409.628V512.711H111.68V359.111C86.0809 367.644 77.5469 384.711 77.5469 409.628Z" fill="#28663B"/>
<path d="M256.744 45.2549C223.729 73.9269 183.622 93.2039 140.605 101.063C138.403 110.117 137.294 119.393 137.277 128.711V145.778H162.877L256.744 68.9779V45.2549Z" fill="#BFBFBF"/>
<path d="M208.106 171.378L205.546 111.645C190.758 122.295 176.516 133.687 162.879 145.778L170.047 214.045C171.873 254.28 200.392 288.319 239.679 297.16L228.33 276.083C209.386 240.924 208.106 211.228 208.106 171.378Z" fill="#F5C4B0"/>
<path d="M307.946 179.911C317.372 179.911 325.013 172.27 325.013 162.844C325.013 153.418 317.372 145.777 307.946 145.777C298.52 145.777 290.879 153.418 290.879 162.844C290.879 172.27 298.52 179.911 307.946 179.911Z" fill="black"/>
<path d="M262.582 213.609L236.982 205.076C234.635 204.291 232.741 202.533 231.802 200.246C230.855 197.959 230.949 195.373 232.049 193.163L249.116 159.03L264.382 166.667L251.719 192.002L267.984 197.421L262.582 213.609Z" fill="black"/>
<path d="M86.0805 512.711H69.0135V412.871C68.7835 382.62 91.2945 356.944 121.382 353.206L198.182 343.649C202.457 343.111 205.666 339.442 205.64 335.116V290.845H222.707V335.048C222.809 347.967 213.175 358.975 200.307 360.58L123.498 370.137C102.003 372.808 85.9265 391.155 86.0885 412.804V512.711H86.0805Z" fill="black"/>
<path d="M444.566 512.711H427.499V413.298C427.67 391.581 411.584 373.243 390.097 370.563L313.297 361.014C300.412 359.393 290.778 348.385 290.88 335.414V290.844H307.947V335.473C307.913 339.868 311.121 343.528 315.414 344.075L392.197 353.624C422.286 357.362 444.796 383.047 444.566 413.357V512.711Z" fill="black"/>
<path d="M359.146 205.511H350.613V188.444H359.146C368.558 188.444 376.213 180.79 376.213 171.377C376.213 161.965 368.559 154.31 359.146 154.31H350.613V137.243H359.146C377.971 137.243 393.279 152.552 393.279 171.376C393.279 190.2 377.971 205.511 359.146 205.511Z" fill="black"/>
<path d="M256.746 307.911C204.275 307.911 161.36 266.84 159.048 214.42L154.363 137.765L171.396 136.724L176.089 213.524C178.009 256.942 213.431 290.845 256.746 290.845C300.061 290.845 335.492 256.942 337.395 213.67L342.097 136.725L359.13 137.766L354.437 214.566C352.14 266.849 309.226 307.911 256.746 307.911Z" fill="black"/>
<path d="M246.191 248.178C246.182 248.178 246.174 248.178 246.165 248.178H239.68V231.111H246.165C246.174 231.111 246.182 231.111 246.191 231.111C257.361 231.111 268.54 228.474 278.532 223.474L286.169 238.74C273.822 244.918 259.998 248.178 246.191 248.178Z" fill="black"/>
<path d="M205.547 179.911C214.973 179.911 222.614 172.27 222.614 162.844C222.614 153.418 214.973 145.777 205.547 145.777C196.122 145.777 188.48 153.418 188.48 162.844C188.48 172.27 196.122 179.911 205.547 179.911Z" fill="black"/>
<path d="M345.211 152.382L256.746 80.0017L168.281 152.382L157.469 139.172L251.336 62.3717C254.476 59.7947 258.999 59.7947 262.148 62.3717L356.015 139.172L345.211 152.382Z" fill="black"/>
<path d="M162.881 205.511H154.348C135.523 205.511 120.215 190.202 120.215 171.378C120.215 152.554 135.524 137.245 154.348 137.245H162.881V154.311H154.348C144.936 154.311 137.281 161.965 137.281 171.378C137.281 180.79 144.935 188.445 154.348 188.445H162.881V205.511Z" fill="black"/>
<path d="M384.746 154.311H367.679V128.711C367.679 67.5439 317.913 17.7779 256.746 17.7779C195.579 17.7779 145.813 67.5439 145.813 128.711V154.311H128.746V128.711C128.746 58.1319 186.167 0.710938 256.746 0.710938C327.325 0.710938 384.746 58.1319 384.746 128.711V154.311Z" fill="black"/>
<path d="M265.282 9.24414H248.215V68.9771H265.282V9.24414Z" fill="black"/>
<path d="M145.813 188.444H128.746V359.111H145.813V188.444Z" fill="black"/>
<path d="M384.747 188.444H367.68V359.111H384.747V188.444Z" fill="black"/>
<path d="M197.012 350.578H179.945V512.711H197.012V350.578Z" fill="black"/>
<path d="M333.547 350.578H316.48V512.711H333.547V350.578Z" fill="black"/>
<path d="M256.806 483.604C229.243 483.604 201.8 472.297 182.105 450.111L194.862 438.779C225.172 472.895 277.601 476.01 311.717 445.7C314.149 443.541 316.479 441.22 318.646 438.779L331.395 450.111C328.792 453.046 325.985 455.854 323.049 458.457C304.072 475.309 280.392 483.604 256.806 483.604Z" fill="black"/>
</g>
<defs>
<clipPath id="clip0">
<rect width="512" height="512" fill="white" transform="translate(0.789062 0.710938)"/>
</clipPath>
</defs>
</svg>
