<svg width="513" height="513" viewBox="0 0 513 513" fill="none" xmlns="http://www.w3.org/2000/svg">
<g clip-path="url(#clip0)">
<path d="M376.204 359.115V128.715C376.204 62.735 322.717 9.24805 256.737 9.24805C190.757 9.24805 137.27 62.735 137.27 128.715V359.115H376.204Z" fill="#DBDBDB"/>
<path d="M256.74 162.848H137.273V359.115H256.74V162.848Z" fill="#BFBFBF"/>
<path d="M188.473 444.448V512.715H325.006V444.448C291.521 482.148 233.81 485.57 196.101 452.077C193.413 449.688 190.871 447.136 188.473 444.448Z" fill="#EBEBEB"/>
<path d="M314.339 352.459C305.754 351.375 299.337 344.045 299.406 335.392V290.848H214.073V335.477C214.141 344.13 207.724 351.46 199.14 352.544L188.473 353.824V444.448C221.958 482.148 279.669 485.57 317.378 452.077C320.066 449.688 322.617 447.136 325.007 444.448V353.824L314.339 352.459Z" fill="#FEDAC6"/>
<path d="M222.606 468.427C209.533 463.17 197.851 454.961 188.473 444.448V512.715H222.606V468.427Z" fill="#DBDBDB"/>
<path d="M299.403 320.715V290.848H214.07V320.715C239.951 337.79 273.521 337.79 299.403 320.715Z" fill="#F5C4B0"/>
<path d="M122.426 362.016C96.6376 365.216 77.3436 387.232 77.5406 413.216V512.715H188.474V353.824L122.426 362.016Z" fill="#3CACDE"/>
<path d="M435.941 412.875C436.137 386.891 416.843 364.875 391.056 361.675L325.008 353.142V512.715H435.941V412.875Z" fill="#3CACDE"/>
<path d="M162.871 137.248L167.564 214.048C169.723 263.294 211.391 301.472 260.637 299.322C306.871 297.3 343.888 260.282 345.911 214.048L350.604 137.248L256.737 68.981L162.871 137.248Z" fill="#FEDAC6"/>
<path d="M359.138 145.782H350.605V196.982H359.138C373.278 196.982 384.738 185.522 384.738 171.382C384.738 157.242 373.278 145.782 359.138 145.782Z" fill="#FEDAC6"/>
<path d="M128.738 171.382C128.738 185.522 140.198 196.982 154.338 196.982H162.871V145.782H154.338C140.199 145.782 128.738 157.242 128.738 171.382Z" fill="#F5C4B0"/>
<path d="M77.5391 409.632V512.715H111.672V359.115C86.0731 367.648 77.5391 384.715 77.5391 409.632Z" fill="#329AC7"/>
<path d="M256.737 45.2588C223.722 73.9308 183.615 93.2078 140.598 101.067C138.396 110.121 137.287 119.397 137.27 128.715V145.782H162.87L256.737 68.9818V45.2588Z" fill="#BFBFBF"/>
<path d="M208.098 171.382L205.538 111.649C190.75 122.299 176.508 133.691 162.871 145.782L170.039 214.049C171.865 254.284 200.384 288.323 239.671 297.164L228.322 276.087C209.378 240.928 208.098 211.232 208.098 171.382Z" fill="#F5C4B0"/>
<path d="M307.938 179.915C317.364 179.915 325.005 172.274 325.005 162.848C325.005 153.422 317.364 145.781 307.938 145.781C298.512 145.781 290.871 153.422 290.871 162.848C290.871 172.274 298.512 179.915 307.938 179.915Z" fill="black"/>
<path d="M262.574 213.613L236.974 205.08C234.627 204.295 232.733 202.537 231.794 200.25C230.847 197.963 230.941 195.377 232.041 193.167L249.108 159.034L264.374 166.671L251.711 192.006L267.976 197.425L262.574 213.613Z" fill="black"/>
<path d="M86.0727 512.715H69.0057V412.875C68.7757 382.624 91.2867 356.948 121.375 353.21L198.175 343.653C202.45 343.115 205.659 339.446 205.633 335.12V290.849H222.7V335.052C222.802 347.971 213.168 358.979 200.3 360.584L123.491 370.141C101.996 372.812 85.9187 391.159 86.0807 412.808V512.715H86.0727Z" fill="black"/>
<path d="M444.558 512.715H427.491V413.302C427.662 391.585 411.576 373.247 390.089 370.567L313.289 361.018C300.404 359.397 290.77 348.389 290.872 335.418V290.848H307.939V335.477C307.905 339.872 311.113 343.532 315.406 344.079L392.189 353.628C422.278 357.366 444.788 383.051 444.558 413.361V512.715Z" fill="black"/>
<path d="M359.138 205.515H350.605V188.448H359.138C368.55 188.448 376.205 180.794 376.205 171.381C376.205 161.969 368.551 154.314 359.138 154.314H350.605V137.247H359.138C377.963 137.247 393.271 152.556 393.271 171.38C393.271 190.204 377.963 205.515 359.138 205.515Z" fill="black"/>
<path d="M256.738 307.915C204.267 307.915 161.352 266.844 159.04 214.424L154.355 137.769L171.388 136.728L176.081 213.528C178.001 256.946 213.423 290.849 256.738 290.849C300.053 290.849 335.484 256.946 337.387 213.674L342.089 136.729L359.122 137.77L354.429 214.57C352.132 266.853 309.218 307.915 256.738 307.915Z" fill="black"/>
<path d="M246.183 248.182C246.174 248.182 246.166 248.182 246.157 248.182H239.672V231.115H246.157C246.166 231.115 246.174 231.115 246.183 231.115C257.353 231.115 268.532 228.478 278.524 223.478L286.161 238.744C273.814 244.922 259.99 248.182 246.183 248.182Z" fill="black"/>
<path d="M205.54 179.915C214.966 179.915 222.607 172.274 222.607 162.848C222.607 153.422 214.966 145.781 205.54 145.781C196.114 145.781 188.473 153.422 188.473 162.848C188.473 172.274 196.114 179.915 205.54 179.915Z" fill="black"/>
<path d="M345.203 152.386L256.738 80.0056L168.273 152.386L157.461 139.176L251.328 62.3756C254.468 59.7986 258.991 59.7986 262.14 62.3756L356.007 139.176L345.203 152.386Z" fill="black"/>
<path d="M162.873 205.515H154.34C135.515 205.515 120.207 190.206 120.207 171.382C120.207 152.558 135.516 137.249 154.34 137.249H162.873V154.315H154.34C144.928 154.315 137.273 161.969 137.273 171.382C137.273 180.794 144.927 188.449 154.34 188.449H162.873V205.515Z" fill="black"/>
<path d="M384.738 154.315H367.671V128.715C367.671 67.5478 317.905 17.7818 256.738 17.7818C195.571 17.7818 145.805 67.5478 145.805 128.715V154.315H128.738V128.715C128.738 58.1358 186.159 0.714844 256.738 0.714844C327.317 0.714844 384.738 58.1358 384.738 128.715V154.315Z" fill="black"/>
<path d="M265.274 9.24805H248.207V68.981H265.274V9.24805Z" fill="black"/>
<path d="M145.805 188.448H128.738V359.115H145.805V188.448Z" fill="black"/>
<path d="M384.739 188.448H367.672V359.115H384.739V188.448Z" fill="black"/>
<path d="M197.005 350.582H179.938V512.715H197.005V350.582Z" fill="black"/>
<path d="M333.54 350.582H316.473V512.715H333.54V350.582Z" fill="black"/>
<path d="M256.799 483.608C229.236 483.608 201.793 472.301 182.098 450.115L194.855 438.783C225.165 472.899 277.594 476.014 311.71 445.704C314.142 443.545 316.472 441.224 318.639 438.783L331.388 450.115C328.785 453.05 325.978 455.858 323.042 458.461C304.065 475.313 280.385 483.608 256.799 483.608Z" fill="black"/>
</g>
<defs>
<clipPath id="clip0">
<rect width="512" height="512" fill="white" transform="translate(0.78125 0.714844)"/>
</clipPath>
</defs>
</svg>
