<svg width="513" height="513" viewBox="0 0 513 513" fill="none" xmlns="http://www.w3.org/2000/svg">
<g clip-path="url(#clip0)">
<path d="M376.207 154.309L377.914 143.899C382.3 117.268 378.742 89.928 367.674 65.311C357.187 41.683 333.798 26.409 307.944 26.316L282.345 16.162C265.569 7.77396 246.003 6.96396 228.588 13.943C168.9 37.076 131.091 96.226 135.153 160.112C136.552 184.32 132.047 208.511 122.012 230.594C105.04 267.866 109.272 311.375 133.105 344.679L137.286 350.567C137.286 350.567 171.418 393.232 265.28 393.232C359.142 393.232 385.85 327.955 385.85 327.955C396.072 304.114 396.712 277.252 387.642 252.951C380.056 232.856 376.182 211.541 376.208 190.063V188.442" fill="#FECB66"/>
<path d="M241.044 75.4653C210.863 99.9373 175.298 116.901 137.284 124.956C135.253 136.561 134.596 148.353 135.321 160.112C136.72 184.32 132.215 208.511 122.18 230.594C105.208 267.866 109.44 311.375 133.273 344.679L137.283 350.567C137.283 350.567 168.172 388.965 251.709 393.232C229.013 230.252 234.474 127.26 241.044 75.4653Z" fill="#F5AD76"/>
<path d="M401.803 367.632L403.851 365.584C399.764 363.818 395.463 362.606 391.052 362L314.256 352.443C305.672 351.359 299.255 344.03 299.323 335.377V282.303H214.079V335.463C214.147 344.115 207.731 351.445 199.146 352.529L122.35 362.086C117.938 362.692 113.638 363.904 109.551 365.67L111.684 367.633C191.518 447.748 321.184 447.97 401.299 368.136C401.462 367.965 401.633 367.794 401.803 367.632Z" fill="#FEDAC6"/>
<path d="M403.853 365.584L401.805 367.632C321.971 447.747 192.305 447.969 112.19 368.135C112.019 367.964 111.857 367.802 111.687 367.632L109.639 365.584C90.3287 373.357 77.6487 392.045 77.5547 412.856V512.691H435.937V412.856C435.843 392.036 423.163 373.349 403.853 365.584Z" fill="#F288B7"/>
<path d="M299.411 321.042V282.303H214.082V321.042C246.081 337.681 267.413 337.681 299.411 321.042Z" fill="#F5C4B0"/>
<path d="M359.142 145.776H350.609V196.973H359.142C373.281 196.973 384.741 185.513 384.741 171.374C384.741 157.235 373.272 145.776 359.142 145.776Z" fill="#FEDAC6"/>
<path d="M350.609 145.776C316.477 128.71 307.944 68.9799 307.944 68.9799L282.345 77.5129C282.345 77.5129 273.812 43.3809 248.213 51.9139C214.849 63.0069 239.68 103.111 205.548 128.71C192.177 138.583 177.884 147.15 162.883 154.309L167.576 214.039C169.675 261.764 208.978 299.368 256.745 299.368C304.512 299.368 343.815 261.763 345.914 214.039L350.609 145.776Z" fill="#FEDAC6"/>
<path d="M197.015 171.375V137.243C186.451 144.436 174.975 150.17 162.883 154.309L167.576 214.039C169.402 254.22 197.876 288.224 237.119 297.064L225.856 275.988C197.015 239.638 197.015 211.224 197.015 171.375Z" fill="#F5C4B0"/>
<path d="M77.5547 409.614V512.691H111.687V359.099C86.0877 367.632 77.5547 384.698 77.5547 409.614Z" fill="#ED7BB2"/>
<path d="M307.933 179.882C317.358 179.882 324.999 172.241 324.999 162.816C324.999 153.391 317.358 145.75 307.933 145.75C298.508 145.75 290.867 153.391 290.867 162.816C290.867 172.241 298.508 179.882 307.933 179.882Z" fill="black"/>
<path d="M262.572 213.596L236.973 205.063C234.626 204.278 232.732 202.52 231.794 200.233C230.847 197.946 230.941 195.361 232.041 193.151L249.107 159.019L264.372 166.656L251.709 191.99L267.973 197.408L262.572 213.596Z" fill="black"/>
<path d="M86.0795 512.691H69.0135V404.323C68.7835 374.074 91.2925 348.398 121.379 344.661L198.175 335.104C202.45 334.566 205.658 330.897 205.633 326.571V290.835H222.699V326.503C222.801 339.422 213.168 350.429 200.3 352.033L123.495 361.59C102.001 364.261 85.9255 382.607 86.0875 404.255V512.691H86.0795Z" fill="black"/>
<path d="M444.546 512.691H427.48V404.75C427.651 383.034 411.566 364.697 390.08 362.017L313.284 352.46C300.399 350.856 290.766 339.84 290.868 326.861V290.835H307.934V326.921C307.9 331.315 311.108 334.985 315.392 335.522L392.18 345.079C422.267 348.816 444.777 374.5 444.546 404.809V512.691Z" fill="black"/>
<path d="M359.131 205.507H350.598V188.441H359.131C368.543 188.441 376.197 180.787 376.197 171.375C376.197 161.963 368.543 154.309 359.131 154.309H350.598V137.243H359.131C377.955 137.243 393.263 152.551 393.263 171.375C393.263 190.199 377.955 205.507 359.131 205.507Z" fill="black"/>
<path d="M246.191 248.171C246.182 248.171 246.174 248.171 246.165 248.171H239.68V231.105H246.165C246.174 231.105 246.182 231.105 246.191 231.105C257.361 231.105 268.539 228.468 278.531 223.468L286.168 238.733C273.812 244.903 259.988 248.171 246.191 248.171Z" fill="black"/>
<path d="M205.539 179.882C214.964 179.882 222.605 172.241 222.605 162.816C222.605 153.391 214.964 145.75 205.539 145.75C196.113 145.75 188.473 153.391 188.473 162.816C188.473 172.241 196.113 179.882 205.539 179.882Z" fill="black"/>
<path d="M256.737 307.901C204.268 307.901 161.356 266.841 159.044 214.414L154.368 154.982C154.189 152.61 154.999 150.263 156.612 148.523C158.028 146.996 159.94 146.04 161.988 145.827C163.157 145.545 172.611 142.747 200.42 121.892C214.499 111.337 216.513 98.1019 218.646 84.0999C221.001 68.6209 223.68 51.0779 245.508 43.8249C254.135 40.9579 262.557 41.5379 269.844 45.5399C279.017 50.5739 284.546 59.8499 287.567 66.7779L305.23 60.8899C307.662 60.0959 310.264 60.4039 312.415 61.7259C314.565 63.0489 316.016 65.2669 316.383 67.7669C316.46 68.3219 324.728 123.299 354.414 138.146C357.494 139.69 359.346 142.933 359.116 146.363L354.423 214.626C352.127 266.833 309.215 307.901 256.737 307.901ZM171.912 160.308L176.085 213.366C178.005 256.935 213.425 290.836 256.747 290.836C300.069 290.836 335.489 256.935 337.392 213.664L341.727 150.521C316.342 134.163 305.368 97.8389 301.4 80.1589L285.042 85.6119C282.772 86.3629 280.315 86.1329 278.233 84.9979C276.151 83.8549 274.641 81.8919 274.069 79.5879C273.045 75.6199 268.813 64.4079 261.611 60.4829C258.471 58.7759 255.066 58.6229 250.919 60.0139C239.502 63.8109 237.872 71.3459 235.534 86.6789C233.222 101.885 230.337 120.802 210.678 135.547C194.174 147.901 180.897 156.366 171.912 160.308Z" fill="black"/>
<path d="M130.323 355.498L126.142 349.61C100.629 313.959 96.0635 266.994 114.239 227.06C123.659 206.325 127.943 183.346 126.629 160.614C122.38 92.5901 162.297 30.4361 225.952 5.98112C245.501 -1.85188 267.652 -0.938877 286.578 8.53212L309.651 17.8071C338.151 18.5581 363.861 35.7011 375.465 61.8451C387.155 88.0841 390.824 116.951 386.063 145.305L384.647 155.476L367.752 153.129L369.203 142.719C373.444 117.445 370.201 91.9571 359.877 68.7811C350.755 48.2421 330.362 34.9311 307.903 34.8461C306.819 34.8461 305.753 34.6331 304.746 34.2231L279.574 24.0691C264.36 16.4921 247.311 15.7841 232.182 21.8591C175.404 43.6691 139.873 98.9961 143.662 159.58C145.138 185.11 140.334 210.871 129.779 234.123C114.121 268.519 118.046 308.974 140.044 339.709L144.242 345.631L130.323 355.498Z" fill="black"/>
<path d="M384.048 353.911L368.347 347.213L377.989 324.601C387.401 302.663 387.981 278.284 379.636 255.937C371.666 234.818 367.639 212.65 367.664 190.054V188.441H384.73V190.062C384.704 210.592 388.374 230.738 395.609 249.937C405.507 276.44 404.816 305.333 393.672 331.315L384.048 353.911Z" fill="black"/>
<path d="M256.559 427.703C201.829 427.703 147.184 406.814 105.637 365.123L117.728 353.075C194.115 429.735 318.627 429.948 395.278 353.561L407.838 365.132C365.951 406.866 311.213 427.703 256.559 427.703Z" fill="black"/>
<path d="M249.234 90.1163C244.131 80.7133 236.46 73.0503 227.066 67.9483L235.206 52.9473C247.51 59.6283 257.554 69.6633 264.235 81.9763L249.234 90.1163Z" fill="black"/>
</g>
<defs>
<clipPath id="clip0">
<rect width="511.988" height="511.988" fill="white" transform="translate(0.785156 0.703125)"/>
</clipPath>
</defs>
</svg>
