<svg width="513" height="513" viewBox="0 0 513 513" fill="none" xmlns="http://www.w3.org/2000/svg">
<g clip-path="url(#clip0)">
<path d="M399.051 504.686H32.5C18.7461 504.686 7.59766 493.537 7.59766 479.783V32.6113C7.59766 18.8574 18.7461 7.70898 32.5 7.70898H399.051C412.805 7.70898 423.949 18.8574 423.949 32.6113V479.783C423.949 493.537 412.805 504.686 399.051 504.686Z" fill="#FFF5F5"/>
<path d="M423.953 32.6074V479.787C423.953 493.533 412.805 504.682 399.051 504.682H375.277C389.035 504.682 400.184 493.533 400.184 479.787V32.6074C400.184 18.8535 389.031 7.71289 375.277 7.71289H399.051C412.805 7.71289 423.953 18.8535 423.953 32.6074V32.6074Z" fill="#EFE2DD"/>
<path d="M7.59766 76.7598V32.6113C7.59766 18.8574 18.7461 7.70898 32.5 7.70898H399.051C412.805 7.70898 423.949 18.8574 423.949 32.6113V76.7598H7.59766Z" fill="#AED3FF"/>
<path d="M423.953 32.6074V76.7559H399.609V32.6074C399.609 18.8535 388.473 7.71289 374.719 7.71289H399.051C412.805 7.71289 423.953 18.8535 423.953 32.6074V32.6074Z" fill="#83BFFF"/>
<path d="M357.477 194.654H74.0742C68.75 194.654 64.4375 190.342 64.4375 185.021V137.928C64.4375 132.607 68.75 128.295 74.0742 128.295H357.477C362.801 128.295 367.113 132.607 367.113 137.928V185.021C367.109 190.342 362.797 194.654 357.477 194.654Z" fill="#87C080"/>
<path d="M367.113 137.928V185.021C367.113 190.342 362.797 194.658 357.477 194.658H333.703C339.023 194.658 343.34 190.338 343.34 185.021V137.928C343.34 132.607 339.023 128.299 333.703 128.299H357.477C362.797 128.299 367.113 132.607 367.113 137.928V137.928Z" fill="#70B568"/>
<path d="M358.354 304.932C358.354 304.932 348.643 361.518 322.925 397.053C319.909 401.213 322.94 407.041 328.077 407.041H347.8C349.694 407.041 351.491 407.893 352.694 409.357L367.55 427.514C370.428 431.033 375.964 430.463 378.057 426.428C388.175 406.908 417.018 355.982 409.764 304.932H358.354Z" fill="#FF7A7A"/>
<path d="M378.062 426.432C375.969 430.459 370.43 431.029 367.555 427.514L362.895 421.811C362.996 421.65 363.086 421.49 363.176 421.322C372.953 402.459 400.234 354.24 395.484 304.932H409.77C417.023 355.982 388.18 406.904 378.062 426.432V426.432Z" fill="#FF5757"/>
<path d="M455.485 304.932C455.485 304.932 465.195 361.518 490.918 397.053C493.93 401.213 490.899 407.041 485.762 407.041H466.039C464.145 407.041 462.348 407.893 461.145 409.357L446.293 427.514C443.414 431.033 437.875 430.463 435.785 426.428C425.664 406.908 396.82 355.982 404.074 304.932H455.485Z" fill="#EA4444"/>
<path d="M485.766 407.037H478.473C478.262 406.334 477.93 405.643 477.461 404.99C449.52 366.393 438.973 304.932 438.973 304.932H455.48C455.48 304.932 465.195 361.514 490.914 397.045C493.93 401.217 490.902 407.037 485.766 407.037Z" fill="#D93131"/>
<path d="M504.492 241.533C504.492 251.354 490.199 258.795 487.324 267.658C484.34 276.846 491.422 291.244 485.859 298.889C480.238 306.611 464.316 304.299 456.598 309.916C448.949 315.482 446.262 331.369 437.078 334.35C428.215 337.229 416.742 326.049 406.922 326.049C397.098 326.049 385.625 337.229 376.762 334.35C367.578 331.369 364.891 315.482 357.246 309.916C349.523 304.299 333.602 306.611 327.98 298.889C322.418 291.244 329.5 276.846 326.52 267.658C323.641 258.799 309.352 251.354 309.352 241.533C309.352 231.713 323.641 224.268 326.52 215.408C329.5 206.221 322.418 191.818 327.984 184.174C333.602 176.455 349.523 178.768 357.246 173.146C364.891 167.584 367.578 151.697 376.766 148.713C385.625 145.838 397.102 157.018 406.922 157.018C416.742 157.018 428.219 145.838 437.078 148.713C446.266 151.697 448.953 167.584 456.598 173.146C464.32 178.768 480.242 176.455 485.859 184.174C491.426 191.818 484.34 206.221 487.324 215.408C490.199 224.268 504.492 231.709 504.492 241.533V241.533Z" fill="#FFE1A8"/>
<path d="M485.855 298.893C480.234 306.607 464.316 304.303 456.594 309.912C448.949 315.482 446.266 331.369 437.078 334.346C431.246 336.252 424.285 332.053 417.402 328.967C425.246 324.338 428.172 309.982 435.453 304.674C443.437 298.865 459.91 301.26 465.719 293.275C471.469 285.369 464.145 270.475 467.23 260.975C470.207 251.811 484.984 244.115 484.984 233.959C484.984 223.799 470.207 216.107 467.23 206.939C464.418 198.287 470.246 185.162 466.961 176.916C474.227 178.381 482.207 179.17 485.855 184.178C491.426 191.822 484.344 206.217 487.328 215.404C490.203 224.271 504.488 231.713 504.488 241.533C504.488 251.361 490.203 258.803 487.328 267.658C484.344 276.842 491.426 291.248 485.855 298.893V298.893Z" fill="#FFD98F"/>
<path d="M462.398 241.533C462.398 272.174 437.559 297.01 406.922 297.01C376.281 297.01 351.441 272.174 351.441 241.533C351.441 210.893 376.281 186.053 406.922 186.053C437.559 186.053 462.398 210.893 462.398 241.533V241.533Z" fill="#FFB541"/>
<path d="M462.402 241.529C462.402 272.174 437.559 297.01 406.926 297.01C394.73 297.01 383.461 293.084 374.316 286.42C379.047 287.732 384.031 288.432 389.184 288.432C419.816 288.432 444.66 263.6 444.66 232.955C444.66 214.502 435.645 198.15 421.781 188.064C445.203 194.557 462.402 216.045 462.402 241.529V241.529Z" fill="#FFA812"/>
<path d="M270.421 442.271C266.077 445.67 261.589 449.189 256.85 450.994C250.78 453.314 249.624 452.221 245.331 448.154C242.327 445.314 238.592 441.775 232.733 439.81C224.057 436.904 217.12 441.545 212.053 444.931C206.53 448.627 206.112 448.318 205.28 447.713C203.952 446.74 202.276 443.56 200.924 441.002C197.385 434.291 190.018 420.33 173.729 428.521C161.132 434.857 155.577 448.658 151.112 459.748C150.589 461.056 150.073 462.334 149.561 463.556C147.964 467.385 149.776 471.783 153.604 473.381C154.549 473.775 155.53 473.963 156.495 473.963C159.436 473.963 162.229 472.224 163.432 469.342C163.964 468.06 164.503 466.724 165.053 465.357C168.757 456.158 172.952 445.732 180.479 441.947C183.37 440.494 183.604 440.377 187.635 448.013C189.815 452.146 192.288 456.826 196.417 459.846C206.151 466.955 215.077 460.986 220.409 457.42C223.956 455.049 226.397 453.537 227.96 454.056C230.671 454.967 232.678 456.865 234.999 459.064C239.897 463.705 247.303 470.721 262.21 465.033C269.065 462.416 274.706 457.998 279.686 454.099C282.952 451.541 283.526 446.818 280.967 443.553C278.409 440.287 273.686 439.713 270.421 442.271V442.271Z" fill="black"/>
<path d="M70.1914 253.705H84.2188C88.3672 253.705 91.7305 250.342 91.7305 246.193C91.7305 242.045 88.3672 238.678 84.2188 238.678H70.1914C66.043 238.678 62.6797 242.045 62.6797 246.193C62.6797 250.342 66.043 253.705 70.1914 253.705Z" fill="black"/>
<path d="M280.539 253.705C284.691 253.705 288.055 250.342 288.055 246.193C288.055 242.045 284.691 238.678 280.539 238.678H118.781C114.633 238.678 111.266 242.045 111.266 246.193C111.266 250.342 114.633 253.705 118.781 253.705H280.539Z" fill="black"/>
<path d="M70.1914 284.35H280.539C284.691 284.35 288.055 280.986 288.055 276.838C288.055 272.689 284.691 269.326 280.539 269.326H70.1914C66.043 269.326 62.6797 272.689 62.6797 276.838C62.6797 280.986 66.043 284.35 70.1914 284.35Z" fill="black"/>
<path d="M70.1914 324.928H84.2188C88.3672 324.928 91.7305 321.564 91.7305 317.416C91.7305 313.264 88.3672 309.9 84.2188 309.9H70.1914C66.043 309.9 62.6797 313.264 62.6797 317.416C62.6797 321.564 66.043 324.928 70.1914 324.928Z" fill="black"/>
<path d="M280.539 309.9H118.781C114.633 309.9 111.266 313.264 111.266 317.412C111.266 321.561 114.633 324.928 118.781 324.928H280.539C284.691 324.928 288.055 321.561 288.055 317.412C288.055 313.264 284.691 309.9 280.539 309.9Z" fill="black"/>
<path d="M288.055 378.705C288.055 374.557 284.691 371.189 280.543 371.189H198.926C194.773 371.189 191.41 374.557 191.41 378.705C191.41 382.854 194.773 386.217 198.926 386.217H280.543C284.691 386.217 288.055 382.854 288.055 378.705Z" fill="black"/>
<path d="M70.1914 386.217H164.359C168.512 386.217 171.875 382.854 171.875 378.705C171.875 374.557 168.512 371.193 164.359 371.193H70.1914C66.043 371.193 62.6797 374.557 62.6797 378.705C62.6797 382.854 66.043 386.217 70.1914 386.217Z" fill="black"/>
<path d="M70.1914 355.572H280.539C284.691 355.572 288.055 352.209 288.055 348.061C288.055 343.912 284.691 340.545 280.539 340.545H70.1914C66.043 340.545 62.6797 343.912 62.6797 348.061C62.6797 352.209 66.043 355.572 70.1914 355.572Z" fill="black"/>
<path d="M500.891 261.756C506.102 256.283 512.004 250.08 512.004 241.533C512.004 232.982 506.102 226.779 500.891 221.307C498.223 218.502 495.195 215.318 494.469 213.084C493.668 210.615 494.227 206.291 494.766 202.104C495.715 194.756 496.789 186.424 491.934 179.752C487.039 173.025 478.738 171.479 471.414 170.111C467.305 169.346 463.055 168.557 461.016 167.072C459.035 165.631 457 161.873 455.031 158.24C451.457 151.643 447.406 144.166 439.398 141.568C436.719 140.697 434.066 140.564 431.465 140.885V32.6113C431.465 14.7363 416.926 0.197266 399.051 0.197266H32.5C29.707 0.197266 26.9961 0.552735 24.4062 1.2207C10.4375 4.82227 0.0859375 17.5293 0.0859375 32.6113V338.678C0.0859375 342.826 3.44922 346.189 7.59766 346.189C11.75 346.189 15.1133 342.826 15.1133 338.678V84.2715H416.438V146.271C412.906 147.936 409.379 149.502 406.918 149.502C404.211 149.502 400.207 147.604 396.332 145.768C389.75 142.646 382.293 139.119 374.625 141.518V137.928C374.625 128.475 366.934 120.783 357.477 120.783H74.0742C64.6172 120.783 56.9258 128.475 56.9258 137.928V185.021C56.9258 194.475 64.6172 202.166 74.0742 202.166H231.5C235.652 202.166 239.016 198.803 239.016 194.654C239.016 190.506 235.648 187.143 231.5 187.143H74.0742C72.9023 187.143 71.9531 186.189 71.9531 185.021V137.932C71.9531 136.76 72.9023 135.811 74.0742 135.811H357.477C358.648 135.811 359.598 136.76 359.598 137.932V156.791C359.332 157.275 359.07 157.764 358.809 158.24C356.84 161.873 354.805 165.631 352.824 167.072C350.785 168.557 346.535 169.35 342.43 170.115C335.105 171.479 326.805 173.025 321.906 179.756C320.23 182.053 319.273 184.557 318.762 187.143H267.066C262.914 187.143 259.551 190.506 259.551 194.654C259.551 198.803 262.914 202.17 267.066 202.17H319.082C319.621 206.334 320.168 210.627 319.371 213.084C318.645 215.318 315.617 218.502 312.949 221.307C307.738 226.779 301.836 232.982 301.836 241.533C301.836 250.08 307.738 256.283 312.949 261.756C315.617 264.564 318.645 267.744 319.371 269.979C320.172 272.447 319.613 276.775 319.074 280.959C318.125 288.311 317.051 296.639 321.906 303.311C326.801 310.037 335.102 311.584 342.426 312.951C344.609 313.357 346.82 313.775 348.73 314.295C344.656 331.975 334.727 367.932 316.836 392.646C313.789 396.857 313.367 402.354 315.738 406.994C318.117 411.658 322.848 414.553 328.078 414.553H347.238L361.734 432.271C364.387 435.514 368.309 437.35 372.438 437.35C372.914 437.35 373.398 437.326 373.883 437.275C378.523 436.795 382.578 434.029 384.73 429.885C385.312 428.76 385.957 427.525 386.656 426.197C391.805 416.393 400.102 400.58 406.926 381.498C409.941 389.939 413.242 397.748 416.438 404.674V479.787C416.438 489.373 408.637 497.17 399.051 497.17H32.5C22.9102 497.17 15.1133 489.373 15.1133 479.787V373.408C15.1133 369.256 11.75 365.893 7.60156 365.893C3.44922 365.893 0.0859375 369.256 0.0859375 373.408V479.783C0.0859375 497.658 14.625 512.197 32.5 512.197H399.051C416.926 512.197 431.465 497.658 431.465 479.783V433.119C433.695 435.432 436.672 436.932 439.957 437.275C440.441 437.326 440.926 437.35 441.406 437.35C445.531 437.35 449.453 435.51 452.105 432.271L466.605 414.553H485.762C490.992 414.553 495.723 411.654 498.105 406.99C500.473 402.354 500.051 396.857 497.004 392.646C479.145 367.975 469.195 331.99 465.117 314.295C467.023 313.775 469.234 313.357 471.414 312.951C478.738 311.588 487.039 310.037 491.934 303.311C496.789 296.643 495.715 288.311 494.766 280.959C494.227 276.775 493.668 272.451 494.469 269.979C495.195 267.744 498.223 264.564 500.891 261.756V261.756ZM15.1133 69.2441V32.6113C15.1133 23.0254 22.9141 15.2246 32.5 15.2246H399.051C399.648 15.2246 400.242 15.2559 400.824 15.3145C409.582 16.2051 416.438 23.623 416.438 32.6113V69.2441H15.1133ZM373.355 419.209C372.961 419.959 372.582 420.678 372.227 421.361L358.512 404.6C355.871 401.377 351.969 399.525 347.801 399.525H330.383C345.941 377.15 355.555 348.084 360.766 328.361C363.937 333.904 367.848 339.354 374.441 341.498C382.176 344.01 389.695 340.443 396.332 337.299C396.996 343.342 398.016 349.279 399.281 355.072C392.902 381.947 380.641 405.33 373.355 419.209V419.209ZM483.461 399.525H466.039C461.875 399.525 457.969 401.373 455.328 404.6L441.617 421.361C441.258 420.678 440.879 419.959 440.488 419.209C431.387 401.881 414.527 369.748 411.062 334.482C413.082 335.209 415.312 336.256 417.508 337.299C422.574 339.701 428.156 342.346 433.953 342.346C435.75 342.346 437.566 342.092 439.398 341.498C445.996 339.354 449.906 333.904 453.078 328.361C458.289 348.088 467.902 377.15 483.461 399.525V399.525ZM490.008 251.396C486.051 255.557 481.957 259.857 480.176 265.338C478.332 271.021 479.109 277.049 479.863 282.881C480.422 287.225 481.121 292.635 479.785 294.471C478.406 296.361 473 297.369 468.66 298.178C462.906 299.252 456.961 300.361 452.176 303.842C447.445 307.283 444.586 312.561 441.82 317.666C439.699 321.584 437.055 326.459 434.758 327.205C432.707 327.869 427.848 325.568 423.945 323.717C418.82 321.287 413.008 318.533 406.922 318.533C400.832 318.533 395.02 321.287 389.895 323.717C385.992 325.568 381.137 327.869 379.082 327.205C376.781 326.459 374.141 321.584 372.02 317.666C369.254 312.561 366.395 307.283 361.664 303.842C356.879 300.357 350.934 299.252 345.18 298.178C340.84 297.369 335.434 296.361 334.055 294.467C332.723 292.635 333.418 287.225 333.98 282.881C334.73 277.049 335.508 271.018 333.664 265.338C331.883 259.857 327.793 255.557 323.832 251.396C320.566 247.963 316.863 244.072 316.863 241.533C316.863 238.99 320.566 235.1 323.832 231.666C327.793 227.506 331.887 223.209 333.664 217.725C335.508 212.045 334.73 206.014 333.98 200.182C333.418 195.838 332.723 190.432 334.059 188.596C335.434 186.705 340.84 185.693 345.184 184.885C350.934 183.814 356.883 182.705 361.664 179.225C366.398 175.779 369.258 170.502 372.02 165.4C374.145 161.482 376.785 156.607 379.082 155.861C381.137 155.197 385.992 157.498 389.895 159.346C395.023 161.775 400.832 164.529 406.922 164.529C413.008 164.529 418.82 161.775 423.945 159.346C427.848 157.498 432.711 155.197 434.758 155.861C437.059 156.607 439.699 161.482 441.82 165.4C444.586 170.502 447.445 175.779 452.176 179.221C456.957 182.705 462.906 183.814 468.656 184.885C473 185.693 478.406 186.701 479.781 188.596C481.117 190.432 480.422 195.838 479.859 200.186C479.109 206.014 478.332 212.045 480.176 217.725C481.957 223.209 486.047 227.51 490.008 231.666C493.273 235.1 496.977 238.99 496.977 241.533C496.977 244.076 493.273 247.967 490.008 251.396V251.396Z" fill="black"/>
<path d="M406.922 178.541C372.188 178.541 343.93 206.799 343.93 241.533C343.93 276.264 372.188 304.521 406.922 304.521C441.652 304.521 469.91 276.264 469.91 241.533C469.91 206.799 441.652 178.541 406.922 178.541V178.541ZM406.922 289.498C380.473 289.498 358.953 267.979 358.953 241.533C358.953 215.084 380.473 193.564 406.922 193.564C433.367 193.564 454.887 215.084 454.887 241.533C454.887 267.979 433.367 289.498 406.922 289.498V289.498Z" fill="black"/>
</g>
<defs>
<clipPath id="clip0">
<rect x="0.0859375" y="0.197266" width="512" height="512" fill="white"/>
</clipPath>
</defs>
</svg>
