<svg width="512" height="512" viewBox="0 0 512 512" fill="none" xmlns="http://www.w3.org/2000/svg">
<g clip-path="url(#clip0)">
<path d="M340.447 345.777H40.0936C27.8096 345.777 17.8516 355.735 17.8516 368.019V482.259C17.8516 494.543 27.8096 504.501 40.0936 504.501H130.166L340.447 345.777Z" fill="#F4DD45"/>
<path d="M375.145 504.492H130.172L136.148 475.387C141.063 451.422 159.736 433.209 182.905 428.304C186.974 427.437 191.186 426.988 195.489 426.988H309.827C314.12 426.988 318.332 427.437 322.401 428.304C345.571 433.209 364.253 451.422 369.168 475.387L375.145 504.492Z" fill="#F6F9F9"/>
<path d="M221.074 472.312L252.657 504.49L284.241 472.312L253.969 404.59L221.074 472.312Z" fill="#DA4A54"/>
<path d="M220.098 426.984C217.648 426.984 215.248 427.434 212.928 428.304C199.738 433.214 189.108 451.424 186.308 475.384L182.908 504.494H130.168L136.138 475.384C141.058 451.424 159.728 433.214 182.898 428.304C186.968 427.434 191.178 426.984 195.478 426.984H220.098Z" fill="#DAE4EA"/>
<path d="M309.826 426.988L301.223 478.459L252.656 460.878H252.654L204.087 478.459L195.484 426.988" fill="#DAE4EA"/>
<path d="M286.543 370.391V426.989C286.543 445.702 271.369 460.876 252.656 460.876C233.933 460.876 218.758 445.702 218.758 426.989V370.391H286.543Z" fill="#F1D0A5"/>
<path d="M263.725 459.03C260.258 460.223 256.536 460.876 252.66 460.876C233.937 460.876 218.762 445.702 218.762 426.989V370.391H240.891V426.989C240.892 441.836 250.437 454.451 263.725 459.03Z" fill="#F1B986"/>
<path d="M111.072 323.265C86.6371 323.265 66.8281 303.456 66.8281 279.021C66.8281 275.658 67.2031 272.383 67.9141 269.234C73.6541 243.814 111.072 247.983 111.072 274.043H394.235C394.235 247.983 431.653 243.814 437.393 269.234C438.104 272.382 438.479 275.658 438.479 279.021C438.479 303.456 418.67 323.265 394.235 323.265" fill="#F1B986"/>
<path d="M218.758 370.395H286.543V422.537H218.758V370.395Z" fill="#F1B986"/>
<path d="M291.041 404.593H214.262C157.27 404.593 111.07 358.392 111.07 301.401V155.863H394.233V301.401C394.233 358.392 348.033 404.593 291.041 404.593Z" fill="#F1D0A5"/>
<path d="M282.047 404.591H214.262C157.276 404.591 111.07 358.385 111.07 301.399V155.855H178.855V301.399C178.855 358.384 225.051 404.591 282.047 404.591Z" fill="#F1B986"/>
<path d="M336.051 322.829C348.851 322.829 359.227 316.519 359.227 308.737C359.227 300.954 348.851 294.645 336.051 294.645C323.251 294.645 312.875 300.954 312.875 308.737C312.875 316.519 323.251 322.829 336.051 322.829Z" fill="#E29375"/>
<path d="M169.254 322.829C182.054 322.829 192.43 316.519 192.43 308.737C192.43 300.954 182.054 294.645 169.254 294.645C156.454 294.645 146.078 300.954 146.078 308.737C146.078 316.519 156.454 322.829 169.254 322.829Z" fill="#E29375"/>
<path d="M181.684 54.8398H137.868C110.646 54.8398 88.5781 76.9078 88.5781 104.13V170.88C88.5781 184.452 99.5801 195.454 113.152 195.454H143.957C184.534 195.454 217.428 162.56 217.428 121.983V90.5828C217.427 70.8428 201.424 54.8398 181.684 54.8398V54.8398Z" fill="#AA593D"/>
<path d="M181.419 54.832C154.201 54.832 132.133 76.9 132.133 104.128V195.45H113.152C99.5801 195.45 88.5781 184.448 88.5781 170.876V104.128C88.5781 76.9 110.646 54.832 137.864 54.832H181.419Z" fill="#934D36"/>
<path d="M328.794 183.45H260.562C223.62 183.45 193.672 153.502 193.672 116.56V74.39C193.672 37.448 223.62 7.5 260.562 7.5H460.24V52.003C460.24 124.6 401.39 183.45 328.794 183.45Z" fill="#AA593D"/>
<path d="M319.544 183.448H260.56C223.613 183.448 193.672 153.507 193.672 116.56V74.3919C193.672 37.4449 223.613 7.50391 260.56 7.50391H319.544C282.597 7.50391 252.656 37.4449 252.656 74.3919V116.56C252.656 153.507 282.597 183.448 319.544 183.448Z" fill="#934D36"/>
<path d="M413.309 204.102C457.958 204.102 494.153 167.907 494.153 123.258C494.153 78.6092 457.958 42.4141 413.309 42.4141C368.66 42.4141 332.465 78.6092 332.465 123.258C332.465 167.907 368.66 204.102 413.309 204.102Z" fill="#78D090"/>
<path d="M424.934 203.266C421.133 203.817 417.258 204.102 413.309 204.102C368.663 204.102 332.465 167.904 332.465 123.258C332.465 78.6011 368.663 42.4141 413.309 42.4141C417.258 42.4141 421.133 42.7001 424.934 43.2501C385.782 48.8721 355.704 82.5501 355.704 123.258C355.704 163.966 385.782 197.644 424.934 203.266V203.266Z" fill="#63AF7D"/>
<path d="M412.829 244.88C408.767 245.333 405.034 246.51 401.732 248.274V210.845C405.522 211.343 409.385 211.604 413.308 211.604C462.021 211.604 501.652 171.973 501.652 123.26C501.652 95.051 488.361 69.889 467.714 53.704C467.721 53.138 467.732 52.568 467.732 52.01V7.5C467.732 3.358 464.374 0 460.232 0H260.562C228.709 0 201.477 20.129 190.894 48.331C187.891 47.679 184.818 47.34 181.692 47.34H137.872C113.061 47.34 91.3816 63.147 83.8136 86.715C83.5176 87.521 83.3566 88.392 83.3566 89.3C83.3566 93.442 86.7196 96.8 90.8616 96.8C94.1366 96.8 97.0336 94.675 98.0156 91.55C103.511 74.079 119.528 62.34 137.872 62.34H181.692C183.516 62.34 185.312 62.517 187.07 62.856C186.482 66.616 186.172 70.467 186.172 74.39V116.56C186.172 132.023 190.918 146.396 199.025 158.307C186.871 176.708 166.181 187.96 143.952 187.96H113.152C103.74 187.96 96.0816 180.302 96.0816 170.89V119.13C96.0816 114.988 92.7236 111.63 88.5816 111.63C84.4396 111.63 81.0816 114.988 81.0816 119.13V170.89C81.0816 185.238 90.5526 197.414 103.572 201.497V248.273C100.271 246.509 96.5376 245.332 92.4766 244.879C77.1136 243.168 64.0016 252.502 60.5966 267.582C59.7536 271.316 59.3266 275.165 59.3266 279.02C59.3266 306.349 80.6276 328.783 107.496 330.627C108.206 333.217 109.007 335.768 109.897 338.279H40.0916C23.6936 338.279 10.3516 351.62 10.3516 368.019V482.259C10.3516 498.658 23.6926 511.999 40.0916 511.999L375.142 511.989C377.396 511.989 379.53 510.975 380.955 509.229C382.379 507.482 382.943 505.187 382.489 502.979L376.512 473.899C375.864 470.701 374.98 467.545 373.885 464.516C372.476 460.621 368.177 458.607 364.281 460.015C360.386 461.425 358.371 465.724 359.78 469.619C360.626 471.957 361.31 474.399 361.816 476.897L365.945 496.987H270.527L286.217 481.002L298.671 485.51C300.765 486.268 303.087 486.056 305.008 484.933C306.929 483.81 308.254 481.891 308.621 479.694L316.113 434.873C317.707 435.063 319.291 435.311 320.852 435.645C329.905 437.559 338.343 441.848 345.254 448.049C346.686 449.334 348.476 449.967 350.26 449.967C352.316 449.967 354.364 449.127 355.844 447.476C358.611 444.393 358.354 439.651 355.271 436.885C346.406 428.93 335.576 423.426 323.97 420.972C319.36 419.987 314.599 419.487 309.822 419.487H294.043V412.045C343.645 410.718 385.209 376.598 397.808 330.625C424.677 328.781 445.979 306.347 445.979 279.018C445.979 275.16 445.552 271.312 444.709 267.58C441.303 252.502 428.19 243.166 412.829 244.88V244.88ZM486.652 123.26C486.652 163.702 453.75 196.604 413.308 196.604C372.866 196.604 339.964 163.702 339.964 123.26C339.964 82.818 372.866 49.916 413.308 49.916C453.75 49.916 486.652 82.819 486.652 123.26ZM201.172 74.39C201.172 41.642 227.814 15 260.562 15H452.732V44.218C440.857 38.271 427.468 34.917 413.308 34.917C364.595 34.917 324.964 74.548 324.964 123.261C324.964 142.684 331.27 160.66 341.935 175.259C337.584 175.718 333.193 175.951 328.792 175.951H260.562C227.814 175.951 201.172 149.309 201.172 116.561V74.39ZM74.3266 279.021C74.3266 276.275 74.6296 273.538 75.2286 270.886C77.3146 261.644 84.9336 259.132 90.8146 259.788C96.6996 260.444 103.571 264.571 103.571 274.043H103.572V274.829C97.5426 272.142 91.2096 271.93 85.2806 274.322C81.4396 275.872 79.5816 280.242 81.1306 284.083C82.6806 287.925 87.0506 289.781 90.8916 288.233C96.1506 286.111 101.217 290.59 103.572 293.165V301.4C103.572 306.056 103.865 310.645 104.426 315.152C87.3276 312.014 74.3266 297.012 74.3266 279.021ZM25.3516 482.26V457.582L44.5356 437.271L60.1276 476.255C61.0646 478.596 63.1136 480.31 65.5836 480.817C66.0846 480.92 66.5906 480.97 67.0916 480.97C69.0596 480.97 70.9736 480.194 72.3946 478.774L119.454 431.721V444.041C119.454 448.183 122.812 451.541 126.954 451.541C131.096 451.541 134.454 448.183 134.454 444.041V413.615C134.454 409.473 131.096 406.115 126.954 406.115H96.5266C92.3846 406.115 89.0266 409.473 89.0266 413.615C89.0266 417.757 92.3846 421.115 96.5266 421.115H108.846L69.8316 460.125L54.1056 420.805C53.1546 418.429 51.0586 416.701 48.5446 416.222C46.0306 415.744 43.4456 416.579 41.6896 418.44L25.3516 435.737V368.02C25.3516 359.892 31.9636 353.28 40.0916 353.28H116.509C134.695 387.409 170.228 410.951 211.263 412.048V419.49H195.482C190.705 419.49 185.944 419.99 181.35 420.972C154.872 426.572 134.243 447.34 128.795 473.883L124.052 497H40.0916C31.9636 497 25.3516 490.388 25.3516 482.26V482.26ZM279.043 426.98V426.99V426.996C279.039 441.544 267.203 453.379 252.654 453.379C238.102 453.379 226.264 441.541 226.264 426.989V412.089H279.044V426.98H279.043ZM209.999 468.344L204.341 434.49H211.957C214 445.6 220.482 455.175 229.503 461.284L209.999 468.344ZM139.367 496.99L143.489 476.898C147.737 456.204 163.816 440.012 184.47 435.645C186.024 435.312 187.605 435.065 189.197 434.876L196.689 479.698C197.056 481.894 198.38 483.813 200.302 484.937C201.464 485.616 202.772 485.962 204.087 485.962C204.947 485.962 205.812 485.814 206.639 485.514L219.095 481.005L234.785 496.991H139.367V496.99ZM252.655 493.783L234.602 475.39L252.654 468.855L270.707 475.39L252.655 493.783ZM295.309 468.344L275.804 461.283C284.824 455.174 291.306 445.599 293.349 434.49H300.968L295.309 468.344ZM291.042 397.09H214.262C161.498 397.09 118.572 354.164 118.572 301.4V202.96H143.952C169.765 202.96 193.882 190.596 209.038 170.141C222.418 183.012 240.575 190.95 260.562 190.95H328.792C337.274 190.95 345.726 190.178 353.977 188.661C363.302 197.129 374.441 203.631 386.732 207.517V301.4C386.732 354.164 343.806 397.09 291.042 397.09ZM400.878 315.152C401.439 310.645 401.732 306.056 401.732 301.4V293.166C404.086 290.591 409.153 286.109 414.413 288.233C418.254 289.781 422.625 287.924 424.174 284.083C425.723 280.242 423.865 275.872 420.024 274.322C414.094 271.931 407.761 272.143 401.732 274.83V274.043H401.734C401.734 264.571 408.606 260.444 414.49 259.788C420.372 259.132 427.989 261.644 430.076 270.886C430.675 273.536 430.978 276.273 430.978 279.021C430.979 297.012 417.977 312.015 400.878 315.152V315.152Z" fill="black"/>
<path d="M180.018 232.047C172.655 232.047 166.664 241.994 166.664 254.22C166.664 266.446 172.654 276.393 180.018 276.393C187.382 276.393 193.372 266.446 193.372 254.22C193.372 241.994 187.381 232.047 180.018 232.047Z" fill="black"/>
<path d="M325.288 232.047C317.925 232.047 311.934 241.994 311.934 254.22C311.934 266.446 317.925 276.393 325.288 276.393C332.651 276.393 338.642 266.446 338.642 254.22C338.642 241.994 332.651 232.047 325.288 232.047Z" fill="black"/>
<path d="M282.418 307.005C278.601 305.396 274.203 307.186 272.593 311.003C269.202 319.045 261.375 324.242 252.653 324.242C243.931 324.242 236.104 319.045 232.714 311.003C231.105 307.186 226.708 305.397 222.889 307.005C219.072 308.614 217.283 313.013 218.891 316.83C224.631 330.445 237.884 339.242 252.653 339.242C267.423 339.242 280.675 330.445 286.415 316.83C288.024 313.013 286.235 308.615 282.418 307.005V307.005Z" fill="black"/>
<path d="M238.652 289.891H266.649C270.791 289.891 274.149 286.533 274.149 282.391C274.149 278.249 270.791 274.891 266.649 274.891H238.652C234.51 274.891 231.152 278.249 231.152 282.391C231.152 286.533 234.51 289.891 238.652 289.891Z" fill="black"/>
<path d="M425.138 115.67C423.525 115.1 421.879 114.507 420.234 113.891V85.8893C423.474 86.9113 425.545 88.4783 426.189 89.0133C429.374 91.6623 434.102 91.2283 436.752 88.0443C439.401 84.8603 438.967 80.1313 435.783 77.4823C434.309 76.2563 428.719 72.0313 420.235 70.5143V65.2773C420.235 61.1353 416.877 57.7773 412.735 57.7773C408.593 57.7773 405.235 61.1353 405.235 65.2773V71.0523C404.542 71.2213 403.843 71.4043 403.133 71.6183C393.595 74.4913 386.471 82.6403 384.54 92.8873C382.773 102.266 385.802 111.328 392.445 116.539C395.733 119.118 399.774 121.481 405.235 123.953V160.317C400.934 159.848 397.905 158.581 393.001 155.373C389.535 153.105 384.886 154.077 382.619 157.544C380.351 161.01 381.323 165.658 384.79 167.926C392.777 173.151 398.344 174.87 405.235 175.376V181.245C405.235 185.387 408.593 188.745 412.735 188.745C416.877 188.745 420.235 185.387 420.235 181.245V174.689C434.009 171.468 442.849 159.826 444.78 148.343C447.259 133.589 439.55 120.764 425.138 115.67V115.67ZM401.702 104.735C399.516 103.02 398.565 99.4603 399.281 95.6643C399.865 92.5653 401.73 88.9213 405.235 86.9383V107.116C403.932 106.344 402.741 105.551 401.702 104.735ZM429.987 145.855C429.136 150.918 425.82 156.261 420.235 158.893V129.849C431.12 133.753 430.453 143.082 429.987 145.855Z" fill="black"/>
<path d="M393.32 398.133C389.178 398.133 385.82 401.491 385.82 405.633V439.552C385.82 443.694 389.178 447.052 393.32 447.052C397.462 447.052 400.82 443.694 400.82 439.552V405.633C400.82 401.491 397.462 398.133 393.32 398.133Z" fill="black"/>
<path d="M436.105 342.27C431.963 342.27 428.605 345.628 428.605 349.77V439.556C428.605 443.698 431.963 447.056 436.105 447.056C440.247 447.056 443.605 443.698 443.605 439.556V349.77C443.605 345.627 440.248 342.27 436.105 342.27Z" fill="black"/>
<path d="M414.711 369.203C410.569 369.203 407.211 372.561 407.211 376.703V439.554C407.211 443.696 410.569 447.054 414.711 447.054C418.853 447.054 422.211 443.696 422.211 439.554V376.703C422.211 372.561 418.853 369.203 414.711 369.203Z" fill="black"/>
<path d="M457.5 398.133C453.358 398.133 450 401.491 450 405.633V439.552C450 443.694 453.358 447.052 457.5 447.052C461.642 447.052 465 443.694 465 439.552V405.633C465 401.491 461.642 398.133 457.5 398.133Z" fill="black"/>
<path d="M478.895 372.309C474.753 372.309 471.395 375.667 471.395 379.809V439.556C471.395 443.698 474.753 447.056 478.895 447.056C483.037 447.056 486.395 443.698 486.395 439.556V379.809C486.395 375.667 483.037 372.309 478.895 372.309Z" fill="black"/>
</g>
<defs>
<clipPath id="clip0">
<rect width="512" height="512" fill="white"/>
</clipPath>
</defs>
</svg>
