<svg width="513" height="512" viewBox="0 0 513 512" fill="none" xmlns="http://www.w3.org/2000/svg">
<g clip-path="url(#clip0)">
<path d="M379.127 469.036C261.497 536.95 111.085 496.647 43.1705 379.017C-24.7435 261.387 15.5585 110.973 133.19 43.0603C250.821 -24.8527 401.232 15.4503 469.146 133.079C537.06 250.708 496.757 401.122 379.127 469.036Z" fill="#78D2FA"/>
<path d="M273.517 182.45C271.747 182.865 268.317 183.736 266.834 184.926C264.982 186.411 267.876 188.342 266.819 189.188C264.994 190.648 263.671 193.296 259.764 193.046C251.602 192.525 239.058 181.967 231.599 177.976C243.623 165.602 224.6 163.748 217.186 164.368C207.585 165.171 190.97 164.305 182.297 169.188C176.278 172.577 168.188 186.643 163.339 192.23C156.589 200.006 149.797 206.757 145.399 216.067C129.264 250.22 154.098 289.429 193.128 284.843C203.964 283.57 215.331 276.757 224.935 285.747C232.012 292.372 228.267 298.607 230.143 306.333C231.767 313.019 239.17 317.132 241.732 323.272C246.645 335.042 243.534 342.403 240.027 353.259C235.425 367.504 247.326 384.417 251.958 398.164C254.29 405.086 261.087 424.47 267.76 427.503C278.252 432.273 294.697 417.968 300.962 410.274C305.86 404.259 304.261 398.149 307.551 392.517C311.112 386.422 315.618 384.592 318.113 376.734C320.802 368.264 323.596 366.157 329.275 359.976C338.418 350.028 336.998 344.211 333.343 332.415C325.748 307.909 353.335 296.453 365.761 278.464C378.737 259.679 353.655 265.941 343.825 259.516C333.718 252.91 329.301 240.355 324.431 229.947C319.559 219.538 315.528 203.896 307.461 195.346C301.246 188.763 282.342 185.709 273.517 182.45Z" fill="#A5DC69"/>
<path d="M400.47 346.844C396.549 360.058 392.629 373.272 388.708 386.486C385.967 395.724 376.276 425.944 362.68 406.587C357.512 399.231 361.715 389.592 364.598 382.823C368.235 374.283 363.32 369.983 365.856 361.898C368.764 352.631 380.728 352.314 386.389 345.796C390.337 341.252 392.772 334.027 395.657 328.707C397.263 334.754 398.867 340.798 400.47 346.844Z" fill="#A5DC69"/>
<path d="M469.146 133.079C426.786 59.7097 352.33 16.4287 273.753 10.7207L241.591 51.0647L172.66 75.2307L154.168 120.059L182.693 160.018L185.725 151.57C190.788 137.465 204.159 128.058 219.144 128.058H266.157L320.197 147.048L338.81 164.816V176.102L364.687 225.669L372.222 222.89C388.494 216.89 403.269 207.432 415.533 195.169L409.286 185.797C407.299 182.817 409.436 178.826 413.017 178.826H428.097C432.513 178.826 436.707 180.76 439.575 184.118L451.894 198.541C453.068 199.915 453.985 201.489 454.603 203.187L468.197 240.57L474.668 234.099C478.748 230.018 480.814 224.459 480.91 218.689C480.987 214.05 483 209.649 486.469 206.555L491.425 202.135C492.671 201.024 494.061 200.121 495.541 199.438C490.154 176.703 481.429 154.354 469.146 133.079Z" fill="#A5DC69"/>
<path d="M101.219 142.686L112.982 130.081C121.559 120.89 123.989 107.54 119.199 95.9158C114.135 83.6258 103.032 75.6578 90.7424 74.0098C47.3024 113.408 20.2934 166.377 12.5234 222.484C21.7074 230.512 31.3184 239.106 31.2634 239.863C31.1574 241.312 65.6724 235.525 65.6724 235.525L47.9044 209.46L73.4214 191.215L101.219 142.686Z" fill="#A5DC69"/>
<path d="M125.138 387.739C136.226 384.137 142.294 372.228 138.692 361.141L135.525 351.392C134.141 347.133 134.148 342.545 135.544 338.29C139.501 326.228 131.993 313.428 119.535 310.993L94.682 306.136L49.283 271.619L11.75 283.812C15.436 316.407 25.723 348.793 43.171 379.016C59.309 406.967 80.111 430.541 104.017 449.346L115.201 390.967L125.138 387.739Z" fill="#A5DC69"/>
<path d="M374.109 460.389L373.724 460.611C368.948 463.382 367.323 469.501 370.093 474.278C371.948 477.475 375.303 479.261 378.751 479.261C380.453 479.261 382.181 478.824 383.76 477.908L384.145 477.686C388.921 474.915 390.546 468.796 387.776 464.019C385.006 459.245 378.888 457.618 374.109 460.389Z" fill="black"/>
<path d="M477.807 128.079C443.625 68.8741 388.434 26.5251 322.4 8.83106C256.368 -8.86294 187.396 0.218063 128.191 34.3991C68.9859 68.5801 26.6369 123.772 8.9439 189.805C-8.7491 255.838 0.330898 324.811 34.5119 384.015C65.1729 437.122 113.905 477.483 171.731 497.661C199.142 507.225 227.757 511.998 256.328 511.998C287.393 511.998 318.402 506.352 347.713 495.086C352.868 493.105 355.44 487.32 353.458 482.165C351.476 477.01 345.69 474.435 340.537 476.42C262.517 506.407 178.055 492.782 114.952 445.416L123.911 398.651L128.228 397.249C144.541 391.949 153.501 374.365 148.203 358.051L145.035 348.302C144.302 346.046 144.306 343.661 145.045 341.407C147.824 332.935 146.831 323.666 142.32 315.974C137.809 308.282 130.204 302.89 121.453 301.179L98.8829 296.769L55.3349 263.659C52.7259 261.675 49.3109 261.096 46.1929 262.108L20.6969 270.39C20.1559 261.271 20.1479 252.155 20.6619 243.087C21.6679 244.024 22.3229 244.661 22.7259 245.079C23.2249 245.91 23.8429 246.672 24.5669 247.332C26.6489 249.228 28.5349 250.088 32.4949 250.088C36.1339 250.087 41.5209 249.362 50.4159 248.048C58.8519 246.801 67.2439 245.396 67.3269 245.382C70.6899 244.819 73.5329 242.579 74.8709 239.444C76.2089 236.308 75.8559 232.707 73.9349 229.889L61.6739 211.905L79.2359 199.347C80.4059 198.51 81.3819 197.431 82.0969 196.183L109.32 148.658L120.293 136.9C131.506 124.882 134.706 107.299 128.444 92.1031C124.75 83.1401 118.298 75.6781 110.228 70.6491C118.968 63.7781 128.287 57.4341 138.191 51.7171C174.529 30.7371 214.185 20.5701 253.424 20.1811L235.568 42.5801L169.353 65.7941C166.664 66.7361 164.504 68.7821 163.418 71.4171L144.926 116.245C143.613 119.43 144.03 123.064 146.031 125.868L173.039 163.7C169.171 167.229 165.406 172.369 160.909 178.751C158.937 181.55 157.075 184.193 155.788 185.675C154.669 186.965 153.549 188.225 152.439 189.473C146.63 196.008 140.624 202.767 136.357 211.795C126.975 231.654 128.87 254.736 141.302 272.034C153.323 288.759 173.141 297.261 194.293 294.773C197.739 294.369 200.952 293.574 204.061 292.804C212.634 290.683 215.35 290.471 218.1 293.045C219.438 294.298 219.561 294.535 219.534 298.783C219.515 301.487 219.494 304.851 220.426 308.692C221.919 314.837 225.779 319.084 228.878 322.496C230.419 324.191 232.013 325.945 232.504 327.122C235.623 334.596 234.265 338.735 231.289 347.805C231.034 348.581 230.774 349.373 230.513 350.185C225.992 364.18 232.294 378.062 237.854 390.309C239.66 394.286 241.365 398.04 242.482 401.358C251.473 428.037 258.213 434.147 263.622 436.607C266.455 437.895 269.387 438.46 272.349 438.459C286.764 438.458 301.806 425.074 308.716 416.589C313.056 411.261 314.125 405.926 314.905 402.029C315.294 400.091 315.6 398.561 316.184 397.561C317.078 396.031 318.131 394.845 319.464 393.343C322.145 390.324 325.481 386.568 327.643 379.759C329.285 374.587 330.478 373.319 334.429 369.111C335.117 368.38 335.85 367.598 336.637 366.742C349.956 352.249 346.526 341.178 342.893 329.456C339.836 319.593 345.183 313.285 358.111 301.246C363.715 296.027 369.509 290.631 373.988 284.148C375.948 281.31 381.911 272.677 378.221 264.12C374.604 255.73 365.411 254.32 358.025 253.188C355.108 252.74 350.7 252.064 349.297 251.147C343.11 247.102 339.325 238.66 335.664 230.495C334.935 228.87 334.216 227.266 333.487 225.709C332.187 222.931 330.888 219.57 329.513 216.012C325.875 206.596 321.752 195.923 314.733 188.483C308.424 181.798 296.531 178.578 286.038 175.736C282.509 174.781 279.178 173.879 276.981 173.068C275.14 172.388 273.142 172.265 271.235 172.713C266.128 173.91 262.942 175.229 260.576 177.125C259.951 177.626 258.1 179.271 257.016 181.915C253.355 180.158 248.321 176.803 245.223 174.738C245.159 174.695 245.094 174.652 245.03 174.609C246.074 170.431 245.129 167.078 244.139 164.984C238.552 153.168 220.01 154.093 216.352 154.404C214.274 154.578 211.645 154.671 208.864 154.769C204.496 154.924 199.668 155.098 194.891 155.634L195.137 154.948C198.763 144.845 208.411 138.056 219.145 138.056H224.829C230.351 138.056 234.828 133.578 234.828 128.057C234.828 122.535 230.35 118.058 224.829 118.058H219.145C203.209 118.058 188.616 126.445 180.437 139.646L165.522 118.753L180.196 83.1841L244.9 60.4991C246.674 59.8771 248.238 58.7671 249.411 57.2961L278.173 21.2171C351.667 28.2081 420.847 69.4141 460.489 138.076C471.048 156.365 478.859 175.619 484.052 195.312L479.813 199.092C474.28 204.029 471.038 211.11 470.914 218.521C470.913 218.602 470.911 218.682 470.908 218.762L464.002 199.77C462.973 196.936 461.457 194.337 459.499 192.046L447.18 177.623C442.404 172.032 435.45 168.827 428.099 168.827H413.02C407.667 168.827 402.775 171.759 400.25 176.476C397.725 181.194 398.001 186.892 400.97 191.344L402.496 193.635C392.752 202.014 381.482 208.719 369.482 213.241L348.813 173.648V164.815C348.813 162.083 347.695 159.468 345.718 157.583L327.105 139.814C326.078 138.834 324.854 138.084 323.515 137.613L306.759 131.725C301.546 129.891 295.84 132.634 294.01 137.843C292.179 143.054 294.918 148.761 300.128 150.592L314.852 155.767L328.814 169.094V176.102C328.814 177.713 329.204 179.301 329.95 180.73L355.827 230.297C358.154 234.757 363.436 236.795 368.15 235.051L375.685 232.273C393.19 225.817 409.415 215.432 422.607 202.242C425.977 198.871 426.501 193.592 423.856 189.625L423.324 188.826H428.099C429.592 188.826 431.005 189.477 431.975 190.613L444.294 205.036C444.691 205.501 444.998 206.027 445.208 206.604L458.803 243.987C459.971 247.199 462.699 249.591 466.033 250.331C466.753 250.49 467.478 250.568 468.199 250.568C470.822 250.568 473.375 249.535 475.269 247.639L481.74 241.168C485.838 237.069 488.659 231.883 490.007 226.134C500.015 306.339 468.566 389.307 402.092 441.481C397.747 444.89 396.989 451.175 400.4 455.52C403.809 459.865 410.093 460.623 414.439 457.212C462.431 419.545 495.401 365.67 507.276 305.511C519.263 244.772 508.798 181.757 477.807 128.079ZM47.3959 282.746L88.6289 314.097C89.8479 315.024 91.2619 315.658 92.7639 315.951L117.616 320.807C120.788 321.427 123.434 323.303 125.069 326.091C126.704 328.878 127.048 332.103 126.042 335.174C123.972 341.487 123.962 348.164 126.015 354.481L129.183 364.229C131.076 370.055 127.874 376.336 122.049 378.229L112.112 381.458C108.645 382.584 106.067 385.508 105.382 389.086L97.3839 430.835C79.8009 414.742 64.3629 395.722 51.8319 374.017C36.5429 347.54 26.9909 319.299 22.7809 290.743L47.3959 282.746ZM21.2859 240.479C21.3139 240.913 21.3689 241.344 21.4519 241.77C21.3709 241.368 21.3149 240.935 21.2859 240.479ZM109.954 99.7221C113.244 107.705 111.562 116.943 105.672 123.257L93.9089 135.86C93.3839 136.423 92.9249 137.045 92.5419 137.713L65.8299 184.349L42.0889 201.325C37.6669 204.487 36.5809 210.6 39.6429 215.092L48.5219 228.116C43.4039 228.878 38.8109 229.506 35.7569 229.839C35.1699 229.276 34.5559 228.705 33.9209 228.115C31.5439 225.907 28.2409 222.958 23.3169 218.649C31.4379 168.386 55.6579 121.034 93.7499 84.8891C101.045 87.1841 107.03 92.6261 109.954 99.7221ZM209.572 174.756C212.601 174.649 215.463 174.547 218.019 174.333C219.368 174.22 220.866 174.241 222.279 174.351C221.648 175.971 221.443 177.749 221.717 179.513C222.198 182.616 224.111 185.311 226.879 186.792C228.755 187.796 231.366 189.537 234.13 191.38C241.945 196.59 250.805 202.495 259.126 203.025C266.694 203.516 270.905 199.203 272.709 197.365C272.853 197.219 272.989 197.073 273.133 196.94C274.149 196.112 275.101 195.002 275.809 193.663C277.408 194.12 279.088 194.575 280.81 195.042C286.731 196.645 297.751 199.629 300.187 202.209C304.512 206.794 307.883 215.521 310.858 223.22C312.361 227.111 313.781 230.783 315.374 234.188C316.058 235.649 316.731 237.154 317.415 238.678C322.029 248.97 327.259 260.636 338.354 267.888C343.385 271.177 349.552 272.122 354.994 272.957C355.652 273.058 356.406 273.174 357.172 273.3C353.942 277.806 349.343 282.088 344.484 286.613C332.105 298.141 316.699 312.489 323.794 335.378C327.143 346.186 327.299 347.354 321.914 353.212C321.18 354.011 320.496 354.739 319.855 355.421C315.243 360.331 311.6 364.209 308.584 373.709C307.708 376.468 306.573 377.746 304.512 380.066C302.864 381.922 300.811 384.234 298.917 387.474C296.649 391.356 295.899 395.094 295.298 398.097C294.705 401.052 294.369 402.535 293.209 403.96C290.568 407.202 285.642 411.91 280.585 415.123C275.885 418.107 273.141 418.515 272.206 418.459C271.139 417.315 267.274 412.307 261.434 394.973C259.994 390.697 257.996 386.297 256.064 382.042C251.805 372.662 247.402 362.962 249.544 356.333C249.797 355.551 250.047 354.787 250.293 354.04C253.715 343.61 256.945 333.761 250.961 319.421C249.139 315.054 246.238 311.863 243.681 309.047C242.026 307.226 240.151 305.162 239.862 303.974C239.51 302.525 239.521 300.852 239.534 298.915C239.568 293.69 239.62 285.795 231.771 278.445C220.705 268.087 207.801 271.278 199.261 273.39C196.638 274.038 194.16 274.652 191.964 274.91C177.916 276.556 165.374 271.256 157.544 260.36C149.353 248.963 148.164 233.626 154.442 220.336C157.481 213.905 162.072 208.738 167.388 202.758C168.549 201.451 169.721 200.133 170.893 198.783C172.843 196.535 174.989 193.491 177.258 190.268C179.969 186.42 185.013 179.261 187.203 177.899C191.662 175.391 202.014 175.024 209.572 174.756Z" fill="black"/>
<path d="M374.16 422.722C384.36 421.055 392.028 410.445 398.294 389.329L410.056 349.687C410.578 347.925 410.606 346.053 410.134 344.277L405.323 326.143C404.272 322.183 400.912 319.265 396.845 318.779C392.773 318.303 388.824 320.339 386.869 323.94C385.773 325.96 384.786 328.1 383.832 330.169C382.227 333.65 380.567 337.25 378.84 339.237C377.87 340.353 375.378 341.556 372.97 342.718C367.213 345.496 359.328 349.301 356.316 358.903C354.446 364.859 355.144 369.571 355.654 373.011C356.095 375.994 356.197 377.028 355.398 378.904L355.298 379.137C352.115 386.606 346.193 400.511 354.497 412.332C360.422 420.768 366.652 422.937 371.493 422.937C372.439 422.94 373.333 422.857 374.16 422.722ZM370.861 400.839C368.95 398.117 371.806 391.413 373.696 386.976L373.797 386.742C376.845 379.588 376.03 374.094 375.437 370.082C375.056 367.513 374.92 366.409 375.397 364.892C375.789 363.645 378.132 362.435 381.662 360.731C383.227 359.975 384.95 359.144 386.689 358.138L379.123 383.64C375.929 394.406 373.103 399.432 371.472 401.66C371.283 401.422 371.079 401.15 370.861 400.839Z" fill="black"/>
<path d="M269.468 118.623C264.261 116.799 258.551 119.538 256.723 124.749C254.895 129.961 257.638 135.666 262.849 137.494L263.523 137.73C264.618 138.114 265.734 138.296 266.833 138.296C270.961 138.296 274.825 135.719 276.269 131.604C278.097 126.392 275.354 120.687 270.143 118.859L269.468 118.623Z" fill="black"/>
</g>
<defs>
<clipPath id="clip0">
<path d="M0.113281 0H512.113V512H0.113281V0Z" fill="white"/>
</clipPath>
</defs>
</svg>
