<svg width="512" height="512" viewBox="0 0 512 512" fill="none" xmlns="http://www.w3.org/2000/svg">
<path d="M158.5 177.018H353.5V242.095H158.5V177.018Z" fill="#E2DEE2"/>
<path d="M374.607 249.202V289.499H137.391V249.202L255.999 211.529L374.607 249.202Z" fill="#B5ADB6"/>
<path d="M324 57.5H256V7.5H324C329.523 7.5 334 11.977 334 17.5V47.5C334 53.023 329.523 57.5 324 57.5Z" fill="#FE646F"/>
<path d="M324 7.5H314C314 29.591 296.091 47.5 274 47.5H256V57.5H324C329.523 57.5 334 53.023 334 47.5V17.5C334 11.977 329.523 7.5 324 7.5Z" fill="#FD4755"/>
<path d="M256 90.648C251.858 90.648 248.5 87.291 248.5 83.148V7.5C248.5 3.357 251.858 0 256 0C260.142 0 263.5 3.357 263.5 7.5V83.148C263.5 87.291 260.142 90.648 256 90.648Z" fill="#A79BA7"/>
<path d="M22.5 289.5H489.5V504.5H22.5V289.5Z" fill="#B5ADB6"/>
<path d="M386.301 327.5H125.695C117.411 327.5 110.695 320.784 110.695 312.5V289.5H401.301V312.5C401.301 320.784 394.585 327.5 386.301 327.5Z" fill="#A79BA7"/>
<path d="M135.219 327.5H181.779V504.5H135.219V327.5Z" fill="#E2DEE2"/>
<path d="M330.219 327.5H376.779V504.5H330.219V327.5Z" fill="#E2DEE2"/>
<path d="M230.547 327.5H277.107V504.5H230.547V327.5Z" fill="#E2DEE2"/>
<path d="M459.501 504.499H406.781V426.774C406.781 412.216 418.583 400.414 433.141 400.414C447.699 400.414 459.501 412.216 459.501 426.774V504.499Z" fill="#E2DEE2"/>
<path d="M105.22 504.499H52.5V426.774C52.5 412.216 64.302 400.414 78.86 400.414C93.418 400.414 105.22 412.216 105.22 426.774V504.499Z" fill="#E2DEE2"/>
<path d="M353.5 177.017H158.5C158.5 125.175 200.526 83.1484 252.369 83.1484H259.632C311.474 83.1494 353.5 125.175 353.5 177.017Z" fill="#B5ADB6"/>
<path d="M504.5 497H497V297H504.5C508.642 297 512 293.643 512 289.5C512 285.357 508.642 282 504.5 282H382.107V259.644L387.213 261.364C391.039 262.658 395.378 260.62 396.715 256.65C398.037 252.725 395.926 248.471 392.001 247.149L361 236.707V184.518H368.5C372.642 184.518 376 181.161 376 177.018C376 172.875 372.642 169.518 368.5 169.518H360.722C356.964 118.384 315.108 77.677 263.5 75.73V65H324C333.649 65 341.5 57.149 341.5 47.5V17.5C341.5 7.851 333.649 0 324 0H256C251.858 0 248.5 3.357 248.5 7.5V75.732C226.723 76.571 205.605 84.458 188.655 98.17C185.435 100.775 184.936 105.498 187.541 108.718C190.147 111.939 194.87 112.438 198.089 109.832C213.38 97.461 232.657 90.648 252.368 90.648H259.631C304.726 90.648 341.837 125.394 345.653 169.517H166.333C167.625 154.463 172.789 140.12 181.485 127.658C183.855 124.261 183.023 119.586 179.626 117.216C176.229 114.848 171.555 115.677 169.183 119.074C158.721 134.068 152.602 151.374 151.278 169.517H143.5C139.358 169.517 136 172.874 136 177.017C136 181.16 139.358 184.517 143.5 184.517H151V236.706L119.999 247.148C116.074 248.47 113.963 252.724 115.285 256.649C116.608 260.575 120.862 262.684 124.787 261.363L129.893 259.643V282H7.5C3.358 282 0 285.357 0 289.5C0 293.643 3.358 297 7.5 297H15V497H7.5C3.358 497 0 500.357 0 504.5C0 508.643 3.358 512 7.5 512H504.5C508.642 512 512 508.643 512 504.5C512 500.357 508.642 497 504.5 497V497ZM263.5 15H324C325.378 15 326.5 16.121 326.5 17.5V47.5C326.5 48.879 325.378 50 324 50H263.5V15ZM166 184.518H346V231.655L271.162 206.448C261.385 203.154 250.617 203.155 240.839 206.448L166 231.655V184.518ZM144.893 254.591L160.725 249.259C160.733 249.257 160.74 249.254 160.748 249.251L245.627 220.663C252.317 218.411 259.686 218.412 266.374 220.663L351.253 249.251C351.261 249.253 351.268 249.256 351.276 249.259L367.107 254.591V282H144.893V254.591ZM97.72 497H60V467H97.72V497ZM97.72 452H60V426.774C60 416.375 68.46 407.915 78.86 407.915C89.26 407.915 97.72 416.375 97.72 426.774V452ZM127.72 497H112.72V426.774C112.72 408.104 97.531 392.915 78.86 392.915C60.189 392.915 45 408.104 45 426.774V497H30V378.893H127.72V497ZM127.72 363.893H30V297H103.197V312.5C103.197 324.906 113.29 335 125.697 335H127.719V363.893H127.72ZM174.28 497H142.72V335H174.281V497H174.28ZM223.047 497H189.28V335H223.047V497ZM269.607 497H238.047V335H269.607V497ZM322.72 497H284.608V335H286.609C290.751 335 294.109 331.643 294.109 327.5C294.109 323.357 290.751 320 286.609 320H125.697C121.561 320 118.197 316.636 118.197 312.5V297H393.802V312.5C393.802 316.636 390.438 320 386.302 320H316.608C312.466 320 309.108 323.357 309.108 327.5C309.108 331.643 312.466 335 316.608 335H322.719V497H322.72ZM369.28 497H337.72V335H369.281V497H369.28ZM452 497H414.28V467H452V497ZM452 452H414.28V426.774C414.28 416.375 422.74 407.915 433.14 407.915C443.54 407.915 452 416.375 452 426.774V452ZM482 497H467V426.774C467 408.104 451.811 392.915 433.14 392.915C414.469 392.915 399.28 408.104 399.28 426.774V497H384.28V378.893H482V497ZM482 363.893H384.28V335H386.302C398.709 335 408.802 324.906 408.802 312.5V297H482V363.893Z" fill="black"/>
</svg>
