<svg width="513" height="513" viewBox="0 0 513 513" fill="none" xmlns="http://www.w3.org/2000/svg">
<path d="M70.5741 112.27L70.4941 112.35H24.4141C20.0141 112.35 16.4141 108.75 16.4141 104.35V88.3496C16.4141 83.9496 20.0141 80.3496 24.4141 80.3496H70.4941L70.5741 80.4296C66.7341 84.6696 64.4141 90.1896 64.4141 96.3496C64.4141 102.51 66.7341 108.03 70.5741 112.27Z" fill="#CF9E76"/>
<path d="M177.774 80.3496H177.854C176.894 82.8296 176.414 85.5496 176.414 88.3496V112.35H106.334L106.254 112.27C110.094 108.03 112.414 102.51 112.414 96.3496C112.414 90.1896 110.094 84.6696 106.254 80.4296L106.334 80.3496H177.774Z" fill="#CF9E76"/>
<path d="M406.574 112.27L406.494 112.35H336.414H224.414L265.134 102.19C276.174 99.3896 284.494 90.9096 287.374 80.3496H288.414H320.414H406.494L406.574 80.4296C402.734 84.6696 400.414 90.1896 400.414 96.3496C400.414 102.51 402.734 108.03 406.574 112.27Z" fill="#CF9E76"/>
<path d="M496.414 88.3496V104.35C496.414 108.75 492.814 112.35 488.414 112.35H442.334L442.254 112.27C446.094 108.03 448.414 102.51 448.414 96.3496C448.414 90.1896 446.094 84.6696 442.254 80.4296L442.334 80.3496H488.414C492.814 80.3496 496.414 83.9496 496.414 88.3496Z" fill="#CF9E76"/>
<path d="M106.254 80.4296C110.094 84.6696 112.414 90.1896 112.414 96.3496C112.414 102.51 110.094 108.03 106.254 112.27C103.614 115.39 100.014 117.79 95.9341 119.07C93.6141 119.95 91.0541 120.35 88.4141 120.35C85.7741 120.35 83.2141 119.95 80.8941 119.07C76.8141 117.79 73.2141 115.39 70.5741 112.27C66.7341 108.03 64.4141 102.51 64.4141 96.3496C64.4141 90.1896 66.7341 84.6696 70.5741 80.4296C74.8141 75.4696 81.2941 72.3496 88.4141 72.3496C95.5341 72.3496 102.014 75.4696 106.254 80.4296V80.4296Z" fill="#FCD770"/>
<path d="M442.254 80.4296C446.094 84.6696 448.414 90.1896 448.414 96.3496C448.414 102.51 446.094 108.03 442.254 112.27C439.614 115.39 436.014 117.79 431.934 119.07C429.614 119.95 427.054 120.35 424.414 120.35C421.774 120.35 419.214 119.95 416.894 119.07C412.814 117.79 409.214 115.39 406.574 112.27C402.734 108.03 400.414 102.51 400.414 96.3496C400.414 90.1896 402.734 84.6696 406.574 80.4296C410.814 75.4696 417.294 72.3496 424.414 72.3496C431.534 72.3496 438.014 75.4696 442.254 80.4296Z" fill="#FCD770"/>
<path d="M224.414 112.35H336.414V136.35C336.414 162.35 328.014 187.55 312.414 208.35H200.414C184.814 187.55 176.414 162.35 176.414 136.35V112.35V88.3496C176.414 85.5496 176.894 82.8296 177.854 80.3496C181.054 70.9896 189.934 64.3496 200.414 64.3496H208.414H240.414H272.414H280.414C284.814 64.3496 288.414 67.9496 288.414 72.3496C288.414 75.0696 288.014 77.7896 287.374 80.3496C284.494 90.9096 276.174 99.3896 265.134 102.19L224.414 112.35Z" fill="#F0D0B4"/>
<path d="M240.414 32.3496V64.3496H208.414V32.3496C208.414 23.5496 215.614 16.3496 224.414 16.3496C228.814 16.3496 232.814 18.1096 235.694 21.0696C238.654 23.9496 240.414 27.9496 240.414 32.3496Z" fill="#F0D0B4"/>
<path d="M304.414 48.3496V64.3496C304.414 73.1496 297.214 80.3496 288.414 80.3496H287.374C288.014 77.7896 288.414 75.0696 288.414 72.3496C288.414 67.9496 284.814 64.3496 280.414 64.3496H272.414V32.3496C272.414 23.5496 279.614 16.3496 288.414 16.3496C292.814 16.3496 296.814 18.1096 299.694 21.0696C302.654 23.9496 304.414 27.9496 304.414 32.3496V48.3496Z" fill="#F0D0B4"/>
<path d="M272.414 32.3496V64.3496H240.414V32.3496C240.414 23.5496 247.614 16.3496 256.414 16.3496C260.814 16.3496 264.814 18.1096 267.694 21.0696C270.654 23.9496 272.414 27.9496 272.414 32.3496Z" fill="#F0D0B4"/>
<path d="M336.414 48.3496V64.3496C336.414 73.1496 329.214 80.3496 320.414 80.3496C316.014 80.3496 312.014 78.5896 309.134 75.6296C306.174 72.7496 304.414 68.7496 304.414 64.3496V48.3496C304.414 39.5496 311.614 32.3496 320.414 32.3496C324.814 32.3496 328.814 34.1096 331.694 37.0696C334.654 39.9496 336.414 43.9496 336.414 48.3496Z" fill="#F0D0B4"/>
<path d="M320.414 216.35V309.23L318.654 307.47L312.654 313.47C305.934 320.19 295.854 322.11 287.134 318.43C287.054 318.43 286.894 318.35 286.814 318.35C278.094 314.75 272.414 306.27 272.414 296.75V288.35H240.414V296.75C240.414 306.27 234.734 314.75 226.014 318.35C225.934 318.35 225.774 318.43 225.694 318.43C216.974 322.11 206.894 320.19 200.174 313.47L194.174 307.47L192.414 309.23V216.35C192.414 211.95 196.014 208.35 200.414 208.35H312.414C316.814 208.35 320.414 211.95 320.414 216.35V216.35Z" fill="#FF826E"/>
<path d="M360.414 376.35V408.35H352.014C342.494 408.35 334.014 414.03 330.414 422.75C330.414 422.83 330.334 422.99 330.334 423.07C326.654 431.79 328.574 441.87 335.294 448.59L341.294 454.59L318.654 477.23L312.654 471.23C305.934 464.51 295.854 462.59 287.134 466.27C287.054 466.27 286.894 466.35 286.814 466.35C278.094 469.95 272.414 478.43 272.414 487.95V496.35H240.414V487.95C240.414 478.43 234.734 469.95 226.014 466.35C225.934 466.35 225.774 466.27 225.694 466.27C216.974 462.59 206.894 464.51 200.174 471.23L194.174 477.23L171.534 454.59L177.534 448.59C184.254 441.87 186.174 431.79 182.494 423.07C182.494 422.99 182.414 422.83 182.414 422.75C178.814 414.03 170.334 408.35 160.814 408.35H152.414V376.35H160.814C170.334 376.35 178.814 370.67 182.414 361.95C182.414 361.87 182.494 361.71 182.494 361.63C186.174 352.91 184.254 342.83 177.534 336.11L171.534 330.11L192.414 309.23L194.174 307.47L200.174 313.47C206.894 320.19 216.974 322.11 225.694 318.43C225.774 318.43 225.934 318.35 226.014 318.35C234.734 314.75 240.414 306.27 240.414 296.75V288.35H272.414V296.75C272.414 306.27 278.094 314.75 286.814 318.35C286.894 318.35 287.054 318.43 287.134 318.43C295.854 322.11 305.934 320.19 312.654 313.47L318.654 307.47L320.414 309.23L341.294 330.11L335.294 336.11C328.574 342.83 326.654 352.91 330.334 361.63C330.334 361.71 330.414 361.87 330.414 361.95C334.014 370.67 342.494 376.35 352.014 376.35H360.414ZM304.414 392.35C304.414 365.87 282.894 344.35 256.414 344.35C229.934 344.35 208.414 365.87 208.414 392.35C208.414 418.83 229.934 440.35 256.414 440.35C282.894 440.35 304.414 418.83 304.414 392.35Z" fill="#FCD770"/>
<path d="M160.414 256.35V264.35C160.414 304.11 128.174 336.35 88.4141 336.35C68.5741 336.35 50.4941 328.27 37.5341 315.23C24.4941 302.27 16.4141 284.19 16.4141 264.35V256.35H160.414Z" fill="#AAB2BD"/>
<path d="M496.414 256.35V264.35C496.414 284.19 488.334 302.27 475.294 315.23C462.334 328.27 444.254 336.35 424.414 336.35C384.654 336.35 352.414 304.11 352.414 264.35V256.35H496.414Z" fill="#AAB2BD"/>
<path d="M306.94 151.934L301.876 136.766C284.476 142.566 270.62 156.422 264.82 173.822L279.988 178.886C284.22 166.23 294.292 156.158 306.94 151.934V151.934Z" fill="black"/>
<path d="M488.414 120.35C497.238 120.35 504.414 113.174 504.414 104.35V88.3496C504.414 79.5256 497.238 72.3496 488.414 72.3496H445.358C439.734 67.4296 432.462 64.3496 424.414 64.3496C416.366 64.3496 409.094 67.4296 403.47 72.3496H342.942C343.838 69.8376 344.414 67.1656 344.414 64.3496V48.3496C344.414 35.1176 333.646 24.3496 320.414 24.3496C317.254 24.3496 314.254 24.9976 311.486 26.1096C308.726 15.9096 299.478 8.34961 288.414 8.34961C282.246 8.34961 276.67 10.7576 272.414 14.5896C268.158 10.7576 262.582 8.34961 256.414 8.34961C250.246 8.34961 244.67 10.7576 240.414 14.5896C236.158 10.7576 230.582 8.34961 224.414 8.34961C211.182 8.34961 200.414 19.1176 200.414 32.3496V56.3496C188.622 56.3496 178.414 62.8296 172.862 72.3496H109.358C103.734 67.4296 96.4621 64.3496 88.4141 64.3496C80.3661 64.3496 73.0941 67.4296 67.4701 72.3496H24.4141C15.5901 72.3496 8.41406 79.5256 8.41406 88.3496V104.35C8.41406 113.174 15.5901 120.35 24.4141 120.35H67.4701C68.4301 121.19 69.3661 122.062 70.4221 122.79L8.41406 254.558V264.35C8.41406 308.462 44.3021 344.35 88.4141 344.35C132.526 344.35 168.414 308.462 168.414 264.35V254.558L106.406 122.782C107.462 122.062 108.398 121.182 109.358 120.342H168.414V136.342C168.414 160.742 175.598 184.95 188.742 205.47C186.078 208.342 184.414 212.142 184.414 216.35V305.91L160.222 330.102L171.87 341.75C176.278 346.166 177.566 352.766 175.022 358.878C172.63 364.63 167.078 368.35 160.854 368.35H144.414V416.35H160.854C167.078 416.35 172.638 420.07 175.142 426.126C177.566 431.934 176.278 438.534 171.87 442.95L160.222 454.598L194.174 488.55L205.822 476.902C210.23 472.486 216.814 471.19 222.95 473.75C228.694 476.134 232.414 481.686 232.414 487.91V504.35H280.414V487.91C280.414 481.686 284.134 476.126 290.19 473.622C296.014 471.198 302.606 472.486 307.014 476.894L318.662 488.542L352.614 454.59L340.966 442.942C336.558 438.526 335.27 431.926 337.814 425.814C340.198 420.07 345.75 416.35 351.974 416.35H368.414V368.35H351.974C345.75 368.35 340.19 364.63 337.686 358.574C335.262 352.766 336.55 346.166 340.958 341.75L352.606 330.102L328.414 305.91V216.35C328.414 212.142 326.75 208.342 324.086 205.478C337.23 184.958 344.414 160.75 344.414 136.35V120.35H403.47C404.43 121.19 405.366 122.062 406.422 122.79L344.414 254.558V264.35C344.414 308.462 380.302 344.35 424.414 344.35C468.526 344.35 504.414 308.462 504.414 264.35V254.558L442.406 122.782C443.462 122.062 444.398 121.182 445.358 120.342H488.414V120.35ZM88.4141 80.3496C97.2381 80.3496 104.414 87.5256 104.414 96.3496C104.414 105.174 97.2381 112.35 88.4141 112.35C79.5901 112.35 72.4141 105.174 72.4141 96.3496C72.4141 87.5256 79.5901 80.3496 88.4141 80.3496ZM24.4141 88.3496H57.5501C56.8781 90.9256 56.4141 93.5736 56.4141 96.3496C56.4141 99.1256 56.8781 101.774 57.5501 104.35H24.4141V88.3496ZM88.4141 328.35C53.1261 328.35 24.4141 299.638 24.4141 264.35H152.414C152.414 299.638 123.702 328.35 88.4141 328.35ZM147.806 248.35H29.0221L85.6301 128.07C86.5581 128.15 87.4621 128.35 88.4141 128.35C89.3661 128.35 90.2701 128.15 91.1981 128.07L147.806 248.35ZM119.278 104.35C119.95 101.774 120.414 99.1256 120.414 96.3496C120.414 93.5736 119.95 90.9256 119.278 88.3496H168.414V104.35H119.278ZM488.414 104.35H455.278C455.95 101.774 456.414 99.1256 456.414 96.3496C456.414 93.5736 455.95 90.9256 455.278 88.3496H488.414V104.35ZM424.414 80.3496C433.238 80.3496 440.414 87.5256 440.414 96.3496C440.414 105.174 433.238 112.35 424.414 112.35C415.59 112.35 408.414 105.174 408.414 96.3496C408.414 87.5256 415.59 80.3496 424.414 80.3496ZM393.55 104.35H279.446C285.326 100.35 289.902 94.7896 292.83 88.3496H393.55C392.878 90.9256 392.414 93.5736 392.414 96.3496C392.414 99.1256 392.878 101.774 393.55 104.35V104.35ZM320.414 40.3496C324.83 40.3496 328.414 43.9336 328.414 48.3496V64.3496C328.414 68.7656 324.83 72.3496 320.414 72.3496C315.998 72.3496 312.414 68.7656 312.414 64.3496V48.3496C312.414 43.9336 315.998 40.3496 320.414 40.3496ZM288.414 24.3496C292.83 24.3496 296.414 27.9336 296.414 32.3496V64.3496C296.414 65.5496 296.11 66.6616 295.638 67.6776C293.622 61.1416 287.598 56.3496 280.414 56.3496V32.3496C280.414 27.9336 283.998 24.3496 288.414 24.3496ZM256.414 24.3496C260.83 24.3496 264.414 27.9336 264.414 32.3496V56.3496H248.414V32.3496C248.414 27.9336 251.998 24.3496 256.414 24.3496ZM216.414 32.3496C216.414 27.9336 219.998 24.3496 224.414 24.3496C228.83 24.3496 232.414 27.9336 232.414 32.3496V56.3496H216.414V32.3496ZM312.414 216.35V302.398L307.006 307.806C302.598 312.206 296.014 313.51 289.878 310.942C284.134 308.566 280.414 303.014 280.414 296.79V280.35H232.414V296.79C232.414 303.014 228.694 308.574 222.63 311.07C216.838 313.494 210.23 312.222 205.814 307.806L200.414 302.398V216.35H312.414ZM323.03 364.99C327.886 376.75 339.254 384.35 351.974 384.35H352.414V400.35H351.974C339.254 400.35 327.886 407.95 322.918 419.966C317.99 431.782 320.63 445.238 329.646 454.254L329.982 454.59L318.654 465.918L318.318 465.582C309.31 456.582 295.862 453.918 283.774 458.966C272.014 463.83 264.414 475.19 264.414 487.91V488.35H248.414V487.91C248.414 475.19 240.814 463.822 228.798 458.854C216.982 453.926 203.526 456.558 194.51 465.582L194.174 465.918L182.846 454.59L183.182 454.254C192.198 445.238 194.838 431.774 189.798 419.71C184.934 407.95 173.574 400.35 160.854 400.35H160.414V384.35H160.854C173.574 384.35 184.942 376.75 189.91 364.734C194.838 352.918 192.198 339.462 183.182 330.446L182.846 330.11L194.174 318.782L194.51 319.118C203.518 328.134 216.982 330.774 229.054 325.734C240.814 320.878 248.414 309.518 248.414 296.79V296.35H264.414V296.79C264.414 309.518 272.014 320.878 284.022 325.838C295.822 330.75 309.294 328.142 318.318 319.118L318.654 318.782L329.982 330.11L329.646 330.446C320.63 339.462 317.99 352.918 323.03 364.99V364.99ZM328.414 136.35C328.414 159.126 321.222 181.662 308.222 200.35H204.606C191.606 181.662 184.414 159.126 184.414 136.35V88.3496C184.414 79.5256 191.59 72.3496 200.414 72.3496H280.414C280.414 82.8056 273.326 91.8696 263.198 94.4136L211.462 107.342L217.758 116.79C227.342 131.174 232.414 147.91 232.414 165.19V168.35H248.414V165.19C248.414 149.526 244.766 134.286 238.022 120.35H328.414V136.35ZM424.414 328.35C389.126 328.35 360.414 299.638 360.414 264.35H488.414C488.414 299.638 459.702 328.35 424.414 328.35ZM483.806 248.35H365.022L421.63 128.07C422.558 128.15 423.462 128.35 424.414 128.35C425.366 128.35 426.27 128.15 427.198 128.07L483.806 248.35Z" fill="black"/>
<path d="M256.414 336.35C225.542 336.35 200.414 361.478 200.414 392.35C200.414 423.222 225.542 448.35 256.414 448.35C287.286 448.35 312.414 423.222 312.414 392.35C312.414 361.478 287.286 336.35 256.414 336.35ZM256.414 432.35C234.358 432.35 216.414 414.406 216.414 392.35C216.414 370.294 234.358 352.35 256.414 352.35C278.47 352.35 296.414 370.294 296.414 392.35C296.414 414.406 278.47 432.35 256.414 432.35Z" fill="black"/>
</svg>
