<svg height="512pt" viewBox="-17 0 512 512" width="512pt" xmlns="http://www.w3.org/2000/svg"><path d="m469.777344 139.78125v364.71875h-462.28125v-233.378906s49.042968-91.371094 120.140625-71.269532c50 14.136719 51.75 64.226563 107 64.226563 65 0 48.28125-124.296875 235.140625-124.296875zm0 0" fill="#00d2f9"/><path d="m469.777344 288.109375v216.390625h-462.28125v-134.371094c2.03125-2.828125 4.3125-5.738281 6.863281-8.660156 14.289063-16.328125 40.027344-35.789062 81.558594-35.789062 33.710937 0 53.058593 21.742187 70.128906 40.921874 17.3125 19.449219 32.269531 36.25 61.230469 36.25 26.320312 0 47.582031-27.960937 70.082031-57.5625 25.347656-33.328124 51.558594-67.789062 92.058594-74.507812 6.820312-1.132812 13.609375-1.703125 20.191406-1.703125 28.519531 0 48.648437 10.59375 60.167969 19.03125zm0 0" fill="#00abef"/><path d="m469.777344 308v196.5h-462.28125v-102.480469s18.921875-61.339843 88.421875-61.339843c56.589843 0 63.160156 77.171874 131.359375 77.171874 66.300781 0 94.0625-120.582031 164.589844-132.273437 51.769531-8.578125 77.910156 22.421875 77.910156 22.421875zm0 0" fill="#ff6672"/><path d="m469.777344 369.25v135.25h-462.28125v-47.378906s14.582031-61.339844 87.820312-61.339844c59.632813 0 71.910156 77.167969 143.78125 77.167969 69.859375 0 98.109375-132.269531 173.441406-132.269531 23.628907 0 42.488282 12.039062 57.238282 28.570312zm0 0" fill="#f92f41"/><path d="m438.652344 65.179688c0 20.078124-16.277344 36.351562-36.355469 36.351562s-36.351563-16.273438-36.351563-36.351562c0-20.078126 16.273438-36.355469 36.351563-36.355469s36.355469 16.277343 36.355469 36.355469zm0 0" fill="#ff6672"/><path d="m438.652344 65.179688c0 20.078124-16.273438 36.351562-36.351563 36.351562-4.023437 0-7.890625-.652344-11.503906-1.859375 14.433594-4.808594 24.84375-18.4375 24.84375-34.492187 0-16.054688-10.410156-29.679688-24.84375-34.5 3.613281-1.203126 7.484375-1.855469 11.503906-1.855469 20.078125-.003907 36.351563 16.277343 36.351563 36.355469zm0 0" fill="#f92f41"/><path d="m144.992188 124.5c0 20.078125-16.277344 36.355469-36.355469 36.355469s-36.351563-16.277344-36.351563-36.355469 16.273438-36.355469 36.351563-36.355469 36.355469 16.277344 36.355469 36.355469zm0 0" fill="#00d2f9"/><path d="m144.992188 124.5c0 20.078125-16.273438 36.351562-36.347657 36.351562-4.023437 0-7.890625-.652343-11.507812-1.859374 14.433593-4.808594 24.84375-18.4375 24.84375-34.492188s-10.410157-29.679688-24.84375-34.5c3.617187-1.203125 7.484375-1.855469 11.507812-1.855469 20.074219-.003906 36.347657 16.28125 36.347657 36.355469zm0 0" fill="#00abef"/><path d="m412.539062 333.179688c-31.722656 0-54.449218 20.960937-70.699218 39.226562-2.753906 3.09375-2.480469 7.832031.613281 10.585938 1.433594 1.273437 3.210937 1.898437 4.984375 1.898437 2.066406 0 4.125-.851563 5.605469-2.515625 21.046875-23.648438 39.394531-34.195312 59.496093-34.195312 18.835938 0 36.210938 8.769531 51.644532 26.0625 2.757812 3.089843 7.496094 3.359374 10.585937.601562 3.09375-2.757812 3.363281-7.496094.605469-10.585938-18.402344-20.621093-39.539062-31.078124-62.835938-31.078124zm0 0"/><path d="m469.777344 478.5c-4.144532 0-7.5 3.359375-7.5 7.5v11h-447.277344v-38.910156c1.96875-7.023438 17.679688-54.808594 80.320312-54.808594 25.332032 0 41.070313 15.621094 59.292969 33.707031 20.523438 20.371094 43.785157 43.460938 84.484375 43.460938 37.988282 0 64.027344-34.175781 89.210938-67.222657l3.269531-4.285156c2.515625-3.289062 1.886719-7.996094-1.40625-10.511718-3.289063-2.515626-8-1.882813-10.515625 1.40625l-3.277344 4.300781c-24.027344 31.53125-46.722656 61.3125-77.28125 61.3125-34.519531 0-53.65625-18.996094-73.914062-39.105469-18.855469-18.714844-38.347656-38.0625-69.863282-38.0625-40.734374 0-64.429687 18.144531-77.132812 33.363281-1.132812 1.359375-2.179688 2.714844-3.1875 4.0625v-22.449219c1.222656-3.390624 5.929688-15.128906 16.292969-26.96875 16.316406-18.652343 38.0625-28.109374 64.628906-28.109374 23.609375 0 37.378906 15.46875 53.320313 33.375 18.273437 20.53125 38.984374 43.796874 78.039062 43.796874 37.472656 0 63.15625-33.777343 87.992188-66.441406 22.683593-29.832031 46.140624-60.679687 77.824218-65.929687.570313-.097657 1.132813-.167969 1.703125-.253907v19.273438c0 4.140625 3.355469 7.5 7.5 7.5 4.140625 0 7.5-3.359375 7.5-7.5v-20.421875c13.109375.007813 25.296875 2.789063 36.375 8.34375 11.640625 5.835937 17.71875 12.738281 17.890625 12.9375 2.675782 3.144531 7.390625 3.539063 10.546875.875 3.167969-2.671875 3.570313-7.402344.898438-10.570313-1.035157-1.226562-22.976563-26.585937-65.710938-26.597656v-124.03125c18.007813-3.515625 37.9375-5.25 59.976563-5.25 4.144531 0 7.5-3.359375 7.5-7.5 0-4.144531-3.355469-7.5-7.5-7.5-22.742188 0-42.578125 1.800782-59.976563 4.976563v-28.882813c20.617188-3.570312 36.351563-21.578125 36.351563-43.199218 0-24.183594-19.671875-43.855469-43.851563-43.855469-24.183593 0-43.855469 19.671875-43.855469 43.855469 0 4.140624 3.355469 7.5 7.5 7.5 4.144532 0 7.5-3.359376 7.5-7.5 0-15.914063 12.945313-28.855469 28.855469-28.855469 15.910157 0 28.851563 12.945312 28.851563 28.855469 0 15.910156-12.941406 28.851562-28.851563 28.851562-5.710937 0-11.230469-1.660156-15.957031-4.804688-3.449219-2.296874-8.101562-1.359374-10.398438 2.089844-2.292968 3.449219-1.355468 8.105469 2.09375 10.398438 5.097657 3.390625 10.789063 5.640625 16.761719 6.671875v32.09375c-64.464843 15.96875-91.703125 52.164062-112.988281 80.460937-15.558594 20.6875-26.800781 35.636719-47.171875 35.636719-24.886719 0-37.195313-10.914063-50.695313-25.179687-2.847656-3.007813-7.59375-3.140626-10.601562-.292969-3.007812 2.847656-3.140625 7.59375-.292969 10.601562 14.894531 15.742188 30.816407 29.871094 61.589844 29.871094 27.855469 0 42.363281-19.289063 59.160156-41.621094 13.585938-18.058593 28.980469-38.527343 55.140625-54.640625 13.496094-8.308594 28.71875-14.738281 45.859375-19.328125v121.578125c-1.371093.179688-2.75.378906-4.15625.613282-37.5625 6.226562-62.851562 39.484374-87.308593 71.648437-23.667969 31.125-46.019532 60.519531-76.054688 60.519531-32.324219 0-49.089844-18.832031-66.835938-38.769531-16.804687-18.878906-34.183593-38.398437-64.523437-38.398437-38.714844 0-62.652344 18.070312-75.917969 33.230468-1.816406 2.074219-3.472656 4.148438-5 6.191406v-99.511718c3.128906-5.398438 14.339844-23.695313 31.359375-39.984375 17.992188-17.214844 36.332031-26.699219 54.777344-28.378907v25.273438c0 4.140625 3.359375 7.5 7.5 7.5s7.5-3.359375 7.5-7.5v-24.914062c3.152344.4375 6.304687 1.09375 9.460937 1.984374 8.5625 2.421876 16.257813 6.214844 23.519532 11.597657 3.328125 2.464843 8.023437 1.769531 10.492187-1.558594 2.464844-3.328125 1.765625-8.027344-1.5625-10.492187-8.746093-6.484376-18.027343-11.054688-28.371093-13.980469-4.5-1.273438-9.019532-2.144531-13.539063-2.644531v-22.292969c20.617187-3.570313 36.351563-21.574219 36.351563-43.199219 0-24.183594-19.671876-43.855469-43.851563-43.855469-24.183594 0-43.855469 19.671875-43.855469 43.855469 0 21.625 15.734375 39.628906 36.351563 43.199219v22.039062c-22.375 1.714844-44.589844 12.769531-65.425781 32.800781-8.296876 7.976563-15.25 16.277344-20.710938 23.546876v-231.085938h11c4.140625 0 7.5-3.359375 7.5-7.5s-3.359375-7.5-7.5-7.5h-18.5c-4.140625 0-7.5 3.359375-7.5 7.5v497c0 4.140625 3.359375 7.5 7.5 7.5h462.277344c4.144531 0 7.5-3.359375 7.5-7.5v-18.5c0-4.140625-3.355469-7.5-7.5-7.5zm-389.992188-354c0-15.910156 12.941406-28.855469 28.851563-28.855469 15.910156 0 28.855469 12.945313 28.855469 28.855469s-12.945313 28.855469-28.855469 28.855469c-15.910157 0-28.851563-12.945313-28.851563-28.855469zm0 0"/></svg>