<svg width="512" height="512" viewBox="0 0 512 512" fill="none" xmlns="http://www.w3.org/2000/svg">
<path d="M256 80C256 88 254 95.52 252 101.04C250 106.56 248 110.08 248 110.08L247.92 110.16C243.68 106.32 238.16 104 232 104H224V96.96C224 92.32 222.08 88 219.04 84.96C216 81.92 211.68 80 207.04 80C202.56 80 198.24 81.76 195.04 84.96C188 92 178.4 96 168.4 96H144H128C122.08 96 116.96 99.2 114.16 104H104C97.84 104 92.32 106.32 88.08 110.16L88 110.08C88 110.08 80 96.08 80 80C80 71.2 83.6 63.2 89.36 57.36C95.2 51.6 103.2 48 112 48C116.96 38.24 124.4 30.24 133.36 24.64C142.32 19.12 152.8 16 163.76 16H172.24C194.16 16 214.16 28.4 224 48C232.8 48 240.8 51.6 246.64 57.36C252.4 63.2 256 71.2 256 80V80Z" fill="#B27946"/>
<path d="M208 320V464H16V320H32H144H192H208Z" fill="#FF826E"/>
<path d="M256 440V448C256 456.8 248.8 464 240 464H208V320H240C248.8 320 256 327.2 256 336V440Z" fill="#FC6E51"/>
<path d="M184 288L192 320H144L152 288H184Z" fill="#E6E9ED"/>
<path d="M189.918 269.12L183.998 288H151.998L146.078 269.12L167.998 256L189.918 269.12Z" fill="#E6E9ED"/>
<path d="M146.08 269.12L152 288L144 320H32V304.48C32 291.84 35.2 279.6 40.96 268.8C46.72 258 55.2 248.56 65.68 241.52C75.12 235.28 85.84 231.2 97.04 229.6L120 226.32L128 280L146.08 269.12Z" fill="#B4DD7F"/>
<path d="M304 306.24V306.32C299.68 307.6 295.68 309.6 291.92 312.08L256 336C256 327.2 248.8 320 240 320H208H192L184 288L189.92 269.12L208 280L216 226.32L239.04 229.6C250.16 231.2 260.88 235.28 270.32 241.52C280.8 248.48 289.12 257.84 294.96 268.56C300.72 279.28 303.92 291.44 304 304V306.24Z" fill="#B4DD7F"/>
<path d="M216 226.32L208 280L189.92 269.12L168 256L200 224L216 226.32Z" fill="#A0D468"/>
<path d="M168 256L146.08 269.12L128 280L120 226.32L136 224L168 256Z" fill="#A0D468"/>
<path d="M496 200V296C496 300.4 492.4 304 488 304H448H392H344C339.6 304 336 300.4 336 296V200C336 195.6 339.6 192 344 192H384H448H488C492.4 192 496 195.6 496 200Z" fill="#FCD770"/>
<path d="M480 336C488.8 336 496 343.2 496 352C496 356.4 494.24 360.4 491.28 363.28C488.4 366.24 484.4 368 480 368H448C439.2 368 432 360.8 432 352C432 347.6 433.76 343.6 436.72 340.72C439.6 337.76 443.6 336 448 336H480Z" fill="#F0D0B4"/>
<path d="M480 368C488.8 368 496 375.2 496 384C496 388.4 494.24 392.4 491.28 395.28C488.4 398.24 484.4 400 480 400H448C439.2 400 432 392.8 432 384C432 379.6 433.76 375.6 436.72 372.72C439.6 369.76 443.6 368 448 368H480Z" fill="#F0D0B4"/>
<path d="M480 400C488.8 400 496 407.2 496 416C496 420.4 494.24 424.4 491.28 427.28C488.4 430.24 484.4 432 480 432H448C439.2 432 432 424.8 432 416C432 411.6 433.76 407.6 436.72 404.72C439.6 401.76 443.6 400 448 400H480Z" fill="#F0D0B4"/>
<path d="M480 432C488.8 432 496 439.2 496 448C496 452.4 494.24 456.4 491.28 459.28C488.4 462.24 484.4 464 480 464H448C439.2 464 432 456.8 432 448C432 443.6 433.76 439.6 436.72 436.72C439.6 433.76 443.6 432 448 432H480Z" fill="#F0D0B4"/>
<path d="M416 160H472H480C480 177.68 465.68 192 448 192H384C366.32 192 352 177.68 352 160H360H416Z" fill="#CCD1D9"/>
<path d="M448 464V480C448 488.8 440.8 496 432 496H400C391.2 496 384 488.8 384 480V464V352H392C405.28 352 416 341.28 416 328C416 321.36 413.28 315.36 408.96 311.04C404.64 306.72 398.64 304 392 304H448V336C443.6 336 439.6 337.76 436.72 340.72C433.76 343.6 432 347.6 432 352C432 360.8 439.2 368 448 368C443.6 368 439.6 369.76 436.72 372.72C433.76 375.6 432 379.6 432 384C432 392.8 439.2 400 448 400C443.6 400 439.6 401.76 436.72 404.72C433.76 407.6 432 411.6 432 416C432 424.8 439.2 432 448 432C443.6 432 439.6 433.76 436.72 436.72C433.76 439.6 432 443.6 432 448C432 456.8 439.2 464 448 464Z" fill="#AAB2BD"/>
<path d="M384 352V464H342.64C312.16 464 282.16 455.68 256 440V336L291.92 312.08C295.68 309.6 299.68 307.6 304 306.32C308.64 304.8 313.6 304 318.56 304H344H392C398.64 304 404.64 306.72 408.96 311.04C413.28 315.36 416 321.36 416 328C416 341.28 405.28 352 392 352H384Z" fill="#F0D0B4"/>
<path d="M471.6 48.4C468.8 43.36 465.28 38.8 461.28 34.72C455.84 29.28 449.36 24.8 442.24 21.6C434.24 18 425.36 16 416 16C406.64 16 397.68 18 389.68 21.68C377.28 27.2 367.04 36.64 360.4 48.4C355.04 57.68 352 68.48 352 80V160H480V80C480 68.48 476.96 57.68 471.6 48.4Z" fill="#AAB2BD"/>
<path d="M247.919 110.16C252.879 114.4 255.999 120.88 255.999 128C255.999 134.64 253.279 140.64 248.959 144.96C244.639 149.28 238.639 152 231.999 152H223.439H223.359C223.839 149.44 223.999 146.72 223.999 144V104H231.999C238.159 104 243.679 106.32 247.919 110.16V110.16Z" fill="#F0D0B4"/>
<path d="M224 104V144C224 146.72 223.84 149.44 223.36 152C220.8 170.72 208.88 186.4 192.56 194.32C185.2 198 176.88 200 168 200C159.12 200 150.8 198 143.44 194.32C137.84 191.6 132.8 188 128.4 183.6C120 175.2 114.32 164.32 112.64 152C112.16 149.44 112 146.72 112 144V112C112 109.12 112.8 106.32 114.16 104C116.96 99.2 122.08 96 128 96H144H168.4C178.4 96 188 92 195.04 84.96C198.24 81.76 202.56 80 207.04 80C211.68 80 216 81.92 219.04 84.96C222.08 88 224 92.32 224 96.96V104Z" fill="#F0D0B4"/>
<path d="M192.56 194.32L200 224L168 256L136 224L143.44 194.32C150.8 198 159.12 200 168 200C176.88 200 185.2 198 192.56 194.32Z" fill="#F0D0B4"/>
<path d="M104 104H114.16C112.8 106.32 112 109.12 112 112V144C112 146.72 112.16 149.44 112.64 152H104C97.36 152 91.36 149.28 87.04 144.96C82.72 140.64 80 134.64 80 128C80 120.88 83.12 114.4 88.08 110.16C92.32 106.32 97.84 104 104 104V104Z" fill="#F0D0B4"/>
<path d="M144 136C148.418 136 152 132.418 152 128C152 123.582 148.418 120 144 120C139.582 120 136 123.582 136 128C136 132.418 139.582 136 144 136Z" fill="black"/>
<path d="M192 136C196.418 136 200 132.418 200 128C200 123.582 196.418 120 192 120C187.582 120 184 123.582 184 128C184 132.418 187.582 136 192 136Z" fill="black"/>
<path d="M198.312 157.262L199.152 155.574L184.84 148.414L184 150.11C180.952 156.206 174.824 159.998 168 159.998C161.176 159.998 155.056 156.206 152 150.11L151.16 148.422L136.848 155.582L137.688 157.27C143.472 168.822 155.088 175.998 168 175.998C180.92 175.998 192.536 168.822 198.312 157.262V157.262Z" fill="black"/>
<path d="M408 216H424V232H408V216Z" fill="black"/>
<path d="M488 312C496.824 312 504 304.824 504 296V200C504 191.176 496.824 184 488 184H479.792C484.872 177.296 488 169.04 488 160V80C488 40.304 455.704 8 416 8C376.296 8 344 40.304 344 80V160C344 169.04 347.128 177.296 352.208 184H344C335.176 184 328 191.176 328 200V296H318.528C316.16 296 313.816 296.224 311.488 296.52C309.096 271.592 295.792 248.912 274.72 234.872C264.384 227.984 252.424 223.416 240.128 221.656L206.456 216.84L201.8 198.24C215.52 189.656 225.728 176.056 229.888 160H232C249.648 160 264 145.648 264 128C264 120.784 261.512 114.192 257.472 108.84C260.152 102.752 264 92 264 80C264 59.608 248.656 42.728 228.912 40.304C217.088 20.264 195.776 8 172.224 8H163.776C140.232 8 118.912 20.264 107.08 40.304C87.344 42.728 72 59.608 72 80C72 92 75.848 102.752 78.528 108.84C74.488 114.192 72 120.784 72 128C72 145.648 86.352 160 104 160H106.104C110.264 176.056 120.48 189.664 134.2 198.248L129.552 216.84L95.872 221.656C83.568 223.416 71.608 227.992 61.28 234.872C37.936 250.424 24 276.464 24 304.512V312H8V472H240C251.456 472 261.04 463.92 263.408 453.16C287.944 465.496 315.072 472 342.648 472H376V480C376 493.232 386.768 504 400 504H432C445.232 504 456 493.232 456 480V472H480C493.232 472 504 461.232 504 448C504 441.832 501.592 436.256 497.76 432C501.6 427.744 504 422.168 504 416C504 409.832 501.592 404.256 497.76 400C501.6 395.744 504 390.168 504 384C504 377.832 501.592 372.256 497.76 368C501.6 363.744 504 358.168 504 352C504 338.768 493.232 328 480 328H456V312H488ZM472 148.688L455.312 132L472 115.312V148.688ZM472 80V92.688L455.312 76L469.064 62.248C470.944 67.832 472 73.792 472 80ZM460.688 104L444 120.688L427.312 104L444 87.312L460.688 104ZM432.688 132L416 148.688L399.312 132L416 115.312L432.688 132ZM416 92.688L399.312 76L416 59.312L432.688 76L416 92.688ZM404.688 104L388 120.688L371.312 104L388 87.312L404.688 104ZM376.688 132L360 148.688V115.312L376.688 132ZM360 92.688V80C360 73.792 361.056 67.832 362.936 62.248L376.688 76L360 92.688ZM388 143.312L396.688 152H379.312L388 143.312ZM444 143.312L452.688 152H435.312L444 143.312ZM461.376 47.312L444 64.688L427.312 48L443.832 31.48C450.752 35.464 456.72 40.872 461.376 47.312ZM427.496 25.2L416 36.688L404.512 25.2C408.224 24.416 412.064 24 416 24C419.936 24 423.784 24.416 427.496 25.2ZM388.168 31.48L404.688 48L388 64.688L370.624 47.312C375.28 40.872 381.248 35.456 388.168 31.48ZM361.472 168H470.52C467.208 177.288 458.408 184 447.992 184H383.992C373.584 184 364.784 177.288 361.472 168ZM344 200H488V296H344V200ZM265.848 248.184C283.704 260.088 294.656 279.648 295.784 300.904C292.912 302.184 290.112 303.64 287.464 305.408L260.368 323.472C256.144 316.616 248.632 312 240 312H198.24L192.304 288.24L194.496 281.224L214.144 293.016L222.744 235.328L237.864 237.488C247.824 238.912 257.496 242.608 265.848 248.184ZM168 265.328L180.384 272.76L178.12 280H157.88L155.616 272.76L168 265.328ZM158.248 296H177.76L181.76 312H154.24L158.248 296ZM206.904 233.064L201.856 266.976L180.904 254.408L202.832 232.48L206.904 233.064ZM232 144V112C240.824 112 248 119.176 248 128C248 136.824 240.824 144 232 144ZM112 56H116.944L119.152 51.576C127.656 34.568 144.76 24 163.784 24H172.232C191.248 24 208.352 34.568 216.848 51.576L219.056 56H224C237.232 56 248 66.768 248 80C248 87.008 246.176 93.656 244.392 98.504C240.584 96.896 236.392 96 232 96H231.904C231.384 82.688 220.464 72 207.032 72C200.456 72 194.024 74.664 189.376 79.312C183.776 84.912 176.32 88 168.4 88H128C120.936 88 114.64 91.128 110.24 96H104C99.608 96 95.424 96.896 91.608 98.504C89.832 93.648 88 86.992 88 80C88 66.768 98.768 56 112 56ZM88 128C88 119.176 95.176 112 104 112V144C95.176 144 88 136.824 88 128ZM120 144V112C120 107.592 123.584 104 128 104H168.4C180.592 104 192.064 99.248 200.688 90.624C202.36 88.96 204.672 88 207.032 88C211.976 88 216 92.024 216 96.968V144C216 170.472 194.472 192 168 192C141.528 192 120 170.472 120 144ZM168 208C174.624 208 181.024 206.984 187.032 205.112L191.136 221.552L168 244.688L144.856 221.544L148.968 205.112C154.984 206.984 161.376 208 168 208ZM133.176 232.488L155.104 254.416L134.152 266.984L129.104 233.072L133.176 232.488ZM40 304.512C40 281.824 51.272 260.76 70.152 248.176C78.504 242.608 88.184 238.912 98.136 237.488L113.256 235.328L121.856 293.016L141.512 281.224L143.704 288.24L137.76 312H40V304.512ZM24 328H200V456H24V328ZM248 448C248 452.408 244.416 456 240 456H216V328H240C244.416 328 248 331.592 248 336V448ZM342.648 456C315.064 456 287.992 448.8 264 435.296V340.28L296.344 318.72C302.936 314.328 310.608 312 318.528 312H392C400.824 312 408 319.176 408 328C408 336.824 400.824 344 392 344H347.72L343.376 350.512C335.304 362.616 323.264 371.816 309.472 376.408L314.536 391.584C331.456 385.944 346.256 374.736 356.28 359.992H376V455.992H342.648V456ZM488 384C488 388.408 484.416 392 480 392H448C443.584 392 440 388.408 440 384C440 379.592 443.584 376 448 376H480C484.416 376 488 379.592 488 384ZM488 416C488 420.408 484.416 424 480 424H448C443.584 424 440 420.408 440 416C440 411.592 443.584 408 448 408H480C484.416 408 488 411.592 488 416ZM480 456H448C443.584 456 440 452.408 440 448C440 443.592 443.584 440 448 440H480C484.416 440 488 443.592 488 448C488 452.408 484.416 456 480 456ZM488 352C488 356.408 484.416 360 480 360H448C443.584 360 440 356.408 440 352C440 347.592 443.584 344 448 344H480C484.416 344 488 347.592 488 352ZM440 329.472C430.712 332.784 424 341.584 424 352C424 358.168 426.408 363.744 430.24 368C426.4 372.256 424 377.832 424 384C424 390.168 426.408 395.744 430.24 400C426.4 404.256 424 409.832 424 416C424 422.168 426.408 427.744 430.24 432C426.4 436.256 424 441.832 424 448C424 458.416 430.712 467.216 440 470.528V480C440 484.408 436.416 488 432 488H400C395.584 488 392 484.408 392 480V360C409.648 360 424 345.648 424 328C424 322.144 422.304 316.728 419.552 312H440V329.472Z" fill="black"/>
<path d="M168 424H184V440H168V424Z" fill="black"/>
<path d="M136 424H152V440H136V424Z" fill="black"/>
<path d="M440 216H456V232H440V216Z" fill="black"/>
<path d="M376 216H392V232H376V216Z" fill="black"/>
</svg>
