<svg width="512" height="512" viewBox="0 0 512 512" fill="none" xmlns="http://www.w3.org/2000/svg">
<path d="M304 464V496H264L268.4 487.12C270.8 482.48 272 477.28 272 472C272 466.72 270.8 461.52 268.4 456.88L256 432H264C283.44 432 299.52 418.24 303.2 400H304V432V464Z" fill="#E6E9ED"/>
<path d="M246.64 144C244.88 132.88 241.68 121.84 238.16 112H304V144V200V208H192C203.04 208 213.04 203.52 220.32 196.32C223.84 192.8 226.64 188.64 228.64 184C230.8 179.12 232 173.68 232 168L248 160C248 154.8 247.52 149.36 246.64 144Z" fill="#E6E9ED"/>
<path d="M488 32H448H243.68C246.4 36.72 248 42.16 248 48C248 63.04 237.68 75.6 223.68 79.04C223.68 79.04 223.84 79.36 224.24 80H448V112V160V208V240V272V304V336V368V400V408V464V496H488C492.4 496 496 492.4 496 488V80V40C496 35.6 492.4 32 488 32Z" fill="#D3A06C"/>
<path d="M447.998 80V112H399.998H351.998H303.998H238.158C232.478 96 225.998 83.44 224.238 80H447.998Z" fill="#DFB28B"/>
<path d="M448 208V240H229.44H229.36L192 232V208H304H352H400H448Z" fill="#DFB28B"/>
<path d="M448.001 240V272H400.001H352.001H293.121C284.001 258.64 270.081 248.72 253.441 245.12L229.441 240H448.001Z" fill="#DFB28B"/>
<path d="M447.999 368V400H399.999H351.999H303.999H303.199C303.759 397.44 303.999 394.72 303.999 392V368H351.999H399.999H447.999Z" fill="#DFB28B"/>
<path d="M304 112H352V144H304V112Z" fill="#FF826E"/>
<path d="M352 176V200C352 186.72 341.28 176 328 176C314.72 176 304 186.72 304 200V144H352V176Z" fill="#FF826E"/>
<path d="M400 336V360C400 346.72 389.28 336 376 336C362.72 336 352 346.72 352 360V320V272H400V336Z" fill="#B4DD7F"/>
<path d="M448 112V208H400V144V112H448Z" fill="#B4DD7F"/>
<path d="M352 200V208H304V200C304 186.72 314.72 176 328 176C341.28 176 352 186.72 352 200Z" fill="#FFEAA7"/>
<path d="M400 360V368H352V360C352 346.72 362.72 336 376 336C389.28 336 400 346.72 400 360Z" fill="#E6E9ED"/>
<path d="M448 400V408C448 421.28 437.28 432 424 432C410.72 432 400 421.28 400 408V400H448Z" fill="#E6E9ED"/>
<path d="M400 432V496H352V432V400H400V432Z" fill="#CCD1D9"/>
<path d="M400 464H448V496H400V464Z" fill="#FCD770"/>
<path d="M448 408V464H400V448V408C400 421.28 410.72 432 424 432C437.28 432 448 421.28 448 408Z" fill="#FCD770"/>
<path d="M448 272V368H400V344V272H448Z" fill="#CCD1D9"/>
<path d="M400 112V208H352V184V112H400Z" fill="#FCD770"/>
<path d="M304 400H352V496H304V400Z" fill="#FCD770"/>
<path d="M293.121 272C300.001 282.32 304.001 294.56 304.001 307.76V320V368H352.001V360V320V304V272H293.121Z" fill="#FCD770"/>
<path d="M223.998 384V320C223.998 317.12 223.198 314.32 221.838 312C223.198 309.68 223.998 306.88 223.998 304V272C223.998 263.2 216.798 256 207.998 256C200.558 256 193.198 257.44 186.398 260.16L191.998 232L229.358 240H229.438L253.438 245.12C270.078 248.72 283.998 258.64 293.118 272C299.998 282.32 303.998 294.56 303.998 307.76V320V368V392C303.998 394.72 303.758 397.44 303.198 400C299.518 418.24 283.438 432 263.998 432C261.358 432 258.718 432 255.998 432C245.758 432 234.798 432 223.998 432V384Z" fill="#B4DD7F"/>
<path d="M268.4 456.88C270.8 461.52 272 466.72 272 472C272 477.28 270.8 482.48 268.4 487.12L264 496H56L51.6 487.12C49.2 482.48 48 477.28 48 472C48 466.72 49.2 461.52 51.6 456.88L64 432H96V448C96 456.8 103.2 464 112 464H208C216.8 464 224 456.8 224 448V432H256L268.4 456.88Z" fill="#B4DD7F"/>
<path d="M192 208V232L186.4 260.16C179.2 263.04 172.64 267.36 167.04 272.96L166.56 273.44C164.56 272.48 162.32 272 160 272C157.68 272 155.44 272.48 153.44 273.44L152.96 272.96C147.36 267.36 140.8 263.04 133.6 260.16L128 232V208C138.24 197.76 144 183.84 144 169.36V168L133.68 157.68C130 154 128 149.12 128 144C128 139.6 129.76 135.6 132.72 132.72C135.6 129.76 139.6 128 144 128L146.64 112H176V136C176 140.4 179.6 144 184 144H216C220.4 144 224 140.4 224 136V112H238.16C241.68 121.84 244.88 132.88 246.64 144C247.52 149.36 248 154.8 248 160L232 168C232 173.68 230.8 179.12 228.64 184C226.64 188.64 223.84 192.8 220.32 196.32C213.04 203.52 203.04 208 192 208Z" fill="#95573A"/>
<path d="M186.8 73.04L179.04 74.56C162.8 77.84 150.16 90.88 147.44 107.2L146.64 112L144 128C139.6 128 135.6 129.76 132.72 132.72C129.76 135.6 128 139.6 128 144C128 149.12 130 154 133.68 157.68L144 168V169.36C144 183.84 138.24 197.76 128 208L109.84 189.84C100.32 180.32 92.8 169.04 87.76 156.8C86.08 152.64 84.64 148.4 83.44 144C82.88 141.76 82.32 139.52 81.92 137.2C80.64 130.88 80 124.4 80 117.84C80 103.52 82.96 89.84 88.32 77.44C104 41.28 140 16 181.84 16H216C224.8 16 232.8 19.6 238.64 25.36C240.56 27.36 242.32 29.6 243.68 32C246.4 36.72 248 42.16 248 48C248 63.04 237.68 75.6 223.68 79.04C221.2 79.68 218.64 80 216 80H200C195.6 80 191.6 78.24 188.72 75.28C188 74.56 187.36 73.84 186.8 73.04V73.04Z" fill="#656D78"/>
<path d="M238.161 111.999H224.001H176.001H146.641L147.441 107.199C150.161 90.8791 162.801 77.8391 179.041 74.5591L186.801 73.0391C187.361 73.8391 188.001 74.5591 188.721 75.2791C191.601 78.2391 195.601 79.9991 200.001 79.9991H216.001C218.641 79.9991 221.201 79.6791 223.681 79.0391C223.681 79.0391 223.841 79.3591 224.241 79.9991C226.001 83.4391 232.481 95.9991 238.161 111.999V111.999Z" fill="#95573A"/>
<path d="M224 432V448C224 456.8 216.8 464 208 464H112C103.2 464 96 456.8 96 448V432H136C142.64 432 148.64 429.28 152.96 424.96C157.28 420.64 160 414.64 160 408C160 414.64 162.72 420.64 167.04 424.96C171.36 429.28 177.28 432 183.92 432H224Z" fill="#CF9E76"/>
<path d="M224 384V432C209.36 432 195.2 432 183.92 432C177.28 432 171.36 429.28 167.04 424.96C162.72 420.64 160 414.64 160 408V407.92C160 394.72 170.72 384 183.92 384H184C184 379.6 185.76 375.6 188.72 372.72C191.6 369.76 195.6 368 200 368C205.12 368 210 370 213.68 373.68L224 384Z" fill="#95573A"/>
<path d="M224 320V384L213.68 373.68C210 370 205.12 368 200 368C195.6 368 191.6 369.76 188.72 372.72C185.76 375.6 184 379.6 184 384H183.92C170.72 384 160 394.72 160 407.92C160 401.28 157.28 395.36 152.96 391.04C148.64 386.72 142.64 384 136 384C136 379.6 134.24 375.6 131.28 372.72C128.4 369.76 124.4 368 120 368C114.88 368 110 370 106.32 373.68L96 384V320C96 328.8 103.2 336 112 336H208C212.4 336 216.4 334.24 219.28 331.28C222.24 328.4 224 324.4 224 320Z" fill="#CF9E76"/>
<path d="M224 272V304C224 306.88 223.2 309.68 221.84 312C219.04 307.2 213.92 304 208 304H160C168.8 304 176 296.8 176 288C176 281.52 172.08 275.92 166.56 273.44L167.04 272.96C172.64 267.36 179.2 263.04 186.4 260.16C193.2 257.44 200.56 256 208 256C216.8 256 224 263.2 224 272V272Z" fill="#FF826E"/>
<path d="M224 112V136C224 140.4 220.4 144 216 144H184C179.6 144 176 140.4 176 136V112H224Z" fill="#69D6F4"/>
<path d="M221.84 312C223.2 314.32 224 317.12 224 320C224 324.4 222.24 328.4 219.28 331.28C216.4 334.24 212.4 336 208 336H112C103.2 336 96 328.8 96 320C96 317.12 96.8 314.32 98.16 312C98.88 310.8 99.68 309.68 100.72 308.72C103.6 305.76 107.6 304 112 304H160H208C213.92 304 219.04 307.2 221.84 312Z" fill="#E6E9ED"/>
<path d="M166.56 273.44C172.08 275.92 176 281.52 176 288C176 296.8 168.8 304 160 304C151.2 304 144 296.8 144 288C144 281.52 147.92 275.92 153.44 273.44C155.44 272.48 157.68 272 160 272C162.32 272 164.56 272.48 166.56 273.44Z" fill="#FC6E51"/>
<path d="M160 407.92V408C160 414.64 157.28 420.64 152.96 424.96C148.64 429.28 142.64 432 136 432H96V384L106.32 373.68C110 370 114.88 368 120 368C124.4 368 128.4 369.76 131.28 372.72C134.24 375.6 136 379.6 136 384C142.64 384 148.64 386.72 152.96 391.04C157.28 395.36 160 401.28 160 407.92Z" fill="#95573A"/>
<path d="M160 304H112C107.6 304 103.6 305.76 100.72 308.72C99.68 309.68 98.88 310.8 98.16 312C96.8 309.68 96 306.88 96 304V272C96 263.2 103.2 256 112 256C119.44 256 126.8 257.44 133.6 260.16C140.8 263.04 147.36 267.36 152.96 272.96L153.44 273.44C147.92 275.92 144 281.52 144 288C144 296.8 151.2 304 160 304V304Z" fill="#FF826E"/>
<path d="M96 384V432H64H56C33.92 432 16 414.08 16 392V307.76C16 280.96 32.64 257.44 56.96 248C60.08 246.8 63.28 245.84 66.56 245.12L128 232L133.6 260.16C126.8 257.44 119.44 256 112 256C103.2 256 96 263.2 96 272V304C96 306.88 96.8 309.68 98.16 312C96.8 314.32 96 317.12 96 320V384Z" fill="#B4DD7F"/>
<path d="M128 208V232L66.56 245.12C63.28 245.84 60.08 246.8 56.96 248C51.2 239.92 48 230.08 48 220C48 207.2 53.12 194.88 62.16 185.84L66.8 181.2C75.36 172.64 80.96 161.52 82.64 149.52L83.44 144C84.64 148.4 86.08 152.64 87.76 156.8C92.8 169.04 100.32 180.32 109.84 189.84L128 208Z" fill="#656D78"/>
<path d="M50.08 64.72L88.32 77.44C82.96 89.84 80 103.52 80 117.84C80 124.4 80.64 130.88 81.92 137.2H81.84L49.36 143.76C48.48 143.92 47.52 144 46.64 144H45.76C38.16 144 32 137.84 32 130.24V77.76C32 70.16 38.16 64 45.76 64C47.28 64 48.72 64.24 50.08 64.72V64.72Z" fill="#FCD770"/>
<path d="M488 24H247.792C240.488 14.344 229.016 8 216 8H181.824C139.352 8 102.512 32.28 84.248 67.648L52.656 57.12C50.44 56.376 48.12 56 45.768 56C33.768 56 24 65.768 24 77.768V130.24C24 142.232 33.768 152 45.768 152H46.64C48.072 152 49.48 151.856 50.904 151.576L74.952 146.768L74.72 148.392C73.264 158.6 68.448 168.24 61.144 175.544L56.488 180.208C45.848 190.832 40 204.968 40 220C40 228.608 41.976 236.936 45.68 244.552C23.048 256.944 8 281.024 8 307.736V392C8 416.84 26.968 437.328 51.176 439.752L44.424 453.264C41.528 459.056 40 465.536 40 472C40 478.464 41.528 484.944 44.424 490.736L51.056 504H488C496.824 504 504 496.824 504 488V40C504 31.176 496.824 24 488 24ZM488 72H456V40H488V72ZM440 40V72H247.792C252.872 65.296 256 57.04 256 48C256 45.264 255.72 42.584 255.192 40H440ZM104 440H136C145.608 440 154.144 435.656 160.008 428.928C165.872 435.656 174.376 440 183.952 440H216V448C216 452.408 212.416 456 208 456H112C107.584 456 104 452.408 104 448V440ZM136 231.208V211.072C146.304 199.576 152 184.928 152 169.368V164.688L139.312 152C137.168 149.864 136 147.024 136 144C136 139.592 139.584 136 144 136H150.776L153.448 120H168V136C168 144.824 175.176 152 184 152H216C224.824 152 232 144.824 232 136V120H232.44C236.104 131.12 239.152 143.44 239.848 155.128L224 163.056V168C224 170.776 223.536 173.424 222.864 176H217.888C209.904 176 202.72 171.56 199.152 164.424L184.84 171.584C190.456 182.8 201.12 190.192 213.32 191.688C207.656 196.8 200.224 200 192 200H168V216H184V231.208L179.304 254.664C174.064 257.216 169.12 260.488 164.552 264.464C163.08 264.176 161.56 264 160 264C158.448 264 156.944 264.176 155.472 264.456C150.952 260.48 145.984 257.184 140.68 254.616L136 231.208ZM219.152 87.68C220.992 91.392 223.664 97.08 226.512 104H156.48C160.008 93.128 169.24 84.712 180.64 82.432L183.888 81.776C188.16 85.648 193.808 88 200 88H216C217.08 88 218.096 87.768 219.152 87.68ZM184 120H216V136H184V120ZM440 392H312V376H440V392ZM360 360C360 351.176 367.176 344 376 344C384.824 344 392 351.176 392 360H360ZM312 328H344V360H312V328ZM392 332.448C387.272 329.696 381.856 328 376 328C370.144 328 364.728 329.696 360 332.448V312H392V332.448ZM360 296V280H392V296H360ZM344 312H312V307.736C312 297.992 309.944 288.608 306.304 280H344V312ZM344 424H312V408H344V424ZM312 440H344V456H312V440ZM360 408H392V440H360V408ZM408 435.552C412.728 438.304 418.144 440 424 440C429.856 440 435.272 438.304 440 435.552V456H408V435.552ZM424 424C415.176 424 408 416.824 408 408H440C440 416.824 432.824 424 424 424ZM440 360H408V344H440V360ZM440 328H408V312H440V328ZM440 296H408V280H440V296ZM440 264H296.992C292.232 257.808 286.488 252.4 279.968 248H440V264ZM440 232H230.184L199.888 225.504L199.952 216H440V232ZM159.968 386.936C155.552 381.912 149.64 378.232 142.888 376.752C139.8 367.048 130.704 360 120 360C114.16 360 108.64 361.896 104 365.28V342.528C106.512 343.424 109.184 344 112 344H208C210.816 344 213.488 343.424 216 342.528V365.28C211.36 361.896 205.84 360 200 360C189.304 360 180.216 367.032 177.128 376.72C170.336 378.192 164.392 381.888 159.968 386.936ZM216 297.472C213.488 296.576 210.816 296 208 296H182.528C183.424 293.488 184 290.816 184 288C184 282.48 182.056 277.456 178.912 273.4C187.344 267.328 197.408 264 208 264C212.416 264 216 267.592 216 272V297.472ZM152 288C152 283.592 155.584 280 160 280C164.416 280 168 283.592 168 288C168 292.408 164.416 296 160 296C155.584 296 152 292.408 152 288ZM360 200V184H392V200H360ZM392 168H360V152H392V168ZM344 172.448C339.272 169.696 333.856 168 328 168C322.144 168 316.728 169.696 312 172.448V152H344V172.448ZM328 184C336.824 184 344 191.176 344 200H312C312 191.176 319.176 184 328 184ZM440 200H408V168H440V200ZM440 152H408V120H440V152ZM392 136H360V120H392V136ZM344 136H312V120H344V136ZM296 200H227.496C234.112 192.672 238.64 183.424 239.736 173.08L256 164.944V160C256 157.36 255.864 154.688 255.648 152H280V136H253.296C252.176 130.544 250.776 125.176 249.216 120H296V200ZM141.056 273.432C137.936 277.488 136 282.496 136 288C136 290.816 136.576 293.488 137.472 296H112C109.184 296 106.512 296.576 104 297.472V272C104 267.592 107.584 264 112 264C122.488 264 132.464 267.256 141.056 273.432ZM112 312H208C212.416 312 216 315.592 216 320C216 324.408 212.416 328 208 328H112C107.584 328 104 324.408 104 320C104 315.592 107.584 312 112 312ZM104 387.312L112 379.312C114.144 377.176 116.976 376 120 376C124.416 376 128 379.592 128 384V392H136C144.824 392 152 399.176 152 408C152 416.824 144.824 424 136 424H104V387.312ZM183.952 424C175.16 424 168 416.768 168 407.88C168 399.128 175.128 392 184 392H192V384C192 379.592 195.584 376 200 376C203.024 376 205.856 377.176 208 379.312L216 387.312V424H183.952ZM232 392H280V376H264V313.888L271.16 299.576L256.848 292.416L248 310.112V376H232V320C232 317.144 231.416 314.432 230.488 311.888C231.384 309.344 232 306.712 232 304V272C232 258.768 221.232 248 208 248C204.184 248 200.44 248.384 196.752 249.016L198.248 241.52L251.72 252.984C277.384 258.48 296 281.504 296 307.736V392C296 409.648 281.664 424 264.04 424H232V392ZM275.576 453.264L268.824 439.76C279.224 438.72 288.624 434.312 296 427.688V488H276.752C278.84 482.936 280 477.472 280 472C280 465.536 278.472 459.056 275.576 453.264ZM312 472H344V488H312V472ZM360 456H392V488H360V456ZM408 472H440V488H408V472ZM440 104H243.768C241.44 97.92 239.096 92.472 237.048 88H440V104ZM181.824 24H216C229.232 24 240 34.768 240 48C240 61.232 229.232 72 216 72H200C195.584 72 192 68.408 192 64C192 59.592 195.584 56 200 56H208V40H200C186.768 40 176 50.768 176 64C176 65.024 176.064 66.032 176.184 67.024C157.384 71.344 142.752 86.816 139.568 105.92L137.056 121.024C127.192 124.008 120 133.176 120 144C120 151.304 122.84 158.16 128 163.312L135.96 171.28C135.6 180.328 132.672 188.92 127.512 196.208L115.472 184.168C97.76 166.448 88 142.88 88 117.824C88 66.088 130.088 24 181.824 24ZM47.792 135.888C47.408 135.96 47.024 136 46.64 136H45.768C42.584 136 40 133.416 40 130.232V77.768C40 73.976 43.984 71.088 47.584 72.296L77.96 82.424C74.16 93.544 72 105.424 72 117.824C72 122.224 72.344 126.568 72.848 130.872L47.792 135.888ZM56 220C56 209.24 60.184 199.128 67.8 191.512L72.456 186.848C77.544 181.76 81.672 175.792 84.784 169.328C89.848 178.832 96.336 187.64 104.168 195.472L120 211.312V225.528L64.912 237.336C63.424 237.656 61.976 238.072 60.52 238.48C57.576 232.792 56 226.504 56 220ZM24 392V307.736C24 281.504 42.616 258.48 68.272 252.984L121.848 241.504L123.312 249.024C119.608 248.384 115.84 248 112 248C98.768 248 88 258.768 88 272V304C88 306.712 88.616 309.344 89.512 311.888C88.584 314.432 88 317.144 88 320V376H72V310.112L63.16 292.424L48.848 299.584L56 313.888V376H40V392H88V424H56C38.352 424 24 409.648 24 392ZM58.736 483.584C56.944 480 56 476 56 472C56 468 56.944 464 58.736 460.424L68.944 440H88V448C88 461.232 98.768 472 112 472H208C221.232 472 232 461.232 232 448V440H251.056L261.264 460.416C263.056 464 264 468 264 472C264 476 263.056 480 261.264 483.576L259.056 488H60.944L58.736 483.584ZM456 488V88H488V488H456Z" fill="black"/>
</svg>
