<svg id="Layer_5" enable-background="new 0 0 64 64" height="512" viewBox="0 0 64 64" width="512" xmlns="http://www.w3.org/2000/svg"><g><g><g><path d="m58 62h-26c-2.209 0-4-1.791-4-4v-52c0-2.209 1.791-4 4-4h26c2.209 0 4 1.791 4 4v52c0 2.209-1.791 4-4 4z" fill="#969faa"/></g><g><path d="m58 11v38c0 .55-.45 1-1 1h-25v-3-36c0-.55.45-1 1-1h12 12c.55 0 1 .45 1 1z" fill="#69d6f4"/></g><g><path d="m36 30h18v4h-18z" fill="#b4dd7f"/></g><g><path d="m36 14h10v12h-10z" fill="#ff826e"/></g><g><path d="m36 56-1.71 1.71c-.18.18-.44.29-.7.29h-.59c-.55 0-1-.45-1-1v-2c0-.55.45-1 1-1h.59c.26 0 .52.11.7.29z" fill="#e6e9ed"/></g><g><path d="m47 55v2c0 .55-.45 1-1 1h-2c-.55 0-1-.45-1-1v-2c0-.55.45-1 1-1h2c.55 0 1 .45 1 1z" fill="#e6e9ed"/></g><g><path d="m58 55v2c0 .55-.45 1-1 1h-.59c-.26 0-.52-.11-.7-.29l-1.71-1.71 1.71-1.71c.18-.18.44-.29.7-.29h.59c.55 0 1 .45 1 1z" fill="#e6e9ed"/></g><g><path d="m49 2v4c0 1.1-.45 2.1-1.17 2.83-.73.72-1.73 1.17-2.83 1.17-2.21 0-4-1.79-4-4v-4z" fill="#fcd770"/></g><g><path d="m23 20-6 8-6-8h3v-10h6v10z" fill="#b4dd7f"/></g><g><path d="m28 36.82c2.49 2.67 4 6.25 4 10.18s-1.51 7.51-4 10.18c-2.73 2.97-6.65 4.82-11 4.82-8.28 0-15-6.72-15-15s6.72-15 15-15c4.35 0 8.27 1.85 11 4.82z" fill="#ffeaa7"/></g><g><path d="m18.78 38.62c-.5-.4-1.13-.62-1.78-.62s-1.28.22-1.78.62l-6.22 4.98v12.4h16v-12.4z" fill="#ccd1d9"/></g><g><path d="m13 48h8v8h-8z" fill="#b27946"/></g></g><g><path d="m46 53h-2c-1.103 0-2 .897-2 2v2c0 1.103.897 2 2 2h2c1.103 0 2-.897 2-2v-2c0-1.103-.897-2-2-2zm-2 4v-2h2l.001 2z"/><path d="m57 53h-.586c-.534 0-1.036.208-1.414.586l-2.414 2.414 2.414 2.414c.378.378.88.586 1.414.586h.586c1.103 0 2-.897 2-2v-2c0-1.103-.897-2-2-2zm-.586 4-1-1 1-1h.586l.001 2z"/><circle cx="45" cy="6" r="1"/><path d="m58 1h-26c-2.757 0-5 2.243-5 5v28.53c-2.742-2.203-6.217-3.53-10-3.53-8.822 0-16 7.178-16 16s7.178 16 16 16c3.873 0 7.428-1.384 10.198-3.683.583 2.116 2.504 3.683 4.802 3.683h26c2.757 0 5-2.243 5-5v-52c0-2.757-2.243-5-5-5zm-16 2h6v3c0 1.654-1.346 3-3 3s-3-1.346-3-3zm15 8 .001 38h-24.001v-38zm-28-5c0-1.654 1.346-3 3-3h8v3c0 1.13.391 2.162 1.026 3h-8.026c-1.103 0-2 .897-2 2v28.271c-.562-1.015-1.239-1.954-2-2.819zm-12 55c-7.72 0-14-6.28-14-14s6.28-14 14-14 14 6.28 14 14-6.28 14-14 14zm44-3c0 1.654-1.346 3-3 3h-26c-1.654 0-3-1.346-3-3v-.453c.775-.881 1.464-1.837 2.033-2.873-.018.107-.033.215-.033.326v2c0 1.103.897 2 2 2h.586c.534 0 1.036-.208 1.414-.586l2.414-2.414-2.414-2.414c-.378-.378-.88-.586-1.414-.586h-.586c-.581 0-1.1.253-1.466.65.389-.846.702-1.732.939-2.65h24.527c1.103 0 2-.897 2-2v-38c0-1.103-.897-2-2-2h-8.026c.635-.838 1.026-1.87 1.026-3v-3h8c1.654 0 3 1.346 3 3zm-28-1v-2h.586l1 1-1 1z"/><path d="m19.405 37.844c-1.36-1.088-3.45-1.088-4.811 0l-9.219 7.375 1.249 1.563 1.376-1.101v11.319h18v-11.319l1.375 1.1 1.249-1.563zm.595 17.156h-6v-6h6zm4 0h-2v-8h-10v8h-2v-10.919l5.844-4.675c.654-.523 1.658-.523 2.313 0l5.843 4.675z"/><path d="m25 19h-4v-10h-8v10h-4l8 10.667zm-10 2v-10h4v10h2l-4 5.333-4-5.333z"/><path d="m47 13h-12v14h12zm-2 12h-8v-10h8z"/><path d="m49 13h6v2h-6z"/><path d="m49 17h6v2h-6z"/><path d="m49 21h6v2h-6z"/><path d="m49 25h6v2h-6z"/><path d="m55 29h-20v6h20zm-2 4h-16v-2h16z"/><path d="m35 37h2v2h-2z"/><path d="m39 37h16v2h-16z"/><path d="m35 41h20v2h-20z"/><path d="m35 45h20v2h-20z"/></g></g></svg>