<svg width="512" height="512" viewBox="0 0 512 512" fill="none" xmlns="http://www.w3.org/2000/svg">
<path d="M501.461 383.8L320.501 51.4018C306.7 28.6008 282.7 14.8008 256 14.8008C229.3 14.8008 205.3 28.6008 191.499 51.4018L10.5389 383.8C-3.2591 407.502 -3.5601 435.702 9.9409 459.401C23.4399 483.1 47.7389 497.201 75.0399 497.201H436.96C464.261 497.201 488.561 483.1 502.059 459.401C515.56 435.702 515.259 407.502 501.461 383.8Z" fill="black"/>
<path d="M502.059 459.401C488.56 483.1 464.261 497.201 436.96 497.201H256V14.8008C282.7 14.8008 306.7 28.6018 320.501 51.4018L501.461 383.801C515.259 407.502 515.56 435.702 502.059 459.401Z" fill="black"/>
<path d="M475.663 399.101L294.701 66.6998C286.603 52.9008 271.903 44.8008 256.002 44.8008C240.101 44.8008 225.401 52.9018 217.303 66.6998L36.3409 399.101C27.9419 413.202 27.9419 430.3 36.0429 444.401C44.1419 458.8 58.8409 467.201 75.0429 467.201H436.963C453.164 467.201 467.864 458.8 475.963 444.401C484.062 430.3 484.062 413.202 475.663 399.101Z" fill="#FFDE33"/>
<path d="M475.96 444.401C467.861 458.8 453.162 467.201 436.96 467.201H256V44.8008C271.901 44.8008 286.601 52.9018 294.699 66.6998L475.661 399.101C484.06 413.202 484.06 430.3 475.96 444.401Z" fill="#FFBC33"/>
<path d="M256 437.199C239.462 437.199 226 423.737 226 407.199C226 390.661 239.462 377.199 256 377.199C272.538 377.199 286 390.661 286 407.199C286 423.737 272.538 437.199 256 437.199Z" fill="black"/>
<path d="M286 317.199C286 333.737 272.538 347.199 256 347.199C239.462 347.199 226 333.737 226 317.199V167.199C226 150.661 239.462 137.199 256 137.199C272.538 137.199 286 150.661 286 167.199V317.199Z" fill="black"/>
<path d="M286 407.199C286 390.661 272.538 377.199 256 377.199V437.199C272.538 437.199 286 423.737 286 407.199Z" fill="black"/>
<path d="M286 317.199V167.199C286 150.661 272.538 137.199 256 137.199V347.199C272.538 347.199 286 333.737 286 317.199Z" fill="black"/>
</svg>
