<svg width="1002" height="963" viewBox="0 0 1002 963" fill="none" xmlns="http://www.w3.org/2000/svg">
<g clip-path="url(#clip0)">
<path d="M143.965 871.837V817.77H206.543V876.623" fill="#368A50"/>
<path d="M231.104 925.366L241.41 915.961L212.8 876.622H154.687L126.976 864.254L96.1313 759.059H82.2734L99.2606 898.974L85.8437 915.776L106.413 940.994V958.529H177.932H248.563L231.104 925.366Z" fill="#5EBC77"/>
<path d="M113.949 880.574L83.8086 771.668L99.2637 898.971" fill="#368A50"/>
<path d="M126.979 864.254L100.142 933.297L85.8516 915.775L126.979 864.254Z" fill="#368A50"/>
<path d="M123.248 851.527L126.979 864.253L99.2633 898.971L95.6602 869.283L123.248 851.527Z" fill="#368A50"/>
<path d="M96.1344 718.973V759.056H80.6134C79.4035 759.056 78.2354 758.908 77.1149 758.627C70.8385 757.066 66.1836 751.391 66.1836 744.626V718.973H96.1344Z" fill="#368A50"/>
<path d="M139.176 958.528L185.667 876.621H212.805L152.579 958.528H139.176Z" fill="#368A50"/>
<path d="M96.1328 741.067V759.061H80.6118C79.402 759.061 78.2338 758.913 77.1133 758.632V749.482C77.1133 744.834 80.8811 741.066 85.5284 741.066H96.1328V741.067Z" fill="#5EBC77"/>
<path d="M65.0227 712.122L59.9062 675.128L73.5124 685.754L83.5201 666.469L89.9846 684.573L102.411 675.128L98.0817 712.122" fill="#FFA700"/>
<path d="M175.252 786.477C157.97 786.477 143.961 800.486 143.961 817.767V832.965C143.961 850.246 157.97 864.256 175.252 864.256C192.533 864.256 206.543 850.246 206.543 832.965V817.767C206.542 800.485 192.533 786.477 175.252 786.477Z" fill="#5EBC77"/>
<path d="M154.69 832.965V817.767C154.69 802.316 165.892 789.489 180.616 786.944C178.872 786.642 177.082 786.477 175.252 786.477C157.97 786.477 143.961 800.486 143.961 817.767V832.965C143.961 850.246 157.97 864.256 175.252 864.256C177.082 864.256 178.872 864.09 180.616 863.789C165.892 861.242 154.69 848.416 154.69 832.965Z" fill="#368A50"/>
<path d="M206.543 817.769V832.962L206.376 832.98C205.619 825.642 202.323 819.056 197.382 814.115C191.719 808.452 183.893 804.953 175.251 804.953C158.52 804.953 144.858 818.084 144.007 834.6C143.977 834.058 143.965 833.51 143.965 832.961V817.769C143.965 809.126 147.469 801.3 153.126 795.638C158.789 789.975 166.615 786.477 175.251 786.477C192.537 786.477 206.543 800.484 206.543 817.769Z" fill="#368A50"/>
<path d="M108.877 711.824H53.4453V726.129H108.877V711.824Z" fill="#47A562"/>
<path d="M77.1862 711.824H53.4453V726.129H77.1862V711.824Z" fill="#368A50"/>
<path d="M252.459 956.338L236.672 926.34L244.424 919.261C246.106 917.725 246.364 915.172 245.025 913.33L216.416 873.994C215.575 872.837 214.231 872.153 212.801 872.153H211.013L211.014 817.766C211.014 815.803 210.848 813.879 210.542 812.002L224.128 807.978C226.309 807.332 227.787 805.19 227.42 802.946C226.975 800.233 224.282 798.607 221.734 799.363L208.004 803.43C207.64 802.6 207.246 801.785 206.821 800.989L225.326 787.932C227.343 786.508 227.824 783.719 226.401 781.702C224.978 779.685 222.19 779.203 220.171 780.626L201.665 793.685C200.347 792.241 198.908 790.912 197.373 789.699L211.917 765.525C213.19 763.409 212.507 760.662 210.391 759.389C208.275 758.117 205.529 758.799 204.256 760.915L189.72 785.074C186.595 783.686 183.238 782.735 179.723 782.294V748.22C179.723 745.772 177.836 743.637 175.39 743.565C172.858 743.489 170.782 745.518 170.782 748.033V782.295C167.266 782.735 163.909 783.686 160.785 785.075L146.249 760.916C144.975 758.8 142.229 758.117 140.114 759.39C137.998 760.663 137.315 763.409 138.587 765.525L153.131 789.699C151.596 790.912 150.157 792.241 148.839 793.685L130.333 780.626C128.315 779.203 125.527 779.685 124.103 781.702C122.679 783.719 123.161 786.508 125.178 787.932L143.683 800.989C143.258 801.785 142.865 802.599 142.501 803.43L128.77 799.363C126.358 798.648 123.823 800.063 123.178 802.511C122.554 804.878 124.064 807.293 126.411 807.988L139.962 812.001C139.656 813.879 139.491 815.802 139.491 817.765L139.493 864.945L130.683 861.014L100.601 758.416V730.897H108.871C111.339 730.897 113.341 728.895 113.341 726.426V712.123C113.341 709.654 111.339 707.653 108.871 707.653H103.103L106.834 675.775C107.002 674.337 106.538 672.863 105.479 671.876C103.836 670.344 101.407 670.275 99.7031 671.57L92.1393 677.32L87.7795 665.11C87.2974 663.76 86.2521 662.648 84.8864 662.214C82.7536 661.537 80.5337 662.518 79.5507 664.412L72.0216 678.92L62.7582 671.686C61.5965 670.778 60.0627 670.414 58.65 670.836C56.4677 671.489 55.1796 673.595 55.4759 675.742L59.8898 707.654H53.443C50.9744 707.654 48.9727 709.655 48.9727 712.124V726.429C48.9727 728.897 50.9744 730.899 53.443 730.899H61.7123V744.632C61.7123 754.269 68.9645 762.238 78.2973 763.384L85.7042 824.395C86.0017 826.845 88.2298 828.591 90.6807 828.293C93.1316 827.996 94.8777 825.768 94.5796 823.317L87.3215 763.531H92.7848L122.032 863.284L102.415 887.859L97.154 844.526C96.8565 842.075 94.6284 840.329 92.1775 840.627C89.7266 840.924 87.9811 843.152 88.2786 845.603L94.5978 897.651L82.3544 912.989C81.041 914.634 81.0534 916.972 82.3838 918.603L101.944 942.586V958.532C101.944 961 103.945 963.002 106.414 963.002H152.568C152.569 963.002 152.57 963.002 152.571 963.002C152.573 963.002 152.575 963.002 152.576 963.002H248.562C250.465 963.002 252.2 961.792 252.817 959.906C253.204 958.727 253.037 957.436 252.459 956.338ZM175.253 790.948C188.028 790.948 198.737 799.928 201.42 811.904C194.886 804.885 185.577 800.483 175.253 800.483C164.93 800.483 155.619 804.885 149.086 811.904C151.769 799.926 162.479 790.948 175.253 790.948ZM148.435 856.585C154.993 864.022 164.581 868.726 175.253 868.726C177.722 868.726 179.724 866.725 179.724 864.256C179.724 861.787 177.722 859.786 175.253 859.786C161.015 859.786 149.338 848.632 148.488 834.604C149.338 820.576 161.015 809.422 175.253 809.422C190.035 809.422 202.06 821.441 202.073 836.219V872.153H155.643L148.435 868.936V856.585ZM65.8446 685.44L70.7606 689.279C71.8076 690.097 73.1656 690.406 74.4637 690.124C75.7623 689.841 76.8676 688.995 77.4802 687.815L82.7606 677.638L85.7748 686.078C86.2545 687.42 87.3456 688.454 88.7113 688.86C90.0775 689.266 91.5549 688.996 92.6907 688.133L96.7495 685.048L94.104 707.654H68.9169L65.8446 685.44ZM57.9133 716.595H104.402V721.959H96.1322H66.1832H57.9133V716.595ZM70.6536 744.633V730.9H91.6625V754.59H80.6119C75.1204 754.59 70.6536 750.123 70.6536 744.633ZM110.884 942.483L133.672 912.098C135.153 910.123 134.753 907.321 132.778 905.839C130.803 904.359 128.001 904.758 126.519 906.734L106.266 933.738L91.592 915.747L128.312 869.747L147.753 878.422L140.467 888.137C138.986 890.113 139.386 892.915 141.361 894.396C142.166 894.999 143.107 895.29 144.04 895.29C145.399 895.29 146.741 894.673 147.619 893.502L156.925 881.093H203.966L150.314 954.061H110.884V942.483ZM161.411 954.061L212.782 884.196L235.443 915.354L217.835 931.433C216.011 933.098 215.884 935.925 217.547 937.749C218.43 938.714 219.638 939.205 220.85 939.205C221.927 939.205 223.006 938.818 223.863 938.036L229.848 932.571L241.158 954.061H161.411Z" fill="black"/>
<path d="M179.726 831.004L191.242 833.702C191.585 833.783 191.928 833.821 192.267 833.821C194.295 833.821 196.132 832.431 196.615 830.37C197.178 827.966 195.686 825.561 193.282 824.997L176.276 821.013C175.605 820.855 174.907 820.855 174.237 821.013L157.229 824.997C154.825 825.561 153.333 827.966 153.896 830.37C154.459 832.773 156.863 834.266 159.269 833.702L170.786 831.004V837.695C170.786 840.163 172.787 842.165 175.257 842.165C177.726 842.165 179.727 840.163 179.727 837.695L179.726 831.004Z" fill="black"/>
</g>
<g clip-path="url(#clip1)">
<path d="M992.034 116.325H974.379C961.324 62.1937 913.918 24.1669 859.5 24.1758C857.134 24.1758 854.72 24.2246 852.4 24.4178C800.712 27.5771 757.041 64.8179 744.621 116.325H726.967C724.356 116.332 722.241 118.499 722.234 121.174V169.676C722.241 172.351 724.356 174.518 726.967 174.525H744.621C757.041 226.032 800.712 263.273 852.4 266.432C854.72 266.628 857.134 266.674 859.5 266.674C913.918 266.683 961.324 228.656 974.379 174.525H992.034C994.644 174.518 996.759 172.351 996.766 169.676V121.174C996.759 118.499 994.644 116.332 992.034 116.325V116.325ZM859.5 62.9752C892.972 63.0351 922.932 84.2598 934.808 116.325H784.193C795.163 86.7442 821.64 66.1656 852.4 63.3149C854.759 63.0773 857.13 62.9641 859.5 62.9752ZM934.808 174.525C922.932 206.59 892.972 227.815 859.5 227.875C857.13 227.886 854.759 227.773 852.4 227.535C821.64 224.685 795.163 204.106 784.193 174.525H934.808Z" fill="#C81E1E"/>
<path d="M977.833 116.322H960.178C947.76 64.8142 904.087 27.5733 852.4 24.4141C800.712 27.5733 757.041 64.8142 744.621 116.322H726.967C724.356 116.328 722.241 118.495 722.234 121.171V169.672C722.241 172.347 724.356 174.514 726.967 174.521H744.621C757.041 226.028 800.712 263.269 852.4 266.429C904.087 263.269 947.76 226.028 960.178 174.521H977.833C980.444 174.514 982.558 172.347 982.567 169.672V121.171C982.558 118.495 980.444 116.328 977.833 116.322V116.322ZM859.5 227.871C857.13 227.882 854.759 227.769 852.4 227.531C850.04 227.769 847.672 227.882 845.299 227.871C810.937 227.871 795.317 205.659 783.766 174.521H934.808C922.932 206.587 892.972 227.811 859.5 227.871V227.871ZM783.766 116.322C795.317 85.1841 810.937 62.9715 845.299 62.9715C847.672 62.9604 850.04 63.0736 852.4 63.3112C854.759 63.0736 857.13 62.9604 859.5 62.9715C892.972 63.0314 922.932 84.2561 934.808 116.322H783.766Z" fill="#F44335"/>
<path d="M726.967 116.324H992.034C994.647 116.324 996.766 118.496 996.766 121.173V169.675C996.766 172.352 994.647 174.523 992.034 174.523H726.967C724.353 174.523 722.234 172.352 722.234 169.675V121.173C722.234 118.496 724.353 116.324 726.967 116.324V116.324Z" fill="#0377BC"/>
<path d="M726.967 116.324H977.833C980.448 116.324 982.567 118.496 982.567 121.173V169.675C982.567 172.352 980.448 174.523 977.833 174.523H726.967C724.353 174.523 722.234 172.352 722.234 169.675V121.173C722.234 118.496 724.353 116.324 726.967 116.324V116.324Z" fill="#02A9F4"/>
<path d="M859.501 271.525C802.86 271.665 753.486 232.058 740.026 175.684C739.677 174.236 740 172.706 740.897 171.532C741.794 170.36 743.168 169.676 744.622 169.676H974.38C975.834 169.676 977.207 170.36 978.104 171.532C979.001 172.706 979.324 174.236 978.975 175.684C965.515 232.058 916.142 271.665 859.501 271.525V271.525ZM750.823 179.376C765.408 228.359 809.52 261.826 859.501 261.826C909.481 261.826 953.594 228.359 968.178 179.376H750.823Z" fill="black"/>
<path d="M974.38 121.174H744.622C743.168 121.176 741.794 120.49 740.897 119.318C740 118.143 739.677 116.614 740.026 115.166C753.607 58.8718 802.905 19.3242 859.501 19.3242C916.096 19.3242 965.394 58.8718 978.975 115.166C979.324 116.614 979.001 118.143 978.104 119.318C977.207 120.49 975.834 121.176 974.38 121.174ZM750.823 111.474H968.178C953.594 62.4907 909.481 29.0263 859.501 29.0263C809.52 29.0263 765.408 62.4907 750.823 111.474V111.474Z" fill="black"/>
<path d="M859.5 232.726C824.097 232.553 792.432 210.123 779.768 176.25C779.215 174.76 779.412 173.086 780.296 171.772C781.178 170.459 782.636 169.676 784.192 169.676H934.807C936.363 169.676 937.819 170.459 938.703 171.772C939.587 173.086 939.784 174.76 939.229 176.25C926.567 210.125 894.902 232.553 859.5 232.726ZM791.403 179.376C804.081 206.077 830.519 223.026 859.5 223.026C888.48 223.026 914.919 206.077 927.596 179.376H791.403Z" fill="black"/>
<path d="M934.809 121.173H784.194C782.638 121.173 781.182 120.389 780.298 119.077C779.414 117.765 779.217 116.091 779.771 114.599C792.297 80.6152 824.049 58.125 859.501 58.125C894.956 58.125 926.707 80.6152 939.233 114.599C939.788 116.091 939.591 117.765 938.707 119.077C937.822 120.391 936.364 121.175 934.809 121.173V121.173ZM791.404 111.473H927.598C914.92 84.7713 888.481 67.8226 859.501 67.8226C830.521 67.8226 804.082 84.7713 791.404 111.473Z" fill="black"/>
<path d="M992.033 179.374H726.967C721.74 179.367 717.504 175.029 717.5 169.674V121.173C717.504 115.817 721.74 111.479 726.967 111.473H992.033C997.26 111.479 1001.5 115.817 1001.5 121.173V169.674C1001.5 175.029 997.26 179.367 992.033 179.374V179.374ZM992.033 121.166L726.967 121.173V169.674H992.033V121.166Z" fill="black"/>
<path d="M788.499 164.827H779.033C773.807 164.822 769.571 160.482 769.566 155.127V130.876C769.566 128.199 771.685 126.027 774.299 126.027C776.914 126.027 779.033 128.199 779.033 130.876V155.127H788.499C791.113 155.127 793.234 157.298 793.234 159.978C793.234 162.655 791.113 164.827 788.499 164.827Z" fill="#F5F5F5"/>
<path d="M807.433 164.827C799.594 164.818 793.243 158.308 793.234 150.278V140.578C793.234 132.541 799.592 126.027 807.433 126.027C815.277 126.027 821.634 132.541 821.634 140.578V150.278C821.625 158.308 815.272 164.818 807.433 164.827ZM807.433 135.727C804.82 135.732 802.703 137.901 802.701 140.578V150.278C802.701 152.956 804.82 155.127 807.433 155.127C810.048 155.127 812.167 152.956 812.167 150.278V140.578C812.163 137.901 810.046 135.732 807.433 135.727Z" fill="#F5F5F5"/>
<path d="M906.831 164.827C898.994 164.818 892.641 158.308 892.633 150.278V140.578C892.633 132.541 898.99 126.027 906.831 126.027C914.675 126.027 921.032 132.541 921.032 140.578V150.278C921.024 158.308 914.671 164.818 906.831 164.827V164.827ZM906.831 135.727C904.218 135.732 902.101 137.901 902.099 140.578V150.278C902.099 152.956 904.218 155.127 906.831 155.127C909.447 155.127 911.566 152.956 911.566 150.278V140.578C911.562 137.901 909.445 135.732 906.831 135.727Z" fill="#F5F5F5"/>
<path d="M868.967 164.827H864.234C861.619 164.827 859.5 162.655 859.5 159.978V130.876C859.5 128.199 861.619 126.027 864.234 126.027H868.967C879.423 126.027 887.9 134.713 887.9 145.427C887.9 156.142 879.423 164.827 868.967 164.827ZM868.967 135.727V155.127C874.195 155.127 878.433 150.784 878.433 145.427C878.433 140.07 874.195 135.727 868.967 135.727V135.727Z" fill="#F5F5F5"/>
<path d="M850.033 164.827C848.451 164.827 846.973 164.016 846.093 162.667L835.832 146.895V159.978C835.832 162.655 833.713 164.827 831.1 164.827C828.484 164.827 826.365 162.655 826.365 159.978V130.876C826.365 128.74 827.73 126.855 829.728 126.236C831.724 125.617 833.88 126.409 835.037 128.188L845.298 143.96V130.876C845.298 128.199 847.417 126.027 850.033 126.027C852.646 126.027 854.765 128.199 854.765 130.876V159.978C854.765 162.114 853.402 163.999 851.404 164.618C850.96 164.758 850.498 164.829 850.033 164.827Z" fill="#F5F5F5"/>
<path d="M949.433 164.827C947.851 164.827 946.374 164.016 945.496 162.667L935.234 146.895V159.978C935.234 162.655 933.113 164.827 930.5 164.827C927.887 164.827 925.766 162.655 925.766 159.978V130.876C925.768 128.74 927.133 126.855 929.128 126.236C931.124 125.617 933.282 126.409 934.439 128.188L944.701 143.96V130.876C944.701 128.199 946.82 126.027 949.433 126.027C952.048 126.027 954.167 128.199 954.167 130.876V159.978C954.167 162.114 952.802 163.999 950.807 164.618C950.36 164.758 949.899 164.829 949.433 164.827V164.827Z" fill="#F5F5F5"/>
<path d="M902.291 242.132C900.078 242.132 898.163 240.56 897.676 238.351C897.188 236.14 898.258 233.878 900.256 232.903C919.8 223.348 935.55 207.207 944.876 187.181C946.024 184.808 948.815 183.818 951.149 184.957C953.482 186.093 954.494 188.94 953.422 191.349C943.164 213.386 925.832 231.147 904.325 241.659C903.688 241.97 902.995 242.132 902.291 242.132V242.132Z" fill="black"/>
<path d="M769.851 106.428C768.226 106.428 766.716 105.575 765.849 104.167C764.982 102.76 764.881 100.995 765.58 99.4941C775.838 77.4568 793.17 59.6978 814.675 49.1854C816.207 48.4061 818.029 48.5349 819.442 49.5206C820.854 50.5064 821.641 52.1959 821.496 53.9409C821.35 55.686 820.297 57.2157 818.744 57.9417C799.2 67.4972 783.447 83.6377 774.124 103.664C773.34 105.353 771.678 106.43 769.851 106.428Z" fill="black"/>
</g>
<path d="M728.5 500C728.479 531.843 721.673 563.317 708.537 592.324C695.4 621.331 676.233 647.206 652.313 668.226C628.393 689.246 600.269 704.928 569.814 714.228C539.359 723.528 507.272 726.232 475.69 722.16C365.59 708.03 280.5 613.95 280.5 500C280.48 470.578 286.26 441.441 297.51 414.255C308.759 387.069 325.258 362.367 346.063 341.563C366.867 320.758 391.569 304.259 418.755 293.01C445.941 281.76 475.078 275.98 504.5 276C504.84 276 505.19 276 505.53 276.01C564.773 276.233 621.511 299.937 663.307 341.924C705.103 383.911 728.547 440.756 728.5 500V500Z" fill="#0093BA"/>
<path d="M654.899 666C630.86 687.754 602.391 704.039 571.454 713.734C540.516 723.429 507.845 726.304 475.689 722.16L488.499 692L480.499 636V588L520.499 556L536.499 596L552.499 644H592.499L632.499 652L654.899 666Z" fill="#88BF40"/>
<path d="M576.498 348.002L520.498 388.002L528.498 436.002L488.498 452.002V500.002L448.498 540.002L400.498 524.002V476.002L376.498 452.002V388.002L349.648 338.142C367.987 320.587 389.171 306.27 412.298 295.802L440.498 324.002L480.498 316.002L504.498 300.002L505.528 276.012C537.188 276.106 568.465 282.941 597.278 296.062L576.498 348.002Z" fill="#88BF40"/>
<path d="M448.5 644.001C448.481 661.712 443.129 679.008 433.14 693.634C423.152 708.26 408.99 719.538 392.5 726.001C387.324 728.023 381.966 729.543 376.5 730.541C358.711 733.83 340.341 731.557 323.891 724.031C307.44 716.506 293.709 704.093 284.566 688.483C275.423 672.873 271.313 654.825 272.796 636.796C274.279 618.766 281.282 601.632 292.852 587.725C304.422 573.819 319.996 563.816 337.455 559.079C354.914 554.341 373.409 555.1 390.421 561.251C407.434 567.402 422.137 578.646 432.53 593.453C442.922 608.261 448.499 625.911 448.5 644.001Z" fill="white"/>
<path d="M360.5 652C378.173 652 392.5 637.673 392.5 620C392.5 602.327 378.173 588 360.5 588C342.827 588 328.5 602.327 328.5 620C328.5 637.673 342.827 652 360.5 652Z" fill="#EA732D"/>
<path d="M416.5 684V711.87C400.749 724.905 380.945 732.036 360.5 732.036C340.055 732.036 320.251 724.905 304.5 711.87V684C304.499 679.797 305.326 675.636 306.933 671.753C308.541 667.87 310.898 664.342 313.87 661.37C316.842 658.398 320.37 656.041 324.253 654.433C328.136 652.826 332.297 651.999 336.5 652H384.5C388.703 651.999 392.864 652.826 396.747 654.433C400.63 656.041 404.158 658.398 407.13 661.37C410.102 664.342 412.459 667.87 414.067 671.753C415.674 675.636 416.501 679.797 416.5 684V684Z" fill="#EA732D"/>
<path d="M296.5 500H312.5L344.5 524V500H416.5C422.865 500 428.97 497.471 433.471 492.971C437.971 488.47 440.5 482.365 440.5 476V412C440.5 405.635 437.971 399.53 433.471 395.029C428.97 390.529 422.865 388 416.5 388H296.5C290.135 388 284.03 390.529 279.529 395.029C275.029 399.53 272.5 405.635 272.5 412V476C272.5 482.365 275.029 488.47 279.529 492.971C284.03 497.471 290.135 500 296.5 500Z" fill="white"/>
<path d="M712.5 500H696.5L664.5 476V500H592.5C586.135 500 580.03 502.529 575.529 507.029C571.029 511.53 568.5 517.635 568.5 524V588C568.5 594.365 571.029 600.47 575.529 604.971C580.03 609.471 586.135 612 592.5 612H712.5C718.865 612 724.97 609.471 729.471 604.971C733.971 600.47 736.5 594.365 736.5 588V524C736.5 517.635 733.971 511.53 729.471 507.029C724.97 502.529 718.865 500 712.5 500Z" fill="white"/>
<path d="M736.5 356.001C736.481 373.712 731.129 391.007 721.14 405.634C711.152 420.26 696.99 431.538 680.5 438.001C675.324 440.023 669.966 441.543 664.5 442.541C646.711 445.83 628.341 443.557 611.891 436.031C595.44 428.506 581.709 416.093 572.566 400.483C563.423 384.873 559.313 366.825 560.796 348.796C562.279 330.766 569.282 313.632 580.852 299.725C592.422 285.819 607.996 275.816 625.455 271.079C642.914 266.341 661.409 267.1 678.421 273.251C695.434 279.402 710.137 290.646 720.53 305.453C730.922 320.261 736.499 337.911 736.5 356.001V356.001Z" fill="white"/>
<path d="M648.5 364C666.173 364 680.5 349.673 680.5 332C680.5 314.327 666.173 300 648.5 300C630.827 300 616.5 314.327 616.5 332C616.5 349.673 630.827 364 648.5 364Z" fill="#EA732D"/>
<path d="M704.5 396V423.87C688.749 436.905 668.945 444.036 648.5 444.036C628.055 444.036 608.251 436.905 592.5 423.87V396C592.499 391.797 593.326 387.636 594.933 383.753C596.541 379.87 598.898 376.342 601.87 373.37C604.842 370.398 608.37 368.041 612.253 366.433C616.136 364.826 620.297 363.999 624.5 364H672.5C676.703 363.999 680.864 364.826 684.747 366.433C688.63 368.041 692.158 370.398 695.13 373.37C698.102 376.342 700.459 379.87 702.067 383.753C703.674 387.636 704.501 391.797 704.5 396V396Z" fill="#EA732D"/>
<path d="M360.5 548C341.513 548 322.952 553.63 307.165 564.179C291.378 574.728 279.074 589.721 271.808 607.262C264.542 624.804 262.64 644.106 266.345 662.729C270.049 681.351 279.192 698.456 292.618 711.882C306.044 725.308 323.149 734.451 341.771 738.155C360.394 741.86 379.696 739.958 397.238 732.692C414.779 725.426 429.773 713.122 440.321 697.335C450.87 681.548 456.5 662.987 456.5 644C456.471 618.548 446.348 594.147 428.351 576.149C410.353 558.152 385.952 548.029 360.5 548V548ZM344.5 722.39V692H328.5V717.3C322.823 714.816 317.453 711.68 312.5 707.956V684C312.507 677.637 315.038 671.537 319.538 667.038C324.037 662.538 330.137 660.007 336.5 660H384.5C390.863 660.007 396.963 662.538 401.462 667.038C405.962 671.537 408.493 677.637 408.5 684V707.956C403.547 711.68 398.177 714.816 392.5 717.3V692H376.5V722.39C365.941 724.537 355.059 724.537 344.5 722.39V722.39ZM336.5 620C336.5 615.253 337.908 610.613 340.545 606.666C343.182 602.72 346.93 599.643 351.316 597.827C355.701 596.01 360.527 595.535 365.182 596.461C369.838 597.387 374.114 599.673 377.471 603.029C380.827 606.386 383.113 610.662 384.039 615.318C384.965 619.973 384.49 624.799 382.673 629.184C380.857 633.57 377.781 637.318 373.834 639.955C369.887 642.592 365.247 644 360.5 644C354.137 643.993 348.037 641.462 343.538 636.962C339.038 632.463 336.507 626.363 336.5 620ZM424.5 691.945V684C424.488 674.684 421.228 665.663 415.283 658.49C409.338 651.317 401.078 646.441 391.926 644.7C396.571 638.801 399.462 631.714 400.269 624.248C401.075 616.783 399.764 609.242 396.485 602.487C393.207 595.732 388.093 590.037 381.729 586.052C375.365 582.067 368.009 579.953 360.5 579.953C352.992 579.953 345.635 582.067 339.271 586.052C332.907 590.037 327.793 595.732 324.515 602.487C321.236 609.242 319.925 616.783 320.731 624.248C321.538 631.714 324.429 638.801 329.074 644.7C319.922 646.441 311.662 651.317 305.717 658.49C299.772 665.663 296.512 674.684 296.5 684V691.945C287.586 680.059 282.158 665.926 280.823 651.129C279.489 636.333 282.302 621.456 288.946 608.168C295.59 594.879 305.803 583.704 318.442 575.893C331.08 568.082 345.643 563.945 360.5 563.945C375.357 563.945 389.92 568.082 402.559 575.893C415.197 583.704 425.41 594.879 432.054 608.168C438.698 621.456 441.511 636.333 440.177 651.129C438.843 665.926 433.414 680.059 424.5 691.945V691.945Z" fill="black"/>
<path d="M648.5 452C667.487 452 686.048 446.37 701.835 435.821C717.622 425.273 729.926 410.279 737.192 392.738C744.458 375.196 746.36 355.894 742.655 337.271C738.951 318.649 729.808 301.544 716.382 288.118C702.956 274.692 685.851 265.549 667.229 261.845C648.606 258.14 629.304 260.042 611.762 267.308C594.221 274.574 579.228 286.878 568.679 302.665C558.13 318.452 552.5 337.013 552.5 356C552.529 381.452 562.652 405.853 580.649 423.851C598.647 441.848 623.048 451.971 648.5 452V452ZM632.5 434.39V404H616.5V429.3C610.823 426.816 605.453 423.68 600.5 419.956V396C600.507 389.637 603.038 383.537 607.538 379.038C612.037 374.538 618.137 372.007 624.5 372H672.5C678.863 372.007 684.963 374.538 689.462 379.038C693.962 383.537 696.493 389.637 696.5 396V419.956C691.547 423.68 686.177 426.816 680.5 429.3V404H664.5V434.39C653.941 436.537 643.059 436.537 632.5 434.39V434.39ZM624.5 332C624.5 327.253 625.908 322.613 628.545 318.666C631.182 314.72 634.93 311.643 639.316 309.827C643.701 308.01 648.527 307.535 653.182 308.461C657.838 309.387 662.114 311.673 665.471 315.029C668.827 318.386 671.113 322.662 672.039 327.318C672.965 331.973 672.49 336.799 670.673 341.184C668.857 345.57 665.78 349.318 661.834 351.955C657.887 354.592 653.247 356 648.5 356C642.137 355.993 636.037 353.462 631.538 348.962C627.038 344.463 624.507 338.363 624.5 332V332ZM648.5 276C663.354 275.992 677.916 280.123 690.555 287.928C703.193 295.732 713.407 306.903 720.052 320.188C726.697 333.473 729.511 348.346 728.177 363.14C726.843 377.933 721.414 392.063 712.5 403.945V396C712.488 386.684 709.228 377.663 703.283 370.49C697.338 363.317 689.078 358.441 679.926 356.7C684.571 350.801 687.462 343.714 688.269 336.248C689.075 328.783 687.764 321.242 684.485 314.487C681.207 307.732 676.093 302.037 669.729 298.052C663.365 294.067 656.009 291.953 648.5 291.953C640.991 291.953 633.635 294.067 627.271 298.052C620.907 302.037 615.793 307.732 612.515 314.487C609.236 321.242 607.925 328.783 608.731 336.248C609.538 343.714 612.429 350.801 617.074 356.7C607.922 358.441 599.662 363.317 593.717 370.49C587.772 377.663 584.512 386.684 584.5 396V403.945C575.586 392.063 570.157 377.933 568.823 363.14C567.489 348.346 570.303 333.473 576.948 320.188C583.593 306.903 593.807 295.732 606.445 287.928C619.084 280.123 633.646 275.992 648.5 276V276Z" fill="black"/>
<path d="M273.082 516.563C274.27 533.416 277.296 550.089 282.108 566.283L297.443 561.719C292.965 546.644 290.149 531.125 289.043 515.438L273.082 516.563Z" fill="black"/>
<path d="M653.875 655.965L636.752 645.225C635.93 644.709 635.021 644.347 634.07 644.157L594.07 636.157C593.553 636.054 593.028 636.002 592.501 636.002H558.267L544.09 593.472C544.041 593.323 543.99 593.172 543.929 593.031L527.929 553.031C527.465 551.87 526.736 550.835 525.8 550.007C524.864 549.18 523.748 548.583 522.539 548.264C521.331 547.946 520.065 547.915 518.843 548.174C517.621 548.432 516.476 548.974 515.501 549.755L475.501 581.755C474.564 582.504 473.809 583.455 473.289 584.536C472.77 585.618 472.501 586.802 472.501 588.002V636.002C472.501 636.38 472.528 636.759 472.582 637.134L480.266 690.928L470.741 713.374C463.92 712.307 457.171 710.915 450.494 709.197L446.506 724.691C465.454 729.555 484.939 732.011 504.501 732.002C540.795 732.108 576.596 723.609 608.97 707.202C640.228 691.346 667.529 668.675 688.857 640.862L676.15 631.14C669.375 639.975 661.927 648.275 653.875 655.965ZM601.756 692.923C571.617 708.194 538.288 716.104 504.501 716.002C498.75 716.002 493.015 715.749 487.301 715.302L495.862 695.13C496.431 693.788 496.623 692.316 496.417 690.873L488.501 635.434V591.847L517.078 568.985L528.986 598.755L544.912 646.532C545.443 648.124 546.461 649.51 547.823 650.491C549.186 651.473 550.822 652.002 552.501 652.002H591.709L629.493 659.559L641.404 667.03C629.174 677.084 615.879 685.767 601.756 692.923Z" fill="black"/>
<path d="M653.875 655.965L636.752 645.225C635.93 644.709 635.021 644.347 634.07 644.157L594.07 636.157C593.553 636.054 593.028 636.002 592.501 636.002H558.267L544.09 593.472C544.041 593.323 543.99 593.172 543.929 593.031L527.929 553.031C527.465 551.87 526.736 550.835 525.8 550.007C524.864 549.18 523.748 548.583 522.539 548.264C521.331 547.946 520.065 547.915 518.843 548.174C517.621 548.432 516.476 548.974 515.501 549.755L475.501 581.755C474.564 582.504 473.809 583.455 473.289 584.536C472.77 585.618 472.501 586.802 472.501 588.002V636.002C472.501 636.38 472.528 636.759 472.582 637.134L480.266 690.928L470.741 713.374C463.92 712.307 457.171 710.915 450.494 709.197L446.506 724.691C465.454 729.555 484.939 732.011 504.501 732.002C540.795 732.108 576.596 723.609 608.97 707.202C640.228 691.346 667.529 668.675 688.857 640.862L676.15 631.14C669.375 639.975 661.927 648.275 653.875 655.965ZM601.756 692.923C571.617 708.194 538.288 716.104 504.501 716.002C498.75 716.002 493.015 715.749 487.301 715.302L495.862 695.13C496.431 693.788 496.623 692.316 496.417 690.873L488.501 635.434V591.847L517.078 568.985L528.986 598.755L544.912 646.532C545.443 648.124 546.461 649.51 547.823 650.491C549.186 651.473 550.822 652.002 552.501 652.002H591.709L629.493 659.559L641.404 667.03C629.174 677.084 615.879 685.767 601.756 692.923Z" stroke="black"/>
<path d="M719.275 476.85L735.186 475.15C733.689 461.114 730.913 447.245 726.892 433.715L711.557 438.279C715.299 450.874 717.883 463.785 719.275 476.85V476.85Z" fill="black"/>
<path d="M347.723 351.462L356.494 367.787L370.588 360.215L359.641 339.839C373.979 326.848 389.989 315.831 407.246 307.08C408.366 306.514 409.495 305.98 410.622 305.436L434.844 329.658C435.775 330.589 436.922 331.276 438.182 331.658C439.443 332.04 440.778 332.104 442.07 331.846L482.07 323.846C483.094 323.641 484.069 323.237 484.939 322.657L508.939 306.657C509.985 305.959 510.853 305.024 511.471 303.928C512.088 302.832 512.439 301.605 512.494 300.348L513.194 284.18C529.671 284.824 546.02 287.352 561.922 291.715L566.165 276.287C546.074 270.775 525.334 267.989 504.501 268.001C468.207 267.895 432.405 276.394 400.032 292.801C368.773 308.656 341.473 331.327 320.145 359.141L332.852 368.863C337.497 362.803 342.461 356.995 347.723 351.462V351.462ZM477.38 308.467L443.13 315.316L426.376 298.562C448.985 289.76 472.93 284.88 497.181 284.131L496.681 295.598L477.38 308.467Z" fill="black"/>
<path d="M531.849 370.062L515.849 381.491C514.63 382.361 513.681 383.556 513.108 384.939C512.535 386.322 512.362 387.839 512.608 389.316L519.549 430.965L485.528 444.573C484.043 445.166 482.771 446.191 481.874 447.515C480.978 448.839 480.499 450.402 480.499 452.001V496.688L446.338 530.847L403.029 516.411L397.969 531.59L445.969 547.59C447.378 548.06 448.891 548.128 450.337 547.787C451.783 547.446 453.105 546.708 454.156 545.658L494.156 505.658C494.899 504.915 495.488 504.033 495.89 503.062C496.292 502.091 496.499 501.051 496.499 500.001V457.417L531.47 443.428C533.164 442.751 534.576 441.514 535.47 439.924C536.365 438.334 536.69 436.485 536.39 434.686L529.211 391.609L541.149 383.081L531.849 370.062Z" fill="black"/>
<path d="M296.5 508H309.833L339.7 530.4C340.889 531.291 342.302 531.834 343.782 531.968C345.261 532.101 346.749 531.82 348.078 531.155C349.407 530.491 350.524 529.47 351.305 528.206C352.086 526.942 352.5 525.486 352.5 524V508H416.5C424.984 507.99 433.118 504.616 439.117 498.617C445.116 492.618 448.49 484.484 448.5 476V412C448.49 403.516 445.116 395.382 439.117 389.383C433.118 383.384 424.984 380.01 416.5 380H296.5C288.016 380.01 279.882 383.384 273.883 389.383C267.884 395.382 264.51 403.516 264.5 412V476C264.51 484.484 267.884 492.618 273.883 498.617C279.882 504.616 288.016 507.99 296.5 508V508ZM280.5 412C280.505 407.758 282.192 403.691 285.192 400.692C288.191 397.692 292.258 396.005 296.5 396H416.5C420.742 396.005 424.809 397.692 427.808 400.692C430.808 403.691 432.495 407.758 432.5 412V476C432.495 480.242 430.808 484.309 427.808 487.308C424.809 490.308 420.742 491.995 416.5 492H344.5C342.378 492 340.343 492.843 338.843 494.343C337.343 495.843 336.5 497.878 336.5 500V508L317.3 493.6C315.915 492.561 314.231 492 312.5 492H296.5C292.258 491.995 288.191 490.308 285.192 487.308C282.192 484.309 280.505 480.242 280.5 476V412Z" fill="black"/>
<path d="M304.5 420H320.5V436H304.5V420Z" fill="black"/>
<path d="M336.5 420H408.5V436H336.5V420Z" fill="black"/>
<path d="M304.5 452H408.5V468H304.5V452Z" fill="black"/>
<path d="M712.5 492H699.167L669.3 469.6C668.111 468.709 666.698 468.166 665.218 468.032C663.739 467.899 662.251 468.18 660.922 468.845C659.593 469.509 658.476 470.53 657.695 471.794C656.914 473.058 656.5 474.514 656.5 476V492H592.5C584.016 492.01 575.882 495.384 569.883 501.383C563.884 507.382 560.51 515.516 560.5 524V588C560.51 596.484 563.884 604.618 569.883 610.617C575.882 616.616 584.016 619.99 592.5 620H712.5C720.984 619.99 729.118 616.616 735.117 610.617C741.116 604.618 744.49 596.484 744.5 588V524C744.49 515.516 741.116 507.382 735.117 501.383C729.118 495.384 720.984 492.01 712.5 492V492ZM728.5 588C728.495 592.242 726.808 596.309 723.808 599.308C720.809 602.308 716.742 603.995 712.5 604H592.5C588.258 603.995 584.191 602.308 581.192 599.308C578.192 596.309 576.505 592.242 576.5 588V524C576.505 519.758 578.192 515.691 581.192 512.692C584.191 509.692 588.258 508.005 592.5 508H664.5C666.622 508 668.657 507.157 670.157 505.657C671.657 504.157 672.5 502.122 672.5 500V492L691.7 506.4C693.085 507.439 694.769 508 696.5 508H712.5C716.742 508.005 720.809 509.692 723.808 512.692C726.808 515.691 728.495 519.758 728.5 524V588Z" fill="black"/>
<path d="M600.5 532H616.5V548H600.5V532Z" fill="black"/>
<path d="M632.5 532H704.5V548H632.5V532Z" fill="black"/>
<path d="M600.5 564H704.5V580H600.5V564Z" fill="black"/>
<defs>
<clipPath id="clip0">
<path d="M0.5 662H301.5V963H0.5V662Z" fill="white"/>
</clipPath>
<clipPath id="clip1">
<path d="M717.5 0H1001.5V291H717.5V0Z" fill="white"/>
</clipPath>
</defs>
</svg>
