<svg width="512" height="512" viewBox="0 0 512 512" fill="none" xmlns="http://www.w3.org/2000/svg">
<g clip-path="url(#clip0)">
<path d="M353.974 61.9627L351.457 60.7477C341.052 29.6637 311.946 8.69769 279.17 8.67969H134.508L151.864 60.7477C131.688 70.8317 121.413 93.7327 127.305 115.506L143.186 164.884H160.542V121.494C160.542 121.494 212.61 121.494 238.644 112.816L316.746 86.7817L351.458 147.528V164.884H368.814L379.054 113.597C383.254 92.6997 372.996 71.5777 353.974 61.9627Z" fill="black"/>
<path d="M151.864 60.7461C131.731 70.8561 121.526 93.7741 127.479 115.504L143.186 164.882H160.542V121.492C160.542 121.492 180.935 121.492 202.543 119.409C180.345 105.151 162.747 84.7751 151.864 60.7461Z" fill="black"/>
<path d="M393.025 367.165L332.713 359.094L328.548 368.727C311.322 408.793 264.878 427.312 224.812 410.086C206.241 402.102 191.445 387.298 183.453 368.727L179.288 359.094L118.976 367.165C93.1239 370.601 73.7989 392.635 73.7639 418.712V512H438.239V418.712C438.203 392.635 418.877 370.601 393.025 367.165Z" fill="#FECB66"/>
<path d="M256 416.542C287.57 416.559 316.112 397.746 328.548 368.726L332.713 359.093L323.167 357.791C314.472 356.654 307.989 349.209 308.067 340.435V303.727H203.932V340.955C204.01 349.728 197.528 357.174 188.832 358.311L179.286 359.613L183.451 369.246C196.044 398.067 224.551 416.647 256 416.542Z" fill="#FFE6D8"/>
<path d="M309.109 346.338C308.415 344.507 308.059 342.563 308.068 340.611V303.73H203.932V340.958C203.941 342.911 203.585 344.854 202.891 346.685C236.336 363.494 275.777 363.364 309.109 346.338Z" fill="#F5C4B0"/>
<path d="M108.475 369.77C87.7259 377.103 73.8239 396.698 73.7629 418.714V512.002H108.475V369.77Z" fill="#F5AD76"/>
<path d="M351.458 156.203H342.78V208.271H351.458C365.837 208.271 377.492 196.616 377.492 182.237C377.492 167.858 365.837 156.203 351.458 156.203Z" fill="#FEDAC6"/>
<path d="M134.508 182.237C134.508 196.616 146.163 208.271 160.542 208.271H169.22V156.203H160.542C146.163 156.203 134.508 167.858 134.508 182.237Z" fill="#F5C4B0"/>
<path d="M351.458 241.162C351.571 253.919 347.006 266.267 338.615 275.874L301.126 318.309C294.548 325.798 285.063 330.102 275.092 330.111H237.083C227.112 330.102 217.627 325.798 211.049 318.309L173.56 275.44C165.168 265.833 160.604 253.485 160.717 240.728V121.493C160.717 121.493 212.785 121.493 238.819 112.815L316.921 86.7812L351.633 147.527L351.458 241.162Z" fill="#FFE6D8"/>
<path d="M195.254 120.016C176.596 121.491 160.542 121.491 160.542 121.491V241.16C160.429 253.917 164.994 266.265 173.385 275.872L195.253 300.344L195.254 120.016Z" fill="#FFE6D8"/>
<path d="M160.542 147.523H238.644V173.557C238.644 187.936 226.989 199.591 212.61 199.591H186.576C172.197 199.591 160.542 187.936 160.542 173.557V147.523V147.523Z" fill="#EBEBEB"/>
<path d="M273.356 147.523H351.458V173.557C351.458 187.936 339.803 199.591 325.424 199.591H299.39C285.011 199.591 273.356 187.936 273.356 173.557V147.523Z" fill="#EBEBEB"/>
<path d="M82.441 511.999H65.085V419.058C65.059 388.451 87.951 362.504 118.333 358.729L187.67 349.366C192.044 348.802 195.289 345.07 195.255 340.688V312.406H212.611V340.609C212.724 353.678 202.987 364.873 189.953 366.565L120.564 375.937C98.765 378.653 82.416 397.172 82.433 419.049V511.999H82.441Z" fill="black"/>
<path d="M446.915 511.999H429.559V419.058C429.576 397.181 413.227 378.653 391.523 375.946L322.004 366.565C309.013 364.873 299.276 353.678 299.389 340.531V312.406H316.745V340.609C316.702 345.069 319.947 348.792 324.295 349.365L393.753 358.737C424.048 362.512 446.94 388.45 446.914 419.066V511.999H446.915Z" fill="black"/>
<path d="M351.458 216.947H342.78V199.591H351.458C361.03 199.591 368.814 191.807 368.814 182.235C368.814 172.663 361.03 164.879 351.458 164.879H342.78V147.523H351.458C370.602 147.523 386.17 163.091 386.17 182.235C386.17 201.379 370.601 216.947 351.458 216.947Z" fill="black"/>
<path d="M169.22 216.947H160.542C141.398 216.947 125.83 201.379 125.83 182.235C125.83 163.091 141.398 147.523 160.542 147.523H169.22V164.879H160.542C150.97 164.879 143.186 172.663 143.186 182.235C143.186 191.807 150.97 199.591 160.542 199.591H169.22V216.947Z" fill="black"/>
<path d="M256.043 425.221C256.008 425.221 255.974 425.221 255.948 425.221C220.872 425.221 189.293 404.394 175.477 372.147L169.923 359.226L185.873 352.379L191.427 365.309C202.509 391.161 227.831 407.866 255.956 407.866C255.982 407.866 256.008 407.866 256.034 407.866C284.159 407.866 309.49 391.161 320.581 365.309L326.135 352.379L342.085 359.226L336.531 372.156C322.708 404.394 291.111 425.221 256.043 425.221Z" fill="black"/>
<path d="M264.678 225.626H229.966C227.293 225.626 224.768 224.394 223.119 222.285C221.479 220.176 220.897 217.425 221.548 214.839L238.904 145.762L255.731 149.988L241.091 208.269H264.678V225.626Z" fill="black"/>
<path d="M245.257 260.338H229.966V242.982H245.239C256.59 242.956 267.993 240.266 278.181 235.207L285.896 250.758C273.33 256.988 259.28 260.303 245.257 260.338Z" fill="black"/>
<path d="M275.109 338.788H237.082C224.603 338.771 212.749 333.39 204.531 324.035L167.034 281.157C157.237 269.928 151.917 255.548 152.047 240.657V121.492C152.047 116.702 155.935 112.814 160.725 112.814C161.228 112.814 211.699 112.71 236.084 104.579L314.186 78.5453C318.117 77.2523 322.413 78.8833 324.469 82.4763L359.181 143.222C359.936 144.532 360.327 146.025 360.327 147.544L360.136 241.127C360.266 256.001 354.938 270.363 345.14 281.575L307.625 324.054C299.425 333.39 287.562 338.77 275.109 338.788ZM169.394 130.039V240.726C169.299 251.443 173.099 261.718 180.094 269.736L217.574 312.588C222.494 318.194 229.61 321.422 237.091 321.431H275.092C282.546 321.422 289.671 318.194 294.609 312.571L332.106 270.118C339.074 262.134 342.875 251.86 342.771 241.229C342.771 241.194 342.771 241.168 342.771 241.134L342.945 149.816L312.902 97.2543L241.56 121.04C220.82 127.957 185.674 129.631 169.394 130.039Z" fill="black"/>
<path d="M134.916 167.529L119.122 118.151C112.657 94.642 121.977 70.118 141.407 56.841L126.264 11.429C125.379 8.782 125.83 5.875 127.462 3.61C129.102 1.336 131.723 0 134.509 0H279.257C314.594 0.035 345.982 21.834 358.478 54.602C380.52 65.935 392.522 90.806 387.567 115.313L377.327 166.582L360.31 163.18L370.55 111.893C374.004 94.806 365.534 77.485 349.94 69.735L347.467 68.451C345.471 67.41 343.952 65.639 343.241 63.496C334.025 35.926 308.312 17.381 279.25 17.355H146.545L160.1 58.005C161.471 62.11 159.605 66.588 155.735 68.514C139.299 76.706 130.899 95.494 135.767 113.206L151.457 162.237L134.916 167.529Z" fill="black"/>
<path d="M212.61 208.272H186.576C167.432 208.272 151.864 192.704 151.864 173.56V147.526C151.864 142.736 155.752 138.848 160.542 138.848H238.644C243.434 138.848 247.322 142.736 247.322 147.526V173.56C247.322 192.704 231.754 208.272 212.61 208.272ZM169.22 156.204V173.56C169.22 183.132 177.004 190.916 186.576 190.916H212.61C222.182 190.916 229.966 183.132 229.966 173.56V156.204H169.22Z" fill="black"/>
<path d="M325.424 208.272H299.39C280.246 208.272 264.678 192.704 264.678 173.56V147.526C264.678 142.736 268.566 138.848 273.356 138.848H351.458C356.257 138.848 360.136 142.736 360.136 147.526V173.56C360.136 192.704 344.567 208.272 325.424 208.272ZM282.034 156.204V173.56C282.034 183.132 289.818 190.916 299.39 190.916H325.424C334.996 190.916 342.78 183.132 342.78 173.56V156.204H282.034Z" fill="black"/>
<path d="M273.356 138.848H238.644V156.204H273.356V138.848Z" fill="black"/>
</g>
<defs>
<clipPath id="clip0">
<rect width="512" height="512" fill="white"/>
</clipPath>
</defs>
</svg>
