<svg width="512" height="513" viewBox="0 0 512 513" fill="none" xmlns="http://www.w3.org/2000/svg">
<g clip-path="url(#clip0)">
<path d="M332.801 401.069H179.201C153.49 390.667 136.628 365.741 136.534 338.008V128.002C136.534 62.0222 190.021 8.53516 256.001 8.53516C321.981 8.53516 375.468 62.0222 375.468 128.002V338.007C375.382 365.741 358.512 390.667 332.801 401.069Z" fill="#3E2518"/>
<path d="M145.067 443.738H110.934V512.005H145.067V443.738Z" fill="#A15D30"/>
<path d="M110.934 443.738H76.8013V512.005H110.934V443.738Z" fill="#8F4F24"/>
<path d="M435.201 443.738H366.934V512.005H435.201V443.738Z" fill="#A15D30"/>
<path d="M435.201 403.632C435.397 377.648 416.103 355.632 390.316 352.432L331.095 345.008L314.028 342.875C305.443 341.791 299.026 334.461 299.095 325.808V281.605H213.335V326.234C213.403 334.887 206.986 342.217 198.402 343.301L180.909 345.434L121.688 352.858C95.9003 356.058 76.6063 378.074 76.8033 404.058V443.738H145.07L143.278 447.322C133.234 467.401 128.003 489.553 128.003 512.005H384.003C384.012 489.554 378.781 467.401 368.728 447.322L366.936 443.738H435.203V403.632H435.201Z" fill="#3CACDE"/>
<path d="M298.668 328.88V281.605H213.335V328.88C245.334 345.52 266.668 345.52 298.668 328.88Z" fill="#A15D30"/>
<path d="M136.534 462.598C130.731 478.419 127.839 495.153 128.001 512.006H185.004C162.33 503.524 144.581 485.433 136.534 462.598Z" fill="#329AC7"/>
<path d="M298.668 307.205V281.605H213.335V324.272C234.582 325.637 256.001 324.272 298.668 307.205Z" fill="#8F4F24"/>
<path d="M110.934 355.418C90.4973 362.646 76.8263 381.957 76.8013 403.631V443.738H110.934V355.418Z" fill="#329AC7"/>
<path d="M332.801 401.069V128.002C316.46 123.633 301.68 114.767 290.134 102.402C277.607 89.1412 266.189 74.8652 256.001 59.7352C245.812 74.8652 234.395 89.1412 221.868 102.402C208.607 114.929 194.331 126.347 179.201 136.535V401.068C153.49 390.666 136.628 365.74 136.534 338.007V128.002C136.534 62.0222 190.021 8.53516 256.001 8.53516C321.981 8.53516 375.468 62.0222 375.468 128.002V338.007C375.382 365.741 358.512 390.667 332.801 401.069Z" fill="#5C3724"/>
<path d="M222.465 13.4023C171.555 28.2933 136.56 74.9623 136.534 128.005V338.01C136.628 365.743 153.49 390.669 179.201 401.071V136.538C191.83 127.971 203.914 118.618 215.382 108.549C212.908 76.6603 215.297 44.5753 222.465 13.4023Z" fill="#5C3724"/>
<path d="M332.801 254.64C323.542 268.549 310.802 279.788 295.852 287.237L278.785 295.77L294.913 287.663L278.785 295.77C264.389 302.955 247.442 302.955 233.046 295.77L215.979 287.237C202.317 278.593 189.944 268.08 179.2 256.005V136.538C194.33 126.349 208.606 114.932 221.867 102.405C234.394 89.1443 245.812 74.8683 256 59.7383C266.189 74.8683 277.606 89.1443 290.133 102.405C301.679 114.77 316.458 123.636 332.8 128.005V254.64H332.801Z" fill="#A15D30"/>
<path d="M213.334 110.34C202.48 119.735 191.079 128.482 179.201 136.537V256.004C189.996 268.096 202.429 278.609 216.15 287.236L228.779 293.636C219.213 264.964 213.999 235.021 213.334 204.804V110.34V110.34Z" fill="#8F4F24"/>
<path d="M307.201 179.204C316.627 179.204 324.268 171.563 324.268 162.137C324.268 152.711 316.627 145.07 307.201 145.07C297.775 145.07 290.134 152.711 290.134 162.137C290.134 171.563 297.775 179.204 307.201 179.204Z" fill="black"/>
<path d="M241.434 219.371L224.368 202.305C221.031 198.968 221.031 193.575 224.368 190.239L241.435 173.172L253.501 185.238L242.467 196.272L253.501 207.306L241.434 219.371Z" fill="black"/>
<path d="M180.259 354.068L178.151 337.138L197.351 334.749C201.635 334.211 204.843 330.542 204.809 326.216V290.137H221.876V326.148C221.978 339.067 212.353 350.075 199.467 351.68L180.259 354.068Z" fill="black"/>
<path d="M85.3342 512.003H68.2682V403.63C68.0382 373.379 90.5492 347.703 120.637 343.965L135.084 341.465L137.985 358.284L123.137 360.844C101.249 363.575 85.1722 381.921 85.3342 403.57V512.003V512.003Z" fill="black"/>
<path d="M443.734 512.005H426.667V403.973C426.838 382.256 410.752 363.918 389.265 361.238L373.828 358.243L377.096 341.492L391.944 344.393C421.452 348.045 443.963 373.731 443.724 404.032V512.005H443.734Z" fill="black"/>
<path d="M331.785 354.078L312.585 351.774C299.666 350.144 290.031 339.136 290.134 326.165V290.137H307.201V326.233C307.167 330.628 310.375 334.288 314.668 334.835L333.817 337.13L331.785 354.078Z" fill="black"/>
<path d="M245.445 247.47C245.436 247.47 245.428 247.47 245.419 247.47H238.934V230.403H245.419C245.428 230.403 245.436 230.403 245.445 230.403C256.615 230.403 267.794 227.766 277.786 222.766L285.423 238.032C273.076 244.21 259.252 247.47 245.445 247.47Z" fill="black"/>
<path d="M204.801 179.204C214.227 179.204 221.868 171.563 221.868 162.137C221.868 152.711 214.227 145.07 204.801 145.07C195.375 145.07 187.734 152.711 187.734 162.137C187.734 171.563 195.375 179.204 204.801 179.204Z" fill="black"/>
<path d="M324.788 273.071H324.268V256.004L324.788 273.071Z" fill="black"/>
<path d="M179.201 409.604C178.117 409.604 177.034 409.399 176.001 408.981C146.945 397.231 128.103 369.386 128.001 338.043V128.004C128.001 57.4249 185.422 0.00390625 256.001 0.00390625C326.58 0.00390625 384.001 57.4249 384.001 128.004V338.009C383.899 369.386 365.057 397.222 336.001 408.972C333.364 410.03 330.386 409.731 328.031 408.136C325.676 406.566 324.268 403.903 324.268 401.07V134.327C308.891 129.096 295.033 120.153 283.897 108.224C273.93 97.6679 264.578 86.3869 256.002 74.6109C247.426 86.4039 238.056 97.6849 228.072 108.258C215.298 120.341 201.832 131.264 187.735 141.035V401.071C187.735 403.904 186.327 406.566 183.972 408.145C182.546 409.109 180.873 409.604 179.201 409.604ZM256.001 51.2039C258.843 51.2039 261.496 52.6209 263.084 54.9669C272.974 69.6529 284.161 83.6389 296.347 96.5409C306.834 107.779 320.198 115.801 335.003 119.752C338.732 120.759 341.335 124.138 341.335 128.004V386.829C357.147 375.881 366.867 357.833 366.935 337.984V128.004C366.935 66.8369 317.169 17.0709 256.002 17.0709C194.835 17.0709 145.068 66.8369 145.068 128.004V338.009C145.136 357.832 154.856 375.88 170.668 386.828V136.537C170.668 133.695 172.085 131.042 174.431 129.454C189.134 119.555 203.12 108.36 216.005 96.1999C227.824 83.6649 239.019 69.6779 248.918 54.9669C250.505 52.6209 253.159 51.2039 256.001 51.2039Z" fill="black"/>
<path d="M255.907 309.653C246.742 309.653 237.586 307.571 229.24 303.407L212.165 294.874C211.909 294.746 211.662 294.609 211.423 294.447C197.096 285.385 184.108 274.36 172.835 261.679L185.584 250.338C195.713 261.721 207.353 271.637 220.195 279.804L236.878 288.15C248.799 294.098 263.058 294.089 274.979 288.15L291.098 280.052C291.345 279.924 291.601 279.822 291.849 279.719L292.045 279.617C305.664 272.833 317.295 262.567 325.7 249.93L339.917 259.376C329.848 274.506 315.93 286.785 299.665 294.892L282.607 303.417C282.59 303.426 282.573 303.434 282.556 303.443C274.202 307.579 265.055 309.653 255.907 309.653Z" fill="black"/>
<path d="M119.468 512.003C119.468 488.349 125.057 464.66 135.647 443.506L136.534 441.723V418.137H153.601V443.737C153.601 445.06 153.294 446.374 152.705 447.551L150.913 451.135C141.501 469.934 136.534 490.986 136.534 512.003H119.468Z" fill="black"/>
<path d="M392.534 512.003H375.467C375.476 490.985 370.509 469.942 361.088 451.135L359.296 447.551C358.707 446.373 358.4 445.059 358.4 443.737V418.137H375.467V441.723L376.354 443.506C386.953 464.669 392.543 488.357 392.534 512.003Z" fill="black"/>
<path d="M256.001 348.96C239.139 348.96 222.277 343.661 208.197 333.062L218.463 319.426C240.564 336.075 271.429 336.075 293.531 319.426L303.797 333.062C289.733 343.652 272.871 348.96 256.001 348.96Z" fill="black"/>
<path d="M145.068 435.203H76.8013V452.27H145.068V435.203Z" fill="black"/>
<path d="M435.201 435.203H366.934V452.27H435.201V435.203Z" fill="black"/>
</g>
<defs>
<clipPath id="clip0">
<rect x="0.000244141" y="0.00390625" width="512" height="512" fill="white"/>
</clipPath>
</defs>
</svg>
