<svg width="512" height="512" viewBox="0 0 512 512" fill="none" xmlns="http://www.w3.org/2000/svg">
<g clip-path="url(#clip0)">
<path d="M255.996 401.069C287.04 401.086 315.106 382.586 327.335 354.05L331.431 344.578L322.044 343.298C313.494 342.18 307.119 334.859 307.196 326.231V281.602H204.796V326.402C204.873 335.029 198.498 342.351 189.948 343.469L180.561 344.749L184.657 354.221C196.937 382.688 224.994 401.111 255.996 401.069Z" fill="#A15D30"/>
<path d="M375.974 350.462L331.43 344.574L327.334 354.046C310.395 393.444 264.725 411.655 225.327 394.716C207.066 386.865 192.516 372.307 184.657 354.046L180.561 344.574L136.017 350.462C102.114 354.993 76.796 383.921 76.796 418.131V511.998H435.196V418.131C435.196 383.921 409.877 354.993 375.974 350.462Z" fill="#787D82"/>
<path d="M307.196 324.269V281.602H204.796V324.269C243.196 341.335 268.796 341.335 307.196 324.269Z" fill="#7B4520"/>
<path d="M76.796 418.132V511.999H110.929V359.082C89.826 371.267 76.821 393.77 76.796 418.132Z" fill="#717478"/>
<path d="M145.062 469.332H110.929V511.999H145.062V469.332Z" fill="#A15D30"/>
<path d="M110.929 469.332H76.796V511.999H110.929V469.332Z" fill="#7B4520"/>
<path d="M435.196 469.336H366.929V512.003H435.196V469.336Z" fill="#A15D30"/>
<path d="M358.396 119.469H349.863V170.669H358.396C372.536 170.669 383.996 159.209 383.996 145.069C383.996 130.929 372.535 119.469 358.396 119.469Z" fill="#A15D30"/>
<path d="M127.996 145.069C127.996 159.209 139.456 170.669 153.596 170.669H162.129V119.469H153.596C139.456 119.469 127.996 130.929 127.996 145.069Z" fill="#7B4520"/>
<path d="M198.737 82.6892L204.796 68.2682C238.699 73.9002 273.293 73.9002 307.196 68.2682C312.76 84.9422 323.264 99.5262 337.319 110.081L349.863 120.748V119.468C361.076 70.6912 330.629 22.0602 281.852 10.8392C275.222 9.31216 268.438 8.54416 261.628 8.53516H250.364C200.316 8.57816 159.774 49.1962 159.825 99.2442C159.834 106.054 160.602 112.838 162.129 119.468V128.001L179.196 110.934C187.541 102.93 194.189 93.3222 198.737 82.6892Z" fill="black"/>
<path d="M337.318 110.079C323.264 99.5226 312.759 84.9396 307.195 68.2656C273.292 73.8976 238.698 73.8976 204.795 68.2656L198.736 82.6866C194.188 93.3196 187.54 102.928 179.195 110.932L162.129 127.999V216.49C162.172 236.108 170.662 254.762 185.425 267.69L211.025 290.133C236.744 312.576 275.076 312.576 300.796 290.133L326.396 267.69C341.159 254.762 349.649 236.108 349.692 216.49V120.746L337.318 110.079Z" fill="#7B4520"/>
<path d="M196.262 87.8924V79.8714C196.245 60.9704 200.29 42.2904 208.123 25.0874L211.707 17.0664C173.119 35.2594 152.469 77.9174 162.128 119.466V127.999L179.195 110.932C186.142 104.268 191.91 96.4774 196.262 87.8924Z" fill="black"/>
<path d="M196.262 203.949V87.8945C191.91 96.4795 186.141 104.27 179.195 110.935L162.129 128.002V216.493C162.172 236.111 170.662 254.765 185.425 267.693L211.025 290.136C215.317 293.848 220.045 297.031 225.105 299.608L206.332 254.637C199.701 238.56 196.279 221.34 196.262 203.949Z" fill="#7B4520"/>
<path d="M307.196 68.2656C273.293 73.8976 238.699 73.8976 204.796 68.2656L198.737 82.6866C198.054 84.4786 197.116 86.1856 196.262 87.8916V203.945C196.236 221.515 199.692 238.915 206.417 255.145L225.19 300.116C250.099 312.523 280.042 308.573 300.881 290.132L326.481 267.689C341.244 254.761 349.734 236.107 349.777 216.489V120.745L337.318 110.078C323.264 99.5226 312.759 84.9396 307.196 68.2656Z" fill="#7B4520"/>
<path d="M337.318 110.079C323.264 99.5226 312.759 84.9396 307.195 68.2656C273.292 73.8976 238.698 73.8976 204.795 68.2656L198.736 82.6866C194.188 93.3196 187.54 102.928 179.195 110.932L162.129 127.999V216.49C162.172 236.108 170.662 254.762 185.425 267.69L211.025 290.133C236.744 312.576 275.076 312.576 300.796 290.133L326.396 267.69C341.159 254.762 349.649 236.108 349.692 216.49V120.746L337.318 110.079Z" fill="#A15D30"/>
<path d="M337.318 110.079C323.264 99.5226 312.759 84.9396 307.195 68.2656C273.292 73.8976 238.698 73.8976 204.795 68.2656L198.736 82.6866C194.188 93.3196 187.54 102.928 179.195 110.932L162.129 127.999V216.49C162.172 236.108 170.662 254.762 185.425 267.69L211.025 290.133C236.744 312.576 275.076 312.576 300.796 290.133L326.396 267.69C341.159 254.762 349.649 236.108 349.692 216.49V120.746L337.318 110.079Z" fill="#A15D30"/>
<path d="M196.262 203.949V87.8945C191.91 96.4795 186.141 104.27 179.195 110.935L162.129 128.002V216.493C162.172 236.111 170.662 254.765 185.425 267.693L211.025 290.136C215.317 293.848 220.045 297.031 225.105 299.608L206.332 254.637C199.701 238.56 196.279 221.34 196.262 203.949Z" fill="#7B4520"/>
<path d="M273.062 204.801H238.929C220.079 204.801 204.796 220.084 204.796 238.934V284.843L211.111 290.304C236.83 312.747 275.162 312.747 300.882 290.304L307.197 284.843V238.934C307.196 220.084 291.913 204.801 273.062 204.801Z" fill="#A15D30"/>
<path d="M253.299 204.367L227.699 195.834C225.438 195.083 223.594 193.411 222.613 191.235C221.632 189.059 221.615 186.576 222.553 184.374L248.153 124.641L263.837 131.365L241.889 182.574L258.691 188.172L253.299 204.367Z" fill="black"/>
<path d="M358.396 179.202H349.863V162.135H358.396C367.808 162.135 375.463 154.481 375.463 145.068C375.463 135.656 367.809 128.001 358.396 128.001H349.863V110.934H358.396C377.221 110.934 392.529 126.243 392.529 145.067C392.529 163.891 377.22 179.202 358.396 179.202Z" fill="black"/>
<path d="M162.129 179.2H153.596C134.771 179.2 119.463 163.891 119.463 145.067C119.463 126.243 134.772 110.934 153.596 110.934H162.129V128H153.596C144.184 128 136.529 135.654 136.529 145.067C136.529 154.479 144.183 162.134 153.596 162.134H162.129V179.2Z" fill="black"/>
<path d="M204.796 162.134C214.222 162.134 221.863 154.493 221.863 145.067C221.863 135.641 214.222 128 204.796 128C195.37 128 187.729 135.641 187.729 145.067C187.729 154.493 195.37 162.134 204.796 162.134Z" fill="black"/>
<path d="M298.662 162.134C308.088 162.134 315.729 154.493 315.729 145.067C315.729 135.641 308.088 128 298.662 128C289.236 128 281.595 135.641 281.595 145.067C281.595 154.493 289.236 162.134 298.662 162.134Z" fill="black"/>
<path d="M236.907 247.466C236.898 247.466 236.89 247.466 236.881 247.466H230.396V230.399H236.881C236.89 230.399 236.898 230.399 236.907 230.399C248.077 230.399 259.264 227.762 269.248 222.762L276.885 238.028C264.538 244.206 250.714 247.466 236.907 247.466Z" fill="black"/>
<path d="M256.03 315.733C237.333 315.682 219.371 308.864 205.376 296.533L179.793 274.107C163.196 259.575 153.638 238.574 153.587 216.507V120.413C152.06 113.467 151.283 106.35 151.283 99.25C151.241 44.578 195.682 0.051 250.355 0H261.628C269.035 0.009 276.45 0.862 283.678 2.517C336.644 14.694 369.941 67.447 358.311 120.405V216.49C358.251 238.583 348.702 259.583 332.097 274.116L306.506 296.55C292.561 308.838 274.641 315.657 256.03 315.733ZM250.364 17.067C205.112 17.11 168.316 53.965 168.359 99.234C168.359 105.387 169.067 111.548 170.45 117.555C170.595 118.186 170.663 118.826 170.663 119.466V216.49C170.706 233.633 178.13 249.966 191.049 261.273L216.649 283.716C227.546 293.325 241.524 298.632 256.013 298.666C270.426 298.606 284.378 293.307 295.232 283.733L320.849 261.273C333.768 249.966 341.201 233.634 341.244 216.473V119.466C341.244 118.826 341.321 118.186 341.457 117.555C351.595 73.446 323.964 29.303 279.855 19.157C273.873 17.775 267.738 17.075 261.611 17.066H250.364V17.067Z" fill="black"/>
<path d="M168.162 134.032L156.096 121.966L173.163 104.899C180.732 97.5086 186.569 88.8986 190.605 79.2306L196.996 64.8096C198.575 61.2596 202.338 59.2286 206.195 59.8516C239.245 65.3466 272.755 65.3466 305.796 59.8516C309.952 59.1606 313.962 61.5836 315.285 65.5686C320.32 80.6726 329.706 93.6946 342.447 103.261L354.982 112.639L344.742 126.301L332.198 116.914C318.621 106.717 308.168 93.2846 301.649 77.7626C271.185 82.1406 240.397 82.1236 209.941 77.7026L206.272 85.9716C201.425 97.5936 194.3 108.107 185.152 117.033L168.162 134.032Z" fill="black"/>
<path d="M315.729 281.6H298.662V238.933C298.662 224.819 287.176 213.333 273.062 213.333H238.929C224.815 213.333 213.329 224.819 213.329 238.933V281.6H196.262V238.933C196.262 215.407 215.402 196.266 238.929 196.266H273.062C296.588 196.266 315.729 215.406 315.729 238.933V281.6V281.6Z" fill="black"/>
<path d="M264.529 264.531H247.462V307.198H264.529V264.531Z" fill="black"/>
<path d="M85.329 512.002H68.262V418.135C68.262 379.82 96.9 347.095 134.89 342.009L188.821 334.841C193.105 334.278 196.296 330.608 196.262 326.308V281.602H213.329V326.231C213.44 339.065 203.866 350.073 191.057 351.754L137.143 358.922C107.601 362.873 85.329 388.328 85.329 418.135V512.002V512.002Z" fill="black"/>
<path d="M443.729 512.002H426.662V418.135C426.585 388.43 404.313 363.035 374.839 359.093L320.925 351.925C308.134 350.261 298.559 339.253 298.67 326.325V281.602H315.737V326.402C315.694 330.788 318.886 334.449 323.161 335.012L377.1 342.18C414.997 347.249 443.643 379.889 443.737 418.118V512.002H443.729Z" fill="black"/>
<path d="M256.038 409.602C256.004 409.602 255.97 409.602 255.944 409.602C221.452 409.602 190.399 389.122 176.814 357.412L171.353 344.706L187.037 337.973L192.498 350.688C203.395 376.109 228.295 392.535 255.952 392.535C255.978 392.535 256.003 392.535 256.029 392.535C283.686 392.535 308.594 376.108 319.5 350.688L324.961 337.973L340.645 344.706L335.184 357.421C321.591 389.122 290.522 409.602 256.038 409.602Z" fill="black"/>
<path d="M153.596 443.734H136.529V512.001H153.596V443.734Z" fill="black"/>
<path d="M145.063 460.801H76.796V477.868H145.063V460.801Z" fill="black"/>
<path d="M375.463 443.734H358.396V512.001H375.463V443.734Z" fill="black"/>
<path d="M435.196 460.801H366.929V477.868H435.196V460.801Z" fill="black"/>
</g>
<defs>
<clipPath id="clip0">
<rect width="512" height="512" fill="white"/>
</clipPath>
</defs>
</svg>
