<svg width="29" height="28" viewBox="0 0 29 28" fill="none" xmlns="http://www.w3.org/2000/svg">
<g clip-path="url(#clip0)">
<g clip-path="url(#clip1)">
<path d="M14.8896 28C22.6216 28 28.8896 21.732 28.8896 14C28.8896 6.26801 22.6216 0 14.8896 0C7.15766 0 0.889648 6.26801 0.889648 14C0.889648 21.732 7.15766 28 14.8896 28Z" fill="#4176FA"/>
<path d="M19.9089 11.5647C15.8652 11.5647 15.86 15.5931 15.86 15.6138C15.86 15.6138 15.583 19.6473 19.9089 19.6473C19.9089 19.6473 23.5166 19.8524 23.5166 16.8402H21.6641C21.6641 16.8402 21.7255 17.9742 19.9705 17.9742C19.9705 17.9742 18.118 18.0975 18.118 16.1422H23.5782C23.5782 16.1422 24.1787 11.5647 19.9089 11.5647ZM18.0973 14.7309C18.0973 14.7309 18.3232 13.1092 19.9501 13.1092C21.582 13.1092 21.5563 14.7309 21.5563 14.7309H18.0973ZM13.4689 13.6944C13.4689 13.6944 15.0751 13.5764 15.0751 11.6879C15.0751 9.80474 13.7614 8.88086 12.0936 8.88086H6.60742V19.4264H12.0931C12.0931 19.4264 15.4442 19.5292 15.4442 16.3116C15.4445 16.3116 15.5882 13.6944 13.4689 13.6944ZM9.02469 10.7538H12.0933C12.0933 10.7538 12.8375 10.7538 12.8375 11.8519C12.8375 12.95 12.4013 13.1092 11.9034 13.1092H9.02469V10.7538ZM11.9396 17.5534H9.02469V14.7309H12.0933C12.0933 14.7309 13.2071 14.7206 13.2019 16.1831C13.2019 17.4149 12.3758 17.5432 11.9396 17.5534ZM17.6406 9.50177V10.8003H21.9925V9.50177H17.6406Z" fill="#F1F2F2"/>
</g>
</g>
<defs>
<clipPath id="clip0">
<rect x="0.889648" width="28" height="28" fill="white"/>
</clipPath>
<clipPath id="clip1">
<path d="M0.889648 0H28.8896V28H0.889648V0Z" fill="white"/>
</clipPath>
</defs>
</svg>
