<svg width="29" height="28" viewBox="0 0 29 28" fill="none" xmlns="http://www.w3.org/2000/svg">
<g id="Pinterest active mobile">
<g clip-path="url(#clip0)">
<g id="Pinterest">
<g clip-path="url(#clip1)">
<g id="Group">
<path id="Vector" d="M14.8904 28.0005C22.6222 28.0005 28.8901 21.7326 28.8901 14.0007C28.8901 6.26888 22.6222 0.000976562 14.8904 0.000976562C7.15853 0.000976562 0.890625 6.26888 0.890625 14.0007C0.890625 21.7326 7.15853 28.0005 14.8904 28.0005Z" fill="#CB2027"/>
<g id="Group_2">
<path id="Vector_2" d="M16.0197 18.7477C14.9614 18.6659 14.5166 18.141 13.6866 17.6372C13.2304 20.0307 12.6729 22.3251 11.0216 23.5238C10.5112 19.9062 11.7698 17.189 12.3542 14.3048C11.358 12.6278 12.474 9.25226 14.5753 10.084C17.1615 11.1067 12.3363 16.3198 15.5755 16.9709C18.9573 17.6507 20.3379 11.103 18.2406 8.97325C15.2104 5.89844 9.42041 8.90337 10.1324 13.3051C10.3058 14.3812 11.4179 14.7079 10.5766 16.1927C8.63729 15.7632 8.05881 14.2337 8.13318 12.1946C8.25322 8.85671 11.1324 6.51959 14.0203 6.19616C17.6726 5.78738 21.1005 7.53729 21.5737 10.9727C22.106 14.8501 19.9248 19.0492 16.0197 18.7477Z" fill="#F1F2F2"/>
</g>
</g>
</g>
</g>
</g>
</g>
<defs>
<clipPath id="clip0">
<rect x="0.889648" width="28" height="28" fill="white"/>
</clipPath>
<clipPath id="clip1">
<path d="M0.889648 0H28.8896V28H0.889648V0Z" fill="white"/>
</clipPath>
</defs>
</svg>
