<svg width="1660" height="779" viewBox="0 0 1660 779" fill="none" xmlns="http://www.w3.org/2000/svg">
<path d="M932.413 30.379H1024.78V40.469H984.766V165.415H972.422V40.469H932.413" fill="#1E386A"/>
<path d="M1042.16 165.415V30.379H1053.39V83.5021C1063.85 72.6427 1072.46 66.2872 1086.66 66.2872C1106.86 66.2872 1115.46 77.8713 1115.46 99.0208V165.415H1104.24V100.146C1104.24 84.0546 1099.38 75.2614 1084.42 75.2614C1072.46 75.2614 1065.73 82.5593 1053.39 93.7818V165.415" fill="#1E386A"/>
<path d="M1197.73 108.174C1195.49 88.1584 1186.71 75.4487 1169.7 75.2579C1149.87 75.0671 1141.45 95.2646 1141.26 108.174H1197.73ZM1141.26 117.15C1141.26 139.223 1150.43 158.314 1172.5 158.314C1185.02 158.314 1191.19 154.008 1200.92 138.67L1210.08 143.528C1199.6 160.735 1190.07 167.289 1171.55 167.289C1146.12 167.289 1130.05 151.006 1130.05 116.777C1130.05 86.6716 1145.38 66.2837 1170.07 66.2837C1196.43 66.2837 1208.95 87.0429 1208.95 117.15" fill="#1E386A"/>
<path d="M1349.39 70.0284C1343.59 50.2023 1332.75 38.5993 1316.48 38.5993C1289.74 38.5993 1277.95 64.7878 1277.95 97.8846C1277.95 130.991 1289.74 157.18 1317.79 157.18C1339.48 157.18 1347.34 141.851 1351.81 124.265L1363.42 126.313C1358.36 150.454 1345.83 167.289 1317.6 167.289C1284.89 167.289 1265.62 139.603 1265.62 97.8846C1265.62 56.1766 1284.89 28.4999 1317.6 28.4999C1341.72 28.4999 1354.99 45.5257 1360.79 67.5892" fill="#1E386A"/>
<path d="M1393.51 165.415H1382.29V68.1553H1393.51V165.415ZM1382.29 46.8341V30.379H1393.51V46.8341" fill="#1E386A"/>
<path d="M1425.08 68.1518V36.3602H1436.3V68.1518H1457.62V77.1345H1436.3V148.387C1436.3 154.932 1439.3 158.314 1446.21 158.314C1449.95 158.314 1454.06 157.371 1457.62 156.246V165.593C1453.87 166.164 1449.95 167.289 1446.21 167.289C1430.31 167.289 1425.08 162.047 1425.08 150.263V77.1345H1410.5V68.1518" fill="#1E386A"/>
<path d="M1509.43 147.266H1509.81L1536.91 68.1459H1548.88L1512.61 172.322C1506.06 191.405 1499.15 199.825 1481.57 199.825C1476.71 199.825 1473.71 199.445 1471.1 198.702V189.537C1474.45 189.909 1478.02 190.843 1482.32 190.843C1490.17 190.843 1498.77 183.925 1504.2 163.91L1470.35 68.1459H1482.69" fill="#1E386A"/>
<path d="M948.839 225.9V317.922C948.839 343.731 961.371 352.714 985.306 352.714C1009.25 352.714 1021.76 343.731 1021.76 317.922V225.9H1034.11V316.798C1034.11 347.475 1018.03 362.813 985.306 362.813C952.59 362.813 936.505 347.475 936.505 316.798V225.9" fill="#1E386A"/>
<path d="M1054.09 360.944V263.684H1065.31V279.022C1075.78 268.18 1084.39 261.816 1098.6 261.816C1118.79 261.816 1127.39 273.411 1127.39 294.541V360.944H1116.17V295.666C1116.17 279.584 1111.31 270.791 1096.36 270.791C1084.39 270.791 1077.66 278.088 1065.31 289.302V360.944" fill="#1E386A"/>
<path d="M1159.72 360.944H1148.5V263.684H1159.72V360.944ZM1148.5 242.363V225.899H1159.72V242.363" fill="#1E386A"/>
<path d="M1175.61 263.684H1187.58L1214.13 343.729H1214.5L1241.43 263.684H1253.4L1219.92 360.944H1208.89" fill="#1E386A"/>
<path d="M1325.75 303.717C1323.5 283.7 1314.71 270.983 1297.7 270.792C1277.88 270.602 1269.46 290.809 1269.27 303.717H1325.75ZM1269.27 312.691C1269.27 334.756 1278.44 353.838 1300.51 353.838C1313.03 353.838 1319.2 349.532 1328.93 334.195L1338.09 339.062C1327.61 356.259 1318.08 362.813 1299.57 362.813C1274.14 362.813 1258.06 346.54 1258.06 312.32C1258.06 282.206 1273.39 261.818 1298.08 261.818C1324.44 261.818 1336.97 282.578 1336.97 312.691" fill="#1E386A"/>
<path d="M1354.74 360.944V263.684H1365.96V282.204H1366.33C1371.57 270.229 1382.04 261.816 1394.38 261.816H1399.43V272.658H1394.38C1382.04 272.658 1365.96 287.253 1365.96 305.954V360.944" fill="#1E386A"/>
<path d="M1414.41 337.365C1423.56 350.475 1431.79 353.838 1444.51 353.838C1456.85 353.838 1466.2 345.797 1466.2 335.318C1466.2 307.081 1408.98 322.981 1408.98 288.37C1408.98 270.04 1423.38 261.818 1439.84 261.818C1456.1 261.818 1466.38 268.181 1473.3 279.396L1464.7 285.379C1458.15 276.404 1451.05 270.792 1439.46 270.792C1428.61 270.792 1420.2 276.032 1420.2 287.808C1420.2 311.568 1477.42 297.534 1477.42 335.318C1477.42 352.714 1461.33 362.813 1443.76 362.813C1428.8 362.813 1415.33 356.831 1406.17 343.178" fill="#1E386A"/>
<path d="M1507.13 360.944H1495.92V263.684H1507.13V360.944ZM1495.92 242.363V225.899H1507.13V242.363" fill="#1E386A"/>
<path d="M1536.87 263.685V231.892H1548.09V263.685H1569.41V272.659H1548.09V343.921C1548.09 350.475 1551.09 353.838 1558 353.838C1561.74 353.838 1565.85 352.903 1569.41 351.78V361.136C1565.67 361.688 1561.74 362.813 1558 362.813C1542.11 362.813 1536.87 357.583 1536.87 345.797V272.659H1522.28V263.685" fill="#1E386A"/>
<path d="M1620.24 342.788H1620.61L1647.72 263.677H1659.69L1623.41 367.854C1616.88 386.928 1609.95 395.349 1592.37 395.349C1587.51 395.349 1584.52 394.977 1581.9 394.224V385.059C1585.27 385.432 1588.83 386.373 1593.12 386.373C1600.97 386.373 1609.58 379.448 1615 359.441L1581.16 263.677H1593.5" fill="#1E386A"/>
<path d="M947.388 505.685C947.388 532.058 956.18 547.206 976.189 547.206C996.189 547.206 1004.98 532.058 1004.98 505.685C1004.98 479.316 996.189 464.159 976.189 464.159C956.18 464.159 947.388 479.316 947.388 505.685ZM1016.2 505.685C1016.2 532.058 1006.47 556.181 976.189 556.181C945.895 556.181 936.169 532.058 936.169 505.685C936.169 479.316 945.895 455.185 976.189 455.185C1006.47 455.185 1016.2 479.316 1016.2 505.685Z" fill="#1E386A"/>
<path d="M1049.26 466.017V554.303H1038.05V466.017H1021.97V457.043H1038.05V443.2C1038.05 426.365 1044.77 417.393 1061.42 417.393C1065.53 417.393 1069.46 418.135 1073.57 418.887V428.243C1070.02 427.118 1066.66 426.365 1062.53 426.365C1053.75 426.365 1049.26 430.663 1049.26 441.893V457.043H1069.09V466.017" fill="#1E386A"/>
<path d="M936.505 613.603H957.258L1021.38 726.201H1021.76V613.603H1034.11V748.646H1021.38L949.22 623.693H948.839V748.646H936.505" fill="#1E386A"/>
<path d="M1119.71 691.396C1117.47 671.388 1108.68 658.669 1091.67 658.48C1071.84 658.289 1063.43 678.496 1063.24 691.396H1119.71ZM1063.24 700.38C1063.24 722.443 1072.41 741.526 1094.47 741.526C1107 741.526 1113.17 737.229 1122.89 721.89L1132.05 726.748C1121.59 743.954 1112.04 750.5 1093.53 750.5C1068.11 750.5 1052.02 734.228 1052.02 699.997C1052.02 669.892 1067.37 649.505 1092.04 649.505C1118.41 649.505 1130.93 670.265 1130.93 700.38" fill="#1E386A"/>
<path d="M1140.08 651.378H1151.49L1172.81 729.556H1173.18L1195.44 651.378H1206.47L1228.16 729.556H1228.53L1250.4 651.378H1262L1233.76 748.646H1222.73L1200.86 670.46H1200.48L1178.79 748.646H1167.2" fill="#1E386A"/>
<path d="M1341.82 691.401L1300.5 613.603H1314.33L1347.61 680.367L1383.14 613.603H1396.98L1354.17 691.401V748.646H1341.82" fill="#1E386A"/>
<path d="M1395.32 699.997C1395.32 726.377 1404.12 741.526 1424.13 741.526C1444.12 741.526 1452.91 726.377 1452.91 699.997C1452.91 673.627 1444.12 658.48 1424.13 658.48C1404.12 658.48 1395.32 673.627 1395.32 699.997ZM1464.13 699.997C1464.13 726.377 1454.41 750.5 1424.13 750.5C1393.84 750.5 1384.11 726.377 1384.11 699.997C1384.11 673.627 1393.84 649.505 1424.13 649.505C1454.41 649.505 1464.13 673.627 1464.13 699.997Z" fill="#1E386A"/>
<path d="M1479.82 748.646V651.378H1491.04V669.898H1491.42C1496.66 657.923 1507.13 649.51 1519.47 649.51H1524.52V660.352H1519.47C1507.13 660.352 1491.04 674.947 1491.04 693.65V748.646" fill="#1E386A"/>
<path d="M1540.06 748.646V613.603H1551.28V703.003L1596.34 651.378H1609.24L1577.64 687.665L1614.11 748.646H1601.57L1570.53 695.525L1551.28 717.217V748.646" fill="#1E386A"/>
<path d="M26.9513 394.265V394.826V778.496H132.502V573.199L314.41 778.496H410.978V394.826H305.427V600.684L120.712 394.265H26.9513Z" fill="#1E386A"/>
<path d="M795 233.844V191.775V154.193V19.5723H691.694H689.448V153.632V233.283C689.448 242.819 687.764 251.233 684.957 259.086C681.027 269.182 674.851 277.596 666.429 284.888C650.147 298.911 626.567 307.325 603.548 307.325C579.967 307.325 556.386 298.911 540.105 284.888C531.683 277.596 525.507 268.621 521.577 259.086C518.77 251.233 517.086 242.819 517.086 233.283V154.193V19.5723H514.84H410.973V153.632V191.214V233.283V259.086C410.973 343.785 502.488 411.095 597.933 412.778C599.056 412.778 600.179 412.778 600.74 412.778C601.302 412.778 601.302 412.778 601.863 412.778H602.425H602.986C603.548 412.778 603.548 412.778 604.109 412.778C605.232 412.778 606.355 412.778 606.916 412.778C702.362 411.656 793.877 346.028 793.877 259.086V233.844H795Z" fill="#1E386A"/>
<path d="M295.88 259.646C279.037 288.253 248.157 307.324 213.348 307.324C212.787 307.324 212.225 307.324 212.225 307.324C158.327 307.324 113.973 262.45 113.973 206.919C113.973 151.388 157.765 106.514 212.225 106.514C212.787 106.514 213.348 106.514 213.348 106.514C248.157 107.075 278.475 126.146 295.88 154.192H410.976C410.976 67.8105 320.022 2.18276 224.577 0.5C224.015 0.5 224.015 0.5 224.015 0.5C222.893 0.5 221.77 0.5 221.208 0.5C220.647 0.5 220.647 0.5 220.085 0.5H219.524H218.962C218.401 0.5 218.401 0.5 217.84 0.5C216.717 0.5 216.155 0.5 215.032 0.5H207.172C130.816 0.5 64.5659 40.8863 28.6336 101.466C10.6674 132.316 0 168.215 0 206.919C0 245.062 10.6674 280.961 28.6336 311.811C64.5659 372.391 130.816 412.777 206.049 412.777H213.91C215.032 412.777 216.155 412.777 216.717 412.777C217.278 412.777 217.278 412.777 217.84 412.777H218.962H219.524C220.085 412.777 220.085 412.777 220.647 412.777C221.77 412.777 222.893 412.777 223.454 412.777H224.015C320.022 411.094 410.976 346.027 410.976 259.646H295.88Z" fill="#1E386A"/>
<path d="M689.448 394.83L602.986 570.959L516.524 394.83H410.973L550.211 678.656V778.5H655.762V678.656L795 394.83H689.448Z" fill="#1E386A"/>
</svg>
