<svg width="2531" height="778" viewBox="0 0 2531 778" fill="none" xmlns="http://www.w3.org/2000/svg">
<path d="M922.134 27.2177C906.605 43.9268 898.805 66.1752 898.805 93.9162V268.924C898.805 298.373 906.005 320.436 920.357 335.115C934.732 349.839 957.644 357.202 989.071 357.202C1017.15 357.202 1038.86 349.793 1054.26 334.907C1069.62 319.998 1077.31 298.188 1077.31 269.431V159.599H992.094V219.282H1012.17V272.939C1012.17 278.637 1010.07 283.256 1005.8 286.741C1001.55 290.247 995.437 292.001 988.908 292.001C980.439 292.001 972.71 289.829 970.402 285.472C968.139 281.154 967.007 276.61 967.007 271.948V93.9162C967.007 91.5873 967.335 88.8135 967.976 85.6308C968.63 82.4448 969.775 79.5399 971.416 76.8603C973.058 74.1846 975.269 71.9217 978.039 70.0762C980.805 68.251 984.501 67.354 989.068 67.354C995.944 67.354 1001.39 70.7695 1005.5 77.6249C1009.58 84.4562 1011.8 93.0639 1012.14 103.449L1078.32 91.9108C1079.33 79.1943 1078.25 67.3542 1075.04 56.2765C1071.86 45.2904 1066.53 35.7359 1059 27.7278C1051.51 19.6731 1041.95 13.4188 1030.42 8.89491C1018.88 4.39395 1005.27 2.13281 989.575 2.13281C960.132 2.13281 937.658 10.4876 922.13 27.2196L922.134 27.2177ZM1266.35 354.204V288.983H1174.56V209.775H1254.81V144.553H1174.56V70.3547H1266.35V5.15649H1106.38V354.204H1266.35ZM1414.25 186.281L1349.58 5.15649H1289.88V354.204H1358.09V170.056H1360.58L1425.49 354.204H1483.43V5.15649H1416.74V186.281H1414.25ZM1680 354.204V288.983H1588.21V209.775H1668.46V144.553H1588.21V70.3547H1680V5.15649H1520.05V354.204H1680ZM1705.03 5.15649V354.204H1773.24V218.267H1786.76L1827.88 354.204H1897.56L1847.45 202.736C1860.48 193.712 1870.17 181.688 1876.52 166.617C1882.89 151.57 1886.07 132.183 1886.07 108.459C1886.07 89.3721 1883.61 73.2621 1878.78 60.0608C1873.93 46.8596 1867.15 36.1282 1858.5 27.9813C1849.78 19.7887 1839.42 13.9261 1827.37 10.4182C1815.35 6.91167 1802.13 5.15849 1787.78 5.15849L1705.03 5.15649ZM1785.79 70.3547C1796.13 70.3547 1804.57 73.4226 1811.08 79.6094C1817.61 85.8179 1820.86 95.6029 1820.86 108.966C1820.86 117.966 1819.87 125.26 1817.86 130.775C1815.83 136.29 1813.11 140.723 1809.58 144.069C1806.07 147.418 1802.13 149.655 1797.81 150.854C1793.43 152.005 1788.77 152.588 1783.76 152.588H1773.24V70.3567L1785.79 70.3547ZM2039.49 354.204H2111.18L2044.5 5.15649H1961.27L1895.07 354.204H1967.27L1977.81 285.981H2028.95L2039.49 354.204ZM2001.88 95.3956H2004.88L2012.4 166.132L2018.93 221.776H1987.34L1994.36 166.132L2001.88 95.3956ZM2288.67 354.204V288.983H2196.9V5.15649H2128.74V354.204H2288.67ZM1043.23 769.534H1114.92L1048.23 420.487H965.006L898.807 769.534H971.029L981.551 701.311H1032.68L1043.23 769.534ZM1005.62 510.726H1008.62L1016.14 581.462L1022.67 637.106H991.104L998.095 581.462L1005.62 510.726ZM1303.69 630.875C1302.21 620.328 1299.07 610.865 1294.25 602.534C1289.38 594.179 1282.34 586.471 1273 579.455C1263.68 572.415 1251.03 565.746 1235.09 559.399C1225.77 555.709 1218.5 552.291 1213.35 549.105C1208.21 545.945 1204.31 542.668 1201.63 539.32C1198.98 535.971 1197.31 532.488 1196.63 528.796C1195.97 525.126 1195.63 520.95 1195.63 516.287C1195.63 512.597 1195.9 508.74 1196.39 504.701C1196.92 500.73 1197.87 497.109 1199.37 493.923C1200.87 490.783 1202.92 488.108 1205.55 485.915C1208.2 483.743 1211.83 482.684 1216.46 482.684C1221.4 482.684 1225.28 483.652 1228.09 485.687C1230.89 487.695 1233.17 490.442 1234.81 493.925C1236.45 497.458 1237.51 501.381 1238.01 505.72C1238.54 510.083 1238.77 514.766 1238.77 519.774L1305.96 505.211C1305.96 495.542 1304.6 485.525 1301.93 475.139C1299.25 464.777 1294.64 455.315 1288.15 446.798C1281.62 438.305 1272.67 431.266 1261.34 425.75C1249.96 420.235 1235.59 417.465 1218.21 417.465C1201.83 417.465 1187.87 419.983 1176.33 424.989C1164.8 429.974 1155.43 436.806 1148.25 445.507C1141.08 454.184 1135.79 464.616 1132.47 476.779C1129.13 488.987 1127.47 502.258 1127.47 516.589C1127.47 527.945 1128.28 538.353 1129.96 547.907C1131.62 557.393 1135.22 566.417 1140.74 574.91C1146.28 583.426 1154.19 591.435 1164.55 598.958C1174.93 606.46 1188.64 613.729 1205.69 620.722C1212.01 623.398 1217.36 625.981 1221.72 628.476C1226.04 630.995 1229.48 633.92 1231.99 637.27C1234.51 640.567 1236.26 644.586 1237.25 649.271C1238.26 653.935 1238.77 659.772 1238.77 666.765C1238.77 671.77 1238.51 676.781 1238.02 681.813C1237.49 686.817 1236.54 691.182 1235.06 694.829C1233.54 698.518 1231.39 701.499 1228.58 703.853C1225.79 706.182 1221.89 707.34 1216.97 707.34C1208.37 707.34 1202.46 704.153 1199.34 697.83C1196.2 691.458 1194.29 681.929 1193.65 669.236L1124.93 682.253C1124.93 694.646 1126.62 706.3 1129.96 717.217C1133.28 728.18 1138.54 737.757 1145.77 745.997C1152.92 754.282 1162.29 760.744 1173.85 765.475C1185.36 770.159 1199.16 772.538 1215.2 772.538C1232.92 772.538 1247.59 770.046 1259.31 765.037C1271.01 759.987 1280.31 752.921 1287.14 743.713C1294 734.527 1298.84 723.379 1301.7 710.339C1304.51 697.323 1305.97 682.76 1305.97 666.697C1305.97 653.334 1305.21 641.403 1303.69 630.879L1303.69 630.875ZM1505.24 630.879C1503.76 620.332 1500.6 610.87 1495.78 602.538C1490.96 594.183 1483.88 586.474 1474.58 579.459C1465.26 572.419 1452.61 565.75 1436.64 559.403C1427.3 555.713 1420.1 552.295 1414.91 549.109C1409.76 545.949 1405.86 542.672 1403.19 539.324C1400.51 535.975 1398.87 532.492 1398.18 528.8C1397.53 525.13 1397.21 520.954 1397.21 516.291C1397.21 512.601 1397.48 508.744 1397.97 504.705C1398.43 500.734 1399.41 497.113 1400.92 493.927C1402.4 490.787 1404.47 488.112 1407.13 485.919C1409.76 483.747 1413.4 482.688 1418.04 482.688C1422.96 482.688 1426.86 483.656 1429.67 485.691C1432.47 487.699 1434.7 490.446 1436.34 493.929C1437.98 497.462 1439.09 501.384 1439.6 505.723C1440.06 510.086 1440.31 514.77 1440.31 519.778L1507.5 505.215C1507.5 495.546 1506.19 485.529 1503.51 475.143C1500.84 464.781 1496.22 455.319 1489.71 446.802C1483.21 438.309 1474.23 431.27 1462.88 425.754C1451.53 420.239 1437.13 417.469 1419.78 417.469C1403.37 417.469 1389.44 419.987 1377.9 424.993C1366.38 429.978 1356.99 436.81 1349.82 445.511C1342.62 454.188 1337.36 464.62 1334.01 476.783C1330.69 488.991 1329 502.262 1329 516.593C1329 527.949 1329.86 538.357 1331.52 547.911C1333.21 557.397 1336.8 566.421 1342.32 574.914C1347.83 583.43 1355.77 591.439 1366.13 598.962C1376.47 606.464 1390.17 613.733 1407.23 620.726C1413.57 623.402 1418.92 625.985 1423.26 628.481C1427.62 630.999 1431.06 633.924 1433.55 637.274C1436.07 640.571 1437.82 644.59 1438.84 649.275C1439.81 653.939 1440.32 659.776 1440.32 666.769C1440.32 671.774 1440.05 676.785 1439.6 681.817C1439.08 686.821 1438.12 691.186 1436.6 694.833C1435.12 698.522 1432.98 701.503 1430.18 703.857C1427.35 706.186 1423.47 707.344 1418.51 707.344C1409.9 707.344 1404.04 704.157 1400.9 697.834C1397.76 691.462 1395.85 681.933 1395.21 669.24L1326.52 682.257C1326.52 694.65 1328.2 706.304 1331.53 717.221C1334.87 728.184 1340.13 737.762 1347.33 746.001C1354.51 754.286 1363.87 760.748 1375.41 765.479C1386.93 770.163 1400.7 772.542 1416.76 772.542C1434.46 772.542 1449.18 770.05 1460.88 765.041C1472.6 759.991 1481.88 752.925 1488.73 743.717C1495.58 734.531 1500.4 723.383 1503.26 710.343C1506.1 697.327 1507.51 682.764 1507.51 666.701C1507.51 653.338 1506.77 641.407 1505.25 630.883L1505.24 630.879ZM1695.54 769.542V704.32H1603.75V625.112H1684V559.891H1603.75V485.693H1695.54V420.494H1535.59V769.542H1695.54ZM1860.1 701.319L1892.06 574.247H1896.1V769.542H1964.28V420.494H1900.6L1866.52 512.257L1842.43 582.994H1839.42L1815.86 513.756L1781.25 420.494H1717.59V769.542H1785.8V572.77H1790.32L1822.76 701.319H1860.1ZM2076.58 554.883H2064.93V480.397H2075.08C2086.11 480.397 2094.14 482.661 2099.15 487.182C2104.18 491.683 2106.69 501.676 2106.69 519.77C2106.69 543.195 2096.63 554.873 2076.58 554.873V554.883ZM2108.68 678.461C2108.01 684.159 2106.61 689.216 2104.41 693.555C2102.24 697.938 2099.22 701.379 2095.36 703.941C2091.56 706.414 2086.46 707.682 2080.09 707.682H2064.93V618.067H2080.6C2090.29 618.067 2097.56 620.926 2102.4 626.63C2107.25 632.374 2109.67 642.277 2109.67 656.401C2109.67 663.14 2109.34 672.718 2108.67 678.464L2108.68 678.461ZM2133.76 584.464C2140.45 582.135 2146.22 578.628 2151.06 573.939C2155.88 569.229 2159.81 563.901 2162.85 557.9C2165.83 551.874 2168.09 545.437 2169.59 538.606C2171.12 531.728 2171.85 524.782 2171.85 517.765C2171.85 485.686 2164.08 461.429 2148.55 445.043C2133 428.68 2109.67 420.487 2078.57 420.487H1999.88V769.534H2077.09C2109.48 769.534 2133.92 760.741 2150.3 743.201C2166.66 725.661 2174.85 698.128 2174.85 660.694C2174.85 652.685 2174.2 644.815 2172.85 637.107C2171.5 629.445 2169.25 622.314 2166.08 615.829C2162.9 609.3 2158.72 603.526 2153.56 598.518C2148.39 593.487 2141.77 589.656 2133.76 586.979L2133.76 584.464ZM2359.03 769.534V704.313H2272.8V420.487H2204.64V769.534H2359.03ZM2428.97 547.86L2399.59 420.487H2326.96L2395.14 627.598V769.534H2463.32V627.598L2531 420.487H2458.85L2431.46 547.86H2428.97Z" fill="black"/>
<path d="M689.228 231.84C679.814 231.84 672.176 239.572 672.176 249.126C672.176 258.658 679.814 266.389 689.228 266.389C698.619 266.389 706.279 258.658 706.279 249.126C706.279 239.572 698.619 231.84 689.228 231.84Z" fill="#FF2734"/>
<path d="M511.513 616.4L497.47 505.887H460.115L446.072 616.4H380.584L440.696 161.6H516.054L576.444 616.4H511.513ZM365.846 311.701H304.019V243.001C304.019 240.82 303.757 238.362 303.1 235.392C302.443 232.475 301.485 229.835 300 227.378C298.515 224.921 296.479 222.831 293.93 221.162C291.434 219.493 288.097 218.612 283.959 218.612C283.696 218.612 283.433 218.66 283.039 218.706V218.612C278.874 218.612 275.577 219.533 273.029 221.162C270.533 222.831 268.482 224.921 266.998 227.378C265.566 229.835 264.502 232.475 263.937 235.392C263.28 238.362 263.018 240.82 263.018 243.001V540.98C263.018 545.25 264.068 549.468 266.118 553.449C268.154 557.431 273.12 559.428 280.764 559.428C286.689 559.428 291.602 557.76 295.362 554.554C299.251 551.361 301.156 547.089 301.156 541.938V455.855H287.529V401.109H362.982V538.646C362.982 565.07 356.031 585.05 342.079 598.679C328.176 612.354 308.479 619.215 283.034 619.215C254.485 619.215 233.768 612.446 220.745 598.956C207.765 585.419 201.187 565.209 201.187 538.231V242.987C201.187 217.537 208.281 197.141 222.413 181.797C236.456 166.453 256.848 158.803 283.498 158.803C310.147 158.803 330.493 166.452 344.582 181.797C358.671 197.141 365.762 217.537 365.762 242.987L365.846 311.701ZM730.638 389.024C730.638 362.971 751.818 341.879 777.819 341.879L766.192 283.7C742.184 293.674 714.609 282.268 704.644 258.206C694.725 234.146 706.128 206.564 730.182 196.644L697.184 147.276C678.83 165.679 648.937 165.679 630.584 147.276C612.183 128.873 612.183 99.0179 630.584 80.6135L581.225 47.6563C571.306 71.715 543.684 83.1164 519.676 73.1968C495.623 63.2232 484.221 35.602 494.186 11.5893L436.022 0C436.022 26.0061 414.934 47.145 388.887 47.145C362.887 47.145 341.753 26.0061 341.753 0L283.588 11.5893C293.507 35.648 282.103 63.2297 258.051 73.1507C234.09 83.1111 206.468 71.7203 196.549 47.6563L147.144 80.6616C165.59 99.0187 165.59 128.873 147.144 147.276C128.791 165.679 98.8982 165.679 80.5451 147.276L47.5919 196.644C71.6468 206.565 83.0936 234.147 73.0828 258.16C63.164 282.266 35.5422 293.667 11.5346 283.7L0 341.879C26.0005 341.879 47.0878 362.971 47.0878 389.024C47.0878 415.029 26.0005 436.121 0 436.121L11.5346 494.346C35.5422 484.425 63.1653 495.831 73.0828 519.888C83.0936 543.854 71.6507 571.481 47.5919 581.448L80.5451 630.77C98.9915 612.367 128.791 612.367 147.144 630.77C165.59 649.173 165.59 679.028 147.144 697.433L196.549 730.346C206.468 706.333 234.09 694.882 258.051 704.895C282.105 714.816 293.506 742.444 283.588 766.411L341.753 778C341.753 751.994 362.887 730.901 388.887 730.901C414.934 730.901 436.022 751.994 436.022 778L494.186 766.411C484.214 742.398 495.618 714.816 519.676 704.895C543.684 694.882 571.306 706.328 581.225 730.346L630.584 697.433C612.183 679.028 612.183 649.173 630.584 630.77C648.937 612.367 678.83 612.367 697.184 630.816L730.182 581.402C706.127 571.481 694.633 543.854 704.644 519.888C714.615 495.83 742.184 484.379 766.239 494.346L777.827 436.121C751.826 436.121 730.646 415.029 730.646 389.024" fill="#FF2734"/>
<path d="M477.684 398.596C460.213 398.596 446.04 412.995 446.04 430.79C446.04 448.542 460.213 462.939 477.684 462.939C495.112 462.939 509.328 448.542 509.328 430.79C509.328 412.995 495.112 398.596 477.684 398.596Z" fill="#FF2734"/>
</svg>
