<svg width="734" height="845" viewBox="0 0 734 845" fill="none" xmlns="http://www.w3.org/2000/svg">
<path d="M0 0H734V735.153H0V0Z" fill="#D92231"/>
<path d="M734 40.3889L383.228 286.398L724.002 0H721.448L382.204 285.101L666.864 0H664.535L380.981 283.993L618.915 0H616.753L379.709 282.946L577.523 0H575.511L378.399 281.954L540.923 0H539.016L377.004 281.05L507.857 0H506.044L375.406 280.597L477.373 0H475.62L373.979 279.67L448.812 0H447.096L372.3 279.616L421.52 0H419.85L370.698 279.2L395.087 0H393.431L369.078 278.822V0H367.432V279.21L343.029 0H341.382L365.759 279.023L316.632 0H314.951L364.135 279.316L289.41 0H287.708L362.559 279.835L260.871 0H259.12L361.065 280.527L230.459 0H228.652L359.548 281.178L197.461 0H195.562L358.122 282.003L160.984 0H158.972L356.703 282.839L119.747 0H117.589L355.476 283.959L71.9746 0H69.6457L354.306 285.101L15.0574 0H12.5017L353.322 286.433L0 38.6476V40.6584L352.384 287.792L0 84.0173V85.9276L351.36 289.107L0 125.005V126.821L350.879 290.697L0 162.8V164.55L350.242 292.23L0 198.233V199.942L349.666 293.774L0 232.022V233.697L349.642 295.449L0 264.812V266.467L349.266 297.072H0V298.721H349.489L0 329.349V331.004L349.489 300.379L0 362.095V363.768L349.935 301.972L0 395.878V397.594L350.102 303.631L0 431.26V433.014L350.879 305.107L0 468.983V470.807L351.407 306.681L0 509.883V511.793L352.418 308.002L0 555.15V557.169L353.278 309.418L0 606.301V608.452L354.372 310.643L0 665.571V667.896L355.456 311.895L0.843217 735.155H2.99944L356.721 312.957L61.5548 735.153H63.5625L358.1 313.862L115.234 735.153H117.135L359.572 314.58L163.785 735.153H165.596L360.947 315.547L208.455 735.153H210.208L362.629 315.754L250.427 735.149H252.134L364.111 316.568L290.426 735.149H292.096L365.761 316.717L329.212 735.149H330.87L367.43 316.607V735.149H369.076V317.003L405.607 735.149H407.264L370.688 316.532L444.389 735.149H446.076L372.31 316.259L484.378 735.149H486.08L373.922 315.907L526.278 735.149H528.03L375.523 315.475L570.898 735.149H572.721L376.978 314.71L619.343 735.153H621.25L378.42 313.91L672.911 735.149H674.923L379.696 312.86L733.482 735.153H734V733.202L381.003 311.849L734 665.402V663.07L382.134 310.645L734 606.363V604.211L383.274 309.452L734 555.429V553.415L384.24 308.115L734 510.371V508.467L384.848 306.567L734 469.633V467.813L385.768 305.175L734 432.117V430.362L386.274 303.601L734 396.918V395.213L386.52 301.962L734 363.332V361.657L387.067 300.383L734 330.781V329.12L387.008 298.725H734V297.072H387.231L734 266.689V265.04L386.916 295.447L734 234.144V232.479L386.792 293.792L734 200.612V198.902L386.121 292.254L734 165.453V163.699L385.768 290.635L734 127.987V126.174L384.898 289.226L734 87.3411V85.443L384.262 287.681L734 42.4038" fill="#DF584D"/>
<path d="M78.3437 655.838V571.103H61.0518V672.876H127.798V655.84L78.3437 655.838ZM167.112 594.384C156.807 594.384 148.501 596.568 140.967 601.237L140.023 601.82L146.765 615.003L147.859 614.389C153.44 611.253 159.25 609.857 166.685 609.857C175.077 609.857 179.514 613.81 179.514 621.292V625.033C175.386 623.531 170.226 622.772 164.135 622.772C144.833 622.772 133.311 632.243 133.311 648.109C133.311 666.3 146.871 674.45 160.308 674.45C167.054 674.45 173.92 671.78 179.508 667.042V672.874H196.231V620.573C196.231 603.927 185.619 594.384 167.11 594.384H167.112ZM163.709 637.825C170.321 637.825 175.374 638.722 179.51 640.64V650.119C176.187 654.503 169.793 658.822 162.718 658.822C154.265 658.822 149.608 654.867 149.608 647.682C149.608 641.602 155.008 637.829 163.707 637.829L163.709 637.825ZM254.179 620.084V636.822H270.326C270.017 649.556 262.095 657.131 249.005 657.131C232.753 657.131 223.427 644.326 223.427 621.998C223.427 599.67 232.755 586.87 249.005 586.87C258.308 586.87 263.456 589.805 268.68 598.084L269.318 599.097L284.352 589.759L283.783 588.75C276.5 575.832 265.124 569.547 249.011 569.547C223.2 569.547 205.856 590.626 205.856 621.994C205.856 653.363 223.202 674.444 249.009 674.444C272.639 674.444 287.909 658.092 287.909 632.776V620.084H254.18H254.179ZM344.152 595.954V640.731C344.152 652.219 339.145 658.541 330.058 658.541C323.493 658.541 315.956 656.353 315.956 639.317V595.954H298.951V639.882C298.951 662.492 308.528 674.448 326.653 674.448C333.459 674.448 339.97 671.935 344.154 667.857V672.876H361.167V595.956H344.154L344.152 595.954ZM406.991 594.384C396.692 594.384 388.38 596.568 380.852 601.237L379.908 601.82L386.646 615.003L387.736 614.389C393.321 611.253 399.129 609.857 406.568 609.857C414.956 609.857 419.391 613.81 419.391 621.292V625.033C415.269 623.531 410.109 622.772 404.016 622.772C384.714 622.772 373.188 632.243 373.188 648.109C373.188 666.3 386.752 674.45 400.191 674.45C406.937 674.45 413.799 671.78 419.385 667.042V672.874H436.109V620.573C436.113 603.927 425.494 594.384 406.989 594.384H406.991ZM403.592 637.827C410.204 637.827 415.251 638.724 419.393 640.642V650.121C416.06 654.505 409.67 658.824 402.597 658.824C394.148 658.824 389.495 654.869 389.495 647.684C389.495 641.604 394.895 637.831 403.594 637.831L403.592 637.827ZM497.216 597.714C493.772 595.412 489.679 594.384 483.925 594.384C477.916 594.384 472.14 596.827 468.137 600.903V595.956H451.126V672.876H468.137V629.092C468.137 620.904 470.458 611.14 481.524 611.14C485.696 611.14 488.872 611.904 492.138 613.694L493.477 614.424L497.94 598.202L497.218 597.72L497.216 597.714ZM548.748 574.998V601.259C544.701 597.75 538.389 594.382 531.251 594.382C517.166 594.382 500.715 604.557 500.715 633.215C500.715 659.415 511.59 674.448 530.545 674.448C536.985 674.448 542.82 672.144 548.748 667.237V672.878H565.617V566.221L548.748 574.998ZM533.241 658.541C522.795 658.541 517.718 650.115 517.718 632.778C517.718 617.854 522.749 610.289 532.675 610.289C539.099 610.289 545.512 614.894 548.897 619.284V649.814C544.44 655.287 538.608 658.541 533.241 658.541V658.541ZM590.477 588.701C596.199 588.701 601.034 583.865 601.034 578.131C601.034 572.223 596.3 567.417 590.479 567.417C584.577 567.417 579.775 572.223 579.775 578.131C579.775 583.962 584.581 588.703 590.481 588.703L590.477 588.701ZM581.899 595.954H598.91V672.876H581.899V595.954ZM643.759 594.384C633.453 594.384 625.142 596.568 617.609 601.237L616.665 601.82L623.415 615.003L624.499 614.389C630.086 611.253 635.891 609.857 643.325 609.857C651.717 609.857 656.148 613.81 656.148 621.292V625.033C652.032 623.531 646.873 622.772 640.781 622.772C621.478 622.772 609.956 632.243 609.956 648.109C609.956 666.3 623.511 674.45 636.949 674.45C643.698 674.45 650.565 671.78 656.148 667.042V672.874H672.876V620.573C672.876 603.927 662.263 594.384 643.759 594.384V594.384ZM640.356 637.827C646.971 637.827 652.02 638.724 656.15 640.642V650.121C652.829 654.505 646.441 658.824 639.36 658.824C630.908 658.824 626.258 654.869 626.258 647.684C626.258 641.604 631.658 637.831 640.358 637.831L640.356 637.827Z" fill="white"/>
<path d="M479.75 430.214L526.677 434.125L483.645 383.201L436.705 379.28L432.791 426.289L475.847 477.234L479.75 430.214ZM199.107 328.793L172.257 367.567L237.813 355.691L264.665 316.913L225.958 290.029L160.401 301.904L199.107 328.793ZM258.371 430.576L262.678 477.556L305.28 426.256L300.976 379.284L254.057 383.591L211.458 434.897L258.371 430.576ZM538.64 328.057L577.083 300.827L511.445 289.53L472.966 316.756L500.149 355.283L565.816 366.584L538.64 328.057ZM427.261 136.038L407.173 93.3764L384.647 156.186L404.754 198.863L447.376 178.735L469.866 115.917L427.261 136.038ZM309.105 135.963L266.322 116.201L289.39 178.811L332.173 198.557L351.888 155.711L328.834 93.123L309.105 135.963ZM368.465 471.757L401.933 504.975L401.632 438.237L368.184 405.034L335.008 438.55L335.303 505.275L368.465 471.757ZM518.056 212.271L530.029 166.652L472.494 200.252L460.508 245.894L506.054 257.908L563.614 224.308L518.056 212.271ZM219.015 212.939L173.568 225.335L231.414 258.453L276.86 246.046L264.468 200.522L206.612 167.416" fill="white"/>
<path d="M73.9432 814.938L73.6438 815.41C70.7995 819.917 67.4056 821.842 62.2882 821.842C53.474 821.842 48.4169 814.876 48.4169 802.716C48.4169 790.556 53.474 783.593 62.2882 783.593C67.2723 783.593 70.0655 785.221 72.9537 789.803L73.2422 790.26L81.286 785.239L81.025 784.782C77.1035 777.815 70.9729 774.432 62.2864 774.432C48.3785 774.432 39.0275 785.8 39.0275 802.72C39.0275 819.639 48.3785 831.003 62.2864 831.003C70.5603 831.003 77.297 827.255 81.2514 820.434L81.5124 819.99L73.9414 814.938H73.9432ZM104.93 787.876C93.8667 787.876 86.4307 796.556 86.4307 809.476C86.4307 822.151 93.947 830.998 104.702 830.998C115.908 830.998 123.433 822.265 123.433 809.249C123.433 796.665 115.824 787.874 104.932 787.874L104.93 787.876ZM105.009 822.376C99.057 822.376 95.5079 817.468 95.5079 809.251C95.5079 801.505 99.0862 796.501 104.622 796.501C110.628 796.501 114.356 801.474 114.356 809.476C114.356 816.951 110.422 822.376 105.009 822.376ZM172.735 787.876C166.592 787.876 163.3 790.059 160.454 793.389C158.099 789.682 154.451 787.877 149.336 787.877C145.69 787.877 142.477 789.205 140.291 791.553V788.726H131.291V830.157H140.291V806.02C140.291 799.554 142.712 796.269 147.49 796.269C152.605 796.269 154.687 799.317 154.687 806.788V830.157H163.687V806.015C163.687 799.553 166.112 796.269 170.886 796.269C176.003 796.269 178.088 799.317 178.088 806.788V830.157H187.085V806.488C187.088 794.137 182.26 787.874 172.731 787.874L172.735 787.876ZM238.002 787.876C231.859 787.876 228.567 790.059 225.721 793.389C223.366 789.682 219.718 787.877 214.597 787.877C210.957 787.877 207.744 789.205 205.56 791.553V788.726H196.56V830.157H205.56V806.02C205.56 799.554 207.979 796.269 212.757 796.269C217.869 796.269 219.954 799.317 219.954 806.788V830.157H228.954V806.015C228.954 799.553 231.379 796.269 236.153 796.269C241.27 796.269 243.355 799.317 243.355 806.788V830.157H252.352V806.488C252.356 794.137 247.523 787.874 237.999 787.874L238.002 787.876ZM285.988 788.724V812.861C285.988 819.145 283.244 822.612 278.256 822.612C272.9 822.612 270.516 819.366 270.516 812.091V788.722H261.515V812.402C261.515 824.572 266.667 831.001 276.412 831.001C280.168 831.001 283.757 829.581 285.99 827.295V830.155H294.99V788.724H285.99H285.988ZM323.348 787.876C319.593 787.876 316.009 789.295 313.771 791.588V788.724H304.77V830.155H313.771V806.018C313.771 799.728 316.517 796.267 321.504 796.267C326.861 796.267 329.245 799.511 329.245 806.786V830.155H338.242V806.486C338.242 794.308 333.094 787.872 323.348 787.872V787.876ZM348.106 788.724H357.103V830.155H348.106V788.724ZM352.643 784.588C355.686 784.588 358.253 782.017 358.253 778.974C358.253 775.829 355.734 773.275 352.641 773.275C349.501 773.275 346.952 775.831 346.952 778.974C346.952 782.07 349.501 784.588 352.639 784.588H352.643ZM387.728 821.136C386.401 821.908 384.168 822.687 382.173 822.687C379.734 822.687 378.576 822.043 378.576 818.39V797.037H388.548V788.722H378.58V772.681L369.725 777.417V788.724H363.975V797.038H369.725V819.776C369.725 827.017 373.139 831.003 379.328 831.003C382.293 831.003 385.143 830.33 387.628 828.681L388.69 820.581L387.728 821.138V821.136ZM421.974 788.724L415.018 808.995C414.051 811.709 412.795 815.863 411.969 818.673C411.203 815.863 409.87 811.588 408.915 808.845L402.197 788.724H392.338L407.425 828.652L401.302 844.373H410.85L431.511 788.724H421.974ZM486.621 814.938L486.321 815.41C483.482 819.917 480.088 821.842 474.966 821.842C466.148 821.842 461.091 814.876 461.091 802.716C461.091 790.556 466.148 783.593 474.966 783.593C479.95 783.593 482.743 785.221 485.627 789.803L485.919 790.26L493.962 785.239L493.706 784.782C489.781 777.815 483.647 774.432 474.966 774.432C461.06 774.432 451.718 785.8 451.718 802.72C451.718 819.639 461.06 831.003 474.966 831.003C483.241 831.003 489.978 827.255 493.934 820.434L494.193 819.99L486.621 814.938V814.938ZM516.076 787.876C505.007 787.876 497.578 796.556 497.578 809.476C497.578 822.151 505.087 830.998 515.849 830.998C527.05 830.998 534.573 822.265 534.573 809.249C534.573 796.665 526.971 787.874 516.074 787.874L516.076 787.876ZM516.152 822.376C510.204 822.376 506.65 817.468 506.65 809.251C506.65 801.505 510.228 796.501 515.767 796.501C521.774 796.501 525.503 801.474 525.503 809.476C525.503 816.951 521.573 822.376 516.156 822.376H516.152ZM541.297 777.409V830.155H550.283V772.688L541.297 777.409ZM560.852 777.409V830.155H569.838V772.688L560.852 777.409ZM596.291 787.876C585.076 787.876 578.108 796.152 578.108 809.476C578.108 822.151 585.491 830.998 596.067 830.998C601.918 830.998 606.451 829.272 610.329 825.549L610.722 825.172L605.341 819.35L604.945 819.643C602.042 821.797 599.446 822.76 596.529 822.76C591.41 822.76 587.884 819.043 587.017 812.786H613.022L613.557 812.365L613.602 811.871C613.685 811.034 613.792 809.891 613.792 808.628C613.792 796.018 606.924 787.874 596.291 787.874V787.876ZM595.757 796.117C602.314 796.117 604.25 800.908 604.679 805.168H587.174C587.967 799.324 591.004 796.117 595.755 796.117H595.757ZM645.906 788.724V791.695C643.788 789.761 640.361 787.874 636.407 787.874C628.231 787.874 619.976 794.343 619.976 808.792C619.976 822.908 625.822 830.999 636.023 830.999C639.499 830.999 642.669 829.72 645.904 826.986C645.813 834.567 643.644 837.379 632.618 837.902L631.815 837.939L634.979 845L635.344 844.982C649.42 844.536 654.904 839.153 654.904 825.772V788.722H645.907L645.906 788.724ZM637.477 822.612C631.753 822.612 628.973 818.008 628.973 808.554C628.973 800.399 631.729 796.263 637.17 796.263C640.759 796.263 644.345 798.896 646.057 801.021L646.178 817.66C643.722 820.756 640.469 822.61 637.475 822.61L637.477 822.612ZM680.96 787.876C669.741 787.876 662.777 796.152 662.777 809.476C662.777 822.151 670.163 830.998 680.735 830.998C686.587 830.998 691.116 829.272 695.001 825.549L695.39 825.172L690.008 819.35L689.612 819.643C686.705 821.797 684.113 822.76 681.196 822.76C676.073 822.76 672.551 819.043 671.684 812.786H697.692L698.225 812.365L698.275 811.871C698.351 811.034 698.457 809.891 698.457 808.628C698.457 796.018 691.593 787.874 680.958 787.874L680.96 787.876ZM680.425 796.117C686.983 796.117 688.918 800.908 689.347 805.168H671.839C672.63 799.324 675.667 796.117 680.423 796.117H680.425Z" fill="#D92231"/>
</svg>
