<svg width="2166" height="778" viewBox="0 0 2166 778" fill="none" xmlns="http://www.w3.org/2000/svg">
<path d="M33.5191 498.027H12.7692L7.98075 525.163H0L1.59614 491.642H81.4036L82.9998 525.163H75.019L70.2306 498.027H47.8845V579.435L65.4421 581.031V587.416H17.5576V581.031L33.5191 579.435V498.027Z" fill="#231F20"/>
<path d="M98.9615 490.05L87.7885 488.454V483.665L108.538 480.473L111.731 482.069V512.398V523.571C114.923 520.379 118.115 518.783 122.904 517.186C127.692 515.59 132.481 513.994 137.269 513.994C142.058 513.994 146.846 515.59 150.038 517.186C153.231 518.783 154.827 521.975 156.423 526.764C158.019 531.553 158.019 536.341 158.019 544.323V579.44L167.596 581.036V587.421H137.269V581.036L145.25 579.44V542.726C145.25 537.938 145.25 533.149 143.654 529.956C142.058 526.764 142.058 525.168 140.461 523.571C138.865 521.975 135.673 521.975 132.481 521.975C129.288 521.975 126.096 523.571 122.904 523.571C119.711 525.168 116.519 526.764 113.327 528.36V577.844L122.904 579.44V585.825H92.5769V581.036L100.558 579.44L98.9615 490.05Z" fill="#231F20"/>
<path d="M185.175 577.839C180.387 571.454 177.194 561.877 177.194 550.703C177.194 542.722 178.79 536.337 181.983 531.548C185.175 525.163 188.367 521.97 193.156 518.778C197.944 515.585 204.329 513.989 210.713 513.989C218.694 513.989 225.079 515.586 229.867 520.374C234.656 525.163 236.252 531.548 236.252 539.529C236.252 544.318 236.252 549.107 234.656 552.299H189.963C189.963 560.28 191.56 568.262 196.348 573.05C199.54 577.839 205.925 581.032 212.31 581.032C215.502 581.032 218.694 581.032 223.483 579.435C226.675 577.839 229.867 576.243 231.463 574.647L234.656 581.032C231.463 584.224 228.271 585.82 223.483 587.417C218.694 589.013 213.906 590.609 209.117 590.609C199.54 589.013 191.56 584.224 185.175 577.839ZM221.886 544.318C221.886 542.722 221.886 541.125 221.886 539.529C221.886 534.74 220.29 529.952 218.694 526.759C217.098 523.567 212.31 521.97 207.521 521.97C202.733 521.97 197.944 523.567 196.348 526.759C193.156 529.952 191.56 536.337 191.56 544.318C191.56 544.318 221.886 544.318 221.886 544.318Z" fill="#231F20"/>
<path d="M290.522 499.623L280.945 498.027V491.642H317.656V498.027L304.887 499.623V579.435L338.406 577.839L344.791 557.088H352.772L347.983 587.416H280.945V581.031L290.522 579.435V499.623Z" fill="#231F20"/>
<path d="M370.296 577.839C365.507 571.454 362.315 561.877 362.315 550.703C362.315 542.722 363.911 536.337 367.104 531.548C370.296 525.163 373.488 521.97 378.277 518.778C383.065 515.585 389.45 513.989 395.834 513.989C403.815 513.989 410.2 515.586 414.988 520.374C419.777 525.163 421.373 531.548 421.373 539.529C421.373 544.318 421.373 549.107 419.776 552.299H375.084C375.084 560.28 376.681 568.262 381.469 573.05C384.661 577.839 391.046 581.032 397.43 581.032C400.623 581.032 403.815 581.032 408.604 579.435C411.796 577.839 414.988 576.243 416.584 574.647L419.776 581.032C416.584 584.224 413.392 585.82 408.604 587.417C403.815 589.013 399.027 590.609 394.238 590.609C383.065 589.013 375.084 584.224 370.296 577.839ZM407.007 544.318C407.007 542.722 407.007 541.125 407.007 539.529C407.007 534.74 405.411 529.952 403.815 526.759C402.219 523.567 397.43 521.97 392.642 521.97C387.854 521.97 383.065 523.567 381.469 526.759C378.277 529.952 376.681 536.337 376.681 544.318C375.084 544.318 407.007 544.318 407.007 544.318Z" fill="#231F20"/>
<path d="M445.351 550.704C453.332 547.512 462.909 544.319 475.678 544.319V541.127C475.678 537.934 475.678 534.742 474.082 531.549C472.485 528.357 472.485 528.357 469.293 526.761C467.697 525.164 464.505 525.164 459.716 525.164C454.928 525.164 451.736 525.164 448.543 526.761C445.351 528.357 442.159 529.953 438.966 531.549L435.774 525.164C437.37 523.568 438.966 523.568 442.159 521.972C445.351 520.376 448.543 518.779 453.332 517.183C458.12 515.587 461.312 515.587 464.505 515.587C470.889 515.587 475.678 517.183 478.87 518.779C482.062 520.376 485.255 523.568 486.851 526.761C488.447 529.953 488.447 534.742 488.447 541.127V581.033H496.428V587.418C494.832 587.418 493.235 589.014 490.043 589.014C486.851 589.014 485.255 589.014 483.658 589.014C482.062 589.014 480.466 589.014 478.87 587.418C477.274 585.822 477.274 584.225 477.274 582.629V577.84C474.082 581.033 470.889 582.629 467.697 584.225C464.505 585.822 459.716 587.418 454.928 587.418C448.543 587.418 443.755 585.822 438.966 582.629C435.774 579.437 432.582 574.648 432.582 566.667C432.582 560.282 437.37 553.897 445.351 550.704ZM467.697 577.84C470.889 576.244 474.082 574.648 475.678 573.052V550.704C466.101 550.704 459.716 552.301 454.928 555.493C450.139 558.686 448.543 561.878 448.543 566.667C448.543 571.455 450.139 574.648 451.736 576.244C453.332 577.841 456.524 579.437 461.312 579.437C462.909 579.437 464.505 579.437 467.697 577.84Z" fill="#231F20"/>
<path d="M505.968 581.034L515.545 579.438V525.165L505.968 521.973V515.588L523.526 513.992L526.718 515.588V518.78V528.358C528.314 526.762 528.314 525.165 531.506 521.973C534.699 518.78 536.295 517.184 539.487 515.588C542.679 513.992 547.468 512.396 550.66 512.396C552.256 512.396 553.852 512.396 555.449 512.396V526.762C555.449 526.762 553.852 525.165 552.256 525.165C550.66 525.165 549.064 525.165 547.468 525.165C541.083 525.165 533.103 526.762 528.314 531.55V577.842L544.276 579.438V585.823H505.968V581.034Z" fill="#231F20"/>
<path d="M573.033 525.165L563.456 521.973V515.588L581.014 513.992L584.206 515.588V520.377V523.569C587.398 520.377 590.591 518.781 596.975 515.588C603.36 512.396 606.552 512.396 611.341 512.396C616.129 512.396 620.918 513.992 624.11 515.588C627.302 517.184 628.898 520.377 630.494 525.165C632.091 529.954 632.091 534.743 632.091 542.724V579.438L641.668 581.034V587.419H611.341V581.034L619.321 579.438V542.724C619.321 537.935 619.321 533.147 617.725 529.954C616.129 526.762 616.129 525.166 614.533 523.569C612.937 521.973 609.744 521.973 606.552 521.973C603.36 521.973 600.168 523.569 596.975 525.165C593.783 526.762 590.591 528.358 587.398 529.954V579.438L595.379 581.034V587.419H565.052V581.034L573.033 579.438V525.165Z" fill="#231F20"/>
<path d="M662.417 525.166L652.841 521.974V515.589L671.994 512.396L675.186 513.993V577.843L684.763 579.439V585.824H651.244V581.035L660.821 579.439V525.166H662.417ZM660.821 499.627C659.225 498.03 659.225 496.434 659.225 493.242C659.225 490.049 660.821 488.453 662.417 486.857C664.014 485.26 665.61 483.664 668.802 483.664C671.994 483.664 673.59 485.26 675.186 486.857C676.783 488.453 676.783 490.049 676.783 493.242C676.783 496.434 675.187 498.03 673.59 499.627C671.994 501.223 670.398 502.819 667.206 502.819C664.014 502.819 662.417 501.223 660.821 499.627Z" fill="#231F20"/>
<path d="M703.9 525.165L694.323 521.973V515.588L711.881 513.992L715.073 515.588V520.377V523.569C718.266 520.377 721.458 518.781 727.843 515.588C734.227 512.396 737.419 512.396 742.208 512.396C746.996 512.396 751.785 513.992 754.977 515.588C758.169 517.184 759.765 520.377 761.362 525.165C762.958 529.954 762.958 534.743 762.958 542.724V579.438L772.535 581.034V587.419H742.208V581.034L750.189 579.438V542.724C750.189 537.935 750.189 533.147 748.592 529.954C746.996 526.762 746.996 525.166 745.4 523.569C743.804 521.973 740.612 521.973 737.419 521.973C734.227 521.973 731.035 523.569 727.843 525.165C724.65 526.762 721.458 528.358 718.266 529.954V579.438L726.246 581.034V587.419H695.92V581.034L703.9 579.438V525.165Z" fill="#231F20"/>
<path d="M788.475 616.152C783.687 612.959 780.495 608.17 780.495 601.785C780.495 598.593 782.091 595.4 783.687 590.612C785.283 587.419 788.475 585.823 791.668 584.227C788.475 582.63 785.283 577.842 785.283 573.053C785.283 569.86 786.879 566.668 788.475 563.475C790.072 560.283 793.264 558.687 794.86 557.09C790.071 555.494 786.879 552.302 785.283 549.109C783.687 545.917 782.091 541.128 782.091 536.339C782.091 531.55 783.687 526.762 786.879 523.569C790.071 520.377 793.264 517.184 798.052 515.588C802.841 513.992 807.629 512.396 812.418 512.396C820.398 512.396 828.379 513.992 833.168 517.184C834.764 515.588 836.36 513.992 839.552 513.992C842.744 512.395 844.341 512.396 847.533 512.396H852.321V523.569H837.956C839.552 526.762 841.148 529.954 841.148 534.743C841.148 539.532 839.552 544.32 837.956 547.513C834.764 550.705 831.571 553.898 826.783 557.09C821.994 560.283 817.206 560.283 812.418 560.283C809.225 560.283 806.033 560.283 802.841 558.687C801.245 560.283 801.245 561.879 799.648 561.879C798.052 563.475 798.052 565.072 798.052 566.668C798.052 569.86 799.648 571.457 801.245 573.053C802.841 574.649 807.629 574.649 812.418 574.649H826.783C834.764 574.649 841.148 576.245 844.341 579.438C847.533 582.63 850.725 587.419 850.725 592.208C850.725 596.997 849.129 601.785 845.937 604.978C842.744 609.767 837.956 612.959 831.571 614.555C825.187 617.748 818.802 617.748 812.418 617.748C801.245 622.537 793.264 619.344 788.475 616.152ZM825.187 612.959C828.379 611.363 831.571 609.767 834.764 608.17C836.36 604.978 837.956 603.382 837.956 600.189C837.956 596.997 836.36 593.804 834.764 592.208C833.168 590.612 828.379 589.015 823.591 589.015H809.225C806.033 589.015 802.841 589.015 801.245 589.015C798.052 592.208 796.456 596.997 796.456 601.785C796.456 606.574 798.052 609.767 801.245 612.959C804.437 616.152 809.225 616.152 815.61 616.152C817.206 614.555 821.994 614.555 825.187 612.959ZM826.783 536.339C826.783 529.954 825.187 526.762 823.591 523.569C820.398 520.377 817.206 520.377 812.418 520.377C807.629 520.377 804.437 521.973 801.245 523.569C798.052 526.762 796.456 529.954 796.456 536.339C796.456 541.128 798.052 545.917 799.648 549.109C801.245 552.302 806.033 553.898 810.821 553.898C823.591 553.898 826.783 549.109 826.783 536.339Z" fill="#231F20"/>
<path d="M1018.37 502.814L1007.19 501.218V494.833H1045.5V501.218L1032.73 502.814V582.627L1045.5 584.223V590.608H1007.19V584.223L1018.37 582.627V502.814Z" fill="#231F20"/>
<path d="M1066.22 528.355L1056.64 525.163V518.778L1074.2 517.181L1077.39 518.778V523.566V526.759C1080.58 523.566 1083.77 521.97 1090.16 518.778C1096.54 515.585 1099.73 517.181 1104.52 517.181C1109.31 517.181 1114.1 518.778 1117.29 520.374C1120.48 521.97 1122.08 525.163 1123.68 529.951C1125.27 534.74 1125.27 539.529 1125.27 547.51V584.224L1134.85 585.82V592.205H1104.52V585.82L1112.5 584.224V547.51C1112.5 542.721 1112.5 537.933 1110.91 534.74C1109.31 531.548 1109.31 529.951 1107.72 528.355C1106.12 526.759 1102.93 526.759 1099.73 526.759C1096.54 526.759 1093.35 528.355 1090.16 529.951C1086.97 531.548 1083.77 533.144 1080.58 534.74V584.224L1088.56 585.82V592.205H1058.23V585.82L1066.22 584.224V528.355Z" fill="#231F20"/>
<path d="M1152.44 528.357L1142.87 525.164V518.779L1160.43 517.183L1163.62 518.779V523.568V526.761C1166.81 523.568 1170 521.972 1176.39 518.779C1182.77 515.587 1185.96 515.587 1190.75 515.587C1195.54 515.587 1200.33 517.183 1203.52 518.779C1206.71 520.376 1208.31 523.568 1209.91 528.357C1211.5 533.146 1211.5 537.934 1211.5 545.916V582.629L1221.08 584.226V590.611H1190.75V584.226L1198.73 582.629V545.916C1198.73 541.127 1198.73 536.338 1197.14 533.146C1195.54 529.953 1195.54 528.357 1193.94 526.761C1192.35 525.164 1189.16 525.164 1185.96 525.164C1182.77 525.164 1179.58 526.761 1176.39 528.357C1173.19 529.953 1168.41 531.549 1165.21 533.146V582.629L1173.19 584.226V590.611H1142.87V584.226L1150.85 582.629L1152.44 528.357Z" fill="#231F20"/>
<path d="M1235.44 534.738C1238.64 528.353 1243.43 525.161 1248.21 521.968C1253 518.776 1259.39 517.18 1264.18 517.18C1275.35 517.18 1283.33 520.372 1288.12 528.353C1292.91 534.738 1296.1 544.316 1296.1 555.49C1296.1 563.471 1294.5 569.856 1291.31 576.241C1288.12 582.626 1283.33 585.818 1278.54 589.011C1273.75 592.203 1267.37 593.799 1262.58 593.799C1251.41 593.799 1243.43 590.607 1238.64 582.626C1233.85 576.241 1230.66 566.663 1230.66 555.49C1230.66 545.912 1232.25 539.527 1235.44 534.738ZM1278.54 576.241C1281.73 571.452 1283.33 563.471 1283.33 553.893C1283.33 544.316 1281.73 536.335 1278.54 531.546C1275.35 526.757 1270.56 523.565 1264.18 523.565C1257.79 523.565 1254.6 526.757 1249.81 531.546C1246.62 536.335 1245.02 544.316 1245.02 553.893C1245.02 563.471 1246.62 571.452 1249.81 576.241C1253 581.03 1257.79 584.222 1264.18 584.222C1270.56 584.222 1273.75 581.03 1278.54 576.241Z" fill="#231F20"/>
<path d="M1304.04 518.778H1334.37V525.163L1324.79 526.76L1337.56 563.473L1342.35 579.436L1347.14 563.473L1359.91 526.76L1351.93 525.163V518.778H1377.46V525.163L1371.08 526.76L1345.54 590.609H1335.96L1310.43 526.76L1304.04 525.163V518.778Z" fill="#231F20"/>
<path d="M1395.03 552.297C1403.02 549.105 1412.59 545.912 1425.36 545.912V542.72C1425.36 539.527 1425.36 536.335 1423.77 533.142C1422.17 529.95 1422.17 529.95 1418.98 528.353C1415.78 526.757 1414.19 526.757 1409.4 526.757C1404.61 526.757 1401.42 526.757 1398.23 528.353C1395.03 529.95 1391.84 531.546 1388.65 533.142L1385.46 526.757C1387.05 525.161 1388.65 525.161 1391.84 523.565C1395.03 521.968 1398.23 520.372 1401.42 518.776C1404.61 517.18 1409.4 517.18 1412.59 517.18C1418.98 517.18 1423.77 518.776 1426.96 520.372C1430.15 521.968 1433.34 525.161 1434.94 528.353C1436.53 531.546 1436.53 536.335 1436.53 542.72V584.222H1444.52V590.607C1442.92 590.607 1441.32 592.203 1438.13 592.203C1434.94 592.203 1433.34 592.203 1431.75 592.203C1430.15 592.203 1428.55 592.203 1426.96 590.607C1425.36 589.011 1425.36 587.415 1425.36 585.818V581.03C1422.17 584.222 1418.98 585.818 1415.78 587.415C1412.59 589.011 1407.8 590.607 1403.02 590.607C1396.63 590.607 1391.84 589.011 1387.05 585.818C1383.86 582.626 1380.67 577.837 1380.67 569.856C1383.86 561.875 1388.65 557.086 1395.03 552.297ZM1418.98 581.03C1422.17 579.433 1425.36 577.837 1426.96 576.241V553.893C1417.38 553.893 1411 555.49 1406.21 558.682C1401.42 561.875 1399.82 565.067 1399.82 569.856C1399.82 574.645 1401.42 577.837 1403.02 579.433C1404.61 581.03 1407.8 582.626 1412.59 582.626C1412.59 582.626 1415.78 582.626 1418.98 581.03Z" fill="#231F20"/>
<path d="M1468.45 587.416C1466.85 585.82 1465.26 581.031 1465.26 576.243V526.759H1455.68V520.374C1455.68 520.374 1457.28 520.374 1458.87 518.778C1460.47 518.778 1462.06 517.181 1462.06 517.181C1463.66 515.585 1463.66 513.989 1465.26 512.393C1465.26 510.796 1466.85 507.604 1466.85 504.411C1468.45 501.219 1468.45 498.026 1468.45 498.026H1476.43V517.181H1497.18V525.163H1476.43V565.069C1476.43 569.858 1476.43 573.05 1476.43 576.243C1476.43 577.839 1478.03 579.435 1478.03 579.435C1478.03 579.435 1481.22 581.031 1482.81 581.031C1484.41 581.031 1487.6 581.031 1490.79 579.435C1493.99 579.435 1495.58 577.839 1497.18 577.839L1498.78 584.224C1497.18 585.82 1493.99 587.416 1489.2 589.013C1484.41 590.609 1479.62 590.609 1476.43 590.609C1473.24 590.609 1470.04 590.609 1468.45 587.416Z" fill="#231F20"/>
<path d="M1519.53 528.358L1509.96 525.165V518.78L1529.11 515.588L1532.3 517.184V581.034L1541.88 582.63V589.015H1508.36V582.63L1517.94 581.034V528.358H1519.53ZM1519.53 502.818C1517.94 501.222 1517.94 499.625 1517.94 496.433C1517.94 493.24 1519.53 491.644 1521.13 490.048C1522.72 488.452 1524.32 486.855 1527.51 486.855C1530.71 486.855 1532.3 488.452 1533.9 490.048C1535.49 491.644 1535.49 493.24 1535.49 496.433C1535.49 499.625 1533.9 501.222 1532.3 502.818C1530.71 504.414 1529.11 506.01 1525.92 506.01C1522.72 506.01 1519.53 504.414 1519.53 502.818Z" fill="#231F20"/>
<path d="M1557.86 534.738C1561.05 528.353 1565.84 525.161 1570.63 521.968C1575.42 518.776 1581.8 517.18 1586.59 517.18C1597.76 517.18 1605.74 520.372 1610.53 528.353C1615.32 534.738 1618.51 544.316 1618.51 555.49C1618.51 563.471 1616.92 569.856 1613.72 576.241C1610.53 582.626 1605.74 585.818 1600.95 589.011C1596.17 592.203 1589.78 593.799 1584.99 593.799C1573.82 593.799 1565.84 590.607 1561.05 582.626C1556.26 576.241 1553.07 566.663 1553.07 555.49C1553.07 545.912 1554.67 539.527 1557.86 534.738ZM1600.95 576.241C1604.15 571.452 1605.74 563.471 1605.74 553.893C1605.74 544.316 1604.15 536.335 1600.95 531.546C1597.76 526.757 1592.97 523.565 1586.59 523.565C1580.2 523.565 1577.01 526.757 1572.22 531.546C1569.03 536.335 1567.43 544.316 1567.43 553.893C1567.43 563.471 1569.03 571.452 1572.22 576.241C1575.42 581.03 1580.2 584.222 1586.59 584.222C1592.97 584.222 1597.76 581.03 1600.95 576.241Z" fill="#231F20"/>
<path d="M1640.83 528.357L1631.25 525.164V518.779L1648.81 517.183L1652 518.779V523.568V526.761C1655.19 523.568 1658.38 521.972 1664.77 518.779C1671.15 515.587 1674.35 515.587 1679.13 515.587C1683.92 515.587 1688.71 517.183 1691.9 518.779C1695.1 520.376 1696.69 523.568 1698.29 528.357C1699.88 533.146 1699.88 537.934 1699.88 545.916V582.629L1709.46 584.226V590.611H1679.13V584.226L1687.11 582.629V545.916C1687.11 541.127 1687.11 536.338 1685.52 533.146C1683.92 529.953 1683.92 528.357 1682.33 526.761C1680.73 525.164 1677.54 525.164 1674.35 525.164C1671.15 525.164 1667.96 526.761 1664.77 528.357C1661.58 529.953 1658.38 531.549 1655.19 533.146V582.629L1663.17 584.226V590.611H1632.85V584.226L1640.83 582.629V528.357Z" fill="#231F20"/>
<path d="M1768.56 585.822C1762.17 581.033 1757.38 576.244 1754.19 568.263C1751 560.282 1749.4 552.3 1749.4 542.723C1749.4 533.145 1751 525.164 1755.79 517.183C1760.58 509.202 1765.36 504.413 1771.75 499.624C1778.13 494.836 1786.11 493.239 1795.69 493.239C1802.07 493.239 1810.06 494.836 1819.63 496.432L1824.42 498.028L1822.82 520.375H1814.84L1811.65 504.413C1810.06 502.817 1808.46 502.817 1805.27 501.22C1802.07 499.624 1798.88 499.624 1794.09 499.624C1789.31 499.624 1784.52 501.221 1779.73 504.413C1774.94 507.605 1771.75 512.394 1770.15 518.779C1768.56 525.164 1766.96 531.549 1766.96 541.127C1766.96 549.108 1768.56 557.089 1770.15 563.474C1771.75 569.859 1774.94 574.648 1779.73 579.437C1784.52 584.225 1789.31 585.822 1795.69 585.822C1800.48 585.822 1803.67 585.822 1805.27 584.225C1806.86 582.629 1810.06 582.629 1811.65 581.033L1816.44 568.263L1824.42 569.859L1821.23 589.014C1819.63 589.014 1816.44 589.014 1813.25 590.61C1810.06 592.207 1806.86 592.207 1803.67 592.207C1800.48 592.207 1797.29 593.803 1792.5 593.803C1782.92 592.207 1774.94 589.014 1768.56 585.822Z" fill="#231F20"/>
<path d="M1841.93 581.03C1837.14 574.645 1833.95 565.067 1833.95 553.893C1833.95 545.912 1835.55 539.527 1838.74 534.738C1841.93 528.353 1845.12 525.161 1849.91 521.968C1854.7 518.776 1861.08 517.18 1867.47 517.18C1875.45 517.18 1881.83 518.776 1886.62 523.565C1891.41 528.353 1893.01 534.738 1893.01 542.72C1893.01 547.508 1893.01 552.297 1891.41 555.49H1846.72C1846.72 563.471 1848.31 571.452 1853.1 576.241C1856.3 581.03 1862.68 584.222 1869.06 584.222C1872.26 584.222 1875.45 584.222 1880.24 582.626C1885.03 581.03 1886.62 579.433 1888.22 577.837L1889.81 584.222C1888.22 587.415 1883.43 589.011 1878.64 590.607C1873.85 592.203 1869.06 593.799 1864.28 593.799C1856.3 592.203 1848.31 587.415 1841.93 581.03ZM1878.64 547.508C1878.64 545.912 1878.64 544.316 1878.64 542.72C1878.64 537.931 1877.05 533.142 1875.45 529.95C1873.85 526.757 1869.06 525.161 1864.28 525.161C1859.49 525.161 1854.7 526.757 1853.1 529.95C1849.91 533.142 1848.31 539.527 1848.31 547.508C1848.31 547.508 1878.64 547.508 1878.64 547.508Z" fill="#231F20"/>
<path d="M1913.79 528.357L1904.22 525.164V518.779L1921.77 517.183L1924.97 518.779V523.568V526.761C1928.16 523.568 1931.35 521.972 1937.74 518.779C1944.12 515.587 1947.31 515.587 1952.1 515.587C1956.89 515.587 1961.68 517.183 1964.87 518.779C1968.06 520.376 1969.66 523.568 1971.25 528.357C1972.85 533.146 1972.85 537.934 1972.85 545.916V582.629L1982.43 584.226V590.611H1950.5V584.226L1958.49 582.629V545.916C1958.49 541.127 1958.49 536.338 1956.89 533.146C1955.29 529.953 1955.29 528.357 1953.7 526.761C1952.1 525.164 1948.91 525.164 1945.72 525.164C1942.52 525.164 1939.33 526.761 1936.14 528.357C1932.95 529.953 1929.75 531.549 1926.56 533.146V582.629L1934.54 584.226V590.611H1904.22V584.226L1912.2 582.629L1913.79 528.357Z" fill="#231F20"/>
<path d="M2003.16 587.416C2001.56 585.82 1999.96 581.031 1999.96 576.243V526.759H1990.39V520.374C1990.39 520.374 1991.98 520.374 1993.58 518.778C1995.18 518.778 1996.77 517.181 1996.77 517.181C1998.37 515.585 1998.37 513.989 1999.96 512.393C1999.96 510.796 2001.56 507.604 2001.56 504.411C2003.16 501.219 2003.16 498.026 2003.16 498.026H2011.14V517.181H2031.89V525.163H2011.14V565.069C2011.14 569.858 2011.14 573.05 2011.14 576.243C2011.14 577.839 2012.73 579.435 2012.73 579.435C2012.73 579.435 2015.93 581.031 2017.52 581.031C2019.12 581.031 2022.31 581.031 2025.5 579.435C2028.7 579.435 2030.29 577.839 2031.89 577.839L2033.48 584.224C2031.89 585.82 2028.7 587.416 2023.91 589.013C2019.12 590.609 2014.33 590.609 2011.14 590.609C2007.95 590.609 2004.75 590.609 2003.16 587.416Z" fill="#231F20"/>
<path d="M2052.67 581.03C2047.88 574.645 2044.69 565.067 2044.69 553.893C2044.69 545.912 2046.29 539.527 2049.48 534.738C2052.67 528.353 2055.87 525.161 2060.65 521.968C2065.44 518.776 2071.83 517.18 2078.21 517.18C2086.19 517.18 2092.58 518.776 2097.37 523.565C2102.15 528.353 2103.75 534.738 2103.75 542.72C2103.75 547.508 2103.75 552.297 2102.15 555.49H2057.46C2057.46 563.471 2059.06 571.452 2063.85 576.241C2067.04 581.03 2073.42 584.222 2079.81 584.222C2083 584.222 2086.19 584.222 2090.98 582.626C2095.77 581.03 2097.37 579.433 2098.96 577.837L2100.56 584.222C2098.96 587.415 2094.17 589.011 2089.38 590.607C2084.6 592.203 2079.81 593.799 2075.02 593.799C2065.44 592.203 2059.06 587.415 2052.67 581.03ZM2089.38 547.508C2089.38 545.912 2089.38 544.316 2089.38 542.72C2089.38 537.931 2087.79 533.142 2086.19 529.95C2084.6 526.757 2079.81 525.161 2075.02 525.161C2070.23 525.161 2065.44 526.757 2063.85 529.95C2060.65 533.142 2059.06 539.527 2059.06 547.508C2059.06 547.508 2089.38 547.508 2089.38 547.508Z" fill="#231F20"/>
<path d="M2116.52 584.225L2126.1 582.629V528.357L2116.52 525.164V518.779L2134.08 517.183L2137.27 518.779V521.972V531.549C2138.86 529.953 2138.86 528.357 2142.06 525.164C2145.25 521.972 2146.85 520.376 2150.04 518.779C2153.23 517.183 2158.02 515.587 2161.21 515.587C2162.81 515.587 2164.4 515.587 2166 515.587V529.953C2166 529.953 2164.4 528.357 2162.81 528.357C2161.21 528.357 2159.61 528.357 2158.02 528.357C2151.63 528.357 2143.65 529.953 2138.86 534.742V581.033L2154.83 582.629V589.014H2116.52V584.225Z" fill="#231F20"/>
<path d="M19.1557 683.197L9.57881 681.601V675.216L28.7326 672.023L31.9249 673.619V735.873L41.5018 737.469V743.854H7.98267V737.469L17.5596 735.873V683.197H19.1557ZM17.5596 657.657C15.9634 656.061 15.9634 654.464 15.9634 651.272C15.9634 648.079 17.5596 646.483 19.1557 644.887C20.7519 643.291 22.348 641.694 25.5403 641.694C28.7326 641.694 30.3288 643.291 31.9249 643.291C33.5211 644.887 33.521 646.483 33.521 649.676C33.521 652.868 31.9249 654.464 30.3288 656.061C28.7326 657.657 27.1365 659.253 23.9442 659.253C20.7519 660.849 19.1557 659.253 17.5596 657.657Z" fill="#231F20"/>
<path d="M59.049 683.196L51.0682 681.6V675.215L68.6259 673.619L71.8182 675.215V680.004V683.196C75.0105 680.004 78.2028 678.407 84.5874 675.215C90.972 672.022 94.1643 672.022 98.9527 672.022C103.741 672.022 108.53 673.619 111.722 675.215C114.914 676.811 116.51 680.004 118.107 684.792C119.703 689.581 119.703 694.37 119.703 702.351V737.468L129.28 739.065V745.45H98.9527V739.065L106.933 737.468V702.351C106.933 697.562 106.933 692.774 105.337 691.177C103.741 689.581 103.741 686.389 102.145 684.792C100.549 683.196 97.3566 683.196 94.1643 683.196C90.972 683.196 87.7797 684.792 84.5874 684.792C81.3951 686.389 78.2028 687.985 75.0105 689.581V737.468L82.9912 739.065V745.45H51.0682V739.065L59.049 737.468V683.196Z" fill="#231F20"/>
<path d="M178.798 657.658L169.221 656.062V649.677H205.933V656.062L193.164 657.658V737.47L225.087 735.874L233.067 713.527L241.048 715.123L236.26 743.855H169.221V737.47H178.798V657.658Z" fill="#231F20"/>
<path d="M255.374 689.581C258.566 684.792 261.758 680.004 268.143 676.811C274.527 673.619 279.316 672.022 284.104 672.022C295.277 672.022 303.258 675.215 308.046 681.6C312.835 687.985 316.027 697.562 316.027 708.736C316.027 716.717 314.431 723.102 311.239 729.487C308.046 734.276 304.854 739.065 298.47 742.257C292.085 745.45 287.297 747.046 282.508 747.046C271.335 747.046 263.354 743.854 258.566 737.469C253.777 731.084 250.585 721.506 250.585 710.332C250.585 700.755 252.181 694.37 255.374 689.581ZM295.277 731.084C298.47 726.295 300.066 718.314 300.066 710.332C300.066 700.755 298.47 692.774 295.277 687.985C292.085 683.196 287.297 680.004 280.912 680.004C274.527 680.004 269.739 683.196 268.143 687.985C264.95 692.774 263.354 700.755 263.354 708.736C263.354 718.314 264.95 726.295 268.143 731.084C271.335 735.872 276.123 739.065 282.508 739.065C288.893 739.065 293.681 735.872 295.277 731.084Z" fill="#231F20"/>
<path d="M335.165 683.196L325.588 681.6V675.215L343.146 673.619L346.338 675.215V680.004V683.196C349.531 680.004 352.723 678.407 359.108 675.215C365.492 672.022 368.684 672.022 373.473 672.022C378.261 672.022 383.05 673.619 386.242 675.215C389.434 676.811 391.031 680.004 392.627 684.792C394.223 689.581 394.223 694.37 394.223 702.351V737.468L403.8 739.065V745.45H373.473V739.065L381.454 737.468V702.351C381.454 697.562 381.454 692.774 379.857 691.177C378.261 689.581 378.261 686.389 376.665 684.792C375.069 683.196 371.877 683.196 368.684 683.196C365.492 683.196 362.3 684.792 359.108 684.792C355.915 686.389 352.723 687.985 349.531 689.581V737.468L357.511 739.065V745.45H327.185V739.065L335.165 737.468V683.196Z" fill="#231F20"/>
<path d="M419.805 774.182C415.016 770.99 411.824 766.201 411.824 759.816C411.824 756.624 413.42 753.431 415.016 748.642C418.208 745.45 419.805 743.854 422.997 742.257C419.805 740.661 416.612 735.872 416.612 731.084C416.612 727.891 418.208 724.699 419.805 723.102C421.401 721.506 424.593 718.314 426.189 716.717C421.401 715.121 418.208 711.929 416.612 708.736C415.016 705.544 413.42 700.755 413.42 695.966C413.42 691.177 415.016 686.389 418.208 683.196C421.401 680.004 424.593 676.811 429.382 675.215C434.17 673.619 438.958 672.022 443.747 672.022C451.728 672.022 459.708 673.619 464.497 676.811C466.093 675.215 467.689 673.619 470.881 673.619C474.074 673.619 475.67 672.022 478.862 672.022H483.651V683.196H469.285C470.881 686.389 472.478 689.581 472.478 694.37C472.478 699.159 470.881 703.947 469.285 707.14C466.093 710.332 462.901 713.525 459.708 716.717C456.516 719.91 450.131 719.91 445.343 719.91C442.151 719.91 438.958 719.91 435.766 718.314C434.17 719.91 434.17 721.506 432.574 721.506C430.978 721.506 430.978 724.699 430.978 726.295C430.978 729.487 432.574 731.084 434.17 732.68C435.766 734.276 438.958 734.276 445.343 734.276H459.708C467.689 734.276 474.074 735.872 477.266 739.065C480.458 742.257 483.651 747.046 483.651 751.835C483.651 756.624 482.054 761.412 478.862 764.605C475.67 767.797 470.881 770.99 464.497 774.182C458.112 777.375 451.728 777.375 445.343 777.375C432.574 778.971 424.593 777.375 419.805 774.182ZM456.516 769.394C459.708 767.797 462.901 766.201 466.093 764.605C467.689 761.412 469.285 759.816 469.285 756.624C469.285 753.431 467.689 750.239 466.093 748.642C464.497 747.046 459.708 745.45 454.92 745.45H440.555C437.362 745.45 434.17 745.45 432.574 745.45C429.382 748.642 427.785 753.431 427.785 758.22C427.785 763.009 429.382 766.201 432.574 769.394C435.766 772.586 440.555 772.586 446.939 772.586C448.535 770.99 453.324 770.99 456.516 769.394ZM458.112 694.37C458.112 687.985 456.516 684.792 454.92 681.6C451.728 678.407 448.535 678.407 443.747 678.407C438.958 678.407 435.766 680.004 432.574 681.6C429.382 684.792 429.382 687.985 429.382 694.37C429.382 699.159 430.978 703.947 432.574 707.14C435.766 710.332 438.958 711.929 443.747 711.929C453.324 711.929 458.112 707.14 458.112 694.37Z" fill="#231F20"/>
<path d="M534.725 657.658L523.552 656.062V649.677H560.264V656.062L549.091 657.658V737.47H560.264V743.855H523.552V737.47H534.725V657.658Z" fill="#231F20"/>
<path d="M585.789 734.274C587.385 735.87 588.981 737.466 590.577 737.466C593.769 739.063 596.962 739.063 598.558 739.063C603.346 739.063 606.539 737.466 609.731 735.87C611.327 734.274 612.923 731.081 612.923 727.889C612.923 726.293 612.923 723.1 611.327 721.504C609.731 719.908 608.135 718.311 604.942 716.715C601.75 715.119 598.558 713.523 593.769 711.926C587.385 708.734 582.596 707.138 579.404 702.349C576.212 697.56 574.615 694.368 574.615 689.579C574.615 686.386 576.212 683.194 577.808 680.001C579.404 676.809 582.596 675.213 587.385 673.616C590.577 672.02 595.365 670.424 600.154 670.424C603.346 670.424 608.135 670.424 609.731 672.02C611.327 673.616 614.519 673.616 616.115 673.616C617.712 673.616 619.308 675.213 619.308 675.213V691.175H611.327L608.135 681.598C608.135 680.001 606.539 680.001 604.942 678.405C603.346 676.809 600.154 676.809 596.962 676.809C593.769 676.809 590.577 678.405 587.385 680.001C584.192 681.598 584.192 683.194 584.192 686.386C584.192 689.579 584.192 691.175 585.789 692.771C587.385 694.368 588.981 695.964 590.577 695.964C592.173 695.964 595.365 697.56 598.558 699.156L601.75 700.753C606.539 702.349 609.731 703.945 612.923 705.541C616.115 707.138 617.712 708.734 620.904 711.926C622.5 715.119 624.096 718.311 624.096 721.504C624.096 727.889 622.5 732.678 616.115 735.87C611.327 739.063 604.942 740.659 596.962 740.659C592.173 740.659 588.981 740.659 584.192 739.063C579.404 737.466 579.404 740.659 576.212 740.659V724.696H584.192L585.789 734.274Z" fill="#231F20"/>
<path d="M649.637 649.674L638.464 648.078V641.693L659.214 640.097L662.406 641.693V737.468H673.579V743.853H638.464V737.468H649.637V649.674Z" fill="#231F20"/>
<path d="M695.936 707.14C703.917 703.947 713.494 700.755 726.263 700.755V697.562C726.263 694.37 726.263 691.177 724.667 687.985C723.071 684.792 723.071 684.792 719.878 683.196C716.686 681.6 715.09 681.6 710.302 681.6C705.513 681.6 702.321 681.6 699.128 683.196C695.936 684.792 692.744 686.389 689.552 687.985L686.359 681.6C687.955 680.004 689.552 680.004 692.744 678.407C695.936 676.811 699.129 675.215 702.321 673.619C705.513 672.022 710.302 672.022 713.494 672.022C719.878 672.022 724.667 673.619 727.859 675.215C731.052 676.811 734.244 680.004 735.84 683.196C737.436 686.389 737.436 691.177 737.436 697.562V739.065H745.417V743.853C743.821 743.853 742.225 745.45 739.032 745.45C735.84 745.45 734.244 745.45 732.648 745.45C731.052 745.45 729.455 745.45 727.859 743.853C726.263 743.853 726.263 742.257 726.263 739.065V734.276C723.071 737.468 719.878 739.065 716.686 740.661C713.494 742.257 708.705 743.853 703.917 743.853C697.532 743.853 692.744 742.257 689.552 739.065C686.359 735.872 683.167 731.084 683.167 723.102C683.167 716.717 687.955 711.929 695.936 707.14ZM716.686 735.872C719.878 734.276 721.475 732.68 724.667 731.084V708.736C715.09 708.736 708.705 710.332 703.917 713.525C699.129 716.717 697.532 719.91 697.532 724.699C697.532 729.487 699.129 732.68 700.725 734.276C702.321 735.872 705.513 737.468 710.302 737.468C711.898 737.468 715.09 735.872 716.686 735.872Z" fill="#231F20"/>
<path d="M762.946 683.196L753.369 681.6V675.215L770.927 673.619L774.119 675.215V680.004V683.196C777.311 680.004 780.504 678.407 786.888 675.215C793.273 672.022 796.465 672.022 801.254 672.022C806.042 672.022 810.831 673.619 814.023 675.215C817.215 676.811 818.811 680.004 820.408 684.792C822.004 689.581 822.004 694.37 822.004 702.351V737.468L831.581 739.065V745.45H801.254V739.065L809.234 737.468V702.351C809.234 697.562 809.234 692.774 807.638 691.177C806.042 689.581 806.042 686.389 804.446 684.792C802.85 683.196 799.658 683.196 796.465 683.196C793.273 683.196 790.081 684.792 786.888 684.792C783.696 686.389 780.504 687.985 777.311 689.581V737.468L785.292 739.065V745.45H754.965V739.065L762.946 737.468V683.196Z" fill="#231F20"/>
<path d="M853.927 742.255C849.138 739.063 845.946 735.87 844.35 731.082C841.158 726.293 841.158 719.908 841.158 711.927C841.158 705.542 842.754 697.56 845.946 692.772C849.138 686.387 852.331 681.598 858.715 678.405C865.1 675.213 871.485 673.617 877.869 673.617C882.658 673.617 885.85 673.617 889.042 675.213V651.269L876.273 649.673V644.884L898.619 643.288L901.812 644.884V740.659H909.792V747.044C906.6 747.044 905.004 748.64 903.408 748.64C901.812 748.64 900.215 748.64 897.023 748.64C893.831 748.64 893.831 748.64 892.235 747.044C890.638 745.448 890.638 743.852 890.638 742.255V737.467C889.042 740.659 885.85 742.255 881.062 745.448C877.869 747.044 873.081 748.64 868.292 748.64C863.504 745.448 858.715 743.852 853.927 742.255ZM882.658 734.274C885.85 732.678 887.446 731.082 889.042 729.485V683.194C889.042 681.598 887.446 681.598 884.254 680.002C881.062 678.406 879.465 678.405 876.273 678.405C869.888 678.405 865.1 681.598 860.312 686.387C855.523 691.175 853.927 699.157 853.927 710.33C853.927 719.908 855.523 726.293 858.715 731.082C861.908 735.87 866.696 737.467 871.485 737.467C876.273 737.467 879.465 735.87 882.658 734.274Z" fill="#231F20"/>
<path d="M970.487 739.062C964.102 735.869 959.314 729.484 956.122 721.503C952.929 713.522 951.333 705.541 951.333 695.963C951.333 686.386 952.929 678.404 957.718 670.423C962.506 662.442 967.295 657.653 973.679 652.865C980.064 649.672 988.045 646.479 997.622 646.479C1004.01 646.479 1011.99 648.076 1021.56 649.672L1026.35 651.268L1024.76 673.616H1016.78L1013.58 657.653C1011.99 656.057 1010.39 656.057 1007.2 654.461C1004.01 652.864 1000.81 652.865 996.025 652.865C991.237 652.865 986.449 654.461 981.66 657.653C976.872 660.846 973.679 665.634 972.083 672.019C970.487 678.404 968.891 684.789 968.891 694.367C968.891 702.348 970.487 710.329 972.083 716.714C973.679 723.099 976.872 727.888 981.66 732.677C986.449 735.869 991.237 739.062 997.622 739.062C1002.41 739.062 1005.6 739.062 1007.2 737.466C1008.79 735.869 1011.99 735.869 1013.58 734.273L1018.37 721.503L1026.35 723.099L1021.56 740.658C1019.97 740.658 1016.78 740.658 1013.58 742.254C1010.39 743.851 1007.2 743.851 1004.01 743.851C1000.81 743.851 997.622 745.447 992.833 745.447C984.852 745.447 976.872 743.851 970.487 739.062Z" fill="#231F20"/>
<path d="M1045.49 683.197L1035.92 681.601V675.216L1055.07 672.023L1058.26 673.619V735.873L1067.84 737.469V743.854H1034.32V737.469L1043.9 735.873L1045.49 683.197ZM1043.9 657.657C1042.3 656.061 1042.3 654.464 1042.3 651.272C1042.3 648.079 1043.9 646.483 1043.9 644.887C1045.49 643.291 1047.09 641.694 1050.28 641.694C1053.47 641.694 1055.07 643.291 1056.67 643.291C1058.26 644.887 1058.26 646.483 1058.26 649.676C1058.26 652.868 1056.67 654.464 1056.67 656.061C1055.07 657.657 1053.47 659.253 1050.28 659.253C1047.09 660.849 1045.49 659.253 1043.9 657.657Z" fill="#231F20"/>
<path d="M1090.17 742.255C1088.57 740.659 1086.98 735.871 1086.98 731.082V681.598H1077.4V676.809C1077.4 676.809 1079 676.809 1080.59 675.213C1082.19 675.213 1083.78 673.617 1083.78 673.617C1085.38 672.021 1085.38 672.021 1086.98 668.828C1086.98 667.232 1088.57 664.039 1088.57 660.847C1090.17 657.654 1090.17 654.462 1090.17 654.462H1098.15V673.617H1120.5V681.598H1099.75V719.908C1099.75 724.697 1099.75 727.889 1099.75 729.486C1099.75 731.082 1101.34 732.678 1101.34 732.678C1101.34 732.678 1104.53 734.274 1106.13 734.274C1107.73 734.274 1110.92 734.274 1114.11 732.678C1117.3 731.082 1118.9 731.082 1120.5 731.082L1122.09 737.467C1120.5 739.063 1117.3 740.659 1112.51 742.255C1107.73 743.852 1104.53 743.852 1099.75 743.852C1094.96 745.448 1091.76 743.852 1090.17 742.255Z" fill="#231F20"/>
<path d="M1138.08 775.778C1136.49 775.778 1136.49 775.778 1134.89 774.182V763.009C1134.89 763.009 1136.49 763.008 1138.08 764.605C1139.68 764.605 1141.28 764.605 1142.87 764.605C1146.06 764.605 1150.85 763.009 1154.04 759.816C1157.24 756.624 1160.43 751.835 1163.62 743.854H1157.24L1133.29 680.004L1126.91 678.407V672.022H1157.24V678.407L1147.66 680.004L1160.43 718.314L1166.81 737.469L1171.6 718.314L1182.78 681.6L1174.79 680.004V673.619H1200.33V680.004L1193.95 681.6C1181.18 719.91 1174.79 742.257 1171.6 747.046C1168.41 755.027 1166.81 759.816 1163.62 764.605C1162.03 769.393 1158.83 772.586 1155.64 774.182C1152.45 775.778 1149.26 777.375 1144.47 777.375C1139.68 775.778 1138.08 775.778 1138.08 775.778Z" fill="#231F20"/>
<path d="M3.18201 408.639V54.2725H87.7779V335.212H223.451V408.639H3.18201Z" fill="#D92231"/>
<path d="M365.482 54.2725H280.886V408.639H365.482V54.2725Z" fill="#D92231"/>
<path d="M699.08 402.253C676.734 413.427 649.599 418.216 620.868 418.216C593.734 418.216 568.195 413.427 545.849 405.446C523.503 397.464 502.753 383.098 486.792 367.136C469.234 351.173 456.465 330.422 446.888 308.075C437.311 285.727 432.523 260.187 432.523 231.455C432.523 202.722 437.311 177.182 446.888 154.835C456.465 132.487 469.234 111.736 486.792 95.7737C504.349 79.8112 523.503 67.0413 547.445 59.06C569.792 51.0788 595.33 46.29 622.464 46.29C648.003 46.29 671.945 51.0788 695.887 59.06C719.83 67.0413 738.983 81.4075 753.349 97.3699L695.887 154.835C687.907 143.661 678.33 135.68 663.964 130.891C651.195 126.102 638.426 122.91 624.061 122.91C609.695 122.91 595.33 126.102 582.561 130.891C569.792 135.68 560.215 143.661 550.638 153.239C541.061 162.816 534.676 173.99 529.888 188.356C525.099 202.722 521.907 215.492 521.907 231.455C521.907 247.417 525.099 261.783 529.888 276.15C534.676 290.516 541.061 300.093 550.638 311.267C560.215 320.845 569.792 328.826 582.561 333.615C595.33 338.403 608.099 341.596 622.464 341.596C640.022 341.596 654.387 338.403 667.157 332.018C679.926 325.633 689.503 316.056 697.483 306.478L756.541 362.347C742.176 378.309 723.022 392.676 699.08 402.253Z" fill="#D92231"/>
<path d="M810.853 86.1973C820.43 78.2161 828.411 68.6386 833.199 60.6574C839.584 51.0799 841.18 43.0987 841.18 35.1174C841.18 28.7324 839.584 22.3475 834.795 19.155C831.603 15.9625 825.218 12.77 817.237 12.77C810.853 12.77 804.468 14.3662 799.68 17.5587C794.891 20.7512 790.103 23.9437 785.314 28.7324L778.93 20.7512C783.718 15.9625 788.507 11.1737 796.488 6.38499C804.468 1.59625 812.449 0 822.026 0C830.007 0 837.987 1.59625 844.372 4.78874C850.757 7.98124 853.949 12.77 857.141 17.5587C860.334 22.3475 861.93 28.7324 861.93 35.1174C861.93 47.8874 855.545 60.6574 844.372 73.4274C833.199 86.1973 818.834 97.3711 801.276 108.545L858.737 103.756L865.122 87.7936L874.699 89.3898L869.91 118.122H782.122L778.93 110.141C791.699 102.16 802.872 94.1786 810.853 86.1973Z" fill="#231F20"/>
<path d="M970.45 542.723L960.873 544.319C960.873 550.704 959.277 557.089 959.277 561.878C957.681 566.667 954.488 571.455 952.892 574.648C956.085 577.84 957.681 579.437 960.873 581.033C962.469 582.629 965.661 582.629 968.854 582.629V589.014C967.258 589.014 967.258 590.61 965.662 590.61C964.065 590.61 962.469 590.61 960.873 590.61C957.681 590.61 956.085 590.61 952.892 589.014C951.296 587.418 948.104 585.822 944.911 582.629C941.719 585.822 938.527 587.418 933.738 589.014C928.95 590.61 925.758 590.61 922.565 590.61C912.988 590.61 905.008 587.418 898.623 584.225C892.238 579.437 889.046 573.052 889.046 565.071C889.046 558.686 890.642 553.897 893.835 550.704C897.027 547.512 901.815 542.723 906.604 541.127C900.219 531.549 895.431 521.972 895.431 512.394C895.431 507.606 897.027 504.413 898.623 501.221C900.219 498.028 903.411 494.836 908.2 493.239C911.392 491.643 916.181 490.047 920.969 490.047C925.758 490.047 930.546 491.643 933.738 493.239C936.931 494.836 940.123 498.028 941.719 499.624C943.315 501.221 943.315 506.009 943.315 509.202C943.315 513.991 941.719 518.779 940.123 521.972C938.527 525.164 936.931 528.357 933.738 531.549C930.546 534.742 927.354 536.338 922.565 541.127C925.758 544.319 928.95 549.108 933.738 555.493C938.527 561.878 941.719 565.071 944.911 568.263L948.104 571.456C949.7 568.263 951.296 565.07 952.892 561.878C954.488 558.686 954.488 553.897 954.488 550.704C954.488 549.108 954.488 547.512 954.488 547.512L944.911 545.916V537.934H973.642L970.45 542.723ZM930.546 582.629C933.738 581.033 935.335 579.437 938.527 577.84C935.335 574.648 932.142 571.455 927.354 565.071C922.565 558.686 917.777 553.897 912.988 545.916L911.392 542.723C905.008 549.108 901.815 555.493 901.815 561.878C901.815 568.263 903.411 573.052 908.2 576.244C911.392 579.437 917.777 581.033 924.161 581.033C924.161 584.225 927.354 584.225 930.546 582.629ZM909.796 521.972C911.392 525.164 912.988 529.953 916.181 533.146C920.969 528.357 924.162 525.164 927.354 520.376C928.95 517.183 930.546 512.394 930.546 507.606C930.546 504.413 928.95 501.221 928.95 498.028C927.354 494.836 924.161 493.239 920.969 493.239C917.777 493.239 914.585 494.836 912.988 498.028C911.392 501.221 909.796 504.413 909.796 509.202C908.2 515.587 908.2 518.779 909.796 521.972Z" fill="#231F20"/>
</svg>
