<svg width="203" height="69" viewBox="0 0 203 69" fill="none" xmlns="http://www.w3.org/2000/svg">
<path d="M3.04714 14.1271V1.60342H0.488281V16.6452H10.3654V14.1274L3.04714 14.1271ZM16.1831 5.04432C14.6581 5.04432 13.4291 5.36707 12.3141 6.05715L12.1744 6.14334L13.1721 8.09173L13.334 8.00109C14.1599 7.53747 15.0197 7.33121 16.1198 7.33121C17.3617 7.33121 18.0183 7.91549 18.0183 9.02135V9.57413C17.4074 9.35213 16.6439 9.24008 15.7425 9.24008C12.8863 9.24008 11.1813 10.6399 11.1813 12.9847C11.1813 15.6734 13.1878 16.8779 15.1763 16.8779C16.1745 16.8779 17.1906 16.4833 18.0174 15.7831V16.6449H20.4921V8.91495C20.4921 6.45479 18.9217 5.04432 16.1828 5.04432H16.1831ZM15.6795 11.4649C16.6579 11.4649 17.4056 11.5974 18.0177 11.8809V13.2819C17.526 13.9298 16.5797 14.5681 15.5328 14.5681C14.282 14.5681 13.5928 13.9836 13.5928 12.9217C13.5928 12.023 14.3919 11.4655 15.6792 11.4655L15.6795 11.4649ZM29.0671 8.84274V11.3166H31.4567C31.4109 13.1987 30.2386 14.3182 28.3015 14.3182C25.8966 14.3182 24.5166 12.4257 24.5166 9.12566C24.5166 5.82564 25.8969 3.93371 28.3015 3.93371C29.6783 3.93371 30.44 4.36761 31.213 5.59115L31.3075 5.74094L33.5322 4.36077L33.4481 4.21158C32.3702 2.30242 30.6869 1.37339 28.3024 1.37339C24.483 1.37339 21.9164 4.48886 21.9164 9.12507C21.9164 13.7613 24.4833 16.877 28.3021 16.877C31.7989 16.877 34.0586 14.4603 34.0586 10.7186V8.84274H29.0674H29.0671ZM42.3814 5.27643V11.8943C42.3814 13.5922 41.6404 14.5265 40.2958 14.5265C39.3243 14.5265 38.209 14.2032 38.209 11.6854V5.27643H35.6926V11.7689C35.6926 15.1105 37.1097 16.8776 39.7919 16.8776C40.799 16.8776 41.7625 16.5061 42.3817 15.9034V16.6452H44.8992V5.27672H42.3817L42.3814 5.27643ZM51.6804 5.04432C50.1563 5.04432 48.9263 5.36707 47.8122 6.05715L47.6726 6.14334L48.6696 8.09173L48.831 8.00109C49.6575 7.53747 50.517 7.33121 51.6177 7.33121C52.8589 7.33121 53.5152 7.91549 53.5152 9.02135V9.57413C52.9053 9.35213 52.1418 9.24008 51.2401 9.24008C48.3838 9.24008 46.6782 10.6399 46.6782 12.9847C46.6782 15.6734 48.6854 16.8779 50.6741 16.8779C51.6723 16.8779 52.6878 16.4833 53.5143 15.7831V16.6449H55.9891V8.91495C55.9897 6.45479 54.4184 5.04432 51.6801 5.04432H51.6804ZM51.1774 11.4652C52.1557 11.4652 52.9026 11.5977 53.5155 11.8812V13.2822C53.0223 13.9301 52.0767 14.5684 51.03 14.5684C49.7799 14.5684 49.0912 13.9839 49.0912 12.922C49.0912 12.0233 49.8904 11.4658 51.1777 11.4658L51.1774 11.4652ZM65.0317 5.53647C64.5222 5.19619 63.9164 5.04432 63.065 5.04432C62.1758 5.04432 61.321 5.40541 60.7286 6.00782V5.27672H58.2114V16.6452H60.7286V10.1742C60.7286 8.96399 61.0721 7.52082 62.7096 7.52082C63.327 7.52082 63.797 7.63376 64.2804 7.89826L64.4785 8.00614L65.139 5.60868L65.032 5.53736L65.0317 5.53647ZM72.6575 2.17908V6.06042C72.0586 5.54182 71.1245 5.04402 70.0684 5.04402C67.9839 5.04402 65.5496 6.54782 65.5496 10.7834C65.5496 14.6558 67.1589 16.8776 69.9638 16.8776C70.9168 16.8776 71.7802 16.537 72.6575 15.8119V16.6455H75.1537V0.881836L72.6575 2.17908ZM70.3628 14.5265C68.817 14.5265 68.0656 13.2813 68.0656 10.7189C68.0656 8.51315 68.8102 7.39511 70.279 7.39511C71.2297 7.39511 72.1786 8.07568 72.6795 8.72445V13.2367C72.02 14.0457 71.1569 14.5265 70.3628 14.5265ZM78.8326 4.20445C79.6793 4.20445 80.3947 3.4897 80.3947 2.64211C80.3947 1.76896 79.6942 1.05867 78.8329 1.05867C77.9594 1.05867 77.2488 1.76896 77.2488 2.64211C77.2488 3.50397 77.96 4.20475 78.8332 4.20475L78.8326 4.20445ZM77.5631 5.27643H80.0804V16.6452H77.5631V5.27643ZM86.7171 5.04432C85.1922 5.04432 83.9622 5.36707 82.8475 6.05715L82.7079 6.14334L83.7067 8.09173L83.8671 8.00109C84.6939 7.53747 85.5528 7.33121 86.653 7.33121C87.8948 7.33121 88.5505 7.91549 88.5505 9.02135V9.57413C87.9415 9.35213 87.1779 9.24008 86.2766 9.24008C83.42 9.24008 81.715 10.6399 81.715 12.9847C81.715 15.6734 83.721 16.8779 85.7094 16.8779C86.7082 16.8779 87.7243 16.4833 88.5505 15.7831V16.6449H91.0259V8.91495C91.0259 6.45479 89.4554 5.04432 86.7171 5.04432ZM86.2136 11.4652C87.1925 11.4652 87.9397 11.5977 88.5508 11.8812V13.2822C88.0594 13.9301 87.1141 14.5684 86.0662 14.5684C84.8154 14.5684 84.1274 13.9839 84.1274 12.922C84.1274 12.0233 84.9266 11.4658 86.2139 11.4658L86.2136 11.4652Z" fill="white"/>
<path d="M11.4867 59.0233L17.0387 60.9388V63.6074L8.65234 60.1288V57.8795L17.0387 54.401V57.0695L11.4867 59.0233ZM20.2432 66.1044H18.1491L23.3698 51.0368H25.464L20.2432 66.1044ZM38.6522 58.2894C38.6522 59.6555 38.4055 60.8532 37.9119 61.8824C37.4184 62.9118 36.7107 63.706 35.7887 64.265C34.8731 64.8242 33.8212 65.1037 32.6329 65.1037C31.4576 65.1037 30.4089 64.8273 29.4867 64.2745C28.5647 63.7218 27.8504 62.934 27.3439 61.911C26.8374 60.8816 26.5809 59.7 26.5745 58.3657V57.6795C26.5745 56.3134 26.8244 55.1126 27.3243 54.077C27.8308 53.0351 28.542 52.2376 29.4576 51.6848C30.3796 51.1258 31.4314 50.8461 32.6134 50.8461C33.7951 50.8461 34.8439 51.1258 35.7594 51.6848C36.6816 52.2376 37.3925 53.0351 37.8926 54.077C38.3991 55.1126 38.6522 56.3103 38.6522 57.6699V58.2894ZM35.6913 57.6603C35.6913 56.2054 35.425 55.0999 34.8926 54.3438C34.36 53.5878 33.6004 53.2098 32.6134 53.2098C31.6329 53.2098 30.8763 53.5845 30.3439 54.3342C29.8115 55.0777 29.542 56.1705 29.5354 57.6127V58.2894C29.5354 59.7063 29.8017 60.8055 30.3341 61.587C30.8665 62.3686 31.6329 62.7591 32.6329 62.7591C33.6133 62.7591 34.3666 62.3844 34.8926 61.6347C35.4184 60.8785 35.6847 59.7794 35.6913 58.337V57.6603ZM50.0776 59.8524C50.0776 61.4408 49.7074 62.7148 48.9671 63.6741C48.2335 64.6272 47.24 65.1037 45.9867 65.1037C44.9217 65.1037 44.0613 64.7416 43.4056 64.0173V68.8777H40.5906V54.6012H43.201L43.2983 55.6113C43.9801 54.8109 44.8698 54.4105 45.9672 54.4105C47.266 54.4105 48.2757 54.8807 48.9965 55.8211C49.7172 56.7613 50.0776 58.0575 50.0776 59.7094V59.8524ZM47.2626 59.6522C47.2626 58.6929 47.0874 57.9527 46.7368 57.4318C46.3925 56.9106 45.8894 56.6503 45.2269 56.6503C44.3438 56.6503 43.7368 56.9805 43.4056 57.6414V61.8634C43.7497 62.5432 44.3633 62.8831 45.2464 62.8831C46.5905 62.8831 47.2626 61.8062 47.2626 59.6522ZM56.6814 65.1037C55.1361 65.1037 53.8764 64.6399 52.9023 63.7122C51.9348 62.7847 51.4511 61.5488 51.4511 60.0049V59.7381C51.4511 58.7024 51.6555 57.778 52.0647 56.9647C52.4736 56.1451 53.0517 55.5161 53.7984 55.0777C54.5516 54.6329 55.4088 54.4105 56.3699 54.4105C57.8113 54.4105 58.9445 54.8554 59.7692 55.7448C60.6002 56.6343 61.0159 57.8955 61.0159 59.5284V60.6529H54.3048C54.3958 61.3265 54.6685 61.8665 55.1231 62.2731C55.5841 62.6799 56.1652 62.8831 56.8666 62.8831C57.9509 62.8831 58.7983 62.4987 59.4087 61.7299L60.7919 63.2453C60.3698 63.8297 59.7983 64.2872 59.0776 64.6177C58.3569 64.9417 57.5582 65.1037 56.6814 65.1037ZM56.3601 56.6407C55.8015 56.6407 55.3471 56.825 54.9964 57.1935C54.6523 57.562 54.4315 58.0894 54.3342 58.7754H58.2498V58.5562C58.2366 57.9463 58.0678 57.4761 57.7433 57.1458C57.4185 56.809 56.9575 56.6407 56.3601 56.6407ZM65.214 54.6012L65.3016 55.7924C66.0548 54.8712 67.0646 54.4105 68.3309 54.4105C69.4478 54.4105 70.2788 54.7314 70.8244 55.3732C71.3698 56.0148 71.649 56.9743 71.662 58.2514V64.9132H68.8471V58.3181C68.8471 57.7335 68.7173 57.311 68.4574 57.0504C68.1976 56.7836 67.766 56.6503 67.1619 56.6503C66.3698 56.6503 65.7755 56.9805 65.3796 57.6414V64.9132H62.5645V54.6012H65.214ZM90.0906 60.2908C89.9801 61.784 89.4152 62.9594 88.3958 63.817C87.3827 64.6748 86.0451 65.1037 84.3827 65.1037C82.5646 65.1037 81.1327 64.5064 80.0873 63.3119C79.0484 62.1111 78.5289 60.4655 78.5289 58.3753V57.527C78.5289 56.1928 78.7691 55.0174 79.2496 54.0007C79.7302 52.9841 80.4152 52.2058 81.3049 51.6659C82.201 51.1194 83.2399 50.8461 84.4218 50.8461C86.0581 50.8461 87.3763 51.2751 88.3763 52.1328C89.3763 52.9906 89.9541 54.1945 90.1099 55.7448H87.188C87.1165 54.8489 86.86 54.2009 86.4186 53.8006C85.9835 53.394 85.3178 53.1906 84.4218 53.1906C83.4477 53.1906 82.7172 53.5338 82.2301 54.2198C81.7497 54.8999 81.503 55.9576 81.4898 57.3935V58.4419C81.4898 59.9414 81.7204 61.0374 82.1814 61.7299C82.649 62.4224 83.3827 62.7687 84.3827 62.7687C85.2853 62.7687 85.9574 62.5686 86.399 62.1683C86.847 61.7617 87.1036 61.1358 87.1684 60.2908H90.0906ZM91.386 59.6618C91.386 58.6388 91.5873 57.7271 91.9898 56.9267C92.3924 56.126 92.9705 55.5065 93.7237 55.0681C94.4834 54.6297 95.3633 54.4105 96.3633 54.4105C97.7853 54.4105 98.9443 54.8362 99.8406 55.6876C100.743 56.539 101.246 57.6953 101.35 59.1566L101.37 59.862C101.37 61.444 100.918 62.7148 100.016 63.6741C99.1133 64.6272 97.9022 65.1037 96.3828 65.1037C94.8632 65.1037 93.6489 64.6272 92.7399 63.6741C91.8372 62.7211 91.386 61.425 91.386 59.7857V59.6618ZM94.2009 59.862C94.2009 60.8405 94.3892 61.5902 94.7658 62.1111C95.1424 62.6258 95.6814 62.8831 96.3828 62.8831C97.0646 62.8831 97.597 62.6289 97.98 62.1207C98.3632 61.606 98.5547 60.7864 98.5547 59.6618C98.5547 58.7024 98.3632 57.959 97.98 57.4318C97.597 56.9044 97.058 56.6407 96.3633 56.6407C95.6748 56.6407 95.1424 56.9044 94.7658 57.4318C94.3892 57.9527 94.2009 58.7627 94.2009 59.862ZM102.665 59.6809C102.665 58.0734 103.032 56.7931 103.766 55.8401C104.506 54.887 105.516 54.4105 106.795 54.4105C107.821 54.4105 108.668 54.7855 109.337 55.5352V50.2744H112.162V64.9132H109.62L109.483 63.817C108.782 64.6748 107.879 65.1037 106.776 65.1037C105.535 65.1037 104.539 64.6272 103.785 63.6741C103.039 62.7148 102.665 61.3837 102.665 59.6809ZM105.48 59.8809C105.48 60.8467 105.652 61.587 105.996 62.1015C106.34 62.6162 106.841 62.8735 107.496 62.8735C108.367 62.8735 108.98 62.5146 109.337 61.7967V57.7271C108.987 57.0092 108.38 56.6503 107.516 56.6503C106.159 56.6503 105.48 57.7271 105.48 59.8809ZM119.194 65.1037C117.649 65.1037 116.389 64.6399 115.415 63.7122C114.448 62.7847 113.964 61.5488 113.964 60.0049V59.7381C113.964 58.7024 114.168 57.778 114.578 56.9647C114.987 56.1451 115.565 55.5161 116.311 55.0777C117.065 54.6329 117.922 54.4105 118.883 54.4105C120.324 54.4105 121.457 54.8554 122.282 55.7448C123.113 56.6343 123.529 57.8955 123.529 59.5284V60.6529H116.818C116.909 61.3265 117.181 61.8665 117.636 62.2731C118.097 62.6799 118.678 62.8831 119.379 62.8831C120.464 62.8831 121.311 62.4987 121.922 61.7299L123.305 63.2453C122.883 63.8297 122.311 64.2872 121.591 64.6177C120.87 64.9417 120.071 65.1037 119.194 65.1037ZM118.873 56.6407C118.314 56.6407 117.86 56.825 117.509 57.1935C117.165 57.562 116.944 58.0894 116.847 58.7754H120.762V58.5562C120.75 57.9463 120.581 57.4761 120.256 57.1458C119.931 56.809 119.47 56.6407 118.873 56.6407ZM130.883 58.9946L125.224 57.06V54.4105L133.707 57.8891V60.1288L125.224 63.6169V60.958L130.883 58.9946Z" fill="#333333"/>
<path d="M19.9115 25.5716H12.6073V45.4281H7.69418V25.5716H0.488281V21.5938H19.9115V25.5716ZM29.0991 45.7556C26.5005 45.7556 24.3825 44.959 22.7448 43.3655C21.1179 41.7723 20.3045 39.6496 20.3045 36.9977V36.5394C20.3045 34.7605 20.6485 33.1726 21.3363 31.7758C22.0241 30.368 22.9957 29.2876 24.2513 28.5345C25.5179 27.7706 26.9591 27.3887 28.575 27.3887C30.9987 27.3887 32.9039 28.1526 34.2906 29.6804C35.6881 31.2083 36.3869 33.3745 36.3869 36.1792V38.1109H25.103C25.2559 39.2677 25.7145 40.1954 26.4787 40.8938C27.2538 41.5923 28.231 41.9415 29.4101 41.9415C31.2335 41.9415 32.6583 41.2812 33.6845 39.9606L36.0102 42.5635C35.3004 43.5675 34.3397 44.3531 33.1277 44.9206C31.9158 45.4772 30.573 45.7556 29.0991 45.7556ZM28.5586 31.2192C27.6197 31.2192 26.8553 31.5357 26.2657 32.1686C25.6872 32.8016 25.3158 33.7074 25.1521 34.886H31.7358V34.5095C31.7138 33.4618 31.4299 32.6543 30.8841 32.0868C30.3383 31.5084 29.563 31.2192 28.5586 31.2192ZM46.4587 41.9415C47.3322 41.9415 48.0419 41.7012 48.5877 41.2211C49.1336 40.741 49.4175 40.1025 49.4394 39.3059H53.8775C53.8665 40.5063 53.5391 41.6086 52.8949 42.6126C52.2508 43.6056 51.3664 44.3805 50.2418 44.937C49.1282 45.4828 47.8944 45.7556 46.5406 45.7556C44.0075 45.7556 42.0097 44.9534 40.5467 43.3491C39.0835 41.7339 38.352 39.5077 38.352 36.6703V36.3593C38.352 33.631 39.0781 31.4538 40.5301 29.8278C41.9823 28.2017 43.9748 27.3887 46.5078 27.3887C48.7241 27.3887 50.4983 28.0216 51.8304 29.2876C53.1734 30.5426 53.8557 32.2178 53.8775 34.3131H49.4394C49.4175 33.3964 49.1336 32.6543 48.5877 32.0868C48.0419 31.5084 47.3212 31.2192 46.426 31.2192C45.3232 31.2192 44.488 31.623 43.9202 32.4306C43.3634 33.2272 43.0849 34.5259 43.0849 36.3266V36.8176C43.0849 38.6401 43.3634 39.9497 43.9202 40.7463C44.4771 41.543 45.3232 41.9415 46.4587 41.9415ZM61.1981 29.6477C62.4536 28.1417 64.0312 27.3887 65.931 27.3887C69.7742 27.3887 71.7231 29.6204 71.7776 34.0839V45.4281H67.0446V34.2149C67.0446 33.1999 66.8262 32.4524 66.3896 31.9722C65.9528 31.4811 65.2269 31.2356 64.2115 31.2356C62.8248 31.2356 61.8203 31.7703 61.1981 32.8398V45.4281H56.4651V20.2842H61.1981V29.6477ZM95.0659 45.4281H90.1526V35.2134H80.5721V45.4281H75.6591V21.5938H80.5721V31.2519H90.1526V21.5938H95.0659V45.4281ZM104.057 45.4281H99.3075V27.7161H104.057V45.4281ZM99.029 23.1325C99.029 22.4232 99.2638 21.8393 99.7332 21.381C100.214 20.9226 100.863 20.6934 101.682 20.6934C102.49 20.6934 103.134 20.9226 103.615 21.381C104.095 21.8393 104.335 22.4232 104.335 23.1325C104.335 23.8528 104.09 24.4421 103.598 24.9005C103.118 25.3588 102.479 25.588 101.682 25.588C100.885 25.588 100.241 25.3588 99.7497 24.9005C99.2692 24.4421 99.029 23.8528 99.029 23.1325ZM117.928 32.1523C117.284 32.065 116.716 32.0213 116.225 32.0213C114.434 32.0213 113.261 32.627 112.704 33.8383V45.4281H107.971V27.7161H112.442L112.573 29.8278C113.523 28.2017 114.838 27.3887 116.52 27.3887C117.044 27.3887 117.535 27.4596 117.994 27.6015L117.928 32.1523ZM128.049 45.7556C125.451 45.7556 123.333 44.959 121.695 43.3655C120.068 41.7723 119.255 39.6496 119.255 36.9977V36.5394C119.255 34.7605 119.599 33.1726 120.287 31.7758C120.974 30.368 121.946 29.2876 123.202 28.5345C124.468 27.7706 125.909 27.3887 127.525 27.3887C129.949 27.3887 131.854 28.1526 133.241 29.6804C134.638 31.2083 135.337 33.3745 135.337 36.1792V38.1109H124.053C124.206 39.2677 124.665 40.1954 125.429 40.8938C126.204 41.5923 127.181 41.9415 128.36 41.9415C130.184 41.9415 131.609 41.2812 132.635 39.9606L134.96 42.5635C134.251 43.5675 133.29 44.3531 132.078 44.9206C130.866 45.4772 129.523 45.7556 128.049 45.7556ZM127.509 31.2192C126.57 31.2192 125.805 31.5357 125.216 32.1686C124.637 32.8016 124.266 33.7074 124.102 34.886H130.686V34.5095C130.664 33.4618 130.38 32.6543 129.834 32.0868C129.288 31.5084 128.513 31.2192 127.509 31.2192Z" fill="#333333"/>
<rect x="153.34" y="31.252" width="46.869" height="35.6106" fill="white"/>
<rect x="153.098" y="18.9795" width="48.5986" height="12.2726" fill="white"/>
<rect x="153.34" y="19.1006" width="46.869" height="12.1512" fill="#D92231"/>
<path d="M197.898 16.8779H155.648C152.956 16.8779 150.773 19.0605 150.773 21.7529V64.0029C150.773 66.6954 152.956 68.8779 155.648 68.8779H197.898C200.591 68.8779 202.773 66.6954 202.773 64.0029V21.7529C202.773 19.0605 200.591 16.8779 197.898 16.8779ZM199.523 64.0029C199.523 64.9004 198.796 65.6279 197.898 65.6279H155.648C154.751 65.6279 154.023 64.9004 154.023 64.0029V33.1279H199.523V64.0029ZM199.523 29.8779H154.023V21.7529C154.023 20.8554 154.751 20.1279 155.648 20.1279H197.898C198.796 20.1279 199.523 20.8554 199.523 21.7529V29.8779Z" fill="#333333"/>
<path d="M160.523 23.3779H157.273V26.6279H160.523V23.3779Z" fill="white"/>
<path d="M167.023 23.3779H163.773V26.6279H167.023V23.3779Z" fill="white"/>
<path d="M173.641 23.3779H170.391V26.6279H173.641V23.3779Z" fill="white"/>
<path d="M167.496 57.0315L169.787 54.7402L164.441 49.3777L169.787 44.0315L167.496 41.7402L160.996 48.2402C160.366 48.8741 160.366 49.8976 160.996 50.5315L167.496 57.0315Z" fill="#333333"/>
<path d="M186.049 57.0315L192.549 50.5315C193.179 49.8976 193.179 48.8741 192.549 48.2402L186.049 41.7402L183.758 44.0315L189.104 49.3777L183.758 54.724L186.049 57.0315Z" fill="#333333"/>
<path d="M181.533 41.8734L178.516 40.666L172.014 56.9142L175.031 58.1215L181.533 41.8734Z" fill="#333333"/>
</svg>
