<svg width="203" height="69" viewBox="0 0 203 69" fill="none" xmlns="http://www.w3.org/2000/svg">
<path d="M3.04714 13.715V1.19131H0.488281V16.2331H10.3654V13.7153L3.04714 13.715ZM16.1831 4.63221C14.6581 4.63221 13.4291 4.95496 12.3141 5.64504L12.1744 5.73123L13.1721 7.67962L13.334 7.58898C14.1599 7.12536 15.0197 6.9191 16.1198 6.9191C17.3617 6.9191 18.0183 7.50338 18.0183 8.60924V9.16202C17.4074 8.94002 16.6439 8.82797 15.7425 8.82797C12.8863 8.82797 11.1813 10.2277 11.1813 12.5726C11.1813 15.2613 13.1878 16.4658 15.1763 16.4658C16.1745 16.4658 17.1906 16.0712 18.0174 15.371V16.2328H20.4921V8.50284C20.4921 6.04268 18.9217 4.63221 16.1828 4.63221H16.1831ZM15.6795 11.0528C16.6579 11.0528 17.4056 11.1853 18.0177 11.4688V12.8698C17.526 13.5177 16.5797 14.156 15.5328 14.156C14.282 14.156 13.5928 13.5715 13.5928 12.5096C13.5928 11.6109 14.3919 11.0533 15.6792 11.0533L15.6795 11.0528ZM29.0671 8.43063V10.9045H31.4567C31.4109 12.7866 30.2386 13.9061 28.3015 13.9061C25.8966 13.9061 24.5166 12.0136 24.5166 8.71355C24.5166 5.41353 25.8969 3.5216 28.3015 3.5216C29.6783 3.5216 30.44 3.9555 31.213 5.17904L31.3075 5.32883L33.5321 3.94866L33.4481 3.79947C32.3702 1.89031 30.6869 0.961281 28.3024 0.961281C24.483 0.961281 21.9164 4.07675 21.9164 8.71296C21.9164 13.3492 24.4833 16.4649 28.3021 16.4649C31.7989 16.4649 34.0586 14.0482 34.0586 10.3065V8.43063H29.0674H29.0671ZM42.3814 4.86432V11.4822C42.3814 13.1801 41.6404 14.1144 40.2958 14.1144C39.3243 14.1144 38.209 13.7911 38.209 11.2733V4.86432H35.6926V11.3568C35.6926 14.6984 37.1097 16.4655 39.7919 16.4655C40.799 16.4655 41.7625 16.094 42.3817 15.4913V16.2331H44.8992V4.86461H42.3817L42.3814 4.86432ZM51.6804 4.63221C50.1563 4.63221 48.9263 4.95496 47.8122 5.64504L47.6726 5.73123L48.6696 7.67962L48.831 7.58898C49.6575 7.12536 50.517 6.9191 51.6177 6.9191C52.8589 6.9191 53.5152 7.50338 53.5152 8.60924V9.16202C52.9053 8.94002 52.1418 8.82797 51.2401 8.82797C48.3838 8.82797 46.6782 10.2277 46.6782 12.5726C46.6782 15.2613 48.6854 16.4658 50.6741 16.4658C51.6723 16.4658 52.6878 16.0712 53.5143 15.371V16.2328H55.9891V8.50284C55.9897 6.04268 54.4184 4.63221 51.6801 4.63221H51.6804ZM51.1774 11.053C52.1557 11.053 52.9026 11.1856 53.5155 11.4691V12.8701C53.0223 13.518 52.0767 14.1563 51.03 14.1563C49.7799 14.1563 49.0912 13.5718 49.0912 12.5099C49.0912 11.6112 49.8904 11.0536 51.1777 11.0536L51.1774 11.053ZM65.0317 5.12436C64.5222 4.78408 63.9164 4.63221 63.065 4.63221C62.1758 4.63221 61.321 4.9933 60.7286 5.59571V4.86461H58.2114V16.2331H60.7286V9.76205C60.7286 8.55188 61.0721 7.10871 62.7096 7.10871C63.327 7.10871 63.797 7.22165 64.2804 7.48615L64.4785 7.59403L65.139 5.19657L65.032 5.12525L65.0317 5.12436ZM72.6575 1.76697V5.64831C72.0586 5.12971 71.1245 4.63191 70.0683 4.63191C67.9839 4.63191 65.5496 6.13571 65.5496 10.3713C65.5496 14.2437 67.1589 16.4655 69.9638 16.4655C70.9168 16.4655 71.7802 16.1249 72.6575 15.3998V16.2334H75.1537V0.469727L72.6575 1.76697ZM70.3628 14.1144C68.817 14.1144 68.0656 12.8692 68.0656 10.3068C68.0656 8.10104 68.8102 6.983 70.279 6.983C71.2297 6.983 72.1786 7.66357 72.6795 8.31234V12.8246C72.02 13.6336 71.1569 14.1144 70.3628 14.1144V14.1144ZM78.8326 3.79234C79.6793 3.79234 80.3947 3.07759 80.3947 2.23C80.3947 1.35685 79.6942 0.646556 78.8329 0.646556C77.9594 0.646556 77.2488 1.35685 77.2488 2.23C77.2488 3.09186 77.96 3.79264 78.8332 3.79264L78.8326 3.79234ZM77.5631 4.86432H80.0804V16.2331H77.5631V4.86432ZM86.7171 4.63221C85.1922 4.63221 83.9622 4.95496 82.8475 5.64504L82.7079 5.73123L83.7067 7.67962L83.8671 7.58898C84.6939 7.12536 85.5528 6.9191 86.653 6.9191C87.8948 6.9191 88.5505 7.50338 88.5505 8.60924V9.16202C87.9415 8.94002 87.1779 8.82797 86.2766 8.82797C83.42 8.82797 81.715 10.2277 81.715 12.5726C81.715 15.2613 83.721 16.4658 85.7094 16.4658C86.7082 16.4658 87.7243 16.0712 88.5505 15.371V16.2328H91.0259V8.50284C91.0259 6.04268 89.4554 4.63221 86.7171 4.63221V4.63221ZM86.2136 11.053C87.1925 11.053 87.9397 11.1856 88.5508 11.4691V12.8701C88.0594 13.518 87.1141 14.1563 86.0662 14.1563C84.8154 14.1563 84.1274 13.5718 84.1274 12.5099C84.1274 11.6112 84.9266 11.0536 86.2139 11.0536L86.2136 11.053Z" fill="white"/>
<path d="M11.4867 58.6112L17.0387 60.5267V63.1953L8.65234 59.7167V57.4674L17.0387 53.9889V56.6574L11.4867 58.6112ZM20.2432 65.6923H18.1491L23.3698 50.6247H25.464L20.2432 65.6923ZM38.6522 57.8773C38.6522 59.2434 38.4055 60.441 37.9119 61.4702C37.4184 62.4996 36.7107 63.2938 35.7887 63.8528C34.8731 64.412 33.8212 64.6916 32.6329 64.6916C31.4576 64.6916 30.4089 64.4152 29.4867 63.8624C28.5647 63.3097 27.8504 62.5219 27.3439 61.4989C26.8374 60.4695 26.5809 59.2879 26.5745 57.9536V57.2674C26.5745 55.9013 26.8244 54.7005 27.3243 53.6649C27.8308 52.623 28.542 51.8255 29.4576 51.2727C30.3796 50.7137 31.4314 50.434 32.6134 50.434C33.7951 50.434 34.8439 50.7137 35.7594 51.2727C36.6816 51.8255 37.3925 52.623 37.8926 53.6649C38.3991 54.7005 38.6522 55.8982 38.6522 57.2578V57.8773ZM35.6913 57.2482C35.6913 55.7933 35.425 54.6878 34.8926 53.9317C34.36 53.1757 33.6004 52.7977 32.6134 52.7977C31.6329 52.7977 30.8763 53.1724 30.3439 53.9221C29.8115 54.6656 29.542 55.7584 29.5354 57.2006V57.8773C29.5354 59.2941 29.8017 60.3934 30.3341 61.1749C30.8665 61.9564 31.6329 62.347 32.6329 62.347C33.6133 62.347 34.3666 61.9723 34.8926 61.2226C35.4184 60.4664 35.6847 59.3673 35.6913 57.9249V57.2482ZM50.0776 59.4403C50.0776 61.0287 49.7074 62.3027 48.9671 63.262C48.2335 64.2151 47.24 64.6916 45.9867 64.6916C44.9217 64.6916 44.0613 64.3295 43.4056 63.6052V68.4656H40.5906V54.1891H43.201L43.2983 55.1992C43.9801 54.3988 44.8698 53.9984 45.9672 53.9984C47.266 53.9984 48.2757 54.4686 48.9965 55.409C49.7172 56.3492 50.0776 57.6454 50.0776 59.2973V59.4403ZM47.2626 59.2401C47.2626 58.2808 47.0874 57.5406 46.7368 57.0197C46.3925 56.4985 45.8894 56.2382 45.2269 56.2382C44.3438 56.2382 43.7368 56.5684 43.4056 57.2293V61.4513C43.7497 62.1311 44.3633 62.4709 45.2464 62.4709C46.5905 62.4709 47.2626 61.3941 47.2626 59.2401ZM56.6814 64.6916C55.1361 64.6916 53.8763 64.2278 52.9023 63.3001C51.9348 62.3726 51.4511 61.1367 51.4511 59.5928V59.326C51.4511 58.2903 51.6555 57.3659 52.0647 56.5526C52.4736 55.733 53.0517 55.104 53.7984 54.6656C54.5516 54.2207 55.4088 53.9984 56.3699 53.9984C57.8113 53.9984 58.9445 54.4433 59.7692 55.3327C60.6002 56.2222 61.0159 57.4834 61.0159 59.1163V60.2408H54.3048C54.3958 60.9144 54.6685 61.4544 55.1231 61.861C55.5841 62.2678 56.1652 62.4709 56.8666 62.4709C57.9509 62.4709 58.7983 62.0866 59.4087 61.3178L60.7919 62.8332C60.3698 63.4176 59.7983 63.8751 59.0776 64.2055C58.3569 64.5295 57.5582 64.6916 56.6814 64.6916ZM56.3601 56.2286C55.8015 56.2286 55.3471 56.4128 54.9964 56.7814C54.6523 57.1499 54.4315 57.6772 54.3342 58.3633H58.2498V58.1441C58.2366 57.5342 58.0678 57.064 57.7433 56.7337C57.4185 56.3968 56.9575 56.2286 56.3601 56.2286ZM65.214 54.1891L65.3016 55.3803C66.0548 54.4591 67.0646 53.9984 68.3309 53.9984C69.4478 53.9984 70.2788 54.3193 70.8244 54.9611C71.3698 55.6026 71.649 56.5622 71.662 57.8392V64.5011H68.8471V57.906C68.8471 57.3214 68.7173 56.8989 68.4574 56.6383C68.1976 56.3715 67.766 56.2382 67.1619 56.2382C66.3698 56.2382 65.7755 56.5684 65.3796 57.2293V64.5011H62.5645V54.1891H65.214ZM90.0906 59.8787C89.9801 61.3719 89.4152 62.5473 88.3958 63.4049C87.3827 64.2627 86.0451 64.6916 84.3827 64.6916C82.5646 64.6916 81.1327 64.0943 80.0873 62.8998C79.0484 61.699 78.5289 60.0534 78.5289 57.9632V57.1149C78.5289 55.7807 78.7691 54.6053 79.2496 53.5885C79.7302 52.572 80.4152 51.7936 81.3049 51.2538C82.201 50.7073 83.2399 50.434 84.4218 50.434C86.0581 50.434 87.3763 50.863 88.3763 51.7206C89.3763 52.5785 89.9541 53.7824 90.1099 55.3327H87.188C87.1165 54.4368 86.86 53.7888 86.4186 53.3885C85.9835 52.9819 85.3178 52.7785 84.4218 52.7785C83.4477 52.7785 82.7172 53.1217 82.2301 53.8077C81.7497 54.4878 81.503 55.5455 81.4898 56.9814V58.0297C81.4898 59.5293 81.7204 60.6253 82.1814 61.3178C82.649 62.0103 83.3827 62.3566 84.3827 62.3566C85.2853 62.3566 85.9574 62.1565 86.399 61.7562C86.847 61.3496 87.1036 60.7237 87.1684 59.8787H90.0906ZM91.386 59.2496C91.386 58.2267 91.5873 57.315 91.9898 56.5145C92.3924 55.7139 92.9705 55.0944 93.7237 54.656C94.4834 54.2176 95.3633 53.9984 96.3633 53.9984C97.7853 53.9984 98.9443 54.4241 99.8406 55.2755C100.743 56.1269 101.246 57.2832 101.35 58.7445L101.37 59.4499C101.37 61.0319 100.918 62.3027 100.016 63.262C99.1133 64.2151 97.9022 64.6916 96.3828 64.6916C94.8632 64.6916 93.6489 64.2151 92.7399 63.262C91.8372 62.3089 91.386 61.0129 91.386 59.3736V59.2496ZM94.2009 59.4499C94.2009 60.4284 94.3892 61.1781 94.7658 61.699C95.1424 62.2137 95.6814 62.4709 96.3828 62.4709C97.0646 62.4709 97.597 62.2168 97.98 61.7086C98.3632 61.1939 98.5547 60.3743 98.5547 59.2496C98.5547 58.2903 98.3632 57.5469 97.98 57.0197C97.597 56.4923 97.058 56.2286 96.3633 56.2286C95.6748 56.2286 95.1424 56.4923 94.7658 57.0197C94.3892 57.5406 94.2009 58.3506 94.2009 59.4499ZM102.665 59.2688C102.665 57.6612 103.032 56.381 103.766 55.428C104.506 54.4749 105.516 53.9984 106.795 53.9984C107.821 53.9984 108.668 54.3734 109.337 55.1231V49.8623H112.162V64.5011H109.62L109.483 63.4049C108.782 64.2627 107.879 64.6916 106.776 64.6916C105.535 64.6916 104.539 64.2151 103.785 63.262C103.039 62.3027 102.665 60.9716 102.665 59.2688ZM105.48 59.4688C105.48 60.4346 105.652 61.1749 105.996 61.6894C106.34 62.2041 106.841 62.4614 107.496 62.4614C108.367 62.4614 108.98 62.1024 109.337 61.3846V57.315C108.987 56.5971 108.38 56.2382 107.516 56.2382C106.159 56.2382 105.48 57.315 105.48 59.4688ZM119.194 64.6916C117.649 64.6916 116.389 64.2278 115.415 63.3001C114.448 62.3726 113.964 61.1367 113.964 59.5928V59.326C113.964 58.2903 114.168 57.3659 114.578 56.5526C114.987 55.733 115.565 55.104 116.311 54.6656C117.065 54.2207 117.922 53.9984 118.883 53.9984C120.324 53.9984 121.457 54.4433 122.282 55.3327C123.113 56.2222 123.529 57.4834 123.529 59.1163V60.2408H116.818C116.909 60.9144 117.181 61.4544 117.636 61.861C118.097 62.2678 118.678 62.4709 119.379 62.4709C120.464 62.4709 121.311 62.0866 121.922 61.3178L123.305 62.8332C122.883 63.4176 122.311 63.8751 121.591 64.2055C120.87 64.5295 120.071 64.6916 119.194 64.6916ZM118.873 56.2286C118.314 56.2286 117.86 56.4128 117.509 56.7814C117.165 57.1499 116.944 57.6772 116.847 58.3633H120.762V58.1441C120.75 57.5342 120.581 57.064 120.256 56.7337C119.931 56.3968 119.47 56.2286 118.873 56.2286ZM130.883 58.5825L125.224 56.6479V53.9984L133.707 57.477V59.7167L125.224 63.2048V60.5459L130.883 58.5825Z" fill="#333333"/>
<path d="M19.9115 25.1595H12.6073V45.016H7.69418V25.1595H0.488281V21.1817H19.9115V25.1595ZM29.0991 45.3435C26.5005 45.3435 24.3825 44.5469 22.7448 42.9534C21.1179 41.3602 20.3045 39.2375 20.3045 36.5856V36.1273C20.3045 34.3484 20.6485 32.7605 21.3363 31.3636C22.0241 29.9558 22.9957 28.8755 24.2513 28.1224C25.5179 27.3585 26.9591 26.9765 28.575 26.9765C30.9987 26.9765 32.9039 27.7405 34.2906 29.2683C35.6881 30.7962 36.3869 32.9624 36.3869 35.7671V37.6988H25.103C25.2559 38.8556 25.7145 39.7833 26.4787 40.4817C27.2538 41.1802 28.231 41.5294 29.4101 41.5294C31.2335 41.5294 32.6583 40.869 33.6845 39.5485L36.0101 42.1514C35.3004 43.1554 34.3397 43.941 33.1277 44.5085C31.9158 45.0651 30.573 45.3435 29.0991 45.3435ZM28.5586 30.8071C27.6197 30.8071 26.8553 31.1236 26.2657 31.7565C25.6872 32.3895 25.3158 33.2953 25.1521 34.4739H31.7358V34.0974C31.7138 33.0497 31.4299 32.2422 30.8841 31.6747C30.3383 31.0963 29.563 30.8071 28.5586 30.8071ZM46.4587 41.5294C47.3322 41.5294 48.0419 41.2891 48.5877 40.809C49.1336 40.3289 49.4175 39.6904 49.4394 38.8938H53.8775C53.8665 40.0942 53.5391 41.1965 52.8949 42.2005C52.2508 43.1935 51.3664 43.9683 50.2418 44.5249C49.1282 45.0707 47.8944 45.3435 46.5406 45.3435C44.0075 45.3435 42.0097 44.5413 40.5467 42.937C39.0835 41.3218 38.352 39.0956 38.352 36.2582V35.9472C38.352 33.2189 39.0781 31.0417 40.5301 29.4156C41.9823 27.7896 43.9748 26.9765 46.5078 26.9765C48.7241 26.9765 50.4983 27.6095 51.8304 28.8755C53.1734 30.1305 53.8557 31.8056 53.8775 33.901H49.4394C49.4175 32.9843 49.1336 32.2422 48.5877 31.6747C48.0419 31.0963 47.3212 30.8071 46.426 30.8071C45.3231 30.8071 44.488 31.2109 43.9203 32.0185C43.3634 32.8151 43.0849 34.1138 43.0849 35.9144V36.4055C43.0849 38.228 43.3634 39.5376 43.9203 40.3342C44.4771 41.1309 45.3231 41.5294 46.4587 41.5294ZM61.1981 29.2356C62.4536 27.7296 64.0312 26.9765 65.931 26.9765C69.7742 26.9765 71.7231 29.2083 71.7776 33.6718V45.016H67.0446V33.8028C67.0446 32.7878 66.8262 32.0403 66.3896 31.5601C65.9528 31.069 65.2269 30.8235 64.2115 30.8235C62.8248 30.8235 61.8203 31.3582 61.1981 32.4277V45.016H56.4651V19.8721H61.1981V29.2356ZM95.0659 45.016H90.1526V34.8013H80.5721V45.016H75.6591V21.1817H80.5721V30.8398H90.1526V21.1817H95.0659V45.016ZM104.057 45.016H99.3075V27.304H104.057V45.016ZM99.029 22.7204C99.029 22.011 99.2638 21.4272 99.7332 20.9688C100.214 20.5105 100.863 20.2813 101.682 20.2813C102.49 20.2813 103.134 20.5105 103.615 20.9688C104.095 21.4272 104.335 22.011 104.335 22.7204C104.335 23.4407 104.09 24.03 103.598 24.4883C103.118 24.9467 102.479 25.1759 101.682 25.1759C100.885 25.1759 100.241 24.9467 99.7497 24.4883C99.2692 24.03 99.029 23.4407 99.029 22.7204ZM117.928 31.7402C117.284 31.6528 116.716 31.6092 116.225 31.6092C114.434 31.6092 113.261 32.2149 112.704 33.4262V45.016H107.971V27.304H112.442L112.573 29.4156C113.523 27.7896 114.838 26.9765 116.52 26.9765C117.044 26.9765 117.535 27.0475 117.994 27.1894L117.928 31.7402ZM128.049 45.3435C125.451 45.3435 123.333 44.5469 121.695 42.9534C120.068 41.3602 119.255 39.2375 119.255 36.5856V36.1273C119.255 34.3484 119.599 32.7605 120.287 31.3636C120.974 29.9558 121.946 28.8755 123.202 28.1224C124.468 27.3585 125.909 26.9765 127.525 26.9765C129.949 26.9765 131.854 27.7405 133.241 29.2683C134.638 30.7962 135.337 32.9624 135.337 35.7671V37.6988H124.053C124.206 38.8556 124.665 39.7833 125.429 40.4817C126.204 41.1802 127.181 41.5294 128.36 41.5294C130.184 41.5294 131.609 40.869 132.635 39.5485L134.96 42.1514C134.251 43.1554 133.29 43.941 132.078 44.5085C130.866 45.0651 129.523 45.3435 128.049 45.3435ZM127.509 30.8071C126.57 30.8071 125.805 31.1236 125.216 31.7565C124.637 32.3895 124.266 33.2953 124.102 34.4739H130.686V34.0974C130.664 33.0497 130.38 32.2422 129.834 31.6747C129.289 31.0963 128.513 30.8071 127.509 30.8071Z" fill="#333333"/>
<rect x="153.34" y="30.8398" width="46.869" height="35.6106" fill="white"/>
<rect x="153.098" y="18.5674" width="48.5986" height="12.2726" fill="white"/>
<rect x="153.34" y="18.6885" width="46.869" height="12.1512" fill="#F1AD1F"/>
<path d="M197.898 16.4658H155.648C152.956 16.4658 150.773 18.6484 150.773 21.3408V63.5908C150.773 66.2832 152.956 68.4658 155.648 68.4658H197.898C200.591 68.4658 202.773 66.2832 202.773 63.5908V21.3408C202.773 18.6484 200.591 16.4658 197.898 16.4658ZM199.523 63.5908C199.523 64.4883 198.796 65.2158 197.898 65.2158H155.648C154.751 65.2158 154.023 64.4883 154.023 63.5908V32.7158H199.523V63.5908ZM199.523 29.4658H154.023V21.3408C154.023 20.4433 154.751 19.7158 155.648 19.7158H197.898C198.796 19.7158 199.523 20.4433 199.523 21.3408V29.4658Z" fill="#333333"/>
<path d="M160.523 22.9658H157.273V26.2158H160.523V22.9658Z" fill="white"/>
<path d="M167.023 22.9658H163.773V26.2158H167.023V22.9658Z" fill="white"/>
<path d="M173.641 22.9658H170.391V26.2158H173.641V22.9658Z" fill="white"/>
<path d="M167.496 56.6194L169.787 54.3281L164.441 48.9656L169.787 43.6194L167.496 41.3281L160.996 47.8281C160.366 48.462 160.366 49.4855 160.996 50.1194L167.496 56.6194Z" fill="#333333"/>
<path d="M186.049 56.6194L192.549 50.1194C193.179 49.4855 193.179 48.462 192.549 47.8281L186.049 41.3281L183.758 43.6194L189.104 48.9656L183.758 54.3119L186.049 56.6194Z" fill="#333333"/>
<path d="M181.533 41.4613L178.516 40.2539L172.014 56.5021L175.031 57.7094L181.533 41.4613Z" fill="#333333"/>
</svg>
