<svg width="2299" height="2638" viewBox="0 0 2299 2638" fill="none" xmlns="http://www.w3.org/2000/svg">
<path d="M1795.42 1155.52C1795.9 1155.52 1796.38 1155.48 1796.87 1155.38C1800.93 1154.59 1803.58 1150.65 1802.79 1146.58C1801.96 1142.35 1801.97 1140.04 1801.99 1135.44L1801.99 1133.36C1801.99 1102.38 1819.05 1074.24 1846.5 1059.91C1849.59 1058.3 1851.74 1055.28 1852.27 1051.84C1854.56 1036.98 1862.1 1023.36 1873.5 1013.46C1885.01 1003.48 1899.75 997.978 1915 997.978C1926.42 997.978 1937.62 1001.06 1947.39 1006.88C1950.17 1008.54 1953.52 1008.88 1956.57 1007.84C1959.62 1006.79 1962.05 1004.45 1963.22 1001.43C1972.8 976.817 1996.02 960.912 2022.38 960.912C2038.71 960.912 2054.23 967.127 2066.08 978.413C2070.14 982.278 2076.41 982.449 2080.68 978.811C2096.01 965.727 2115.56 958.521 2135.72 958.521C2143.13 958.521 2154.86 960.159 2162.43 962.25C2166.42 963.35 2170.55 961.012 2171.66 957.019C2172.76 953.026 2170.42 948.895 2166.43 947.792C2157.47 945.317 2144.56 943.521 2135.72 943.521C2113.2 943.521 2091.33 951.161 2073.73 965.105C2059.46 952.702 2041.36 945.913 2022.38 945.913C2006.26 945.913 1990.78 950.773 1977.59 959.969C1965.99 968.063 1956.88 978.985 1951.04 991.748C1939.94 985.999 1927.58 982.979 1915 982.979C1896.14 982.979 1877.91 989.782 1863.67 1002.13C1850.1 1013.91 1840.95 1029.98 1837.78 1047.57C1806.4 1064.76 1786.99 1097.45 1786.99 1133.36L1786.98 1135.39C1786.97 1140.26 1786.95 1143.77 1788.07 1149.46C1788.77 1153.04 1791.9 1155.52 1795.42 1155.52V1155.52Z" fill="#535757"/>
<path d="M2298.93 1105.86C2298.93 1085.76 2291.99 1066.09 2279.4 1050.47C2267.54 1035.76 2251.12 1025.17 2232.96 1020.46C2227.6 997.861 2214.5 977.772 2195.86 963.679C2192.56 961.18 2187.85 961.833 2185.35 965.137C2182.86 968.441 2183.51 973.145 2186.81 975.643C2203.24 988.066 2214.61 1005.96 2218.83 1026.03C2219.72 1030.21 2222.98 1033.53 2227.15 1034.49C2243.02 1038.1 2257.43 1047.12 2267.73 1059.89C2278.33 1073.03 2283.93 1088.93 2283.93 1105.86C2283.93 1130.53 2271.64 1153.39 2251.05 1167C2247.45 1169.38 2245.57 1173.64 2246.24 1177.85C2246.71 1180.73 2246.94 1183.67 2246.94 1186.57C2246.94 1216.72 2222.47 1241.25 2192.4 1241.25C2187.59 1241.25 2182.81 1240.61 2178.18 1239.36C2173.07 1237.98 2167.73 1240.45 2165.47 1245.22C2152.57 1272.59 2124.73 1290.27 2094.56 1290.27C2072.11 1290.27 2050.69 1280.59 2035.8 1263.7C2031.85 1259.23 2025.19 1258.71 2020.62 1262.53C2006.58 1274.25 1988.77 1280.71 1970.48 1280.71C1935.76 1280.71 1904.79 1257.39 1895.15 1224.01C1893.81 1219.37 1889.48 1216.14 1884.58 1216.14C1884.57 1216.14 1884.57 1216.14 1884.57 1216.14C1854.26 1216.14 1826.44 1199.54 1811.95 1172.82C1809.98 1169.18 1805.43 1167.83 1801.79 1169.8C1798.14 1171.78 1796.79 1176.33 1798.77 1179.97C1815.4 1210.66 1846.95 1230.05 1881.64 1231.09C1894.05 1269.29 1930.14 1295.71 1970.47 1295.71C1990.97 1295.71 2010.96 1288.91 2027.18 1276.48C2044.76 1294.83 2069.1 1305.27 2094.56 1305.27C2129.38 1305.27 2161.59 1285.51 2177.55 1254.65C2182.41 1255.71 2187.4 1256.25 2192.4 1256.25C2230.74 1256.25 2261.94 1224.99 2261.94 1186.57C2261.94 1183.75 2261.76 1180.91 2261.42 1178.09C2284.95 1161.54 2298.93 1134.73 2298.93 1105.86V1105.86Z" fill="#535757"/>
<path d="M1889.95 1297.4C1866.22 1297.4 1846.91 1316.74 1846.91 1340.52C1846.91 1364.3 1866.22 1383.64 1889.95 1383.64C1913.68 1383.64 1932.99 1364.3 1932.99 1340.52C1932.99 1316.74 1913.68 1297.4 1889.95 1297.4V1297.4ZM1889.95 1368.64C1874.49 1368.64 1861.91 1356.02 1861.91 1340.52C1861.91 1325.01 1874.49 1312.4 1889.95 1312.4C1905.41 1312.4 1917.99 1325.01 1917.99 1340.52C1917.99 1356.02 1905.41 1368.64 1889.95 1368.64V1368.64Z" fill="#535757"/>
<path d="M1817.75 1379.77C1800.75 1379.77 1786.93 1393.62 1786.93 1410.65C1786.93 1427.67 1800.75 1441.52 1817.75 1441.52C1834.75 1441.52 1848.58 1427.67 1848.58 1410.65C1848.58 1393.62 1834.75 1379.77 1817.75 1379.77ZM1817.75 1426.52C1809.02 1426.52 1801.93 1419.4 1801.93 1410.65C1801.93 1401.89 1809.02 1394.77 1817.75 1394.77C1826.48 1394.77 1833.58 1401.89 1833.58 1410.65C1833.58 1419.4 1826.48 1426.52 1817.75 1426.52Z" fill="#535757"/>
<path d="M561.212 700.915C561.689 700.915 562.173 700.869 562.659 700.774C566.724 699.98 569.376 696.04 568.581 691.975C567.753 687.739 567.761 685.432 567.778 680.836L567.783 678.756C567.783 647.777 584.838 619.631 612.293 605.303C615.378 603.693 617.536 600.674 618.065 597.228C620.351 582.374 627.889 568.748 639.292 558.857C650.805 548.871 665.542 543.371 680.789 543.371C692.215 543.371 703.417 546.448 713.184 552.27C715.965 553.928 719.309 554.277 722.359 553.228C725.412 552.179 727.838 549.844 729.013 546.824C738.596 522.21 761.817 506.305 788.17 506.305C804.5 506.305 820.02 512.52 831.872 523.806C835.932 527.671 842.207 527.842 846.471 524.204C861.803 511.12 881.352 503.914 901.517 503.914C908.924 503.914 920.655 505.552 928.223 507.643C932.213 508.743 936.347 506.405 937.45 502.412C938.554 498.419 936.211 494.288 932.219 493.185C923.262 490.71 910.35 488.914 901.517 488.914C878.994 488.914 857.123 496.554 839.526 510.498C825.252 498.095 807.155 491.306 788.17 491.306C772.054 491.306 756.568 496.166 743.386 505.362C731.784 513.456 722.673 524.378 716.829 537.141C705.736 531.392 693.37 528.372 680.788 528.372C661.93 528.372 643.702 535.175 629.462 547.527C615.889 559.301 606.747 575.37 603.572 592.959C572.191 610.156 552.782 642.845 552.782 678.757L552.777 680.783C552.76 685.649 552.747 689.165 553.859 694.853C554.559 698.432 557.697 700.915 561.212 700.915V700.915Z" fill="#535757"/>
<path d="M1064.72 651.255C1064.72 631.148 1057.79 611.478 1045.2 595.867C1033.33 581.153 1016.92 570.564 998.754 565.855C993.395 543.253 980.291 523.164 961.654 509.071C958.349 506.572 953.647 507.225 951.148 510.529C948.649 513.833 949.302 518.537 952.606 521.035C969.034 533.458 980.407 551.352 984.628 571.419C985.509 575.607 988.774 578.927 992.948 579.878C1008.82 583.495 1023.23 592.517 1033.52 605.283C1044.12 618.424 1049.72 634.32 1049.72 651.255C1049.72 675.925 1037.43 698.781 1016.84 712.396C1013.25 714.776 1011.36 719.032 1012.03 723.239C1012.5 726.126 1012.73 729.061 1012.73 731.965C1012.73 762.113 988.266 786.641 958.191 786.641C953.383 786.641 948.6 786.007 943.973 784.756C938.863 783.374 933.52 785.84 931.267 790.617C918.359 817.982 890.524 835.664 860.354 835.664C837.899 835.664 816.48 825.978 801.591 809.089C797.648 804.618 790.98 804.102 786.412 807.919C772.373 819.642 754.565 826.099 736.269 826.099C701.557 826.099 670.583 802.784 660.945 769.401C659.608 764.767 655.269 761.532 650.37 761.532C650.368 761.532 650.365 761.532 650.363 761.532C620.056 761.532 592.232 744.933 577.748 718.214C575.774 714.572 571.222 713.219 567.58 715.194C563.938 717.168 562.587 721.72 564.56 725.362C581.197 756.052 612.743 775.439 647.43 776.487C659.84 814.682 695.936 841.099 736.268 841.099C756.766 841.099 776.75 834.298 792.972 821.874C810.552 840.219 834.89 850.664 860.353 850.664C895.177 850.664 927.384 830.903 943.339 800.038C948.208 801.102 953.189 801.641 958.189 801.641C996.535 801.641 1027.73 770.385 1027.73 731.965C1027.73 729.143 1027.56 726.3 1027.21 723.479C1050.75 706.936 1064.72 680.126 1064.72 651.255V651.255Z" fill="#535757"/>
<path d="M655.743 842.791C632.009 842.791 612.699 862.135 612.699 885.912C612.699 909.688 632.009 929.032 655.743 929.032C679.477 929.032 698.787 909.688 698.787 885.912C698.787 862.135 679.477 842.791 655.743 842.791V842.791ZM655.743 914.032C640.28 914.032 627.699 901.417 627.699 885.912C627.699 870.406 640.28 857.791 655.743 857.791C671.206 857.791 683.787 870.406 683.787 885.912C683.787 901.417 671.206 914.032 655.743 914.032V914.032Z" fill="#535757"/>
<path d="M583.545 925.162C566.547 925.162 552.719 939.013 552.719 956.038C552.719 973.063 566.547 986.914 583.545 986.914C600.543 986.914 614.371 973.063 614.371 956.038C614.371 939.013 600.542 925.162 583.545 925.162ZM583.545 971.914C574.818 971.914 567.719 964.792 567.719 956.038C567.719 947.284 574.818 940.162 583.545 940.162C592.272 940.162 599.371 947.284 599.371 956.038C599.371 964.792 592.271 971.914 583.545 971.914Z" fill="#535757"/>
<path d="M504.366 1217.27C503.889 1217.27 503.405 1217.23 502.919 1217.13C498.854 1216.34 496.202 1212.4 496.997 1208.33C497.825 1204.1 497.817 1201.79 497.8 1197.2L497.795 1195.12C497.795 1164.14 480.74 1135.99 453.285 1121.66C450.2 1120.05 448.042 1117.03 447.513 1113.59C445.227 1098.73 437.689 1085.11 426.286 1075.22C414.773 1065.23 400.036 1059.73 384.789 1059.73C373.363 1059.73 362.161 1062.81 352.394 1068.63C349.613 1070.29 346.269 1070.64 343.219 1069.59C340.166 1068.54 337.74 1066.2 336.565 1063.18C326.982 1038.57 303.761 1022.66 277.408 1022.66C261.078 1022.66 245.558 1028.88 233.706 1040.17C229.646 1044.03 223.371 1044.2 219.107 1040.56C203.775 1027.48 184.226 1020.27 164.061 1020.27C156.654 1020.27 144.923 1021.91 137.355 1024C133.365 1025.1 129.231 1022.76 128.128 1018.77C127.024 1014.78 129.367 1010.65 133.359 1009.54C142.316 1007.07 155.228 1005.27 164.061 1005.27C186.584 1005.27 208.455 1012.91 226.052 1026.86C240.326 1014.45 258.423 1007.67 277.408 1007.67C293.524 1007.67 309.01 1012.53 322.192 1021.72C333.794 1029.82 342.905 1040.74 348.749 1053.5C359.842 1047.75 372.208 1044.73 384.79 1044.73C403.648 1044.73 421.876 1051.53 436.116 1063.89C449.689 1075.66 458.831 1091.73 462.006 1109.32C493.387 1126.52 512.796 1159.2 512.796 1195.12L512.801 1197.14C512.818 1202.01 512.831 1205.52 511.719 1211.21C511.019 1214.79 507.881 1217.27 504.366 1217.27V1217.27Z" fill="#535757"/>
<path d="M0.858398 1167.61C0.858398 1147.51 7.7914 1127.84 20.3804 1112.23C32.2464 1097.51 48.6624 1086.92 66.8244 1082.21C72.1834 1059.61 85.2874 1039.52 103.924 1025.43C107.229 1022.93 111.931 1023.58 114.43 1026.89C116.929 1030.19 116.276 1034.9 112.972 1037.39C96.5444 1049.82 85.1714 1067.71 80.9504 1087.78C80.0694 1091.97 76.8044 1095.29 72.6304 1096.24C56.7614 1099.85 42.3524 1108.88 32.0574 1121.64C21.4594 1134.78 15.8584 1150.68 15.8584 1167.61C15.8584 1192.28 28.1484 1215.14 48.7334 1228.76C52.3314 1231.14 54.2194 1235.39 53.5434 1239.6C53.0794 1242.49 52.8444 1245.42 52.8444 1248.32C52.8444 1278.47 77.3124 1303 107.387 1303C112.195 1303 116.978 1302.37 121.605 1301.12C126.715 1299.73 132.058 1302.2 134.311 1306.98C147.219 1334.34 175.054 1352.02 205.224 1352.02C227.679 1352.02 249.098 1342.34 263.987 1325.45C267.93 1320.98 274.598 1320.46 279.166 1324.28C293.205 1336 311.013 1342.46 329.309 1342.46C364.021 1342.46 394.995 1319.14 404.633 1285.76C405.97 1281.13 410.309 1277.89 415.208 1277.89C415.21 1277.89 415.213 1277.89 415.215 1277.89C445.522 1277.89 473.346 1261.29 487.83 1234.57C489.804 1230.93 494.356 1229.58 497.998 1231.55C501.64 1233.53 502.991 1238.08 501.018 1241.72C484.381 1272.41 452.835 1291.8 418.148 1292.85C405.738 1331.04 369.642 1357.46 329.31 1357.46C308.812 1357.46 288.828 1350.66 272.606 1338.23C255.026 1356.58 230.688 1367.02 205.225 1367.02C170.401 1367.02 138.194 1347.26 122.239 1316.4C117.37 1317.46 112.389 1318 107.389 1318C69.0434 1318 37.8464 1286.74 37.8464 1248.32C37.8464 1245.5 38.0204 1242.66 38.3654 1239.84C14.8314 1223.3 0.858398 1196.49 0.858398 1167.61V1167.61Z" fill="#535757"/>
<path d="M409.835 1359.15C433.569 1359.15 452.879 1378.49 452.879 1402.27C452.879 1426.05 433.569 1445.39 409.835 1445.39C386.101 1445.39 366.791 1426.05 366.791 1402.27C366.791 1378.49 386.101 1359.15 409.835 1359.15V1359.15ZM409.835 1430.39C425.298 1430.39 437.879 1417.78 437.879 1402.27C437.879 1386.77 425.298 1374.15 409.835 1374.15C394.372 1374.15 381.791 1386.77 381.791 1402.27C381.791 1417.78 394.372 1430.39 409.835 1430.39V1430.39Z" fill="#535757"/>
<path d="M482.033 1441.52C499.031 1441.52 512.859 1455.37 512.859 1472.4C512.859 1489.42 499.031 1503.27 482.033 1503.27C465.035 1503.27 451.207 1489.42 451.207 1472.4C451.207 1455.37 465.036 1441.52 482.033 1441.52ZM482.033 1488.27C490.76 1488.27 497.859 1481.15 497.859 1472.4C497.859 1463.64 490.76 1456.52 482.033 1456.52C473.306 1456.52 466.207 1463.64 466.207 1472.4C466.207 1481.15 473.307 1488.27 482.033 1488.27Z" fill="#535757"/>
<path d="M1312.23 1159.39C1311.75 1159.39 1311.26 1159.35 1310.78 1159.25C1306.71 1158.46 1304.06 1154.52 1304.86 1150.45C1305.68 1146.22 1305.68 1143.91 1305.66 1139.31L1305.65 1137.23C1305.65 1106.25 1288.6 1078.11 1261.14 1063.78C1258.06 1062.17 1255.9 1059.15 1255.37 1055.7C1253.09 1040.85 1245.55 1027.22 1234.15 1017.33C1222.63 1007.35 1207.9 1001.85 1192.65 1001.85C1181.22 1001.85 1170.02 1004.92 1160.25 1010.75C1157.47 1012.4 1154.13 1012.75 1151.08 1011.7C1148.03 1010.66 1145.6 1008.32 1144.42 1005.3C1134.84 980.687 1111.62 964.782 1085.27 964.782C1068.94 964.782 1053.42 970.997 1041.57 982.283C1037.51 986.148 1031.23 986.319 1026.97 982.681C1011.63 969.597 992.085 962.391 971.92 962.391C964.513 962.391 952.782 964.029 945.214 966.12C941.224 967.22 937.09 964.882 935.987 960.889C934.883 956.896 937.226 952.765 941.218 951.662C950.175 949.187 963.087 947.391 971.92 947.391C994.443 947.391 1016.31 955.031 1033.91 968.975C1048.19 956.572 1066.28 949.783 1085.27 949.783C1101.38 949.783 1116.87 954.643 1130.05 963.839C1141.65 971.933 1150.76 982.855 1156.61 995.618C1167.7 989.869 1180.07 986.849 1192.65 986.849C1211.51 986.849 1229.74 993.652 1243.98 1006C1257.55 1017.78 1266.69 1033.85 1269.87 1051.44C1301.25 1068.63 1320.66 1101.32 1320.66 1137.23L1320.66 1139.26C1320.68 1144.13 1320.69 1147.64 1319.58 1153.33C1318.88 1156.91 1315.74 1159.39 1312.23 1159.39V1159.39Z" fill="#535757"/>
<path d="M808.718 1109.73C808.718 1089.63 815.651 1069.96 828.24 1054.34C840.106 1039.63 856.522 1029.04 874.684 1024.33C880.043 1001.73 893.147 981.641 911.784 967.548C915.089 965.049 919.791 965.702 922.29 969.006C924.789 972.31 924.136 977.014 920.832 979.512C904.404 991.935 893.031 1009.83 888.81 1029.9C887.929 1034.08 884.664 1037.4 880.49 1038.36C864.621 1041.97 850.212 1050.99 839.917 1063.76C829.319 1076.9 823.718 1092.8 823.718 1109.73C823.718 1134.4 836.008 1157.26 856.593 1170.87C860.191 1173.25 862.079 1177.51 861.403 1181.72C860.939 1184.6 860.704 1187.54 860.704 1190.44C860.704 1220.59 885.172 1245.12 915.247 1245.12C920.055 1245.12 924.838 1244.48 929.465 1243.23C934.575 1241.85 939.918 1244.32 942.171 1249.09C955.079 1276.46 982.914 1294.14 1013.08 1294.14C1035.54 1294.14 1056.96 1284.46 1071.85 1267.57C1075.79 1263.1 1082.46 1262.58 1087.03 1266.4C1101.06 1278.12 1118.87 1284.58 1137.17 1284.58C1171.88 1284.58 1202.85 1261.26 1212.49 1227.88C1213.83 1223.24 1218.17 1220.01 1223.07 1220.01C1223.07 1220.01 1223.07 1220.01 1223.07 1220.01C1253.38 1220.01 1281.21 1203.41 1295.69 1176.69C1297.66 1173.05 1302.22 1171.7 1305.86 1173.67C1309.5 1175.65 1310.85 1180.2 1308.88 1183.84C1292.24 1214.53 1260.69 1233.92 1226.01 1234.96C1213.6 1273.16 1177.5 1299.58 1137.17 1299.58C1116.67 1299.58 1096.69 1292.78 1080.47 1280.35C1062.89 1298.7 1038.55 1309.14 1013.08 1309.14C978.261 1309.14 946.054 1289.38 930.099 1258.52C925.23 1259.58 920.249 1260.12 915.249 1260.12C876.903 1260.12 845.706 1228.86 845.706 1190.44C845.706 1187.62 845.88 1184.78 846.225 1181.96C822.691 1165.41 808.718 1138.6 808.718 1109.73V1109.73Z" fill="#535757"/>
<path d="M1217.69 1301.27C1241.43 1301.27 1260.74 1320.61 1260.74 1344.39C1260.74 1368.16 1241.43 1387.51 1217.69 1387.51C1193.96 1387.51 1174.65 1368.16 1174.65 1344.39C1174.65 1320.61 1193.96 1301.27 1217.69 1301.27V1301.27ZM1217.69 1372.51C1233.16 1372.51 1245.74 1359.89 1245.74 1344.39C1245.74 1328.88 1233.16 1316.27 1217.69 1316.27C1202.23 1316.27 1189.65 1328.88 1189.65 1344.39C1189.65 1359.89 1202.23 1372.51 1217.69 1372.51V1372.51Z" fill="#535757"/>
<path d="M1289.89 1383.64C1306.89 1383.64 1320.72 1397.49 1320.72 1414.51C1320.72 1431.54 1306.89 1445.39 1289.89 1445.39C1272.89 1445.39 1259.07 1431.54 1259.07 1414.51C1259.07 1397.49 1272.9 1383.64 1289.89 1383.64ZM1289.89 1430.39C1298.62 1430.39 1305.72 1423.27 1305.72 1414.51C1305.72 1405.76 1298.62 1398.64 1289.89 1398.64C1281.17 1398.64 1274.07 1405.76 1274.07 1414.51C1274.07 1423.27 1281.17 1430.39 1289.89 1430.39Z" fill="#535757"/>
<path d="M1653.94 737.913C1653.47 737.913 1652.98 737.867 1652.5 737.772C1648.43 736.978 1645.78 733.038 1646.57 728.973C1647.4 724.737 1647.39 722.43 1647.38 717.834L1647.37 715.754C1647.37 684.775 1630.32 656.629 1602.86 642.301C1599.78 640.691 1597.62 637.672 1597.09 634.226C1594.8 619.372 1587.27 605.746 1575.86 595.855C1564.35 585.869 1549.61 580.369 1534.37 580.369C1522.94 580.369 1511.74 583.446 1501.97 589.268C1499.19 590.926 1495.85 591.275 1492.8 590.226C1489.74 589.177 1487.32 586.842 1486.14 583.822C1476.56 559.208 1453.34 543.303 1426.99 543.303C1410.66 543.303 1395.14 549.518 1383.28 560.804C1379.22 564.669 1372.95 564.84 1368.68 561.202C1353.35 548.118 1333.8 540.912 1313.64 540.912C1306.23 540.912 1294.5 542.55 1286.93 544.641C1282.94 545.741 1278.81 543.403 1277.71 539.41C1276.6 535.417 1278.94 531.286 1282.94 530.183C1291.89 527.708 1304.81 525.912 1313.64 525.912C1336.16 525.912 1358.03 533.552 1375.63 547.496C1389.9 535.093 1408 528.304 1426.99 528.304C1443.1 528.304 1458.59 533.164 1471.77 542.36C1483.37 550.454 1492.48 561.376 1498.33 574.139C1509.42 568.39 1521.79 565.37 1534.37 565.37C1553.23 565.37 1571.45 572.173 1585.69 584.525C1599.27 596.299 1608.41 612.368 1611.58 629.957C1642.96 647.154 1662.37 679.843 1662.37 715.755L1662.38 717.781C1662.4 722.647 1662.41 726.163 1661.3 731.851C1660.6 735.43 1657.46 737.913 1653.94 737.913V737.913Z" fill="#535757"/>
<path d="M1150.44 688.254C1150.44 668.147 1157.37 648.477 1169.96 632.866C1181.82 618.152 1198.24 607.563 1216.4 602.854C1221.76 580.252 1234.87 560.163 1253.5 546.07C1256.81 543.571 1261.51 544.224 1264.01 547.528C1266.51 550.832 1265.85 555.536 1262.55 558.034C1246.12 570.457 1234.75 588.351 1230.53 608.418C1229.65 612.606 1226.38 615.926 1222.21 616.877C1206.34 620.494 1191.93 629.516 1181.64 642.282C1171.04 655.423 1165.44 671.319 1165.44 688.254C1165.44 712.924 1177.73 735.78 1198.31 749.395C1201.91 751.775 1203.8 756.031 1203.12 760.238C1202.66 763.125 1202.42 766.06 1202.42 768.964C1202.42 799.112 1226.89 823.64 1256.97 823.64C1261.77 823.64 1266.56 823.006 1271.18 821.755C1276.29 820.373 1281.64 822.839 1283.89 827.616C1296.8 854.981 1324.63 872.663 1354.8 872.663C1377.26 872.663 1398.68 862.977 1413.57 846.088C1417.51 841.617 1424.18 841.101 1428.74 844.918C1442.78 856.641 1460.59 863.098 1478.89 863.098C1513.6 863.098 1544.57 839.783 1554.21 806.4C1555.55 801.766 1559.89 798.531 1564.79 798.531C1564.79 798.531 1564.79 798.531 1564.79 798.531C1595.1 798.531 1622.92 781.932 1637.41 755.213C1639.38 751.571 1643.93 750.218 1647.58 752.193C1651.22 754.167 1652.57 758.719 1650.6 762.361C1633.96 793.051 1602.41 812.438 1567.73 813.486C1555.32 851.681 1519.22 878.098 1478.89 878.098C1458.39 878.098 1438.41 871.297 1422.18 858.873C1404.6 877.218 1380.27 887.663 1354.8 887.663C1319.98 887.663 1287.77 867.902 1271.82 837.037C1266.95 838.101 1261.97 838.64 1256.97 838.64C1218.62 838.64 1187.42 807.384 1187.42 768.964C1187.42 766.142 1187.6 763.299 1187.94 760.478C1164.41 743.935 1150.44 717.125 1150.44 688.254V688.254Z" fill="#535757"/>
<path d="M1559.41 879.789C1583.15 879.789 1602.46 899.133 1602.46 922.91C1602.46 946.686 1583.15 966.03 1559.41 966.03C1535.68 966.03 1516.37 946.686 1516.37 922.91C1516.37 899.133 1535.68 879.789 1559.41 879.789V879.789ZM1559.41 951.03C1574.88 951.03 1587.46 938.415 1587.46 922.91C1587.46 907.404 1574.88 894.789 1559.41 894.789C1543.95 894.789 1531.37 907.404 1531.37 922.91C1531.37 938.415 1543.95 951.03 1559.41 951.03V951.03Z" fill="#535757"/>
<path d="M1631.61 962.16C1648.61 962.16 1662.44 976.011 1662.44 993.036C1662.44 1010.06 1648.61 1023.91 1631.61 1023.91C1614.61 1023.91 1600.79 1010.06 1600.79 993.036C1600.79 976.011 1614.61 962.16 1631.61 962.16ZM1631.61 1008.91C1640.34 1008.91 1647.44 1001.79 1647.44 993.036C1647.44 984.282 1640.34 977.16 1631.61 977.16C1622.88 977.16 1615.79 984.282 1615.79 993.036C1615.79 1001.79 1622.89 1008.91 1631.61 1008.91Z" fill="#535757"/>
<path d="M1128.1 212.905C1128.58 212.905 1129.06 212.859 1129.55 212.764C1133.62 211.97 1136.27 208.03 1135.47 203.965C1134.64 199.729 1134.65 197.422 1134.67 192.826L1134.67 190.746C1134.67 159.767 1151.73 131.621 1179.18 117.293C1182.27 115.683 1184.43 112.664 1184.96 109.218C1187.24 94.3643 1194.78 80.7383 1206.18 70.8473C1217.7 60.8613 1232.43 55.3613 1247.68 55.3613C1259.11 55.3613 1270.31 58.4383 1280.08 64.2603C1282.86 65.9183 1286.2 66.2673 1289.25 65.2183C1292.3 64.1693 1294.73 61.8343 1295.9 58.8143C1305.49 34.2003 1328.71 18.2953 1355.06 18.2953C1371.39 18.2953 1386.91 24.5103 1398.76 35.7963C1402.82 39.6613 1409.1 39.8323 1413.36 36.1943C1428.69 23.1103 1448.24 15.9043 1468.41 15.9043C1475.82 15.9043 1487.55 17.5423 1495.11 19.6333C1499.1 20.7333 1503.24 18.3953 1504.34 14.4023C1505.45 10.4093 1503.1 6.2783 1499.11 5.1753C1490.15 2.7003 1477.24 0.904297 1468.41 0.904297C1445.89 0.904297 1424.01 8.5443 1406.42 22.4883C1392.14 10.0853 1374.05 3.2963 1355.06 3.2963C1338.95 3.2963 1323.46 8.1563 1310.28 17.3523C1298.68 25.4463 1289.56 36.3683 1283.72 49.1313C1272.63 43.3823 1260.26 40.3623 1247.68 40.3623C1228.82 40.3623 1210.59 47.1653 1196.35 59.5173C1182.78 71.2913 1173.64 87.3603 1170.46 104.949C1139.08 122.146 1119.67 154.835 1119.67 190.747L1119.67 192.773C1119.65 197.639 1119.64 201.155 1120.75 206.843C1121.45 210.422 1124.59 212.905 1128.1 212.905V212.905Z" fill="#535757"/>
<path d="M1631.61 163.246C1631.61 143.139 1624.68 123.469 1612.09 107.858C1600.22 93.1437 1583.81 82.5547 1565.64 77.8457C1560.29 55.2437 1547.18 35.1547 1528.54 21.0617C1525.24 18.5627 1520.54 19.2157 1518.04 22.5197C1515.54 25.8237 1516.19 30.5277 1519.5 33.0257C1535.92 45.4487 1547.3 63.3427 1551.52 83.4097C1552.4 87.5977 1555.66 90.9177 1559.84 91.8687C1575.71 95.4857 1590.12 104.508 1600.41 117.274C1611.01 130.415 1616.61 146.311 1616.61 163.246C1616.61 187.916 1604.32 210.772 1583.74 224.387C1580.14 226.767 1578.25 231.023 1578.93 235.23C1579.39 238.117 1579.62 241.052 1579.62 243.956C1579.62 274.104 1555.16 298.632 1525.08 298.632C1520.27 298.632 1515.49 297.998 1510.86 296.747C1505.75 295.365 1500.41 297.831 1498.16 302.608C1485.25 329.973 1457.41 347.655 1427.24 347.655C1404.79 347.655 1383.37 337.969 1368.48 321.08C1364.54 316.609 1357.87 316.093 1353.3 319.91C1339.26 331.633 1321.46 338.09 1303.16 338.09C1268.45 338.09 1237.47 314.775 1227.84 281.392C1226.5 276.758 1222.16 273.523 1217.26 273.523C1217.26 273.523 1217.26 273.523 1217.25 273.523C1186.95 273.523 1159.12 256.924 1144.64 230.205C1142.66 226.563 1138.11 225.21 1134.47 227.185C1130.83 229.159 1129.48 233.711 1131.45 237.353C1148.09 268.043 1179.63 287.43 1214.32 288.478C1226.73 326.673 1262.83 353.09 1303.16 353.09C1323.66 353.09 1343.64 346.289 1359.86 333.865C1377.44 352.21 1401.78 362.655 1427.24 362.655C1462.07 362.655 1494.27 342.894 1510.23 312.029C1515.1 313.093 1520.08 313.632 1525.08 313.632C1563.43 313.632 1594.62 282.376 1594.62 243.956C1594.62 241.134 1594.45 238.291 1594.1 235.47C1617.64 218.927 1631.61 192.117 1631.61 163.246V163.246Z" fill="#535757"/>
<path d="M1222.63 354.781C1198.9 354.781 1179.59 374.125 1179.59 397.902C1179.59 421.678 1198.9 441.022 1222.63 441.022C1246.37 441.022 1265.68 421.678 1265.68 397.902C1265.68 374.125 1246.37 354.781 1222.63 354.781V354.781ZM1222.63 426.022C1207.17 426.022 1194.59 413.407 1194.59 397.902C1194.59 382.396 1207.17 369.781 1222.63 369.781C1238.1 369.781 1250.68 382.396 1250.68 397.902C1250.68 413.407 1238.1 426.022 1222.63 426.022V426.022Z" fill="#535757"/>
<path d="M1150.44 437.152C1133.44 437.152 1119.61 451.003 1119.61 468.028C1119.61 485.053 1133.44 498.904 1150.44 498.904C1167.43 498.904 1181.26 485.053 1181.26 468.028C1181.26 451.003 1167.43 437.152 1150.44 437.152ZM1150.44 483.904C1141.71 483.904 1134.61 476.782 1134.61 468.028C1134.61 459.274 1141.71 452.152 1150.44 452.152C1159.16 452.152 1166.26 459.274 1166.26 468.028C1166.26 476.782 1159.16 483.904 1150.44 483.904Z" fill="#535757"/>
<path d="M1517.15 1939.03L1701.75 1891.43C1719.77 1886.78 1737.12 1869.78 1742.11 1851.87L1788.48 1685.87C1791.31 1675.76 1789.67 1665.42 1783.98 1657.47C1778.29 1649.51 1769.01 1644.61 1758.52 1644.01L1738.71 1642.96C1719.56 1642.96 1700.97 1656.62 1695.44 1674.73L1665.13 1773.84C1662.36 1782.89 1651.46 1793.15 1642.24 1795.4L1505.14 1821.97C1486.06 1826.6 1470.69 1845.59 1470.15 1865.19C1470.15 1865.19 1468.41 1925.14 1474.31 1931.22C1479.96 1937.02 1487.78 1943.26 1517.15 1939.03Z" fill="#3C4FAF"/>
<path d="M1640 1746.77C1645.61 1746.77 1651.11 1746.32 1656.56 1745.67L1679.71 1669.94C1687.27 1645.19 1712.64 1626.53 1738.72 1626.53L1759.4 1627.59C1765.02 1627.91 1770.29 1629.35 1775.3 1631.29C1776.44 1624.2 1777.19 1616.98 1777.19 1609.58C1777.19 1533.94 1715.65 1472.4 1640.01 1472.4C1564.37 1472.4 1502.83 1533.94 1502.83 1609.58C1502.83 1685.22 1564.36 1746.77 1640 1746.77Z" fill="#3C4FAF"/>
<path d="M1813.53 1804.76C1805.9 1794.13 1792.49 1785.75 1778.81 1781.72L1757.97 1856.3C1751.41 1879.78 1729.51 1901.27 1705.88 1907.37L1521.26 1954.97C1512.49 1956.32 1506.16 1956.87 1500.11 1956.87C1498.46 1956.87 1497 1956.75 1495.48 1956.67V2198.26V2204.63V2573.85C1495.48 2608.75 1523.87 2637.15 1558.77 2637.15H1563.24C1598.14 2637.15 1626.54 2608.75 1626.54 2573.85V2242.59H1653.45V2573.84C1653.45 2608.74 1681.85 2637.14 1716.75 2637.14H1721.21C1756.11 2637.14 1784.5 2608.74 1784.5 2573.84V2204.61V2198.25V2196.73H1788.48C1806.82 2196.73 1828.24 2184.21 1837.26 2168.22L1925.14 2012.2C1934.34 1995.88 1932.99 1971.19 1922.06 1955.98L1813.53 1804.76ZM1826.88 2009.67L1784.52 2078.68V1921.57L1826.05 1981.17C1831.14 1988.49 1831.55 2002.08 1826.88 2009.67Z" fill="#3C4FAF"/>
<path d="M1034.27 1939.03L1218.87 1891.43C1236.88 1886.78 1254.24 1869.78 1259.23 1851.87L1305.6 1685.87C1308.42 1675.76 1306.79 1665.42 1301.09 1657.47C1295.41 1649.51 1286.13 1644.61 1275.63 1644.01L1255.82 1642.96C1236.68 1642.96 1218.08 1656.62 1212.55 1674.73L1182.25 1773.84C1179.47 1782.89 1168.57 1793.15 1159.36 1795.4L1022.26 1821.97C1003.18 1826.6 987.809 1845.59 987.265 1865.19C987.265 1865.19 985.531 1925.14 991.43 1931.22C997.076 1937.02 1004.9 1943.26 1034.27 1939.03Z" fill="#3C4FAF"/>
<path d="M1157.11 1746.77C1162.72 1746.77 1168.23 1746.32 1173.67 1745.67L1196.83 1669.94C1204.38 1645.19 1229.75 1626.53 1255.83 1626.53L1276.52 1627.59C1282.14 1627.91 1287.41 1629.35 1292.42 1631.29C1293.56 1624.2 1294.3 1616.98 1294.3 1609.58C1294.3 1533.94 1232.77 1472.4 1157.13 1472.4C1081.49 1472.4 1019.95 1533.94 1019.95 1609.58C1019.95 1685.22 1081.47 1746.77 1157.11 1746.77Z" fill="#3C4FAF"/>
<path d="M1330.65 1804.76C1323.02 1794.13 1309.61 1785.75 1295.93 1781.72L1275.09 1856.3C1268.53 1879.78 1246.63 1901.27 1222.99 1907.37L1038.38 1954.97C1029.61 1956.32 1023.28 1956.87 1017.23 1956.87C1015.58 1956.87 1014.11 1956.75 1012.59 1956.67V2198.26V2204.63V2573.85C1012.59 2608.75 1040.99 2637.15 1075.89 2637.15H1080.36C1115.26 2637.15 1143.66 2608.75 1143.66 2573.85V2242.59H1170.57V2573.84C1170.57 2608.74 1198.97 2637.14 1233.87 2637.14H1238.32C1273.23 2637.14 1301.62 2608.74 1301.62 2573.84V2204.61V2198.25V2196.73H1305.6C1323.94 2196.73 1345.36 2184.21 1354.37 2168.22L1442.26 2012.2C1451.46 1995.88 1450.1 1971.19 1439.18 1955.98L1330.65 1804.76ZM1343.99 2009.67L1301.63 2078.68V1921.57L1343.17 1981.17C1348.26 1988.49 1348.66 2002.08 1343.99 2009.67Z" fill="#3C4FAF"/>
<path d="M865.293 1939.03L680.693 1891.43C662.678 1886.78 645.322 1869.78 640.334 1851.87L593.963 1685.87C591.14 1675.76 592.773 1665.42 598.469 1657.47C604.154 1649.51 613.433 1644.61 623.928 1644.01L643.74 1642.96C662.881 1642.96 681.478 1656.62 687.01 1674.73L717.316 1773.84C720.089 1782.89 730.989 1793.15 740.205 1795.4L877.307 1821.97C896.384 1826.6 911.753 1845.59 912.297 1865.19C912.297 1865.19 914.032 1925.14 908.132 1931.22C902.486 1937.02 894.663 1943.26 865.293 1939.03Z" fill="#3C4FAF"/>
<path d="M742.448 1746.77C736.84 1746.77 731.333 1746.32 725.89 1745.67L702.735 1669.94C695.178 1645.19 669.808 1626.53 643.73 1626.53L623.044 1627.59C617.423 1627.91 612.157 1629.35 607.144 1631.29C606.004 1624.2 605.258 1616.98 605.258 1609.58C605.258 1533.94 666.795 1472.4 742.435 1472.4C818.076 1472.4 879.613 1533.94 879.613 1609.58C879.613 1685.22 818.088 1746.77 742.448 1746.77Z" fill="#3C4FAF"/>
<path d="M568.913 1804.76C576.546 1794.13 589.953 1785.75 603.637 1781.72L624.475 1856.3C631.032 1879.78 652.933 1901.27 676.569 1907.37L861.181 1954.97C869.954 1956.32 876.284 1956.87 882.335 1956.87C883.981 1956.87 885.45 1956.75 886.969 1956.67V2198.26V2204.63V2573.85C886.969 2608.75 858.574 2637.15 823.671 2637.15H819.203C784.301 2637.15 755.905 2608.75 755.905 2573.85V2242.59H728.991V2573.84C728.991 2608.74 700.596 2637.14 665.694 2637.14H661.238C626.336 2637.14 597.941 2608.74 597.941 2573.84V2204.61V2198.25V2196.73H593.966C575.622 2196.73 554.202 2184.21 545.189 2168.22L457.307 2012.2C448.103 1995.88 449.458 1971.19 460.383 1955.98L568.913 1804.76ZM555.57 2009.67L597.928 2078.68V1921.57L556.392 1981.17C551.303 1988.49 550.898 2002.08 555.57 2009.67Z" fill="#3C4FAF"/>
<path d="M1300.03 176.975H1319.61V200.375C1317.51 202.125 1314.98 203.4 1312.03 204.2C1309.13 205 1306.26 205.4 1303.41 205.4C1300.06 205.4 1296.93 204.875 1294.03 203.825C1291.18 202.775 1288.71 201.15 1286.61 198.95C1284.51 196.7 1282.86 193.85 1281.66 190.4C1280.46 186.95 1279.86 182.85 1279.86 178.1C1279.86 173.15 1280.56 168.95 1281.96 165.5C1283.41 162 1285.28 159.175 1287.58 157.025C1289.93 154.825 1292.56 153.25 1295.46 152.3C1298.36 151.3 1301.31 150.8 1304.31 150.8C1307.31 150.8 1309.93 151.025 1312.18 151.475C1314.48 151.925 1316.31 152.4 1317.66 152.9L1315.56 161.525C1314.31 161.025 1312.91 160.65 1311.36 160.4C1309.81 160.1 1307.83 159.95 1305.43 159.95C1303.28 159.95 1301.31 160.275 1299.51 160.925C1297.71 161.575 1296.13 162.65 1294.78 164.15C1293.48 165.6 1292.46 167.475 1291.71 169.775C1291.01 172.075 1290.66 174.875 1290.66 178.175C1290.66 181.325 1291.01 184.05 1291.71 186.35C1292.41 188.6 1293.38 190.475 1294.63 191.975C1295.88 193.425 1297.33 194.5 1298.98 195.2C1300.68 195.9 1302.48 196.25 1304.38 196.25C1305.68 196.25 1306.96 196.1 1308.21 195.8C1309.46 195.45 1310.51 194.95 1311.36 194.3V184.4L1300.03 183.2V176.975ZM1337.04 191.75C1337.04 193.5 1337.26 194.775 1337.71 195.575C1338.16 196.375 1338.89 196.775 1339.89 196.775C1340.49 196.775 1341.06 196.725 1341.61 196.625C1342.21 196.525 1342.94 196.3 1343.79 195.95L1344.84 203.6C1344.04 204 1342.81 204.4 1341.16 204.8C1339.51 205.2 1337.81 205.4 1336.06 205.4C1333.21 205.4 1331.04 204.75 1329.54 203.45C1328.04 202.1 1327.29 199.9 1327.29 196.85V151.85H1337.04V191.75ZM1347.23 185.6C1347.23 179.25 1348.78 174.375 1351.88 170.975C1354.98 167.525 1359.33 165.8 1364.93 165.8C1367.93 165.8 1370.53 166.275 1372.73 167.225C1374.93 168.175 1376.76 169.525 1378.21 171.275C1379.66 172.975 1380.73 175.05 1381.43 177.5C1382.18 179.95 1382.56 182.65 1382.56 185.6C1382.56 191.95 1381.01 196.85 1377.91 200.3C1374.86 203.7 1370.53 205.4 1364.93 205.4C1361.93 205.4 1359.33 204.925 1357.13 203.975C1354.93 203.025 1353.08 201.7 1351.58 200C1350.13 198.25 1349.03 196.15 1348.28 193.7C1347.58 191.25 1347.23 188.55 1347.23 185.6ZM1357.28 185.6C1357.28 187.25 1357.43 188.775 1357.73 190.175C1358.03 191.575 1358.48 192.8 1359.08 193.85C1359.68 194.9 1360.46 195.725 1361.41 196.325C1362.41 196.875 1363.58 197.15 1364.93 197.15C1367.48 197.15 1369.38 196.225 1370.63 194.375C1371.88 192.525 1372.51 189.6 1372.51 185.6C1372.51 182.15 1371.93 179.375 1370.78 177.275C1369.63 175.125 1367.68 174.05 1364.93 174.05C1362.53 174.05 1360.66 174.95 1359.31 176.75C1357.96 178.55 1357.28 181.5 1357.28 185.6ZM1389.32 151.85H1399.07V169.85H1399.37C1400.42 168.65 1401.77 167.7 1403.42 167C1405.07 166.3 1406.89 165.95 1408.89 165.95C1413.39 165.95 1416.82 167.5 1419.17 170.6C1421.57 173.65 1422.77 178.325 1422.77 184.625C1422.77 191.375 1421.09 196.5 1417.74 200C1414.44 203.5 1409.89 205.25 1404.09 205.25C1400.89 205.25 1397.97 204.975 1395.32 204.425C1392.67 203.925 1390.67 203.35 1389.32 202.7V151.85ZM1406.04 174.2C1404.24 174.2 1402.77 174.675 1401.62 175.625C1400.52 176.525 1399.67 177.85 1399.07 179.6V195.95C1399.87 196.35 1400.72 196.625 1401.62 196.775C1402.57 196.925 1403.57 197 1404.62 197C1407.27 197 1409.27 196.05 1410.62 194.15C1412.02 192.2 1412.72 189.125 1412.72 184.925C1412.72 177.775 1410.49 174.2 1406.04 174.2ZM1429.3 169.025C1431.3 168.125 1433.68 167.425 1436.43 166.925C1439.18 166.375 1442.05 166.1 1445.05 166.1C1447.65 166.1 1449.83 166.425 1451.58 167.075C1453.33 167.675 1454.7 168.55 1455.7 169.7C1456.75 170.85 1457.48 172.225 1457.88 173.825C1458.33 175.425 1458.55 177.225 1458.55 179.225C1458.55 181.425 1458.48 183.65 1458.33 185.9C1458.18 188.1 1458.08 190.275 1458.03 192.425C1458.03 194.575 1458.1 196.675 1458.25 198.725C1458.4 200.725 1458.78 202.625 1459.38 204.425H1451.43L1449.85 199.25H1449.48C1448.48 200.8 1447.08 202.15 1445.28 203.3C1443.53 204.4 1441.25 204.95 1438.45 204.95C1436.7 204.95 1435.13 204.7 1433.73 204.2C1432.33 203.65 1431.13 202.9 1430.13 201.95C1429.13 200.95 1428.35 199.8 1427.8 198.5C1427.25 197.15 1426.98 195.65 1426.98 194C1426.98 191.7 1427.48 189.775 1428.48 188.225C1429.53 186.625 1431 185.35 1432.9 184.4C1434.85 183.4 1437.15 182.725 1439.8 182.375C1442.5 181.975 1445.5 181.85 1448.8 182C1449.15 179.2 1448.95 177.2 1448.2 176C1447.45 174.75 1445.78 174.125 1443.18 174.125C1441.23 174.125 1439.15 174.325 1436.95 174.725C1434.8 175.125 1433.03 175.65 1431.63 176.3L1429.3 169.025ZM1441.68 196.925C1443.63 196.925 1445.18 196.5 1446.33 195.65C1447.48 194.75 1448.33 193.8 1448.88 192.8V187.925C1447.33 187.775 1445.83 187.75 1444.38 187.85C1442.98 187.95 1441.73 188.175 1440.63 188.525C1439.53 188.875 1438.65 189.375 1438 190.025C1437.35 190.675 1437.03 191.5 1437.03 192.5C1437.03 193.9 1437.43 195 1438.23 195.8C1439.08 196.55 1440.23 196.925 1441.68 196.925ZM1476.78 191.75C1476.78 193.5 1477.01 194.775 1477.46 195.575C1477.91 196.375 1478.63 196.775 1479.63 196.775C1480.23 196.775 1480.81 196.725 1481.36 196.625C1481.96 196.525 1482.68 196.3 1483.53 195.95L1484.58 203.6C1483.78 204 1482.56 204.4 1480.91 204.8C1479.26 205.2 1477.56 205.4 1475.81 205.4C1472.96 205.4 1470.78 204.75 1469.28 203.45C1467.78 202.1 1467.03 199.9 1467.03 196.85V151.85H1476.78V191.75Z" fill="#535757"/>
<path d="M1287.89 723.814C1287.89 722.214 1287.29 720.914 1286.09 719.914C1284.94 718.914 1283.46 718.014 1281.66 717.214C1279.91 716.364 1277.99 715.514 1275.89 714.664C1273.84 713.764 1271.91 712.689 1270.11 711.439C1268.36 710.139 1266.89 708.539 1265.69 706.639C1264.54 704.739 1263.96 702.314 1263.96 699.364C1263.96 696.814 1264.39 694.614 1265.24 692.764C1266.09 690.864 1267.29 689.289 1268.84 688.039C1270.44 686.789 1272.31 685.864 1274.46 685.264C1276.61 684.664 1279.01 684.364 1281.66 684.364C1284.71 684.364 1287.59 684.639 1290.29 685.189C1292.99 685.689 1295.21 686.439 1296.96 687.439L1293.74 696.064C1292.64 695.364 1290.99 694.739 1288.79 694.189C1286.59 693.589 1284.21 693.289 1281.66 693.289C1279.26 693.289 1277.41 693.764 1276.11 694.714C1274.86 695.664 1274.24 696.939 1274.24 698.539C1274.24 700.039 1274.81 701.289 1275.96 702.289C1277.16 703.289 1278.64 704.214 1280.39 705.064C1282.19 705.914 1284.11 706.789 1286.16 707.689C1288.26 708.589 1290.19 709.689 1291.94 710.989C1293.74 712.239 1295.21 713.814 1296.36 715.714C1297.56 717.564 1298.16 719.889 1298.16 722.689C1298.16 725.489 1297.69 727.914 1296.74 729.964C1295.84 731.964 1294.54 733.639 1292.84 734.989C1291.19 736.339 1289.16 737.339 1286.76 737.989C1284.41 738.639 1281.81 738.964 1278.96 738.964C1275.21 738.964 1271.91 738.614 1269.06 737.914C1266.21 737.214 1264.11 736.514 1262.76 735.814L1266.06 727.039C1266.61 727.339 1267.31 727.664 1268.16 728.014C1269.06 728.364 1270.06 728.689 1271.16 728.989C1272.26 729.289 1273.41 729.539 1274.61 729.739C1275.86 729.939 1277.14 730.039 1278.44 730.039C1281.49 730.039 1283.81 729.539 1285.41 728.539C1287.06 727.489 1287.89 725.914 1287.89 723.814ZM1331.33 735.589C1329.83 736.689 1328.01 737.514 1325.86 738.064C1323.76 738.664 1321.58 738.964 1319.33 738.964C1316.33 738.964 1313.78 738.489 1311.68 737.539C1309.63 736.589 1307.96 735.264 1306.66 733.564C1305.36 731.814 1304.41 729.714 1303.81 727.264C1303.26 724.814 1302.98 722.114 1302.98 719.164C1302.98 712.814 1304.41 707.939 1307.26 704.539C1310.11 701.089 1314.26 699.364 1319.71 699.364C1322.46 699.364 1324.66 699.589 1326.31 700.039C1328.01 700.489 1329.53 701.064 1330.88 701.764L1328.56 709.714C1327.41 709.164 1326.26 708.739 1325.11 708.439C1324.01 708.139 1322.73 707.989 1321.28 707.989C1318.58 707.989 1316.53 708.889 1315.13 710.689C1313.73 712.439 1313.03 715.264 1313.03 719.164C1313.03 720.764 1313.21 722.239 1313.56 723.589C1313.91 724.939 1314.43 726.114 1315.13 727.114C1315.83 728.114 1316.73 728.914 1317.83 729.514C1318.98 730.064 1320.31 730.339 1321.81 730.339C1323.46 730.339 1324.86 730.139 1326.01 729.739C1327.16 729.289 1328.18 728.764 1329.08 728.164L1331.33 735.589ZM1360.18 737.914V716.614C1360.18 713.564 1359.75 711.364 1358.9 710.014C1358.05 708.664 1356.5 707.989 1354.25 707.989C1352.6 707.989 1351.08 708.564 1349.68 709.714C1348.33 710.814 1347.43 712.239 1346.98 713.989V737.914H1337.23V685.414H1346.98V704.614H1347.28C1348.48 703.014 1349.95 701.739 1351.7 700.789C1353.45 699.839 1355.68 699.364 1358.38 699.364C1360.28 699.364 1361.95 699.614 1363.4 700.114C1364.85 700.614 1366.05 701.439 1367 702.589C1368 703.739 1368.73 705.314 1369.18 707.314C1369.68 709.264 1369.93 711.689 1369.93 714.589V737.914H1360.18ZM1376.3 719.164C1376.3 712.814 1377.85 707.939 1380.95 704.539C1384.05 701.089 1388.4 699.364 1394 699.364C1397 699.364 1399.6 699.839 1401.8 700.789C1404 701.739 1405.82 703.089 1407.27 704.839C1408.72 706.539 1409.8 708.614 1410.5 711.064C1411.25 713.514 1411.62 716.214 1411.62 719.164C1411.62 725.514 1410.07 730.414 1406.97 733.864C1403.92 737.264 1399.6 738.964 1394 738.964C1391 738.964 1388.4 738.489 1386.2 737.539C1384 736.589 1382.15 735.264 1380.65 733.564C1379.2 731.814 1378.1 729.714 1377.35 727.264C1376.65 724.814 1376.3 722.114 1376.3 719.164ZM1386.35 719.164C1386.35 720.814 1386.5 722.339 1386.8 723.739C1387.1 725.139 1387.55 726.364 1388.15 727.414C1388.75 728.464 1389.52 729.289 1390.47 729.889C1391.47 730.439 1392.65 730.714 1394 730.714C1396.55 730.714 1398.45 729.789 1399.7 727.939C1400.95 726.089 1401.57 723.164 1401.57 719.164C1401.57 715.714 1401 712.939 1399.85 710.839C1398.7 708.689 1396.75 707.614 1394 707.614C1391.6 707.614 1389.72 708.514 1388.37 710.314C1387.02 712.114 1386.35 715.064 1386.35 719.164ZM1428.43 725.314C1428.43 727.064 1428.66 728.339 1429.11 729.139C1429.56 729.939 1430.28 730.339 1431.28 730.339C1431.88 730.339 1432.46 730.289 1433.01 730.189C1433.61 730.089 1434.33 729.864 1435.18 729.514L1436.23 737.164C1435.43 737.564 1434.21 737.964 1432.56 738.364C1430.91 738.764 1429.21 738.964 1427.46 738.964C1424.61 738.964 1422.43 738.314 1420.93 737.014C1419.43 735.664 1418.68 733.464 1418.68 730.414V685.414H1428.43V725.314ZM1440.2 702.589C1442.2 701.689 1444.58 700.989 1447.33 700.489C1450.08 699.939 1452.95 699.664 1455.95 699.664C1458.55 699.664 1460.73 699.989 1462.48 700.639C1464.23 701.239 1465.6 702.114 1466.6 703.264C1467.65 704.414 1468.38 705.789 1468.78 707.389C1469.23 708.989 1469.45 710.789 1469.45 712.789C1469.45 714.989 1469.38 717.214 1469.23 719.464C1469.08 721.664 1468.98 723.839 1468.93 725.989C1468.93 728.139 1469 730.239 1469.15 732.289C1469.3 734.289 1469.68 736.189 1470.28 737.989H1462.33L1460.75 732.814H1460.38C1459.38 734.364 1457.98 735.714 1456.18 736.864C1454.43 737.964 1452.15 738.514 1449.35 738.514C1447.6 738.514 1446.03 738.264 1444.63 737.764C1443.23 737.214 1442.03 736.464 1441.03 735.514C1440.03 734.514 1439.25 733.364 1438.7 732.064C1438.15 730.714 1437.88 729.214 1437.88 727.564C1437.88 725.264 1438.38 723.339 1439.38 721.789C1440.43 720.189 1441.9 718.914 1443.8 717.964C1445.75 716.964 1448.05 716.289 1450.7 715.939C1453.4 715.539 1456.4 715.414 1459.7 715.564C1460.05 712.764 1459.85 710.764 1459.1 709.564C1458.35 708.314 1456.68 707.689 1454.08 707.689C1452.13 707.689 1450.05 707.889 1447.85 708.289C1445.7 708.689 1443.93 709.214 1442.53 709.864L1440.2 702.589ZM1452.58 730.489C1454.53 730.489 1456.08 730.064 1457.23 729.214C1458.38 728.314 1459.23 727.364 1459.78 726.364V721.489C1458.23 721.339 1456.73 721.314 1455.28 721.414C1453.88 721.514 1452.63 721.739 1451.53 722.089C1450.43 722.439 1449.55 722.939 1448.9 723.589C1448.25 724.239 1447.93 725.064 1447.93 726.064C1447.93 727.464 1448.33 728.564 1449.13 729.364C1449.98 730.114 1451.13 730.489 1452.58 730.489ZM1498.33 709.564C1496.78 709.014 1495.38 708.739 1494.13 708.739C1492.38 708.739 1490.91 709.214 1489.71 710.164C1488.56 711.064 1487.78 712.239 1487.38 713.689V737.914H1477.63V700.414H1485.21L1486.33 705.364H1486.63C1487.48 703.514 1488.63 702.089 1490.08 701.089C1491.53 700.089 1493.23 699.589 1495.18 699.589C1496.48 699.589 1497.96 699.864 1499.61 700.414L1498.33 709.564ZM1513.98 725.314C1513.98 727.064 1514.2 728.339 1514.65 729.139C1515.1 729.939 1515.83 730.339 1516.83 730.339C1517.43 730.339 1518 730.289 1518.55 730.189C1519.15 730.089 1519.88 729.864 1520.73 729.514L1521.78 737.164C1520.98 737.564 1519.75 737.964 1518.1 738.364C1516.45 738.764 1514.75 738.964 1513 738.964C1510.15 738.964 1507.98 738.314 1506.48 737.014C1504.98 735.664 1504.23 733.464 1504.23 730.414V685.414H1513.98V725.314ZM1539.62 721.489L1540.97 727.339H1541.42L1542.4 721.414L1548.1 700.414H1558.15L1546.75 734.239C1545.8 737.039 1544.87 739.589 1543.97 741.889C1543.12 744.239 1542.17 746.264 1541.12 747.964C1540.07 749.664 1538.9 750.964 1537.6 751.864C1536.35 752.814 1534.85 753.289 1533.1 753.289C1530.5 753.289 1528.42 752.864 1526.87 752.014L1528.67 744.214C1529.42 744.514 1530.17 744.664 1530.92 744.664C1532.07 744.664 1533.17 744.164 1534.22 743.164C1535.32 742.214 1536.15 740.464 1536.7 737.914L1521.02 700.414H1532.72L1539.62 721.489Z" fill="#535757"/>
<path d="M1957.26 1136.74C1957.26 1135.14 1956.66 1133.84 1955.46 1132.84C1954.31 1131.84 1952.83 1130.94 1951.03 1130.14C1949.28 1129.29 1947.36 1128.44 1945.26 1127.59C1943.21 1126.69 1941.28 1125.61 1939.48 1124.36C1937.73 1123.06 1936.26 1121.46 1935.06 1119.56C1933.91 1117.66 1933.33 1115.24 1933.33 1112.29C1933.33 1109.74 1933.76 1107.54 1934.61 1105.69C1935.46 1103.79 1936.66 1102.21 1938.21 1100.96C1939.81 1099.71 1941.68 1098.79 1943.83 1098.19C1945.98 1097.59 1948.38 1097.29 1951.03 1097.29C1954.08 1097.29 1956.96 1097.56 1959.66 1098.11C1962.36 1098.61 1964.58 1099.36 1966.33 1100.36L1963.11 1108.99C1962.01 1108.29 1960.36 1107.66 1958.16 1107.11C1955.96 1106.51 1953.58 1106.21 1951.03 1106.21C1948.63 1106.21 1946.78 1106.69 1945.48 1107.64C1944.23 1108.59 1943.61 1109.86 1943.61 1111.46C1943.61 1112.96 1944.18 1114.21 1945.33 1115.21C1946.53 1116.21 1948.01 1117.14 1949.76 1117.99C1951.56 1118.84 1953.48 1119.71 1955.53 1120.61C1957.63 1121.51 1959.56 1122.61 1961.31 1123.91C1963.11 1125.16 1964.58 1126.74 1965.73 1128.64C1966.93 1130.49 1967.53 1132.81 1967.53 1135.61C1967.53 1138.41 1967.06 1140.84 1966.11 1142.89C1965.21 1144.89 1963.91 1146.56 1962.21 1147.91C1960.56 1149.26 1958.53 1150.26 1956.13 1150.91C1953.78 1151.56 1951.18 1151.89 1948.33 1151.89C1944.58 1151.89 1941.28 1151.54 1938.43 1150.84C1935.58 1150.14 1933.48 1149.44 1932.13 1148.74L1935.43 1139.96C1935.98 1140.26 1936.68 1140.59 1937.53 1140.94C1938.43 1141.29 1939.43 1141.61 1940.53 1141.91C1941.63 1142.21 1942.78 1142.46 1943.98 1142.66C1945.23 1142.86 1946.51 1142.96 1947.81 1142.96C1950.86 1142.96 1953.18 1142.46 1954.78 1141.46C1956.43 1140.41 1957.26 1138.84 1957.26 1136.74ZM2004.15 1147.61C2002.65 1148.81 2000.6 1149.84 1998 1150.69C1995.45 1151.49 1992.73 1151.89 1989.83 1151.89C1983.78 1151.89 1979.35 1150.14 1976.55 1146.64C1973.75 1143.09 1972.35 1138.24 1972.35 1132.09C1972.35 1125.49 1973.93 1120.54 1977.08 1117.24C1980.23 1113.94 1984.65 1112.29 1990.35 1112.29C1992.25 1112.29 1994.1 1112.54 1995.9 1113.04C1997.7 1113.54 1999.3 1114.36 2000.7 1115.51C2002.1 1116.66 2003.23 1118.21 2004.08 1120.16C2004.93 1122.11 2005.35 1124.54 2005.35 1127.44C2005.35 1128.49 2005.28 1129.61 2005.13 1130.81C2005.03 1132.01 2004.85 1133.26 2004.6 1134.56H1982.1C1982.25 1137.71 1983.05 1140.09 1984.5 1141.69C1986 1143.29 1988.4 1144.09 1991.7 1144.09C1993.75 1144.09 1995.58 1143.79 1997.18 1143.19C1998.83 1142.54 2000.08 1141.89 2000.93 1141.24L2004.15 1147.61ZM1990.2 1120.09C1987.65 1120.09 1985.75 1120.86 1984.5 1122.41C1983.3 1123.91 1982.58 1125.94 1982.33 1128.49H1996.28C1996.48 1125.79 1996.05 1123.71 1995 1122.26C1994 1120.81 1992.4 1120.09 1990.2 1120.09ZM2032.94 1122.49C2031.39 1121.94 2029.99 1121.66 2028.74 1121.66C2026.99 1121.66 2025.51 1122.14 2024.31 1123.09C2023.16 1123.99 2022.39 1125.16 2021.99 1126.61V1150.84H2012.24V1113.34H2019.81L2020.94 1118.29H2021.24C2022.09 1116.44 2023.24 1115.01 2024.69 1114.01C2026.14 1113.01 2027.84 1112.51 2029.79 1112.51C2031.09 1112.51 2032.56 1112.79 2034.21 1113.34L2032.94 1122.49ZM2039.43 1113.34H2049.18V1150.84H2039.43V1113.34ZM2038.01 1102.76C2038.01 1101.31 2038.53 1100.09 2039.58 1099.09C2040.68 1098.04 2042.18 1097.51 2044.08 1097.51C2045.98 1097.51 2047.51 1098.04 2048.66 1099.09C2049.86 1100.09 2050.46 1101.31 2050.46 1102.76C2050.46 1104.21 2049.86 1105.44 2048.66 1106.44C2047.51 1107.39 2045.98 1107.86 2044.08 1107.86C2042.18 1107.86 2040.68 1107.39 2039.58 1106.44C2038.53 1105.44 2038.01 1104.21 2038.01 1102.76ZM2056.88 1132.09C2056.88 1125.74 2058.43 1120.86 2061.53 1117.46C2064.63 1114.01 2068.98 1112.29 2074.58 1112.29C2077.58 1112.29 2080.18 1112.76 2082.38 1113.71C2084.58 1114.66 2086.4 1116.01 2087.85 1117.76C2089.3 1119.46 2090.38 1121.54 2091.08 1123.99C2091.83 1126.44 2092.2 1129.14 2092.2 1132.09C2092.2 1138.44 2090.65 1143.34 2087.55 1146.79C2084.5 1150.19 2080.18 1151.89 2074.58 1151.89C2071.58 1151.89 2068.98 1151.41 2066.78 1150.46C2064.58 1149.51 2062.73 1148.19 2061.23 1146.49C2059.78 1144.74 2058.68 1142.64 2057.93 1140.19C2057.23 1137.74 2056.88 1135.04 2056.88 1132.09ZM2066.93 1132.09C2066.93 1133.74 2067.08 1135.26 2067.38 1136.66C2067.68 1138.06 2068.13 1139.29 2068.73 1140.34C2069.33 1141.39 2070.1 1142.21 2071.05 1142.81C2072.05 1143.36 2073.23 1143.64 2074.58 1143.64C2077.13 1143.64 2079.03 1142.71 2080.28 1140.86C2081.53 1139.01 2082.15 1136.09 2082.15 1132.09C2082.15 1128.64 2081.58 1125.86 2080.43 1123.76C2079.28 1121.61 2077.33 1120.54 2074.58 1120.54C2072.18 1120.54 2070.3 1121.44 2068.95 1123.24C2067.6 1125.04 2066.93 1127.99 2066.93 1132.09ZM2108.33 1113.34V1134.64C2108.33 1137.69 2108.68 1139.89 2109.38 1141.24C2110.13 1142.59 2111.56 1143.26 2113.66 1143.26C2115.51 1143.26 2117.03 1142.71 2118.23 1141.61C2119.48 1140.51 2120.41 1139.16 2121.01 1137.56V1113.34H2130.76V1139.44C2130.76 1141.49 2130.86 1143.51 2131.06 1145.51C2131.26 1147.46 2131.56 1149.24 2131.96 1150.84H2124.61L2122.88 1145.29H2122.58C2121.43 1147.19 2119.83 1148.76 2117.78 1150.01C2115.73 1151.26 2113.31 1151.89 2110.51 1151.89C2108.61 1151.89 2106.91 1151.64 2105.41 1151.14C2103.91 1150.64 2102.66 1149.81 2101.66 1148.66C2100.66 1147.51 2099.88 1145.96 2099.33 1144.01C2098.83 1142.06 2098.58 1139.61 2098.58 1136.66V1113.34H2108.33ZM2154.84 1140.49C2154.84 1139.49 2154.41 1138.69 2153.56 1138.09C2152.71 1137.49 2151.66 1136.94 2150.41 1136.44C2149.16 1135.94 2147.79 1135.44 2146.29 1134.94C2144.79 1134.39 2143.41 1133.66 2142.16 1132.76C2140.91 1131.81 2139.86 1130.64 2139.01 1129.24C2138.16 1127.79 2137.74 1125.94 2137.74 1123.69C2137.74 1119.99 2138.84 1117.16 2141.04 1115.21C2143.24 1113.26 2146.41 1112.29 2150.56 1112.29C2153.41 1112.29 2155.99 1112.59 2158.29 1113.19C2160.59 1113.79 2162.39 1114.46 2163.69 1115.21L2161.51 1122.26C2160.36 1121.81 2158.91 1121.34 2157.16 1120.84C2155.41 1120.34 2153.64 1120.09 2151.84 1120.09C2148.94 1120.09 2147.49 1121.21 2147.49 1123.46C2147.49 1124.36 2147.91 1125.09 2148.76 1125.64C2149.61 1126.19 2150.66 1126.71 2151.91 1127.21C2153.16 1127.66 2154.54 1128.16 2156.04 1128.71C2157.54 1129.26 2158.91 1129.99 2160.16 1130.89C2161.41 1131.74 2162.46 1132.86 2163.31 1134.26C2164.16 1135.66 2164.59 1137.46 2164.59 1139.66C2164.59 1143.46 2163.36 1146.46 2160.91 1148.66C2158.51 1150.81 2154.89 1151.89 2150.04 1151.89C2147.39 1151.89 2144.89 1151.54 2142.54 1150.84C2140.24 1150.19 2138.36 1149.41 2136.91 1148.51L2139.61 1141.24C2140.76 1141.89 2142.29 1142.54 2144.19 1143.19C2146.09 1143.79 2148.04 1144.09 2150.04 1144.09C2151.49 1144.09 2152.64 1143.81 2153.49 1143.26C2154.39 1142.71 2154.84 1141.79 2154.84 1140.49Z" fill="#535757"/>
<path d="M913.401 1098.34H923.676V1150.84H913.401V1098.34ZM954.813 1150.84V1130.44C954.813 1126.99 954.488 1124.54 953.838 1123.09C953.188 1121.64 951.838 1120.91 949.788 1120.91C948.088 1120.91 946.713 1121.39 945.663 1122.34C944.613 1123.24 943.813 1124.41 943.263 1125.86V1150.84H933.513V1113.34H941.088L942.213 1118.29H942.513C943.663 1116.69 945.113 1115.29 946.863 1114.09C948.663 1112.89 950.963 1112.29 953.763 1112.29C956.163 1112.29 958.113 1112.79 959.613 1113.79C961.163 1114.74 962.363 1116.36 963.213 1118.66C964.363 1116.71 965.838 1115.16 967.638 1114.01C969.438 1112.86 971.613 1112.29 974.163 1112.29C976.263 1112.29 978.038 1112.54 979.488 1113.04C980.988 1113.54 982.188 1114.41 983.088 1115.66C984.038 1116.86 984.738 1118.49 985.188 1120.54C985.638 1122.59 985.863 1125.19 985.863 1128.34V1150.84H976.113V1129.76C976.113 1126.81 975.788 1124.61 975.138 1123.16C974.538 1121.66 973.163 1120.91 971.013 1120.91C969.263 1120.91 967.863 1121.39 966.813 1122.34C965.813 1123.29 965.063 1124.59 964.563 1126.24V1150.84H954.813ZM993.864 1113.34H1000.99L1002.11 1117.84H1002.41C1003.71 1115.94 1005.24 1114.54 1006.99 1113.64C1008.79 1112.74 1010.96 1112.29 1013.51 1112.29C1018.21 1112.29 1021.74 1113.79 1024.09 1116.79C1026.44 1119.74 1027.61 1124.51 1027.61 1131.11C1027.61 1134.31 1027.24 1137.21 1026.49 1139.81C1025.74 1142.36 1024.61 1144.54 1023.11 1146.34C1021.66 1148.14 1019.86 1149.51 1017.71 1150.46C1015.61 1151.41 1013.19 1151.89 1010.44 1151.89C1008.89 1151.89 1007.61 1151.76 1006.61 1151.51C1005.61 1151.31 1004.61 1150.96 1003.61 1150.46V1165.84H993.864V1113.34ZM1010.59 1120.54C1008.69 1120.54 1007.19 1121.01 1006.09 1121.96C1005.04 1122.91 1004.21 1124.34 1003.61 1126.24V1141.84C1004.31 1142.39 1005.06 1142.84 1005.86 1143.19C1006.71 1143.49 1007.81 1143.64 1009.16 1143.64C1011.96 1143.64 1014.06 1142.66 1015.46 1140.71C1016.86 1138.71 1017.56 1135.44 1017.56 1130.89C1017.56 1127.59 1017.01 1125.04 1015.91 1123.24C1014.81 1121.44 1013.04 1120.54 1010.59 1120.54ZM1034.14 1115.51C1036.14 1114.61 1038.52 1113.91 1041.27 1113.41C1044.02 1112.86 1046.89 1112.59 1049.89 1112.59C1052.49 1112.59 1054.67 1112.91 1056.42 1113.56C1058.17 1114.16 1059.54 1115.04 1060.54 1116.19C1061.59 1117.34 1062.32 1118.71 1062.72 1120.31C1063.17 1121.91 1063.39 1123.71 1063.39 1125.71C1063.39 1127.91 1063.32 1130.14 1063.17 1132.39C1063.02 1134.59 1062.92 1136.76 1062.87 1138.91C1062.87 1141.06 1062.94 1143.16 1063.09 1145.21C1063.24 1147.21 1063.62 1149.11 1064.22 1150.91H1056.27L1054.69 1145.74H1054.32C1053.32 1147.29 1051.92 1148.64 1050.12 1149.79C1048.37 1150.89 1046.09 1151.44 1043.29 1151.44C1041.54 1151.44 1039.97 1151.19 1038.57 1150.69C1037.17 1150.14 1035.97 1149.39 1034.97 1148.44C1033.97 1147.44 1033.19 1146.29 1032.64 1144.99C1032.09 1143.64 1031.82 1142.14 1031.82 1140.49C1031.82 1138.19 1032.32 1136.26 1033.32 1134.71C1034.37 1133.11 1035.84 1131.84 1037.74 1130.89C1039.69 1129.89 1041.99 1129.21 1044.64 1128.86C1047.34 1128.46 1050.34 1128.34 1053.64 1128.49C1053.99 1125.69 1053.79 1123.69 1053.04 1122.49C1052.29 1121.24 1050.62 1120.61 1048.02 1120.61C1046.07 1120.61 1043.99 1120.81 1041.79 1121.21C1039.64 1121.61 1037.87 1122.14 1036.47 1122.79L1034.14 1115.51ZM1046.52 1143.41C1048.47 1143.41 1050.02 1142.99 1051.17 1142.14C1052.32 1141.24 1053.17 1140.29 1053.72 1139.29V1134.41C1052.17 1134.26 1050.67 1134.24 1049.22 1134.34C1047.82 1134.44 1046.57 1134.66 1045.47 1135.01C1044.37 1135.36 1043.49 1135.86 1042.84 1136.51C1042.19 1137.16 1041.87 1137.99 1041.87 1138.99C1041.87 1140.39 1042.27 1141.49 1043.07 1142.29C1043.92 1143.04 1045.07 1143.41 1046.52 1143.41ZM1092.27 1122.49C1090.72 1121.94 1089.32 1121.66 1088.07 1121.66C1086.32 1121.66 1084.85 1122.14 1083.65 1123.09C1082.5 1123.99 1081.72 1125.16 1081.32 1126.61V1150.84H1071.57V1113.34H1079.15L1080.27 1118.29H1080.57C1081.42 1116.44 1082.57 1115.01 1084.02 1114.01C1085.47 1113.01 1087.17 1112.51 1089.12 1112.51C1090.42 1112.51 1091.9 1112.79 1093.55 1113.34L1092.27 1122.49ZM1096.24 1113.34H1101.41V1106.29L1111.16 1103.51V1113.34H1120.31V1121.59H1111.16V1135.99C1111.16 1138.59 1111.41 1140.46 1111.91 1141.61C1112.46 1142.71 1113.46 1143.26 1114.91 1143.26C1115.91 1143.26 1116.76 1143.16 1117.46 1142.96C1118.21 1142.76 1119.04 1142.46 1119.94 1142.06L1121.66 1149.56C1120.31 1150.21 1118.74 1150.76 1116.94 1151.21C1115.14 1151.66 1113.31 1151.89 1111.46 1151.89C1108.01 1151.89 1105.46 1151.01 1103.81 1149.26C1102.21 1147.46 1101.41 1144.54 1101.41 1140.49V1121.59H1096.24V1113.34ZM1127.19 1113.34H1136.94V1150.84H1127.19V1113.34ZM1125.76 1102.76C1125.76 1101.31 1126.29 1100.09 1127.34 1099.09C1128.44 1098.04 1129.94 1097.51 1131.84 1097.51C1133.74 1097.51 1135.26 1098.04 1136.41 1099.09C1137.61 1100.09 1138.21 1101.31 1138.21 1102.76C1138.21 1104.21 1137.61 1105.44 1136.41 1106.44C1135.26 1107.39 1133.74 1107.86 1131.84 1107.86C1129.94 1107.86 1128.44 1107.39 1127.34 1106.44C1126.29 1105.44 1125.76 1104.21 1125.76 1102.76ZM1146.2 1115.51C1148.2 1114.61 1150.58 1113.91 1153.33 1113.41C1156.08 1112.86 1158.95 1112.59 1161.95 1112.59C1164.55 1112.59 1166.73 1112.91 1168.48 1113.56C1170.23 1114.16 1171.6 1115.04 1172.6 1116.19C1173.65 1117.34 1174.38 1118.71 1174.78 1120.31C1175.23 1121.91 1175.45 1123.71 1175.45 1125.71C1175.45 1127.91 1175.38 1130.14 1175.23 1132.39C1175.08 1134.59 1174.98 1136.76 1174.93 1138.91C1174.93 1141.06 1175 1143.16 1175.15 1145.21C1175.3 1147.21 1175.68 1149.11 1176.28 1150.91H1168.33L1166.75 1145.74H1166.38C1165.38 1147.29 1163.98 1148.64 1162.18 1149.79C1160.43 1150.89 1158.15 1151.44 1155.35 1151.44C1153.6 1151.44 1152.03 1151.19 1150.63 1150.69C1149.23 1150.14 1148.03 1149.39 1147.03 1148.44C1146.03 1147.44 1145.25 1146.29 1144.7 1144.99C1144.15 1143.64 1143.88 1142.14 1143.88 1140.49C1143.88 1138.19 1144.38 1136.26 1145.38 1134.71C1146.43 1133.11 1147.9 1131.84 1149.8 1130.89C1151.75 1129.89 1154.05 1129.21 1156.7 1128.86C1159.4 1128.46 1162.4 1128.34 1165.7 1128.49C1166.05 1125.69 1165.85 1123.69 1165.1 1122.49C1164.35 1121.24 1162.68 1120.61 1160.08 1120.61C1158.13 1120.61 1156.05 1120.81 1153.85 1121.21C1151.7 1121.61 1149.93 1122.14 1148.53 1122.79L1146.2 1115.51ZM1158.58 1143.41C1160.53 1143.41 1162.08 1142.99 1163.23 1142.14C1164.38 1141.24 1165.23 1140.29 1165.78 1139.29V1134.41C1164.23 1134.26 1162.73 1134.24 1161.28 1134.34C1159.88 1134.44 1158.63 1134.66 1157.53 1135.01C1156.43 1135.36 1155.55 1135.86 1154.9 1136.51C1154.25 1137.16 1153.93 1137.99 1153.93 1138.99C1153.93 1140.39 1154.33 1141.49 1155.13 1142.29C1155.98 1143.04 1157.13 1143.41 1158.58 1143.41ZM1193.68 1138.24C1193.68 1139.99 1193.91 1141.26 1194.36 1142.06C1194.81 1142.86 1195.53 1143.26 1196.53 1143.26C1197.13 1143.26 1197.71 1143.21 1198.26 1143.11C1198.86 1143.01 1199.58 1142.79 1200.43 1142.44L1201.48 1150.09C1200.68 1150.49 1199.46 1150.89 1197.81 1151.29C1196.16 1151.69 1194.46 1151.89 1192.71 1151.89C1189.86 1151.89 1187.68 1151.24 1186.18 1149.94C1184.68 1148.59 1183.93 1146.39 1183.93 1143.34V1098.34H1193.68V1138.24Z" fill="#535757"/>
<path d="M72.4141 1183.84H56.2891L52.3141 1195.47H42.0391L60.9391 1142.59H68.5141L87.4141 1195.47H76.6141L72.4141 1183.84ZM58.9141 1175.59H70.1641L66.2641 1163.89L64.6891 1155.64H64.3141L62.7391 1163.97L58.9141 1175.59ZM101.099 1157.97V1179.27C101.099 1182.32 101.449 1184.52 102.149 1185.87C102.899 1187.22 104.324 1187.89 106.424 1187.89C108.274 1187.89 109.799 1187.34 110.999 1186.24C112.249 1185.14 113.174 1183.79 113.774 1182.19V1157.97H123.524V1184.07C123.524 1186.12 123.624 1188.14 123.824 1190.14C124.024 1192.09 124.324 1193.87 124.724 1195.47H117.374L115.649 1189.92H115.349C114.199 1191.82 112.599 1193.39 110.549 1194.64C108.499 1195.89 106.074 1196.52 103.274 1196.52C101.374 1196.52 99.6742 1196.27 98.1742 1195.77C96.6742 1195.27 95.4242 1194.44 94.4242 1193.29C93.4242 1192.14 92.6492 1190.59 92.0992 1188.64C91.5992 1186.69 91.3492 1184.24 91.3492 1181.29V1157.97H101.099ZM128.181 1157.97H133.356V1150.92L143.106 1148.14V1157.97H152.256V1166.22H143.106V1180.62C143.106 1183.22 143.356 1185.09 143.856 1186.24C144.406 1187.34 145.406 1187.89 146.856 1187.89C147.856 1187.89 148.706 1187.79 149.406 1187.59C150.156 1187.39 150.981 1187.09 151.881 1186.69L153.606 1194.19C152.256 1194.84 150.681 1195.39 148.881 1195.84C147.081 1196.29 145.256 1196.52 143.406 1196.52C139.956 1196.52 137.406 1195.64 135.756 1193.89C134.156 1192.09 133.356 1189.17 133.356 1185.12V1166.22H128.181V1157.97ZM181.178 1195.47V1174.17C181.178 1171.12 180.753 1168.92 179.903 1167.57C179.053 1166.22 177.503 1165.54 175.253 1165.54C173.603 1165.54 172.078 1166.12 170.678 1167.27C169.328 1168.37 168.428 1169.79 167.978 1171.54V1195.47H158.228V1142.97H167.978V1162.17H168.278C169.478 1160.57 170.953 1159.29 172.703 1158.34C174.453 1157.39 176.678 1156.92 179.378 1156.92C181.278 1156.92 182.953 1157.17 184.403 1157.67C185.853 1158.17 187.053 1158.99 188.003 1160.14C189.003 1161.29 189.728 1162.87 190.178 1164.87C190.678 1166.82 190.928 1169.24 190.928 1172.14V1195.47H181.178ZM197.297 1176.72C197.297 1170.37 198.847 1165.49 201.947 1162.09C205.047 1158.64 209.397 1156.92 214.997 1156.92C217.997 1156.92 220.597 1157.39 222.797 1158.34C224.997 1159.29 226.822 1160.64 228.272 1162.39C229.722 1164.09 230.797 1166.17 231.497 1168.62C232.247 1171.07 232.622 1173.77 232.622 1176.72C232.622 1183.07 231.072 1187.97 227.972 1191.42C224.922 1194.82 220.597 1196.52 214.997 1196.52C211.997 1196.52 209.397 1196.04 207.197 1195.09C204.997 1194.14 203.147 1192.82 201.647 1191.12C200.197 1189.37 199.097 1187.27 198.347 1184.82C197.647 1182.37 197.297 1179.67 197.297 1176.72ZM207.347 1176.72C207.347 1178.37 207.497 1179.89 207.797 1181.29C208.097 1182.69 208.547 1183.92 209.147 1184.97C209.747 1186.02 210.522 1186.84 211.472 1187.44C212.472 1187.99 213.647 1188.27 214.997 1188.27C217.547 1188.27 219.447 1187.34 220.697 1185.49C221.947 1183.64 222.572 1180.72 222.572 1176.72C222.572 1173.27 221.997 1170.49 220.847 1168.39C219.697 1166.24 217.747 1165.17 214.997 1165.17C212.597 1165.17 210.722 1166.07 209.372 1167.87C208.022 1169.67 207.347 1172.62 207.347 1176.72ZM260.08 1167.12C258.53 1166.57 257.13 1166.29 255.88 1166.29C254.13 1166.29 252.655 1166.77 251.455 1167.72C250.305 1168.62 249.53 1169.79 249.13 1171.24V1195.47H239.38V1157.97H246.955L248.08 1162.92H248.38C249.23 1161.07 250.38 1159.64 251.83 1158.64C253.28 1157.64 254.98 1157.14 256.93 1157.14C258.23 1157.14 259.705 1157.42 261.355 1157.97L260.08 1167.12ZM266.574 1157.97H276.324V1195.47H266.574V1157.97ZM265.149 1147.39C265.149 1145.94 265.674 1144.72 266.724 1143.72C267.824 1142.67 269.324 1142.14 271.224 1142.14C273.124 1142.14 274.649 1142.67 275.799 1143.72C276.999 1144.72 277.599 1145.94 277.599 1147.39C277.599 1148.84 276.999 1150.07 275.799 1151.07C274.649 1152.02 273.124 1152.49 271.224 1152.49C269.324 1152.49 267.824 1152.02 266.724 1151.07C265.674 1150.07 265.149 1148.84 265.149 1147.39ZM281.916 1157.97H287.091V1150.92L296.841 1148.14V1157.97H305.991V1166.22H296.841V1180.62C296.841 1183.22 297.091 1185.09 297.591 1186.24C298.141 1187.34 299.141 1187.89 300.591 1187.89C301.591 1187.89 302.441 1187.79 303.141 1187.59C303.891 1187.39 304.716 1187.09 305.616 1186.69L307.341 1194.19C305.991 1194.84 304.416 1195.39 302.616 1195.84C300.816 1196.29 298.991 1196.52 297.141 1196.52C293.691 1196.52 291.141 1195.64 289.491 1193.89C287.891 1192.09 287.091 1189.17 287.091 1185.12V1166.22H281.916V1157.97ZM311.738 1160.14C313.738 1159.24 316.113 1158.54 318.863 1158.04C321.613 1157.49 324.488 1157.22 327.488 1157.22C330.088 1157.22 332.263 1157.54 334.013 1158.19C335.763 1158.79 337.138 1159.67 338.138 1160.82C339.188 1161.97 339.913 1163.34 340.313 1164.94C340.763 1166.54 340.988 1168.34 340.988 1170.34C340.988 1172.54 340.913 1174.77 340.763 1177.02C340.613 1179.22 340.513 1181.39 340.463 1183.54C340.463 1185.69 340.538 1187.79 340.688 1189.84C340.838 1191.84 341.213 1193.74 341.813 1195.54H333.863L332.288 1190.37H331.913C330.913 1191.92 329.513 1193.27 327.713 1194.42C325.963 1195.52 323.688 1196.07 320.888 1196.07C319.138 1196.07 317.563 1195.82 316.163 1195.32C314.763 1194.77 313.563 1194.02 312.563 1193.07C311.563 1192.07 310.788 1190.92 310.238 1189.62C309.688 1188.27 309.413 1186.77 309.413 1185.12C309.413 1182.82 309.913 1180.89 310.913 1179.34C311.963 1177.74 313.438 1176.47 315.338 1175.52C317.288 1174.52 319.588 1173.84 322.238 1173.49C324.938 1173.09 327.938 1172.97 331.238 1173.12C331.588 1170.32 331.388 1168.32 330.638 1167.12C329.888 1165.87 328.213 1165.24 325.613 1165.24C323.663 1165.24 321.588 1165.44 319.388 1165.84C317.238 1166.24 315.463 1166.77 314.063 1167.42L311.738 1160.14ZM324.113 1188.04C326.063 1188.04 327.613 1187.62 328.763 1186.77C329.913 1185.87 330.763 1184.92 331.313 1183.92V1179.04C329.763 1178.89 328.263 1178.87 326.813 1178.97C325.413 1179.07 324.163 1179.29 323.063 1179.64C321.963 1179.99 321.088 1180.49 320.438 1181.14C319.788 1181.79 319.463 1182.62 319.463 1183.62C319.463 1185.02 319.863 1186.12 320.663 1186.92C321.513 1187.67 322.663 1188.04 324.113 1188.04ZM345.271 1157.97H350.446V1150.92L360.196 1148.14V1157.97H369.346V1166.22H360.196V1180.62C360.196 1183.22 360.446 1185.09 360.946 1186.24C361.496 1187.34 362.496 1187.89 363.946 1187.89C364.946 1187.89 365.796 1187.79 366.496 1187.59C367.246 1187.39 368.071 1187.09 368.971 1186.69L370.696 1194.19C369.346 1194.84 367.771 1195.39 365.971 1195.84C364.171 1196.29 362.346 1196.52 360.496 1196.52C357.046 1196.52 354.496 1195.64 352.846 1193.89C351.246 1192.09 350.446 1189.17 350.446 1185.12V1166.22H345.271V1157.97ZM376.218 1157.97H385.968V1195.47H376.218V1157.97ZM374.793 1147.39C374.793 1145.94 375.318 1144.72 376.368 1143.72C377.468 1142.67 378.968 1142.14 380.868 1142.14C382.768 1142.14 384.293 1142.67 385.443 1143.72C386.643 1144.72 387.243 1145.94 387.243 1147.39C387.243 1148.84 386.643 1150.07 385.443 1151.07C384.293 1152.02 382.768 1152.49 380.868 1152.49C378.968 1152.49 377.468 1152.02 376.368 1151.07C375.318 1150.07 374.793 1148.84 374.793 1147.39ZM408.435 1177.62L409.71 1183.39H410.085L411.135 1177.47L417.51 1157.97H428.01L412.335 1195.84H406.41L390.135 1157.97H401.46L408.435 1177.62ZM460.689 1192.24C459.189 1193.44 457.139 1194.47 454.539 1195.32C451.989 1196.12 449.264 1196.52 446.364 1196.52C440.314 1196.52 435.889 1194.77 433.089 1191.27C430.289 1187.72 428.889 1182.87 428.889 1176.72C428.889 1170.12 430.464 1165.17 433.614 1161.87C436.764 1158.57 441.189 1156.92 446.889 1156.92C448.789 1156.92 450.639 1157.17 452.439 1157.67C454.239 1158.17 455.839 1158.99 457.239 1160.14C458.639 1161.29 459.764 1162.84 460.614 1164.79C461.464 1166.74 461.889 1169.17 461.889 1172.07C461.889 1173.12 461.814 1174.24 461.664 1175.44C461.564 1176.64 461.389 1177.89 461.139 1179.19H438.639C438.789 1182.34 439.589 1184.72 441.039 1186.32C442.539 1187.92 444.939 1188.72 448.239 1188.72C450.289 1188.72 452.114 1188.42 453.714 1187.82C455.364 1187.17 456.614 1186.52 457.464 1185.87L460.689 1192.24ZM446.739 1164.72C444.189 1164.72 442.289 1165.49 441.039 1167.04C439.839 1168.54 439.114 1170.57 438.864 1173.12H452.814C453.014 1170.42 452.589 1168.34 451.539 1166.89C450.539 1165.44 448.939 1164.72 446.739 1164.72Z" fill="#535757"/>
<path d="M709.14 676.989C707.54 678.139 705.49 678.964 702.99 679.464C700.54 679.964 698.015 680.214 695.415 680.214C692.265 680.214 689.265 679.739 686.415 678.789C683.615 677.789 681.14 676.214 678.99 674.064C676.84 671.864 675.115 669.039 673.815 665.589C672.565 662.089 671.94 657.864 671.94 652.914C671.94 647.764 672.64 643.464 674.04 640.014C675.49 636.514 677.34 633.714 679.59 631.614C681.89 629.464 684.44 627.939 687.24 627.039C690.04 626.089 692.84 625.614 695.64 625.614C698.64 625.614 701.165 625.814 703.215 626.214C705.315 626.614 707.04 627.089 708.39 627.639L706.365 636.339C705.215 635.789 703.84 635.389 702.24 635.139C700.69 634.889 698.79 634.764 696.54 634.764C692.39 634.764 689.04 636.239 686.49 639.189C683.99 642.139 682.74 646.714 682.74 652.914C682.74 655.614 683.04 658.089 683.64 660.339C684.24 662.539 685.14 664.439 686.34 666.039C687.59 667.589 689.115 668.814 690.915 669.714C692.765 670.564 694.89 670.989 697.29 670.989C699.54 670.989 701.44 670.764 702.99 670.314C704.54 669.864 705.89 669.289 707.04 668.589L709.14 676.989ZM735.154 650.814C733.604 650.264 732.204 649.989 730.954 649.989C729.204 649.989 727.729 650.464 726.529 651.414C725.379 652.314 724.604 653.489 724.204 654.939V679.164H714.454V641.664H722.029L723.154 646.614H723.454C724.304 644.764 725.454 643.339 726.904 642.339C728.354 641.339 730.054 640.839 732.004 640.839C733.304 640.839 734.779 641.114 736.429 641.664L735.154 650.814ZM770.748 675.939C769.248 677.139 767.198 678.164 764.598 679.014C762.048 679.814 759.323 680.214 756.423 680.214C750.373 680.214 745.948 678.464 743.148 674.964C740.348 671.414 738.948 666.564 738.948 660.414C738.948 653.814 740.523 648.864 743.673 645.564C746.823 642.264 751.248 640.614 756.948 640.614C758.848 640.614 760.698 640.864 762.498 641.364C764.298 641.864 765.898 642.689 767.298 643.839C768.698 644.989 769.823 646.539 770.673 648.489C771.523 650.439 771.948 652.864 771.948 655.764C771.948 656.814 771.873 657.939 771.723 659.139C771.623 660.339 771.448 661.589 771.198 662.889H748.698C748.848 666.039 749.648 668.414 751.098 670.014C752.598 671.614 754.998 672.414 758.298 672.414C760.348 672.414 762.173 672.114 763.773 671.514C765.423 670.864 766.673 670.214 767.523 669.564L770.748 675.939ZM756.798 648.414C754.248 648.414 752.348 649.189 751.098 650.739C749.898 652.239 749.173 654.264 748.923 656.814H762.873C763.073 654.114 762.648 652.039 761.598 650.589C760.598 649.139 758.998 648.414 756.798 648.414ZM810.709 665.964C810.709 668.064 810.734 670.164 810.784 672.264C810.834 674.364 811.059 676.689 811.459 679.239H804.484L803.134 674.364H802.834C801.834 676.114 800.384 677.539 798.484 678.639C796.634 679.689 794.434 680.214 791.884 680.214C787.184 680.214 783.534 678.664 780.934 675.564C778.334 672.464 777.034 667.614 777.034 661.014C777.034 654.614 778.484 649.639 781.384 646.089C784.284 642.539 788.534 640.764 794.134 640.764C795.684 640.764 796.959 640.864 797.959 641.064C798.959 641.214 799.959 641.489 800.959 641.889V626.664H810.709V665.964ZM794.134 671.964C796.034 671.964 797.534 671.514 798.634 670.614C799.734 669.664 800.509 668.314 800.959 666.564V650.664C800.259 650.114 799.484 649.714 798.634 649.464C797.784 649.164 796.684 649.014 795.334 649.014C792.584 649.014 790.509 649.939 789.109 651.789C787.759 653.639 787.084 656.814 787.084 661.314C787.084 664.514 787.634 667.089 788.734 669.039C789.884 670.989 791.684 671.964 794.134 671.964ZM820.163 641.664H829.913V679.164H820.163V641.664ZM818.738 631.089C818.738 629.639 819.263 628.414 820.313 627.414C821.413 626.364 822.913 625.839 824.813 625.839C826.713 625.839 828.238 626.364 829.388 627.414C830.588 628.414 831.188 629.639 831.188 631.089C831.188 632.539 830.588 633.764 829.388 634.764C828.238 635.714 826.713 636.189 824.813 636.189C822.913 636.189 821.413 635.714 820.313 634.764C819.263 633.764 818.738 632.539 818.738 631.089ZM839.405 626.664H849.155V644.664H849.455C850.505 643.464 851.855 642.514 853.505 641.814C855.155 641.114 856.98 640.764 858.98 640.764C863.48 640.764 866.905 642.314 869.255 645.414C871.655 648.464 872.855 653.139 872.855 659.439C872.855 666.189 871.18 671.314 867.83 674.814C864.53 678.314 859.98 680.064 854.18 680.064C850.98 680.064 848.055 679.789 845.405 679.239C842.755 678.739 840.755 678.164 839.405 677.514V626.664ZM856.13 649.014C854.33 649.014 852.855 649.489 851.705 650.439C850.605 651.339 849.755 652.664 849.155 654.414V670.764C849.955 671.164 850.805 671.439 851.705 671.589C852.655 671.739 853.655 671.814 854.705 671.814C857.355 671.814 859.355 670.864 860.705 668.964C862.105 667.014 862.805 663.939 862.805 659.739C862.805 652.589 860.58 649.014 856.13 649.014ZM889.665 666.564C889.665 668.314 889.89 669.589 890.34 670.389C890.79 671.189 891.515 671.589 892.515 671.589C893.115 671.589 893.69 671.539 894.24 671.439C894.84 671.339 895.565 671.114 896.415 670.764L897.465 678.414C896.665 678.814 895.44 679.214 893.79 679.614C892.14 680.014 890.44 680.214 888.69 680.214C885.84 680.214 883.665 679.564 882.165 678.264C880.665 676.914 879.915 674.714 879.915 671.664V626.664H889.665V666.564ZM931.661 675.939C930.161 677.139 928.111 678.164 925.511 679.014C922.961 679.814 920.236 680.214 917.336 680.214C911.286 680.214 906.861 678.464 904.061 674.964C901.261 671.414 899.861 666.564 899.861 660.414C899.861 653.814 901.436 648.864 904.586 645.564C907.736 642.264 912.161 640.614 917.861 640.614C919.761 640.614 921.611 640.864 923.411 641.364C925.211 641.864 926.811 642.689 928.211 643.839C929.611 644.989 930.736 646.539 931.586 648.489C932.436 650.439 932.861 652.864 932.861 655.764C932.861 656.814 932.786 657.939 932.636 659.139C932.536 660.339 932.361 661.589 932.111 662.889H909.611C909.761 666.039 910.561 668.414 912.011 670.014C913.511 671.614 915.911 672.414 919.211 672.414C921.261 672.414 923.086 672.114 924.686 671.514C926.336 670.864 927.586 670.214 928.436 669.564L931.661 675.939ZM917.711 648.414C915.161 648.414 913.261 649.189 912.011 650.739C910.811 652.239 910.086 654.264 909.836 656.814H923.786C923.986 654.114 923.561 652.039 922.511 650.589C921.511 649.139 919.911 648.414 917.711 648.414Z" fill="#535757"/>
</svg>
